<svg width="192" height="179" viewBox="0 0 192 179" fill="none" xmlns="http://www.w3.org/2000/svg">
<g clip-path="url(#clip0_124_28)">
<path d="M94.9702 177.15C92.9402 177.16 91.8602 174.55 91.8602 174.55L91.4502 173.19L91.5502 174.2C91.5802 174.44 91.3902 174.65 91.1402 174.66L66.7502 174.8C66.4602 174.8 66.2002 174.61 66.1202 174.32L64.6202 168.85L64.4202 172.05C64.1602 176.45 63.7602 177.55 63.1002 172.05C63.1002 172.05 62.9802 169.86 62.8002 167.67C62.0402 160.54 62.4402 154.61 62.4402 154.61C63.0402 150.92 63.7902 150.79 64.7002 154.6L90.4402 154.46C90.4402 154.46 90.5302 149.53 90.4402 147.9C90.3502 146.27 88.6602 143.69 88.6602 143.69C88.6602 143.69 88.1802 142.82 86.3602 141.57C86.1302 141.42 85.8102 141.48 85.6802 141.72C85.2802 142.5 84.6202 142.48 84.6202 142.48L83.0302 142.8C82.9102 142.82 82.8102 142.89 82.7702 143C82.6002 143.42 82.3702 144.29 80.1702 144.3C78.1002 144.31 77.1802 143.27 77.0202 142.88C76.9702 142.75 76.8602 142.66 76.7302 142.65C76.2102 142.61 74.7002 142.55 74.0602 141.98C71.7802 138.79 71.8502 129.02 71.8502 129.02C71.8502 129.02 72.0402 111.52 72.0402 110.55C72.0402 109.58 72.1802 109.35 72.1802 109.35C72.1802 109.35 66.4102 109.2 65.7102 109.2C65.7102 110.32 65.3802 110.03 65.3802 110.03H63.6102C62.8702 110.04 63.0202 109.11 63.0202 109.11L1.74022 104.01C1.32022 103.97 0.990221 103.62 1.00022 103.2C1.01022 100.4 1.09022 90.5001 1.64022 86.3101C2.28022 81.4101 5.44022 81.2901 5.44022 81.2901L64.2002 76.5301C64.3602 72.1501 65.0402 69.3301 65.0402 69.3301C66.9702 64.9401 68.4002 65.0401 70.3002 69.3001C70.9402 71.9201 70.9602 74.4701 70.9702 75.5601C71.6302 75.5601 71.5402 76.1601 71.5402 76.1601L87.7302 76.2201C87.9402 76.2201 88.1102 76.0501 88.1002 75.8401L88.1402 29.0301C88.0902 20.8601 89.3902 14.5801 90.8402 10.0401C92.2902 5.5001 93.2402 5.4701 93.2402 5.4701V2.0201C93.2302 1.9301 93.3002 1.8501 93.3902 1.8501H94.4702H95.7602C95.8502 1.8501 95.9302 1.9201 95.9302 2.0201V4.2701C95.9302 4.2701 97.8902 3.9401 99.3902 8.4701C100.89 13.0001 102.95 20.7601 102.95 28.9301V75.7901C102.95 76.0001 103.12 76.1701 103.33 76.1701H119.51C119.51 76.1701 119.41 75.5701 120.09 75.5701C120.09 74.4701 120.09 71.9301 120.73 69.3001C122.64 65.0301 124.1 64.9201 126.09 69.3001C126.09 69.3001 126.8 72.1101 126.99 76.4901L185.59 81.3601C185.59 81.3601 188.81 81.4601 189.49 86.3601C190.07 90.5401 190.2 100.44 190.23 103.24C190.23 103.67 189.91 104.02 189.49 104.05L128.05 109.16C128.05 109.16 128.2 110.1 127.45 110.1H125.65C125.65 110.1 125.31 110.4 125.31 109.28C124.6 109.28 118.83 109.35 118.83 109.35C118.83 109.35 118.98 109.57 118.98 110.55V128.89C118.98 128.89 118.72 139.23 116.42 142.43C115.78 143 114.49 143.16 113.96 143.2C113.82 143.21 113.72 143.3 113.67 143.43C113.52 143.82 112.95 144.6 110.84 144.6C108.61 144.6 107.96 143.58 107.79 143.16C107.74 143.05 107.64 142.97 107.52 142.96L105.93 142.75C105.93 142.75 105.26 142.77 104.85 142C104.72 141.75 104.39 141.69 104.16 141.85C102.31 143.11 101.88 143.71 101.88 143.71C101.88 143.71 100.19 145.26 100.11 146.89C100.03 148.52 100.11 154.42 100.11 154.42H125.68C126.59 150.61 127.35 150.73 127.98 154.42C127.98 154.42 128.42 160.35 127.69 167.49C127.52 169.68 127.41 171.87 127.41 171.87C126.77 177.37 126.36 176.26 126.06 171.87L125.84 168.67L124.34 174.14C124.26 174.42 124 174.62 123.71 174.62H98.8602C98.6202 174.62 98.4302 174.41 98.4502 174.17L98.5502 173.16L98.1402 174.52C98.1402 174.52 97.0502 177.13 94.9902 177.13" fill="white"/>
<path d="M94.97 177.15C92.94 177.16 91.86 174.55 91.86 174.55L91.45 173.19L91.55 174.2C91.58 174.44 91.39 174.65 91.14 174.66L66.75 174.8C66.46 174.8 66.2 174.61 66.12 174.32L64.62 168.85L64.42 172.05C64.16 176.45 63.76 177.55 63.1 172.05C63.1 172.05 62.98 169.86 62.8 167.67C62.04 160.54 62.44 154.61 62.44 154.61C63.04 150.92 63.79 150.79 64.7 154.6L90.44 154.46C90.44 154.46 90.53 149.53 90.44 147.9C90.35 146.27 88.66 143.69 88.66 143.69C88.66 143.69 88.18 142.82 86.36 141.57C86.13 141.42 85.81 141.48 85.68 141.72C85.28 142.5 84.62 142.48 84.62 142.48L83.03 142.8C82.91 142.82 82.81 142.89 82.77 143C82.6 143.42 82.37 144.29 80.17 144.3C78.1 144.31 77.18 143.27 77.02 142.88C76.97 142.75 76.86 142.66 76.73 142.65C76.21 142.61 74.7 142.55 74.06 141.98C71.78 138.79 71.85 129.02 71.85 129.02C71.85 129.02 72.04 111.52 72.04 110.55C72.04 109.58 72.18 109.35 72.18 109.35C72.18 109.35 66.41 109.2 65.71 109.2C65.71 110.32 65.38 110.03 65.38 110.03H63.61C62.87 110.04 63.02 109.11 63.02 109.11L1.73998 104.01C1.31998 103.97 0.989977 103.62 0.999977 103.2C1.00998 100.4 1.08998 90.5001 1.63998 86.3101C2.27998 81.4101 5.43998 81.2901 5.43998 81.2901L64.2 76.5301C64.36 72.1501 65.04 69.3301 65.04 69.3301C66.97 64.9401 68.4 65.0401 70.3 69.3001C70.94 71.9201 70.96 74.4701 70.97 75.5601C71.63 75.5601 71.54 76.1601 71.54 76.1601L87.73 76.2201C87.94 76.2201 88.11 76.0501 88.1 75.8401L88.14 29.0301C88.09 20.8601 89.39 14.5801 90.84 10.0401C92.29 5.5001 93.24 5.4701 93.24 5.4701V2.0201C93.23 1.9301 93.3 1.8501 93.39 1.8501H94.47H95.76C95.85 1.8501 95.93 1.9201 95.93 2.0201V4.2701C95.93 4.2701 97.89 3.9401 99.39 8.4701C100.89 13.0001 102.95 20.7601 102.95 28.9301V75.7901C102.95 76.0001 103.12 76.1701 103.33 76.1701H119.51C119.51 76.1701 119.41 75.5701 120.09 75.5701C120.09 74.4701 120.09 71.9301 120.73 69.3001C122.64 65.0301 124.1 64.9201 126.09 69.3001C126.09 69.3001 126.8 72.1101 126.99 76.4901L185.59 81.3601C185.59 81.3601 188.81 81.4601 189.49 86.3601C190.07 90.5401 190.2 100.44 190.23 103.24C190.23 103.67 189.91 104.02 189.49 104.05L128.05 109.16C128.05 109.16 128.2 110.1 127.45 110.1H125.65C125.65 110.1 125.31 110.4 125.31 109.28C124.6 109.28 118.83 109.35 118.83 109.35C118.83 109.35 118.98 109.57 118.98 110.55V128.89C118.98 128.89 118.72 139.23 116.42 142.43C115.78 143 114.49 143.16 113.96 143.2C113.82 143.21 113.72 143.3 113.67 143.43C113.52 143.82 112.95 144.6 110.84 144.6C108.61 144.6 107.96 143.58 107.79 143.16C107.74 143.05 107.64 142.97 107.52 142.96L105.93 142.75C105.93 142.75 105.26 142.77 104.85 142C104.72 141.75 104.39 141.69 104.16 141.85C102.31 143.11 101.88 143.71 101.88 143.71C101.88 143.71 100.19 145.26 100.11 146.89C100.03 148.52 100.11 154.42 100.11 154.42H125.68C126.59 150.61 127.35 150.73 127.98 154.42C127.98 154.42 128.42 160.35 127.69 167.49C127.52 169.68 127.41 171.87 127.41 171.87C126.77 177.37 126.36 176.26 126.06 171.87L125.84 168.67L124.34 174.14C124.26 174.42 124 174.62 123.71 174.62H98.86C98.62 174.62 98.43 174.41 98.45 174.17L98.55 173.16L98.14 174.52C98.14 174.52 97.05 177.13 94.99 177.13" stroke="black" stroke-width="2" stroke-linecap="round" stroke-linejoin="round"/>
</g>
<defs>
<clipPath id="clip0_124_28">
<rect width="191.21" height="177.3" fill="white" transform="translate(0 0.850098)"/>
</clipPath>
</defs>
</svg>
