<svg width="741" height="699" viewBox="0 0 741 699" fill="none" xmlns="http://www.w3.org/2000/svg">
<g clip-path="url(#clip0_513_25)">
<path d="M517.79 697C517.61 697 517.44 696.98 517.26 696.93L434.93 674.35L386.77 662.99C385.66 665.78 384.49 668.51 383.22 671.29C379.18 680.08 372.33 688.54 372.04 688.89C371.66 689.36 371.09 689.63 370.49 689.63C369.89 689.63 369.32 689.36 368.94 688.89C368.65 688.53 361.8 680.08 357.76 671.29C356.49 668.51 355.32 665.78 354.21 662.99L305.98 674.37L223.72 696.93C223.55 696.98 223.37 697 223.19 697C222.76 697 222.33 696.86 221.98 696.59C221.48 696.21 221.19 695.62 221.19 695V677.82C221.5 666.78 224.56 661.16 234.81 652.72L333.17 575.82C324.87 490.05 325.52 444.28 326.7 361.47L326.78 356.13L321.6 357.7C321.15 361.69 320.11 365.73 316.97 365.73C314.31 365.73 313.24 362.83 312.75 360.38L269.21 373.57C268.83 378.64 267.84 383.4 264.41 383.4C261.53 383.4 260.43 380.15 259.91 376.39L238.65 382.83L226.57 387.11C226.2 392.27 225.22 397.15 221.75 397.15C218.94 397.15 217.82 393.92 217.29 390.4L182.94 402.57C182.58 407.86 181.61 412.86 178.1 412.86C175.24 412.86 174.13 409.64 173.6 405.88L158.38 411.27L144.29 416.71C143.96 422.28 143.02 427.58 139.42 427.58C136.51 427.58 135.4 424.24 134.89 420.35L97.58 434.76C97.18 439.65 96.2 444.27 92.81 444.27C90.02 444.27 88.94 441.02 88.46 438.28L4.72 470.62C4.49 470.71 4.24 470.75 4 470.75C3.6 470.75 3.21 470.63 2.87 470.4C2.33 470.03 2 469.41 2 468.75V448.63C2 448.58 2 448.52 2 448.47C3.75 427.1 9.68 419.68 23.18 410.19L168.66 314.57C167.86 314.47 167.19 313.89 166.98 313.09L166.84 312.54C165.94 309.09 165.25 306.46 165.31 302.17H163.51C163.43 302.18 163.35 302.19 163.27 302.19C162.7 302.19 162.1 301.91 161.72 301.49C159.85 299.41 157.06 274.37 158.76 258.74C159.18 254.85 159.67 250.97 160.09 248.08C160.85 242.93 161.13 241 163.22 241C163.38 241 163.53 241.02 163.69 241.06H190.46C190.61 241.02 190.77 241 190.93 241C192.94 241 193.54 241.7 195.4 258.73C196.79 271.49 195.19 290.52 193.53 298.21L252.59 259.39C252.58 258.94 252.57 258.47 252.59 257.99H250.79C250.71 258 250.63 258.01 250.55 258.01C249.98 258.01 249.38 257.73 249 257.31C247.13 255.23 244.34 230.19 246.04 214.56C247.9 197.53 248.5 196.83 250.51 196.83C250.67 196.83 250.82 196.85 250.98 196.89H277.75C277.9 196.85 278.06 196.83 278.22 196.83C280.23 196.83 280.83 197.53 282.69 214.56C283.62 223.12 283.18 232.86 282.64 239.65L308.9 222.39C317.2 217.04 321.4 213.6 324.9 210.22L325.36 199.31C323.96 158.24 325.82 134.38 328.9 94.87L329.34 89.23C329.48 87.84 332.72 56.11 337.87 40.66C342.08 28.01 351.21 16.48 351.59 16C358.38 6.91 362.53 3.77 370.07 2.05C370.22 2.02 370.37 2 370.52 2C370.67 2 370.82 2.02 370.97 2.05C378.5 3.77 382.65 6.91 389.49 16.05C389.84 16.49 398.96 28.02 403.17 40.66C408.32 56.11 411.56 87.84 411.69 89.19L412.13 94.88C415.21 134.39 417.06 158.24 415.67 199.31L416.13 210.22C419.62 213.6 423.82 217.04 432.11 222.38L458.38 239.65C457.83 232.86 457.39 223.12 458.33 214.56C460.19 197.53 460.79 196.83 462.8 196.83C462.96 196.83 463.11 196.85 463.27 196.89H490.04C490.19 196.85 490.35 196.83 490.51 196.83C492.52 196.83 493.12 197.53 494.98 214.56C496.68 230.19 493.89 255.23 492.02 257.31C491.64 257.73 491.04 258.01 490.47 258.01C490.39 258.01 490.31 258.01 490.23 257.99H488.43C488.43 258.47 488.43 258.93 488.43 259.39L547.49 298.21C545.84 290.52 544.23 271.49 545.62 258.73C547.48 241.7 548.08 241 550.09 241C550.25 241 550.4 241.02 550.56 241.06H577.33C577.48 241.02 577.64 241 577.8 241C579.81 241 580.42 241.7 582.27 258.74C583.97 274.37 581.18 299.41 579.31 301.49C578.93 301.91 578.33 302.19 577.76 302.19C577.68 302.19 577.6 302.19 577.52 302.17H575.72C575.78 306.46 575.09 309.08 574.19 312.54L574.05 313.09C573.84 313.89 573.17 314.47 572.37 314.57L717.8 410.15C731.35 419.68 737.28 427.1 739.03 448.47C739.03 448.52 739.03 448.58 739.03 448.63V468.75C739.03 469.41 738.7 470.03 738.16 470.4C737.82 470.63 737.43 470.75 737.03 470.75C736.79 470.75 736.54 470.71 736.31 470.62L652.55 438.27C652.07 441.01 651 444.25 648.2 444.25C644.81 444.25 643.82 439.63 643.42 434.74L606.11 420.33C605.59 424.22 604.48 427.56 601.58 427.56C597.98 427.56 597.04 422.27 596.71 416.69L582.57 411.23L567.4 405.86C566.87 409.62 565.77 412.84 562.9 412.84C559.39 412.84 558.42 407.84 558.07 402.55L523.72 390.38C523.19 393.9 522.07 397.13 519.26 397.13C515.79 397.13 514.82 392.25 514.44 387.09L502.28 382.78L481.11 376.37C480.59 380.13 479.49 383.38 476.61 383.38C473.18 383.38 472.19 378.62 471.81 373.55L428.27 360.36C427.78 362.81 426.71 365.71 424.05 365.71C420.91 365.71 419.88 361.67 419.42 357.68L414.24 356.11L414.32 361.44C415.5 444.26 416.16 490.03 407.86 575.81L506.18 652.67C516.48 661.14 519.53 666.76 519.84 677.75V694.98C519.84 695.6 519.55 696.19 519.05 696.57C518.7 696.84 518.27 696.98 517.84 696.98L517.79 697Z" fill="white"/>
<path d="M370.5 3.99999C377.27 5.54999 381.06 8.14999 387.86 17.25C387.86 17.25 397.1 28.84 401.25 41.3C406.39 56.72 409.68 89.4 409.68 89.4C413.01 132.34 415.11 156.41 413.65 199.33L414.14 211.11C417.91 214.82 422.27 218.45 431 224.08L460.72 243.62C459.86 235.17 459.29 223.9 460.29 214.8C461.05 207.84 462.24 198.85 462.77 198.85C462.79 198.85 462.82 198.87 462.84 198.91H490.41C490.41 198.91 490.46 198.85 490.48 198.85C491.01 198.85 492.2 207.85 492.96 214.8C494.8 231.7 491.28 256.03 490.44 256.03C490.43 256.03 490.42 256.03 490.4 256.01H486.32C486.43 257.72 486.42 259.16 486.34 260.45L554.22 305.07C554.1 303.66 554.09 302.09 554.2 300.18H550.12C550.12 300.18 550.1 300.2 550.08 300.2C549.24 300.2 545.72 275.86 547.56 258.97C548.32 252.01 549.51 243.02 550.04 243.02C550.06 243.02 550.09 243.04 550.11 243.08H577.68C577.68 243.08 577.73 243.02 577.75 243.02C578.28 243.02 579.47 252.02 580.23 258.97C582.07 275.87 578.55 300.2 577.71 300.2C577.7 300.2 577.69 300.2 577.67 300.18H573.59C573.93 305.73 573.15 308.41 572.06 312.59H567.98V314.12L716.65 411.83C729.65 420.97 735.28 427.81 736.98 448.64V468.76L650.85 435.49C650.48 439.12 649.71 442.26 648.16 442.26C646.31 442.26 645.57 437.79 645.29 433.34L604.35 417.53C604.03 421.67 603.27 425.57 601.54 425.57C599.5 425.57 598.81 420.14 598.6 415.31L583.25 409.38L565.64 403.14C565.3 407.15 564.54 410.85 562.86 410.85C560.9 410.85 560.18 405.82 559.94 401.12L521.98 387.67C521.63 391.59 520.87 395.14 519.22 395.14C517.29 395.14 516.57 390.28 516.32 385.66L502.91 380.91L479.35 373.77C479.01 377.75 478.24 381.4 476.58 381.4C474.67 381.4 473.94 376.64 473.68 372.06L426.6 357.8C426.2 361.06 425.43 363.73 424 363.73C422.34 363.73 421.57 360.13 421.23 356.17L412.15 353.42C413.39 441.16 414.37 487.58 405.7 576.72L504.89 654.26C514.85 662.45 517.5 667.64 517.78 677.82V695L435.45 672.42L385.53 660.64C384.3 663.84 382.93 667.09 381.39 670.46C377.41 679.12 370.48 687.64 370.48 687.64C370.48 687.64 363.55 679.13 359.57 670.46C358.03 667.1 356.66 663.85 355.43 660.64L305.51 672.42L223.18 695V677.82C223.47 667.64 226.12 662.45 236.07 654.26L335.26 576.72C326.59 487.58 327.57 441.16 328.81 353.42L319.73 356.17C319.39 360.12 318.62 363.73 316.96 363.73C315.53 363.73 314.77 361.06 314.36 357.8L267.28 372.06C267.02 376.64 266.29 381.4 264.38 381.4C262.71 381.4 261.95 377.75 261.61 373.77L238.05 380.91L224.64 385.66C224.39 390.28 223.66 395.14 221.74 395.14C220.09 395.14 219.33 391.59 218.98 387.67L181.02 401.12C180.78 405.81 180.06 410.85 178.1 410.85C176.42 410.85 175.66 407.15 175.32 403.14L157.71 409.38L142.36 415.31C142.15 420.15 141.45 425.57 139.42 425.57C137.69 425.57 136.93 421.67 136.61 417.53L95.67 433.34C95.39 437.78 94.65 442.26 92.8 442.26C91.25 442.26 90.48 439.12 90.11 435.49L4 468.76V448.64C5.71 427.82 11.34 420.97 24.33 411.83L173 314.12V312.59H168.92C167.83 308.4 167.05 305.73 167.39 300.18H163.31C163.31 300.18 163.29 300.2 163.27 300.2C162.43 300.2 158.91 275.86 160.75 258.97C161.51 252.01 162.7 243.02 163.23 243.02C163.25 243.02 163.28 243.04 163.3 243.08H190.87C190.87 243.08 190.92 243.02 190.94 243.02C191.47 243.02 192.66 252.02 193.42 258.97C195.26 275.87 191.74 300.2 190.9 300.2C190.89 300.2 190.88 300.2 190.86 300.18H186.78C186.9 302.09 186.88 303.66 186.76 305.07L254.64 260.45C254.56 259.16 254.55 257.72 254.66 256.01H250.58C250.58 256.01 250.56 256.03 250.54 256.03C249.7 256.03 246.18 231.69 248.02 214.8C248.78 207.84 249.97 198.85 250.5 198.85C250.52 198.85 250.55 198.87 250.57 198.91H278.14C278.14 198.91 278.19 198.85 278.21 198.85C278.74 198.85 279.93 207.85 280.69 214.8C281.68 223.9 281.12 235.17 280.26 243.62L309.98 224.08C318.71 218.46 323.07 214.83 326.84 211.11L327.33 199.33C325.87 156.41 327.97 132.34 331.3 89.4C331.3 89.4 334.59 56.73 339.73 41.3C343.88 28.85 353.12 17.25 353.12 17.25C359.92 8.14999 363.71 5.53999 370.48 3.99999M370.48 -9.76585e-06C370.18 -9.76585e-06 369.88 0.0299902 369.59 0.0999902C361.61 1.91999 357.02 5.35999 349.95 14.81C349.18 15.79 340.16 27.35 335.93 40.04C330.71 55.7 327.45 87.65 327.31 89C327.31 89.03 327.31 89.06 327.31 89.09L326.87 94.72C323.79 134.28 321.93 158.17 323.33 199.31L322.91 209.34C319.61 212.47 315.51 215.75 307.81 220.71L284.9 235.77C285.28 229.37 285.44 221.47 284.66 214.36C284.23 210.45 283.74 206.53 283.31 203.63C283.05 201.9 282.82 200.52 282.62 199.54C282.35 198.26 281.64 194.85 278.21 194.84C278.21 194.84 278.2 194.84 278.19 194.84C277.96 194.84 277.72 194.86 277.5 194.9H251.19C250.96 194.86 250.73 194.84 250.49 194.84C247.05 194.84 246.34 198.25 246.07 199.54C245.87 200.52 245.63 201.89 245.38 203.63C244.95 206.54 244.46 210.45 244.03 214.36C242.96 224.15 243.69 235.6 244.22 241.55C245.55 256.51 246.9 258.02 247.48 258.66C247.82 259.04 248.22 259.35 248.67 259.58L196.26 294.03C196.56 291.87 196.86 289.15 197.17 285.73C197.7 279.78 198.43 268.33 197.36 258.54C196.93 254.63 196.44 250.71 196.01 247.81C195.75 246.08 195.52 244.7 195.32 243.72C195.05 242.44 194.34 239.03 190.91 239.02C190.91 239.02 190.9 239.02 190.89 239.02C190.66 239.02 190.42 239.04 190.2 239.08H163.89C163.66 239.04 163.43 239.02 163.19 239.02C159.75 239.02 159.04 242.43 158.77 243.72C158.57 244.7 158.33 246.07 158.08 247.81C157.65 250.72 157.16 254.63 156.74 258.54C155.67 268.33 156.4 279.78 156.93 285.73C158.26 300.69 159.61 302.2 160.19 302.84C160.97 303.71 162.08 304.2 163.23 304.2C163.25 304.2 163.28 304.2 163.3 304.2C163.45 307.65 164.1 310.13 164.87 313.06L165.01 313.61C165.08 313.88 165.18 314.14 165.3 314.38L22.14 408.48C22.14 408.48 22.07 408.53 22.04 408.55C8.27 418.24 1.82 426.27 0.01 448.31C0.01 448.42 0 448.53 0 448.64V468.76C0 470.08 0.65 471.31 1.74 472.06C2.42 472.52 3.21 472.76 4 472.76C4.49 472.76 4.97 472.67 5.44 472.49L87.07 440.96C87.91 443.67 89.54 446.26 92.82 446.26C97.75 446.26 99.04 440.4 99.48 436.17L133.36 423.09C134.13 426.36 135.76 429.58 139.44 429.58C144.71 429.58 145.87 422.97 146.23 418.12L159.12 413.14L172.08 408.55C172.85 411.73 174.48 414.86 178.12 414.86C183.24 414.86 184.46 408.66 184.86 404.02L215.79 393.06C216.59 396.11 218.22 399.15 221.76 399.15C226.83 399.15 228.07 393.11 228.48 388.56L239.32 384.72L258.34 378.96C259.1 382.17 260.71 385.41 264.41 385.41C269.4 385.41 270.67 379.57 271.1 375.1L311.38 362.9C312.24 365.36 313.85 367.74 316.98 367.74C321.5 367.74 322.9 362.94 323.44 359.25L324.75 358.85L324.71 361.46C323.53 443.99 322.88 489.76 331.08 574.94L233.62 651.13C233.62 651.13 233.57 651.17 233.54 651.19C222.87 659.97 219.51 666.17 219.19 677.72C219.19 677.76 219.19 677.8 219.19 677.83V695.01C219.19 696.26 219.77 697.43 220.76 698.19C221.46 698.73 222.32 699.01 223.19 699.01C223.54 699.01 223.9 698.96 224.25 698.87L306.51 676.31L353 665.34C353.93 667.62 354.9 669.86 355.95 672.14C360.09 681.16 367.1 689.81 367.39 690.17C368.15 691.1 369.29 691.64 370.49 691.64C371.69 691.64 372.83 691.1 373.59 690.17C373.89 689.81 380.89 681.16 385.03 672.14C386.07 669.86 387.05 667.62 387.98 665.34L434.47 676.31L516.73 698.87C517.08 698.97 517.43 699.01 517.79 699.01C518.66 699.01 519.51 698.73 520.22 698.19C521.21 697.43 521.79 696.26 521.79 695.01V677.83C521.79 677.83 521.79 677.75 521.79 677.72C521.46 666.17 518.11 659.97 507.44 651.19C507.41 651.17 507.39 651.15 507.36 651.13L409.9 574.94C418.1 489.76 417.45 443.99 416.27 361.46L416.23 358.85L417.54 359.25C418.08 362.95 419.48 367.74 424 367.74C427.13 367.74 428.74 365.36 429.6 362.9L469.88 375.1C470.31 379.58 471.58 385.41 476.57 385.41C480.28 385.41 481.89 382.18 482.65 378.96L501.67 384.72L512.51 388.56C512.92 393.1 514.16 399.15 519.23 399.15C522.77 399.15 524.4 396.11 525.2 393.06L556.13 404.02C556.53 408.66 557.75 414.86 562.87 414.86C566.52 414.86 568.14 411.73 568.91 408.55L581.87 413.14L594.76 418.12C595.12 422.97 596.29 429.58 601.55 429.58C605.23 429.58 606.86 426.36 607.63 423.09L641.51 436.17C641.95 440.4 643.24 446.26 648.17 446.26C651.45 446.26 653.08 443.67 653.92 440.96L735.55 472.49C736.02 472.67 736.5 472.76 736.99 472.76C737.79 472.76 738.58 472.52 739.25 472.06C740.34 471.31 740.99 470.08 740.99 468.76V448.64C740.99 448.53 740.99 448.42 740.98 448.31C739.18 426.28 732.73 418.24 718.96 408.56C718.93 408.54 718.89 408.51 718.86 408.49L575.66 314.37C575.78 314.13 575.88 313.87 575.95 313.6L576.09 313.05C576.86 310.12 577.51 307.63 577.66 304.19C577.68 304.19 577.71 304.19 577.73 304.19C578.88 304.19 579.99 303.69 580.77 302.83C581.35 302.19 582.7 300.68 584.03 285.72C584.56 279.77 585.29 268.32 584.22 258.53C583.79 254.62 583.3 250.71 582.88 247.8C582.62 246.07 582.39 244.69 582.19 243.71C581.92 242.43 581.21 239.02 577.78 239.01C577.78 239.01 577.77 239.01 577.76 239.01C577.53 239.01 577.29 239.03 577.07 239.07H550.76C550.53 239.03 550.3 239.01 550.06 239.01C546.62 239.01 545.91 242.42 545.64 243.71C545.44 244.69 545.2 246.06 544.95 247.8C544.52 250.71 544.03 254.62 543.61 258.53C542.54 268.32 543.27 279.77 543.8 285.72C544.1 289.14 544.41 291.86 544.71 294.02L492.3 259.57C492.74 259.34 493.15 259.03 493.49 258.65C494.07 258.01 495.42 256.5 496.75 241.54C497.28 235.59 498.01 224.14 496.94 214.35C496.51 210.44 496.02 206.52 495.59 203.62C495.33 201.89 495.1 200.51 494.9 199.53C494.63 198.25 493.92 194.84 490.49 194.83C490.49 194.83 490.48 194.83 490.47 194.83C490.24 194.83 490 194.85 489.78 194.89H463.47C463.24 194.85 463.01 194.83 462.77 194.83C459.33 194.83 458.62 198.24 458.35 199.53C458.15 200.51 457.91 201.88 457.66 203.62C457.23 206.53 456.74 210.44 456.31 214.35C455.53 221.47 455.69 229.36 456.07 235.76L433.19 220.72C425.47 215.74 421.36 212.46 418.06 209.33L417.64 199.3C419.03 158.16 417.17 134.27 414.1 94.71L413.66 89.08C413.66 89.08 413.66 89.02 413.66 88.99C413.52 87.64 410.26 55.69 405.04 40.03C400.81 27.34 391.8 15.78 391.02 14.8C383.96 5.34999 379.36 1.90999 371.38 0.0899902C371.09 0.0199902 370.79 -0.0100098 370.49 -0.0100098L370.48 -9.76585e-06Z" fill="black"/>
</g>
<defs>
<clipPath id="clip0_513_25">
<rect width="741" height="699" fill="white"/>
</clipPath>
</defs>
</svg>
