<svg width="142" height="163" viewBox="0 0 142 163" fill="none" xmlns="http://www.w3.org/2000/svg">
<g clip-path="url(#clip0_311_84)">
<path d="M68.8598 161.235C68.4598 161.235 68.0698 161.115 67.7398 160.895C66.0298 159.745 64.7798 157.675 64.2298 156.245C63.9998 155.665 63.8898 155.035 63.8898 154.395V152.755C63.9098 150.955 65.1798 150.285 65.8498 150.185L66.3898 150.055L66.2698 147.555L47.9898 146.375C47.9898 146.375 47.9198 146.375 47.8798 146.375C47.5298 146.375 46.8698 146.295 46.3098 145.725C45.7998 145.205 45.5398 144.445 45.5398 143.465C45.5598 140.185 48.2498 138.775 49.6598 138.485C49.7198 138.475 49.7798 138.465 49.8498 138.465L65.5998 138.295L63.2998 106.235C63.2398 105.375 63.0598 104.525 62.7898 103.705L58.1198 89.9949H57.6198C57.1198 89.9949 56.6498 89.8049 56.2898 89.4749C54.9598 88.2749 52.6498 86.1749 52.0798 85.5249C51.2498 84.5749 51.2298 83.6249 51.2398 83.3249L51.2798 77.1149C35.5298 84.8649 9.81984 97.5649 9.81984 97.5649C8.83984 98.0649 7.78984 98.3249 6.70984 98.3249C6.17984 98.3249 5.62984 98.2649 5.08984 98.1349C3.46984 97.7649 2.04984 96.6949 1.19984 95.1949C0.949844 94.7649 0.949844 94.2449 1.17984 93.7949C1.40984 93.3549 1.83984 93.0649 2.33984 93.0149L3.68984 92.8849C4.34984 92.8249 4.97984 92.6349 5.56984 92.3449L48.7398 70.4149C48.7998 70.3849 48.8698 70.3549 48.9398 70.3449L55.1398 68.6849L55.2198 56.5949C55.2198 56.1749 55.3398 55.7849 55.5598 55.4449C43.8998 43.4449 20.4698 19.4249 20.4698 19.4249C19.2998 18.2549 18.6198 16.8049 18.4598 15.1049C18.3098 13.4449 18.8898 11.7649 20.0498 10.5049C20.3198 10.2049 20.7198 10.0349 21.1198 10.0349C21.6998 10.0349 22.2298 10.3849 22.4598 10.9149L22.9998 12.1649C23.2598 12.7749 23.6298 13.3149 24.0998 13.7849L56.3798 46.1349V43.7149C56.4798 30.7549 64.2698 15.7549 69.2898 15.7549C73.2999 15.7549 79.5198 25.8949 81.4498 37.1049C89.2098 22.4349 98.1698 5.45487 98.1698 5.45487C98.9198 3.98487 100.1 2.88487 101.67 2.21487C102.39 1.90487 103.17 1.74487 103.97 1.74487C104.85 1.74487 105.74 1.94487 106.54 2.31487C106.99 2.52487 107.3 2.93487 107.37 3.42487C107.44 3.91487 107.26 4.40487 106.89 4.73487L105.87 5.63487C105.37 6.06487 104.97 6.59487 104.66 7.18487L82.5499 50.2649C82.5199 50.3249 82.4799 50.3849 82.4398 50.4349L82.0499 50.9149V54.7549C82.7598 55.2249 83.1599 55.9149 83.1599 56.6849V65.9049C98.2399 68.5249 135 74.8149 135.38 74.8749C137.01 75.1249 138.42 75.9049 139.55 77.1949C140.65 78.4449 141.17 80.1449 140.97 81.8549C140.89 82.5949 140.26 83.1449 139.52 83.1449C139.26 83.1449 139 83.0749 138.78 82.9349L137.61 82.2449C137.04 81.9049 136.42 81.6849 135.77 81.5749L87.9498 73.9549C87.8798 73.9449 87.8098 73.9249 87.7498 73.9049L86.9799 73.6049V83.4349C86.9899 83.7349 86.9698 84.6849 86.1298 85.6249C85.5598 86.2649 83.2299 88.3549 81.8998 89.5449C81.5298 89.8749 81.0598 90.0549 80.5698 90.0549H80.0698L76.2999 100.885C78.4698 116.105 80.7299 131.855 80.7299 131.855C80.9899 133.485 80.6798 135.065 79.8098 136.525C79.3598 137.275 78.7498 137.905 78.0198 138.395L88.0298 138.565C88.0898 138.565 88.1498 138.565 88.2198 138.585C89.6398 138.875 92.3098 140.305 92.3098 143.585C92.3098 145.715 91.0499 146.475 89.9698 146.475C89.9198 146.475 89.8798 146.475 89.8398 146.475L71.5499 147.545L71.4099 150.045L72.0298 150.195C72.6198 150.285 73.8798 150.965 73.8798 152.765V154.405C73.8798 155.045 73.7598 155.675 73.5298 156.255C72.9698 157.685 71.6998 159.755 69.9898 160.885C69.6598 161.105 69.2698 161.215 68.8798 161.215L68.8598 161.235ZM74.1098 138.345C74.0298 138.095 74.0199 137.835 74.0798 137.565L74.3798 136.245C74.5298 135.595 74.5498 134.945 74.4498 134.285L73.1998 126.265L72.2598 138.315L74.1098 138.345Z" fill="white"/>
<path d="M103.96 2.76489C104.7 2.76489 105.44 2.92489 106.12 3.24489C106.42 3.38489 106.48 3.78489 106.23 4.00489L105.21 4.89489C104.62 5.41489 104.13 6.03489 103.77 6.73489L81.66 49.8149L81.0399 50.5749V55.1249C81.0399 55.2649 81.1199 55.3949 81.2499 55.4649C81.5699 55.6249 82.1499 56.0149 82.1499 56.6949V66.7549C96.84 69.3049 135.2 75.8649 135.2 75.8649C136.59 76.0849 137.79 76.7249 138.78 77.8549C139.71 78.9149 140.12 80.3449 139.96 81.7449C139.93 81.9849 139.72 82.1549 139.5 82.1549C139.42 82.1549 139.34 82.1349 139.27 82.0949L138.1 81.4049C137.42 81.0049 136.68 80.7349 135.9 80.6149L88.0799 72.9949L82.1399 70.7049V70.8349C82.1399 71.0249 82.2799 71.1949 82.4699 71.2349L84.4999 71.6749C84.4999 71.6749 85.9499 72.1049 85.9499 73.3449V83.4849C85.9499 83.4849 86.0399 84.2149 85.3499 84.9849C84.7799 85.6249 82.0899 88.0349 81.1999 88.8249C81.0199 88.9849 80.7799 89.0749 80.5299 89.0749H79.3199L75.2399 100.815C77.4199 116.105 79.7099 132.025 79.7099 132.025C79.9299 133.415 79.6899 134.755 78.9199 136.045C78.1999 137.255 76.9699 138.085 75.5799 138.355C75.5499 138.355 75.5199 138.355 75.4899 138.355C75.1999 138.355 74.9799 138.085 75.0399 137.795L75.3399 136.475C75.5099 135.705 75.5399 134.915 75.4199 134.145L72.8599 117.635L71.1699 139.305L87.9799 139.595C87.9799 139.595 91.2699 140.275 91.2699 143.615C91.2699 145.355 90.2699 145.505 89.9299 145.505C89.8599 145.505 89.8199 145.505 89.8199 145.505L70.5699 146.635L70.3599 150.485C70.3499 150.695 70.4899 150.885 70.6999 150.935L71.7699 151.195C71.7699 151.195 72.8499 151.365 72.8499 152.795V154.435C72.8499 154.945 72.7599 155.445 72.5699 155.925C72.1399 157.025 71.03 159.015 69.41 160.085C69.24 160.195 69.0499 160.255 68.8499 160.255C68.6499 160.255 68.4599 160.195 68.2899 160.085C66.6699 158.995 65.5799 157.005 65.1499 155.905C64.9699 155.435 64.8799 154.925 64.8799 154.415V152.775C64.8999 151.345 65.9799 151.185 65.9799 151.185L67.0499 150.935C67.2599 150.885 67.3999 150.695 67.3899 150.485L67.2099 146.625L47.9599 145.375C47.9599 145.375 47.9199 145.375 47.8599 145.375C47.5299 145.375 46.5099 145.235 46.5199 143.475C46.5399 140.135 49.8399 139.475 49.8399 139.475L66.66 139.295L64.2799 106.175C64.2099 105.225 64.0199 104.295 63.7199 103.395L58.8199 89.0149H57.6099C57.3599 89.0149 57.1299 88.9149 56.9399 88.7449C56.0599 87.9449 53.3799 85.5249 52.8099 84.8849C52.1299 84.1149 52.2199 83.3849 52.2199 83.3849C52.2199 83.3849 52.2499 78.5649 52.2699 75.5249C36.7099 83.1749 9.35994 96.6849 9.35994 96.6849C8.51994 97.1149 7.62994 97.3449 6.68994 97.3449C6.22994 97.3449 5.76994 97.2949 5.28994 97.1849C3.90994 96.8749 2.74994 95.9549 2.04994 94.7349C1.88994 94.4449 2.07994 94.0849 2.40994 94.0549L3.75994 93.9249C4.53994 93.8549 5.29994 93.6349 5.99994 93.2749L49.1699 71.3449L56.1099 69.4949L56.1899 56.6349C56.1899 56.0549 56.6199 55.6849 56.9399 55.4949C45.5499 43.7649 21.1599 18.7549 21.1599 18.7549C20.1599 17.7649 19.5699 16.5349 19.4299 15.0349C19.2999 13.6249 19.8099 12.2349 20.7599 11.1949C20.8499 11.0949 20.9799 11.0449 21.0999 11.0449C21.2699 11.0449 21.4499 11.1449 21.5199 11.3249L22.0599 12.5749C22.3699 13.2949 22.8199 13.9549 23.3699 14.5049L57.3499 48.5549L57.3799 43.7349C57.4599 30.3649 65.4199 16.7649 69.2799 16.7649H69.2899C72.8099 16.7649 79.6999 28.1749 80.8599 40.3449C88.8999 25.1349 99.0399 5.93489 99.0399 5.93489C99.6799 4.67489 100.67 3.73489 102.04 3.14489C102.65 2.88489 103.3 2.75489 103.94 2.75489M103.96 0.764893C103.02 0.764893 102.12 0.944893 101.27 1.31489C99.4799 2.07489 98.1299 3.33489 97.2699 5.03489C97.2699 5.03489 89.28 20.1649 81.8699 34.1949C80.95 30.3149 79.5299 26.4449 77.7399 23.0549C76.1099 19.9549 72.84 14.7649 69.2999 14.7649C65.2599 14.7649 61.5399 21.4749 60.1299 24.3549C57.1599 30.4249 55.4299 37.4849 55.3899 43.7149V43.7349L24.7999 13.0849C24.4199 12.7049 24.1199 12.2649 23.9099 11.7749L23.3699 10.5249C22.9799 9.62489 22.0899 9.03489 21.1099 9.03489C20.4199 9.03489 19.7599 9.32489 19.2999 9.83489C17.9499 11.3149 17.2699 13.2649 17.4499 15.2049C17.6299 17.1449 18.4099 18.8149 19.7599 20.1549C19.9699 20.3749 42.6599 43.6349 54.3499 55.6649C54.2499 55.9649 54.1999 56.2849 54.1999 56.6049L54.1299 67.9349L48.6599 69.3949C48.5299 69.4349 48.3899 69.4849 48.2699 69.5449L5.10994 91.4749C4.62994 91.7149 4.11994 91.8649 3.58994 91.9149L2.23994 92.0449C1.40994 92.1249 0.679943 92.6149 0.289943 93.3549C-0.100057 94.0949 -0.0800568 94.9749 0.329943 95.7049C1.31994 97.4449 2.96994 98.6949 4.86994 99.1249C5.48994 99.2649 6.10994 99.3349 6.70994 99.3349C7.94994 99.3349 9.14994 99.0349 10.2899 98.4549C10.5199 98.3449 34.5999 86.4549 50.2699 78.7349L50.2399 83.2849C50.1899 84.0649 50.4499 85.1949 51.3299 86.1949C51.8999 86.8449 53.9799 88.7449 55.6199 90.2249C56.1199 90.6749 56.7399 90.9349 57.3999 90.9849L61.8499 104.025C62.0999 104.765 62.2599 105.525 62.3099 106.305L64.5399 137.305L49.8499 137.465C49.7199 137.465 49.5999 137.475 49.4799 137.505C47.7899 137.845 44.5799 139.525 44.5599 143.455C44.5599 144.715 44.9099 145.705 45.6199 146.425C46.2199 147.035 47.0299 147.365 47.8999 147.365C47.9399 147.365 47.9699 147.365 47.9999 147.365L65.3399 148.485L65.3799 149.255C64.1499 149.595 62.9499 150.765 62.9399 152.735V154.375C62.9199 155.145 63.0599 155.895 63.3299 156.595C63.5499 157.165 64.77 160.075 67.2199 161.715C67.7199 162.045 68.2999 162.225 68.8999 162.225C69.4999 162.225 70.0699 162.055 70.5599 161.725C73.0199 160.095 74.2499 157.195 74.4799 156.625C74.7599 155.925 74.8999 155.175 74.8999 154.405V152.765C74.8999 150.795 73.7 149.615 72.4799 149.265L72.5199 148.495L89.8599 147.485C89.8599 147.485 89.9399 147.485 89.9799 147.485C91.59 147.485 93.3199 146.265 93.3199 143.595C93.3199 139.665 90.1199 137.965 88.4299 137.615C88.3099 137.585 88.1799 137.575 88.0599 137.575L80.4199 137.445C80.5099 137.315 80.59 137.185 80.6799 137.045C81.6799 135.375 82.03 133.565 81.7299 131.685C81.7299 131.685 79.4999 116.115 77.3399 100.995L80.7999 91.0549C81.46 91.0049 82.0899 90.7449 82.5899 90.3049C84.2399 88.8349 86.3299 86.9449 86.8999 86.3049C87.7799 85.3149 88.0499 84.1849 87.9999 83.4049V74.9849L135.63 82.5749C136.16 82.6549 136.66 82.8449 137.12 83.1149L138.29 83.8049C138.67 84.0349 139.1 84.1449 139.54 84.1449C140.79 84.1449 141.84 83.2049 141.98 81.9649C142.21 79.9749 141.6 77.9949 140.32 76.5349C139.04 75.0749 137.43 74.1849 135.54 73.8849C135.2 73.8249 99.7399 67.7549 84.1799 65.0649V56.6949C84.1799 55.7749 83.7799 54.9249 83.0699 54.2849V51.2849L83.2399 51.0749C83.3299 50.9649 83.3999 50.8449 83.4699 50.7249L105.55 7.65489C105.79 7.17489 106.12 6.75489 106.53 6.40489L107.55 5.51489C108.18 4.96489 108.48 4.13489 108.36 3.31489C108.24 2.48489 107.71 1.78489 106.95 1.43489C106.01 1.00489 104.98 0.774893 103.96 0.774893V0.764893ZM73.4699 135.645L73.5099 135.195C73.5099 135.345 73.4899 135.495 73.4699 135.645Z" fill="black"/>
</g>
<defs>
<clipPath id="clip0_311_84">
<rect width="142" height="161.47" fill="white" transform="translate(0 0.764893)"/>
</clipPath>
</defs>
</svg>
