<svg width="150" height="191" viewBox="0 0 150 191" fill="none" xmlns="http://www.w3.org/2000/svg">
<g clip-path="url(#clip0_312_89)">
<path d="M86.71 189.235C85.65 189.235 85.41 188.025 85.14 186.635C85.13 186.575 85.12 186.505 85.12 186.445V177.495C84.31 178.615 83.09 179.565 81.48 180.325C81.34 180.395 81.2 180.425 81.05 180.425C80.9 180.425 80.75 180.395 80.61 180.325C78.05 179.065 76.5 177.355 76 175.245C75.33 172.375 76.87 169.725 77.45 168.865L77.48 166.735L59.29 165.825C59.1 165.825 58.52 165.775 58.12 165.375C57.88 165.135 57.75 164.805 57.75 164.465C57.79 161.355 58.31 159.035 59.29 157.565C59.84 156.735 60.78 156.225 61.8 156.215L77.19 156.035C76.89 150.525 75.47 124.875 75.13 118.325C75.13 118.235 75.12 118.145 75.11 118.055L67.96 148.255C67.96 148.255 67.94 148.325 67.93 148.365C67.85 148.585 65.95 153.715 61.27 153.875H61.07C59.55 153.875 58.95 153.225 58.72 152.665C58.07 151.105 59.92 148.885 60.95 147.815L70.52 106.705C69.58 103.815 69.03 101.435 68.77 100.245H67.91C65.1 100.205 64.16 97.2049 64.05 95.6249L64.16 86.8949C64.19 84.5349 66.08 82.4449 66.88 81.6649V81.3949C66.71 81.3449 66.56 81.2849 66.42 81.2149C66.42 81.2149 8.52003 84.6849 8.50003 84.6849C8.48003 84.6849 8.46003 84.6849 8.45003 84.6849C8.22003 84.6749 2.75003 84.3349 1.26003 79.8949C0.900032 78.8449 0.940032 78.0349 1.37003 77.4349C1.63003 77.0749 2.14003 76.6549 3.11003 76.6549C4.46003 76.6549 6.27003 77.4949 6.96003 77.8449L65.79 74.0949C66.08 66.7349 66.53 55.1149 66.55 53.0849C66.56 52.1149 66.74 51.2449 67.09 50.5049L50.04 11.0649C50.04 11.0649 50.01 10.9949 50 10.9549C49.93 10.7349 48.39 5.47488 52.05 2.55488C52.72 2.01488 53.33 1.75488 53.91 1.75488C54.43 1.75488 54.91 1.97488 55.27 2.38488C56.25 3.52488 56.07 6.10488 55.93 7.22488L69.93 39.3049C72.44 30.2349 77.77 20.8949 82.02 20.8949C87.56 20.8949 95.13 37.0149 95.36 49.0349C96.08 49.5849 97.16 50.8249 97.16 53.2849C97.16 54.0149 97.2 56.0749 97.28 59.4249L134.4 27.0049C134.4 27.0049 134.46 26.9549 134.49 26.9349C134.59 26.8649 136.9 25.2949 139.62 25.2949C140.91 25.2949 142.08 25.6449 143.11 26.3249C144.21 27.0549 144.68 27.8749 144.49 28.7549C144.13 30.4249 141.32 31.1649 139.85 31.4349L97.52 68.6849C97.67 74.2549 97.81 79.3049 97.82 79.8949C97.85 80.1949 97.79 80.5949 97.52 80.9449C97.28 81.2549 96.94 81.4649 96.48 81.5849V81.8549C96.87 82.2449 97.53 82.9649 98.09 83.8749L145.59 113.605C145.59 113.605 145.65 113.645 145.68 113.675C145.86 113.815 150.12 117.265 148.76 121.745C148.25 123.425 147.35 123.775 146.68 123.775C145.04 123.775 143.58 121.385 142.92 120.105L99.13 92.9349V95.7749C99 97.4349 98.01 100.415 95.21 100.415H94.35C93.82 102.785 92.02 109.895 88.43 116.155C88.04 116.825 87.81 117.605 87.76 118.405C87.34 124.955 85.61 150.585 85.23 156.085L100.61 156.455C101.62 156.475 102.56 156.995 103.1 157.835C104.06 159.315 104.55 161.645 104.55 164.755C104.55 165.545 103.9 166.095 102.96 166.095L87.94 166.655V169.365C88.1 169.625 88.22 169.975 88.28 170.415C90.43 170.655 90.69 172.015 90.69 172.635C90.69 173.585 90.04 174.595 88.27 174.775C88.22 175.055 88.14 175.365 88.05 175.665C87.94 176.315 88.01 182.355 88.1 186.425C88 187.855 87.89 189.235 86.73 189.235H86.71Z" fill="white"/>
<path d="M53.9098 2.76489C55.5598 2.76489 54.8898 7.37489 54.8898 7.37489L70.1898 42.4249C72.3498 32.0349 78.3098 21.8949 82.0098 21.8949C82.0098 21.8949 82.0298 21.8949 82.0398 21.8949C86.5798 21.8949 94.3598 37.2949 94.3598 49.5849C94.3598 49.5849 96.1498 50.3049 96.1498 53.2849C96.1498 54.2849 96.2198 57.6049 96.3198 61.5749L135.04 27.7549C135.04 27.7549 137.16 26.2849 139.6 26.2849C140.56 26.2849 141.58 26.5149 142.53 27.1449C145.91 29.3949 139.37 30.4949 139.37 30.4949L96.4798 68.2449C96.6398 74.3549 96.7998 79.9849 96.7998 79.9849C96.7998 79.9849 96.9798 80.7049 95.4598 80.7049V82.2849C95.4598 82.2849 96.5498 83.2449 97.3398 84.5949L145.04 114.445C145.04 114.445 148.96 117.565 147.79 121.445C147.5 122.405 147.1 122.765 146.67 122.765C145.34 122.765 143.67 119.395 143.67 119.395L98.1198 91.1249V95.7649C98.1198 95.7649 97.8198 99.4049 95.1998 99.4049H93.5298C93.5298 99.4049 91.8098 108.215 87.5498 115.645C87.0798 116.465 86.8098 117.385 86.7498 118.335C86.2798 125.725 84.1498 157.055 84.1498 157.055L100.58 157.455C101.26 157.475 101.89 157.815 102.26 158.385C102.87 159.315 103.55 161.165 103.55 164.755C103.55 165.085 103.04 165.095 102.96 165.095H102.95L86.9398 165.695V169.815C86.9398 169.815 86.9398 169.815 86.9498 169.815C87.0098 169.815 87.3398 169.885 87.3398 171.385C87.3998 171.385 87.4698 171.385 87.5598 171.385C88.2398 171.385 89.6798 171.455 89.6798 172.635C89.6798 173.695 88.2598 173.805 87.6598 173.805C87.4998 173.805 87.3998 173.805 87.3998 173.805C87.3998 173.805 87.3098 174.655 87.0898 175.375C86.8698 176.095 87.0898 186.455 87.0898 186.455C86.9998 187.635 86.8798 188.245 86.7198 188.245C86.5598 188.245 86.3698 187.665 86.1298 186.455V175.285H85.1298C84.6998 176.755 83.5498 178.255 81.0598 179.435C73.4698 175.695 78.4598 169.195 78.4598 169.195L78.4998 165.795L59.3498 164.845C59.3498 164.845 58.7598 164.845 58.7598 164.495C58.7998 160.905 59.5098 159.065 60.1298 158.135C60.5098 157.575 61.1398 157.235 61.8198 157.235L78.2498 157.035C78.2498 157.035 76.5098 125.685 76.1398 118.285C76.0898 117.345 75.8398 116.415 75.3798 115.585C75.2098 115.285 75.0498 114.985 74.8998 114.685L66.9998 148.035C66.9998 148.035 65.3098 152.745 61.2498 152.885C61.1898 152.885 61.1398 152.885 61.0798 152.885C57.3198 152.885 61.8698 148.325 61.8698 148.325L71.5698 106.675C70.1898 102.485 69.6098 99.2749 69.6098 99.2749C69.6098 99.2749 69.0098 99.2749 67.9398 99.2549C65.3098 99.2249 65.0598 95.5749 65.0598 95.5749C65.0598 95.5749 65.1398 89.4249 65.1698 86.9249C65.1998 84.4149 67.8898 82.1249 67.8898 82.1249L67.9098 80.5449C67.2198 80.5449 66.8798 80.3849 66.7198 80.2249L8.51979 83.7149C8.51979 83.7149 3.51979 83.4549 2.21979 79.6049C1.72979 78.1449 2.26979 77.6849 3.12979 77.6849C4.52979 77.6849 6.76979 78.8849 6.76979 78.8849L66.7798 75.0549C67.0598 67.9749 67.5498 55.2449 67.5798 53.1149C67.5898 51.9449 67.8798 51.1249 68.2198 50.5649L50.9498 10.6649C50.9498 10.6649 49.4898 5.87489 52.6698 3.34489C53.1798 2.93489 53.5898 2.76489 53.9098 2.76489ZM85.7698 170.805V165.745L83.7898 165.815V169.215C83.7898 169.215 83.9298 169.405 84.1298 169.735C84.6298 169.895 85.3098 170.205 85.7798 170.795M53.9098 0.764893C53.0998 0.764893 52.2798 1.09489 51.4298 1.78489C47.2398 5.12489 48.9698 11.0049 49.0498 11.2549C49.0698 11.3249 49.0998 11.3949 49.1298 11.4649L65.9998 50.5249C65.7098 51.2849 65.5598 52.1449 65.5498 53.0849C65.5298 55.0149 65.1098 65.7949 64.8198 73.1649L7.15979 76.8449C6.25979 76.4149 4.51979 75.6749 3.09979 75.6749C1.62979 75.6749 0.869791 76.4249 0.549791 76.8749C-0.0702094 77.7449 -0.160209 78.8749 0.299791 80.2349C2.00979 85.3049 8.12979 85.6849 8.38979 85.7049C8.42979 85.7049 8.45979 85.7049 8.49979 85.7049C8.53979 85.7049 8.57979 85.7049 8.61979 85.7049L64.9698 82.3249C64.0898 83.4749 63.1798 85.0949 63.1598 86.8949L63.0498 95.5449C63.0498 95.5949 63.0498 95.6549 63.0498 95.7049C63.2298 98.3449 64.8298 101.205 67.8998 101.245H67.9698C68.2598 102.525 68.7598 104.475 69.4798 106.755L60.0398 147.325C58.4998 148.975 57.0198 151.175 57.7998 153.055C58.0798 153.735 58.8798 154.885 61.0698 154.885C61.1498 154.885 61.2198 154.885 61.2998 154.885C66.6498 154.705 68.7798 148.955 68.8698 148.715C68.8998 148.645 68.9198 148.575 68.9298 148.495L74.4798 125.045C74.9898 134.535 75.8198 149.575 76.1298 155.055L61.7898 155.225C60.4498 155.245 59.1998 155.915 58.4598 157.015C57.3698 158.655 56.7898 161.155 56.7498 164.455C56.7498 165.065 56.9698 165.645 57.3998 166.075C58.0198 166.705 58.8198 166.815 59.2798 166.825L76.4598 167.685V168.555C75.6998 169.735 74.3198 172.445 75.0198 175.465C75.5898 177.885 77.3098 179.815 80.1598 181.215C80.4398 181.355 80.7398 181.425 81.0398 181.425C81.3398 181.425 81.6298 181.365 81.8998 181.235C82.7298 180.845 83.4598 180.395 84.1098 179.915V186.455C84.1098 186.585 84.1198 186.715 84.1498 186.835C84.4298 188.275 84.8098 190.245 86.6998 190.245C88.7998 190.245 88.9698 187.965 89.0698 186.605C89.0698 186.545 89.0698 186.475 89.0698 186.415C88.9698 181.905 88.9298 176.805 89.0198 175.835C89.0398 175.775 89.0498 175.725 89.0698 175.665C90.9598 175.215 91.6698 173.845 91.6698 172.645C91.6698 172.185 91.5298 170.165 89.0898 169.565C89.0398 169.405 88.9898 169.265 88.9198 169.135V167.645L102.97 167.115C104.43 167.105 105.53 166.095 105.53 164.775C105.53 161.475 104.99 158.965 103.92 157.315C103.19 156.195 101.96 155.515 100.61 155.485L86.2698 155.135C86.7498 148.005 88.3298 124.695 88.7298 118.485C88.7698 117.835 88.9598 117.205 89.2698 116.665C92.5798 110.875 94.3998 104.385 95.1098 101.425H95.1798C98.2498 101.425 99.8798 98.5849 100.1 95.9449C100.1 95.8949 100.1 95.8349 100.1 95.7849V94.7349L142.13 120.815C143.16 122.735 144.71 124.775 146.65 124.775C147.47 124.775 148.96 124.415 149.68 122.035C151.23 116.915 146.47 113.055 146.26 112.885C146.2 112.835 146.14 112.795 146.08 112.755L98.7698 83.1449C98.4798 82.6949 98.1698 82.2949 97.8898 81.9549C98.0298 81.8349 98.1498 81.7049 98.2698 81.5649C98.6598 81.0649 98.8498 80.4349 98.7798 79.8249C98.7598 79.0649 98.6298 74.3849 98.4898 69.1349L140.26 32.3649C142.49 31.9149 144.99 30.9649 145.42 28.9649C145.58 28.2249 145.56 26.7749 143.62 25.4949C142.42 24.6949 141.06 24.2949 139.58 24.2949C136.6 24.2949 134.15 25.9249 133.88 26.1149C133.82 26.1549 133.76 26.2049 133.7 26.2549L98.1898 57.2649C98.1398 55.1749 98.1198 53.8349 98.1198 53.2849C98.1198 50.7849 97.1598 49.3449 96.3098 48.5549C96.1198 42.9049 94.4198 36.1549 91.6798 30.2849C89.8698 26.4049 86.2098 19.8949 82.0098 19.8949C77.5398 19.8949 72.5598 27.7849 69.7198 36.4049L56.9198 7.08489C57.0998 5.45489 57.1198 3.05489 55.9898 1.74489C55.4498 1.11489 54.6998 0.774893 53.8798 0.774893L53.9098 0.764893Z" fill="black"/>
</g>
<defs>
<clipPath id="clip0_312_89">
<rect width="150" height="189.47" fill="white" transform="translate(0 0.764893)"/>
</clipPath>
</defs>
</svg>
