<svg width="126" height="145" viewBox="0 0 126 145" fill="none" xmlns="http://www.w3.org/2000/svg">
<g clip-path="url(#clip0_318_2)">
<path d="M69 144.005C67.99 144.005 67.69 144.005 67.69 136.495V136.415C67.43 136.585 67.1 136.715 66.67 136.775C65.52 138.535 63.62 138.715 63.53 138.725C63.5 138.725 63.47 138.725 63.44 138.725C63.37 138.725 63.3 138.725 63.23 138.705C63.0201 138.665 58.21 137.595 58.21 133.855C58.21 132.405 59.15 131.185 60.1 130.305H59.76C59.76 130.305 48.34 130.335 47.5601 130.335C46.59 130.335 46.0401 129.905 45.7401 129.555C45 128.665 45.2001 127.405 45.23 127.265C45.37 126.425 45.8701 123.565 46.5401 122.645C47.3101 121.565 48.6501 121.485 49.0401 121.485C49.0601 121.485 49.15 121.485 49.17 121.485H59.8801L59.8301 120.585C59.4801 120.495 59.18 120.285 58.9901 119.995C58.5201 119.265 58.89 118.335 59.01 118.065C59.01 118.065 59.3701 117.105 59.5601 115.835L59.26 110.395C59.23 110.015 59.21 109.615 59.2001 109.215L59.0201 105.835H58.9501C58.1001 105.835 57.64 105.495 57.41 105.205C57.1101 104.835 57.03 104.395 57.05 104.065V102.685C57.05 100.235 58.19 99.7551 58.6 99.6551L57.7001 88.4051C57.68 88.1951 57.6101 87.9951 57.4901 87.8151L56.96 87.0551C56.58 86.7651 55.69 85.9651 55.0201 84.5851C54.3 83.0851 54.57 81.3051 54.84 80.0851C54.84 80.0451 54.84 79.9951 54.8101 79.9451C54.2801 78.9951 53.8301 77.5251 53.5801 76.6351H53.37C52.88 76.6351 51.7701 76.5551 51.05 75.8251C47.78 72.6451 47.44 67.4151 47.43 67.1951V63.7551C38.8101 66.5651 18.12 73.2051 9.28005 76.0451C8.54005 76.2851 7.78005 76.4051 7.03005 76.4051C6.18005 76.4051 5.37005 76.2551 4.60005 75.9551C3.27005 75.4351 2.19005 74.5351 1.39005 73.2851C0.820048 72.4851 0.930048 71.8651 1.12005 71.4851C1.28005 71.1751 1.72005 70.6451 2.83005 70.6451C2.99005 70.6451 3.10005 70.6551 3.10005 70.6551H3.22005C3.88005 70.6551 6.18005 70.5751 8.00005 69.5251C10.48 68.1051 16.75 65.9851 17.02 65.8951L47.5 56.6851C47.5601 56.6651 47.63 56.6551 47.69 56.6451L49.2701 56.4851V40.8451C42.4901 31.8251 28.01 12.4051 26.37 10.1951C25.38 8.86512 24.87 7.28512 24.94 5.74512C25 4.31512 25.5 2.99512 26.43 1.84512C26.82 1.29512 27.31 0.995117 27.85 0.995117C28.76 0.995117 29.29 1.82512 29.47 2.60512C29.47 2.60512 30.29 5.26512 32.13 6.87512C34.28 8.75512 38.3201 14.0051 38.4901 14.2351L51.43 32.2251C51.82 31.9251 52.2001 31.6951 52.5 31.5451C52.7401 21.1251 57.91 7.98512 63.42 7.98512C68.93 7.98512 74.1 21.1251 74.31 31.4751C74.82 31.7751 75.58 32.2551 76.24 33.0051C82.89 23.5351 92.54 9.86512 95.01 6.35512C95.97 5.00512 97.3101 4.02512 98.8 3.61512C99.3801 3.45512 99.98 3.36512 100.57 3.36512C101.37 3.36512 102.18 3.51512 102.97 3.81512C103.94 4.12512 104.22 4.71512 104.27 5.15512C104.39 6.12512 103.47 6.76512 103.18 6.94512C103.18 6.94512 100.91 8.55512 99.95 10.7951C98.83 13.4251 95.09 18.8851 94.93 19.1251L77.55 42.8851V56.5051C77.76 56.5651 77.98 56.6351 78.2 56.7051C82.94 58.1851 108.58 66.5951 119.39 70.1351C120.96 70.6551 122.29 71.6551 123.12 72.9551C123.89 74.1651 124.24 75.5251 124.15 77.0051C124.14 78.2851 123.35 78.7651 122.68 78.7651C122.01 78.7651 121.39 78.2851 121.23 78.1351C121.23 78.1351 119.03 76.4351 116.6 76.1751C113.76 75.8751 107.44 73.8951 107.17 73.8151L79.41 64.1851V67.1351C79.4 67.4151 79.05 72.6451 75.78 75.8351C75.06 76.5551 73.9501 76.6351 73.51 76.6351H73.26C73.01 77.5251 72.56 78.9951 72.03 79.9451C72 79.9951 71.99 80.0451 72 80.0851C72.27 81.2951 72.54 83.0851 71.82 84.5851C71.16 85.9651 70.26 86.7651 69.88 87.0551L69.35 87.8151C69.23 87.9851 69.16 88.1951 69.14 88.4051L68.24 99.6551C68.66 99.7551 69.79 100.235 69.79 102.685V104.065C69.82 104.395 69.74 104.835 69.43 105.205C69.19 105.495 68.73 105.825 67.89 105.825H67.82L66.96 121.485H77.75C78.22 121.485 79.55 121.575 80.31 122.645C80.97 123.575 81.48 126.435 81.62 127.285C81.64 127.405 81.85 128.665 81.1 129.555C80.8 129.915 80.24 130.335 79.28 130.335H70.2V130.815C71.45 131.125 72.03 131.995 72.03 132.825C72.03 133.655 71.45 134.525 70.2 134.835V136.495C70.2 143.825 70.11 144.005 68.96 144.005H69Z" fill="white"/>
<path d="M27.88 1.99512C28.33 1.99512 28.53 2.83512 28.53 2.83512C28.53 2.83512 29.4 5.78512 31.5 7.62512C33.6 9.46512 37.72 14.8351 37.72 14.8351L51.31 33.7251C51.86 33.0751 52.52 32.6551 52.98 32.4151C53.33 32.2351 53.54 31.8751 53.55 31.4751C53.77 20.7051 59.11 8.96512 63.44 8.96512C67.77 8.96512 73.11 20.7051 73.33 31.4751C73.33 31.8751 73.55 32.2351 73.9 32.4151C74.57 32.7651 75.67 33.4951 76.23 34.7751C82.88 25.3051 93.27 10.5851 95.85 6.91512C96.64 5.79512 97.77 4.92512 99.09 4.56512C99.54 4.43512 100.05 4.35512 100.59 4.35512C101.22 4.35512 101.91 4.46512 102.64 4.73512C104.11 5.20512 102.69 6.07512 102.69 6.07512C102.69 6.07512 100.15 7.82512 99.06 10.3851C97.97 12.9451 94.13 18.5351 94.13 18.5351L76.57 42.5351V57.2251C77.01 57.3551 77.45 57.4951 77.92 57.6351C83.1 59.2551 113.24 69.1451 119.1 71.0651C120.4 71.4951 121.56 72.3151 122.3 73.4751C122.85 74.3351 123.26 75.4751 123.17 76.9151C123.17 77.5451 122.95 77.7351 122.7 77.7351C122.34 77.7351 121.91 77.3551 121.91 77.3551C121.91 77.3551 119.5 75.4451 116.72 75.1451C113.94 74.8551 107.48 72.8251 107.48 72.8251L78.43 62.7451V67.1051C78.43 67.1051 78.13 72.1351 75.1 75.0951C74.61 75.5851 73.73 75.6051 73.52 75.6051C73.49 75.6051 73.47 75.6051 73.47 75.6051H72.49C72.49 75.6051 71.89 78.1151 71.16 79.4251C71.02 79.6851 70.96 79.9751 71.03 80.2751C71.24 81.2251 71.53 82.8651 70.92 84.1251C70.2 85.6251 69.16 86.3251 69.16 86.3251L68.53 87.2251C68.31 87.5451 68.18 87.9151 68.14 88.3051L67.16 100.615H68.01C68.01 100.615 68.79 100.715 68.79 102.675V104.115C68.79 104.115 68.92 104.825 67.89 104.825H66.87L65.91 122.485H77.74C77.74 122.485 77.77 122.485 77.81 122.485C78.08 122.485 79.01 122.535 79.5 123.225C80.08 124.035 80.64 127.445 80.64 127.445C80.64 127.445 80.99 129.335 79.29 129.335H69.21V131.705C71.64 131.705 71.64 133.945 69.21 133.945V136.495C69.21 141.125 69.09 143.005 68.97 143.005C68.82 143.005 68.66 140.355 68.66 136.495V133.935H67.8C67.8 133.935 67.98 135.805 66.23 135.805C66.17 135.805 66.11 135.805 66.05 135.805C65.2 137.585 63.42 137.745 63.42 137.745C63.42 137.745 59.19 136.845 59.19 133.875C59.19 131.595 62.55 129.785 62.55 129.785L62.41 129.335H59.76C59.76 129.335 48.34 129.365 47.55 129.365C45.85 129.365 46.2 127.475 46.2 127.475C46.2 127.475 46.76 124.065 47.34 123.255C47.83 122.565 48.76 122.515 49.03 122.515C49.08 122.515 49.1 122.515 49.1 122.515H60.93L60.77 119.575C60.77 119.575 60.73 119.585 60.7 119.595C60.52 119.645 60.37 119.675 60.24 119.675C59.38 119.675 59.91 118.515 59.91 118.515C59.91 118.515 60.35 117.405 60.56 115.915L60.26 110.375C60.24 109.995 60.21 109.605 60.2 109.205L59.96 104.865H58.94C57.91 104.865 58.04 104.155 58.04 104.155V102.715C58.04 100.765 58.82 100.655 58.82 100.655H59.67L58.69 88.3451C58.66 87.9551 58.53 87.5851 58.3 87.2651L57.67 86.3651C57.67 86.3651 56.63 85.6751 55.91 84.1651C55.31 82.9051 55.6 81.2651 55.8 80.3151C55.86 80.0251 55.81 79.7251 55.67 79.4651C54.94 78.1551 54.34 75.6451 54.34 75.6451H53.36C53.36 75.6451 53.34 75.6451 53.31 75.6451C53.1 75.6451 52.22 75.6151 51.73 75.1351C48.7 72.1751 48.4 67.1451 48.4 67.1451V62.3851C40.19 65.0751 14.33 73.3751 8.95001 75.1051C8.32001 75.3051 7.66001 75.4151 7.00001 75.4151C6.30001 75.4151 5.60001 75.2951 4.94001 75.0351C3.99001 74.6651 2.99001 73.9851 2.21001 72.7551C1.50001 71.7551 2.41001 71.6551 2.81001 71.6551C2.91001 71.6551 2.98001 71.6551 2.98001 71.6551C2.98001 71.6551 3.06001 71.6551 3.20001 71.6551C3.94001 71.6551 6.44001 71.5651 8.48001 70.3951C10.9 69.0051 17.32 66.8551 17.32 66.8551L47.77 57.6551L50.26 57.4151V40.5351C43.86 32.0251 30.22 13.7351 27.16 9.62512C26.34 8.52512 25.87 7.18512 25.93 5.81512C25.97 4.79512 26.29 3.62512 27.2 2.49512C27.45 2.14512 27.66 2.01512 27.84 2.01512M67.75 131.655H68.44V129.345H67.61C67.74 130.085 67.83 130.945 67.74 131.655M27.88 -0.00488281C27.29 -0.00488281 26.42 0.215117 25.65 1.25512C24.61 2.56512 24.05 4.06512 23.97 5.69512C23.89 7.47512 24.47 9.28512 25.6 10.7951C28.27 14.3851 41.71 32.3951 48.31 41.1751V55.5751L47.63 55.6451C47.5 55.6551 47.37 55.6851 47.25 55.7251L16.8 64.9251C16.8 64.9251 16.76 64.9351 16.74 64.9451C16.47 65.0351 10.1 67.1751 7.54001 68.6551C5.89001 69.6051 3.68001 69.6551 3.26001 69.6551H3.14001C3.08001 69.6551 2.98001 69.6551 2.87001 69.6551C1.17001 69.6551 0.490013 70.6251 0.270013 71.0351C0.0100129 71.5351 -0.289987 72.5751 0.610013 73.8651C1.52001 75.2751 2.75001 76.2951 4.27001 76.8951C5.15001 77.2451 6.09001 77.4151 7.06001 77.4151C7.92001 77.4151 8.78001 77.2751 9.62001 77.0051C14.31 75.5051 36.35 68.4251 46.46 65.1351V67.1351C46.46 67.1351 46.46 67.2151 46.46 67.2551C46.47 67.4951 46.84 73.0951 50.39 76.5551C51.14 77.3051 52.16 77.5451 52.85 77.6151C53.09 78.4151 53.43 79.3951 53.83 80.1751C53.56 81.5151 53.36 83.3651 54.15 85.0151C54.83 86.4351 55.74 87.3251 56.25 87.7451L56.7 88.3951C56.7 88.3951 56.73 88.4551 56.73 88.4951L57.57 99.0551C56.86 99.5251 56.07 100.535 56.07 102.695V104.055C56.05 104.475 56.11 105.195 56.66 105.855C56.93 106.185 57.38 106.555 58.09 106.735L58.23 109.285C58.25 109.675 58.27 110.085 58.3 110.475L58.59 115.785C58.43 116.785 58.16 117.555 58.1 117.715C57.87 118.245 57.5 119.425 58.15 120.485H49.17C49.17 120.485 49.1 120.485 49.06 120.485C47.69 120.485 46.45 121.075 45.74 122.065C45.04 123.045 44.55 125.365 44.26 127.125C44.21 127.395 43.98 128.975 44.99 130.195C45.6 130.935 46.52 131.335 47.58 131.335C48.17 131.335 54.72 131.315 57.98 131.305C57.53 132.045 57.23 132.905 57.23 133.845C57.23 137.465 60.88 139.205 63.04 139.665C63.18 139.695 63.32 139.705 63.46 139.705C63.52 139.705 63.58 139.705 63.63 139.705C64.39 139.635 65.66 139.255 66.71 138.265C66.73 139.405 66.76 140.435 66.8 141.285C66.89 143.025 66.99 144.985 69.01 144.985C71.03 144.985 71.11 143.005 71.18 141.555C71.23 140.375 71.26 138.675 71.26 136.485V135.525C72.46 134.955 73.09 133.885 73.09 132.815C73.09 132.305 72.95 131.785 72.66 131.335H79.34C80.4 131.335 81.32 130.925 81.93 130.195C82.94 128.975 82.71 127.395 82.66 127.085C82.38 125.355 81.88 123.045 81.18 122.055C80.47 121.065 79.23 120.475 77.86 120.475C77.81 120.475 77.78 120.475 77.75 120.475H68.07L68.82 106.715C69.52 106.535 69.97 106.165 70.25 105.835C70.8 105.175 70.86 104.455 70.84 104.035V102.675C70.84 100.505 70.05 99.5051 69.34 99.0351L70.18 88.4751C70.18 88.4751 70.19 88.4051 70.21 88.3751L70.66 87.7251C71.16 87.3051 72.08 86.4151 72.76 84.9951C73.55 83.3451 73.35 81.4951 73.08 80.1551C73.47 79.3751 73.81 78.3951 74.06 77.5951C74.75 77.5251 75.77 77.2851 76.54 76.5251C80.07 73.0851 80.44 67.4751 80.45 67.2451C80.45 67.2051 80.45 67.1651 80.45 67.1251V65.5851L106.85 74.7451C106.85 74.7451 106.89 74.7551 106.91 74.7651C107.18 74.8551 113.6 76.8551 116.54 77.1651C118.55 77.3751 120.44 78.7551 120.68 78.9351C121.02 79.2251 121.79 79.7651 122.73 79.7651C123.9 79.7651 125.16 78.9051 125.2 77.0151C125.29 75.3451 124.9 73.7951 124.01 72.4151C123.05 70.9151 121.54 69.7651 119.75 69.1851C113.8 67.2351 83.95 57.4451 78.6 55.7651V43.2051L95.77 19.7351C95.77 19.7351 95.79 19.7051 95.81 19.6851C95.97 19.4551 99.77 13.9051 100.93 11.1851C101.72 9.32512 103.58 7.93512 103.83 7.74512C104.89 7.06512 105.44 6.05512 105.32 5.02512C105.26 4.54512 104.95 3.39512 103.33 2.85512C102.44 2.52512 101.53 2.35512 100.62 2.35512C99.94 2.35512 99.25 2.44512 98.58 2.63512C96.87 3.11512 95.33 4.22512 94.24 5.76512C91.5 9.64512 82.59 22.2751 76.13 31.4751C75.85 31.2551 75.58 31.0751 75.34 30.9151C74.95 20.0051 69.5 6.96512 63.46 6.96512C57.42 6.96512 52.05 19.8051 51.59 30.6651L39.36 13.6551C39.36 13.6551 39.34 13.6251 39.32 13.6051C39.15 13.3751 35.05 8.04512 32.83 6.10512C31.31 4.77512 30.56 2.57512 30.47 2.27512C30.09 0.895117 29.09 -0.00488281 27.88 -0.00488281Z" fill="black"/>
</g>
<defs>
<clipPath id="clip0_318_2">
<rect width="125.2" height="145.01" fill="white" transform="translate(0 -0.00488281)"/>
</clipPath>
</defs>
</svg>
