<svg width="151" height="189" viewBox="0 0 151 189" fill="none" xmlns="http://www.w3.org/2000/svg">
<g clip-path="url(#clip0_321_7)">
<path d="M80.3301 187.565C79.3501 187.565 78.7601 187.565 78.6401 176.155C78.5001 176.335 78.3701 176.515 78.2301 176.665C77.5501 177.455 76.8801 178.055 76.2301 178.455C75.8101 178.715 75.3301 178.855 74.8401 178.855C74.0701 178.855 73.3301 178.515 72.8201 177.935C72.7701 177.885 72.7301 177.825 72.7001 177.755C69.8901 172.615 71.8001 168.795 72.4701 167.715L72.4501 162.095C70.6601 162.135 67.0101 162.205 65.6301 162.205H65.2401C64.5801 162.205 64.2601 162.925 63.9501 164.085L63.9101 164.215C63.7101 164.965 63.0301 165.485 62.2501 165.485L54.9501 165.325C54.4101 165.315 54.0001 165.145 53.7001 164.835C53.2901 164.395 53.3201 163.855 53.3301 163.635C53.3301 155.465 57.5901 155.235 58.0701 155.235L72.1501 155.205C71.7501 149.165 69.8301 120.425 69.7901 117.055C69.3701 114.805 65.7401 105.985 63.7901 101.395C55.5001 114.735 45.4401 130.885 42.8101 134.935C39.3201 140.045 36.3801 142.625 34.0501 142.625C33.4901 142.625 33.1101 142.465 32.9001 142.355C32.6201 142.225 31.9701 141.865 31.7101 141.085C31.4601 140.365 31.6101 139.575 32.1601 138.725C33.6401 136.355 35.0501 133.795 36.2201 131.335C37.5301 128.585 39.0401 125.885 40.7101 123.305C45.3001 116.205 53.6301 103.345 58.3701 96.2351C58.3301 95.9051 58.3301 95.6951 58.3301 95.6551L58.5301 86.9651C58.5801 84.7451 59.2101 82.9551 59.7801 82.0151C59.8101 81.9651 59.8501 81.8951 59.8501 81.8251L59.9601 77.1351C46.7101 73.6151 17.2101 65.7651 11.2401 64.0451C5.80012 62.3451 2.53012 60.4451 1.53012 58.3951C1.15012 57.6251 1.19012 57.0351 1.26012 56.7351C1.35012 55.9151 1.98012 54.7951 3.49012 54.7951C3.81012 54.7951 4.15012 54.8451 4.51012 54.9451C7.25012 55.6851 10.0301 56.2651 12.7601 56.6751C15.7701 57.1251 18.8001 57.7851 21.7501 58.6251C29.7201 60.9051 48.9901 66.4251 55.9101 68.5951C55.9901 68.6251 56.0701 68.6551 56.1501 68.7051C57.5001 69.5651 58.8201 70.3651 60.1001 71.1151L60.4401 56.3351C60.6101 52.0951 61.7301 50.3951 61.8601 50.2151C61.9101 50.1451 61.9701 50.0751 62.0401 50.0251L62.7001 49.4751C64.9301 35.2051 68.4501 28.7851 71.1201 25.8951C71.0201 19.3051 70.9701 14.9951 70.9701 13.0851C71.2201 2.82506 73.9901 1.52506 75.2601 1.46506C75.3501 1.45506 75.4701 1.43506 75.6201 1.43506C76.6501 1.43506 77.8501 2.13506 77.8601 4.10506C77.9001 6.93506 78.1101 9.77506 78.4701 12.5151C78.8701 15.5351 79.0701 18.6251 79.0701 21.6951V24.5251C81.5601 26.5051 86.6301 32.5451 88.9301 49.7651L89.5801 50.3351C89.6501 50.3951 89.7001 50.4551 89.7501 50.5351C89.8701 50.7151 90.9501 52.4451 91.0301 56.6651V69.5651C106.3 63.5851 131.12 53.8851 136.54 51.8951C139.97 50.7251 142.75 50.1351 144.83 50.1351C147.86 50.1351 148.71 51.3851 148.92 51.9051C149.07 52.1851 149.36 52.8551 149.11 53.6251C148.88 54.3451 148.28 54.8951 147.34 55.2451C144.7 56.2651 142.11 57.4451 139.66 58.7351C136.97 60.1551 134.14 61.4151 131.26 62.4851C121.59 66.0651 104.4 72.4151 97.8201 74.6551C97.7401 74.6851 97.6501 74.7051 97.5701 74.7051C95.2701 74.8651 93.0801 75.0651 91.0301 75.3151V82.1651C91.0301 82.2251 91.0501 82.2851 91.0801 82.3451C91.6301 83.2851 92.9101 85.7151 92.9101 87.9651V95.6451C102.89 108.275 115.3 124.025 118.3 127.985C121.64 132.605 123.11 136.085 122.7 138.325C122.54 139.185 122.15 139.635 121.91 139.835C121.69 140.055 121.14 140.525 120.34 140.525C119.81 140.525 119.02 140.315 118.24 139.305C116.49 137.075 114.62 134.945 112.67 132.975C110.53 130.815 108.5 128.475 106.64 126.025C101.81 119.675 93.0601 108.155 87.8501 101.125C85.7801 106.125 82.2601 114.925 81.7801 117.215C81.6701 120.575 79.6301 149.315 79.2001 155.315L80.2501 155.345C80.2501 155.345 80.3201 155.345 80.3501 155.345C80.4001 155.345 80.4501 155.345 80.5001 155.355L94.2001 155.695C94.5601 155.695 97.8401 155.945 97.8401 163.615C97.8401 163.895 97.8601 164.425 97.4401 164.855C97.1401 165.165 96.7201 165.315 96.1901 165.315H89.2901C88.4901 165.315 87.8001 164.775 87.6201 164.005C87.4501 163.315 87.0301 162.155 86.0801 162.155H81.9401C82.0101 164.205 82.0501 166.665 82.0701 169.465C82.0701 169.465 82.0701 169.565 82.0701 169.575C82.0701 170.095 82.0701 172.285 82.0701 173.195V174.355C81.9601 187.365 81.4701 187.575 80.4101 187.575H80.3601L80.3301 187.565ZM78.3401 167.405C78.4401 167.465 78.5401 167.535 78.6401 167.625C78.6601 165.585 78.7001 163.735 78.7501 162.145H78.6401L78.3301 167.405H78.3401Z" fill="white"/>
<path d="M75.6101 2.43503C76.0401 2.43503 76.8401 2.63503 76.8501 4.10503C76.9001 7.55503 77.1901 10.515 77.4701 12.645C77.8601 15.645 78.0601 18.665 78.0601 21.695C78.0601 22.705 78.0601 23.825 78.0601 25.025C81.0501 27.115 85.8301 33.765 87.9801 50.265L88.9101 51.085C88.9101 51.085 89.9401 52.625 90.0201 56.675V71.025C103.57 65.715 131.11 54.945 136.87 52.825C140.65 51.525 143.16 51.125 144.82 51.125C147.66 51.125 148.01 52.325 148.01 52.325C148.01 52.325 148.87 53.595 146.98 54.305C143.76 55.555 141.09 56.845 139.19 57.845C136.51 59.255 133.75 60.485 130.91 61.535C122.05 64.815 104.18 71.415 97.4901 73.705C94.5601 73.905 92.0901 74.165 90.0201 74.435V82.175C90.0201 82.415 90.0801 82.655 90.2001 82.855C90.6701 83.665 91.9001 85.945 91.9001 87.965V95.985C101.43 108.045 114.43 124.545 117.49 128.585C123.84 137.375 121.21 139.095 121.21 139.095C121.21 139.095 120.86 139.525 120.32 139.525C119.96 139.525 119.51 139.335 119.02 138.695C116.89 135.975 114.87 133.795 113.37 132.275C111.24 130.125 109.26 127.835 107.42 125.425C102.51 118.975 93.3401 106.895 88.2201 99.975C88.2101 99.975 88.2001 99.975 88.1801 99.975H87.2201C87.2201 99.975 81.3301 114.115 80.7601 117.105C80.6801 120.285 78.1101 156.295 78.1101 156.295L80.3101 156.355C80.3101 156.355 80.3301 156.355 80.3401 156.355C80.3401 156.355 80.3601 156.355 80.3701 156.355L94.1601 156.705C94.1601 156.705 96.8201 156.725 96.8201 163.625C96.8201 163.895 96.9101 164.325 96.1701 164.325H89.2701C88.9401 164.325 88.6501 164.105 88.5701 163.775C88.3501 162.875 87.7101 161.165 86.0601 161.165H80.8801C80.9701 163.255 81.0301 166.025 81.0501 169.475C81.0501 169.515 81.0501 169.545 81.0501 169.585C81.0501 170.105 81.0501 172.285 81.0501 173.195C81.0501 173.295 81.0501 174.255 81.0501 174.355C80.9801 182.505 80.6701 186.585 80.3501 186.585C79.9901 186.585 79.6301 181.455 79.6301 171.185C79.6301 166.925 79.7001 163.585 79.8001 161.155H77.7001L77.3001 168.095C77.3801 168.095 78.8201 168.135 78.8201 171.185H79.6301V172.495H78.8401V173.005C78.8401 174.115 78.2101 175.185 77.4901 176.025C76.9901 176.595 76.3801 177.215 75.7201 177.625C75.4501 177.795 75.1501 177.875 74.8501 177.875C74.3801 177.875 73.9101 177.675 73.5801 177.295C70.5901 171.825 73.4701 168.035 73.4701 168.035L73.4501 161.095C73.4501 161.095 67.4601 161.225 65.6301 161.225C65.4801 161.225 65.3601 161.225 65.2701 161.225C65.2501 161.225 65.2401 161.225 65.2201 161.225C63.6101 161.225 63.1901 163.095 62.9501 163.975C62.8601 164.295 62.5801 164.505 62.2501 164.505C62.2501 164.505 62.2401 164.505 62.2301 164.505L54.9601 164.345C54.2201 164.325 54.3201 163.895 54.3301 163.625C54.3301 156.335 57.9001 156.245 58.0701 156.245L73.2101 156.205C73.2101 156.205 70.7901 120.145 70.7801 116.975C70.2801 113.975 64.1101 99.655 64.1101 99.655C64.1101 99.655 63.9601 99.655 63.6901 99.635C55.6001 112.655 44.6901 130.195 41.9501 134.395C37.6501 140.695 35.1401 141.635 34.0201 141.635C33.5501 141.635 33.3301 141.465 33.3301 141.465C33.3301 141.465 31.8801 140.965 32.9701 139.265C34.8001 136.335 36.1701 133.705 37.0901 131.765C38.3901 129.035 39.8701 126.385 41.5101 123.845C46.0501 116.815 54.6901 103.485 59.3801 96.475C59.2901 96.005 59.3001 95.675 59.3001 95.675C59.3001 95.675 59.4401 89.505 59.5001 86.995C59.5501 84.995 60.1101 83.345 60.6001 82.535C60.7301 82.325 60.8101 82.095 60.8101 81.845L60.9401 76.365C47.2401 72.725 17.5101 64.815 11.4801 63.075C1.12008 59.835 2.21008 56.895 2.21008 56.895C2.21008 56.895 2.25008 55.795 3.45008 55.795C3.66008 55.795 3.91008 55.825 4.20008 55.915C7.54008 56.815 10.4501 57.355 12.5801 57.675C15.5801 58.125 18.5301 58.765 21.4401 59.595C30.5301 62.195 48.8301 67.445 55.5801 69.555C57.6101 70.845 59.4301 71.925 61.0201 72.825L61.4001 56.355C61.5701 52.305 62.6401 50.785 62.6401 50.785L63.5901 49.985C65.7301 36.065 69.1201 29.265 72.0901 26.275C71.9901 20.135 71.9301 15.195 71.9301 13.075C72.1801 2.66503 75.0701 2.45503 75.3101 2.45503H75.3201C75.3201 2.45503 75.4201 2.42503 75.5801 2.42503M75.6101 0.435029C75.4401 0.435029 75.2901 0.445029 75.1601 0.465029C73.2501 0.565029 70.2201 2.42503 69.9601 13.035C69.9601 14.945 70.0001 19.125 70.1001 25.515C66.4101 29.735 63.5301 37.785 61.7501 48.945L61.3801 49.255C61.2501 49.365 61.1301 49.495 61.0301 49.635C60.8001 49.965 59.6101 51.855 59.4301 56.275L59.1301 69.385C58.3301 68.895 57.5101 68.395 56.6801 67.865C56.5301 67.775 56.3701 67.695 56.2101 67.645C49.5501 65.555 31.9301 60.495 22.0201 57.665C19.0201 56.805 15.9601 56.145 12.9001 55.685C10.2401 55.285 7.42008 54.695 4.75008 53.975C4.32008 53.855 3.88008 53.785 3.47008 53.785C1.55008 53.785 0.420076 55.175 0.250076 56.565C0.150076 57.055 0.140076 57.845 0.620076 58.825C1.77008 61.155 5.14008 63.175 10.9101 64.975C16.8201 66.685 45.3401 74.275 58.9301 77.885L58.8401 81.605C58.2201 82.685 57.5701 84.605 57.5201 86.925L57.3201 95.605C57.3201 95.605 57.3201 95.775 57.3201 95.945C52.5701 103.075 44.3801 115.705 39.8401 122.735C38.1501 125.355 36.6201 128.095 35.2901 130.875C34.1301 133.305 32.7501 135.825 31.2801 138.175C30.4001 139.555 30.5001 140.685 30.7401 141.385C31.0701 142.335 31.8001 142.945 32.4601 143.235C32.7901 143.405 33.3201 143.605 34.0301 143.605C36.7501 143.605 39.8901 140.955 43.6101 135.495C46.1501 131.585 55.5201 116.545 63.6001 103.545C65.7901 108.765 68.3901 115.275 68.7801 117.145C68.8501 120.785 70.5501 146.485 71.0701 154.185L58.0701 154.215C58.0701 154.215 58.0701 154.215 58.0601 154.215C57.4701 154.215 52.3301 154.475 52.3201 163.555C52.3001 163.885 52.2701 164.765 52.9501 165.505C53.2801 165.865 53.8901 166.295 54.9001 166.315L62.1701 166.475C62.1701 166.475 62.2201 166.475 62.2301 166.475C63.4601 166.475 64.5401 165.645 64.8601 164.465L64.9001 164.335C64.9701 164.085 65.1401 163.445 65.3101 163.195C65.4001 163.195 65.5001 163.195 65.6101 163.195C66.7701 163.195 69.5101 163.145 71.4301 163.105V167.435C70.5901 168.955 68.9401 173.005 71.8001 178.225C71.8701 178.355 71.9501 178.475 72.0501 178.585C72.7501 179.385 73.7601 179.845 74.8201 179.845C75.5001 179.845 76.1701 179.655 76.7401 179.295C77.0501 179.105 77.3601 178.875 77.6701 178.605C77.7101 180.195 77.7601 181.605 77.8201 182.805C78.0101 186.385 78.1201 188.545 80.3101 188.545C81.5301 188.545 82.2801 187.715 82.5201 186.075C82.6101 185.495 82.6801 184.665 82.7501 183.615C82.8901 181.385 82.9801 178.185 83.0101 174.335V173.695V173.175C83.0101 172.265 83.0101 170.065 83.0101 169.545V169.485V169.435C83.0001 167.075 82.9701 164.965 82.9201 163.125H86.0301C86.1401 163.165 86.4201 163.495 86.5901 164.215C86.8901 165.435 87.9801 166.285 89.2301 166.285H96.1301C97.1501 166.285 97.7601 165.865 98.1001 165.515C98.8101 164.775 98.7901 163.885 98.7801 163.595C98.7801 155.125 94.9101 154.665 94.1301 154.655L80.5301 154.315C80.4501 154.315 80.3801 154.305 80.3001 154.305C80.2701 154.305 80.2401 154.305 80.2201 154.305C80.7601 146.655 82.5901 120.915 82.7201 117.305C83.1601 115.335 85.8501 108.475 88.0401 103.105C93.2901 110.155 101.25 120.645 105.79 126.595C107.68 129.075 109.73 131.445 111.91 133.635C113.8 135.545 115.71 137.705 117.41 139.885C118.42 141.205 119.54 141.485 120.29 141.485C121.27 141.485 122.07 141.015 122.56 140.505C122.93 140.175 123.43 139.545 123.63 138.465C124.11 135.905 122.62 132.275 119.07 127.375C116.07 123.405 103.81 107.845 93.8601 95.255V87.925C93.8601 85.615 92.7201 83.255 91.9801 81.955V76.165C93.7501 75.965 95.6301 75.795 97.5901 75.665C97.7601 75.655 97.9401 75.615 98.1001 75.565C104.7 73.305 121.9 66.965 131.57 63.385C134.49 62.305 137.36 61.025 140.09 59.585C142.51 58.315 145.06 57.155 147.67 56.145C149.21 55.565 149.8 54.605 150.03 53.895C150.34 52.925 150.1 51.985 149.75 51.365C149.36 50.585 148.19 49.105 144.79 49.105C142.6 49.105 139.71 49.715 136.2 50.915C130.82 52.885 107.31 62.075 91.9901 68.075V56.655C91.9101 52.205 90.7701 50.285 90.5401 49.945C90.4401 49.795 90.3301 49.665 90.1901 49.555L89.8201 49.235C87.5601 32.795 82.7201 26.395 80.0201 24.035V21.665C80.0201 18.545 79.8101 15.415 79.4101 12.355C79.0501 9.64503 78.8501 6.85503 78.8101 4.04503C78.8001 1.53503 77.1701 0.405029 75.5701 0.405029L75.6101 0.435029Z" fill="black"/>
</g>
<defs>
<clipPath id="clip0_321_7">
<rect width="150" height="188.13" fill="white" transform="translate(0.200195 0.435059)"/>
</clipPath>
</defs>
</svg>
