<svg width="351" height="380" viewBox="0 0 351 380" fill="none" xmlns="http://www.w3.org/2000/svg">
<g clip-path="url(#clip0_183_41)">
<path d="M175.46 375.77C174.58 375.77 172.37 375.21 172.11 374.39C172.02 374.1 169.87 367.34 168.75 363.07C168.23 361.09 167.69 358.63 167.13 355.75L114.85 367.15C114.71 367.18 114.56 367.2 114.42 367.2C113.97 367.2 113.53 367.05 113.17 366.77C112.7 366.4 112.42 365.84 112.42 365.24V355.24C112.42 355.12 112.44 355 112.46 354.88C112.93 352.46 113.76 351.14 115.87 349.45C115.94 349.39 116.01 349.34 116.09 349.29L157.7 324.33C158.25 323.93 159.2 323.17 159.63 322.71C159.98 322.32 160.39 321.7 160.68 321.22C159.96 317.2 159.37 313.7 158.93 310.83C157.06 298.52 155.39 279.69 155.37 279.5V279.33V194.37H131.97C131.94 194.76 131.9 195.14 131.86 195.49C131.74 196.52 131.43 198.04 131.41 198.14C130.92 200.24 129.98 201.3 128.62 201.3C127.26 201.3 126.32 200.24 125.83 198.1C125.83 198.03 125.51 196.52 125.39 195.49C125.35 195.15 125.31 194.76 125.27 194.37H123.32C123.2 195.04 123.08 195.63 123.07 195.69C122.58 197.79 121.64 198.85 120.28 198.85C118.92 198.85 117.98 197.79 117.49 195.65C117.48 195.61 117.37 195.04 117.25 194.37H113.9L97.51 198.99C97.44 199.86 97.36 200.81 97.27 201.6C97.15 202.63 96.84 204.15 96.82 204.25C96.34 206.35 95.4 207.41 94.03 207.41C92.66 207.41 91.73 206.34 91.24 204.21C91.23 204.15 90.92 202.63 90.8 201.6C90.78 201.38 90.75 201.15 90.73 200.9L61.31 209.2C61.23 210.35 61.13 211.61 61.01 212.62C60.89 213.65 60.58 215.17 60.56 215.27C60.07 217.36 59.13 218.43 57.77 218.43C56.41 218.43 55.47 217.37 54.98 215.23C54.97 215.17 54.66 213.65 54.54 212.62C54.49 212.17 54.44 211.67 54.4 211.16L9.55996 223.89L9.41996 226.19C9.39996 226.53 9.27996 226.87 9.08996 227.15C8.62996 227.84 7.92996 228.23 7.16996 228.23C6.40996 228.23 5.70996 227.84 5.24996 227.15C5.02996 226.83 4.91996 226.46 4.91996 226.07V222.69C4.91996 222.48 4.67996 217.73 5.37996 214.62C6.14996 211.2 6.77996 208.92 9.09996 206.07C10.33 204.56 12.52 202.87 12.77 202.68C12.87 202.6 12.98 202.54 13.09 202.48L109.5 154.3C108.67 154.18 107.95 152.79 107.78 151.96C107.71 151.65 106.25 144.24 105.87 139.29L105.84 138.92C105.46 133.97 105.24 130.98 105.88 125.85L105.95 125.29C106.19 123.37 106.36 121.98 106.98 119.84C107.28 118.81 107.84 117.31 107.86 117.26C108.15 116.49 108.9 115.98 109.74 115.98H131.1C131.88 115.98 132.59 116.43 132.92 117.12C132.95 117.18 133.65 118.68 134.03 119.74C134.78 121.85 134.99 123.23 135.27 125.15C135.27 125.15 135.4 126.04 135.42 126.16C135.67 126.35 135.88 126.58 136.02 126.87C136.17 127.16 136.91 128.71 136.85 130.26C136.81 131.38 136.24 133.11 136.13 133.45C136.04 133.71 135.9 133.94 135.73 134.14C135.68 134.97 135.62 135.82 135.56 136.71C135.5 137.51 135.44 138.36 135.39 139.29C135.33 140.23 135.18 140.31 135.06 141.56L151.65 133.26C152.25 132.73 153.47 131.59 154.03 130.75C154.49 130.06 154.97 128.9 155.37 127.45V74.9702C155.29 73.8002 154.45 60.3302 155.37 51.4502C155.83 47.0402 156.21 44.5802 157.07 40.4402C158.13 35.3102 158.83 32.3202 160.68 27.1202C162.33 22.5002 165.58 15.8802 165.95 15.1402C166.33 14.2302 168.77 8.64016 172.3 6.35016C173.39 5.65016 174.3 5.18016 175.44 4.81016C175.38 4.81016 175.5 4.79016 175.44 4.81016C175.38 4.79016 175.5 4.81016 175.44 4.81016C176.58 5.18016 177.49 5.65016 178.58 6.35016C182.11 8.64016 184.55 14.2302 184.93 15.1402C185.3 15.8802 188.55 22.5002 190.2 27.1202C192.05 32.3202 192.75 35.3102 193.81 40.4402C194.67 44.5702 195.05 47.0402 195.51 51.4502C196.44 60.3302 195.6 73.7902 195.51 74.9702V127.45C195.91 128.9 196.39 130.06 196.85 130.75C197.41 131.58 198.63 132.73 199.23 133.26L215.82 141.56C215.7 140.32 215.55 140.23 215.49 139.29C215.44 138.36 215.38 137.51 215.32 136.71C215.26 135.83 215.2 134.98 215.15 134.14C214.98 133.94 214.84 133.72 214.75 133.45C214.64 133.11 214.07 131.37 214.03 130.26C213.97 128.71 214.71 127.17 214.86 126.87C215 126.59 215.21 126.35 215.46 126.16C215.48 126.04 215.61 125.15 215.61 125.15C215.89 123.23 216.1 121.85 216.85 119.74C217.23 118.68 217.93 117.18 217.96 117.12C218.29 116.43 219 115.98 219.78 115.98H241.14C241.98 115.98 242.73 116.49 243.02 117.26C243.04 117.32 243.6 118.82 243.9 119.84C244.52 121.99 244.69 123.38 244.93 125.29L245 125.85C245.64 130.98 245.42 133.97 245.04 138.92L245.01 139.29C244.63 144.24 243.17 151.65 243.1 151.96C242.93 152.79 242.21 154.18 241.38 154.3L337.79 202.48C337.9 202.54 338.01 202.6 338.11 202.68C338.36 202.87 340.55 204.56 341.78 206.07C344.1 208.92 344.73 211.2 345.5 214.62C346.2 217.72 345.97 222.48 345.96 222.69V226.07C345.96 226.45 345.85 226.82 345.63 227.15C345.17 227.84 344.47 228.23 343.71 228.23C342.95 228.23 342.25 227.84 341.79 227.15C341.6 226.87 341.48 226.53 341.46 226.19L341.32 223.89L296.48 211.16C296.44 211.67 296.39 212.17 296.34 212.62C296.22 213.66 295.91 215.18 295.9 215.23C295.41 217.38 294.47 218.43 293.11 218.43C291.75 218.43 290.81 217.36 290.32 215.27C290.3 215.16 289.99 213.64 289.87 212.62C289.75 211.61 289.65 210.35 289.57 209.2L260.15 200.9C260.13 201.14 260.1 201.38 260.08 201.6C259.96 202.64 259.65 204.16 259.64 204.21C259.15 206.34 258.22 207.41 256.85 207.41C255.48 207.41 254.54 206.34 254.06 204.25C254.04 204.14 253.73 202.62 253.61 201.6C253.52 200.81 253.44 199.86 253.37 198.99L236.98 194.37H233.63C233.51 195.04 233.4 195.61 233.39 195.65C232.9 197.8 231.96 198.85 230.6 198.85C229.24 198.85 228.3 197.78 227.81 195.69C227.8 195.63 227.68 195.04 227.56 194.37H225.61C225.57 194.76 225.53 195.14 225.49 195.49C225.37 196.53 225.06 198.04 225.05 198.1C224.56 200.24 223.62 201.3 222.26 201.3C220.9 201.3 219.96 200.23 219.47 198.14C219.45 198.03 219.14 196.52 219.02 195.49C218.98 195.15 218.94 194.76 218.91 194.37H195.51V279.49C195.49 279.68 193.82 298.51 191.95 310.82C191.51 313.69 190.92 317.19 190.2 321.21C190.49 321.69 190.9 322.31 191.25 322.7C191.68 323.16 192.63 323.91 193.18 324.32L234.79 349.28C234.87 349.33 234.94 349.38 235.01 349.44C237.12 351.13 237.95 352.46 238.42 354.87C238.44 354.99 238.46 355.11 238.46 355.23V365.23C238.46 365.83 238.18 366.38 237.71 366.76C237.35 367.04 236.91 367.19 236.46 367.19C236.32 367.19 236.17 367.17 236.03 367.14L183.75 355.74C183.19 358.63 182.65 361.09 182.13 363.06C181.01 367.33 178.86 374.08 178.77 374.38C178.51 375.2 176.3 375.76 175.42 375.76" fill="white"/>
<path d="M175.48 4.82007C175.48 4.82007 175.48 4.82007 175.47 4.82007C175.47 4.82007 175.48 4.82007 175.49 4.82007M175.44 4.82007C175.44 4.82007 175.44 4.82007 175.46 4.82007C175.45 4.82007 175.45 4.82007 175.45 4.82007M175.47 4.82007C175.47 4.82007 175.47 4.82007 175.45 4.82007H175.47ZM175.45 4.82007C175.45 4.82007 175.44 4.82007 175.43 4.82007H175.45ZM175.46 4.83007C176.6 5.20007 177.51 5.67007 178.6 6.37007C182.13 8.66007 184.57 14.2501 184.95 15.1601C185.32 15.9001 188.57 22.5201 190.22 27.1401C192.07 32.3401 192.77 35.3301 193.83 40.4601C194.69 44.5901 195.07 47.0601 195.53 51.4701C196.46 60.3501 195.62 73.8101 195.53 74.9901V127.47C195.93 128.92 196.41 130.08 196.87 130.77C197.43 131.6 198.65 132.75 199.25 133.28L215.84 141.58C215.72 140.34 215.57 140.25 215.51 139.31C215.46 138.38 215.4 137.53 215.34 136.73C215.28 135.85 215.22 135 215.17 134.16C215 133.96 214.86 133.74 214.77 133.47C214.66 133.13 214.09 131.39 214.05 130.28C213.99 128.73 214.73 127.19 214.88 126.89C215.02 126.61 215.23 126.37 215.48 126.18C215.5 126.06 215.63 125.17 215.63 125.17C215.91 123.25 216.12 121.87 216.87 119.76C217.25 118.7 217.95 117.2 217.98 117.14C218.31 116.45 219.02 115.99 219.8 115.99H241.16C242 115.99 242.75 116.5 243.04 117.27C243.06 117.33 243.62 118.83 243.92 119.85C244.54 121.99 244.71 123.39 244.95 125.3L245.02 125.86C245.66 130.99 245.44 133.98 245.06 138.93L245.03 139.3C244.65 144.26 243.19 151.66 243.12 151.97C242.95 152.8 242.23 154.19 241.4 154.31L337.81 202.49C337.92 202.55 338.03 202.61 338.13 202.69C338.38 202.88 340.57 204.57 341.8 206.08C344.12 208.93 344.75 211.21 345.52 214.63C346.22 217.73 345.99 222.49 345.98 222.7V226.08C345.98 226.46 345.87 226.83 345.65 227.16C345.19 227.85 344.49 228.24 343.73 228.24C342.97 228.24 342.27 227.85 341.81 227.16C341.62 226.88 341.5 226.54 341.48 226.2L341.34 223.9L296.5 211.17C296.46 211.68 296.41 212.18 296.36 212.63C296.24 213.67 295.93 215.19 295.92 215.24C295.43 217.39 294.49 218.44 293.13 218.44C291.77 218.44 290.83 217.37 290.34 215.28C290.32 215.17 290.01 213.65 289.89 212.63C289.77 211.62 289.67 210.36 289.59 209.21L260.17 200.91C260.15 201.15 260.12 201.39 260.1 201.61C259.98 202.65 259.67 204.17 259.66 204.22C259.17 206.35 258.24 207.42 256.87 207.42C255.5 207.42 254.56 206.35 254.08 204.26C254.06 204.15 253.75 202.63 253.63 201.61C253.54 200.82 253.46 199.87 253.39 199L237 194.38H233.65C233.53 195.05 233.42 195.62 233.41 195.66C232.92 197.81 231.98 198.86 230.62 198.86C229.26 198.86 228.32 197.79 227.83 195.7C227.83 195.64 227.7 195.05 227.58 194.38H225.63C225.59 194.77 225.55 195.15 225.51 195.5C225.39 196.54 225.08 198.05 225.07 198.11C224.58 200.25 223.64 201.31 222.28 201.31C220.92 201.31 219.98 200.24 219.49 198.15C219.47 198.04 219.16 196.53 219.04 195.5C219 195.16 218.96 194.77 218.93 194.38H195.53V279.5C195.51 279.69 193.84 298.52 191.97 310.83C191.53 313.7 190.94 317.2 190.22 321.22C190.51 321.7 190.92 322.32 191.27 322.71C191.7 323.17 192.65 323.92 193.2 324.33L234.81 349.29C234.89 349.34 234.96 349.39 235.03 349.45C237.14 351.14 237.97 352.47 238.44 354.88C238.46 355 238.48 355.13 238.48 355.24V365.24C238.48 365.84 238.2 366.39 237.73 366.77C237.37 367.05 236.93 367.2 236.48 367.2C236.34 367.2 236.19 367.18 236.05 367.15L183.77 355.75C183.21 358.64 182.67 361.1 182.15 363.07C181.03 367.34 178.88 374.1 178.79 374.39C178.53 375.21 176.32 375.77 175.44 375.77C174.56 375.77 172.35 375.21 172.09 374.39C172 374.1 169.85 367.34 168.73 363.07C168.21 361.09 167.67 358.63 167.11 355.75L114.83 367.15C114.69 367.18 114.54 367.2 114.4 367.2C113.95 367.2 113.51 367.05 113.15 366.77C112.68 366.4 112.4 365.84 112.4 365.24V355.24C112.4 355.12 112.42 355 112.44 354.88C112.91 352.46 113.74 351.14 115.85 349.45C115.92 349.39 115.99 349.34 116.07 349.29L157.68 324.33C158.23 323.93 159.18 323.17 159.61 322.71C159.96 322.32 160.37 321.7 160.66 321.22C159.94 317.2 159.35 313.7 158.91 310.83C157.04 298.52 155.37 279.69 155.35 279.5V194.38H131.95C131.92 194.77 131.88 195.15 131.84 195.5C131.72 196.53 131.41 198.05 131.39 198.15C130.9 200.25 129.96 201.31 128.6 201.31C127.24 201.31 126.3 200.25 125.81 198.11C125.8 198.04 125.49 196.53 125.37 195.5C125.33 195.16 125.29 194.77 125.25 194.38H123.3C123.18 195.05 123.06 195.64 123.05 195.7C122.56 197.8 121.62 198.86 120.26 198.86C118.9 198.86 117.96 197.8 117.47 195.66C117.46 195.62 117.35 195.05 117.23 194.38H113.88L97.49 199C97.42 199.87 97.34 200.82 97.25 201.61C97.13 202.64 96.82 204.16 96.8 204.26C96.32 206.36 95.38 207.42 94.01 207.42C92.64 207.42 91.71 206.35 91.22 204.22C91.22 204.16 90.9 202.64 90.78 201.61C90.76 201.39 90.73 201.16 90.71 200.91L61.29 209.21C61.21 210.36 61.11 211.62 60.99 212.63C60.87 213.66 60.56 215.18 60.54 215.28C60.05 217.37 59.11 218.44 57.75 218.44C56.39 218.44 55.45 217.38 54.96 215.24C54.95 215.18 54.64 213.66 54.52 212.63C54.47 212.18 54.42 211.68 54.38 211.17L9.54001 223.9L9.40001 226.2C9.38001 226.54 9.26001 226.88 9.07001 227.16C8.61001 227.85 7.91001 228.24 7.15001 228.24C6.39001 228.24 5.69001 227.85 5.23001 227.16C5.01001 226.84 4.90001 226.47 4.90001 226.08V222.7C4.90001 222.49 4.66001 217.74 5.36001 214.63C6.13001 211.21 6.76001 208.93 9.08001 206.08C10.31 204.57 12.5 202.88 12.75 202.69C12.85 202.61 12.96 202.55 13.07 202.49L109.48 154.31C108.65 154.19 107.93 152.8 107.76 151.97C107.69 151.66 106.23 144.26 105.85 139.3L105.82 138.93C105.44 133.98 105.22 130.99 105.86 125.86L105.93 125.3C106.17 123.38 106.34 121.99 106.96 119.85C107.26 118.82 107.82 117.32 107.84 117.27C108.13 116.5 108.88 115.99 109.72 115.99H131.08C131.86 115.99 132.57 116.44 132.9 117.14C132.93 117.2 133.63 118.7 134.01 119.76C134.76 121.87 134.97 123.25 135.25 125.17C135.25 125.17 135.38 126.06 135.4 126.18C135.65 126.37 135.86 126.6 136 126.89C136.15 127.18 136.89 128.73 136.83 130.28C136.79 131.4 136.22 133.13 136.11 133.47C136.02 133.73 135.88 133.96 135.71 134.16C135.66 134.99 135.6 135.84 135.54 136.73C135.48 137.53 135.42 138.38 135.37 139.31C135.31 140.25 135.16 140.33 135.04 141.58L151.63 133.28C152.23 132.75 153.45 131.61 154.01 130.77C154.47 130.08 154.95 128.92 155.35 127.47V74.9901C155.27 73.8201 154.43 60.3501 155.35 51.4701C155.81 47.0601 156.19 44.6001 157.05 40.4601C158.11 35.3301 158.81 32.3401 160.66 27.1401C162.31 22.5201 165.56 15.9001 165.93 15.1601C166.31 14.2501 168.75 8.66007 172.28 6.37007C173.37 5.66007 174.28 5.20007 175.42 4.83007M175.48 0.820068C175.48 0.820068 175.47 0.820068 175.46 0.820068C175.46 0.820068 175.45 0.820068 175.44 0.820068C174.88 0.820068 174.35 0.930068 173.86 1.14007C172.59 1.58007 171.46 2.15007 170.14 3.01007C165.86 5.79007 163.13 11.5901 162.32 13.5001C161.84 14.4801 158.63 21.0201 156.92 25.8001C154.99 31.2301 154.26 34.3301 153.16 39.6501C152.27 43.9201 151.88 46.4801 151.4 51.0501C150.45 60.1001 151.27 73.5901 151.37 75.1101V126.89C151.07 127.87 150.8 128.4 150.71 128.53C150.55 128.76 150.01 129.34 149.38 129.93L139.96 134.64C140.53 132.87 140.82 131.5 140.86 130.41C140.96 127.96 139.94 125.74 139.61 125.08C139.49 124.85 139.36 124.63 139.22 124.41C138.94 122.52 138.69 120.86 137.82 118.41C137.4 117.24 136.74 115.81 136.55 115.42C135.56 113.34 133.43 111.99 131.12 111.99H109.76C107.26 111.99 105 113.55 104.13 115.87C104.13 115.89 104.11 115.91 104.11 115.93L104.09 115.98C103.67 117.13 103.36 118.05 103.16 118.73C102.46 121.16 102.25 122.82 102.01 124.75V124.81L101.93 125.37C101.23 130.95 101.49 134.25 101.87 139.24L101.9 139.63C102.26 144.38 103.58 151.34 103.86 152.67L11.3 198.94C11.3 198.94 11.23 198.97 11.2 198.99C11.02 199.08 10.7 199.26 10.34 199.53C10 199.79 7.55001 201.67 6.00001 203.57C3.14001 207.08 2.32001 210.01 1.48001 213.77C0.720011 217.12 0.870011 221.69 0.920011 222.81V226.09C0.920011 227.28 1.27001 228.44 1.94001 229.42C3.12001 231.18 5.08001 232.25 7.17001 232.25C9.26001 232.25 11.22 231.18 12.41 229.4C12.9 228.67 13.22 227.84 13.35 226.99L51.1 216.27C52.43 221.85 56.2 222.45 57.76 222.45C58.99 222.45 63.09 222 64.44 216.2C64.45 216.14 64.47 216.08 64.48 216.02V215.98C64.72 214.78 64.89 213.81 64.97 213.1C65 212.86 65.03 212.6 65.06 212.31L87.55 205.96C89.02 210.87 92.52 211.42 94.02 211.42C95.25 211.42 99.38 210.97 100.71 205.15C100.72 205.1 100.73 205.04 100.74 204.98V204.94C100.99 203.74 101.14 202.8 101.23 202.09L114.18 198.44C115.8 202.38 118.89 202.85 120.28 202.85C120.83 202.85 121.96 202.76 123.15 202.14C124.85 204.93 127.4 205.3 128.62 205.3C129.84 205.3 133.95 204.85 135.3 199.05C135.31 198.99 135.33 198.93 135.34 198.87V198.83C135.38 198.67 135.41 198.52 135.44 198.36H151.37V279.48C151.37 279.62 151.37 279.77 151.39 279.91V280.07C151.82 284.68 153.32 300.56 154.97 311.41C155.34 313.85 155.84 316.8 156.44 320.2C156.19 320.42 155.82 320.71 155.48 320.97L114.04 345.83C113.77 345.99 113.55 346.15 113.35 346.32C110.54 348.58 109.19 350.77 108.54 354.09C108.54 354.12 108.53 354.15 108.52 354.18C108.47 354.44 108.42 354.8 108.42 355.22V365.22C108.42 367.04 109.25 368.74 110.69 369.88C111.75 370.72 113.07 371.17 114.42 371.17C114.82 371.17 115.24 371.13 115.66 371.04L164.02 360.5C164.31 361.82 164.59 363.01 164.87 364.07C165.55 366.65 166.7 370.54 168.2 375.32L168.27 375.55C169.56 379.64 175.39 379.76 175.44 379.76C175.49 379.76 181.32 379.65 182.6 375.59L182.68 375.33C184.18 370.56 185.34 366.67 186.01 364.08C186.29 363.02 186.57 361.83 186.86 360.51L235.18 371.04C235.64 371.14 236.06 371.18 236.46 371.18C237.81 371.18 239.13 370.72 240.19 369.89C241.64 368.75 242.46 367.05 242.46 365.22V355.22C242.46 354.81 242.41 354.45 242.36 354.18C242.36 354.15 242.35 354.12 242.34 354.09C241.69 350.77 240.35 348.59 237.53 346.32C237.32 346.15 237.11 345.99 236.87 345.85L195.4 320.97C195.06 320.71 194.69 320.42 194.44 320.2C195.04 316.8 195.53 313.85 195.9 311.42C197.55 300.57 199.05 284.68 199.47 280.07L199.49 279.87C199.5 279.74 199.51 279.61 199.51 279.48V198.36H215.44C215.47 198.51 215.5 198.67 215.53 198.83V198.89C215.53 198.89 215.56 199 215.57 199.05C216.93 204.85 221.03 205.3 222.25 205.3C223.47 205.3 226.02 204.93 227.72 202.14C228.92 202.76 230.04 202.85 230.59 202.85C231.97 202.85 235.06 202.38 236.69 198.44L249.64 202.09C249.73 202.82 249.88 203.75 250.12 204.94V205C250.12 205 250.15 205.1 250.16 205.15C251.49 210.97 255.62 211.42 256.85 211.42C258.34 211.42 261.84 210.87 263.32 205.96L285.81 212.31C285.84 212.6 285.87 212.86 285.9 213.1C285.98 213.8 286.14 214.77 286.38 215.97V216.03C286.4 216.08 286.41 216.14 286.43 216.19C287.79 221.99 291.89 222.44 293.11 222.44C294.68 222.44 298.44 221.83 299.77 216.26L337.52 226.98C337.65 227.83 337.97 228.65 338.46 229.38C339.66 231.17 341.62 232.23 343.7 232.23C345.78 232.23 347.75 231.16 348.94 229.38C349.59 228.42 349.95 227.27 349.95 226.08V222.8C350 221.68 350.15 217.11 349.39 213.76C348.54 210 347.72 207.07 344.87 203.57C343.32 201.67 340.86 199.78 340.53 199.53C340.17 199.26 339.85 199.08 339.67 198.99C339.64 198.97 339.6 198.95 339.57 198.94L247.03 152.69C247.3 151.36 248.62 144.39 248.99 139.63L249.02 139.27C249.4 134.26 249.66 130.96 248.96 125.38L248.89 124.82V124.76C248.64 122.84 248.43 121.18 247.73 118.75C247.53 118.06 247.21 117.13 246.8 115.99L246.78 115.94C246.78 115.94 246.76 115.9 246.76 115.88C245.89 113.56 243.63 112 241.13 112H219.77C217.46 112 215.33 113.35 214.34 115.43C214.15 115.82 213.49 117.26 213.08 118.41C212.2 120.88 211.95 122.54 211.67 124.43C211.53 124.64 211.4 124.87 211.28 125.1C210.94 125.76 209.93 127.98 210.03 130.44C210.07 131.52 210.36 132.91 210.92 134.66L201.5 129.95C200.86 129.36 200.32 128.78 200.16 128.54C200.07 128.41 199.81 127.89 199.5 126.9V75.1201C199.6 73.5901 200.42 60.1101 199.47 51.0501C198.99 46.4801 198.6 43.9201 197.71 39.6501C196.61 34.3301 195.88 31.2301 193.95 25.8101C192.24 21.0201 189.04 14.4801 188.55 13.5001C187.74 11.5901 185.02 5.79007 180.74 3.02007C179.42 2.16007 178.28 1.59007 177.02 1.15007C176.53 0.940068 176 0.830068 175.44 0.830068L175.48 0.820068Z" fill="black"/>
</g>
<defs>
<clipPath id="clip0_183_41">
<rect width="349.18" height="378.95" fill="white" transform="translate(0.869995 0.820068)"/>
</clipPath>
</defs>
</svg>
