<svg width="611" height="636" viewBox="0 0 611 636" fill="none" xmlns="http://www.w3.org/2000/svg">
<g clip-path="url(#clip0_593_2444)">
<path d="M305.5 634.027C305.05 634.027 304.6 633.879 304.23 633.574C303.02 632.587 299.42 629.648 294.14 608.848L207.58 632.124C207.41 632.173 207.23 632.193 207.05 632.193C206.62 632.193 206.19 632.055 205.84 631.789C205.34 631.414 205.05 630.832 205.05 630.22V622.281C204.86 612.576 207.32 608.04 215.55 602.911L284.18 559.655C279.91 531.704 276.61 498.093 274.1 456.977C274.1 456.937 274.1 456.898 274.1 456.858V329.593L235.48 334.416C234.84 338.578 233.58 342.759 230.29 342.759C227.28 342.759 226 339.298 225.32 335.688L212.94 337.236L200.31 341.142C199.5 349.111 197.81 352.533 194.73 352.533C191.65 352.533 190.26 348.746 189.58 344.456L167.12 351.399C166.48 355.571 165.24 359.851 161.92 359.851C159.17 359.851 157.92 356.853 157.31 354.437L134.59 361.459C133.99 366.893 132.77 372.061 129.1 372.061C126.07 372.061 124.77 368.5 124.08 364.713L108.59 369.506L8.71999 410.475V414.657C8.71999 415.742 7.81999 416.629 6.71999 416.629H3.98999C2.88999 416.629 1.98999 415.742 1.98999 414.657V392.683C1.98999 392.585 1.98999 392.486 2.00999 392.397C3.26999 384.034 7.61999 380.582 14.7 377.495L200.93 271.444V267.686H200.88C200.61 267.686 200.35 267.637 200.11 267.529C196.56 266.059 195.78 262.647 195.47 256.039V230.308C195.42 227.822 195.91 224.716 200.12 222.99C200.36 222.891 200.62 222.842 200.89 222.842H221.4C221.66 222.842 221.92 222.891 222.17 222.99C226.38 224.706 226.87 227.822 226.82 230.347V255.95C226.81 256.216 226.8 256.483 226.78 256.729L274.1 229.785V82.085C274.1 82.085 274.1 81.9962 274.1 81.9469C274.14 81.296 275.22 65.8514 276.17 59.2238C279.57 35.4454 290.79 1.9624 305.12 1.9624C305.24 1.9624 305.37 1.9624 305.49 1.9624C305.61 1.9624 305.74 1.9624 305.86 1.9624C320.19 1.9624 331.42 35.4454 334.81 59.2238C335.76 65.8514 336.83 81.296 336.88 81.9469C336.88 81.9962 336.88 82.0357 336.88 82.085V229.765L384.19 256.71C384.18 256.483 384.17 256.256 384.15 256.019V230.288C384.1 227.803 384.59 224.696 388.8 222.97C389.04 222.871 389.3 222.822 389.56 222.822H410.07C410.33 222.822 410.59 222.871 410.84 222.97C415.05 224.696 415.54 227.803 415.49 230.327V255.93C415.18 262.637 414.4 266.039 410.85 267.519C410.6 267.617 410.34 267.677 410.07 267.677H410.02V271.434L596.25 377.485C603.33 380.572 607.68 384.014 608.95 392.387C608.96 392.486 608.97 392.585 608.97 392.673V414.647C608.97 415.732 608.07 416.619 606.97 416.619H604.23C603.13 416.619 602.23 415.732 602.23 414.647V410.465L502.36 369.497L486.87 364.703C486.18 368.491 484.88 372.051 481.85 372.051C478.18 372.051 476.96 366.893 476.36 361.449L453.64 354.427C453.02 356.843 451.77 359.841 449.03 359.841C445.7 359.841 444.46 355.561 443.83 351.389L421.37 344.446C420.69 348.736 419.4 352.523 416.22 352.523C413.04 352.523 411.45 349.101 410.64 341.132L398.01 337.227L385.64 335.678C384.96 339.288 383.68 342.75 380.67 342.75C377.39 342.75 376.13 338.568 375.48 334.406L336.86 329.583V456.848C336.86 456.848 336.86 456.927 336.86 456.967C334.35 498.093 331.05 531.694 326.78 559.645L395.42 602.901C403.65 608.03 406.1 612.567 405.91 622.301V630.201C405.91 630.812 405.62 631.394 405.12 631.769C404.77 632.035 404.34 632.173 403.91 632.173C403.73 632.173 403.56 632.153 403.38 632.104L316.82 608.829C311.54 629.629 307.94 632.568 306.73 633.554C306.36 633.86 305.91 634.008 305.46 634.008L305.5 634.027Z" fill="white"/>
<path d="M305.87 3.94498C317.27 3.94498 328.95 32.2305 332.84 59.5002C333.79 66.1376 334.89 82.0852 334.89 82.0852V230.91L386.54 260.319C386.37 259.136 386.25 257.686 386.17 255.931V230.298C386.12 227.665 386.78 225.949 389.59 224.805H410.1C412.91 225.949 413.57 227.665 413.52 230.298V255.931C413.2 262.637 412.39 264.748 410.1 265.694H408.05V272.559L595.38 379.231C602.18 382.18 605.86 385.099 607 392.664V414.637H604.27V409.144L503.09 367.633L485.29 362.13C484.71 366.587 483.69 370.079 481.9 370.079C479.82 370.079 478.78 365.404 478.27 359.96L452.18 351.892C451.57 355.364 450.6 357.869 449.09 357.869C447.29 357.869 446.27 354.358 445.69 349.88L419.75 341.862C419.19 346.665 418.16 350.551 416.27 350.551C414.09 350.551 413.05 345.423 412.57 339.643L398.5 335.294L384.03 333.489C383.44 337.631 382.43 340.787 380.72 340.787C378.9 340.787 377.88 337.197 377.3 332.651L334.91 327.364V456.868C332.58 495.056 329.33 530.393 324.65 560.641L394.38 604.588C402.26 609.5 404.12 613.484 403.95 622.291V630.23L315.41 606.422C311.98 620.398 308.56 629.57 305.5 632.055C302.44 629.56 299.02 620.388 295.59 606.422L207.05 630.23V622.291C206.88 613.484 208.74 609.5 216.62 604.588L286.36 560.641C281.68 530.393 278.44 495.056 276.1 456.868V327.364L233.71 332.651C233.14 337.197 232.11 340.787 230.29 340.787C228.58 340.787 227.58 337.631 226.98 333.489L212.51 335.294L198.44 339.643C197.95 345.423 196.91 350.551 194.74 350.551C192.85 350.551 191.81 346.675 191.26 341.862L165.32 349.88C164.74 354.358 163.72 357.869 161.92 357.869C160.4 357.869 159.44 355.364 158.83 351.892L132.74 359.96C132.23 365.404 131.18 370.079 129.11 370.079C127.32 370.079 126.3 366.587 125.72 362.13L107.92 367.633L6.73 409.154V414.647H4V392.674C5.14 385.109 8.83 382.19 15.62 379.241L202.95 272.569V265.704H200.9C198.62 264.758 197.8 262.647 197.48 255.941V230.308C197.43 227.675 198.09 225.959 200.9 224.815H221.41C224.22 225.959 224.88 227.675 224.83 230.308V255.941C224.75 257.696 224.63 259.136 224.46 260.329L276.11 230.919V82.0852C276.11 82.0852 277.21 66.1376 278.16 59.5002C282.06 32.2206 293.73 3.93512 305.13 3.94498C305.25 3.94498 305.38 3.94498 305.5 3.95484C305.63 3.95484 305.75 3.94498 305.87 3.94498ZM305.87 0C305.74 0 305.62 0 305.5 0C305.38 0 305.25 0 305.13 0C297.97 0 291.26 6.68674 285.19 19.863C280.21 30.6624 276.2 44.9136 274.2 58.9577C273.24 65.6544 272.16 81.168 272.12 81.8288C272.12 81.9175 272.12 82.0063 272.12 82.0951V228.641L228.84 253.288V230.347C228.87 228.641 228.92 223.611 222.95 221.175C222.47 220.978 221.95 220.88 221.42 220.88H200.91C200.38 220.88 199.87 220.978 199.38 221.175C193.41 223.611 193.46 228.641 193.49 230.347V255.95C193.49 256.01 193.49 256.069 193.49 256.138C193.78 262.203 194.37 267.036 198.95 269.186V270.31L13.81 375.72C6.34 378.994 1.43 382.91 0.04 392.092C0.01 392.289 0 392.476 0 392.674V414.647C0 416.827 1.79 418.592 4 418.592H6.73C8.94 418.592 10.73 416.827 10.73 414.647V411.787L109.28 371.361L122.58 367.248C123.46 370.582 125.24 374.034 129.11 374.034C134.36 374.034 135.85 367.662 136.45 362.958L156.02 356.902C156.99 359.378 158.72 361.824 161.93 361.824C166.64 361.824 168.24 356.715 168.92 352.918L188.04 347.001C188.9 350.64 190.68 354.496 194.74 354.496C200.15 354.496 201.61 347.632 202.18 342.622L213.37 339.16L223.75 337.868C224.6 341.103 226.36 344.732 230.29 344.732C234.82 344.732 236.49 339.978 237.21 336.191L272.09 331.842V456.868C272.09 456.947 272.09 457.026 272.09 457.105C274.57 497.669 277.81 530.935 282 558.698L214.45 601.274C205.62 606.778 202.84 611.896 203.03 622.341V630.24C203.03 631.473 203.61 632.627 204.6 633.377C205.31 633.909 206.16 634.185 207.03 634.185C207.38 634.185 207.74 634.136 208.08 634.047L292.68 611.304C297.29 628.83 300.71 633.307 302.93 635.112C303.67 635.714 304.57 636.02 305.48 636.02C306.39 636.02 307.29 635.714 308.03 635.112C310.25 633.298 313.68 628.83 318.28 611.304L402.88 634.047C403.23 634.136 403.58 634.185 403.93 634.185C404.8 634.185 405.65 633.909 406.36 633.377C407.35 632.627 407.93 631.473 407.93 630.24V622.341C408.13 611.906 405.34 606.778 396.5 601.264L328.97 558.708C333.15 530.955 336.4 497.679 338.88 457.115C338.88 457.036 338.88 456.957 338.88 456.878V331.852L373.76 336.201C374.49 339.988 376.15 344.742 380.68 344.742C384.61 344.742 386.37 341.113 387.22 337.878L397.6 339.17L408.79 342.631C409.36 347.642 410.82 354.506 416.23 354.506C420.3 354.506 422.07 350.64 422.93 347.01L442.05 352.928C442.73 356.725 444.34 361.834 449.04 361.834C452.25 361.834 453.98 359.388 454.95 356.912L474.52 362.968C475.12 367.672 476.61 374.043 481.86 374.043C485.73 374.043 487.5 370.592 488.39 367.258L501.69 371.371L600.24 411.797V414.657C600.24 416.837 602.03 418.602 604.24 418.602H606.97C609.18 418.602 610.97 416.837 610.97 414.657V392.683C610.97 392.486 610.96 392.299 610.93 392.102C609.54 382.92 604.64 379.004 597.16 375.73L412.02 270.3V269.176C416.6 267.026 417.2 262.193 417.48 256.128C417.48 256.069 417.48 256.01 417.48 255.941V230.338C417.51 228.631 417.56 223.602 411.59 221.165C411.11 220.968 410.59 220.87 410.06 220.87H389.55C389.03 220.87 388.51 220.968 388.02 221.165C382.05 223.602 382.1 228.631 382.13 230.338V253.278L338.85 228.631V82.0852C338.85 81.9964 338.85 81.9077 338.85 81.8189C338.8 81.1581 337.73 65.6544 336.77 58.9479C334.76 44.9037 330.76 30.6624 325.78 19.8531C319.74 6.68674 313.03 0 305.87 0Z" fill="black"/>
</g>
<defs>
<clipPath id="clip0_593_2444">
<rect width="611" height="636" fill="white"/>
</clipPath>
</defs>
</svg>
