<svg width="603" height="638" viewBox="0 0 603 638" fill="none" xmlns="http://www.w3.org/2000/svg">
<g clip-path="url(#clip0_468_1446)">
<path d="M400.614 636C400.417 636 400.221 635.97 400.034 635.92L309.089 610.12L307.061 634.16C306.979 635.2 306.078 636 305.002 636H297.998C296.922 636 296.022 635.2 295.939 634.16L293.921 610.12L202.976 635.92C202.78 635.97 202.593 636 202.397 636C201.942 636 201.486 635.85 201.114 635.57C200.586 635.17 200.297 634.55 200.328 633.9L201.279 615.73C201.331 615.23 201.735 611.59 203.235 609.47C204.559 607.6 207.405 605.97 207.725 605.79L286.389 560.89C286.079 558.98 281.578 531.34 279.074 513.52C275.36 487.05 273.58 472.21 270.787 444.44C267.714 413.89 265.717 381.45 264.858 347.98H231.181C230.85 350.94 230.436 353.54 229.711 357.14C229.142 359.97 228.232 362.87 225.749 362.87C223.266 362.87 222.365 359.96 221.827 357.12C221.165 353.63 220.772 351.05 220.42 347.98H217.203L194.916 355.14C194.585 358.17 194.161 360.85 193.416 364.53C192.847 367.36 191.937 370.26 189.454 370.26C186.97 370.26 186.07 367.35 185.532 364.51C185.098 362.22 184.787 360.33 184.518 358.48L161.849 365.77C161.508 369.02 161.084 371.75 160.308 375.62C159.739 378.45 158.828 381.35 156.345 381.35C153.862 381.35 152.962 378.44 152.424 375.6C151.958 373.16 151.627 371.15 151.348 369.15L128.72 376.43C128.389 379.6 127.954 382.28 127.189 386.1C126.62 388.93 125.709 391.83 123.226 391.83C120.743 391.83 119.843 388.92 119.305 386.08C118.86 383.7 118.529 381.74 118.26 379.8L112.311 381.71C111.948 385.65 111.504 388.54 110.634 392.88C110.065 395.71 109.155 398.61 106.672 398.61C104.189 398.61 103.288 395.7 102.75 392.86C102.254 390.22 101.902 388.09 101.612 385.93L4.9664 426.68C4.69739 426.79 4.41804 426.85 4.13868 426.85C3.74552 426.85 3.34201 426.74 3.00058 426.52C2.42118 426.15 2.0694 425.52 2.0694 424.85V406.06C2.0694 405.94 2.07974 405.81 2.10044 405.69C2.18321 405.27 2.9385 401.5 4.02487 399.34C5.13194 397.13 7.48058 394.77 7.74958 394.5C7.8634 394.38 7.9979 394.28 8.14275 394.2L94.3078 342.69C93.4904 339.08 92.5696 334.48 92.1971 330.79C90.9038 318.21 92.135 297.17 92.1971 296.29C92.2488 295.36 92.9731 294.59 93.925 294.43C94.2354 294.38 101.633 293.19 106.361 293.17H106.486C111.473 293.17 118.539 294.38 118.839 294.43C119.77 294.59 120.464 295.34 120.536 296.24C120.598 297.03 121.922 313.99 120.815 326.84L195.651 282.1C194.906 278.74 194.068 274.48 193.716 271.02C192.423 258.44 193.654 237.41 193.716 236.52C193.768 235.59 194.482 234.82 195.444 234.66C195.754 234.61 203.152 233.42 207.88 233.4H208.005C212.992 233.4 220.058 234.61 220.348 234.66C221.279 234.82 221.972 235.57 222.045 236.47C222.107 237.22 223.369 253.37 222.407 266.1L264.838 240.74C266.172 153.64 270.745 81.36 270.797 80.64C270.797 80.58 270.807 80.52 270.818 80.45C270.849 80.28 273.57 63.59 276.27 53.17L276.839 50.99C279.943 38.96 282.002 31.01 287.869 18.93C290.507 13.51 297.336 4.5 297.625 4.12C297.677 4.05 297.739 3.99 297.801 3.92C298.681 3.03 299.902 2 301.505 2C303.109 2 304.268 2.96 305.22 3.89C307.165 5.79 312.504 13.44 315.173 18.93C321.039 31.01 323.098 38.95 326.202 50.98L326.771 53.18C329.472 63.6 332.193 80.3 332.224 80.46C332.224 80.52 332.245 80.58 332.245 80.65C332.286 81.37 336.869 153.65 338.204 240.75L380.635 266.11C379.673 253.38 380.935 237.24 380.997 236.48C381.069 235.57 381.773 234.83 382.694 234.67C382.994 234.62 390.05 233.41 395.047 233.41H395.172C399.9 233.43 407.297 234.62 407.608 234.67C408.56 234.82 409.274 235.6 409.336 236.53C409.387 237.42 410.619 258.45 409.336 271.03C408.984 274.49 408.146 278.75 407.401 282.11L482.237 326.85C481.13 314 482.454 297.04 482.516 296.25C482.588 295.34 483.292 294.6 484.213 294.44C484.513 294.39 491.569 293.18 496.566 293.18H496.691C501.419 293.2 508.817 294.39 509.127 294.44C510.079 294.59 510.793 295.37 510.855 296.3C510.907 297.19 512.138 318.22 510.855 330.8C510.472 334.48 509.551 339.08 508.744 342.7L594.909 394.21C595.054 394.3 595.189 394.4 595.302 394.51C595.571 394.77 597.92 397.13 599.027 399.35C600.113 401.51 600.869 405.28 600.952 405.7C600.972 405.82 600.993 405.95 600.993 406.07V424.86C600.993 425.53 600.641 426.16 600.062 426.53C599.72 426.75 599.327 426.86 598.924 426.86C598.644 426.86 598.365 426.81 598.096 426.69L501.471 385.94C501.181 388.11 500.829 390.24 500.333 392.87C499.795 395.71 498.915 398.62 496.411 398.62C493.907 398.62 493.018 395.73 492.449 392.89C491.579 388.55 491.135 385.65 490.772 381.72L484.823 379.81C484.554 381.74 484.223 383.7 483.778 386.09C483.24 388.93 482.361 391.84 479.857 391.84C477.353 391.84 476.463 388.95 475.894 386.11C475.129 382.3 474.704 379.62 474.363 376.44L451.735 369.16C451.456 371.16 451.125 373.16 450.659 375.61C450.121 378.45 449.242 381.36 446.738 381.36C444.234 381.36 443.344 378.47 442.775 375.63C441.999 371.76 441.565 369.03 441.234 365.78L418.565 358.49C418.306 360.34 417.985 362.23 417.551 364.52C417.013 367.36 416.133 370.27 413.63 370.27C411.126 370.27 410.236 367.38 409.667 364.54C408.932 360.87 408.498 358.19 408.167 355.15L385.88 347.99H382.663C382.311 351.06 381.907 353.64 381.245 357.13C380.707 359.97 379.828 362.88 377.324 362.88C374.82 362.88 373.93 359.99 373.361 357.15C372.637 353.54 372.213 350.94 371.892 347.99H338.214C337.356 381.45 335.359 413.89 332.286 444.45C329.492 472.22 327.713 487.07 323.998 513.53C321.505 531.31 317.015 558.87 316.684 560.89L395.358 605.79C395.668 605.96 398.513 607.59 399.838 609.46C401.338 611.58 401.741 615.23 401.783 615.63L402.745 633.9C402.776 634.55 402.486 635.17 401.959 635.57C401.586 635.85 401.141 636 400.676 636H400.614Z" fill="white"/>
<path d="M301.485 4C302.167 4 302.85 4.44 303.73 5.3C305.468 6.99 310.703 14.47 313.28 19.78C319.405 32.38 321.246 40.16 324.743 53.66C327.454 64.12 330.155 80.77 330.155 80.77C330.155 80.77 334.8 153.32 336.124 241.87L383.066 269.93C381.411 256.94 383.035 236.63 383.035 236.63C383.035 236.63 390.153 235.4 395.016 235.4C395.058 235.4 395.099 235.4 395.13 235.4C399.745 235.42 407.225 236.63 407.225 236.63C407.225 236.63 408.508 258.25 407.225 270.82C406.832 274.61 405.849 279.42 405.021 283.05L484.709 330.69C482.826 317.77 484.534 296.38 484.534 296.38C484.534 296.38 491.652 295.15 496.515 295.15C496.556 295.15 496.587 295.15 496.629 295.15C501.243 295.17 508.734 296.38 508.734 296.38C508.734 296.38 510.017 318 508.734 330.57C508.32 334.65 507.203 339.92 506.344 343.62L593.761 395.88C593.761 395.88 596.109 398.21 597.103 400.19C598.096 402.18 598.851 406.04 598.851 406.04V424.83L499.67 383C499.329 386.11 498.925 388.75 498.222 392.48C497.705 395.21 497.022 396.59 496.339 396.59C495.656 396.59 494.952 395.23 494.404 392.48C493.431 387.62 493.018 384.64 492.645 380.21L483.013 377.11C482.692 379.85 482.309 382.33 481.668 385.7C481.15 388.43 480.467 389.81 479.785 389.81C479.102 389.81 478.398 388.45 477.85 385.7C476.991 381.41 476.567 378.58 476.225 374.93L449.925 366.47C449.594 369.28 449.211 371.79 448.559 375.23C448.042 377.96 447.359 379.34 446.676 379.34C445.993 379.34 445.29 377.98 444.741 375.23C443.862 370.87 443.448 368.02 443.096 364.28L416.754 355.81C416.433 358.45 416.061 360.88 415.44 364.14C414.923 366.87 414.24 368.25 413.557 368.25C412.874 368.25 412.171 366.89 411.622 364.14C410.784 359.96 410.36 357.16 410.019 353.64L386.149 345.96H380.728C380.345 349.67 379.942 352.5 379.145 356.74C378.628 359.47 377.945 360.85 377.262 360.85C376.579 360.85 375.875 359.49 375.327 356.74C374.468 352.45 374.044 349.62 373.703 345.96H336.135C335.286 380.86 333.227 413.8 330.165 444.22C327.444 471.22 325.654 486.34 321.888 513.22C319.28 531.78 314.562 560.66 314.562 560.66L314.366 561.89L394.251 607.48C394.251 607.48 396.982 609.01 398.079 610.56C399.32 612.32 399.672 615.8 399.672 615.8L400.624 633.97L307.237 607.48L305.013 633.97H298.008L295.784 607.48L202.397 633.97L203.349 615.8C203.349 615.8 203.701 612.32 204.942 610.56C206.039 609.01 208.77 607.48 208.77 607.48L288.655 561.89L288.458 560.66C288.458 560.66 283.74 531.78 281.133 513.22C277.357 486.34 275.567 471.22 272.856 444.22C269.793 413.8 267.735 380.86 266.886 345.96H229.318C228.977 349.62 228.553 352.45 227.694 356.74C227.146 359.49 226.442 360.85 225.759 360.85C225.076 360.85 224.383 359.47 223.876 356.74C223.079 352.5 222.676 349.67 222.293 345.96H216.872L193.002 353.64C192.661 357.16 192.237 359.96 191.399 364.14C190.85 366.89 190.147 368.25 189.464 368.25C188.781 368.25 188.088 366.87 187.581 364.14C186.97 360.88 186.588 358.45 186.267 355.81L159.925 364.28C159.573 368.02 159.159 370.87 158.28 375.23C157.731 377.98 157.028 379.34 156.345 379.34C155.662 379.34 154.969 377.96 154.462 375.23C153.81 371.79 153.427 369.28 153.096 366.47L126.785 374.93C126.444 378.58 126.02 381.42 125.161 385.7C124.612 388.45 123.909 389.81 123.226 389.81C122.543 389.81 121.85 388.43 121.343 385.7C120.712 382.33 120.319 379.85 119.998 377.11L110.365 380.21C109.993 384.64 109.579 387.62 108.607 392.48C108.058 395.23 107.355 396.59 106.672 396.59C105.989 396.59 105.296 395.21 104.789 392.48C104.085 388.75 103.692 386.11 103.34 383L4.13869 424.84V406.05C4.13869 406.05 4.89398 402.18 5.88724 400.2C6.88049 398.21 9.22913 395.89 9.22913 395.89L96.6461 343.63C95.7873 339.93 94.6699 334.67 94.2561 330.58C92.9731 318.01 94.2561 296.39 94.2561 296.39C94.2561 296.39 101.737 295.18 106.361 295.16C106.403 295.16 106.434 295.16 106.475 295.16C111.338 295.16 118.456 296.39 118.456 296.39C118.456 296.39 120.163 317.77 118.28 330.7L197.969 283.06C197.141 279.43 196.148 274.62 195.765 270.83C194.482 258.26 195.765 236.64 195.765 236.64C195.765 236.64 203.245 235.43 207.86 235.41C207.901 235.41 207.932 235.41 207.974 235.41C212.836 235.41 219.955 236.64 219.955 236.64C219.955 236.64 221.579 256.94 219.924 269.94L266.865 241.88C268.19 153.33 272.835 80.78 272.835 80.78C272.835 80.78 275.536 64.13 278.247 53.67C281.744 40.16 283.585 32.39 289.71 19.79C292.287 14.48 299.26 5.31 299.26 5.31C300.129 4.44 300.802 4.01 301.474 4.01M301.485 0C299.064 0 297.356 1.45 296.28 2.53C296.156 2.65 296.042 2.79 295.939 2.92C295.649 3.31 288.696 12.47 285.975 18.07C280.016 30.33 277.946 38.35 274.811 50.49L274.242 52.68C271.521 63.19 268.862 79.45 268.759 80.14C268.738 80.26 268.728 80.39 268.717 80.51C268.676 81.23 264.134 152.96 262.779 239.61L224.693 262.38C225.2 250.31 224.166 237 224.104 236.32C223.959 234.5 222.562 233.01 220.71 232.69C220.4 232.64 213.168 231.4 207.994 231.4H207.86C202.966 231.42 195.413 232.64 195.092 232.69C193.189 233 191.761 234.54 191.647 236.4C191.595 237.3 190.354 258.48 191.657 271.22C191.968 274.3 192.661 277.99 193.323 281.14L123.123 323.1C123.733 310.8 122.636 296.81 122.585 296.08C122.44 294.26 121.043 292.77 119.191 292.45C118.881 292.4 111.648 291.16 106.475 291.16H106.341C101.447 291.18 93.8939 292.4 93.5732 292.45C91.6694 292.76 90.2416 294.3 90.1278 296.16C90.0761 297.06 88.8345 318.24 90.1382 330.98C90.4796 334.3 91.2452 338.31 91.9798 341.72L7.05638 392.49C6.76668 392.66 6.50802 392.87 6.27006 393.1C5.98036 393.39 3.41444 395.96 2.16252 398.46C0.983032 400.8 0.217397 404.58 0.072547 405.31C0.0208149 405.55 0.00012207 405.8 0.00012207 406.05V424.84C0.00012207 426.19 0.703679 427.45 1.87282 428.19C2.55569 428.62 3.34202 428.84 4.13869 428.84C4.6974 428.84 5.26645 428.73 5.79412 428.51L99.9155 388.81C100.133 390.17 100.381 391.6 100.681 393.21C101.064 395.23 102.078 400.6 106.641 400.6C111.203 400.6 112.238 395.26 112.642 393.25C113.428 389.33 113.873 386.57 114.214 383.19L116.532 382.44C116.728 383.68 116.966 384.98 117.235 386.43C117.618 388.45 118.632 393.82 123.195 393.82C127.758 393.82 128.792 388.48 129.196 386.47C129.868 383.11 130.282 380.62 130.603 377.91L149.62 371.8C149.827 373.09 150.065 374.44 150.354 375.96C150.737 377.98 151.741 383.35 156.314 383.35C160.887 383.35 161.911 378.01 162.315 376C162.998 372.59 163.422 370.04 163.743 367.26L182.811 361.13C182.997 362.28 183.215 363.5 183.473 364.86C183.856 366.88 184.87 372.25 189.433 372.25C193.996 372.25 195.03 366.91 195.434 364.91C196.075 361.69 196.489 359.22 196.81 356.63L217.513 349.97H218.558C218.868 352.37 219.241 354.62 219.779 357.47C220.162 359.49 221.176 364.86 225.738 364.86C230.301 364.86 231.336 359.52 231.739 357.52C232.329 354.59 232.722 352.31 233.022 349.98H262.841C263.73 382.8 265.707 414.62 268.728 444.63C271.521 472.42 273.311 487.29 277.026 513.78C279.271 529.79 283.13 553.73 284.123 559.85L206.66 604.06C206.091 604.38 203.069 606.14 201.528 608.32C199.769 610.8 199.303 614.68 199.231 615.43C199.231 615.49 199.221 615.55 199.221 615.61L198.269 633.78C198.196 635.07 198.786 636.32 199.841 637.12C200.576 637.68 201.486 637.98 202.407 637.98C202.8 637.98 203.194 637.93 203.576 637.82L292.08 612.71L293.901 634.3C294.077 636.38 295.866 637.98 298.029 637.98H305.033C307.185 637.98 308.986 636.38 309.162 634.3L310.983 612.71L399.486 637.82C399.869 637.93 400.262 637.98 400.655 637.98C401.576 637.98 402.476 637.68 403.221 637.12C404.276 636.32 404.856 635.07 404.794 633.78L403.842 615.61C403.842 615.55 403.842 615.49 403.831 615.43C403.759 614.68 403.293 610.8 401.535 608.32C399.983 606.13 396.961 604.37 396.372 604.04L318.929 559.84C319.912 553.77 323.781 529.8 326.026 513.78C329.741 487.29 331.531 472.42 334.324 444.63C337.345 414.62 339.321 382.8 340.211 349.98H370.03C370.33 352.31 370.723 354.59 371.313 357.52C371.716 359.53 372.782 364.86 377.314 364.86C381.845 364.86 382.89 359.49 383.273 357.47C383.811 354.62 384.184 352.37 384.494 349.97H385.539L406.242 356.63C406.563 359.23 406.977 361.7 407.618 364.91C408.022 366.92 409.087 372.25 413.619 372.25C418.151 372.25 419.196 366.88 419.579 364.86C419.837 363.5 420.055 362.28 420.241 361.13L439.309 367.26C439.63 370.04 440.054 372.59 440.737 376C441.141 378.01 442.206 383.34 446.738 383.34C451.27 383.34 452.315 377.97 452.698 375.95C452.987 374.43 453.225 373.08 453.432 371.8L472.449 377.92C472.77 380.63 473.184 383.13 473.856 386.48C474.26 388.49 475.325 393.83 479.857 393.83C484.389 393.83 485.434 388.46 485.816 386.44C486.085 384.98 486.323 383.68 486.52 382.45L488.838 383.2C489.189 386.58 489.624 389.34 490.41 393.26C490.814 395.27 491.88 400.61 496.411 400.61C500.943 400.61 501.988 395.24 502.371 393.22C502.671 391.61 502.929 390.18 503.147 388.82L597.268 428.52C597.796 428.74 598.365 428.85 598.924 428.85C599.72 428.85 600.507 428.63 601.189 428.2C602.359 427.46 603.062 426.2 603.062 424.85V406.06C603.062 405.81 603.041 405.56 602.99 405.32C602.845 404.59 602.069 400.81 600.9 398.47C599.648 395.97 597.082 393.39 596.792 393.11C596.554 392.88 596.296 392.67 596.006 392.5L511.082 341.73C511.827 338.32 512.593 334.31 512.924 330.99C514.228 318.25 512.986 297.07 512.934 296.17C512.821 294.31 511.393 292.76 509.489 292.45C509.168 292.4 501.615 291.18 496.722 291.16H496.587C491.414 291.16 484.182 292.4 483.871 292.45C482.019 292.77 480.623 294.26 480.478 296.08C480.416 296.8 479.329 310.79 479.94 323.1L409.739 281.14C410.412 277.99 411.095 274.31 411.405 271.22C412.709 258.48 411.467 237.3 411.415 236.4C411.302 234.54 409.874 232.99 407.97 232.68C407.649 232.63 400.096 231.41 395.203 231.39H395.068C389.895 231.39 382.663 232.63 382.352 232.68C380.5 233 379.103 234.49 378.959 236.31C378.907 237 377.862 250.3 378.369 262.37L340.284 239.6C338.928 152.95 334.386 81.22 334.345 80.5C334.345 80.37 334.324 80.25 334.303 80.13C334.19 79.44 331.541 63.18 328.82 52.67L328.251 50.48C325.116 38.33 323.036 30.31 317.087 18.05C314.48 12.68 309.037 4.71 306.73 2.46C305.489 1.33 303.823 0 301.485 0Z" fill="black"/>
</g>
<defs>
<clipPath id="clip0_468_1446">
<rect width="603" height="638" fill="white"/>
</clipPath>
</defs>
</svg>
