<svg width="643" height="704" viewBox="0 0 643 704" fill="none" xmlns="http://www.w3.org/2000/svg">
<g clip-path="url(#clip0_22_18)">
<path d="M315.08 674.18C315.77 674 316.45 674.52 316.45 675.23V693.06C316.45 693.06 316.09 699.27 321.25 699.27C326.41 699.27 326.05 693.06 326.05 693.06V675.23C326.05 674.51 326.73 673.99 327.42 674.18L420.65 698.91C421.34 699.09 422.01 698.57 422.01 697.86V680.26C422.01 672.18 416.55 670.28 416.55 670.28L335.77 622.14C335.2 621.8 334.91 621.15 335.04 620.5C344.67 572.85 352.02 509.03 352.02 488.04C352.02 479.12 352.09 395.64 352.11 379.27C352.11 377.98 353.16 376.96 354.44 376.96L397.05 377.01C397.02 382.68 397.48 392.24 400.96 392.24C404.44 392.24 404.9 382.69 404.87 377.02H410.34C413.69 377.02 417.01 377.66 420.12 378.89L435.55 384.97C435.44 389.88 435.61 400.69 439.2 400.69C442.18 400.69 442.8 393.19 442.86 387.85L470.46 398.72C470.46 404.08 470.98 412.46 474.13 412.46C476.76 412.46 477.55 406.64 477.74 401.59L506.84 413.05C506.98 418.25 507.72 424.66 510.48 424.66C512.75 424.66 513.65 420.3 513.98 415.86L524.16 419.87C524.37 424.87 525.17 430.57 527.77 430.57C529.89 430.57 530.81 426.76 531.19 422.64L636.86 464.26C637.65 464.57 638.5 463.99 638.5 463.14V437.4C638.5 435.22 637.37 433.2 635.52 432.06L539.75 373.13V368.08H543.91C543.91 368.08 545.93 340.77 544.44 319.56C544.21 316.25 541.48 313.67 538.16 313.67H519.18C515.92 313.67 513.2 316.14 512.91 319.39C512.24 326.88 511.34 340.87 512.1 356.12L430.69 306.03V300.85H434.85C434.85 300.85 436.87 273.54 435.38 252.33C435.15 249.02 432.42 246.44 429.1 246.44H410.12C406.86 246.44 404.14 248.91 403.85 252.16C403.18 259.67 402.27 273.73 403.05 289.03L352.71 258.05C352.02 257.63 351.61 256.89 351.61 256.09C351.73 238.43 352.96 102.73 351.61 95.3601C343.93 11.8301 321.25 4.82007 321.25 4.82007C321.25 4.82007 298.57 11.8301 290.9 95.3501C289.54 102.72 290.78 238.42 290.9 256.08C290.9 256.89 290.49 257.62 289.8 258.04L239.46 289.02C240.24 273.72 239.33 259.67 238.66 252.15C238.37 248.9 235.65 246.43 232.39 246.43H213.41C210.09 246.43 207.36 249.01 207.13 252.32C205.64 273.53 207.66 300.84 207.66 300.84H211.82V306.02L130.41 356.11C131.17 340.86 130.27 326.87 129.6 319.38C129.31 316.13 126.59 313.66 123.33 313.66H104.35C101.03 313.66 98.3 316.24 98.07 319.55C96.58 340.76 98.6 368.07 98.6 368.07H102.76V373.12L6.98 432.06C5.13 433.2 4 435.22 4 437.4V463.14C4 463.99 4.86 464.57 5.64 464.26L110.7 422.88C111.09 426.91 112.02 430.57 114.1 430.57C116.65 430.57 117.47 425.07 117.69 420.13L127.9 416.11C128.24 420.46 129.15 424.67 131.38 424.67C134.09 424.67 134.85 418.46 135.01 413.32L164.13 401.85C164.34 406.84 165.15 412.47 167.73 412.47C170.83 412.47 171.38 404.35 171.4 398.98L199 388.11C199.08 393.44 199.72 400.71 202.66 400.71C206.18 400.71 206.41 390.25 206.31 385.23L222.37 378.9C225.49 377.67 228.8 377.04 232.15 377.04H236.99C236.96 382.71 237.43 392.26 240.9 392.26C244.37 392.26 244.84 382.7 244.81 377.03L288.05 376.98C289.34 376.98 290.38 378.01 290.38 379.29C290.39 395.66 290.47 479.14 290.47 488.06C290.47 509.05 297.81 572.87 307.45 620.52C307.58 621.17 307.29 621.82 306.72 622.16L225.94 670.3C225.94 670.3 220.48 672.2 220.48 680.28V697.88C220.48 698.59 221.15 699.11 221.84 698.93L315.07 674.2L315.08 674.18Z" fill="white"/>
<path d="M321.25 4.82007C321.25 4.82007 343.93 11.8301 351.6 95.3501C352.96 102.72 351.72 238.42 351.6 256.08C351.6 256.89 352.01 257.62 352.7 258.04L403.04 289.02C402.26 273.72 403.17 259.67 403.84 252.15C404.13 248.9 406.85 246.43 410.11 246.43H429.09C432.41 246.43 435.14 249.01 435.37 252.32C436.86 273.53 434.84 300.84 434.84 300.84H430.68V306.02L512.09 356.11C511.33 340.86 512.23 326.87 512.9 319.38C513.19 316.13 515.91 313.66 519.17 313.66H538.15C541.47 313.66 544.2 316.24 544.43 319.55C545.92 340.76 543.9 368.07 543.9 368.07H539.74V373.12L635.51 432.05C637.36 433.19 638.49 435.21 638.49 437.39V463.13C638.49 463.82 637.92 464.33 637.29 464.33C637.14 464.33 636.99 464.3 636.85 464.25L531.18 422.63C530.8 426.75 529.88 430.56 527.76 430.56C525.16 430.56 524.36 424.86 524.15 419.86L513.97 415.85C513.64 420.29 512.75 424.65 510.47 424.65C507.71 424.65 506.98 418.24 506.83 413.04L477.73 401.58C477.54 406.62 476.74 412.45 474.12 412.45C470.97 412.45 470.46 404.07 470.45 398.71L442.85 387.84C442.79 393.19 442.17 400.68 439.19 400.68C435.61 400.68 435.44 389.86 435.54 384.96L420.11 378.88C416.99 377.65 413.68 377.02 410.33 377.02H404.86C404.89 382.69 404.42 392.24 400.95 392.24C397.48 392.24 397.01 382.68 397.04 377.01L354.43 376.96C353.14 376.96 352.1 377.99 352.1 379.27C352.09 395.64 352.01 479.12 352.01 488.04C352.01 509.03 344.67 572.85 335.03 620.5C334.9 621.15 335.19 621.8 335.76 622.14L416.54 670.28C416.54 670.28 422 672.18 422 680.26V697.86C422 698.47 421.5 698.94 420.92 698.94C420.83 698.94 420.73 698.93 420.64 698.9L327.41 674.17C327.32 674.14 327.22 674.13 327.13 674.13C326.55 674.13 326.04 674.6 326.04 675.22V693.05C326.04 693.05 326.4 699.26 321.24 699.26C316.08 699.26 316.44 693.05 316.44 693.05V675.22C316.44 674.6 315.94 674.13 315.35 674.13C315.26 674.13 315.16 674.14 315.07 674.17L221.84 698.9C221.75 698.92 221.65 698.94 221.56 698.94C220.98 698.94 220.48 698.47 220.48 697.86V680.26C220.48 672.18 225.94 670.28 225.94 670.28L306.72 622.14C307.29 621.8 307.58 621.15 307.45 620.5C297.82 572.85 290.47 509.03 290.47 488.04C290.47 479.12 290.4 395.64 290.38 379.27C290.38 377.98 289.34 376.96 288.05 376.96L244.81 377.01C244.84 382.68 244.38 392.24 240.9 392.24C237.42 392.24 236.96 382.69 236.99 377.02H232.15C228.8 377.02 225.48 377.66 222.37 378.89L206.31 385.21C206.4 390.23 206.18 400.69 202.66 400.69C199.72 400.69 199.08 393.42 199 388.09L171.4 398.96C171.38 404.33 170.84 412.45 167.73 412.45C165.15 412.45 164.34 406.81 164.13 401.83L135.01 413.3C134.85 418.45 134.1 424.65 131.38 424.65C129.15 424.65 128.25 420.45 127.9 416.09L117.69 420.11C117.47 425.05 116.65 430.55 114.1 430.55C112.02 430.55 111.09 426.89 110.7 422.86L5.64 464.25C5.49 464.31 5.34 464.33 5.2 464.33C4.56 464.33 4 463.82 4 463.13V437.39C4 435.21 5.13 433.19 6.98 432.05L102.75 373.12V368.07H98.59C98.59 368.07 96.57 340.76 98.06 319.55C98.29 316.24 101.02 313.66 104.34 313.66H123.32C126.58 313.66 129.3 316.13 129.59 319.38C130.26 326.87 131.16 340.86 130.4 356.11L211.81 306.02V300.84H207.65C207.65 300.84 205.63 273.53 207.12 252.32C207.35 249.01 210.08 246.43 213.4 246.43H232.38C235.64 246.43 238.36 248.9 238.65 252.15C239.32 259.66 240.23 273.72 239.45 289.02L289.79 258.04C290.48 257.62 290.89 256.88 290.89 256.08C290.77 238.42 289.54 102.72 290.89 95.3501C298.55 11.8301 321.24 4.82007 321.24 4.82007M321.25 0.820068C320.85 0.820068 320.45 0.880068 320.07 1.00007C317.49 1.80007 294.63 11.2101 286.93 94.8601C286.08 100.8 286.05 147.6 286.82 246.08C286.85 249.99 286.87 253.08 286.89 255.13L243.71 281.7C243.95 268.99 243.18 257.85 242.64 251.79C242.16 246.45 237.76 242.43 232.39 242.43H213.41C208.03 242.43 203.52 246.65 203.14 252.04C201.64 273.29 203.59 300.01 203.67 301.14C203.79 302.8 204.92 304.16 206.43 304.65L134.66 348.81C134.89 336.16 134.13 325.06 133.59 319.04C133.11 313.7 128.71 309.68 123.34 309.68H104.36C98.98 309.68 94.47 313.9 94.09 319.29C92.59 340.54 94.54 367.26 94.62 368.39C94.74 370 95.8 371.33 97.24 371.85L4.89 428.65C1.88 430.51 0 433.86 0 437.4V463.14C0 466.01 2.33 468.34 5.2 468.34C5.85 468.34 6.5 468.22 7.11 467.98L107.61 428.39C108.51 431.46 110.31 434.56 114.1 434.56C119.81 434.56 121.14 427.56 121.53 422.9L124.68 421.66C125.53 425.08 127.34 428.65 131.38 428.65C137.31 428.65 138.56 421.04 138.89 416.07L160.63 407.51C161.33 411.79 163.08 416.45 167.74 416.45C174.21 416.45 175.21 407.57 175.37 401.7L195.29 393.85C195.83 398.97 197.46 404.68 202.67 404.68C204.23 404.68 205.71 404.04 206.85 402.88C207.8 401.91 210.21 399.46 210.33 387.92L223.84 382.6C226.5 381.55 229.3 381.02 232.16 381.02H233.06C233.43 390.07 235.25 393 236.67 394.43C237.85 395.61 239.31 396.24 240.91 396.24C242.51 396.24 243.97 395.61 245.15 394.43C246.57 393.01 248.39 390.07 248.76 381.01L286.4 380.97L286.42 408.49C286.45 439.44 286.48 481.82 286.48 488.06C286.48 509.94 293.91 573.03 303.2 619.61L224.18 666.7C221.12 667.98 216.48 672.08 216.48 680.28V697.88C216.48 700.68 218.76 702.96 221.56 702.96C222 702.96 222.44 702.9 222.87 702.79L312.44 679.03V692.98C312.4 694.05 312.44 697.95 315.06 700.73C316.63 702.4 318.77 703.28 321.24 703.28C323.71 703.28 325.85 702.4 327.42 700.73C330.05 697.95 330.09 694.04 330.04 692.98V679.03L419.62 702.79C420.05 702.9 420.49 702.96 420.93 702.96C423.73 702.96 426.01 700.68 426.01 697.88V680.28C426.01 672.07 421.37 667.98 418.31 666.7L339.29 619.61C348.58 573.03 356.01 509.94 356.01 488.06C356.01 481.75 356.05 438.76 356.07 407.37L356.09 380.97L393.1 381.01C393.47 390.07 395.29 393.01 396.71 394.43C397.89 395.61 399.35 396.24 400.95 396.24C402.55 396.24 404.01 395.61 405.19 394.43C406.61 393.01 408.43 390.07 408.8 381.02H410.33C413.19 381.02 415.99 381.56 418.65 382.61L431.53 387.68C431.62 399.41 434.05 401.9 435.01 402.88C436.15 404.05 437.64 404.69 439.2 404.69C444.47 404.69 446.09 398.83 446.6 393.62L466.48 401.45C466.63 407.4 467.59 416.45 474.12 416.45C478.84 416.45 480.58 411.65 481.26 407.27L502.94 415.81C503.25 420.87 504.48 428.65 510.47 428.65C514.58 428.65 516.39 424.95 517.22 421.43L520.29 422.64C520.66 427.39 521.98 434.56 527.75 434.56C531.61 434.56 533.42 431.33 534.3 428.16L635.37 467.97C635.98 468.21 636.62 468.33 637.28 468.33C640.15 468.33 642.48 466 642.48 463.13V437.39C642.48 433.85 640.61 430.5 637.59 428.64L545.26 371.83C546.7 371.3 547.76 369.98 547.88 368.37C547.96 367.24 549.91 340.53 548.41 319.27C548.03 313.88 543.52 309.66 538.14 309.66H519.16C513.79 309.66 509.38 313.68 508.91 319.02C508.37 325.05 507.61 336.14 507.84 348.79L436.07 304.63C437.58 304.14 438.7 302.78 438.83 301.12C438.91 299.99 440.86 273.27 439.36 252.02C438.98 246.63 434.47 242.41 429.09 242.41H410.11C404.74 242.41 400.33 246.43 399.86 251.77C399.32 257.83 398.56 268.97 398.79 281.68L355.61 255.11C355.62 253.07 355.65 249.99 355.68 246.1C356.45 147.6 356.42 100.79 355.57 94.8401C347.87 11.2101 325.01 1.80007 322.43 1.00007C322.05 0.880068 321.65 0.820068 321.25 0.820068Z" fill="black"/>
</g>
<defs>
<clipPath id="clip0_22_18">
<rect width="642.5" height="702.45" fill="white" transform="translate(0 0.820068)"/>
</clipPath>
</defs>
</svg>
