<svg width="643" height="777" viewBox="0 0 643 777" fill="none" xmlns="http://www.w3.org/2000/svg">
<g clip-path="url(#clip0_21_2)">
<path d="M315.58 747.18C316.27 747 316.95 747.52 316.95 748.23V766.06C316.95 766.06 316.59 772.27 321.75 772.27C326.91 772.27 326.55 766.06 326.55 766.06V748.23C326.55 747.51 327.23 746.99 327.92 747.18L421.15 771.91C421.84 772.09 422.51 771.57 422.51 770.86V753.26C422.51 745.18 417.05 743.28 417.05 743.28L336.27 695.14C335.7 694.8 335.41 694.15 335.54 693.5C345.17 645.85 352.52 582.03 352.52 561.04C352.52 552.12 352.59 454.24 352.61 437.87C352.61 436.58 353.66 435.56 354.94 435.56L397.55 435.61C397.52 441.28 397.98 450.84 401.46 450.84C404.94 450.84 405.4 441.29 405.37 435.62H410.84C414.19 435.62 417.51 436.26 420.62 437.49L436.05 443.57C435.94 448.48 436.11 459.29 439.7 459.29C442.68 459.29 443.3 451.79 443.36 446.45L470.96 457.32C470.96 462.68 471.48 471.06 474.63 471.06C477.26 471.06 478.05 465.24 478.24 460.19L507.34 471.65C507.48 476.85 508.22 483.26 510.98 483.26C513.25 483.26 514.15 478.9 514.48 474.46L524.66 478.47C524.87 483.47 525.67 489.17 528.27 489.17C530.39 489.17 531.31 485.36 531.69 481.24L637.36 522.86C638.15 523.17 639 522.59 639 521.74V496C639 493.82 637.87 491.8 636.02 490.66L540.25 431.73V426.68H544.41C544.41 426.68 546.43 399.37 544.94 378.16C544.71 374.85 541.98 372.27 538.66 372.27H519.68C516.42 372.27 513.7 374.74 513.41 377.99C512.74 385.48 511.84 399.47 512.6 414.72L431.19 364.63V359.45H435.35C435.35 359.45 437.37 332.14 435.88 310.93C435.65 307.62 432.92 305.04 429.6 305.04H410.62C407.36 305.04 404.64 307.51 404.35 310.76C403.68 318.27 402.77 332.33 403.55 347.63L353.21 316.65C352.52 316.23 352.11 315.49 352.11 314.69C352.23 297.03 353.46 102.73 352.11 95.3601C344.43 11.8301 321.75 4.82007 321.75 4.82007C321.75 4.82007 299.07 11.8301 291.4 95.3501C290.04 102.72 291.28 297.02 291.4 314.68C291.4 315.49 290.99 316.22 290.3 316.64L239.96 347.62C240.74 332.32 239.83 318.27 239.16 310.75C238.87 307.5 236.15 305.03 232.89 305.03H213.91C210.59 305.03 207.86 307.61 207.63 310.92C206.14 332.13 208.16 359.44 208.16 359.44H212.32V364.62L130.91 414.71C131.67 399.46 130.77 385.47 130.1 377.98C129.81 374.73 127.09 372.26 123.83 372.26H104.85C101.53 372.26 98.8 374.84 98.57 378.15C97.08 399.36 99.1 426.67 99.1 426.67H103.26V431.72L7.48 490.66C5.63 491.8 4.5 493.82 4.5 496V521.74C4.5 522.59 5.36 523.17 6.14 522.86L111.2 481.48C111.59 485.51 112.52 489.17 114.6 489.17C117.15 489.17 117.97 483.67 118.19 478.73L128.4 474.71C128.74 479.06 129.65 483.27 131.88 483.27C134.59 483.27 135.35 477.06 135.51 471.92L164.63 460.45C164.84 465.44 165.65 471.07 168.23 471.07C171.33 471.07 171.88 462.95 171.9 457.58L199.5 446.71C199.58 452.04 200.22 459.31 203.16 459.31C206.68 459.31 206.91 448.85 206.81 443.83L222.87 437.5C225.99 436.27 229.3 435.64 232.65 435.64H237.49C237.46 441.31 237.93 450.86 241.4 450.86C244.87 450.86 245.34 441.3 245.31 435.63L288.55 435.58C289.84 435.58 290.88 436.61 290.88 437.89C290.89 454.26 290.97 552.13 290.97 561.06C290.97 582.05 298.31 645.87 307.95 693.52C308.08 694.17 307.79 694.82 307.22 695.16L226.44 743.3C226.44 743.3 220.98 745.2 220.98 753.28V770.88C220.98 771.59 221.65 772.11 222.34 771.93L315.57 747.2L315.58 747.18Z" fill="white"/>
<path d="M321.75 4.82007C321.75 4.82007 344.43 11.8301 352.1 95.3501C353.46 102.72 352.22 297.02 352.1 314.68C352.1 315.48 352.51 316.22 353.2 316.64L403.54 347.62C402.76 332.32 403.67 318.27 404.34 310.75C404.63 307.5 407.35 305.03 410.61 305.03H429.59C432.91 305.03 435.64 307.61 435.87 310.92C437.36 332.13 435.34 359.44 435.34 359.44H431.18V364.62L512.59 414.71C511.83 399.46 512.73 385.47 513.4 377.98C513.69 374.73 516.41 372.26 519.67 372.26H538.65C541.97 372.26 544.7 374.84 544.93 378.15C546.42 399.36 544.4 426.67 544.4 426.67H540.24V431.72L636.01 490.65C637.86 491.79 638.99 493.81 638.99 495.99V521.73C638.99 522.42 638.42 522.93 637.79 522.93C637.64 522.93 637.49 522.9 637.35 522.85L531.68 481.23C531.3 485.35 530.38 489.16 528.26 489.16C525.66 489.16 524.86 483.46 524.65 478.46L514.47 474.45C514.14 478.89 513.24 483.25 510.97 483.25C508.21 483.25 507.48 476.84 507.33 471.64L478.23 460.18C478.04 465.22 477.24 471.05 474.62 471.05C471.47 471.05 470.96 462.67 470.95 457.31L443.35 446.44C443.29 451.79 442.67 459.28 439.69 459.28C436.11 459.28 435.94 448.46 436.04 443.56L420.61 437.48C417.49 436.25 414.18 435.62 410.83 435.62H405.36C405.39 441.29 404.92 450.84 401.45 450.84C397.98 450.84 397.51 441.28 397.54 435.61L354.93 435.56C353.64 435.56 352.6 436.59 352.6 437.87C352.59 454.24 352.51 552.11 352.51 561.04C352.51 582.03 345.17 645.85 335.53 693.5C335.4 694.15 335.69 694.8 336.26 695.14L417.04 743.28C417.04 743.28 422.5 745.18 422.5 753.26V770.86C422.5 771.47 422 771.94 421.42 771.94C421.33 771.94 421.23 771.93 421.14 771.9L327.91 747.17C327.82 747.14 327.72 747.13 327.63 747.13C327.05 747.13 326.54 747.6 326.54 748.22V766.05C326.54 766.05 326.9 772.26 321.74 772.26C316.58 772.26 316.94 766.05 316.94 766.05V748.22C316.94 747.6 316.44 747.13 315.85 747.13C315.76 747.13 315.66 747.14 315.57 747.17L222.34 771.9C222.25 771.92 222.15 771.94 222.06 771.94C221.48 771.94 220.98 771.47 220.98 770.86V753.26C220.98 745.18 226.44 743.28 226.44 743.28L307.22 695.14C307.79 694.8 308.08 694.15 307.95 693.5C298.32 645.85 290.97 582.03 290.97 561.04C290.97 552.12 290.9 454.24 290.88 437.87C290.88 436.58 289.84 435.56 288.55 435.56L245.31 435.61C245.34 441.28 244.88 450.84 241.4 450.84C237.92 450.84 237.46 441.29 237.49 435.62H232.65C229.3 435.62 225.98 436.26 222.87 437.49L206.81 443.81C206.9 448.83 206.68 459.29 203.16 459.29C200.22 459.29 199.58 452.02 199.5 446.69L171.9 457.56C171.88 462.93 171.34 471.05 168.23 471.05C165.65 471.05 164.84 465.41 164.63 460.43L135.51 471.9C135.35 477.05 134.6 483.25 131.88 483.25C129.65 483.25 128.75 479.05 128.4 474.69L118.19 478.71C117.97 483.65 117.15 489.15 114.6 489.15C112.52 489.15 111.59 485.49 111.2 481.46L6.14 522.84C5.99 522.9 5.84 522.92 5.7 522.92C5.06 522.92 4.5 522.41 4.5 521.72V495.98C4.5 493.8 5.63 491.78 7.48 490.64L103.25 431.71V426.66H99.09C99.09 426.66 97.07 399.35 98.56 378.14C98.79 374.83 101.52 372.25 104.84 372.25H123.82C127.08 372.25 129.8 374.72 130.09 377.97C130.76 385.46 131.66 399.45 130.9 414.7L212.31 364.61V359.43H208.15C208.15 359.43 206.13 332.12 207.62 310.91C207.85 307.6 210.58 305.02 213.9 305.02H232.88C236.14 305.02 238.86 307.49 239.15 310.74C239.82 318.25 240.73 332.31 239.95 347.61L290.29 316.63C290.98 316.21 291.39 315.47 291.39 314.67C291.27 297.01 290.04 102.71 291.39 95.3401C299.05 11.8201 321.74 4.81007 321.74 4.81007M321.75 0.820068C321.35 0.820068 320.95 0.880068 320.57 1.00007C317.99 1.80007 295.12 11.2101 287.43 94.9201C286.15 105.48 287.07 263.41 287.39 313.73L244.21 340.3C244.45 327.59 243.68 316.45 243.14 310.39C242.66 305.05 238.26 301.03 232.89 301.03H213.91C208.53 301.03 204.02 305.25 203.64 310.64C202.14 331.89 204.09 358.61 204.17 359.74C204.29 361.4 205.42 362.76 206.93 363.25L135.16 407.41C135.39 394.76 134.63 383.66 134.09 377.64C133.61 372.3 129.21 368.28 123.84 368.28H104.86C99.48 368.28 94.97 372.5 94.59 377.89C93.09 399.14 95.04 425.86 95.12 426.99C95.24 428.6 96.3 429.93 97.74 430.45L5.39 487.25C2.38 489.11 0.5 492.46 0.5 496V521.74C0.5 524.61 2.83 526.94 5.7 526.94C6.35 526.94 7 526.82 7.61 526.58L108.11 486.99C109.01 490.06 110.81 493.16 114.6 493.16C120.31 493.16 121.64 486.16 122.03 481.5L125.18 480.26C126.03 483.68 127.84 487.25 131.88 487.25C137.81 487.25 139.06 479.64 139.39 474.67L161.13 466.11C161.83 470.39 163.58 475.05 168.24 475.05C174.71 475.05 175.71 466.17 175.87 460.3L195.79 452.45C196.33 457.57 197.96 463.28 203.17 463.28C204.73 463.28 206.21 462.64 207.35 461.48C208.3 460.51 210.71 458.06 210.83 446.52L224.34 441.2C227 440.15 229.8 439.62 232.66 439.62H233.56C233.93 448.67 235.75 451.6 237.17 453.03C238.35 454.21 239.81 454.84 241.41 454.84C243.01 454.84 244.47 454.21 245.65 453.03C247.07 451.61 248.89 448.67 249.26 439.61L286.9 439.57V441.02C286.97 533.23 286.99 557.18 286.99 561.04C286.99 582.92 294.42 646.01 303.71 692.59L224.69 739.68C221.63 740.96 216.99 745.06 216.99 753.26V770.86C216.99 773.66 219.27 775.94 222.07 775.94C222.51 775.94 222.95 775.88 223.37 775.77L312.95 752.01V765.96C312.91 767.03 312.95 770.93 315.57 773.71C317.14 775.38 319.28 776.26 321.75 776.26C324.22 776.26 326.36 775.38 327.93 773.71C330.56 770.93 330.6 767.02 330.55 765.96V752.01L420.13 775.77C420.56 775.88 421 775.94 421.44 775.94C424.24 775.94 426.52 773.66 426.52 770.86V753.26C426.52 745.05 421.88 740.96 418.82 739.68L339.8 692.59C349.09 646.01 356.52 582.92 356.52 561.04C356.52 552.68 356.59 465.71 356.61 439.56L393.62 439.6C393.99 448.66 395.81 451.6 397.23 453.02C398.41 454.2 399.87 454.83 401.47 454.83C403.07 454.83 404.53 454.2 405.71 453.02C407.13 451.6 408.95 448.66 409.32 439.61H410.85C413.71 439.61 416.51 440.15 419.17 441.2L432.05 446.27C432.14 458 434.57 460.49 435.53 461.47C436.67 462.64 438.16 463.28 439.72 463.28C444.99 463.28 446.61 457.42 447.12 452.21L467 460.04C467.15 465.99 468.11 475.04 474.64 475.04C479.36 475.04 481.1 470.24 481.78 465.86L503.46 474.4C503.77 479.46 505 487.24 510.99 487.24C515.1 487.24 516.91 483.54 517.74 480.02L520.81 481.23C521.18 485.98 522.5 493.15 528.27 493.15C532.13 493.15 533.94 489.92 534.82 486.75L635.89 526.56C636.5 526.8 637.14 526.92 637.8 526.92C640.67 526.92 643 524.59 643 521.72V495.98C643 492.44 641.13 489.09 638.11 487.23L545.78 430.42C547.22 429.89 548.28 428.57 548.4 426.96C548.48 425.83 550.43 399.12 548.93 377.86C548.55 372.47 544.04 368.25 538.66 368.25H519.68C514.31 368.25 509.9 372.27 509.43 377.61C508.89 383.64 508.13 394.73 508.36 407.38L436.59 363.22C438.1 362.73 439.22 361.37 439.35 359.71C439.43 358.58 441.38 331.87 439.88 310.61C439.5 305.22 434.99 301 429.61 301H410.63C405.26 301 400.85 305.02 400.38 310.36C399.84 316.42 399.08 327.56 399.31 340.27L356.13 313.7C356.46 263.38 357.38 105.45 356.09 94.8901C348.38 11.2101 325.51 1.80007 322.93 1.00007C322.55 0.880068 322.15 0.820068 321.75 0.820068Z" fill="black"/>
</g>
<defs>
<clipPath id="clip0_21_2">
<rect width="642.5" height="775.45" fill="white" transform="translate(0.5 0.820068)"/>
</clipPath>
</defs>
</svg>
