<svg width="434" height="310" viewBox="0 0 434 310" fill="none" xmlns="http://www.w3.org/2000/svg">
<g clip-path="url(#clip0_123_15)">
<path d="M220.69 297.23L289.17 287.67C289.7 287.6 290.11 287.17 290.16 286.64C290.36 284.55 290.82 279.26 290.89 275.3C290.98 270.26 286.32 268.97 286.32 268.97C286.32 268.97 241.07 259.18 231.83 257.27C231.19 257.14 230.79 256.5 230.94 255.87C235.48 236.73 236.13 220.01 236.13 220.01C236.13 220.01 236.87 178.93 236.96 174.25C237.02 170.71 240.72 167.04 242.53 165.45C243.13 164.92 243.89 164.62 244.69 164.58L268.75 163.31C268.87 166.48 270.85 166.03 270.85 166.03L273.91 166.09C276.16 166.13 276.02 164.06 276.02 164.06L276.04 162.93L306.95 161.3C307.8 164.14 308.7 164.1 309.65 161.16L347.88 159.15C348.58 161.04 349.32 161.01 350.09 159.03L427.82 154.94C428.4 154.91 428.87 154.45 428.91 153.87L429.87 140.84C430.38 132.8 425.16 132.1 425.16 132.1L280.4 117.68L280.8 95.4498C280.85 92.4598 280.67 89.4698 280.25 86.5098L279.89 83.9998C279.93 81.6498 277.88 80.1598 275.31 79.5498L275.33 78.2698L287.91 78.1198C290.01 78.0998 292.11 77.9798 294.2 77.7598C301.23 77.0198 300.91 76.2998 293.26 75.6098C291.66 75.4598 290.05 75.3798 288.44 75.3498L274.77 75.0998C274.77 75.0998 273.9 69.9298 271.89 69.7398C269.88 69.8598 268.82 74.9898 268.82 74.9898L255.15 74.7398C253.54 74.7098 251.93 74.7398 250.33 74.8198C242.65 75.2398 242.31 75.9498 249.31 76.9398C251.39 77.2298 253.48 77.4298 255.58 77.5298L268.14 78.1298L268.1 80.1398C266.57 80.8798 265.51 82.0698 265.48 83.7298L265.12 85.4998C264.44 88.8598 264.06 92.2798 264 95.7098L263.63 116L237.45 113.39C236.97 113.34 236.61 112.94 236.61 112.47C236.63 105.94 236.79 63.4598 236.91 56.3698C237.05 48.6798 232.9 30.0798 232.9 30.0798L235.27 28.8298C235.44 28.7398 235.54 28.5698 235.55 28.3798L235.65 22.9798C235.67 22.0998 234.46 22.0798 234.45 22.9598V26.2298C234.45 26.3898 234.35 26.5298 234.2 26.5898C233.75 26.7498 232.77 27.1398 231.78 27.6498C226.55 11.4598 220.55 6.55984 218.03 5.14984C217.27 4.72984 216.35 4.72984 215.59 5.14984C213.07 6.55984 207.08 11.4698 201.88 27.6698C200.89 27.1598 199.91 26.7698 199.46 26.6098C199.31 26.5498 199.21 26.4098 199.21 26.2498V22.9798C199.18 22.0998 197.98 22.1298 198 22.9998L198.11 28.3998C198.11 28.5898 198.22 28.7598 198.39 28.8498L200.76 30.0998C200.76 30.0998 196.65 48.7198 196.8 56.3998C196.94 63.4898 197.17 105.98 197.21 112.5C197.21 112.98 196.85 113.38 196.38 113.43L170.21 116.09L169.81 95.8098C169.74 92.3798 169.36 88.9598 168.67 85.5998L168.31 83.8298C168.28 82.1698 167.21 80.9798 165.69 80.2498L165.65 78.2398L178.21 77.6198C180.31 77.5198 182.4 77.3198 184.48 77.0198C191.48 76.0198 191.14 75.3098 183.46 74.8998C181.85 74.8098 180.24 74.7898 178.64 74.8298L164.97 75.0998C164.97 75.0998 163.9 69.9598 161.89 69.8498C159.88 70.0398 159.02 75.2198 159.02 75.2198L145.35 75.4898C143.74 75.5198 142.14 75.6098 140.53 75.7598C132.87 76.4698 132.56 77.1898 139.59 77.9198C141.68 78.1398 143.78 78.2498 145.88 78.2698L158.46 78.3898L158.49 79.6698C155.92 80.2898 153.88 81.7798 153.92 84.1298L153.57 86.6398C153.16 89.5998 152.98 92.5898 153.04 95.5798L153.48 117.81L8.73039 132.49C8.73039 132.49 3.52039 133.19 4.04039 141.23L5.02039 154.25C5.06039 154.83 5.53039 155.29 6.11039 155.31L83.8504 159.26C84.6204 161.23 85.3604 161.26 86.0604 159.37L124.29 161.31C125.25 164.25 126.15 164.29 126.99 161.45L157.9 163.02L157.92 164.15C157.92 164.15 157.78 166.23 160.03 166.18C162.28 166.14 163.09 166.12 163.09 166.12C163.09 166.12 165.06 166.56 165.18 163.39L189.24 164.61C190.04 164.65 190.8 164.95 191.4 165.48C193.21 167.07 196.91 170.74 196.98 174.27C197.07 178.95 197.89 220.03 197.89 220.03C197.89 220.03 198.57 236.75 203.15 255.88C203.3 256.51 202.91 257.15 202.27 257.28C193.04 259.2 147.8 269.08 147.8 269.08C147.8 269.08 143.14 270.37 143.24 275.42C143.32 279.38 143.79 284.67 144 286.76C144.05 287.29 144.46 287.71 144.99 287.79L213.49 297.22C213.49 297.22 215.77 305.11 217.09 305.08C218.41 305.1 220.68 297.21 220.68 297.21L220.69 297.23Z" fill="white"/>
<path d="M216.83 4.83982C217.25 4.83982 217.67 4.94982 218.05 5.15982C220.57 6.56982 226.57 11.4598 231.8 27.6598C232.79 27.1398 233.77 26.7598 234.22 26.5998C234.37 26.5398 234.47 26.3998 234.47 26.2398V22.9698C234.48 22.5398 234.78 22.3198 235.07 22.3198C235.37 22.3198 235.68 22.5398 235.67 22.9898L235.57 28.3898C235.57 28.5798 235.46 28.7498 235.29 28.8398L232.92 30.0898C232.92 30.0898 237.07 48.6998 236.93 56.3798C236.8 63.4698 236.65 105.96 236.63 112.48C236.63 112.96 236.99 113.36 237.47 113.4L263.65 116.01L264.02 95.7198C264.08 92.2898 264.46 88.8698 265.14 85.5098L265.5 83.7398C265.53 82.0798 266.59 80.8898 268.12 80.1498L268.16 78.1398L255.6 77.5398C253.5 77.4398 251.41 77.2498 249.33 76.9498C242.33 75.9598 242.67 75.2498 250.35 74.8298C251.53 74.7698 252.71 74.7398 253.89 74.7398C254.32 74.7398 254.75 74.7398 255.17 74.7498L268.84 74.9998C268.84 74.9998 269.9 69.8598 271.91 69.7498C273.92 69.9398 274.79 75.1098 274.79 75.1098L288.46 75.3598C290.07 75.3898 291.68 75.4698 293.28 75.6198C300.94 76.3198 301.25 77.0398 294.22 77.7698C292.13 77.9898 290.03 78.1098 287.93 78.1298L275.35 78.2798L275.33 79.5598C277.9 80.1698 279.95 81.6598 279.91 84.0098L280.27 86.5198C280.69 89.4798 280.87 92.4698 280.82 95.4598L280.42 117.69L425.18 132.11C425.18 132.11 430.39 132.8 429.89 140.85L428.93 153.88C428.89 154.46 428.42 154.92 427.84 154.95L350.11 159.04C349.72 160.05 349.33 160.55 348.96 160.55C348.59 160.55 348.25 160.09 347.9 159.16L309.67 161.17C309.19 162.66 308.71 163.41 308.26 163.41C307.81 163.41 307.39 162.71 306.97 161.31L276.06 162.94L276.04 164.07C276.04 164.07 276.18 166.11 274 166.11C273.98 166.11 273.96 166.11 273.94 166.11C271.69 166.07 270.88 166.05 270.88 166.05C270.88 166.05 270.78 166.07 270.63 166.07C270.1 166.07 268.88 165.8 268.78 163.33L244.72 164.6C243.92 164.64 243.16 164.95 242.56 165.47C240.75 167.06 237.06 170.74 236.99 174.27C236.91 178.95 236.16 220.03 236.16 220.03C236.16 220.03 235.51 236.76 230.97 255.89C230.82 256.52 231.22 257.16 231.86 257.29C241.09 259.2 286.35 268.99 286.35 268.99C286.35 268.99 291.01 270.28 290.92 275.32C290.85 279.28 290.38 284.57 290.19 286.66C290.14 287.19 289.73 287.62 289.2 287.69L220.72 297.25C220.72 297.25 218.46 305.12 217.14 305.12C215.82 305.12 213.54 297.26 213.54 297.26L145.04 287.83C144.51 287.76 144.1 287.33 144.05 286.8C143.85 284.71 143.37 279.43 143.29 275.46C143.19 270.42 147.85 269.12 147.85 269.12C147.85 269.12 193.09 259.24 202.32 257.32C202.96 257.19 203.36 256.55 203.2 255.92C198.62 236.79 197.94 220.07 197.94 220.07C197.94 220.07 197.12 178.99 197.03 174.31C196.96 170.77 193.26 167.1 191.45 165.52C190.85 164.99 190.09 164.69 189.29 164.65L165.23 163.43C165.14 165.91 163.91 166.18 163.38 166.18C163.23 166.18 163.14 166.16 163.14 166.16C163.14 166.16 162.33 166.18 160.08 166.22C160.06 166.22 160.03 166.22 160.01 166.22C157.83 166.22 157.97 164.19 157.97 164.19L157.95 163.06L127.04 161.49C126.63 162.89 126.2 163.59 125.75 163.59C125.3 163.59 124.82 162.84 124.33 161.35L86.1002 159.41C85.7602 160.34 85.4102 160.8 85.0502 160.8C84.6902 160.8 84.2902 160.3 83.9002 159.3L6.16018 155.35C5.58018 155.32 5.11018 154.86 5.07018 154.29L4.09018 141.27C3.57018 133.23 8.78018 132.53 8.78018 132.53L153.51 117.84L153.07 95.6098C153.01 92.6198 153.19 89.6298 153.6 86.6698L153.95 84.1598C153.9 81.8098 155.95 80.3198 158.52 79.6998L158.49 78.4198L145.91 78.2998C143.81 78.2798 141.71 78.1698 139.62 77.9498C132.59 77.2198 132.9 76.5098 140.56 75.7898C142.16 75.6398 143.77 75.5598 145.38 75.5198L159.05 75.2498C159.05 75.2498 159.91 70.0798 161.92 69.8798C163.93 69.9898 165 75.1298 165 75.1298L178.67 74.8598C179.14 74.8598 179.61 74.8498 180.08 74.8498C181.22 74.8498 182.36 74.8798 183.49 74.9398C191.17 75.3498 191.51 76.0498 184.51 77.0598C182.43 77.3598 180.34 77.5598 178.24 77.6598L165.68 78.2798L165.72 80.2898C167.25 81.0298 168.31 82.2198 168.34 83.8698L168.7 85.6398C169.39 88.9998 169.77 92.4198 169.84 95.8498L170.24 116.13L196.41 113.47C196.89 113.42 197.25 113.02 197.24 112.54C197.21 106.01 196.97 63.5298 196.83 56.4398C196.68 48.7498 200.79 30.1398 200.79 30.1398L198.42 28.8898C198.25 28.7998 198.15 28.6298 198.14 28.4398L198.03 23.0398C198.03 22.5998 198.33 22.3698 198.63 22.3698C198.93 22.3698 199.22 22.5798 199.23 23.0098V26.2798C199.24 26.4398 199.34 26.5798 199.49 26.6398C199.94 26.7998 200.92 27.1898 201.91 27.6998C207.11 11.4998 213.1 6.58982 215.62 5.17982C216 4.96982 216.42 4.85982 216.84 4.85982M216.83 0.839824C215.72 0.839824 214.63 1.12982 213.66 1.66982C210.76 3.28982 205.66 7.59982 200.87 18.9298C200.21 18.5598 199.45 18.3498 198.63 18.3498C197.4 18.3498 196.21 18.8498 195.35 19.7198C194.47 20.6098 194.01 21.8098 194.03 23.0898L194.14 28.4898C194.17 30.0198 194.97 31.4198 196.25 32.2198C195.08 37.9198 192.7 50.2698 192.83 56.4898C192.88 58.9298 192.94 65.7098 193 73.7498C192.28 72.4598 190.8 71.6498 188.56 71.3198C187.42 71.1498 185.83 71.0198 183.69 70.9098C182.51 70.8498 181.29 70.8198 180.07 70.8198C179.57 70.8198 179.08 70.8198 178.58 70.8398L167.94 71.0498C166.93 68.5198 165.17 66.0398 162.12 65.8698C162.05 65.8698 161.97 65.8698 161.9 65.8698C161.77 65.8698 161.65 65.8698 161.52 65.8898C158.49 66.1798 156.82 68.7398 155.92 71.2998L145.28 71.5098C143.53 71.5398 141.82 71.6398 140.17 71.7898C138.03 71.9898 136.45 72.1898 135.32 72.3998C132.17 72.9898 130.57 74.4898 130.56 76.8698C130.56 78.4798 131.32 80.5698 135.02 81.3298C136 81.5298 137.37 81.7198 139.2 81.9098C141.38 82.1298 143.62 82.2598 145.86 82.2798L150.13 82.3198C150.02 82.8098 149.95 83.3198 149.94 83.8498L149.63 86.0898C149.19 89.2498 149 92.4798 149.06 95.6698L149.43 114.21L8.32018 128.51C8.32018 128.51 8.23018 128.51 8.19018 128.53C5.11018 128.95 -0.559821 132.19 0.0401793 141.5L1.03018 154.57C1.22018 157.15 3.32018 159.2 5.91018 159.33L81.5502 163.17C82.6902 164.46 83.9802 164.79 85.0102 164.79C85.8102 164.79 87.0302 164.58 88.1402 163.51L121.68 165.21C122.48 166.44 123.74 167.57 125.71 167.57C127.23 167.57 128.48 166.91 129.44 165.6L154.51 166.87C154.74 167.37 155.07 167.88 155.52 168.36C156.63 169.54 158.21 170.2 159.98 170.2H160.13L162.92 170.14C163.05 170.15 163.2 170.16 163.35 170.16C165.12 170.16 166.94 169.34 168.06 167.56L188.9 168.62C191.68 171.09 192.98 173.33 193 174.37L193.91 220.13C193.91 220.13 193.91 220.19 193.91 220.21C193.94 220.87 194.59 235.94 198.62 253.99C185.41 256.8 147.38 265.11 146.97 265.2C146.9 265.22 146.82 265.23 146.75 265.25C144.1 265.98 139.13 269.08 139.26 275.52C139.34 279.62 139.83 285.02 140.03 287.16C140.26 289.55 142.08 291.44 144.45 291.77L210.44 300.85C210.62 301.39 210.83 301.97 211.05 302.56C212.02 305.16 213.49 309.09 217.09 309.09H217.1C220.71 309.09 222.17 305.15 223.14 302.55C223.36 301.96 223.56 301.38 223.74 300.84L289.72 291.63C292.1 291.3 293.91 289.4 294.14 287.01C294.34 284.87 294.82 279.47 294.89 275.37C295.01 268.93 290.03 265.84 287.38 265.11C287.31 265.09 287.24 265.07 287.16 265.06C286.74 264.97 248.7 256.74 235.48 253.95C239.48 235.89 240.1 220.83 240.13 220.16C240.13 220.13 240.13 220.1 240.13 220.08L240.96 174.32C240.98 173.27 242.27 171.03 245.05 168.56L265.89 167.46C267.02 169.23 268.83 170.05 270.6 170.05C270.76 170.05 270.9 170.05 271.04 170.03L273.84 170.08H273.98C275.75 170.08 277.34 169.43 278.45 168.24C278.9 167.76 279.22 167.25 279.46 166.74L304.52 165.42C305.48 166.73 306.72 167.38 308.24 167.38C310.22 167.38 311.48 166.24 312.28 165.01L345.82 163.24C346.93 164.3 348.15 164.52 348.94 164.52C349.97 164.52 351.27 164.19 352.4 162.9L428.03 158.92C430.62 158.78 432.71 156.73 432.9 154.15L433.86 141.12C434.45 131.77 428.77 128.54 425.69 128.13C425.65 128.13 425.6 128.12 425.56 128.11L284.47 114.06L284.8 95.5198C284.86 92.3298 284.66 89.0998 284.21 85.9398L283.89 83.6998C283.88 83.1798 283.81 82.6698 283.7 82.1698L287.97 82.1198C290.21 82.0898 292.45 81.9598 294.63 81.7398C296.46 81.5498 297.83 81.3598 298.81 81.1498C302.51 80.3798 303.27 78.2998 303.26 76.6898C303.24 74.3098 301.64 72.8098 298.49 72.2298C297.36 72.0198 295.77 71.8298 293.64 71.6298C292 71.4798 290.28 71.3898 288.53 71.3598L277.89 71.1698C276.98 68.6098 275.31 66.0598 272.28 65.7698C272.16 65.7598 272.03 65.7498 271.91 65.7498C271.83 65.7498 271.76 65.7498 271.68 65.7498C268.64 65.9198 266.88 68.4198 265.87 70.9398L255.23 70.7498C254.78 70.7498 254.33 70.7398 253.87 70.7398C252.6 70.7398 251.33 70.7698 250.11 70.8398C247.97 70.9598 246.37 71.0998 245.24 71.2598C243 71.5898 241.51 72.4098 240.8 73.6998C240.84 65.6498 240.89 58.8798 240.94 56.4398C241.05 50.2198 238.66 37.8698 237.47 32.1798C238.75 31.3698 239.54 29.9698 239.57 28.4398L239.67 23.0398C239.69 21.7598 239.22 20.5598 238.35 19.6698C237.49 18.7998 236.3 18.2998 235.07 18.2998C234.25 18.2998 233.48 18.5098 232.82 18.8798C228.01 7.55983 222.89 3.25982 220 1.63982C219.03 1.09982 217.94 0.819824 216.84 0.819824L216.83 0.839824ZM240.64 109.71C240.66 103.58 240.71 89.8298 240.78 77.7198C241.33 78.7298 242.46 79.6698 244.59 80.1898C245.56 80.4298 246.92 80.6698 248.75 80.9298C250.92 81.2398 253.15 81.4498 255.39 81.5498L261.74 81.8498C261.62 82.2998 261.54 82.7698 261.51 83.2498L261.21 84.7198C260.48 88.3098 260.08 91.9898 260.01 95.6598L259.72 111.61L240.64 109.71ZM172.06 81.9298L178.41 81.6198C180.65 81.5098 182.88 81.2998 185.05 80.9798C186.87 80.7198 188.23 80.4698 189.21 80.2298C191.35 79.6998 192.47 78.7598 193.02 77.7498C193.1 89.8598 193.18 103.61 193.22 109.74L174.14 111.68L173.82 95.7298C173.75 92.0598 173.34 88.3798 172.6 84.7898L172.3 83.3198C172.26 82.8398 172.19 82.3698 172.07 81.9198L172.06 81.9298Z" fill="black"/>
</g>
<defs>
<clipPath id="clip0_123_15">
<rect width="433.9" height="308.25" fill="white" transform="translate(0 0.839844)"/>
</clipPath>
</defs>
</svg>
