<svg width="276" height="279" viewBox="0 0 276 279" fill="none" xmlns="http://www.w3.org/2000/svg">
<g clip-path="url(#clip0_242_24)">
<path d="M137.95 277.1C136.82 277.1 136.07 276.43 135.61 275.65C135.48 275.71 135.34 275.74 135.2 275.74C135.18 275.74 135.16 275.74 135.14 275.74C133.85 275.67 103.49 273.92 102.31 273.83C101.52 273.77 101.08 273.39 100.85 273.07C100.39 272.45 100.43 271.7 100.48 271.38V266.01C100.48 261.76 103.63 260.06 105.3 259.76L132.52 254.02L125.81 211.5C123.6 197.51 122.48 183.23 122.48 169.07V143.23H87.3701C86.5301 143.19 8.57013 138.96 5.37013 138.96C3.99013 138.96 2.97013 138.57 2.33013 137.79C1.64013 136.94 1.69013 135.96 1.73013 135.61V131.59C1.73013 128.47 3.20013 127.09 4.46013 126.62V124.6C4.46013 121.83 6.28013 120.84 7.99013 120.84C8.20013 120.84 8.37013 120.85 8.49013 120.87C16.9101 120.2 82.1301 115.03 91.5601 114.37C90.5901 105.49 91.5301 100.2 92.1501 97.87C77.2501 97.76 77.2501 96.91 77.2501 95.85C77.2501 94.71 77.2501 93.95 92.9901 93.94C93.5801 91.9 94.8501 88.61 96.9101 88.61C98.9701 88.61 99.9301 91.78 100.31 93.82C115.36 93.91 115.36 94.81 115.36 95.85C115.36 96.89 115.36 97.65 103.86 97.65C102.46 97.65 101.5 97.64 101.5 97.64C101.5 97.64 101.47 97.64 101.39 97.66C103.23 104.04 103 111.53 102.83 114.3H122.93V28.79C122.93 19.91 127.6 10.74 129.6 7.21C132.88 1.45 136.66 1 137.74 1C137.83 1 137.9 1 137.95 1C138 1 138.07 1 138.16 1C139.24 1 143.03 1.45 146.3 7.21C148.31 10.74 152.97 19.9 152.97 28.79V114.31H173.07C172.9 111.54 172.67 104.06 174.51 97.67C174.43 97.65 174.37 97.65 174.36 97.65C174.35 97.65 173.4 97.66 172.04 97.66C160.54 97.66 160.54 96.94 160.54 95.86C160.54 94.78 160.54 93.93 175.59 93.83C175.97 91.79 176.89 88.62 178.99 88.62C181.09 88.62 182.32 91.91 182.91 93.95C198.65 93.95 198.65 94.71 198.65 95.86C198.65 96.93 198.65 97.78 183.75 97.88C184.37 100.2 185.31 105.5 184.34 114.38C193.77 115.04 258.99 120.21 267.41 120.88C267.52 120.87 267.7 120.85 267.91 120.85C269.62 120.85 271.44 121.84 271.44 124.61V126.63C272.69 127.1 274.17 128.48 274.17 131.6V135.62C274.22 135.97 274.26 136.95 273.57 137.8C272.94 138.57 271.91 138.97 270.53 138.97C267.32 138.97 189.37 143.2 188.58 143.24H153.42V169.08C153.42 183.24 152.3 197.51 150.09 211.51L143.38 254.03L170.62 259.77C172.26 260.07 175.41 261.77 175.41 266.02V271.39C175.46 271.71 175.5 272.46 175.04 273.08C174.81 273.39 174.37 273.78 173.58 273.84C172.4 273.93 142.04 275.67 140.75 275.75C140.73 275.75 140.71 275.75 140.69 275.75C140.55 275.75 140.41 275.72 140.28 275.66C139.82 276.45 139.07 277.11 137.94 277.11L137.95 277.1Z" fill="white"/>
<path d="M138.16 2C139.02 2 142.4 2.36 145.43 7.7C148.939 13.88 151.97 21.88 151.97 28.78V115.3H174.14C174.14 115.3 173.17 105 175.72 97.12C174.99 96.64 174.39 96.64 174.39 96.64C174.39 96.64 173.44 96.65 172.05 96.65C168.34 96.65 161.55 96.55 161.55 95.85C161.55 94.88 176.45 94.82 176.45 94.82C176.45 94.82 177.18 89.61 178.99 89.61C180.799 89.61 182.14 94.94 182.14 94.94C182.14 94.94 182.33 94.94 182.67 94.94C185.39 94.94 197.65 94.99 197.65 95.85C197.65 96.82 182.38 96.88 182.38 96.88C182.38 96.88 184.8 102.45 183.23 115.3C184.56 115.3 267.44 121.87 267.44 121.87C267.44 121.87 267.63 121.84 267.91 121.84C268.75 121.84 270.44 122.15 270.44 124.6V127.42C270.44 127.42 273.17 127.51 273.17 131.6V135.69C273.17 135.69 273.62 137.96 270.53 137.96C267.26 137.96 188.53 142.23 188.53 142.23H152.42V169.07C152.42 183.23 151.31 197.36 149.1 211.34L142.24 254.8L170.41 260.74C170.41 260.74 174.41 261.47 174.41 266.01V271.46C174.41 271.46 174.68 272.73 173.5 272.82C172.32 272.91 140.69 274.73 140.69 274.73L139.87 273.82C139.87 273.82 139.54 276.09 137.93 276.09C136.32 276.09 135.99 273.82 135.99 273.82L135.17 274.73C135.17 274.73 103.54 272.91 102.36 272.82C101.18 272.73 101.45 271.46 101.45 271.46V266.01C101.45 261.47 105.45 260.74 105.45 260.74L133.62 254.8L126.76 211.34C124.55 197.36 123.44 183.22 123.44 169.07V142.23H87.3295C87.3295 142.23 8.59951 137.96 5.32951 137.96C2.23951 137.96 2.68951 135.69 2.68951 135.69V131.6C2.68951 127.51 5.41951 127.42 5.41951 127.42V124.6C5.41951 122.15 7.10951 121.84 7.94951 121.84C8.22951 121.84 8.41951 121.87 8.41951 121.87C8.41951 121.87 91.2995 115.3 92.6295 115.3C91.0495 102.46 93.4795 96.88 93.4795 96.88C93.4795 96.88 78.2095 96.82 78.2095 95.85C78.2095 94.99 90.4695 94.94 93.1895 94.94C93.5295 94.94 93.7195 94.94 93.7195 94.94C93.7195 94.94 95.0495 89.61 96.8695 89.61C98.6895 89.61 99.4095 94.82 99.4095 94.82C99.4095 94.82 114.31 94.88 114.31 95.85C114.31 96.56 107.52 96.65 103.81 96.65C102.42 96.65 101.47 96.64 101.47 96.64C101.47 96.64 100.86 96.64 100.14 97.12C102.68 105 101.72 115.3 101.72 115.3H123.89V28.79C123.89 21.88 126.92 13.89 130.43 7.71C133.469 2.37 136.84 2.01 137.7 2.01C137.83 2.01 137.91 2.01 137.91 2.01C137.91 2.01 137.98 2.01 138.12 2.01M138.16 0C138.08 0 138.01 0 137.95 0C137.89 0 137.82 0 137.74 0C136.52 0 132.27 0.48 128.73 6.72C126.68 10.32 121.93 19.67 121.93 28.79V113.31H103.88C104.01 110.17 104.02 104.17 102.68 98.66C103.02 98.66 103.41 98.66 103.85 98.66C105.71 98.66 108.38 98.64 110.59 98.52C113.55 98.37 116.35 98.22 116.35 95.86C116.35 93.72 113.96 93.48 112.22 93.3C110.94 93.17 109.17 93.06 106.97 92.98C104.78 92.9 102.57 92.86 101.12 92.84C100.56 90.4 99.3795 87.61 96.9095 87.61C94.4395 87.61 93.0495 90.49 92.2495 92.94C90.4595 92.94 87.4495 92.97 84.6495 93.07C82.6795 93.14 81.1195 93.23 79.9995 93.35C78.5995 93.5 76.2495 93.75 76.2495 95.84C76.2495 98.25 78.7095 98.46 85.8095 98.72C87.6295 98.79 89.4695 98.82 90.8895 98.84C90.3195 101.55 89.7695 106.32 90.4495 113.43C78.4195 114.31 21.3995 118.82 8.48951 119.85C8.34951 119.84 8.17951 119.83 7.97951 119.83C7.24951 119.83 6.17951 119.98 5.21951 120.67C4.40951 121.26 3.44951 122.42 3.44951 124.59V125.98C2.06951 126.75 0.719513 128.42 0.719513 131.59V135.54C0.659513 136.1 0.649513 137.33 1.54951 138.41C2.11951 139.11 3.24951 139.94 5.35951 139.94C7.89951 139.94 60.0395 142.73 87.2495 144.21C87.2895 144.21 87.3195 144.21 87.3595 144.21H121.47V169.05C121.47 183.27 122.59 197.59 124.81 211.63L131.38 253.21L105.09 258.75C103.13 259.12 99.4795 261.09 99.4795 265.98V271.28C99.4095 271.8 99.4095 272.77 100.05 273.64C100.55 274.31 101.33 274.72 102.23 274.79C103.42 274.88 133.78 276.63 135.08 276.7C135.11 276.7 135.13 276.7 135.16 276.7C135.82 277.51 136.76 278.06 137.95 278.06C139.14 278.06 140.079 277.5 140.74 276.7C140.77 276.7 140.79 276.7 140.82 276.7C142.109 276.63 172.48 274.88 173.67 274.79C174.57 274.72 175.35 274.31 175.85 273.64C176.49 272.78 176.49 271.8 176.42 271.28V265.98C176.42 261.09 172.77 259.12 170.81 258.75L144.52 253.21L151.09 211.63C153.31 197.59 154.43 183.26 154.43 169.05V144.21H188.54C188.54 144.21 188.61 144.21 188.65 144.21C215.859 142.73 268 139.94 270.54 139.94C272.65 139.94 273.78 139.11 274.35 138.41C275.24 137.32 275.24 136.09 275.18 135.54V131.59C275.18 128.42 273.83 126.76 272.45 125.98V124.59C272.45 121.3 270.17 119.83 267.92 119.83C267.72 119.83 267.55 119.84 267.41 119.85C254.5 118.83 197.49 114.31 185.45 113.43C186.13 106.32 185.58 101.55 185.01 98.84C186.43 98.82 188.27 98.78 190.09 98.72C197.2 98.47 199.65 98.26 199.65 95.84C199.65 93.74 197.299 93.49 195.9 93.35C194.78 93.23 193.22 93.14 191.25 93.07C188.45 92.97 185.43 92.95 183.65 92.94C182.85 90.49 181.4 87.61 178.99 87.61C176.579 87.61 175.33 90.4 174.78 92.84C173.33 92.86 171.12 92.9 168.93 92.98C166.719 93.06 164.96 93.17 163.68 93.3C161.939 93.48 159.55 93.72 159.55 95.86C159.55 98.22 162.35 98.37 165.31 98.52C167.52 98.63 170.2 98.66 172.05 98.66C172.49 98.66 172.88 98.66 173.22 98.66C171.88 104.17 171.89 110.17 172.02 113.31H153.97V28.79C153.97 19.67 149.21 10.32 147.17 6.72C143.63 0.49 139.38 0 138.16 0Z" fill="black"/>
</g>
<defs>
<clipPath id="clip0_242_24">
<rect width="274.5" height="278.1" fill="white" transform="translate(0.700195)"/>
</clipPath>
</defs>
</svg>
