<svg width="51" height="113" viewBox="0 0 51 113" fill="none" xmlns="http://www.w3.org/2000/svg">
<g clip-path="url(#clip0_341_2)">
<path d="M22.0604 111.135C21.7704 111.135 20.8104 111.005 20.8104 109.265V103.685C19.4204 103.295 18.2604 102.825 18.3004 101.765C18.3404 100.765 19.4004 100.345 20.8104 100.035V94.695C20.8104 93.095 21.5604 92.865 22.0004 92.865C22.3504 92.865 22.8704 93.005 23.0904 93.815C23.1704 93.855 23.2504 93.915 23.3104 93.975C23.2104 90.715 23.1804 87.765 23.1804 86.385H17.0504C16.2604 86.385 15.6204 85.745 15.6204 84.955V80.665C15.6204 79.875 16.2604 79.235 17.0504 79.235H22.9904L22.6404 65.875C22.6404 63.875 22.1904 61.795 21.8204 60.115C21.7004 59.575 21.5904 59.065 21.5104 58.615C21.3304 57.665 21.0104 56.725 20.5604 55.815C20.3604 55.415 20.1804 54.975 20.0104 54.465L6.70041 78.025C6.45041 78.465 5.98041 78.735 5.48041 78.735C5.22041 78.735 4.97041 78.665 4.75041 78.535L2.06041 76.915C1.40041 76.515 1.18041 75.685 1.57041 75.015L14.7804 51.885C14.4004 51.455 14.1504 50.785 14.1504 49.835V21.565C14.1504 18.545 15.3804 18.215 15.9104 18.215C16.2904 18.215 17.0204 18.385 17.4104 19.585C17.8904 17.255 19.1004 15.205 20.9804 13.555C22.1904 12.495 23.7404 11.915 25.3504 11.915C26.9604 11.915 28.5104 12.495 29.7204 13.555C31.6004 15.205 32.8104 17.265 33.2904 19.595C33.6804 18.395 34.4104 18.225 34.7904 18.225C34.9704 18.225 35.2604 18.265 35.5504 18.475L44.5104 2.57499C44.7604 2.13499 45.2304 1.86499 45.7304 1.86499C45.9904 1.86499 46.2404 1.93499 46.4604 2.06499L49.1504 3.68499C49.8104 4.08499 50.0304 4.91499 49.6504 5.58499L36.5304 28.565V49.835C36.5304 51.635 35.5804 52.455 34.6904 52.455C33.8004 52.455 32.8504 51.635 32.8504 49.835V48.075C32.5804 48.145 32.2904 48.205 31.9804 48.235C31.9004 48.605 31.8204 49.135 31.7404 49.595C31.4404 51.435 31.0304 53.965 30.0904 55.825C29.6604 56.695 29.3304 57.685 29.1204 58.785C28.7704 60.585 28.3504 63.275 28.3504 65.835V79.215H34.3104C35.1004 79.215 35.7404 79.855 35.7404 80.645V84.935C35.7404 85.725 35.1004 86.365 34.3104 86.365H28.1804V97.035C29.2404 97.275 29.3404 98.045 29.3404 98.315C29.3404 98.835 29.3704 100.965 29.3904 102.485C29.4104 103.685 29.3104 104.875 29.1004 106.035C28.6804 108.395 28.5604 109.105 27.5904 109.105C26.9904 109.105 26.6904 108.945 26.5204 108.025C26.3504 108.145 26.1404 108.215 25.8904 108.215C25.6804 108.215 25.2904 108.155 24.9604 107.745C24.6204 107.315 24.2404 106.475 23.9104 103.695C23.8904 103.975 23.8004 104.275 23.6004 104.535C23.5404 104.615 23.4404 104.725 23.3004 104.825V109.245C23.3004 110.975 22.3404 111.115 22.0504 111.115L22.0604 111.135Z" fill="white"/>
<path d="M45.7302 2.86495C45.8002 2.86495 45.8702 2.88495 45.9402 2.92495L48.6302 4.54495C48.8202 4.65495 48.8802 4.90495 48.7702 5.09495L35.5202 28.305V49.845C35.5202 50.925 35.1002 51.465 34.6802 51.465C34.2602 51.465 33.8402 50.925 33.8402 49.845V46.655C33.8402 46.655 32.6402 47.285 31.4102 47.285C31.3602 47.285 31.3102 47.285 31.2602 47.285C30.7902 47.755 30.6202 52.555 29.2002 55.395C28.6902 56.415 28.3502 57.505 28.1402 58.615C27.7802 60.475 27.3502 63.2249 27.3502 65.8549V80.0649C27.3502 80.1649 27.4302 80.235 27.5202 80.235H34.3102C34.5502 80.235 34.7402 80.425 34.7402 80.665V84.9549C34.7402 85.1949 34.5502 85.3849 34.3102 85.3849H27.3602C27.2602 85.3849 27.1902 85.465 27.1902 85.555V97.9949C27.1902 97.9949 27.3202 97.985 27.4902 97.985C27.8302 97.985 28.3502 98.035 28.3502 98.335C28.3502 98.8549 28.3802 100.995 28.4002 102.515C28.4102 103.645 28.3302 104.765 28.1302 105.885C27.9402 106.955 27.7102 108.125 27.6102 108.125C27.4202 108.125 27.2602 103.555 27.2602 103.555L26.4202 104.395V106.015C26.4202 106.015 26.2202 107.225 25.9102 107.225C25.8602 107.225 25.8202 107.195 25.7702 107.135C25.3202 106.565 25.0002 104.585 24.7702 102.035C24.4902 102.225 23.9102 102.495 22.9202 102.495V103.415C22.9202 103.415 23.1202 104.145 22.3302 104.145V109.265C22.3302 109.845 22.2002 110.135 22.0802 110.135C21.9602 110.135 21.8302 109.845 21.8302 109.265V102.925C19.4002 102.285 17.6602 101.635 21.8302 100.855V94.695C21.8302 94.135 21.9302 93.865 22.0202 93.865C22.1102 93.865 22.2102 94.145 22.2102 94.695H22.6402V100.295C22.6402 100.295 22.6402 100.295 22.6602 100.295C22.7302 100.295 23.0202 100.355 23.0202 101.225C23.0202 101.325 24.0402 101.145 24.7402 101.635C24.1902 95.1949 24.2002 85.555 24.2002 85.555C24.2002 85.455 24.1202 85.3849 24.0302 85.3849H17.0802C16.8402 85.3849 16.6502 85.1949 16.6502 84.9549V80.665C16.6502 80.425 16.8402 80.235 17.0802 80.235H23.8702C23.9702 80.235 24.0402 80.1549 24.0402 80.0649L23.6702 65.8549C23.6702 63.1349 22.8802 60.305 22.5302 58.445C22.3302 57.385 21.9802 56.355 21.4902 55.385C20.9802 54.365 20.6302 53.095 20.3802 51.865L5.86024 77.555C5.79024 77.685 5.65024 77.765 5.51024 77.765C5.44024 77.765 5.37024 77.7449 5.30024 77.7049L2.61024 76.085C2.42024 75.975 2.36024 75.725 2.47024 75.535L16.2402 51.425C16.1702 51.455 16.0902 51.475 16.0202 51.475C15.6002 51.475 15.1802 50.935 15.1802 49.855V21.585C15.1802 20.015 15.5602 19.235 15.9402 19.235C16.3202 19.235 16.7002 20.015 16.7002 21.585V29.535H18.2102V21.945C18.2102 18.295 19.9202 15.865 21.6802 14.325C22.7402 13.395 24.0602 12.925 25.3902 12.925C26.7202 12.925 28.0302 13.395 29.1002 14.325C30.8502 15.865 32.5702 18.295 32.5702 21.945V25.875L34.0802 23.205V21.595C34.0802 20.025 34.4602 19.245 34.8302 19.245C35.1202 19.245 35.4102 19.705 35.5302 20.635L45.3802 3.07495C45.4502 2.94495 45.5902 2.86495 45.7302 2.86495ZM32.0002 45.705H33.5702V31.765H33.5502L33.4702 31.905C33.4702 31.905 33.2202 32.335 32.3402 33.215V41.055C32.3402 41.055 32.4502 43.515 32.0002 45.705ZM17.1002 45.705H18.6702C18.2202 43.525 18.3302 41.055 18.3302 41.055V31.765H17.1002V45.705ZM16.7702 50.405L17.7402 48.705C17.7402 48.705 18.0102 48.235 19.0002 47.265C17.8602 47.195 16.8202 46.645 16.8202 46.645V49.835C16.8202 50.045 16.8002 50.225 16.7702 50.395M45.7302 0.864951C44.8602 0.864951 44.0602 1.33495 43.6402 2.08495L35.0702 17.245C34.9502 17.225 34.8402 17.225 34.7702 17.225C34.5702 17.225 34.1502 17.255 33.6902 17.495C33.0002 15.725 31.8802 14.145 30.3502 12.805C28.9602 11.585 27.1702 10.915 25.3302 10.915C23.4902 10.915 21.7002 11.585 20.3102 12.805C18.7802 14.145 17.6602 15.725 16.9702 17.495C16.5302 17.265 16.1202 17.225 15.8902 17.225C15.2402 17.225 13.1302 17.535 13.1302 21.575V49.845C13.1302 50.695 13.3002 51.395 13.5902 51.935L0.690236 74.525C0.0402361 75.665 0.410236 77.095 1.54024 77.775L4.23024 79.395C4.60024 79.625 5.03024 79.7449 5.47024 79.7449C6.34024 79.7449 7.14024 79.275 7.56024 78.525L19.8802 56.725C20.1802 57.405 20.3902 58.095 20.5202 58.795C20.6002 59.255 20.7202 59.765 20.8402 60.315C21.1902 61.945 21.6302 63.975 21.6302 65.835C21.6302 65.8549 21.6302 65.865 21.6302 65.8849L21.9502 78.215H17.0402C15.7002 78.215 14.6102 79.305 14.6102 80.645V84.935C14.6102 86.2749 15.7002 87.365 17.0402 87.365H22.1802C22.1802 88.505 22.2102 90.075 22.2502 91.8549C22.1402 91.8449 22.0502 91.835 22.0002 91.835C21.6302 91.835 19.8102 91.975 19.8102 94.665V99.225C18.5402 99.595 17.3502 100.255 17.3002 101.705C17.2402 103.215 18.4502 103.935 19.8102 104.405V109.245C19.8102 112.035 21.8302 112.115 22.0602 112.115C22.2902 112.115 24.3102 112.035 24.3102 109.245V108.505C24.7302 108.955 25.3002 109.205 25.9002 109.205C25.9102 109.205 25.9302 109.205 25.9402 109.205C26.3002 109.795 26.8502 110.095 27.5802 110.105C29.4002 110.105 29.6602 108.635 30.0802 106.205C30.3002 104.985 30.4002 103.725 30.3802 102.465C30.3602 100.945 30.3302 98.825 30.3302 98.305C30.3302 97.715 30.0502 96.845 29.1802 96.345V87.3549H34.3102C35.6502 87.3549 36.7402 86.2649 36.7402 84.9249V80.6349C36.7402 79.295 35.6502 78.2049 34.3102 78.2049H29.3502V65.8149C29.3502 63.3349 29.7602 60.715 30.1002 58.955C30.3002 57.945 30.6002 57.035 30.9902 56.245C31.6402 54.955 32.0402 53.405 32.3302 51.955C32.8802 52.955 33.8002 53.425 34.6802 53.425C36.0502 53.425 37.5202 52.295 37.5202 49.805V28.795L50.5102 6.04495C51.1602 4.90495 50.7902 3.47495 49.6602 2.79495L46.9702 1.17495C46.5902 0.944951 46.1702 0.824951 45.7302 0.824951V0.864951Z" fill="#231F20"/>
</g>
<defs>
<clipPath id="clip0_341_2">
<rect width="50.46" height="111.27" fill="white" transform="translate(0.370117 0.86499)"/>
</clipPath>
</defs>
</svg>
