<svg width="294" height="409" viewBox="0 0 294 409" fill="none" xmlns="http://www.w3.org/2000/svg">
<g clip-path="url(#clip0_82_54)">
<path d="M147.84 398.62C151.05 398.56 152.27 394.8 152.27 394.8L153.05 385.55C153.05 385.55 200.62 403.33 205.74 405.25C210.86 407.17 210.01 404.51 210.01 404.51C210.01 404.51 210.35 403.52 208.84 393.55C207.33 383.58 203.75 383.11 203.75 383.11C203.75 383.11 169.74 352.19 160.68 344.05C162.04 324.66 166.19 304.44 166.79 300.95C166.27 305.44 167.25 307.97 167.25 307.97L178.76 307.77L178.61 299.2C179.89 303.4 181.4 299.15 181.4 299.15L181.55 307.89L193.06 307.69L193.03 305.82C195.68 291.39 193.5 273.62 193.5 273.62C193.5 273.62 280.36 330.38 282.72 331.69C285.07 333 285.86 331.56 285.86 331.56C285.86 331.56 287.96 327.48 290.98 320.16C293.27 313.07 288.91 309.85 288.91 309.85L198.57 215.51L198.44 208.19C198.3 199.98 188.9 195.77 188.9 195.77C188.9 195.77 181.32 180.91 170.27 151.11C160.94 107.18 155.79 62.3098 155.79 62.3098L155.23 49.9698C155.23 49.9698 159.39 53.9098 160.37 54.6698C161.24 55.3398 161.24 54.3798 161.24 54.3798L161.22 52.9898C161.22 52.4798 161.07 51.9798 160.8 51.5498C159.38 49.2698 154.68 40.0198 153.9 38.9798C153.81 35.8398 153.48 30.9098 153.48 30.9098C153.48 30.9098 154.36 28.7298 154.19 28.3898C154.06 28.2598 152.9 29.2398 152.9 29.2398C151.33 12.3798 146.36 4.3198 144.86 2.2198C144.65 1.9198 144.21 1.9298 144 2.2198C142.53 4.3398 137.71 12.4898 136.43 29.3798C136.43 29.3798 135.25 28.4298 135.12 28.5498C134.96 28.8998 135.88 31.0598 135.88 31.0598C135.88 31.0598 135.63 35.9898 135.6 39.1398C134.84 40.1898 130.3 49.5198 128.92 51.8198C128.66 52.2598 128.52 52.7598 128.52 53.2698V54.6598C128.52 54.6598 128.54 55.6098 129.39 54.9298C130.35 54.1598 134.44 50.1398 134.44 50.1398L134.09 62.4898C134.09 62.4898 129.72 107.44 121.15 151.53C110.62 181.51 103.3 196.51 103.3 196.51C103.3 196.51 93.9695 200.88 93.9695 209.09V216.41L5.26954 312.31C5.26954 312.31 0.95954 315.61 3.36954 322.66C6.51954 329.93 8.67954 333.97 8.67954 333.97C8.67954 333.97 9.48954 335.39 11.8295 334.04C14.1695 332.69 100.03 274.43 100.03 274.43C100.03 274.43 98.1595 292.23 101.06 306.61V308.48H112.57V299.73C112.57 299.73 114.15 303.95 115.36 299.73V308.3H126.87C126.87 308.3 127.81 305.76 127.2 301.27C127.87 304.75 132.36 324.89 134.06 344.26C125.14 352.56 91.6695 384.06 91.6695 384.06C91.6695 384.06 88.0995 384.6 86.7595 394.59C85.4195 404.58 85.7795 405.57 85.7795 405.57C85.7795 405.57 84.9795 408.25 90.0595 406.24C95.1395 404.23 142.4 385.63 142.4 385.63L143.34 394.87C143.34 394.87 144.63 398.62 147.84 398.62Z" fill="white"/>
<path d="M144.419 2C144.579 2 144.739 2.07 144.849 2.22C146.349 4.32 151.319 12.38 152.889 29.24C152.889 29.24 153.909 28.38 154.149 28.38C154.169 28.38 154.179 28.38 154.179 28.39C154.339 28.73 153.469 30.91 153.469 30.91C153.469 30.91 153.799 35.84 153.889 38.98C154.669 40.01 159.369 49.26 160.789 51.55C161.059 51.98 161.209 52.48 161.209 52.99L161.229 54.38C161.229 54.38 161.229 54.9 160.879 54.9C160.759 54.9 160.589 54.84 160.369 54.66C159.389 53.91 155.229 49.96 155.229 49.96L155.789 62.3C155.789 62.3 160.939 107.17 170.269 151.1C181.319 180.9 188.899 195.76 188.899 195.76C188.899 195.76 198.299 199.97 198.439 208.18C198.519 212.91 198.569 215.5 198.569 215.5L288.909 309.84C288.909 309.84 293.269 313.07 290.979 320.15C287.959 327.47 285.859 331.55 285.859 331.55C285.859 331.55 285.489 332.22 284.489 332.22C284.039 332.22 283.449 332.08 282.709 331.67C280.359 330.36 193.489 273.6 193.489 273.6C193.489 273.6 195.669 291.37 193.019 305.8L193.049 307.67L181.539 307.87L181.389 299.13C181.389 299.13 180.709 301.03 179.879 301.03C179.469 301.03 179.019 300.57 178.599 299.18L178.749 307.75L167.239 307.95C167.239 307.95 166.259 305.42 166.779 300.93C166.169 304.42 162.029 324.64 160.669 344.03C169.739 352.17 203.739 383.09 203.739 383.09C203.739 383.09 207.319 383.56 208.829 393.53C210.339 403.5 209.999 404.49 209.999 404.49C209.999 404.49 210.459 405.93 208.669 405.93C208.019 405.93 207.089 405.74 205.729 405.23C200.609 403.31 153.039 385.53 153.039 385.53L152.259 394.78C152.259 394.78 151.039 398.55 147.829 398.6C144.619 398.6 143.329 394.85 143.329 394.85L142.389 385.61C142.389 385.61 95.1395 404.22 90.0494 406.22C88.6594 406.77 87.7094 406.97 87.0694 406.97C85.3494 406.97 85.7694 405.55 85.7694 405.55C85.7694 405.55 85.4094 404.57 86.7494 394.57C88.0894 384.57 91.6594 384.04 91.6594 384.04C91.6594 384.04 125.129 352.54 134.049 344.24C132.349 324.87 127.859 304.73 127.189 301.25C127.789 305.73 126.859 308.28 126.859 308.28H115.349V299.71C114.949 301.12 114.499 301.58 114.089 301.58C113.259 301.58 112.559 299.71 112.559 299.71V308.46H101.049V306.59C98.1494 292.21 100.019 274.41 100.019 274.41C100.019 274.41 14.1594 332.67 11.8194 334.01C11.0694 334.44 10.4794 334.59 10.0194 334.59C9.04944 334.59 8.67944 333.94 8.67944 333.94C8.67944 333.94 6.50944 329.89 3.36944 322.63C0.959445 315.58 5.26944 312.28 5.26944 312.28L93.9594 216.39V209.07C93.9594 200.86 103.289 196.49 103.289 196.49C103.289 196.49 110.609 181.5 121.139 151.51C129.709 107.43 134.079 62.47 134.079 62.47L134.429 50.12C134.429 50.12 130.339 54.14 129.379 54.91C129.159 55.09 128.989 55.15 128.869 55.15C128.519 55.15 128.509 54.63 128.509 54.63V53.24C128.509 52.73 128.649 52.23 128.909 51.79C130.289 49.48 134.829 40.15 135.589 39.11C135.619 35.96 135.869 31.03 135.869 31.03C135.869 31.03 134.959 28.87 135.109 28.52C135.109 28.52 135.129 28.51 135.149 28.51C135.389 28.51 136.419 29.35 136.419 29.35C137.699 12.47 142.519 4.32 143.989 2.19C144.099 2.04 144.259 1.96 144.419 1.96M144.419 0C143.589 0 142.809 0.41 142.339 1.09C140.889 3.18 136.259 10.98 134.649 26.61C134.289 26.7 133.949 26.89 133.689 27.15C133.519 27.32 133.379 27.52 133.279 27.74C132.999 28.35 132.869 29.02 133.839 31.42C133.779 32.63 133.629 35.98 133.589 38.56C133.049 39.48 132.139 41.26 130.569 44.34C129.279 46.87 127.819 49.74 127.179 50.8C126.729 51.55 126.499 52.4 126.499 53.28V54.67C126.529 56.12 127.539 57.19 128.859 57.19C129.459 57.19 130.049 56.96 130.619 56.51C130.949 56.24 131.579 55.67 132.289 55L132.079 62.38C131.879 64.38 127.479 108.37 119.199 151.02C109.999 177.19 103.209 192 101.769 195.05C99.4394 196.31 91.9594 201.01 91.9594 209.1V215.63L3.88944 310.86C2.97944 311.65 -1.11056 315.73 1.48944 323.3C1.50944 323.35 1.52944 323.4 1.54944 323.45C4.68944 330.71 6.84944 334.74 6.93945 334.91C6.93945 334.93 6.95944 334.95 6.96944 334.96C7.40944 335.72 8.47944 336.61 10.0494 336.61C10.9394 336.61 11.8794 336.32 12.8494 335.76C14.9694 334.53 81.4694 289.44 97.7194 278.41C97.3394 284.58 97.0094 296.43 99.0694 306.8V308.48C99.0694 309.58 99.9694 310.48 101.069 310.48H112.579C113.169 310.48 113.699 310.22 114.069 309.82C114.419 310.12 114.879 310.3 115.369 310.3H126.879C126.879 310.3 126.959 310.3 126.999 310.3C128.609 318.5 130.849 331.07 131.989 343.47C122.739 352.09 93.9794 379.16 90.6294 382.31C89.0894 382.96 85.9894 385.37 84.7894 394.33C83.8094 401.66 83.6994 404.38 83.7694 405.48C83.6794 406.17 83.7894 407.02 84.3194 407.74C84.7394 408.31 85.5594 408.98 87.0794 408.98C88.0694 408.98 89.2894 408.69 90.7994 408.09C95.1894 406.36 130.919 392.29 140.679 388.44L141.349 395.05C141.369 395.2 141.399 395.35 141.449 395.5C142.099 397.39 144.179 400.6 147.839 400.6C151.539 400.54 153.559 397.3 154.179 395.39C154.229 395.24 154.259 395.09 154.269 394.94L154.829 388.32C164.659 391.99 200.629 405.44 205.039 407.1C206.519 407.65 207.709 407.92 208.679 407.92C210.239 407.92 211.079 407.23 211.499 406.65C212.039 405.92 212.129 405.05 212.029 404.36C212.079 403.25 211.929 400.54 210.819 393.23C209.469 384.3 206.329 381.94 204.779 381.31C201.369 378.21 172.139 351.64 162.749 343.19C163.679 330.78 165.709 318.17 167.169 309.94C167.199 309.94 167.229 309.94 167.259 309.94C167.269 309.94 167.279 309.94 167.289 309.94L178.799 309.74C179.299 309.74 179.749 309.54 180.089 309.23C180.459 309.62 180.979 309.87 181.549 309.87C181.559 309.87 181.569 309.87 181.589 309.87L193.099 309.67C193.629 309.67 194.139 309.44 194.499 309.06C194.869 308.68 195.069 308.17 195.059 307.64L195.029 305.96C196.909 295.56 196.369 283.71 195.879 277.55C212.329 288.29 279.589 332.23 281.739 333.42C282.699 333.95 283.619 334.22 284.489 334.22C286.099 334.22 287.169 333.3 287.609 332.51C287.609 332.49 287.629 332.48 287.639 332.46C287.729 332.29 289.809 328.22 292.829 320.91C292.849 320.86 292.869 320.81 292.879 320.76C295.339 313.14 291.189 309.14 290.259 308.36L200.549 214.68L200.439 208.15C200.299 200.06 192.729 195.49 190.389 194.27C188.899 191.24 181.849 176.55 172.199 150.55C163.179 108.05 158.019 64.14 157.789 62.15L157.459 54.77C158.179 55.43 158.819 55.99 159.159 56.25C159.719 56.68 160.299 56.9 160.889 56.9C162.229 56.9 163.239 55.81 163.239 54.38L163.219 52.95C163.199 52.08 162.949 51.23 162.489 50.49C161.839 49.44 160.319 46.6 158.989 44.09C157.369 41.04 156.419 39.28 155.869 38.37C155.779 35.79 155.569 32.44 155.489 31.23C156.419 28.81 156.279 28.14 155.989 27.54C155.889 27.32 155.739 27.12 155.569 26.96C155.309 26.71 154.959 26.53 154.599 26.44C152.729 10.85 147.959 3.13 146.469 1.06C145.999 0.4 145.229 0 144.419 0Z" fill="black"/>
</g>
<defs>
<clipPath id="clip0_82_54">
<rect width="293.02" height="409" fill="white" transform="translate(0.639648)"/>
</clipPath>
</defs>
</svg>
