<svg width="82" height="123" viewBox="0 0 82 123" fill="none" xmlns="http://www.w3.org/2000/svg">
<g clip-path="url(#clip0_582_7)">
<path d="M37.3395 121.8C36.4495 121.8 36.0195 120.92 35.8795 120.64C35.6095 120.09 35.4495 119.47 35.4195 118.8L34.4695 100.27C34.4295 99.5599 34.6295 98.8699 35.0195 98.3299C35.0295 98.3099 35.0395 98.2999 35.0595 98.2799H29.4295C28.2895 98.2799 27.6295 97.4999 27.4995 96.7799C27.4895 96.7199 27.4895 96.6699 27.4895 96.6099V96.3899C26.8495 96.0599 26.4195 95.1099 26.3195 93.7399C26.2795 93.2599 26.4195 92.4599 27.6095 92.1899C27.9495 91.3599 28.7295 91.0499 29.2795 91.0499H37.8995V85.2299C36.6495 84.8999 36.1895 83.9699 36.1195 83.4299C36.1195 83.3799 36.1195 83.3399 36.1195 83.2899V79.5899C36.1195 78.7199 36.6495 78.0499 37.5595 77.7399V69.6599C37.5595 67.6899 36.9895 65.8199 35.9095 64.2399C35.6095 63.7999 35.3595 63.5399 35.0395 63.2299C34.0895 62.3199 33.2595 61.2099 32.5695 59.9099C32.1295 59.0899 31.7695 58.2099 31.4795 57.2999L14.9295 73.3499C14.8595 73.8099 14.5795 74.4299 13.7995 75.0999C12.7995 75.9799 9.62949 78.6199 9.62949 78.6199C9.57949 78.6599 9.52949 78.6999 9.46949 78.7299C9.22949 78.8599 8.62949 79.1599 8.08949 79.1799C7.26949 79.8899 5.77949 81.1499 5.47949 81.4099C5.27949 81.6199 4.77949 82.0699 4.07949 82.0699C3.76949 82.0699 3.17949 81.9699 2.67949 81.3199C1.64949 79.9599 2.52949 77.7899 3.53949 76.8199C4.14949 76.2299 21.8995 58.6199 30.7095 49.8899V49.5699H29.3895V49.9099C29.3895 49.9099 29.3895 50.0599 29.3795 50.0999C29.2895 50.8499 28.5995 51.3999 27.7595 51.3999C26.8295 51.3999 26.1295 50.7599 26.1295 49.9199V30.6399C7.02949 11.1699 2.66949 6.73994 2.38949 6.44994C1.39949 5.45994 0.539493 3.27994 1.58949 1.92994C2.08949 1.28994 2.66949 1.18994 2.97949 1.18994C3.68949 1.18994 4.19949 1.64994 4.38949 1.86994C4.68949 2.12994 6.15949 3.40994 6.96949 4.12994C7.50949 4.15994 8.09949 4.46994 8.33949 4.59994C8.39949 4.62994 8.44949 4.66994 8.49949 4.70994C8.49949 4.70994 11.6295 7.39994 12.6195 8.28994C13.3895 8.97994 13.6595 9.59994 13.7295 10.0599L26.1295 22.4199V21.2599C26.1295 19.9399 26.9495 19.2499 27.7695 19.2499C28.5895 19.2499 29.4095 19.9399 29.4095 21.2599V25.6899L30.6695 26.9499V18.5699C30.6695 11.7899 37.0995 9.98994 40.8995 9.98994C44.6995 9.98994 51.1595 11.7999 51.1595 18.5699V26.9599H51.5295L52.4195 26.0999V21.2599C52.4195 19.9399 53.2395 19.2499 54.0595 19.2499C54.8795 19.2499 55.6995 19.9399 55.6995 21.2599V22.9099L66.9795 11.9599C67.0495 11.4999 67.3295 10.8799 68.1095 10.1999C69.1095 9.31994 72.2795 6.67994 72.2795 6.67994C72.3295 6.63994 72.3795 6.59994 72.4395 6.56994C72.6795 6.43994 73.2795 6.12994 73.8195 6.11994C74.6395 5.40994 76.1295 4.14994 76.4195 3.88994C76.6195 3.67994 77.1195 3.22994 77.8195 3.22994C78.1295 3.22994 78.7195 3.32994 79.2195 3.97994C80.2495 5.33994 79.3695 7.50994 78.3595 8.47994C77.7895 9.02994 62.5595 24.1599 55.6995 30.9699V49.8899C55.6995 50.7399 54.9995 51.3699 54.0695 51.3699C53.2295 51.3699 52.5395 50.8199 52.4495 50.0699C52.4495 50.0299 52.4395 49.9299 52.4395 49.8899V49.5499H51.1195V50.1899L52.3895 51.4799C58.8595 58.0799 78.5495 78.1699 79.1995 78.8199C80.1895 79.8099 81.0395 81.9899 79.9895 83.3399C79.4895 83.9799 78.9095 84.0799 78.5995 84.0799C77.8895 84.0799 77.3795 83.6199 77.1895 83.3999C76.8995 83.1399 75.4295 81.8599 74.6195 81.1399C74.0795 81.1099 73.4895 80.7999 73.2495 80.6699C73.1895 80.6399 73.1395 80.5999 73.0895 80.5599C73.0895 80.5599 69.9595 77.8699 68.9695 76.9799C68.1995 76.2899 67.9295 75.6699 67.8695 75.2099L50.9295 58.3099C50.6895 58.0699 50.4795 57.8199 50.2795 57.5499C50.0095 58.3699 49.6695 59.1599 49.2695 59.9099C48.5795 61.1999 47.7495 62.3199 46.7995 63.2299C45.1795 64.7999 44.2895 66.9299 44.2895 69.1499V77.7399C45.1995 78.0499 45.7295 78.7199 45.7295 79.5899V83.2899C45.7295 83.2899 45.7295 83.3799 45.7295 83.4299C45.6495 83.9699 45.1895 84.8999 43.9495 85.2299V91.0499H52.5595C53.1195 91.0499 53.8995 91.3699 54.2395 92.1899C55.4295 92.4599 55.5595 93.2499 55.5295 93.7399C55.4295 95.0999 54.9995 96.0599 54.3595 96.3899V96.6099C54.3595 96.6699 54.3595 96.7299 54.3495 96.7799C54.2195 97.4999 53.5695 98.2799 52.4195 98.2799H43.8095L43.7495 101.44C43.7395 101.64 43.5095 105.33 42.8995 107.72V109.5C42.8895 110.85 42.2795 112.21 40.9395 112.21C40.6795 112.21 40.1295 112.14 39.6795 111.64L38.6895 111.75L39.1495 118.38C39.1995 119.03 39.1095 119.67 38.9095 120.27C38.7795 120.65 38.3895 121.79 37.3695 121.79L37.3395 121.8ZM38.8995 107.49C38.5195 105.87 38.2895 103.77 38.1895 102.53L38.3095 107.49H38.8995ZM37.5695 98.2799C37.6795 98.4399 37.7795 98.6199 37.8695 98.8299C37.9595 99.0299 38.0195 99.2299 38.0595 99.4499L38.0395 98.2799H37.5695ZM52.4795 46.5099V34.1799L51.1495 35.4999L51.1895 46.5099H52.4895H52.4795ZM30.6395 46.5099L30.6795 35.2599L29.3495 33.8999V46.5099H30.6495H30.6395Z" fill="white"/>
<path d="M2.97968 2.19995C3.36968 2.19995 3.67968 2.58995 3.67968 2.58995C3.67968 2.58995 6.04968 4.65995 6.67968 5.22995C6.71968 5.16995 6.79968 5.13995 6.88968 5.13995C7.23968 5.13995 7.83968 5.47995 7.83968 5.47995C7.83968 5.47995 10.9597 8.15995 11.9497 9.03995C12.9397 9.92995 12.7197 10.48 12.7197 10.48L27.1197 24.83V21.26C27.1197 20.58 27.4397 20.25 27.7597 20.25C28.0797 20.25 28.3997 20.59 28.3997 21.26V26.1L29.9697 27.66C30.0697 27.76 30.1597 27.86 30.2397 27.96H31.6597V18.57C31.6597 11.07 40.4897 10.99 40.8897 10.99H40.9197C41.3197 10.99 50.1497 11.07 50.1497 18.57V27.96H51.9297L53.4097 26.52V21.26C53.4097 20.58 53.7297 20.25 54.0497 20.25C54.3697 20.25 54.6897 20.59 54.6897 21.26V25.28L67.9697 12.39C67.9697 12.39 67.7597 11.83 68.7597 10.96C69.7597 10.09 72.9097 7.44995 72.9097 7.44995C72.9097 7.44995 73.5097 7.11995 73.8597 7.11995C73.9597 7.11995 74.0397 7.14995 74.0797 7.20995C74.7197 6.64995 77.1097 4.60995 77.1097 4.60995C77.1097 4.60995 77.4197 4.22995 77.8097 4.22995C77.9997 4.22995 78.2097 4.31995 78.4097 4.58995C79.0297 5.40995 78.4497 6.99995 77.6597 7.76995C77.1097 8.30995 63.2597 22.06 54.6897 30.56V49.9C54.6897 50.22 54.3697 50.3899 54.0597 50.3899C53.7597 50.3899 53.4697 50.2499 53.4297 49.9599C53.4297 49.9399 53.4297 49.92 53.4297 49.9V48.56H50.1097V50.6C54.8397 55.43 77.7697 78.82 78.4797 79.53C79.2697 80.32 79.8197 81.9199 79.1897 82.7199C78.9897 82.9799 78.7797 83.07 78.5897 83.07C78.1997 83.07 77.8897 82.68 77.8897 82.68C77.8897 82.68 75.5197 80.6099 74.8897 80.0399C74.8497 80.0999 74.7697 80.13 74.6797 80.13C74.3297 80.13 73.7297 79.7899 73.7297 79.7899C73.7297 79.7899 70.6097 77.1099 69.6297 76.2199C68.6397 75.3299 68.8597 74.78 68.8597 74.78L51.6197 57.58C51.1597 57.12 50.7897 56.5799 50.5297 55.9799L49.9297 54.61C49.6797 56.29 49.1697 57.92 48.3697 59.42C47.7997 60.48 47.0597 61.5599 46.0997 62.4799C46.0797 62.4999 46.0497 62.5299 46.0297 62.5499C44.2497 64.2699 43.2797 66.6499 43.2797 69.1199V78.09C43.2797 78.33 43.4497 78.5299 43.6897 78.5799C44.1197 78.6699 44.7197 78.91 44.7197 79.56V83.2599C44.7197 83.2599 44.5997 84.1299 43.3597 84.2899C43.1097 84.3199 42.9297 84.5399 42.9297 84.7899V91.4699C42.9297 91.7699 43.1797 92.02 43.4797 92.02H52.5397C52.6197 92.02 53.3597 92.0499 53.3897 93.0499C53.6497 93.1399 54.5497 93.02 54.5097 93.64C54.4097 94.93 53.9997 95.49 53.7997 95.49H53.3297V96.5799C53.3297 96.5799 53.2097 97.2599 52.3897 97.2599H43.3397C43.0497 97.2599 42.8097 97.48 42.7897 97.77L42.7197 101.4C42.7197 101.4 42.4797 105.25 41.8697 107.57V109.48C41.8697 109.48 41.8597 111.19 40.9097 111.19C40.5197 111.19 40.2897 110.9 40.1597 110.56L37.5997 110.84L38.1297 118.42C38.1697 118.93 38.0997 119.44 37.9397 119.92C37.7697 120.44 37.5697 120.76 37.3497 120.76C37.1797 120.76 36.9997 120.58 36.7897 120.15C36.5697 119.7 36.4597 119.21 36.4297 118.7L35.4797 100.17C35.4597 99.71 35.5697 99.25 35.8397 98.88C36.0097 98.65 36.1797 98.52 36.3397 98.52C36.5497 98.52 36.7597 98.7299 36.9697 99.1899C37.0797 99.4299 37.1197 99.69 37.1297 99.95L37.3397 108.45H39.9597V107.56C39.3397 105.24 39.1097 101.39 39.1097 101.39L39.0397 97.7599C39.0197 97.4699 38.7797 97.25 38.4897 97.25H29.4397C28.6197 97.25 28.4997 96.57 28.4997 96.57V95.4799H28.0297C27.8397 95.4799 27.4197 94.91 27.3197 93.63C27.2697 93.01 28.1697 93.1299 28.4397 93.0399C28.4697 92.0399 29.2097 92.0099 29.2897 92.0099H38.3497C38.6497 92.0099 38.8997 91.76 38.8997 91.46V84.78C38.8997 84.53 38.7197 84.32 38.4697 84.28C37.2297 84.11 37.1097 83.25 37.1097 83.25V79.5499C37.1097 78.8999 37.7197 78.66 38.1497 78.57C38.3797 78.52 38.5597 78.3199 38.5597 78.0799V69.61C38.5597 67.48 37.9397 65.39 36.7397 63.63C36.3797 63.1 36.0797 62.7899 35.7397 62.4599C34.7697 61.5399 34.0297 60.46 33.4697 59.4C32.7697 58.09 32.2997 56.69 32.0197 55.25C31.8397 55.49 31.6497 55.73 31.4297 55.94L13.9497 72.89C13.9497 72.89 14.1597 73.45 13.1597 74.32C12.1597 75.19 9.00968 77.8299 9.00968 77.8299C9.00968 77.8299 8.40968 78.16 8.05968 78.16C7.95968 78.16 7.87968 78.13 7.83968 78.07C7.19968 78.63 4.79968 80.67 4.79968 80.67C4.79968 80.67 4.48968 81.0499 4.09968 81.0499C3.90968 81.0499 3.69968 80.9599 3.49968 80.6899C2.87968 79.8699 3.45968 78.2799 4.25968 77.5099C4.92968 76.8599 25.0097 56.95 31.7297 50.28V48.54H28.4097V49.88C28.4097 49.88 28.4097 49.92 28.4097 49.94C28.3697 50.22 28.0797 50.3699 27.7797 50.3699C27.4597 50.3699 27.1497 50.21 27.1497 49.88V30.19C18.8797 21.81 3.66968 6.31995 3.08968 5.73995C2.29968 4.94995 1.74968 3.35995 2.37968 2.54995C2.57968 2.28995 2.78968 2.19995 2.97968 2.19995ZM50.1297 29.77C50.2497 29.63 50.3697 29.49 50.5097 29.36L50.6797 29.2H50.1397V29.77M31.6897 30.72V29.2H31.0197C31.0297 29.22 31.0397 29.25 31.0597 29.27L31.6897 30.72ZM28.3497 47.52H31.6397L31.6797 34.86C30.9997 34.17 29.8397 32.98 28.3497 31.46V47.51M50.1897 47.52H53.4797V31.79C52.1797 33.08 51.0397 34.21 50.1497 35.1L50.1897 47.52ZM2.97968 0.199951C2.13968 0.199951 1.35968 0.599951 0.799677 1.31995C-0.540323 3.04995 0.209677 5.69995 1.67968 7.15995C2.07968 7.55995 10.8397 16.48 25.1297 31.04V49.91C25.1297 51.02 25.8597 51.94 26.8997 52.26C17.3197 61.76 3.37968 75.58 2.84968 76.1C1.35968 77.54 0.569677 80.18 1.88968 81.93C2.44968 82.67 3.22968 83.0799 4.08968 83.0799C5.11968 83.0799 5.83968 82.4999 6.17968 82.1499C6.51968 81.8599 7.70968 80.85 8.51968 80.16C9.10968 80.06 9.64968 79.7999 9.95968 79.6199C10.0697 79.5599 10.1797 79.4899 10.2797 79.3999C10.4097 79.2899 13.4597 76.74 14.4697 75.86C15.2797 75.15 15.6797 74.4599 15.8497 73.8699L31.0797 59.09C31.2697 59.53 31.4697 59.96 31.6897 60.38C32.4297 61.77 33.3197 62.97 34.3497 63.95C34.6397 64.22 34.8297 64.4299 35.0797 64.7999C36.0397 66.1999 36.5497 67.8799 36.5497 69.6499V77.1C35.6497 77.64 35.1097 78.5299 35.1097 79.5799V83.28C35.1097 83.37 35.1097 83.46 35.1297 83.56C35.2197 84.23 35.7097 85.31 36.8997 85.91V90.0399H29.2997C29.2997 90.0399 29.2897 90.0399 29.2797 90.0399C28.3997 90.0399 27.4697 90.49 26.9197 91.35C25.2397 91.98 25.2997 93.6 25.3197 93.81C25.4397 95.36 25.9097 96.3399 26.5097 96.8999C26.5097 96.9099 26.5097 96.9299 26.5097 96.9399C26.7097 98.0999 27.7797 99.27 29.4197 99.27H33.5297C33.4597 99.61 33.4397 99.95 33.4597 100.31L34.4097 118.84C34.4497 119.64 34.6397 120.39 34.9697 121.07C35.6697 122.49 36.6397 122.79 37.3297 122.79C38.1197 122.79 39.1997 122.41 39.8197 120.59C40.0697 119.86 40.1697 119.09 40.1097 118.31L39.7397 112.95C40.0897 113.12 40.4897 113.21 40.9097 113.21C42.6297 113.21 43.8497 111.69 43.8697 109.52V107.84C44.4797 105.35 44.7097 101.7 44.7197 101.54C44.7197 101.51 44.7197 101.48 44.7197 101.46L44.7597 99.28H52.3897C54.0297 99.28 55.0997 98.11 55.2997 96.95C55.2997 96.94 55.2997 96.92 55.2997 96.91C55.8997 96.35 56.3797 95.37 56.4897 93.82C56.5097 93.61 56.5697 91.99 54.8897 91.36C54.3397 90.5 53.4097 90.0499 52.5297 90.0499C52.5297 90.0499 52.5197 90.0499 52.5097 90.0499H44.9097V85.92C46.1097 85.32 46.5897 84.24 46.6797 83.57C46.6897 83.48 46.6997 83.3899 46.6997 83.2899V79.59C46.6997 78.54 46.1597 77.65 45.2597 77.11V69.1499C45.2597 67.1999 46.0397 65.33 47.3997 64.02L47.4597 63.9599C48.4897 62.9799 49.3797 61.7799 50.1197 60.3899C50.2897 60.0799 50.4397 59.75 50.5897 59.43L66.9197 75.7199C67.0797 76.3099 67.4697 77.0099 68.2697 77.7299C69.2597 78.6199 72.2797 81.2199 72.4097 81.3299C72.5097 81.4099 72.6097 81.4899 72.7197 81.5499C73.0897 81.7599 73.6097 82.01 74.1597 82.11C74.9597 82.82 76.1297 83.84 76.4697 84.14C76.8097 84.5 77.5297 85.1 78.5797 85.1C79.4197 85.1 80.1897 84.6999 80.7597 83.9799C82.0997 82.2599 81.3497 79.61 79.8797 78.14C79.5797 77.84 74.8697 73.04 54.5897 52.35C55.7997 52.12 56.6797 51.13 56.6797 49.92V31.41C74.6497 13.57 78.7697 9.48995 79.0397 9.21995C80.5297 7.76995 81.3197 5.13995 79.9897 3.38995C79.4297 2.64995 78.6497 2.23995 77.7897 2.23995C76.7597 2.23995 76.0397 2.82995 75.6997 3.17995C75.3597 3.46995 74.1697 4.47995 73.3597 5.17995C72.7697 5.27995 72.2297 5.54995 71.9197 5.71995C71.8097 5.77995 71.6997 5.84995 71.5997 5.93995C71.4697 6.04995 68.4197 8.59995 67.4097 9.47995C66.5997 10.19 66.1997 10.88 66.0297 11.48L56.5997 20.63C56.3297 19.09 55.1397 18.27 54.0197 18.27C53.3397 18.27 52.6297 18.57 52.1197 19.15V18.59C52.1197 11.01 44.7697 9.00995 40.8897 9.00995C37.0097 9.00995 29.6297 11.01 29.6297 18.59V19.15C29.1197 18.57 28.4097 18.27 27.7297 18.27C26.7097 18.27 25.6497 18.94 25.2497 20.19L14.5997 9.57995C14.4397 8.98995 14.0497 8.28995 13.2497 7.56995C12.2597 6.67995 9.23968 4.08995 9.10968 3.97995C9.00968 3.89995 8.90968 3.81995 8.79968 3.75995C8.42968 3.54995 7.90968 3.30995 7.35968 3.19995C6.55968 2.48995 5.38968 1.46995 5.04968 1.16995C4.74968 0.799951 4.02968 0.199951 2.97968 0.199951Z" fill="#231F20"/>
</g>
<defs>
<clipPath id="clip0_582_7">
<rect width="81.38" height="122.6" fill="white" transform="translate(0.0996094 0.199951)"/>
</clipPath>
</defs>
</svg>
