<svg width="529" height="215" viewBox="0 0 529 215" fill="none" xmlns="http://www.w3.org/2000/svg">
<g clip-path="url(#clip0_83_60)">
<path d="M263 207.335L224.32 181.055C223.85 180.735 223.23 180.725 222.75 181.035L194.88 199.025C194.31 199.395 193.57 199.365 193.02 198.965L130.94 152.915C130.17 152.345 129.13 152.335 128.35 152.885L45.68 211.515C43.65 212.955 40.93 212.925 38.93 211.455L2.93999 184.875C2.55999 184.595 2.56999 184.015 2.95999 183.745L263.11 2.91475C264.04 2.26475 265.28 2.26475 266.21 2.91475L526.36 183.755C526.75 184.025 526.76 184.605 526.38 184.885L490.39 211.455C488.39 212.935 485.67 212.955 483.64 211.515L400.97 152.885C400.19 152.335 399.14 152.345 398.38 152.915L336.3 198.965C335.75 199.375 335.01 199.395 334.44 199.025L306.57 181.035C306.09 180.725 305.47 180.735 305 181.055L266.32 207.335C265.32 208.015 264 208.015 263 207.335Z" fill="white"/>
<path d="M264.66 2.4248C265.2 2.4248 265.74 2.5848 266.21 2.9148L526.36 183.755C526.75 184.025 526.76 184.595 526.38 184.885L490.39 211.455C489.38 212.205 488.17 212.575 486.97 212.575C485.77 212.575 484.64 212.225 483.64 211.515L400.97 152.885C400.59 152.615 400.14 152.475 399.69 152.475C399.24 152.475 398.76 152.625 398.37 152.905L336.29 198.955C336 199.165 335.66 199.275 335.32 199.275C335.01 199.275 334.71 199.185 334.43 199.015L306.56 181.025C306.33 180.875 306.06 180.795 305.79 180.795C305.52 180.795 305.23 180.875 304.99 181.045L266.31 207.325C265.81 207.665 265.23 207.835 264.65 207.835C264.07 207.835 263.49 207.665 262.99 207.325L224.31 181.045C224.07 180.885 223.79 180.795 223.51 180.795C223.23 180.795 222.97 180.875 222.74 181.025L194.87 199.015C194.6 199.185 194.29 199.275 193.98 199.275C193.64 199.275 193.3 199.165 193.01 198.955L130.93 152.905C130.54 152.615 130.08 152.475 129.61 152.475C129.14 152.475 128.72 152.615 128.33 152.885L45.6603 211.515C44.6603 212.225 43.5003 212.575 42.3303 212.575C41.1603 212.575 39.9303 212.195 38.9103 211.455L2.94034 184.875C2.56034 184.595 2.57034 184.015 2.96034 183.745L263.11 2.9148C263.58 2.5948 264.12 2.4248 264.66 2.4248ZM264.66 0.424805C263.69 0.424805 262.76 0.714805 261.97 1.2648L1.82034 182.115C1.11034 182.605 0.680335 183.425 0.660335 184.285C0.650335 185.155 1.06034 185.975 1.75034 186.495L37.7403 213.065C39.0803 214.055 40.6803 214.585 42.3503 214.585C44.0203 214.585 45.5203 214.095 46.8403 213.155L129.51 154.525C129.51 154.525 129.59 154.485 129.63 154.485C129.66 154.485 129.71 154.485 129.75 154.525L191.83 200.575C192.46 201.045 193.21 201.295 193.99 201.295C194.69 201.295 195.37 201.095 195.96 200.715L223.51 182.935L261.87 208.995C262.69 209.555 263.66 209.855 264.65 209.855C265.64 209.855 266.61 209.555 267.43 208.995L305.79 182.935L333.34 200.715C333.93 201.095 334.61 201.295 335.31 201.295C336.09 201.295 336.84 201.045 337.47 200.585L399.55 154.535C399.55 154.535 399.64 154.495 399.67 154.495C399.71 154.495 399.75 154.505 399.79 154.535L482.46 213.165C483.78 214.095 485.33 214.595 486.95 214.595C488.57 214.595 490.21 214.075 491.56 213.075L527.55 186.505C528.25 185.995 528.66 185.165 528.64 184.295C528.63 183.425 528.2 182.615 527.48 182.125L267.35 1.2648C266.56 0.714805 265.63 0.424805 264.66 0.424805Z" fill="black"/>
</g>
<defs>
<clipPath id="clip0_83_60">
<rect width="528" height="214.15" fill="white" transform="translate(0.660156 0.424805)"/>
</clipPath>
</defs>
</svg>
