<svg width="181" height="148" viewBox="0 0 181 148" fill="none" xmlns="http://www.w3.org/2000/svg">
<g clip-path="url(#clip0_506_71)">
<path d="M90.45 146.77C89.63 146.77 88.88 146.39 88.03 141.9L61.31 144.13C61.31 144.13 61.22 144.13 61.19 144.13C60.42 144.13 59.8 143.51 59.8 142.74V136.16C59.8 134.21 61.43 133.12 62.4 132.79L87.58 123.82C82.25 96.88 81.23 71.25 81.19 70.17C81.17 69.76 81.1 69.39 80.97 69.07C80.72 68.46 80.33 68 80.05 67.72C79.88 67.55 79.65 67.46 79.4 67.46H59.16C57.98 67.46 56.79 67.37 55.63 67.19L2.05001 59.01C1.56001 58.94 1.20001 58.52 1.20001 58.02V50.04C1.20001 47.74 3.06001 46.82 4.04001 46.66C4.08001 46.66 4.11001 46.66 4.15001 46.65L50.31 44.16C50.77 44.14 51.21 44.02 51.62 43.82C54.91 42.18 56.76 41.26 57.57 40.84C57.39 36.26 57.5 31.83 57.56 29.88H56C55.45 29.88 55 29.43 55 28.88V23.83C55 21.64 56.8 20.7 57.76 20.51C57.82 20.5 57.89 20.49 57.96 20.49H58.66C58.7 20.29 58.75 20.06 58.81 19.81C58.17 19.85 57.44 19.89 56.66 19.89C54.65 19.89 52.95 19.68 51.62 19.26C51.06 19.08 50.69 18.57 50.71 17.97C50.73 17.38 51.13 16.88 51.7 16.74C52.83 16.46 54.22 16.32 55.83 16.32C57.44 16.32 58.81 16.45 59.82 16.56C60.18 15.66 60.58 14.83 61.01 14.09C61.41 13.42 62.11 13.02 62.89 13.02C63.63 13.02 64.32 13.39 64.73 14C65.24 14.76 65.7 15.63 66.09 16.59C67.06 16.47 68.66 16.31 70.34 16.31C72.02 16.31 73.34 16.45 74.47 16.73C75.04 16.87 75.44 17.36 75.46 17.96C75.48 18.55 75.11 19.07 74.55 19.25C73.22 19.67 71.52 19.88 69.51 19.88C68.62 19.88 67.78 19.84 67.08 19.79C67.18 20.23 67.25 20.62 67.31 20.94H67.47C69.44 20.94 70.49 22.67 70.8 23.69C70.83 23.78 70.84 23.88 70.84 23.98V28.97C70.84 29.52 70.39 29.97 69.84 29.97H68.15C68.41 34.4 68.33 39.81 68.28 42.08L81.15 41.41V34.41C81.15 24.72 84.41 1.01001 90.46 1.01001C96.51 1.01001 99.77 24.72 99.77 34.41V41.41L112.64 42.08C112.59 39.81 112.5 34.4 112.77 29.97H111.08C110.53 29.97 110.08 29.52 110.08 28.97V23.98C110.08 23.88 110.09 23.78 110.12 23.69C110.43 22.67 111.47 20.94 113.45 20.94H113.61C113.66 20.62 113.74 20.23 113.84 19.79C113.14 19.84 112.3 19.88 111.41 19.88C109.4 19.88 107.7 19.67 106.37 19.25C105.81 19.07 105.44 18.56 105.46 17.96C105.48 17.37 105.88 16.87 106.45 16.73C107.58 16.45 108.97 16.31 110.58 16.31C112.27 16.31 113.86 16.47 114.83 16.59C115.22 15.63 115.68 14.76 116.19 14C116.6 13.39 117.29 13.02 118.03 13.02C118.81 13.02 119.52 13.42 119.91 14.09C120.35 14.83 120.75 15.66 121.1 16.56C122.11 16.44 123.55 16.32 125.09 16.32C126.63 16.32 128.09 16.46 129.22 16.74C129.8 16.88 130.2 17.37 130.21 17.97C130.23 18.56 129.86 19.08 129.3 19.26C127.97 19.68 126.27 19.89 124.26 19.89C123.49 19.89 122.75 19.86 122.11 19.81C122.17 20.06 122.22 20.29 122.26 20.49H122.96C123.03 20.49 123.09 20.49 123.16 20.51C124.11 20.7 125.92 21.64 125.92 23.83V28.88C125.92 29.43 125.47 29.88 124.92 29.88H123.36C123.42 31.84 123.52 36.26 123.35 40.84C124.01 41.17 125.59 41.97 129.3 43.81C129.71 44.01 130.15 44.13 130.61 44.16L176.77 46.65C176.77 46.65 176.84 46.65 176.88 46.66C177.86 46.82 179.72 47.74 179.72 50.04V58.02C179.72 58.51 179.36 58.93 178.87 59.01L125.3 67.22C124.13 67.4 122.95 67.49 121.77 67.49H101.53C101.28 67.49 101.05 67.58 100.88 67.75C100.6 68.03 100.21 68.48 99.96 69.1C99.83 69.42 99.76 69.78 99.74 70.2C99.7 71.28 98.68 96.89 93.35 123.85L118.53 132.82C119.49 133.15 121.12 134.24 121.12 136.19V142.77C121.12 143.54 120.5 144.16 119.73 144.16C119.7 144.16 119.64 144.16 119.62 144.16L92.9 141.93C92.05 146.42 91.3 146.8 90.48 146.8L90.45 146.77Z" fill="white"/>
<path d="M90.45 2C95.05 2 98.76 23.1 98.76 34.4V42.35L113.65 43.13C113.65 43.13 113.37 34.82 113.82 28.96H111.06V23.97C111.06 23.97 111.67 21.93 113.43 21.93H114.46C114.46 21.93 114.6 20.49 115.15 18.65C114.42 18.74 113 18.88 111.39 18.88C109.78 18.88 108.08 18.75 106.65 18.3C106.36 18.21 106.37 17.78 106.67 17.71C107.86 17.42 109.24 17.32 110.56 17.32C112.78 17.32 114.83 17.6 115.47 17.69C115.84 16.65 116.34 15.56 117.01 14.56C117.25 14.2 117.63 14.03 118.01 14.03C118.41 14.03 118.81 14.22 119.03 14.61C119.62 15.61 120.08 16.68 120.42 17.66C121.25 17.54 123.09 17.32 125.07 17.32C126.39 17.32 127.77 17.42 128.96 17.71C129.26 17.78 129.27 18.21 128.98 18.3C127.55 18.75 125.81 18.88 124.24 18.88C122.82 18.88 121.54 18.77 120.76 18.68C121.24 20.28 121.41 21.48 121.41 21.48H122.94C122.94 21.48 124.89 21.87 124.89 23.82V28.87H122.3C122.3 28.87 122.58 35.06 122.3 41.42C122.45 41.53 126.96 43.77 128.83 44.7C129.36 44.96 129.94 45.12 130.53 45.15L176.69 47.64C176.69 47.64 178.7 47.97 178.7 50.04V58.02L125.13 66.23C124.01 66.4 122.88 66.49 121.75 66.49H101.51C101 66.49 100.52 66.68 100.16 67.04C99.78 67.41 99.32 67.97 99.02 68.72C98.83 69.18 98.74 69.67 98.73 70.16C98.59 73.86 97.37 98.28 92.36 123.66C92.26 124.14 92.54 124.63 93 124.79L118.19 133.76C118.19 133.76 120.11 134.43 120.11 136.19V142.77C120.11 142.99 119.93 143.16 119.72 143.16C119.71 143.16 119.7 143.16 119.69 143.16L92.4 140.88C92.4 140.88 92.38 140.88 92.37 140.88C92.19 140.88 92.04 141 92.01 141.18C91.81 142.28 91.14 145.79 90.47 145.79C89.8 145.79 89.13 142.28 88.93 141.18C88.9 141 88.75 140.88 88.57 140.88C88.56 140.88 88.55 140.88 88.54 140.88L61.25 143.16C61.25 143.16 61.23 143.16 61.22 143.16C61.01 143.16 60.83 142.99 60.83 142.77V136.19C60.83 134.43 62.75 133.76 62.75 133.76L87.94 124.79C88.41 124.62 88.68 124.14 88.58 123.66C83.56 98.28 82.35 73.86 82.21 70.16C82.19 69.67 82.1 69.18 81.92 68.72C81.61 67.97 81.15 67.41 80.78 67.04C80.42 66.69 79.93 66.49 79.43 66.49H59.19C58.06 66.49 56.93 66.4 55.81 66.23L2.20002 58.02V50.04C2.20002 47.98 4.21002 47.64 4.21002 47.64L50.37 45.15C50.96 45.12 51.54 44.97 52.07 44.7C53.94 43.77 58.45 41.53 58.6 41.42C58.32 35.06 58.6 28.87 58.6 28.87H56.01V23.82C56.01 21.87 57.96 21.48 57.96 21.48H59.49C59.49 21.48 59.66 20.28 60.14 18.68C59.36 18.77 58.08 18.88 56.66 18.88C55.09 18.88 53.35 18.75 51.92 18.3C51.63 18.21 51.64 17.78 51.94 17.71C53.13 17.42 54.51 17.32 55.83 17.32C57.81 17.32 59.65 17.54 60.48 17.66C60.83 16.67 61.28 15.61 61.87 14.61C62.1 14.22 62.49 14.03 62.89 14.03C63.27 14.03 63.66 14.21 63.9 14.56C64.57 15.56 65.07 16.66 65.44 17.69C66.08 17.59 68.12 17.32 70.35 17.32C71.67 17.32 73.05 17.42 74.24 17.71C74.54 17.78 74.55 18.21 74.26 18.3C72.83 18.75 71.09 18.88 69.52 18.88C67.95 18.88 66.49 18.74 65.76 18.65C66.31 20.49 66.45 21.93 66.45 21.93H67.48C69.24 21.93 69.85 23.97 69.85 23.97V28.96H67.09C67.54 34.82 67.26 43.13 67.26 43.13L82.15 42.35V34.4C82.15 23.1 85.86 2 90.46 2M90.45 0C88.39 0 85.34 1.4 82.62 13.52C81.11 20.22 80.14 28.41 80.14 34.39V40.44L69.3 41.01C69.34 38.6 69.38 34.6 69.2 30.95H69.84C70.94 30.95 71.84 30.05 71.84 28.95V23.96C71.84 23.76 71.81 23.57 71.75 23.38C71.53 22.64 70.99 21.61 70.09 20.86C71.95 20.82 73.55 20.6 74.85 20.19C75.83 19.88 76.49 18.95 76.46 17.92C76.43 16.89 75.71 16 74.71 15.75C73.5 15.45 72.03 15.3 70.35 15.3C68.99 15.3 67.71 15.4 66.72 15.5C66.37 14.75 65.99 14.06 65.57 13.43C64.97 12.54 63.98 12.01 62.9 12.01C61.76 12.01 60.73 12.59 60.15 13.57C59.8 14.16 59.48 14.79 59.18 15.47C58.23 15.38 57.06 15.3 55.82 15.3C54.13 15.3 52.66 15.45 51.46 15.75C50.46 16 49.74 16.89 49.71 17.92C49.68 18.95 50.34 19.89 51.32 20.19C52.4 20.53 53.7 20.74 55.19 20.83C54.52 21.51 54.01 22.49 54.01 23.82V28.87C54.01 29.97 54.91 30.87 56.01 30.87H56.54C56.48 33 56.44 36.5 56.56 40.23C55.58 40.72 53.87 41.58 51.19 42.91C50.9 43.05 50.59 43.13 50.27 43.15L4.11002 45.64C4.04002 45.64 3.96002 45.65 3.89002 45.66C2.62002 45.87 0.210022 47.06 0.210022 50.03V58.01C0.210022 59 0.930022 59.84 1.91002 59.99L55.48 68.2C56.69 68.39 57.93 68.48 59.16 68.48H79.38C79.59 68.69 79.87 69.03 80.05 69.47C80.13 69.68 80.18 69.93 80.19 70.22C80.23 71.29 81.24 96.47 86.43 123.18L62.06 131.86C60.86 132.28 58.81 133.66 58.81 136.17V142.75C58.81 144.07 59.88 145.14 61.2 145.14C61.26 145.14 61.34 145.14 61.4 145.14L87.23 142.98C87.89 146.16 88.69 147.77 90.46 147.77C92.23 147.77 93.02 146.16 93.69 142.98L119.52 145.14C119.58 145.14 119.66 145.14 119.72 145.14C121.04 145.14 122.11 144.07 122.11 142.75V136.17C122.11 133.66 120.06 132.28 118.84 131.85L94.48 123.17C99.68 96.46 100.68 71.28 100.72 70.21C100.73 69.92 100.78 69.66 100.86 69.46C101.04 69.02 101.32 68.69 101.53 68.48H121.75C122.98 68.48 124.22 68.39 125.43 68.2L179 59.99C179.98 59.84 180.7 59 180.7 58.01V50.03C180.7 47.06 178.29 45.87 177.02 45.66C176.95 45.65 176.87 45.64 176.8 45.64L130.64 43.15C130.32 43.13 130.01 43.05 129.72 42.91C127.04 41.58 125.33 40.72 124.35 40.23C124.47 36.5 124.43 33 124.37 30.87H124.9C126 30.87 126.9 29.97 126.9 28.87V23.82C126.9 22.49 126.39 21.52 125.72 20.83C127.2 20.75 128.5 20.53 129.58 20.19C130.56 19.88 131.23 18.95 131.19 17.92C131.16 16.89 130.44 16 129.44 15.75C128.23 15.45 126.77 15.3 125.08 15.3C123.85 15.3 122.67 15.38 121.72 15.47C121.42 14.79 121.1 14.15 120.75 13.57C120.17 12.59 119.15 12.01 118 12.01C116.93 12.01 115.93 12.54 115.33 13.43C114.91 14.06 114.52 14.75 114.18 15.5C113.19 15.4 111.91 15.3 110.55 15.3C108.86 15.3 107.39 15.45 106.19 15.75C105.19 16 104.47 16.89 104.44 17.92C104.41 18.95 105.07 19.89 106.05 20.19C107.35 20.6 108.94 20.82 110.81 20.86C109.91 21.6 109.37 22.64 109.15 23.38C109.09 23.57 109.06 23.76 109.06 23.96V28.95C109.06 30.05 109.96 30.95 111.06 30.95H111.7C111.53 34.6 111.56 38.6 111.6 41.01L100.76 40.44V34.39C100.76 28.41 99.79 20.22 98.28 13.52C95.56 1.4 92.51 0 90.45 0Z" fill="#231F20"/>
</g>
<defs>
<clipPath id="clip0_506_71">
<rect width="180.5" height="147.77" fill="white" transform="translate(0.200012)"/>
</clipPath>
</defs>
</svg>
