<svg width="359" height="372" viewBox="0 0 359 372" fill="none" xmlns="http://www.w3.org/2000/svg">
<g clip-path="url(#clip0_63_125)">
<path d="M179.5 371.7C181.01 371.7 186.56 355.56 187.92 352.43L252.2 369.94C252.84 370.11 253.48 369.67 253.53 369.02C253.69 367.13 253.67 363.67 253.59 363.14C253.5 362.52 253.12 361.98 252.58 361.68L194.68 321.43C195.61 317.08 194.57 320.18 195.63 315.91C195.63 314.67 200.19 287.83 199.99 279.61L200.76 191.16L221.03 191.09C221.36 193.54 222.09 198.12 223 198.12C224.24 198.12 224.57 191.08 224.57 191.08L233.31 191.05C233.31 191.05 237.27 192.16 242.79 193.7C243.04 195.75 243.84 201.51 244.86 201.51C245.97 201.51 246.35 195.9 246.42 194.71C253.95 196.8 263.11 199.32 269.3 200.95C269.62 203.35 270.36 208.14 271.29 208.14C272.28 208.14 272.69 203.68 272.82 201.86C275 202.41 276.33 202.71 276.34 202.62L285.28 205.52L343.75 224.65L345.41 224.59L358.99 231.27V226.74L348.94 214.1C349.11 213.27 347.61 212.11 345.96 208.51L240.18 152.24C239.68 151.99 238.22 151.19 238.22 151.19C238.22 151.19 236.15 150.27 236.34 147.7C240.09 148.03 240.19 145.45 240.63 144.65C243 135.93 242.51 123.17 241.79 114.72C241.74 112.84 239.69 109.38 237.06 109.38H221.63C219.01 109.38 217.32 112.84 217.27 114.72C216.84 121.73 217.28 133.5 218.72 139.41C213.57 135.44 205.14 128.04 201.05 122.27C201.05 122.27 200.28 55.88 199.82 53.78C196.95 27.37 186.03 0.209961 179.49 0.209961C172.95 0.209961 162.03 27.38 159.16 53.78C158.7 55.87 157.93 122.27 157.93 122.27C153.84 128.04 145.41 135.45 140.26 139.41C141.7 133.5 142.13 121.73 141.71 114.72C141.66 112.84 139.97 109.38 137.35 109.38H121.92C119.3 109.38 117.24 112.84 117.19 114.72C116.47 123.17 115.98 135.93 118.35 144.65C118.8 145.45 118.89 148.03 122.64 147.7C122.83 150.27 120.76 151.19 120.76 151.19C120.76 151.19 119.3 152 118.8 152.24L13.03 208.5C11.37 212.11 9.88 213.27 10.05 214.09L0 226.73V231.26L13.58 224.58L15.24 224.64L73.71 205.51L82.65 202.61C82.67 202.7 84 202.4 86.17 201.85C86.3 203.66 86.71 208.13 87.7 208.13C88.63 208.13 89.38 203.34 89.69 200.94C95.88 199.31 105.04 196.79 112.57 194.7C112.64 195.9 113.02 201.5 114.13 201.5C115.15 201.5 115.95 195.74 116.2 193.69C121.72 192.15 125.68 191.04 125.68 191.04L134.42 191.07C134.42 191.07 134.75 198.11 135.99 198.11C136.9 198.11 137.63 193.53 137.96 191.08L158.23 191.15L159 279.6C158.81 287.83 163.36 314.66 163.36 315.9C164.41 320.17 163.37 317.07 164.31 321.42L106.41 361.67C105.86 361.97 105.49 362.51 105.4 363.13C105.32 363.65 105.31 367.12 105.46 369.01C105.51 369.67 106.15 370.11 106.79 369.93L171.07 352.42C172.43 355.55 177.98 371.69 179.49 371.69L179.5 371.7Z" fill="white"/>
<path d="M179.5 0.179932C186.04 0.179932 196.96 27.3499 199.83 53.7499C200.29 55.8399 201.06 122.24 201.06 122.24C205.15 128.01 213.58 135.42 218.73 139.38C217.29 133.47 216.86 121.7 217.28 114.69C217.33 112.81 219.02 109.35 221.64 109.35H237.07C239.69 109.35 241.75 112.81 241.8 114.69C242.52 123.14 243.01 135.9 240.64 144.62C240.22 145.37 240.11 147.7 236.98 147.7C236.78 147.7 236.57 147.7 236.35 147.67C236.16 150.24 238.23 151.16 238.23 151.16C238.23 151.16 239.69 151.96 240.19 152.21L345.97 208.48C347.63 212.09 349.12 213.25 348.95 214.07L359 226.71V231.24L345.42 224.56L343.76 224.62L285.29 205.49L276.35 202.59C276.35 202.59 276.33 202.61 276.29 202.61C276.01 202.61 274.75 202.32 272.82 201.84C272.69 203.65 272.28 208.12 271.29 208.12C270.36 208.12 269.61 203.33 269.3 200.93C263.11 199.3 253.95 196.78 246.42 194.69C246.35 195.89 245.97 201.49 244.86 201.49C243.84 201.49 243.04 195.73 242.79 193.68C237.27 192.14 233.31 191.03 233.31 191.03L224.57 191.06C224.57 191.06 224.24 198.1 223 198.1C222.09 198.1 221.36 193.52 221.03 191.07L200.76 191.14L199.99 279.59C200.18 287.82 195.63 314.65 195.63 315.89C194.58 320.16 195.62 317.06 194.68 321.41L252.58 361.66C253.13 361.96 253.5 362.5 253.59 363.12C253.67 363.64 253.68 367.11 253.53 369C253.48 369.56 253.01 369.96 252.48 369.96C252.39 369.96 252.29 369.95 252.2 369.92L187.92 352.41C186.56 355.54 181.01 371.68 179.5 371.68C177.99 371.68 172.44 355.54 171.08 352.41L106.8 369.92C106.71 369.95 106.61 369.96 106.52 369.96C105.99 369.96 105.52 369.56 105.47 369C105.31 367.11 105.33 363.65 105.41 363.12C105.5 362.5 105.88 361.96 106.42 361.66L164.32 321.41C163.39 317.06 164.43 320.16 163.37 315.89C163.37 314.65 158.81 287.81 159.01 279.59L158.24 191.14L137.97 191.07C137.64 193.52 136.91 198.1 136 198.1C134.76 198.1 134.43 191.06 134.43 191.06L125.69 191.03C125.69 191.03 121.73 192.14 116.21 193.68C115.96 195.73 115.16 201.49 114.14 201.49C113.03 201.49 112.65 195.88 112.58 194.69C105.05 196.78 95.89 199.3 89.7 200.93C89.38 203.33 88.64 208.12 87.71 208.12C86.72 208.12 86.31 203.66 86.18 201.84C84.26 202.32 83 202.61 82.71 202.61C82.67 202.61 82.65 202.61 82.65 202.59L73.71 205.49L15.24 224.62L13.58 224.56L-9.53674e-06 231.24V226.71L10.05 214.07C9.87999 213.24 11.38 212.08 13.03 208.48L118.81 152.21C119.31 151.96 120.77 151.16 120.77 151.16C120.77 151.16 122.84 150.24 122.65 147.67C122.43 147.69 122.22 147.7 122.02 147.7C118.89 147.7 118.78 145.37 118.36 144.62C115.99 135.9 116.48 123.14 117.2 114.69C117.25 112.81 119.3 109.35 121.93 109.35H137.36C139.98 109.35 141.67 112.81 141.72 114.69C142.15 121.7 141.71 133.47 140.27 139.38C145.42 135.41 153.85 128.01 157.94 122.24C157.94 122.24 158.71 55.8499 159.17 53.7499C162.04 27.3399 172.96 0.179932 179.5 0.179932ZM179.5 -3.82007C177.58 -3.82007 171.75 -3.82007 164.23 15.6199C159.87 26.8899 156.57 40.6299 155.19 53.3199H155.2C154.85 56.9399 154.43 79.6399 153.95 120.9C151.87 123.6 148.79 126.73 145.57 129.68C145.93 124.41 145.97 118.74 145.71 114.51C145.57 110.74 142.54 105.36 137.35 105.36H121.92C116.81 105.36 113.38 110.69 113.2 114.45C112.42 123.69 112.02 136.58 114.49 145.68C114.56 145.92 114.64 146.15 114.75 146.38C114.76 146.42 114.78 146.45 114.79 146.49C115.16 147.55 115.63 148.4 116.17 149.09L11.15 204.96C10.38 205.37 9.75999 206.03 9.38999 206.82C8.68999 208.35 8.02999 209.34 7.50999 210.13C7.07999 210.78 6.59999 211.51 6.29999 212.36L-3.14001 224.23C-3.70001 224.94 -4.01001 225.81 -4.01001 226.72V231.25C-4.01001 232.63 -3.30001 233.92 -2.12001 234.65C-1.48001 235.05 -0.74001 235.25 -0.0100098 235.25C0.58999 235.25 1.19999 235.11 1.75999 234.84L14.44 228.6L15.1 228.62C15.1 228.62 15.19 228.62 15.23 228.62C15.65 228.62 16.07 228.55 16.47 228.42L74.94 209.29L82.75 206.76C83.48 210.31 85.15 212.11 87.7 212.11C91.46 212.11 92.62 208.26 93.28 204.11C98.04 202.84 103.91 201.23 109.11 199.79C109.46 201.73 110.46 205.48 114.13 205.48C118.04 205.48 118.94 201.22 119.37 199.17C119.53 198.4 119.68 197.58 119.8 196.82C122.89 195.96 125.23 195.3 126.23 195.02L130.77 195.04C130.77 195.04 130.77 195.09 130.77 195.11C131.03 197.02 131.72 202.09 135.99 202.09C139.46 202.09 140.71 198.82 141.4 195.08L154.26 195.12L155 279.56C154.88 285.49 156.8 298.85 158.62 310.91C158.96 313.18 159.31 315.53 159.37 316.07C159.38 316.33 159.42 316.59 159.48 316.85C159.76 317.97 159.85 318.43 159.88 318.61C159.88 318.91 159.88 319.21 159.92 319.6L104.25 358.3C102.73 359.22 101.69 360.79 101.43 362.56C101.27 363.61 101.31 367.51 101.46 369.34C101.67 371.94 103.89 373.97 106.49 373.97C106.94 373.97 107.39 373.91 107.82 373.79L168.63 357.22C168.77 357.58 168.91 357.96 169.06 358.35C170.18 361.33 171.58 365.04 172.86 368.07C174.87 372.81 176.31 375.68 179.47 375.68C182.63 375.68 184.07 372.8 186.08 368.07C187.36 365.04 188.76 361.33 189.88 358.35C190.03 357.96 190.17 357.58 190.31 357.22L251.12 373.79C251.56 373.91 252 373.97 252.45 373.97C255.06 373.97 257.27 371.93 257.48 369.34C257.63 367.51 257.67 363.61 257.51 362.54C257.26 360.8 256.21 359.22 254.7 358.3L199.04 319.6C199.08 319.21 199.09 318.91 199.08 318.61C199.11 318.43 199.21 317.97 199.48 316.85C199.54 316.59 199.58 316.33 199.59 316.07C199.64 315.53 200 313.18 200.34 310.91C202.16 298.85 204.08 285.49 203.96 279.56L204.7 195.12L217.56 195.08C218.25 198.82 219.5 202.09 222.97 202.09C227.24 202.09 227.93 197.02 228.19 195.11C228.19 195.09 228.19 195.06 228.19 195.04L232.73 195.02C233.73 195.3 236.07 195.96 239.16 196.82C239.28 197.58 239.43 198.4 239.59 199.17C240.02 201.22 240.92 205.48 244.83 205.48C248.5 205.48 249.5 201.73 249.85 199.79C255.06 201.23 260.92 202.84 265.68 204.11C266.34 208.26 267.51 212.11 271.26 212.11C273.81 212.11 275.48 210.31 276.21 206.76L284.03 209.29L342.49 228.42C342.89 228.55 343.31 228.62 343.73 228.62C343.77 228.62 343.82 228.62 343.86 228.62L344.52 228.6L357.2 234.84C357.76 235.11 358.36 235.25 358.97 235.25C359.71 235.25 360.44 235.05 361.08 234.65C362.25 233.92 362.97 232.64 362.97 231.25V226.72C362.97 225.82 362.66 224.94 362.1 224.23L352.66 212.36C352.37 211.51 351.88 210.78 351.45 210.13C350.92 209.34 350.27 208.35 349.57 206.82C349.2 206.02 348.59 205.37 347.81 204.96L242.78 149.09C243.32 148.41 243.8 147.55 244.16 146.49C244.17 146.45 244.19 146.41 244.2 146.38C244.31 146.16 244.4 145.92 244.46 145.68C246.94 136.58 246.53 123.69 245.75 114.45C245.57 110.69 242.14 105.36 237.03 105.36H221.6C216.41 105.36 213.38 110.74 213.24 114.51C212.99 118.74 213.02 124.41 213.38 129.68C210.16 126.73 207.08 123.59 205 120.9C204.52 79.6399 204.1 56.9399 203.75 53.3199H203.76C202.38 40.6299 199.09 26.8899 194.72 15.6199C187.25 -3.82007 181.42 -3.82007 179.5 -3.82007Z" fill="#231F20"/>
</g>
<defs>
<clipPath id="clip0_63_125">
<rect width="359" height="371.52" fill="white" transform="translate(0 0.179932)"/>
</clipPath>
</defs>
</svg>
