<svg width="93" height="141" viewBox="0 0 93 141" fill="none" xmlns="http://www.w3.org/2000/svg">
<g clip-path="url(#clip0_411_2)">
<path d="M45.9202 139.085C45.0402 139.085 44.4802 138.735 44.3902 134.195C44.2102 134.385 43.9702 134.385 43.6502 134.385C42.4902 134.385 42.4202 134.385 42.0802 125.135C42.2602 114.635 42.3002 114.635 43.5102 114.635C43.6902 114.635 43.8402 114.635 43.9702 114.665C43.8302 111.245 43.7202 108.305 43.6602 106.865H35.0302V108.025C35.0302 108.085 35.0302 108.145 35.0102 108.195C34.8502 109.095 34.6302 110.335 33.5602 110.335C32.4902 110.335 32.2802 109.095 32.1202 108.185C32.1202 108.125 32.1102 108.075 32.1102 108.015V101.185C32.1102 100.225 32.8902 99.445 33.8402 99.445H42.8702C42.7802 96.065 42.4802 85.155 42.3802 79.195C42.3502 77.465 42.0202 75.795 41.4002 74.235C40.2302 71.275 39.2402 67.735 38.2802 64.315C37.8902 62.925 37.5202 61.595 37.1502 60.355C27.8002 69.515 8.6402 88.265 6.1702 90.635C5.2302 91.535 4.5202 91.935 3.8702 91.935C3.4102 91.935 3.0002 91.735 2.7202 91.365C2.0502 90.485 2.3902 88.785 2.6602 87.855C2.7002 87.695 2.7902 87.545 2.9102 87.425L35.8802 53.495C35.8402 52.465 35.8302 51.425 35.8302 50.355V40.825L2.4002 6.42503C2.2802 6.30503 2.2002 6.15503 2.1502 5.99503C1.8902 5.05503 1.5502 3.35503 2.2102 2.47503C2.4902 2.10503 2.9002 1.90503 3.3602 1.90503C4.0102 1.90503 4.7202 2.30503 5.6602 3.20503C8.1602 5.59503 27.5902 24.615 35.8102 32.665V20.415C35.8102 16.835 36.8402 8.52503 46.4102 8.52503C48.8902 8.52503 50.9302 9.34503 52.4602 10.955C55.7302 14.395 55.4802 20.215 55.4702 20.465V35.115L85.3402 6.09503C85.4602 5.97503 85.6102 5.89503 85.7702 5.84503C85.8902 5.81503 86.9502 5.52503 87.8702 5.52503C89.0702 5.52503 89.5502 6.04503 89.7302 6.48503C90.1602 7.48503 89.3202 8.55503 88.5502 9.36503C85.7502 12.295 59.6802 38.915 55.4702 43.215V50.345C55.4702 51.315 55.4302 52.325 55.3502 53.365C55.4002 53.395 55.4402 53.435 55.4802 53.475C55.7902 53.795 86.6402 85.285 89.6902 88.475C90.4702 89.285 91.3002 90.345 90.8702 91.355C90.6802 91.795 90.2102 92.315 89.0102 92.315C88.0902 92.315 87.0202 92.025 86.9102 91.995C86.7502 91.955 86.6002 91.865 86.4802 91.745L54.2602 60.435C53.3302 64.765 51.9802 70.195 50.3902 74.225C49.7702 75.785 49.4402 77.455 49.4102 79.185C49.3102 85.145 49.0002 96.055 48.9002 99.435H58.6802C59.6402 99.435 60.4102 100.215 60.4102 101.175V108.005C60.4102 108.065 60.4102 108.115 60.4002 108.175C60.2502 109.085 60.0402 110.325 58.9602 110.325C57.8802 110.325 57.6702 109.085 57.5102 108.185C57.5002 108.125 57.4902 108.065 57.4902 108.015V106.855H48.8302L48.3202 114.955C48.2302 116.435 48.2602 117.925 48.4202 119.395L48.4502 119.695C48.6002 119.615 48.7702 119.575 48.9702 119.575C49.4202 119.575 49.9902 119.805 50.1902 120.915C50.3002 121.525 50.3002 122.165 50.1902 122.835C49.4902 127.285 48.8402 136.035 48.8302 136.125C48.6902 137.405 48.5802 138.495 47.5302 138.495C47.3002 138.495 47.1102 138.445 46.9602 138.345C46.7002 139.005 46.3402 139.095 45.8902 139.095L45.9202 139.085Z" fill="white"/>
<path d="M3.37006 2.91504C3.70006 2.91504 4.21006 3.19504 4.98006 3.93504C7.58006 6.42504 28.7201 27.115 36.8201 35.055V20.425C36.8201 16.955 37.8101 9.53504 46.4201 9.53504C55.0301 9.53504 54.4801 20.425 54.4801 20.425V37.485L86.0501 6.81504C86.0501 6.81504 87.0701 6.52504 87.8801 6.52504C88.8401 6.52504 89.5101 6.92504 87.8401 8.67504C85.0601 11.585 59.4701 37.705 54.4801 42.805V50.345C54.4801 51.605 54.4101 52.865 54.3001 54.115C54.5901 54.135 54.7801 54.175 54.7801 54.175C54.7801 54.175 85.9001 85.945 88.9801 89.165C90.6501 90.915 89.9801 91.315 89.0201 91.315C88.2101 91.315 87.1901 91.025 87.1901 91.025L53.6601 58.445C53.6601 58.445 53.6501 58.535 53.6401 58.575C52.7701 62.825 51.2801 69.275 49.4701 73.845C48.8001 75.535 48.4501 77.335 48.4201 79.155C48.3001 86.315 47.8801 100.425 47.8801 100.425H58.6901C59.1001 100.425 59.4201 100.755 59.4201 101.155V107.985C59.2701 108.865 59.1201 109.305 58.9701 109.305C58.8201 109.305 58.6601 108.855 58.5101 107.985V105.825H47.9101L47.3401 114.865C47.2401 116.405 47.2801 117.945 47.4401 119.485L47.7301 122.125H48.3801C48.3801 122.125 48.7101 120.545 49.0001 120.545C49.0901 120.545 49.1701 120.685 49.2301 121.065C49.3201 121.595 49.3101 122.125 49.2301 122.655C48.5201 127.195 47.8601 136.025 47.8601 136.025C47.7601 136.915 47.6601 137.465 47.5601 137.465C47.4601 137.465 47.3601 137.035 47.2601 136.025V132.905H46.4701C46.4701 136.345 46.2001 138.065 45.9301 138.065C45.6601 138.065 45.3901 136.345 45.3901 132.905V131.995L45.4601 126.095C45.4401 125.765 45.4301 125.415 45.4101 125.075H44.1601C44.0001 130.765 43.8301 133.365 43.6601 133.365C43.4701 133.365 43.2801 130.395 43.0901 125.075C43.2001 118.665 43.3401 115.605 43.5201 115.605C43.6901 115.605 43.8901 118.465 44.1201 123.915H45.3701C45.0201 115.865 44.6401 105.835 44.6401 105.835H34.0501V107.995C33.8901 108.865 33.7401 109.315 33.5901 109.315C33.4401 109.315 33.2901 108.885 33.1401 107.995V101.165C33.1401 100.755 33.4701 100.435 33.8701 100.435H43.9301C43.9301 100.435 43.5301 86.325 43.4101 79.165C43.3801 77.345 43.0301 75.545 42.3601 73.855C40.5501 69.285 39.1301 63.155 37.6801 58.585C37.6701 58.555 37.6601 58.515 37.6501 58.475C29.7901 66.175 8.13006 87.375 5.50006 89.895C4.72006 90.635 4.21006 90.915 3.89006 90.915C2.85006 90.915 3.64006 88.105 3.64006 88.105L36.9101 53.865C36.8501 52.695 36.8401 51.515 36.8401 50.345V40.405L3.12006 5.72504C3.12006 5.72504 2.33006 2.90504 3.37006 2.91504ZM3.37006 0.915039C2.60006 0.915039 1.89006 1.26504 1.42006 1.87504C0.720057 2.80504 0.640057 4.28504 1.19006 6.26504C1.28006 6.58504 1.45006 6.88504 1.68006 7.12504L34.8201 41.235V50.365C34.8201 51.295 34.8201 52.205 34.8501 53.115L2.19006 86.725C1.96006 86.965 1.79006 87.255 1.70006 87.585C1.15006 89.565 1.22006 91.045 1.93006 91.975C2.39006 92.585 3.10006 92.935 3.88006 92.935C5.07006 92.935 6.11006 92.095 6.88006 91.355C9.27006 89.075 26.9901 71.735 36.6801 62.235C36.9001 62.995 37.1201 63.785 37.3401 64.585C38.3101 68.035 39.3101 71.595 40.5001 74.595C41.0701 76.045 41.3801 77.595 41.4101 79.205C41.5101 84.655 41.7601 94.245 41.8701 98.435H33.8701C32.3601 98.435 31.1401 99.665 31.1401 101.165V107.995C31.1401 108.105 31.1401 108.215 31.1701 108.325C31.3201 109.215 31.6701 111.305 33.5901 111.305C35.5101 111.305 35.8501 109.305 36.0201 108.335C36.0401 108.215 36.0501 108.105 36.0501 107.985V107.825H42.7201C42.7701 109.225 42.8501 111.295 42.9501 113.655C41.4701 113.995 41.3901 115.715 41.2901 117.835C41.2201 119.425 41.1501 121.845 41.1001 125.025C41.1001 125.065 41.1001 125.095 41.1001 125.135C41.2001 127.855 41.3001 129.945 41.3901 131.335C41.5301 133.405 41.6501 135.205 43.4501 135.345C43.4801 135.975 43.5201 136.535 43.5801 137.005C43.6801 137.845 43.9401 140.065 45.9401 140.065C46.6001 140.065 47.0901 139.855 47.4501 139.455C47.4901 139.455 47.5301 139.455 47.5701 139.455C49.5201 139.455 49.7301 137.435 49.8601 136.235C49.8601 136.215 49.8601 136.195 49.8601 136.165C49.8601 136.075 50.5201 127.375 51.2101 122.965C51.3301 122.185 51.3301 121.435 51.2101 120.715C50.9301 119.115 49.9801 118.695 49.3801 118.585C49.2801 117.395 49.2701 116.185 49.3501 114.995L49.8001 107.835H56.5301V107.995C56.5301 108.115 56.5401 108.225 56.5601 108.345C56.7301 109.305 57.0901 111.315 58.9901 111.315C60.8901 111.315 61.2601 109.225 61.4101 108.335C61.4301 108.225 61.4401 108.115 61.4401 108.005V101.175C61.4401 99.665 60.2101 98.445 58.7101 98.445H49.9601C50.0801 94.255 50.3401 84.665 50.4401 79.215C50.4701 77.605 50.7701 76.055 51.3501 74.605C52.7601 71.045 53.9701 66.435 54.8801 62.415L85.8201 92.475C86.0601 92.705 86.3501 92.875 86.6801 92.965C86.8901 93.025 88.0201 93.325 89.0501 93.325C90.8901 93.325 91.5801 92.345 91.8301 91.755C92.5701 90.015 91.0301 88.395 90.4501 87.795C87.5201 84.725 58.9901 55.605 56.4101 52.975C56.4701 52.075 56.5001 51.205 56.5001 50.355V43.635C62.6801 37.325 86.6301 12.875 89.3001 10.075C89.8801 9.46504 91.4201 7.85504 90.6801 6.11504C90.4301 5.52504 89.7301 4.54504 87.9001 4.54504C86.8701 4.54504 85.7401 4.84504 85.5301 4.90504C85.2101 4.99504 84.91 5.16504 84.6701 5.39504L56.5001 32.765V20.475C56.5301 19.785 56.6401 13.885 53.2201 10.285C51.4901 8.46504 49.2101 7.53504 46.4401 7.53504C39.1801 7.53504 34.8401 12.355 34.8401 20.425V30.295C25.0601 20.725 8.66006 4.68504 6.37006 2.49504C5.60006 1.75504 4.56006 0.915039 3.37006 0.915039Z" fill="#231F20"/>
</g>
<defs>
<clipPath id="clip0_411_2">
<rect width="91.18" height="139.17" fill="white" transform="translate(0.830078 0.915039)"/>
</clipPath>
</defs>
</svg>
