<svg width="270" height="294" viewBox="0 0 270 294" fill="none" xmlns="http://www.w3.org/2000/svg">
<g clip-path="url(#clip0_760_329)">
<path d="M135 291.7C134.7 291.7 134.39 291.63 134.11 291.49C132.45 290.67 132.05 288.83 131.67 286.68L79.22 291.69C79.16 291.69 79.09 291.69 79.03 291.69C78.53 291.69 78.05 291.51 77.68 291.17C77.26 290.79 77.03 290.25 77.03 289.69C77.03 288.63 77.02 287.59 77.01 286.58C76.94 280.08 76.88 274.94 79.88 272.56C80.02 272.45 80.18 272.36 80.34 272.29L126.24 252.79C118.14 227.89 114.7 170.24 114.7 150.84V145.79L96.3 147.67C95.64 152.04 95.17 153.88 93.16 153.88C91.28 153.88 90.73 152.24 90.11 148.3L71.11 150.24C70.5 154.15 70.02 155.96 68.05 155.96C66.22 155.96 65.66 154.38 65.08 150.86L46.09 152.8C45.42 157.22 44.95 159.08 42.94 159.08C41.06 159.08 40.51 157.42 39.88 153.43L4.95996 156.99C4.88996 156.99 4.81996 157 4.75996 157C4.29996 157 3.83996 156.84 3.47996 156.54C3.06996 156.2 2.80996 155.7 2.75996 155.17L2.61996 153.49C1.63996 141.95 1.26996 137.64 6.47996 135.06C6.57996 135.01 6.68996 134.97 6.79996 134.94L62.3 118.35C59.78 116.45 59.78 114.05 59.78 108.62V98.05C59.78 96.24 61.77 92.48 63.8 91.11C64.13 90.89 64.52 90.77 64.92 90.77H72.24C72.64 90.77 73.03 90.89 73.36 91.11C75.39 92.48 77.38 96.24 77.38 98.05V108.62C77.38 110.82 77.38 112.52 77.21 113.89L87.57 110.79C85.41 108.93 85.41 106.51 85.41 101.35V90.78C85.41 88.97 87.4 85.21 89.43 83.84C89.76 83.62 90.15 83.5 90.55 83.5H97.87C98.27 83.5 98.66 83.62 98.99 83.84C101.02 85.21 103.01 88.97 103.01 90.78V101.35C103.01 103.34 103.01 104.92 102.89 106.21L114.71 102.68V66.26C114.71 43.68 125.25 5.35002 134.35 2.13002C134.57 2.05002 134.79 2.02002 135.02 2.02002C135.25 2.02002 135.47 2.06002 135.69 2.13002C144.8 5.35002 155.33 43.69 155.33 66.26V102.68L167.15 106.21C167.03 104.92 167.03 103.34 167.03 101.35V90.78C167.03 88.97 169.02 85.21 171.05 83.84C171.38 83.62 171.77 83.5 172.17 83.5H179.49C179.89 83.5 180.28 83.62 180.61 83.84C182.64 85.21 184.63 88.97 184.63 90.78V101.35C184.63 106.51 184.63 108.93 182.47 110.79L192.83 113.89C192.66 112.52 192.66 110.81 192.66 108.62V98.05C192.66 96.24 194.65 92.48 196.68 91.11C197.01 90.89 197.4 90.77 197.8 90.77H205.12C205.52 90.77 205.91 90.89 206.24 91.11C208.27 92.48 210.26 96.24 210.26 98.05V108.62C210.26 114.05 210.26 116.45 207.74 118.35L263.24 134.94C263.35 134.97 263.45 135.01 263.56 135.06C268.77 137.64 268.4 141.96 267.42 153.49L267.28 155.18C267.24 155.71 266.98 156.21 266.56 156.55C266.2 156.85 265.75 157.01 265.28 157.01C265.21 157.01 265.15 157.01 265.08 157L230.16 153.44C229.53 157.43 228.99 159.08 227.1 159.08C225.09 159.08 224.62 157.22 223.95 152.8L204.96 150.86C204.38 154.38 203.82 155.96 201.99 155.96C200.02 155.96 199.54 154.16 198.93 150.24L179.93 148.3C179.31 152.24 178.76 153.88 176.88 153.88C174.87 153.88 174.4 152.04 173.74 147.67L155.34 145.79V150.84C155.34 170.24 151.9 227.9 143.8 252.79L189.69 272.29C189.86 272.36 190.01 272.45 190.15 272.56C193.15 274.94 193.09 280.08 193.02 286.58C193.01 287.59 193 288.63 193 289.69C193 290.25 192.76 290.79 192.35 291.17C191.98 291.51 191.5 291.69 191 291.69C190.94 291.69 190.87 291.69 190.81 291.69L138.36 286.68C137.98 288.84 137.57 290.67 135.92 291.49C135.64 291.63 135.34 291.7 135.03 291.7H135Z" fill="white"/>
<path d="M135 3.99999C142.33 6.58999 153.31 42.39 153.31 66.25V104.16L170.51 109.3C169.01 108.02 169 106.3 169 101.34V90.77C169 89.71 170.57 86.54 172.14 85.48H179.46C181.03 86.54 182.6 89.71 182.6 90.77V101.34C182.6 107.68 182.6 108.74 179.46 110.32V111.97L197.19 117.27C194.64 115.83 194.64 114.52 194.64 108.6V98.03C194.64 96.97 196.21 93.8 197.78 92.74H205.1C206.67 93.8 208.24 96.97 208.24 98.03V108.6C208.24 114.94 208.24 116 205.1 117.58V119.63L262.64 136.83C266.82 138.9 266.3 142.54 265.25 154.99L228.43 151.24C228.04 153.92 227.5 157.07 227.06 157.07C226.62 157.07 226.06 153.7 225.66 150.96L203.24 148.67C202.86 151.22 202.37 153.95 201.95 153.95C201.53 153.95 201.02 151.02 200.63 148.4L178.19 146.11C177.8 148.78 177.27 151.87 176.83 151.87C176.39 151.87 175.84 148.55 175.44 145.83L153.29 143.57V150.83C153.29 170.54 149.63 230.55 141.26 253.9L188.87 274.13C191.49 276.21 190.96 282.43 190.96 289.69L136.68 284.5C136.16 287.12 136.03 289.17 134.99 289.69C133.94 289.17 133.82 287.12 133.3 284.5L79.0201 289.69C79.0201 282.43 78.5001 276.2 81.1101 274.13L128.72 253.9C120.35 230.56 116.69 170.54 116.69 150.83V143.57L94.5401 145.83C94.1401 148.56 93.6001 151.87 93.1501 151.87C92.7001 151.87 92.1801 148.78 91.7901 146.11L69.3501 148.4C68.9601 151.02 68.4601 153.95 68.0301 153.95C67.6001 153.95 67.1301 151.21 66.7401 148.67L44.3201 150.96C43.9201 153.7 43.3701 157.07 42.9201 157.07C42.4701 157.07 41.9501 153.93 41.5501 151.24L4.73006 154.99C3.68006 142.54 3.16006 138.91 7.34006 136.83L64.8901 119.63V117.58C61.7501 115.99 61.7501 114.94 61.7501 108.6V98.03C61.7501 96.97 63.3201 93.8 64.8901 92.74H72.2101C73.7801 93.8 75.3501 96.97 75.3501 98.03V108.6C75.3501 114.52 75.3501 115.83 72.8001 117.27L90.5301 111.97V110.32C87.3901 108.73 87.3901 107.68 87.3901 101.34V90.77C87.3901 89.71 88.9601 86.54 90.5301 85.48H97.8501C99.4201 86.54 100.99 89.71 100.99 90.77V101.34C100.99 106.3 100.99 108.03 99.4801 109.3L116.69 104.16V66.25C116.69 42.39 127.67 6.59999 135 3.99999ZM135 -9.76585e-06C134.55 -9.76585e-06 134.1 0.0799902 133.67 0.22999C128.7 1.98999 123.85 10.66 119.27 26C115.15 39.78 112.69 54.82 112.69 66.24V101.17L104.99 103.47C104.99 102.8 104.99 102.09 104.99 101.33V90.76C104.99 88.37 102.73 83.94 100.09 82.16C99.43 81.72 98.6501 81.48 97.8601 81.48H90.5401C89.7401 81.48 88.9701 81.72 88.3101 82.16C85.6701 83.94 83.4101 88.38 83.4101 90.76V101.33C83.4101 104.95 83.41 107.58 84.3101 109.66L79.3701 111.14C79.3801 110.35 79.3801 109.5 79.3801 108.6V98.03C79.3801 95.64 77.1201 91.21 74.4801 89.43C73.8201 88.99 73.0401 88.75 72.2501 88.75H64.9301C64.1301 88.75 63.3601 88.99 62.7001 89.43C60.0601 91.21 57.8001 95.65 57.8001 98.03V108.6C57.8001 112.43 57.8001 115.15 58.8601 117.28L6.25006 133C6.03006 133.06 5.82006 133.15 5.62006 133.25C2.39006 134.85 0.670055 137.36 0.200055 141.16C-0.159945 144.06 0.160055 147.87 0.660055 153.65L0.800055 155.33C0.890055 156.4 1.41006 157.39 2.23006 158.07C2.95006 158.67 3.86006 158.99 4.78006 158.99C4.91006 158.99 5.05006 158.99 5.19006 158.97L38.2801 155.6C38.3101 155.73 38.3301 155.86 38.3601 155.99C38.6801 157.51 39.4401 161.07 42.9701 161.07C46.5001 161.07 47.2901 157.41 47.6101 155.85C47.6901 155.47 47.7701 155.05 47.8401 154.63L63.5001 153.03C64.1601 155.9 65.2701 157.96 68.0801 157.96C71.6001 157.96 72.3701 154.36 72.6601 153.01C72.7201 152.73 72.7801 152.42 72.8501 152.08L88.5101 150.48C88.5301 150.6 88.5601 150.72 88.5801 150.83C88.8701 152.21 89.6501 155.88 93.1901 155.88C96.7301 155.88 97.5001 152.24 97.8201 150.69C97.9001 150.32 97.9701 149.92 98.0501 149.51L112.74 148.01V150.84C112.74 169.89 116.06 225.67 123.83 251.66L79.6001 270.46C79.2701 270.6 78.9601 270.78 78.6801 271.01C74.9101 274 74.9701 279.57 75.0501 286.62C75.0601 287.62 75.0701 288.65 75.0701 289.71C75.0701 290.84 75.55 291.91 76.3801 292.67C77.12 293.34 78.0801 293.71 79.0701 293.71C79.2001 293.71 79.3201 293.71 79.4501 293.69L130.12 288.85C130.58 290.65 131.37 292.35 133.27 293.29C133.83 293.57 134.44 293.71 135.05 293.71C135.66 293.71 136.27 293.57 136.83 293.29C138.72 292.35 139.52 290.65 139.98 288.85L190.65 293.69C190.78 293.7 190.9 293.71 191.03 293.71C192.02 293.71 192.98 293.34 193.72 292.67C194.55 291.91 195.03 290.84 195.03 289.71C195.03 288.66 195.04 287.62 195.05 286.62C195.13 279.57 195.19 274 191.42 271.01C191.14 270.79 190.83 270.6 190.5 270.46L146.27 251.66C154.05 225.67 157.36 169.89 157.36 150.84V148.01L172.04 149.51C172.11 149.92 172.19 150.32 172.27 150.69C172.59 152.24 173.34 155.88 176.9 155.88C180.46 155.88 181.21 152.21 181.51 150.83C181.53 150.72 181.56 150.6 181.58 150.47L197.24 152.07C197.3 152.41 197.36 152.71 197.43 153C197.72 154.35 198.49 157.95 202.01 157.95C204.82 157.95 205.93 155.9 206.59 153.02L222.25 154.62C222.32 155.04 222.4 155.46 222.48 155.84C222.8 157.4 223.55 161.06 227.12 161.06C230.69 161.06 231.41 157.5 231.73 155.98C231.76 155.86 231.78 155.73 231.81 155.59L264.9 158.96C265.04 158.97 265.17 158.98 265.31 158.98C266.24 158.98 267.14 158.66 267.86 158.06C268.69 157.37 269.2 156.39 269.29 155.32L269.43 153.64C269.92 147.86 270.25 144.05 269.89 141.15C269.42 137.36 267.7 134.84 264.47 133.24C264.27 133.14 264.06 133.06 263.84 132.99L211.23 117.27C212.29 115.14 212.29 112.42 212.29 108.59V98.02C212.29 95.63 210.03 91.2 207.39 89.42C206.73 88.98 205.95 88.74 205.15 88.74H197.83C197.03 88.74 196.26 88.98 195.6 89.42C192.96 91.2 190.7 95.64 190.7 98.02V108.59C190.7 109.5 190.7 110.34 190.71 111.13L185.77 109.65C186.67 107.57 186.67 104.94 186.67 101.32V90.75C186.67 88.36 184.41 83.93 181.77 82.15C181.11 81.71 180.33 81.47 179.54 81.47H172.22C171.42 81.47 170.65 81.71 169.98 82.15C167.34 83.93 165.08 88.37 165.08 90.75V101.32C165.08 102.08 165.08 102.79 165.08 103.46L157.38 101.16V66.23C157.38 54.81 154.92 39.76 150.8 25.99C146.22 10.65 141.37 1.97999 136.4 0.21999C135.97 0.0699902 135.52 -0.0100098 135.07 -0.0100098L135 -9.76585e-06Z" fill="black"/>
</g>
<defs>
<clipPath id="clip0_760_329">
<rect width="270" height="293.7" fill="white"/>
</clipPath>
</defs>
</svg>
