<svg width="270" height="319" viewBox="0 0 270 319" fill="none" xmlns="http://www.w3.org/2000/svg">
<g clip-path="url(#clip0_760_332)">
<path d="M190.78 316.2L138.33 311.19C137.95 313.35 137.54 315.18 135.89 316C135.61 316.14 135.31 316.21 135 316.21C134.69 316.21 134.39 316.14 134.11 316C132.45 315.18 132.05 313.34 131.67 311.19L79.22 316.2C79.16 316.2 79.09 316.2 79.03 316.2C78.53 316.2 78.05 316.02 77.68 315.68C77.26 315.3 77.03 314.76 77.03 314.2C77.03 313.14 77.02 312.1 77.01 311.09C76.94 304.59 76.88 299.45 79.88 297.07C80.02 296.96 80.18 296.87 80.34 296.8L126.24 277.29C118.17 251.81 114.69 179.47 114.69 159.25V154.2L96.29 156.08C95.63 160.45 95.16 162.29 93.15 162.29C91.27 162.29 90.72 160.65 90.1 156.71L71.1 158.65C70.49 162.56 70.01 164.37 68.04 164.37C66.21 164.37 65.65 162.79 65.07 159.27L46.08 161.21C45.41 165.63 44.94 167.49 42.93 167.49C41.05 167.49 40.5 165.83 39.87 161.84L4.95001 165.4C4.88001 165.4 4.81001 165.41 4.75001 165.41C4.29001 165.41 3.83001 165.25 3.47001 164.95C3.06001 164.61 2.80001 164.11 2.75001 163.58L2.61001 161.9C1.63001 150.36 1.26001 146.05 6.47001 143.47C6.57001 143.42 6.68001 143.38 6.79001 143.35L62.29 126.76C59.77 124.86 59.77 122.46 59.77 117.03V106.46C59.77 104.65 61.76 100.89 63.79 99.52C64.12 99.3 64.51 99.18 64.91 99.18H72.23C72.63 99.18 73.02 99.3 73.35 99.52C75.38 100.89 77.37 104.65 77.37 106.46V117.03C77.37 119.23 77.37 120.93 77.2 122.3L87.56 119.2C85.4 117.34 85.4 114.92 85.4 109.76V99.19C85.4 97.38 87.39 93.62 89.42 92.25C89.75 92.03 90.14 91.91 90.54 91.91H97.86C98.26 91.91 98.65 92.03 98.98 92.25C101.01 93.62 103 97.38 103 99.19V109.76C103 111.75 103 113.33 102.88 114.62L114.7 111.09V66.25C114.7 43.67 125.24 5.34001 134.34 2.12001C134.56 2.04001 134.78 2.01001 135.01 2.01001C135.24 2.01001 135.46 2.05001 135.68 2.12001C144.79 5.34001 155.32 43.68 155.32 66.25V111.09L167.14 114.62C167.02 113.33 167.02 111.75 167.02 109.76V99.19C167.02 97.38 169.01 93.62 171.04 92.25C171.37 92.03 171.76 91.91 172.16 91.91H179.48C179.88 91.91 180.27 92.03 180.6 92.25C182.63 93.62 184.62 97.38 184.62 99.19V109.76C184.62 114.92 184.62 117.34 182.46 119.2L192.82 122.3C192.65 120.93 192.65 119.22 192.65 117.03V106.46C192.65 104.65 194.64 100.89 196.67 99.52C197 99.3 197.39 99.18 197.79 99.18H205.11C205.51 99.18 205.9 99.3 206.23 99.52C208.26 100.89 210.25 104.65 210.25 106.46V117.03C210.25 122.46 210.25 124.86 207.73 126.76L263.23 143.35C263.34 143.38 263.44 143.42 263.55 143.47C268.76 146.05 268.39 150.37 267.41 161.9L267.27 163.58C267.23 164.11 266.97 164.61 266.55 164.95C266.19 165.25 265.74 165.41 265.27 165.41C265.2 165.41 265.14 165.41 265.07 165.4L230.15 161.84C229.52 165.83 228.98 167.48 227.09 167.48C225.08 167.48 224.61 165.62 223.94 161.2L204.95 159.26C204.37 162.78 203.81 164.36 201.98 164.36C200.01 164.36 199.53 162.56 198.92 158.64L179.92 156.7C179.3 160.64 178.75 162.28 176.87 162.28C174.86 162.28 174.39 160.44 173.73 156.07L155.33 154.19V159.24C155.33 179.46 151.85 251.79 143.78 277.28L189.68 296.79C189.85 296.86 190 296.95 190.14 297.06C193.14 299.44 193.08 304.58 193.01 311.08C193 312.09 192.99 313.13 192.99 314.19C192.99 314.75 192.75 315.29 192.34 315.67C191.97 316.01 191.49 316.19 190.99 316.19C190.93 316.19 190.86 316.19 190.8 316.19L190.78 316.2Z" fill="white"/>
<path d="M135 3.99999C142.33 6.58999 153.31 42.39 153.31 66.25V112.58L170.51 117.72C169.01 116.44 169 114.72 169 109.76V99.19C169 98.13 170.57 94.96 172.14 93.9H179.46C181.03 94.96 182.6 98.13 182.6 99.19V109.76C182.6 116.1 182.6 117.16 179.46 118.74V120.39L197.19 125.69C194.64 124.25 194.64 122.94 194.64 117.02V106.45C194.64 105.39 196.21 102.22 197.78 101.16H205.1C206.67 102.22 208.24 105.39 208.24 106.45V117.02C208.24 123.36 208.24 124.42 205.1 126V128.05L262.64 145.25C266.82 147.32 266.3 150.96 265.25 163.41L228.43 159.66C228.04 162.34 227.5 165.49 227.06 165.49C226.62 165.49 226.06 162.12 225.66 159.38L203.24 157.09C202.86 159.64 202.37 162.37 201.95 162.37C201.53 162.37 201.02 159.44 200.63 156.82L178.19 154.53C177.8 157.2 177.27 160.29 176.83 160.29C176.39 160.29 175.84 156.97 175.44 154.25L153.29 151.99V159.25C153.29 178.96 149.63 255.06 141.26 278.4L188.87 298.63C191.48 300.71 190.96 306.93 190.96 314.19L136.68 309C136.16 311.62 136.03 313.67 134.99 314.19C133.94 313.67 133.82 311.62 133.3 309L79.02 314.19C79.02 306.93 78.5 300.7 81.11 298.63L128.72 278.4C120.35 255.06 116.69 178.96 116.69 159.25V151.99L94.54 154.25C94.14 156.98 93.6 160.29 93.15 160.29C92.7 160.29 92.18 157.2 91.79 154.53L69.35 156.82C68.96 159.44 68.46 162.37 68.03 162.37C67.6 162.37 67.13 159.63 66.74 157.09L44.32 159.38C43.92 162.12 43.37 165.49 42.92 165.49C42.47 165.49 41.95 162.35 41.55 159.66L4.72999 163.41C3.67999 150.96 3.15999 147.33 7.33999 145.25L64.89 128.05V126C61.75 124.41 61.75 123.36 61.75 117.02V106.45C61.75 105.39 63.32 102.22 64.89 101.16H72.21C73.78 102.22 75.35 105.39 75.35 106.45V117.02C75.35 122.94 75.35 124.25 72.8 125.69L90.53 120.39V118.74C87.39 117.15 87.39 116.1 87.39 109.76V99.19C87.39 98.13 88.96 94.96 90.53 93.9H97.85C99.42 94.96 100.99 98.13 100.99 99.19V109.76C100.99 114.72 100.99 116.45 99.48 117.72L116.69 112.58V66.25C116.69 42.39 127.67 6.59999 135 3.99999ZM135 -9.76585e-06C134.55 -9.76585e-06 134.1 0.0799902 133.67 0.22999C128.7 1.98999 123.85 10.66 119.27 26C115.15 39.78 112.69 54.82 112.69 66.24V109.59L104.99 111.89C104.99 111.22 104.99 110.51 104.99 109.75V99.18C104.99 96.79 102.73 92.36 100.09 90.58C99.43 90.14 98.65 89.9 97.86 89.9H90.54C89.74 89.9 88.97 90.14 88.31 90.58C85.67 92.36 83.41 96.8 83.41 99.18V109.75C83.41 113.37 83.41 116 84.31 118.08L79.37 119.56C79.38 118.77 79.38 117.92 79.38 117.02V106.45C79.38 104.06 77.12 99.63 74.48 97.85C73.82 97.41 73.04 97.17 72.25 97.17H64.93C64.13 97.17 63.36 97.41 62.7 97.85C60.06 99.63 57.8 104.07 57.8 106.45V117.02C57.8 120.85 57.8 123.57 58.86 125.7L6.24999 141.42C6.02999 141.48 5.81999 141.57 5.61999 141.67C2.38999 143.27 0.669994 145.78 0.199994 149.58C-0.160006 152.48 0.159994 156.29 0.659994 162.07L0.799994 163.75C0.889994 164.82 1.40999 165.81 2.22999 166.49C2.94999 167.09 3.85999 167.41 4.77999 167.41C4.90999 167.41 5.04999 167.41 5.18999 167.39L38.28 164.02C38.31 164.15 38.33 164.28 38.36 164.41C38.68 165.93 39.44 169.49 42.97 169.49C46.5 169.49 47.29 165.83 47.61 164.27C47.69 163.89 47.77 163.47 47.84 163.05L63.5 161.45C64.16 164.32 65.27 166.38 68.08 166.38C71.6 166.38 72.37 162.78 72.66 161.43C72.72 161.15 72.78 160.84 72.85 160.5L88.51 158.9C88.53 159.02 88.56 159.14 88.58 159.25C88.87 160.63 89.65 164.3 93.19 164.3C96.73 164.3 97.5 160.66 97.82 159.11C97.9 158.74 97.97 158.34 98.05 157.93L112.74 156.43V159.26C112.74 179.11 116.1 249.01 123.86 276.16L79.6 294.97C79.27 295.11 78.96 295.29 78.68 295.52C74.91 298.51 74.97 304.08 75.05 311.13C75.06 312.13 75.07 313.16 75.07 314.22C75.07 315.35 75.55 316.42 76.38 317.18C77.12 317.85 78.08 318.22 79.07 318.22C79.2 318.22 79.32 318.22 79.45 318.2L130.12 313.36C130.58 315.16 131.37 316.86 133.27 317.8C133.83 318.08 134.44 318.22 135.05 318.22C135.66 318.22 136.27 318.08 136.83 317.8C138.72 316.86 139.52 315.16 139.98 313.36L190.65 318.2C190.78 318.21 190.9 318.22 191.03 318.22C192.02 318.22 192.98 317.85 193.72 317.18C194.55 316.42 195.03 315.35 195.03 314.22C195.03 313.17 195.04 312.13 195.05 311.13C195.13 304.08 195.19 298.51 191.42 295.52C191.14 295.3 190.83 295.11 190.5 294.97L146.24 276.16C154 249.01 157.36 179.11 157.36 159.26V156.43L172.04 157.93C172.11 158.34 172.19 158.74 172.27 159.11C172.59 160.66 173.34 164.3 176.9 164.3C180.46 164.3 181.21 160.63 181.51 159.25C181.53 159.14 181.56 159.02 181.58 158.89L197.24 160.49C197.3 160.83 197.36 161.13 197.43 161.42C197.72 162.77 198.49 166.37 202.01 166.37C204.82 166.37 205.93 164.32 206.59 161.44L222.25 163.04C222.32 163.46 222.4 163.88 222.48 164.26C222.8 165.82 223.55 169.48 227.12 169.48C230.69 169.48 231.41 165.92 231.73 164.4C231.76 164.28 231.78 164.15 231.81 164.01L264.9 167.38C265.04 167.39 265.17 167.4 265.31 167.4C266.24 167.4 267.14 167.08 267.86 166.48C268.69 165.79 269.2 164.81 269.29 163.74L269.43 162.06C269.92 156.28 270.25 152.47 269.89 149.57C269.42 145.78 267.7 143.26 264.47 141.66C264.27 141.56 264.06 141.48 263.84 141.41L211.23 125.69C212.29 123.56 212.29 120.84 212.29 117.01V106.44C212.29 104.05 210.03 99.62 207.39 97.84C206.73 97.4 205.95 97.16 205.15 97.16H197.83C197.03 97.16 196.26 97.4 195.59 97.84C192.95 99.62 190.69 104.06 190.69 106.44V117.01C190.69 117.92 190.69 118.76 190.7 119.55L185.76 118.07C186.66 115.99 186.66 113.36 186.66 109.74V99.17C186.66 96.78 184.4 92.35 181.76 90.57C181.1 90.13 180.32 89.89 179.53 89.89H172.21C171.41 89.89 170.64 90.13 169.97 90.57C167.33 92.35 165.07 96.79 165.07 99.17V109.74C165.07 110.5 165.07 111.21 165.07 111.88L157.37 109.58V66.23C157.37 54.81 154.91 39.76 150.79 25.99C146.21 10.65 141.36 1.97999 136.39 0.21999C135.96 0.0699902 135.51 -0.0100098 135.06 -0.0100098L135 -9.76585e-06Z" fill="black"/>
</g>
<defs>
<clipPath id="clip0_760_332">
<rect width="270" height="318.21" fill="white"/>
</clipPath>
</defs>
</svg>
