<svg width="407" height="424" viewBox="0 0 407 424" fill="none" xmlns="http://www.w3.org/2000/svg">
<g clip-path="url(#clip0_893_174)">
<path d="M262.18 421.21C261.97 421.21 261.76 421.18 261.55 421.11L207.56 403.07C206.99 407.15 206.18 411.28 204.77 413.89C204.42 414.53 203.75 414.94 203.01 414.94C202.27 414.94 201.6 414.54 201.25 413.89C199.84 411.28 199.03 407.15 198.46 403.07L144.47 421.11C144.26 421.18 144.05 421.21 143.84 421.21C143.02 421.21 142.26 420.7 141.96 419.89C139.04 411.87 139.62 399.37 141.96 393.16C142.08 392.84 142.28 392.56 142.54 392.34L189.35 352.59C184.58 322.69 182.07 296.53 182.07 276.86V265.21C181.4 258.87 181.2 253.47 181.03 248.7C180.5 234.3 180.02 230.54 171.88 230.54H167.65L74.1 273.97L21.94 298.26L6.45003 306.32C6.16003 306.47 5.84003 306.55 5.53003 306.55C5.22003 306.55 4.88003 306.47 4.58003 306.31C4.00003 306 3.61003 305.42 3.54003 304.76C3.41003 303.56 3.28003 302.35 3.14003 301.13C1.82003 289.42 0.450026 277.31 6.85003 269.59C6.94003 269.48 7.04003 269.38 7.15003 269.3L53.64 232.63C51.73 217.96 50.95 207.59 55 191.26C55.22 190.37 56.02 189.74 56.94 189.74H67.81C68.73 189.74 69.53 190.37 69.75 191.26C72.1 200.73 72.97 208.68 72.57 217.7L112.2 186.44C110.41 172.6 109.63 162.04 113.65 145.82C113.87 144.93 114.67 144.3 115.59 144.3H126.46C127.38 144.3 128.18 144.93 128.4 145.82C130.69 155.04 131.57 162.75 131.26 171.4L180.57 132.5L181.57 107.56V74.2097C181.57 54.6497 188.94 5.20973 202.61 2.25973C202.75 2.22973 202.89 2.21973 203.03 2.21973C203.17 2.21973 203.31 2.23973 203.45 2.25973C217.12 5.20973 224.49 54.6497 224.49 74.2097V107.64L225.49 132.49L274.8 171.39C274.49 162.74 275.37 155.03 277.66 145.81C277.88 144.92 278.68 144.29 279.6 144.29H290.47C291.39 144.29 292.19 144.92 292.41 145.81C296.43 162.03 295.66 172.59 293.86 186.43L333.48 217.69C333.09 208.67 333.96 200.72 336.31 191.25C336.53 190.36 337.33 189.73 338.25 189.73H349.12C350.04 189.73 350.84 190.36 351.06 191.25C355.11 207.58 354.33 217.95 352.42 232.62L398.91 269.29C399.02 269.38 399.12 269.48 399.21 269.58C405.6 277.3 404.24 289.41 402.91 301.12C402.77 302.34 402.64 303.55 402.51 304.75C402.44 305.41 402.05 305.99 401.47 306.3C401.18 306.46 400.85 306.54 400.52 306.54C400.19 306.54 399.89 306.46 399.6 306.31L384.03 298.21L331.94 273.96L238.39 230.53H234.16C226.02 230.53 225.54 234.3 225.01 248.69C224.83 253.46 224.63 258.85 223.97 265.2V276.85C223.97 296.51 221.45 322.67 216.69 352.58L263.5 392.33C263.76 392.55 263.96 392.83 264.08 393.15C266.43 399.36 267.01 411.86 264.08 419.88C263.79 420.69 263.02 421.2 262.2 421.2L262.18 421.21Z" fill="white"/>
<path d="M203.01 4.20996C213.91 6.55996 222.47 50.7 222.47 74.2V107.63L223.51 133.48L277.03 175.7C276.32 166.66 276.66 158.04 279.58 146.28H290.45C294.56 162.86 293.57 173.2 291.71 187.29L335.75 222.03C334.95 212.66 335.22 203.87 338.23 191.72H349.1C353.28 208.59 352.18 219.01 350.27 233.48L397.65 270.86C404.14 278.7 401.8 292.28 400.5 304.55L384.93 296.45L332.76 272.16L238.81 228.54H234.14C220.13 228.54 224.54 240.55 221.94 265.1V276.85C221.94 297.1 219.22 324.06 214.5 353.37L262.16 393.85C264.24 399.34 265.01 411.35 262.16 419.18L205.86 400.38C205.32 404.82 204.54 410.04 202.98 412.92C201.42 410.05 200.64 404.82 200.1 400.38L143.8 419.18C140.95 411.34 141.72 399.33 143.8 393.85L191.46 353.37C186.75 324.06 184.02 297.1 184.02 276.85V265.1C181.42 240.55 185.84 228.54 171.82 228.54H167.15L73.2 272.16L21.03 296.45L5.46003 304.55C4.16003 292.27 1.83003 278.69 8.31003 270.86L55.69 233.48C53.78 219.01 52.67 208.59 56.86 191.72H67.73C70.74 203.86 71.01 212.66 70.21 222.03L114.25 187.29C112.4 173.2 111.4 162.86 115.51 146.28H126.38C129.3 158.04 129.64 166.66 128.93 175.7L182.45 133.48L183.49 107.63V74.2C183.49 50.69 192.06 6.55996 202.95 4.20996M202.95 0.209961C202.67 0.209961 202.38 0.239961 202.11 0.299961C198.22 1.13996 194.81 4.66996 191.71 11.09C189.36 15.96 187.19 22.42 185.25 30.32C181.75 44.57 179.49 61.79 179.49 74.2V107.55L178.53 131.48L133.24 167.21C133.17 160.01 132.22 153.2 130.26 145.32C129.82 143.54 128.22 142.28 126.38 142.28H115.51C113.67 142.28 112.07 143.53 111.63 145.32C107.63 161.43 108.27 172.03 109.99 185.55L74.58 213.48C74.58 205.95 73.62 198.9 71.6 190.76C71.16 188.98 69.56 187.72 67.72 187.72H56.85C55.01 187.72 53.41 188.97 52.97 190.76C48.94 207.01 49.59 217.43 51.43 231.75L5.83003 267.72C5.61003 267.89 5.41003 268.09 5.23003 268.31C-1.70997 276.69 -0.289968 289.23 1.08003 301.35C1.22003 302.56 1.35003 303.77 1.48003 304.97C1.62003 306.29 2.40003 307.45 3.56003 308.07C4.15003 308.39 4.80003 308.55 5.45003 308.55C6.10003 308.55 6.72003 308.4 7.30003 308.1L22.8 300.04L74.89 275.79L168.04 232.55H171.83C176.35 232.55 176.96 233.97 177.44 235.12C178.57 237.78 178.75 242.64 178.98 248.79C179.15 253.33 179.36 258.96 180.02 265.33V276.87C180.02 296.39 182.48 322.26 187.15 351.8L141.2 390.82C140.68 391.26 140.29 391.82 140.05 392.45C137.53 399.12 136.92 412.01 140.03 420.57C140.62 422.19 142.15 423.2 143.79 423.2C144.21 423.2 144.64 423.13 145.06 422.99L196.8 405.71C197.38 409.22 198.18 412.48 199.45 414.83C200.15 416.12 201.5 416.92 202.97 416.92C204.44 416.92 205.79 416.12 206.49 414.83C207.77 412.48 208.56 409.22 209.14 405.71L260.88 422.99C261.3 423.13 261.73 423.2 262.15 423.2C263.79 423.2 265.32 422.19 265.91 420.57C269.03 412.01 268.42 399.12 265.89 392.45C265.65 391.82 265.25 391.26 264.74 390.82L218.79 351.8C223.46 322.26 225.92 296.39 225.92 276.87V265.33C226.58 258.96 226.79 253.33 226.96 248.79C227.19 242.64 227.37 237.78 228.5 235.12C228.99 233.98 229.59 232.55 234.11 232.55H237.9L331.05 275.79L383.13 300.04L398.62 308.1C399.2 308.4 399.83 308.55 400.47 308.55C401.11 308.55 401.77 308.39 402.36 308.07C403.53 307.44 404.31 306.28 404.44 304.97C404.57 303.77 404.7 302.56 404.84 301.35C406.21 289.22 407.62 276.68 400.69 268.31C400.51 268.09 400.31 267.9 400.09 267.72L354.49 231.75C356.33 217.44 356.98 207.01 352.95 190.76C352.51 188.98 350.91 187.72 349.07 187.72H338.2C336.36 187.72 334.76 188.97 334.32 190.76C332.3 198.9 331.35 205.95 331.34 213.48L295.93 185.55C297.65 172.03 298.29 161.43 294.29 145.32C293.85 143.54 292.25 142.28 290.41 142.28H279.54C277.7 142.28 276.1 143.53 275.66 145.32C273.7 153.21 272.75 160.01 272.68 167.21L227.39 131.48L226.43 107.55V74.2C226.43 61.79 224.17 44.56 220.67 30.32C218.73 22.43 216.56 15.96 214.21 11.09C211.11 4.66996 207.71 1.13996 203.81 0.299961C203.53 0.239961 203.25 0.209961 202.97 0.209961L202.95 0.209961Z" fill="black"/>
</g>
<defs>
<clipPath id="clip0_893_174">
<rect width="406.02" height="423" fill="white" transform="translate(0 0.209961)"/>
</clipPath>
</defs>
</svg>
