<svg width="407" height="424" viewBox="0 0 407 424" fill="none" xmlns="http://www.w3.org/2000/svg">
<g clip-path="url(#clip0_1_398)">
<path d="M262.68 421.6C262.47 421.6 262.26 421.57 262.05 421.5L208.06 403.46C207.49 407.54 206.68 411.67 205.27 414.28C204.92 414.92 204.25 415.33 203.51 415.33C202.77 415.33 202.1 414.93 201.75 414.28C200.34 411.67 199.53 407.54 198.96 403.46L144.97 421.5C144.76 421.57 144.55 421.6 144.34 421.6C143.52 421.6 142.76 421.09 142.46 420.28C139.54 412.26 140.12 399.76 142.46 393.55C142.58 393.23 142.78 392.95 143.04 392.73L189.85 352.98C185.08 323.08 182.57 296.92 182.57 277.25V265.6C181.9 259.26 181.7 253.86 181.53 249.09C181 234.69 180.52 230.93 172.38 230.93H168.15L74.5999 274.36L22.4399 298.65L6.9499 306.71C6.6599 306.86 6.3399 306.94 6.0299 306.94C5.7199 306.94 5.3799 306.86 5.0799 306.7C4.4999 306.39 4.1099 305.81 4.0399 305.15C3.9099 303.95 3.7799 302.74 3.6399 301.52C2.3199 289.81 0.949903 277.7 7.3499 269.98C7.4399 269.87 7.5399 269.77 7.6499 269.69L54.1399 233.02C52.2299 218.35 51.4499 207.98 55.4999 191.65C55.7199 190.76 56.5199 190.13 57.4399 190.13H68.3099C69.2299 190.13 70.0299 190.76 70.2499 191.65C72.5999 201.12 73.4699 209.07 73.0699 218.09L112.7 186.83C110.91 172.99 110.13 162.43 114.15 146.21C114.37 145.32 115.17 144.69 116.09 144.69H126.96C127.88 144.69 128.68 145.32 128.9 146.21C131.19 155.43 132.07 163.14 131.76 171.79L181.07 132.89L182.07 107.95V74.6001C182.07 55.0401 189.44 5.60011 203.11 2.65011C203.25 2.62011 203.39 2.61011 203.53 2.61011C203.67 2.61011 203.81 2.63011 203.95 2.65011C217.62 5.60011 224.99 55.0401 224.99 74.6001V108.03L225.99 132.88L275.3 171.78C274.99 163.13 275.87 155.42 278.16 146.2C278.38 145.31 279.18 144.68 280.1 144.68H290.97C291.89 144.68 292.69 145.31 292.91 146.2C296.93 162.42 296.16 172.98 294.36 186.82L333.98 218.08C333.59 209.06 334.46 201.11 336.81 191.64C337.03 190.75 337.83 190.12 338.75 190.12H349.62C350.54 190.12 351.34 190.75 351.56 191.64C355.61 207.97 354.83 218.34 352.92 233.01L399.41 269.68C399.52 269.77 399.62 269.87 399.71 269.97C406.1 277.69 404.74 289.8 403.41 301.51C403.27 302.73 403.14 303.94 403.01 305.14C402.94 305.8 402.55 306.38 401.97 306.69C401.68 306.85 401.35 306.93 401.02 306.93C400.69 306.93 400.39 306.85 400.1 306.7L384.53 298.6L332.44 274.35L238.89 230.92H234.66C226.52 230.92 226.04 234.69 225.51 249.08C225.33 253.85 225.13 259.24 224.47 265.59V277.24C224.47 296.9 221.95 323.06 217.19 352.97L264 392.72C264.26 392.94 264.46 393.22 264.58 393.54C266.93 399.75 267.51 412.25 264.58 420.27C264.29 421.08 263.52 421.59 262.7 421.59L262.68 421.6Z" fill="white"/>
<path d="M203.51 4.6001C214.41 6.9501 222.97 51.0901 222.97 74.5901V108.02L224.01 133.87L277.53 176.09C276.82 167.05 277.16 158.43 280.08 146.67H290.95C295.06 163.25 294.07 173.59 292.21 187.68L336.25 222.42C335.45 213.05 335.72 204.26 338.73 192.11H349.6C353.78 208.98 352.68 219.4 350.77 233.87L398.15 271.25C404.64 279.09 402.3 292.67 401 304.94L385.43 296.84L333.26 272.55L239.31 228.93H234.64C220.63 228.93 225.04 240.94 222.44 265.49V277.24C222.44 297.49 219.72 324.45 215 353.76L262.66 394.24C264.74 399.73 265.51 411.74 262.66 419.57L206.36 400.77C205.82 405.21 205.04 410.43 203.48 413.31C201.92 410.44 201.14 405.21 200.6 400.77L144.3 419.57C141.45 411.73 142.22 399.72 144.3 394.24L191.96 353.76C187.25 324.45 184.52 297.49 184.52 277.24V265.49C181.92 240.94 186.34 228.93 172.32 228.93H167.65L73.6999 272.55L21.5299 296.84L5.95991 304.94C4.65991 292.66 2.32991 279.08 8.80991 271.25L56.1899 233.87C54.2799 219.4 53.1699 208.98 57.3599 192.11H68.2299C71.2399 204.25 71.5099 213.05 70.7099 222.42L114.75 187.68C112.9 173.59 111.9 163.25 116.01 146.67H126.88C129.8 158.43 130.14 167.05 129.43 176.09L182.95 133.87L183.99 108.02V74.5901C183.99 51.0801 192.56 6.9501 203.45 4.6001M203.45 0.600098C203.17 0.600098 202.88 0.630098 202.61 0.690098C198.72 1.5301 195.31 5.0601 192.21 11.4801C189.86 16.3501 187.69 22.8101 185.75 30.7101C182.25 44.9601 179.99 62.1801 179.99 74.5901V107.94L179.03 131.87L133.74 167.6C133.67 160.4 132.72 153.59 130.76 145.71C130.32 143.93 128.72 142.67 126.88 142.67H116.01C114.17 142.67 112.57 143.92 112.13 145.71C108.13 161.82 108.77 172.42 110.49 185.94L75.0799 213.87C75.0799 206.34 74.1199 199.29 72.0999 191.15C71.6599 189.37 70.0599 188.11 68.2199 188.11H57.3499C55.5099 188.11 53.9099 189.36 53.4699 191.15C49.4399 207.4 50.0899 217.82 51.9299 232.14L6.32991 268.11C6.10991 268.28 5.90991 268.48 5.72991 268.7C-1.21009 277.08 0.20991 289.62 1.57991 301.74C1.71991 302.95 1.84991 304.16 1.97991 305.36C2.11991 306.68 2.89991 307.84 4.05991 308.46C4.64991 308.78 5.29991 308.94 5.94991 308.94C6.59991 308.94 7.21991 308.79 7.79991 308.49L23.2999 300.43L75.3899 276.18L168.54 232.94H172.33C176.85 232.94 177.46 234.36 177.94 235.51C179.07 238.17 179.25 243.03 179.48 249.18C179.65 253.72 179.86 259.35 180.52 265.72V277.26C180.52 296.78 182.98 322.65 187.65 352.19L141.7 391.21C141.18 391.65 140.79 392.21 140.55 392.84C138.03 399.51 137.42 412.4 140.53 420.96C141.12 422.58 142.65 423.59 144.29 423.59C144.71 423.59 145.14 423.52 145.56 423.38L197.3 406.1C197.88 409.61 198.68 412.87 199.95 415.22C200.65 416.51 202 417.31 203.47 417.31C204.94 417.31 206.29 416.51 206.99 415.22C208.27 412.87 209.06 409.61 209.64 406.1L261.38 423.38C261.8 423.52 262.23 423.59 262.65 423.59C264.29 423.59 265.82 422.58 266.41 420.96C269.53 412.4 268.92 399.51 266.39 392.84C266.15 392.21 265.75 391.65 265.24 391.21L219.29 352.19C223.96 322.65 226.42 296.78 226.42 277.26V265.72C227.08 259.35 227.29 253.72 227.46 249.18C227.69 243.03 227.87 238.17 229 235.51C229.49 234.37 230.09 232.94 234.61 232.94H238.4L331.55 276.18L383.63 300.43L399.12 308.49C399.7 308.79 400.33 308.94 400.97 308.94C401.61 308.94 402.27 308.78 402.86 308.46C404.03 307.83 404.81 306.67 404.94 305.36C405.07 304.16 405.2 302.95 405.34 301.74C406.71 289.61 408.12 277.07 401.19 268.7C401.01 268.48 400.81 268.29 400.59 268.11L354.99 232.14C356.83 217.83 357.48 207.4 353.45 191.15C353.01 189.37 351.41 188.11 349.57 188.11H338.7C336.86 188.11 335.26 189.36 334.82 191.15C332.8 199.29 331.85 206.34 331.84 213.87L296.43 185.94C298.15 172.42 298.79 161.82 294.79 145.71C294.35 143.93 292.75 142.67 290.91 142.67H280.04C278.2 142.67 276.6 143.92 276.16 145.71C274.2 153.6 273.25 160.4 273.18 167.6L227.89 131.87L226.93 107.94V74.5901C226.93 62.1801 224.67 44.9501 221.17 30.7101C219.23 22.8201 217.06 16.3501 214.71 11.4801C211.61 5.0601 208.21 1.5301 204.31 0.690098C204.03 0.630098 203.75 0.600098 203.47 0.600098L203.45 0.600098Z" fill="black"/>
</g>
<defs>
<clipPath id="clip0_1_398">
<rect width="406.02" height="423" fill="white" transform="translate(0.5 0.600098)"/>
</clipPath>
</defs>
</svg>
