<svg width="337" height="420" viewBox="0 0 337 420" fill="none" xmlns="http://www.w3.org/2000/svg">
<g clip-path="url(#clip0_893_161)">
<path d="M225.96 417.07C225.71 417.07 225.47 417.03 225.24 416.93L174.08 397.04C173.91 403.13 173 407.76 168.5 407.76C164 407.76 163.09 403.13 162.92 397.04L111.76 416.93C111.53 417.02 111.28 417.07 111.04 417.07C110.64 417.07 110.25 416.95 109.91 416.72C109.37 416.35 109.04 415.73 109.04 415.07V394.13C109.04 393.56 109.29 393.01 109.71 392.63L160.18 347.97C156.89 344.54 156.19 339.11 157.28 328.09C156.49 324.23 155.7 320.45 154.94 316.77L154.06 312.55L148.24 307.58C148.18 308.88 148.12 310.21 148.06 311.57C148.01 312.6 147.19 313.43 146.16 313.48C146.16 313.48 136.97 313.94 136.94 313.94C136 313.94 135.18 313.28 134.98 312.35C129.72 287.16 126.1 257.41 130.56 251.63C131.41 250.54 132.4 250.27 133.08 250.23L143.92 249.69C143.92 249.69 144.07 249.69 144.1 249.69C145.42 249.69 146.39 250.3 147.12 251.3V226.5L146.51 226.63C145.69 230.13 143.73 230.69 142.55 230.69C141.61 230.69 140.08 230.32 139.11 228.18L121.58 231.85C120.77 235.43 118.79 236.01 117.6 236.01C116.64 236.01 115.09 235.63 114.12 233.41L111.67 233.92L101.25 238.77C100.74 241.35 99.62 242.65 97.9 242.65C97.28 242.65 96.34 242.45 95.58 241.41L69.13 253.73C68.65 256.52 67.51 257.94 65.72 257.94C64.93 257.94 63.97 257.64 63.24 256.48L4.84 283.68C4.57 283.8 4.28 283.87 4 283.87C3.62 283.87 3.25 283.76 2.93 283.56C2.35 283.19 2 282.56 2 281.87V261.26C2 256.76 3.53 253.82 7.65 250.41C7.68 250.38 7.71 250.36 7.75 250.34L102.2 181.29L147.13 137.77V80.9997C147.13 60.4797 153.58 5.19973 168.11 2.25973C168.24 2.22973 168.37 2.21973 168.51 2.21973C168.65 2.21973 168.78 2.22973 168.91 2.25973C183.44 5.19973 189.89 60.4797 189.89 80.9997V137.77L234.82 181.29L329.27 250.34C329.27 250.34 329.33 250.39 329.36 250.41C333.48 253.82 335.01 256.76 335.01 261.26V281.87C335.01 282.55 334.66 283.19 334.09 283.56C333.76 283.77 333.39 283.87 333.01 283.87C332.72 283.87 332.43 283.81 332.17 283.68L273.77 256.48C273.04 257.64 272.08 257.94 271.29 257.94C269.5 257.94 268.36 256.53 267.88 253.73L241.43 241.41C240.67 242.45 239.72 242.65 239.11 242.65C237.39 242.65 236.27 241.35 235.76 238.77L225.34 233.92L222.89 233.41C221.92 235.62 220.37 236.01 219.41 236.01C218.21 236.01 216.23 235.43 215.43 231.85L197.9 228.18C196.93 230.32 195.4 230.69 194.46 230.69C193.28 230.69 191.32 230.12 190.5 226.63L189.89 226.5V251.3C190.61 250.29 191.58 249.69 192.9 249.69C192.93 249.69 193.05 249.69 193.08 249.69L203.92 250.23C204.6 250.26 205.59 250.53 206.44 251.63C210.91 257.41 207.28 287.16 202.02 312.35C201.83 313.28 201 313.94 200.06 313.94C200.03 313.94 190.84 313.48 190.84 313.48C189.81 313.43 188.99 312.6 188.94 311.57C188.88 310.21 188.82 308.89 188.76 307.58L182.94 312.55L182.18 316.19C181.38 320.05 180.55 324.02 179.72 328.09C180.81 339.11 180.11 344.54 176.82 347.97L227.29 392.63C227.72 393.01 227.96 393.55 227.96 394.13V415.07C227.96 415.73 227.63 416.35 227.09 416.72C226.75 416.95 226.36 417.07 225.96 417.07Z" fill="white"/>
<path d="M168.5 4.20996C179.99 6.53996 187.87 55.06 187.87 80.99V138.61L233.51 182.82L328.07 251.96C331.68 254.95 332.99 257.28 332.99 261.27V281.88L272.63 253.77C272.41 254.88 272 255.96 271.26 255.96C270.2 255.96 269.82 253.78 269.69 252.4L240.4 238.76C240.17 239.77 239.77 240.67 239.08 240.67C238.1 240.67 237.7 238.8 237.54 237.43L225.94 232.03L221.47 231.09C221.22 232.42 220.65 234.02 219.37 234.02C217.78 234.02 217.29 231.52 217.14 230.18L196.5 225.86C196.24 227.17 195.67 228.7 194.42 228.7C192.86 228.7 192.36 226.31 192.2 224.96L187.86 224.05V261.53H189.7C190.07 254.75 191.05 251.69 192.88 251.69C192.91 251.69 192.94 251.69 192.96 251.69L198.38 251.96L203.8 252.23C208.2 252.45 207.24 277.48 200.04 311.94L195.48 311.71L190.92 311.48C190.79 308.68 190.67 305.98 190.56 303.4L181.1 311.48C180.01 316.75 178.85 322.29 177.68 327.99C178.99 340.95 177.68 345.27 173.74 347.93L225.95 394.13V415.07L172.1 394.13C172.1 403.1 171.11 405.76 168.49 405.76C165.87 405.76 164.88 403.1 164.88 394.13L111.03 415.07V394.13L163.24 347.93C159.3 345.27 157.99 340.95 159.3 327.99C158.13 322.29 156.97 316.74 155.88 311.48L146.42 303.4C146.31 305.98 146.19 308.68 146.06 311.48L141.5 311.71L136.94 311.94C129.75 277.48 128.78 252.44 133.18 252.23L138.6 251.96L144.02 251.69C144.02 251.69 144.08 251.69 144.1 251.69C145.93 251.69 146.9 254.75 147.28 261.53H149.12V224.05L144.78 224.96C144.62 226.31 144.11 228.7 142.56 228.7C141.31 228.7 140.74 227.17 140.48 225.86L119.84 230.18C119.69 231.51 119.2 234.02 117.61 234.02C116.34 234.02 115.77 232.42 115.51 231.09L111.04 232.03L99.44 237.43C99.28 238.8 98.89 240.67 97.9 240.67C97.22 240.67 96.82 239.77 96.58 238.76L67.29 252.4C67.16 253.78 66.78 255.96 65.72 255.96C64.98 255.96 64.57 254.89 64.35 253.77L3.99 281.88V261.27C3.99 257.28 5.3 254.95 8.92 251.96L103.48 182.82L149.12 138.61V80.99C149.12 55.06 157 6.53996 168.49 4.20996M168.49 0.209961C168.22 0.209961 167.96 0.239961 167.7 0.289961C163.59 1.11996 160.08 4.91996 156.97 11.91C154.62 17.17 152.48 24.23 150.59 32.9C147.27 48.17 145.12 67.05 145.12 80.99V136.91L100.9 179.75L6.56 248.72C6.5 248.77 6.43 248.82 6.37 248.87C2.54 252.04 0 255.36 0 261.26V281.87C0 283.24 0.7 284.51 1.85 285.24C2.5 285.66 3.25 285.87 4 285.87C4.57 285.87 5.15 285.75 5.69 285.5L62.76 258.92C63.87 259.8 65.05 259.95 65.73 259.95C67.29 259.95 69.81 259.26 70.88 255.14L95.18 243.82C96.22 244.54 97.28 244.66 97.9 244.66C99.4 244.66 101.85 244.02 102.96 240.19L112.3 235.84L113.12 235.67C114.68 237.79 116.8 238.01 117.6 238.01C118.65 238.01 121.72 237.64 123.16 233.56L138.13 230.42C139.69 232.47 141.76 232.69 142.55 232.69C143.06 232.69 144.06 232.6 145.12 232.03V247.76C144.8 247.71 144.46 247.68 144.11 247.68C144.02 247.68 143.92 247.68 143.83 247.68L138.41 247.95L132.99 248.22C131.43 248.3 130.01 249.07 128.99 250.39C128.06 251.59 125.61 254.77 126.92 272.42C127.76 283.68 129.87 297.62 133.03 312.74C133.42 314.6 135.06 315.92 136.94 315.92C137.01 315.92 137.07 315.92 137.14 315.92L141.7 315.69L146.26 315.46C148.29 315.36 149.91 313.76 150.05 311.75L152.24 313.62L152.97 317.14C153.72 320.73 154.48 324.42 155.25 328.19C154.38 337.09 154.54 343.36 157.44 347.71L108.38 391.13C107.52 391.89 107.03 392.98 107.03 394.13V415.07C107.03 416.39 107.68 417.63 108.77 418.37C109.44 418.83 110.23 419.07 111.03 419.07C111.52 419.07 112.01 418.98 112.48 418.8L161.05 399.91C161.49 404.94 163.04 409.76 168.49 409.76C173.94 409.76 175.49 404.93 175.93 399.91L224.5 418.8C224.97 418.98 225.46 419.07 225.95 419.07C226.75 419.07 227.53 418.83 228.21 418.37C229.3 417.62 229.95 416.39 229.95 415.07V394.13C229.95 392.98 229.46 391.89 228.6 391.13L179.54 347.71C182.43 343.36 182.59 337.09 181.73 328.19C182.5 324.41 183.27 320.71 184.02 317.11L184.74 313.62L186.93 311.75C187.07 313.76 188.7 315.36 190.72 315.46L195.28 315.69L199.84 315.92C199.91 315.92 199.97 315.92 200.04 315.92C201.92 315.92 203.56 314.6 203.95 312.74C207.11 297.62 209.22 283.67 210.06 272.42C211.38 254.77 208.92 251.59 207.99 250.39C206.97 249.07 205.55 248.29 203.99 248.22L198.57 247.95L193.15 247.68C193.06 247.68 192.96 247.68 192.87 247.68C192.51 247.68 192.18 247.71 191.85 247.76V232.03C192.91 232.6 193.9 232.69 194.42 232.69C195.21 232.69 197.28 232.48 198.84 230.42L213.81 233.56C215.25 237.64 218.32 238.01 219.37 238.01C220.17 238.01 222.28 237.79 223.85 235.67L224.67 235.84L234.01 240.19C235.12 244.02 237.57 244.66 239.07 244.66C239.69 244.66 240.76 244.53 241.79 243.82L266.09 255.14C267.16 259.27 269.69 259.95 271.24 259.95C271.92 259.95 273.1 259.8 274.21 258.92L331.28 285.5C331.82 285.75 332.39 285.87 332.97 285.87C333.72 285.87 334.47 285.66 335.12 285.24C336.27 284.51 336.97 283.23 336.97 281.87V261.26C336.97 255.36 334.42 252.04 330.6 248.87C330.54 248.82 330.47 248.77 330.41 248.72L236.07 179.75L191.85 136.91V80.99C191.85 67.05 189.7 48.17 186.38 32.9C184.5 24.24 182.35 17.18 180 11.91C176.88 4.91996 173.37 1.11996 169.27 0.289961C169.01 0.239961 168.74 0.209961 168.48 0.209961L168.49 0.209961Z" fill="black"/>
</g>
<defs>
<clipPath id="clip0_893_161">
<rect width="337" height="418.86" fill="white" transform="translate(0 0.209961)"/>
</clipPath>
</defs>
</svg>
