<svg width="289" height="315" viewBox="0 0 289 315" fill="none" xmlns="http://www.w3.org/2000/svg">
<g clip-path="url(#clip0_595_2638)">
<path d="M84.57 312.886C84.15 312.886 83.74 312.749 83.39 312.474C82.93 312.114 82.6301 311.575 82.58 310.973C82.12 305.93 82.12 303.087 82.58 298.319C82.64 297.664 82.9901 297.083 83.5201 296.734L129.14 267.009C126.65 258.245 123.34 243.626 123.34 238.901V175.275H105.03L104.41 183.266C104.33 184.366 103.46 185.212 102.42 185.212C101.87 185.212 101.37 185 100.83 184.725C100.13 185.581 99.22 186.258 98.3801 186.258C97.5401 186.258 96.63 185.581 95.93 184.725C95.39 185.011 94.8901 185.212 94.34 185.212C93.3 185.212 92.4301 184.366 92.3501 183.266L91.7801 175.92L86.89 177.453C86.78 178.023 86.66 178.615 86.51 179.25C86.26 180.328 86.05 181.269 85.8801 182.051C85.1701 185.264 84.85 186.734 83.04 186.734C81.23 186.734 80.91 185.264 80.2001 182.051C80.04 181.343 79.86 180.497 79.64 179.535L61.2901 184.683C61.2401 184.905 61.1901 185.127 61.1401 185.37C60.8901 186.459 60.68 187.4 60.5101 188.182C59.8001 191.395 59.4801 192.865 57.6701 192.865C55.8601 192.865 55.5401 191.395 54.8301 188.182C54.7301 187.706 54.6101 187.178 54.4801 186.596L5.13005 200.433C4.96005 200.476 4.79005 200.507 4.62005 200.507C4.18005 200.507 3.75005 200.359 3.40005 200.064C2.91005 199.662 2.62005 199.049 2.62005 198.393C2.62005 197.421 2.61005 196.501 2.60005 195.613C2.52005 188.573 2.46005 183.023 8.28005 179.715L85.18 137.188C83.84 128.235 83.15 119.926 85.7001 106.258C85.8901 105.264 86.7101 104.556 87.66 104.556H106.89C107.91 104.556 108.77 105.37 108.88 106.448C109.56 113.192 109.87 118.52 109.86 123.552L123.35 116.089V56.9768C123.35 48.2665 129.29 22.3362 133.63 14.6195L134.44 13.1713C137.51 7.67451 139.97 3.27705 143.27 2.3151C143.52 2.18825 143.8 2.11426 144.1 2.11426C144.18 2.11426 144.26 2.11426 144.34 2.12483C144.42 2.12483 144.5 2.11426 144.58 2.11426C144.88 2.11426 145.17 2.18825 145.43 2.3151C148.73 3.26648 151.18 7.66394 154.25 13.1502L155.07 14.6195C159.41 22.3362 165.35 48.2665 165.35 56.9768V116.089L178.83 123.541C178.83 118.51 179.13 113.182 179.81 106.438C179.92 105.359 180.78 104.546 181.8 104.546H201.03C201.99 104.546 202.81 105.264 202.99 106.247C205.54 119.894 204.85 128.203 203.51 137.178L280.4 179.694C286.24 183.013 286.18 188.573 286.1 195.603C286.1 196.491 286.08 197.41 286.08 198.383C286.08 199.038 285.79 199.662 285.3 200.053C284.95 200.338 284.52 200.497 284.08 200.497C283.91 200.497 283.74 200.476 283.57 200.423L234.22 186.586C234.09 187.178 233.97 187.706 233.87 188.182C233.16 191.395 232.84 192.854 231.03 192.854C229.22 192.854 228.9 191.385 228.19 188.171C228.02 187.389 227.81 186.448 227.56 185.359C227.51 185.127 227.45 184.894 227.41 184.672L209.06 179.524C208.84 180.486 208.65 181.332 208.49 182.051C207.78 185.264 207.46 186.734 205.65 186.734C203.84 186.734 203.52 185.264 202.81 182.061C202.64 181.279 202.43 180.338 202.18 179.25C202.02 178.584 201.9 177.981 201.8 177.453L196.9 175.92L196.33 183.266C196.28 183.943 195.92 184.546 195.37 184.905C195.05 185.106 194.69 185.212 194.33 185.212C194.07 185.212 193.8 185.159 193.55 185.042L192.76 184.694C192.06 185.56 191.14 186.258 190.29 186.258C189.44 186.258 188.52 185.571 187.82 184.694L187.02 185.053C186.77 185.159 186.51 185.222 186.24 185.222C185.88 185.222 185.52 185.116 185.2 184.916C184.65 184.567 184.3 183.954 184.24 183.277L183.62 175.286H165.31V238.911C165.31 243.636 162 258.256 159.51 267.019L205.13 296.744C205.66 297.093 206.01 297.674 206.07 298.33C206.53 303.097 206.53 305.941 206.07 310.983C206.02 311.586 205.72 312.135 205.26 312.484C204.91 312.748 204.5 312.896 204.08 312.896C203.94 312.896 203.8 312.886 203.66 312.854L149.13 300.455C148.09 302.907 147.14 304.429 146.11 305.243C145.74 305.719 145.19 306.015 144.56 306.015C144.48 306.015 144.4 306.015 144.32 306.004C144.24 306.004 144.16 306.015 144.08 306.015C143.46 306.015 142.9 305.708 142.53 305.243C141.51 304.419 140.55 302.907 139.51 300.455L84.98 312.854C84.84 312.886 84.7001 312.896 84.5601 312.896L84.57 312.886Z" fill="white"/>
<path d="M144.58 4.22833V4.28118C147.47 4.79915 150.12 9.98943 153.33 15.6977C157.43 22.9915 163.33 48.5729 163.33 56.9767V117.368L180.87 127.072C180.67 120.909 180.96 114.789 181.78 106.67H201.01C203.57 120.381 202.84 128.34 201.29 138.362L279.46 181.586C284.84 184.641 284.07 189.989 284.07 198.404L232.73 184.006C232.67 184.292 232.61 184.567 232.54 184.884C231.63 188.805 231.32 190.761 231.01 190.761C230.7 190.761 230.39 188.805 229.48 184.884C229.32 184.186 229.19 183.573 229.09 182.992L207.54 176.945C207.44 177.505 207.32 178.097 207.16 178.763C206.25 182.685 205.94 184.641 205.63 184.641C205.32 184.641 205.01 182.685 204.1 178.763C203.83 177.622 203.66 176.66 203.53 175.814L195.09 173.171L194.32 183.108L191.95 182.051C191.94 182.632 190.65 184.144 190.28 184.144C189.91 184.144 188.63 182.622 188.61 182.051L186.23 183.108L185.46 173.171H163.31V238.911C163.31 243.362 159.84 258.89 157.14 267.96L204.08 298.541C204.55 303.393 204.51 306.068 204.08 310.772L147.93 298.002C146.78 301.047 145.63 303.245 144.56 303.763V303.89C144.48 303.89 144.4 303.848 144.32 303.837C144.24 303.858 144.16 303.89 144.08 303.89V303.763C143.01 303.245 141.86 301.036 140.71 298.002L84.5601 310.772C84.1301 306.068 84.0901 303.393 84.5601 298.541L131.5 267.96C128.8 258.89 125.33 243.362 125.33 238.911V173.171H103.18C102.92 176.48 102.67 179.799 102.41 183.108C101.95 183.108 100.49 182.051 100.03 182.051C100.03 182.632 98.7301 184.154 98.3601 184.154C97.9901 184.154 96.7001 182.632 96.6901 182.051C96.2301 182.051 94.7701 183.108 94.3201 183.108L93.5501 173.171L85.1101 175.814C84.9901 176.649 84.8101 177.611 84.5401 178.763C83.6301 182.685 83.3201 184.641 83.0101 184.641C82.7001 184.641 82.3901 182.685 81.4801 178.763C81.3201 178.097 81.2101 177.505 81.1001 176.945L59.5501 182.992C59.4401 183.573 59.3201 184.186 59.1601 184.884C58.2501 188.805 57.9401 190.761 57.6301 190.761C57.3201 190.761 57.0101 188.805 56.1001 184.884C56.0301 184.577 55.9701 184.292 55.9101 184.006L4.57007 198.404C4.57007 189.989 3.80007 184.641 9.18007 181.586L87.3401 138.362C85.7801 128.33 85.0601 120.37 87.6201 106.67H106.85C107.67 114.789 107.96 120.909 107.76 127.072L125.31 117.368V56.9767C125.31 48.5624 131.21 22.9915 135.31 15.6977C138.52 9.98943 141.17 4.80973 144.06 4.28118V4.22833C144.14 4.22833 144.22 4.24947 144.3 4.24947C144.38 4.24947 144.46 4.22833 144.54 4.22833H144.56M144.56 0H144.54C144.45 0 144.37 0 144.3 0C144.23 0 144.15 0 144.06 0C143.5 0 142.98 0.116279 142.49 0.338266C138.53 1.60677 135.92 6.27907 132.67 12.1036L131.87 13.5412C127.31 21.649 121.31 47.833 121.31 56.9767V114.81L111.78 120.085C111.67 115.973 111.36 111.522 110.83 106.226C110.61 104.08 108.9 102.442 106.85 102.442H87.6201C85.7101 102.442 84.0701 103.869 83.7001 105.846C81.2201 119.091 81.7201 127.41 82.9401 136.015L7.34007 177.844C0.410071 181.776 0.490071 188.51 0.570071 195.645C0.570071 196.522 0.590071 197.442 0.590071 198.404C0.590071 199.715 1.17007 200.951 2.15007 201.755C2.86007 202.326 3.72007 202.632 4.59007 202.632C4.93007 202.632 5.28007 202.59 5.62007 202.495L52.9801 189.218C53.1601 190.042 53.3101 190.677 53.4501 191.194C54.4001 194.63 56.7001 195 57.6501 195C58.6001 195 60.9101 194.63 61.8501 191.194C62.0201 190.581 62.1901 189.789 62.4401 188.689C62.5801 188.044 62.7501 187.294 62.9401 186.438L78.1501 182.167C78.1801 182.304 78.2101 182.442 78.2401 182.569C78.4801 183.668 78.6601 184.461 78.8301 185.074C79.7801 188.51 82.0801 188.879 83.0301 188.879C83.9801 188.879 86.2901 188.51 87.2301 185.074C87.4001 184.461 87.5701 183.668 87.8201 182.569C87.9901 181.797 88.1901 180.867 88.4401 179.789C88.4901 179.577 88.5401 179.366 88.5801 179.154L89.9801 178.721L90.3501 183.467C90.5201 185.666 92.2501 187.347 94.3401 187.347C94.7401 187.347 95.1101 187.294 95.4601 187.199C96.3501 187.928 97.3601 188.393 98.3801 188.393C99.4001 188.393 100.42 187.928 101.3 187.199C101.65 187.294 102.02 187.347 102.42 187.347C104.5 187.347 106.24 185.655 106.41 183.467L106.8 178.499L106.88 177.41H121.34V238.922C121.34 243.7 124.35 257.167 126.79 266.078L82.4701 294.958C81.4101 295.645 80.7201 296.818 80.5901 298.129C80.1101 303.055 80.1101 305.994 80.5901 311.195C80.7001 312.4 81.2901 313.488 82.2101 314.197C82.9001 314.736 83.7301 315.011 84.5701 315.011C84.8501 315.011 85.1301 314.979 85.4101 314.915L138.4 302.865C139.3 304.693 140.19 305.962 141.17 306.797C141.9 307.622 142.94 308.129 144.08 308.129C144.16 308.129 144.24 308.129 144.32 308.129C144.4 308.129 144.48 308.129 144.56 308.129C145.71 308.129 146.74 307.622 147.47 306.808C148.46 305.973 149.35 304.704 150.25 302.875L203.24 314.926C203.52 314.989 203.8 315.021 204.08 315.021C204.92 315.021 205.75 314.736 206.44 314.207C207.36 313.499 207.95 312.4 208.06 311.205C208.54 306.004 208.54 303.066 208.06 298.14C207.93 296.829 207.24 295.655 206.18 294.968L161.86 266.089C164.31 257.178 167.31 243.721 167.31 238.932V177.421H181.77L182.24 183.478C182.34 184.831 183.06 186.047 184.15 186.744C184.78 187.146 185.5 187.357 186.23 187.357C186.6 187.357 186.97 187.304 187.33 187.199C188.2 187.928 189.21 188.404 190.27 188.404C191.33 188.404 192.34 187.928 193.21 187.199C193.57 187.304 193.94 187.357 194.31 187.357C195.03 187.357 195.75 187.146 196.38 186.744C197.48 186.036 198.19 184.82 198.29 183.478L198.66 178.731L200.06 179.165C200.11 179.376 200.15 179.588 200.21 179.81C200.46 180.867 200.66 181.797 200.83 182.569C201.07 183.668 201.25 184.461 201.42 185.074C202.37 188.51 204.67 188.879 205.62 188.879C206.57 188.879 208.88 188.51 209.82 185.074C209.99 184.461 210.16 183.668 210.41 182.569C210.44 182.442 210.47 182.304 210.5 182.167L225.71 186.438C225.91 187.294 226.07 188.044 226.21 188.689C226.45 189.789 226.63 190.581 226.8 191.194C227.75 194.63 230.05 195 231 195C231.95 195 234.26 194.63 235.2 191.194C235.34 190.687 235.49 190.053 235.67 189.218L283.03 202.495C283.37 202.59 283.71 202.632 284.06 202.632C284.93 202.632 285.79 202.326 286.5 201.755C287.48 200.951 288.06 199.715 288.06 198.404C288.06 197.442 288.07 196.522 288.08 195.645C288.16 188.51 288.23 181.776 281.34 177.854L205.67 136.015C206.89 127.389 207.39 119.07 204.92 105.846C204.55 103.869 202.91 102.431 201 102.431H181.77C179.73 102.431 178.01 104.059 177.79 106.216C177.25 111.512 176.95 115.951 176.84 120.074L167.32 114.81V56.9767C167.32 47.833 161.32 21.649 156.76 13.5412C156.48 13.0444 156.21 12.5581 155.94 12.0825C152.68 6.23679 150.06 1.54334 146.06 0.317125C145.6 0.116279 145.09 0 144.57 0L144.56 0Z" fill="black"/>
</g>
<defs>
<clipPath id="clip0_595_2638">
<rect width="287.55" height="315" fill="white" transform="translate(0.550049)"/>
</clipPath>
</defs>
</svg>
