<svg width="604" height="716" viewBox="0 0 604 716" fill="none" xmlns="http://www.w3.org/2000/svg">
<g clip-path="url(#clip0_821_67)">
<path d="M302 713.291C301.5 713.291 301.05 713.111 300.7 712.811H299.54C298.49 712.811 297.62 712 297.55 710.951L294.79 672.531L190.89 699.851C190.72 699.891 190.55 699.921 190.38 699.921C189.93 699.921 189.49 699.771 189.13 699.481C188.64 699.081 188.36 698.481 188.38 697.841C188.42 696.781 188.46 695.771 188.49 694.801C188.78 686.351 188.97 680.771 191.88 669.241C191.97 668.871 192.17 668.531 192.45 668.271L276.71 589.26C272.25 567.271 269.07 546.761 266.09 520.921C266.09 520.841 266.08 520.771 266.08 520.691V357.25L249.78 362.87C249.45 367.29 248.52 373.57 245.84 374.87C245.56 375 245.26 375.07 244.97 375.07C244.68 375.07 244.37 375 244.1 374.87C243.43 374.55 241.54 373.63 240.51 366.07L221.24 372.72C220.89 377.04 219.94 383.161 217.33 384.431C217.05 384.561 216.75 384.63 216.45 384.63C216.15 384.63 215.85 384.561 215.58 384.431C214.86 384.081 213.06 383.211 212.03 375.891L170.57 390.19L160.29 396.171C159.97 400.561 159.04 407 156.35 408.31C156.07 408.44 155.78 408.51 155.48 408.51C155.18 408.51 154.88 408.44 154.61 408.31C153.91 407.97 152.38 407.23 151.33 401.4L122.95 417.931C122.68 421.871 121.8 428.931 118.99 430.29C118.71 430.421 118.42 430.491 118.12 430.491C117.82 430.491 117.52 430.421 117.25 430.29C116.6 429.97 115 429.201 113.93 423.19L7.97 484.861V514.471C7.97 515.57 7.07 516.471 5.97 516.471H4C2.9 516.471 2 515.57 2 514.471V447.111C2 443.331 3.52 440.96 9.07 436.06L82.38 371.09C82.32 366.47 82.41 362.161 82.71 356.431L77.38 355.711C76.45 355.591 75.73 354.831 75.65 353.891C74.6 341.16 74.36 333.69 75.65 320.32C75.75 319.29 76.61 318.51 77.64 318.51H109.34C110.37 318.51 111.23 319.29 111.33 320.32C112.23 329.69 112.43 336.251 111.97 344.861L170.89 292.65C170.83 288.06 170.93 283.77 171.22 278.09L165.89 277.37C164.96 277.24 164.24 276.491 164.16 275.551C163.11 262.82 162.87 255.351 164.16 241.981C164.26 240.951 165.12 240.171 166.15 240.171H197.85C198.88 240.171 199.74 240.951 199.84 241.981C200.74 251.321 200.94 257.861 200.48 266.421L266.05 208.311V104.591C266.05 76.0105 281.51 4.41051 301.77 2.28051C301.84 2.28051 301.91 2.27051 301.98 2.27051C302.05 2.27051 302.12 2.27051 302.19 2.28051C322.45 4.41051 337.91 76.0605 337.91 104.651V208.441L403.48 266.59C403.03 258.03 403.22 251.491 404.12 242.131C404.22 241.101 405.08 240.321 406.11 240.321H437.81C438.84 240.321 439.7 241.101 439.8 242.131C441.09 255.501 440.86 262.99 439.8 275.72C439.72 276.66 439 277.41 438.07 277.54L432.74 278.26C433.03 283.951 433.13 288.24 433.07 292.84L491.99 345.09C491.53 336.48 491.73 329.91 492.63 320.53C492.73 319.5 493.59 318.72 494.62 318.72H526.32C527.35 318.72 528.21 319.5 528.31 320.53C529.6 333.9 529.37 341.39 528.31 354.12C528.23 355.06 527.51 355.81 526.58 355.94L521.25 356.66C521.55 362.4 521.64 366.711 521.58 371.331L594.9 436.34C600.45 441.24 601.97 443.62 601.97 447.4V514.801C601.97 515.901 601.07 516.801 599.97 516.801H598C596.9 516.801 596 515.901 596 514.801V485.171L490.07 423.451C489.01 429.461 487.41 430.24 486.75 430.56C486.47 430.69 486.17 430.76 485.88 430.76C485.59 430.76 485.28 430.69 485.01 430.56C482.2 429.19 481.32 422.13 481.05 418.19L452.67 401.65C451.62 407.48 450.09 408.23 449.39 408.57C449.11 408.701 448.81 408.771 448.51 408.771C448.21 408.771 447.91 408.701 447.64 408.57C444.94 407.26 444.01 400.811 443.7 396.421L433.42 390.431L391.96 376.12C390.93 383.44 389.13 384.31 388.41 384.66C388.13 384.79 387.83 384.861 387.54 384.861C387.25 384.861 386.94 384.79 386.67 384.66C384.06 383.391 383.11 377.27 382.76 372.94L363.49 366.29C362.46 373.85 360.57 374.78 359.9 375.1C359.62 375.23 359.32 375.301 359.02 375.301C358.72 375.301 358.42 375.23 358.14 375.1C355.46 373.801 354.53 367.51 354.2 363.09L337.9 357.461V521.01C337.9 521.091 337.9 521.161 337.89 521.241C334.91 547.081 331.73 567.611 327.27 589.631L411.53 668.701C411.81 668.961 412.01 669.301 412.1 669.671C415.01 681.201 415.2 686.791 415.49 695.241C415.52 696.211 415.56 697.221 415.6 698.281C415.62 698.911 415.35 699.521 414.85 699.921C414.49 700.211 414.05 700.361 413.6 700.361C413.43 700.361 413.26 700.341 413.09 700.291L309.18 672.951L306.42 711.401C306.34 712.451 305.47 713.26 304.42 713.26H301.96L302 713.291Z" fill="white"/>
<path d="M302 4.29004C320.2 6.20004 335.93 75.99 335.93 104.68V209.37L405.81 271.33C405.04 260.73 405.05 253.69 406.14 242.35H437.84C439.07 255.14 438.93 262.44 437.84 275.58L430.68 276.54C431.07 283.6 431.18 288.44 431.09 293.74L494.33 349.82C493.55 339.16 493.56 332.12 494.65 320.74H526.35C527.58 333.53 527.44 340.83 526.35 353.98L519.19 354.94C519.59 362.05 519.7 366.89 519.6 372.23L593.6 437.85C599.01 442.63 599.99 444.54 599.99 447.41V514.81H598.02V484.03L488.53 420.23C488.1 424.01 487.22 428.12 485.9 428.76C484.18 427.92 483.21 421.22 483 417L451.14 398.44C450.7 402.17 449.83 406.14 448.53 406.78C446.84 405.96 445.87 399.47 445.64 395.24L434.27 388.62L390.28 373.44C389.89 377.45 388.98 382.19 387.55 382.88C385.88 382.07 384.92 375.73 384.67 371.5L361.79 363.6C361.42 367.66 360.5 372.6 359.03 373.32C357.32 372.49 356.35 365.88 356.13 361.65L335.92 354.67V521.02C332.72 548.76 329.38 569.36 325.1 590.33L410.17 670.16C413.36 682.81 413.22 688.19 413.61 698.36L307.37 670.41L304.44 711.27H301.98V710.79H299.52L296.59 669.96L190.35 697.89C190.74 687.73 190.6 682.35 193.79 669.71L278.86 589.93C274.58 568.97 271.24 548.39 268.04 520.66V354.42L247.83 361.39C247.61 365.61 246.64 372.22 244.93 373.05C243.47 372.34 242.55 367.4 242.17 363.34L219.29 371.23C219.04 375.46 218.08 381.79 216.41 382.6C214.98 381.9 214.07 377.17 213.68 373.16L169.69 388.33L158.32 394.95C158.08 399.18 157.12 405.66 155.43 406.48C154.13 405.85 153.26 401.87 152.82 398.15L120.96 416.7C120.75 420.92 119.78 427.62 118.06 428.45C116.74 427.81 115.86 423.7 115.43 419.92L5.97 483.71V514.47H4V447.11C4 444.24 4.98 442.33 10.39 437.56L84.39 371.98C84.3 366.64 84.41 361.8 84.8 354.7L77.64 353.74C76.55 340.61 76.41 333.31 77.64 320.53H109.34C110.44 331.9 110.44 338.94 109.66 349.59L172.9 293.55C172.81 288.25 172.92 283.42 173.31 276.36L166.15 275.4C165.06 262.27 164.92 254.97 166.15 242.19H197.85C198.94 253.52 198.95 260.55 198.18 271.15L268.06 209.23V104.61C268.06 75.95 283.8 6.20004 301.99 4.29004M190.77 277.72L192.59 276.11L190.7 276.36C190.73 276.83 190.75 277.27 190.77 277.72ZM413.22 277.91C413.24 277.46 413.27 277.02 413.29 276.55L411.4 276.3L413.22 277.91ZM102.26 356.16L104.2 354.44L102.18 354.71C102.21 355.21 102.23 355.68 102.26 356.16ZM501.73 356.4C501.76 355.92 501.78 355.45 501.81 354.95L499.79 354.68L501.73 356.4ZM302 0.290039C301.86 0.290039 301.72 0.290039 301.58 0.310039C291.55 1.36004 282.39 15.83 274.37 43.29C268.3 64.06 264.07 89.27 264.07 104.6V207.42L202.68 261.82C202.85 255.28 202.58 249.48 201.84 241.8C201.64 239.75 199.92 238.18 197.86 238.18H166.16C164.1 238.18 162.38 239.75 162.18 241.8C160.88 255.32 161.11 262.88 162.18 275.73C162.33 277.6 163.77 279.11 165.63 279.36L169.14 279.83C168.93 284.32 168.86 287.98 168.89 291.77L114.17 340.26C114.34 333.67 114.08 327.85 113.33 320.14C113.13 318.09 111.41 316.52 109.35 316.52H77.65C75.59 316.52 73.87 318.09 73.67 320.14C72.37 333.66 72.6 341.22 73.67 354.07C73.82 355.94 75.26 357.45 77.12 357.7L80.63 358.17C80.42 362.69 80.34 366.38 80.38 370.2L7.74 434.57C2.39 439.3 0 442.23 0 447.12V514.48C0 516.69 1.79 518.48 4 518.48H5.97C8.18 518.48 9.97 516.69 9.97 514.48V486.02L112.53 426.3C113.59 430.19 115.01 431.45 116.34 432.1C116.89 432.37 117.49 432.5 118.09 432.5C118.69 432.5 119.29 432.37 119.84 432.1C121.9 431.1 123.15 428.89 124.03 424.72C124.37 423.08 124.66 421.11 124.84 419.15L149.97 404.52C151.03 408.27 152.42 409.5 153.72 410.13C154.27 410.4 154.87 410.53 155.47 410.53C156.07 410.53 156.67 410.4 157.22 410.13C158.25 409.63 161.26 408.17 162.2 397.39L171.4 392.03L210.44 378.57C211.51 383.93 213.16 385.5 214.7 386.24C215.25 386.51 215.85 386.64 216.45 386.64C217.05 386.64 217.65 386.51 218.2 386.24C219.2 385.75 222.09 384.35 223.11 374.2L238.92 368.75C240.19 375.22 242.24 376.22 243.22 376.69C243.77 376.96 244.37 377.09 244.97 377.09C245.57 377.09 246.17 376.96 246.72 376.69C248.77 375.7 250.02 373.5 250.89 369.36C251.26 367.59 251.5 365.81 251.65 364.36L264.08 360.07V520.7C264.08 520.85 264.08 521.01 264.11 521.16C267.05 546.63 270.19 566.94 274.54 588.58L191.09 666.83C190.53 667.35 190.14 668.03 189.95 668.77C186.99 680.5 186.78 686.47 186.5 694.74C186.47 695.71 186.43 696.72 186.39 697.78C186.34 699.05 186.9 700.26 187.88 701.05C188.6 701.63 189.48 701.93 190.38 701.93C190.72 701.93 191.06 701.89 191.4 701.8L292.97 675.1L295.56 711.12C295.71 713.21 297.45 714.83 299.55 714.83H300.11C300.67 715.13 301.32 715.31 302.01 715.31H304.47C306.57 715.31 308.31 713.69 308.46 711.6L311.05 675.55L412.62 702.27C412.96 702.36 413.3 702.4 413.64 702.4C414.54 702.4 415.42 702.1 416.14 701.52C417.13 700.73 417.68 699.51 417.63 698.25C417.59 697.19 417.55 696.18 417.52 695.21C417.23 686.93 417.03 680.96 414.07 669.22C413.88 668.48 413.49 667.81 412.93 667.28L329.48 588.98C333.83 567.33 336.97 547 339.91 521.52C339.93 521.37 339.94 521.22 339.94 521.06V360.32L352.35 364.6C353.33 375.01 356.28 376.45 357.3 376.94C357.85 377.21 358.45 377.34 359.05 377.34C359.65 377.34 360.25 377.21 360.8 376.94C361.78 376.46 363.84 375.46 365.1 368.99L380.91 374.45C381.93 384.61 384.82 386.01 385.82 386.5C386.37 386.77 386.97 386.9 387.57 386.9C388.17 386.9 388.77 386.77 389.32 386.5C390.86 385.75 392.5 384.19 393.58 378.82L432.62 392.29L441.82 397.65C442.77 408.43 445.77 409.9 446.8 410.4C447.35 410.67 447.95 410.8 448.55 410.8C449.15 410.8 449.75 410.67 450.3 410.4C451.6 409.77 453 408.54 454.05 404.78L479.18 419.42C479.36 421.38 479.65 423.36 479.99 425C480.87 429.18 482.12 431.39 484.17 432.39C484.72 432.66 485.32 432.79 485.92 432.79C486.52 432.79 487.12 432.66 487.67 432.39C489 431.75 490.41 430.48 491.48 426.59L594.04 486.35V514.83C594.04 517.04 595.83 518.83 598.04 518.83H600.01C602.22 518.83 604.01 517.04 604.01 514.83V447.43C604.01 442.54 601.62 439.61 596.27 434.87L523.64 370.47C523.67 366.64 523.6 362.95 523.39 358.43L526.9 357.96C528.76 357.71 530.2 356.2 530.35 354.33C531.41 341.47 531.65 333.91 530.35 320.38C530.15 318.33 528.43 316.76 526.37 316.76H494.67C492.61 316.76 490.89 318.33 490.69 320.38C489.95 328.09 489.68 333.92 489.85 340.51L435.13 291.99C435.16 288.19 435.09 284.53 434.88 280.04L438.39 279.57C440.25 279.32 441.69 277.81 441.84 275.94C442.9 263.08 443.14 255.52 441.84 241.99C441.64 239.94 439.92 238.37 437.86 238.37H406.16C404.1 238.37 402.38 239.94 402.18 241.99C401.44 249.67 401.17 255.48 401.34 262.02L339.95 207.59V104.7C339.95 89.36 335.71 64.13 329.65 43.35C321.61 15.84 312.45 1.37004 302.42 0.310039C302.28 0.300039 302.14 0.290039 302 0.290039Z" fill="black"/>
</g>
<defs>
<clipPath id="clip0_821_67">
<rect width="604" height="715" fill="white" transform="translate(0 0.290039)"/>
</clipPath>
</defs>
</svg>
