<svg width="652" height="716" viewBox="0 0 652 716" fill="none" xmlns="http://www.w3.org/2000/svg">
<g clip-path="url(#clip0_823_94)">
<path d="M326 713.29C325.39 713.29 324.82 713.02 324.44 712.54C323.68 711.6 321.68 709.1 320.5 687.35C319.23 685.45 318.06 682.55 316.56 677.56L217.06 705.17C216.89 705.22 216.71 705.24 216.53 705.24H213C211.9 705.24 211 704.34 211 703.24V677.11C211 676.56 211.23 676.03 211.64 675.65L294.19 598.77C297.55 595.59 298.78 593.5 299.23 592.48C293.66 556.15 290.21 519.5 290.21 496.73V362.52C283.39 364.85 276.86 367.04 270.36 369.17C268.95 380.91 266.95 382.24 266.08 382.82C265.75 383.04 265.36 383.15 264.97 383.15C264.58 383.15 264.2 383.04 263.86 382.82C262.62 381.99 261.21 380.08 260.04 372.52C254.83 374.19 249.29 375.94 242.51 378.07C241.27 387.74 239.64 390 238.33 390.87C237.99 391.09 237.61 391.2 237.22 391.2C236.83 391.2 236.45 391.09 236.11 390.87C234.91 390.07 233.55 388.26 232.39 381.22L215.11 386.59L197.67 392.05L190.25 396.35C188.84 408.99 186.76 410.37 185.86 410.97C185.53 411.19 185.14 411.3 184.75 411.3C184.36 411.3 183.98 411.19 183.64 410.97C182.5 410.21 181.2 408.53 180.08 402.24L158.65 414.66C157.26 428.95 154.95 430.49 154.07 431.08C153.74 431.3 153.35 431.41 152.96 431.41C152.57 431.41 152.19 431.3 151.85 431.08C150.6 430.25 149.2 428.33 148.03 420.81L120.66 436.67L45.6 480.83L13.83 504.56C10.8 511.64 8.97 515 5.86 520.36C5.5 520.99 4.83 521.36 4.13 521.36C3.97 521.36 3.8 521.34 3.64 521.3C2.77 521.08 2.16 520.31 2.13 519.41C1.96 512.83 1.91 509.31 2.13 503.21C2.13 503.09 2.15 502.97 2.18 502.85C4.55 492.19 6.22 486.39 9.26 476.85V462.09C9.26 461.5 9.52 460.94 9.97 460.56C50.34 426.58 81.05 400.42 109.36 375.89C108.29 370.34 107.54 364.56 107.07 358.33H106.38C105.51 358.33 104.74 357.77 104.48 356.94C100.98 346.05 100.87 328.89 106.32 321.7C106.7 321.2 107.29 320.91 107.91 320.91H130.41C131.04 320.91 131.63 321.2 132 321.7C136.95 328.23 137.32 342.98 134.72 353.79C155.98 335.15 177.19 316.27 199.31 296.3C198.16 290.5 197.35 284.47 196.86 277.93H196.17C195.3 277.93 194.53 277.37 194.27 276.54C190.77 265.65 190.67 248.49 196.11 241.3C196.49 240.8 197.08 240.51 197.7 240.51H220.2C220.83 240.51 221.42 240.8 221.79 241.3C226.74 247.84 227.11 262.61 224.5 273.43C244.25 255.42 265.83 235.57 290.18 213V145.03C290.18 100.88 298.83 7.91984 325.57 2.37984C325.7 2.34984 325.84 2.33984 325.98 2.33984C326.12 2.33984 326.25 2.34984 326.39 2.37984C353.13 7.92984 361.78 100.89 361.78 145.03V213C386.11 235.55 407.68 255.4 427.46 273.44C424.86 262.62 425.22 247.85 430.17 241.31C430.55 240.81 431.14 240.52 431.76 240.52H454.26C454.89 240.52 455.48 240.81 455.85 241.31C461.14 248.3 461.19 265.68 457.69 276.55C457.42 277.38 456.65 277.94 455.79 277.94H455.1C454.61 284.47 453.8 290.51 452.65 296.31C474.76 316.28 495.97 335.16 517.24 353.81C514.67 342.98 515.15 328.06 519.95 321.71C520.33 321.21 520.92 320.92 521.54 320.92H544.04C544.67 320.92 545.26 321.21 545.63 321.71C551.08 328.91 550.98 346.06 547.47 356.95C547.2 357.78 546.43 358.34 545.57 358.34H544.88C544.41 364.58 543.66 370.35 542.59 375.9C570.91 400.44 601.62 426.6 641.98 460.57C642.43 460.95 642.69 461.51 642.69 462.1V476.86C645.73 486.41 647.4 492.21 649.76 502.87C649.79 502.99 649.8 503.11 649.81 503.23C650.03 509.32 649.98 512.85 649.81 519.43C649.79 520.32 649.17 521.1 648.31 521.32C648.15 521.36 647.98 521.38 647.82 521.38C647.12 521.38 646.45 521.01 646.09 520.38C642.72 514.57 640.97 511.23 638.12 504.58L606.35 480.85L531.28 436.69L503.92 420.84C502.75 428.36 501.35 430.28 500.1 431.11C499.77 431.33 499.38 431.44 498.99 431.44C498.6 431.44 498.22 431.33 497.88 431.11C497 430.52 494.69 428.99 493.3 414.69L471.87 402.27C470.75 408.56 469.45 410.24 468.31 411C467.98 411.22 467.59 411.33 467.2 411.33C466.81 411.33 466.43 411.22 466.09 411C465.19 410.4 463.1 409.02 461.7 396.38L454.28 392.08L436.83 386.62L419.55 381.25C418.39 388.29 417.03 390.1 415.83 390.9C415.49 391.12 415.11 391.23 414.72 391.23C414.33 391.23 413.95 391.12 413.61 390.9C412.31 390.03 410.67 387.78 409.44 378.1C402.65 375.98 397.11 374.22 391.9 372.55C390.73 380.11 389.32 382.03 388.08 382.85C387.75 383.07 387.36 383.18 386.97 383.18C386.58 383.18 386.2 383.07 385.86 382.85C384.99 382.27 382.99 380.94 381.58 369.2C375.07 367.07 368.54 364.88 361.73 362.55V496.76C361.73 519.54 358.27 556.19 352.71 592.51C353.16 593.53 354.39 595.63 357.76 598.81L440.3 675.68C440.71 676.06 440.94 676.59 440.94 677.14V703.27C440.94 704.37 440.04 705.27 438.94 705.27H435.41C435.23 705.27 435.05 705.25 434.87 705.2L335.37 677.59C333.87 682.58 332.7 685.48 331.43 687.38C330.25 709.13 328.25 711.63 327.49 712.57C327.11 713.04 326.54 713.32 325.93 713.32L326 713.29Z" fill="white"/>
<path d="M326 4.29027C350.22 9.31027 359.8 97.7503 359.8 144.99V213.83C386.78 238.84 410.81 260.94 433.25 281.35C433.08 279.62 432.94 277.81 432.81 275.9H430.25C426.67 264.76 427.18 248.55 431.78 242.47H454.28C458.88 248.55 459.39 264.75 455.81 275.9H453.25C452.67 284.85 451.59 291.66 450.48 296.99C475.62 319.7 499.1 340.57 523 361.45C522.85 359.81 522.71 358.1 522.59 356.3H520.03C516.45 345.16 516.96 328.95 521.56 322.87H544.06C548.66 328.95 549.17 345.15 545.59 356.3H543.03C542.47 364.83 541.47 371.4 540.41 376.62C570.95 403.09 602.98 430.32 640.69 462.07V477.14C643.89 487.18 645.5 492.88 647.81 503.27C648.03 509.39 647.98 512.95 647.81 519.35C644.56 513.73 642.77 510.38 639.74 503.27L607.45 479.15L532.28 434.93L502.34 417.58C501.73 422.49 500.67 428.28 498.99 429.4C496.78 427.94 495.65 418.47 495.2 413.44L470.36 399.05C469.73 403.56 468.72 408.31 467.21 409.31C465.24 408 464.13 400.35 463.59 395.13L455.1 390.21L437.44 384.68C430.34 382.47 423.94 380.49 417.93 378.62C417.3 383.22 416.28 388.18 414.74 389.2C412.96 388.02 411.88 381.62 411.29 376.55C403.99 374.27 397.18 372.12 390.28 369.9C389.66 374.69 388.62 380.09 387 381.17C385.12 379.92 384.02 372.86 383.45 367.68C376.08 365.27 368.41 362.7 359.75 359.73V496.74C359.75 520.01 356.23 556.6 350.67 592.71C351.18 594.22 352.69 596.73 356.4 600.25L438.95 677.13V703.26H435.42L334.02 675.12C332.36 680.86 330.99 684.67 329.48 686.68C328.98 696.23 327.97 708.79 325.95 711.3C323.93 708.79 322.92 696.23 322.42 686.68C320.91 684.67 319.53 680.86 317.88 675.12L216.48 703.26H212.95V677.13L295.5 600.25C299.22 596.73 300.73 594.22 301.23 592.71C295.68 556.6 292.15 520.01 292.15 496.74V359.73C283.5 362.7 275.82 365.27 268.45 367.68C267.89 372.85 266.78 379.92 264.9 381.17C263.28 380.09 262.24 374.69 261.62 369.9C254.72 372.13 247.91 374.27 240.61 376.55C240.02 381.62 238.94 388.02 237.16 389.2C235.61 388.17 234.6 383.22 233.97 378.62C227.96 380.49 221.56 382.47 214.46 384.68L196.8 390.21L188.31 395.13C187.77 400.34 186.66 408 184.69 409.31C183.18 408.31 182.17 403.56 181.54 399.05L156.7 413.44C156.25 418.47 155.11 427.94 152.91 429.4C151.22 428.28 150.17 422.49 149.56 417.58L119.62 434.93L44.45 479.15L12.16 503.27C9.13 510.38 7.34 513.73 4.09 519.35C3.93 512.95 3.87 509.39 4.09 503.27C6.4 492.89 8.02 487.19 11.21 477.14V462.07C48.93 430.32 80.95 403.09 111.49 376.62C110.44 371.41 109.43 364.83 108.87 356.3H106.31C102.73 345.16 103.24 328.95 107.84 322.87H130.34C134.94 328.95 135.45 345.15 131.87 356.3H129.31C129.19 358.11 129.05 359.81 128.9 361.45C152.8 340.57 176.28 319.7 201.42 296.99C200.31 291.66 199.23 284.86 198.65 275.9H196.09C192.51 264.76 193.02 248.55 197.62 242.47H220.12C224.72 248.55 225.23 264.75 221.65 275.9H219.09C218.97 277.81 218.82 279.63 218.65 281.35C241.09 260.94 265.12 238.84 292.1 213.83V144.99C292.1 97.7603 301.68 9.32027 325.9 4.29027M325.9 0.290273C325.63 0.290273 325.36 0.320273 325.09 0.370273C317.97 1.85027 311.97 8.31027 306.75 20.1303C302.6 29.5103 298.98 42.2703 295.99 58.0603C290.17 88.7803 288.1 123.1 288.1 144.98V212.07C265.8 232.74 245.83 251.13 227.44 267.92C228.77 257.62 227.71 245.87 223.3 240.05C222.54 239.05 221.36 238.47 220.11 238.47H197.61C196.36 238.47 195.18 239.06 194.42 240.06C188.6 247.74 188.61 265.76 192.27 277.12C192.68 278.39 193.68 279.35 194.91 279.72C195.38 285.28 196.08 290.5 197.04 295.53C176.74 313.86 157.18 331.28 137.62 348.46C138.98 338.13 137.93 326.29 133.5 320.44C132.74 319.44 131.56 318.85 130.31 318.85H107.81C106.56 318.85 105.38 319.44 104.62 320.44C98.8 328.12 98.81 346.14 102.47 357.5C102.88 358.77 103.88 359.73 105.11 360.1C105.55 365.36 106.21 370.3 107.09 375.08C79.01 399.4 48.53 425.36 8.59 458.98C7.69 459.74 7.17 460.86 7.17 462.04V476.49C4.18 485.92 2.51 491.74 0.139999 502.37C0.0899986 502.61 0.0599986 502.85 0.0499986 503.09C-0.170001 509.25 -0.120001 512.8 0.0499986 519.42C0.0999986 521.21 1.33 522.75 3.06 523.19C3.39 523.27 3.72 523.31 4.05 523.31C5.45 523.31 6.78 522.57 7.51 521.31C10.69 515.82 12.56 512.32 15.37 505.79L46.62 482.44L121.6 438.33L146.47 423.92C147.6 429.51 148.99 431.58 150.65 432.69C151.32 433.14 152.09 433.36 152.86 433.36C153.63 433.36 154.4 433.14 155.07 432.69C156.44 431.78 158.94 430.12 160.43 415.83L178.57 405.32C179.64 409.83 180.92 411.59 182.43 412.59C183.1 413.04 183.87 413.26 184.64 413.26C185.41 413.26 186.18 413.04 186.85 412.59C188.63 411.41 190.62 409.15 192.01 397.53L198.36 393.85L215.59 388.46L225.75 385.3C227.44 384.78 229.09 384.26 230.7 383.76C231.83 389.35 233.21 391.39 234.88 392.49C235.55 392.94 236.32 393.16 237.09 393.16C237.86 393.16 238.63 392.94 239.3 392.49C241.33 391.14 242.96 388.34 244.18 379.55C249.48 377.89 254.04 376.45 258.32 375.08C259.47 381.13 260.9 383.3 262.62 384.44C263.29 384.89 264.06 385.11 264.83 385.11C265.6 385.11 266.37 384.89 267.04 384.44C268.75 383.31 270.66 381.18 272.04 370.63C277.29 368.9 282.58 367.13 288.07 365.27V496.68C288.07 519.42 291.49 555.89 297.02 592.11C296.52 593.03 295.34 594.75 292.67 597.28L210.14 674.14C209.33 674.9 208.87 675.96 208.87 677.07V703.2C208.87 705.41 210.66 707.2 212.87 707.2H216.4C216.76 707.2 217.12 707.15 217.47 707.05L315.1 679.96C316.29 683.69 317.31 686.15 318.4 687.93C319.62 709.84 321.65 712.37 322.75 713.74C323.51 714.68 324.66 715.23 325.87 715.23C327.08 715.23 328.23 714.68 328.99 713.74C330.09 712.37 332.12 709.84 333.34 687.93C334.43 686.15 335.45 683.68 336.64 679.96L434.27 707.05C434.62 707.15 434.98 707.2 435.34 707.2H438.87C441.08 707.2 442.87 705.41 442.87 703.2V677.07C442.87 675.96 442.41 674.9 441.6 674.14L359.05 597.26C356.4 594.75 355.22 593.03 354.72 592.11C360.25 555.89 363.67 519.41 363.67 496.68V365.27C369.16 367.14 374.45 368.91 379.7 370.63C381.08 381.18 383 383.31 384.7 384.44C385.37 384.89 386.14 385.11 386.91 385.11C387.68 385.11 388.45 384.89 389.12 384.44C390.84 383.3 392.27 381.13 393.42 375.08C397.7 376.45 402.26 377.89 407.56 379.55C408.79 388.34 410.41 391.14 412.44 392.49C413.11 392.94 413.88 393.16 414.65 393.16C415.42 393.16 416.19 392.94 416.86 392.49C418.52 391.39 419.9 389.35 421.03 383.76C422.64 384.26 424.28 384.77 425.96 385.29L436.15 388.46L453.37 393.85L459.73 397.53C461.12 409.15 463.11 411.41 464.89 412.59C465.56 413.04 466.33 413.26 467.1 413.26C467.87 413.26 468.64 413.04 469.31 412.59C470.82 411.59 472.1 409.82 473.17 405.32L491.31 415.83C492.8 430.13 495.3 431.78 496.67 432.69C497.34 433.14 498.11 433.36 498.88 433.36C499.65 433.36 500.42 433.14 501.09 432.69C502.76 431.58 504.15 429.51 505.27 423.92L530.16 438.34L605.11 482.43L636.36 505.78C639.18 512.31 641.04 515.81 644.22 521.3C644.95 522.56 646.28 523.3 647.68 523.3C648.01 523.3 648.34 523.26 648.67 523.18C650.4 522.74 651.63 521.2 651.68 519.41C651.85 512.79 651.9 509.24 651.68 503.08C651.68 502.84 651.64 502.59 651.59 502.36C649.23 491.73 647.56 485.91 644.56 476.48V462.03C644.56 460.85 644.04 459.73 643.14 458.97C603.21 425.36 572.73 399.39 544.64 375.07C545.52 370.29 546.17 365.35 546.62 360.09C547.85 359.71 548.85 358.76 549.26 357.49C552.91 346.13 552.93 328.11 547.11 320.43C546.35 319.43 545.17 318.84 543.92 318.84H521.42C520.17 318.84 518.99 319.43 518.23 320.43C513.8 326.28 512.75 338.11 514.11 348.45C494.56 331.28 475 313.85 454.69 295.52C455.65 290.49 456.35 285.27 456.82 279.71C458.05 279.33 459.05 278.38 459.46 277.11C463.11 265.75 463.13 247.73 457.31 240.05C456.55 239.05 455.37 238.46 454.12 238.46H431.62C430.37 238.46 429.19 239.05 428.43 240.04C424.02 245.86 422.96 257.62 424.29 267.91C405.9 251.12 385.92 232.73 363.63 212.06V144.97C363.63 123.09 361.56 88.7703 355.74 58.0503C352.75 42.2603 349.13 29.5003 344.98 20.1203C339.75 8.30027 333.75 1.84027 326.64 0.360273C326.37 0.300273 326.1 0.280273 325.83 0.280273L325.9 0.290273Z" fill="black"/>
</g>
<defs>
<clipPath id="clip0_823_94">
<rect width="652" height="715" fill="white" transform="translate(0 0.290039)"/>
</clipPath>
</defs>
</svg>
