<svg width="675" height="768" viewBox="0 0 675 768" fill="none" xmlns="http://www.w3.org/2000/svg">
<g clip-path="url(#clip0_824_121)">
<path d="M672.86 534.07C673.08 540.19 673.02 543.75 672.86 550.15C669.61 544.53 667.82 541.18 664.79 534.07L632.5 509.95L557.33 465.73L527.39 448.38C526.78 453.29 525.72 459.08 524.04 460.2C521.83 458.74 520.7 449.27 520.25 444.24L495.41 429.85C494.78 434.36 493.77 439.11 492.26 440.11C490.29 438.8 489.18 431.15 488.64 425.93L477.15 421.01L459.49 415.48C452.39 413.27 445.99 411.29 439.98 409.42C439.35 414.02 438.33 418.98 436.79 420C435.01 418.82 433.93 412.42 433.34 407.35C426.04 405.07 419.23 402.92 412.33 400.7C411.71 405.49 410.67 410.89 409.05 411.97C407.17 410.72 406.07 403.66 405.5 398.48C398.13 396.07 379.46 391.5 370.8 388.53V550.99C370.8 574.27 367.28 610.85 361.72 646.97C362.23 648.48 363.74 650.99 367.45 654.51L450 731.39V757.52H446.47L345.07 729.38C343.41 735.12 342.04 738.93 340.53 740.94C340.03 750.49 339.02 763.05 337 765.56C334.98 763.05 333.97 750.49 333.47 740.94C331.96 738.93 330.58 735.12 328.93 729.38L227.53 757.52H224V731.39L306.55 654.51C310.27 650.99 311.78 648.48 312.28 646.97C306.73 610.86 303.2 574.27 303.2 550.99V388.53C294.55 391.5 276.87 396.07 269.5 398.48C268.94 403.65 267.83 410.72 265.95 411.97C264.33 410.89 263.29 405.49 262.67 400.7C255.77 402.93 248.96 405.07 241.66 407.35C241.07 412.42 239.99 418.82 238.21 420C236.66 418.97 235.65 414.02 235.02 409.42C229.01 411.29 222.61 413.27 215.51 415.48L197.85 421.01L189.36 425.93C188.82 431.14 187.71 438.8 185.74 440.11C184.23 439.11 183.22 434.36 182.59 429.85L154.75 444.24C154.3 449.27 153.16 458.74 150.96 460.2C149.27 459.08 148.22 453.29 147.61 448.38L117.67 465.73L42.5 509.95L10.21 534.07C7.17996 541.18 5.38996 544.53 2.13996 550.15C2.01996 546.95 1.96996 543.64 1.99996 540.21C2.01996 538.12 2.06996 536.07 2.13996 534.07C4.50996 520.34 6.88996 506.6 9.25996 492.87C42.69 464.39 76.12 435.9 109.54 407.42C108.49 402.21 107.48 395.63 106.92 387.1H104.36C100.78 375.96 101.29 359.75 105.89 353.67H128.39C132.99 359.75 133.5 375.95 129.92 387.1H127.36C127.24 388.91 127.1 390.61 126.95 392.25C150.85 371.37 177.33 350.5 202.47 327.79C201.36 322.46 200.28 315.66 199.7 306.7H197.14C193.56 295.56 194.07 279.35 198.67 273.28H221.17C225.77 279.36 226.28 295.56 222.7 306.7H220.14C220.02 308.61 219.87 310.43 219.7 312.15C242.14 291.74 276.17 267.64 303.15 242.63V142.98C303.15 95.7503 312.73 7.31027 336.95 2.28027C361.17 7.30027 370.75 95.7403 370.75 142.98V242.63C397.73 267.64 432.76 291.74 455.2 312.15C455.03 310.42 454.89 308.61 454.76 306.7H452.2C448.62 295.56 449.13 279.35 453.73 273.28H476.23C480.83 279.36 481.34 295.56 477.76 306.7H475.2C474.62 315.65 473.54 322.46 472.43 327.79C497.57 350.5 524.05 371.37 547.95 392.25C547.8 390.61 547.66 388.9 547.54 387.1H544.98C541.4 375.96 541.91 359.75 546.51 353.67H569.01C573.61 359.75 574.12 375.95 570.54 387.1H567.98C567.42 395.63 566.42 402.2 565.36 407.42C595.9 433.89 627.93 461.12 665.64 492.87L672.76 534.07H672.86Z" fill="white" stroke="black" stroke-width="4" stroke-linejoin="round"/>
</g>
<defs>
<clipPath id="clip0_824_121">
<rect width="675" height="767.26" fill="white" transform="translate(0 0.290039)"/>
</clipPath>
</defs>
</svg>
