<svg width="388" height="550" viewBox="0 0 388 550" fill="none" xmlns="http://www.w3.org/2000/svg">
<g clip-path="url(#clip0_891_79)">
<path d="M192.59 547.89C191.49 547.89 190.59 546.99 190.59 545.89V544.5C189.75 544.5 189 543.96 188.72 543.16C186.52 536.85 185.2 531.55 184.36 525.91L114.44 542.19C114.29 542.22 114.14 542.24 113.99 542.24C113.54 542.24 113.1 542.09 112.75 541.81C112.27 541.43 111.99 540.85 111.99 540.24V521.87C111.99 521.2 112.32 520.58 112.87 520.21L176.46 477.42C174.11 464.11 173.06 452.23 173.06 439.08V299.08H139.28C138.77 307.46 137.26 309.28 135.69 309.94C135.44 310.04 135.18 310.1 134.91 310.1C134.64 310.1 134.38 310.05 134.13 309.94C132.56 309.28 131.05 307.46 130.54 299.08H115.92L105.38 301.69C104.92 310.73 103.37 312.65 101.75 313.33C101.5 313.43 101.24 313.49 100.97 313.49C100.7 313.49 100.44 313.44 100.19 313.33C98.71 312.71 97.29 311.07 96.7 303.84L71.99 309.97C71.5 318.7 69.97 320.57 68.38 321.24C68.13 321.35 67.87 321.4 67.6 321.4C67.33 321.4 67.07 321.35 66.82 321.24C65.37 320.63 63.96 319.04 63.36 312.1L4.45998 326.7C4.29998 326.74 4.13998 326.76 3.97998 326.76C3.53998 326.76 3.09998 326.61 2.74998 326.34C2.26998 325.96 1.97998 325.38 1.97998 324.76V307.81C1.97998 304.1 3.09998 302.04 6.25998 299.93C6.30998 299.89 6.36998 299.86 6.42998 299.83L113.42 242.69C109.98 197.68 114.72 196.43 116.52 195.96C116.69 195.92 116.86 195.89 117.03 195.89H142C142.17 195.89 142.34 195.91 142.51 195.96C144.3 196.44 147.58 197.3 146.61 224.96L166.6 214.28L167.37 213.71C170.06 211.72 171.72 210.48 173.03 207.64V46.0896C173.03 30.5096 181.86 4.80957 193.6 2.58957C193.72 2.56957 193.85 2.55957 193.97 2.55957C194.09 2.55957 194.22 2.56957 194.34 2.58957C206.08 4.80957 214.91 30.5096 214.91 46.0896V207.66C216.22 210.5 217.88 211.74 220.57 213.73L221.34 214.3L241.33 224.98C240.36 197.32 243.64 196.45 245.43 195.98C245.6 195.94 245.77 195.91 245.94 195.91H270.91C271.08 195.91 271.25 195.93 271.42 195.98C273.21 196.46 277.96 197.71 274.52 242.71L381.51 299.85C381.57 299.88 381.62 299.91 381.68 299.95C384.84 302.06 385.96 304.12 385.96 307.83V324.78C385.96 325.4 385.68 325.98 385.19 326.36C384.83 326.64 384.4 326.78 383.96 326.78C383.8 326.78 383.64 326.76 383.48 326.72L324.58 312.12C323.98 319.06 322.57 320.64 321.12 321.26C320.87 321.36 320.61 321.42 320.34 321.42C320.07 321.42 319.81 321.37 319.56 321.26C317.97 320.59 316.44 318.72 315.95 309.99L291.24 303.86C290.65 311.09 289.23 312.73 287.75 313.35C287.5 313.45 287.24 313.51 286.97 313.51C286.7 313.51 286.44 313.46 286.19 313.35C284.57 312.67 283.02 310.75 282.56 301.71L272.02 299.1H257.4C256.89 307.48 255.38 309.3 253.81 309.96C253.56 310.06 253.3 310.12 253.03 310.12C252.76 310.12 252.5 310.07 252.25 309.96C250.68 309.3 249.17 307.48 248.66 299.1H214.88V439.1C214.88 452.25 213.83 464.14 211.48 477.44L275.07 520.23C275.62 520.6 275.95 521.22 275.95 521.89V540.26C275.95 540.87 275.67 541.45 275.19 541.83C274.83 542.11 274.39 542.26 273.95 542.26C273.8 542.26 273.65 542.24 273.5 542.21L203.58 525.93C202.74 531.57 201.43 536.86 199.22 543.18C198.94 543.98 198.19 544.51 197.35 544.52V545.91C197.35 547.01 196.45 547.91 195.35 547.91H192.52L192.59 547.89Z" fill="white"/>
<path d="M194 4.5498C204.46 6.5298 212.94 31.3898 212.94 46.0898V208.08C214.64 212.04 216.9 213.45 220.29 215.99L243.49 228.38C242.75 211.66 243.29 198.61 245.97 197.9H270.94C274.4 198.82 274.3 220.39 272.46 243.85L380.6 301.6C383.15 303.29 383.99 304.71 383.99 307.82V324.77L322.78 309.59C322.53 314.35 321.89 318.76 320.37 319.4C318.73 318.71 318.11 313.58 317.91 308.39L289.43 301.33C289.19 306.22 288.56 310.84 287.01 311.49C285.33 310.78 284.72 305.43 284.54 300.11L272.31 297.08H255.55C255.35 302.28 254.73 307.41 253.09 308.1C251.45 307.41 250.83 302.28 250.63 297.08H212.94V439.08C212.94 454.52 211.41 466.97 209.34 478.36L274.01 521.87V540.24L203.61 523.85L203.04 508.59C202.47 522.15 201.63 530.35 197.39 542.5H195.41V545.89H192.58V542.5H190.6C186.36 530.35 185.51 522.16 184.95 508.59L184.38 523.85L113.98 540.24V521.87L178.65 478.36C176.58 466.98 175.05 454.52 175.05 439.08V297.08H137.36C137.16 302.28 136.54 307.41 134.9 308.1C133.26 307.41 132.64 302.28 132.44 297.08H115.67L103.44 300.11C103.25 305.43 102.64 310.78 100.97 311.49C99.42 310.84 98.78 306.22 98.55 301.33L70.07 308.39C69.87 313.59 69.25 318.71 67.61 319.4C66.1 318.76 65.45 314.35 65.2 309.59L3.99 324.77V307.82C3.99 304.71 4.84 303.3 7.38 301.6L115.52 243.85C113.68 220.39 113.58 198.82 117.04 197.9H142.01C144.68 198.61 145.23 211.66 144.49 228.38L167.69 215.99C171.08 213.45 173.34 212.03 175.04 208.08V46.0898C175.04 31.3998 183.52 6.5298 193.98 4.5498M193.98 0.549805C193.73 0.549805 193.48 0.569805 193.24 0.619805C179.47 3.2198 171.04 31.5398 171.04 46.0898V207.2C169.98 209.31 168.63 210.31 166.19 212.12C165.98 212.28 165.76 212.44 165.54 212.61L148.72 221.59C148.86 215.73 148.79 210.79 148.52 206.87C148.02 199.72 146.93 195.08 143.03 194.05C142.7 193.96 142.35 193.92 142.01 193.92H117.04C116.69 193.92 116.35 193.96 116.02 194.05C112.01 195.11 110.56 199.73 110.3 212.35C110.14 219.92 110.51 230.21 111.34 241.56L5.51 298.07C5.4 298.13 5.28 298.2 5.18 298.27C1.46 300.75 0 303.43 0 307.82V324.77C0 326 0.57 327.16 1.54 327.92C2.25 328.48 3.12 328.77 4 328.77C4.32 328.77 4.64 328.73 4.96 328.65L61.63 314.6C62.3 319.63 63.63 322.06 66.06 323.08C66.56 323.29 67.09 323.4 67.62 323.4C68.15 323.4 68.68 323.3 69.18 323.08C72.02 321.88 73.39 318.66 73.92 311.55L94.96 306.33C95.62 311.59 96.96 314.12 99.43 315.16C99.93 315.37 100.46 315.48 100.99 315.48C101.52 315.48 102.05 315.38 102.55 315.16C105.43 313.94 106.81 310.63 107.31 303.27L116.18 301.07H128.69C129.26 307.61 130.63 310.62 133.36 311.77C133.86 311.98 134.39 312.09 134.92 312.09C135.45 312.09 135.98 311.98 136.48 311.77C139.21 310.62 140.58 307.6 141.15 301.07H171.07V439.07C171.07 451.92 172.06 463.57 174.28 476.48L111.77 518.54C110.67 519.28 110 520.53 110 521.86V540.23C110 541.45 110.56 542.6 111.51 543.36C112.22 543.93 113.1 544.23 114 544.23C114.3 544.23 114.61 544.2 114.91 544.13L182.74 528.34C183.6 533.32 184.87 538.16 186.85 543.81C187.17 544.73 187.8 545.47 188.61 545.94C188.64 548.12 190.42 549.88 192.61 549.88H195.44C197.63 549.88 199.41 548.12 199.44 545.94C200.24 545.47 200.88 544.73 201.2 543.81C203.17 538.16 204.45 533.31 205.31 528.34L273.14 544.13C273.44 544.2 273.74 544.23 274.05 544.23C274.94 544.23 275.82 543.93 276.54 543.36C277.5 542.6 278.05 541.45 278.05 540.23V521.86C278.05 520.53 277.39 519.28 276.28 518.54L213.77 476.48C215.98 463.57 216.98 451.92 216.98 439.07V301.07H246.9C247.47 307.61 248.84 310.62 251.57 311.77C252.07 311.98 252.6 312.09 253.13 312.09C253.66 312.09 254.19 311.98 254.69 311.77C257.42 310.62 258.79 307.6 259.36 301.07H271.87L280.74 303.27C281.25 310.63 282.62 313.95 285.5 315.16C286 315.37 286.53 315.48 287.06 315.48C287.59 315.48 288.12 315.38 288.62 315.16C291.09 314.12 292.43 311.59 293.09 306.33L314.13 311.55C314.66 318.66 316.02 321.88 318.87 323.08C319.37 323.29 319.9 323.4 320.43 323.4C320.96 323.4 321.49 323.3 321.99 323.08C324.41 322.06 325.74 319.63 326.42 314.6L383.09 328.65C383.41 328.73 383.73 328.77 384.05 328.77C384.93 328.77 385.8 328.48 386.51 327.92C387.48 327.16 388.05 326 388.05 324.77V307.82C388.05 303.43 386.6 300.76 382.87 298.27C382.76 298.2 382.65 298.13 382.54 298.07L276.7 241.55C277.53 230.2 277.9 219.91 277.74 212.34C277.48 199.72 276.03 195.1 272.02 194.04C271.69 193.95 271.34 193.91 271 193.91H246.03C245.68 193.91 245.34 193.95 245.01 194.04C241.11 195.07 240.02 199.71 239.52 206.86C239.25 210.79 239.18 215.72 239.32 221.58L222.5 212.6C222.28 212.43 222.06 212.27 221.85 212.11C219.4 210.3 218.06 209.3 217 207.19V46.0898C217 31.5398 208.57 3.2298 194.8 0.619805C194.55 0.569805 194.31 0.549805 194.06 0.549805L193.98 0.549805Z" fill="black"/>
</g>
<defs>
<clipPath id="clip0_891_79">
<rect width="388" height="549.34" fill="white" transform="translate(0 0.549805)"/>
</clipPath>
</defs>
</svg>
