<svg width="483" height="494" viewBox="0 0 483 494" fill="none" xmlns="http://www.w3.org/2000/svg">
<g clip-path="url(#clip0_891_70)">
<path d="M239.89 491.89C238.79 491.89 237.89 490.99 237.89 489.89V477.69C235.97 476.29 233.93 472.34 231.11 462.79L145.24 484.15C145.08 484.19 144.92 484.21 144.76 484.21C144.32 484.21 143.88 484.06 143.53 483.79C143.05 483.41 142.76 482.83 142.76 482.21V467.46C142.76 462.77 145.26 460.57 147.68 458.44C148.16 458.02 148.66 457.58 149.16 457.1C149.22 457.04 149.28 456.99 149.35 456.94L218.34 405.44C214.2 382.99 211.54 363.98 211.54 356.82V280.14H178.04C177.33 289.48 175.7 290.73 174.22 291.14C174.05 291.19 173.87 291.21 173.69 291.21C173.51 291.21 173.34 291.19 173.16 291.14C171.67 290.73 170.05 289.48 169.34 280.15H161.16L128.91 290.96C128.22 300.81 126.56 302.1 125.05 302.52C124.88 302.57 124.7 302.59 124.52 302.59C124.34 302.59 124.17 302.57 123.99 302.52C122.3 302.06 121.08 300.36 120.38 293.82L80.73 307.11C80.07 317.36 78.38 318.7 76.84 319.12C76.67 319.17 76.49 319.19 76.31 319.19C76.13 319.19 75.96 319.17 75.78 319.12C74.05 318.65 72.81 316.88 72.12 309.99L4.62999 332.61C4.41999 332.68 4.20999 332.71 3.98999 332.71C3.57999 332.71 3.16999 332.58 2.81999 332.33C2.29999 331.95 1.98999 331.35 1.98999 330.71V306.74C1.98999 306.65 1.98999 306.56 2.00999 306.48C2.36999 303.79 3.05999 302.2 4.96999 299.69C5.10999 299.51 5.27999 299.35 5.47999 299.22L145.88 208.91C145.63 206.77 145.38 204.16 145.28 201.66H143.34C142.42 201.66 141.61 201.03 141.4 200.13C138.16 186.7 138.59 164.61 142.18 160.05C143.03 158.97 143.99 158.75 144.64 158.75H167.38C168.01 158.75 168.93 158.96 169.76 159.95C172.91 163.71 173.51 179.74 172.02 192.1L204.53 171.19C207.87 167.61 209.54 165.68 211.53 162.35V82.0699C211.53 65.7499 214.52 46.2299 219.34 31.1299C223.44 18.2599 230.62 2.91992 241.49 2.91992C252.36 2.91992 259.54 18.2599 263.64 31.1299C268.46 46.2299 271.45 65.7499 271.45 82.0699V162.35C273.45 165.68 275.12 167.61 278.45 171.19L310.96 192.1C309.48 179.74 310.07 163.71 313.22 159.95C314.05 158.96 314.97 158.75 315.6 158.75H338.34C339 158.75 339.95 158.98 340.8 160.05C344.39 164.6 344.82 186.7 341.58 200.13C341.36 201.03 340.56 201.66 339.64 201.66H337.7C337.6 204.16 337.35 206.77 337.1 208.91L477.5 299.22C477.7 299.34 477.87 299.5 478.01 299.69C479.92 302.2 480.61 303.78 480.97 306.48C480.98 306.57 480.99 306.66 480.99 306.74V330.71C480.99 331.35 480.68 331.96 480.16 332.33C479.82 332.58 479.41 332.71 478.99 332.71C478.78 332.71 478.56 332.68 478.35 332.61L410.86 309.99C410.17 316.87 408.93 318.65 407.2 319.12C407.03 319.17 406.85 319.19 406.67 319.19C406.49 319.19 406.31 319.17 406.14 319.12C404.59 318.7 402.9 317.36 402.25 307.11L362.6 293.82C361.9 300.36 360.68 302.06 358.99 302.52C358.82 302.57 358.64 302.59 358.46 302.59C358.28 302.59 358.1 302.57 357.93 302.52C356.41 302.1 354.75 300.81 354.07 290.96L321.82 280.15H313.64C312.93 289.49 311.31 290.74 309.82 291.15C309.65 291.2 309.47 291.22 309.29 291.22C309.11 291.22 308.94 291.2 308.76 291.15C307.27 290.74 305.65 289.49 304.94 280.16H271.44V356.84C271.44 364.01 268.78 383.01 264.64 405.46L333.63 456.96C333.7 457.01 333.76 457.06 333.82 457.12C334.32 457.6 334.82 458.04 335.3 458.46C337.72 460.59 340.22 462.79 340.22 467.48V482.23C340.22 482.85 339.94 483.43 339.45 483.81C339.09 484.09 338.66 484.23 338.22 484.23C338.06 484.23 337.9 484.21 337.74 484.17L251.87 462.81C249.05 472.37 247.01 476.31 245.09 477.71V489.91C245.09 491.01 244.19 491.91 243.09 491.91H239.88L239.89 491.89Z" fill="white"/>
<path d="M241.5 4.88965C258.21 4.88965 269.46 50.6897 269.46 82.0396V162.87C271.74 166.76 273.56 168.84 277.17 172.71L313.59 196.14C310.95 181.32 312.31 160.72 315.61 160.72H338.35C341.92 160.72 343.22 184.81 339.65 199.63H335.75C335.75 202.56 335.44 206.25 334.97 209.88L476.42 300.86C478.06 303.01 478.67 304.28 478.99 306.7V330.67L409.08 307.24C408.82 311.02 408.17 316.73 406.68 317.14C404.94 316.66 404.36 309.04 404.18 305.59L360.85 291.07C360.57 294.84 359.92 300.15 358.48 300.54C356.81 300.08 356.21 293.06 356 289.44L322.16 278.1H311.78C311.57 281.73 310.97 288.71 309.3 289.17C307.64 288.72 307.03 281.73 306.82 278.1H269.44V356.78C269.44 364.31 266.48 384.54 262.45 406.26L332.43 458.51C335.32 461.28 338.21 462.81 338.21 467.42V482.17L250.47 460.35C247.52 470.76 245 476.33 243.08 476.33V489.85H239.87V476.33C237.95 476.33 235.43 470.75 232.48 460.35L144.74 482.17V467.42C144.74 462.81 147.63 461.27 150.53 458.51L220.51 406.26C216.48 384.53 213.52 364.3 213.52 356.78V278.1H176.14C175.93 281.73 175.33 288.71 173.66 289.17C172 288.72 171.39 281.73 171.18 278.1H160.8L126.96 289.44C126.76 293.06 126.15 300.08 124.48 300.54C123.04 300.15 122.39 294.84 122.11 291.07L78.78 305.59C78.6 309.03 78.02 316.66 76.28 317.14C74.78 316.73 74.14 311.02 73.88 307.24L3.97 330.67V306.7C4.29 304.28 4.9 303.01 6.54 300.86L147.99 209.88C147.52 206.24 147.21 202.55 147.21 199.63H143.31C139.74 184.81 141.04 160.72 144.61 160.72H167.35C170.65 160.72 172.01 181.31 169.37 196.14L205.79 172.71C209.4 168.84 211.22 166.76 213.5 162.87V82.0396C213.5 50.6897 224.75 4.88965 241.46 4.88965M241.46 0.889648C231.9 0.889648 223.58 11.1296 217.4 30.4896C212.53 45.7696 209.5 65.5196 209.5 82.0296V161.75C207.75 164.59 206.23 166.35 203.2 169.6L174.37 188.15C175.28 176.67 174.69 162.73 171.25 158.63C170.22 157.39 168.83 156.71 167.34 156.71H144.6C143.7 156.71 141.98 156.98 140.57 158.78C138.03 162.01 137.34 170.29 137.21 176.66C137.04 185.31 137.84 194.03 139.42 200.56C139.85 202.36 141.46 203.62 143.31 203.62H143.35C143.45 205.08 143.58 206.53 143.72 207.86L4.41 297.5C4.02 297.75 3.68 298.07 3.39 298.44C1.52 300.89 0.49 302.76 0.03 306.18C0.01 306.35 0 306.53 0 306.71V330.68C0 331.97 0.62 333.18 1.66 333.93C2.35 334.43 3.17 334.68 4 334.68C4.43 334.68 4.86 334.61 5.27 334.47L70.44 312.63C71.23 317.97 72.65 320.3 75.25 321.01C75.6 321.1 75.95 321.15 76.3 321.15C76.65 321.15 77.01 321.1 77.35 321.01C80.51 320.15 81.98 316.8 82.62 308.54L118.7 296.45C119.51 301.5 120.91 303.72 123.45 304.41C123.8 304.5 124.15 304.55 124.5 304.55C124.85 304.55 125.21 304.5 125.55 304.41C128.66 303.56 130.11 300.33 130.78 292.4L161.47 282.12H167.49C168.2 289.27 169.66 292.23 172.62 293.04C172.97 293.13 173.32 293.18 173.67 293.18C174.02 293.18 174.38 293.13 174.72 293.04C177.68 292.23 179.14 289.26 179.85 282.12H209.52V356.8C209.52 363.94 212.1 382.53 216.13 404.57L148.14 455.33C148.01 455.43 147.89 455.53 147.77 455.64C147.31 456.08 146.82 456.51 146.35 456.92C143.85 459.12 140.75 461.85 140.75 467.44V482.19C140.75 483.42 141.32 484.58 142.29 485.34C143 485.9 143.87 486.19 144.75 486.19C145.07 486.19 145.4 486.15 145.72 486.07L229.74 465.17C231.92 472.26 233.8 476.44 235.89 478.56V489.86C235.89 492.07 237.68 493.86 239.89 493.86H243.1C245.31 493.86 247.1 492.07 247.1 489.86V478.56C249.19 476.44 251.07 472.26 253.25 465.17L337.27 486.07C337.59 486.15 337.91 486.19 338.24 486.19C339.12 486.19 339.99 485.9 340.7 485.34C341.67 484.58 342.24 483.42 342.24 482.19V467.44C342.24 461.85 339.13 459.12 336.64 456.92C336.17 456.51 335.68 456.08 335.22 455.64C335.1 455.53 334.98 455.42 334.85 455.33L266.86 404.57C270.89 382.54 273.47 363.95 273.47 356.8V282.12H303.14C303.85 289.27 305.31 292.23 308.27 293.04C308.62 293.13 308.97 293.18 309.32 293.18C309.67 293.18 310.03 293.13 310.37 293.04C313.33 292.23 314.79 289.26 315.5 282.12H321.52L352.21 292.4C352.88 300.34 354.33 303.56 357.44 304.41C357.79 304.5 358.14 304.55 358.49 304.55C358.84 304.55 359.2 304.5 359.54 304.41C362.08 303.72 363.48 301.5 364.29 296.45L400.37 308.54C401.01 316.8 402.48 320.14 405.64 321.01C405.99 321.1 406.34 321.15 406.7 321.15C407.06 321.15 407.41 321.1 407.75 321.01C410.35 320.3 411.77 317.97 412.56 312.63L477.73 334.47C478.14 334.61 478.57 334.68 479 334.68C479.83 334.68 480.65 334.42 481.34 333.93C482.38 333.18 483 331.97 483 330.68V306.71C483 306.53 482.99 306.36 482.97 306.18C482.52 302.76 481.48 300.89 479.61 298.44C479.33 298.07 478.98 297.75 478.59 297.5L339.24 207.87C339.38 206.54 339.52 205.09 339.61 203.63H339.65C341.5 203.63 343.11 202.36 343.54 200.57C345.12 194.03 345.92 185.32 345.75 176.67C345.62 170.3 344.94 162.02 342.39 158.79C340.97 156.99 339.25 156.72 338.36 156.72H315.62C314.13 156.72 312.74 157.4 311.71 158.64C308.27 162.75 307.68 176.68 308.59 188.16L279.76 169.61C276.74 166.36 275.21 164.6 273.46 161.76V82.0396C273.46 65.5296 270.43 45.7796 265.56 30.4996C259.38 11.1296 251.07 0.899648 241.5 0.899648L241.46 0.889648Z" fill="black"/>
</g>
<defs>
<clipPath id="clip0_891_70">
<rect width="483" height="493" fill="white" transform="translate(0 0.889648)"/>
</clipPath>
</defs>
</svg>
