<svg width="610" height="645" viewBox="0 0 610 645" fill="none" xmlns="http://www.w3.org/2000/svg">
<g clip-path="url(#clip0_468_1460)">
<path d="M411.52 643C411.27 643 411.01 642.95 410.78 642.86C372.13 627.69 352.22 620.03 314.25 606.72C310.15 621.73 306.85 632.81 306.82 632.93C306.57 633.78 305.79 634.36 304.9 634.36C304.01 634.36 303.23 633.77 302.99 632.92C302.96 632.8 299.64 621.37 295.52 606.27C257.38 619.64 236.76 627.73 199.86 642.21L199.03 642.54C198.79 642.63 198.54 642.68 198.29 642.68C197.66 642.68 197.05 642.37 196.67 641.87C195.42 640.22 194.08 622.16 194.71 619.88C195.51 617.02 199.96 612.31 200.84 611.39C200.9 611.33 200.95 611.28 201.01 611.23C201.48 610.85 248.23 572.68 277.7 547.82C278.46 547.18 279.67 545.05 280.54 543.16C274.83 510.58 270.73 462.98 270.68 462.5C270.68 462.44 270.68 462.39 270.68 462.33V354.07H225.17L223.9 358.31C223.65 359.16 222.87 359.73 221.98 359.73C221.09 359.73 220.32 359.15 220.06 358.3L218.84 354.24L197.71 356.35L168.47 366.29L167.06 371C166.81 371.85 166.03 372.43 165.14 372.43C164.25 372.43 163.48 371.85 163.22 371.01L162.42 368.35L114.71 384.56L113.56 388.39C113.31 389.24 112.53 389.82 111.64 389.82C110.75 389.82 109.98 389.24 109.72 388.4L109.14 386.46L78.76 396.79L4.75998 427.98C4.50998 428.09 4.24998 428.14 3.97998 428.14C3.58998 428.14 3.20998 428.03 2.86998 427.81C2.30998 427.44 1.97998 426.81 1.97998 426.14V407.87C1.97998 407.67 2.00998 407.46 2.06998 407.27C3.02998 404.24 4.11998 402.69 6.72998 400.65C6.75998 400.63 6.78998 400.6 6.82998 400.58L196.84 269.69C195.8 266.38 195.09 263.75 194.29 259.75H192.29C191.35 259.75 190.54 259.1 190.34 258.18C185.92 238.01 186.72 226.54 190.33 206.91C190.5 205.96 191.33 205.27 192.3 205.27C198.61 205.27 203.51 205.28 208.29 205.28C213.33 205.28 218.24 205.28 224.51 205.27C225.48 205.27 226.32 205.97 226.48 206.93C229.19 222.8 229.43 232.87 227.22 248.76L270.66 218.84V91.3598C270.66 91.2898 270.66 91.2198 270.67 91.1498C270.82 89.7698 274.41 57.2498 282.78 37.7698C283.8 35.3898 284.88 32.6898 286.02 29.8398C289.08 22.1798 292.55 13.5098 296.08 8.22978C299.28 3.43979 304.16 2.13979 304.37 2.08979C304.53 2.04979 304.7 2.02979 304.87 2.02979C305.04 2.02979 305.2 2.04979 305.37 2.08979C305.58 2.13979 310.46 3.43979 313.66 8.22978C317.19 13.5198 320.66 22.1898 323.72 29.8398C324.89 32.7598 325.96 35.4298 326.97 37.7898C335.34 57.2798 338.93 89.8198 339.08 91.1998C339.08 91.2698 339.09 91.3398 339.09 91.4098V218.95L382.53 248.89C380.32 232.99 380.57 222.92 383.27 207.04C383.43 206.08 384.27 205.38 385.24 205.38C391.52 205.38 396.42 205.39 401.46 205.39C406.23 205.39 411.14 205.39 417.45 205.38C418.41 205.38 419.24 206.07 419.42 207.02C423.03 226.66 423.83 238.13 419.41 258.32C419.21 259.24 418.4 259.89 417.46 259.89H415.46C414.66 263.9 413.95 266.53 412.91 269.84L602.92 400.79C602.92 400.79 602.98 400.84 603.02 400.86C605.64 402.9 606.73 404.45 607.68 407.48C607.74 407.68 607.77 407.88 607.77 408.08V426.36C607.77 427.03 607.43 427.66 606.88 428.03C606.55 428.25 606.16 428.36 605.77 428.36C605.51 428.36 605.24 428.31 604.99 428.2L530.99 396.99L499.94 386.43L499.35 388.4C499.1 389.25 498.32 389.83 497.43 389.83C496.55 389.83 495.77 389.25 495.51 388.4L494.35 384.53L446.66 368.32L445.85 371.02C445.6 371.87 444.82 372.45 443.93 372.45C443.04 372.45 442.27 371.87 442.01 371.03L440.58 366.27L412.02 356.56L390.19 354.37L389.01 358.32C388.76 359.17 387.98 359.75 387.09 359.75C386.2 359.75 385.43 359.17 385.17 358.33L383.95 354.27H339.05V462.59C339.05 462.65 339.05 462.7 339.05 462.76C339.01 463.24 334.91 510.87 329.19 543.46C330.08 545.38 331.27 547.48 332.03 548.12C361.5 573 408.26 611.18 408.72 611.57C408.78 611.62 408.84 611.67 408.89 611.73C409.77 612.65 414.23 617.37 415.02 620.23C415.66 622.51 414.31 640.58 413.06 642.23C412.68 642.73 412.07 643.04 411.44 643.04L411.52 643Z" fill="white"/>
<path d="M304.9 3.99998C304.9 3.99998 309.22 5.10998 312.02 9.31998C315.43 14.44 318.82 22.91 321.89 30.57C323.03 33.42 324.13 36.16 325.16 38.57C333.51 58.01 337.12 91.4 337.12 91.4V220L385.21 253.15C382.39 235.01 382.29 224.9 385.28 207.38C391.55 207.38 396.45 207.39 401.49 207.39C406.27 207.39 411.17 207.39 417.49 207.38C421.11 227.11 421.81 238.16 417.49 257.89H413.84C412.85 263.14 412.1 265.95 410.59 270.64L601.82 402.43C604.06 404.18 604.96 405.39 605.81 408.08V426.36L531.75 395.12L498.67 383.87L497.48 387.82L496.02 382.97L445.39 365.76L443.99 370.44L442.27 364.69L412.52 354.57L389.27 352.24H388.8L387.15 357.72L385.5 352.24H337.12V462.56C337.12 462.56 333 510.79 327.18 543.69C327.4 544.2 329.23 548.28 330.81 549.62C360.64 574.79 407.53 613.09 407.53 613.09C407.53 613.09 412.48 618.22 413.18 620.73C413.87 623.22 411.97 641 411.53 641C411.53 641 411.53 641 411.52 641C373.27 625.98 352.65 618.04 312.9 604.13C312.76 604.64 312.62 605.15 312.48 605.66C308.27 621.09 304.91 632.36 304.91 632.36C304.91 632.36 301.31 619.95 296.89 603.67C257.42 617.47 236.86 625.54 199.14 640.34L198.31 640.67C198.31 640.67 198.31 640.67 198.3 640.67C197.86 640.67 195.96 622.9 196.65 620.41C197.35 617.9 202.3 612.77 202.3 612.77C202.3 612.77 249.19 574.5 279.02 549.34C280.6 548 282.43 543.93 282.65 543.42C276.83 510.54 272.71 462.33 272.71 462.33V352.07H223.71L222.01 357.73L220.32 352.09L197.32 354.39L166.89 364.73L165.18 370.43L163.79 365.78L113.14 382.99L111.69 387.81L110.51 383.88L78.1 394.9L4.04 426.12V407.85C4.89 405.17 5.79 403.95 8.03 402.2L199.26 270.47C197.74 265.78 196.99 262.98 196.01 257.73H192.36C188.04 238.02 188.74 226.96 192.36 207.25C198.67 207.25 203.57 207.26 208.34 207.26C213.39 207.26 218.29 207.26 224.58 207.25C227.57 224.76 227.47 234.87 224.64 253L272.73 219.87V91.35C272.73 91.35 276.34 57.97 284.69 38.54C285.72 36.14 286.82 33.4 287.96 30.55C291.02 22.9 294.41 14.43 297.83 9.31998C300.64 5.10998 304.95 4.00998 304.95 4.00998M304.95 0.00998047C304.62 0.00998047 304.28 0.0499805 303.96 0.13998C303.37 0.28998 298.06 1.77998 294.5 7.10998C290.85 12.57 287.34 21.34 284.25 29.08C283.11 31.93 282.03 34.62 281.02 36.98C272.53 56.73 268.91 89.55 268.76 90.94C268.74 91.08 268.74 91.23 268.74 91.37V217.8L229.85 244.59C231.45 230.93 231.01 221.19 228.52 206.61C228.19 204.69 226.53 203.28 224.58 203.28C218.3 203.28 213.4 203.29 208.35 203.29C203.58 203.29 198.68 203.29 192.38 203.28C190.45 203.28 188.8 204.66 188.45 206.56C184.79 226.47 183.98 238.11 188.48 258.62C188.88 260.46 190.51 261.76 192.39 261.76H192.76C193.33 264.45 193.89 266.57 194.59 268.89L5.72 398.91C5.65 398.96 5.59 399 5.53 399.05C2.61 401.33 1.27 403.24 0.19 406.64C0.07 407.03 0 407.44 0 407.84V426.11C0 427.45 0.67 428.7 1.79 429.44C2.46 429.88 3.23 430.11 4 430.11C4.53 430.11 5.05 430.01 5.55 429.8L79.48 398.64L107.83 389C108.35 390.67 109.9 391.81 111.65 391.81C113.4 391.81 114.97 390.65 115.48 388.96L116.33 386.12L161.11 370.9L161.31 371.57C161.82 373.26 163.37 374.42 165.14 374.42C166.91 374.42 168.46 373.26 168.97 371.57L170.09 367.84L198.14 358.31L217.4 356.38L218.14 358.86C218.65 360.55 220.2 361.71 221.97 361.71C223.74 361.71 225.29 360.55 225.8 358.86L226.64 356.05H268.66V462.31C268.66 462.42 268.66 462.54 268.67 462.65C268.71 463.13 272.77 510.21 278.44 542.86C277.63 544.52 276.76 545.92 276.37 546.28C246.92 571.12 200.18 609.28 199.71 609.66C199.59 609.76 199.47 609.87 199.36 609.98C197.66 611.74 193.62 616.17 192.74 619.32C192.54 620.03 192.08 621.7 192.98 631.56C193.9 641.58 194.4 642.23 195.03 643.06C195.79 644.06 196.99 644.66 198.24 644.66C198.74 644.66 199.24 644.56 199.71 644.38L200.54 644.05C236.76 629.84 257.27 621.79 294.1 608.85C297.96 622.92 300.98 633.34 301.01 633.46C301.5 635.16 303.06 636.34 304.84 636.35C304.84 636.35 304.84 636.35 304.85 636.35C306.62 636.35 308.18 635.19 308.68 633.49C308.71 633.38 311.72 623.28 315.56 609.31C352.19 622.17 372.06 629.82 410 644.71C410.47 644.89 410.97 644.99 411.47 644.99C412.72 644.99 413.93 644.39 414.68 643.39C415.31 642.56 415.8 641.91 416.73 631.89C417.64 622.03 417.17 620.36 416.97 619.64C416.09 616.49 412.05 612.05 410.35 610.29C410.24 610.18 410.12 610.07 410 609.97C409.53 609.59 362.79 571.41 333.33 546.54C332.95 546.19 332.09 544.79 331.28 543.13C336.95 510.47 341.01 463.36 341.05 462.88C341.05 462.77 341.06 462.65 341.06 462.54V356.22H382.47L383.26 358.85C383.77 360.54 385.32 361.7 387.09 361.7C388.86 361.7 390.41 360.54 390.92 358.85L391.63 356.48L411.59 358.48L438.96 367.78L440.09 371.55C440.6 373.24 442.15 374.4 443.92 374.4C445.69 374.4 447.24 373.24 447.75 371.55L447.96 370.84L492.71 386.06L493.57 388.94C494.08 390.63 495.63 391.79 497.4 391.79C499.17 391.79 500.71 390.64 501.23 388.96L530.24 398.82L604.17 430C604.67 430.21 605.2 430.31 605.72 430.31C606.5 430.31 607.27 430.08 607.93 429.64C609.05 428.9 609.72 427.65 609.72 426.31V408.03C609.72 407.62 609.66 407.22 609.53 406.83C608.46 403.43 607.11 401.51 604.19 399.23C604.13 399.18 604.06 399.13 604 399.09L415.2 268.97C415.9 266.65 416.46 264.53 417.03 261.84H417.4C419.28 261.84 420.91 260.53 421.31 258.7C425.8 238.18 425 226.54 421.34 206.61C420.99 204.71 419.34 203.33 417.41 203.33C411.1 203.33 406.19 203.34 401.41 203.34C396.37 203.34 391.47 203.34 385.2 203.33C383.25 203.33 381.58 204.74 381.26 206.66C378.78 221.24 378.34 230.99 379.93 244.66L341.04 217.86V91.37C341.04 91.23 341.04 91.08 341.02 90.94C340.87 89.55 337.25 56.72 328.76 36.96C327.75 34.6 326.67 31.92 325.53 29.07C322.43 21.31 318.92 12.54 315.27 7.07998C311.71 1.74998 306.41 0.25998 305.81 0.10998C305.48 0.0299805 305.15 -0.0200195 304.82 -0.0200195L304.95 0.00998047Z" fill="black"/>
</g>
<defs>
<clipPath id="clip0_468_1460">
<rect width="609.8" height="645" fill="white"/>
</clipPath>
</defs>
</svg>
