<svg width="649" height="739" viewBox="0 0 649 739" fill="none" xmlns="http://www.w3.org/2000/svg">
<g clip-path="url(#clip0_505_15)">
<path d="M429.472 736.903C429.226 736.903 428.981 736.851 428.755 736.756C391.76 721.249 371.299 712.841 333.98 698.864C329.954 714.592 326.715 726.219 326.675 726.345C326.43 727.236 325.664 727.844 324.79 727.844C323.916 727.844 323.15 727.226 322.915 726.335C322.885 726.209 319.626 714.225 315.581 698.393C278.222 712.369 258.036 720.83 221.886 735.981L220.855 736.41C220.629 736.505 220.374 736.557 220.128 736.557C219.52 736.557 218.901 736.232 218.528 735.708C217.301 733.988 215.985 715.053 216.604 712.652C217.389 709.653 221.758 704.704 222.632 703.75C222.691 703.687 222.74 703.635 222.799 703.583C223.26 703.184 269.16 663.164 298.104 637.099C298.909 636.375 300.146 633.953 300.893 632.223C295.286 598.064 291.251 548.156 291.212 547.642C291.212 547.59 291.212 547.537 291.212 547.485L289.641 397.951H244.939L243.692 402.396C243.447 403.287 242.681 403.885 241.807 403.885C240.943 403.885 240.177 403.277 239.922 402.386L238.724 398.129L217.978 400.341L189.27 410.753L187.885 415.691C187.64 416.582 186.874 417.19 186 417.19C185.136 417.19 184.371 416.582 184.115 415.691L183.33 412.902L136.487 429.898L135.358 433.914C135.113 434.805 134.347 435.402 133.473 435.402C132.609 435.402 131.843 434.794 131.588 433.914L131.019 431.879L101.191 442.71L28.605 475.381L5.59123 487.816C5.31632 487.963 5.01196 488.047 4.70759 488.047C4.35414 488.047 3.99087 487.942 3.67668 487.732C3.09741 487.355 2.74396 486.673 2.74396 485.95V478.086C2.74396 477.625 2.89123 477.174 3.15632 476.796L18.3745 455.827C18.5021 455.659 18.6494 455.512 18.8163 455.386L217.144 309.438C216.123 305.978 215.425 303.221 214.65 299.016H212.686C211.763 299.016 210.968 298.335 210.772 297.37C206.432 276.243 207.217 264.217 210.762 243.614C210.929 242.618 211.744 241.895 212.696 241.895H244.33C245.283 241.895 246.107 242.629 246.264 243.635C248.925 260.275 249.161 270.833 246.991 287.493L289.651 256.112L291.222 95.7159C291.222 95.653 291.222 95.5796 291.232 95.5167C291.379 94.0698 294.904 59.9732 303.121 39.5488C304.103 37.1164 305.144 34.3379 306.312 31.2239C309.317 23.203 312.714 14.1232 316.189 8.57675C319.194 3.75374 323.769 2.30684 324.28 2.14957C324.447 2.09714 324.623 2.07617 324.8 2.07617C324.977 2.07617 325.153 2.09714 325.33 2.14957C325.841 2.30684 330.396 3.77471 333.391 8.57675C336.837 14.1022 340.234 23.1611 343.238 31.1505C344.485 34.4847 345.487 37.1478 346.469 39.5803C354.686 60.0152 358.211 94.1327 358.358 95.5691C358.358 95.653 358.368 95.7369 358.368 95.8207L356.797 256.28L399.438 287.672C397.278 270.99 397.513 260.432 400.174 243.793C400.331 242.786 401.156 242.052 402.108 242.052H433.733C434.685 242.052 435.49 242.776 435.667 243.772C439.211 264.385 439.987 276.411 435.657 297.559C435.461 298.523 434.665 299.205 433.742 299.205H431.779C431.062 303.042 430.404 305.789 429.275 309.627L615.831 446.925L633.248 460.136C633.425 460.272 633.572 460.43 633.7 460.618L646.463 479.491C646.709 479.847 646.836 480.277 646.836 480.718V488.581C646.836 489.315 646.473 489.997 645.884 490.374C645.57 490.573 645.226 490.678 644.873 490.678C644.559 490.678 644.244 490.594 643.95 490.437L617.784 475.643L545.218 442.951L514.733 431.879L514.153 433.945C513.908 434.836 513.142 435.434 512.268 435.434C511.395 435.434 510.639 434.826 510.383 433.945L509.244 429.898L462.421 412.902L461.636 415.722C461.391 416.614 460.625 417.222 459.751 417.222C458.877 417.222 458.121 416.614 457.866 415.722L456.472 410.732L428.431 400.551L406.988 398.255L405.82 402.396C405.574 403.287 404.808 403.885 403.935 403.885C403.061 403.885 402.305 403.277 402.049 402.396L400.852 398.139H356.797L358.368 547.695C358.368 547.758 358.368 547.831 358.368 547.894C358.329 548.397 354.304 598.326 348.688 632.506C349.444 634.247 350.69 636.669 351.486 637.392C380.42 663.468 426.32 703.509 426.781 703.918C426.84 703.971 426.899 704.023 426.948 704.086C427.812 705.05 432.191 709.999 432.977 712.987C433.595 715.388 432.28 734.334 431.052 736.054C430.679 736.578 430.08 736.903 429.462 736.903H429.472Z" fill="white"/>
<path d="M324.82 4.19389C325.242 4.31971 329.169 5.58837 331.771 9.76132C335.119 15.1295 338.447 24.0102 341.461 32.0415C342.581 35.0297 343.661 37.9025 344.672 40.4294C352.87 60.8118 356.415 95.8205 356.415 95.8205L354.824 257.391L402.04 292.148C399.271 273.129 399.173 262.529 402.108 244.159H433.733C437.287 264.846 437.974 276.432 433.733 297.118H430.149C429.177 302.623 428.441 305.569 426.958 310.486L614.711 448.665L632.109 461.855L644.873 480.728V488.592L618.629 473.756L545.915 441.001L513.437 429.206L512.268 433.347L510.835 428.262L461.125 410.218L459.751 415.125L458.062 409.096L428.853 398.485L406.026 396.042H405.564L403.944 401.788L402.324 396.042H354.824L356.415 547.715C356.415 547.715 352.369 598.284 346.655 632.779C346.871 633.313 348.668 637.591 350.219 638.996C379.507 665.386 425.544 705.543 425.544 705.543C425.544 705.543 430.404 710.922 431.092 713.553C431.769 716.164 429.904 734.806 429.472 734.806C391.917 719.058 371.672 710.733 332.645 696.149L332.232 697.753C328.099 713.931 324.8 725.747 324.8 725.747C324.8 725.747 321.265 712.736 316.926 695.666C278.173 710.135 257.987 718.597 220.953 734.114L220.138 734.46H220.128C219.696 734.46 217.831 715.829 218.508 713.218C219.196 710.586 224.056 705.207 224.056 705.207C224.056 705.207 270.093 665.082 299.381 638.702C300.932 637.297 302.729 633.03 302.945 632.495C297.231 598.021 293.185 547.474 293.185 547.474L291.595 395.864H243.486L241.817 401.798L240.157 395.885L217.576 398.296L187.699 409.138L186.02 415.114L184.655 410.239L134.926 428.283L133.503 433.337L132.344 429.216L100.523 440.77L27.8098 473.504L4.73708 485.97V478.107L19.9553 457.137L219.48 310.308C217.988 305.391 217.252 302.455 216.289 296.95H212.706C208.464 276.285 209.152 264.689 212.706 244.023H244.34C247.276 262.382 247.177 272.982 244.399 291.991L291.615 257.255L293.195 95.7681C293.195 95.7681 296.74 60.7699 304.938 40.3979C305.949 37.8815 307.029 35.0087 308.148 32.0205C311.153 23.9997 314.481 15.1191 317.839 9.76132C320.568 5.37868 324.751 4.21486 324.82 4.19389ZM324.82 -2.6498e-05C324.466 -2.6498e-05 324.123 0.0523975 323.779 0.146761C322.827 0.42985 317.898 2.08645 314.569 7.4337C310.986 13.1584 307.54 22.3431 304.506 30.4583C303.347 33.5618 302.307 36.3193 301.335 38.7413C292.999 59.4488 289.445 93.8599 289.297 95.3173C289.288 95.4536 289.278 95.5899 289.278 95.7262L287.717 255.043L249.524 283.142C251.095 268.82 250.663 258.608 248.228 243.321C247.904 241.308 246.274 239.829 244.36 239.829H212.725C210.831 239.829 209.201 241.276 208.867 243.268C205.273 264.164 204.488 276.358 208.896 297.852C209.289 299.781 210.889 301.144 212.735 301.144H213.099C213.658 303.975 214.208 306.188 214.895 308.609L17.7167 453.688C17.3829 453.929 17.0884 454.233 16.8429 454.568L1.62472 475.538C1.09453 476.272 0.799988 477.174 0.799988 478.107V485.97C0.799988 487.428 1.5069 488.78 2.67526 489.546C3.30362 489.955 4.02035 490.164 4.72726 490.164C5.33599 490.164 5.94472 490.017 6.50435 489.713L29.4593 477.31L101.917 444.692L129.752 434.584C130.263 436.335 131.784 437.531 133.503 437.531C135.24 437.531 136.762 436.314 137.263 434.542L138.107 431.554L182.063 415.607L182.26 416.309C182.76 418.081 184.282 419.298 186.02 419.298C187.758 419.298 189.28 418.081 189.78 416.309L190.88 412.398L218.41 402.406L237.32 400.383L238.047 402.983C238.547 404.755 240.069 405.971 241.807 405.971C243.545 405.971 245.067 404.755 245.567 402.983L246.392 400.037H287.697L289.248 547.495C289.248 547.6 289.248 547.705 289.258 547.81C289.297 548.313 293.284 597.675 298.851 631.908C298.163 633.408 297.28 635.033 296.818 635.494C267.913 661.528 222.023 701.538 221.562 701.936C221.444 702.041 221.326 702.156 221.218 702.272C219.549 704.117 215.573 708.772 214.719 712.065C214.522 712.819 214.071 714.56 214.964 724.898C215.867 735.404 216.358 736.085 216.977 736.956C217.723 737.993 218.901 738.633 220.128 738.633C220.629 738.633 221.13 738.528 221.591 738.339L222.406 737.993L222.583 737.92C258.066 723.053 278.173 714.623 314.245 701.097C318.025 715.85 320.991 726.785 321.03 726.901C321.511 728.683 323.043 729.92 324.79 729.931C324.79 729.931 324.79 729.931 324.8 729.931C326.538 729.931 328.069 728.714 328.56 726.932C328.59 726.817 331.545 716.217 335.315 701.58C371.338 715.095 391.711 723.461 428.028 738.696C428.49 738.885 428.971 738.99 429.462 738.99C430.689 738.99 431.877 738.36 432.623 737.312C433.242 736.442 433.723 735.76 434.636 725.254C435.529 714.916 435.078 713.165 434.881 712.421C434.017 709.118 430.041 704.463 428.372 702.618C428.264 702.502 428.146 702.387 428.028 702.282C427.567 701.884 381.677 661.842 352.752 635.777C352.311 635.337 351.427 633.701 350.74 632.202C356.307 597.948 360.293 548.565 360.332 548.061C360.342 547.925 360.352 547.789 360.342 547.652L358.791 400.215H399.399L400.174 402.973C400.675 404.745 402.207 405.961 403.935 405.961C405.663 405.961 407.194 404.745 407.695 402.973L408.392 400.488L427.999 402.585L454.861 412.346L455.971 416.299C456.472 418.071 457.993 419.287 459.731 419.287C461.469 419.287 463.001 418.071 463.492 416.299L463.698 415.565L507.634 431.512L508.488 434.532C508.989 436.304 510.511 437.52 512.249 437.52C513.977 437.52 515.499 436.314 516.009 434.553L544.501 444.901L616.93 477.53L643.027 492.282C643.606 492.607 644.235 492.764 644.863 492.764C645.57 492.764 646.267 492.565 646.885 492.167C648.064 491.412 648.79 490.049 648.79 488.571V480.707C648.79 479.826 648.525 478.967 648.044 478.254L635.28 459.381C635.025 459.003 634.721 458.678 634.367 458.416L616.969 445.226C616.969 445.226 616.94 445.205 616.92 445.195L431.553 308.767C432.299 306.125 432.829 303.912 433.35 301.291H433.713C435.559 301.291 437.159 299.918 437.552 297.999C441.96 276.495 441.175 264.29 437.581 243.384C437.238 241.391 435.618 239.945 433.723 239.945H402.099C400.184 239.945 398.554 241.423 398.23 243.436C395.785 258.723 395.353 268.935 396.924 283.278L358.761 255.189L360.322 95.852C360.322 95.6842 360.322 95.5165 360.303 95.3592C360.155 93.9018 356.601 59.4907 348.265 38.7623C347.293 36.3298 346.253 33.5723 345.094 30.4688L345.065 30.3849C342.031 22.3011 338.595 13.1374 335.031 7.42321C331.712 2.10742 326.813 0.419365 325.87 0.136276C325.527 0.0314279 325.173 -0.0209961 324.81 -0.0209961L324.82 -2.6498e-05Z" fill="black"/>
</g>
<defs>
<clipPath id="clip0_505_15">
<rect width="648" height="739" fill="white" transform="translate(0.799988)"/>
</clipPath>
</defs>
</svg>
