<svg width="630" height="652" viewBox="0 0 630 652" fill="none" xmlns="http://www.w3.org/2000/svg">
<g clip-path="url(#clip0_892_121)">
<path d="M418.67 649.56C418.45 649.56 418.22 649.52 418 649.45L323.99 616.18C323.54 618.36 323.14 620.55 322.74 622.67C321 632.1 319.74 638.91 315.7 640.42C315.47 640.5 315.24 640.55 315 640.55C314.76 640.55 314.52 640.51 314.3 640.42C310.26 638.91 309 632.1 307.26 622.67C306.87 620.54 306.46 618.36 306.01 616.17L212 649.44C211.78 649.52 211.56 649.55 211.33 649.55C211 649.55 210.66 649.47 210.36 649.3C209.86 649.02 209.5 648.55 209.38 647.99C208.36 643.5 205.38 628.35 209.67 621.92C209.78 621.75 209.92 621.6 210.08 621.47L292.33 555.2C287.89 534.98 283.45 512.45 283.45 496.94V364.82H237.56C237.02 372.63 235.9 375.33 233.36 375.33C230.82 375.33 229.71 372.63 229.16 364.82H211.65L185.49 373.58C184.95 381.59 183.84 384.33 181.27 384.33C178.7 384.33 177.81 381.43 177.29 376.32L133.44 391C132.92 399.44 131.8 402.34 129.19 402.34C126.89 402.34 125.75 400.04 125.15 393.77L26.82 426.69L4.94 438.61C4.64 438.77 4.31 438.85 3.98 438.85C3.63 438.85 3.27 438.76 2.96 438.57C2.35 438.21 1.98 437.56 1.98 436.85V428.34C1.98 427.94 2.1 427.55 2.33 427.22C3.1 426.08 3.83 425 4.54 423.95C9.02 417.29 12.55 412.03 19.59 404.92C19.69 404.82 19.8 404.73 19.91 404.66L208.78 280.22C207.82 275.77 207.18 271.39 206.93 268.56H203.83C202.9 268.56 202.09 267.91 201.88 267C198.14 250.52 196.2 216.92 205.84 211.45C206.14 211.28 206.48 211.19 206.83 211.19H236.83C237.18 211.19 237.52 211.28 237.82 211.45C246.34 216.27 245.53 242.01 243.49 257.34L275.82 236.04C278.73 233.96 281.03 231.94 283.43 225.35V93.9496C283.43 71.6396 297.62 2.88965 314.98 2.88965C332.34 2.88965 346.53 71.6396 346.53 93.9496V225.39C348.93 231.98 351.23 234 354.2 236.12L386.47 257.38C384.43 242.05 383.62 216.31 392.14 211.49C392.44 211.32 392.78 211.23 393.13 211.23H423.13C423.48 211.23 423.81 211.32 424.12 211.49C433.76 216.95 431.83 250.55 428.08 267.04C427.87 267.95 427.06 268.6 426.13 268.6H423.03C422.79 271.43 422.14 275.8 421.18 280.26L610.05 404.7C610.17 404.78 610.27 404.86 610.37 404.96C617.41 412.07 620.95 417.33 625.43 424C626.13 425.05 626.86 426.13 627.63 427.26C627.86 427.59 627.98 427.98 627.98 428.38V436.89C627.98 437.6 627.61 438.25 627 438.61C626.69 438.8 626.33 438.89 625.98 438.89C625.65 438.89 625.32 438.81 625.02 438.65L603.14 426.73L504.81 393.81C504.21 400.08 503.08 402.38 500.77 402.38C498.15 402.38 497.03 399.48 496.52 391.04L452.67 376.36C452.15 381.47 451.18 384.37 448.69 384.37C446.2 384.37 445.02 381.62 444.48 373.62L418.32 364.86H400.82C400.28 372.67 399.16 375.37 396.62 375.37C394.08 375.37 392.96 372.67 392.42 364.86H346.53V496.98C346.53 512.49 342.09 535.02 337.65 555.24L419.9 621.51C420.06 621.64 420.2 621.79 420.31 621.96C424.6 628.39 421.61 643.54 420.6 648.03C420.47 648.59 420.12 649.06 419.62 649.34C419.32 649.51 418.99 649.59 418.65 649.59L418.67 649.56Z" fill="white"/>
<path d="M315 4.88965C329.52 4.88965 344.55 68.9296 344.55 93.9496V225.74C347.05 232.75 349.56 235.25 353.06 237.75L389.14 261.53C386.04 243.57 385.86 217.36 393.14 213.24H423.14C431.14 217.77 430.14 248.98 426.14 266.6H421.14C421.14 268.94 420.34 275.05 418.94 281.17L608.96 406.37C616.96 414.45 620.34 420.08 625.99 428.39V436.9L603.96 424.89L503.04 391.1C502.75 395.59 502.12 400.37 500.8 400.37C499.32 400.37 498.71 394.42 498.47 389.56L450.92 373.64C450.61 377.96 449.99 382.35 448.72 382.35C447.3 382.35 446.68 376.87 446.42 372.13L418.67 362.84H398.96C398.7 367.64 398.09 373.35 396.64 373.35C395.19 373.35 394.58 367.65 394.32 362.84H344.55V496.96C344.55 511.43 340.64 532.46 335.45 556L418.67 623.05C421.67 627.55 420.72 638.51 418.67 647.57L322.52 613.55C319.95 625.06 319.01 637.07 315.01 638.57C311 637.07 310.07 625.06 307.5 613.55L211.34 647.57C209.29 638.51 208.34 627.56 211.34 623.05L294.56 556C289.37 532.46 285.46 511.43 285.46 496.96V362.84H235.69C235.43 367.64 234.82 373.35 233.37 373.35C231.92 373.35 231.31 367.65 231.05 362.84H211.34L183.59 372.13C183.32 376.87 182.71 382.35 181.29 382.35C180.02 382.35 179.39 377.96 179.09 373.64L131.54 389.56C131.29 394.42 130.69 400.37 129.21 400.37C127.88 400.37 127.26 395.59 126.97 391.1L26.05 424.89L4.00999 436.9V428.39C9.65999 420.09 13.03 414.45 21.04 406.37L211.06 281.17C209.66 275.05 208.86 268.94 208.86 266.6H203.86C199.86 248.98 198.86 217.77 206.86 213.24H236.86C244.14 217.36 243.97 243.57 240.86 261.53L276.94 237.75C280.45 235.25 282.95 232.75 285.45 225.74V93.9496C285.45 68.9296 300.47 4.88965 315 4.88965ZM315 0.889648C309.94 0.889648 305.27 4.97965 300.74 13.3896C297.38 19.6096 293.99 28.4396 290.94 38.9196C285.35 58.1096 281.45 80.7396 281.45 93.9496V225.03C279.3 230.78 277.35 232.53 274.67 234.45L245.99 253.34C247.6 238.16 247.95 214.92 238.81 209.75C238.21 209.41 237.53 209.23 236.84 209.23H206.84C206.15 209.23 205.47 209.41 204.87 209.75C199.8 212.62 197.17 220.85 196.84 234.91C196.59 245.48 197.78 257.96 199.94 267.48C200.35 269.3 201.97 270.59 203.84 270.59H205.14C205.42 273.02 205.9 276.08 206.56 279.33L18.83 403.03C18.6 403.18 18.38 403.36 18.19 403.55C11.02 410.79 7.42999 416.12 2.89999 422.87C2.19999 423.92 1.46999 425 0.699995 426.13C0.249995 426.79 0.00999451 427.58 0.00999451 428.38V436.89C0.00999451 438.3 0.749995 439.61 1.96999 440.33C2.59999 440.7 3.30999 440.89 4.00999 440.89C4.66999 440.89 5.32999 440.73 5.91999 440.4L27.65 428.56L123.45 396.48C124.05 400.61 125.41 404.36 129.21 404.36C133.77 404.36 134.9 399.2 135.38 392.49L175.62 379.02C176.24 382.89 177.61 386.35 181.3 386.35C185.59 386.35 186.51 381.38 186.82 379.75C187.06 378.48 187.25 376.91 187.41 375.07L212 366.84H227.34C227.48 368.28 227.64 369.54 227.83 370.6C228.13 372.27 229.05 377.34 233.37 377.34C237.69 377.34 238.61 372.27 238.91 370.6C239.1 369.54 239.27 368.28 239.4 366.83H281.45V496.95C281.45 512.34 285.74 534.42 290.11 554.43L208.82 619.92C208.5 620.18 208.23 620.48 208 620.81C203.4 627.71 206.07 642.43 207.43 648.43C207.68 649.54 208.4 650.5 209.4 651.05C210 651.38 210.66 651.55 211.33 651.55C211.78 651.55 212.23 651.47 212.66 651.32L304.49 618.82C304.76 620.23 305.02 621.64 305.28 623.02C307.14 633.09 308.49 640.37 313.58 642.28C314.03 642.45 314.51 642.53 314.98 642.53C315.45 642.53 315.93 642.45 316.38 642.28C321.48 640.37 322.82 633.09 324.68 623.02C324.94 621.64 325.2 620.23 325.47 618.82L417.3 651.32C417.73 651.47 418.18 651.55 418.63 651.55C419.3 651.55 419.96 651.38 420.56 651.05C421.56 650.5 422.28 649.55 422.53 648.43C423.89 642.42 426.56 627.71 421.96 620.81C421.73 620.47 421.46 620.17 421.14 619.92L339.85 554.43C344.22 534.42 348.51 512.34 348.51 496.95V366.83H390.56C390.7 368.27 390.86 369.53 391.05 370.6C391.35 372.27 392.27 377.34 396.59 377.34C400.91 377.34 401.83 372.27 402.13 370.6C402.32 369.54 402.49 368.28 402.62 366.84H417.96L442.55 375.07C442.71 376.91 442.9 378.47 443.14 379.75C443.44 381.38 444.37 386.35 448.66 386.35C452.35 386.35 453.72 382.89 454.34 379.02L494.58 392.49C495.06 399.2 496.18 404.36 500.75 404.36C504.55 404.36 505.91 400.62 506.51 396.48L602.31 428.56L624.04 440.4C624.64 440.73 625.3 440.89 625.95 440.89C626.66 440.89 627.36 440.7 627.99 440.33C629.2 439.61 629.95 438.3 629.95 436.89V428.38C629.95 427.58 629.71 426.79 629.26 426.13C628.49 425 627.76 423.91 627.06 422.87C622.52 416.12 618.94 410.79 611.77 403.55C611.58 403.35 611.36 403.18 611.13 403.03L423.39 279.33C424.05 276.08 424.53 273.02 424.81 270.59H426.11C427.98 270.59 429.6 269.3 430.01 267.48C432.17 257.96 433.36 245.48 433.11 234.91C432.78 220.85 430.15 212.62 425.08 209.75C424.48 209.41 423.8 209.23 423.11 209.23H393.11C392.42 209.23 391.74 209.41 391.14 209.75C382 214.92 382.36 238.16 383.96 253.34L355.28 234.45C352.6 232.53 350.65 230.79 348.5 225.03V93.9496C348.5 80.7396 344.6 58.1096 339.01 38.9196C335.96 28.4396 332.57 19.6096 329.21 13.3896C324.67 4.97965 320.01 0.889648 314.95 0.889648H315Z" fill="black"/>
</g>
<defs>
<clipPath id="clip0_892_121">
<rect width="630" height="650.67" fill="white" transform="translate(0 0.889648)"/>
</clipPath>
</defs>
</svg>
