<svg width="630" height="726" viewBox="0 0 630 726" fill="none" xmlns="http://www.w3.org/2000/svg">
<g clip-path="url(#clip0_892_124)">
<path d="M418.67 723.89C418.45 723.89 418.22 723.85 418 723.78L323.99 690.51C323.54 692.69 323.14 694.88 322.74 697C321 706.43 319.74 713.24 315.7 714.76C315.47 714.84 315.24 714.89 315 714.89C314.76 714.89 314.52 714.85 314.3 714.76C310.26 713.25 309 706.43 307.26 697.01C306.87 694.88 306.46 692.7 306.01 690.52L212 723.79C211.78 723.87 211.56 723.9 211.33 723.9C211 723.9 210.66 723.82 210.36 723.65C209.86 723.37 209.5 722.9 209.38 722.34C208.36 717.85 205.38 702.7 209.67 696.27C209.78 696.1 209.92 695.95 210.08 695.82L292.33 629.55C287.89 609.33 283.45 586.8 283.45 571.29V399.67H237.56C237.02 407.48 235.9 410.18 233.36 410.18C230.82 410.18 229.71 407.48 229.16 399.67H211.65L185.49 408.43C184.95 416.44 183.84 419.18 181.27 419.18C178.7 419.18 177.81 416.28 177.29 411.17L133.44 425.85C132.92 434.29 131.8 437.19 129.19 437.19C126.89 437.19 125.75 434.89 125.15 428.62L26.82 461.54L4.94001 473.46C4.64001 473.62 4.31001 473.7 3.98001 473.7C3.63001 473.7 3.27001 473.61 2.96001 473.42C2.35001 473.06 1.98001 472.41 1.98001 471.7V463.19C1.98001 462.79 2.10001 462.4 2.33001 462.07C3.10001 460.93 3.83001 459.85 4.54001 458.8C9.02001 452.14 12.55 446.88 19.59 439.77C19.69 439.67 19.8 439.58 19.91 439.51L208.78 315.07C207.82 310.62 207.18 306.24 206.93 303.41H203.83C202.9 303.41 202.09 302.76 201.88 301.85C198.14 285.37 196.2 251.76 205.84 246.3C206.14 246.13 206.48 246.04 206.83 246.04H236.83C237.18 246.04 237.52 246.13 237.82 246.3C246.34 251.12 245.53 276.86 243.49 292.19L275.82 270.89C278.73 268.81 281.03 266.79 283.43 260.2V93.9496C283.43 71.6396 297.62 2.88965 314.98 2.88965C332.34 2.88965 346.53 71.6396 346.53 93.9496V260.22C348.93 266.81 351.23 268.83 354.2 270.95L386.47 292.21C384.43 276.88 383.62 251.14 392.14 246.32C392.44 246.15 392.78 246.06 393.13 246.06H423.13C423.48 246.06 423.81 246.15 424.12 246.32C433.76 251.78 431.83 285.38 428.08 301.87C427.87 302.78 427.06 303.43 426.13 303.43H423.03C422.79 306.26 422.14 310.63 421.18 315.09L610.05 439.53C610.17 439.61 610.27 439.69 610.37 439.79C617.41 446.9 620.95 452.16 625.43 458.83C626.13 459.88 626.86 460.96 627.63 462.09C627.86 462.42 627.98 462.81 627.98 463.21V471.72C627.98 472.43 627.61 473.08 627 473.44C626.69 473.63 626.33 473.72 625.98 473.72C625.65 473.72 625.32 473.64 625.02 473.48L603.14 461.56L504.81 428.64C504.21 434.91 503.08 437.21 500.77 437.21C498.15 437.21 497.03 434.31 496.52 425.87L452.67 411.19C452.15 416.3 451.18 419.2 448.69 419.2C446.2 419.2 445.02 416.45 444.48 408.45L418.32 399.69H400.82C400.28 407.5 399.16 410.2 396.62 410.2C394.08 410.2 392.97 407.5 392.42 399.69H346.53V571.31C346.53 586.82 342.09 609.35 337.65 629.57L419.9 695.84C420.06 695.97 420.2 696.12 420.31 696.29C424.6 702.72 421.61 717.87 420.6 722.36C420.47 722.92 420.12 723.39 419.62 723.67C419.32 723.84 418.99 723.92 418.65 723.92L418.67 723.89Z" fill="white"/>
<path d="M315 4.88965C329.52 4.88965 344.55 68.9296 344.55 93.9496V260.57C347.05 267.58 349.56 270.08 353.06 272.58L389.14 296.36C386.04 278.4 385.86 252.19 393.14 248.07H423.14C431.14 252.6 430.14 283.81 426.14 301.43H421.14C421.14 303.77 420.34 309.88 418.94 316L608.96 441.2C616.96 449.28 620.34 454.91 625.99 463.22V471.73L603.96 459.72L503.04 425.93C502.75 430.42 502.12 435.2 500.8 435.2C499.32 435.2 498.71 429.25 498.47 424.39L450.92 408.47C450.61 412.79 449.99 417.18 448.72 417.18C447.3 417.18 446.68 411.7 446.42 406.96L418.67 397.67H398.96C398.7 402.47 398.09 408.18 396.64 408.18C395.19 408.18 394.58 402.48 394.32 397.67H344.55V571.29C344.55 585.76 340.64 606.79 335.45 630.33L418.67 697.38C421.67 701.88 420.72 712.84 418.67 721.9L322.52 687.88C319.95 699.39 319.01 711.4 315.01 712.9C311 711.4 310.07 699.39 307.5 687.88L211.34 721.9C209.29 712.84 208.34 701.89 211.34 697.38L294.56 630.33C289.37 606.79 285.46 585.76 285.46 571.29V397.67H235.69C235.43 402.47 234.82 408.18 233.37 408.18C231.92 408.18 231.31 402.48 231.05 397.67H211.34L183.59 406.96C183.32 411.7 182.71 417.18 181.29 417.18C180.02 417.18 179.39 412.79 179.09 408.47L131.54 424.39C131.29 429.25 130.69 435.2 129.21 435.2C127.88 435.2 127.26 430.42 126.97 425.93L26.05 459.72L4.01001 471.73V463.22C9.66001 454.92 13.03 449.28 21.04 441.2L211.06 316C209.66 309.88 208.86 303.77 208.86 301.43H203.86C199.86 283.81 198.86 252.6 206.86 248.07H236.86C244.14 252.19 243.97 278.4 240.86 296.36L276.94 272.58C280.45 270.08 282.95 267.58 285.45 260.57V93.9496C285.45 68.9296 300.47 4.88965 315 4.88965ZM315 0.889648C309.94 0.889648 305.27 4.97965 300.74 13.3896C297.38 19.6096 293.99 28.4396 290.94 38.9196C285.35 58.1096 281.45 80.7396 281.45 93.9496V259.86C279.3 265.61 277.35 267.36 274.67 269.28L246 288.17C247.61 272.99 247.96 249.75 238.82 244.58C238.22 244.24 237.54 244.06 236.85 244.06H206.85C206.16 244.06 205.48 244.24 204.88 244.58C199.81 247.45 197.18 255.68 196.85 269.74C196.6 280.31 197.79 292.79 199.95 302.31C200.36 304.13 201.98 305.42 203.85 305.42H205.15C205.43 307.85 205.91 310.91 206.57 314.16L18.83 437.85C18.6 438 18.38 438.18 18.19 438.37C11.02 445.61 7.43001 450.94 2.90001 457.69C2.20001 458.74 1.47001 459.82 0.70001 460.95C0.25001 461.61 0.0100098 462.4 0.0100098 463.2V471.71C0.0100098 473.12 0.75001 474.43 1.97001 475.15C2.60001 475.52 3.31001 475.71 4.01001 475.71C4.67001 475.71 5.33001 475.55 5.92001 475.22L27.65 463.38L123.45 431.3C124.05 435.43 125.41 439.18 129.21 439.18C133.77 439.18 134.9 434.02 135.38 427.31L175.62 413.84C176.24 417.71 177.61 421.17 181.3 421.17C185.59 421.17 186.51 416.2 186.82 414.57C187.06 413.3 187.25 411.73 187.41 409.89L212 401.66H227.34C227.48 403.1 227.64 404.36 227.83 405.42C228.13 407.09 229.05 412.16 233.37 412.16C237.69 412.16 238.61 407.09 238.91 405.42C239.1 404.36 239.27 403.1 239.4 401.65H281.45V571.27C281.45 586.66 285.74 608.74 290.11 628.75L208.82 694.24C208.5 694.49 208.23 694.8 208 695.14C203.4 702.04 206.07 716.76 207.43 722.76C207.68 723.87 208.4 724.83 209.4 725.38C210 725.71 210.66 725.88 211.33 725.88C211.78 725.88 212.23 725.8 212.66 725.65L304.49 693.15C304.76 694.56 305.02 695.97 305.28 697.35C307.14 707.42 308.49 714.7 313.58 716.61C314.03 716.78 314.51 716.86 314.98 716.86C315.45 716.86 315.93 716.78 316.38 716.61C321.48 714.7 322.82 707.42 324.68 697.35C324.94 695.97 325.2 694.56 325.47 693.15L417.3 725.65C417.73 725.8 418.18 725.88 418.63 725.88C419.3 725.88 419.96 725.71 420.56 725.38C421.56 724.83 422.28 723.88 422.53 722.76C423.89 716.75 426.56 702.04 421.96 695.14C421.73 694.8 421.46 694.5 421.14 694.24L339.85 628.75C344.22 608.74 348.51 586.66 348.51 571.27V401.65H390.56C390.7 403.09 390.86 404.35 391.05 405.42C391.35 407.09 392.27 412.16 396.59 412.16C400.91 412.16 401.83 407.09 402.13 405.42C402.32 404.36 402.49 403.1 402.62 401.66H417.96L442.55 409.89C442.71 411.73 442.9 413.29 443.14 414.57C443.44 416.2 444.37 421.17 448.66 421.17C452.35 421.17 453.72 417.71 454.34 413.84L494.58 427.31C495.06 434.02 496.18 439.18 500.75 439.18C504.55 439.18 505.91 435.44 506.51 431.3L602.31 463.38L624.04 475.22C624.64 475.55 625.3 475.71 625.95 475.71C626.66 475.71 627.36 475.52 627.99 475.15C629.2 474.43 629.95 473.12 629.95 471.71V463.2C629.95 462.4 629.71 461.61 629.26 460.95C628.49 459.82 627.76 458.73 627.06 457.69C622.52 450.94 618.94 445.61 611.77 438.37C611.58 438.17 611.36 438 611.13 437.85L423.39 314.15C424.05 310.9 424.53 307.84 424.81 305.41H426.11C427.98 305.41 429.6 304.12 430.01 302.3C432.17 292.78 433.36 280.3 433.11 269.73C432.78 255.67 430.15 247.44 425.08 244.57C424.48 244.23 423.8 244.05 423.11 244.05H393.11C392.42 244.05 391.74 244.23 391.14 244.57C382 249.74 382.36 272.98 383.96 288.16L355.28 269.27C352.6 267.35 350.65 265.61 348.51 259.85V93.9496C348.51 80.7396 344.61 58.1096 339.02 38.9196C335.97 28.4396 332.58 19.6096 329.22 13.3896C324.68 4.97965 320.02 0.889648 314.96 0.889648H315Z" fill="black"/>
</g>
<defs>
<clipPath id="clip0_892_124">
<rect width="630" height="725" fill="white" transform="translate(0 0.889648)"/>
</clipPath>
</defs>
</svg>
