<svg width="601" height="630" viewBox="0 0 601 630" fill="none" xmlns="http://www.w3.org/2000/svg">
<g clip-path="url(#clip0_508_38)">
<path d="M398.593 627.999C398.383 627.999 398.172 627.959 397.962 627.889L311.458 596.481C310.797 599.273 310.166 602.044 309.544 604.876C308.185 611.059 305.314 620.464 305.199 620.865C304.941 621.695 304.204 622.255 303.371 622.255H297.629C296.796 622.255 296.06 621.695 295.811 620.865C295.686 620.464 292.815 611.059 291.466 604.876C290.844 602.064 290.222 599.293 289.552 596.491L203.048 627.899C202.847 627.969 202.627 628.009 202.416 628.009C201.967 628.009 201.526 627.839 201.172 627.528C200.656 627.068 200.416 626.348 200.531 625.647L202.445 614.621C202.464 614.491 202.503 614.361 202.55 614.231C203.708 611.209 205.642 607.067 208.264 604.426L276.412 540.87C272.632 519.929 269.914 487.921 269.895 487.601C269.895 487.541 269.895 487.481 269.895 487.431V341.019H219.327C218.714 349.164 217.25 352.526 214.389 352.526C211.527 352.526 210.053 349.164 209.45 341.019H189.899L161.045 353.936C160.509 363.132 159.026 366.914 156.011 366.914C152.997 366.914 151.896 363.032 151.341 358.279L117.98 373.217C117.434 382.342 115.951 386.094 112.946 386.094C109.941 386.094 108.84 382.262 108.285 377.55L24.4611 415.07L15.1016 423.045L5.10086 432.12C4.74677 432.44 4.29697 432.61 3.84718 432.61C3.57922 432.61 3.31126 432.55 3.05286 432.43C2.37339 432.1 1.93317 431.389 1.93317 430.609V419.103C1.93317 418.742 2.02887 418.382 2.20113 418.072L2.62221 417.342C9.25427 405.755 13.6374 398.111 21.9442 386.715C22.0686 386.535 22.2313 386.384 22.4035 386.264L191.526 268.709C191.459 268.449 191.401 268.189 191.334 267.929C191.114 267.879 190.904 267.789 190.722 267.669L190.502 267.899C190.138 268.279 189.65 268.499 189.143 268.499C188.636 268.499 188.138 268.289 187.784 267.899L187.612 267.719C187.506 267.779 187.401 267.829 187.286 267.869L185.803 268.389C185.602 268.459 185.401 268.499 185.19 268.499C184.884 268.499 184.568 268.419 184.291 268.269C183.822 268.009 183.487 267.559 183.343 267.028C177.735 245.606 175.831 231.849 179.343 206.915C179.362 206.795 179.381 206.685 179.42 206.575C180.587 202.913 181.582 201.192 183.879 198.93C184.233 198.58 184.702 198.38 185.19 198.38H215.853C216.341 198.38 216.81 198.58 217.164 198.93C219.451 201.192 220.456 202.913 221.624 206.575C221.662 206.685 221.681 206.795 221.7 206.915C223.968 223.034 224.093 234.55 221.997 247.527L269.905 214.229V93.2117C269.914 92.2911 270.22 71.2094 273.302 56.8114C277.321 38.011 281.609 21.3217 293.361 7.49404C296.93 3.2817 299.62 2.24112 299.916 2.13106C300.117 2.06102 300.328 2.021 300.538 2.021C300.749 2.021 300.959 2.06102 301.16 2.13106C301.457 2.24112 304.137 3.2817 307.716 7.49404C319.458 21.3217 323.746 38.011 327.775 56.8214C330.856 71.2194 331.163 92.3011 331.172 93.1916V214.229L379.08 247.527C376.984 234.55 377.108 223.024 379.377 206.915C379.396 206.795 379.415 206.685 379.453 206.575C380.621 202.913 381.625 201.192 383.913 198.93C384.267 198.58 384.736 198.38 385.224 198.38H415.886C416.374 198.38 416.843 198.58 417.197 198.93C419.485 201.192 420.49 202.903 421.657 206.575C421.695 206.685 421.714 206.805 421.734 206.915C425.246 231.839 423.341 245.606 417.733 267.028C417.59 267.559 417.255 268.009 416.786 268.269C416.508 268.429 416.193 268.499 415.886 268.499C415.676 268.499 415.475 268.469 415.274 268.389L413.79 267.869C413.676 267.829 413.57 267.779 413.465 267.719L413.293 267.899C412.929 268.279 412.441 268.499 411.934 268.499C411.427 268.499 410.929 268.289 410.575 267.899L410.355 267.669C410.163 267.789 409.953 267.879 409.742 267.929C409.675 268.189 409.618 268.449 409.551 268.709L578.673 386.264C578.845 386.384 579.008 386.545 579.132 386.715C587.43 398.101 591.813 405.745 598.435 417.312L598.866 418.062C599.048 418.372 599.134 418.732 599.134 419.093V430.599C599.134 431.379 598.694 432.09 598.014 432.42C597.756 432.54 597.488 432.6 597.22 432.6C596.77 432.6 596.32 432.43 595.966 432.11L585.918 422.995L576.606 415.06L492.782 377.54C492.227 382.242 491.107 386.084 488.121 386.084C485.135 386.084 483.633 382.332 483.087 373.207L449.726 358.269C449.171 363.022 448.051 366.904 445.056 366.904C442.06 366.904 440.558 363.122 440.022 353.926L411.168 341.009H391.617C391.004 349.154 389.54 352.516 386.678 352.516C383.817 352.516 382.343 349.154 381.74 341.009H331.172V487.421C331.172 487.481 331.172 487.541 331.172 487.591C331.143 487.921 328.425 519.919 324.655 540.86L392.746 604.356C395.416 607.047 397.349 611.189 398.507 614.211C398.555 614.341 398.593 614.471 398.612 614.601L400.526 625.627C400.651 626.328 400.402 627.038 399.885 627.508C399.531 627.819 399.091 627.989 398.641 627.989L398.593 627.999Z" fill="white"/>
<path d="M300.5 4.00246C300.5 4.00246 302.902 4.86293 306.242 8.79512C317.659 22.2326 321.803 38.2815 325.861 57.222C328.933 71.58 329.21 93.182 329.21 93.182V215.27L381.75 251.79C378.946 237.482 378.649 225.475 381.224 207.175C382.353 203.643 383.243 202.273 385.176 200.352H415.838C417.772 202.263 418.671 203.643 419.791 207.175C423.198 231.319 421.58 244.506 415.838 266.468L414.355 265.948L413.369 264.897L411.886 266.468L410.403 264.897L409.292 265.948H408.182C407.886 267.239 407.599 268.429 407.292 269.55L577.563 387.906C585.803 399.202 590.09 406.696 596.76 418.343L597.182 419.073V430.579L587.133 421.464L577.563 413.31L491.097 374.608C490.686 379.931 489.805 384.064 488.083 384.064C486.064 384.064 485.212 378.42 484.896 371.837L448.042 355.338C447.63 360.701 446.75 364.883 445.018 364.883C442.989 364.883 442.137 359.18 441.821 352.556L411.522 338.989H389.789C389.444 345.262 388.573 350.495 386.64 350.495C384.707 350.495 383.836 345.262 383.492 338.989H329.22V487.401C329.22 487.401 326.435 520.549 322.521 541.591L391.425 605.847C393.808 608.248 395.607 612.15 396.689 614.962L398.603 625.988L310.118 593.86C309.324 597.172 308.51 600.654 307.687 604.406C306.328 610.579 303.381 620.225 303.381 620.225H297.639C297.639 620.225 294.691 610.569 293.332 604.406C292.509 600.654 291.696 597.162 290.901 593.86L202.416 625.988L204.33 614.962C205.412 612.15 207.211 608.248 209.594 605.847L278.498 541.591C274.584 520.549 271.799 487.401 271.799 487.401V338.989H217.528C217.183 345.262 216.312 350.495 214.379 350.495C212.446 350.495 211.575 345.262 211.23 338.989H189.497L159.198 352.556C158.882 359.19 158.03 364.883 156.002 364.883C154.269 364.883 153.389 360.701 152.977 355.338L116.123 371.837C115.807 378.42 114.946 384.064 112.936 384.064C111.214 384.064 110.333 379.931 109.922 374.608L23.4562 413.31L13.8862 421.464L3.8376 430.579V419.073L4.25868 418.343C10.929 406.696 15.2164 399.202 23.4562 387.906L193.727 269.55C193.43 268.429 193.133 267.239 192.837 265.948H191.727L190.617 264.897L189.133 266.468L187.65 264.897L186.664 265.948L185.181 266.468C179.429 244.506 177.821 231.319 181.228 207.175C182.358 203.643 183.248 202.273 185.181 200.352H215.843C217.776 202.263 218.676 203.643 219.796 207.175C222.38 225.475 222.073 237.482 219.269 251.79L271.809 215.27V93.182C271.809 93.182 272.086 71.57 275.158 57.222C279.216 38.2815 283.36 22.2326 294.777 8.79512C298.117 4.86293 300.519 4.00246 300.519 4.00246M300.519 0.000231519C300.098 0.000231519 299.677 0.0702704 299.275 0.220354C298.71 0.420465 295.725 1.65115 291.916 6.14364C279.867 20.3315 275.503 37.2809 271.426 56.3615C268.306 70.9597 268 92.2515 267.981 93.142C267.981 93.162 267.981 93.182 267.981 93.192V213.139L224.523 243.345C225.959 231.899 225.624 221.073 223.585 206.605C223.557 206.375 223.499 206.145 223.432 205.925C222.159 201.942 221.001 199.961 218.475 197.46C217.767 196.76 216.819 196.369 215.843 196.369H185.181C184.205 196.369 183.257 196.76 182.549 197.46C180.022 199.961 178.865 201.942 177.592 205.925C177.525 206.145 177.467 206.375 177.439 206.605C173.878 231.889 175.812 245.837 181.487 267.539C181.764 268.599 182.453 269.5 183.382 270.02C183.937 270.33 184.559 270.491 185.181 270.491C185.296 270.491 185.401 270.49 185.516 270.48L21.3317 384.574C20.9776 384.824 20.6618 385.124 20.4034 385.484C12.0296 396.961 7.62734 404.655 0.966576 416.292L0.545494 417.022C0.191401 417.642 0 418.353 0 419.073V430.579C0 432.15 0.870876 433.571 2.23939 434.221C2.74661 434.462 3.2921 434.582 3.82803 434.582C4.73718 434.582 5.6272 434.251 6.33538 433.601L16.3361 424.526L25.4468 416.772L106.754 380.372C107.501 384.214 109.108 388.056 112.927 388.056C118.066 388.056 119.32 381.462 119.798 374.528L149.791 361.101C150.518 365.033 152.107 368.875 155.992 368.875C161.15 368.875 162.394 362.231 162.863 355.248L190.272 342.981H207.68C207.881 344.992 208.149 346.673 208.484 348.064C209.757 353.377 212.388 354.497 214.369 354.497C216.35 354.497 218.982 353.387 220.255 348.064C220.59 346.673 220.858 344.992 221.059 342.981H267.962V487.391C267.962 487.511 267.962 487.621 267.981 487.741C268.096 489.052 270.641 519.119 274.326 540.1L207.039 602.845C207.039 602.845 206.962 602.915 206.933 602.955C204.637 605.267 202.57 608.798 200.78 613.451C200.684 613.701 200.608 613.961 200.56 614.232L198.646 625.258C198.407 626.658 198.885 628.089 199.919 629.01C200.627 629.64 201.507 629.97 202.407 629.97C202.828 629.97 203.249 629.9 203.661 629.75L288.183 599.063C288.662 601.134 289.131 603.195 289.59 605.287C290.968 611.55 293.858 621.035 293.983 621.436C294.49 623.096 295.964 624.217 297.629 624.217H303.371C305.036 624.217 306.51 623.096 307.017 621.436C307.142 621.035 310.032 611.55 311.41 605.287C311.869 603.195 312.338 601.134 312.817 599.063L397.339 629.75C397.751 629.9 398.172 629.97 398.593 629.97C399.493 629.97 400.383 629.64 401.081 629.01C402.115 628.089 402.603 626.658 402.354 625.258L400.44 614.232C400.392 613.961 400.325 613.701 400.22 613.451C398.43 608.798 396.354 605.267 394.066 602.955C394.028 602.915 393.99 602.885 393.961 602.845L326.674 540.1C330.359 519.129 332.914 489.062 333.019 487.741C333.029 487.621 333.038 487.511 333.038 487.391V342.981H379.941C380.142 344.992 380.41 346.673 380.745 348.064C382.018 353.377 384.65 354.497 386.631 354.497C388.612 354.497 391.243 353.387 392.516 348.064C392.851 346.673 393.119 344.992 393.32 342.981H410.728L438.137 355.248C438.606 362.231 439.859 368.875 445.008 368.875C448.893 368.875 450.482 365.033 451.209 361.101L481.202 374.528C481.68 381.462 482.934 388.056 488.073 388.056C491.892 388.056 493.5 384.214 494.246 380.372L575.553 416.772L584.664 424.526L594.665 433.601C595.373 434.241 596.272 434.582 597.172 434.582C597.708 434.582 598.253 434.462 598.761 434.221C600.12 433.571 601 432.15 601 430.579V419.073C601 418.353 600.809 417.642 600.455 417.012L600.033 416.281C593.373 404.645 588.97 396.951 580.597 385.474C580.338 385.124 580.022 384.814 579.668 384.564L415.503 270.45C415.609 270.45 415.724 270.46 415.829 270.46C416.451 270.46 417.063 270.3 417.628 269.99C418.556 269.47 419.245 268.579 419.523 267.509C425.208 245.807 427.141 231.859 423.571 206.575C423.542 206.345 423.485 206.115 423.418 205.895C422.145 201.912 420.987 199.931 418.461 197.43C417.752 196.73 416.805 196.339 415.829 196.339H385.166C384.19 196.339 383.243 196.73 382.535 197.43C380.008 199.931 378.85 201.912 377.577 205.895C377.51 206.115 377.453 206.345 377.424 206.575C375.386 221.043 375.051 231.869 376.486 243.315L333.029 213.109V93.162C333.029 93.162 333.029 93.122 333.029 93.112C333.019 92.2115 332.713 70.9196 329.583 56.3315C325.497 37.2509 321.143 20.3115 309.094 6.11363C305.275 1.62113 302.29 0.390448 301.735 0.190337C301.333 0.0502593 300.911 -0.0297852 300.49 -0.0297852L300.519 0.000231519Z" fill="black"/>
</g>
<defs>
<clipPath id="clip0_508_38">
<rect width="601" height="630" fill="white"/>
</clipPath>
</defs>
</svg>
