<svg width="279" height="284" viewBox="0 0 279 284" fill="none" xmlns="http://www.w3.org/2000/svg">
<g clip-path="url(#clip0_457_2)">
<path d="M180.1 281.17C179.54 281.17 178.94 281.09 178.27 280.93C175.12 280.17 149.12 274.48 142.59 273.05C141.66 274.59 140.39 275.98 138.81 275.98C137.23 275.98 135.94 274.56 135.02 272.98C128.46 274.29 102.36 279.5 99.2004 280.21C98.5804 280.35 98.0004 280.42 97.4804 280.42C95.8004 280.42 94.8604 279.71 94.3704 279.11C93.5704 278.13 93.5504 277 93.6104 276.44C93.5604 275 93.2104 265.26 93.2104 262.18C93.2104 258.65 95.9104 256.41 97.5504 255.62C107.53 250.16 125.44 240.33 130.63 237.44C130.24 236.27 129.85 235.07 129.48 233.86C128.65 233.74 127.46 233.57 125.76 233.33C121.42 232.72 119.49 229.69 118.69 227.75H115.5C114.15 227.75 113.05 226.65 113.05 225.3V223.79C112.48 223.3 111.83 222.51 111.35 221.29C111.32 221.22 111.3 221.15 111.28 221.08C106.57 203.31 107.75 184.6 107.76 184.41C108.14 178.7 111.09 178.04 111.92 177.97C112.01 177.97 114.07 177.78 116.12 177.78C117.42 177.78 118.42 177.85 119.18 178C119.66 178.09 120.08 178.23 120.46 178.4C120.16 172.45 120.11 167.89 120.12 165.52H97.8304C97.4804 166.88 96.7504 168.36 95.0804 168.36C93.4104 168.36 92.7404 166.99 92.3704 165.67L71.1004 169.36C70.8204 171.01 70.1204 173.04 68.1804 173.04C66.5804 173.04 65.8404 171.68 65.4704 170.34L46.9304 173.55C46.6804 176.04 45.9704 178.37 43.8504 178.37C41.9304 178.37 41.2004 176.41 40.9004 174.6L18.5004 178.48C17.8004 178.79 15.6504 179.7 11.5204 181.15C10.2004 181.61 9.07037 181.84 8.05037 181.84C5.04037 181.84 3.81037 179.79 3.70037 178.35C3.63037 177.67 2.88037 170.8 2.88037 167.05C2.88037 162.98 5.78037 160.97 7.44037 160.42L121.1 111.15V59.5404C121.1 22.7204 136.21 2.49036 141.22 2.49036C144.4 2.55036 149.25 8.76035 153.05 17.6004C156.58 25.8004 160.7 39.8004 160.34 59.9104L159.4 111.51L272.14 162.84C273.78 163.41 276.65 165.47 276.58 169.55C276.51 173.3 275.64 180.16 275.55 180.84C275.42 182.24 274.19 184.25 271.26 184.25C270.22 184.25 269.05 184 267.69 183.5C263.59 181.98 261.45 181.02 260.76 180.7L236.95 176.13C236.65 177.94 235.92 179.88 234.01 179.88C231.87 179.88 231.17 177.5 230.93 174.97L213.01 171.53C212.62 172.72 211.89 173.88 210.41 173.88C208.55 173.88 207.84 172.02 207.54 170.48L186.27 166.39H185.62C185.23 167.38 184.51 168.38 183.14 168.38C181.77 168.38 181.01 167.32 180.63 166.29L159.43 165.9C159.39 168.27 159.26 172.84 158.85 178.78C159.23 178.62 159.66 178.49 160.13 178.41C160.78 178.3 161.6 178.24 162.62 178.24C164.84 178.24 167.29 178.5 167.39 178.51C168.21 178.6 171.15 179.31 171.43 185.02C171.43 185.21 172.28 203.94 167.24 221.62C167.22 221.69 167.2 221.76 167.17 221.83C166.67 223.05 166.01 223.82 165.43 224.3L165.4 225.81C165.38 227.13 164.28 228.21 162.95 228.21L159.72 228.15C158.88 230.07 156.89 233.07 152.55 233.6C150.84 233.81 149.65 233.96 148.82 234.06C148.42 235.27 148.02 236.46 147.61 237.62C152.75 240.6 170.48 250.75 180.36 256.39C181.99 257.22 184.65 259.5 184.58 263.03C184.52 266.11 184 275.84 183.92 277.28C183.96 277.83 183.93 278.95 183.13 279.91C182.64 280.49 181.72 281.19 180.09 281.19L180.1 281.17Z" fill="white"/>
<path d="M141.25 4.47034C144.4 4.53034 159.04 23.0103 158.37 59.8503L157.42 111.92C157.42 112.43 157.7 112.89 158.17 113.11L271.44 164.68C271.44 164.68 274.68 165.69 274.61 169.49C274.54 173.29 273.59 180.6 273.59 180.6C273.59 180.6 273.48 182.22 271.29 182.22C270.58 182.22 269.64 182.05 268.41 181.59C263.42 179.73 261.4 178.75 261.4 178.75L235.19 173.72C235.03 176.47 234.53 177.85 234.02 177.85C233.49 177.85 232.95 176.32 232.83 173.27L211.45 169.16C211.22 170.95 210.82 171.84 210.41 171.84C209.97 171.84 209.53 170.81 209.32 168.75L186.47 164.36L184.08 164.32C183.85 165.67 183.49 166.35 183.14 166.35C182.79 166.35 182.42 165.66 182.19 164.29L158.18 163.85C158.18 163.85 158.18 163.85 158.17 163.85C157.77 163.85 157.45 164.16 157.45 164.56C157.44 166.68 157.33 173.3 156.57 182.41L158.1 182.44C158.1 182.44 158.33 180.71 160.48 180.35C161.07 180.25 161.83 180.21 162.64 180.21C164.78 180.21 167.2 180.47 167.2 180.47C167.2 180.47 169.23 180.51 169.46 185.09C169.68 189.67 169.59 206.16 165.34 221.05C164.81 222.34 164.09 222.86 163.71 223.05C163.56 223.13 163.46 223.29 163.46 223.47L163.42 225.76C163.42 226.01 163.22 226.2 162.97 226.2L158.33 226.12C158.33 226.12 157.32 231 152.33 231.61C149.43 231.96 148.01 232.15 147.33 232.24C146.66 234.35 145.95 236.44 145.18 238.51C146.69 239.45 179.43 258.17 179.43 258.17C179.43 258.17 182.66 259.76 182.6 263.01C182.54 266.27 181.93 277.35 181.93 277.35C181.93 277.35 182.27 279.21 180.1 279.21C179.73 279.21 179.28 279.15 178.74 279.03C175.09 278.15 141.54 270.82 141.54 270.82C141.54 270.82 140.04 274.03 138.82 274.03C138.82 274.03 138.82 274.03 138.81 274.03C137.59 274.03 136.13 270.77 136.13 270.77C136.13 270.77 102.45 277.49 98.7802 278.3C98.2702 278.41 97.8502 278.46 97.4902 278.46C95.2502 278.46 95.6302 276.57 95.6302 276.57C95.6302 276.57 95.2202 265.48 95.2202 262.22C95.2202 258.96 98.4802 257.44 98.4802 257.44C98.4802 257.44 131.55 239.33 133.08 238.41C132.36 236.33 131.68 234.22 131.05 232.11C130.37 232.01 128.95 231.8 126.06 231.39C121.08 230.69 120.16 225.79 120.16 225.79H115.52C115.27 225.79 115.07 225.59 115.07 225.34V223.05C115.07 222.88 114.98 222.71 114.83 222.63C114.46 222.43 113.75 221.9 113.24 220.6C109.27 205.64 109.47 189.15 109.78 184.57C110.09 179.99 112.12 179.99 112.12 179.99C112.12 179.99 114.16 179.81 116.15 179.81C117.14 179.81 118.13 179.86 118.84 179.99C120.98 180.4 121.18 182.13 121.18 182.13H122.71C122.12 173.01 122.13 166.39 122.16 164.27C122.16 163.87 121.84 163.55 121.44 163.55H96.1802C95.9602 165.44 95.5402 166.39 95.1202 166.39C94.7002 166.39 94.2802 165.44 94.0602 163.55H93.1402L69.3402 167.67C69.1402 169.93 68.6802 171.07 68.2202 171.07C67.7902 171.07 67.3602 170.06 67.1402 168.06L45.0902 171.88C44.9602 174.89 44.4302 176.4 43.9002 176.4C43.3702 176.4 42.8902 175.03 42.7302 172.29L17.9702 176.58C17.9702 176.58 15.9302 177.53 10.9102 179.29C9.72016 179.71 8.81016 179.87 8.11016 179.87C5.84016 179.87 5.76016 178.21 5.76016 178.21C5.76016 178.21 4.95016 170.88 4.95016 167.08C4.95016 163.28 8.21016 162.33 8.21016 162.33L122.4 112.83C122.87 112.63 123.17 112.17 123.17 111.66V59.5803C123.17 22.7403 138.14 4.52034 141.29 4.52034M141.25 0.470337C134.94 0.470337 128.57 13.8503 127.36 16.5403C123.6 24.8603 119.13 39.0703 119.13 59.5303V109.82L6.74016 158.53C4.56016 159.3 0.910156 161.89 0.910156 167.02C0.910156 170.82 1.65016 177.65 1.74016 178.51C1.95016 181.11 4.21016 183.81 8.08016 183.81C9.32016 183.81 10.6702 183.55 12.2102 183.01C16.0002 181.68 18.1802 180.78 19.1102 180.38L39.4702 176.85C40.1302 178.69 41.4002 180.34 43.8802 180.34C47.0202 180.34 48.2302 177.68 48.7202 175.25L64.2702 172.55C65.3302 174.5 66.8802 175.01 68.2002 175.01C70.4202 175.01 71.9402 173.69 72.7402 171.08L91.1802 167.88C92.2402 169.82 93.7902 170.32 95.1102 170.32C96.5102 170.32 98.1802 169.75 99.2302 167.48H118.15C118.17 169.6 118.22 172.43 118.37 175.84C117.73 175.78 116.99 175.75 116.15 175.75C114.01 175.75 111.86 175.94 111.77 175.95C110.44 176.08 106.27 177.06 105.79 184.25C105.78 184.44 104.58 203.48 109.37 221.57C109.41 221.71 109.45 221.86 109.51 221.99C109.95 223.11 110.51 223.96 111.07 224.6V225.29C111.07 227.74 113.07 229.74 115.52 229.74H117.44C118.8 232.19 121.33 234.71 125.5 235.3C126.49 235.44 127.3 235.55 127.97 235.65C128.06 235.93 128.15 236.21 128.24 236.49C122.08 239.9 107.21 248.06 96.6502 253.84C94.5702 254.87 91.2302 257.7 91.2302 262.18C91.2302 265.21 91.5602 274.58 91.6302 276.39C91.5602 277.33 91.6702 278.94 92.8502 280.38C93.4802 281.14 94.9102 282.42 97.5002 282.42C98.1802 282.42 98.8802 282.34 99.6602 282.16C102.62 281.5 125.93 276.84 134.11 275.21C135.46 277.04 137.03 277.97 138.79 277.98C138.8 277.98 138.82 277.98 138.83 277.98C140.57 277.98 142.14 277.08 143.51 275.29C151.65 277.07 174.88 282.16 177.82 282.87C178.65 283.07 179.4 283.17 180.12 283.17C182.65 283.17 184.07 281.92 184.7 281.17C185.88 279.76 186.01 278.17 185.96 277.24C186.06 275.44 186.56 266.08 186.62 263.04C186.7 258.56 183.41 255.67 181.35 254.6C170.9 248.63 156.18 240.2 150.08 236.68C150.17 236.4 150.27 236.13 150.36 235.85C151.03 235.77 151.85 235.67 152.83 235.54C157.02 235.03 159.59 232.56 160.99 230.13L162.91 230.16C162.91 230.16 162.97 230.16 162.99 230.16C165.4 230.16 167.39 228.2 167.44 225.79V225.1C168.11 224.38 168.65 223.51 169.06 222.52C169.12 222.38 169.17 222.24 169.21 222.1C174.34 204.11 173.48 185.04 173.47 184.85C173.12 177.66 168.97 176.6 167.64 176.45C167.53 176.44 164.98 176.16 162.65 176.16C162.06 176.16 161.52 176.18 161.04 176.21C161.25 172.81 161.35 169.98 161.41 167.86L179.43 168.19C180.56 169.97 182.14 170.3 183.17 170.3C184.2 170.3 185.62 169.99 186.74 168.43L205.99 172.13C206.81 174.57 208.3 175.8 210.45 175.8C211.68 175.8 213.13 175.36 214.17 173.71L229.19 176.6C229.66 179.07 230.87 181.82 234.05 181.82C236.5 181.82 237.77 180.21 238.44 178.38L260.19 182.56C261.11 182.98 263.27 183.92 267.04 185.32C268.63 185.91 270.03 186.2 271.31 186.2C275.13 186.2 277.33 183.62 277.59 181.01C277.7 180.13 278.56 173.34 278.63 169.54C278.72 164.41 275.12 161.75 272.96 160.95L161.48 110.2L162.4 59.9203C162.77 39.4603 158.55 25.1703 154.95 16.7903C153.76 14.0803 147.64 0.590337 141.32 0.470337C141.3 0.470337 141.27 0.470337 141.25 0.470337Z" fill="black"/>
</g>
<defs>
<clipPath id="clip0_457_2">
<rect width="277.7" height="282.7" fill="white" transform="translate(0.910156 0.470337)"/>
</clipPath>
</defs>
</svg>
