<svg width="359" height="368" viewBox="0 0 359 368" fill="none" xmlns="http://www.w3.org/2000/svg">
<g clip-path="url(#clip0_537_12)">
<path d="M179.5 365.12C178.29 365.12 177.18 364.46 176.6 363.4C170.83 352.93 169.08 342.67 168.56 337.98C158.61 341.34 122.13 353.64 120.44 354.14C120.07 354.25 119.71 354.3 119.36 354.3C117.14 354.3 115.98 352.26 115.98 350.25V342.51C115.98 337.03 118.6 334.98 119.18 334.59C121.13 333.25 160.56 305.98 163.26 304.41C164.24 303.84 164.13 301.24 163.86 300.04L161.59 287.15C160.1 276.39 160.01 258.04 160.01 257.27V186.36L135.7 186.67C134.7 191.38 133.8 193.39 131.73 193.39C129.66 193.39 128.75 191.25 127.99 186.77L122.29 186.84C119.67 186.87 117.09 187.34 114.61 188.21L107.75 190.64C106.65 196.14 105.74 198.46 103.55 198.46C101.67 198.46 100.79 196.74 100.09 193.35L79.21 200.74C78.23 205.28 77.34 207.32 75.27 207.32C73.45 207.32 72.62 205.63 72.04 203.27L19.04 222.02L18.62 222.95C18.16 223.97 17.13 224.64 16.01 224.64H14.52C13.18 225.6 9.37 228.36 7.78 229.79C6.82 230.65 5.91 231.07 4.98 231.07C3.29 231.07 2.27 229.71 2.03 228.44C2.01 228.32 2 228.2 2 228.07V224.42C2 223.19 2.47 222.01 3.32 221.11C6.11 218.14 10.53 210.02 11.85 206.75C13.39 202.97 17.34 200.99 18.07 200.65C20.43 199.32 77.2 167.3 117.02 144.86V144.77C116.09 144.74 112.61 144.18 111.26 137.81C110.02 131.96 109.74 120.93 110.59 111.58C110.59 111.53 110.6 111.47 110.61 111.42C111.39 106.96 112 103.43 116.06 103.43H117.93C123.6 103.43 129.12 103.67 134.81 104.18C138.4 104.58 139.57 107.41 139.69 108.85C139.69 108.9 139.69 108.95 139.69 108.99C139.71 110.88 139.89 127.38 139.69 130.04C139.67 130.92 139.57 131.62 139.45 132.22C149.17 126.74 154.51 123.74 155.34 123.28C158.17 121.71 159.4 116.54 159.66 114.53V53.6C159.66 35.56 169.85 2.01001 179.49 2.01001C189.13 2.01001 199.32 35.56 199.32 53.6V114.53C199.58 116.53 200.81 121.71 203.64 123.28C204.45 123.73 209.66 126.66 219.53 132.22C219.4 131.62 219.31 130.92 219.29 130.04C219.1 127.37 219.27 110.88 219.29 108.99C219.29 108.94 219.29 108.89 219.29 108.85C219.41 107.41 220.58 104.57 224.12 104.18C229.85 103.67 235.37 103.43 241.04 103.43H242.91C246.97 103.43 247.59 106.96 248.36 111.42C248.36 111.47 248.38 111.53 248.38 111.58C249.23 120.93 248.95 131.97 247.71 137.81C246.36 144.2 242.85 144.74 241.95 144.78V144.87C281.76 167.31 338.54 199.33 340.9 200.66C341.64 201 345.59 202.98 347.12 206.76C348.45 210.03 352.86 218.15 355.65 221.12C356.5 222.03 356.97 223.2 356.97 224.43V228.08C356.97 228.2 356.96 228.33 356.94 228.45C356.7 229.72 355.68 231.08 353.99 231.08C353.06 231.08 352.15 230.66 351.19 229.8C349.88 228.63 346.81 226.35 344.45 224.65H342.96C341.84 224.65 340.81 223.99 340.35 222.97L339.93 222.04L286.93 203.29C286.36 205.65 285.52 207.34 283.7 207.34C281.63 207.34 280.74 205.3 279.76 200.76L258.88 193.37C258.18 196.76 257.3 198.48 255.42 198.48C253.23 198.48 252.32 196.16 251.22 190.66L244.36 188.23C241.89 187.35 239.3 186.89 236.68 186.86L230.98 186.79C230.22 191.27 229.34 193.41 227.24 193.41C225.14 193.41 224.27 191.41 223.27 186.69L198.95 186.38V257.29C198.95 258.07 198.86 276.41 197.38 287.11L195.12 299.98C194.83 301.31 194.72 303.88 195.7 304.44C198.4 306.01 237.88 333.31 239.78 334.62C240.37 335.01 242.98 337.07 242.98 342.54V350.28C242.98 350.42 242.97 351.16 242.7 351.95C242.2 353.44 241.03 354.34 239.59 354.34C239.24 354.34 238.87 354.28 238.51 354.18C236.82 353.68 200.34 341.38 190.39 338.02C189.87 342.72 188.11 352.98 182.35 363.44C181.77 364.5 180.66 365.16 179.45 365.16L179.5 365.12Z" fill="white"/>
<path d="M179.5 4C186.67 4 197.33 34.81 197.33 53.59V114.64C197.33 114.64 198.24 122.55 202.68 125.02C203.69 125.58 211.31 129.87 222.5 136.17C222.24 133.14 221.35 132.72 221.3 129.93C221.1 127.52 221.3 109 221.3 109C221.3 109 221.51 106.47 224.36 106.15C231.96 105.47 237.87 105.41 241.06 105.41C241.86 105.41 242.49 105.41 242.93 105.41C245.15 105.41 245.57 106.89 246.41 111.74C247.25 121.02 246.94 131.89 245.78 137.38C244.66 142.66 242.08 142.76 241.89 142.76H241.88H239.98V146.01C280.68 168.95 340.02 202.41 340.02 202.41C340.02 202.41 343.92 204.1 345.3 207.47C346.56 210.58 351.06 219.07 354.23 222.45C354.73 222.98 355.01 223.67 355.01 224.39V228.04C355.01 228.04 354.82 229.03 354.03 229.03C353.68 229.03 353.2 228.83 352.57 228.26C350.75 226.62 346.32 223.44 345.33 222.74C345.2 222.65 345.05 222.6 344.89 222.6H343C342.66 222.6 342.35 222.4 342.21 222.09L341.57 220.68C341.48 220.49 341.32 220.34 341.13 220.27L285.47 200.58C284.88 203.91 284.3 205.28 283.75 205.28C282.99 205.28 282.26 202.75 281.54 199.19L257.38 190.64C256.72 194.76 256.09 196.42 255.48 196.42C254.64 196.42 253.83 193.29 253.03 189.1L245.09 186.29C242.42 185.34 239.61 184.84 236.77 184.81L229.34 184.72C228.63 189.47 227.96 191.36 227.3 191.36C226.5 191.36 225.73 188.54 224.97 184.66L197.02 184.3V257.23C197.02 257.23 196.95 276.09 195.47 286.77L193.22 299.57C193.22 299.57 192.09 304.56 194.77 306.11C197.44 307.66 238.73 336.22 238.73 336.22C238.73 336.22 241.05 337.63 241.05 342.48V350.22C241.05 350.22 241.05 352.27 239.67 352.27C239.52 352.27 239.35 352.24 239.16 352.19C237.26 351.63 188.69 335.24 188.69 335.24C188.69 335.24 188.21 348.74 180.68 362.41C180.43 362.86 179.98 363.09 179.53 363.09C179.08 363.09 178.63 362.86 178.38 362.41C170.85 348.74 170.37 335.24 170.37 335.24C170.37 335.24 121.8 351.63 119.9 352.19C119.71 352.25 119.54 352.27 119.39 352.27C118.01 352.27 118.01 350.22 118.01 350.22V342.48C118.01 337.63 120.33 336.22 120.33 336.22C120.33 336.22 161.62 307.66 164.29 306.11C166.96 304.56 165.84 299.57 165.84 299.57L163.59 286.77C162.11 276.09 162.04 257.23 162.04 257.23V184.3L134.09 184.66C133.33 188.54 132.56 191.36 131.76 191.36C131.1 191.36 130.43 189.47 129.72 184.72L122.29 184.81C119.46 184.85 116.65 185.35 113.97 186.29L106.03 189.1C105.23 193.29 104.42 196.42 103.58 196.42C102.97 196.42 102.33 194.76 101.68 190.64L77.52 199.19C76.8 202.75 76.07 205.28 75.31 205.28C74.75 205.28 74.18 203.91 73.59 200.58L17.93 220.27C17.73 220.34 17.57 220.49 17.49 220.68L16.85 222.09C16.71 222.4 16.4 222.6 16.06 222.6H14.17C14.01 222.6 13.86 222.65 13.73 222.74C12.74 223.44 8.31001 226.63 6.49001 228.26C5.86001 228.83 5.38001 229.03 5.03001 229.03C4.23001 229.03 4.05001 228.04 4.05001 228.04V224.39C4.05001 223.67 4.33001 222.98 4.83001 222.45C8.00001 219.07 12.5 210.58 13.76 207.47C15.13 204.09 19.04 202.41 19.04 202.41C19.04 202.41 78.38 168.95 119.08 146.01V142.76H117.18C117.18 142.76 117.18 142.76 117.17 142.76C116.98 142.76 114.39 142.66 113.28 137.38C112.12 131.89 111.8 121.03 112.65 111.74C113.49 106.89 113.92 105.41 116.13 105.41C116.57 105.41 117.2 105.41 118 105.41C121.19 105.41 127.1 105.48 134.7 106.15C137.55 106.47 137.76 109 137.76 109C137.76 109 137.97 127.52 137.76 129.93C137.71 132.71 136.82 133.13 136.56 136.17C147.75 129.87 155.37 125.57 156.38 125.02C160.81 122.56 161.73 114.64 161.73 114.64V53.59C161.73 34.81 172.39 4 179.56 4M179.5 0C174.1 0 168.92 6.87 164.12 20.42C160.14 31.66 157.67 44.37 157.67 53.59V114.39C157.34 116.78 156.1 120.57 154.38 121.53C153.64 121.94 149.49 124.27 141.76 128.63C141.86 123.82 141.73 111.67 141.7 108.97C141.7 108.87 141.7 108.78 141.69 108.68C141.46 105.88 139.29 102.65 135.09 102.19C135.06 102.19 135.03 102.19 135 102.19C129.26 101.68 123.68 101.43 117.95 101.43H116.73H116.08C110.33 101.43 109.44 106.55 108.66 111.08C108.64 111.19 108.63 111.29 108.62 111.4C107.75 120.93 108.05 132.21 109.32 138.23C110.05 141.69 111.39 143.75 112.76 144.98C73.53 167.09 20.34 197.09 17.17 198.87C16.04 199.4 11.77 201.64 10.01 206C8.76001 209.07 4.47001 216.98 1.87001 219.74C0.67001 221.02 0.0100098 222.68 0.0100098 224.42V228.07C0.0100098 228.32 0.0300098 228.56 0.0800098 228.8C0.55001 231.31 2.57001 233.06 4.99001 233.06C6.41001 233.06 7.80001 232.46 9.12001 231.27C10.27 230.24 12.93 228.25 15.17 226.63H16.02C17.93 226.63 19.67 225.51 20.45 223.77L20.52 223.62L70.76 205.84C71.55 207.76 72.87 209.31 75.27 209.31C78.8 209.31 80.09 205.9 80.93 202.24L98.67 195.96C99.45 198.45 100.8 200.44 103.55 200.44C107.3 200.44 108.55 196.65 109.49 192.13L115.27 190.08C117.54 189.28 119.9 188.86 122.31 188.82L126.31 188.77C127.04 192.3 128.32 195.37 131.73 195.37C135.14 195.37 136.43 192.3 137.32 188.63L158.02 188.37V257.25C158.02 258.05 158.11 276.52 159.61 287.34C159.61 287.39 159.62 287.44 159.63 287.48L161.88 300.28C161.89 300.34 161.9 300.4 161.92 300.47C162.09 301.25 162.1 302.35 161.97 302.85C157.53 305.64 122.31 329.99 118.06 332.93C117.07 333.6 113.99 336.18 113.99 342.5V350.24C113.99 353.69 116.31 356.29 119.37 356.29C119.91 356.29 120.47 356.21 121.02 356.04C122.64 355.56 154.25 344.91 166.91 340.64C167.74 346.12 169.8 355.17 174.86 364.36C175.79 366.06 177.58 367.11 179.51 367.11C181.44 367.11 183.23 366.06 184.16 364.36C189.22 355.18 191.28 346.12 192.11 340.64C204.77 344.91 236.38 355.56 238 356.04C238.55 356.2 239.11 356.29 239.65 356.29C241.96 356.29 243.87 354.85 244.65 352.54C245 351.52 245.03 350.59 245.03 350.24V342.5C245.03 336.18 241.94 333.6 240.96 332.93C236.72 329.99 201.49 305.64 197.05 302.85C196.92 302.35 196.93 301.25 197.11 300.44C197.12 300.38 197.13 300.34 197.14 300.28L199.39 287.48C199.39 287.48 199.41 287.38 199.41 287.34C200.91 276.52 200.99 258.04 200.99 257.26V188.36L221.69 188.62C222.57 192.29 223.91 195.36 227.28 195.36C230.65 195.36 231.97 192.3 232.7 188.76L236.7 188.81C239.1 188.84 241.47 189.26 243.73 190.07L249.51 192.12C250.45 196.64 251.7 200.43 255.45 200.43C258.2 200.43 259.55 198.44 260.33 195.95L278.07 202.23C278.91 205.89 280.2 209.3 283.73 209.3C286.13 209.3 287.45 207.75 288.24 205.83L338.48 223.61L338.55 223.76C339.34 225.5 341.08 226.62 342.98 226.62H343.83C346.07 228.24 348.73 230.23 349.88 231.26C351.2 232.45 352.59 233.05 354.01 233.05C356.44 233.05 358.46 231.3 358.92 228.79C358.96 228.55 358.99 228.3 358.99 228.06V224.41C358.99 222.67 358.33 221.01 357.13 219.73C354.53 216.97 350.24 209.05 348.99 205.99C347.22 201.64 342.96 199.39 341.83 198.86C338.67 197.08 285.48 167.08 246.24 144.97C247.61 143.74 248.95 141.68 249.68 138.22C250.95 132.2 251.25 120.92 250.38 111.39C250.37 111.28 250.36 111.17 250.34 111.07C249.55 106.55 248.66 101.42 242.92 101.42H242.27H241.05C235.32 101.42 229.74 101.67 224 102.18C223.97 102.18 223.94 102.18 223.91 102.18C219.71 102.65 217.54 105.87 217.31 108.67C217.31 108.77 217.3 108.86 217.3 108.96C217.27 111.67 217.14 123.81 217.24 128.62C209.5 124.26 205.35 121.93 204.62 121.52C202.82 120.52 201.62 116.51 201.33 114.39V53.59C201.33 44.36 198.86 31.65 194.88 20.42C190.08 6.87 184.91 0 179.5 0Z" fill="black"/>
</g>
<defs>
<clipPath id="clip0_537_12">
<rect width="359" height="367.12" fill="white"/>
</clipPath>
</defs>
</svg>
