<svg width="355" height="342" viewBox="0 0 355 342" fill="none" xmlns="http://www.w3.org/2000/svg">
<g clip-path="url(#clip0_88_2)">
<path d="M235.1 339.82H236.33C236.75 339.82 237.1 339.48 237.1 339.05V331.65C237.1 326.25 232.73 323.26 232.73 323.26C232.73 323.26 199.64 295.19 192.7 289.54C192.29 289.2 192.12 288.66 192.26 288.15C196.97 270.89 196.85 255.08 196.85 255.08V186.86C196.85 185.65 197.83 184.68 199.03 184.68H224.59C227.81 206.53 231.72 184.68 231.72 184.68H242.99C242.99 184.68 257.32 190.97 260.24 191.89C262.69 212.47 267.29 194.65 267.29 194.65C267.29 194.65 293.05 203.7 296.42 204.77C298.41 224.55 303.47 207.53 303.47 207.53C303.47 207.53 329.93 217.04 338.56 219.51C347.18 221.98 351.04 230.78 351.04 230.78C351.04 230.78 352.07 231.3 352.99 231.07C352.99 216.12 342.41 205.77 342.41 205.77L247.19 148.92V144.91L249.09 139.4H251.73C251.73 139.4 254.34 140.01 255.1 136.03C255.87 132.04 258.01 118.25 256.17 105.22C255.71 102.15 254.18 102.46 254.18 102.46H230.88C230.88 102.46 229.35 102.15 228.89 105.22C227.05 118.25 229.2 132.05 229.96 136.03C230.73 140.02 233.33 139.4 233.33 139.4H235.97L237.19 142.95L198.05 119.58C197.46 119.21 197.1 118.56 197.1 117.86V58.7299C197.1 38.9499 188.97 19.9399 185.6 10.7399C182.25 1.5399 177.5 1.9999 177.5 1.9999C177.5 1.9999 172.75 1.5399 169.37 10.7399C166 19.9399 157.87 38.9499 157.87 58.7299V117.86C157.87 118.56 157.51 119.21 156.92 119.58L117.78 142.95L119 139.4H121.64C121.64 139.4 124.25 140.01 125.01 136.03C125.78 132.04 127.92 118.25 126.08 105.22C125.62 102.15 124.09 102.46 124.09 102.46H100.79C100.79 102.46 99.26 102.15 98.8 105.22C96.96 118.25 99.11 132.05 99.87 136.03C100.64 140.02 103.24 139.4 103.24 139.4H105.88L107.78 144.91V148.92L12.58 205.75C12.58 205.75 2 216.1 2 231.05C2.92 231.28 3.95 230.76 3.95 230.76C3.95 230.76 7.8 221.96 16.43 219.49C25.05 217.02 51.52 207.51 51.52 207.51C51.52 207.51 56.58 224.53 58.57 204.75C61.94 203.68 87.7 194.63 87.7 194.63C87.7 194.63 92.3 212.45 94.75 191.87C97.66 190.95 112 184.66 112 184.66H123.27C123.27 184.66 127.18 206.51 130.4 184.66H155.96C157.17 184.66 158.14 185.64 158.14 186.84V255.06C158.14 255.06 158.03 270.86 162.73 288.13C162.87 288.64 162.71 289.19 162.29 289.52C155.35 295.17 122.26 323.24 122.26 323.24C122.26 323.24 117.89 326.23 117.89 331.63V339.03C117.89 339.45 118.23 339.8 118.66 339.8H119.89C120.75 339.8 121.6 339.63 122.39 339.3L169.33 319.83L174.7 336.08C174.7 336.08 175.7 339.8 177.5 339.8C179.3 339.8 180.3 336.08 180.3 336.08L185.67 319.83L232.61 339.3C233.4 339.63 234.25 339.8 235.11 339.8L235.1 339.82Z" fill="white"/>
<path d="M177.61 2C178.35 2 182.56 2.38 185.62 10.74C188.99 19.94 197.12 38.95 197.12 58.73V117.86C197.12 118.56 197.48 119.21 198.07 119.58L237.21 142.95L235.99 139.4H233.35C233.35 139.4 233.21 139.43 232.97 139.43C232.22 139.43 230.56 139.07 229.97 136.02C229.2 132.03 227.06 118.24 228.9 105.21C229.28 102.65 230.41 102.44 230.78 102.44C230.85 102.44 230.9 102.44 230.9 102.44H254.2C254.2 102.44 254.24 102.44 254.32 102.44C254.69 102.44 255.81 102.65 256.2 105.21C258.04 118.24 255.89 132.04 255.13 136.02C254.54 139.07 252.88 139.43 252.13 139.43C251.9 139.43 251.75 139.4 251.75 139.4H249.11L247.21 144.91V148.92L342.43 205.77C342.43 205.77 353.01 216.12 353.01 231.07C352.84 231.11 352.67 231.13 352.5 231.13C351.74 231.13 351.05 230.78 351.05 230.78C351.05 230.78 347.2 221.98 338.57 219.51C329.95 217.04 303.48 207.53 303.48 207.53C303.48 207.53 301.46 214.34 299.46 214.34C298.3 214.34 297.16 212.04 296.42 204.77C293.05 203.7 267.29 194.65 267.29 194.65C267.29 194.65 265.44 201.81 263.46 201.81C262.32 201.81 261.13 199.42 260.23 191.89C257.32 190.97 242.98 184.68 242.98 184.68H231.71C231.71 184.68 229.97 194.39 227.86 194.39C226.8 194.39 225.65 191.96 224.58 184.68H199.02C197.81 184.68 196.84 185.66 196.84 186.86V255.08C196.84 255.08 196.95 270.88 192.25 288.15C192.11 288.66 192.27 289.21 192.69 289.54C199.63 295.19 232.72 323.26 232.72 323.26C232.72 323.26 237.09 326.25 237.09 331.65V339.05C237.09 339.47 236.75 339.82 236.32 339.82H235.09C234.23 339.82 233.38 339.65 232.59 339.32L185.65 319.85L180.28 336.1C180.28 336.1 179.28 339.82 177.48 339.82C175.68 339.82 174.68 336.1 174.68 336.1L169.31 319.85L122.37 339.32C121.58 339.65 120.73 339.82 119.87 339.82H118.64C118.22 339.82 117.87 339.48 117.87 339.05V331.65C117.87 326.25 122.24 323.26 122.24 323.26C122.24 323.26 155.33 295.19 162.27 289.54C162.68 289.2 162.85 288.66 162.71 288.15C158 270.89 158.12 255.08 158.12 255.08V186.86C158.12 185.65 157.14 184.68 155.94 184.68H130.38C129.31 191.96 128.16 194.39 127.1 194.39C124.99 194.39 123.25 184.68 123.25 184.68H111.98C111.98 184.68 97.65 190.97 94.73 191.89C93.83 199.42 92.65 201.81 91.5 201.81C89.52 201.81 87.67 194.65 87.67 194.65C87.67 194.65 61.91 203.7 58.54 204.77C57.81 212.04 56.66 214.34 55.5 214.34C53.51 214.34 51.48 207.53 51.48 207.53C51.48 207.53 25.02 217.04 16.39 219.51C7.77 221.98 3.91 230.78 3.91 230.78C3.91 230.78 3.22 231.13 2.46 231.13C2.29 231.13 2.12 231.11 1.95 231.07C1.95 216.12 12.53 205.77 12.53 205.77L107.75 148.92V144.91L105.85 139.4H103.21C103.21 139.4 103.07 139.43 102.84 139.43C102.09 139.43 100.43 139.07 99.84 136.02C99.07 132.03 96.93 118.24 98.77 105.21C99.15 102.65 100.28 102.44 100.65 102.44C100.72 102.44 100.77 102.44 100.77 102.44H124.07C124.07 102.44 124.11 102.44 124.19 102.44C124.56 102.44 125.68 102.65 126.07 105.21C127.91 118.24 125.76 132.04 125 136.02C124.41 139.07 122.75 139.43 122 139.43C121.77 139.43 121.62 139.4 121.62 139.4H118.98L117.76 142.95L156.9 119.58C157.49 119.21 157.85 118.56 157.85 117.86V58.73C157.85 38.95 165.98 19.94 169.35 10.74C172.42 2.38 176.62 2 177.36 2C177.43 2 177.47 2 177.47 2C177.47 2 177.51 2 177.58 2M177.61 0C177.61 0 177.53 0 177.5 0C177.47 0 177.43 0 177.39 0C175.93 0 170.92 0.72 167.5 10.05C167.13 11.05 166.71 12.17 166.25 13.39C162.37 23.62 155.88 40.74 155.88 58.72V117.85L127.26 134.95C128.07 130.22 129.86 117.42 128.09 104.91C127.47 100.74 124.98 100.42 124.23 100.42C124.15 100.42 124.08 100.42 124.01 100.42H100.92C100.85 100.42 100.78 100.42 100.7 100.42C99.95 100.42 97.47 100.74 96.85 104.89C94.85 119.07 97.4 133.61 97.94 136.38C98.84 141.05 101.96 141.41 102.9 141.41C103.11 141.41 103.29 141.39 103.43 141.38H104.49L105.81 145.22V147.76L11.55 204.03C11.41 204.11 11.29 204.21 11.18 204.32C10.72 204.77 0 215.44 0 231.05C0 231.97 0.62 232.77 1.51 232.99C1.83 233.07 2.16 233.11 2.5 233.11C3.67 233.11 4.66 232.65 4.84 232.55C5.26 232.34 5.59 231.99 5.78 231.56C5.81 231.48 9.39 223.59 16.97 221.41C24.29 219.31 43.95 212.33 50.25 210.08C51.41 213.26 53.15 216.31 55.52 216.31C58.53 216.31 59.71 212.33 60.41 206.24C65.44 204.54 80.79 199.17 86.35 197.22C87.74 201.58 89.48 203.79 91.51 203.79C94.16 203.79 95.56 200.93 96.57 193.34C100.62 191.8 110.31 187.58 112.4 186.67H121.6C123.59 196.38 126.12 196.38 127.1 196.38C129.55 196.38 130.91 193.8 132.09 186.67H155.94C156.04 186.67 156.12 186.75 156.12 186.85V255.07C156.12 255.71 156.06 271.09 160.67 288.26C153.28 294.31 122.61 320.32 121.01 321.68C120.26 322.23 115.87 325.69 115.87 331.65V339.05C115.87 340.58 117.11 341.82 118.64 341.82H119.87C121 341.82 122.09 341.6 123.13 341.17L168.08 322.52L172.75 336.67C173.1 337.95 174.42 341.81 177.46 341.81C180.5 341.81 181.82 337.95 182.17 336.67L186.84 322.52L231.79 341.17C232.83 341.6 233.93 341.82 235.05 341.82H236.28C237.81 341.82 239.05 340.58 239.05 339.05V331.65C239.05 325.69 234.67 322.23 233.91 321.68C232.31 320.33 201.64 294.31 194.25 288.26C198.86 271.09 198.81 255.71 198.8 255.06V186.85C198.8 186.75 198.88 186.67 198.98 186.67H222.83C224.01 193.8 225.37 196.38 227.82 196.38C228.8 196.38 231.33 196.38 233.32 186.67H242.52C244.61 187.59 254.3 191.81 258.35 193.34C259.35 200.93 260.76 203.79 263.41 203.79C265.45 203.79 267.18 201.58 268.57 197.22C274.13 199.17 289.48 204.55 294.51 206.24C295.21 212.34 296.38 216.31 299.4 216.31C301.78 216.31 303.51 213.26 304.67 210.08C310.97 212.33 330.63 219.31 337.95 221.41C345.53 223.58 349.11 231.48 349.15 231.56C349.34 231.98 349.67 232.33 350.09 232.54C350.28 232.63 351.26 233.1 352.43 233.1C352.77 233.1 353.11 233.06 353.42 232.98C354.31 232.76 354.93 231.96 354.93 231.04C354.93 215.43 344.21 204.76 343.75 204.31C343.64 204.2 343.51 204.1 343.38 204.02L249.13 147.75V145.21L250.45 141.37H251.51C251.65 141.39 251.83 141.4 252.04 141.4C252.98 141.4 256.1 141.04 257 136.37C257.53 133.6 260.09 119.06 258.09 104.9C257.47 100.73 254.98 100.41 254.23 100.41C254.15 100.41 254.08 100.41 254.01 100.41H230.92C230.85 100.41 230.78 100.41 230.7 100.41C229.95 100.41 227.47 100.73 226.84 104.88C225.07 117.41 226.86 130.21 227.67 134.94L199.02 117.84L199.05 58.71C199.05 40.73 192.56 23.61 188.68 13.38C188.22 12.16 187.79 11.04 187.43 10.04C184.08 0.73 179.07 0 177.61 0Z" fill="black"/>
</g>
<defs>
<clipPath id="clip0_88_2">
<rect width="355" height="341.82" fill="white"/>
</clipPath>
</defs>
</svg>
