<svg width="181" height="148" viewBox="0 0 181 148" fill="none" xmlns="http://www.w3.org/2000/svg">
<g clip-path="url(#clip0_566_48)">
<path d="M90.25 146.52C89 146.52 88.28 145.16 87.75 141.7L61.29 143.93C61.29 143.93 61.18 143.93 61.15 143.93C60.25 143.93 59.52 143.2 59.52 142.3V136.07C59.52 136.01 59.52 135.95 59.53 135.9C59.95 133.52 61.44 132.91 61.61 132.85L86.93 123.72C86.83 123.36 86.72 122.93 86.64 122.47C83.7 106.78 80.86 71.6 80.84 71.25V69.7C80.84 69.52 80.8 69.34 80.73 69.19C80.27 68.19 79.54 67.57 79.15 67.29H58.24C57.42 67.3 56.6 67.24 55.8 67.12L2.25 58.86C1.52 58.75 1 58.13 1 57.4V49.79C1 49.73 1 49.66 1.02 49.6C1.45 47.37 3.06 46.65 3.94 46.57L50.18 44.08C50.48 44.06 50.77 43.99 51.04 43.86C52.45 43.16 56.01 41.41 57.43 40.72C57.32 35.9 57.36 31.63 57.39 29.77H56.24C55.53 29.76 54.95 29.19 54.93 28.48C54.91 27.5 54.83 24.52 54.83 23.52C54.83 23.44 54.83 23.36 54.86 23.28C55.43 20.96 57.03 20.49 57.21 20.45C57.27 20.44 57.32 20.43 57.38 20.42C57.52 20.41 57.99 20.38 58.42 20.35C58.49 20.1 58.57 19.84 58.65 19.58C57.67 19.64 56.47 19.69 55.33 19.69C52.84 19.69 50.61 19.56 50.61 17.98C50.61 16.4 53.12 16.35 54.62 16.35C56.34 16.35 58.36 16.51 59.62 16.62L60.27 14.85C60.49 14.22 61.2 13.12 62.48 13.12C63.91 13.12 64.68 14.36 64.76 14.5C64.79 14.55 65.27 15.53 65.77 16.62C67.02 16.51 69.08 16.35 70.85 16.35C72.46 16.35 74.9 16.35 74.9 17.98C74.9 19.61 72.64 19.69 70.13 19.69C69.04 19.69 67.9 19.64 66.96 19.59C67.07 20.04 67.14 20.47 67.17 20.82H67.25C69.02 20.82 70.1 22.31 70.47 23.19C70.52 23.31 70.55 23.44 70.55 23.57V28.61C70.55 29.34 69.96 29.93 69.23 29.93H68.01C68.19 35.5 68.17 40.03 68.14 41.96L80.88 41.29V33.06C80.88 26.71 83.89 0.98999 90.25 0.98999C96.61 0.98999 99.62 26.71 99.62 33.06V41.29L112.36 41.96C112.34 40.01 112.32 35.46 112.49 29.93H111.27C110.54 29.93 109.95 29.34 109.95 28.61V23.57C109.95 23.44 109.98 23.31 110.03 23.19C110.39 22.31 111.48 20.82 113.25 20.82H113.33C113.37 20.46 113.43 20.04 113.54 19.59C112.6 19.64 111.46 19.69 110.37 19.69C107.86 19.69 105.6 19.56 105.6 17.98C105.6 16.4 108.04 16.35 109.65 16.35C111.41 16.35 113.47 16.51 114.73 16.62C115.23 15.53 115.71 14.56 115.71 14.56C115.82 14.36 116.58 13.12 118.02 13.12C119.29 13.12 120.01 14.22 120.24 14.87L120.88 16.62C122.14 16.51 124.17 16.35 125.88 16.35C127.38 16.35 129.89 16.35 129.89 17.98C129.89 19.61 127.66 19.69 125.17 19.69C124.03 19.69 122.83 19.64 121.85 19.58C121.93 19.84 122.01 20.1 122.08 20.35C122.52 20.38 122.98 20.41 123.12 20.42C123.18 20.42 123.24 20.43 123.29 20.45C123.47 20.5 125.07 20.96 125.64 23.28C125.66 23.36 125.67 23.44 125.67 23.52C125.67 24.52 125.6 27.5 125.57 28.48C125.55 29.2 124.98 29.76 124.26 29.77H123.11C123.14 31.63 123.19 35.9 123.07 40.73C124.5 41.42 128.05 43.18 129.46 43.87C129.73 44 130.02 44.08 130.32 44.09L176.53 46.58C177.45 46.66 179.05 47.38 179.49 49.61C179.5 49.67 179.51 49.74 179.51 49.8V57.41C179.51 58.14 178.98 58.76 178.26 58.87L124.71 67.11C123.91 67.23 123.09 67.3 122.27 67.3H101.32C100.96 67.57 100.24 68.19 99.78 69.19C99.71 69.34 99.67 69.52 99.67 69.71V71.18C99.64 71.61 96.8 106.8 93.86 122.48C93.77 122.94 93.67 123.37 93.57 123.73L118.89 132.87C119.06 132.93 120.55 133.54 120.97 135.92C120.97 135.98 120.98 136.03 120.98 136.09V142.32C120.98 143.22 120.25 143.95 119.35 143.95C119.32 143.95 119.24 143.95 119.21 143.95L92.75 141.72C92.23 145.18 91.51 146.54 90.25 146.54V146.52Z" fill="white"/>
<path d="M90.25 2C95 2 98.62 24.36 98.62 33.07V41.84C98.62 42.07 98.8 42.26 99.03 42.27L112.92 43H112.94C113.18 43 113.37 42.81 113.37 42.57C113.35 41.03 113.29 35.74 113.52 29.15C113.52 29.04 113.43 28.95 113.32 28.95H111.27C111.09 28.95 110.95 28.81 110.95 28.63V23.58C110.95 23.58 111.67 21.83 113.24 21.83H114.28C114.28 21.83 114.21 20.51 114.74 19.09C114.81 18.91 114.89 18.71 114.98 18.5C114.08 18.57 112.15 18.69 110.37 18.69C108.39 18.69 106.6 18.54 106.6 17.98C106.6 17.49 107.97 17.35 109.65 17.35C111.8 17.35 114.45 17.59 115.34 17.68C115.92 16.38 116.6 15 116.6 15C116.6 15 117.11 14.12 118.01 14.12C118.91 14.12 119.28 15.2 119.28 15.2L120.19 17.69C121.02 17.61 123.7 17.35 125.87 17.35C127.52 17.35 128.88 17.5 128.88 17.98C128.88 18.54 127.11 18.69 125.16 18.69C123.21 18.69 121.27 18.55 120.45 18.49C120.45 18.49 121.09 20.48 121.29 21.31C121.61 21.31 123.04 21.42 123.04 21.42C123.04 21.42 124.22 21.72 124.66 23.52C124.66 24.52 124.59 27.48 124.56 28.45C124.56 28.62 124.41 28.76 124.24 28.76H122.28C122.17 28.77 122.08 28.86 122.08 28.97C122.1 30.03 122.19 35.19 122.05 41.06C122.05 41.23 122.14 41.38 122.29 41.46C123.38 41.98 127.47 44 129.01 44.76C129.4 44.95 129.82 45.06 130.26 45.09L176.47 47.58C176.47 47.58 178.09 47.72 178.5 49.8V57.41C178.5 57.64 178.33 57.84 178.1 57.88L124.55 66.12C123.79 66.24 123.03 66.29 122.26 66.29H101.31C101.11 66.29 100.92 66.35 100.76 66.47C100.32 66.79 99.43 67.54 98.86 68.76C98.72 69.05 98.66 69.37 98.66 69.7V71.17C98.66 71.17 95.84 106.47 92.87 122.29C92.66 123.42 92.32 124.34 92.32 124.34L118.54 133.8C118.54 133.8 119.65 134.2 119.98 136.08V142.31C119.98 142.66 119.69 142.94 119.35 142.94C119.33 142.94 119.31 142.94 119.3 142.94L92.18 140.66C92.18 140.66 92.16 140.66 92.15 140.66C92 140.66 91.87 140.77 91.85 140.92C91.71 141.96 91.22 145.53 90.25 145.53C89.28 145.53 88.79 141.96 88.65 140.92C88.63 140.77 88.5 140.66 88.35 140.66C88.35 140.66 88.33 140.66 88.32 140.66L61.2 142.94C61.2 142.94 61.16 142.94 61.15 142.94C60.8 142.94 60.52 142.66 60.52 142.31V136.08C60.85 134.2 61.96 133.8 61.96 133.8L88.18 124.34C88.18 124.34 87.84 123.42 87.63 122.29C84.66 106.47 81.84 71.17 81.84 71.17V69.7C81.84 69.38 81.77 69.06 81.64 68.76C81.07 67.54 80.18 66.79 79.74 66.47C79.58 66.35 79.39 66.29 79.19 66.29H58.24C57.47 66.29 56.71 66.23 55.95 66.12L2.39998 57.88C2.16998 57.84 1.99998 57.64 1.99998 57.41V49.8C2.40998 47.72 4.02998 47.58 4.02998 47.58L50.24 45.09C50.67 45.07 51.1 44.96 51.49 44.76C53.03 44 57.11 41.99 58.21 41.46C58.36 41.39 58.46 41.23 58.45 41.06C58.3 35.19 58.4 30.03 58.42 28.97C58.42 28.86 58.33 28.77 58.22 28.77H56.26C56.09 28.75 55.95 28.62 55.94 28.44C55.92 27.47 55.84 24.51 55.84 23.51C56.28 21.71 57.46 21.41 57.46 21.41C57.46 21.41 58.89 21.3 59.21 21.3C59.4 20.47 60.05 18.48 60.05 18.48C59.23 18.54 57.2 18.68 55.34 18.68C53.48 18.68 51.62 18.53 51.62 17.97C51.62 17.48 52.97 17.34 54.63 17.34C56.8 17.34 59.48 17.59 60.31 17.68L61.22 15.19C61.22 15.19 61.59 14.11 62.49 14.11C63.39 14.11 63.9 14.99 63.9 14.99C63.9 14.99 64.58 16.37 65.16 17.67C66.05 17.58 68.7 17.34 70.85 17.34C72.53 17.34 73.9 17.49 73.9 17.97C73.9 18.53 72.11 18.68 70.13 18.68C68.35 18.68 66.41 18.55 65.52 18.49C65.61 18.7 65.69 18.9 65.76 19.08C66.29 20.49 66.22 21.82 66.22 21.82H67.26C68.83 21.82 69.55 23.57 69.55 23.57V28.62C69.55 28.8 69.41 28.94 69.23 28.94H67.18C67.07 28.94 66.98 29.03 66.98 29.14C67.21 35.74 67.16 41.02 67.13 42.56C67.13 42.8 67.32 42.99 67.56 42.99H67.58L81.47 42.26C81.7 42.25 81.88 42.06 81.88 41.83V33.06C81.88 24.35 85.49 1.99 90.25 1.99M90.25 0C88.01 0 85.08 1.57 82.33 13.83C80.91 20.16 79.88 28.25 79.88 33.07V40.35L69.15 40.91C69.16 38.78 69.15 35.2 69.04 30.93H69.23C70.51 30.93 71.55 29.89 71.55 28.61V23.56C71.55 23.3 71.5 23.04 71.4 22.79C71.14 22.17 70.6 21.31 69.76 20.67C69.89 20.67 70.01 20.67 70.13 20.67C72.29 20.67 75.9 20.67 75.9 17.96C75.9 15.25 72.49 15.33 70.85 15.33C69.35 15.33 67.65 15.44 66.39 15.54C66.02 14.75 65.71 14.13 65.69 14.09C65.67 14.05 65.65 14.01 65.63 13.97C65.13 13.1 64 12.09 62.49 12.09C60.88 12.09 59.74 13.31 59.33 14.52L58.96 15.53C57.71 15.43 56.06 15.32 54.63 15.32C53.59 15.32 52.78 15.37 52.15 15.49C49.87 15.9 49.62 17.35 49.62 17.96C49.62 20.57 52.94 20.67 55.09 20.67C54.58 21.24 54.14 22.02 53.89 23.02C53.85 23.18 53.83 23.34 53.83 23.5C53.83 24.5 53.9 27.32 53.93 28.48C53.96 29.74 54.97 30.73 56.23 30.74H56.37C56.35 32.8 56.33 36.25 56.41 40.08C54.79 40.87 51.93 42.28 50.59 42.94C50.44 43.01 50.29 43.05 50.12 43.06L3.90998 45.55C3.90998 45.55 3.86998 45.55 3.83998 45.55C2.67998 45.65 0.569981 46.57 0.0199805 49.38C-1.95317e-05 49.51 -0.0200195 49.63 -0.0200195 49.76V57.37C-0.0200195 58.6 0.85998 59.63 2.07998 59.82L55.63 68.06C56.48 68.19 57.36 68.26 58.22 68.26H78.8C79.1 68.52 79.52 68.96 79.8 69.57C79.8 69.57 79.82 69.61 79.82 69.66V71.13C79.82 71.18 79.82 71.24 79.82 71.29C79.94 72.74 82.69 106.88 85.64 122.62C85.67 122.77 85.7 122.91 85.73 123.05L61.26 131.88C60.89 132.01 59.04 132.82 58.53 135.7C58.51 135.81 58.5 135.93 58.5 136.04V142.27C58.5 143.72 59.68 144.9 61.13 144.9C61.2 144.9 61.28 144.9 61.35 144.9L86.88 142.75C87.34 145.33 88.13 147.49 90.22 147.49C92.31 147.49 93.1 145.32 93.56 142.75L119.09 144.9C119.16 144.9 119.24 144.9 119.31 144.9C120.76 144.9 121.94 143.72 121.94 142.27V136.04C121.94 135.92 121.93 135.81 121.91 135.7C121.41 132.82 119.55 132.01 119.18 131.88L94.71 123.05C94.74 122.91 94.77 122.77 94.8 122.62C97.75 106.88 100.5 72.74 100.62 71.29C100.62 71.24 100.62 71.18 100.62 71.13V69.66C100.62 69.6 100.63 69.57 100.64 69.57C100.93 68.96 101.34 68.52 101.64 68.26H122.22C123.08 68.26 123.96 68.19 124.81 68.06L178.36 59.82C179.58 59.63 180.46 58.6 180.46 57.37V49.76C180.46 49.63 180.45 49.5 180.42 49.38C179.87 46.57 177.76 45.65 176.6 45.55C176.58 45.55 176.56 45.55 176.53 45.55L130.32 43.06C130.16 43.06 130 43.01 129.85 42.94C128.51 42.28 125.65 40.87 124.03 40.08C124.11 36.25 124.09 32.8 124.07 30.74H124.21C125.47 30.73 126.48 29.74 126.51 28.48C126.54 27.31 126.61 24.5 126.61 23.5C126.61 23.34 126.59 23.18 126.55 23.02C126.3 22.01 125.86 21.24 125.35 20.67C127.51 20.67 130.82 20.57 130.82 17.96C130.82 15.35 127.44 15.33 125.81 15.33C124.38 15.33 122.73 15.44 121.48 15.54L121.09 14.49C120.69 13.32 119.55 12.1 117.94 12.1C116.43 12.1 115.3 13.11 114.8 13.98C114.78 14.02 114.76 14.06 114.74 14.1C114.72 14.14 114.42 14.75 114.04 15.55C112.78 15.45 111.08 15.34 109.58 15.34C108.53 15.34 107.71 15.39 107.08 15.51C104.78 15.92 104.53 17.37 104.53 17.98C104.53 20.69 108.14 20.69 110.3 20.69C110.42 20.69 110.55 20.69 110.67 20.69C109.83 21.33 109.29 22.19 109.03 22.81C108.93 23.05 108.88 23.31 108.88 23.58V28.63C108.88 29.91 109.92 30.95 111.2 30.95H111.39C111.27 35.22 111.26 38.8 111.28 40.93L100.55 40.37V33.09C100.55 28.27 99.52 20.18 98.1 13.85C95.35 1.59 92.43 0.02 90.18 0.02L90.25 0Z" fill="black"/>
</g>
<defs>
<clipPath id="clip0_566_48">
<rect width="180.5" height="147.52" fill="white"/>
</clipPath>
</defs>
</svg>
