<svg width="107" height="83" viewBox="0 0 107 83" fill="none" xmlns="http://www.w3.org/2000/svg">
<g clip-path="url(#clip0_542_2)">
<path d="M53.75 81.34C53.33 81.34 52.96 81.13 52.72 80.77C52.6 80.81 52.46 80.84 52.33 80.84C52.33 80.84 52.25 80.84 52.23 80.84L46.03 80.26C45.65 80.22 45.32 80.01 45.14 79.7C43.34 79.56 39.01 79.22 38.68 79.19C37.94 79.12 37.47 78.57 37.33 78.07C37.31 77.97 37.17 77.19 36.89 75.47C36.38 72.5 36.64 70.26 37.67 68.83C38.5 67.67 39.54 67.48 39.66 67.46C39.66 67.46 47.12 66.02 49.85 65.52C47.96 53.85 47.32 44.23 47.16 41.33C43.53 40.74 28.21 38.26 16.69 36.39C16.48 36.67 16.14 36.85 15.76 36.85C15.71 36.85 15.63 36.85 15.59 36.84L13.17 36.48C12.71 36.41 12.35 36.09 12.22 35.66C3.54001 34.24 3.30001 34.19 3.21001 34.16C2.20001 33.91 1.72001 33.09 1.70001 32.44V24.25C1.70001 22.57 3.15001 21.81 3.92001 21.65C3.97001 21.64 4.01001 21.63 4.06001 21.63L41.08 18.84C41.51 18.81 41.93 18.7 42.33 18.54C43.14 18.19 45.77 17.07 47.05 16.55C47.17 12.26 48.33 7.58001 48.64 6.54001C48.69 6.38001 48.75 6.23001 48.82 6.10001C46.87 6.07001 44.31 6.02001 43.83 5.93001C42.91 5.76001 42.57 5.16001 42.56 4.67001C42.55 4.16001 42.88 3.54001 43.85 3.31001C47.48 2.77001 49.77 2.66001 51.07 2.66001C51.37 2.66001 51.63 2.66001 51.85 2.67001C52.3 1.57001 52.95 1.01001 53.77 1.01001C54.59 1.01001 55.23 1.57001 55.69 2.67001C55.91 2.67001 56.17 2.66001 56.47 2.66001C57.77 2.66001 60.07 2.77001 63.61 3.29001C64.66 3.53001 64.99 4.16001 64.98 4.67001C64.97 5.17001 64.63 5.76001 63.71 5.93001C63.23 6.02001 60.65 6.07001 58.72 6.10001C58.79 6.23001 58.85 6.38001 58.9 6.54001C59.21 7.58001 60.37 12.26 60.49 16.55C61.77 17.07 64.4 18.19 65.21 18.54C65.61 18.71 66.02 18.81 66.46 18.84L103.48 21.63C103.48 21.63 103.57 21.63 103.62 21.65C104.39 21.82 105.84 22.58 105.84 24.25V32.41C105.82 33.1 105.34 33.92 104.33 34.17C104.24 34.19 104 34.25 95.32 35.67C95.19 36.09 94.83 36.42 94.37 36.49L91.96 36.85C91.96 36.85 91.84 36.86 91.79 36.86C91.41 36.86 91.07 36.68 90.86 36.4C79.34 38.28 64.03 40.76 60.39 41.34C60.23 44.25 59.59 53.86 57.7 65.53C60.43 66.03 67.92 67.48 67.92 67.48C68 67.49 69.04 67.68 69.87 68.84C70.9 70.27 71.16 72.51 70.65 75.49C70.38 77.2 70.24 77.98 70.24 77.98C70.08 78.58 69.61 79.12 68.86 79.19C68.54 79.22 64.2 79.56 62.4 79.7C62.22 80.01 61.89 80.23 61.51 80.26L55.32 80.84C55.32 80.84 55.24 80.84 55.21 80.84C55.08 80.84 54.95 80.82 54.82 80.78C54.58 81.13 54.21 81.35 53.79 81.35L53.75 81.34Z" fill="white"/>
<path d="M53.75 2C54.35 2 54.73 2.85 54.97 3.71C55.21 3.68 55.68 3.65 56.44 3.65C57.78 3.65 60.02 3.77 63.44 4.27C64.11 4.43 64.13 4.82 63.5 4.94C62.87 5.06 56.93 5.12 56.93 5.12C56.93 5.12 55.92 5.04 55.18 4.65C55.24 4.99 55.26 5.26 55.26 5.39C55.26 5.73 55.85 5.78 56.26 5.78C56.47 5.78 56.62 5.76 56.62 5.76C56.62 5.76 57.61 5.81 57.91 6.82C58.2 7.79 59.38 12.56 59.46 16.8C59.46 17.06 59.63 17.3 59.87 17.39C60.94 17.81 63.5 18.91 64.78 19.45C65.28 19.66 65.8 19.79 66.34 19.83L103.36 22.62C103.36 22.62 104.79 22.93 104.79 24.25V32.4C104.79 32.4 104.77 33.01 104.05 33.18C103.84 33.23 99.83 33.89 94.3 34.79L94.32 35.29C94.32 35.38 94.26 35.45 94.17 35.47L91.75 35.83C91.75 35.83 91.73 35.83 91.72 35.83C91.63 35.83 91.56 35.76 91.55 35.67L91.51 35.23C79.74 37.15 63.45 39.79 60.01 40.34C59.63 40.4 59.35 40.72 59.32 41.1C59.18 43.67 58.56 53.51 56.61 65.47C56.54 65.93 56.84 66.36 57.3 66.45C59.9 66.93 67.65 68.42 67.65 68.42C67.65 68.42 70.69 68.89 69.59 75.28C69.32 76.99 69.18 77.77 69.18 77.77C69.18 77.77 69.08 78.12 68.69 78.16C68.3 78.2 61.5 78.73 61.5 78.73V79.07C61.5 79.15 61.44 79.22 61.35 79.23L55.16 79.81C55.16 79.81 55.15 79.81 55.14 79.81C55.05 79.81 54.96 79.75 54.93 79.66L54.42 77.93C54.42 77.93 54.41 77.92 54.4 77.92C54.4 77.92 54.38 77.92 54.38 77.94L54.06 79.78C54.06 79.78 53.99 80.33 53.72 80.33C53.45 80.33 53.38 79.78 53.38 79.78L53.06 77.94C53.06 77.94 53.05 77.92 53.04 77.92C53.04 77.92 53.02 77.92 53.02 77.93L52.51 79.66C52.48 79.75 52.4 79.81 52.3 79.81C52.3 79.81 52.29 79.81 52.28 79.81L46.09 79.23C46.01 79.23 45.94 79.15 45.94 79.07V78.73C45.94 78.73 39.14 78.2 38.75 78.16C38.36 78.12 38.26 77.77 38.26 77.77C38.26 77.77 38.12 76.99 37.85 75.28C36.75 68.89 39.79 68.42 39.79 68.42C39.79 68.42 47.54 66.92 50.14 66.45C50.6 66.37 50.9 65.93 50.83 65.47C48.88 53.51 48.26 43.67 48.12 41.1C48.1 40.72 47.81 40.4 47.43 40.34C43.99 39.78 27.7 37.15 15.93 35.23L15.89 35.67C15.89 35.76 15.81 35.83 15.72 35.83C15.72 35.83 15.7 35.83 15.69 35.83L13.27 35.47C13.18 35.46 13.12 35.38 13.12 35.29L13.14 34.79C7.61001 33.89 3.61001 33.23 3.39001 33.18C2.66001 33 2.65001 32.4 2.65001 32.4V24.25C2.65001 22.94 4.08001 22.62 4.08001 22.62L41.1 19.83C41.64 19.79 42.17 19.66 42.66 19.45C43.94 18.9 46.5 17.81 47.57 17.39C47.81 17.29 47.98 17.06 47.98 16.8C48.06 12.56 49.24 7.79 49.53 6.82C49.83 5.81 50.82 5.76 50.82 5.76C50.82 5.76 50.98 5.78 51.18 5.78C51.58 5.78 52.18 5.72 52.18 5.39C52.18 5.26 52.21 4.99 52.26 4.65C51.52 5.04 50.51 5.12 50.51 5.12C50.51 5.12 44.57 5.06 43.94 4.94C43.31 4.82 43.33 4.43 44 4.27C47.42 3.77 49.66 3.65 51 3.65C51.76 3.65 52.23 3.69 52.47 3.71C52.71 2.85 53.09 2 53.69 2M53.75 0C52.96 0 51.97 0.32 51.22 1.64C51.17 1.64 51.12 1.64 51.06 1.64C49.73 1.64 47.38 1.75 43.77 2.28C43.71 2.28 43.66 2.3 43.6 2.31C42.05 2.67 41.52 3.81 41.54 4.67C41.56 5.52 42.12 6.61 43.63 6.89C44.01 6.96 45.29 7.02 47.44 7.06C47.01 8.78 46.23 12.38 46.06 15.85C44.83 16.36 43.03 17.13 41.92 17.6C41.62 17.73 41.31 17.8 40.99 17.83L3.98001 20.62C3.89001 20.62 3.79001 20.64 3.70001 20.66C2.25001 20.98 0.700012 22.23 0.700012 24.24V32.39C0.700012 32.39 0.700012 32.43 0.700012 32.45C0.730012 33.47 1.46001 34.75 2.97001 35.11C3.11001 35.14 3.31001 35.19 11.56 36.54C11.89 37.01 12.41 37.35 13.02 37.44L15.44 37.8C15.54 37.81 15.66 37.82 15.76 37.82C16.23 37.82 16.66 37.67 17.01 37.42C27.77 39.17 41.58 41.41 46.21 42.16C46.43 45.68 47.07 54.31 48.71 64.69C45.62 65.27 39.87 66.38 39.46 66.46C38.71 66.59 37.66 67.12 36.86 68.22C35.67 69.88 35.35 72.37 35.9 75.62C36.17 77.32 36.31 78.12 36.31 78.12C36.32 78.18 36.34 78.25 36.35 78.31C36.58 79.14 37.36 80.04 38.57 80.16C38.88 80.19 42.62 80.48 44.62 80.64C44.96 80.97 45.41 81.19 45.92 81.23L52.11 81.81C52.17 81.81 52.25 81.81 52.32 81.81H52.34C52.73 82.13 53.21 82.32 53.74 82.32C54.27 82.32 54.75 82.14 55.14 81.81H55.16C55.22 81.81 55.3 81.81 55.36 81.81L61.55 81.23C62.06 81.18 62.51 80.96 62.85 80.64C64.85 80.48 68.59 80.19 68.9 80.16C70.11 80.04 70.89 79.14 71.12 78.31C71.14 78.25 71.15 78.18 71.16 78.12C71.16 78.12 71.3 77.33 71.58 75.6C72.14 72.37 71.81 69.88 70.62 68.22C69.83 67.12 68.77 66.59 68.02 66.46C67.61 66.38 61.86 65.27 58.77 64.69C60.41 54.31 61.06 45.69 61.27 42.16C65.9 41.41 79.71 39.17 90.47 37.42C90.82 37.67 91.26 37.82 91.72 37.82C91.82 37.82 91.94 37.82 92.04 37.8L94.46 37.44C95.07 37.35 95.59 37.01 95.92 36.54C104.16 35.19 104.37 35.14 104.51 35.11C106.02 34.74 106.75 33.47 106.78 32.45C106.78 32.43 106.78 32.41 106.78 32.39V24.24C106.78 22.23 105.22 20.98 103.78 20.66C103.69 20.64 103.6 20.63 103.5 20.62L66.48 17.83C66.16 17.81 65.85 17.73 65.55 17.6C64.44 17.13 62.64 16.36 61.41 15.85C61.24 12.38 60.46 8.78 60.03 7.06C62.19 7.02 63.47 6.96 63.84 6.89C65.35 6.61 65.91 5.52 65.93 4.67C65.95 3.81 65.42 2.68 63.87 2.31C63.81 2.3 63.76 2.29 63.7 2.28C60.1 1.75 57.75 1.64 56.41 1.64C56.36 1.64 56.3 1.64 56.25 1.64C55.5 0.32 54.5 0 53.72 0L53.75 0Z" fill="black"/>
</g>
<defs>
<clipPath id="clip0_542_2">
<rect width="106.1" height="82.34" fill="white" transform="translate(0.700012)"/>
</clipPath>
</defs>
</svg>
