<svg width="120" height="92" viewBox="0 0 120 92" fill="none" xmlns="http://www.w3.org/2000/svg">
<g clip-path="url(#clip0_102_7)">
<path d="M59.7 89.2099L60.58 82.6799L61.51 83.9699C61.51 83.9699 76.9 83.1699 78.37 83.0199C79.84 82.8699 80.07 80.6999 80.07 80.6999L80.3 76.5499L79.4 77.5299C79.4 77.5299 80.1 76.4999 80.28 76.2699C80.13 73.2299 77.93 72.9099 77.93 72.9099C77.93 72.9099 63.43 70.7399 62.16 70.5699C63.52 63.7699 65.07 46.6399 65.18 45.4499C65.18 45.4099 65.21 45.3799 65.25 45.3699C65.25 45.3699 113.81 36.7999 115.7 36.4099C117.68 35.9999 117.27 34.2999 117.27 34.2999V28.0399C117.27 26.4399 115.9 26.2399 115.9 26.2399L82.46 24.3599C82.46 24.3599 82.05 24.5399 81.58 23.6599C81.73 18.8699 81.58 14.4599 81.58 14.4599V13.7999C81.58 13.0399 80.96 12.4299 80.21 12.4299H79.24C79.2 12.1699 79.12 11.6999 78.99 11.1599C82.48 11.1599 86.8 10.8499 86.8 10.8499C86.8 10.8499 88.11 10.4799 86.8 10.0599C82.78 9.75988 79.48 10.0599 79.02 10.0599C78.89 10.0599 78.78 10.0799 78.7 10.1099C78.33 9.01988 77.77 7.98988 76.96 7.98988C76.15 7.98988 75.61 8.97988 75.24 10.0499C75.15 10.0199 75.03 9.98988 74.88 9.99988C74.42 10.0099 71.11 9.81988 67.1 10.2399C65.8 10.6999 67.12 11.0299 67.12 11.0299C67.12 11.0299 71.44 11.2099 74.93 11.0999C74.79 11.6699 74.71 12.1599 74.67 12.4399H73.79C73.03 12.4399 72.42 13.0599 72.42 13.8099V22.6099C72.42 22.6799 72.39 22.7399 72.34 22.7799C72.24 22.8499 72.07 22.9899 71.86 23.1499C71.52 23.4099 71.04 23.1499 71.04 23.1499C71.04 23.1499 66.27 21.0899 65.19 20.5699C64.73 14.9499 63.54 9.73988 63.54 9.73988C63.54 9.73988 62.35 5.76988 61.68 3.85988C60.99 1.94988 59.65 1.99988 59.65 1.99988C59.65 1.99988 58.31 1.94988 57.64 3.85988C56.97 5.76988 55.78 9.73988 55.78 9.73988C55.78 9.73988 54.59 14.9499 54.13 20.5699C53.05 21.0899 48.28 23.1499 48.28 23.1499C48.28 23.1499 47.79 23.4099 47.46 23.1499C47.24 22.9799 47.07 22.8499 46.98 22.7799C46.93 22.7399 46.9 22.6799 46.9 22.6099V13.8099C46.9 13.0499 46.28 12.4399 45.53 12.4399H44.65C44.61 12.1699 44.52 11.6699 44.39 11.0999C47.88 11.1999 52.2 11.0299 52.2 11.0299C52.2 11.0299 53.53 10.6999 52.22 10.2399C48.21 9.81988 44.9 10.0199 44.44 9.99988C44.29 9.99988 44.17 10.0199 44.08 10.0499C43.71 8.97988 43.16 7.98988 42.36 7.98988C41.56 7.98988 40.99 9.01988 40.62 10.1099C40.53 10.0799 40.43 10.0599 40.3 10.0599C39.84 10.0599 36.54 9.75988 32.52 10.0599C31.21 10.4799 32.52 10.8499 32.52 10.8499C32.52 10.8499 36.84 11.1599 40.33 11.1599C40.2 11.6999 40.12 12.1699 40.08 12.4299H39.11C38.35 12.4299 37.74 13.0499 37.74 13.7999V14.4599C37.74 14.4599 37.59 18.8699 37.74 23.6599C37.28 24.5399 36.86 24.3599 36.86 24.3599L3.39998 26.2299C3.39998 26.2299 2.02998 26.4399 2.02998 28.0299V34.2899C2.02998 34.2899 1.61998 35.9899 3.59998 36.3999C5.48998 36.7899 54.05 45.3599 54.05 45.3599C54.09 45.3599 54.12 45.3999 54.12 45.4399C54.23 46.6399 55.78 63.7699 57.14 70.5599C55.87 70.7299 41.37 72.8999 41.37 72.8999C41.37 72.8999 39.18 73.2199 39.02 76.2599C39.2 76.4899 39.9 77.5199 39.9 77.5199L39 76.5399L39.23 80.6899C39.23 80.6899 39.46 82.8599 40.93 83.0099C42.4 83.1599 57.79 83.9599 57.79 83.9599L58.72 82.6699L59.6 89.1999C59.6 89.2599 59.69 89.2599 59.7 89.1999V89.2099Z" fill="white"/>
<path d="M59.66 2C59.79 2 61.02 2.05 61.66 3.86C62.33 5.77 63.52 9.74 63.52 9.74C63.52 9.74 64.71 14.95 65.17 20.57C66.25 21.09 71.02 23.15 71.02 23.15C71.02 23.15 71.24 23.26 71.48 23.26C71.6 23.26 71.73 23.23 71.84 23.15C72.06 22.98 72.23 22.85 72.32 22.78C72.37 22.74 72.4 22.68 72.4 22.61V13.81C72.4 13.05 73.02 12.44 73.77 12.44H74.65C74.69 12.17 74.78 11.67 74.91 11.1C74.13 11.12 73.3 11.13 72.5 11.13C69.7 11.13 67.1 11.02 67.1 11.02C67.1 11.02 65.77 10.69 67.08 10.23C69.2 10.01 71.12 9.96 72.53 9.96C73.69 9.96 74.5 9.99 74.79 9.99C74.81 9.99 74.84 9.99 74.85 9.99C74.86 9.99 74.88 9.99 74.89 9.99C75.02 9.99 75.13 10.01 75.21 10.04C75.58 8.97 76.13 7.98 76.93 7.98C77.73 7.98 78.31 9.01 78.67 10.1C78.76 10.07 78.86 10.05 78.99 10.05C79.3 10.05 80.87 9.92 83.07 9.92C84.17 9.92 85.43 9.95 86.77 10.05C88.08 10.47 86.77 10.84 86.77 10.84C86.77 10.84 82.45 11.15 78.96 11.15C79.09 11.69 79.17 12.16 79.21 12.42H80.18C80.94 12.42 81.55 13.04 81.55 13.79V14.45C81.55 14.45 81.7 18.86 81.55 23.65C81.88 24.27 82.18 24.36 82.33 24.36C82.39 24.36 82.43 24.34 82.43 24.34L115.87 26.22C115.87 26.22 117.24 26.43 117.24 28.02V34.28C117.24 34.28 117.65 35.98 115.67 36.39C113.78 36.78 65.22 45.35 65.22 45.35C65.18 45.35 65.15 45.39 65.15 45.43C65.04 46.63 63.49 63.76 62.13 70.55C63.4 70.72 77.9 72.89 77.9 72.89C77.9 72.89 80.09 73.21 80.25 76.25C80.07 76.48 79.37 77.51 79.37 77.51L80.27 76.53L80.04 80.68C80.04 80.68 79.81 82.85 78.34 83C76.87 83.15 61.48 83.95 61.48 83.95L60.55 82.66L59.67 89.19C59.67 89.19 59.64 89.23 59.62 89.23C59.6 89.23 59.57 89.22 59.57 89.19L58.69 82.66L57.76 83.95C57.76 83.95 42.37 83.15 40.9 83C39.43 82.85 39.2 80.68 39.2 80.68L38.97 76.53L39.87 77.51C39.87 77.51 39.17 76.48 38.99 76.25C39.14 73.21 41.34 72.89 41.34 72.89C41.34 72.89 55.84 70.72 57.11 70.55C55.75 63.75 54.2 46.62 54.09 45.43C54.09 45.39 54.06 45.36 54.02 45.35C54.02 45.35 5.46 36.78 3.57 36.39C1.59 35.98 2 34.28 2 34.28V28.02C2 26.42 3.37 26.22 3.37 26.22L36.81 24.34C36.81 24.34 36.85 24.36 36.91 24.36C37.06 24.36 37.36 24.27 37.69 23.65C37.54 18.86 37.69 14.45 37.69 14.45V13.79C37.69 13.03 38.31 12.42 39.06 12.42H40.03C40.07 12.16 40.15 11.69 40.28 11.15C36.79 11.15 32.47 10.84 32.47 10.84C32.47 10.84 31.16 10.47 32.47 10.05C33.81 9.95 35.07 9.92 36.17 9.92C38.37 9.92 39.94 10.05 40.25 10.05C40.38 10.05 40.49 10.07 40.57 10.1C40.94 9.01 41.5 7.98 42.31 7.98C43.12 7.98 43.66 8.97 44.03 10.04C44.12 10.01 44.22 9.99 44.35 9.99C44.36 9.99 44.38 9.99 44.39 9.99C44.41 9.99 44.43 9.99 44.45 9.99C44.74 9.99 45.55 9.96 46.71 9.96C48.12 9.96 50.04 10.01 52.16 10.23C53.46 10.69 52.14 11.02 52.14 11.02C52.14 11.02 49.54 11.13 46.74 11.13C45.93 11.13 45.11 11.13 44.33 11.1C44.47 11.67 44.55 12.16 44.59 12.44H45.47C46.23 12.44 46.84 13.06 46.84 13.81V22.61C46.84 22.68 46.87 22.74 46.92 22.78C47.02 22.85 47.19 22.99 47.4 23.15C47.51 23.24 47.64 23.26 47.76 23.26C48 23.26 48.22 23.15 48.22 23.15C48.22 23.15 52.99 21.09 54.07 20.57C54.53 14.95 55.72 9.74 55.72 9.74C55.72 9.74 56.91 5.77 57.58 3.86C58.22 2.05 59.45 2 59.58 2H59.59C59.59 2 59.59 2 59.6 2M59.66 0C59.66 0 59.66 0 59.65 0C59.65 0 59.65 0 59.64 0C58.36 0 56.58 0.84 55.75 3.19C55.16 4.86 54.22 7.98 53.94 8.9C53.68 8.68 53.33 8.48 52.88 8.32C52.73 8.27 52.57 8.23 52.41 8.21C50.62 8.02 48.71 7.93 46.75 7.93C46.19 7.93 45.71 7.93 45.33 7.95C44.41 6.34 43.24 5.96 42.35 5.96C41.46 5.96 40.28 6.35 39.35 7.98C38.6 7.94 37.51 7.9 36.2 7.9C34.89 7.9 33.59 7.95 32.35 8.04C32.19 8.05 32.03 8.08 31.88 8.13C30.07 8.71 29.9 9.96 29.91 10.47C29.93 11.55 30.69 12.4 31.95 12.75C32.08 12.79 32.21 12.81 32.35 12.82C32.45 12.82 33.91 12.93 35.8 13.02C35.74 13.27 35.71 13.52 35.71 13.79V14.42C35.7 14.84 35.59 18.32 35.68 22.41L3.29 24.23C3.23 24.23 3.17 24.24 3.1 24.25C1.87 24.44 0.0300016 25.6 0.0300016 28.03V34.13C-0.0399984 34.65 -0.0599983 35.67 0.560002 36.65C0.950002 37.26 1.72 38.06 3.2 38.37C4.94 38.73 44.06 45.64 52.27 47.09C52.66 51.25 53.74 62.37 54.81 68.89C50.58 69.51 41.55 70.86 41.07 70.93C39.76 71.12 37.21 72.46 37.02 76.17C37.02 76.19 37.02 76.21 37.02 76.23C37 76.37 36.99 76.52 37 76.67L37.23 80.82C37.23 80.82 37.23 80.89 37.23 80.92C37.43 82.8 38.59 84.79 40.71 85.02C42.08 85.16 54.09 85.8 57.12 85.95L57.6 89.49C57.74 90.5 58.61 91.27 59.63 91.27C60.65 91.27 61.53 90.5 61.66 89.49L62.14 85.95C65.18 85.79 77.18 85.16 78.55 85.02C80.68 84.8 81.83 82.8 82.03 80.92C82.03 80.89 82.03 80.85 82.03 80.82L82.26 76.67C82.26 76.52 82.26 76.38 82.24 76.23C82.24 76.21 82.24 76.19 82.24 76.17C82.05 72.47 79.5 71.12 78.18 70.93C77.71 70.86 68.69 69.51 64.45 68.89C65.52 62.36 66.6 51.25 66.99 47.09C75.2 45.64 114.33 38.73 116.06 38.37C117.54 38.06 118.31 37.27 118.7 36.65C119.32 35.67 119.3 34.65 119.23 34.13V28.03C119.23 25.6 117.4 24.43 116.16 24.25C116.1 24.25 116.04 24.23 115.97 24.23L83.58 22.41C83.67 18.32 83.56 14.84 83.55 14.42V13.79C83.55 13.53 83.52 13.27 83.46 13.02C85.35 12.93 86.8 12.83 86.91 12.82C87.04 12.82 87.18 12.79 87.31 12.75C88.57 12.4 89.33 11.54 89.35 10.47C89.35 9.96 89.19 8.71 87.38 8.13C87.23 8.08 87.07 8.05 86.91 8.04C85.68 7.95 84.38 7.9 83.06 7.9C81.74 7.9 80.66 7.94 79.91 7.98C78.98 6.34 77.81 5.96 76.91 5.96C76.01 5.96 74.85 6.34 73.93 7.95C73.55 7.95 73.07 7.93 72.51 7.93C70.55 7.93 68.64 8.02 66.85 8.21C66.69 8.23 66.54 8.26 66.38 8.32C65.93 8.48 65.58 8.68 65.32 8.9C65.04 7.98 64.1 4.86 63.51 3.19C62.68 0.83 60.9 0 59.62 0L59.66 0ZM48.82 13.09C50.73 13.06 52.18 13 52.27 13C52.4 13 52.54 12.98 52.67 12.94C52.84 12.9 53 12.85 53.15 12.79C52.84 14.54 52.49 16.81 52.25 19.22C51.28 19.65 49.91 20.25 48.89 20.69V13.79C48.89 13.55 48.87 13.32 48.82 13.09ZM67.05 19.22C66.81 16.81 66.46 14.55 66.15 12.79C66.3 12.85 66.46 12.9 66.63 12.94C66.76 12.97 66.89 12.99 67.03 13C67.11 13 68.57 13.06 70.48 13.09C70.43 13.31 70.41 13.55 70.41 13.79V20.69C69.39 20.25 68.03 19.65 67.05 19.22Z" fill="black"/>
</g>
<defs>
<clipPath id="clip0_102_7">
<rect width="119.3" height="91.26" fill="white"/>
</clipPath>
</defs>
</svg>
