<svg width="124" height="103" viewBox="0 0 124 103" fill="none" xmlns="http://www.w3.org/2000/svg">
<g clip-path="url(#clip0_202_7)">
<path d="M61.85 101.53C61.37 101.53 60.95 101.35 60.66 101.02C60.24 100.54 60.23 99.93 60.25 99.69V94.37C59.99 94.47 59.71 94.52 59.42 94.52C59.35 94.52 59.28 94.52 59.21 94.52C56.31 94.26 41.75 92.97 39.37 92.69C37.87 92.52 36.9 92.1 36.4 91.39C36.08 90.94 36.05 90.52 36.07 90.28V85.72C36.07 83.84 37.94 83.07 39.04 82.92C39.2 82.9 53.13 81.08 58.02 80.23C56.01 64.76 54.66 58.44 54.23 56.65C51.98 56.15 43.85 54.27 35.73 51.58C35.23 51.41 34.75 51.29 34.27 51.21C25.23 49.68 8.18 47.47 3.17 46.83C1.94 46.67 1 45.61 1 44.36V35.9C1 34.66 1.97 33.64 3.21 33.59L37.42 32.03V20.98C37.42 20.36 37.66 19.78 38.1 19.35L39.53 17.92C39.65 17.8 39.77 17.7 39.91 17.6V17.05C32.22 16.98 32.22 16.45 32.22 15.51C32.22 14.55 32.22 14.01 40.56 13.97C41.09 12.68 41.85 11.44 43.07 11.44C44.29 11.44 45.05 12.68 45.58 13.96C53.93 14 53.93 14.54 53.93 15.5C53.93 16.44 53.93 16.97 46.23 17.04V17.65L47.06 18.34C48.17 19.27 48.8 20.64 48.8 22.08V29.31L54.14 28.16C54.36 28.11 54.51 27.92 54.51 27.7V21.63C54.51 9.65999 58.54 3.71999 60.27 1.71999C60.67 1.25999 61.25 0.98999 61.85 0.98999C62.45 0.98999 63.03 1.24999 63.43 1.70999C65.16 3.70999 69.19 9.65999 69.19 21.62V27.69C69.19 27.91 69.34 28.1 69.56 28.15L74.9 29.3V22.07C74.9 20.62 75.53 19.26 76.64 18.33C76.64 18.33 77.45 17.65 77.47 17.63V17.02C69.77 16.95 69.77 16.42 69.77 15.48C69.77 14.52 69.77 13.98 78.12 13.94C78.65 12.65 79.41 11.42 80.63 11.42C81.85 11.42 82.61 12.66 83.14 13.95C91.48 13.99 91.48 14.53 91.48 15.49C91.48 16.43 91.48 16.96 83.79 17.03V17.58C83.93 17.68 84.05 17.79 84.17 17.9L85.6 19.33C86.04 19.77 86.27 20.35 86.27 20.96V32.01L120.48 33.57C121.72 33.63 122.69 34.64 122.69 35.88V44.34C122.69 45.59 121.76 46.65 120.52 46.81C115.51 47.45 98.46 49.66 89.42 51.19C88.94 51.27 88.46 51.39 87.96 51.56C79.84 54.25 71.71 56.13 69.45 56.63C69.03 58.42 67.68 64.75 65.66 80.21C70.55 81.06 84.48 82.88 84.63 82.9C85.75 83.06 87.62 83.83 87.62 85.7V90.26C87.64 90.5 87.62 90.92 87.29 91.37C86.79 92.07 85.81 92.49 84.32 92.67C81.94 92.94 67.37 94.24 64.48 94.5C64.41 94.5 64.34 94.5 64.27 94.5C63.98 94.5 63.7 94.45 63.44 94.35V99.67C63.46 99.91 63.45 100.53 63.03 101C62.74 101.33 62.31 101.51 61.84 101.51L61.85 101.53Z" fill="white"/>
<path d="M61.85 2C62.15 2 62.46 2.13 62.68 2.38C64.4 4.37 68.2 10.06 68.2 21.64V27.71C68.2 28.4 68.68 29 69.36 29.15L75.67 30.51C75.67 30.51 75.7 30.51 75.71 30.51C75.82 30.51 75.91 30.42 75.91 30.31V22.09C75.91 20.94 76.42 19.85 77.3 19.11L78.06 18.47C78.22 18.34 78.39 18.24 78.57 18.15H78.48V16.05C68.1 16.01 68.21 14.98 78.82 14.96C79.43 13.28 80.03 12.44 80.64 12.44C81.25 12.44 81.85 13.28 82.46 14.96C93.05 14.98 93.16 16.01 82.8 16.05V18.15C83.05 18.27 83.28 18.43 83.48 18.62L84.91 20.05C85.15 20.29 85.29 20.63 85.29 20.97V32.2C85.29 32.63 85.63 32.99 86.06 33.01L120.45 34.58C121.15 34.61 121.71 35.19 121.71 35.9V44.36C121.71 45.11 121.16 45.74 120.42 45.84C115.6 46.46 98.46 48.67 89.28 50.22C88.73 50.31 88.2 50.45 87.68 50.62C78.12 53.79 68.67 55.8 68.67 55.8C68.67 55.8 67.16 61.09 64.59 81.04C68.37 81.8 84.54 83.91 84.54 83.91C84.54 83.91 86.66 84.21 86.66 85.72V90.33C86.66 90.33 86.89 91.39 84.24 91.69C81.92 91.96 67.82 93.21 64.42 93.51C64.38 93.51 64.34 93.51 64.3 93.51C63.88 93.51 63.49 93.31 63.24 92.98L62.48 91.96V99.72C62.48 99.72 62.58 100.53 61.88 100.53C61.18 100.53 61.28 99.72 61.28 99.72V91.96L60.52 92.98C60.27 93.32 59.87 93.51 59.46 93.51C59.42 93.51 59.38 93.51 59.34 93.51C55.94 93.21 41.85 91.95 39.52 91.69C36.88 91.39 37.1 90.33 37.1 90.33V85.72C37.1 84.21 39.22 83.91 39.22 83.91C39.22 83.91 55.39 81.79 59.17 81.04C56.6 61.09 55.09 55.8 55.09 55.8C55.09 55.8 45.64 53.8 36.08 50.62C35.55 50.45 35.02 50.31 34.48 50.22C25.3 48.67 8.16 46.45 3.34 45.84C2.6 45.75 2.05 45.11 2.05 44.36V35.9C2.05 35.2 2.6 34.62 3.31 34.58L37.7 33.01C38.13 32.99 38.47 32.63 38.47 32.2V20.97C38.47 20.62 38.61 20.29 38.85 20.05L40.28 18.62C40.48 18.42 40.71 18.27 40.96 18.15V16.05C30.6 16.01 30.71 14.98 41.3 14.96C41.91 13.28 42.51 12.44 43.12 12.44C43.73 12.44 44.33 13.28 44.94 14.96C55.55 14.98 55.66 16.01 45.28 16.05V18.15H45.19C45.37 18.24 45.54 18.34 45.7 18.47L46.46 19.11C47.34 19.85 47.85 20.94 47.85 22.09V30.31C47.85 30.42 47.94 30.51 48.05 30.51C48.06 30.51 48.08 30.51 48.09 30.51L54.4 29.15C55.08 29 55.56 28.4 55.56 27.71V21.64C55.56 10.06 59.36 4.37 61.08 2.38C61.3 2.13 61.6 2 61.91 2M61.85 0C60.95 0 60.1 0.39 59.51 1.07C58.13 2.66 55.37 6.62 54.13 13.87C53.33 13.31 52.08 13.21 51.07 13.14C49.84 13.05 48.18 12.99 46.23 12.97C45.66 11.79 44.68 10.44 43.07 10.44C41.46 10.44 40.48 11.79 39.91 12.97C37.96 12.99 36.31 13.05 35.08 13.14C33.45 13.26 31.23 13.43 31.22 15.5C31.22 17.56 33.4 17.73 34.99 17.86C35.82 17.93 36.84 17.97 38.03 18.01L37.4 18.64C36.78 19.26 36.43 20.09 36.43 20.98V31.07L3.17 32.59C1.39 32.67 0 34.13 0 35.9V44.36C0 46.11 1.31 47.6 3.04 47.82C8.03 48.46 25.01 50.65 34.1 52.19C34.53 52.26 34.96 52.37 35.41 52.52C42.95 55.02 50.5 56.82 53.4 57.48C53.92 59.8 55.15 66.04 56.9 79.4C51.41 80.29 39.06 81.91 38.92 81.93C37.05 82.2 35.06 83.5 35.06 85.73V90.24C35.02 90.83 35.21 91.46 35.58 91.98C36.26 92.92 37.46 93.48 39.25 93.69C41.54 93.95 55.04 95.16 59.12 95.52C59.16 95.52 59.2 95.52 59.24 95.52V99.66C59.22 100.09 59.26 100.96 59.9 101.69C60.39 102.24 61.08 102.54 61.84 102.54C62.6 102.54 63.3 102.24 63.78 101.69C64.42 100.96 64.47 100.09 64.44 99.66V95.52C64.44 95.52 64.52 95.52 64.56 95.52C68.64 95.16 82.14 93.95 84.43 93.69C86.22 93.48 87.43 92.93 88.1 91.98C88.47 91.46 88.66 90.83 88.62 90.24V85.73C88.62 83.5 86.63 82.2 84.79 81.94C84.63 81.92 72.28 80.3 66.79 79.41C68.55 66.05 69.78 59.81 70.29 57.49C73.19 56.83 80.74 55.03 88.28 52.53C88.73 52.38 89.16 52.27 89.59 52.2C98.68 50.66 115.66 48.47 120.65 47.83C122.38 47.61 123.69 46.12 123.69 44.37V35.91C123.69 34.13 122.3 32.68 120.52 32.6L87.26 31.08V20.99C87.26 20.11 86.92 19.28 86.29 18.65L85.66 18.02C86.85 17.99 87.87 17.94 88.7 17.87C90.29 17.74 92.47 17.57 92.47 15.51C92.47 13.44 90.24 13.27 88.61 13.15C87.38 13.06 85.73 13 83.78 12.98C83.21 11.8 82.23 10.45 80.62 10.45C79.01 10.45 78.03 11.8 77.46 12.98C75.51 13 73.85 13.06 72.62 13.15C71.61 13.23 70.36 13.32 69.56 13.88C68.32 6.64 65.55 2.67 64.18 1.08C63.59 0.4 62.74 0.01 61.84 0.01L61.85 0ZM48.15 18C49.32 17.97 50.34 17.92 51.16 17.85C51.97 17.79 52.93 17.71 53.68 17.38C53.57 18.71 53.5 20.13 53.5 21.63V27.27L49.79 28.07V22.08C49.79 20.54 49.2 19.08 48.14 17.99L48.15 18ZM70.2 27.28V21.64C70.2 20.13 70.14 18.71 70.02 17.39C70.77 17.72 71.73 17.8 72.54 17.86C73.36 17.92 74.38 17.97 75.55 18.01C74.5 19.1 73.9 20.56 73.9 22.1V28.09L70.19 27.29L70.2 27.28Z" fill="#231F20"/>
</g>
<defs>
<clipPath id="clip0_202_7">
<rect width="123.7" height="102.53" fill="white"/>
</clipPath>
</defs>
</svg>
