<svg width="158" height="111" viewBox="0 0 158 111" fill="none" xmlns="http://www.w3.org/2000/svg">
<g clip-path="url(#clip0_445_13)">
<path d="M78.6 109.58C77.67 109.58 77.07 108.71 77.02 107.31C76.35 104.79 75.88 102.06 75.59 100.07C75.44 100.16 75.26 100.21 75.08 100.21C75.06 100.21 75.04 100.21 75.02 100.21C74.83 100.2 56.28 99.03 55.01 98.97C53.36 98.9 52.64 97.45 52.49 96.7C51.38 91.38 51.54 87.8 52.96 86.05C53.65 85.21 54.42 85.04 54.75 85.01C57.21 84.53 69.41 82.12 72.76 81.37C69.89 64.33 69.98 58.3 70.1 56.69L68.52 54.73H53.76C53.76 54.73 53.67 54.73 53.62 54.73C53.13 54.66 4.29003 47.79 3.01003 47.62C2.25003 47.52 1.68003 47.22 1.34003 46.74C1.05003 46.34 0.980029 45.88 1.02003 45.55V40.31C1.02003 37.11 3.29003 36.12 4.49003 36.04L47.22 33L53.81 30.47V21.54C53.81 21.35 53.81 21.16 53.81 20.97H53.51C52.76 20.97 52.16 20.36 52.16 19.62V17.72C52.22 16.89 52.76 15.49 54.29 14.84C53.71 14.87 53.13 14.89 52.56 14.89C50.74 14.89 49.07 14.72 47.6 14.39C46.99 14.26 46.57 13.75 46.57 13.16C46.57 12.57 46.99 12.06 47.6 11.93C49.25 11.56 51.15 11.37 53.26 11.37C54.05 11.37 54.86 11.4 55.67 11.45C56.93 7.81001 57.85 7.03001 58.83 7.03001C60 7.03001 60.89 8.28001 61.93 11.44C62.73 11.39 63.53 11.36 64.32 11.36C66.42 11.36 68.32 11.55 69.97 11.92C70.58 12.06 71 12.56 71 13.15C71 13.74 70.57 14.25 69.97 14.38C68.49 14.71 66.82 14.88 65.01 14.88C64.47 14.88 63.91 14.87 63.36 14.84C64.87 15.49 65.41 16.87 65.47 17.64V19.62C65.47 20.37 64.87 20.97 64.12 20.97H63.67C63.67 21.07 63.67 30.42 63.67 30.42C65.29 29.98 68.07 29.23 69.65 28.79C69.74 18.12 71.7 1.01001 78.62 1.01001C85.54 1.01001 87.5 18.12 87.59 28.79C89.17 29.24 91.95 29.99 93.57 30.42C93.57 30.42 93.57 21.07 93.57 20.97H93.12C92.37 20.97 91.77 20.36 91.77 19.62V17.72C91.83 16.89 92.36 15.49 93.88 14.85C93.32 14.88 92.77 14.89 92.22 14.89C90.4 14.89 88.74 14.72 87.26 14.39C86.65 14.26 86.23 13.75 86.23 13.16C86.23 12.57 86.65 12.06 87.26 11.93C88.91 11.56 90.81 11.37 92.91 11.37C93.7 11.37 94.49 11.4 95.3 11.45C96.34 8.29001 97.24 7.04001 98.4 7.04001C99.38 7.04001 100.3 7.81001 101.56 11.46C102.37 11.41 103.17 11.38 103.97 11.38C106.07 11.38 107.98 11.57 109.63 11.94C110.24 12.08 110.66 12.58 110.66 13.17C110.66 13.76 110.23 14.27 109.63 14.4C108.15 14.73 106.48 14.9 104.67 14.9C104.1 14.9 103.53 14.88 102.95 14.85C104.48 15.5 105.01 16.88 105.07 17.65V19.63C105.07 20.38 104.47 20.98 103.72 20.98H103.42C103.42 21.17 103.42 21.36 103.42 21.55V30.48L110.01 33.01L152.75 36.05C153.95 36.13 156.22 37.12 156.22 40.32V45.56C156.25 45.89 156.18 46.35 155.9 46.75C155.55 47.24 154.99 47.53 154.22 47.63C152.94 47.8 104.11 54.67 103.61 54.74C103.56 54.74 103.52 54.74 103.47 54.74H88.71L87.13 56.7C87.25 58.32 87.34 64.34 84.47 81.38C87.24 82 96.26 83.8 102.48 85.02C102.81 85.05 103.59 85.22 104.27 86.06C105.69 87.81 105.85 91.39 104.74 96.71C104.59 97.46 103.87 98.9 102.22 98.97C100.95 99.03 82.39 100.2 82.21 100.21C82.19 100.21 82.17 100.21 82.15 100.21C81.97 100.21 81.79 100.16 81.64 100.07C81.35 102.06 80.88 104.78 80.21 107.31C80.16 108.71 79.56 109.58 78.63 109.58H78.6Z" fill="white"/>
<path d="M78.6 2C84.09 2 86.58 17.05 86.58 29.54C88.39 30.07 94.56 31.72 94.56 31.72V21.25C94.56 20.19 94.62 19.14 94.75 18.09C94.43 18.25 94.06 18.65 93.99 19.63C93.98 19.82 93.82 19.96 93.64 19.96H93.12C92.93 19.96 92.77 19.8 92.77 19.61V17.71C92.77 17.71 92.92 15.79 95.19 15.52C95.28 15.14 95.37 14.75 95.47 14.37C95.53 14.15 95.59 13.92 95.66 13.69C94.74 13.79 93.55 13.88 92.23 13.88C90.73 13.88 89.08 13.76 87.49 13.41C87.16 13.34 87.16 12.97 87.49 12.9C89.31 12.49 91.25 12.37 92.93 12.37C94.14 12.37 95.22 12.44 96.03 12.5C96.75 10.18 97.63 8.03 98.42 8.03C99.21 8.03 100.12 10.18 100.88 12.5C101.69 12.43 102.77 12.36 103.99 12.36C105.67 12.36 107.6 12.48 109.43 12.89C109.76 12.97 109.76 13.33 109.43 13.4C107.84 13.75 106.18 13.87 104.69 13.87C103.37 13.87 102.18 13.78 101.26 13.68C101.3 13.83 101.35 13.98 101.39 14.13C101.52 14.59 101.64 15.06 101.75 15.52C103.94 15.84 104.09 17.7 104.09 17.7V19.6C104.09 19.79 103.93 19.95 103.74 19.95H103.22C103.03 19.95 102.88 19.8 102.87 19.62C102.81 18.76 102.52 18.35 102.23 18.15C102.37 19.27 102.45 20.39 102.45 21.52V31.14L109.82 33.97L152.71 37.02C152.71 37.02 155.25 37.19 155.25 40.29V45.59C155.25 45.59 155.42 46.44 154.12 46.61C152.82 46.78 103.5 53.72 103.5 53.72H88.26L86.12 56.37C86.12 56.37 86.97 60.94 83.35 82.1C84.25 82.44 102.37 85.99 102.37 85.99C102.44 85.99 105.96 86.05 103.78 96.49C103.78 96.49 103.5 97.9 102.2 97.96C100.9 98.02 82.17 99.2 82.17 99.2L81.04 97.06C81.04 97.06 80.48 102.53 79.23 107.16C79.23 107.16 79.21 108.57 78.65 108.57C78.09 108.57 78.07 107.16 78.07 107.16C76.83 102.53 76.26 97.06 76.26 97.06L75.13 99.2C75.13 99.2 56.4 98.02 55.1 97.96C53.8 97.9 53.52 96.49 53.52 96.49C51.34 86.05 54.85 85.99 54.93 85.99C54.93 85.99 73.04 82.44 73.95 82.1C70.34 60.94 71.18 56.37 71.18 56.37L69.04 53.72H53.8C53.8 53.72 4.43001 46.8 3.13001 46.63C1.83001 46.46 2.00001 45.61 2.00001 45.61V40.31C2.00001 37.21 4.54001 37.04 4.54001 37.04L47.43 33.99L54.8 31.16V21.54C54.8 20.41 54.88 19.29 55.02 18.17C54.73 18.37 54.44 18.78 54.38 19.64C54.37 19.83 54.21 19.97 54.03 19.97H53.51C53.32 19.97 53.16 19.81 53.16 19.62V17.72C53.16 17.72 53.31 15.86 55.5 15.54C55.61 15.07 55.72 14.61 55.86 14.15C55.9 14 55.95 13.85 55.99 13.7C55.07 13.8 53.88 13.89 52.56 13.89C51.06 13.89 49.41 13.77 47.82 13.42C47.49 13.35 47.49 12.98 47.82 12.91C49.64 12.5 51.58 12.38 53.26 12.38C54.48 12.38 55.56 12.45 56.37 12.52C57.12 10.2 58.03 8.05 58.83 8.05C59.63 8.05 60.51 10.2 61.22 12.52C62.03 12.45 63.1 12.39 64.32 12.39C66 12.39 67.93 12.51 69.76 12.92C70.09 13 70.09 13.36 69.76 13.43C68.17 13.78 66.51 13.9 65.02 13.9C63.7 13.9 62.5 13.81 61.59 13.71C61.65 13.94 61.72 14.17 61.78 14.39C61.88 14.77 61.97 15.15 62.06 15.54C64.33 15.82 64.48 17.73 64.48 17.73V19.63C64.48 19.82 64.32 19.98 64.13 19.98H63.61C63.42 19.98 63.27 19.83 63.26 19.65C63.19 18.67 62.82 18.27 62.5 18.11C62.62 19.16 62.69 20.21 62.69 21.27V31.74C62.69 31.74 68.86 30.08 70.67 29.56C70.67 17.07 73.15 2.02 78.65 2.02M78.6 0C74.36 0 71.92 5.08 70.52 11.04C70.41 11 70.3 10.96 70.18 10.94C68.46 10.55 66.48 10.36 64.3 10.36C63.74 10.36 63.18 10.37 62.62 10.4C61.65 7.66 60.58 6.03 58.81 6.03C57.04 6.03 55.97 7.67 54.96 10.41C54.39 10.38 53.81 10.37 53.25 10.37C51.07 10.37 49.1 10.57 47.37 10.95C46.3 11.19 45.56 12.1 45.56 13.16C45.56 14.22 46.31 15.13 47.38 15.37C48.69 15.66 50.14 15.83 51.71 15.88C51.37 16.5 51.21 17.11 51.17 17.56C51.17 17.61 51.17 17.67 51.17 17.72V19.62C51.17 20.67 51.86 21.56 52.82 21.86V29.79L47.01 32.02L4.42001 35.05C2.64001 35.16 1.28872e-05 36.66 1.28872e-05 40.31V45.52C-0.0299871 45.93 0.0200129 46.63 0.510013 47.32C0.870013 47.82 1.56001 48.44 2.87001 48.61C4.14001 48.78 52.97 55.65 53.47 55.72C53.56 55.73 53.66 55.74 53.75 55.74H68.03L69.07 57.02C68.96 59.2 69.09 65.38 71.61 80.6C68.1 81.35 60 82.97 54.6 84.03C54.06 84.09 53.05 84.35 52.18 85.43C50.54 87.45 50.32 91.21 51.51 96.92C51.79 98.32 52.99 99.89 54.96 99.98C56.15 100.03 72.69 101.08 74.75 101.21C75.04 103.06 75.46 105.34 76.03 107.48C76.16 109.77 77.48 110.6 78.6 110.6C79.72 110.6 81.05 109.78 81.17 107.48C81.73 105.34 82.15 103.07 82.45 101.21C84.5 101.08 101.04 100.04 102.24 99.98C104.21 99.89 105.41 98.33 105.69 96.91C106.88 91.21 106.66 87.46 105.02 85.44C104.14 84.36 103.13 84.1 102.6 84.04C97.2 82.98 89.1 81.36 85.59 80.61C88.12 65.39 88.24 59.21 88.13 57.03L89.17 55.75H103.45C103.54 55.75 103.64 55.75 103.73 55.73C104.22 55.66 153.05 48.79 154.33 48.62C155.64 48.45 156.33 47.82 156.69 47.33C157.18 46.65 157.23 45.95 157.2 45.53V40.32C157.2 36.67 154.56 35.17 152.79 35.05L110.21 32.02L104.4 29.79V21.86C105.35 21.56 106.05 20.67 106.05 19.62V17.72C106.05 17.67 106.05 17.61 106.05 17.56C106.01 17.11 105.85 16.49 105.51 15.88C107.07 15.83 108.52 15.66 109.84 15.37C110.91 15.13 111.65 14.22 111.66 13.16C111.66 12.1 110.92 11.19 109.85 10.95C108.13 10.56 106.15 10.37 103.97 10.37C103.4 10.37 102.83 10.38 102.26 10.41C101.25 7.67 100.16 6.03 98.41 6.03C96.66 6.03 95.58 7.67 94.6 10.4C94.04 10.37 93.47 10.36 92.92 10.36C90.74 10.36 88.77 10.56 87.04 10.94C86.92 10.97 86.81 11 86.7 11.04C85.3 5.08 82.86 0 78.62 0H78.6ZM88.56 28.02C88.51 25.46 88.31 20.5 87.53 15.46C88.69 15.69 89.95 15.82 91.3 15.86C90.96 16.48 90.8 17.09 90.76 17.55C90.76 17.6 90.76 17.65 90.76 17.71V19.61C90.76 20.72 91.53 21.65 92.56 21.9V29.11C91.28 28.76 89.75 28.35 88.57 28.02H88.56ZM65.9 15.86C67.24 15.82 68.51 15.68 69.67 15.46C68.9 20.5 68.69 25.45 68.64 28.02C67.46 28.35 65.93 28.76 64.65 29.11V21.9C65.68 21.65 66.45 20.72 66.45 19.61V17.71C66.45 17.66 66.45 17.61 66.45 17.55C66.41 17.1 66.26 16.48 65.91 15.86H65.9Z" fill="black"/>
</g>
<defs>
<clipPath id="clip0_445_13">
<rect width="157.2" height="110.58" fill="white"/>
</clipPath>
</defs>
</svg>
