<svg width="154" height="103" viewBox="0 0 154 103" fill="none" xmlns="http://www.w3.org/2000/svg">
<g clip-path="url(#clip0_425_2)">
<path d="M54.7003 102C54.1503 102 53.7003 101.55 53.7003 101V90.35C53.7003 87.55 55.8303 86.2999 57.9303 86.2999C57.9503 86.2999 72.7703 86.2999 72.7703 86.2999C71.2103 74.0799 69.9803 56.08 69.7403 52.39H3.42028C2.32028 52.39 1.57028 52.06 1.21028 51.42C0.870281 50.82 1.00028 50.14 1.23028 49.7C1.53028 48.87 4.37028 41.18 6.55028 36.58C8.91028 31.6 12.7303 31.35 13.4703 31.35C13.4903 31.35 54.9103 31.35 54.9103 31.35V29.64C54.9103 28.6 55.2603 27.87 55.7903 27.4C49.4303 27.12 49.4303 26.91 49.4303 25.9C49.4303 24.77 49.4303 24.63 58.3903 24.29C58.6903 23.6 59.2303 22.76 60.1603 22.76C61.0403 22.76 61.6003 23.49 62.0003 24.29C67.1403 24.49 69.1403 24.62 69.9103 24.95V14.25C69.9103 8.50995 73.6703 1.44995 76.7203 1.44995C79.7703 1.44995 83.5303 8.50995 83.5303 14.25V24.95C84.3003 24.62 86.2903 24.49 91.4403 24.29C91.8403 23.49 92.4003 22.76 93.2803 22.76C94.2103 22.76 94.7503 23.6 95.0503 24.29C104.01 24.63 104.01 24.77 104.01 25.9C104.01 26.91 104.01 27.13 97.6503 27.4C98.1703 27.86 98.5303 28.6 98.5303 29.64V31.35H139.91C140.73 31.35 144.53 31.61 146.88 36.58C149.06 41.18 151.89 48.88 152.2 49.7C152.43 50.15 152.56 50.82 152.22 51.42C151.86 52.06 151.11 52.39 150.01 52.39H83.7003C83.4503 56.09 82.2203 74.1 80.7003 86.34L95.4303 86.31C97.6103 86.31 99.7403 87.5599 99.7403 90.3599V101.01C99.7403 101.56 99.2903 102.01 98.7403 102.01H54.7403L54.7003 102ZM87.6103 30.99C87.6803 30.25 87.8303 29.21 88.1703 28.26C88.2403 27.97 88.4103 27.63 88.7403 27.35C85.5503 27.19 84.1403 27.05 83.5203 26.78V30.98H87.6203L87.6103 30.99ZM69.8903 30.99V26.79C69.2703 27.05 67.8603 27.19 64.6703 27.36C65.0003 27.64 65.1703 27.98 65.2403 28.27C65.5803 29.21 65.7303 30.25 65.8003 31H69.9003L69.8903 30.99Z" fill="white"/>
<path d="M76.7 2.43994C78.91 2.43994 82.51 8.67994 82.51 14.2399V31.9899H88.55C88.55 31.9899 88.55 30.0699 89.13 28.5399C89.13 28.5399 89.21 27.7799 90.56 27.7799H91.27C91.4 27.2999 91.52 26.8799 91.65 26.4899C80.78 26.0099 82.09 25.6399 92.08 25.2599C92.49 24.2499 92.89 23.7499 93.26 23.7499C93.64 23.7499 93.99 24.2499 94.33 25.2499C106.75 25.7099 104.87 26.1199 94.68 26.4999C94.77 26.8899 94.86 27.2999 94.95 27.7699H95.83C95.83 27.7699 95.88 27.7699 95.96 27.7699C96.36 27.7699 97.51 27.9199 97.51 29.6199V32.3299H139.88C139.88 32.3299 139.9 32.3299 139.94 32.3299C140.44 32.3299 143.83 32.4999 145.95 36.9899C148.25 41.8499 151.26 50.0999 151.26 50.0999C151.26 50.0999 152.03 51.3799 149.98 51.3799H83.59C83.1 51.3799 82.7 51.7499 82.67 52.2399C82.4 56.3099 81.18 74.0099 79.67 86.2099C79.6 86.7899 80.05 87.2999 80.63 87.2999H95.39C95.39 87.2999 95.42 87.2999 95.47 87.2999C95.97 87.2999 98.7 87.4299 98.7 90.3599V101.01H54.7V90.3599C54.7 87.4399 57.44 87.2999 57.93 87.2999C57.98 87.2999 58.01 87.2999 58.01 87.2999H72.77C73.35 87.2999 73.8 86.7899 73.73 86.2099C72.21 74.0199 71 56.3199 70.73 52.2399C70.7 51.7599 70.3 51.3799 69.81 51.3799H3.42003C1.37003 51.3799 2.14003 50.0999 2.14003 50.0999C2.14003 50.0999 5.15003 41.8499 7.45003 36.9899C9.58003 32.4999 12.96 32.3299 13.46 32.3299C13.5 32.3299 13.52 32.3299 13.52 32.3299H55.89V29.6199C55.89 27.9099 57.04 27.7699 57.44 27.7699C57.52 27.7699 57.57 27.7699 57.57 27.7699H58.45C58.54 27.2999 58.63 26.8799 58.72 26.4999C48.53 26.1199 46.65 25.7099 59.07 25.2499C59.41 24.2499 59.76 23.7499 60.14 23.7499C60.51 23.7499 60.91 24.2499 61.32 25.2599C71.32 25.6399 72.63 26.0099 61.75 26.4899C61.87 26.8799 62 27.2999 62.13 27.7799H62.84C64.18 27.7799 64.27 28.5399 64.27 28.5399C64.85 30.0699 64.85 31.9899 64.85 31.9899H70.89V14.2399C70.89 8.67994 74.5 2.43994 76.7 2.43994ZM76.7 0.439941C72.75 0.439941 68.89 8.33994 68.89 14.2399V23.6899C68.43 23.6299 67.95 23.5899 67.45 23.5499C66.3 23.4699 64.7 23.3799 62.59 23.2999C62.11 22.5299 61.34 21.7499 60.15 21.7399C58.95 21.7399 58.21 22.5199 57.76 23.2899C55.42 23.3799 53.6 23.4799 52.36 23.5699C50.34 23.7199 48.43 23.8599 48.43 25.8699C48.43 27.8899 50.39 28.0299 52.47 28.1799C52.94 28.2099 53.48 28.2499 54.09 28.2799C53.98 28.6599 53.91 29.0999 53.91 29.6099V30.3199H13.56C13.56 30.3199 13.5 30.3199 13.46 30.3199C12.61 30.3199 8.26003 30.5999 5.64003 36.1299C3.45003 40.7399 0.710027 48.1799 0.310027 49.2799C-0.0299735 49.9799 -0.179973 50.9799 0.340027 51.8899C0.720027 52.5599 1.57003 53.3699 3.42003 53.3699H68.8C69.14 58.3599 70.25 73.9099 71.61 85.2799H58.05C58.05 85.2799 57.99 85.2799 57.94 85.2799C55.42 85.2799 52.71 86.8599 52.71 90.3399V100.99C52.71 102.09 53.61 102.99 54.71 102.99H98.71C99.81 102.99 100.71 102.09 100.71 100.99V90.3399C100.71 86.8699 98 85.2799 95.48 85.2799C95.44 85.2799 95.4 85.2799 95.37 85.2799H81.81C83.17 73.9099 84.28 58.3599 84.62 53.3699H150C151.86 53.3699 152.7 52.5699 153.08 51.8899C153.6 50.9699 153.45 49.9799 153.11 49.2799C152.7 48.1699 149.96 40.7399 147.78 36.1299C145.16 30.5999 140.81 30.3199 139.96 30.3199C139.92 30.3199 139.89 30.3199 139.86 30.3199H99.52V29.6099C99.52 29.1199 99.46 28.6799 99.34 28.2799C99.95 28.2499 100.49 28.2099 100.97 28.1799C103.05 28.0299 105.01 27.8899 105.01 25.8699C105.01 23.8599 103.1 23.7199 101.08 23.5699C99.83 23.4799 98.02 23.3799 95.68 23.2899C95.23 22.5199 94.49 21.7399 93.29 21.7399C92.1 21.7399 91.33 22.5199 90.85 23.2999C88.73 23.3899 87.14 23.4699 85.99 23.5499C85.49 23.5899 85.01 23.6199 84.55 23.6899V14.2399C84.55 8.33994 80.69 0.439941 76.74 0.439941L76.7 0.439941ZM84.51 29.9899V28.0299C84.91 28.0899 85.31 28.1199 85.71 28.1499C86.12 28.1799 86.58 28.2199 87.11 28.2499C86.92 28.8399 86.8 29.4399 86.72 29.9799H84.51V29.9899ZM66.29 28.2499C66.82 28.2199 67.28 28.1799 67.69 28.1499C68.09 28.1199 68.5 28.0799 68.89 28.0299V29.9899H66.68C66.6 29.4499 66.47 28.8499 66.29 28.2599V28.2499Z" fill="black"/>
</g>
<defs>
<clipPath id="clip0_425_2">
<rect width="153.4" height="102.56" fill="white" transform="translate(0 0.439941)"/>
</clipPath>
</defs>
</svg>
