<svg width="87" height="63" viewBox="0 0 87 63" fill="none" xmlns="http://www.w3.org/2000/svg">
<g clip-path="url(#clip0_567_53)">
<path d="M30.2602 61.0598C29.6802 61.0598 28.9202 60.6598 28.6602 59.5298C28.5502 58.8798 27.8002 53.7398 30.0202 53.1898C32.2002 52.6898 38.6802 51.9398 41.2202 51.6498C40.7702 48.7698 38.3002 32.7998 38.1802 31.9198C38.1602 31.8398 37.9802 31.5198 37.3602 31.0398C37.1502 30.8698 36.8902 30.7898 36.6202 30.7898H34.8102C34.2702 30.7898 33.7302 30.7698 33.2002 30.7198C22.7202 29.8098 4.76023 28.2798 3.95023 28.2598H3.94023C3.53023 28.2598 2.78023 28.2598 2.29023 27.6498C1.81023 27.0498 1.90023 26.2398 2.04023 25.6098C2.73023 21.2298 3.64023 18.5998 4.13023 17.4198C4.42023 16.7098 5.11023 16.2398 5.87023 16.2198L37.6302 15.3498C37.8702 14.4498 38.0602 13.0398 38.2502 11.6698C38.4302 10.3798 38.6102 9.04976 38.8502 7.98977C39.0602 7.04977 39.3502 6.34977 39.6402 5.81977C36.5102 5.76977 35.8202 5.47977 35.8202 4.48977C35.8202 3.54977 36.0602 3.10977 41.7702 3.00977C42.1102 2.10977 42.7802 1.00977 43.5902 1.00977C44.4002 1.00977 45.0602 2.10977 45.4102 3.00977C51.1102 3.09977 51.3602 3.53977 51.3602 4.48977C51.3602 5.47977 50.6702 5.76977 47.5402 5.81977C47.8402 6.34977 48.1202 7.04977 48.3302 7.98977C48.5702 9.04976 48.7502 10.3798 48.9302 11.6698C49.1202 13.0398 49.3102 14.4498 49.5502 15.3498L81.3102 16.2198C82.0702 16.2398 82.7602 16.7098 83.0502 17.4198C83.5302 18.5998 84.4502 21.2398 85.1502 25.6698C85.2802 26.2498 85.3702 27.0598 84.8902 27.6598C84.4002 28.2698 83.6302 28.2698 83.2202 28.2698C82.4202 28.2898 64.4702 29.8298 53.9802 30.7298C53.4502 30.7798 52.9102 30.7998 52.3702 30.7998H50.5602C50.2902 30.7998 50.0402 30.8898 49.8202 31.0498C49.2002 31.5298 49.0102 31.8498 49.0002 31.9298C48.8802 32.7998 46.4002 48.7698 45.9602 51.6598C48.4902 51.9398 54.9802 52.6998 57.1402 53.1898C59.3802 53.7498 58.6302 58.8798 58.5302 59.4698C58.2502 60.6698 57.4902 61.0698 56.9202 61.0698H30.2902L30.2602 61.0598Z" fill="white"/>
<path d="M43.5702 2C43.8102 2 44.6301 3.46 44.6301 3.99C51.8302 4.07 52.0602 4.82 46.1402 4.82C45.9002 4.82 45.6502 4.82 45.3902 4.82C45.8002 5.31 46.7902 5.84 47.3202 8.21C47.8502 10.57 48.1101 14.47 48.7001 16.1L49.1702 16.34L81.2502 17.22C81.6202 17.23 81.9501 17.46 82.0901 17.8C82.5201 18.85 83.4301 21.42 84.1201 25.82C84.4101 27.16 83.9602 27.26 83.1802 27.26C82.4702 27.26 58.4601 29.33 53.8601 29.73C53.3502 29.77 52.8501 29.8 52.3401 29.8H50.5302C50.0401 29.8 49.5701 29.96 49.1801 30.26C48.6801 30.65 48.0602 31.23 47.9802 31.79C47.8602 32.65 45.3902 48.58 44.8702 51.93C44.8202 52.26 45.0502 52.57 45.3902 52.61C47.5302 52.85 54.6502 53.66 56.8702 54.17C57.6102 54.35 57.9202 56.69 57.5002 59.32C57.3302 60.06 56.9202 60.08 56.8801 60.08H30.2402C30.2402 60.08 29.7902 60.06 29.6202 59.32C29.2002 56.7 29.5102 54.36 30.2502 54.17C32.4701 53.66 39.5902 52.85 41.7302 52.61C42.0702 52.57 42.3002 52.26 42.2502 51.93C41.7302 48.59 39.2702 32.66 39.1402 31.79C39.0602 31.23 38.4402 30.65 37.9402 30.26C37.5502 29.96 37.0802 29.8 36.5901 29.8H34.7802C34.2702 29.8 33.7701 29.78 33.2602 29.73C28.6602 29.33 4.65015 27.26 3.94015 27.26C3.15015 27.26 2.71015 27.16 3.00015 25.82C3.69015 21.42 4.60015 18.85 5.03015 17.8C5.17015 17.46 5.50015 17.23 5.87015 17.22L37.9501 16.34L38.4202 16.1C39.0102 14.47 39.2702 10.57 39.8002 8.21C40.3302 5.85 41.3202 5.32 41.7302 4.82C41.4702 4.82 41.2202 4.82 40.9802 4.82C35.0602 4.82 35.2901 4.07 42.4902 3.99C42.4902 3.46 43.3202 2 43.5502 2M43.5702 0C42.4102 0 41.5901 1 41.0901 2.01C39.8701 2.04 38.8201 2.1 38.0201 2.17C36.8901 2.28 34.7902 2.48 34.8002 4.48C34.8002 6.15 36.0602 6.62 38.1301 6.76C38.0302 7.06 37.9402 7.4 37.8601 7.76C37.6101 8.86 37.4302 10.21 37.2502 11.52C37.1202 12.49 36.9702 13.54 36.8202 14.36L5.84015 15.21C4.68015 15.24 3.64015 15.96 3.20015 17.03C2.70015 18.24 1.77015 20.94 1.05015 25.44C0.94015 25.98 0.70015 27.25 1.51015 28.27C2.30015 29.25 3.46015 29.25 3.96015 29.25C4.83015 29.28 20.2101 30.6 33.1101 31.71C33.6702 31.76 34.2402 31.78 34.8002 31.78H36.6101C36.6101 31.78 36.7001 31.8 36.7402 31.82C37.0001 32.02 37.1502 32.17 37.2102 32.25C37.4902 34.09 39.3202 45.96 40.0702 50.76C36.8802 51.12 31.7502 51.75 29.8202 52.19C26.8402 52.94 27.4202 58.05 27.6602 59.6C27.6602 59.65 27.6802 59.69 27.6902 59.74C28.0602 61.33 29.2502 62.05 30.2602 62.05H56.9002C57.9101 62.05 59.1002 61.34 59.4701 59.74C59.4801 59.69 59.4902 59.65 59.5002 59.6C59.7502 58.05 60.3302 52.94 57.3801 52.2C55.4202 51.75 50.2801 51.12 47.0901 50.76C47.9202 45.43 49.6801 34.05 49.9501 32.25C50.0201 32.17 50.1602 32.02 50.4202 31.82C50.4602 31.79 50.5002 31.78 50.5502 31.78H52.3601C52.9202 31.78 53.4902 31.76 54.0502 31.71C66.9501 30.6 82.3301 29.28 83.2402 29.25C83.2502 29.25 83.2601 29.25 83.2701 29.25C83.7502 29.25 84.8702 29.23 85.6402 28.27C86.4602 27.26 86.2202 25.98 86.1002 25.44C85.3902 20.94 84.4501 18.24 83.9501 17.03C83.5101 15.96 82.4702 15.24 81.3102 15.21L50.3302 14.36C50.1702 13.54 50.0302 12.49 49.9002 11.52C49.7201 10.21 49.5401 8.86 49.2901 7.76C49.2101 7.4 49.1201 7.07 49.0201 6.76C51.0901 6.62 52.3402 6.14 52.3502 4.48C52.3601 2.48 50.2602 2.28 49.1301 2.17C48.3302 2.09 47.2901 2.04 46.0602 2.01C45.5602 0.99 44.7402 0 43.5802 0L43.5702 0Z" fill="black"/>
</g>
<defs>
<clipPath id="clip0_567_53">
<rect width="85.3" height="62.06" fill="white" transform="translate(0.920166)"/>
</clipPath>
</defs>
</svg>
