<svg width="98" height="127" viewBox="0 0 98 127" fill="none" xmlns="http://www.w3.org/2000/svg">
<g clip-path="url(#clip0_563_33)">
<path d="M72.71 125.935C72.42 125.935 72.14 125.875 71.88 125.755L59.45 120.135C59.25 120.045 59.04 119.995 58.82 119.995H54.12L54.1 120.175C54.05 120.915 53.43 121.715 52.36 121.715H45.25C44.18 121.715 43.57 120.925 43.51 120.135L43.49 119.995H38.79C38.57 119.995 38.36 120.045 38.16 120.135L25.73 125.755C25.47 125.875 25.19 125.935 24.9 125.935C24.53 125.935 24.16 125.835 23.85 125.635L22.25 124.665C21.65 124.295 21.28 123.635 21.28 122.935V117.695C21.28 117.165 21.49 116.655 21.86 116.275L33.79 104.135C34.11 103.805 34.35 103.395 34.46 102.945L36.77 93.9247L3.27004 92.7047C2.41004 92.6747 1.73004 91.9747 1.73004 91.1047V85.1347C1.60004 84.8147 1.36004 84.1747 1.25004 83.7247C1.11004 83.1347 1.29004 82.6447 1.62004 82.3047V81.6047C1.62004 80.9447 2.01004 80.3447 2.61004 80.0747C5.36004 78.8547 18.62 70.9747 21.25 69.4147C21.41 69.3247 21.67 69.2547 21.85 69.2547C22.34 69.2547 22.76 69.5547 22.93 69.9847L34.22 64.1047C35.18 55.7947 38.01 48.1447 42 43.1047C42.02 43.0847 42.04 43.0447 42.04 42.9947V36.9047C42.33 23.5147 43.59 1.07471 48.8 1.07471C54.01 1.07471 55.27 23.5047 55.56 36.8847V42.9947C55.56 42.9947 55.58 43.0847 55.6 43.1047C59.59 48.1447 62.43 55.7947 63.38 64.1047L74.67 69.9847C74.84 69.5547 75.26 69.2547 75.75 69.2547C75.93 69.2547 76.19 69.3247 76.35 69.4247C78.98 70.9947 92.24 78.8647 94.99 80.0847C95.59 80.3547 95.98 80.9547 95.98 81.6147V82.3147C96.31 82.6547 96.49 83.1547 96.35 83.7347C96.24 84.1847 96 84.8247 95.87 85.1447V91.1147C95.87 91.9747 95.19 92.6847 94.33 92.7147L60.83 93.9347L63.14 102.955C63.26 103.405 63.49 103.815 63.81 104.145L75.74 116.285C76.11 116.665 76.32 117.165 76.32 117.705V122.945C76.32 123.645 75.95 124.305 75.35 124.675L73.75 125.645C73.43 125.835 73.07 125.935 72.7 125.935H72.71Z" fill="white"/>
<path d="M48.8096 2.06494C50.7596 2.06494 53.9796 9.32494 54.5696 36.8949V42.9849C54.5696 43.2549 54.6596 43.5049 54.8296 43.7149C58.2296 48.0049 61.3896 55.1849 62.4196 64.3649C62.4496 64.5949 62.5896 64.8049 62.7896 64.9149L75.3996 71.4849C75.3996 71.4849 75.4396 71.5049 75.4596 71.5049C75.5296 71.5049 75.5896 71.4449 75.5896 71.3749V70.4249C75.5896 70.3249 75.6696 70.2549 75.7496 70.2549C75.7796 70.2549 75.8096 70.2549 75.8296 70.2749C77.8596 71.4849 91.7096 79.7149 94.5796 80.9949C94.8196 81.1049 94.9796 81.3449 94.9796 81.6149V82.8449C94.9796 82.8449 95.4996 82.9849 95.3696 83.5049C95.2396 84.0249 94.8596 84.9549 94.8596 84.9549V91.1249C94.8596 91.4449 94.6096 91.7149 94.2796 91.7249L60.2996 92.9649C59.9096 92.9749 59.6296 93.3549 59.7296 93.7349L62.1596 103.215C62.3196 103.835 62.6396 104.405 63.0896 104.855L75.0196 116.995C75.2096 117.185 75.3096 117.445 75.3096 117.715V122.955C75.3096 123.315 75.1196 123.645 74.8196 123.825L73.2196 124.795C73.0596 124.895 72.8696 124.945 72.6896 124.945C72.5496 124.945 72.3996 124.915 72.2696 124.855L59.8396 119.235C59.5096 119.085 59.1596 119.015 58.7996 119.015H53.9896C53.7896 119.015 53.6196 118.855 53.6196 118.645V115.355L53.0896 120.085C53.0896 120.085 53.0396 120.735 52.3496 120.735H45.2396C44.5396 120.735 44.4996 120.085 44.4996 120.085L43.9696 115.355V118.645C43.9696 118.845 43.8096 119.015 43.5996 119.015H38.7896C38.4296 119.015 38.0796 119.095 37.7496 119.235L25.3196 124.855C25.1896 124.915 25.0396 124.945 24.8996 124.945C24.7196 124.945 24.5296 124.895 24.3696 124.795L22.7696 123.825C22.4696 123.635 22.2796 123.305 22.2796 122.955V117.715C22.2796 117.445 22.3896 117.185 22.5696 116.995L34.4996 104.855C34.9496 104.395 35.2696 103.835 35.4296 103.215L37.8596 93.7349C37.9596 93.3549 37.6796 92.9849 37.2896 92.9649L3.30962 91.7249C2.98962 91.7149 2.72962 91.4449 2.72962 91.1249V84.9549C2.72962 84.9549 2.34962 84.0249 2.21962 83.5049C2.08962 82.9849 2.60962 82.8449 2.60962 82.8449V81.6149C2.60962 81.3449 2.76962 81.1049 3.00962 80.9949C5.87962 79.7249 19.7296 71.4849 21.7596 70.2749C21.7896 70.2549 21.8196 70.2549 21.8396 70.2549C21.9296 70.2549 21.9996 70.3249 21.9996 70.4249V71.3749C21.9996 71.4549 22.0596 71.5049 22.1296 71.5049C22.1496 71.5049 22.1696 71.5049 22.1896 71.4849L34.7996 64.9149C35.0096 64.8049 35.1496 64.5949 35.1696 64.3649C36.1996 55.1849 39.3596 48.0149 42.7596 43.7149C42.9296 43.5049 43.0196 43.2449 43.0196 42.9849V36.8949C43.6096 9.33494 46.8296 2.06494 48.7796 2.06494M48.8096 0.0649414C46.3896 0.0649414 44.7396 2.73494 43.4696 8.72494C42.1296 14.9849 41.3196 24.4549 41.0496 36.8549V42.6949C37.1196 47.7749 34.3096 55.2849 33.2896 63.4549L23.1896 68.7149C22.8196 68.4249 22.3596 68.2449 21.8496 68.2449C21.4596 68.2449 21.0796 68.3549 20.7396 68.5549C14.9196 72.0249 4.46962 78.1549 2.19962 79.1649C1.23962 79.5949 0.609619 80.5549 0.609619 81.6149V81.9749C0.249619 82.5149 0.0896186 83.2049 0.269619 83.9749C0.369619 84.4049 0.579619 84.9549 0.719619 85.3349V91.1149C0.719619 92.5149 1.81962 93.6649 3.21962 93.7149L35.4796 94.8849L33.4796 102.705C33.4096 102.985 33.2596 103.235 33.0596 103.445L21.1296 115.585C20.5696 116.155 20.2596 116.905 20.2596 117.705V122.945C20.2596 123.995 20.8196 124.985 21.7096 125.525L23.3096 126.495C23.7796 126.785 24.3296 126.935 24.8796 126.935C25.3096 126.935 25.7296 126.845 26.1296 126.665L38.5596 121.045C38.6296 121.015 38.6996 120.995 38.7796 120.995H42.6796C43.0496 121.925 43.9296 122.705 45.2296 122.705H52.3396C53.6396 122.705 54.5296 121.915 54.8896 120.995H58.7896C58.8596 120.995 58.9396 121.015 59.0096 121.045L71.4396 126.665C71.8296 126.845 72.2496 126.935 72.6896 126.935C73.2396 126.935 73.7896 126.785 74.2596 126.495L75.8596 125.525C76.7496 124.975 77.3096 123.995 77.3096 122.945V117.705C77.3096 116.905 76.9996 116.155 76.4396 115.585L64.5096 103.445C64.3096 103.245 64.1596 102.985 64.0896 102.705L62.0896 94.8849L94.3496 93.7149C95.7496 93.6649 96.8496 92.5249 96.8496 91.1149V85.3349C96.9896 84.9649 97.1996 84.4049 97.2996 83.9749C97.4896 83.2049 97.3196 82.5149 96.9596 81.9749V81.6149C96.9596 80.5549 96.3396 79.5949 95.3696 79.1649C93.1096 78.1649 82.6496 72.0249 76.8296 68.5549C76.4996 68.3549 76.1096 68.2449 75.7196 68.2449C75.2296 68.2449 74.7596 68.4049 74.3796 68.7149L64.2796 63.4549C63.2596 55.2849 60.4596 47.7749 56.5196 42.6949V36.8949C56.2496 24.4549 55.4396 14.9949 54.0996 8.72494C52.8196 2.73494 51.1696 0.0649414 48.7596 0.0649414L48.8096 0.0649414Z" fill="black"/>
</g>
<defs>
<clipPath id="clip0_563_33">
<rect width="97.2" height="126.87" fill="white" transform="translate(0.209961 0.0649414)"/>
</clipPath>
</defs>
</svg>
