<svg width="409" height="356" viewBox="0 0 409 356" fill="none" xmlns="http://www.w3.org/2000/svg">
<g clip-path="url(#clip0_108_35)">
<path d="M199.21 6.79011C198.69 7.66011 198.32 8.60011 198.09 9.58011C197.62 11.5901 195.98 17.1601 190.87 25.2901C184.37 35.6301 183.53 53.1501 183.53 53.1501L183.11 118.9C183.11 118.9 179.98 124 179.98 131.53V143.57H159.89V132.52C159.89 130.36 159.67 128.2 159.21 126.09C158.88 124.58 158.45 122.75 157.94 120.98C161.46 121.04 170.92 121.08 170.92 119.8C170.92 118.4 159.65 118.46 157.14 118.49C156.23 115.94 155.14 113.96 153.98 113.96C152.82 113.96 151.82 115.92 150.93 118.5C150.93 118.5 136.65 118.23 136.65 119.8C136.65 121.15 147.2 121.03 150.16 120.97C149.51 123.28 148.98 125.72 148.6 127.59C148.21 129.55 148.02 131.54 148.02 133.54V143.56H131.65L107.48 144.55V132.52C107.48 130.36 107.26 128.2 106.8 126.09C106.47 124.58 106.04 122.75 105.53 120.98C109.05 121.04 118.51 121.08 118.51 119.8C118.51 118.4 107.24 118.46 104.73 118.49C103.82 115.94 102.73 113.96 101.57 113.96C100.41 113.96 99.4103 115.92 98.5203 118.5C98.5203 118.5 84.2403 118.23 84.2403 119.8C84.2403 121.15 94.7903 121.03 97.7503 120.97C97.1003 123.28 96.5703 125.72 96.1903 127.59C95.8003 129.55 95.6103 131.54 95.6103 133.54V145.03L7.29031 148.63C7.29031 148.63 1.43031 147.99 3.20031 160.99C4.97031 173.99 5.56031 176.62 5.56031 176.62L147.44 194.96H182.29V270.18C182.29 270.18 183.87 288.89 186.03 296.37C180.91 297.55 130.5 308.97 130.5 308.97C130.5 308.97 123.02 309.56 123.02 318.62V325.46C123.02 325.46 122.97 328.78 129.91 329.74C136.85 330.7 196 339.51 196 339.51C196 339.51 198.36 353.39 204.86 353.39C211.36 353.39 213.72 339.51 213.72 339.51C213.72 339.51 272.87 330.7 279.81 329.74C286.75 328.78 286.7 325.46 286.7 325.46V318.62C286.7 309.56 279.22 308.97 279.22 308.97C279.22 308.97 228.81 297.55 223.69 296.37C225.86 288.89 227.43 270.18 227.43 270.18V194.96H262.28L404.16 176.62C404.16 176.62 404.75 173.99 406.52 160.99C408.29 147.99 402.43 148.63 402.43 148.63L314.11 145.03V133.54C314.11 131.54 313.92 129.55 313.53 127.59C313.16 125.72 312.62 123.27 311.97 120.97C314.93 121.03 325.48 121.15 325.48 119.8C325.48 118.22 311.2 118.5 311.2 118.5C310.3 115.92 309.26 113.97 308.15 113.97C307.04 113.97 305.91 115.95 304.99 118.5C302.48 118.47 291.21 118.41 291.21 119.81C291.21 121.09 300.67 121.05 304.19 120.99C303.68 122.77 303.24 124.59 302.92 126.1C302.46 128.21 302.24 130.37 302.24 132.53V144.56L278.07 143.57H261.7V133.55C261.7 131.55 261.51 129.56 261.12 127.6C260.75 125.73 260.21 123.28 259.56 120.98C262.52 121.04 273.07 121.16 273.07 119.81C273.07 118.23 258.79 118.51 258.79 118.51C257.89 115.93 256.85 113.98 255.74 113.98C254.63 113.98 253.5 115.96 252.58 118.51C250.07 118.48 238.8 118.42 238.8 119.82C238.8 121.1 248.26 121.06 251.78 121C251.27 122.78 250.83 124.6 250.51 126.11C250.05 128.22 249.83 130.38 249.83 132.54V143.59H229.74V131.55C229.74 124.02 226.61 118.92 226.61 118.92L226.19 53.1701C226.19 53.1701 225.35 35.6401 218.85 25.3101C213.74 17.1801 212.1 11.6101 211.63 9.60011C211.4 8.62011 211.03 7.68011 210.51 6.81011C209.49 5.09011 207.62 2.86011 204.81 2.86011C202 2.86011 200.13 5.09011 199.11 6.81011L199.21 6.79011Z" fill="white"/>
<path d="M204.91 2.84009C207.72 2.84009 209.59 5.07009 210.61 6.79009C211.13 7.66009 211.5 8.60009 211.73 9.58009C212.2 11.5901 213.84 17.1601 218.95 25.2901C225.45 35.6301 226.29 53.1501 226.29 53.1501L226.71 118.9C226.71 118.9 229.84 124 229.84 131.53V143.57H249.93V132.52C249.93 130.36 250.15 128.2 250.61 126.09C250.94 124.58 251.37 122.75 251.88 120.98C251.18 120.99 250.23 121 249.18 121C244.96 121 238.9 120.82 238.9 119.8C238.9 118.63 246.78 118.48 250.83 118.48C251.62 118.48 252.27 118.48 252.68 118.49C253.59 115.94 254.68 113.96 255.84 113.96C257 113.96 258 115.92 258.89 118.5C258.89 118.5 259.83 118.48 261.23 118.48C265.28 118.48 273.17 118.63 273.17 119.8C273.17 120.83 267.12 121 262.9 121C261.55 121 260.38 120.98 259.66 120.97C260.31 123.28 260.84 125.72 261.22 127.59C261.61 129.55 261.8 131.54 261.8 133.54V143.56H278.17L302.34 144.55V132.52C302.34 130.36 302.56 128.2 303.02 126.09C303.35 124.58 303.78 122.75 304.29 120.98C303.59 120.99 302.64 121 301.59 121C297.37 121 291.31 120.82 291.31 119.8C291.31 118.63 299.19 118.48 303.24 118.48C304.03 118.48 304.68 118.48 305.09 118.49C306 115.94 307.09 113.96 308.25 113.96C309.41 113.96 310.41 115.92 311.3 118.5C311.3 118.5 312.24 118.48 313.64 118.48C317.69 118.48 325.58 118.63 325.58 119.8C325.58 120.83 319.53 121 315.31 121C313.96 121 312.79 120.98 312.07 120.97C312.72 123.28 313.25 125.72 313.63 127.59C314.02 129.55 314.21 131.54 314.21 133.54V145.03L402.53 148.63C402.53 148.63 402.58 148.63 402.66 148.63C403.52 148.63 408.23 149.16 406.61 160.99C404.84 173.99 404.25 176.62 404.25 176.62L262.37 194.96H227.52V270.18C227.52 270.18 225.94 288.89 223.78 296.37C228.9 297.55 279.31 308.97 279.31 308.97C279.31 308.97 286.79 309.56 286.79 318.62V325.46C286.79 325.46 286.84 328.78 279.9 329.74C272.96 330.7 213.81 339.51 213.81 339.51C213.81 339.51 211.45 353.39 204.95 353.39C198.45 353.39 196.09 339.51 196.09 339.51C196.09 339.51 136.94 330.7 130 329.74C123.06 328.78 123.11 325.46 123.11 325.46V318.62C123.11 309.56 130.59 308.97 130.59 308.97C130.59 308.97 181 297.55 186.12 296.37C183.95 288.89 182.38 270.18 182.38 270.18V194.96H147.53L5.60013 176.62C5.60013 176.62 5.01013 173.99 3.24013 160.99C1.63013 149.16 6.34013 148.63 7.19013 148.63C7.27013 148.63 7.32013 148.63 7.32013 148.63L95.6401 145.03V133.54C95.6401 131.54 95.8301 129.55 96.2201 127.59C96.5901 125.72 97.1301 123.27 97.7801 120.97C97.0601 120.98 95.9001 121 94.5401 121C90.3201 121 84.2701 120.82 84.2701 119.8C84.2701 118.63 92.1601 118.48 96.2101 118.48C97.6101 118.48 98.5501 118.5 98.5501 118.5C99.4501 115.92 100.49 113.97 101.6 113.97C102.71 113.97 103.84 115.95 104.76 118.5C105.17 118.5 105.82 118.49 106.61 118.49C110.66 118.49 118.54 118.64 118.54 119.81C118.54 120.84 112.49 121.01 108.26 121.01C107.2 121.01 106.26 121 105.56 120.99C106.07 122.77 106.51 124.59 106.83 126.1C107.29 128.21 107.51 130.37 107.51 132.53V144.56L131.68 143.57H148.05V133.55C148.05 131.55 148.24 129.56 148.63 127.6C149 125.73 149.54 123.28 150.19 120.98C149.47 120.99 148.31 121.01 146.95 121.01C142.73 121.01 136.68 120.83 136.68 119.81C136.68 118.64 144.57 118.49 148.62 118.49C150.02 118.49 150.96 118.51 150.96 118.51C151.86 115.93 152.9 113.98 154.01 113.98C155.12 113.98 156.25 115.96 157.17 118.51C157.58 118.51 158.23 118.5 159.02 118.5C163.07 118.5 170.95 118.65 170.95 119.82C170.95 120.85 164.9 121.02 160.67 121.02C159.61 121.02 158.67 121.01 157.97 121C158.48 122.78 158.92 124.6 159.24 126.11C159.7 128.22 159.92 130.38 159.92 132.54V143.59H180.01V131.55C180.01 124.02 183.14 118.92 183.14 118.92L183.56 53.1701C183.56 53.1701 184.4 35.6401 190.9 25.3101C196.01 17.1801 197.65 11.6101 198.12 9.60009C198.35 8.62009 198.72 7.68009 199.24 6.81009C200.26 5.09009 202.13 2.86009 204.94 2.86009M204.91 0.840088C202.01 0.840088 199.38 2.59009 197.49 5.77009C196.87 6.81009 196.42 7.94009 196.15 9.13009C195.7 11.0501 194.13 16.3701 189.19 24.2301C182.49 34.8901 181.59 52.3301 181.55 53.0601C181.55 53.0901 181.55 53.1201 181.55 53.1401L181.13 118.37C180.3 119.93 178 124.83 178 131.53V141.57H161.91V132.52C161.91 130.18 161.67 127.88 161.19 125.66C160.99 124.73 160.78 123.84 160.57 123H160.66C163.47 123 165.79 122.92 167.55 122.78C169.69 122.6 172.94 122.32 172.94 119.8C172.94 117.28 169.45 116.91 166.64 116.71C164.11 116.52 161.1 116.48 159.01 116.48C158.84 116.48 158.68 116.48 158.53 116.48C157.57 114.16 156.19 111.96 154.01 111.96C151.83 111.96 150.54 114.07 149.57 116.48C149.28 116.48 148.96 116.48 148.61 116.48C146.52 116.48 143.5 116.52 140.98 116.71C138.17 116.92 134.68 117.18 134.68 119.8C134.68 122.42 137.92 122.6 140.06 122.78C141.82 122.93 144.14 123 146.95 123C147.17 123 147.38 123 147.59 123C147.27 124.3 146.97 125.71 146.67 127.2C146.26 129.26 146.05 131.39 146.05 133.54V141.56H131.68C131.68 141.56 131.63 141.56 131.6 141.56L109.51 142.46V132.51C109.51 130.17 109.27 127.87 108.79 125.65C108.59 124.72 108.38 123.83 108.17 122.99H108.26C111.07 122.99 113.39 122.91 115.15 122.77C117.29 122.59 120.54 122.31 120.54 119.79C120.54 117.27 117.05 116.9 114.24 116.7C111.71 116.51 108.7 116.47 106.61 116.47C106.44 116.47 106.28 116.47 106.13 116.47C105.17 114.15 103.79 111.95 101.61 111.95C99.4301 111.95 98.1401 114.06 97.1701 116.47C96.8801 116.47 96.5601 116.47 96.2101 116.47C94.1201 116.47 91.1001 116.51 88.5801 116.7C85.7701 116.91 82.2801 117.17 82.2801 119.79C82.2801 122.41 85.5201 122.59 87.6601 122.77C89.4201 122.92 91.7401 122.99 94.5501 122.99C94.7701 122.99 94.9801 122.99 95.1901 122.99C94.8701 124.29 94.5701 125.7 94.2701 127.19C93.8601 129.25 93.6501 131.38 93.6501 133.53V143.1L7.35013 146.62C7.35013 146.62 7.26013 146.62 7.20013 146.62C6.50013 146.62 4.69013 146.81 3.16013 148.57C1.08013 150.95 0.440126 155.22 1.27013 161.25C3.03013 174.18 3.64013 176.94 3.66013 177.05C3.84013 177.87 4.52013 178.49 5.36013 178.6L147.24 196.94C147.32 196.95 147.41 196.96 147.5 196.96H180.35V270.18C180.35 270.24 180.35 270.29 180.35 270.35C180.41 271.06 181.72 286.49 183.64 294.88C173.28 297.24 132.85 306.4 130.24 307C126.98 307.33 121.07 310.14 121.07 318.63V325.47C121.07 325.96 121.24 330.57 129.69 331.73C135.95 332.6 185.38 339.95 194.37 341.29C195.25 345.27 198.14 355.4 204.92 355.4C211.7 355.4 214.59 345.27 215.47 341.29C224.45 339.95 273.89 332.59 280.15 331.73C288.6 330.56 288.78 325.96 288.77 325.44V318.63C288.77 310.14 282.86 307.33 279.6 307C276.99 306.41 236.56 297.25 226.2 294.89C228.12 286.5 229.43 271.07 229.49 270.36C229.49 270.3 229.49 270.25 229.49 270.19V196.97H262.34C262.43 196.97 262.51 196.97 262.6 196.95L404.48 178.61C405.31 178.5 405.99 177.88 406.18 177.06C406.2 176.95 406.81 174.19 408.57 161.26C409.39 155.23 408.76 150.96 406.68 148.58C405.15 146.82 403.34 146.63 402.64 146.63C402.58 146.63 402.53 146.63 402.49 146.63L316.19 143.11V133.54C316.19 131.39 315.98 129.26 315.57 127.2C315.27 125.7 314.97 124.3 314.65 123C314.86 123 315.07 123 315.29 123C318.1 123 320.42 122.92 322.18 122.78C324.32 122.6 327.56 122.32 327.56 119.8C327.56 117.28 324.07 116.91 321.26 116.71C318.73 116.52 315.71 116.48 313.63 116.48C313.28 116.48 312.96 116.48 312.67 116.48C311.7 114.07 310.39 111.96 308.23 111.96C306.07 111.96 304.67 114.16 303.71 116.48C303.56 116.48 303.39 116.48 303.23 116.48C301.14 116.48 298.13 116.52 295.6 116.71C292.79 116.92 289.3 117.18 289.3 119.8C289.3 122.42 292.54 122.6 294.69 122.78C296.45 122.93 298.77 123 301.58 123H301.67C301.46 123.85 301.25 124.74 301.05 125.66C300.57 127.87 300.33 130.18 300.33 132.52V142.47L278.24 141.57C278.24 141.57 278.19 141.57 278.16 141.57H263.79V133.55C263.79 131.4 263.58 129.27 263.17 127.21C262.94 126.08 262.63 124.58 262.25 123.01C262.46 123.01 262.67 123.01 262.89 123.01C265.7 123.01 268.02 122.93 269.78 122.79C271.92 122.61 275.16 122.33 275.16 119.81C275.16 117.29 271.67 116.92 268.86 116.72C266.33 116.53 263.31 116.49 261.23 116.49C260.88 116.49 260.56 116.49 260.27 116.49C259.3 114.08 257.99 111.97 255.83 111.97C253.67 111.97 252.27 114.17 251.31 116.49C251.16 116.49 250.99 116.49 250.83 116.49C248.74 116.49 245.73 116.53 243.2 116.72C240.39 116.93 236.9 117.19 236.9 119.81C236.9 122.43 240.14 122.61 242.29 122.79C244.05 122.94 246.37 123.01 249.18 123.01H249.27C249.06 123.86 248.85 124.75 248.65 125.67C248.17 127.88 247.93 130.19 247.93 132.53V141.58H231.84V131.54C231.84 124.84 229.54 119.94 228.71 118.38L228.29 53.1501C228.29 53.1501 228.29 53.0901 228.29 53.0701C228.25 52.3301 227.35 34.9001 220.65 24.2401C215.71 16.3801 214.13 11.0601 213.69 9.14009C213.41 7.95009 212.96 6.82009 212.35 5.78009C210.46 2.60009 207.83 0.850088 204.93 0.850088L204.91 0.840088Z" fill="black"/>
</g>
<defs>
<clipPath id="clip0_108_35">
<rect width="407.99" height="354.56" fill="white" transform="translate(0.910156 0.840088)"/>
</clipPath>
</defs>
</svg>
