<svg width="106" height="74" viewBox="0 0 106 74" fill="none" xmlns="http://www.w3.org/2000/svg">
<g clip-path="url(#clip0_17_28)">
<path d="M74.14 34.55L103.6 30.6C103.6 30.6 103.54 24.02 103.54 22.17C103.45 19.94 102.65 19.41 101.83 19.41L74.27 18.18L58.07 18.03C58.07 18.03 57.31 7.17 57.31 6.83C57.31 6.49 56.74 5.19 55.17 5.19H54.48L53.9 3.91C53.9 3.91 56.58 4.13 59.51 3.91C59.68 3.88 61.74 3.57 59.51 3.17C56.15 3.02 53.74 3.53 53.74 3.53C53.74 3.53 52.91 2 52.79 2C52.67 2 51.84 3.53 51.84 3.53C51.84 3.53 49.43 3.02 46.07 3.17C43.84 3.57 45.9 3.88 46.07 3.91C49 4.13 51.68 3.91 51.68 3.91L51.1 5.19H50.41C48.83 5.19 48.27 6.49 48.27 6.83C48.27 7.17 47.51 18.03 47.51 18.03L31.31 18.18L3.74998 19.41C2.91998 19.41 2.12998 19.95 2.03998 22.17C2.03998 24.02 1.97998 30.6 1.97998 30.6L31.44 34.55H48.28C48.28 34.55 50.82 53.59 51.35 57.25C49.97 57.53 38.68 59.37 38.68 59.37C38.68 59.37 37.52 60.12 37.52 61.22C37.31 63.93 38 65.58 38.44 66.51C38.51 66.66 38.65 66.77 38.82 66.79C40.47 67.02 47.59 68.05 49.81 68.31C50.2 68.36 50.58 68.14 50.75 67.78L52.13 64.84C52.13 64.84 52.22 64.8 52.23 64.85C52.3 65.86 52.63 70.67 52.66 70.98C52.7 71.39 52.79 71.34 52.79 71.34C52.79 71.34 52.89 71.39 52.92 70.98C52.95 70.67 53.28 65.86 53.35 64.85C53.35 64.8 53.42 64.79 53.44 64.84L54.82 67.78C54.99 68.14 55.36 68.35 55.76 68.31C57.98 68.05 65.1 67.02 66.75 66.79C66.92 66.77 67.06 66.66 67.13 66.51C67.57 65.58 68.26 63.92 68.05 61.22C68.05 60.11 66.89 59.37 66.89 59.37C66.89 59.37 55.6 57.52 54.22 57.25C54.75 53.59 57.29 34.55 57.29 34.55H74.13H74.14Z" fill="white"/>
<path d="M52.8 2C52.92 2 53.75 3.53 53.75 3.53C53.75 3.53 55.59 3.14 58.29 3.14C58.68 3.14 59.09 3.14 59.52 3.17C61.75 3.57 59.69 3.88 59.52 3.91C58.54 3.98 57.6 4.01 56.76 4.01C55.1 4.01 53.91 3.91 53.91 3.91L54.49 5.19H55.18C56.76 5.19 57.32 6.49 57.32 6.83C57.32 7.17 58.08 18.03 58.08 18.03L74.28 18.18L101.84 19.41C102.67 19.41 103.46 19.95 103.55 22.17C103.55 24.02 103.61 30.6 103.61 30.6L74.15 34.55H57.31C57.31 34.55 54.77 53.59 54.24 57.25C55.62 57.53 66.91 59.37 66.91 59.37C66.91 59.37 68.07 60.12 68.07 61.22C68.28 63.93 67.59 65.58 67.15 66.51C67.08 66.66 66.94 66.77 66.77 66.79C65.12 67.02 58 68.05 55.78 68.31C55.74 68.31 55.71 68.31 55.67 68.31C55.32 68.31 54.99 68.1 54.84 67.78L53.46 64.84C53.46 64.84 53.43 64.81 53.41 64.81C53.39 64.81 53.37 64.82 53.36 64.85C53.29 65.86 52.96 70.67 52.93 70.98C52.9 71.31 52.83 71.34 52.81 71.34H52.8C52.8 71.34 52.8 71.34 52.79 71.34C52.76 71.34 52.7 71.31 52.67 70.98C52.64 70.67 52.31 65.86 52.24 64.85C52.24 64.82 52.22 64.81 52.19 64.81C52.17 64.81 52.15 64.82 52.14 64.84L50.76 67.78C50.61 68.11 50.28 68.31 49.93 68.31C49.89 68.31 49.86 68.31 49.82 68.31C47.6 68.05 40.48 67.02 38.83 66.79C38.66 66.77 38.52 66.66 38.45 66.51C38.01 65.58 37.32 63.92 37.53 61.22C37.53 60.11 38.69 59.37 38.69 59.37C38.69 59.37 49.98 57.52 51.36 57.25C50.83 53.59 48.29 34.55 48.29 34.55H31.45L1.99 30.6C1.99 30.6 2.05 24.02 2.05 22.17C2.14 19.94 2.94 19.41 3.76 19.41L31.32 18.18L47.52 18.03C47.52 18.03 48.28 7.17 48.28 6.83C48.28 6.49 48.85 5.19 50.42 5.19H51.11L51.69 3.91C51.69 3.91 50.5 4.01 48.84 4.01C48.01 4.01 47.06 3.99 46.08 3.91C45.91 3.88 43.85 3.57 46.08 3.17C46.51 3.15 46.91 3.14 47.31 3.14C50.01 3.14 51.85 3.53 51.85 3.53C51.85 3.53 52.68 2 52.8 2ZM52.8 0C51.87 0 51.35 0.47 50.79 1.35C49.92 1.25 48.72 1.15 47.31 1.15C46.89 1.15 46.45 1.15 46 1.18C45.91 1.18 45.82 1.19 45.73 1.21C45.07 1.33 43.04 1.69 43.06 3.57C43.07 5.44 45.07 5.78 45.73 5.89C45.79 5.9 45.88 5.91 45.94 5.92C46.11 5.93 46.28 5.94 46.45 5.95C46.35 6.26 46.29 6.56 46.29 6.85C46.28 7.22 45.94 12.05 45.66 16.07L31.31 16.2C31.31 16.2 31.26 16.2 31.24 16.2L3.72 17.43C2.83 17.45 0.24 17.86 0.06 22.11C0.06 22.14 0.06 22.16 0.06 22.19C0.06 23.99 0 30.52 0 30.59C0 31.6 0.73 32.46 1.73 32.59L31.19 36.54C31.28 36.55 31.37 36.56 31.45 36.56H46.54C47.09 40.65 48.45 50.86 49.11 55.63C46.33 56.1 41.29 56.94 38.36 57.41C38.09 57.45 37.83 57.55 37.6 57.7C37.39 57.83 35.58 59.06 35.53 61.14C35.31 64.1 36 66.02 36.63 67.37C36.99 68.14 37.71 68.67 38.55 68.79C38.94 68.84 39.65 68.95 40.53 69.07C43.45 69.48 47.87 70.11 49.58 70.31C49.69 70.32 49.81 70.33 49.92 70.33C50.15 70.33 50.38 70.3 50.6 70.25C50.64 70.75 50.66 71.09 50.67 71.18C50.82 72.91 52.07 73.37 52.78 73.37C52.78 73.37 52.78 73.37 52.79 73.37C52.79 73.37 52.79 73.37 52.8 73.37C53.51 73.37 54.76 72.91 54.91 71.18C54.91 71.1 54.94 70.75 54.98 70.25C55.2 70.3 55.43 70.33 55.66 70.33C55.77 70.33 55.89 70.33 56 70.31C57.71 70.11 62.13 69.48 65.05 69.07C65.93 68.95 66.64 68.84 67.03 68.79C67.87 68.67 68.59 68.14 68.95 67.37C69.58 66.02 70.27 64.1 70.05 61.14C70 59.06 68.19 57.83 67.98 57.7C67.75 57.55 67.49 57.45 67.22 57.41C64.29 56.93 59.25 56.1 56.47 55.63C57.13 50.87 58.5 40.65 59.04 36.57H74.13C74.22 36.57 74.31 36.56 74.39 36.55L103.85 32.6C104.85 32.47 105.59 31.61 105.58 30.6C105.58 30.53 105.52 24.01 105.52 22.19C105.52 22.16 105.52 22.14 105.52 22.11C105.35 17.86 102.75 17.45 101.86 17.43L74.34 16.2C74.34 16.2 74.29 16.2 74.27 16.2L59.92 16.07C59.64 12.05 59.31 7.22 59.29 6.8C59.29 6.53 59.24 6.25 59.14 5.95C59.31 5.94 59.47 5.93 59.64 5.92C59.71 5.92 59.77 5.91 59.84 5.9C60.51 5.79 62.51 5.45 62.52 3.58C62.53 1.71 60.51 1.34 59.85 1.22C59.76 1.2 59.67 1.19 59.58 1.19C59.12 1.17 58.69 1.16 58.27 1.16C56.86 1.16 55.65 1.26 54.79 1.36C54.24 0.48 53.72 0.01 52.78 0.01L52.8 0Z" fill="#231F20"/>
</g>
<defs>
<clipPath id="clip0_17_28">
<rect width="105.6" height="73.36" fill="white"/>
</clipPath>
</defs>
</svg>
