<svg width="526" height="553" viewBox="0 0 526 553" fill="none" xmlns="http://www.w3.org/2000/svg">
<g clip-path="url(#clip0_26_5)">
<path d="M265.39 545.27V524.81L363.37 547.02C363.84 547.13 364.29 546.77 364.29 546.29V526.16C364.29 525.32 363.85 524.54 363.13 524.11L275 471.54C274.33 471.14 274.08 470.29 274.44 469.59C278.14 462.28 296.7 423.78 296.7 386.7V288.28C296.7 288.28 306.62 273.02 306.94 262.1C306.96 261.32 307.62 260.72 308.39 260.85C310.4 261.19 314.25 261.93 319.51 263V269.63C319.51 269.63 320.01 276.75 322.48 276.75C323.56 276.75 324.42 275.34 325.03 273.75C325.86 271.6 326.23 269.23 326.23 266.86V264.37C335 266.18 346.24 268.54 358.89 271.23V276.78C358.89 276.78 359.38 283.9 361.86 283.9C362.94 283.9 363.8 282.49 364.41 280.9C365.24 278.75 365.61 276.38 365.61 274.01V272.65C372.29 274.07 379.28 275.57 386.46 277.11V281.68C386.46 281.68 386.95 288.8 389.43 288.8C390.51 288.8 391.37 287.39 391.98 285.8C392.81 283.65 393.18 281.28 393.18 278.91V278.54C403.24 280.7 413.55 282.92 423.75 285.12V287.97C423.75 287.97 424.24 295.09 426.72 295.09C427.8 295.09 428.66 293.68 429.27 292.09C429.94 290.35 430.3 288.47 430.41 286.56C473.24 295.82 512.55 304.39 520.18 306.05C520.87 306.2 521.51 305.67 521.51 304.96V281.24C521.51 277.3 519.35 273.67 515.88 271.79L409.42 214.12V209.98C409.42 209.98 409.97 210.23 412.13 209.98C413.1 204.88 413.76 201.17 414.3 193.05L415.52 192.91C415.52 192.91 419.04 192.64 419.04 188.57V151.28C419.04 148.91 417.12 146.98 414.74 146.98H397.46C395.09 146.98 393.16 148.9 393.16 151.28V188.98C393.16 188.98 393.16 193.18 396 193.18C397.03 193.18 397.53 193.14 397.77 193.1C397.83 194.47 398.33 203.6 400.34 208.35V209.19L342.48 177.84V174C342.48 174 343.03 174.25 345.19 174C346.16 168.9 346.82 165.19 347.36 157.07L348.58 156.93C348.58 156.93 352.1 156.66 352.1 152.59V115.3C352.1 112.93 350.18 111 347.8 111H330.52C328.15 111 326.22 112.92 326.22 115.3V153C326.22 153 326.22 157.2 329.06 157.2C330.09 157.2 330.59 157.16 330.83 157.12C330.89 158.49 331.39 167.62 333.4 172.37V172.92L299.3 154.44C298.23 153.86 297.57 152.75 297.57 151.54V110.76C297.57 89.0301 294.17 67.4101 287.25 46.8101C280.38 26.3301 271.11 4.56006 262.75 4.56006C254.39 4.56006 245.12 26.3301 238.25 46.8101C231.34 67.4101 227.93 89.0301 227.93 110.76V151.54C227.93 152.75 227.27 153.87 226.2 154.44L192.1 172.92V172.37C194.1 167.61 194.6 158.48 194.67 157.12C194.91 157.17 195.41 157.2 196.44 157.2C199.28 157.2 199.28 153 199.28 153V115.3C199.28 112.93 197.36 111 194.98 111H177.7C175.33 111 173.4 112.92 173.4 115.3V152.59C173.4 156.65 176.92 156.93 176.92 156.93L178.14 157.07C178.68 165.2 179.34 168.91 180.31 174C182.47 174.25 183.02 174 183.02 174V177.84L125.16 209.19V208.35C127.16 203.59 127.66 194.46 127.73 193.1C127.97 193.15 128.47 193.18 129.5 193.18C132.34 193.18 132.34 188.98 132.34 188.98V151.28C132.34 148.91 130.42 146.98 128.04 146.98H110.76C108.39 146.98 106.46 148.9 106.46 151.28V188.57C106.46 192.63 109.98 192.91 109.98 192.91L111.2 193.05C111.74 201.18 112.4 204.89 113.37 209.98C115.53 210.23 116.08 209.98 116.08 209.98V214.12L9.63 271.82C6.16 273.7 4 277.32 4 281.27V304.99C4 305.7 4.64 306.23 5.33 306.08C12.96 304.41 52.27 295.84 95.1 286.59C95.22 288.5 95.57 290.38 96.24 292.12C96.86 293.71 97.71 295.12 98.79 295.12C101.26 295.12 101.76 288 101.76 288V285.15C111.96 282.95 122.27 280.73 132.33 278.57V278.94C132.33 281.31 132.69 283.68 133.53 285.83C134.15 287.42 135 288.83 136.08 288.83C138.55 288.83 139.05 281.71 139.05 281.71V277.14C146.22 275.6 153.22 274.11 159.9 272.68V274.04C159.9 276.41 160.26 278.78 161.1 280.93C161.72 282.52 162.57 283.93 163.65 283.93C166.12 283.93 166.62 276.81 166.62 276.81V271.26C179.27 268.57 190.5 266.21 199.28 264.4V266.89C199.28 269.26 199.64 271.63 200.48 273.78C201.1 275.37 201.95 276.78 203.03 276.78C205.5 276.78 206 269.66 206 269.66V263.03C211.27 261.96 215.11 261.22 217.12 260.88C217.89 260.75 218.55 261.35 218.57 262.13C218.89 273.06 228.81 288.31 228.81 288.31V386.73C228.81 423.81 247.37 462.32 251.07 469.62C251.42 470.32 251.18 471.17 250.51 471.57L162.38 524.14C161.66 524.57 161.22 525.35 161.22 526.19V546.32C161.22 546.8 161.67 547.16 162.14 547.05L260.12 524.84V545.3C260.12 549.43 262.76 548.89 262.76 548.89C262.76 548.89 265.4 549.43 265.4 545.3L265.39 545.27Z" fill="white"/>
<path d="M262.75 4.6001C271.11 4.6001 280.38 26.3701 287.25 46.8501C294.16 67.4501 297.57 89.0701 297.57 110.8V151.58C297.57 152.79 298.23 153.91 299.3 154.48L333.4 172.96V172.41C331.4 167.65 330.9 158.52 330.83 157.16C330.59 157.21 330.09 157.24 329.06 157.24C326.22 157.24 326.22 153.04 326.22 153.04V115.34C326.22 112.97 328.14 111.04 330.52 111.04H347.8C350.17 111.04 352.1 112.96 352.1 115.34V152.63C352.1 156.69 348.58 156.97 348.58 156.97L347.36 157.11C346.82 165.24 346.16 168.95 345.19 174.04C344.47 174.12 343.93 174.15 343.53 174.15C342.73 174.15 342.48 174.04 342.48 174.04V177.88L400.34 209.23V208.39C398.34 203.63 397.84 194.5 397.77 193.14C397.53 193.19 397.03 193.22 396 193.22C393.16 193.22 393.16 189.02 393.16 189.02V151.32C393.16 148.95 395.08 147.02 397.46 147.02H414.74C417.11 147.02 419.04 148.94 419.04 151.32V188.61C419.04 192.67 415.52 192.94 415.52 192.94L414.3 193.08C413.76 201.21 413.1 204.92 412.13 210.01C411.41 210.09 410.87 210.12 410.47 210.12C409.67 210.12 409.42 210.01 409.42 210.01V214.15L515.88 271.82C519.35 273.7 521.51 277.32 521.51 281.27V304.99C521.51 305.62 521.01 306.11 520.41 306.11C520.33 306.11 520.25 306.11 520.17 306.08C512.54 304.41 473.23 295.84 430.4 286.59C430.28 288.5 429.93 290.38 429.26 292.12C428.64 293.71 427.79 295.12 426.71 295.12C424.24 295.12 423.74 288 423.74 288V285.15C413.54 282.95 403.23 280.73 393.17 278.57V278.94C393.17 281.31 392.81 283.68 391.97 285.83C391.35 287.42 390.5 288.83 389.42 288.83C386.95 288.83 386.45 281.71 386.45 281.71V277.14C379.28 275.6 372.28 274.11 365.6 272.68V274.04C365.6 276.41 365.24 278.78 364.4 280.93C363.78 282.52 362.93 283.93 361.85 283.93C359.38 283.93 358.88 276.81 358.88 276.81V271.26C346.23 268.57 335 266.21 326.22 264.4V266.89C326.22 269.26 325.86 271.63 325.02 273.78C324.4 275.37 323.55 276.78 322.47 276.78C320 276.78 319.5 269.66 319.5 269.66V263.03C314.23 261.96 310.39 261.22 308.38 260.88C308.31 260.87 308.24 260.86 308.17 260.86C307.49 260.86 306.95 261.42 306.93 262.13C306.61 273.06 296.69 288.31 296.69 288.31V386.73C296.69 423.81 278.13 462.32 274.43 469.62C274.08 470.32 274.32 471.17 274.99 471.57L363.12 524.14C363.84 524.57 364.28 525.35 364.28 526.19V546.32C364.28 546.74 363.93 547.07 363.53 547.07C363.48 547.07 363.42 547.07 363.36 547.05L265.38 524.84V545.3C265.38 548.57 263.72 548.91 263.03 548.91C262.85 548.91 262.74 548.89 262.74 548.89C262.74 548.89 262.63 548.91 262.45 548.91C261.76 548.91 260.1 548.57 260.1 545.3V524.84L162.12 547.05C162.06 547.06 162.01 547.07 161.95 547.07C161.55 547.07 161.2 546.74 161.2 546.32V526.19C161.2 525.35 161.64 524.57 162.36 524.14L250.49 471.57C251.16 471.17 251.41 470.32 251.05 469.62C247.35 462.31 228.79 423.81 228.79 386.73V288.31C228.79 288.31 218.87 273.05 218.55 262.13C218.53 261.42 217.99 260.86 217.31 260.86C217.24 260.86 217.17 260.86 217.1 260.88C215.09 261.22 211.24 261.96 205.98 263.03V269.66C205.98 269.66 205.49 276.78 203.01 276.78C201.93 276.78 201.07 275.37 200.46 273.78C199.63 271.63 199.26 269.26 199.26 266.89V264.4C190.49 266.21 179.25 268.57 166.6 271.26V276.81C166.6 276.81 166.11 283.93 163.63 283.93C162.55 283.93 161.69 282.52 161.08 280.93C160.25 278.78 159.88 276.41 159.88 274.04V272.68C153.2 274.1 146.21 275.6 139.03 277.14V281.71C139.03 281.71 138.54 288.83 136.06 288.83C134.98 288.83 134.12 287.42 133.51 285.83C132.68 283.68 132.31 281.31 132.31 278.94V278.57C122.25 280.73 111.94 282.95 101.74 285.15V288C101.74 288 101.25 295.12 98.77 295.12C97.69 295.12 96.83 293.71 96.22 292.12C95.55 290.38 95.19 288.5 95.08 286.59C52.25 295.85 12.94 304.42 5.31 306.08C5.23 306.1 5.15 306.11 5.07 306.11C4.47 306.11 3.97 305.62 3.97 304.99V281.27C3.97 277.33 6.13 273.7 9.6 271.82L116.06 214.15V210.01C116.06 210.01 115.81 210.12 115.01 210.12C114.61 210.12 114.07 210.09 113.35 210.01C112.38 204.91 111.72 201.2 111.18 193.08L109.96 192.94C109.96 192.94 106.44 192.67 106.44 188.61V151.32C106.44 148.95 108.36 147.02 110.74 147.02H128.02C130.39 147.02 132.32 148.94 132.32 151.32V189.02C132.32 189.02 132.32 193.22 129.48 193.22C128.45 193.22 127.95 193.18 127.71 193.14C127.65 194.51 127.15 203.64 125.14 208.39V209.23L183 177.88V174.04C183 174.04 182.75 174.15 181.95 174.15C181.55 174.15 181.01 174.12 180.29 174.04C179.32 168.94 178.66 165.23 178.12 157.11L176.9 156.97C176.9 156.97 173.38 156.7 173.38 152.63V115.34C173.38 112.97 175.3 111.04 177.68 111.04H194.96C197.33 111.04 199.26 112.96 199.26 115.34V153.04C199.26 153.04 199.26 157.24 196.41 157.24C195.38 157.24 194.88 157.2 194.64 157.16C194.58 158.53 194.08 167.66 192.07 172.41V172.96L226.17 154.48C227.24 153.9 227.9 152.79 227.9 151.58V110.8C227.9 89.0701 231.3 67.4501 238.22 46.8501C245.09 26.3701 254.36 4.6001 262.72 4.6001M262.75 0.600098C257.2 0.600098 252.01 5.5501 246.4 16.1801C242.6 23.3801 238.58 33.2701 234.45 45.5801C227.47 66.3901 223.93 88.3401 223.93 110.81V151.17L197.91 165.26C198.13 163.72 198.29 162.24 198.41 160.94C201.61 159.93 203.28 156.46 203.28 153.04V115.34C203.28 110.76 199.56 107.04 194.98 107.04H177.7C173.12 107.04 169.4 110.76 169.4 115.34V152.63C169.4 156.97 171.9 159.4 174.37 160.41C174.87 166.56 175.49 170.09 176.37 174.78C176.49 175.42 176.76 176.01 177.15 176.5L130.92 201.55C131.17 199.89 131.34 198.29 131.46 196.91C134.66 195.9 136.33 192.43 136.33 189.01V151.31C136.33 146.73 132.61 143.01 128.03 143.01H110.75C106.17 143.01 102.45 146.73 102.45 151.31V188.6C102.45 192.94 104.95 195.37 107.42 196.38C107.92 202.53 108.54 206.06 109.42 210.75C109.56 211.48 109.9 212.14 110.37 212.67L7.72 268.3C2.96 270.88 0 275.85 0 281.27V304.99C0 307.81 2.29 310.11 5.1 310.11C5.47 310.11 5.83 310.07 6.19 309.99C13.44 308.41 50.69 300.28 91.82 291.39C92.02 292.14 92.25 292.87 92.52 293.56C93.95 297.25 96.06 299.11 98.8 299.11C102.78 299.11 105.25 295.3 105.75 288.37C113.42 286.72 121.13 285.05 128.73 283.42C128.97 284.76 129.33 286.04 129.8 287.25C131.23 290.94 133.34 292.8 136.08 292.8C140.08 292.8 142.55 288.95 143.04 281.95C143.04 281.86 143.04 281.77 143.04 281.67V280.33C147.49 279.38 151.86 278.44 156.13 277.53C156.37 279.23 156.78 280.83 157.36 282.33C158.79 286.02 160.9 287.88 163.64 287.88C167.64 287.88 170.11 284.03 170.6 277.03C170.6 276.94 170.6 276.85 170.6 276.75V274.44C180.24 272.4 188.53 270.65 195.37 269.23C195.56 271.34 196.02 273.33 196.73 275.16C198.16 278.85 200.27 280.71 203.01 280.71C207.01 280.71 209.48 276.86 209.97 269.86C209.97 269.77 209.97 269.68 209.97 269.58V266.23C211.88 265.85 213.51 265.53 214.83 265.28C216.29 274.98 222.7 286 224.78 289.39V386.66C224.78 421.88 241.06 458.23 246.43 469.26L160.3 520.64C158.38 521.79 157.18 523.89 157.18 526.13V546.26C157.18 548.88 159.31 551.01 161.93 551.01C162.28 551.01 162.64 550.97 162.98 550.89L256.07 529.78V545.23C256.07 550.49 259.26 552.84 262.42 552.84C262.52 552.84 262.62 552.84 262.71 552.84C262.8 552.84 262.9 552.84 263 552.84C266.16 552.84 269.35 550.49 269.35 545.23V529.78L362.44 550.89C362.78 550.97 363.14 551.01 363.49 551.01C366.11 551.01 368.24 548.88 368.24 546.26V526.13C368.24 523.89 367.05 521.79 365.12 520.64L278.99 469.26C284.36 458.23 300.64 421.89 300.64 386.66V289.39C302.73 286 309.13 274.98 310.59 265.28C311.92 265.53 313.54 265.85 315.45 266.23V269.58C315.45 269.67 315.45 269.76 315.45 269.86C315.94 276.85 318.41 280.71 322.41 280.71C325.15 280.71 327.26 278.84 328.69 275.16C329.4 273.33 329.85 271.34 330.05 269.23C336.88 270.65 345.18 272.4 354.82 274.44V276.75C354.82 276.84 354.82 276.93 354.82 277.03C355.31 284.02 357.78 287.88 361.78 287.88C364.52 287.88 366.63 286.01 368.06 282.33C368.64 280.83 369.05 279.22 369.29 277.53C373.55 278.44 377.92 279.38 382.38 280.33V281.67C382.38 281.76 382.38 281.85 382.38 281.95C382.87 288.94 385.34 292.8 389.34 292.8C392.08 292.8 394.19 290.93 395.62 287.25C396.09 286.04 396.45 284.76 396.69 283.42C404.29 285.05 412 286.72 419.67 288.37C420.17 295.3 422.64 299.11 426.62 299.11C429.36 299.11 431.47 297.24 432.9 293.56C433.17 292.86 433.4 292.14 433.6 291.39C474.72 300.28 511.98 308.41 519.23 309.99C519.59 310.07 519.95 310.11 520.32 310.11C523.13 310.11 525.42 307.81 525.42 304.99V281.27C525.42 275.85 522.46 270.89 517.7 268.3L415.03 212.68C415.5 212.15 415.84 211.49 415.98 210.76C416.87 206.07 417.48 202.53 417.98 196.39C420.45 195.38 422.95 192.95 422.95 188.61V151.32C422.95 146.74 419.23 143.02 414.65 143.02H397.37C392.79 143.02 389.07 146.74 389.07 151.32V189.02C389.07 192.45 390.73 195.91 393.94 196.92C394.06 198.3 394.24 199.9 394.48 201.56L348.25 176.51C348.63 176.02 348.91 175.43 349.03 174.79C349.92 170.1 350.53 166.56 351.03 160.42C353.5 159.41 356 156.98 356 152.64V115.35C356 110.77 352.28 107.05 347.7 107.05H330.42C325.84 107.05 322.12 110.77 322.12 115.35V153.05C322.12 156.48 323.78 159.94 326.99 160.95C327.1 162.24 327.27 163.72 327.49 165.27L301.47 151.18V110.82C301.47 88.3501 297.93 66.4101 290.95 45.5901C286.82 33.2801 282.8 23.3901 279 16.1901C273.39 5.5601 268.2 0.610098 262.65 0.610098L262.75 0.600098Z" fill="#231F20"/>
</g>
<defs>
<clipPath id="clip0_26_5">
<rect width="525.5" height="552.28" fill="white" transform="translate(0 0.600098)"/>
</clipPath>
</defs>
</svg>
