<svg width="114" height="80" viewBox="0 0 114 80" fill="none" xmlns="http://www.w3.org/2000/svg">
<g clip-path="url(#clip0_9_3)">
<path d="M57 2C57.64 2 57.95 3.64 57.95 3.64C57.95 3.64 59.84 3.19 62.76 3.19C63.16 3.19 63.58 3.19 64.02 3.22C66.42 3.65 64.2 3.98 64.02 4.02C62.97 4.1 61.94 4.12 61.05 4.12C59.26 4.12 57.97 4.02 57.97 4.02V4.66H60.2C60.85 4.66 61.14 6.38 61.14 6.38L62.3 20.24L82.35 20.33L109.96 21.82C110.56 21.82 110.89 22.19 110.99 22.3C111.09 22.41 111.57 23.03 111.88 24.54C112.27 26.49 111.65 29.06 111.65 29.06C111.65 29.06 111.23 30.57 110.88 31.88C110.59 32.97 110.04 33.06 109.86 33.06C109.82 33.06 109.8 33.06 109.8 33.06L83.21 36.58C82.77 36.64 82.32 36.67 81.88 36.67C79.78 36.67 73.19 36.67 68.38 36.67C65.54 36.67 63.32 36.67 63.01 36.67C63 36.67 62.98 36.67 62.97 36.67C62.07 36.67 62.1 37.18 62.1 37.18L58.89 65.21L72.35 67.99C72.35 67.99 72.35 67.99 72.38 67.99C72.46 67.99 72.73 68.03 73.15 68.49C73.73 69.26 73.48 71.42 73.48 71.42C73.48 71.42 73.07 73.52 72.79 74.8C72.57 75.76 72.2 75.88 72.03 75.88C71.97 75.88 71.94 75.87 71.94 75.87L59.64 77.58C59.64 77.58 59.62 77.58 59.61 77.58C59.51 77.58 59.42 77.52 59.38 77.42L57.88 73.66C57.88 73.66 57.84 73.62 57.82 73.62C57.79 73.62 57.76 73.64 57.76 73.67C57.66 74.45 57.36 76.84 57.33 77.21C57.3 77.56 57.14 77.6 57.07 77.6C57.05 77.6 57.04 77.6 57.04 77.6C57.04 77.6 57.03 77.6 57.01 77.6C56.94 77.6 56.78 77.56 56.75 77.21C56.72 76.84 56.42 74.45 56.32 73.67C56.32 73.63 56.29 73.62 56.26 73.62C56.24 73.62 56.21 73.63 56.2 73.66L54.7 77.42C54.66 77.52 54.57 77.58 54.47 77.58C54.46 77.58 54.45 77.58 54.44 77.58L42.14 75.87C42.14 75.87 42.11 75.88 42.05 75.88C41.88 75.88 41.51 75.76 41.29 74.8C41 73.53 40.6 71.42 40.6 71.42C40.6 71.42 40.35 69.26 40.93 68.49C41.35 68.03 41.62 67.99 41.7 67.99C41.72 67.99 41.73 67.99 41.73 67.99L55.19 65.21L51.98 37.18C51.98 37.18 52.01 36.67 51.11 36.67C51.1 36.67 51.08 36.67 51.07 36.67C50.76 36.67 48.54 36.67 45.7 36.67C40.89 36.67 34.3 36.67 32.2 36.67C31.75 36.67 31.31 36.64 30.87 36.58L4.28 33.06C4.28 33.06 4.26 33.06 4.22 33.06C4.04 33.06 3.49 32.97 3.2 31.88C2.85 30.57 2.43 29.06 2.43 29.06C2.43 29.06 1.81 26.49 2.2 24.54C2.51 23.03 2.99 22.41 3.09 22.3C3.19 22.19 3.52 21.82 4.12 21.82L31.73 20.33L51.78 20.24L52.94 6.38C52.94 6.38 53.23 4.66 53.88 4.66H56.11V4.02C56.11 4.02 54.78 4.12 52.99 4.12C52.09 4.12 51.08 4.09 50.06 4.02C49.81 3.96 47.8 3.73 50.06 3.22C50.5 3.2 50.92 3.19 51.32 3.19C54.24 3.19 56.13 3.64 56.13 3.64C56.13 3.64 56.44 2 57.08 2M57 0C56.06 0 55.29 0.49 54.75 1.4C53.86 1.29 52.66 1.19 51.25 1.19C50.82 1.19 50.37 1.19 49.9 1.22C49.78 1.22 49.66 1.24 49.55 1.27C48.82 1.43 46.88 1.87 46.93 3.71C46.97 5.52 48.87 5.85 49.49 5.96H49.56C49.65 5.99 49.74 6.01 49.83 6.01C50.17 6.04 50.52 6.06 50.89 6.07C50.89 6.11 50.88 6.16 50.87 6.2L49.86 18.23L31.64 18.31C31.64 18.31 31.57 18.31 31.54 18.31L3.97 19.8C3.3 19.81 2.35 20.03 1.53 20.93C1.25 21.24 0.56 22.16 0.16 24.12C-0.3 26.45 0.33 29.2 0.41 29.51C0.41 29.54 0.42 29.56 0.43 29.59C0.43 29.59 0.85 31.08 1.19 32.38C1.7 34.32 3.02 35.03 4.1 35.05L30.54 38.55C31.07 38.62 31.6 38.66 32.13 38.66C34.23 38.66 40.82 38.66 45.63 38.66C48.02 38.66 49.34 38.66 50.07 38.66L52.93 63.6L41.42 65.98C40.88 66.03 40.14 66.3 39.39 67.14C39.35 67.18 39.31 67.23 39.28 67.28C38.36 68.51 38.44 70.54 38.57 71.64C38.57 71.69 38.58 71.74 38.59 71.79C38.61 71.88 39.01 73.94 39.3 75.23C39.85 77.67 41.51 77.86 42.01 77.86C42.03 77.86 42.04 77.86 42.06 77.86L54.13 79.54C54.22 79.55 54.35 79.56 54.44 79.56C54.9 79.56 55.34 79.42 55.71 79.17C56.09 79.44 56.55 79.58 56.98 79.58C56.98 79.58 57 79.58 57.01 79.58C57.01 79.58 57.03 79.58 57.04 79.58C57.48 79.58 57.93 79.44 58.31 79.17C58.67 79.42 59.11 79.56 59.58 79.56C59.67 79.56 59.8 79.56 59.89 79.54L71.96 77.86C71.96 77.86 71.99 77.86 72.01 77.86C72.5 77.86 74.16 77.67 74.72 75.23C75.01 73.94 75.41 71.87 75.43 71.79C75.43 71.74 75.45 71.69 75.45 71.64C75.58 70.54 75.66 68.5 74.74 67.28C74.71 67.23 74.67 67.19 74.63 67.14C73.87 66.3 73.14 66.04 72.6 65.98L61.09 63.6L63.95 38.66C64.69 38.66 66 38.66 68.39 38.66C73.2 38.66 79.8 38.66 81.89 38.66C82.42 38.66 82.96 38.62 83.48 38.55L109.92 35.05C111 35.03 112.32 34.32 112.83 32.38C113.17 31.08 113.59 29.6 113.59 29.59C113.59 29.57 113.6 29.54 113.61 29.51C113.68 29.2 114.32 26.45 113.86 24.14C113.45 22.17 112.77 21.25 112.49 20.94C111.66 20.03 110.72 19.82 110.05 19.81L82.48 18.32C82.48 18.32 82.41 18.32 82.38 18.32L64.16 18.24L63.15 6.21C63.15 6.21 63.15 6.12 63.13 6.07C63.49 6.05 63.84 6.03 64.18 6.01C64.25 6.01 64.31 6 64.38 5.99C65.07 5.87 67.13 5.53 67.14 3.64C67.15 1.75 65.14 1.39 64.39 1.25C64.3 1.23 64.21 1.22 64.12 1.22C63.65 1.2 63.2 1.19 62.77 1.19C61.36 1.19 60.16 1.29 59.27 1.4C58.73 0.5 57.96 0 57.02 0L57 0Z" fill="#231F20"/>
<path d="M111.87 24.53C111.56 23.02 111.08 22.4 110.98 22.29C110.88 22.18 110.55 21.81 109.95 21.81L82.34 20.32L62.29 20.23L61.13 6.36999C61.13 6.36999 60.84 4.62999 60.19 4.64999H57.96V4.00999C57.96 4.00999 60.85 4.23999 64.01 4.00999C64.19 3.97999 66.41 3.64999 64.01 3.20999C60.39 3.04999 57.94 3.62999 57.94 3.62999C57.94 3.62999 57.63 1.98999 56.99 1.98999C56.35 1.98999 56.04 3.62999 56.04 3.62999C56.04 3.62999 53.59 3.04999 49.97 3.20999C47.71 3.71999 49.72 3.94999 49.97 4.00999C53.04 4.23999 56.02 4.00999 56.02 4.00999V4.64999H53.79C53.14 4.63999 52.85 6.36999 52.85 6.36999L51.69 20.23L31.64 20.32L4.03001 21.81C3.43001 21.81 3.10001 22.18 3.00001 22.29C2.90001 22.4 2.42001 23.02 2.11001 24.53C1.72001 26.48 2.34001 29.05 2.34001 29.05C2.34001 29.05 2.76001 30.56 3.11001 31.87C3.46001 33.18 4.19001 33.05 4.19001 33.05L30.78 36.57C31.22 36.63 31.67 36.66 32.11 36.66C35.44 36.66 50.14 36.67 50.98 36.66C51.92 36.65 51.89 37.17 51.89 37.17L55.1 65.2L41.64 67.98C41.64 67.98 41.35 67.92 40.85 68.48C40.27 69.25 40.52 71.41 40.52 71.41C40.52 71.41 40.93 73.51 41.22 74.79C41.51 76.06 42.07 75.85 42.07 75.85L54.37 77.56C54.48 77.58 54.59 77.51 54.64 77.4L56.14 73.64C56.16 73.58 56.25 73.59 56.26 73.65C56.36 74.43 56.66 76.82 56.69 77.19C56.73 77.63 56.97 77.58 56.97 77.58C56.97 77.58 57.22 77.64 57.25 77.19C57.28 76.82 57.58 74.43 57.68 73.65C57.68 73.58 57.78 73.58 57.8 73.64L59.3 77.4C59.34 77.51 59.45 77.57 59.57 77.56L71.87 75.85C71.87 75.85 72.43 76.06 72.72 74.79C73.01 73.52 73.41 71.41 73.41 71.41C73.41 71.41 73.66 69.25 73.08 68.48C72.58 67.92 72.29 67.98 72.29 67.98L58.83 65.2L62.04 37.17C62.04 37.17 62.01 36.65 62.95 36.66C63.78 36.67 78.49 36.66 81.82 36.66C82.27 36.66 82.71 36.63 83.15 36.57L109.74 33.05C109.74 33.05 110.47 33.19 110.82 31.87C111.17 30.56 111.59 29.05 111.59 29.05C111.59 29.05 112.21 26.48 111.82 24.53H111.87Z" fill="white"/>
</g>
<defs>
<clipPath id="clip0_9_3">
<rect width="114" height="79.58" fill="white"/>
</clipPath>
</defs>
</svg>
