<svg width="250" height="187" viewBox="0 0 250 187" fill="none" xmlns="http://www.w3.org/2000/svg">
<g clip-path="url(#clip0_570_63)">
<path d="M155.67 185.3C154.95 185.3 154.59 184.73 154.38 184.15H148.29C148.08 184.73 147.72 185.3 147 185.3C146.28 185.3 145.92 184.73 145.71 184.15H139.39C139.18 184.73 138.82 185.3 138.1 185.3C137.38 185.3 137.02 184.73 136.81 184.15H113.56C113.35 184.73 112.99 185.3 112.27 185.3C111.55 185.3 111.19 184.73 110.98 184.15H104.89C104.68 184.73 104.32 185.3 103.6 185.3C102.88 185.3 102.52 184.73 102.31 184.15H95.9898C95.7798 184.73 95.4198 185.3 94.6998 185.3C93.9798 185.3 93.6198 184.73 93.4098 184.15H83.0598C80.6298 184.15 79.6698 182.45 79.6198 181.31V171.04C79.6198 164.27 84.7898 162.39 85.0098 162.31L85.0998 162.28H85.1998C85.4598 162.23 110.05 158.71 115.99 157.82C113.34 149.88 113.58 120.11 113.59 118.8L113.78 108.79L5.26981 101.97L5.13981 101.92C4.88981 101.83 3.56981 101.25 2.57981 98.84C0.719812 93.3 0.649812 89.23 2.34981 86.69C3.80981 84.51 6.01981 84.34 6.10981 84.33L85.2298 73.12V62.11C85.2298 61.93 85.3098 60.76 85.9798 59.79C86.0098 59.74 86.0598 59.65 86.0798 59.47L86.1198 59.19C86.3098 57.72 86.4998 56.45 86.7898 55.74C86.8398 55.61 86.8698 55.44 86.8698 55.23V54.59C84.7698 54.72 81.1198 54.9 77.5098 54.9C75.1898 54.9 73.2198 54.82 71.6498 54.67C70.6598 54.58 69.9298 53.78 69.9098 52.79C69.8898 51.79 70.5998 50.97 71.5898 50.85C73.3498 50.63 75.5898 50.51 78.2498 50.51C81.6498 50.51 84.9798 50.69 86.9098 50.82C87.0098 49.85 87.2898 48.92 87.7298 48.09C88.3798 46.87 90.1398 44.55 92.1498 44.55C94.1598 44.55 95.9198 46.86 96.5698 48.09C96.9998 48.9 97.2798 49.8 97.3798 50.74C99.3798 50.62 102.03 50.51 104.73 50.51C107.43 50.51 109.63 50.62 111.39 50.85C112.38 50.98 113.09 51.79 113.08 52.79C113.06 53.79 112.33 54.58 111.34 54.67C109.77 54.82 107.8 54.9 105.48 54.9C102.58 54.9 99.6498 54.78 97.4398 54.67V55.23C97.4398 55.44 97.4698 55.61 97.5198 55.74C97.8098 56.45 97.9998 57.72 98.1898 59.19L98.2298 59.47C98.2498 59.65 98.2998 59.74 98.3298 59.79C98.9998 60.77 99.0698 61.93 99.0798 62.06V71.17L110.17 69.6C111.21 69.17 112.28 68.78 113.35 68.45C113.59 68.38 113.75 68.14 113.75 67.88V31.9C112.28 27.69 113.96 24.29 114.48 23.38C114.79 20.19 117.01 1 124.93 1C132.85 1 135.07 20.2 135.38 23.38C135.9 24.29 137.59 27.69 136.11 31.9V67.63C136.11 67.9 136.28 68.13 136.52 68.2C137.97 68.63 139.41 69.15 140.8 69.74L150.78 71.15V62.1C150.78 61.92 150.86 60.75 151.53 59.78C151.56 59.73 151.61 59.64 151.63 59.46L151.66 59.21C151.85 57.73 152.04 56.46 152.33 55.74C152.38 55.61 152.41 55.44 152.41 55.23V54.67C150.2 54.79 147.27 54.9 144.37 54.9C142.05 54.9 140.08 54.82 138.51 54.67C137.52 54.58 136.78 53.78 136.77 52.79C136.75 51.79 137.46 50.97 138.46 50.85C140.22 50.63 142.46 50.51 145.12 50.51C147.78 50.51 150.47 50.62 152.47 50.74C152.58 49.8 152.85 48.9 153.29 48.09C153.94 46.87 155.7 44.55 157.71 44.55C159.72 44.55 161.48 46.86 162.13 48.09C162.57 48.92 162.85 49.86 162.95 50.82C164.88 50.69 168.21 50.51 171.61 50.51C174.27 50.51 176.51 50.62 178.27 50.85C179.26 50.98 179.97 51.79 179.95 52.79C179.93 53.79 179.2 54.58 178.21 54.67C176.64 54.82 174.67 54.9 172.35 54.9C168.75 54.9 165.09 54.72 163 54.59V55.23C163 55.44 163.03 55.61 163.08 55.74C163.37 56.45 163.56 57.73 163.75 59.19L163.79 59.47C163.81 59.65 163.86 59.74 163.89 59.79C164.56 60.77 164.63 61.93 164.64 62.06V73.12L243.84 84.34C243.88 84.34 246.08 84.52 247.53 86.69C249.23 89.23 249.16 93.3 247.32 98.78C246.31 101.25 245 101.83 244.74 101.92L244.61 101.97L136.31 108.8V119.07C136.32 120.35 136.56 149.72 133.9 157.83C139.82 158.72 164.44 162.25 164.7 162.28H164.8L164.89 162.33C165.11 162.41 170.28 164.29 170.28 171.06V181.28C170.23 182.47 169.28 184.17 166.84 184.17H157C156.79 184.75 156.43 185.32 155.71 185.32L155.67 185.3Z" fill="white"/>
<path d="M124.92 2C132.39 2 134.4 23.7 134.4 23.7C134.4 23.7 136.76 27.24 135.11 31.72V67.63C135.11 68.33 135.56 68.96 136.24 69.16C137.71 69.59 139.14 70.11 140.53 70.71L151.04 72.2C151.04 72.2 151.1 72.2 151.13 72.2C151.48 72.2 151.78 71.91 151.78 71.55V62.1C151.78 62.1 151.83 61.11 152.35 60.34C152.5 60.12 152.58 59.86 152.61 59.59C152.75 58.54 152.96 56.82 153.25 56.11C153.37 55.83 153.4 55.52 153.4 55.22V53.6C151.31 53.72 147.81 53.89 144.36 53.89C142.32 53.89 140.3 53.83 138.59 53.67C137.49 53.56 137.47 51.97 138.57 51.83C140.49 51.59 142.81 51.5 145.1 51.5C148.3 51.5 151.46 51.67 153.4 51.79V51.64C153.4 50.56 153.65 49.5 154.15 48.55C154.86 47.21 156.36 45.54 157.69 45.54C159.02 45.54 160.52 47.21 161.23 48.55C161.73 49.5 161.98 50.57 161.98 51.64V51.88C163.47 51.77 167.49 51.5 171.59 51.5C173.88 51.5 176.2 51.58 178.12 51.83C179.21 51.97 179.19 53.57 178.09 53.67C176.39 53.83 174.37 53.89 172.33 53.89C167.98 53.89 163.55 53.62 161.98 53.52V55.22C161.98 55.52 162.02 55.83 162.13 56.11C162.42 56.82 162.63 58.53 162.77 59.59C162.81 59.86 162.88 60.12 163.03 60.34C163.56 61.11 163.6 62.1 163.6 62.1V73.42C163.6 73.74 163.84 74.02 164.16 74.07L243.66 85.33C243.66 85.33 250.58 85.8 246.33 98.46C245.46 100.58 244.36 100.98 244.36 100.98L135.26 107.86V119.07C135.26 119.07 135.56 151.45 132.65 158.18C132.55 158.41 132.72 158.67 132.97 158.71C137.23 159.37 164.51 163.27 164.51 163.27C164.51 163.27 169.23 164.92 169.23 171.06V181.28C169.23 181.28 169.15 183.17 166.79 183.17H156.19C156.01 183.94 155.84 184.32 155.66 184.32C155.48 184.32 155.31 183.94 155.13 183.17H147.52C147.34 183.94 147.17 184.32 146.99 184.32C146.81 184.32 146.64 183.94 146.46 183.17H138.61C138.43 183.94 138.26 184.32 138.08 184.32C137.9 184.32 137.73 183.94 137.55 183.17H112.78C112.6 183.94 112.43 184.32 112.25 184.32C112.07 184.32 111.9 183.94 111.72 183.17H104.11C103.93 183.94 103.76 184.32 103.58 184.32C103.4 184.32 103.23 183.94 103.05 183.17H95.1999C95.0199 183.94 94.8499 184.32 94.6699 184.32C94.4899 184.32 94.3199 183.94 94.1399 183.17H83.0299C80.6699 183.17 80.5899 181.28 80.5899 181.28V171.06C80.5899 164.93 85.3099 163.27 85.3099 163.27C85.3099 163.27 112.59 159.36 116.85 158.71C117.1 158.67 117.27 158.41 117.17 158.18C114.27 151.76 114.57 118.82 114.57 118.82L114.78 107.86L5.45992 100.99C5.45992 100.99 4.35992 100.6 3.48992 98.47C-0.760076 85.81 6.15992 85.34 6.15992 85.34L85.6599 74.08C85.9799 74.03 86.2199 73.76 86.2199 73.43V62.11C86.2199 62.11 86.2699 61.12 86.7899 60.35C86.9399 60.13 87.0199 59.87 87.0499 59.6C87.1899 58.55 87.3999 56.83 87.6899 56.12C87.8099 55.84 87.8399 55.54 87.8399 55.23V53.53C86.2599 53.64 81.8299 53.9 77.4899 53.9C75.4499 53.9 73.4299 53.84 71.7299 53.68C70.6299 53.57 70.6099 51.98 71.6999 51.84C73.6199 51.6 75.9399 51.51 78.2299 51.51C82.3299 51.51 86.3499 51.78 87.8399 51.89V51.65C87.8399 50.57 88.0899 49.51 88.5899 48.56C89.2999 47.22 90.7999 45.55 92.1299 45.55C93.4599 45.55 94.9599 47.22 95.6699 48.56C96.1699 49.51 96.4199 50.58 96.4199 51.65V51.8C98.3599 51.67 101.51 51.51 104.72 51.51C107.01 51.51 109.33 51.59 111.25 51.84C112.35 51.98 112.33 53.57 111.23 53.68C109.53 53.84 107.51 53.9 105.46 53.9C102.01 53.9 98.5099 53.73 96.4199 53.61V55.23C96.4199 55.53 96.4599 55.84 96.5699 56.12C96.8599 56.83 97.0699 58.54 97.2099 59.6C97.2499 59.87 97.3199 60.13 97.4699 60.35C97.9999 61.12 98.0399 62.11 98.0399 62.11V71.56C98.0399 71.93 98.3399 72.21 98.6899 72.21C98.7199 72.21 98.7499 72.21 98.7799 72.21L110.39 70.57C111.44 70.13 112.51 69.74 113.61 69.4C114.27 69.19 114.71 68.57 114.71 67.88V31.73C113.06 27.25 115.42 23.71 115.42 23.71C115.42 23.71 117.43 2.01 124.9 2.01M124.92 0C116.37 0 113.97 18.32 113.49 23.08C112.82 24.33 111.32 27.83 112.73 32.06V50.28C112.37 50.05 111.96 49.9 111.51 49.84C109.71 49.61 107.43 49.5 104.72 49.5C102.39 49.5 100.09 49.58 98.2099 49.68C98.0399 48.95 97.7899 48.25 97.4399 47.61C96.6399 46.1 94.6199 43.54 92.1399 43.54C89.6599 43.54 87.6399 46.1 86.8399 47.61C86.4799 48.28 86.2199 49 86.0599 49.76C84.0699 49.64 81.1799 49.5 78.2499 49.5C75.5499 49.5 73.2599 49.62 71.4699 49.84C69.9599 50.03 68.8899 51.27 68.9099 52.79C68.9299 54.31 70.0499 55.51 71.5499 55.66C73.1499 55.81 75.1499 55.89 77.4999 55.89C80.5299 55.89 83.5899 55.76 85.7399 55.65C85.4699 56.46 85.2999 57.63 85.1099 59.05L85.0799 59.31C84.3399 60.46 84.2399 61.75 84.2299 62V62.05V62.1V72.24L5.92992 83.33C5.36992 83.39 3.07992 83.78 1.50992 86.12C-0.370076 88.93 -0.340076 93.3 1.59992 99.08L1.61992 99.14L1.63992 99.2C2.75992 101.94 4.32992 102.68 4.78992 102.85L5.05992 102.94L5.33992 102.96L112.75 109.71L112.58 118.75C112.55 121.91 112.39 147.73 114.7 156.98C107.3 158.07 85.2799 161.23 85.0399 161.26L84.8499 161.29L84.6699 161.35C84.4199 161.44 78.6099 163.56 78.6099 171.02V181.33C78.6799 182.86 79.9099 185.13 83.0499 185.13H92.7699C93.1299 185.75 93.7199 186.28 94.6899 186.28C95.6599 186.28 96.2499 185.74 96.6099 185.13H101.67C102.03 185.75 102.62 186.28 103.59 186.28C104.56 186.28 105.15 185.74 105.51 185.13H110.34C110.7 185.75 111.29 186.28 112.26 186.28C113.23 186.28 113.82 185.74 114.18 185.13H136.17C136.53 185.75 137.12 186.28 138.09 186.28C139.06 186.28 139.65 185.74 140.01 185.13H145.07C145.43 185.75 146.02 186.28 146.99 186.28C147.96 186.28 148.55 185.74 148.91 185.13H153.74C154.1 185.75 154.69 186.28 155.66 186.28C156.63 186.28 157.22 185.74 157.58 185.13H166.79C169.93 185.13 171.16 182.85 171.23 181.33V181.29V181.25V171.03C171.23 163.56 165.42 161.44 165.17 161.36L164.99 161.3L164.8 161.27C164.55 161.23 142.53 158.08 135.13 156.99C137.46 147.65 137.3 122.14 137.27 119.04V109.73L244.5 102.97L244.78 102.95L245.05 102.86C245.51 102.7 247.08 101.95 248.2 99.21L248.22 99.15L248.24 99.09C250.18 93.3 250.21 88.94 248.33 86.13C246.76 83.79 244.47 83.4 243.91 83.34L165.61 72.25V62.01C165.6 61.76 165.5 60.47 164.75 59.32L164.71 59.06C164.52 57.65 164.36 56.48 164.08 55.66C166.23 55.78 169.29 55.9 172.32 55.9C174.67 55.9 176.67 55.82 178.27 55.67C179.78 55.53 180.89 54.32 180.91 52.8C180.93 51.28 179.86 50.04 178.35 49.85C176.55 49.62 174.27 49.51 171.57 49.51C168.63 49.51 165.75 49.65 163.76 49.77C163.6 49.02 163.33 48.29 162.98 47.62C162.18 46.11 160.16 43.55 157.68 43.55C155.2 43.55 153.18 46.11 152.38 47.62C152.04 48.27 151.78 48.97 151.61 49.69C149.73 49.59 147.43 49.51 145.1 49.51C142.4 49.51 140.11 49.63 138.32 49.85C137.87 49.91 137.45 50.06 137.1 50.29V32.07C138.51 27.83 137.01 24.33 136.34 23.09C135.86 18.33 133.47 0.01 124.91 0.01L124.92 0ZM105.47 55.9C107.82 55.9 109.82 55.82 111.43 55.67C111.91 55.62 112.36 55.47 112.74 55.23V67.58C111.78 67.89 110.82 68.24 109.89 68.62L100.06 70.01V62.01C100.05 61.76 99.9499 60.47 99.1999 59.32L99.1599 59.06C98.9799 57.69 98.8199 56.54 98.5599 55.73C100.59 55.83 103.04 55.91 105.46 55.91L105.47 55.9ZM137.1 67.34V55.23C137.48 55.47 137.92 55.63 138.41 55.67C140.01 55.82 142.02 55.9 144.37 55.9C146.72 55.9 149.24 55.82 151.27 55.72C151.01 56.53 150.85 57.67 150.67 59.05L150.64 59.31C149.9 60.46 149.8 61.75 149.79 62V62.05V62.1V70L141.08 68.77C139.79 68.23 138.46 67.74 137.12 67.34H137.1Z" fill="black"/>
</g>
<defs>
<clipPath id="clip0_570_63">
<rect width="249.59" height="186.3" fill="white" transform="translate(0.120117)"/>
</clipPath>
</defs>
</svg>
