<svg width="115" height="97" viewBox="0 0 115 97" fill="none" xmlns="http://www.w3.org/2000/svg">
<g clip-path="url(#clip0_491_7)">
<path d="M57.4499 95.64C56.7399 95.64 56.1899 95.04 56.1499 94.22L55.5499 89.09C55.4099 89.14 55.2599 89.16 55.1099 89.16C55.0699 89.16 54.9699 89.16 54.9299 89.15C54.7999 89.13 41.9399 87.49 39.8999 87.16C38.8099 86.99 38.0299 86.58 37.5799 85.94C37.2499 85.48 37.1699 84.98 37.1999 84.63V78.96C37.1999 77.33 38.7699 76.59 39.6999 76.41C39.7699 76.4 50.7499 75.2 54.3099 74.82C51.5499 59.58 50.8199 46.7 50.6499 42.42C50.4399 42.48 50.2099 42.51 49.9899 42.51H34.5899C32.5899 42.51 30.5699 42.37 28.5899 42.11L6.17988 39.08H2.78988C2.54988 39.08 2.31988 39 2.13988 38.84C1.46988 38.28 1.51988 37.33 1.79988 36.57L2.46988 29.21C2.46988 29.15 2.48988 29.09 2.49988 29.03C2.53988 28.9 3.44988 25.8 5.98988 25.47C16.0099 24.36 40.2099 24.09 40.4499 24.08H50.6699V16.18C50.6699 12.32 51.5399 7.83997 51.9899 6.40997C52.0399 6.25997 52.0899 6.11997 52.1499 5.98997C45.6099 5.82997 45.6099 5.51997 45.6099 4.53997C45.6099 3.44997 45.6099 3.16997 55.3999 2.95997C55.7999 2.08997 56.4999 0.969971 57.4599 0.969971C58.4199 0.969971 59.1199 2.08997 59.5199 2.95997C69.3099 3.16997 69.3099 3.44997 69.3099 4.53997C69.3099 5.51997 69.3099 5.81997 62.7699 5.98997C62.8299 6.11997 62.8799 6.25997 62.9299 6.40997C63.3799 7.83997 64.2499 12.31 64.2499 16.18V24.08H74.4499C74.6999 24.08 98.8999 24.36 108.91 25.47C111.47 25.8 112.38 28.9 112.42 29.03C112.44 29.09 112.45 29.15 112.45 29.21L113.12 36.57C113.4 37.33 113.45 38.27 112.78 38.84C112.6 38.99 112.37 39.08 112.13 39.08H108.74L86.3299 42.11C84.3499 42.38 82.3299 42.51 80.3299 42.51H64.9299C64.7099 42.51 64.4899 42.48 64.2699 42.42C64.0899 46.7 63.3699 59.58 60.6099 74.82C64.1699 75.2 75.1299 76.4 75.1299 76.4C76.1399 76.59 77.7099 77.33 77.7099 78.96V84.63C77.7399 84.98 77.6599 85.48 77.3299 85.94C76.8799 86.57 76.0999 86.98 75.0099 87.16C72.9699 87.49 60.0999 89.13 59.9699 89.15C59.9299 89.15 59.8399 89.16 59.7899 89.16C59.6399 89.16 59.4899 89.13 59.3499 89.09L58.7499 94.28C58.7099 95.06 58.1699 95.64 57.4499 95.64Z" fill="white"/>
<path d="M57.4499 1.99999C57.8699 1.99999 58.4899 3.02999 58.8399 3.96999C71.0599 4.21999 71.7199 4.89999 59.2099 5.07999C59.2899 5.32999 59.3299 5.49999 59.3299 5.49999H60.5199C60.5199 5.49999 60.5299 5.49999 60.5599 5.49999C60.7499 5.49999 61.5999 5.55999 61.9699 6.73999C62.3799 8.05999 63.2499 12.42 63.2499 16.21V24.57C63.2499 24.57 63.2099 25.11 64.1099 25.11H74.4499C74.4499 25.11 98.7299 25.38 108.8 26.49C110.72 26.74 111.46 29.33 111.46 29.33L112.14 36.84C112.14 36.84 112.54 37.77 112.14 38.11H108.68L86.1999 41.14C84.2599 41.4 82.2999 41.53 80.3399 41.53H64.9399C64.6999 41.53 64.4499 41.47 64.2399 41.36L63.3399 40.91C63.3399 40.91 63.0299 56.36 59.4799 75.56C59.4599 75.65 59.5199 75.73 59.6099 75.74C61.3699 75.92 75.0399 77.41 75.0399 77.41C75.0399 77.41 76.7299 77.74 76.7299 78.97V84.69C76.7299 84.69 76.9399 85.84 74.8799 86.17C72.9999 86.47 61.7799 87.91 59.8799 88.15C59.8599 88.15 59.8499 88.15 59.8299 88.15C59.6799 88.15 59.5499 88.07 59.4799 87.93L58.6999 86.33L57.7899 94.15C57.7899 94.15 57.7599 94.62 57.4899 94.62C57.2199 94.62 57.1899 94.15 57.1899 94.15L56.2799 86.33L55.4999 87.93C55.4299 88.06 55.2999 88.15 55.1499 88.15C55.1299 88.15 55.1199 88.15 55.0999 88.15C53.1999 87.91 41.9799 86.47 40.0999 86.17C38.0399 85.84 38.2499 84.69 38.2499 84.69V78.97C38.2499 77.73 39.9399 77.41 39.9399 77.41C39.9399 77.41 53.6199 75.92 55.3699 75.74C55.4599 75.74 55.5199 75.65 55.4999 75.56C51.9499 56.36 51.6399 40.91 51.6399 40.91L50.7399 41.36C50.5199 41.47 50.2799 41.53 50.0399 41.53H34.6399C32.6799 41.53 30.7199 41.4 28.7799 41.14L6.29994 38.11H2.83994C2.43994 37.77 2.83994 36.84 2.83994 36.84L3.51994 29.33C3.51994 29.33 4.25994 26.74 6.17994 26.49C16.2499 25.38 40.5299 25.11 40.5299 25.11H50.8699C51.7799 25.11 51.7299 24.57 51.7299 24.57V16.21C51.7299 12.42 52.5899 8.05999 53.0099 6.73999C53.3799 5.56999 54.2299 5.49999 54.4199 5.49999C54.4399 5.49999 54.4599 5.49999 54.4599 5.49999H55.6499C55.6499 5.49999 55.6899 5.33999 55.7699 5.07999C43.2599 4.88999 43.9199 4.21999 56.1399 3.96999C56.4799 3.02999 57.0999 1.99999 57.5299 1.99999M57.4499 -9.76585e-06C56.2199 -9.76585e-06 55.3499 0.91999 54.7599 1.99999C52.3299 2.05999 50.3099 2.13999 48.8599 2.23999C46.5699 2.38999 44.5899 2.51999 44.5999 4.57999C44.5999 6.62999 46.6099 6.74999 48.7299 6.87999C49.3299 6.91999 50.0199 6.94999 50.7999 6.97999C50.3099 8.95999 49.6599 12.77 49.6599 16.22V23.12H40.4599C39.4399 23.13 15.9499 23.4 5.88994 24.51C2.71994 24.92 1.63994 28.4 1.52994 28.79C1.49994 28.91 1.46994 29.03 1.45994 29.16L0.799943 36.4C0.439943 37.46 0.459943 38.78 1.47994 39.64C1.83994 39.95 2.29994 40.11 2.76994 40.11H6.09994L28.4499 43.13C30.4699 43.4 32.5399 43.54 34.5799 43.54H49.6899C49.9299 48.53 50.7099 60.22 53.1299 73.97C48.9399 74.42 40.1299 75.38 39.6699 75.43C39.6099 75.43 39.5599 75.44 39.4999 75.46C37.8499 75.78 36.1899 77 36.1899 78.99V84.64C36.1699 85.06 36.2199 85.8 36.7499 86.55C37.3599 87.41 38.3599 87.96 39.7199 88.17C41.5799 88.47 52.1699 89.83 54.6499 90.14L55.1399 94.37C55.2499 95.7 56.1999 96.66 57.4399 96.66C58.6799 96.66 59.6299 95.7 59.7399 94.37L60.2299 90.14C62.6999 89.82 73.2899 88.46 75.1599 88.17C76.5199 87.95 77.5199 87.41 78.1299 86.55C78.6599 85.8 78.7199 85.06 78.6899 84.64V78.99C78.6899 77 77.0299 75.78 75.3799 75.46C75.3299 75.45 75.2699 75.44 75.2099 75.43C74.7499 75.38 65.9399 74.42 61.7499 73.97C64.1699 60.22 64.9499 48.53 65.1899 43.54H80.2999C82.3399 43.54 84.41 43.4 86.4299 43.13L108.78 40.11H112.11C112.58 40.11 113.04 39.94 113.4 39.64C114.42 38.78 114.43 37.46 114.08 36.4L113.42 29.16C113.41 29.04 113.39 28.91 113.35 28.79C113.24 28.39 112.16 24.92 109.03 24.51C98.9399 23.4 75.4399 23.12 74.4499 23.11H65.2299V16.21C65.2299 12.76 64.5799 8.94999 64.0899 6.96999C64.8699 6.93999 65.5599 6.90999 66.1599 6.86999C68.2799 6.73999 70.2799 6.61999 70.2899 4.56999C70.2899 2.50999 68.3199 2.37999 66.0299 2.22999C64.5799 2.12999 62.5599 2.04999 60.1299 1.98999C59.5399 0.90999 58.6699 -0.0100098 57.4399 -0.0100098L57.4499 -9.76585e-06Z" fill="black"/>
</g>
<defs>
<clipPath id="clip0_491_7">
<rect width="113.7" height="96.64" fill="white" transform="translate(0.599976)"/>
</clipPath>
</defs>
</svg>
