<svg width="163" height="119" viewBox="0 0 163 119" fill="none" xmlns="http://www.w3.org/2000/svg">
<g clip-path="url(#clip0_12_10)">
<path d="M81.57 113.7C81.57 113.63 81.63 113.56 81.71 113.56C84.13 113.4 110.6 111.84 110.6 111.84C110.6 111.84 112.08 111.98 112.07 110.73V104.2C112.06 103.95 111.87 103.74 111.62 103.71L84.27 100.29C84.16 100.28 84.07 100.17 84.1 100.06C84.51 97.84 88.1099 77.84 89.77 59.45C89.82 58.91 90.25 58.49 90.8 58.46C100.15 58.06 158.65 55.35 158.65 55.35C158.65 55.35 160.17 55.67 160.44 52.99C160.71 50.31 160.7 43.25 160.69 43.07C160.68 42.89 160.78 42.39 159.72 42.29C158.43 42.15 123.22 39.88 123.22 39.88L123.17 35.12C123.17 35.06 123.19 35.01 123.19 34.95C123.19 33.82 122.27 32.91 121.14 32.91C120.01 32.91 119.1 33.83 119.1 34.96C119.1 34.99 119.1 35.01 119.1 35.04V39.76L90.86 37.97C90.5 37.95 90.21 37.65 90.2 37.29L89.82 24.69C89.82 24.69 89.29 16.02 87.67 10.25C87.03 7.78996 85.9 8.08996 84.53 8.08996C84.53 7.99996 84.45 7.48996 84.3 6.79996C84.3 6.79996 91.38 6.77996 92.81 6.77996C92.71 4.83996 91.1 4.74996 91.1 4.74996L83.84 4.94996C83.3999 3.44996 82.76 1.99996 81.97 1.99996C81.17 1.96996 80.5499 3.45996 80.13 4.95996H80.05L72.79 4.76996C72.79 4.76996 71.1799 4.86996 71.09 6.79996L79.6 6.77996H79.71C79.59 7.41996 79.52 7.89996 79.52 7.97996C78.1499 7.92996 77.03 7.58996 76.3 10.03C74.47 15.73 73.63 24.38 73.63 24.38L72.8 36.96C72.78 37.32 72.48 37.61 72.12 37.62C72.12 37.62 4.44996 40.93 3.14996 41.01C2.07996 41.08 2.15996 41.57 2.14996 41.76C2.14996 41.94 1.87996 49 2.04996 51.68C2.22996 54.36 3.75996 54.1 3.75996 54.1C3.75996 54.1 62.1199 57.37 71.45 58.1C71.99 58.14 72.41 58.58 72.44 59.12C73.44 77.56 76.98 97.64 77.3 99.87C77.32 99.98 77.23 100.08 77.12 100.09L49.6 103.12C49.35 103.14 49.16 103.34 49.15 103.59L48.9 110.12C48.85 111.36 50.33 111.28 50.33 111.28C50.33 111.28 77.1499 113.24 79.56 113.49C79.63 113.49 79.69 113.56 79.69 113.64C79.8 116.14 79.84 116.35 80.55 116.35C81.26 116.35 81.35 116.17 81.55 113.67L81.57 113.7Z" fill="white"/>
<path d="M81.95 2H81.97C82.75 2 83.39 3.46 83.84 4.94L91.1 4.74C91.1 4.74 92.72 4.83 92.81 6.77C91.38 6.77 84.3 6.79 84.3 6.79C84.45 7.48 84.52 8 84.53 8.08C84.8 8.08 85.06 8.07 85.31 8.07C86.33 8.07 87.16 8.27 87.67 10.24C89.3 16 89.82 24.68 89.82 24.68L90.2 37.28C90.21 37.64 90.5 37.94 90.86 37.96L119.11 39.75V35.03C119.11 35.03 119.09 34.98 119.09 34.95C119.09 33.82 120 32.9 121.13 32.9C122.26 32.9 123.17 33.81 123.17 34.94C123.17 35 123.16 35.05 123.15 35.11L123.2 39.87C123.2 39.87 158.41 42.15 159.7 42.28C160.76 42.39 160.67 42.88 160.67 43.06C160.67 43.24 160.69 50.3 160.42 52.98C160.2 55.14 159.17 55.35 158.78 55.35C158.69 55.35 158.63 55.34 158.63 55.34C158.63 55.34 100.14 58.05 90.78 58.45C90.23 58.47 89.8 58.89 89.75 59.44C88.09 77.83 84.49 97.83 84.08 100.05C84.06 100.16 84.14 100.27 84.25 100.28L111.6 103.7C111.85 103.73 112.03 103.94 112.03 104.19V110.72C112.05 111.74 111.05 111.84 110.69 111.84C110.61 111.84 110.57 111.84 110.57 111.84C110.57 111.84 84.09 113.4 81.68 113.56C81.61 113.56 81.55 113.63 81.54 113.7C81.34 116.2 81.25 116.38 80.54 116.38C79.84 116.38 79.8 116.16 79.69 113.67C79.69 113.59 79.63 113.53 79.56 113.52C77.15 113.28 50.33 111.31 50.33 111.31C50.33 111.31 50.31 111.31 50.27 111.31C50 111.31 48.85 111.25 48.89 110.15L49.14 103.62C49.14 103.37 49.34 103.17 49.59 103.15L77.11 100.12C77.23 100.11 77.31 100.01 77.29 99.9C76.96 97.66 73.42 77.58 72.43 59.15C72.4 58.6 71.98 58.17 71.44 58.13C62.11 57.39 3.75 54.13 3.75 54.13C3.75 54.13 3.71 54.13 3.64 54.13C3.28 54.13 2.19 53.95 2.04 51.7C1.86 49.02 2.13 41.96 2.14 41.78C2.14 41.6 2.07 41.1 3.14 41.03C4.44 40.94 72.11 37.64 72.11 37.64C72.47 37.63 72.77 37.35 72.79 36.98L73.62 24.4C73.62 24.4 74.46 15.75 76.29 10.05C76.83 8.23 77.59 7.96 78.52 7.96C78.83 7.96 79.16 7.99 79.51 8C79.51 7.92 79.58 7.44 79.7 6.8H79.59C79.59 6.8 72.51 6.82 71.08 6.82C71.17 4.88 72.78 4.79 72.78 4.79L80.04 4.96H80.12C80.53 3.48 81.14 2.01 81.93 2.01M81.95 0C80.2 0 79.24 1.56 78.7 2.92L72.85 2.78H72.77H72.69C71.32 2.86 69.23 3.98 69.11 6.72L69.01 8.82H71.11L74.62 8.81C74.54 9.02 74.46 9.24 74.39 9.48C72.53 15.28 71.68 23.85 71.65 24.21V24.24V24.27L70.9 35.7C61.57 36.16 4.25 38.96 3.03 39.04C0.929998 39.18 0.179998 40.52 0.169998 41.73C0.139998 42.46 -0.100002 49.14 0.0699977 51.84C0.279998 55.01 2.13 56.14 3.66 56.14C3.71 56.14 3.75 56.14 3.79 56.14C6.82 56.31 59.45 59.26 70.5 60.07C71.41 75.86 74.08 92.42 75.04 98.36L49.39 101.18C48.18 101.29 47.21 102.31 47.16 103.56L46.91 110.09C46.88 110.95 47.17 111.74 47.73 112.33C48.6 113.23 49.8 113.33 50.28 113.33C51.79 113.44 71.75 114.9 77.8 115.39C77.98 117.08 78.52 118.39 80.55 118.39C82.57 118.39 83.15 117.11 83.39 115.47C89.39 115.11 108.97 113.95 110.6 113.86C110.63 113.86 110.67 113.86 110.71 113.86C111.29 113.86 112.37 113.74 113.2 112.91C113.77 112.34 114.06 111.59 114.06 110.74V104.21C114.04 102.96 113.1 101.9 111.86 101.74L86.39 98.56C87.4 92.82 90.22 76.14 91.67 60.44C102.75 59.95 155.34 57.52 158.57 57.37C158.63 57.37 158.7 57.37 158.78 57.37C159.32 57.37 162.01 57.17 162.41 53.2C162.68 50.5 162.68 43.83 162.68 43.07C162.72 41.88 162.01 40.51 159.91 40.3C158.75 40.18 132.94 38.5 125.18 38L125.15 35.22C125.15 35.14 125.17 35.04 125.17 34.94C125.17 32.72 123.35 30.91 121.13 30.9C120.04 30.9 119.03 31.33 118.26 32.09C117.5 32.86 117.08 33.87 117.08 34.95V35.09V35.15V37.61L92.14 36.03L91.8 24.61V24.58V24.55C91.78 24.19 91.24 15.59 89.57 9.69C89.48 9.36 89.39 9.05 89.27 8.77H92.79L94.89 8.76L94.79 6.67C94.65 3.93 92.56 2.82 91.19 2.75H91.11H91.03L85.24 2.91C84.7 1.57 83.73 0.03 82.02 0H81.96H81.95Z" fill="#231F20"/>
</g>
<defs>
<clipPath id="clip0_12_10">
<rect width="162.7" height="118.38" fill="white"/>
</clipPath>
</defs>
</svg>
