<svg width="167" height="162" viewBox="0 0 167 162" fill="none" xmlns="http://www.w3.org/2000/svg">
<g clip-path="url(#clip0_587_32)">
<path d="M114.56 160.12C114.44 160.12 114.33 160.11 114.21 160.08C113.48 159.93 93.5102 156.81 84.5502 155.41C84.3902 156.1 83.9102 156.55 83.2802 156.55C82.9502 156.55 82.6402 156.42 82.4002 156.18C82.1702 155.95 82.0602 155.66 82.0002 155.4C73.0302 156.8 53.0702 159.92 52.3402 160.07C52.2202 160.09 52.1102 160.11 51.9902 160.11C50.8402 160.11 50.1802 159 49.9702 158.05C49.9502 157.98 49.9502 157.9 49.9502 157.83V153.12C49.9502 151.75 50.9402 150.94 51.5202 150.69L80.1702 138.41C80.2602 138.37 80.5002 138.21 80.5602 138.04C80.5902 137.95 80.5702 137.82 80.4902 137.66C78.9802 134.48 78.1302 128.9 77.6802 125.91C77.6102 125.44 77.5502 125.03 77.4902 124.72C77.4602 124.54 77.3602 124.38 77.2002 124.28L72.3502 120.81C71.8402 120.47 71.5302 119.87 71.5302 119.23L71.3902 114.69H69.5602C68.4002 114.69 67.3802 113.94 67.0402 112.83L66.1202 109.88C65.5102 107.9 65.1902 105.84 65.1902 103.77V93.21C43.9602 89.79 4.20022 83.39 3.04022 83.27C1.47022 83.13 0.950221 81.99 0.980221 81.26V74.53C0.980221 72.91 2.26022 72.28 2.94022 72.17L73.9102 67.17V19.81C73.9102 13.62 78.1402 1.5 83.2602 1.5C88.3802 1.5 92.6002 13.62 92.6002 19.81V67.18L163.48 72.16C164.25 72.28 165.53 72.91 165.53 74.53V81.3C165.56 81.99 165.03 83.13 163.46 83.27C162.31 83.39 122.55 89.79 101.32 93.21V103.77C101.32 105.84 101.01 107.9 100.39 109.88L99.4702 112.83C99.1302 113.94 98.1102 114.69 96.9502 114.69H95.1202L94.9802 119.26C94.9802 119.87 94.6602 120.47 94.1302 120.82L89.3302 124.25C89.1502 124.37 89.0502 124.53 89.0202 124.71C88.9702 125.02 88.9102 125.42 88.8302 125.9C88.3702 128.89 87.5302 134.47 86.0202 137.65C85.9402 137.81 85.9202 137.94 85.9502 138.03C86.0102 138.2 86.2502 138.36 86.3502 138.41L114.98 150.68C115.58 150.94 116.56 151.75 116.56 153.12V157.83C116.56 157.9 116.56 157.98 116.54 158.05C116.33 159 115.67 160.11 114.52 160.11L114.56 160.12Z" fill="white"/>
<path d="M83.2802 2.5C87.3002 2.5 91.6301 13.47 91.6301 19.81V67.45C91.6301 67.82 91.9202 68.13 92.2802 68.15L163.44 73.15C163.44 73.15 164.56 73.33 164.56 74.53V81.3C164.56 81.3 164.6 82.17 163.4 82.28C162.26 82.38 106.29 91.4 100.78 92.29C100.53 92.33 100.34 92.55 100.34 92.8V103.77C100.34 105.74 100.04 107.7 99.4602 109.59L98.5402 112.54C98.3302 113.23 97.6902 113.69 96.9702 113.69H94.5602C94.3402 113.69 94.1602 113.87 94.1602 114.09L94.0102 119.23C94.0102 119.54 93.8602 119.82 93.6002 119.99L88.7802 123.44C88.4002 123.7 88.1402 124.1 88.0602 124.55C87.6902 126.77 86.8302 133.67 85.1502 137.22C84.4602 138.67 85.9802 139.32 85.9802 139.32L114.62 151.59C114.62 151.59 115.6 152.02 115.6 153.11V157.82C115.6 157.82 115.31 159.1 114.55 159.1C114.5 159.1 114.45 159.1 114.4 159.08C113.53 158.9 83.5901 154.23 83.5901 154.23V154.88C83.5901 154.88 83.5902 155.53 83.2602 155.53C82.9302 155.53 82.9302 154.88 82.9302 154.88V154.23C82.9302 154.23 52.9901 158.9 52.1201 159.08C52.0701 159.09 52.0201 159.1 51.9701 159.1C51.2102 159.1 50.9201 157.82 50.9201 157.82V153.11C50.9201 152.02 51.9002 151.59 51.9002 151.59L80.5402 139.32C80.5402 139.32 82.0602 138.67 81.3702 137.22C79.6802 133.67 78.8202 126.76 78.4602 124.55C78.3802 124.1 78.1302 123.7 77.7402 123.44L72.9202 119.99C72.6702 119.82 72.5102 119.53 72.5102 119.23L72.3602 114.09C72.3602 113.87 72.1802 113.69 71.9602 113.69H69.5502C68.8302 113.69 68.2002 113.22 67.9802 112.54L67.0602 109.59C66.4802 107.71 66.1802 105.74 66.1802 103.77V92.8C66.1802 92.54 66.0002 92.33 65.7402 92.29C60.2302 91.4 4.26015 82.38 3.12015 82.28C1.93015 82.17 1.96015 81.3 1.96015 81.3V74.53C1.96015 73.34 3.08015 73.15 3.08015 73.15L74.2402 68.15C74.6102 68.12 74.8902 67.82 74.8902 67.45V19.81C74.8902 13.47 79.2202 2.5 83.2402 2.5M83.2802 0.5C77.4102 0.5 72.9302 13.37 72.9302 19.81V66.24L2.98015 71.16C2.92015 71.16 2.86015 71.17 2.80015 71.18C1.41015 71.4 0.000148823 72.63 0.000148823 74.53V81.27C-0.0298512 82.6 1.00015 84.09 2.98015 84.27C4.23015 84.42 36.4602 89.59 64.2102 94.06V103.77C64.2102 105.95 64.5402 108.1 65.1802 110.18L66.1002 113.13C66.5802 114.66 67.9702 115.69 69.5802 115.69H70.4402L70.5502 119.27C70.5602 120.22 71.0302 121.1 71.8102 121.63L76.5502 125.02C76.6002 125.31 76.6502 125.66 76.7102 126.06C77.1502 128.98 77.9602 134.3 79.4102 137.66L51.1502 149.77C50.3202 150.14 48.9601 151.25 48.9601 153.13V157.84C48.9601 157.99 48.9801 158.13 49.0101 158.28C49.3001 159.59 50.2701 161.12 52.0101 161.12C52.2001 161.12 52.3801 161.1 52.5701 161.06C53.3601 160.91 69.6002 158.36 81.4102 156.52C81.4902 156.65 81.5902 156.77 81.7102 156.89C82.1302 157.32 82.7002 157.56 83.3002 157.56C84.0202 157.56 84.7402 157.21 85.1902 156.52C97.0002 158.36 113.24 160.91 114.04 161.06C114.21 161.1 114.4 161.12 114.58 161.12C116.32 161.12 117.28 159.59 117.58 158.28C117.61 158.14 117.63 157.99 117.63 157.84V153.13C117.63 151.25 116.27 150.14 115.47 149.78L87.1902 137.66C88.6402 134.29 89.4502 128.98 89.8902 126.07C89.9502 125.67 90.0002 125.32 90.0502 125.03L94.7902 121.64C95.5702 121.1 96.0402 120.22 96.0502 119.28L96.1602 115.7H97.0201C98.6201 115.7 100.02 114.67 100.5 113.14L101.42 110.19C102.06 108.11 102.39 105.96 102.39 103.78V94.07C130.14 89.6 162.38 84.42 163.65 84.27C165.6 84.09 166.63 82.61 166.6 81.28V74.54C166.6 72.64 165.19 71.41 163.8 71.19C163.74 71.19 163.68 71.17 163.62 71.17L93.6702 66.25V19.81C93.6702 13.37 89.2002 0.5 83.3202 0.5H83.2802Z" fill="black"/>
</g>
<defs>
<clipPath id="clip0_587_32">
<rect width="166.56" height="160.62" fill="white" transform="translate(0 0.5)"/>
</clipPath>
</defs>
</svg>
