<svg width="111" height="86" viewBox="0 0 111 86" fill="none" xmlns="http://www.w3.org/2000/svg">
<g clip-path="url(#clip0_333_22)">
<path d="M55.35 84.51C54.74 84.51 53.99 84.12 53.85 82.26L53.66 79.71C49.82 79.44 34.75 78.36 33.14 78.11C30.77 77.74 29.99 75.26 29.96 75.16C29.12 72.97 29.04 71.17 29.72 69.86C30.37 68.63 31.46 68.33 31.58 68.3C31.62 68.3 31.66 68.28 31.7 68.28C32.39 68.2 47.08 66.41 51.64 65.91C49.91 55.1 48.4 42.78 48 39.42H42.93C40.68 39.42 38.41 39.27 36.18 38.97C23.7 37.31 10.89 35.61 7.61997 35.2C7.40997 35.92 7.20997 36.62 7.01997 37.27C5.84997 41.33 5.41997 42.85 4.10997 42.85C3.71997 42.85 3.17997 42.68 2.78997 41.85C2.76997 41.81 2.74997 41.77 2.73997 41.73C2.12997 39.82 1.33997 34.79 1.07997 31.18C0.879974 28.41 1.08997 25.64 1.29997 23.55C2.28997 13.39 3.38997 12.57 4.60997 12.57C5.74997 12.57 6.77997 13.28 7.91997 21.73L32.01 20.66C31.99 19.13 31.99 16.1 32.23 13.66C32.23 12.44 32.54 11.73 32.93 11.32C27.3 11.15 27.3 10.64 27.3 9.79001C27.3 8.83001 27.3 8.29001 35.66 8.22001C36.11 7.18001 36.71 6.66001 37.48 6.66001C38.03 6.66001 38.74 6.95001 39.25 8.23001C47.48 8.31001 47.48 8.85001 47.48 9.80001C47.48 10.66 47.48 11.15 41.99 11.32C42.03 11.36 42.08 11.4 42.12 11.45C42.88 12.31 42.78 13.81 42.73 14.24V21.05H48.09C48.41 13.17 52.34 1.01001 55.36 1.01001C58.38 1.01001 62.31 13.17 62.63 21.05H67.99V14.24C67.94 13.8 67.84 12.31 68.61 11.45C68.65 11.4 68.69 11.36 68.74 11.32C63.24 11.15 63.24 10.66 63.25 9.80001C63.25 8.85001 63.25 8.31001 71.48 8.23001C71.98 6.96001 72.7 6.66001 73.25 6.66001C74.01 6.66001 74.62 7.19001 75.07 8.22001C83.43 8.29001 83.43 8.83001 83.43 9.79001C83.43 10.63 83.43 11.15 77.79 11.32C78.18 11.74 78.51 12.47 78.51 13.75C78.74 16.12 78.74 19.13 78.72 20.66L102.81 21.73C103.94 13.28 104.98 12.57 106.12 12.57C107.34 12.57 108.44 13.4 109.43 23.55C109.64 25.64 109.85 28.4 109.65 31.18C109.39 34.79 108.6 39.81 107.99 41.73C107.98 41.77 107.96 41.81 107.94 41.85C107.55 42.67 107 42.85 106.62 42.85C105.31 42.85 104.88 41.33 103.71 37.27C103.52 36.61 103.32 35.91 103.11 35.19C99.88 35.59 87.05 37.29 74.55 38.96C72.32 39.26 70.05 39.41 67.8 39.41H62.73C62.33 42.77 60.82 55.09 59.09 65.9C63.65 66.4 78.34 68.19 79.03 68.27C79.07 68.27 79.11 68.28 79.15 68.29C79.27 68.32 80.36 68.62 81.01 69.85C81.7 71.16 81.61 72.96 80.75 75.22C80.75 75.26 79.96 77.74 77.59 78.11C75.99 78.36 60.92 79.44 57.07 79.71L56.88 82.25C56.74 84.11 55.99 84.5 55.38 84.5L55.35 84.51Z" fill="white"/>
<path d="M55.35 2C57.29 2 61.64 13.57 61.64 22.04H68.98V14.17C68.98 14.17 68.68 11.81 69.98 11.81H71.83C71.86 11.27 71.9 10.79 71.96 10.36C61.57 10.28 61.64 9.28 72.18 9.2C72.45 8.15 72.83 7.64 73.22 7.64C73.61 7.64 74.02 8.17 74.33 9.2C85 9.26 85.09 10.28 74.6 10.36C74.68 10.79 74.74 11.28 74.79 11.81L76.39 11.77C76.39 11.77 76.43 11.76 76.5 11.76C76.78 11.76 77.48 11.94 77.48 13.74C77.8 17.07 77.67 21.6 77.67 21.6L103.65 22.75C104.43 16.62 105.27 13.55 106.08 13.55C106.93 13.55 107.74 16.91 108.4 23.63C108.64 26.11 108.79 28.61 108.61 31.09C108.35 34.67 107.57 39.6 106.99 41.41C106.85 41.7 106.71 41.84 106.57 41.84C105.84 41.84 105.04 38.22 103.77 34.09C103.29 34.11 82.56 36.86 74.36 37.96C72.17 38.25 69.96 38.4 67.75 38.4H61.79C61.79 38.4 59.99 53.85 57.88 66.77C60.32 67 78.85 69.25 78.85 69.25C78.85 69.25 81.63 69.93 79.75 74.85C79.75 74.85 79.15 76.83 77.37 77.11C75.59 77.39 56.07 78.76 56.07 78.76L55.82 82.17C55.82 82.17 55.72 83.5 55.32 83.5C54.92 83.5 54.82 82.17 54.82 82.17L54.57 78.76C54.57 78.76 35.05 77.38 33.27 77.11C31.49 76.83 30.89 74.85 30.89 74.85C29.01 69.93 31.79 69.25 31.79 69.25C31.79 69.25 50.32 66.99 52.76 66.77C50.66 53.84 48.85 38.4 48.85 38.4H42.89C40.68 38.4 38.47 38.25 36.28 37.96C28.08 36.87 7.35998 34.11 6.86998 34.09C5.60998 38.22 4.80998 41.84 4.07998 41.84C3.93998 41.84 3.79998 41.71 3.65998 41.41C3.07998 39.61 2.29998 34.67 2.03998 31.09C1.85998 28.61 2.00998 26.11 2.24998 23.63C2.90998 16.91 3.71998 13.55 4.56998 13.55C5.37998 13.55 6.22998 16.62 6.99998 22.75L32.98 21.6C32.98 21.6 32.85 17.07 33.17 13.74C33.17 11.94 33.87 11.76 34.15 11.76C34.22 11.76 34.26 11.77 34.26 11.77L35.86 11.81C35.91 11.27 35.97 10.79 36.05 10.36C25.56 10.29 25.65 9.26 36.32 9.2C36.63 8.17 37.04 7.64 37.43 7.64C37.82 7.64 38.2 8.15 38.47 9.2C49.01 9.27 49.08 10.27 38.69 10.36C38.75 10.79 38.79 11.28 38.82 11.81H40.67C41.97 11.81 41.67 14.17 41.67 14.17V22.04H49.01C49.01 13.56 53.36 2 55.3 2M55.35 0C54.45 0 52.35 0 49.58 8.21C48.23 12.21 47.37 16.42 47.13 20.05H43.72V14.29C43.76 13.87 43.8 13.06 43.59 12.23C43.99 12.21 44.36 12.18 44.7 12.15C46.29 12.02 48.47 11.84 48.47 9.78C48.47 7.72 46.26 7.54 44.64 7.41C43.43 7.31 41.8 7.25 39.88 7.22C39.13 5.88 38.11 5.64 37.48 5.64C36.73 5.64 35.78 5.95 35.05 7.21C33.07 7.24 31.4 7.3 30.16 7.4C28.53 7.53 26.3 7.71 26.3 9.77C26.3 11.83 28.49 12.01 30.09 12.14C30.48 12.17 30.91 12.2 31.39 12.23C31.29 12.65 31.24 13.11 31.23 13.63C31.04 15.65 31.01 18.04 31.01 19.68L8.78998 20.67C7.79998 13.65 6.78998 11.55 4.61998 11.55C2.17998 11.55 1.20998 14.22 0.309984 23.44C0.0999842 25.57 -0.110016 28.39 0.0899842 31.24C0.359984 34.98 1.14998 40.02 1.79998 42.02C1.82998 42.11 1.85998 42.19 1.89998 42.27C2.56998 43.68 3.67998 43.84 4.11998 43.84C6.17998 43.84 6.74998 41.86 7.98998 37.53C8.10998 37.13 8.22998 36.71 8.34998 36.28C12.08 36.76 22.08 38.08 36.06 39.94C38.33 40.24 40.65 40.4 42.94 40.4H47.12C47.62 44.54 48.96 55.25 50.5 65.01C45.06 65.63 32.24 67.19 31.59 67.27C31.51 67.27 31.44 67.29 31.36 67.31C31.09 67.38 29.69 67.79 28.85 69.38C28.03 70.94 28.09 73 29.04 75.51C29.43 76.7 30.67 78.72 33 79.08C34.55 79.32 47.73 80.27 52.73 80.63L52.85 82.31C53.07 85.18 54.67 85.49 55.35 85.49C56.03 85.49 57.63 85.18 57.85 82.31L57.97 80.62C62.97 80.26 76.15 79.31 77.7 79.07C80.03 78.71 81.28 76.69 81.66 75.5C82.61 72.99 82.67 70.93 81.85 69.37C81.01 67.78 79.61 67.37 79.34 67.3C79.26 67.28 79.19 67.27 79.11 67.26C78.47 67.18 65.64 65.62 60.2 65C61.74 55.24 63.07 44.53 63.58 40.39H67.76C70.05 40.39 72.37 40.24 74.64 39.93C88.61 38.07 98.61 36.75 102.35 36.27C102.47 36.7 102.59 37.12 102.71 37.52C103.95 41.85 104.52 43.83 106.58 43.83C107.02 43.83 108.13 43.68 108.8 42.26C108.84 42.18 108.87 42.09 108.9 42.01C109.54 40 110.34 34.96 110.61 31.23C110.81 28.38 110.61 25.56 110.39 23.43C110.06 20.03 109.68 17.4 109.26 15.61C108.95 14.29 108.31 11.54 106.08 11.54C103.91 11.54 102.9 13.64 101.91 20.66L79.69 19.67C79.69 18.03 79.66 15.64 79.47 13.62C79.47 13.08 79.4 12.62 79.31 12.22C79.79 12.19 80.22 12.17 80.61 12.13C82.21 12 84.4 11.82 84.4 9.76C84.4 7.69 82.17 7.51 80.54 7.39C79.3 7.29 77.63 7.23 75.65 7.2C74.91 5.94 73.96 5.63 73.22 5.63C72.59 5.63 71.57 5.87 70.82 7.21C68.89 7.24 67.27 7.31 66.06 7.4C64.44 7.53 62.23 7.71 62.23 9.77C62.23 11.83 64.41 12.01 66 12.14C66.34 12.17 66.71 12.19 67.11 12.22C66.9 13.04 66.94 13.86 66.98 14.28V20.04H63.57C63.33 16.41 62.46 12.21 61.12 8.2C58.35 0 56.25 0 55.35 0Z" fill="black"/>
</g>
<defs>
<clipPath id="clip0_333_22">
<rect width="110.7" height="85.51" fill="white"/>
</clipPath>
</defs>
</svg>
