<svg width="139" height="116" viewBox="0 0 139 116" fill="none" xmlns="http://www.w3.org/2000/svg">
<g clip-path="url(#clip0_586_27)">
<path d="M69.28 114.68C68.89 114.68 68.23 114.49 68.16 113.25L67.82 105.4C64.99 105.13 55.71 104.26 49.97 103.72C47.36 103.47 45.48 103.3 45.27 103.28C44.01 103.16 43.46 102.11 43.4 101.99C43.33 101.82 42.56 99.7799 42.24 96.6499C42.02 92.6799 44.12 92.3699 44.36 92.3399C50.77 91.5899 62.49 90.1999 65.05 89.8899C64.82 88.5999 63.95 83.7899 62.42 76.4499C60.71 68.2299 60.4 59.7699 60.36 58.2099H49.99C49.86 58.2099 49.51 58.2999 49.35 58.9299C48.88 60.7899 47.73 61.4999 47.61 61.5699C47.53 61.6099 46.53 62.0699 46.14 62.2299C45.88 62.3299 45.55 62.3799 45.1 62.3799C44.7 62.3799 44.33 62.3399 44.33 62.3399C44.25 62.3399 44.17 62.3099 44.1 62.2799C43.95 62.2199 42.61 61.7299 42 61.4099C41.08 60.9199 40.52 59.7399 40.52 58.9299C40.52 58.5699 40.47 58.0799 40.22 57.8199C40.02 57.6099 39.76 57.4799 39.47 57.4399C38 57.2499 34.33 56.7799 29.87 56.1999C19.65 54.8799 4.18997 52.8899 3.61997 52.8299C2.58997 52.7499 2.01997 51.9499 1.92997 51.2399C1.92997 51.1999 1.92997 51.1599 1.92997 51.1099V46.2299C1.81997 45.9699 1.61997 45.5099 1.42997 45.0099C1.14997 44.2199 1.15997 43.5499 1.44997 42.9899C1.53997 42.8099 1.65997 42.6599 1.78997 42.5299V41.5999C1.78997 40.6699 2.47997 40.0899 3.14997 39.9899L39.48 38.0699V29.2799C39.49 28.8799 39.59 28.4299 39.8 27.9999C38.06 27.9799 36.44 27.7599 34.99 27.3599C34.48 27.2199 34.14 26.7499 34.17 26.2199C34.2 25.6699 34.58 25.2299 35.12 25.1299C36.88 24.8099 38.55 24.6499 40.09 24.6499C41.22 24.6499 42.09 24.7399 42.72 24.8299C43.02 24.1699 43.53 23.1299 43.96 22.2599C44.17 21.8399 44.58 21.5899 45.05 21.5899C45.52 21.5899 45.93 21.8499 46.14 22.2599C46.72 23.4299 47.14 24.2799 47.38 24.8199C48 24.7299 48.87 24.6399 49.97 24.6399C51.51 24.6399 53.19 24.7999 54.95 25.1199C55.48 25.2199 55.87 25.6599 55.89 26.2099C55.91 26.7399 55.58 27.2099 55.07 27.3499C53.63 27.7499 52.03 27.9699 50.3 27.9899C50.5 28.4099 50.6 28.8599 50.61 29.2399V37.9299C54.86 37.8999 58.89 37.8699 59.11 37.8699C59.51 37.8699 59.82 37.9499 60.04 38.0299H61.08V33.3299C61.57 22.8499 62.59 14.9399 62.6 14.8599C62.64 14.6299 63.42 10.2299 64.57 7.46986C65.81 4.50986 67.52 2.72986 68.25 1.96986L68.43 1.77986C68.68 1.50986 69.03 1.35986 69.39 1.35986C69.75 1.35986 70.1 1.50986 70.35 1.77986C71.13 2.60986 72.63 4.45986 73.96 7.44986C75.36 10.5999 75.92 14.6799 75.94 14.8499C75.95 14.9299 76.97 22.8399 77.46 33.2699V38.0199H78.51C78.73 37.9299 79.04 37.8599 79.44 37.8599C79.66 37.8599 83.7 37.8899 87.94 37.9199V29.2599C87.95 28.8599 88.05 28.4099 88.26 27.9799C86.53 27.9599 84.93 27.7399 83.49 27.3399C82.98 27.1999 82.64 26.7299 82.67 26.1999C82.7 25.6499 83.08 25.2099 83.62 25.1099C85.38 24.7899 87.05 24.6299 88.6 24.6299C89.71 24.6299 90.57 24.7099 91.19 24.8099C91.49 24.1499 92 23.1099 92.43 22.2499C92.64 21.8399 93.05 21.5799 93.52 21.5799C93.99 21.5799 94.4 21.8399 94.61 22.2499C95.19 23.4199 95.61 24.2799 95.85 24.8199C96.48 24.7199 97.35 24.6399 98.48 24.6399C100.02 24.6399 101.7 24.7999 103.46 25.1199C103.99 25.2199 104.38 25.6599 104.4 26.2099C104.42 26.7399 104.09 27.2099 103.58 27.3499C102.13 27.7499 100.51 27.9699 98.77 27.9899C98.97 28.4099 99.07 28.8599 99.08 29.2399V38.0599L135.69 39.9699C136.46 40.0799 137.15 40.6699 137.15 41.5899V42.5199C137.28 42.6399 137.39 42.7999 137.49 42.9799C137.78 43.5299 137.79 44.1999 137.52 44.9699C137.32 45.4899 137.12 45.9599 137.01 46.2199V51.0999C137.01 51.0999 137.01 51.1799 137.01 51.2299C136.92 51.9399 136.35 52.7399 135.32 52.8199C134.57 52.8899 108.26 56.2499 99.1 57.4299C98.81 57.4699 98.55 57.5999 98.35 57.8099C97.96 58.2199 97.74 58.6299 97.74 58.9299C97.74 59.7399 97.17 60.9199 96.26 61.4099C95.65 61.7399 94.31 62.2299 94.16 62.2799C94.1 62.2999 94.04 62.3199 93.98 62.3299C93.98 62.3299 93.69 62.3799 93.35 62.3799C92.99 62.3799 92.69 62.3299 92.43 62.2299C92.06 62.0799 90.78 61.6599 90.78 61.6499C90.72 61.6299 90.66 61.5999 90.6 61.5699C90.47 61.4999 89.32 60.7799 88.86 58.9299C88.7 58.2999 88.35 58.2099 88.21 58.1999H77.69C77.65 59.7699 77.34 68.2399 75.63 76.4499C74.1 83.7999 73.23 88.6099 73 89.8899C75.56 90.1999 87.27 91.5899 93.69 92.3399C93.91 92.3599 96.01 92.6699 95.79 96.5999C95.46 99.7799 94.7 101.82 94.66 101.91C94.57 102.11 94.02 103.17 92.76 103.29L70.77 105.41L70.43 113.24C70.41 114.58 69.56 114.69 69.3 114.69L69.28 114.68Z" fill="white"/>
<path d="M69.4 2.37988C69.48 2.37988 69.57 2.40988 69.63 2.47988C70.21 3.10988 71.7 4.82988 73.06 7.87988C74.42 10.9399 74.96 15.0099 74.96 15.0099C74.96 15.0099 75.98 22.8399 76.47 33.3499V38.4899C76.47 38.4899 76.65 39.0599 77.25 39.0599H78.75C78.75 39.0599 78.97 38.8999 79.45 38.8999C79.68 38.8999 83.93 38.9299 88.31 38.9699C88.67 38.9699 88.95 38.6799 88.95 38.3299V29.3099C88.95 29.3099 89.01 27.5099 90.69 27.5099H91.61V26.9299C91.61 26.9299 91.61 26.8599 91.61 26.8199C91.01 26.8999 89.92 27.0199 88.58 27.0199C87.14 27.0199 85.43 26.8799 83.75 26.4099C83.61 26.3699 83.64 26.1499 83.78 26.1199C85.72 25.7699 87.32 25.6499 88.58 25.6499C90.27 25.6499 91.34 25.8499 91.79 25.9599C91.82 25.8799 91.85 25.7999 91.88 25.6999C92.04 25.2499 92.91 23.4999 93.3 22.7099C93.34 22.6299 93.42 22.5899 93.49 22.5899C93.56 22.5899 93.64 22.6299 93.68 22.7099C94.07 23.4999 94.94 25.2499 95.1 25.6999C95.14 25.7999 95.17 25.8899 95.2 25.9699C95.63 25.8599 96.72 25.6499 98.45 25.6499C99.71 25.6499 101.31 25.7599 103.25 26.1199C103.39 26.1499 103.43 26.3699 103.28 26.4099C101.6 26.8799 99.88 27.0199 98.45 27.0199C97.02 27.0199 95.97 26.8999 95.38 26.8099C95.38 26.8499 95.38 26.8799 95.38 26.9199V27.4999H96.3C97.99 27.4999 98.04 29.2999 98.04 29.2999V38.4299C98.04 38.7699 98.31 39.0499 98.65 39.0699L135.6 40.9999C135.6 40.9999 136.11 41.0799 136.11 41.6199V43.0799C136.11 43.0799 137.01 43.3299 136.54 44.6699C136.27 45.3899 135.97 46.0399 135.97 46.0399V51.1299C135.97 51.1299 135.89 51.7999 135.19 51.8499C134.55 51.8999 103.91 55.8199 98.93 56.4599C98.41 56.5299 97.94 56.7699 97.58 57.1499C97.16 57.5999 96.7 58.2499 96.7 58.9499C96.7 59.3999 96.31 60.2399 95.75 60.5399C95.18 60.8399 93.77 61.3599 93.77 61.3599C93.77 61.3599 93.55 61.3899 93.3 61.3899C93.11 61.3899 92.91 61.3699 92.75 61.3099C92.37 61.1599 91.05 60.7099 91.05 60.7099C91.05 60.7099 90.15 60.1899 89.77 58.6899C89.4 57.2199 88.22 57.2099 88.17 57.2099H77.4C77.4 57.2099 76.63 57.5099 76.63 57.9699C76.63 58.4299 76.4 67.5299 74.58 76.2599C72.77 84.9899 71.89 90.0799 71.89 90.0799C71.89 90.0799 71.63 90.7299 72.3 90.8299C72.97 90.9299 93.51 93.3499 93.51 93.3499C93.51 93.3499 94.9 93.4799 94.73 96.5599C94.42 99.5899 93.67 101.57 93.67 101.57C93.67 101.57 93.34 102.24 92.61 102.31C91.95 102.37 74 104.1 70.38 104.45C70.02 104.48 69.74 104.78 69.72 105.15L69.37 113.21C69.37 113.21 69.37 113.7 69.24 113.7C69.14 113.7 69.11 113.21 69.11 113.21L68.76 105.15C68.74 104.79 68.46 104.49 68.1 104.45C64.48 104.1 45.98 102.37 45.32 102.31C44.58 102.24 44.26 101.57 44.26 101.57C44.26 101.57 43.51 99.5999 43.2 96.5599C43.03 93.4799 44.42 93.3499 44.42 93.3499C44.42 93.3499 64.99 90.9299 65.65 90.8299C66.32 90.7299 66.06 90.0799 66.06 90.0799C66.06 90.0799 65.18 84.9899 63.37 76.2599C61.56 67.5299 61.32 58.4199 61.32 57.9699C61.32 57.5199 60.55 57.2199 60.55 57.2199H49.95C49.89 57.2199 48.71 57.2399 48.35 58.6999C47.97 60.1999 47.07 60.7199 47.07 60.7199C47.07 60.7199 46.11 61.1599 45.73 61.3199C45.57 61.3799 45.31 61.3999 45.06 61.3999C44.72 61.3999 44.4 61.3699 44.4 61.3699C44.4 61.3699 42.99 60.8499 42.42 60.5499C41.85 60.2499 41.47 59.4099 41.47 58.9599C41.47 58.2599 41.31 57.6099 40.89 57.1599C40.53 56.7799 40.06 56.5399 39.54 56.4699C34.56 55.8299 4.29003 51.9099 3.65003 51.8599C2.96003 51.7999 2.87003 51.1399 2.87003 51.1399V46.0499C2.87003 46.0499 2.58003 45.3999 2.30003 44.6799C1.83003 43.3399 2.73003 43.0899 2.73003 43.0899V41.6299C2.73003 41.0799 3.24003 41.0099 3.24003 41.0099L39.81 39.0799C40.15 39.0599 40.42 38.7799 40.42 38.4399V29.3099C40.42 29.3099 40.48 27.5099 42.16 27.5099H43.08V26.9299C43.08 26.9299 43.08 26.8599 43.08 26.8199C42.49 26.8999 41.38 27.0299 40.01 27.0299C38.57 27.0299 36.86 26.8899 35.18 26.4199C35.04 26.3799 35.07 26.1599 35.21 26.1299C37.15 25.7799 38.75 25.6599 40.01 25.6599C41.74 25.6599 42.83 25.8799 43.26 25.9799C43.29 25.8999 43.32 25.8099 43.36 25.7099C43.52 25.2599 44.39 23.5099 44.78 22.7199C44.82 22.6399 44.9 22.5999 44.97 22.5999C45.04 22.5999 45.12 22.6399 45.16 22.7199C45.55 23.5099 46.42 25.2599 46.58 25.7099C46.62 25.8099 46.65 25.8899 46.67 25.9699C47.12 25.8599 48.2 25.6599 49.88 25.6599C51.14 25.6599 52.74 25.7699 54.68 26.1299C54.82 26.1599 54.86 26.3799 54.71 26.4199C53.03 26.8899 51.31 27.0299 49.88 27.0299C48.54 27.0299 47.45 26.9099 46.85 26.8299C46.85 26.8699 46.85 26.8999 46.85 26.9399V27.5199H47.77C49.46 27.5199 49.51 29.3199 49.51 29.3199V38.3399C49.51 38.6999 49.8 38.9799 50.15 38.9799C54.52 38.9499 58.78 38.9099 59.01 38.9099C59.49 38.9099 59.71 39.0699 59.71 39.0699H61.21C61.81 39.0699 61.98 38.4999 61.98 38.4999V33.3599C62.47 22.8499 63.49 15.0199 63.49 15.0199C63.49 15.0199 64.27 10.5699 65.39 7.88988C66.68 4.81988 68.48 3.11988 69.07 2.48988C69.13 2.41988 69.22 2.38988 69.3 2.38988M69.4 0.379883C68.76 0.379883 68.14 0.649883 67.71 1.11988L67.54 1.29988C66.77 2.09988 64.97 3.96988 63.66 7.09988C62.46 9.95988 61.66 14.4699 61.63 14.6599C61.63 14.6899 61.63 14.7199 61.62 14.7499C61.61 14.8299 60.59 22.7799 60.1 33.2499C60.1 33.2799 60.1 33.3099 60.1 33.3399V37.0099C59.83 36.9399 59.51 36.8899 59.13 36.8899C59.06 36.8899 58.86 36.8899 51.63 36.9499V29.2999C51.63 29.2999 51.63 29.2599 51.63 29.2399C51.63 29.1499 51.63 29.0599 51.61 28.9699C52.94 28.8799 54.2 28.6699 55.35 28.3499C56.31 28.0799 56.95 27.1999 56.9 26.1999C56.85 25.1899 56.13 24.3499 55.14 24.1699C53.32 23.8399 51.59 23.6699 49.98 23.6699C49.21 23.6699 48.54 23.7099 47.98 23.7699C47.74 23.2599 47.42 22.6199 47.04 21.8499C46.66 21.0899 45.9 20.6199 45.06 20.6199C44.22 20.6199 43.46 21.0899 43.08 21.8399C42.65 22.6899 42.35 23.3199 42.13 23.7699C41.57 23.7099 40.89 23.6699 40.09 23.6699C38.49 23.6699 36.75 23.8399 34.93 24.1699C33.94 24.3499 33.21 25.1899 33.17 26.1999C33.12 27.1999 33.76 28.0799 34.72 28.3499C35.89 28.6799 37.16 28.8899 38.5 28.9799C38.5 29.0699 38.48 29.1599 38.48 29.2499C38.48 29.2699 38.48 29.2899 38.48 29.3099V37.1499L3.19003 39.0099C3.13003 39.0099 3.06003 39.0099 3.00003 39.0299C1.90003 39.1899 0.780028 40.1399 0.780028 41.6299V42.1899C0.700028 42.2999 0.620028 42.4199 0.560028 42.5499C0.270028 43.1099 0.0200281 44.0399 0.470028 45.3399C0.470028 45.3599 0.480028 45.3699 0.490028 45.3899C0.650028 45.7999 0.810028 46.1899 0.930028 46.4599V51.1299C0.930028 51.2099 0.930028 51.2999 0.950028 51.3799C1.09003 52.4799 1.96003 53.7099 3.55003 53.8399C4.24003 53.9099 19.46 55.8699 29.53 57.1699C34.09 57.7599 37.86 58.2499 39.35 58.4399C39.4 58.4399 39.44 58.4599 39.47 58.4899C39.49 58.5499 39.53 58.6899 39.53 58.9399C39.53 60.0499 40.24 61.5999 41.54 62.2999C42.2 62.6499 43.51 63.1399 43.77 63.2299C43.92 63.2899 44.08 63.3199 44.24 63.3399C44.28 63.3399 44.68 63.3899 45.12 63.3899C45.7 63.3899 46.15 63.3199 46.53 63.1599C46.94 62.9899 47.86 62.5699 47.97 62.5199C48.03 62.4899 48.08 62.4699 48.13 62.4399C48.4 62.2799 49.78 61.3899 50.34 59.1999H59.42C59.54 62.0799 59.97 69.4699 61.47 76.6499C62.72 82.6499 63.53 86.9599 63.9 89.0299C60.25 89.4699 50.87 90.5799 44.24 91.3599C43.95 91.3899 40.99 91.8099 41.26 96.6699C41.26 96.6999 41.26 96.7299 41.26 96.7599C41.59 100.02 42.41 102.18 42.44 102.27C42.46 102.33 42.49 102.38 42.51 102.44C42.89 103.21 43.81 104.16 45.18 104.29C45.37 104.31 47.1 104.47 49.54 104.7C54.77 105.19 63.26 105.98 66.86 106.33L67.16 113.29C67.3 115.58 68.95 115.69 69.28 115.69C70.05 115.69 71.37 115.18 71.41 113.26L71.71 106.33L92.84 104.29C94.21 104.16 95.13 103.21 95.51 102.44C95.54 102.39 95.56 102.33 95.58 102.27C95.61 102.18 96.43 100.02 96.76 96.7599C96.76 96.7299 96.76 96.6999 96.76 96.6699C97.03 91.8099 94.07 91.3899 93.73 91.3599C87.15 90.5799 77.78 89.4799 74.14 89.0399C74.52 86.9699 75.33 82.6699 76.57 76.6599C78.06 69.4799 78.5 62.0899 78.62 59.2099H87.87C88.43 61.3899 89.81 62.2799 90.08 62.4399C90.2 62.5099 90.32 62.5599 90.45 62.6099C90.98 62.7899 91.82 63.0799 92.05 63.1699C92.43 63.3199 92.85 63.3899 93.34 63.3899C93.73 63.3899 94.04 63.3399 94.13 63.3299C94.25 63.3099 94.38 63.2799 94.5 63.2299C94.76 63.1399 96.07 62.6499 96.73 62.2999C98.02 61.6099 98.72 60.0899 98.74 58.9899C98.76 58.9299 98.86 58.7499 99.08 58.5199C99.12 58.4799 99.17 58.4499 99.23 58.4499C115.44 56.3799 134.65 53.9299 135.42 53.8499C136.99 53.7199 137.86 52.4799 138 51.3899C138.01 51.3099 138.02 51.2199 138.02 51.1399V46.4699C138.14 46.1899 138.3 45.8099 138.46 45.3999C138.46 45.3799 138.47 45.3699 138.48 45.3499C138.94 44.0499 138.68 43.1199 138.39 42.5599C138.32 42.4299 138.25 42.3099 138.17 42.1999V41.6399C138.17 40.1499 137.05 39.1999 135.95 39.0399C135.89 39.0399 135.82 39.0199 135.76 39.0199L100.1 37.1599V29.3199C100.1 29.3199 100.1 29.2799 100.1 29.2599C100.1 29.1699 100.1 29.0799 100.08 28.9899C101.43 28.8999 102.7 28.6899 103.87 28.3599C104.83 28.0899 105.47 27.2099 105.42 26.2099C105.37 25.1999 104.65 24.3599 103.65 24.1799C101.83 23.8499 100.1 23.6799 98.5 23.6799C97.71 23.6799 97.03 23.7199 96.46 23.7799C96.22 23.2699 95.9 22.6299 95.51 21.8499C95.13 21.0899 94.37 20.6199 93.53 20.6199C92.69 20.6199 91.93 21.0899 91.55 21.8399C91.13 22.6899 90.82 23.3099 90.61 23.7699C90.05 23.7099 89.39 23.6699 88.61 23.6699C87.01 23.6699 85.27 23.8399 83.45 24.1699C82.46 24.3499 81.73 25.1799 81.69 26.1999C81.64 27.1999 82.28 28.0899 83.24 28.3499C84.4 28.6699 85.65 28.8799 86.98 28.9699C86.98 29.0599 86.96 29.1499 86.96 29.2399C86.96 29.2599 86.96 29.2799 86.96 29.2999V36.9499C79.73 36.8899 79.52 36.8899 79.46 36.8899C79.08 36.8899 78.76 36.9399 78.49 37.0099V33.3399C78.49 33.3399 78.49 33.2799 78.49 33.2499C78 22.7799 76.98 14.8299 76.97 14.7499C76.95 14.5699 76.37 10.3499 74.91 7.06988C73.59 4.09988 72.12 2.19988 71.11 1.11988C70.67 0.649883 70.06 0.379883 69.42 0.379883L69.4 0.379883Z" fill="black"/>
</g>
<defs>
<clipPath id="clip0_586_27">
<rect width="138.5" height="115.3" fill="white" transform="translate(0.219971 0.379883)"/>
</clipPath>
</defs>
</svg>
