<svg width="683" height="755" viewBox="0 0 683 755" fill="none" xmlns="http://www.w3.org/2000/svg">
<g clip-path="url(#clip0_477_22)">
<path d="M341.413 757.33C349.693 757.33 349.753 735.34 349.753 735.34C349.753 735.34 436.693 747.81 440.323 748.68C443.963 749.55 444.483 744 444.483 744C444.483 744 444.483 742.79 443.273 733.09C442.063 723.39 428.903 716.64 428.903 716.64L358.843 677.41C357.183 676.48 356.413 674.51 356.983 672.7C366.103 643.25 372.663 578.23 375.353 547.94C376.243 537.88 376.693 527.79 376.693 517.69V453.89C376.693 450.57 377.123 447.26 378.013 444.06C379.973 437 381.393 429.42 382.233 424.43C382.783 421.16 383.153 417.88 383.353 414.57L386.413 362.58C386.493 361.18 387.763 360.16 389.153 360.37L424.013 365.75C424.103 378.75 427.843 378.96 428.043 366.37L449.253 369.64C453.373 370.27 457.463 371.02 461.543 371.86C461.603 384.93 465.343 385.23 465.573 372.73C467.703 373.21 469.823 373.7 471.933 374.24L489.163 378.59C492.453 379.42 495.733 380.3 498.993 381.22C499.233 391.18 501.413 391.44 501.753 382.02C504.163 382.72 506.573 383.44 508.973 384.2C514.183 385.84 521.223 388.06 529.473 390.66C529.703 400.69 531.893 400.98 532.233 391.53C539.983 393.97 548.673 396.71 557.853 399.6C557.943 411.1 560.443 411.39 560.663 400.48C569.063 403.13 577.823 405.89 586.603 408.66C586.633 420.76 589.263 421.06 589.423 409.55C631.573 422.85 673.163 435.99 675.853 436.96C681.393 438.95 680.873 434.54 680.873 434.54C680.873 434.54 680.993 433.24 678.453 418.46C674.523 383.59 650.743 376.2 650.743 376.2L538.893 318.91V300.86C538.893 300.86 542.173 300.93 542.873 298.61C544.543 286.07 544.373 280.35 542.873 272.46C542.293 268.42 540.583 268.45 540.583 268.45H522.183C522.183 268.45 518.103 267.9 517.813 271.78C517.053 282.78 516.923 286.76 518.813 297.37C519.683 300.85 522.013 301.09 522.013 301.09V310.08L471.473 282.59V264.83C471.473 264.83 474.753 264.9 475.453 262.58C477.123 250.04 476.953 244.32 475.453 236.43C474.873 232.39 473.163 232.42 473.163 232.42H454.763C454.763 232.42 450.683 231.87 450.393 235.75C449.633 246.75 449.503 250.73 451.393 261.34C452.263 264.82 454.593 265.06 454.593 265.06V273.4L386.253 236.24C385.713 235.94 385.193 235.59 384.723 235.19L379.623 230.82C377.673 229.14 376.543 226.7 376.543 224.12V93.44C376.543 41.95 350.683 8 341.443 8C332.203 8 306.343 41.94 306.343 93.44V224.12C306.343 226.69 305.223 229.14 303.263 230.82L298.163 235.19C297.693 235.59 297.183 235.95 296.633 236.24L228.293 273.4V265.06C228.293 265.06 230.633 264.81 231.493 261.34C233.373 250.73 233.253 246.75 232.493 235.75C232.203 231.86 228.123 232.42 228.123 232.42H209.723C209.723 232.42 208.003 232.39 207.433 236.43C205.933 244.32 205.763 250.04 207.433 262.58C208.133 264.9 211.413 264.83 211.413 264.83V282.59L160.873 310.08V301.09C160.873 301.09 163.213 300.84 164.073 297.37C165.953 286.76 165.833 282.78 165.073 271.78C164.783 267.89 160.703 268.45 160.703 268.45H142.303C142.303 268.45 140.583 268.42 140.013 272.46C138.513 280.35 138.343 286.07 140.013 298.61C140.713 300.93 143.993 300.86 143.993 300.86V318.91L32.143 376.2C32.143 376.2 8.36299 383.59 4.43299 418.46C1.89299 433.24 2.01299 434.54 2.01299 434.54C2.01299 434.54 1.49299 438.96 7.03299 436.96C9.72299 435.99 51.303 422.85 93.463 409.55C93.623 421.06 96.253 420.76 96.283 408.66C105.063 405.89 113.813 403.13 122.223 400.48C122.443 411.39 124.943 411.09 125.033 399.6C134.213 396.71 142.913 393.97 150.653 391.53C150.993 400.98 153.183 400.69 153.413 390.66C161.663 388.06 168.703 385.85 173.913 384.2C176.313 383.44 178.723 382.72 181.133 382.02C181.473 391.44 183.653 391.17 183.893 381.22C187.153 380.3 190.433 379.42 193.723 378.59L210.953 374.24C213.063 373.71 215.193 373.21 217.313 372.73C217.533 385.23 221.273 384.94 221.343 371.86C225.423 371.02 229.513 370.27 233.633 369.64L254.843 366.37C255.043 378.96 258.783 378.75 258.873 365.75L293.733 360.37C295.123 360.16 296.383 361.18 296.473 362.58L299.533 414.57C299.723 417.88 300.103 421.16 300.653 424.43C301.493 429.41 302.923 437 304.873 444.06C305.763 447.26 306.193 450.57 306.193 453.89V517.69C306.193 527.79 306.643 537.88 307.533 547.94C310.213 578.23 316.773 643.25 325.903 672.7C326.463 674.52 325.703 676.48 324.043 677.41L253.983 716.64C253.983 716.64 240.823 723.39 239.613 733.09C238.403 742.79 238.403 744 238.403 744C238.403 744 238.923 749.54 242.563 748.68C246.203 747.81 333.133 735.34 333.133 735.34C333.133 735.34 333.193 757.33 341.473 757.33H341.413Z" fill="white"/>
<path d="M341.413 757.33C349.693 757.33 349.753 735.34 349.753 735.34C349.753 735.34 436.693 747.81 440.323 748.68C443.963 749.55 444.483 744 444.483 744C444.483 744 444.483 742.79 443.273 733.09C442.063 723.39 428.903 716.64 428.903 716.64L358.843 677.41C357.183 676.48 356.413 674.51 356.983 672.7C366.103 643.25 372.663 578.23 375.353 547.94C376.243 537.88 376.693 527.79 376.693 517.69V453.89C376.693 450.57 377.123 447.26 378.013 444.06C379.973 437 381.393 429.42 382.233 424.43C382.783 421.16 383.153 417.88 383.353 414.57L386.413 362.58C386.493 361.18 387.763 360.16 389.153 360.37L424.013 365.75C424.103 378.75 427.843 378.96 428.043 366.37L449.253 369.64C453.373 370.27 457.463 371.02 461.543 371.86C461.603 384.93 465.343 385.23 465.573 372.73C467.703 373.21 469.823 373.7 471.933 374.24L489.163 378.59C492.453 379.42 495.733 380.3 498.993 381.22C499.233 391.18 501.413 391.44 501.753 382.02C504.163 382.72 506.573 383.44 508.973 384.2C514.183 385.84 521.223 388.06 529.473 390.66C529.703 400.69 531.893 400.98 532.233 391.53C539.983 393.97 548.673 396.71 557.853 399.6C557.943 411.1 560.443 411.39 560.663 400.48C569.063 403.13 577.823 405.89 586.603 408.66C586.633 420.76 589.263 421.06 589.423 409.55C631.573 422.85 673.163 435.99 675.853 436.96C681.393 438.95 680.873 434.54 680.873 434.54C680.873 434.54 680.993 433.24 678.453 418.46C674.523 383.59 650.743 376.2 650.743 376.2L538.893 318.91V300.86C538.893 300.86 542.173 300.93 542.873 298.61C544.543 286.07 544.373 280.35 542.873 272.46C542.293 268.42 540.583 268.45 540.583 268.45H522.183C522.183 268.45 518.103 267.9 517.813 271.78C517.053 282.78 516.923 286.76 518.813 297.37C519.683 300.85 522.013 301.09 522.013 301.09V310.08L471.473 282.59V264.83C471.473 264.83 474.753 264.9 475.453 262.58C477.123 250.04 476.953 244.32 475.453 236.43C474.873 232.39 473.163 232.42 473.163 232.42H454.763C454.763 232.42 450.683 231.87 450.393 235.75C449.633 246.75 449.503 250.73 451.393 261.34C452.263 264.82 454.593 265.06 454.593 265.06V273.4L386.253 236.24C385.713 235.94 385.193 235.59 384.723 235.19L379.623 230.82C377.673 229.14 376.543 226.7 376.543 224.12V93.44C376.543 41.95 350.683 8 341.443 8C332.203 8 306.343 41.94 306.343 93.44V224.12C306.343 226.69 305.223 229.14 303.263 230.82L298.163 235.19C297.693 235.59 297.183 235.95 296.633 236.24L228.293 273.4V265.06C228.293 265.06 230.633 264.81 231.493 261.34C233.373 250.73 233.253 246.75 232.493 235.75C232.203 231.86 228.123 232.42 228.123 232.42H209.723C209.723 232.42 208.003 232.39 207.433 236.43C205.933 244.32 205.763 250.04 207.433 262.58C208.133 264.9 211.413 264.83 211.413 264.83V282.59L160.873 310.08V301.09C160.873 301.09 163.213 300.84 164.073 297.37C165.953 286.76 165.833 282.78 165.073 271.78C164.783 267.89 160.703 268.45 160.703 268.45H142.303C142.303 268.45 140.583 268.42 140.013 272.46C138.513 280.35 138.343 286.07 140.013 298.61C140.713 300.93 143.993 300.86 143.993 300.86V318.91L32.143 376.2C32.143 376.2 8.36299 383.59 4.43299 418.46C1.89299 433.24 2.01299 434.54 2.01299 434.54C2.01299 434.54 1.49299 438.96 7.03299 436.96C9.72299 435.99 51.303 422.85 93.463 409.55C93.623 421.06 96.253 420.76 96.283 408.66C105.063 405.89 113.813 403.13 122.223 400.48C122.443 411.39 124.943 411.09 125.033 399.6C134.213 396.71 142.913 393.97 150.653 391.53C150.993 400.98 153.183 400.69 153.413 390.66C161.663 388.06 168.703 385.85 173.913 384.2C176.313 383.44 178.723 382.72 181.133 382.02C181.473 391.44 183.653 391.17 183.893 381.22C187.153 380.3 190.433 379.42 193.723 378.59L210.953 374.24C213.063 373.71 215.193 373.21 217.313 372.73C217.533 385.23 221.273 384.94 221.343 371.86C225.423 371.02 229.513 370.27 233.633 369.64L254.843 366.37C255.043 378.96 258.783 378.75 258.873 365.75L293.733 360.37C295.123 360.16 296.383 361.18 296.473 362.58L299.533 414.57C299.723 417.88 300.103 421.16 300.653 424.43C301.493 429.41 302.923 437 304.873 444.06C305.763 447.26 306.193 450.57 306.193 453.89V517.69C306.193 527.79 306.643 537.88 307.533 547.94C310.213 578.23 316.773 643.25 325.903 672.7C326.463 674.52 325.703 676.48 324.043 677.41L253.983 716.64C253.983 716.64 240.823 723.39 239.613 733.09C238.403 742.79 238.403 744 238.403 744C238.403 744 238.923 749.54 242.563 748.68C246.203 747.81 333.133 735.34 333.133 735.34C333.133 735.34 333.193 757.33 341.473 757.33H341.413Z" stroke="black" stroke-width="4" stroke-linecap="round" stroke-linejoin="round"/>
</g>
<defs>
<clipPath id="clip0_477_22">
<rect width="682.9" height="753.33" fill="white" transform="translate(0 0.840088)"/>
</clipPath>
</defs>
</svg>
