<svg width="198" height="230" viewBox="0 0 198 230" fill="none" xmlns="http://www.w3.org/2000/svg">
<g clip-path="url(#clip0_106_23)">
<path d="M98.9402 220.32C98.5402 220.32 97.8902 218.79 97.3702 217.29C96.7802 215.57 96.4902 213.76 96.5002 211.93L96.5402 206.28C96.5402 206.22 96.4802 206.17 96.4202 206.21C94.2402 207.48 63.2902 225.5 61.1202 226.68C58.9502 227.86 59.5502 226.44 59.5702 223.3C59.2602 219.7 62.2002 216.58 62.2002 216.58L96.5202 183.55C96.7402 183.34 96.8602 183.06 96.8602 182.76L96.8902 178.81C96.5202 178.81 96.1902 177.14 96.2002 176.83C96.2002 176.55 96.1202 176.29 95.9402 176.08L86.6302 165.75C86.2102 165.29 85.9902 164.69 85.9902 164.07V162.45L79.5202 162.4C78.7702 162.4 78.1102 161.89 77.9002 161.17L76.3302 155.57C75.9202 154.12 75.7002 152.62 75.6702 151.12L75.0202 122.32C75.0202 122.07 74.7902 121.9 74.5502 121.95L67.8902 123.46C66.8702 123.69 65.8802 124.06 64.9502 124.56C56.0602 129.32 7.57023 155.32 4.84023 156.94C1.83023 158.72 2.00023 156.47 2.02023 153.77C1.76023 148.82 5.67023 145.71 5.67023 145.71L88.2702 73.1898L88.5002 40.6599C88.5302 35.7299 88.9902 30.8199 89.5802 25.9299C92.3702 2.73985 98.9702 2.83985 98.9702 2.83985C98.9702 2.83985 105.56 2.74985 108.35 25.9099C108.94 30.7999 109.39 35.7198 109.43 40.6399L109.65 73.1699L192.24 145.71C192.24 145.71 196.16 148.83 195.89 153.77C195.91 156.47 196.07 158.71 193.07 156.94C190.34 155.33 141.85 129.31 132.97 124.55C132.04 124.05 131.06 123.69 130.03 123.45L123.37 121.94C123.13 121.89 122.9 122.06 122.9 122.31L122.24 151.11C122.21 152.62 121.98 154.11 121.58 155.56L120.01 161.16C119.81 161.89 119.15 162.39 118.39 162.39L111.91 162.43V164.05C111.93 164.67 111.7 165.27 111.28 165.73L101.97 176.06C101.79 176.26 101.71 176.53 101.71 176.81C101.71 177.12 101.38 178.79 101.02 178.79L101.05 182.74C101.05 183.04 101.17 183.33 101.39 183.53L135.7 216.56C135.7 216.56 138.64 219.69 138.33 223.28C138.35 226.43 139.04 227.88 136.78 226.66C134.52 225.44 103.66 207.45 101.48 206.19C101.42 206.16 101.36 206.2 101.36 206.26L101.4 211.91C101.41 213.73 101.12 215.54 100.53 217.27C100.01 218.77 99.3602 220.29 98.9602 220.3L98.9402 220.32Z" fill="white"/>
<path d="M98.9698 2.83984C99.0698 2.83984 105.59 2.92984 108.35 25.9098C108.94 30.7998 109.39 35.7198 109.43 40.6398L109.65 73.1798L192.24 145.72C192.24 145.72 196.16 148.84 195.89 153.78C195.9 155.81 196 157.58 194.77 157.58C194.36 157.58 193.81 157.39 193.07 156.95C190.34 155.34 141.85 129.32 132.97 124.56C132.04 124.06 131.06 123.7 130.03 123.46L123.37 121.95C123.37 121.95 123.31 121.95 123.28 121.95C123.07 121.95 122.9 122.11 122.89 122.33L122.23 151.13C122.2 152.64 121.97 154.13 121.57 155.58L120 161.18C119.8 161.91 119.14 162.41 118.38 162.41L111.9 162.45V164.07C111.92 164.69 111.69 165.29 111.27 165.75L101.96 176.08C101.78 176.28 101.7 176.55 101.7 176.83C101.7 177.14 101.37 178.81 101.01 178.81L101.04 182.76C101.04 183.06 101.16 183.35 101.38 183.55L135.69 216.58C135.69 216.58 138.63 219.71 138.32 223.3C138.34 225.7 138.74 227.11 137.93 227.11C137.68 227.11 137.31 226.97 136.77 226.68C134.59 225.5 103.65 207.47 101.47 206.21C101.46 206.21 101.44 206.2 101.43 206.2C101.39 206.2 101.35 206.24 101.35 206.29L101.39 211.94C101.4 213.76 101.11 215.57 100.52 217.29C99.9998 218.79 99.3498 220.31 98.9498 220.32C98.5498 220.32 97.8998 218.79 97.3798 217.29C96.7898 215.57 96.4998 213.76 96.5098 211.93L96.5498 206.28C96.5498 206.28 96.5098 206.19 96.4698 206.19C96.4598 206.19 96.4398 206.19 96.4298 206.2C94.2498 207.47 63.2998 225.49 61.1298 226.67C60.5898 226.96 60.2198 227.1 59.9698 227.1C59.1598 227.1 59.5598 225.68 59.5798 223.29C59.2698 219.69 62.2098 216.57 62.2098 216.57L96.5298 183.54C96.7498 183.33 96.8698 183.05 96.8698 182.75L96.8998 178.8C96.5298 178.8 96.1998 177.13 96.2098 176.82C96.2098 176.54 96.1298 176.28 95.9498 176.07L86.6398 165.74C86.2198 165.28 85.9998 164.68 85.9998 164.06V162.44L79.5298 162.39C78.7798 162.39 78.1198 161.88 77.9098 161.16L76.3398 155.56C75.9298 154.11 75.7098 152.61 75.6798 151.11L75.0298 122.31C75.0298 122.09 74.8498 121.93 74.6398 121.93C74.6098 121.93 74.5798 121.93 74.5498 121.93L67.8898 123.44C66.8698 123.67 65.8798 124.04 64.9498 124.54C56.0598 129.3 7.5698 155.3 4.8398 156.92C4.0898 157.36 3.5398 157.55 3.1398 157.55C1.9098 157.55 2.0098 155.78 2.0198 153.75C1.7598 148.8 5.6698 145.69 5.6698 145.69L88.2698 73.1698L88.4998 40.6398C88.5298 35.7098 88.9898 30.7998 89.5798 25.9098C92.3498 2.93984 98.8598 2.84984 98.9698 2.84984M98.9698 0.839844C98.3198 0.839844 96.0398 1.10984 93.6198 4.62984C90.8098 8.71984 88.7798 15.7998 87.5898 25.6698C87.0998 29.7398 86.5298 35.1098 86.4898 40.6298L86.2698 72.2698L4.3698 144.17C3.8498 144.6 -0.260203 148.19 0.00979696 153.8V154.11C-0.010203 155.91 -0.030203 157.61 1.0698 158.72C1.6098 159.27 2.3298 159.56 3.1298 159.56C3.9298 159.56 4.7998 159.27 5.8498 158.65C7.9298 157.42 39.4998 140.46 65.8898 126.31C66.6598 125.9 67.4698 125.59 68.3198 125.4L73.0598 124.33L73.6698 151.16C73.7098 152.83 73.9598 154.5 74.4098 156.11L75.9798 161.71C76.4198 163.29 77.8698 164.39 79.5098 164.41L84.0098 164.44C84.0898 165.42 84.4798 166.35 85.1498 167.09L94.2298 177.17C94.2798 177.7 94.4298 178.72 94.8998 179.55L94.8798 182.38L60.8298 215.15C60.8298 215.15 60.7798 215.2 60.7598 215.22C60.6198 215.37 57.2598 218.99 57.5798 223.38C57.5798 223.97 57.5398 224.5 57.5098 224.98C57.4298 226.38 57.3598 227.49 58.1998 228.38C58.6598 228.86 59.2798 229.13 59.9698 229.13C60.5798 229.13 61.2098 228.93 62.0798 228.46C63.9398 227.45 86.3998 214.39 94.5298 209.66L94.5098 211.94C94.4998 214.01 94.8198 216.04 95.4898 217.96C96.4898 220.85 97.2898 222.32 98.9298 222.33C100.6 222.32 101.4 220.85 102.4 217.96C103.06 216.04 103.39 214.01 103.38 211.94L103.36 209.66C113.17 215.37 133.98 227.49 135.8 228.47C136.67 228.94 137.3 229.14 137.91 229.14C138.6 229.14 139.22 228.87 139.68 228.39C140.51 227.51 140.45 226.4 140.37 225C140.34 224.53 140.31 223.99 140.3 223.4C140.63 219.01 137.27 215.39 137.13 215.23C137.11 215.21 137.08 215.18 137.06 215.16L103.02 182.39L103 179.53C103.16 179.24 103.29 178.89 103.41 178.5C103.49 178.2 103.63 177.65 103.67 177.18L112.75 167.11C113.42 166.37 113.81 165.44 113.89 164.46L118.39 164.43C120.03 164.42 121.48 163.31 121.92 161.74L123.49 156.14C123.94 154.53 124.19 152.87 124.23 151.19L124.84 124.36L129.58 125.43C130.43 125.62 131.25 125.93 132.01 126.34C141.56 131.46 189.36 157.11 192.04 158.69C193.09 159.31 193.96 159.6 194.76 159.6C195.56 159.6 196.28 159.31 196.82 158.76C197.91 157.66 197.9 155.95 197.88 154.15V153.84C198.15 148.22 194.04 144.64 193.52 144.21L111.63 72.2798L111.41 40.6398C111.37 35.1198 110.81 29.7498 110.32 25.6798C109.13 15.8098 107.11 8.72984 104.3 4.63984C101.89 1.12984 99.5998 0.849844 98.9598 0.849844L98.9698 0.839844Z" fill="black"/>
</g>
<defs>
<clipPath id="clip0_106_23">
<rect width="197.9" height="228.28" fill="white" transform="translate(0 0.839844)"/>
</clipPath>
</defs>
</svg>
