<svg width="200" height="213" viewBox="0 0 200 213" fill="none" xmlns="http://www.w3.org/2000/svg">
<g clip-path="url(#clip0_104_18)">
<path d="M70.4196 210.19L98.3296 201.38C98.4496 201.34 98.5796 201.41 98.6196 201.53C98.8296 202.22 99.5396 204.31 100.41 204.3C101.28 204.3 101.97 202.2 102.17 201.51C102.21 201.39 102.34 201.32 102.46 201.36L130.46 209.86C130.92 210 131.39 209.64 131.36 209.16C131.31 207.95 131.2 205.81 131.07 203.85C130.87 200.9 128.19 199.13 128.19 199.13L103.21 182.31C103.03 182.19 102.94 181.98 102.99 181.77C103.54 178.92 107.35 159.27 107.84 157.2C111.35 154.76 116.25 152.49 117.71 151.09C117.92 150.88 118.28 150.99 118.34 151.28C118.48 151.92 119.04 152.37 119.69 152.38C120.19 152.38 120.82 152.38 121.46 152.35C122.15 152.32 122.72 151.98 123.13 151.62C123.6 151.21 123.91 150.65 124.02 150.04L126.62 135.52C126.66 135.3 126.78 135.11 126.96 134.98C127.14 134.85 127.4 134.67 127.71 134.47C128.6 133.44 128.5 130.98 128.5 130.98V115.15C128.5 113.48 127.32 113.12 127.32 113.12H130.61C130.8 114.36 131.08 115.87 131.37 115.87C131.7 115.87 131.98 114.23 132.13 113.12H135.64C136.46 113.12 137.28 113.25 138.07 113.51L143.09 115.17C143.23 116.32 143.61 119.02 144 119.02C144.39 119.02 144.71 116.76 144.83 115.75L153.78 118.71C153.9 119.71 154.3 122.76 154.71 122.76C155.12 122.76 155.46 120.18 155.57 119.3L164.92 122.39C165.06 123.54 165.44 126.24 165.83 126.24C166.22 126.24 166.54 123.97 166.66 122.96L187.24 129.77C188.02 130.03 188.82 130.23 189.62 130.37L191.72 130.73C192.04 130.79 192.35 130.91 192.61 131.1C193.29 131.58 194.66 132.58 195.61 133.44C197.31 135.14 197.97 134.23 197.97 134.23V130.31C197.97 129.78 197.83 129.27 197.57 128.81L190.62 116.74C190.37 116.3 190 115.95 189.55 115.71L136.87 87.7501L113.26 69.8201C113.01 69.6301 112.87 69.3401 112.87 69.0401V41.1501C112.87 35.0901 112.16 29.0501 110.65 23.1801C109.37 18.2101 107.54 12.5801 105.14 8.82009C103.32 5.67009 101.45 3.65009 100.32 2.60009C99.7196 2.04009 98.7896 2.05009 98.1996 2.61009C97.0796 3.68009 95.2296 5.72009 93.4496 8.89009C91.0996 12.6601 89.3296 18.2901 88.1096 23.2601C86.6596 29.1501 86.0096 35.2101 86.0696 41.2801L86.3796 69.1901C86.3796 69.5001 86.2396 69.7901 85.9996 69.9801L62.5996 88.1701L10.2296 116.71C9.78956 116.95 9.41956 117.31 9.16956 117.75L2.37956 129.9C2.11956 130.36 1.98956 130.88 1.99956 131.4L2.03956 135.32C2.03956 135.32 2.70956 136.23 4.38956 134.51C5.32956 133.64 6.68956 132.63 7.35956 132.14C7.61956 131.95 7.92956 131.82 8.24956 131.76L10.3496 131.37C11.1596 131.22 11.9496 131.01 12.7296 130.75L33.2296 123.71C33.3696 124.71 33.7196 126.98 34.0996 126.98C34.4896 126.98 34.8396 124.27 34.9696 123.12L44.2796 119.92C44.3896 120.8 44.7696 123.37 45.1696 123.37C45.5796 123.37 45.9496 120.31 46.0596 119.31L54.9796 116.25C55.1196 117.26 55.4696 119.52 55.8496 119.51C56.2396 119.51 56.5796 116.81 56.7196 115.65L61.7196 113.93C62.4996 113.66 63.3196 113.52 64.1396 113.51L67.6496 113.47C67.8196 114.58 68.1196 116.22 68.4496 116.21C68.7396 116.21 69.0096 114.69 69.1796 113.45L72.4696 113.41C72.4696 113.41 71.2896 113.78 71.3096 115.46C71.3296 117.14 71.4896 131.29 71.4896 131.29C71.4896 131.29 71.4196 133.75 72.3196 134.77C72.6296 134.97 72.8996 135.14 73.0796 135.27C73.2596 135.4 73.3796 135.59 73.4196 135.8L76.1796 150.29C76.2996 150.9 76.6096 151.46 77.0796 151.86C77.4996 152.21 78.0696 152.55 78.7496 152.57C79.3996 152.59 80.0196 152.59 80.5196 152.57C81.1696 152.56 81.7196 152.1 81.8596 151.46C81.9196 151.17 82.2796 151.06 82.4896 151.26C83.9696 152.64 88.8996 154.86 92.4296 157.26C92.9396 159.32 96.9696 178.94 97.5496 181.77C97.5896 181.98 97.5096 182.19 97.3296 182.31L72.5396 199.4C72.5396 199.4 69.8696 201.2 69.7096 204.15C69.5996 206.11 69.5196 208.25 69.4796 209.46C69.4596 209.94 69.9296 210.29 70.3896 210.15L70.4196 210.19Z" fill="white"/>
<path d="M99.2903 2.17004C99.6703 2.17004 100.05 2.31004 100.34 2.59004C101.47 3.65004 103.34 5.66004 105.16 8.81004C107.56 12.57 109.39 18.2 110.67 23.17C112.18 29.04 112.89 35.08 112.89 41.14V69.03C112.89 69.34 113.03 69.63 113.28 69.81L136.89 87.74L189.57 115.7C190.02 115.94 190.39 116.29 190.64 116.73L197.59 128.8C197.85 129.26 197.99 129.77 197.99 130.3V134.22C197.99 134.22 197.81 134.47 197.41 134.47C197.03 134.47 196.45 134.26 195.63 133.44C194.68 132.58 193.31 131.58 192.63 131.1C192.36 130.91 192.06 130.78 191.74 130.73L189.64 130.37C188.83 130.23 188.03 130.03 187.26 129.77L166.68 122.96C166.55 123.97 166.23 126.24 165.85 126.24C165.47 126.24 165.08 123.53 164.94 122.39L155.59 119.3C155.48 120.18 155.14 122.76 154.73 122.76C154.32 122.76 153.92 119.71 153.8 118.71L144.85 115.75C144.72 116.76 144.4 119.02 144.02 119.02C143.64 119.02 143.26 116.33 143.11 115.17L138.09 113.51C137.31 113.25 136.49 113.12 135.66 113.12H132.15C131.99 114.23 131.71 115.87 131.39 115.87C131.1 115.87 130.82 114.36 130.63 113.12H127.34C127.34 113.12 128.52 113.48 128.52 115.15V130.98C128.52 130.98 128.62 133.44 127.73 134.47C127.42 134.67 127.16 134.85 126.98 134.98C126.8 135.11 126.68 135.3 126.64 135.52L124.04 150.04C123.93 150.65 123.62 151.21 123.15 151.62C122.74 151.98 122.17 152.32 121.48 152.35C120.98 152.37 120.5 152.38 120.07 152.38C119.94 152.38 119.82 152.38 119.71 152.38C119.06 152.38 118.5 151.92 118.36 151.28C118.32 151.09 118.15 150.98 117.99 150.98C117.9 150.98 117.81 151.01 117.73 151.09C116.27 152.49 111.36 154.76 107.85 157.2C107.36 159.27 103.55 178.92 103 181.77C102.96 181.98 103.05 182.19 103.22 182.31L128.2 199.13C128.2 199.13 130.89 200.9 131.08 203.85C131.21 205.81 131.31 207.95 131.37 209.16C131.39 209.57 131.06 209.89 130.67 209.89C130.6 209.89 130.53 209.89 130.46 209.86L102.46 201.36C102.46 201.36 102.41 201.35 102.39 201.35C102.29 201.35 102.2 201.41 102.17 201.51C101.96 202.21 101.28 204.3 100.41 204.3C99.5403 204.3 98.8403 202.22 98.6203 201.53C98.5903 201.43 98.5003 201.37 98.4003 201.37C98.3803 201.37 98.3503 201.37 98.3303 201.38L70.4203 210.19C70.3503 210.21 70.2803 210.22 70.2103 210.22C69.8303 210.22 69.5003 209.91 69.5103 209.5C69.5503 208.29 69.6303 206.15 69.7403 204.19C69.9003 201.24 72.5703 199.44 72.5703 199.44L97.3603 182.35C97.5303 182.23 97.6203 182.02 97.5803 181.81C97.0003 178.97 92.9703 159.36 92.4603 157.3C88.9303 154.9 84.0003 152.68 82.5203 151.3C82.4403 151.23 82.3503 151.2 82.2603 151.2C82.0903 151.2 81.9303 151.31 81.8803 151.5C81.7403 152.14 81.1903 152.6 80.5403 152.61C80.3103 152.61 80.0503 152.61 79.7803 152.61C79.4603 152.61 79.1203 152.61 78.7703 152.59C78.0803 152.57 77.5103 152.24 77.1003 151.88C76.6303 151.48 76.3103 150.92 76.2003 150.31L73.4403 135.82C73.4003 135.6 73.2803 135.41 73.1003 135.29C72.9203 135.16 72.6503 134.99 72.3403 134.79C71.4403 133.77 71.5103 131.31 71.5103 131.31C71.5103 131.31 71.3503 117.15 71.3303 115.48C71.3103 113.81 72.4903 113.43 72.4903 113.43L69.2003 113.47C69.0303 114.72 68.7603 116.23 68.4703 116.23C68.1403 116.23 67.8403 114.59 67.6803 113.49L64.1703 113.53C63.3503 113.53 62.5303 113.68 61.7503 113.95L56.7503 115.67C56.6203 116.82 56.2703 119.52 55.8803 119.53C55.5003 119.53 55.1503 117.27 55.0103 116.27L46.0903 119.33C45.9803 120.33 45.6103 123.38 45.2003 123.39C44.7903 123.39 44.4203 120.82 44.3103 119.94L35.0003 123.14C34.8703 124.29 34.5203 127 34.1303 127C33.7503 127 33.4003 124.73 33.2603 123.73L12.7603 130.77C11.9803 131.04 11.1903 131.24 10.3803 131.39L8.28033 131.78C7.96033 131.84 7.65033 131.97 7.39033 132.16C6.72033 132.65 5.36033 133.66 4.42033 134.53C3.60033 135.37 3.02033 135.58 2.64033 135.58C2.24033 135.58 2.06033 135.34 2.06033 135.34L2.02033 131.42C2.02033 130.89 2.15033 130.38 2.40033 129.92L9.22033 117.77C9.47033 117.33 9.83033 116.97 10.2803 116.73L62.6503 88.19L86.0503 70C86.2903 69.81 86.4303 69.52 86.4303 69.21L86.1203 41.3C86.0503 35.23 86.7103 29.17 88.1603 23.28C89.3803 18.31 91.1503 12.68 93.5003 8.91004C95.2903 5.74004 97.1403 3.70004 98.2503 2.63004C98.5503 2.35004 98.9303 2.20004 99.3103 2.20004M99.2903 0.170044C98.3703 0.170044 97.5003 0.520044 96.8403 1.15004C95.5503 2.39004 93.6103 4.56004 91.7503 7.85004C89.6703 11.21 87.8003 16.22 86.1903 22.76C84.7303 28.7 84.0303 34.93 84.1003 41.28L84.4103 68.69L61.5303 86.47L9.30033 114.94C8.53033 115.36 7.89033 115.99 7.46033 116.76L0.640326 128.91C0.210326 129.67 -0.00967371 130.54 0.000326293 131.41L0.0403263 135.33C0.0403263 135.75 0.180326 136.15 0.430326 136.49C0.800326 137 1.58033 137.55 2.62033 137.55C3.66033 137.55 4.71033 137.02 5.79033 135.94C6.68033 135.12 8.01033 134.14 8.55033 133.75C8.57033 133.73 8.60033 133.72 8.63033 133.72L10.7303 133.33C11.6303 133.16 12.5303 132.93 13.4003 132.63L31.6803 126.36C32.0403 127.84 32.6803 128.97 34.1303 128.97C36.0403 128.95 36.5103 127.11 36.8403 124.59L42.7203 122.57C43.0803 124.14 43.7203 125.35 45.2103 125.35C47.1503 125.33 47.6203 123.4 47.9403 120.77L53.4403 118.88C53.8003 120.36 54.4403 121.49 55.8803 121.49C57.7903 121.47 58.2603 119.63 58.5903 117.12L62.4103 115.81C62.9903 115.61 63.5903 115.51 64.2003 115.5L66.0203 115.48C66.3603 116.96 66.9603 118.21 68.4903 118.21C68.8303 118.21 69.1303 118.14 69.3803 118.03L69.5303 131.27C69.5103 132.08 69.5603 134.62 70.8503 136.09C70.9803 136.24 71.1303 136.36 71.3003 136.47C71.4003 136.53 71.5003 136.59 71.5903 136.65L74.2603 150.67C74.4603 151.74 75.0203 152.7 75.8303 153.39C76.7003 154.13 77.7103 154.54 78.7403 154.57C79.1103 154.58 79.4703 154.59 79.8103 154.59C80.1003 154.59 80.3703 154.59 80.6203 154.59C81.3903 154.57 82.1103 154.3 82.6703 153.85C83.6003 154.44 84.7703 155.09 86.1003 155.83C87.5903 156.66 89.2603 157.58 90.7203 158.51C91.4103 161.61 93.5903 172.14 95.4603 181.24L71.4703 197.78C71.3403 197.86 67.9903 200.17 67.7803 204.07C67.6703 206.09 67.5903 208.29 67.5503 209.43C67.5303 210.17 67.7903 210.87 68.3103 211.39C68.8203 211.91 69.5203 212.21 70.2503 212.21C70.5303 212.21 70.8003 212.17 71.0703 212.08L97.3803 203.78C97.9503 204.99 98.9003 206.29 100.45 206.29C102 206.29 102.97 204.96 103.53 203.74L129.93 211.75C130.19 211.83 130.45 211.87 130.72 211.87C131.45 211.87 132.16 211.57 132.67 211.04C133.18 210.51 133.45 209.79 133.41 209.06C133.36 207.92 133.26 205.72 133.12 203.71C132.86 199.81 129.48 197.55 129.34 197.45L105.18 181.19C106.95 172.06 109.01 161.51 109.67 158.4C111.11 157.45 112.77 156.51 114.26 155.67C115.59 154.92 116.75 154.26 117.67 153.65C118.24 154.1 118.96 154.36 119.73 154.37H120.11C120.56 154.37 121.08 154.37 121.61 154.34C122.64 154.3 123.64 153.87 124.5 153.12C125.3 152.42 125.85 151.45 126.04 150.38L128.56 136.33C128.65 136.27 128.74 136.21 128.85 136.14C129.01 136.03 129.16 135.91 129.29 135.76C130.56 134.28 130.59 131.74 130.56 130.93V117.69C130.81 117.8 131.1 117.85 131.43 117.85C132.97 117.85 133.57 116.59 133.89 115.1H135.71C136.32 115.1 136.93 115.2 137.51 115.39L141.34 116.66C141.69 119.17 142.18 121 144.07 121C145.53 121 146.16 119.86 146.51 118.37L152.03 120.2C152.38 122.82 152.87 124.75 154.79 124.75C156.3 124.75 156.93 123.53 157.27 121.94L163.17 123.89C163.52 126.4 164.01 128.24 165.9 128.24C167.37 128.24 167.99 127.1 168.34 125.6L186.69 131.67C187.56 131.96 188.46 132.18 189.36 132.34L191.46 132.7C191.46 132.7 191.51 132.72 191.54 132.73C192.08 133.11 193.42 134.08 194.32 134.89C195.39 135.95 196.43 136.47 197.47 136.47C198.51 136.47 199.31 135.91 199.68 135.39C199.92 135.05 200.05 134.64 200.05 134.23V130.31C200.05 129.44 199.82 128.57 199.38 127.81L192.43 115.74C191.99 114.98 191.35 114.35 190.57 113.94L138.03 86.06L114.95 68.53V41.15C114.95 34.8 114.18 28.58 112.66 22.68C110.98 16.13 109.05 11.12 106.92 7.78004C105.02 4.51004 103.06 2.36004 101.76 1.14004C101.05 0.510044 100.19 0.170044 99.2903 0.170044Z" fill="black"/>
</g>
<defs>
<clipPath id="clip0_104_18">
<rect width="200" height="212.05" fill="white" transform="translate(0 0.170044)"/>
</clipPath>
</defs>
</svg>
