<svg width="85" height="73" viewBox="0 0 85 73" fill="none" xmlns="http://www.w3.org/2000/svg">
<g clip-path="url(#clip0_427_7)">
<path d="M42.7099 71.6602C42.1099 71.6602 41.6199 71.1902 41.5799 70.5902L41.3599 66.7202L40.9499 67.5902C40.7799 67.9502 40.4199 68.1702 40.0399 68.1702C39.9599 68.1702 39.8699 68.1602 39.7899 68.1402C39.4599 68.0502 31.7299 66.0402 30.1999 65.5202C28.5999 64.9202 27.8799 63.5802 27.6799 62.8002C27.5499 62.4502 27.3399 61.6202 27.5799 60.1502C27.8699 58.3702 29.2099 57.7102 29.9499 57.5902C30.0899 57.5802 38.1399 56.8002 40.1399 56.5902C39.5799 53.2602 37.5499 41.1402 37.4099 39.9802C37.2499 38.6902 37.1799 38.1902 37.1799 38.1802C37.1599 37.9502 37.0799 36.6802 37.0399 35.9402C36.8799 35.8802 36.6799 35.8102 36.4799 35.7602H23.8699C14.7199 35.2202 7.50992 32.7702 2.95992 28.6802L2.87992 28.6102C1.60992 27.4702 1.49992 26.0702 1.49992 25.9102L1.40992 22.8302C1.37992 22.3002 1.68992 21.4702 2.65992 20.9602C8.08992 18.7002 15.5099 18.6802 15.8199 18.6802H30.4499C30.5399 17.9002 30.7999 16.8702 31.4499 16.1902C31.8999 15.7202 32.4899 15.4702 33.1399 15.4702C33.7899 15.4702 34.3699 15.7202 34.8099 16.1902C35.4599 16.9002 35.6799 17.9702 35.7399 18.7802H36.5299C36.5599 17.7402 36.7799 10.7302 37.2599 8.51023C37.4999 7.41023 37.8599 6.73023 38.2499 6.33023C32.7599 6.20023 32.7599 5.71023 32.7599 4.86023C32.7599 3.90023 32.7599 3.40023 40.6099 3.36023C40.9799 2.26023 41.6399 0.990234 42.7099 0.990234C43.7799 0.990234 44.4399 2.26023 44.8099 3.36023C52.6499 3.41023 52.6499 3.90023 52.6599 4.86023C52.6599 5.71023 52.6599 6.20023 47.1699 6.33023C47.5599 6.73023 47.9199 7.41023 48.1599 8.51023C48.6499 10.7302 48.8599 17.7402 48.8899 18.7802H49.6799C49.7399 17.9602 49.9499 16.8902 50.6099 16.1902C51.0499 15.7202 51.6299 15.4702 52.2799 15.4702C52.9299 15.4702 53.5199 15.7202 53.9699 16.1902C54.6199 16.8702 54.8799 17.9002 54.9699 18.6802H69.5999C69.9099 18.6802 77.3299 18.7102 82.6799 20.9302C83.7299 21.4802 84.0399 22.3102 84.0099 22.8702L83.9199 25.9102C83.9199 26.0802 83.8099 27.4902 82.5299 28.6202L82.4499 28.6902C77.8999 32.7802 70.6899 35.2302 61.5999 35.7702H48.9299C48.7399 35.8202 48.5299 35.8902 48.3699 35.9502C48.3399 36.6802 48.2499 37.9402 48.2399 38.1202C48.2399 38.2002 48.1599 38.7002 47.9999 39.9902C47.8599 41.1502 45.8299 53.2702 45.2699 56.6002C47.2699 56.8002 55.3199 57.5802 55.4099 57.5902C56.2099 57.7102 57.5399 58.3802 57.8299 60.1502C58.0699 61.6202 57.8599 62.4502 57.7199 62.8002C57.5199 63.5802 56.7999 64.9202 55.2299 65.5102C53.6699 66.0402 45.9399 68.0602 45.6099 68.1402C45.5299 68.1602 45.4399 68.1702 45.3599 68.1702C44.9799 68.1702 44.6199 67.9502 44.4499 67.5902L44.0399 66.7202L43.8199 70.5902C43.7899 71.1902 43.2899 71.6502 42.6899 71.6502L42.7099 71.6602Z" fill="white"/>
<path d="M42.7099 2C43.1699 2 43.7399 3.12 44.0499 4.37C54.1099 4.39 54.1799 5.35 44.2499 5.38C44.3199 5.92 44.3399 6.42 44.2799 6.81H45.7799C45.7799 6.81 45.8299 6.79 45.9099 6.79C46.1799 6.79 46.7899 7 47.1699 8.74C47.6699 11.02 47.8799 18.94 47.8799 18.94C47.8799 18.94 47.6699 19.8 48.8099 19.8H50.6599C50.6599 19.8 50.4099 16.48 52.2599 16.48C54.1099 16.48 54.0099 19.68 54.0099 19.68H69.5899C69.6499 19.68 77.0599 19.68 82.2799 21.85C83.0299 22.24 82.9999 22.81 82.9999 22.81L82.9099 25.88C82.9099 25.88 82.8599 26.99 81.8599 27.88C80.8599 28.77 75.4399 33.96 61.5299 34.78H48.7999C48.7999 34.78 47.3699 35.1 47.3699 35.53C47.3699 35.96 47.2299 38.06 47.2299 38.06C47.2299 38.06 47.1599 38.57 46.9999 39.88C46.8399 41.19 44.1399 57.26 44.1399 57.26C44.1399 57.26 44.0599 57.47 44.7399 57.55C45.4199 57.63 55.3099 58.59 55.3099 58.59C55.3099 58.59 56.5899 58.79 56.8399 60.32C57.0899 61.85 56.7699 62.5 56.7699 62.5C56.7699 62.5 56.4499 64 54.8799 64.59C53.3599 65.11 45.3599 67.19 45.3599 67.19L43.2699 62.7L42.8299 70.55C42.8299 70.63 42.7599 70.67 42.6999 70.67C42.6399 70.67 42.5799 70.63 42.5699 70.55L42.1299 62.7L40.0399 67.19C40.0399 67.19 32.0299 65.1 30.5199 64.59C28.9499 64 28.6299 62.5 28.6299 62.5C28.6299 62.5 28.3099 61.86 28.5599 60.32C28.8099 58.79 30.0899 58.59 30.0899 58.59C30.0899 58.59 39.9899 57.63 40.6599 57.55C41.3299 57.47 41.2599 57.26 41.2599 57.26C41.2599 57.26 38.5599 41.19 38.3999 39.88C38.2399 38.57 38.1699 38.06 38.1699 38.06C38.1699 38.06 38.0299 35.96 38.0299 35.53C38.0299 35.1 36.5999 34.78 36.5999 34.78H23.8699C9.9599 33.96 4.5399 28.77 3.5399 27.88C2.5399 26.99 2.4899 25.88 2.4899 25.88L2.3999 22.81C2.3999 22.81 2.3699 22.24 3.1199 21.85C8.3399 19.68 15.7499 19.68 15.8099 19.68H31.3899C31.3899 19.68 31.2799 16.48 33.1399 16.48C34.9999 16.48 34.7399 19.8 34.7399 19.8H36.5899C37.7299 19.8 37.5199 18.94 37.5199 18.94C37.5199 18.94 37.7299 11.02 38.2299 8.74C38.6099 7 39.2199 6.79 39.4899 6.79C39.5699 6.79 39.6199 6.81 39.6199 6.81H41.1199C41.0599 6.42 41.0699 5.91 41.1499 5.38C31.2199 5.34 31.2899 4.39 41.3499 4.37C41.6599 3.13 42.2399 2 42.6899 2M42.7099 0C41.3299 0 40.4599 1.1 39.9199 2.38C38.1499 2.4 36.6499 2.46 35.5199 2.54C33.9399 2.66 31.7699 2.82 31.7699 4.88C31.7699 6.93 33.9099 7.09 35.4699 7.21C35.8099 7.24 36.1899 7.26 36.5899 7.28C36.4799 7.59 36.3799 7.93 36.2899 8.32C35.9699 9.79 35.7699 13.1 35.6499 15.65C35.6199 15.61 35.5799 15.57 35.5499 15.53C34.9299 14.86 34.0699 14.49 33.1499 14.49C32.2299 14.49 31.3799 14.84 30.7399 15.51C30.1399 16.13 29.8099 16.94 29.6199 17.69H15.8199C15.4999 17.69 7.8899 17.72 2.3599 20.01C2.2999 20.03 2.2499 20.06 2.1999 20.09C0.829901 20.8 0.379901 22.02 0.409901 22.88L0.499901 25.94C0.519901 26.3 0.669901 27.99 2.2199 29.37L2.2999 29.44C7.0099 33.69 14.4399 36.23 23.7599 36.78C23.7999 36.78 23.8399 36.78 23.8799 36.78H36.0899C36.1199 37.35 36.1599 37.93 36.1799 38.2C36.1799 38.25 36.1799 38.3 36.1999 38.34C36.1999 38.36 36.2699 38.86 36.4299 40.12C36.5599 41.21 38.2499 51.32 38.9899 55.72C36.8299 55.93 32.8099 56.32 29.9199 56.6C29.8799 56.6 29.8499 56.6 29.8099 56.61C28.7999 56.76 26.9899 57.65 26.5999 60C26.3399 61.62 26.5599 62.62 26.7499 63.13C26.9399 63.79 27.6599 65.64 29.8399 66.45C29.8599 66.45 29.8799 66.46 29.8999 66.47C31.4399 67 38.7399 68.9 39.5599 69.12C39.7299 69.16 39.8999 69.18 40.0599 69.18C40.2099 69.18 40.3599 69.16 40.5099 69.13L40.5999 70.65C40.6599 71.77 41.5899 72.66 42.7199 72.66C43.8499 72.66 44.7799 71.78 44.8399 70.65L44.9299 69.13C45.0799 69.16 45.2199 69.18 45.3799 69.18C45.5499 69.18 45.7199 69.16 45.8799 69.12C46.7099 68.9 53.9999 67 55.5399 66.47C55.5599 66.47 55.5799 66.46 55.5999 66.45C57.7699 65.63 58.4899 63.79 58.6899 63.13C58.8799 62.62 59.0999 61.61 58.8399 60C58.4599 57.66 56.6499 56.77 55.6299 56.61C55.5899 56.61 55.5599 56.6 55.5199 56.6C52.6199 56.32 48.5899 55.93 46.4499 55.72C47.1899 51.32 48.8799 41.21 49.0099 40.12C49.1699 38.85 49.2399 38.35 49.2399 38.34C49.2399 38.29 49.2499 38.25 49.2599 38.2C49.2799 37.94 49.3199 37.35 49.3499 36.78H61.5599C61.5599 36.78 61.6399 36.78 61.6799 36.78C70.9999 36.23 78.4299 33.69 83.1399 29.45L83.2199 29.38C84.7599 28 84.9199 26.31 84.9399 25.99L85.0299 22.89C85.0599 22.04 84.6099 20.81 83.2399 20.09C83.1899 20.06 83.1299 20.04 83.0799 20.01C77.5399 17.71 69.9399 17.69 69.6199 17.69H55.8199C55.6399 16.94 55.2999 16.13 54.6999 15.51C54.0499 14.84 53.2199 14.49 52.2899 14.49C51.3599 14.49 50.5099 14.86 49.8899 15.53C49.8499 15.57 49.8199 15.61 49.7899 15.65C49.6699 13.11 49.4699 9.79 49.1499 8.32C49.0699 7.93 48.9699 7.59 48.8499 7.28C49.2599 7.26 49.6299 7.24 49.9699 7.21C51.5299 7.09 53.6699 6.93 53.6699 4.88C53.6699 2.82 51.4999 2.66 49.9199 2.54C48.7899 2.46 47.2899 2.4 45.5199 2.38C44.9799 1.1 44.1099 0 42.7299 0L42.7099 0Z" fill="black"/>
</g>
<defs>
<clipPath id="clip0_427_7">
<rect width="84.6" height="72.66" fill="white" transform="translate(0.409912)"/>
</clipPath>
</defs>
</svg>
