<svg width="226" height="276" viewBox="0 0 226 276" fill="none" xmlns="http://www.w3.org/2000/svg">
<g clip-path="url(#clip0_852_99)">
<path d="M144.14 273.37C143.95 273.37 143.75 273.34 143.57 273.29L117.24 265.43C116.43 271.24 115.24 273.37 113 273.37C110.76 273.37 109.57 271.24 108.76 265.43L82.4299 273.29C82.2399 273.35 82.0499 273.37 81.8599 273.37H80.2999C79.1999 273.37 78.2999 272.47 78.2999 271.37V265.78C78.2999 263.88 78.4599 262.6 80.6499 260.95L105.44 243.96L104.92 241.04C103.52 233.25 101.95 224.46 100.47 215.55L93.7499 211.82C93.5999 212.29 93.4499 212.79 93.2799 213.32C93.0199 214.15 92.2599 214.71 91.3899 214.72C91.3899 214.72 87.7799 214.76 87.7699 214.76C86.9199 214.76 86.1499 214.22 85.8799 213.41C83.4899 206.43 83.0399 204.31 81.9299 198.52C80.4199 197.83 79.3699 196.64 79.0099 195.17C78.9899 195.08 78.9699 194.98 78.9599 194.89C78.2599 187.61 78.5599 177.51 78.7399 176.02L78.7599 175.86C79.1499 172.46 81.6499 171.34 89.0699 171.26H89.7999C92.3599 171.26 94.2999 171.4 95.7399 171.76V153.29H73.7199L10.6899 171.02C8.33989 173.56 6.46989 175.53 4.36989 175.92C4.24989 175.94 4.11989 175.95 3.99989 175.95C3.51989 175.95 3.05989 175.78 2.68989 175.46C2.22989 175.06 1.97989 174.47 1.99989 173.86C2.25989 168.04 2.88989 164.69 4.79989 159.19V156.29C4.79989 153.97 6.01989 152.84 8.58989 151.33C8.63989 151.3 8.67989 151.28 8.72989 151.25L72.4199 120.12L95.7399 103.45V36.1601C95.7399 26.7701 103.37 7.20012 112.06 2.60012C112.35 2.45012 112.67 2.37012 113 2.37012C113.33 2.37012 113.64 2.45012 113.94 2.60012C122.63 7.20012 130.26 26.7701 130.26 36.1601V103.43L153.58 120.1L217.27 151.23C217.27 151.23 217.36 151.28 217.41 151.31C219.98 152.83 221.2 153.95 221.2 156.27V159.17C223.11 164.67 223.74 168.02 224 173.84C224.03 174.45 223.77 175.04 223.31 175.44C222.94 175.76 222.48 175.93 222 175.93C221.88 175.93 221.75 175.92 221.63 175.89C219.53 175.49 217.65 173.52 215.31 170.99L152.27 153.26H130.26V171.73C131.7 171.37 133.64 171.23 136.2 171.23H136.93C144.35 171.31 146.85 172.43 147.24 175.83L147.26 176C147.45 177.49 147.75 187.59 147.04 194.87C147.04 194.96 147.01 195.06 146.99 195.15C146.63 196.62 145.57 197.82 144.07 198.5C142.96 204.29 142.51 206.4 140.12 213.39C139.84 214.2 139.08 214.74 138.23 214.74L134.61 214.7C133.74 214.7 132.98 214.13 132.72 213.3C132.55 212.77 132.4 212.28 132.25 211.8L125.53 215.53C124.05 224.44 122.48 233.23 121.08 241.02L120.56 243.94L145.27 260.87C147.54 262.58 147.7 263.86 147.7 265.76V271.35C147.7 272.45 146.8 273.35 145.7 273.35H144.14V273.37Z" fill="white"/>
<path d="M113 4.37012C120.79 8.49012 128.26 27.0401 128.26 36.1601V104.46L152.55 121.83L216.39 153.03C218.88 154.5 219.19 155.09 219.19 156.27V159.51C221.16 165.13 221.74 168.31 221.99 173.93C220.47 173.64 218.69 171.71 216.56 169.41L216.39 169.22L152.55 151.26H128.26V175.99H128.48C128.67 174.63 128.66 173.23 136.2 173.23C136.43 173.23 136.67 173.23 136.91 173.23C145.31 173.32 145.1 174.81 145.28 176.25C145.46 177.68 145.74 187.56 145.06 194.68C144.74 195.97 143.55 196.71 142.33 196.99L142.29 197.22C141.05 203.74 140.7 205.54 138.24 212.74L136.44 212.72L134.64 212.7C134.17 211.22 133.79 209.97 133.47 208.85L123.74 214.25C121.94 225.16 119.94 236.16 118.39 244.87L144.17 262.53C145.73 263.71 145.73 264.3 145.73 265.77V271.36H144.17L115.57 262.82C115.22 266.03 114.48 271.36 113.02 271.36C111.56 271.36 110.82 266.03 110.47 262.82L81.87 271.36H80.31V265.77C80.31 264.3 80.31 263.71 81.87 262.53L107.65 244.87C106.09 236.16 104.09 225.16 102.3 214.25L92.56 208.85C92.23 209.96 91.85 211.21 91.39 212.7L89.59 212.72L87.79 212.74C85.33 205.54 84.99 203.74 83.74 197.22L83.7 196.99C82.48 196.71 81.29 195.97 80.97 194.68C80.28 187.56 80.57 177.68 80.75 176.25C80.93 174.82 80.71 173.33 89.12 173.23C89.36 173.23 89.6 173.23 89.83 173.23C97.37 173.23 97.35 174.63 97.55 175.99H97.77V151.26H73.48L9.64003 169.22L9.47003 169.41C7.34003 171.71 5.55003 173.65 4.04003 173.93C4.29003 168.3 4.87003 165.13 6.84003 159.51V156.27C6.84003 155.09 7.15003 154.5 9.64003 153.03L73.48 121.83L97.77 104.46V36.1601C97.77 27.0301 105.24 8.49012 113.03 4.37012M113.03 0.370117C112.39 0.370117 111.74 0.520117 111.16 0.830117C101.73 5.82012 93.77 26.0801 93.77 36.1601V102.4L71.42 118.38L7.88003 149.44C7.79003 149.49 7.69003 149.54 7.60003 149.59C5.09003 151.07 2.83003 152.7 2.83003 156.27V158.83C0.940033 164.35 0.300033 167.81 0.0300327 173.75C-0.0199673 174.97 0.480033 176.15 1.40003 176.95C2.13003 177.59 3.07003 177.93 4.02003 177.93C4.27003 177.93 4.51003 177.91 4.76003 177.86C7.36003 177.37 9.38003 175.36 11.79 172.76L74.02 155.26H93.76V169.38C92.5 169.26 91.16 169.23 89.83 169.23C89.59 169.23 89.33 169.23 89.07 169.23C82.97 169.3 77.45 169.83 76.79 175.61L76.77 175.75C76.53 177.66 76.28 187.85 76.98 195.06C77 195.25 77.03 195.44 77.08 195.63C77.51 197.38 78.6 198.84 80.16 199.81C81.16 205.02 81.7 207.31 84 214.03C84.55 215.65 86.08 216.74 87.78 216.74C87.79 216.74 87.81 216.74 87.82 216.74L89.62 216.72L91.42 216.7C92.85 216.68 94.15 215.91 94.84 214.7L98.65 216.82C100.08 225.43 101.6 233.9 102.95 241.43L103.24 243.04L79.6 259.24C79.55 259.28 79.5 259.31 79.45 259.35C76.54 261.55 76.3 263.56 76.3 265.78V271.37C76.3 273.58 78.09 275.37 80.3 275.37H81.86C82.25 275.37 82.63 275.31 83 275.2L107.12 268C107.85 271.86 109.31 275.37 113 275.37C116.69 275.37 118.15 271.86 118.88 268L143 275.2C143.37 275.31 143.76 275.37 144.14 275.37H145.7C147.91 275.37 149.7 273.58 149.7 271.37V265.78C149.7 263.56 149.46 261.55 146.56 259.35C146.51 259.31 146.46 259.28 146.41 259.24L122.77 243.04L123.06 241.41C124.41 233.89 125.93 225.43 127.36 216.82L131.17 214.7C131.87 215.91 133.16 216.69 134.59 216.7L136.39 216.72L138.19 216.74C138.19 216.74 138.22 216.74 138.23 216.74C139.94 216.74 141.46 215.65 142.01 214.03C144.31 207.3 144.85 205.02 145.85 199.81C147.41 198.83 148.51 197.37 148.93 195.62C148.98 195.43 149.01 195.25 149.03 195.06C149.73 187.84 149.48 177.65 149.24 175.75L149.22 175.61C148.57 169.84 143.04 169.3 136.94 169.23C136.68 169.23 136.43 169.23 136.19 169.23C134.85 169.23 133.52 169.26 132.26 169.38V155.26H152L214.23 172.76C216.65 175.36 218.66 177.36 221.26 177.86C221.51 177.91 221.75 177.93 222 177.93C222.95 177.93 223.89 177.59 224.62 176.95C225.54 176.15 226.05 174.97 225.99 173.75C225.72 167.81 225.09 164.35 223.19 158.83V156.27C223.19 152.7 220.93 151.07 218.42 149.59C218.33 149.54 218.24 149.49 218.14 149.44L154.6 118.38L132.25 102.4V36.1601C132.25 26.0801 124.29 5.82012 114.86 0.830117C114.27 0.520117 113.63 0.370117 112.99 0.370117L113.03 0.370117Z" fill="black"/>
</g>
<defs>
<clipPath id="clip0_852_99">
<rect width="226" height="275" fill="white" transform="translate(0 0.370117)"/>
</clipPath>
</defs>
</svg>
