<svg width="139" height="90" viewBox="0 0 139 90" fill="none" xmlns="http://www.w3.org/2000/svg">
<g clip-path="url(#clip0_824_151)">
<path d="M69.5 88.5398C69.39 88.5398 69.29 88.5198 69.19 88.4898C69.09 88.4598 68.99 88.4098 68.89 88.3598C68.22 88.3598 66.03 88.3698 66.03 88.3698C64.55 88.3698 63.54 88.3698 63.1 87.4998C61.02 87.4198 59.33 87.2598 57.24 87.0698L55.07 86.8698C55.07 86.8698 54.77 86.9598 54.59 86.9998C54.21 87.0998 53.86 87.1898 53.54 87.1898C53.1 87.1898 52.82 87.0098 52.67 86.8598C52.53 86.7298 52.44 86.5498 52.4 86.3698C52.22 85.5498 52.17 85.1598 52.4 84.2398C52.41 84.1898 52.43 84.1498 52.45 84.0998C53.03 82.7398 53.4 81.9598 54.07 80.6198C54.2 80.3498 54.45 80.1598 54.74 80.0898C59.52 78.9798 62.53 78.1998 67.46 76.8798C67.28 67.9198 66.63 60.7898 65.53 55.6798C65.12 53.7598 64.67 52.2198 64.23 50.7298C63.67 48.8098 63.14 46.9898 62.74 44.5898L56.25 44.1398C55.93 45.2398 55.48 46.2298 54.84 47.1998C54.66 47.4698 54.36 47.6398 54.03 47.6498L50.17 47.7298C49.83 47.7298 49.52 47.5598 49.34 47.2798C48.58 46.1198 48.08 44.9598 47.76 43.5898L20.73 42.6098L5.04004 41.7998C4.85004 42.0098 4.65004 42.2398 4.47004 42.4698C3.83004 43.2298 3.32004 43.8398 2.70004 44.0398C2.60004 44.0698 2.49004 44.0898 2.39004 44.0898C2.19004 44.0898 1.99004 44.0298 1.81004 43.9098C1.43004 43.6398 1.19004 43.1898 1.08004 42.5598C0.860037 41.2498 1.22004 39.0498 2.29004 37.3698C2.15004 35.6798 2.21004 32.6998 3.28004 31.4098C3.72004 30.8798 4.22004 30.7398 4.56004 30.7198L47.17 28.9698L47.33 28.9398C46.38 25.1498 46.67 22.0598 48.08 20.2098L42.38 20.3398C41.75 20.3398 41.15 19.8498 41.15 18.9198C41.15 17.9898 41.76 17.4998 42.36 17.4998L49.75 17.6698C50.07 16.4998 50.59 15.2898 51.89 15.0298C51.96 15.0198 52.02 15.0098 52.09 15.0098C52.15 15.0098 52.21 15.0098 52.27 15.0298C53.54 15.2598 54.11 16.5898 54.42 17.6798L61.79 17.5098C62.41 17.5098 63.02 17.9998 63.02 18.9298C63.02 19.8598 62.41 20.3498 61.81 20.3498L56.09 20.2198C56.95 21.3498 57.4 22.9698 57.38 24.9698C57.68 25.3998 57.74 26.0898 57.72 26.7098L62.67 25.6498C63.13 19.3898 64.05 13.2498 65.27 8.3098C66.07 5.0498 66.9 1.6798 69.47 1.5498C69.49 1.5498 69.56 1.5498 69.57 1.5498C72.14 1.6798 72.97 5.0498 73.77 8.3098C74.53 11.3898 75.17 14.9398 75.66 18.6798C75.76 17.9198 76.31 17.5198 76.86 17.5198L84.25 17.6898C84.57 16.5198 85.09 15.3098 86.39 15.0498C86.46 15.0398 86.52 15.0298 86.59 15.0298C86.65 15.0298 86.71 15.0298 86.77 15.0498C88.04 15.2798 88.61 16.6098 88.92 17.6998L96.29 17.5298C96.91 17.5298 97.53 18.0198 97.53 18.9498C97.53 19.8798 96.92 20.3698 96.32 20.3698L90.6 20.2398C91.46 21.3698 91.91 22.9798 91.89 24.9798C92.09 25.2698 92.22 25.7198 92.23 26.3998C92.25 27.8698 92.01 28.5998 91.73 28.9598L91.88 28.9898L134.46 30.7398C134.83 30.7698 135.33 30.9098 135.77 31.4298C136.84 32.7098 136.9 35.6998 136.76 37.3898C137.83 39.0698 138.19 41.2698 137.97 42.5698C137.87 43.1998 137.62 43.6498 137.24 43.9198C137.07 44.0398 136.87 44.0998 136.66 44.0998C136.56 44.0998 136.45 44.0798 136.35 44.0498C135.73 43.8498 135.22 43.2398 134.58 42.4798C134.39 42.2598 134.2 42.0298 134.01 41.8098L118.34 42.6198L90.92 43.6098C90.61 44.9398 90.11 46.0698 89.36 47.2098C89.18 47.4798 88.87 47.6498 88.55 47.6598L84.69 47.7398C84.35 47.7398 84.04 47.5698 83.86 47.2898C83.22 46.3098 82.75 45.3098 82.43 44.1698L76.31 44.5898C75.91 46.9898 75.38 48.8098 74.82 50.7298C74.38 52.2198 73.93 53.7598 73.52 55.6798C72.42 60.7898 71.77 67.9198 71.59 76.8798C76.52 78.1998 79.52 78.9698 84.3 80.0898C84.59 80.1598 84.84 80.3498 84.97 80.6198C85.64 81.9498 86.01 82.7298 86.59 84.0998C86.61 84.1398 86.63 84.1898 86.64 84.2398C86.88 85.1598 86.83 85.5498 86.64 86.3698C86.6 86.5598 86.5 86.7298 86.37 86.8598C86.22 87.0098 85.94 87.1898 85.5 87.1898C85.18 87.1898 84.83 87.0998 84.45 86.9998C84.27 86.9498 83.97 86.8798 83.87 86.8698L81.79 87.0598C79.7 87.2498 78.01 87.4098 75.93 87.4898C75.49 88.3598 74.48 88.3598 73 88.3598C73 88.3598 70.81 88.3498 70.14 88.3498C70.04 88.4098 69.94 88.4498 69.84 88.4798C69.74 88.5098 69.63 88.5298 69.53 88.5298L69.5 88.5398ZM81.39 26.7298C81.02 23.9098 81.43 21.6698 82.54 20.2198L76.85 20.3498C76.4 20.3498 75.97 20.0998 75.75 19.6298C75.99 21.5998 76.19 23.6198 76.34 25.6498L81.38 26.7298H81.39Z" fill="white"/>
<path d="M69.4999 2.54027C71.2799 2.63027 72.0299 5.50027 72.7799 8.55027C73.8799 13.0303 74.9199 19.2803 75.4099 26.4703L82.6299 28.0203C81.8399 24.2803 82.2699 20.7903 84.7699 19.7203C84.8099 19.5303 84.8499 19.3403 84.8899 19.1703L76.8299 19.3503C76.5499 19.3503 76.5499 18.5203 76.8299 18.5203L84.9899 18.7003C85.2699 17.5503 85.5599 16.2203 86.5499 16.0203C87.4399 16.1803 87.8399 17.5503 88.1099 18.7003L96.2699 18.5203C96.5499 18.5203 96.5499 19.3503 96.2699 19.3503L88.2099 19.1703C88.2499 19.3503 88.2899 19.5303 88.3299 19.7203C90.2499 20.5403 90.9499 22.7703 90.8199 25.4503C90.8299 25.4503 90.8399 25.4503 90.8499 25.4503C91.4499 25.4503 91.0599 28.3103 90.8799 28.3203L90.3199 28.7003C90.2399 29.0103 90.1399 29.3203 90.0499 29.6303L91.6999 29.9803L134.36 31.7403C135.67 31.8303 135.92 35.4403 135.67 37.6503C137.08 39.5903 137.26 42.6403 136.61 43.1003C136.05 42.9203 135.2 41.6203 134.36 40.7903L118.23 41.6203L90.1899 42.6403H90.0299C89.7899 43.9903 89.3799 45.2603 88.4599 46.6603L86.5299 46.7003L84.6199 46.7403C83.7999 45.4903 83.3799 44.3203 83.1299 43.1203L75.3799 43.6503C74.6799 48.3703 73.4799 50.8103 72.4699 55.4803C71.0599 62.0103 70.6199 70.7003 70.4999 77.6503C75.6699 79.0403 78.8499 79.8703 83.9999 81.0703C84.6699 82.4003 85.0299 83.1503 85.5899 84.4903C85.7799 85.2103 85.7499 85.4303 85.5899 86.1503C85.5599 86.1803 85.4999 86.1903 85.4299 86.1903C85.0499 86.1903 84.1999 85.8703 83.8099 85.8703C80.2399 86.1803 78.1699 86.4303 75.0899 86.5203C75.0199 87.2703 74.9999 87.3603 72.9299 87.3603C72.1799 87.3603 71.1499 87.3503 69.7499 87.3503C69.6399 87.4603 69.5399 87.5103 69.4699 87.5303C69.3999 87.5103 69.2999 87.4603 69.1899 87.3503C67.7899 87.3503 66.7599 87.3603 66.0099 87.3603C63.9399 87.3603 63.9199 87.2603 63.8499 86.5203C60.7699 86.4303 58.6999 86.1903 55.1299 85.8703C54.7399 85.8703 53.8899 86.1903 53.5099 86.1903C53.4299 86.1903 53.3799 86.1803 53.3499 86.1503C53.1899 85.4303 53.1599 85.2103 53.3499 84.4903C53.9199 83.1503 54.2799 82.4003 54.9399 81.0703C60.0999 79.8703 63.2699 79.0403 68.4399 77.6503C68.3199 70.7003 67.8799 62.0103 66.4699 55.4803C65.4599 50.8203 64.2599 48.3703 63.5599 43.6503L55.4399 43.0903C55.1899 44.2703 54.7799 45.4103 53.9599 46.6503L52.0299 46.6903L50.1199 46.7303C49.1799 45.3103 48.7699 44.0003 48.5299 42.6203L20.7199 41.6103L4.58989 40.7803C3.74989 41.6103 2.89989 42.9003 2.33989 43.0903C1.67989 42.6303 1.86989 39.5803 3.27989 37.6403C3.03989 35.4203 3.27989 31.8203 4.58989 31.7303L47.2499 29.9703L48.5299 29.6903C47.2299 25.3603 47.3599 20.9403 50.2399 19.7103C50.2799 19.5203 50.3199 19.3303 50.3599 19.1603L42.2999 19.3403C42.0199 19.3403 42.0199 18.5103 42.2999 18.5103L50.4599 18.6903C50.7399 17.5403 51.0299 16.2103 52.0199 16.0103C52.9099 16.1703 53.3099 17.5403 53.5799 18.6903L61.7399 18.5103C62.0199 18.5103 62.0199 19.3403 61.7399 19.3403L53.6799 19.1603C53.7199 19.3403 53.7599 19.5203 53.7999 19.7103C55.7199 20.5303 56.4199 22.7603 56.2899 25.4403C56.2999 25.4403 56.3099 25.4403 56.3199 25.4403C56.7999 25.4403 56.6499 27.2303 56.4799 27.9803L63.5399 26.4603C64.0299 19.2603 65.0599 13.0103 66.1699 8.54027C66.9199 5.49027 67.6699 2.63027 69.4499 2.53027M69.4499 0.530273C69.4499 0.530273 69.3799 0.530273 69.3499 0.530273C66.0399 0.700273 65.0799 4.61027 64.2299 8.05027C63.5899 10.6503 63.0299 13.5803 62.5799 16.6803C62.3199 16.5703 62.0399 16.5103 61.7399 16.5103L55.0599 16.6603C54.6199 15.5203 53.8499 14.3203 52.3699 14.0503C52.2499 14.0303 52.1299 14.0203 52.0099 14.0203C51.8799 14.0203 51.7399 14.0303 51.6099 14.0603C50.0999 14.3703 49.3699 15.5303 48.9499 16.6603L42.3299 16.5103C41.0199 16.5103 40.0699 17.5503 40.0699 18.9303C40.0699 20.3103 41.0199 21.3503 42.2799 21.3503L46.2999 21.2603C45.6199 23.0503 45.5099 25.3603 46.0199 28.0203L4.46989 29.7303C4.46989 29.7303 4.42989 29.7303 4.40989 29.7303C3.64989 29.7803 2.94989 30.1603 2.42989 30.7803C1.07989 32.4003 1.09989 35.6403 1.18989 37.1303C0.109891 38.9903 -0.230109 41.2703 0.00989071 42.7303C0.159891 43.6303 0.539891 44.3103 1.14989 44.7303C1.48989 44.9703 1.88989 45.0903 2.29989 45.0903C2.50989 45.0903 2.71989 45.0603 2.91989 44.9903C3.80989 44.7003 4.42989 43.9603 5.14989 43.1103C5.22989 43.0203 5.30989 42.9203 5.38989 42.8203L20.5699 43.6003L46.8799 44.5503C47.2299 45.7303 47.7199 46.7803 48.4099 47.8203C48.7799 48.3803 49.4099 48.7203 50.0799 48.7203C50.0899 48.7203 50.1099 48.7203 50.1199 48.7203L52.0299 48.6803L53.9599 48.6403C54.6199 48.6303 55.2299 48.2903 55.5899 47.7403C56.1299 46.9203 56.5599 46.0803 56.8799 45.1803L61.8099 45.5203C62.1999 47.6003 62.6799 49.2603 63.1899 50.9903C63.6199 52.4703 64.0699 53.9903 64.4699 55.8803C65.5299 60.7803 66.1599 67.5803 66.3599 76.1103C61.8899 77.3103 58.9599 78.0503 54.4299 79.1103C53.8499 79.2503 53.3599 79.6303 53.0899 80.1603C52.4099 81.5103 52.0299 82.3003 51.4399 83.6903C51.3999 83.7803 51.3699 83.8703 51.3499 83.9703C51.0599 85.0803 51.1299 85.6403 51.3299 86.5703C51.4099 86.9503 51.5999 87.2903 51.8799 87.5603C52.1699 87.8403 52.6699 88.1803 53.4499 88.1803C53.8899 88.1803 54.3299 88.0703 54.7499 87.9603C54.8499 87.9303 54.9999 87.9003 55.0999 87.8703C55.7999 87.9303 56.4499 87.9903 57.0499 88.0503C58.9899 88.2303 60.5899 88.3703 62.4699 88.4603C63.2799 89.3503 64.6699 89.3503 65.9499 89.3503C66.2699 89.3503 66.6499 89.3503 67.0799 89.3503C67.5199 89.3503 68.0099 89.3503 68.5699 89.3503C68.6399 89.3803 68.7199 89.4103 68.7899 89.4303C68.9899 89.5003 69.1999 89.5303 69.4099 89.5303C69.6199 89.5303 69.8299 89.5003 70.0299 89.4303C70.1099 89.4103 70.1799 89.3803 70.2499 89.3503C70.8099 89.3503 71.3099 89.3503 71.7399 89.3503C72.1699 89.3503 72.5399 89.3503 72.8699 89.3503C74.1399 89.3503 75.5299 89.3503 76.3499 88.4603C78.2299 88.3703 79.8299 88.2303 81.7699 88.0503C82.3799 87.9903 83.0199 87.9403 83.7199 87.8703C83.8199 87.8903 83.9599 87.9303 84.0699 87.9603C84.4899 88.0703 84.9299 88.1803 85.3699 88.1803C86.1499 88.1803 86.6499 87.8403 86.9399 87.5603C87.2099 87.2903 87.3999 86.9503 87.4899 86.5703C87.6999 85.6403 87.7599 85.0803 87.4699 83.9703C87.4499 83.8803 87.4099 83.7803 87.3799 83.6903C86.7899 82.3003 86.4099 81.5103 85.7299 80.1603C85.4599 79.6303 84.9699 79.2403 84.3899 79.1103C79.8699 78.0603 76.9399 77.3103 72.4599 76.1103C72.6599 67.5803 73.2999 60.7803 74.3499 55.8803C74.7599 53.9903 75.1999 52.4703 75.6299 50.9903C76.1399 49.2503 76.6199 47.6003 77.0099 45.5203L81.5599 45.2103C81.8899 46.1303 82.3199 46.9903 82.8699 47.8303C83.2399 48.3903 83.8699 48.7303 84.5399 48.7303C84.5499 48.7303 84.5699 48.7303 84.5799 48.7303L86.4899 48.6903L88.4199 48.6503C89.0799 48.6403 89.6899 48.3003 90.0499 47.7503C90.7199 46.7303 91.2099 45.7103 91.5499 44.5703L118.22 43.6003L133.44 42.8203C133.52 42.9103 133.6 43.0103 133.68 43.1003C134.4 43.9503 135.01 44.6903 135.91 44.9803C136.11 45.0503 136.32 45.0803 136.53 45.0803C136.94 45.0803 137.34 44.9603 137.68 44.7203C138.28 44.2903 138.67 43.6203 138.82 42.7203C139.06 41.2603 138.72 38.9803 137.64 37.1203C137.73 35.6303 137.75 32.3903 136.4 30.7703C135.88 30.1503 135.18 29.7803 134.42 29.7203C134.4 29.7203 134.38 29.7203 134.36 29.7203L92.9899 28.0203C93.0999 27.3603 93.0999 26.7203 93.0899 26.3603C93.0899 25.6403 92.9499 25.1003 92.7499 24.6903C92.7399 23.2903 92.5099 22.1603 92.1599 21.2503L96.1299 21.3403C97.4399 21.3403 98.3899 20.3003 98.3899 18.9203C98.3899 17.5403 97.4399 16.5003 96.1799 16.5003L89.4999 16.6503C89.0599 15.5103 88.2899 14.3103 86.8099 14.0403C86.6899 14.0203 86.5699 14.0103 86.4499 14.0103C86.3199 14.0103 86.1799 14.0203 86.0499 14.0503C84.5399 14.3603 83.8099 15.5203 83.3899 16.6503L76.7699 16.5003C76.5899 16.5003 76.4099 16.5203 76.2499 16.5603C75.7999 13.5003 75.2499 10.6203 74.6099 8.05027C73.7599 4.60027 72.7999 0.700273 69.4899 0.530273C69.4599 0.530273 69.4199 0.530273 69.3899 0.530273H69.4499ZM76.9199 21.3403L80.8299 21.2503C80.3799 22.4403 80.1799 23.8603 80.2399 25.4603L77.2499 24.8203C77.1599 23.6503 77.0499 22.4903 76.9299 21.3403H76.9199ZM58.3099 24.6903C58.2999 23.2903 58.0699 22.1603 57.7199 21.2503L61.6899 21.3403C61.7899 21.3403 61.8899 21.3403 61.9799 21.3203C61.8599 22.4703 61.7499 23.6403 61.6499 24.8103L58.5599 25.4803C58.4999 25.2003 58.4199 24.9403 58.2999 24.6903H58.3099Z" fill="black"/>
</g>
<defs>
<clipPath id="clip0_824_151">
<rect width="139" height="89" fill="white" transform="translate(0 0.540039)"/>
</clipPath>
</defs>
</svg>
