<svg width="512" height="571" viewBox="0 0 512 571" fill="none" xmlns="http://www.w3.org/2000/svg">
<g clip-path="url(#clip0_28_9)">
<path d="M258.5 560.55H259.94C260.23 560.55 260.49 560.35 260.56 560.07L265.67 539.84H268.3C268.48 539.84 268.64 539.72 268.7 539.55C269.09 538.28 270.59 533.05 270.59 526.9V521.64L364.7 553.35C365.02 553.46 365.36 553.22 365.36 552.88V527.64C365.36 526.74 364.95 525.89 364.25 525.33L276.38 454.84C276.38 454.84 285.9 408.35 285.9 377.28V345L348.53 353.62C349.14 353.7 349.73 353.88 350.29 354.14L507.27 427.55C507.56 427.69 507.9 427.47 507.9 427.15V399.55C507.9 398.62 507.47 397.73 506.73 397.16L346.82 271.84C346.82 271.84 349.36 265.85 349.7 259.86C350.16 259.4 350.85 259.86 350.85 259.86C350.85 259.86 358.91 238.69 352.12 213.37C351.77 212.56 351.31 211.07 349.01 211.07H328.53C328.53 211.07 326.69 211.88 325.88 214.41C325.07 216.94 319.9 231.32 325.88 255.43L286.24 224.36V109.8C286.24 72.63 274.27 9.44003 255.95 4.03003C237.62 9.44003 225.66 72.6 225.66 109.77V224.33L186.02 255.4C192 231.29 186.83 216.91 186.02 214.38C185.21 211.85 183.37 211.04 183.37 211.04H162.89C160.59 211.04 160.13 212.54 159.78 213.34C152.99 238.66 161.05 259.83 161.05 259.83C161.05 259.83 161.74 259.37 162.2 259.83C162.55 265.81 165.08 271.81 165.08 271.81L5.17 397.1C4.43 397.68 4 398.56 4 399.49V427.09C4 427.41 4.34 427.63 4.63 427.49L161.61 354.08C162.17 353.82 162.76 353.64 163.37 353.56L226 344.94V377.22C226 408.29 235.52 454.78 235.52 454.78L147.65 525.27C146.95 525.83 146.54 526.68 146.54 527.58V552.82C146.54 553.16 146.88 553.4 147.2 553.29L241.31 521.58V526.84C241.31 532.99 242.81 538.23 243.2 539.49C243.25 539.66 243.41 539.78 243.6 539.78H246.23L251.34 560.01C251.41 560.3 251.67 560.49 251.96 560.49H253.4L255.95 566.79V566.82L258.5 560.52V560.55Z" fill="white"/>
<path d="M255.95 4C274.28 9.41 286.24 72.6 286.24 109.77V224.33L325.88 255.4C319.9 231.29 325.07 216.91 325.88 214.38C326.69 211.85 328.53 211.04 328.53 211.04H349.01C351.31 211.04 351.77 212.54 352.12 213.34C358.91 238.66 350.85 259.83 350.85 259.83C350.85 259.83 350.54 259.63 350.2 259.63C350.03 259.63 349.85 259.68 349.7 259.83C349.35 265.81 346.82 271.81 346.82 271.81L506.73 397.13C507.47 397.71 507.89 398.59 507.89 399.52V427.12C507.89 427.38 507.68 427.56 507.45 427.56C507.39 427.56 507.32 427.55 507.26 427.52L350.28 354.11C349.72 353.85 349.13 353.67 348.52 353.59L285.89 344.97V377.25C285.89 408.32 276.37 454.81 276.37 454.81L364.24 525.3C364.94 525.86 365.35 526.71 365.35 527.61V552.85C365.35 553.14 365.12 553.35 364.85 553.35C364.8 553.35 364.74 553.35 364.69 553.32L270.58 521.61V526.87C270.58 533.02 269.08 538.26 268.69 539.52C268.64 539.69 268.48 539.81 268.29 539.81H265.66L260.55 560.04C260.48 560.33 260.22 560.52 259.93 560.52H258.49L255.94 566.82V566.79L253.39 560.49H251.95C251.66 560.49 251.4 560.29 251.33 560.01L246.22 539.78H243.59C243.41 539.78 243.25 539.66 243.19 539.49C242.8 538.22 241.3 532.99 241.3 526.84V521.58L147.19 553.29C147.14 553.31 147.08 553.32 147.03 553.32C146.76 553.32 146.53 553.11 146.53 552.82V527.58C146.53 526.68 146.94 525.83 147.64 525.27L235.51 454.78C235.51 454.78 225.99 408.29 225.99 377.22V344.94L163.36 353.56C162.75 353.64 162.16 353.82 161.6 354.08L4.63 427.5C4.57 427.53 4.5 427.54 4.44 427.54C4.21 427.54 4 427.35 4 427.1V399.5C4 398.57 4.43 397.68 5.16 397.11L165.07 271.79C165.07 271.79 162.53 265.8 162.19 259.81C162.04 259.66 161.86 259.61 161.69 259.61C161.35 259.61 161.04 259.81 161.04 259.81C161.04 259.81 152.98 238.64 159.77 213.32C160.12 212.51 160.58 211.02 162.88 211.02H183.36C183.36 211.02 185.2 211.83 186.01 214.36C186.82 216.89 191.99 231.27 186.01 255.38L225.65 224.31V109.75C225.65 72.58 237.62 9.42 255.94 4.01M255.95 0C255.57 0 255.19 0.05 254.82 0.16C244.93 3.08 236.6 17.82 230.05 43.99C224.87 64.68 221.66 89.88 221.66 109.74V222.35L191.99 245.61C193.36 235.87 193.48 224.35 189.92 213.42L189.83 213.14C188.54 209.09 185.56 207.61 184.97 207.35C184.46 207.13 183.92 207.01 183.37 207.01H162.89C159.69 207.01 157.42 208.56 156.16 211.61L156.11 211.73C156.03 211.91 155.97 212.09 155.92 212.27C148.88 238.53 156.96 260.31 157.31 261.22C157.56 261.88 157.98 262.45 158.51 262.88C158.94 265.79 159.7 268.49 160.33 270.41L2.7 393.95C0.99 395.29 0 397.31 0 399.49V427.09C0 429.54 1.99 431.53 4.44 431.53C5.1 431.53 5.73 431.39 6.32 431.11L163.3 357.7C163.49 357.61 163.7 357.55 163.91 357.52L222 349.53V377.22C222 404.66 229.16 443.16 231.13 453.18L145.15 522.15C143.49 523.48 142.54 525.46 142.54 527.58V552.82C142.54 555.3 144.56 557.32 147.04 557.32C147.53 557.32 148.01 557.24 148.48 557.08L237.31 527.15C237.36 533.66 238.9 539.14 239.38 540.69C239.91 542.39 241.37 543.58 243.11 543.77L247.47 561.01C247.88 562.63 249.1 563.86 250.64 564.32L252.22 568.22C252.7 569.5 253.81 570.48 255.2 570.76C255.46 570.81 255.72 570.83 255.97 570.83C257.57 570.83 259.05 569.87 259.67 568.34L261.28 564.35C262.81 563.89 264.04 562.66 264.45 561.04L268.81 543.8C270.55 543.61 272.01 542.42 272.54 540.72C273.02 539.18 274.56 533.7 274.61 527.19L363.44 557.12C363.9 557.28 364.39 557.36 364.88 557.36C367.36 557.36 369.38 555.34 369.38 552.86V527.62C369.38 525.5 368.43 523.51 366.77 522.19L280.79 453.22C282.75 443.19 289.92 404.7 289.92 377.26V349.57L348.01 357.56C348.22 357.59 348.43 357.65 348.62 357.74L505.6 431.15C506.2 431.43 506.83 431.57 507.48 431.57C509.93 431.57 511.92 429.58 511.92 427.13V399.53C511.92 397.35 510.94 395.33 509.22 393.99L351.6 270.46C352.23 268.53 352.99 265.84 353.42 262.93C353.95 262.49 354.36 261.92 354.62 261.27C354.97 260.36 363.05 238.58 356.01 212.32C355.96 212.14 355.9 211.96 355.82 211.78L355.77 211.66C354.5 208.61 352.24 207.06 349.04 207.06H328.56C328.01 207.06 327.46 207.17 326.96 207.4C326.38 207.66 323.39 209.14 322.1 213.19L322.01 213.47C318.45 224.4 318.58 235.92 319.94 245.66L290.27 222.4V109.79C290.27 89.92 287.05 64.72 281.88 44.02C275.33 17.85 267 3.1 257.11 0.18C256.74 0.07 256.36 0.02 255.98 0.02L255.95 0Z" fill="black"/>
</g>
<defs>
<clipPath id="clip0_28_9">
<rect width="511.9" height="570.84" fill="white"/>
</clipPath>
</defs>
</svg>
