<svg width="135" height="90" viewBox="0 0 135 90" fill="none" xmlns="http://www.w3.org/2000/svg">
<g clip-path="url(#clip0_463_2)">
<path d="M67.21 88.91C66.89 88.91 66.42 88.79 65.99 88.2C65.75 87.86 65.59 87.47 65.52 87.03C65.45 86.62 65.33 85.85 65.23 85.35C65.1 85.28 64.85 85.22 64.69 85.2L50.92 84.09C50.92 84.09 50.84 84.09 50.8 84.07C50.39 83.99 48.32 83.49 47.9 81.93C47.64 80.97 48.07 79.98 49.19 78.98C51.08 77.02 61.06 72.6 62.47 71.98C63.09 71.59 63.44 70.88 63.62 70.46C63.25 63.81 63.04 58.85 62.9 55.55C62.78 52.81 62.7 50.84 62.63 50.5C59.88 42.34 53.37 42.06 53.1 42.05C53.06 42.05 53.02 42.05 52.99 42.05L29.92 38.84C8.03996 36.67 3.37996 34.38 2.41996 33.63C2.08996 33.43 1.20996 32.8 1.20996 31.8C1.20996 31.31 1.42996 30.61 2.46996 30.04C3.08996 29.63 4.13996 29.16 5.69996 28.61C8.25996 27.71 10.99 27.02 13.8 26.58L48.96 21C48.86 17.12 49.21 13.86 49.99 11.27C49.22 11.31 48.34 11.34 47.44 11.34C46.13 11.34 44.94 11.28 43.9 11.15C43.47 11.1 42.32 10.96 42.31 9.93998C42.31 8.91998 43.46 8.76998 43.89 8.71998C45.01 8.57998 46.27 8.50998 47.61 8.50998C48.95 8.50998 50.12 8.57998 51.04 8.64998C51.26 8.22998 51.49 7.84998 51.74 7.48998C52.04 7.05998 52.53 6.80998 53.05 6.80998C53.57 6.80998 54.09 7.07998 54.38 7.52998C54.6 7.87998 54.81 8.24998 55.01 8.64998C55.96 8.56998 57.2 8.49998 58.54 8.49998C59.88 8.49998 61.14 8.56998 62.26 8.70998C62.44 8.72998 62.73 8.76998 63.02 8.86998C63.78 4.77998 65.07 0.97998 67.21 0.97998C69.35 0.97998 70.64 4.77998 71.4 8.86998C71.69 8.76998 71.98 8.72998 72.16 8.70998C73.28 8.56998 74.54 8.49998 75.88 8.49998C77.22 8.49998 78.45 8.56998 79.41 8.64998C79.61 8.24998 79.82 7.86998 80.04 7.52998C80.33 7.07998 80.83 6.80998 81.37 6.80998C81.91 6.80998 82.38 7.05998 82.68 7.48998C82.93 7.83998 83.16 8.22998 83.38 8.64998C84.31 8.57998 85.51 8.50998 86.81 8.50998C88.11 8.50998 89.41 8.57998 90.53 8.71998C90.96 8.77998 92.11 8.91998 92.11 9.93998C92.11 10.96 90.96 11.1 90.52 11.15C89.48 11.27 88.29 11.34 86.98 11.34C86.07 11.34 85.19 11.31 84.43 11.27C85.21 13.86 85.55 17.12 85.46 21L120.62 26.58C123.43 27.03 126.16 27.71 128.72 28.61C130.28 29.16 131.34 29.63 131.95 30.04C132.98 30.61 133.21 31.31 133.21 31.8C133.21 32.79 132.34 33.42 132 33.63C131.04 34.38 126.38 36.68 104.46 38.85L81.43 42.06C81.43 42.06 81.35 42.06 81.31 42.06C81.04 42.06 74.53 42.35 71.77 50.56C71.72 50.84 71.63 52.82 71.52 55.56C71.38 58.86 71.17 63.82 70.8 70.47C70.99 70.9 71.33 71.6 71.95 71.99C73.37 72.61 83.35 77.02 85.29 79.04C86.35 79.99 86.78 80.98 86.52 81.94C86.1 83.5 84.03 84 83.62 84.08C83.58 84.08 83.54 84.09 83.5 84.1L69.72 85.21C69.54 85.23 69.3 85.29 69.19 85.36C69.09 85.86 68.97 86.62 68.9 87.04C68.83 87.48 68.67 87.87 68.43 88.21C68 88.8 67.53 88.92 67.21 88.92V88.91ZM72.46 18.65C72.5 18.77 72.62 18.97 72.94 19.02C73.14 19.05 74.84 19.32 77.5 19.74C77.48 16.41 77.79 13.57 78.43 11.26C77.62 11.31 76.68 11.34 75.7 11.34C74.39 11.34 73.2 11.28 72.16 11.15C72.06 11.14 71.91 11.12 71.76 11.09C72.27 14.65 72.43 17.94 72.46 18.65ZM55.99 11.26C56.63 13.56 56.94 16.4 56.92 19.74C59.58 19.32 61.28 19.05 61.49 19.02C61.8 18.97 61.93 18.78 61.97 18.64C62 17.92 62.16 14.63 62.67 11.09C62.51 11.12 62.37 11.14 62.27 11.15C61.23 11.27 60.04 11.34 58.73 11.34C57.75 11.34 56.82 11.3 56 11.26H55.99Z" fill="white"/>
<path d="M67.21 2C70.48 2 71.46 18.58 71.46 18.79C71.46 18.79 71.65 19.85 72.79 20.01C73.02 20.04 75.19 20.39 78.52 20.91C78.4 16.96 78.71 13.1 79.84 10.16C78.79 10.25 77.29 10.34 75.7 10.34C74.57 10.34 73.38 10.29 72.28 10.16C71.33 10.05 71.33 9.84 72.28 9.72C73.48 9.57 74.72 9.51 75.88 9.51C77.52 9.51 79.01 9.62 80.02 9.72C80.27 9.13 80.55 8.58 80.87 8.08C80.99 7.9 81.17 7.81 81.36 7.81C81.55 7.81 81.73 7.89 81.85 8.06C82.2 8.56 82.5 9.11 82.77 9.7C83.78 9.6 85.22 9.5 86.8 9.5C87.96 9.5 89.2 9.55 90.4 9.71C91.34 9.83 91.34 10.04 90.4 10.15C89.29 10.28 88.11 10.33 86.98 10.33C85.46 10.33 84.02 10.24 82.98 10.16C84.29 13.34 84.6 17.57 84.43 21.84C96.16 23.7 113.49 26.45 120.46 27.56C123.16 27.99 125.81 28.64 128.39 29.55C129.66 30 130.84 30.48 131.44 30.89C133.19 31.83 131.44 32.79 131.44 32.79C131.44 32.79 129.21 35.38 104.37 37.84C97.09 38.85 81.3 41.05 81.3 41.05C81.3 41.05 73.87 41.2 70.83 50.24C70.64 50.76 70.53 57.28 69.79 70.65C69.98 71.06 70.42 72.24 71.49 72.87C71.49 72.87 82.68 77.76 84.57 79.72C87.42 82.28 83.42 83.09 83.42 83.09L69.64 84.2C69.64 84.2 68.38 84.31 68.23 85.01C68.12 85.51 67.98 86.4 67.91 86.86C67.87 87.12 67.77 87.38 67.62 87.6C67.51 87.76 67.36 87.9 67.21 87.9C67.06 87.9 66.92 87.76 66.8 87.6C66.64 87.38 66.55 87.13 66.51 86.86C66.44 86.4 66.29 85.51 66.19 85.01C66.04 84.31 64.78 84.2 64.78 84.2L51 83.09C51 83.09 47 82.28 49.85 79.72C51.74 77.76 62.93 72.87 62.93 72.87C64 72.24 64.45 71.05 64.63 70.65C63.89 57.28 63.78 50.76 63.59 50.24C60.55 41.2 53.12 41.05 53.12 41.05C53.12 41.05 37.34 38.85 30.05 37.84C5.20996 35.38 2.97996 32.79 2.97996 32.79C2.97996 32.79 1.22996 31.83 2.97996 30.89C3.57996 30.48 4.75996 30 6.02996 29.55C8.59996 28.64 11.26 27.99 13.96 27.56C20.93 26.45 38.26 23.7 49.99 21.84C49.82 17.57 50.13 13.34 51.44 10.16C50.39 10.25 48.96 10.33 47.44 10.33C46.31 10.33 45.12 10.28 44.02 10.15C43.08 10.04 43.08 9.82 44.02 9.71C45.22 9.56 46.46 9.5 47.62 9.5C49.2 9.5 50.64 9.6 51.65 9.7C51.92 9.11 52.22 8.56 52.57 8.06C52.69 7.89 52.87 7.81 53.06 7.81C53.25 7.81 53.44 7.9 53.55 8.08C53.87 8.58 54.16 9.13 54.4 9.72C55.41 9.62 56.9 9.51 58.54 9.51C59.7 9.51 60.94 9.56 62.14 9.72C63.09 9.84 63.09 10.05 62.14 10.16C61.03 10.29 59.85 10.34 58.72 10.34C57.13 10.34 55.64 10.25 54.58 10.16C55.7 13.1 56.02 16.96 55.9 20.91C59.23 20.38 61.4 20.04 61.63 20.01C62.78 19.84 62.96 18.79 62.96 18.79C62.96 18.59 63.94 2 67.21 2ZM67.21 0C64.85 0 63.37 2.27 62.28 7.72C61.14 7.58 59.88 7.51 58.54 7.51C57.46 7.51 56.45 7.56 55.59 7.61C55.47 7.39 55.35 7.19 55.22 6.99C54.74 6.25 53.93 5.81 53.05 5.81C52.2 5.81 51.41 6.23 50.92 6.92C50.77 7.14 50.62 7.37 50.48 7.6C49.64 7.54 48.66 7.5 47.61 7.5C46.22 7.5 44.93 7.58 43.76 7.72C41.62 7.99 41.3 9.23 41.31 9.94C41.32 10.65 41.64 11.88 43.78 12.14C44.86 12.27 46.09 12.33 47.44 12.33C47.86 12.33 48.28 12.33 48.68 12.31C48.17 14.54 47.93 17.15 47.95 20.13C36.31 21.98 20.28 24.52 13.65 25.58C10.78 26.04 7.98996 26.74 5.36996 27.66C3.26996 28.4 2.39996 28.87 1.94996 29.17C0.449961 30.03 0.209961 31.17 0.209961 31.79C0.209961 33 1.02996 33.94 1.85996 34.45C4.42996 36.37 14.49 38.31 29.82 39.83L52.85 43.03C52.93 43.04 53.01 43.05 53.09 43.05C53.32 43.05 59.12 43.36 61.66 50.75C61.72 51.28 61.8 53.2 61.9 55.59C62.04 58.85 62.25 63.74 62.61 70.27C62.47 70.56 62.26 70.9 61.99 71.1C59.15 72.34 50.56 76.21 48.47 78.28C46.75 79.85 46.68 81.27 46.93 82.2C47.51 84.33 50.09 84.96 50.6 85.06C50.68 85.08 50.76 85.09 50.84 85.09L64.37 86.18C64.42 86.47 64.48 86.81 64.54 87.19C64.63 87.77 64.86 88.33 65.19 88.78C65.9 89.76 66.76 89.91 67.22 89.91C67.68 89.91 68.54 89.76 69.25 88.78C69.58 88.32 69.81 87.77 69.9 87.18C69.96 86.81 70.02 86.47 70.07 86.17L83.6 85.08C83.68 85.08 83.76 85.06 83.84 85.05C84.35 84.95 86.93 84.32 87.51 82.19C87.76 81.27 87.69 79.84 85.97 78.27C83.89 76.2 75.29 72.34 72.45 71.09C72.18 70.9 71.97 70.55 71.83 70.26C72.19 63.73 72.4 58.84 72.54 55.58C72.64 53.18 72.72 51.26 72.78 50.74C75.38 43.24 81.29 43.04 81.35 43.04C81.43 43.04 81.51 43.04 81.59 43.02L104.62 39.82C119.95 38.3 130 36.36 132.58 34.44C133.41 33.93 134.24 32.99 134.23 31.78C134.23 31.17 133.99 30.02 132.49 29.17C132.03 28.87 131.16 28.39 129.07 27.66C126.45 26.74 123.67 26.04 120.79 25.58C114.15 24.53 98.13 21.98 86.49 20.13C86.51 17.15 86.27 14.54 85.76 12.31C86.16 12.32 86.58 12.33 87 12.33C88.35 12.33 89.58 12.26 90.66 12.14C92.8 11.88 93.13 10.65 93.13 9.94C93.13 9.23 92.82 8 90.68 7.72C89.51 7.57 88.22 7.5 86.83 7.5C85.78 7.5 84.79 7.54 83.96 7.6C83.82 7.36 83.67 7.13 83.52 6.92C83.04 6.22 82.24 5.81 81.39 5.81C80.51 5.81 79.7 6.25 79.22 6.99C79.09 7.19 78.97 7.4 78.85 7.61C77.99 7.55 76.98 7.51 75.9 7.51C74.55 7.51 73.3 7.58 72.16 7.72C71.08 2.27 69.6 0 67.23 0L67.21 0ZM73.42 18.08C73.35 16.98 73.17 14.72 72.85 12.23C73.72 12.3 74.68 12.34 75.7 12.34C76.19 12.34 76.68 12.34 77.14 12.32C76.76 14.14 76.54 16.23 76.5 18.57C74.67 18.28 73.81 18.15 73.41 18.08H73.42ZM58.71 12.34C59.74 12.34 60.69 12.3 61.56 12.23C61.24 14.72 61.06 16.98 60.99 18.08C60.59 18.14 59.73 18.28 57.9 18.57C57.86 16.23 57.65 14.15 57.26 12.32C57.72 12.33 58.21 12.34 58.7 12.34H58.71Z" fill="black"/>
</g>
<defs>
<clipPath id="clip0_463_2">
<rect width="134" height="89.91" fill="white" transform="translate(0.209961)"/>
</clipPath>
</defs>
</svg>
