<svg width="263" height="234" viewBox="0 0 263 234" fill="none" xmlns="http://www.w3.org/2000/svg">
<g clip-path="url(#clip0_35_28)">
<path d="M132.88 230.26L133.83 227.27H167.93C169.83 227.3 171.15 225.92 171.23 224.02L171.91 211.62C171.98 210.4 171.08 209.34 169.87 209.19L138.16 205.4C138.16 205.4 141.19 201.01 144.77 168.82C145.6 161.37 146.01 153.89 146.03 146.39C146.05 133.71 146.09 113.79 146.09 112.9H167.47V124.44C167.47 124.44 171.79 141.5 177.56 124.44V112.35C177.56 112.35 255.93 106.75 260.2 106.56C260.51 106.55 260.76 106.3 260.77 105.99C260.77 100.8 261.71 91.4301 258.49 91.4301C252.4 91.2301 176.97 83.8001 176.97 83.8001L176.79 68.1101H191.63C191.63 68.1101 197.1 66.0701 191.63 64.5701H176.31C176.31 64.5701 174.87 58.4401 172.41 58.4401C169.95 58.4401 168.09 64.7501 168.09 64.7501H153.13C153.13 64.7501 146.64 65.7701 153.13 67.9901H167.84L167.78 83.4301H145.7L145.67 41.1401C145.53 32.9001 139.85 2.39014 131.44 2.39014C123.03 2.39014 117.35 32.9001 117.21 41.1401L117.18 83.4301H95.1002L95.0402 67.9901H109.75C116.24 65.7701 109.75 64.7501 109.75 64.7501H94.7902C94.7902 64.7501 92.9302 58.4401 90.4702 58.4401C88.0102 58.4401 86.5702 64.5701 86.5702 64.5701H71.2502C65.7802 66.0701 71.2502 68.1101 71.2502 68.1101H86.0901L85.9102 83.8001C85.9102 83.8001 10.4802 91.2301 4.39016 91.4301C1.17016 91.4301 2.11015 100.8 2.11015 105.99C2.12015 106.3 2.37015 106.55 2.68015 106.56C6.96016 106.74 85.3202 112.35 85.3202 112.35V124.44C91.0901 141.5 95.4102 124.44 95.4102 124.44V112.9H116.79C116.79 113.79 116.83 133.71 116.85 146.39C116.86 153.88 117.28 161.37 118.11 168.82C121.69 201.02 124.72 205.41 124.72 205.41L93.0102 209.2C91.8002 209.34 90.9002 210.41 90.9702 211.63L91.6502 224.03C91.7202 225.93 93.0401 227.31 94.9501 227.3H129.05L130 230.28C130.44 231.68 132.42 231.68 132.87 230.28L132.88 230.26Z" fill="white"/>
<path d="M131.45 2.37012C139.86 2.37012 145.54 32.8801 145.68 41.1201L145.71 83.4101H167.79L167.85 67.9701H153.14C146.65 65.7501 153.14 64.7301 153.14 64.7301H168.1C168.1 64.7301 169.96 58.4201 172.42 58.4201C174.88 58.4201 176.32 64.5501 176.32 64.5501H191.64C197.11 66.0501 191.64 68.0901 191.64 68.0901H176.8L176.98 83.7801C176.98 83.7801 252.41 91.2101 258.5 91.4101C261.72 91.4101 260.78 100.78 260.78 105.97C260.77 106.28 260.52 106.53 260.21 106.54C255.93 106.72 177.57 112.33 177.57 112.33V124.42C175.65 130.11 173.89 132 172.39 132C169.4 132 167.48 124.42 167.48 124.42V112.88H146.1C146.1 113.77 146.06 133.69 146.04 146.37C146.03 153.86 145.61 161.35 144.78 168.8C141.2 201 138.17 205.38 138.17 205.38L169.88 209.17C171.09 209.31 171.99 210.38 171.92 211.6L171.24 224C171.17 225.89 169.86 227.27 167.97 227.27C167.97 227.27 167.95 227.27 167.94 227.27H133.84L132.89 230.25C132.67 230.95 132.06 231.3 131.46 231.3C130.86 231.3 130.25 230.95 130.03 230.25L129.08 227.26H94.9801C94.9801 227.26 94.9601 227.27 94.9501 227.27C93.0601 227.27 91.7501 225.9 91.6801 224L91.0001 211.6C90.9301 210.38 91.8301 209.32 93.0401 209.17L124.75 205.38C124.75 205.38 121.72 200.99 118.14 168.79C117.31 161.34 116.9 153.86 116.88 146.36C116.86 133.68 116.82 113.76 116.82 112.87H95.4401V124.41C95.4401 124.41 93.5201 131.99 90.5301 131.99C89.0401 131.99 87.2701 130.09 85.3501 124.41V112.32C85.3501 112.32 6.97014 106.74 2.70014 106.56C2.39014 106.55 2.14014 106.3 2.13014 105.99C2.13014 100.8 1.19014 91.4301 4.41014 91.4301C10.5001 91.2301 85.9301 83.8001 85.9301 83.8001L86.1101 68.1101H71.2701C71.2701 68.1101 65.8001 66.0701 71.2701 64.5701H86.5901C86.5901 64.5701 88.0301 58.4401 90.4901 58.4401C92.9501 58.4401 94.8101 64.7501 94.8101 64.7501H109.77C109.77 64.7501 116.26 65.7701 109.77 67.9901H95.0601L95.1201 83.4301H117.2L117.23 41.1401C117.37 32.9001 123.05 2.39012 131.46 2.39012M131.45 0.370117C126.71 0.370117 122.74 6.17012 119.31 18.1001C116.85 26.6601 115.29 36.5101 115.22 41.0801L115.2 81.4101H97.1101L97.0701 69.9701H109.78C110 69.9701 110.22 69.9301 110.43 69.8601C111.87 69.3701 114.87 68.3401 114.66 65.9201C114.48 63.8601 112.08 63.0601 110.1 62.7401C110 62.7201 109.89 62.7201 109.79 62.7201H96.2801C95.3301 60.1201 93.4701 56.4101 90.5101 56.4101C87.5501 56.4101 85.8801 59.9701 85.0801 62.5401H71.2901C71.1101 62.5401 70.9301 62.5601 70.7601 62.6101C69.8201 62.8701 66.9701 63.6501 66.8601 66.0001C66.7601 68.2701 69.4301 69.5201 70.5901 69.9501C70.8101 70.0301 71.0501 70.0801 71.2901 70.0801H84.1001L83.9601 81.9601C72.5301 83.0801 9.98014 89.2101 4.38014 89.4101C3.44014 89.4201 2.58014 89.7901 1.91014 90.4801C-0.0498643 92.5001 -0.0898642 96.7501 0.0801358 103C0.110136 104.07 0.140136 105.09 0.140136 105.96C0.140136 105.99 0.140136 106.02 0.140136 106.04C0.200136 107.4 1.27014 108.47 2.63014 108.53C6.46014 108.69 71.4601 113.33 83.3601 114.18V124.41C83.3601 124.63 83.4001 124.84 83.4701 125.05C85.5601 131.23 87.7401 133.99 90.5401 133.99C94.7601 133.99 96.8501 127.03 97.3901 124.9C97.4301 124.74 97.4501 124.57 97.4501 124.41V114.87H114.83C114.83 118.51 114.85 126.53 114.87 134.58L114.89 146.37C114.9 153.94 115.33 161.56 116.16 169.02C118.53 190.31 120.69 199.69 121.96 203.7L92.8001 207.18C90.5401 207.45 88.8801 209.44 89.0001 211.7L89.6801 224.1C89.7901 227.07 92.0101 229.26 94.9501 229.26H127.61L128.12 230.84C128.58 232.3 129.93 233.28 131.46 233.28C132.99 233.28 134.34 232.3 134.8 230.84L135.31 229.25H167.95C170.92 229.26 173.13 227.08 173.25 224.07L173.93 211.7C174.05 209.43 172.39 207.44 170.13 207.18L140.97 203.7C142.24 199.68 144.41 190.31 146.77 169.02C147.6 161.57 148.02 153.95 148.04 146.37L148.06 134.82C148.08 126.69 148.09 118.55 148.1 114.88H165.48V124.42C165.48 124.59 165.5 124.75 165.54 124.91C166.08 127.04 168.17 134 172.39 134C175.19 134 177.37 131.24 179.46 125.06C179.53 124.85 179.57 124.64 179.57 124.42V114.19C191.47 113.34 256.47 108.7 260.3 108.54C261.66 108.48 262.73 107.41 262.79 106.05C262.79 106.02 262.79 105.99 262.79 105.97C262.79 105.09 262.82 104.08 262.85 103.01C263.02 96.7601 262.99 92.5101 261.02 90.4901C260.35 89.8001 259.49 89.4301 258.55 89.4201C252.95 89.2201 190.41 83.1001 178.97 81.9701L178.83 70.0901H191.64C191.88 70.0901 192.12 70.0501 192.34 69.9601C193.49 69.5301 196.17 68.2801 196.07 66.0101C195.96 63.6601 193.11 62.8701 192.17 62.6201C192 62.5701 191.82 62.5501 191.64 62.5501H177.85C177.05 59.9801 175.4 56.4201 172.42 56.4201C169.44 56.4201 167.59 60.1301 166.65 62.7301H153.14C153.04 62.7301 152.93 62.7301 152.83 62.7501C150.85 63.0601 148.45 63.8701 148.27 65.9301C148.06 68.3501 151.06 69.3701 152.5 69.8701C152.71 69.9401 152.93 69.9801 153.15 69.9801H165.86L165.82 81.4201H147.73L147.71 41.1201C147.63 36.5201 146.08 26.6701 143.62 18.1101C140.19 6.18012 136.22 0.380117 131.48 0.380117L131.45 0.370117Z" fill="black"/>
</g>
<defs>
<clipPath id="clip0_35_28">
<rect width="262.89" height="232.94" fill="white" transform="translate(0 0.370117)"/>
</clipPath>
</defs>
</svg>
