<svg width="277" height="247" viewBox="0 0 277 247" fill="none" xmlns="http://www.w3.org/2000/svg">
<g clip-path="url(#clip0_36_35)">
<path d="M139.92 243.21L140.87 240.22H174.97C176.87 240.25 178.19 238.87 178.27 236.97L178.95 224.57C179.02 223.35 178.12 222.29 176.91 222.14L145.2 218.35C145.2 218.35 148.23 201.01 151.81 168.81C152.64 161.36 153.05 153.88 153.07 146.38C153.09 133.7 153.13 119.68 153.13 118.79H174.51V130.33C174.51 130.33 178.83 147.39 184.6 130.33V118.24C184.6 118.24 269.06 112.64 273.34 112.45C273.65 112.44 273.9 112.19 273.91 111.88C273.91 106.69 274.85 97.3201 271.63 97.3201C265.54 97.1201 184.02 89.6901 184.02 89.6901L183.84 74.0001H198.68C198.68 74.0001 204.15 71.9601 198.68 70.4601H183.36C183.36 70.4601 181.92 64.3301 179.46 64.3301C177 64.3301 175.14 70.6401 175.14 70.6401H160.18C160.18 70.6401 153.69 71.6601 160.18 73.8801H174.89L174.83 89.3201H152.75L152.72 41.1301C152.58 32.8901 146.9 2.38013 138.49 2.38013C130.08 2.38013 124.4 32.8901 124.26 41.1301L124.23 89.3201H102.15L102.09 73.8801H116.8C123.29 71.6601 116.8 70.6401 116.8 70.6401H101.84C101.84 70.6401 99.9803 64.3301 97.5203 64.3301C95.0603 64.3301 93.6203 70.4601 93.6203 70.4601H78.3003C72.8303 71.9601 78.3003 74.0001 78.3003 74.0001H93.1403L92.9603 89.6901C92.9603 89.6901 11.3803 97.1201 5.30031 97.3201C2.08031 97.3201 3.02031 106.69 3.02031 111.88C3.03031 112.19 3.28031 112.44 3.59031 112.45C7.87031 112.63 92.3803 118.24 92.3803 118.24V130.33C98.1503 147.39 102.47 130.33 102.47 130.33V118.79H123.85C123.85 119.68 123.89 133.7 123.91 146.38C123.92 153.87 124.34 161.36 125.17 168.81C128.75 201.01 131.78 218.35 131.78 218.35L100.07 222.14C98.8603 222.28 97.9603 223.35 98.0303 224.57L98.7103 236.97C98.7803 238.87 100.1 240.25 102.01 240.24H136.11L137.06 243.22C137.5 244.62 139.48 244.62 139.93 243.22L139.92 243.21Z" fill="white"/>
<path d="M138.48 2.37012C146.89 2.37012 152.57 32.8801 152.71 41.1201L152.74 89.3101H174.82L174.88 73.8701H160.17C153.68 71.6501 160.17 70.6301 160.17 70.6301H175.13C175.13 70.6301 176.99 64.3201 179.45 64.3201C181.91 64.3201 183.35 70.4501 183.35 70.4501H198.67C204.14 71.9501 198.67 73.9901 198.67 73.9901H183.83L184.01 89.6801C184.01 89.6801 265.53 97.1101 271.62 97.3101C274.84 97.3101 273.9 106.68 273.9 111.87C273.89 112.18 273.64 112.43 273.33 112.44C269.05 112.62 184.59 118.23 184.59 118.23V130.32C182.67 136.01 180.91 137.9 179.41 137.9C176.42 137.9 174.5 130.32 174.5 130.32V118.78H153.12C153.12 119.67 153.08 133.69 153.06 146.37C153.05 153.86 152.63 161.35 151.8 168.8C148.22 201 145.19 218.34 145.19 218.34L176.9 222.13C178.11 222.27 179.01 223.34 178.94 224.56L178.26 236.96C178.19 238.85 176.88 240.23 174.99 240.23C174.99 240.23 174.97 240.23 174.96 240.23H140.86L139.91 243.21C139.69 243.91 139.08 244.26 138.48 244.26C137.88 244.26 137.27 243.91 137.05 243.21L136.1 240.22H102C102 240.22 101.98 240.23 101.97 240.23C100.08 240.23 98.7703 238.86 98.7003 236.96L98.0203 224.56C97.9503 223.34 98.8503 222.28 100.06 222.13L131.77 218.34C131.77 218.34 128.74 201 125.16 168.8C124.33 161.35 123.92 153.87 123.9 146.37C123.88 133.69 123.84 119.67 123.84 118.78H102.46V130.32C102.46 130.32 100.54 137.9 97.5503 137.9C96.0603 137.9 94.2903 136 92.3703 130.32V118.23C92.3703 118.23 7.86027 112.64 3.59027 112.45C3.28027 112.44 3.03027 112.19 3.02027 111.88C3.02027 106.69 2.08027 97.3201 5.30027 97.3201C11.3903 97.1201 92.9603 89.6901 92.9603 89.6901L93.1403 74.0001H78.3003C78.3003 74.0001 72.8303 71.9601 78.3003 70.4601H93.6203C93.6203 70.4601 95.0603 64.3301 97.5203 64.3301C99.9803 64.3301 101.84 70.6401 101.84 70.6401H116.8C116.8 70.6401 123.29 71.6601 116.8 73.8801H102.09L102.15 89.3201H124.23L124.26 41.1301C124.4 32.8901 130.08 2.38012 138.49 2.38012M138.48 0.370117C133.74 0.370117 129.77 6.17012 126.34 18.1001C123.88 26.6601 122.32 36.5101 122.25 41.0801L122.23 87.3101H104.14L104.1 75.8701H116.81C117.03 75.8701 117.25 75.8301 117.46 75.7601C118.9 75.2701 121.9 74.2401 121.69 71.8201C121.51 69.7601 119.11 68.9601 117.13 68.6401C117.03 68.6201 116.92 68.6201 116.82 68.6201H103.31C102.36 66.0201 100.5 62.3101 97.5403 62.3101C94.5803 62.3101 92.9103 65.8701 92.1103 68.4401H78.3203C78.1403 68.4401 77.9603 68.4601 77.7903 68.5101C76.8503 68.7701 74.0003 69.5501 73.8903 71.9001C73.7903 74.1701 76.4603 75.4201 77.6203 75.8501C77.8403 75.9301 78.0803 75.9801 78.3203 75.9801H91.1303L90.9903 87.8401C78.9803 88.9301 10.9103 95.1001 5.27027 95.3001C4.33027 95.3101 3.47027 95.6801 2.80027 96.3701C0.840272 98.3901 0.800272 102.64 0.970272 108.89C1.00027 109.96 1.03027 110.98 1.03027 111.85C1.03027 111.88 1.03027 111.91 1.03027 111.93C1.09027 113.29 2.16027 114.36 3.52027 114.42C7.37027 114.58 77.9303 119.25 90.4003 120.08V130.3C90.4003 130.52 90.4403 130.73 90.5103 130.94C92.6003 137.12 94.7803 139.88 97.5803 139.88C101.8 139.88 103.89 132.92 104.43 130.79C104.47 130.63 104.49 130.46 104.49 130.3V120.76H121.88C121.88 121.61 121.88 122.7 121.88 123.98C121.89 129.39 121.91 138.15 121.93 146.35C121.94 153.92 122.37 161.54 123.2 169C126.05 194.65 128.58 211.05 129.48 216.58L99.8403 220.12C97.5803 220.39 95.9203 222.38 96.0403 224.64L96.7203 237.04C96.8303 240.01 99.0503 242.2 101.99 242.2H134.65L135.16 243.78C135.62 245.24 136.97 246.22 138.5 246.22C140.03 246.22 141.38 245.24 141.84 243.78L142.35 242.19H174.99C177.96 242.2 180.17 240.02 180.29 237.01L180.97 224.64C181.09 222.37 179.43 220.38 177.17 220.12L147.53 216.58C148.43 211.05 150.96 194.65 153.81 169C154.64 161.55 155.06 153.93 155.08 146.35C155.1 138.15 155.12 129.38 155.13 123.98C155.13 122.7 155.13 121.61 155.13 120.76H172.52V130.3C172.52 130.47 172.54 130.63 172.58 130.79C173.12 132.92 175.21 139.88 179.43 139.88C182.23 139.88 184.41 137.12 186.5 130.94C186.57 130.73 186.61 130.52 186.61 130.3V120.08C199.07 119.25 269.58 114.59 273.43 114.42C274.79 114.36 275.86 113.29 275.92 111.93C275.92 111.9 275.92 111.87 275.92 111.85C275.92 110.97 275.95 109.96 275.98 108.89C276.15 102.64 276.12 98.3901 274.15 96.3701C273.48 95.6801 272.62 95.3101 271.68 95.3001C266.04 95.1001 198.01 88.9301 186.01 87.8401L185.87 75.9801H198.68C198.92 75.9801 199.16 75.9401 199.38 75.8501C200.53 75.4201 203.21 74.1701 203.11 71.9001C203 69.5501 200.15 68.7601 199.21 68.5101C199.04 68.4601 198.86 68.4401 198.68 68.4401H184.89C184.09 65.8701 182.44 62.3101 179.46 62.3101C176.48 62.3101 174.63 66.0201 173.69 68.6201H160.18C160.08 68.6201 159.97 68.6201 159.87 68.6401C157.89 68.9501 155.49 69.7601 155.31 71.8201C155.1 74.2401 158.1 75.2601 159.54 75.7601C159.75 75.8301 159.97 75.8701 160.19 75.8701H172.9L172.86 87.3101H154.77L154.75 41.1201C154.67 36.5201 153.12 26.6701 150.66 18.1101C147.23 6.18012 143.26 0.380117 138.52 0.380117L138.48 0.370117Z" fill="black"/>
</g>
<defs>
<clipPath id="clip0_36_35">
<rect width="275.13" height="245.89" fill="white" transform="translate(0.890137 0.370117)"/>
</clipPath>
</defs>
</svg>
