<svg width="288" height="342" viewBox="0 0 288 342" fill="none" xmlns="http://www.w3.org/2000/svg">
<g clip-path="url(#clip0_37_41)">
<path d="M144.78 338.51L145.73 335.52H179.83C181.73 335.55 183.05 334.17 183.13 332.27L183.81 319.87C183.88 318.65 182.98 317.59 181.77 317.44L150.06 313.65C150.06 313.65 153.09 296.31 156.67 264.11C157.5 256.66 157.91 211.51 157.93 204.01C157.95 191.33 157.99 176.75 157.99 175.86H182.9V187.96C182.9 187.96 187.15 211.97 192.59 187.96V173.58C192.59 173.58 280.34 167.61 284.62 167.43C284.93 167.42 285.18 167.17 285.19 166.86C285.19 161.67 286.64 156.42 281.75 153.3C275.66 153.1 192 147.31 192 147.31L191.82 121.46H206.66C206.66 121.46 212.13 119.42 206.66 117.92H191.34C191.34 117.92 189.9 111.79 187.44 111.79C184.98 111.79 183.12 118.1 183.12 118.1H168.16C168.16 118.1 161.67 119.12 168.16 121.34H182.87L182.81 146.94H157.59L157.56 41.1201C157.42 32.8801 151.74 2.37012 143.33 2.37012C134.92 2.37012 129.24 32.8801 129.1 41.1201L129.07 146.94H103.58L103.52 121.5H118.23C124.72 119.28 118.23 118.26 118.23 118.26H103.27C103.27 118.26 101.41 111.95 98.9499 111.95C96.4899 111.95 95.0499 118.08 95.0499 118.08H79.7299C74.2599 119.58 79.7299 121.62 79.7299 121.62H94.5699L94.3899 147.32C94.3899 147.32 10.4899 152.33 4.39992 152.53C1.17992 152.53 2.11992 161.9 2.11992 167.09C2.12992 167.4 2.37992 167.65 2.68992 167.66C6.96992 167.84 94.1199 175.55 94.1199 175.55V187.64C100.21 211.76 103.89 187.96 103.89 187.96V175.97H128.68C128.68 176.86 128.72 191.33 128.74 204.01C128.75 211.5 129.17 256.66 130 264.11C133.58 296.31 136.61 313.65 136.61 313.65L104.9 317.44C103.69 317.58 102.79 318.65 102.86 319.87L103.54 332.27C103.61 334.17 104.93 335.55 106.84 335.54H140.94L141.89 338.52C142.33 339.92 144.31 339.92 144.76 338.52L144.78 338.51Z" fill="white"/>
<path d="M143.34 2.37008C151.75 2.37008 157.43 32.8801 157.57 41.1201L157.6 146.94H182.82L182.88 121.34H168.17C161.68 119.12 168.17 118.1 168.17 118.1H183.13C183.13 118.1 184.99 111.79 187.45 111.79C189.91 111.79 191.35 117.92 191.35 117.92H206.67C212.14 119.42 206.67 121.46 206.67 121.46H191.83L192.01 147.31C192.01 147.31 275.67 153.1 281.76 153.3C286.65 156.41 285.2 161.66 285.2 166.86C285.19 167.17 284.94 167.42 284.63 167.43C280.35 167.61 192.6 173.58 192.6 173.58V187.96C190.78 195.97 189.1 198.63 187.67 198.63C184.8 198.63 182.91 187.96 182.91 187.96V175.86H158C158 176.75 157.96 191.33 157.94 204.01C157.93 211.5 157.51 256.66 156.68 264.11C153.1 296.31 150.07 313.65 150.07 313.65L181.78 317.44C182.99 317.58 183.89 318.65 183.82 319.87L183.14 332.27C183.07 334.16 181.76 335.54 179.87 335.54C179.87 335.54 179.85 335.54 179.84 335.54H145.74L144.79 338.52C144.57 339.22 143.96 339.57 143.36 339.57C142.76 339.57 142.15 339.22 141.93 338.52L140.98 335.53H106.88C106.88 335.53 106.86 335.54 106.85 335.54C104.96 335.54 103.65 334.17 103.58 332.27L102.9 319.87C102.83 318.65 103.73 317.59 104.94 317.44L136.65 313.65C136.65 313.65 133.62 296.31 130.04 264.11C129.21 256.66 128.8 211.51 128.78 204.01C128.76 191.33 128.72 176.86 128.72 175.97H103.93V187.96C103.93 187.96 102.31 198.45 99.4299 198.45C97.9699 198.45 96.1999 195.76 94.1499 187.65V175.56C94.1499 175.56 6.9999 167.85 2.7199 167.67C2.4099 167.66 2.1599 167.41 2.1499 167.1C2.1499 161.91 1.2099 152.54 4.4299 152.54C10.5199 152.34 94.4199 147.33 94.4199 147.33L94.5999 121.63H79.7599C79.7599 121.63 74.2899 119.59 79.7599 118.09H95.0799C95.0799 118.09 96.5199 111.96 98.9799 111.96C101.44 111.96 103.3 118.27 103.3 118.27H118.26C118.26 118.27 124.75 119.29 118.26 121.51H103.55L103.61 146.95H129.1L129.13 41.1301C129.27 32.8901 134.95 2.38008 143.36 2.38008M143.34 0.370078C138.6 0.370078 134.63 6.17008 131.2 18.1001C128.74 26.6701 127.18 36.5101 127.11 41.0801L127.08 144.93H105.59L105.54 123.49H118.25C118.47 123.49 118.69 123.45 118.9 123.38C120.34 122.89 123.34 121.86 123.13 119.44C122.95 117.38 120.55 116.58 118.57 116.26C118.47 116.24 118.36 116.24 118.26 116.24H104.75C103.8 113.64 101.94 109.93 98.9799 109.93C96.0199 109.93 94.3499 113.49 93.5499 116.06H79.7599C79.5799 116.06 79.3999 116.08 79.2299 116.13C78.2899 116.39 75.4399 117.17 75.3299 119.52C75.2299 121.79 77.8999 123.04 79.0599 123.47C79.2799 123.55 79.5199 123.6 79.7599 123.6H92.5799L92.4299 145.41C80.0299 146.15 10.0699 150.31 4.3899 150.5C3.4499 150.5 2.5899 150.88 1.9199 151.57C-0.0400987 153.59 -0.0800986 157.84 0.0899014 164.09C0.119901 165.16 0.149901 166.18 0.149901 167.05C0.149901 167.08 0.149901 167.11 0.149901 167.13C0.209901 168.49 1.2799 169.56 2.6399 169.62C6.4799 169.78 79.5899 176.24 92.1599 177.35V187.61C92.1599 187.78 92.1799 187.94 92.2199 188.1C94.4299 196.85 96.5199 200.42 99.4399 200.42C103.23 200.42 105.05 193.79 105.91 188.24C105.93 188.14 105.93 188.04 105.93 187.93V177.94H126.72C126.72 178.87 126.72 180.09 126.72 181.53C126.73 187.09 126.75 195.9 126.77 203.98C126.78 211.36 127.19 256.63 128.04 264.29C130.89 289.94 133.42 306.34 134.32 311.87L104.68 315.41C102.42 315.68 100.76 317.67 100.88 319.93L101.56 332.33C101.67 335.3 103.89 337.49 106.83 337.49H139.49L140 339.07C140.46 340.53 141.81 341.51 143.34 341.51C144.87 341.51 146.22 340.53 146.68 339.07L147.19 337.48H179.83C182.8 337.49 185.01 335.31 185.13 332.3L185.81 319.93C185.93 317.66 184.27 315.67 182.01 315.41L152.37 311.87C153.27 306.34 155.8 289.94 158.65 264.29C159.5 256.62 159.9 211.35 159.92 203.98C159.94 195.93 159.96 187.11 159.97 181.51C159.97 180.03 159.97 178.78 159.97 177.82H180.89V187.92C180.89 188.04 180.9 188.15 180.92 188.27C181.92 193.89 183.89 200.59 187.65 200.59C190.57 200.59 192.56 197.05 194.53 188.36C194.56 188.21 194.58 188.07 194.58 187.92V175.41C207.31 174.55 280.84 169.56 284.7 169.39C286.06 169.33 287.13 168.26 287.19 166.9C287.19 166.87 287.19 166.84 287.19 166.82C287.19 165.89 287.24 164.93 287.29 163.99C287.52 159.65 287.78 154.72 282.83 151.57C282.53 151.38 282.18 151.27 281.82 151.26C276.34 151.08 206.35 146.25 193.99 145.4L193.84 123.41H206.66C206.9 123.41 207.14 123.37 207.36 123.28C208.51 122.85 211.19 121.6 211.09 119.33C210.98 116.98 208.13 116.19 207.19 115.94C207.02 115.89 206.84 115.87 206.66 115.87H192.87C192.07 113.3 190.42 109.74 187.44 109.74C184.46 109.74 182.61 113.45 181.67 116.05H168.16C168.06 116.05 167.95 116.05 167.85 116.07C165.87 116.38 163.47 117.19 163.29 119.25C163.08 121.67 166.08 122.69 167.52 123.19C167.73 123.26 167.95 123.3 168.17 123.3H180.88L180.83 144.9H159.61L159.59 41.0801C159.51 36.4801 157.96 26.6301 155.5 18.0601C152.07 6.13008 148.1 0.330078 143.36 0.330078L143.34 0.370078Z" fill="black"/>
</g>
<defs>
<clipPath id="clip0_37_41">
<rect width="287.37" height="341.19" fill="white" transform="translate(0.0200195 0.370117)"/>
</clipPath>
</defs>
</svg>
