<svg width="288" height="255" viewBox="0 0 288 255" fill="none" xmlns="http://www.w3.org/2000/svg">
<g clip-path="url(#clip0_41_62)">
<path d="M144.09 252.99L145.21 250.33H190.2C190.67 250.33 191.1 250.06 191.3 249.63C192.92 246 194.62 230.17 190.81 230.17L149.79 223.57L158.19 161.21C158.74 157.16 159.01 153.08 159.01 149V125.55L178.54 124.17C178.54 124.17 179.34 127.2 179.71 127.2C180.08 127.2 181.04 124.17 181.04 124.17L213.23 121.62C213.23 121.62 214.13 124.71 214.72 124.92C215.31 125.13 216.21 121.36 216.21 121.36L234.99 120.19C234.99 120.19 235.15 124.13 236.91 124.13C238.67 124.13 238.88 119.87 238.88 119.87L285.29 116.77C285.61 116.75 285.86 116.48 285.86 116.17V100.24C285.86 100.24 285.12 98.2701 282.51 97.9C279.9 97.53 247.61 93.3801 247.61 93.3801V94.12L219.68 90.87V85.12L220.64 85.0601L219.68 81.2401C219.68 81.2401 219.25 76.8201 218.12 73.0201C218.12 73.0201 220.68 72.97 226.64 73.0201C236.8 71.9501 226.64 70.8901 226.64 70.8901H217.37C216.68 69.2501 215.81 68 214.73 67.73C213.74 67.43 212.83 68.8501 212.05 70.8901H203.13C203.13 70.8901 193 71.9601 203.13 73.0201C207.94 72.98 210.53 73.0001 211.34 73.0201C210.15 77.0701 209.41 81.94 209.41 81.94L208.77 85.2401H209.51V90.0301L184.65 87.0701V81.2501H185.5C185.5 81.2501 185.03 77.9401 184.58 77.5401C184.51 77.0501 184.4 72.51 183.22 68.69C184.04 68.68 186.63 68.65 191.45 68.69C201.61 67.62 191.45 66.5601 191.45 66.5601H182.39C181.77 65.2901 180.97 64.26 179.92 63.72C178.76 63.9 177.85 65.0201 177.14 66.5601H167.94C167.94 66.5601 157.81 67.6301 167.94 68.69C173.23 68.64 175.83 68.68 176.34 68.69C175.11 72.66 174.76 77.5601 174.76 77.5601L173.86 80.83H174.71V85.9901L158.32 84.4701C158.32 84.4701 158.75 59.0201 157.68 41.64C156.76 29.08 148.03 5.46005 148.03 5.46005C148.03 5.46005 146.63 2.55005 144.1 2.55005C141.57 2.55005 140.17 5.46005 140.17 5.46005C140.17 5.46005 131.44 29.08 130.52 41.64C129.46 59.0201 129.88 84.4701 129.88 84.4701L113.49 85.9901V80.83H114.34L113.44 77.5601C113.44 77.5601 113.09 72.66 111.86 68.69C112.37 68.69 114.97 68.64 120.26 68.69C130.39 67.62 120.26 66.5601 120.26 66.5601H111.06C110.35 65.0301 109.44 63.91 108.28 63.72C107.24 64.26 106.44 65.2901 105.81 66.5601H96.7498C96.7498 66.5601 86.5898 67.6301 96.7498 68.69C101.57 68.65 104.17 68.6701 104.98 68.69C103.8 72.51 103.69 77.0501 103.62 77.5401C103.17 77.9401 102.7 81.2501 102.7 81.2501H103.55V87.0701L78.6898 90.0301V85.2401H79.4298L78.7898 81.94C78.7898 81.94 78.0498 77.0701 76.8598 73.0201C77.6698 73.01 80.2598 72.98 85.0698 73.0201C95.1998 71.9501 85.0698 70.8901 85.0698 70.8901H76.1498C75.3698 68.8501 74.4598 67.43 73.4698 67.73C72.3898 68.01 71.5198 69.2601 70.8298 70.8901H61.5598C61.5598 70.8901 51.3998 71.9601 61.5598 73.0201C67.5198 72.97 70.0798 73.0201 70.0798 73.0201C68.9498 76.8201 68.5198 81.2401 68.5198 81.2401L67.5598 85.0601L68.5198 85.12V90.87L40.5898 94.12V93.3801C40.5898 93.3801 8.29984 97.53 5.68984 97.9C3.07984 98.2701 2.33984 100.24 2.33984 100.24V116.17C2.33984 116.49 2.58984 116.75 2.90984 116.77L49.3198 119.87C49.3198 119.87 49.5298 124.13 51.2898 124.13C53.0498 124.13 53.2098 120.19 53.2098 120.19L71.9898 121.36C71.9898 121.36 72.8898 125.14 73.4798 124.92C74.0698 124.71 74.9698 121.62 74.9698 121.62L107.16 124.17C107.16 124.17 108.12 127.2 108.49 127.2C108.86 127.2 109.66 124.17 109.66 124.17L129.19 125.55V149C129.19 153.08 129.46 157.16 130.01 161.21L138.41 223.57L97.3898 230.17C93.5798 230.17 95.2798 246.01 96.8998 249.63C97.0898 250.06 97.5298 250.33 97.9998 250.33H142.99L144.11 252.99H144.09Z" fill="white"/>
<path d="M144.089 2.56005C146.619 2.56005 148.019 5.47005 148.019 5.47005C148.019 5.47005 156.749 29.09 157.669 41.65C158.729 59.03 158.309 84.48 158.309 84.48L174.699 86.0001V80.84H173.849L174.749 77.5701C174.749 77.5701 175.099 72.6701 176.329 68.7001C176.009 68.7001 174.879 68.6801 172.779 68.6801C171.519 68.6801 169.919 68.6801 167.939 68.7001C157.809 67.6301 167.939 66.5701 167.939 66.5701H177.139C177.849 65.0401 178.759 63.92 179.919 63.73C180.959 64.27 181.759 65.3001 182.389 66.5701H191.449C191.449 66.5701 201.609 67.6401 191.449 68.7001C189.459 68.6801 187.849 68.6801 186.589 68.6801C184.789 68.6801 183.689 68.69 183.209 68.7001C184.389 72.5201 184.499 77.0601 184.569 77.55C185.019 77.9501 185.489 81.26 185.489 81.26H184.639V87.08L209.499 90.0401V85.2501H208.759L209.399 81.9501C209.399 81.9501 210.139 77.0801 211.329 73.0301C210.849 73.0301 209.759 73.01 207.959 73.01C206.699 73.01 205.099 73.0101 203.119 73.0301C192.989 71.9601 203.119 70.9 203.119 70.9H212.039C212.749 69.04 213.569 67.7001 214.459 67.7001C214.549 67.7001 214.629 67.7101 214.719 67.7401C215.799 68.0201 216.669 69.2701 217.359 70.9H226.629C226.629 70.9 236.789 71.9701 226.629 73.0301C224.639 73.0101 223.029 73.01 221.769 73.01C219.249 73.01 218.109 73.0301 218.109 73.0301C219.239 76.8301 219.669 81.2501 219.669 81.2501L220.629 85.0701L219.669 85.1301V90.8801L247.599 94.1301V93.3901C247.599 93.3901 279.889 97.54 282.499 97.91C285.109 98.2801 285.849 100.25 285.849 100.25V116.18C285.849 116.5 285.599 116.76 285.279 116.78L238.869 119.88C238.869 119.88 238.659 124.14 236.899 124.14C235.139 124.14 234.979 120.2 234.979 120.2L216.199 121.37C216.199 121.37 215.339 124.94 214.759 124.94C214.739 124.94 214.729 124.94 214.709 124.94C214.119 124.73 213.219 121.64 213.219 121.64L181.029 124.19C181.029 124.19 180.069 127.22 179.699 127.22C179.329 127.22 178.529 124.19 178.529 124.19L158.999 125.57V149.02C158.999 153.1 158.729 157.18 158.179 161.23L149.779 223.59L190.799 230.19C194.609 230.19 192.909 246.03 191.289 249.65C191.099 250.08 190.659 250.35 190.189 250.35H145.199L144.079 253.01L142.959 250.35H97.9694C97.4994 250.35 97.0694 250.08 96.8694 249.65C95.2494 246.02 93.5494 230.19 97.3594 230.19L138.379 223.59L129.979 161.23C129.429 157.18 129.159 153.1 129.159 149.02V125.57L109.629 124.19C109.629 124.19 108.829 127.22 108.459 127.22C108.089 127.22 107.129 124.19 107.129 124.19L74.9394 121.64C74.9394 121.64 74.0394 124.73 73.4494 124.94C73.4294 124.94 73.4194 124.94 73.3994 124.94C72.8094 124.94 71.9594 121.37 71.9594 121.37L53.1794 120.2C53.1794 120.2 53.0194 124.14 51.2594 124.14C49.4994 124.14 49.2894 119.88 49.2894 119.88L2.87937 116.78C2.55938 116.76 2.30938 116.49 2.30938 116.18V100.25C2.30938 100.25 3.04938 98.2801 5.65938 97.91C8.26937 97.54 40.5594 93.3901 40.5594 93.3901V94.1301L68.4894 90.8801V85.1301L67.5294 85.0701L68.4894 81.2501C68.4894 81.2501 68.9194 76.8301 70.0494 73.0301C70.0494 73.0301 68.9094 73.01 66.3894 73.01C65.1294 73.01 63.5194 73.0101 61.5294 73.0301C51.3694 71.9601 61.5294 70.9 61.5294 70.9H70.7994C71.4894 69.26 72.3594 68.01 73.4394 67.7401C73.5294 67.7101 73.6194 67.7001 73.6994 67.7001C74.5894 67.7001 75.4094 69.04 76.1194 70.9H85.0394C85.0394 70.9 95.1694 71.9701 85.0394 73.0301C83.0594 73.0101 81.4594 73.01 80.1994 73.01C78.3994 73.01 77.3094 73.0201 76.8294 73.0301C78.0194 77.0801 78.7594 81.9501 78.7594 81.9501L79.3994 85.2501H78.6594V90.0401L103.519 87.08V81.26H102.669C102.669 81.26 103.139 77.9501 103.589 77.55C103.659 77.0601 103.769 72.5201 104.949 68.7001C104.469 68.7001 103.369 68.6801 101.569 68.6801C100.309 68.6801 98.6994 68.6801 96.7094 68.7001C86.5494 67.6301 96.7094 66.5701 96.7094 66.5701H105.769C106.389 65.3001 107.189 64.27 108.239 63.73C109.399 63.91 110.309 65.0301 111.019 66.5701H120.219C120.219 66.5701 130.349 67.6401 120.219 68.7001C118.239 68.6801 116.639 68.6801 115.379 68.6801C113.279 68.6801 112.139 68.7001 111.829 68.7001C113.059 72.6701 113.409 77.5701 113.409 77.5701L114.309 80.84H113.459V86.0001L129.849 84.48C129.849 84.48 129.419 59.03 130.489 41.65C131.409 29.09 140.139 5.47005 140.139 5.47005C140.139 5.47005 141.539 2.56005 144.069 2.56005M144.089 0.560049C141.099 0.560049 139.079 3.10005 138.359 4.60005C138.329 4.66005 138.309 4.72005 138.289 4.77005C137.929 5.75005 129.459 28.8 128.519 41.49C127.629 56.06 127.779 76.4501 127.849 82.6401L115.489 83.7801V82.4501C115.659 82.33 115.809 82.19 115.929 82.0201C116.309 81.5201 116.429 80.8801 116.269 80.2801L115.419 77.19C115.359 76.41 115.099 73.6 114.449 70.65C114.749 70.65 115.069 70.65 115.419 70.65C116.669 70.65 118.269 70.6501 120.239 70.6701C120.239 70.6701 120.249 70.6701 120.259 70.6701C120.329 70.6701 120.399 70.6701 120.469 70.66C123.989 70.29 126.759 70 126.759 67.65C126.759 65.59 124.639 65.0001 120.469 64.5601C120.399 64.5601 120.329 64.55 120.259 64.55H112.259C111.259 62.91 110.029 61.96 108.589 61.74C108.489 61.72 108.379 61.72 108.279 61.72C107.959 61.72 107.649 61.8 107.359 61.94C106.319 62.48 105.399 63.35 104.639 64.55H96.7494C96.6794 64.55 96.6094 64.55 96.5394 64.5601C92.3594 65.0001 90.2294 65.6 90.2294 67.65C90.2294 70 93.0094 70.3 96.5394 70.66C96.6094 70.66 96.6794 70.6701 96.7494 70.6701C96.7494 70.6701 96.7594 70.6701 96.7694 70.6701C98.7494 70.6501 100.349 70.65 101.609 70.65C101.899 70.65 102.169 70.65 102.429 70.65C101.899 73.26 101.739 75.7401 101.669 76.84C101.669 76.86 101.669 76.87 101.669 76.8801C101.369 77.5301 101.039 78.69 100.729 80.94C100.649 81.51 100.819 82.09 101.199 82.5301C101.309 82.6501 101.429 82.7601 101.559 82.8601V85.26L80.6994 87.7501V86.7701C80.7994 86.69 80.8994 86.59 80.9894 86.4901C81.3694 86.0301 81.5194 85.4201 81.4094 84.84L80.7794 81.58C80.7194 81.17 80.2494 78.1801 79.4694 74.9901C79.7094 74.9901 79.9694 74.9901 80.2394 74.9901C81.4894 74.9901 83.0894 74.9901 85.0594 75.01C85.0594 75.01 85.0694 75.01 85.0794 75.01C85.1494 75.01 85.2194 75.0101 85.2894 75.0001C88.8094 74.6301 91.5794 74.34 91.5794 71.9901C91.5794 69.9301 89.4594 69.34 85.2894 68.9C85.2194 68.9 85.1494 68.8901 85.0794 68.8901H77.4894C76.8194 67.4701 75.6394 65.69 73.7394 65.69C73.4694 65.69 73.2094 65.73 72.9494 65.8C71.6194 66.15 70.5094 67.1701 69.5794 68.8901H61.5694C61.4994 68.8901 61.4294 68.89 61.3594 68.9C57.1794 69.34 55.0494 69.94 55.0494 71.9901C55.0494 74.34 57.8294 74.6401 61.3594 75.0001C61.4294 75.0001 61.4994 75.01 61.5694 75.01C61.5694 75.01 61.5794 75.01 61.5894 75.01C63.5694 74.9901 65.1694 74.9901 66.4294 74.9901C66.8294 74.9901 67.1894 74.9901 67.5194 74.9901C66.9094 77.73 66.6194 80.2401 66.5594 80.8801L65.6394 84.5601C65.4994 85.1401 65.6194 85.75 65.9694 86.23C66.1294 86.44 66.3194 86.6201 66.5394 86.7501V89.0701L42.0094 91.9201C42.0094 91.9201 41.9594 91.87 41.9294 91.8501C41.5594 91.5301 41.0894 91.3501 40.6094 91.3501C40.5294 91.3501 40.4394 91.3501 40.3594 91.37C39.0394 91.54 8.01937 95.53 5.42938 95.9C2.44938 96.33 0.919375 98.37 0.489375 99.51C0.399375 99.7401 0.359375 99.9801 0.359375 100.22V116.15C0.359375 117.52 1.42938 118.66 2.78938 118.75L47.5494 121.74C47.9094 123.65 48.8494 126.11 51.2994 126.11C53.3594 126.11 54.4794 124.36 54.9494 122.29L70.4294 123.25C71.2194 125.96 72.0394 126.92 73.4394 126.92C73.6694 126.92 73.9494 126.87 74.1694 126.79C74.6894 126.6 75.4394 126.33 76.3894 123.73L105.679 126.05C106.459 128.25 107.149 129.19 108.489 129.19C109.909 129.19 110.559 128.12 111.139 126.27L127.179 127.41V148.99C127.179 153.15 127.459 157.35 128.019 161.47L136.159 221.9L97.1894 228.17C96.0894 228.23 95.1294 228.83 94.4594 229.87C91.7194 234.09 93.7194 247.42 95.0694 250.45C95.5794 251.6 96.7294 252.34 97.9894 252.34H141.649L142.249 253.77C142.559 254.51 143.289 255 144.089 255C144.889 255 145.619 254.52 145.929 253.77L146.529 252.34H190.189C191.449 252.34 192.599 251.6 193.109 250.45C194.459 247.42 196.459 234.09 193.719 229.87C193.049 228.83 192.079 228.24 190.989 228.17L152.019 221.9L160.159 161.47C160.719 157.35 160.999 153.15 160.999 148.99V127.41L177.039 126.27C177.619 128.12 178.279 129.19 179.689 129.19C181.099 129.19 181.719 128.25 182.499 126.05L211.789 123.73C212.739 126.33 213.489 126.6 214.009 126.79C214.229 126.87 214.509 126.92 214.739 126.92C216.129 126.92 216.959 125.96 217.749 123.25L233.229 122.29C233.699 124.37 234.819 126.11 236.879 126.11C239.329 126.11 240.269 123.65 240.629 121.74L285.389 118.75C286.749 118.66 287.819 117.52 287.819 116.15V100.22C287.819 99.9801 287.779 99.7401 287.689 99.51C287.259 98.37 285.729 96.32 282.749 95.9C280.159 95.53 249.139 91.54 247.819 91.37C247.739 91.36 247.649 91.3501 247.569 91.3501C247.089 91.3501 246.619 91.5301 246.249 91.8501C246.219 91.87 246.199 91.9001 246.169 91.9201L221.639 89.0701V86.7501C221.859 86.6201 222.049 86.44 222.209 86.23C222.559 85.75 222.679 85.1401 222.539 84.5601L221.619 80.8801C221.549 80.2401 221.259 77.73 220.659 74.9901C220.989 74.9901 221.349 74.9901 221.749 74.9901C223.009 74.9901 224.609 74.9901 226.589 75.01C226.589 75.01 226.599 75.01 226.609 75.01C226.679 75.01 226.749 75.0101 226.819 75.0001C230.339 74.6301 233.129 74.34 233.129 71.9901C233.129 69.9301 231.009 69.33 226.819 68.9C226.749 68.9 226.679 68.8901 226.609 68.8901H218.599C217.669 67.1701 216.559 66.15 215.239 65.8C214.979 65.73 214.709 65.69 214.439 65.69C212.539 65.69 211.359 67.4701 210.689 68.8901H203.099C203.029 68.8901 202.959 68.89 202.889 68.9C198.719 69.34 196.599 69.94 196.599 71.9901C196.599 74.34 199.379 74.6401 202.889 75.0001C202.959 75.0001 203.029 75.01 203.099 75.01C203.099 75.01 203.109 75.01 203.119 75.01C205.089 74.9901 206.689 74.9901 207.939 74.9901C208.209 74.9901 208.469 74.9901 208.709 74.9901C207.939 78.19 207.469 81.17 207.399 81.58L206.769 84.84C206.659 85.43 206.809 86.0301 207.189 86.4901C207.279 86.6001 207.369 86.69 207.479 86.7701V87.7501L186.619 85.26V82.8601C186.749 82.7701 186.869 82.66 186.979 82.5301C187.359 82.09 187.529 81.51 187.449 80.94C187.129 78.7001 186.799 77.5301 186.509 76.8801C186.509 76.87 186.509 76.8501 186.509 76.84C186.439 75.7401 186.279 73.2701 185.749 70.65C185.999 70.65 186.279 70.65 186.569 70.65C187.829 70.65 189.429 70.6501 191.409 70.6701C191.409 70.6701 191.419 70.6701 191.429 70.6701C191.499 70.6701 191.569 70.6701 191.639 70.66C195.159 70.29 197.949 70 197.949 67.65C197.949 65.59 195.829 64.9901 191.639 64.5601C191.569 64.5601 191.499 64.55 191.429 64.55H183.539C182.779 63.35 181.859 62.47 180.819 61.94C180.539 61.79 180.219 61.72 179.899 61.72C179.799 61.72 179.689 61.72 179.589 61.74C178.149 61.97 176.919 62.91 175.919 64.55H167.919C167.849 64.55 167.779 64.55 167.709 64.5601C163.539 65.0001 161.419 65.6 161.419 67.65C161.419 70 164.199 70.29 167.709 70.66C167.779 70.66 167.849 70.6701 167.919 70.6701C167.919 70.6701 167.929 70.6701 167.939 70.6701C169.909 70.6501 171.509 70.65 172.759 70.65C173.109 70.65 173.439 70.65 173.729 70.65C173.079 73.61 172.819 76.41 172.759 77.19L171.909 80.2801C171.739 80.8801 171.869 81.5301 172.249 82.0201C172.379 82.19 172.529 82.33 172.689 82.4501V83.7801L160.329 82.6401C160.399 76.4501 160.549 56.06 159.659 41.51C158.729 28.79 150.249 5.74005 149.889 4.76005C149.869 4.70005 149.839 4.64005 149.819 4.59005C149.099 3.09005 147.079 0.550049 144.089 0.550049V0.560049Z" fill="black"/>
</g>
<defs>
<clipPath id="clip0_41_62">
<rect width="287.5" height="254.43" fill="white" transform="translate(0.339844 0.560059)"/>
</clipPath>
</defs>
</svg>
