<svg width="113" height="77" viewBox="0 0 113 77" fill="none" xmlns="http://www.w3.org/2000/svg">
<g clip-path="url(#clip0_306_74)">
<path d="M43.55 74.52C42.79 74.48 42.2 73.85 42.2 73.09V70.95C42.2 70.84 42.22 70.74 42.25 70.63C43.1 68.08 44.8 67.46 45 67.4C45.38 67.31 51.95 65.85 54.46 65.34C52.82 38.71 52.13 35.22 51.71 33.13L51.67 32.95C51.41 31.64 49.29 31.15 48.97 31.08L2.5 28.02C1.66 27.96 1 27.26 1 26.42V24.73C1 24.07 1.21 23.44 1.6 22.9C2.02 22.34 2.9 21.05 4.1 18.77C4.12 18.73 4.14 18.69 4.17 18.66C4.87 17.67 5.97 17.6 6.29 17.6C6.32 17.6 6.42 17.6 6.45 17.6L50.09 17.3C50.09 16.19 50.16 14.46 50.32 12.99C50.9 9.87 51.73 5.6 51.73 5.6C51.77 5.28 51.86 4.98 51.99 4.72C47.57 4.65 47.57 4.38 47.57 3.48C47.57 2.42 47.57 2.23 54.69 2.22C55.18 1.4 55.72 1 56.35 1C56.98 1 57.52 1.4 58.01 2.22C65.13 2.23 65.13 2.42 65.13 3.48C65.13 4.39 65.13 4.65 60.7 4.72C60.84 5 60.94 5.32 60.98 5.67C60.98 5.67 61.81 9.9 62.37 12.93C62.54 14.45 62.62 16.19 62.61 17.31L106.36 17.6C106.76 17.6 107.84 17.69 108.53 18.66C108.56 18.7 108.58 18.73 108.6 18.77C109.8 21.05 110.68 22.34 111.1 22.9C111.5 23.43 111.7 24.07 111.7 24.73V26.42C111.7 27.26 111.04 27.97 110.2 28.02L63.74 31.06C63.43 31.13 61.3 31.62 61.04 32.93L61 33.11C60.58 35.2 59.89 38.7 58.25 65.32C60.75 65.83 67.32 67.29 67.62 67.36C67.9 67.45 69.61 68.07 70.46 70.61C70.49 70.71 70.51 70.82 70.51 70.93V73.07C70.51 73.83 69.92 74.46 69.16 74.5C69.16 74.5 56.38 75.25 56.36 75.25C56.34 75.25 43.56 74.5 43.56 74.5L43.55 74.52Z" fill="white"/>
<path d="M56.35 2C56.78 2 57.22 2.82 57.4 3.22C66.33 3.22 66.36 3.74 57.49 3.75V4.15C57.49 4.15 57.58 4.15 57.73 4.15C58.31 4.15 59.77 4.3 59.97 5.82C59.97 5.82 60.81 10.08 61.37 13.13C61.57 14.93 61.63 17.02 61.58 17.9C61.57 18.13 61.75 18.33 61.98 18.33L106.32 18.63C106.32 18.63 106.35 18.63 106.39 18.63C106.61 18.63 107.27 18.68 107.69 19.27C108.89 21.55 109.79 22.88 110.27 23.53C110.53 23.89 110.68 24.32 110.68 24.76V26.45C110.68 26.77 110.43 27.03 110.11 27.05L63.58 30.1C63.58 30.1 60.45 30.63 60.03 32.77C59.61 34.9 58.91 37.87 57.19 65.82C57.18 66.02 57.31 66.2 57.51 66.24C59.45 66.62 67.37 68.38 67.37 68.38C67.37 68.38 68.76 68.83 69.48 70.97V73.11C69.48 73.34 69.3 73.53 69.07 73.55L56.33 74.3L43.59 73.55C43.36 73.54 43.18 73.35 43.18 73.11V70.97C43.89 68.83 45.29 68.38 45.29 68.38C45.29 68.38 53.21 66.62 55.15 66.24C55.35 66.2 55.48 66.02 55.47 65.82C53.76 37.87 53.05 34.91 52.63 32.77C52.21 30.63 49.08 30.1 49.08 30.1L2.57 27.03C2.25 27.01 2 26.74 2 26.43V24.74C2 24.3 2.14 23.87 2.41 23.51C2.89 22.86 3.79 21.53 4.99 19.25C5.41 18.66 6.07 18.61 6.29 18.61C6.34 18.61 6.36 18.61 6.36 18.61L50.7 18.31C50.93 18.31 51.12 18.11 51.1 17.88C51.06 17 51.11 14.92 51.31 13.11C51.88 10.06 52.71 5.8 52.71 5.8C52.91 4.28 54.37 4.13 54.95 4.13C55.1 4.13 55.19 4.13 55.19 4.13V3.73C46.32 3.73 46.35 3.21 55.28 3.2C55.47 2.8 55.9 1.98 56.33 1.98M56.35 0C55.51 0 54.78 0.41 54.16 1.23C52.55 1.23 51.18 1.27 50.17 1.31C48.57 1.38 46.58 1.47 46.58 3.49C46.58 5.51 48.56 5.6 50.15 5.67C50.33 5.67 50.51 5.69 50.71 5.69C50.52 6.67 49.84 10.17 49.36 12.75C49.36 12.8 49.34 12.84 49.34 12.89C49.21 14.02 49.14 15.27 49.11 16.32L6.41 16.61C6.41 16.61 6.34 16.61 6.29 16.61C5.11 16.61 4.02 17.16 3.36 18.09C3.31 18.16 3.26 18.24 3.22 18.32C2.05 20.54 1.2 21.78 0.8 22.32C0.28 23.03 0 23.86 0 24.74V26.43C0 27.8 1.07 28.94 2.43 29.03L48.83 32.07C49.55 32.22 50.59 32.69 50.67 33.14L50.71 33.33C51.12 35.38 51.79 38.78 53.39 64.54C50.49 65.15 45.13 66.34 44.86 66.4C44.8 66.41 44.74 66.43 44.68 66.45C44.44 66.53 42.3 67.3 41.29 70.31C41.22 70.51 41.19 70.73 41.19 70.94V73.08C41.19 74.37 42.2 75.44 43.48 75.51L56.22 76.26C56.22 76.26 56.3 76.26 56.34 76.26C56.38 76.26 56.42 76.26 56.46 76.26L69.2 75.51C70.49 75.43 71.49 74.37 71.49 73.08V70.94C71.49 70.73 71.46 70.51 71.39 70.31C70.39 67.3 68.24 66.52 68 66.45C67.94 66.43 67.88 66.41 67.82 66.4C67.55 66.34 62.19 65.15 59.29 64.54C60.89 38.78 61.56 35.37 61.97 33.33L62.01 33.14C62.1 32.69 63.13 32.22 63.86 32.07L110.26 29.03C111.63 28.94 112.7 27.8 112.7 26.43V24.74C112.7 23.86 112.42 23.03 111.9 22.32C111.5 21.78 110.65 20.54 109.48 18.32C109.44 18.24 109.39 18.17 109.34 18.09C108.68 17.16 107.58 16.61 106.41 16.61C106.37 16.61 106.33 16.61 106.29 16.61L63.59 16.32C63.56 15.27 63.49 14.02 63.36 12.89C63.36 12.84 63.35 12.8 63.34 12.75C62.86 10.16 62.18 6.67 61.99 5.69C62.19 5.69 62.38 5.68 62.55 5.67C64.14 5.6 66.12 5.51 66.12 3.49C66.12 1.47 64.13 1.38 62.53 1.31C61.51 1.27 60.15 1.24 58.54 1.23C57.92 0.42 57.19 0 56.35 0Z" fill="black"/>
</g>
<defs>
<clipPath id="clip0_306_74">
<rect width="112.7" height="76.27" fill="white"/>
</clipPath>
</defs>
</svg>
