<svg width="205" height="267" viewBox="0 0 205 267" fill="none" xmlns="http://www.w3.org/2000/svg">
<g clip-path="url(#clip0_120_2)">
<path d="M102.2 264.78C101.04 264.78 100.97 263.64 100.97 263.64L100.1 256.64L65.45 264.98C65.07 265.07 64.71 264.78 64.71 264.4V254.03C64.71 252.4 66.28 251.91 66.28 251.91C66.28 251.91 92.3 239.76 97.75 237.27C98.04 237.14 98.17 236.82 98.07 236.52C94.92 227.05 93.11 214.82 92.81 212.67C92.78 212.47 92.64 212.31 92.44 212.26C91.33 211.96 87.63 210.97 86.3 210.55C86.15 211.59 85.81 212.6 85.61 213.15C85.51 213.41 85.26 213.59 84.98 213.59H78.13C77.83 213.59 77.56 213.39 77.48 213.1C73.4 198.81 73.88 181.66 74.15 175.36C74.42 169.06 76.16 169.08 76.16 169.08H87.07C88.47 169.08 88.79 174.37 88.84 175.24C88.84 175.31 88.9 175.36 88.97 175.36H90.46C90.59 175.36 90.69 175.26 90.69 175.13V157.23C90.69 157.11 90.59 157.01 90.47 157.01H64.81C63.97 157.01 63.13 157.1 62.31 157.27L2.5 169.72C2.24 169.77 2 169.58 2 169.32V160.07C2 159.4 2.38 158.79 2.98 158.49L90.19 115.1C90.43 114.98 90.59 114.73 90.59 114.46V38.3601C90.59 19.6401 98.58 6.44006 101.3 2.47006C101.74 1.84006 102.67 1.84006 103.1 2.47006C105.83 6.43006 113.81 19.6301 113.81 38.3601V114.45C113.81 114.72 113.96 114.97 114.21 115.09L201.42 158.48C202.02 158.78 202.4 159.39 202.4 160.06V169.31C202.4 169.57 202.16 169.77 201.9 169.71L142.08 157.26C141.26 157.09 140.42 157 139.58 157H113.92C113.8 157 113.7 157.1 113.7 157.22V175.12C113.7 175.25 113.8 175.35 113.93 175.35H115.42C115.49 175.35 115.55 175.3 115.55 175.23C115.59 174.36 115.92 169.07 117.32 169.07H128.23C128.23 169.07 129.97 168.98 130.24 175.35C130.51 181.72 130.99 198.8 126.91 213.09C126.83 213.38 126.56 213.58 126.26 213.58H119.41C119.13 213.58 118.88 213.41 118.78 213.14C118.57 212.59 118.24 211.58 118.09 210.54C116.76 210.95 113.07 211.95 111.95 212.25C111.75 212.3 111.61 212.46 111.58 212.66C111.28 214.81 109.47 227.04 106.32 236.51C106.22 236.81 106.36 237.13 106.64 237.26C112.09 239.75 138.11 251.9 138.11 251.9C138.11 251.9 139.68 252.39 139.68 254.02V264.39C139.68 264.78 139.32 265.06 138.94 264.97L104.29 256.63L103.42 263.63C103.42 263.63 103.35 264.77 102.19 264.77L102.2 264.78Z" fill="white"/>
<path d="M102.2 2C102.54 2 102.88 2.16 103.1 2.47C105.83 6.43 113.81 19.63 113.81 38.36V114.45C113.81 114.72 113.96 114.97 114.21 115.09L201.42 158.48C202.02 158.78 202.4 159.39 202.4 160.06V169.31C202.4 169.54 202.21 169.72 201.99 169.72C201.96 169.72 201.93 169.72 201.9 169.72L142.08 157.27C141.26 157.1 140.42 157.01 139.58 157.01H113.92C113.8 157.01 113.7 157.11 113.7 157.23V175.13C113.7 175.26 113.8 175.36 113.93 175.36H115.42C115.49 175.36 115.55 175.31 115.55 175.24C115.59 174.37 115.92 169.08 117.32 169.08H128.23C128.32 169.08 129.97 169.16 130.23 175.36C130.5 181.66 130.98 198.81 126.9 213.1C126.82 213.39 126.55 213.59 126.25 213.59H119.4C119.12 213.59 118.87 213.42 118.77 213.15C118.56 212.6 118.23 211.59 118.08 210.55C116.75 210.96 113.06 211.96 111.94 212.26C111.74 212.31 111.6 212.47 111.57 212.67C111.27 214.82 109.46 227.05 106.31 236.52C106.21 236.82 106.35 237.14 106.63 237.27C112.08 239.76 138.1 251.91 138.1 251.91C138.1 251.91 139.67 252.4 139.67 254.03V264.4C139.67 264.74 139.39 265 139.07 265C139.02 265 138.98 265 138.93 264.98L104.28 256.64L103.41 263.64C103.41 263.64 103.34 264.78 102.18 264.78C101.02 264.78 100.95 263.64 100.95 263.64L100.08 256.64L65.43 264.98C65.43 264.98 65.33 265 65.29 265C64.97 265 64.69 264.74 64.69 264.4V254.03C64.69 252.4 66.26 251.91 66.26 251.91C66.26 251.91 92.28 239.76 97.73 237.27C98.02 237.14 98.15 236.82 98.05 236.52C94.9 227.05 93.09 214.82 92.79 212.67C92.76 212.47 92.62 212.31 92.42 212.26C91.31 211.96 87.61 210.97 86.28 210.55C86.13 211.59 85.79 212.6 85.59 213.15C85.49 213.41 85.24 213.59 84.96 213.59H78.11C77.81 213.59 77.54 213.39 77.46 213.1C73.38 198.81 73.86 181.66 74.13 175.36C74.39 169.17 76.04 169.08 76.13 169.08H87.04C88.44 169.08 88.76 174.37 88.81 175.24C88.81 175.31 88.87 175.36 88.94 175.36H90.43C90.56 175.36 90.66 175.26 90.66 175.13V157.23C90.66 157.11 90.56 157.01 90.44 157.01H64.78C63.94 157.01 63.1 157.1 62.28 157.27L2.46 169.72C2.46 169.72 2.4 169.72 2.38 169.72C2.16 169.72 1.97 169.54 1.97 169.31V160.06C1.97 159.39 2.35 158.78 2.95 158.48L90.16 115.09C90.4 114.97 90.56 114.72 90.56 114.45V38.36C90.56 19.64 98.55 6.44 101.27 2.47C101.49 2.15 101.83 2 102.17 2M102.2 0C101.18 0 100.23 0.5 99.65 1.34C97.05 5.11 88.58 18.93 88.58 38.36V113.66L2.09 156.69C0.8 157.33 0 158.62 0 160.06V169.31C0 170.64 1.08 171.72 2.41 171.72C2.58 171.72 2.74 171.7 2.9 171.67L62.72 159.22C63.41 159.08 64.11 159 64.81 159H88.69V167.61C88.23 167.24 87.69 167.07 87.07 167.07H76.17C76.17 167.07 76.16 167.07 76.15 167.07C74.48 167.07 72.44 168.49 72.15 175.26C71.51 190.32 72.69 203.59 75.56 213.64C75.89 214.78 76.95 215.58 78.14 215.58H84.99C86.1 215.58 87.11 214.88 87.5 213.84C87.59 213.61 87.68 213.34 87.78 213.04C88.85 213.34 90.06 213.67 90.99 213.92C91.53 217.53 93.16 227.54 95.81 235.95C88.89 239.14 67.19 249.27 65.55 250.04C64.43 250.45 62.73 251.68 62.73 254.01V264.38C62.73 265.81 63.9 266.98 65.33 266.98C65.54 266.98 65.74 266.96 65.94 266.91L98.41 259.09L99 263.82C99.12 265.26 100.28 266.76 102.22 266.76C104.16 266.76 105.31 265.26 105.44 263.82L106.03 259.09L138.5 266.91C138.7 266.96 138.9 266.98 139.11 266.98C140.54 266.98 141.71 265.81 141.71 264.38V254.01C141.71 251.67 140 250.44 138.89 250.04C137.25 249.27 115.55 239.14 108.63 235.95C111.28 227.53 112.91 217.53 113.45 213.92C114.39 213.67 115.59 213.34 116.66 213.04C116.76 213.34 116.85 213.61 116.94 213.84C117.33 214.88 118.34 215.58 119.45 215.58H126.3C127.49 215.58 128.55 214.78 128.88 213.64C131.75 203.59 132.93 190.32 132.29 175.26C132 168.49 129.95 167.07 128.29 167.07C128.29 167.07 128.28 167.07 128.27 167.07H117.37C116.75 167.07 116.21 167.25 115.75 167.61V159H139.63C140.33 159 141.03 159.07 141.72 159.22L201.54 171.67C201.7 171.7 201.87 171.72 202.03 171.72C203.36 171.72 204.44 170.64 204.44 169.31V160.06C204.44 158.62 203.64 157.33 202.35 156.69L115.86 113.65V38.36C115.86 18.93 107.39 5.11 104.79 1.34C104.21 0.5 103.26 0 102.24 0L102.2 0Z" fill="black"/>
</g>
<defs>
<clipPath id="clip0_120_2">
<rect width="204.4" height="267" fill="white"/>
</clipPath>
</defs>
</svg>
