<svg width="205" height="303" viewBox="0 0 205 303" fill="none" xmlns="http://www.w3.org/2000/svg">
<g clip-path="url(#clip0_381_2)">
<path d="M102.601 301.84C102.001 301.84 101.031 301.39 100.771 300.39C100.371 298.86 100.251 295.87 100.211 294.17C94.3607 295.54 69.8907 301.28 67.6207 301.67C66.9507 301.79 66.4307 301.84 66.0207 301.84C65.7307 301.84 64.8407 301.84 64.4807 301.11C64.3607 300.87 64.3407 300.59 64.4007 300.33V290.98C64.5507 288.23 66.4607 287.39 66.9507 287.22C68.2307 286.63 92.8207 275.21 97.8307 272.87C94.8407 263.18 93.4307 254.36 92.8307 250.57C92.7607 250.13 92.6907 249.7 92.6407 249.39C90.2707 248.85 88.7707 248.47 87.6207 247.95C87.3507 249.75 86.6907 250.4 86.4707 250.57C86.3007 250.7 86.0807 250.78 85.8607 250.78H78.6707C77.9507 250.78 77.3107 250.29 77.1207 249.59C72.7007 233.2 73.7207 212.38 73.7307 212.17C74.3607 205.08 75.6107 204.17 76.6207 204.17C76.6407 204.17 87.0407 204.17 87.0407 204.17C89.2707 204.17 90.1207 207.42 90.4407 209.74V177.35H66.0007C64.0507 177.35 62.0907 177.55 60.1807 177.95L3.22066 189.87C3.12066 189.89 3.02066 189.9 2.92066 189.9C2.10066 189.9 1.43066 189.23 1.43066 188.41V180.04C1.43066 177.46 3.63066 176.47 3.73066 176.42L90.3707 133.08L90.3207 35.91C90.3207 24.16 98.4907 0.97998 102.631 0.97998C106.771 0.97998 114.941 24.16 114.941 35.91V133.15L201.581 176.44C201.581 176.44 203.831 177.45 203.831 180.03V188.4C203.831 189.22 203.161 189.89 202.341 189.89C202.241 189.89 202.141 189.88 202.041 189.86L145.081 177.94C143.171 177.54 141.211 177.34 139.261 177.34H114.821V209.72C115.141 207.4 115.981 204.15 118.211 204.15C118.211 204.15 128.611 204.15 128.631 204.15C129.651 204.15 130.891 205.06 131.521 212.11C131.531 212.36 132.551 233.18 128.131 249.57C127.941 250.27 127.301 250.76 126.581 250.76H119.391C119.171 250.76 118.961 250.69 118.781 250.55C118.561 250.38 117.901 249.73 117.631 247.93C116.481 248.46 114.981 248.83 112.611 249.37C112.561 249.69 112.491 250.12 112.421 250.56C111.811 254.35 110.411 263.17 107.421 272.85C112.421 275.19 137.011 286.61 138.301 287.2C138.791 287.37 140.691 288.2 140.841 290.9V300.3C140.911 300.56 140.881 300.84 140.761 301.08C140.401 301.81 139.521 301.81 139.221 301.81C138.811 301.81 138.291 301.75 137.621 301.64C135.351 301.25 110.881 295.51 105.031 294.14C104.991 295.84 104.861 298.83 104.471 300.36C104.211 301.36 103.241 301.81 102.641 301.81L102.601 301.84Z" fill="white"/>
<path d="M102.6 2C105.42 2 113.91 23.46 113.91 35.93V133.17C113.91 133.52 114.11 133.83 114.41 133.99L201.09 177.35C201.09 177.35 202.79 178.09 202.79 180.05V188.41C202.79 188.68 202.57 188.9 202.3 188.9C202.27 188.9 202.23 188.9 202.2 188.89L145.24 176.97C143.26 176.56 141.24 176.35 139.21 176.35H114.51C114.1 176.35 113.77 176.68 113.77 177.09V211.58H115.6C115.6 211.58 115.95 205.17 118.17 205.17H128.57C128.57 205.17 128.57 205.17 128.59 205.17C128.76 205.17 129.88 205.43 130.48 212.22C130.48 212.22 131.55 232.9 127.12 249.33C127.05 249.6 126.81 249.78 126.53 249.78H119.34C119.34 249.78 118.59 249.21 118.48 246.85C118.48 246.67 118.32 246.55 118.16 246.55C118.1 246.55 118.04 246.57 117.99 246.6C116.75 247.4 115.1 247.79 111.72 248.56C111.51 248.77 110.28 260.13 106.33 272.82C106.23 273.15 106.37 273.51 106.69 273.66C111.18 275.77 137.87 288.16 137.87 288.16C137.87 288.16 139.65 288.64 139.78 290.99V300.52C139.78 300.52 140.04 300.85 139.17 300.85C138.86 300.85 138.4 300.81 137.74 300.69C135.22 300.25 104 292.92 104 292.92C104 292.92 103.98 298.08 103.45 300.14C103.31 300.68 102.73 300.84 102.58 300.84C102.43 300.84 101.85 300.67 101.71 300.14C101.18 298.08 101.16 292.92 101.16 292.92C101.16 292.92 69.9404 300.26 67.4204 300.69C66.7604 300.8 66.3004 300.85 65.9904 300.85C65.1204 300.85 65.3804 300.52 65.3804 300.52V290.99C65.5104 288.64 67.2904 288.16 67.2904 288.16C67.2904 288.16 93.9804 275.77 98.4704 273.66C98.7904 273.51 98.9304 273.16 98.8304 272.82C94.8804 260.13 93.6604 248.77 93.4404 248.56C90.0604 247.79 88.4104 247.4 87.1704 246.6C87.1104 246.56 87.0604 246.55 87.0004 246.55C86.8404 246.55 86.6904 246.67 86.6804 246.85C86.5704 249.21 85.8204 249.78 85.8204 249.78H78.6304C78.3604 249.78 78.1104 249.6 78.0404 249.33C73.6104 232.91 74.6804 212.22 74.6804 212.22C75.2804 205.43 76.4104 205.17 76.5704 205.17C76.5804 205.17 76.5904 205.17 76.5904 205.17H86.9904C89.2104 205.17 89.5604 211.58 89.5604 211.58H91.3904V177.09C91.3904 176.68 91.0604 176.35 90.6504 176.35H65.9504C63.9304 176.35 61.9104 176.56 59.9204 176.97L2.96039 188.89C2.96039 188.89 2.89039 188.9 2.86039 188.9C2.60039 188.9 2.37039 188.69 2.37039 188.41V180.05C2.37039 178.09 4.07039 177.35 4.07039 177.35L90.7504 133.99C91.0604 133.84 91.2504 133.52 91.2504 133.17V35.93C91.2504 23.46 99.7504 2 102.56 2M102.6 0C101.68 0 98.8704 0 94.0004 13.62C91.0504 21.88 89.2804 30.22 89.2804 35.94V132.51L3.24039 175.55C2.16039 176.05 0.400391 177.52 0.400391 180.06V188.42C0.400391 189.79 1.52039 190.91 2.89039 190.91C3.06039 190.91 3.23039 190.89 3.40039 190.86L60.3604 178.94C62.2004 178.55 64.0904 178.36 65.9804 178.36H89.4204V204.26C88.8104 203.6 88.0204 203.17 87.0204 203.17H76.6804C76.6804 203.17 76.6204 203.17 76.6004 203.17C74.0304 203.17 73.1904 206.72 72.7104 212.04C72.7104 212.06 72.7104 212.09 72.7104 212.11C72.6704 212.97 71.6804 233.3 76.1404 249.84C76.4504 250.97 77.4804 251.77 78.6604 251.77H85.8504C86.2904 251.77 86.7104 251.63 87.0604 251.36C87.4304 251.08 87.9704 250.49 88.3304 249.3C89.2404 249.61 90.3304 249.88 91.7504 250.21C91.7804 250.38 91.8104 250.56 91.8304 250.73C92.4204 254.43 93.7804 262.9 96.6104 272.33C90.3504 275.25 68.4104 285.44 66.5904 286.28C65.3904 286.69 63.5604 288.04 63.4004 290.87C63.4004 290.91 63.4004 290.94 63.4004 290.98V300.23C63.3204 300.67 63.3804 301.13 63.5804 301.55C63.8704 302.14 64.5204 302.85 66.0104 302.85C66.4804 302.85 67.0604 302.79 67.7804 302.66C69.9404 302.29 91.8304 297.17 99.2404 295.43C99.3104 297.16 99.4604 299.35 99.8004 300.64C100.17 302.07 101.52 302.84 102.6 302.84C103.68 302.84 105.03 302.07 105.4 300.64C105.74 299.34 105.89 297.15 105.96 295.43C113.37 297.17 135.26 302.29 137.42 302.66C138.15 302.78 138.72 302.85 139.19 302.85C140.68 302.85 141.34 302.15 141.63 301.55C141.83 301.14 141.89 300.68 141.81 300.23V290.98C141.81 290.98 141.81 290.91 141.81 290.87C141.65 288.04 139.82 286.69 138.62 286.28C136.8 285.44 114.86 275.25 108.6 272.33C111.44 262.91 112.79 254.43 113.38 250.74C113.41 250.56 113.44 250.39 113.46 250.22C114.87 249.89 115.97 249.62 116.88 249.31C117.24 250.5 117.78 251.09 118.15 251.37C118.5 251.64 118.92 251.78 119.36 251.78H126.55C127.73 251.78 128.76 250.99 129.07 249.85C133.53 233.31 132.54 212.98 132.49 212.12C132.49 212.1 132.49 212.07 132.49 212.05C132.02 206.72 131.18 203.18 128.61 203.18C128.58 203.18 128.55 203.18 128.53 203.18H118.19C117.19 203.18 116.41 203.6 115.79 204.27V178.37H139.23C141.11 178.37 143 178.57 144.85 178.95L201.81 190.87C201.98 190.91 202.15 190.92 202.32 190.92C203.69 190.92 204.81 189.8 204.81 188.43V180.07C204.81 177.54 203.05 176.06 201.97 175.56L115.92 132.51V35.93C115.92 30.22 114.16 21.87 111.2 13.61C106.33 0 103.52 0 102.6 0Z" fill="black"/>
</g>
<defs>
<clipPath id="clip0_381_2">
<rect width="204.4" height="302.84" fill="white" transform="translate(0.400391)"/>
</clipPath>
</defs>
</svg>
