<svg width="264" height="319" viewBox="0 0 264 319" fill="none" xmlns="http://www.w3.org/2000/svg">
<g clip-path="url(#clip0_824_157)">
<path d="M132 318C131.79 318 131.58 317.93 131.4 317.8C130.66 317.25 130.28 316.38 129.87 315.46C129.72 315.11 129.55 314.74 129.36 314.36C127.58 310.91 126.26 307.28 125.42 303.56L81.69 313.75C81.61 313.77 81.54 313.78 81.46 313.78C81.24 313.78 81.02 313.7 80.84 313.56C80.6 313.37 80.46 313.08 80.46 312.78C80.46 305.88 80.46 301.32 84.36 298.2L119.26 271.78C119.79 271.19 120.14 270.65 120.5 270.08C120.62 269.89 120.74 269.7 120.87 269.51C117.04 254.16 116.19 244.91 114.92 228.68V174.02H100.16C99.88 176.87 99.28 178.3 98.19 178.73C98.07 178.78 97.94 178.8 97.82 178.8C97.7 178.8 97.57 178.78 97.45 178.73C96.36 178.29 95.75 176.86 95.48 174.02H84.39L77.51 175.99C77.22 178.63 76.61 180.01 75.57 180.43C75.45 180.48 75.32 180.5 75.2 180.5C75.08 180.5 74.95 180.48 74.83 180.43C73.96 180.08 73.4 179.09 73.07 177.26L52.39 183.17C52.11 185.9 51.49 187.32 50.43 187.75C50.31 187.8 50.18 187.82 50.06 187.82C49.94 187.82 49.81 187.8 49.69 187.75C48.8 187.39 48.24 186.36 47.91 184.46L12.81 194.49L2.66004 202.53C2.48004 202.67 2.26004 202.75 2.04004 202.75C1.89004 202.75 1.74004 202.72 1.60004 202.65C1.25004 202.48 1.04004 202.13 1.04004 201.75V195.84C1.04004 195.73 1.06004 195.62 1.10004 195.51L5.12004 183.97C5.25004 183.66 5.36004 183.39 5.47004 183.1C6.22004 181.15 7.46004 177.88 11.88 175.54L80.72 139.69C80.64 138.95 80.58 138.18 80.52 137.36H78.91C78.41 137.36 77.98 136.99 77.92 136.49C76.65 126.76 75.46 117.56 79.61 106.53C79.76 106.14 80.13 105.88 80.55 105.88H93.03C93.45 105.88 93.82 106.14 93.97 106.53C97.39 115.75 97.16 123.57 96.33 131.3L114.96 121.2V50.4298C114.96 31.0398 120.21 2.88977 131.89 1.01977C131.94 1.01977 132 1.00977 132.05 1.00977C132.1 1.00977 132.16 1.00977 132.21 1.01977C143.89 2.88977 149.14 31.0398 149.14 50.4298V121.18L167.77 131.28C166.94 123.54 166.71 115.73 170.13 106.51C170.28 106.12 170.65 105.86 171.07 105.86H183.55C183.97 105.86 184.34 106.12 184.49 106.51C188.64 117.55 187.45 126.74 186.18 136.47C186.12 136.97 185.69 137.34 185.19 137.34H183.58C183.52 138.16 183.45 138.93 183.38 139.67L252.22 175.51C256.65 177.86 257.89 181.12 258.64 183.08C258.75 183.38 258.85 183.65 258.96 183.88L263.01 195.5C263.05 195.61 263.07 195.72 263.07 195.83V201.74C263.07 202.12 262.85 202.47 262.51 202.64C262.37 202.71 262.22 202.74 262.07 202.74C261.85 202.74 261.63 202.67 261.45 202.52L251.3 194.48L216.2 184.45C215.87 186.36 215.31 187.39 214.42 187.74C214.3 187.79 214.17 187.81 214.05 187.81C213.93 187.81 213.8 187.79 213.68 187.74C212.62 187.31 212.01 185.89 211.72 183.16L191.04 177.25C190.71 179.08 190.15 180.07 189.28 180.42C189.16 180.47 189.03 180.49 188.91 180.49C188.79 180.49 188.66 180.47 188.54 180.42C187.5 180 186.89 178.62 186.6 175.98L179.72 174.01H168.63C168.35 176.86 167.75 178.29 166.66 178.72C166.54 178.77 166.41 178.79 166.29 178.79C166.17 178.79 166.04 178.77 165.92 178.72C164.83 178.28 164.23 176.85 163.95 174.01H149.19V228.59C147.91 244.9 147.06 254.16 143.23 269.5C143.36 269.69 143.48 269.88 143.6 270.07C143.96 270.64 144.31 271.18 144.84 271.77L179.72 298.18C183.64 301.31 183.64 305.87 183.64 312.77C183.64 313.07 183.5 313.36 183.26 313.55C183.08 313.69 182.86 313.77 182.64 313.77C182.56 313.77 182.49 313.77 182.41 313.74L138.68 303.55C137.84 307.27 136.52 310.89 134.74 314.35C134.54 314.73 134.38 315.1 134.23 315.45C133.82 316.37 133.43 317.24 132.7 317.79C132.52 317.92 132.31 317.99 132.1 317.99L132 318Z" fill="white"/>
<path d="M132 2C142.56 3.69 148.09 30.15 148.09 50.43V121.78L168.93 133.08C167.86 123.97 167.55 116.19 171.02 106.86H183.5C187.42 117.28 186.51 125.72 185.13 136.34H182.58C182.49 137.81 182.38 139.07 182.24 140.24L251.68 176.4C256.46 178.93 257.21 182.59 257.97 184.28L261.99 195.82V201.73L251.68 193.57L215.29 183.17C215.09 184.97 214.71 186.52 213.97 186.81C213.13 186.47 212.74 184.5 212.57 182.39L190.13 175.98C189.93 177.72 189.54 179.2 188.82 179.49C187.99 179.16 187.61 177.27 187.44 175.21L179.77 173.02H167.61C167.46 175.27 167.08 177.45 166.19 177.81C165.3 177.45 164.92 175.27 164.77 173.02H148.09V228.6C146.77 245.37 145.88 254.48 142.06 269.71C142.75 270.68 143.15 271.52 144.07 272.53L179.02 299C182.54 301.82 182.54 306.04 182.54 312.8L137.82 302.38C136.97 306.59 135.54 310.45 133.75 313.92C133.07 315.24 132.75 316.45 131.99 317.02C131.24 316.46 130.91 315.25 130.23 313.92C128.44 310.45 127.01 306.59 126.16 302.38L81.44 312.8C81.44 306.04 81.44 301.82 84.96 299L119.91 272.53C120.84 271.52 121.24 270.68 121.92 269.71C118.1 254.48 117.2 245.37 115.89 228.6V173.02H99.21C99.06 175.27 98.68 177.45 97.79 177.81C96.9 177.45 96.52 175.27 96.37 173.02H84.21L76.54 175.21C76.37 177.27 75.98 179.16 75.16 179.49C74.44 179.2 74.05 177.72 73.85 175.98L51.41 182.39C51.24 184.5 50.86 186.47 50.02 186.81C49.28 186.51 48.89 184.96 48.7 183.17L12.31 193.57L2 201.73V195.82L6.02 184.28C6.77 182.59 7.53 178.93 12.31 176.4L81.75 140.24C81.62 139.07 81.5 137.81 81.41 136.34H78.86C77.48 125.72 76.57 117.27 80.49 106.86H92.97C96.43 116.19 96.13 123.97 95.06 133.08L115.9 121.78V50.43C115.9 30.16 121.43 3.69 131.99 2M131.99 0C131.88 0 131.78 0 131.67 0.03C118.72 2.1 113.89 32.04 113.89 50.43V120.59L97.44 129.51C98.11 122.26 98.05 114.83 94.84 106.17C94.55 105.39 93.8 104.87 92.96 104.87H80.48C79.65 104.87 78.9 105.39 78.61 106.17C74.37 117.44 75.58 126.76 76.87 136.62C77 137.62 77.85 138.36 78.85 138.36H79.54C79.56 138.62 79.58 138.87 79.61 139.11L11.39 174.62C6.63 177.15 5.24 180.77 4.5 182.72C4.39 183 4.3 183.25 4.2 183.47C4.18 183.52 4.16 183.57 4.14 183.63L0.11 195.16C0.04 195.37 0 195.59 0 195.82V201.73C0 202.5 0.44 203.2 1.13 203.53C1.41 203.66 1.7 203.73 2 203.73C2.44 203.73 2.88 203.58 3.24 203.3L13.24 195.38L47.11 185.7C47.47 187.04 48.09 188.19 49.28 188.67C49.52 188.77 49.77 188.81 50.03 188.81C50.29 188.81 50.54 188.76 50.78 188.67C52.13 188.13 52.91 186.69 53.28 183.95L72.3 178.51C72.66 179.79 73.28 180.89 74.43 181.35C74.67 181.45 74.92 181.49 75.18 181.49C75.44 181.49 75.69 181.44 75.93 181.35C77.52 180.71 78.13 178.81 78.41 176.76L84.52 175.02H94.58C94.95 177.73 95.72 179.12 97.07 179.66C97.31 179.76 97.56 179.8 97.82 179.8C98.08 179.8 98.33 179.75 98.57 179.66C99.92 179.12 100.69 177.73 101.06 175.02H113.93V228.6C113.93 228.65 113.93 228.7 113.93 228.76C115.2 244.89 116.05 254.16 119.8 269.33C119.75 269.4 119.71 269.47 119.66 269.55C119.32 270.08 119.02 270.54 118.58 271.05L83.78 297.4C83.78 297.4 83.75 297.42 83.74 297.43C79.47 300.85 79.47 305.85 79.47 312.79C79.47 313.4 79.75 313.98 80.23 314.36C80.59 314.64 81.03 314.79 81.47 314.79C81.62 314.79 81.77 314.77 81.92 314.74L124.68 304.78C125.54 308.24 126.81 311.61 128.48 314.83C128.66 315.18 128.82 315.53 128.97 315.88C129.41 316.88 129.87 317.91 130.82 318.62C131.17 318.88 131.6 319.02 132.02 319.02C132.44 319.02 132.86 318.89 133.22 318.62C134.17 317.91 134.62 316.88 135.07 315.88C135.22 315.54 135.38 315.18 135.56 314.83C137.22 311.61 138.49 308.23 139.36 304.78L182.12 314.74C182.27 314.77 182.42 314.79 182.57 314.79C183.02 314.79 183.46 314.64 183.81 314.36C184.29 313.98 184.57 313.4 184.57 312.79C184.57 305.86 184.57 300.85 180.3 297.43C180.29 297.42 180.27 297.41 180.26 297.4L145.46 271.05C145.02 270.55 144.72 270.09 144.38 269.55C144.33 269.48 144.29 269.41 144.24 269.33C148 254.15 148.85 244.89 150.11 228.76C150.11 228.71 150.11 228.66 150.11 228.6V175.02H162.98C163.35 177.73 164.11 179.12 165.47 179.66C165.71 179.76 165.96 179.8 166.22 179.8C166.48 179.8 166.73 179.75 166.97 179.66C168.32 179.12 169.09 177.73 169.46 175.02H179.52L185.63 176.76C185.91 178.81 186.52 180.71 188.11 181.35C188.35 181.45 188.6 181.49 188.86 181.49C189.12 181.49 189.37 181.44 189.61 181.35C190.76 180.89 191.38 179.79 191.74 178.51L210.76 183.95C211.13 186.69 211.9 188.13 213.26 188.67C213.5 188.77 213.75 188.81 214.01 188.81C214.27 188.81 214.52 188.76 214.76 188.67C215.94 188.19 216.57 187.05 216.93 185.7L250.8 195.38L260.8 203.3C261.16 203.59 261.6 203.73 262.04 203.73C262.34 203.73 262.63 203.66 262.91 203.53C263.6 203.2 264.04 202.5 264.04 201.73V195.82C264.04 195.6 264 195.37 263.93 195.16L259.91 183.62C259.89 183.57 259.87 183.51 259.85 183.46C259.75 183.25 259.66 182.99 259.55 182.71C258.81 180.76 257.42 177.14 252.67 174.62L184.42 139.08C184.44 138.83 184.47 138.58 184.49 138.32H185.18C186.18 138.32 187.03 137.57 187.16 136.58C188.44 126.72 189.66 117.41 185.42 106.13C185.13 105.35 184.38 104.83 183.55 104.83H171.07C170.23 104.83 169.49 105.35 169.19 106.13C165.97 114.8 165.92 122.22 166.59 129.47L150.14 120.55V50.43C150.14 32.04 145.31 2.1 132.36 0.03C132.26 0.01 132.15 0 132.04 0L131.99 0Z" fill="black"/>
</g>
<defs>
<clipPath id="clip0_824_157">
<rect width="264" height="319" fill="white"/>
</clipPath>
</defs>
</svg>
