<svg width="288" height="365" viewBox="0 0 288 365" fill="none" xmlns="http://www.w3.org/2000/svg">
<g clip-path="url(#clip0_825_165)">
<path d="M145.8 363.07C147.63 359.6 149.09 352.74 149.95 348.53L199.74 358.95C199.74 352.19 199.74 347.97 196.14 345.15L156.34 318.68C155.39 317.67 153.96 316.83 153.26 315.86C157.17 300.63 159.1 289.52 160.45 272.75V182.77H182.56C182.71 185.02 183.1 187.2 184.01 187.56C184.92 187.2 185.31 185.02 185.46 182.77H198.91L206.75 184.96C206.92 187.02 207.32 188.91 208.16 189.24C208.9 188.95 209.29 187.47 209.5 185.73L233.43 192.14C233.6 194.25 233.99 196.22 234.86 196.56C235.62 196.26 236.01 194.71 236.21 192.92L278.51 204.32L287 212.48V206.57L282.89 195.03C282.12 193.34 281.35 189.68 276.47 187.15L201.44 149.99C201.58 148.82 201.69 147.56 201.78 146.09H204.38C205.79 135.47 207.74 129.02 203.73 118.61H187.91C184.37 127.94 185.7 133.72 186.8 142.83L160.43 130.53V49.43C160.43 29.16 154.78 2.69 143.98 1C133.19 2.69 127.53 29.15 127.53 49.43V130.55L101.16 142.85C102.26 133.74 103.59 127.96 100.05 118.63H84.23C80.23 129.05 82.17 135.49 83.58 146.11H86.18C86.27 147.58 86.39 148.84 86.52 150.01L11.54 187.16C6.66001 189.69 5.89001 193.35 5.12001 195.04L1.01001 206.58V212.49L9.50001 204.33L51.8 192.93C52 194.73 52.39 196.28 53.15 196.57C54.01 196.23 54.41 194.26 54.58 192.15L78.51 185.74C78.71 187.48 79.11 188.96 79.85 189.25C80.69 188.92 81.09 187.03 81.26 184.97L89.1 182.78H102.55C102.7 185.03 103.09 187.21 104 187.57C104.91 187.21 105.3 185.03 105.45 182.78H127.56V272.76C128.91 289.53 130.84 300.64 134.75 315.87C134.05 316.84 132.62 317.68 131.67 318.69L91.87 345.16C88.27 347.98 88.27 352.2 88.27 358.96L138.06 348.54C138.93 352.75 140.39 359.61 142.21 363.08H145.8V363.07Z" fill="white" stroke="black" stroke-width="2" stroke-linecap="round" stroke-linejoin="round"/>
</g>
<defs>
<clipPath id="clip0_825_165">
<rect width="288" height="364.07" fill="white"/>
</clipPath>
</defs>
</svg>
