<svg width="251" height="187" viewBox="0 0 251 187" fill="none" xmlns="http://www.w3.org/2000/svg">
<g clip-path="url(#clip0_569_58)">
<path d="M156.25 185.3C155.53 185.3 155.17 184.73 154.96 184.15H148.87C148.66 184.73 148.3 185.3 147.58 185.3C146.86 185.3 146.5 184.73 146.29 184.15H139.97C139.76 184.73 139.4 185.3 138.68 185.3C137.96 185.3 137.6 184.73 137.39 184.15H114.14C113.93 184.73 113.57 185.3 112.85 185.3C112.13 185.3 111.77 184.73 111.56 184.15H105.47C105.26 184.73 104.9 185.3 104.18 185.3C103.46 185.3 103.1 184.73 102.89 184.15H96.5699C96.3599 184.73 95.9999 185.3 95.2799 185.3C94.5599 185.3 94.1999 184.73 93.9899 184.15H83.6399C81.2099 184.15 80.2499 182.45 80.1999 181.31V171.04C80.1999 164.27 85.3699 162.39 85.5899 162.31C85.6499 162.29 85.7099 162.27 85.7799 162.26C86.0399 162.22 110.75 158.68 116.61 157.8C114.83 152.07 114.2 145.46 114.18 145.17L114.05 144.15C98.1999 139.21 87.0899 124.93 86.2399 108.33L86.2099 108.3L5.97989 101.96C5.88989 101.96 5.80989 101.93 5.71989 101.9C5.46989 101.81 4.14989 101.23 3.15989 98.82C1.29989 93.28 1.22989 89.21 2.92989 86.67C4.38989 84.49 6.59989 84.32 6.68989 84.31L85.8099 73.1V62.09C85.8099 61.91 85.8899 60.74 86.5599 59.77C86.5899 59.72 86.6399 59.63 86.6599 59.45L86.6999 59.17C86.8899 57.7 87.0799 56.43 87.3699 55.72C87.4199 55.59 87.4499 55.42 87.4499 55.21V54.57C85.3499 54.7 81.6999 54.88 78.0899 54.88C75.7699 54.88 73.7999 54.8 72.2299 54.65C71.2399 54.56 70.5099 53.76 70.4899 52.77C70.4699 51.77 71.1799 50.95 72.1699 50.83C73.9299 50.61 76.1699 50.49 78.8299 50.49C82.2299 50.49 85.5599 50.67 87.4899 50.8C87.5899 49.83 87.8699 48.9 88.3099 48.07C88.9599 46.85 90.7199 44.53 92.7299 44.53C94.7399 44.53 96.4999 46.84 97.1499 48.07C97.5799 48.88 97.8599 49.78 97.9599 50.72C99.9599 50.6 102.62 50.49 105.31 50.49C108 50.49 110.21 50.6 111.97 50.83C112.96 50.96 113.67 51.77 113.66 52.77C113.64 53.77 112.91 54.56 111.92 54.65C110.35 54.8 108.38 54.88 106.06 54.88C103.16 54.88 100.23 54.76 98.0199 54.65V55.21C98.0199 55.42 98.0499 55.59 98.0999 55.72C98.3899 56.43 98.5799 57.7 98.7699 59.17L98.8099 59.45C98.8299 59.63 98.8799 59.72 98.9099 59.77C99.5799 60.75 99.6499 61.91 99.6599 62.04V71.15L110.75 69.58C111.78 69.16 112.85 68.77 113.93 68.43C114.17 68.36 114.33 68.12 114.33 67.86V31.9C112.86 27.69 114.54 24.29 115.06 23.38C115.37 20.19 117.59 1 125.51 1C133.43 1 135.65 20.2 135.96 23.38C136.48 24.29 138.17 27.69 136.69 31.9V67.63C136.69 67.9 136.86 68.13 137.1 68.2C138.55 68.63 139.99 69.14 141.38 69.74L151.36 71.15V62.1C151.36 61.92 151.44 60.75 152.11 59.78C152.14 59.73 152.19 59.64 152.21 59.46L152.25 59.18C152.44 57.72 152.63 56.45 152.92 55.74C152.97 55.61 153 55.44 153 55.23V54.67C150.79 54.79 147.86 54.9 144.96 54.9C142.64 54.9 140.67 54.82 139.1 54.67C138.11 54.58 137.37 53.78 137.36 52.79C137.34 51.79 138.05 50.97 139.05 50.85C140.81 50.63 143.05 50.51 145.71 50.51C148.37 50.51 151.06 50.62 153.06 50.74C153.17 49.8 153.44 48.9 153.88 48.09C154.53 46.87 156.29 44.55 158.3 44.55C160.31 44.55 162.07 46.86 162.72 48.09C163.16 48.92 163.44 49.86 163.54 50.82C165.47 50.69 168.8 50.51 172.2 50.51C174.86 50.51 177.1 50.62 178.85 50.85C179.84 50.98 180.55 51.79 180.53 52.79C180.51 53.79 179.78 54.58 178.79 54.67C177.22 54.82 175.25 54.9 172.93 54.9C169.33 54.9 165.67 54.72 163.58 54.59V55.23C163.58 55.44 163.61 55.61 163.66 55.74C163.95 56.45 164.14 57.73 164.33 59.19L164.37 59.47C164.39 59.65 164.44 59.74 164.47 59.79C165.14 60.77 165.21 61.93 165.22 62.06V73.12L244.42 84.33C244.46 84.33 246.66 84.51 248.11 86.68C249.81 89.22 249.74 93.29 247.9 98.77C246.9 101.24 245.58 101.82 245.32 101.91C245.24 101.94 245.15 101.96 245.06 101.96L165.51 108.24C164.68 125.01 153.08 139.7 136.96 144.38L136.86 145.2C136.84 145.46 136.21 152.07 134.43 157.79C140.29 158.67 165 162.21 165.26 162.25C165.32 162.25 165.39 162.28 165.45 162.3C165.67 162.38 170.84 164.26 170.84 171.03V181.25C170.79 182.44 169.84 184.14 167.4 184.14H157.56C157.35 184.72 156.99 185.29 156.27 185.29L156.25 185.3Z" fill="white"/>
<path d="M125.51 2C132.98 2 134.99 23.7 134.99 23.7C134.99 23.7 137.35 27.24 135.7 31.72V67.63C135.7 68.33 136.15 68.96 136.83 69.16C138.3 69.59 139.73 70.11 141.12 70.71L151.63 72.2C151.63 72.2 151.69 72.2 151.72 72.2C152.07 72.2 152.37 71.91 152.37 71.55V62.1C152.37 62.1 152.42 61.11 152.94 60.34C153.09 60.12 153.17 59.86 153.2 59.59C153.34 58.54 153.55 56.82 153.84 56.11C153.96 55.83 153.99 55.52 153.99 55.22V53.6C151.9 53.72 148.4 53.89 144.95 53.89C142.91 53.89 140.89 53.83 139.18 53.67C138.08 53.56 138.06 51.97 139.16 51.83C141.08 51.59 143.4 51.5 145.69 51.5C148.89 51.5 152.05 51.67 153.99 51.79V51.64C153.99 50.56 154.24 49.5 154.74 48.55C155.45 47.21 156.95 45.54 158.28 45.54C159.61 45.54 161.11 47.21 161.82 48.55C162.32 49.5 162.57 50.57 162.57 51.64V51.88C164.06 51.77 168.08 51.5 172.18 51.5C174.47 51.5 176.79 51.58 178.71 51.83C179.8 51.97 179.78 53.57 178.68 53.67C176.98 53.83 174.96 53.89 172.92 53.89C168.57 53.89 164.14 53.62 162.57 53.52V55.22C162.57 55.52 162.61 55.83 162.72 56.11C163.01 56.82 163.22 58.53 163.36 59.59C163.4 59.86 163.47 60.12 163.62 60.34C164.15 61.11 164.19 62.1 164.19 62.1V73.42C164.19 73.74 164.43 74.02 164.75 74.07L244.25 85.33C244.25 85.33 251.17 85.8 246.92 98.46C246.05 100.58 244.95 100.98 244.95 100.98L164.51 107.33C164.05 124.71 152.13 139.24 136.02 143.62L135.84 145.1C135.84 145.1 135.17 152.35 133.24 158.17C133.16 158.41 133.31 158.66 133.56 158.7C137.82 159.36 165.1 163.26 165.1 163.26C165.1 163.26 169.82 164.91 169.82 171.05V181.27C169.82 181.27 169.74 183.16 167.38 183.16H156.78C156.6 183.93 156.43 184.31 156.25 184.31C156.07 184.31 155.9 183.93 155.72 183.16H148.11C147.93 183.93 147.76 184.31 147.58 184.31C147.4 184.31 147.23 183.93 147.05 183.16H139.2C139.02 183.93 138.85 184.31 138.67 184.31C138.49 184.31 138.32 183.93 138.14 183.16H113.37C113.19 183.93 113.02 184.31 112.84 184.31C112.66 184.31 112.49 183.93 112.31 183.16H104.7C104.52 183.93 104.35 184.31 104.17 184.31C103.99 184.31 103.82 183.93 103.64 183.16H95.7898C95.6098 183.93 95.4398 184.31 95.2598 184.31C95.0798 184.31 94.9098 183.93 94.7298 183.16H83.6198C81.2598 183.16 81.1798 181.27 81.1798 181.27V171.05C81.1798 164.92 85.8998 163.26 85.8998 163.26C85.8998 163.26 113.18 159.35 117.44 158.7C117.69 158.66 117.84 158.41 117.76 158.17C115.83 152.34 115.16 145.1 115.16 145.1L114.95 143.4C99.4098 138.84 87.9298 124.8 87.2098 107.96L86.6998 107.35L6.04977 100.98C6.04977 100.98 4.94977 100.59 4.07977 98.46C-0.170233 85.8 6.74977 85.33 6.74977 85.33L86.2498 74.07C86.5698 74.02 86.8098 73.75 86.8098 73.42V62.1C86.8098 62.1 86.8598 61.11 87.3798 60.34C87.5298 60.12 87.6098 59.86 87.6398 59.59C87.7798 58.54 87.9898 56.82 88.2798 56.11C88.3998 55.83 88.4298 55.53 88.4298 55.22V53.52C86.8498 53.63 82.4198 53.89 78.0798 53.89C76.0398 53.89 74.0198 53.83 72.3198 53.67C71.2198 53.56 71.1998 51.97 72.2898 51.83C74.2098 51.59 76.5298 51.5 78.8198 51.5C82.9198 51.5 86.9398 51.77 88.4298 51.88V51.64C88.4298 50.56 88.6798 49.5 89.1798 48.55C89.8898 47.21 91.3898 45.54 92.7198 45.54C94.0498 45.54 95.5498 47.21 96.2598 48.55C96.7598 49.5 97.0098 50.57 97.0098 51.64V51.79C98.9498 51.66 102.1 51.5 105.31 51.5C107.6 51.5 109.92 51.58 111.84 51.83C112.94 51.97 112.92 53.56 111.82 53.67C110.12 53.83 108.1 53.89 106.05 53.89C102.6 53.89 99.0998 53.72 97.0098 53.6V55.22C97.0098 55.52 97.0498 55.83 97.1598 56.11C97.4498 56.82 97.6598 58.53 97.7998 59.59C97.8398 59.86 97.9098 60.12 98.0598 60.34C98.5898 61.11 98.6298 62.1 98.6298 62.1V71.55C98.6298 71.92 98.9298 72.2 99.2798 72.2C99.3098 72.2 99.3398 72.2 99.3698 72.2L110.98 70.56C112.03 70.12 113.1 69.73 114.2 69.39C114.86 69.18 115.3 68.56 115.3 67.87V31.73C113.65 27.25 116.01 23.71 116.01 23.71C116.01 23.71 118.02 2.01 125.49 2.01M125.51 0C116.96 0 114.56 18.32 114.08 23.08C113.41 24.33 111.91 27.83 113.32 32.06V50.28C112.96 50.05 112.55 49.9 112.1 49.84C110.3 49.61 108.02 49.5 105.31 49.5C102.98 49.5 100.68 49.58 98.7998 49.68C98.6398 48.95 98.3798 48.25 98.0298 47.61C97.2298 46.1 95.2098 43.54 92.7298 43.54C90.2498 43.54 88.2298 46.1 87.4298 47.61C87.0698 48.28 86.8098 49 86.6498 49.76C84.6598 49.64 81.7798 49.5 78.8398 49.5C76.1398 49.5 73.8498 49.62 72.0598 49.84C70.5498 50.03 69.4798 51.27 69.4998 52.79C69.5198 54.31 70.6398 55.51 72.1398 55.66C73.7398 55.81 75.7398 55.89 78.0898 55.89C81.1198 55.89 84.1798 55.76 86.3298 55.65C86.0598 56.46 85.8898 57.63 85.6998 59.05L85.6698 59.31C84.9298 60.46 84.8298 61.75 84.8198 62C84.8198 62.03 84.8198 62.06 84.8198 62.1V72.24L6.51977 83.33C5.95977 83.39 3.66977 83.78 2.09977 86.12C0.219767 88.93 0.249767 93.29 2.18977 99.08C2.19977 99.12 2.21977 99.16 2.22977 99.2C3.34977 101.94 4.91977 102.68 5.37977 102.85C5.54977 102.91 5.71977 102.95 5.89977 102.96L85.2898 109.23C86.4698 125.67 97.4798 139.77 113.14 144.91L113.19 145.3C113.24 145.85 113.81 151.59 115.33 156.98C107.96 158.07 85.8898 161.23 85.6398 161.27C85.5098 161.29 85.3898 161.32 85.2598 161.36C85.0098 161.45 79.1998 163.57 79.1998 171.03V181.25C79.1998 181.25 79.1998 181.31 79.1998 181.33C79.2598 182.86 80.4998 185.13 83.6398 185.13H93.3598C93.7198 185.75 94.3098 186.28 95.2798 186.28C96.2498 186.28 96.8398 185.74 97.1998 185.13H102.27C102.63 185.75 103.22 186.28 104.19 186.28C105.16 186.28 105.75 185.74 106.11 185.13H110.94C111.3 185.75 111.89 186.28 112.86 186.28C113.83 186.28 114.42 185.74 114.78 185.13H136.77C137.13 185.75 137.72 186.28 138.69 186.28C139.66 186.28 140.25 185.74 140.61 185.13H145.67C146.03 185.75 146.62 186.28 147.59 186.28C148.56 186.28 149.15 185.74 149.51 185.13H154.34C154.7 185.75 155.29 186.28 156.26 186.28C157.23 186.28 157.82 185.74 158.18 185.13H167.39C170.53 185.13 171.76 182.85 171.83 181.33C171.83 181.3 171.83 181.27 171.83 181.25V171.03C171.83 163.56 166.02 161.44 165.77 161.36C165.65 161.32 165.52 161.29 165.39 161.27C165.14 161.23 143.08 158.07 135.7 156.98C137.22 151.59 137.79 145.85 137.84 145.3L137.86 145.16C145.62 142.76 152.63 137.98 157.72 131.59C162.87 125.11 165.87 117.4 166.45 109.18L245.13 102.97C245.31 102.96 245.48 102.92 245.65 102.86C246.11 102.7 247.68 101.95 248.8 99.21C248.82 99.17 248.83 99.13 248.84 99.09C250.78 93.3 250.81 88.94 248.93 86.13C247.36 83.79 245.07 83.4 244.51 83.34L166.21 72.25V62.11C166.21 62.11 166.21 62.05 166.21 62.01C166.2 61.76 166.1 60.47 165.36 59.32L165.32 59.06C165.13 57.65 164.97 56.48 164.69 55.66C166.84 55.78 169.9 55.9 172.93 55.9C175.28 55.9 177.28 55.82 178.88 55.67C180.39 55.53 181.5 54.32 181.52 52.8C181.54 51.28 180.47 50.04 178.96 49.85C177.16 49.62 174.88 49.51 172.18 49.51C169.24 49.51 166.36 49.65 164.37 49.77C164.21 49.02 163.94 48.29 163.59 47.62C162.79 46.11 160.77 43.55 158.29 43.55C155.81 43.55 153.79 46.11 152.99 47.62C152.65 48.27 152.39 48.97 152.22 49.69C150.34 49.59 148.04 49.51 145.71 49.51C143.01 49.51 140.72 49.63 138.92 49.85C138.47 49.91 138.05 50.06 137.7 50.29V32.07C139.11 27.83 137.61 24.33 136.94 23.09C136.46 18.33 134.07 0.01 125.51 0.01V0ZM137.69 67.34V55.23C138.07 55.47 138.51 55.63 139 55.67C140.6 55.82 142.61 55.9 144.96 55.9C147.31 55.9 149.83 55.82 151.86 55.72C151.6 56.53 151.44 57.67 151.26 59.05L151.23 59.31C150.49 60.46 150.39 61.75 150.38 62C150.38 62.03 150.38 62.06 150.38 62.1V70L141.67 68.77C140.38 68.23 139.05 67.74 137.71 67.34H137.69ZM106.06 55.9C108.41 55.9 110.41 55.82 112.02 55.67C112.5 55.62 112.95 55.47 113.33 55.23V67.58C112.37 67.89 111.41 68.24 110.48 68.62L100.65 70.01V62.11C100.65 62.11 100.65 62.05 100.65 62.01C100.64 61.76 100.54 60.47 99.7998 59.32L99.7598 59.06C99.5798 57.69 99.4198 56.54 99.1598 55.73C101.19 55.83 103.63 55.91 106.06 55.91V55.9Z" fill="black"/>
</g>
<defs>
<clipPath id="clip0_569_58">
<rect width="249.59" height="186.3" fill="white" transform="translate(0.709961)"/>
</clipPath>
</defs>
</svg>
