<svg width="342" height="370" viewBox="0 0 342 370" fill="none" xmlns="http://www.w3.org/2000/svg">
<g clip-path="url(#clip0_521_2)">
<path d="M170.6 368.61C168.36 368.61 167.42 366.9 167.23 366L165.13 350.73C150.24 354.62 123.61 361.59 122.6 361.92C122.3 362.02 122.02 362.06 121.76 362.06C120.59 362.06 119.96 361.12 119.96 360.23V356.95C119.96 354.1 121.3 350.23 121.35 350.06C122.45 346.14 126.04 343.71 126.2 343.6C127.56 342.69 159.64 321.18 161.27 320.15C161.64 319.91 161.49 317.58 160.52 314.96C160.48 314.83 159.25 310.29 157.11 300.28C154.96 290.22 153.72 267.36 153.67 266.39V194.88C153.67 193.09 153.3 191.36 152.57 189.73L150.2 184.41L133.68 184.39C133.1 188.18 132.57 189.31 131.44 189.31C130.31 189.31 129.78 188.18 129.2 184.39H121.27C119.28 184.39 117.31 184.7 115.42 185.32L99.9 190.38C98.96 199.29 98.22 199.75 97.1 199.75C96.06 199.75 95.34 199.22 94.5 192.14L67.37 200.98C66.67 208.01 66.12 208.72 65 208.72C63.97 208.72 63.42 208.1 62.79 202.47C42.85 208.97 19.53 216.56 18.8 216.79C17.43 217.21 15.11 218.53 15.09 218.54C15.03 218.57 9.18 221.92 7.44 223.48C5.92 224.83 4.53 226.54 4.27 226.87C3.78 227.72 3.21 228.5 2.39 228.5C1.87 228.5 1 228.21 1 226.31C1 226.26 1 226.21 1.01 226.17L1.03 226.04C1.69 221.57 3.3 217.37 5.81 213.53C10.98 205.63 11.74 204.64 11.97 204.4C14.12 201.91 18.52 199.02 18.71 198.9C18.78 198.86 75.02 168.21 114 146.91L113.59 145.53H112.92C112.8 145.56 112.65 145.58 112.47 145.58C111.68 145.58 110.76 145.07 110.53 143.65C110.24 141.86 108.27 126.65 108.85 119.54C109.2 114.81 109.73 112.49 110.89 110.66C111.83 109.19 113.94 108.04 115.69 108.04H130.66C130.66 108.04 130.75 108.04 130.8 108.04C130.99 108.07 135.46 108.77 135.46 116.97C135.46 119.48 135.47 121.38 135.49 123.25C135.51 126.44 135.53 129.46 135.49 135.13C144.82 130.02 149.83 127.25 150.39 126.91C152.59 125.57 154 121.36 154.4 119.71V49.2601C154.4 20.0001 163.99 1.32007 170.59 1.32007C177.19 1.32007 186.78 19.9901 186.78 49.2601V119.72C187.18 121.37 188.59 125.58 190.79 126.92C191.36 127.27 196.37 130.03 205.69 135.14C205.65 129.47 205.67 126.44 205.69 123.26C205.7 121.39 205.72 119.48 205.72 116.98C205.72 108.78 210.19 108.08 210.38 108.05C210.42 108.05 210.47 108.05 210.52 108.05H225.49C227.25 108.05 229.36 109.2 230.29 110.67C231.45 112.49 231.98 114.82 232.33 119.56C232.91 126.66 230.94 141.87 230.65 143.66C230.42 145.08 229.5 145.59 228.71 145.59C228.53 145.59 228.38 145.57 228.26 145.54H227.59L227.18 146.92C266.16 168.22 322.4 198.87 322.4 198.87C322.66 199.03 327.06 201.92 329.21 204.41C329.44 204.65 330.19 205.64 335.37 213.54C337.88 217.38 339.49 221.58 340.15 226.02L340.17 226.18C340.17 226.18 340.18 226.28 340.18 226.32C340.18 228.23 339.31 228.51 338.79 228.51C337.97 228.51 337.4 227.74 336.91 226.88C336.65 226.55 335.26 224.84 333.74 223.49C331.99 221.93 326.14 218.58 326.09 218.55C326.07 218.54 323.75 217.22 322.38 216.8C321.65 216.58 298.34 208.98 278.39 202.48C277.76 208.11 277.2 208.73 276.18 208.73C275.06 208.73 274.51 208.02 273.81 200.99L246.68 192.15C245.84 199.23 245.12 199.76 244.08 199.76C242.97 199.76 242.23 199.3 241.28 190.39L225.76 185.33C223.87 184.71 221.9 184.4 219.91 184.4H211.98C211.41 188.19 210.87 189.32 209.74 189.32C208.61 189.32 208.08 188.19 207.5 184.4H191.01L188.61 189.74C187.88 191.37 187.51 193.1 187.51 194.89V266.35C187.46 267.37 186.21 290.24 184.07 300.3C181.93 310.31 180.7 314.85 180.69 314.89C179.76 317.4 179.49 319.9 179.91 320.17C181.54 321.2 213.61 342.7 214.98 343.62C215.13 343.72 218.72 346.16 219.84 350.13C219.88 350.24 221.22 354.1 221.22 356.96V360.24C221.22 360.34 221.21 360.71 221.02 361.09C220.72 361.71 220.13 362.07 219.42 362.07C219.16 362.07 218.88 362.02 218.58 361.93C217.57 361.6 190.94 354.63 176.05 350.74L173.96 365.95C173.76 366.92 172.82 368.63 170.58 368.63L170.6 368.61Z" fill="white"/>
<path d="M170.6 2.32007C176.12 2.32007 185.79 20.0901 185.79 49.2601V119.84C185.79 119.84 187.17 125.88 190.28 127.78C190.94 128.18 197.22 131.64 206.72 136.84C206.63 126.34 206.73 124.09 206.73 116.98C206.73 109.87 210.53 109.04 210.53 109.04H225.5C226.91 109.04 228.7 110.01 229.46 111.2C230.47 112.78 231 114.92 231.35 119.62C231.93 126.64 229.91 142.05 229.68 143.49C229.53 144.41 229.05 144.58 228.73 144.58C228.55 144.58 228.41 144.53 228.41 144.53H227.5C227.12 144.53 226.78 144.78 226.67 145.15L226.01 147.4C265.02 168.72 321.94 199.74 321.94 199.74C321.94 199.74 326.43 202.67 328.5 205.09C328.82 205.38 332.13 210.38 334.55 214.08C336.94 217.73 338.54 221.84 339.18 226.16C339.18 226.21 339.2 226.27 339.2 226.32C339.2 226.92 339.11 227.51 338.81 227.51C338.59 227.51 338.26 227.19 337.76 226.32C337.76 226.32 336.19 224.32 334.42 222.75C332.57 221.1 326.6 217.69 326.6 217.69C326.6 217.69 324.18 216.31 322.69 215.85C321.99 215.64 300.43 208.61 277.55 201.16C277.1 205.55 276.65 207.74 276.2 207.74C275.72 207.74 275.24 205.24 274.76 200.25C264.67 196.96 254.48 193.64 245.84 190.83C245.26 196.12 244.68 198.77 244.1 198.77C243.48 198.77 242.85 195.73 242.23 189.65C235.12 187.33 229.37 185.46 226.09 184.39C224.1 183.74 222.02 183.41 219.93 183.41H211.13C210.67 186.69 210.22 188.33 209.76 188.33C209.3 188.33 208.85 186.69 208.39 183.41H191.03C190.62 183.41 190.25 183.65 190.09 184.02L187.72 189.34C186.94 191.09 186.54 192.98 186.54 194.9V266.36C186.54 266.36 185.27 290 183.12 300.1C180.96 310.2 179.75 314.64 179.75 314.64C179.75 314.64 177.77 319.99 179.4 321.03C181.04 322.07 214.45 344.46 214.45 344.46C214.45 344.46 217.87 346.75 218.91 350.41C218.91 350.41 220.25 354.25 220.25 356.97V360.25C220.25 360.25 220.25 361.08 219.45 361.08C219.3 361.08 219.12 361.05 218.92 360.98C217.58 360.55 175.25 349.49 175.25 349.49L173.01 365.81C173.01 365.81 172.64 367.62 170.62 367.62C168.6 367.62 168.23 365.81 168.23 365.81L165.99 349.49C165.99 349.49 123.65 360.55 122.32 360.98C122.11 361.05 121.93 361.08 121.79 361.08C120.99 361.08 120.99 360.25 120.99 360.25V356.97C120.99 354.25 122.33 350.41 122.33 350.41C123.37 346.74 126.79 344.46 126.79 344.46C126.79 344.46 160.2 322.06 161.84 321.03C163.48 319.99 161.49 314.64 161.49 314.64C161.49 314.64 160.28 310.2 158.12 300.1C155.96 290 154.7 266.36 154.7 266.36V194.9C154.7 192.99 154.3 191.09 153.52 189.34L151.15 184.02C150.98 183.65 150.62 183.41 150.21 183.41H132.85C132.39 186.69 131.94 188.33 131.48 188.33C131.02 188.33 130.57 186.69 130.11 183.41H121.31C119.22 183.41 117.14 183.74 115.15 184.39C111.87 185.46 106.12 187.33 99.01 189.65C98.39 195.73 97.76 198.77 97.14 198.77C96.56 198.77 95.98 196.12 95.4 190.83C86.76 193.64 76.58 196.97 66.48 200.25C66 205.25 65.52 207.74 65.04 207.74C64.59 207.74 64.14 205.54 63.69 201.16C40.81 208.62 19.24 215.64 18.55 215.85C17.05 216.31 14.64 217.69 14.64 217.69C14.64 217.69 8.66 221.11 6.82 222.75C5.05 224.33 3.48 226.32 3.48 226.32C2.99 227.19 2.65 227.51 2.43 227.51C2.13 227.51 2.04 226.92 2.04 226.32C2.04 226.27 2.06 226.21 2.06 226.16C2.7 221.84 4.3 217.73 6.69 214.08C9.11 210.38 12.41 205.38 12.74 205.09C14.81 202.67 19.3 199.74 19.3 199.74C19.3 199.74 76.22 168.72 115.23 147.4L114.57 145.15C114.46 144.78 114.12 144.53 113.74 144.53H112.83C112.83 144.53 112.7 144.58 112.51 144.58C112.19 144.58 111.71 144.41 111.56 143.49C111.33 142.05 109.32 126.64 109.89 119.62C110.24 114.91 110.77 112.78 111.78 111.2C112.54 110.01 114.33 109.04 115.74 109.04H130.71C130.71 109.04 134.51 109.56 134.51 116.98C134.51 124.4 134.62 126.35 134.52 136.84C144.02 131.64 150.3 128.18 150.96 127.78C154.07 125.88 155.45 119.84 155.45 119.84V49.2601C155.45 20.1001 165.11 2.32007 170.64 2.32007M170.6 0.320068C166.64 0.320068 162.44 5.36007 159.07 14.1401C155.42 23.6401 153.41 36.1101 153.41 49.2601V119.6C152.9 121.65 151.55 125.05 149.88 126.07C149.51 126.29 146.82 127.8 136.51 133.45C136.54 128.84 136.51 126.11 136.5 123.25C136.49 121.38 136.47 119.48 136.47 116.97C136.47 107.91 131.17 107.08 130.94 107.05C130.85 107.04 130.76 107.03 130.67 107.03H115.7C113.6 107.03 111.17 108.36 110.05 110.12C108.79 112.1 108.22 114.55 107.85 119.47C107.26 126.66 109.25 142 109.54 143.8C109.87 145.85 111.32 146.57 112.47 146.57C112.48 146.57 112.49 146.57 112.51 146.57C74 167.61 18.86 197.66 18.3 197.97C18.25 198 18.21 198.02 18.16 198.05C17.97 198.18 13.48 201.12 11.23 203.71C10.89 204.08 9.96 205.35 4.97 212.97C2.38 216.93 0.72 221.26 0.04 225.85L0.02 226.02C0.01 226.11 0 226.21 0 226.31C0 229.35 1.99 229.5 2.39 229.5C3.83 229.5 4.67 228.19 5.1 227.43C5.44 227.01 6.72 225.46 8.11 224.22C9.5 222.99 13.98 220.32 15.6 219.4C16.22 219.05 18.06 218.06 19.11 217.73C19.69 217.55 34.1 212.86 61.95 203.79C62.47 208.04 63.09 209.71 65.02 209.71C67.2 209.71 67.72 207.61 68.32 201.71L93.67 193.45C94.37 198.94 95.09 200.73 97.12 200.73C99.15 200.73 99.72 198.3 100.01 196.85C100.29 195.48 100.56 193.59 100.84 191.11L104.62 189.88L115.75 186.25C117.54 185.67 119.4 185.37 121.29 185.37H128.37C128.88 188.46 129.54 190.29 131.47 190.29C133.4 190.29 134.06 188.47 134.57 185.37H149.58L151.7 190.12C152.37 191.62 152.71 193.22 152.71 194.86V266.32C152.71 266.32 152.71 266.39 152.71 266.43C152.76 267.4 154.01 290.35 156.17 300.48C158.31 310.51 159.51 314.94 159.56 315.13C159.58 315.19 159.59 315.24 159.61 315.3C160.18 316.84 160.56 318.75 160.47 319.49C156.87 321.85 126.98 341.88 125.67 342.77C125.51 342.88 121.66 345.49 120.42 349.78C120.24 350.31 118.99 354.07 118.99 356.94V360.22C118.99 361.61 120.04 363.05 121.79 363.05C122.16 363.05 122.54 362.99 122.94 362.86C124.02 362.52 147.5 356.37 164.33 351.97L166.27 366.06C166.27 366.06 166.28 366.15 166.29 366.19C166.53 367.37 167.75 369.6 170.64 369.6C173.53 369.6 174.74 367.37 174.99 366.19C174.99 366.15 175.01 366.1 175.01 366.06L176.95 351.97C193.78 356.37 217.26 362.52 218.34 362.86C218.73 362.99 219.12 363.05 219.48 363.05C220.58 363.05 221.52 362.47 221.98 361.51C222.25 360.95 222.28 360.42 222.28 360.22V356.94C222.28 354.08 221.03 350.31 220.85 349.78C219.61 345.49 215.76 342.87 215.59 342.76C214.28 341.88 184.39 321.84 180.79 319.49C180.7 318.75 181.08 316.84 181.65 315.3C181.67 315.24 181.69 315.19 181.7 315.13C181.75 314.95 182.95 310.52 185.09 300.48C187.26 290.35 188.5 267.4 188.55 266.43C188.55 266.39 188.55 266.36 188.55 266.32V194.86C188.55 193.22 188.89 191.62 189.56 190.12L191.68 185.37H206.69C207.2 188.46 207.86 190.29 209.79 190.29C211.72 190.29 212.38 188.47 212.89 185.37H219.97C221.85 185.37 223.72 185.67 225.51 186.25L239.28 190.74L240.42 191.11C240.69 193.59 240.97 195.48 241.25 196.85C241.55 198.3 242.04 200.73 244.14 200.73C246.24 200.73 246.89 198.94 247.59 193.45L272.94 201.71C273.54 207.6 274.07 209.71 276.24 209.71C278.17 209.71 278.78 208.04 279.31 203.79C307.16 212.86 321.57 217.55 322.15 217.73C323.2 218.05 325.04 219.04 325.66 219.4C327.27 220.32 331.76 222.98 333.14 224.22C334.53 225.46 335.81 227.01 336.15 227.43C336.58 228.18 337.41 229.5 338.86 229.5C339.26 229.5 341.25 229.35 341.25 226.31C341.25 226.21 341.25 226.12 341.23 226.02L341.21 225.85C340.53 221.27 338.87 216.93 336.28 212.97C331.29 205.35 330.37 204.08 330.02 203.71C327.77 201.12 323.28 198.17 323.09 198.05C323.05 198.02 323 197.99 322.95 197.97C322.39 197.66 267.24 167.61 228.74 146.57C228.75 146.57 228.76 146.57 228.78 146.57C229.92 146.57 231.38 145.84 231.71 143.8C232 141.99 233.99 126.65 233.4 119.45C233.04 114.54 232.46 112.1 231.2 110.12C230.08 108.36 227.65 107.03 225.55 107.03H210.58C210.49 107.03 210.4 107.03 210.31 107.05C210.08 107.08 204.78 107.91 204.78 116.97C204.78 119.47 204.77 121.38 204.75 123.25C204.73 126.11 204.71 128.83 204.74 133.45C194.43 127.8 191.74 126.29 191.37 126.07C189.7 125.05 188.35 121.65 187.84 119.6V49.2601C187.84 36.1101 185.83 23.6301 182.18 14.1401C178.81 5.36007 174.61 0.320068 170.65 0.320068H170.6Z" fill="black"/>
</g>
<defs>
<clipPath id="clip0_521_2">
<rect width="341.2" height="369.29" fill="white" transform="translate(0 0.320068)"/>
</clipPath>
</defs>
</svg>
