<svg width="453" height="493" viewBox="0 0 453 493" fill="none" xmlns="http://www.w3.org/2000/svg">
<g clip-path="url(#clip0_468_4)">
<path d="M297.84 490.91C297.12 490.91 296.34 490.75 295.43 490.43C292.34 489.33 243.91 472.41 233.14 468.64L231.04 477.78C231.02 477.87 230.99 477.96 230.96 478.05C230.5 479.24 229.08 481.26 226.63 481.26C224.18 481.26 222.76 479.24 222.3 478.05C222.27 477.96 222.24 477.87 222.22 477.78L220.12 468.64C209.35 472.4 160.92 489.33 157.83 490.43C156.93 490.75 156.14 490.91 155.42 490.91C154.03 490.91 153.19 490.31 152.74 489.81C151.91 488.9 151.86 487.79 151.88 487.36V470.54C151.88 461.43 157.88 456.23 158.58 455.66C163.47 451.28 202.4 416.46 210.1 410.05C207.02 398.94 204.65 369.28 204.33 365.16C185.84 356.23 173.95 337.38 173.95 316.79C173.95 297.51 184.39 279.73 200.92 270.22L188.71 271.02L136.79 284.06L8.84004 346.99V361.62C8.84004 364 7.22004 365.28 5.69004 365.28C4.16004 365.28 2.54004 364 2.54004 361.62V326.98C2.54004 312.65 9.16004 307.98 10.44 307.21L56.98 271.04C55.79 268.19 55.17 265.12 55.17 262.07V246.43C54.51 245.89 54.04 244.99 54.04 243.72C54.04 243.53 53.98 242.99 53.92 242.46C53.59 239.5 52.83 232.58 54.64 223.52C54.64 223.48 54.66 223.44 54.67 223.4C55.42 220.57 58.02 219.73 59.45 219.67H70.96C72.46 219.72 75.06 220.56 75.81 223.39C75.82 223.43 75.83 223.47 75.84 223.51C77.65 232.57 76.89 239.49 76.56 242.45C76.5 242.98 76.44 243.53 76.44 243.71C76.44 244.98 75.97 245.88 75.31 246.42V256.79L117.17 224.26C115.49 220.97 114.61 217.34 114.61 213.66V198.02C113.95 197.48 113.48 196.58 113.48 195.31C113.48 195.12 113.42 194.58 113.36 194.05C113.03 191.09 112.27 184.17 114.08 175.11C114.08 175.07 114.1 175.03 114.11 174.99C114.86 172.16 117.46 171.32 118.89 171.26H130.4C131.9 171.31 134.5 172.15 135.25 174.99C135.26 175.03 135.27 175.07 135.28 175.11C137.09 184.17 136.33 191.09 136 194.05C135.94 194.58 135.88 195.13 135.88 195.31C135.88 196.58 135.41 197.48 134.75 198.02V210.61L204.51 156.41V69.3201C204.51 60.1501 207.47 44.4201 212.04 29.2401C217.37 11.5401 222.29 2.57007 226.66 2.57007C231.03 2.57007 235.95 11.5401 241.28 29.2401C245.85 44.4201 248.81 60.1601 248.81 69.3201V156.41L318.57 210.61V198.02C317.91 197.48 317.44 196.58 317.44 195.31C317.44 195.12 317.38 194.58 317.32 194.05C316.99 191.09 316.23 184.17 318.04 175.11C318.04 175.07 318.06 175.03 318.07 174.99C318.81 172.16 321.42 171.32 322.85 171.26H334.36C335.86 171.31 338.46 172.15 339.21 174.99C339.21 175.03 339.23 175.07 339.24 175.11C341.05 184.17 340.29 191.09 339.96 194.05C339.9 194.58 339.84 195.13 339.84 195.31C339.84 196.58 339.37 197.48 338.71 198.02V213.66C338.71 217.34 337.83 220.97 336.15 224.26L378.01 256.79V246.42C377.35 245.88 376.88 244.98 376.88 243.71C376.88 243.52 376.82 242.98 376.76 242.45C376.43 239.49 375.67 232.57 377.48 223.51C377.48 223.47 377.5 223.43 377.51 223.39C378.26 220.56 380.86 219.72 382.29 219.66H393.8C395.3 219.71 397.9 220.55 398.65 223.38C398.66 223.42 398.67 223.46 398.68 223.5C400.49 232.56 399.73 239.48 399.4 242.44C399.34 242.97 399.28 243.52 399.28 243.7C399.28 244.97 398.81 245.87 398.15 246.41V262.05C398.15 265.1 397.53 268.17 396.34 271.02L442.88 307.19C444.16 307.96 450.78 312.64 450.78 326.96V361.6C450.78 363.98 449.16 365.26 447.63 365.26C446.1 365.26 444.48 363.98 444.48 361.6V346.97L316.53 284.04L264.61 271L254.73 270.35C271.14 279.88 281.41 297.4 281.41 316.77C281.41 338.38 268.7 357.6 248.92 366.1C248.38 372.85 246.11 399.6 243.23 410.02C250.93 416.42 289.86 451.25 294.75 455.63C295.45 456.2 301.45 461.4 301.45 470.51V487.33C301.47 487.76 301.42 488.87 300.59 489.78C300.14 490.28 299.3 490.88 297.91 490.88L297.84 490.91Z" fill="white"/>
<path d="M226.62 4.6001C233.64 4.6001 246.77 50.3301 246.77 69.3501V157.42L320.53 214.73V196.7C320.53 196.7 320.47 196.71 320.39 196.71C320.09 196.71 319.4 196.57 319.4 195.34C319.4 193.76 317.82 186.28 319.97 175.53C320.54 173.38 322.88 173.29 322.88 173.29H334.31C334.31 173.29 336.66 173.37 337.22 175.53C339.37 186.28 337.79 193.76 337.79 195.34C337.79 196.57 337.11 196.71 336.8 196.71C336.71 196.71 336.66 196.7 336.66 196.7V213.7C336.66 217.64 335.55 221.48 333.51 224.82L379.96 260.91V245.1C379.96 245.1 379.9 245.11 379.82 245.11C379.52 245.11 378.83 244.97 378.83 243.74C378.83 242.16 377.25 234.68 379.4 223.93C379.97 221.78 382.31 221.69 382.31 221.69H393.74C393.74 221.69 396.09 221.77 396.65 223.93C398.8 234.68 397.22 242.16 397.22 243.74C397.22 244.97 396.54 245.11 396.23 245.11C396.14 245.11 396.09 245.1 396.09 245.1V262.1C396.09 265.45 395.29 268.72 393.8 271.67L441.7 308.89C441.7 308.89 448.72 312.51 448.72 327V361.64C448.72 362.74 448.14 363.3 447.57 363.3C447 363.3 446.42 362.75 446.42 361.64V345.76L317.16 282.18L264.86 269.05L247.65 267.92L247.35 269C266.12 276.75 279.34 295.23 279.34 316.8C279.34 338.37 265.94 357.11 246.95 364.76C246.75 367.32 244.12 400.98 240.85 410.78C243.79 412.82 293.38 457.19 293.38 457.19C293.38 457.19 299.38 461.94 299.38 470.55V487.42C299.38 487.42 299.52 488.91 297.83 488.91C297.39 488.91 296.82 488.81 296.09 488.55C292.58 487.3 231.68 466.02 231.68 466.02L229.08 477.34C229.08 477.34 228.34 479.26 226.62 479.26C224.9 479.26 224.16 477.34 224.16 477.34L221.56 466.02C221.56 466.02 160.66 487.3 157.15 488.55C156.42 488.81 155.85 488.91 155.41 488.91C153.72 488.91 153.86 487.42 153.86 487.42V470.55C153.86 461.95 159.86 457.19 159.86 457.19C159.86 457.19 209.44 412.82 212.39 410.78C208.99 400.59 206.28 364.59 206.28 364.59V363.88C188.39 355.75 175.94 337.73 175.94 316.8C175.94 295.87 188.31 277.96 206.11 269.8L205.6 267.92L188.39 269.05L136.09 282.18L6.83006 345.76V361.64C6.83006 362.74 6.25006 363.3 5.68006 363.3C5.11006 363.3 4.53006 362.75 4.53006 361.64V327C4.53006 312.51 11.5501 308.89 11.5501 308.89L59.4501 271.67C57.9601 268.71 57.1601 265.44 57.1601 262.1V245.1C57.1601 245.1 57.1001 245.11 57.0201 245.11C56.7201 245.11 56.0301 244.97 56.0301 243.74C56.0301 242.16 54.4501 234.68 56.6001 223.93C57.1701 221.78 59.5101 221.69 59.5101 221.69H70.9401C70.9401 221.69 73.2901 221.77 73.8501 223.93C76.0001 234.68 74.4201 242.16 74.4201 243.74C74.4201 244.97 73.7401 245.11 73.4301 245.11C73.3401 245.11 73.2901 245.1 73.2901 245.1V260.91L119.74 224.82C117.7 221.48 116.59 217.64 116.59 213.7V196.7C116.59 196.7 116.53 196.71 116.45 196.71C116.15 196.71 115.46 196.57 115.46 195.34C115.46 193.76 113.88 186.28 116.03 175.53C116.6 173.38 118.94 173.29 118.94 173.29H130.37C130.37 173.29 132.72 173.37 133.28 175.53C135.43 186.28 133.85 193.76 133.85 195.34C133.85 196.57 133.17 196.71 132.86 196.71C132.77 196.71 132.72 196.7 132.72 196.7V214.73L206.48 157.42V69.3501C206.48 50.3301 219.61 4.6001 226.63 4.6001M226.62 0.600098C223.1 0.600098 220.2 3.5001 216.91 10.3001C214.68 14.9101 212.32 21.2701 210.08 28.6901C205.46 44.0401 202.47 60.0001 202.47 69.3501V155.46L136.71 206.55V198.83C137.4 197.96 137.84 196.79 137.84 195.34C137.84 195.22 137.9 194.71 137.95 194.3C138.29 191.25 139.07 184.11 137.2 174.75C137.18 174.67 137.17 174.59 137.15 174.52C136.24 171.05 133.16 169.4 130.51 169.31C130.46 169.31 130.41 169.31 130.37 169.31H118.94C118.94 169.31 118.84 169.31 118.8 169.31C116.15 169.41 113.07 171.06 112.16 174.52C112.14 174.6 112.12 174.68 112.11 174.75C110.24 184.11 111.02 191.25 111.36 194.3C111.41 194.71 111.46 195.22 111.47 195.38C111.47 196.81 111.91 197.97 112.6 198.84V213.7C112.6 217.14 113.31 220.54 114.67 223.7L77.3001 252.74V247.23C77.9901 246.36 78.4301 245.19 78.4301 243.74C78.4301 243.62 78.4901 243.11 78.5401 242.7C78.8801 239.65 79.6601 232.51 77.7901 223.15C77.7701 223.07 77.7601 222.99 77.7401 222.92C76.8301 219.45 73.7501 217.8 71.1001 217.71C71.0501 217.71 71.0001 217.71 70.9601 217.71H59.5301C59.5301 217.71 59.4301 217.71 59.3901 217.71C56.7401 217.81 53.6601 219.46 52.7501 222.92C52.7301 223 52.7101 223.08 52.7001 223.15C50.8301 232.51 51.6101 239.65 51.9501 242.7C52.0001 243.11 52.0501 243.62 52.0601 243.78C52.0601 245.21 52.5001 246.37 53.1901 247.24V262.1C53.1901 264.9 53.6701 267.72 54.6001 270.4L9.33006 305.58C7.40006 306.76 0.560059 312.02 0.560059 327.01V361.65C0.560059 364.87 2.78006 367.31 5.71006 367.31C8.64006 367.31 10.8601 364.88 10.8601 361.65V348.26L137.51 285.97L189.05 273.03L193.66 272.73C180.2 283.15 171.98 299.39 171.98 316.82C171.98 337.79 183.86 357.01 202.45 366.48C202.98 373.06 205.1 398.03 207.87 409.37C198.46 417.35 164.79 447.46 157.28 454.18C156.25 455.04 149.89 460.78 149.89 470.57V487.36C149.87 488.14 150 489.78 151.27 491.18C152.3 492.31 153.77 492.93 155.43 492.93C156.38 492.93 157.38 492.74 158.51 492.34C161.43 491.3 204.83 476.14 218.69 471.29L220.29 478.26C220.33 478.44 220.39 478.62 220.45 478.79C221.31 481.03 223.55 483.29 226.65 483.29C229.75 483.29 231.99 481.03 232.85 478.79C232.92 478.62 232.97 478.44 233.01 478.26L234.61 471.29C248.47 476.13 291.87 491.3 294.79 492.34C295.91 492.74 296.92 492.93 297.87 492.93C299.53 492.93 301.01 492.31 302.03 491.18C303.31 489.78 303.43 488.14 303.41 487.36V470.57C303.41 460.79 297.05 455.05 296.02 454.18C288.51 447.46 254.84 417.35 245.43 409.37C248.06 398.6 250.12 375.47 250.77 367.51C270.65 358.46 283.36 338.83 283.36 316.83C283.36 299.32 275.27 283.27 261.93 272.89L264.25 273.04L315.79 285.98L442.44 348.27V361.66C442.44 364.88 444.66 367.32 447.59 367.32C450.52 367.32 452.74 364.89 452.74 361.66V327.02C452.74 312.03 445.9 306.77 443.97 305.59L398.7 270.41C399.63 267.74 400.11 264.92 400.11 262.11V247.25C400.8 246.38 401.24 245.21 401.24 243.76C401.24 243.64 401.3 243.13 401.35 242.72C401.69 239.67 402.47 232.53 400.6 223.17C400.58 223.09 400.57 223.01 400.55 222.94C399.64 219.47 396.56 217.82 393.91 217.73C393.86 217.73 393.81 217.73 393.77 217.73H382.34C382.34 217.73 382.24 217.73 382.2 217.73C379.55 217.83 376.47 219.48 375.56 222.94C375.54 223.02 375.52 223.1 375.51 223.17C373.64 232.53 374.42 239.67 374.76 242.72C374.81 243.13 374.86 243.64 374.87 243.8C374.87 245.23 375.31 246.39 376 247.26V252.76L338.63 223.72C339.99 220.56 340.7 217.16 340.7 213.72V198.86C341.39 197.99 341.83 196.82 341.83 195.37C341.83 195.25 341.89 194.74 341.94 194.33C342.28 191.28 343.06 184.14 341.19 174.78C341.17 174.7 341.16 174.62 341.14 174.55C340.23 171.08 337.15 169.43 334.5 169.34C334.45 169.34 334.4 169.34 334.36 169.34H322.93C322.93 169.34 322.83 169.34 322.79 169.34C320.14 169.44 317.06 171.09 316.15 174.55C316.13 174.63 316.11 174.71 316.1 174.78C314.23 184.14 315.01 191.28 315.35 194.33C315.4 194.74 315.45 195.25 315.46 195.41C315.46 196.84 315.9 198 316.59 198.87V206.59L250.83 155.5V69.3901C250.83 60.0401 247.84 44.0801 243.22 28.7301C240.99 21.3101 238.63 14.9501 236.39 10.3401C233.1 3.5401 230.2 0.640098 226.68 0.640098L226.62 0.600098Z" fill="black"/>
</g>
<defs>
<clipPath id="clip0_468_4">
<rect width="452.2" height="492.31" fill="white" transform="translate(0.52002 0.600098)"/>
</clipPath>
</defs>
</svg>
