<svg width="127" height="134" viewBox="0 0 127 134" fill="none" xmlns="http://www.w3.org/2000/svg">
<g clip-path="url(#clip0_410_2)">
<path d="M89.3307 132.11C89.1807 132.11 89.0307 132.09 88.8807 132.05L65.1807 125.79C64.9207 129.14 64.2407 129.45 63.5007 129.45C62.7607 129.45 62.0807 129.15 61.8207 125.79L38.1207 132.05C37.9707 132.09 37.8207 132.11 37.6707 132.11C37.2107 132.11 36.7807 131.93 36.4507 131.61C36.1107 131.28 35.9307 130.84 35.9307 130.36V129.72C36.0807 125.9 36.7207 123.12 39.3707 121.84C40.4507 121.35 57.3607 112.83 61.0007 111C60.3907 108.14 58.3007 98.2198 58.1607 97.2898C58.0407 96.5298 57.9507 95.4998 57.9107 94.9198C57.3107 94.4298 56.0207 93.3898 55.0207 92.5698C54.9407 92.7598 54.8607 92.9098 54.7807 93.0398C54.5107 93.4598 54.0607 93.6998 53.5707 93.6998H50.9107C50.0407 93.6998 49.2907 93.1098 49.0907 92.2698C48.7907 91.0198 48.0607 87.7098 47.6307 84.0098C47.2207 80.4598 47.3707 76.9198 47.4907 75.2298C31.9207 74.0498 3.88067 71.9498 2.90067 71.9298C2.11067 71.9298 1.66067 71.5998 1.42067 71.3198C1.09067 70.9298 0.990673 70.4498 1.02067 70.0998V64.1598C1.02067 62.3398 2.21067 61.5098 2.91067 61.3098C2.95067 61.2998 2.99067 61.2898 3.03067 61.2798L53.7407 53.2298L53.8307 53.1598V36.6198C53.8307 28.2598 56.7507 1.94983 63.5207 1.94983C70.2907 1.94983 73.2107 28.2598 73.2107 36.6198V53.1598L73.3007 53.2298L124.011 61.2798C124.011 61.2798 124.091 61.2898 124.131 61.3098C124.831 61.5098 126.021 62.3398 126.021 64.1598V70.0998C126.051 70.4498 125.961 70.9298 125.621 71.3198C125.381 71.5998 124.931 71.9298 124.131 71.9298C123.151 71.9498 95.1107 74.0498 79.5407 75.2298C79.6607 76.9198 79.8107 80.4598 79.4007 84.0098C78.9707 87.7198 78.2307 91.0198 77.9407 92.2698C77.7407 93.1098 76.9907 93.6998 76.1207 93.6998H73.4607C72.9707 93.6998 72.5207 93.4498 72.2507 93.0398C72.1707 92.9198 72.0907 92.7598 72.0107 92.5698C71.0007 93.3898 69.7207 94.4298 69.1207 94.9198C69.0707 95.4998 68.9807 96.5298 68.8607 97.2898C68.7107 98.2198 66.6207 108.13 66.0207 111C73.4807 114.76 86.7107 121.41 87.6307 121.83C90.3007 123.13 90.9507 125.91 91.1007 129.68V130.36C91.1007 131.32 90.3207 132.11 89.3507 132.11H89.3307Z" fill="white"/>
<path d="M63.5002 2.95983C68.6102 2.95983 72.1902 25.8998 72.1902 36.6298V53.6298L72.8402 54.1798L123.83 62.2698C123.83 62.2698 124.99 62.5998 124.99 64.1498V70.1398C124.99 70.1398 125.1 70.9198 124.1 70.9198C123.1 70.9198 78.4302 74.2998 78.4302 74.2998C78.4302 74.2998 78.9302 79.1198 78.3702 83.8898C77.9502 87.4998 77.2402 90.6998 76.9302 92.0398C76.8402 92.4298 76.4902 92.7098 76.0902 92.7098H73.4302C73.2802 92.7098 73.1502 92.6398 73.0702 92.5098C72.9102 92.2498 72.6802 91.7098 72.6802 90.7098C72.2402 91.0998 68.1402 94.4198 68.1402 94.4198C68.1402 94.4198 68.0302 96.0798 67.8602 97.1398C67.6902 98.1898 64.8702 111.55 64.8702 111.55C64.8702 111.55 85.9902 122.19 87.2002 122.75C89.1402 123.69 89.9202 125.58 90.0802 129.73V130.37C90.0802 130.79 89.7302 131.12 89.3302 131.12C89.2702 131.12 89.2002 131.12 89.1402 131.09L64.2502 124.52C64.2502 124.52 64.0902 128.45 63.4902 128.45C62.8902 128.45 62.7302 124.52 62.7302 124.52L37.8402 131.09C37.7802 131.11 37.7102 131.12 37.6502 131.12C37.2502 131.12 36.9002 130.8 36.9002 130.37V129.73C37.0702 125.57 37.8402 123.69 39.7802 122.75C41.0002 122.2 62.1102 111.55 62.1102 111.55C62.1102 111.55 59.2802 98.1898 59.1202 97.1398C58.9502 96.0898 58.8402 94.4198 58.8402 94.4198C58.8402 94.4198 54.7402 91.0898 54.3002 90.7098C54.3002 91.7098 54.0702 92.2498 53.9102 92.5098C53.8302 92.6298 53.6902 92.7098 53.5502 92.7098H50.8902C50.4902 92.7098 50.1402 92.4298 50.0502 92.0398C49.7302 90.6998 49.0302 87.4998 48.6102 83.8898C48.0602 79.1198 48.5502 74.2998 48.5502 74.2998C48.5502 74.2998 3.88021 70.9198 2.88021 70.9198C1.88021 70.9198 1.99021 70.1398 1.99021 70.1398V64.1498C1.99021 62.5998 3.15021 62.2698 3.15021 62.2698L54.1402 54.1798L54.7902 53.6298V36.6298C54.7902 25.9098 58.3702 2.95983 63.4802 2.95983M63.5002 0.959829C61.3102 0.959829 58.0802 2.44983 55.2802 15.3498C53.8002 22.1798 52.8002 30.7298 52.8002 36.6298V52.3698L2.85021 60.2998C2.77021 60.3098 2.69021 60.3298 2.61021 60.3498C1.65021 60.6298 0.000212462 61.7398 0.000212462 64.1598V70.0798C-0.0197875 70.4898 0.0402125 71.2798 0.640212 71.9698C0.950212 72.3198 1.65021 72.9198 2.88021 72.9198C4.08021 72.9598 33.0302 75.1298 46.4102 76.1398C46.3102 78.0598 46.2602 81.0798 46.6102 84.1098C47.0502 87.8698 47.7902 91.2198 48.0902 92.4898C48.4002 93.7898 49.5502 94.6898 50.8802 94.6898H53.5402C54.1702 94.6898 54.7602 94.4498 55.2102 94.0298C55.8302 94.5398 56.4602 95.0498 56.9202 95.4198C56.9702 96.0198 57.0502 96.8098 57.1502 97.4398C57.2902 98.3298 59.0802 106.81 59.8402 110.44C53.2502 113.76 39.8502 120.5 38.9502 120.91C38.9302 120.91 38.9202 120.92 38.9002 120.93C35.8002 122.43 35.0602 125.5 34.8902 129.63C34.8902 129.66 34.8902 129.68 34.8902 129.71V130.35C34.8902 131.87 36.1202 133.1 37.6402 133.1C37.8802 133.1 38.1102 133.07 38.3402 133.01L60.9102 127.05C61.1802 129 61.8002 130.44 63.4802 130.44C65.1602 130.44 65.7802 129.01 66.0502 127.05L88.6202 133.01C88.8502 133.07 89.0902 133.1 89.3202 133.1C90.8302 133.1 92.0702 131.87 92.0702 130.35V129.71C92.0702 129.71 92.0702 129.66 92.0702 129.63C91.9002 125.49 91.1602 122.43 88.0602 120.93C88.0402 120.93 88.0302 120.92 88.0102 120.91C87.1102 120.5 73.7202 113.76 67.1202 110.44C67.8902 106.81 69.6702 98.3298 69.8102 97.4398C69.9102 96.8198 69.9902 96.0198 70.0402 95.4198C70.5002 95.0498 71.1302 94.5398 71.7502 94.0298C72.1902 94.4498 72.7902 94.6898 73.4202 94.6898H76.0802C77.4102 94.6898 78.5602 93.7798 78.8702 92.4898C79.1702 91.2198 79.9202 87.8698 80.3502 84.1098C80.7002 81.0798 80.6502 78.0598 80.5502 76.1398C93.9302 75.1298 122.88 72.9498 124.11 72.9098C125.31 72.9098 126.01 72.3098 126.32 71.9598C126.92 71.2698 126.98 70.4798 126.96 70.0698V64.1498C126.96 61.7298 125.32 60.6198 124.35 60.3398C124.27 60.3198 124.19 60.2998 124.11 60.2898L74.1602 52.3598V36.6198C74.1602 30.7198 73.1702 22.1698 71.6802 15.3398C68.8802 2.43983 65.6502 0.949829 63.4602 0.949829L63.5002 0.959829Z" fill="black"/>
</g>
<defs>
<clipPath id="clip0_410_2">
<rect width="127" height="132.15" fill="white" transform="translate(0 0.959839)"/>
</clipPath>
</defs>
</svg>
