<svg width="164" height="159" viewBox="0 0 164 159" fill="none" xmlns="http://www.w3.org/2000/svg">
<g clip-path="url(#clip0_408_2)">
<path d="M111.18 157.18C111.05 157.18 110.93 157.16 110.81 157.13L83.87 149.81C83.75 151.41 83.5 154.09 83.15 155.31C82.81 156.75 81.95 156.91 81.6 156.91H81.52C81.17 156.91 80.3 156.75 79.95 155.26C79.61 154.08 79.37 151.4 79.24 149.81L52.3 157.13C52.18 157.16 52.05 157.18 51.93 157.18C51.56 157.18 51.21 157.04 50.94 156.77C50.67 156.5 50.52 156.14 50.52 155.76V153.42C50.52 146.6 54.12 144.92 54.85 144.64L77.82 132.39C77.8 132.34 77.79 132.28 77.78 132.23C77.77 132.18 76.72 127.27 75.97 123.22C75.45 120.4 75.16 118.79 75.04 118.06C73.67 117.44 71.92 116.6 71.3 116.22L71.11 116.44C70.69 116.97 70 117.26 69.87 117.31C69.75 117.36 69.63 117.38 69.5 117.38H65.71C64.99 117.38 64.36 116.92 64.13 116.25C62.57 111.62 61.6 99.0398 61.56 98.4998V94.2198C61.56 92.4898 61.76 91.2698 62.02 90.4298H55.49C54.76 90.4298 54.03 90.5298 53.33 90.7298C42.6 93.8198 7.48 103.92 6.15 104.19C5.31 104.36 4.81 105.11 4.7 105.29C4.62 105.49 4.41 106.01 3.85 107.21C3.66 107.63 3.2 108.62 2.29 108.62C1.65 108.62 1.15 108.14 1.02 107.39C1.01 107.33 1 107.27 1 107.21V106.24C1 105.53 1.12 104.84 1.35 104.17L2.97 99.4798C3.15 98.9998 3.24 98.5298 3.24 98.0498V96.6198C3.24 93.5498 6.16 92.3298 6.74 92.1198L69.54 59.3298C69.78 59.2098 69.99 59.0498 70.16 58.8498L71.74 57.1398V33.0298C71.74 24.2598 76.09 1.9198 81.55 1.9198C87.01 1.9198 91.36 24.2598 91.36 33.0298V57.1398L92.94 58.8498C93.12 59.0398 93.33 59.1998 93.57 59.3298L156.37 92.1198C156.94 92.3298 159.87 93.5398 159.87 96.6198V98.0498C159.87 98.5298 159.96 98.9998 160.13 99.4498L161.76 104.16C161.99 104.83 162.11 105.52 162.11 106.23V107.2C162.11 107.26 162.11 107.32 162.09 107.38C161.95 108.13 161.45 108.61 160.82 108.61C159.91 108.61 159.45 107.62 159.26 107.2C158.7 106 158.49 105.48 158.41 105.27C158.31 105.1 157.81 104.34 156.97 104.17C155.6 103.89 117.43 92.9098 109.79 90.7098C109.09 90.5098 108.36 90.4098 107.62 90.4098H101.09C101.35 91.2598 101.56 92.4698 101.56 94.1998V98.3998C101.52 99.0098 100.55 111.59 98.99 116.22C98.76 116.9 98.13 117.35 97.41 117.35H93.62C93.5 117.35 93.37 117.33 93.25 117.28C93.12 117.23 92.43 116.94 91.98 116.37L91.81 116.18C91.15 116.6 89.43 117.43 88.05 118.08C87.96 118.77 87.68 120.38 87.15 123.2C86.4 127.25 85.35 132.16 85.34 132.21C85.33 132.26 85.31 132.32 85.29 132.37L108.27 144.62C109 144.89 112.6 146.57 112.6 153.4V155.74C112.6 156.52 111.97 157.15 111.19 157.15L111.18 157.18Z" fill="white"/>
<path d="M81.55 2.95984C85.58 2.95984 90.36 22.7398 90.36 33.0698V57.2598C90.36 57.4598 90.44 57.6598 90.57 57.8098L92.2 59.5698C92.46 59.8498 92.76 60.0798 93.1 60.2498L155.96 93.0698C155.96 93.0698 158.86 93.9998 158.86 96.6498V98.0798C158.86 98.6798 158.97 99.2698 159.18 99.8298L160.8 104.52C160.99 105.08 161.09 105.67 161.09 106.26V107.23C161.09 107.23 161.01 107.64 160.8 107.64C160.65 107.64 160.44 107.45 160.15 106.81C159.42 105.23 159.3 104.88 159.3 104.88C159.3 104.88 158.6 103.51 157.14 103.22C155.82 102.96 117.36 91.8898 110.04 89.7798C109.25 89.5498 108.42 89.4398 107.6 89.4398H99.43C99.43 89.4398 100.54 90.3198 100.54 94.2298V98.4298C100.54 98.4298 99.56 111.37 98.02 115.93C97.93 116.2 97.68 116.38 97.39 116.38H93.6C93.6 116.38 93.06 116.17 92.74 115.78L92.29 115.27C92.29 115.27 92.17 115.12 91.91 115.12C91.76 115.12 91.57 115.17 91.34 115.33C90.84 115.66 88.57 116.75 87.6 117.2C87.32 117.33 87.13 117.59 87.08 117.89C86.95 118.62 86.67 120.23 86.15 123.04C85.39 127.12 84.34 132.03 84.34 132.03C84.34 132.03 83.93 132.85 84.75 133.26L107.85 145.57C107.85 145.57 111.58 146.66 111.58 153.43V155.77C111.58 156.01 111.39 156.19 111.17 156.19C111.13 156.19 111.1 156.19 111.06 156.18L82.94 148.54C82.94 148.54 82.64 153.41 82.17 155.05C81.98 155.85 81.68 155.93 81.58 155.93C81.55 155.93 81.54 155.93 81.54 155.93C81.54 155.93 81.53 155.93 81.5 155.93C81.39 155.93 81.1 155.85 80.91 155.05C80.44 153.42 80.14 148.54 80.14 148.54L52.02 156.18C52.02 156.18 51.95 156.19 51.91 156.19C51.69 156.19 51.5 156.01 51.5 155.77V153.43C51.5 146.66 55.23 145.57 55.23 145.57L78.33 133.26C79.15 132.85 78.74 132.03 78.74 132.03C78.74 132.03 77.69 127.13 76.93 123.04C76.41 120.23 76.13 118.62 76 117.89C75.95 117.59 75.75 117.33 75.48 117.2C74.51 116.74 72.24 115.66 71.74 115.33C71.5 115.17 71.31 115.12 71.17 115.12C70.92 115.12 70.79 115.27 70.79 115.27L70.34 115.78C70.03 116.17 69.48 116.38 69.48 116.38H65.69C65.4 116.38 65.15 116.2 65.06 115.93C63.52 111.37 62.54 98.4298 62.54 98.4298V94.2298C62.54 90.3198 63.65 89.4398 63.65 89.4398H55.48C54.65 89.4398 53.83 89.5598 53.04 89.7798C45.72 91.8898 7.26 102.95 5.94 103.22C4.48 103.51 3.78 104.88 3.78 104.88C3.78 104.88 3.66 105.23 2.93 106.81C2.63 107.45 2.42 107.64 2.28 107.64C2.07 107.64 1.99 107.23 1.99 107.23V106.26C1.99 105.67 2.09 105.08 2.28 104.52L3.9 99.8298C4.11 99.2698 4.22 98.6798 4.22 98.0798V96.6498C4.22 93.9998 7.12 93.0698 7.12 93.0698L69.98 60.2498C70.32 60.0698 70.62 59.8398 70.88 59.5698L72.51 57.8098C72.65 57.6598 72.72 57.4698 72.72 57.2598V33.0698C72.72 22.7398 77.5 2.95984 81.53 2.95984M81.55 0.959839C80.35 0.959839 77.15 0.959839 73.71 13.6198C71.91 20.2298 70.74 27.8698 70.74 33.0698V56.7898L69.43 58.2098C69.33 58.3198 69.21 58.4098 69.08 58.4798L6.34 91.2298C4.73 91.8098 2.23 93.5298 2.23 96.6498V98.0798C2.23 98.4398 2.17 98.7898 2.04 99.1298C2.04 99.1498 2.03 99.1698 2.02 99.1798L0.4 103.87C0.13 104.64 0 105.45 0 106.27V107.24C0 107.36 0.01 107.48 0.03 107.6C0.26 108.82 1.16 109.65 2.29 109.65C3.84 109.65 4.53 108.15 4.76 107.66C5.15 106.81 5.45 106.15 5.6 105.76C5.69 105.63 5.97 105.26 6.34 105.19C7.67 104.92 39.83 95.6798 53.6 91.7098C54.21 91.5298 54.85 91.4398 55.49 91.4398H60.76C60.63 92.2098 60.55 93.1298 60.55 94.2298V98.4298C60.55 98.4798 60.55 98.5298 60.55 98.5798C60.59 99.1198 61.57 111.82 63.17 116.57C63.54 117.65 64.55 118.38 65.7 118.38H69.49C69.74 118.38 69.99 118.33 70.22 118.24C70.41 118.17 70.96 117.92 71.48 117.47C71.99 117.73 72.8 118.14 74.13 118.77C74.28 119.64 74.55 121.13 74.97 123.4C75.57 126.65 76.37 130.45 76.67 131.87L54.4 143.74C53.31 144.19 49.51 146.26 49.51 153.42V155.76C49.51 157.09 50.59 158.18 51.92 158.18C52.13 158.18 52.35 158.15 52.55 158.1L78.33 151.1C78.47 152.64 78.69 154.52 78.97 155.55C79.51 157.75 81.04 157.93 81.5 157.93C81.51 157.93 81.52 157.93 81.54 157.93C81.55 157.93 81.57 157.93 81.58 157.93C82.04 157.93 83.57 157.76 84.11 155.55C84.39 154.53 84.61 152.65 84.75 151.1L110.53 158.1C110.74 158.16 110.95 158.18 111.16 158.18C112.49 158.18 113.57 157.1 113.57 155.76V153.42C113.57 146.26 109.76 144.19 108.68 143.74L86.41 131.87C86.71 130.45 87.5 126.65 88.11 123.4C88.53 121.13 88.8 119.64 88.95 118.77C90.28 118.14 91.1 117.73 91.6 117.47C92.12 117.92 92.67 118.17 92.86 118.24C93.09 118.33 93.34 118.38 93.59 118.38H97.38C98.53 118.38 99.54 117.65 99.91 116.57C101.51 111.82 102.49 99.1198 102.53 98.5798C102.53 98.5298 102.53 98.4798 102.53 98.4298V94.2298C102.53 93.1298 102.45 92.1998 102.32 91.4398H107.59C108.23 91.4398 108.86 91.5298 109.48 91.7098C123.25 95.6698 155.42 104.92 156.74 105.19C157.11 105.26 157.39 105.62 157.49 105.77C157.64 106.15 157.94 106.82 158.33 107.66C158.56 108.15 159.25 109.65 160.8 109.65C161.92 109.65 162.83 108.83 163.06 107.6C163.08 107.48 163.09 107.36 163.09 107.24V106.27C163.09 105.45 162.95 104.65 162.69 103.87L161.07 99.1798C161.07 99.1798 161.06 99.1398 161.05 99.1298C160.92 98.7898 160.86 98.4398 160.86 98.0798V96.6498C160.86 93.5298 158.36 91.8098 156.75 91.2298L94.02 58.4798C93.89 58.4098 93.77 58.3198 93.67 58.2098L92.36 56.7898V33.0698C92.36 27.8598 91.2 20.2298 89.39 13.6198C85.94 0.959839 82.75 0.959839 81.55 0.959839Z" fill="black"/>
</g>
<defs>
<clipPath id="clip0_408_2">
<rect width="163.1" height="157.23" fill="white" transform="translate(0 0.959839)"/>
</clipPath>
</defs>
</svg>
