<svg width="113" height="164" viewBox="0 0 113 164" fill="none" xmlns="http://www.w3.org/2000/svg">
<g clip-path="url(#clip0_824_143)">
<path d="M56.5 162.54C56.14 162.54 55.8 162.34 55.63 162.03C54.8 160.56 54.6 157.14 54.44 151.77H48.45C46.41 151.77 45.94 146.03 45.84 144.27C45.84 144.26 45.77 142.49 45.64 139.49C44.69 139.04 43.99 138.51 43.14 137.65C42.96 137.46 42.85 137.21 42.85 136.95V133.5C28.87 133.44 20.42 132.83 5.53 131.49V134.38C5.53 134.93 5.08 135.38 4.53 135.38H2C1.45 135.38 1 134.93 1 134.38V116.82C1 114.24 1.69 110.69 2.41 109.51C2.59 109.21 2.91 109.03 3.26 109.03C3.61 109.03 3.93 109.21 4.11 109.51C4.6 110.3 5.07 112.17 5.32 114.08L9.73 108.19C9.73 103.89 9.8 101.16 10.67 96.7298C10.76 96.2598 11.17 95.9198 11.65 95.9198C12.13 95.9198 12.54 96.2598 12.63 96.7298C13.12 99.2398 13.36 101.21 13.47 103.21C17.69 97.5898 22.52 91.1998 27.54 84.6898C27.69 83.4198 27.89 82.1498 28.15 80.8098C28.24 80.3398 28.65 79.9998 29.13 79.9998C29.61 79.9998 30.02 80.3398 30.11 80.8098C30.14 80.9598 30.17 81.1098 30.2 81.2598C34.68 75.5098 39.18 69.8198 44.23 63.5598V61.5698C44.23 61.3798 44.29 61.1898 44.39 61.0198L46.07 58.4598C46.09 55.9798 46.32 52.6598 46.76 48.5798C46.78 48.3798 46.87 48.1798 47 48.0298C47.46 47.5098 47.84 47.2198 48.27 47.0298C48.36 45.9398 48.46 44.8498 48.56 43.7598C44.29 45.0598 41.8 45.9198 37.97 47.2898C37.86 47.3298 37.75 47.3498 37.63 47.3498C37.44 47.3498 37.26 47.2998 37.1 47.1998C36.84 47.0398 36.67 46.7598 36.64 46.4498C36.42 44.2698 36.35 42.5698 36.64 40.3598C36.67 40.1598 36.76 39.9598 36.9 39.8098C38.01 38.6198 39.01 37.5198 39.96 36.4798C43.33 32.7898 46.01 29.8598 50.21 25.9898C50.34 19.7298 53.18 5.2798 55.7 1.9498C55.89 1.6998 56.18 1.5498 56.5 1.5498C56.82 1.5498 57.11 1.6998 57.3 1.9498C59.82 5.2898 62.65 19.7398 62.79 25.9898C66.98 29.8598 69.66 32.7898 73.04 36.4698C73.99 37.5098 74.99 38.6098 76.1 39.7998C76.24 39.9498 76.33 40.1398 76.36 40.3498C76.66 42.5598 76.59 44.2498 76.36 46.4398C76.33 46.7498 76.16 47.0198 75.9 47.1898C75.74 47.2898 75.55 47.3398 75.37 47.3398C75.26 47.3398 75.14 47.3198 75.03 47.2798C71.21 45.8998 68.71 45.0498 64.44 43.7498C64.54 44.8398 64.64 45.9298 64.73 47.0198C65.16 47.2198 65.54 47.4998 66 48.0298C66.13 48.1798 66.22 48.3798 66.24 48.5798C66.68 52.6598 66.92 55.9798 66.94 58.4598L68.62 61.0198C68.73 61.1798 68.78 61.3698 68.78 61.5698V63.5598C73.83 69.8198 78.33 75.5098 82.81 81.2598C82.84 81.1098 82.87 80.9598 82.9 80.8098C82.99 80.3398 83.4 79.9998 83.88 79.9998C84.36 79.9998 84.77 80.3398 84.86 80.8098C85.13 82.1698 85.32 83.4098 85.47 84.6898C89.65 90.0998 93.83 95.5998 99.54 103.21C99.65 101.21 99.88 99.2398 100.38 96.7298C100.47 96.2598 100.88 95.9198 101.36 95.9198C101.84 95.9198 102.25 96.2598 102.34 96.7298C103.21 101.15 103.27 104.02 103.28 108.19L107.69 114.09C107.95 112.17 108.42 110.31 108.9 109.51C109.08 109.21 109.4 109.03 109.75 109.03C110.1 109.03 110.42 109.21 110.6 109.51C111.33 110.69 112.01 114.25 112.01 116.82V134.38C112.01 134.93 111.56 135.38 111.01 135.38H108.48C107.93 135.38 107.48 134.93 107.48 134.38V131.49C92.59 132.83 84.14 133.44 70.16 133.5V136.95C70.16 137.21 70.06 137.46 69.87 137.65C69.02 138.51 68.32 139.03 67.37 139.49L67.17 144.25C67.07 146.02 66.6 151.76 64.56 151.76H58.57C58.41 157.13 58.21 160.55 57.38 162.02C57.2 162.34 56.87 162.53 56.51 162.53L56.5 162.54Z" fill="white"/>
<path d="M56.5 2.54027C58.8 5.58027 61.79 20.1003 61.79 26.4303C67.35 31.5203 70.27 34.9903 75.36 40.4803C75.65 42.6603 75.56 44.3303 75.36 46.3303C70.92 44.7303 68.32 43.8603 63.3 42.3503C63.47 44.1403 63.63 45.9303 63.78 47.7403C64.4 47.9103 64.72 48.0903 65.24 48.6803C65.68 52.7003 65.93 56.1703 65.93 58.7503L67.77 61.5603V63.9003C73.64 71.1803 78.63 77.5003 83.41 83.6803C83.53 82.8403 83.67 81.9703 83.86 81.0003C84.16 82.5203 84.35 83.8303 84.49 85.0803C89.71 91.8303 94.73 98.4903 100.43 106.09C100.47 103.01 100.63 100.52 101.34 96.9303C102.22 101.41 102.26 104.2 102.26 108.53C104.23 111.17 106.29 113.91 108.47 116.83C108.47 114.25 109.16 110.98 109.73 110.04C110.31 110.98 111 114.26 111 116.83V134.39H108.47V130.41C92.99 131.81 84.37 132.49 69.15 132.52V136.97C68.23 137.91 67.54 138.38 66.39 138.84C66.24 142.21 66.16 144.23 66.16 144.23C65.93 148.44 65.01 150.79 64.55 150.79H58.11C57.88 150.79 57.79 149.44 57.65 148.45C57.48 154.28 57.42 159.92 56.5 161.56C55.58 159.92 55.52 154.28 55.35 148.45C55.21 149.44 55.12 150.79 54.89 150.79H48.45C47.99 150.79 47.07 148.45 46.84 144.23C46.84 144.23 46.76 142.22 46.61 138.84C45.46 138.37 44.77 137.9 43.85 136.97V132.52C28.63 132.49 20.01 131.82 4.53 130.41V134.39H2V116.83C2 114.25 2.69 110.98 3.26 110.04C3.83 110.98 4.52 114.26 4.52 116.83C6.7 113.91 8.76 111.16 10.73 108.53C10.73 104.19 10.77 101.41 11.65 96.9303C12.36 100.52 12.52 103.02 12.56 106.09C18.26 98.4903 23.28 91.8403 28.5 85.0803C28.64 83.8303 28.83 82.5203 29.13 81.0003C29.32 81.9703 29.46 82.8403 29.58 83.6803C34.36 77.5103 39.35 71.1903 45.22 63.9003V61.5603L47.06 58.7503C47.06 56.1703 47.31 52.7003 47.75 48.6803C48.27 48.0903 48.59 47.9203 49.21 47.7403C49.36 45.9403 49.52 44.1403 49.69 42.3503C44.67 43.8603 42.07 44.7303 37.63 46.3303C37.43 44.3203 37.34 42.6603 37.63 40.4803C42.72 34.9903 45.64 31.5203 51.2 26.4303C51.2 20.1103 54.19 5.59027 56.49 2.54027M56.49 0.540273C55.86 0.540273 55.27 0.830273 54.89 1.33027C52.25 4.83027 49.46 18.9103 49.21 25.5303C45.16 29.2803 42.52 32.1803 39.21 35.7903C38.26 36.8303 37.26 37.9203 36.16 39.1103C35.88 39.4103 35.7 39.7903 35.64 40.2003C35.33 42.5103 35.4 44.2603 35.64 46.5203C35.7 47.1303 36.04 47.6803 36.56 48.0103C36.88 48.2103 37.25 48.3203 37.63 48.3203C37.86 48.3203 38.09 48.2803 38.31 48.2003C41.67 46.9903 44 46.1803 47.43 45.1203C47.39 45.5403 47.36 45.9603 47.32 46.3803C46.97 46.6103 46.62 46.9103 46.25 47.3403C45.98 47.6503 45.81 48.0303 45.77 48.4403C45.34 52.3903 45.11 55.6503 45.07 58.1203L43.55 60.4403C43.34 60.7703 43.22 61.1503 43.22 61.5403V63.1803C38.61 68.9103 34.45 74.1503 30.35 79.4003C30.01 79.1303 29.58 78.9803 29.12 78.9803C28.16 78.9803 27.34 79.6603 27.16 80.5903C26.91 81.8603 26.72 83.0703 26.57 84.2703C22.87 89.0703 19.04 94.1003 14.24 100.48C14.1 99.2603 13.9 97.9703 13.61 96.5103C13.43 95.5703 12.6 94.9003 11.65 94.9003C10.69 94.9003 9.87 95.5803 9.69 96.5103C8.83 100.9 8.74 103.77 8.73 107.83C7.81 109.06 6.86 110.32 5.9 111.61C5.65 110.51 5.33 109.55 4.96 108.96C4.6 108.37 3.95 108.01 3.26 108.01C2.57 108.01 1.92 108.37 1.56 108.96C0.64 110.46 0 114.29 0 116.8V134.36C0 135.46 0.9 136.36 2 136.36H4.53C5.63 136.36 6.53 135.46 6.53 134.36V132.57C20.43 133.82 28.76 134.4 41.85 134.48V136.94C41.85 137.46 42.06 137.97 42.42 138.34C43.18 139.11 43.86 139.65 44.66 140.1C44.77 142.74 44.84 144.28 44.84 144.28C45.15 149.91 46.36 152.75 48.45 152.75H53.47C53.63 157.84 53.87 160.93 54.75 162.5C55.1 163.13 55.77 163.52 56.49 163.52C57.21 163.52 57.88 163.13 58.23 162.5C59.11 160.93 59.35 157.84 59.51 152.75H64.53C66.62 152.75 67.83 149.91 68.14 144.3C68.14 144.28 68.21 142.73 68.32 140.09C69.12 139.64 69.8 139.1 70.56 138.33C70.93 137.96 71.13 137.45 71.13 136.93V134.47C84.22 134.39 92.55 133.81 106.45 132.56V134.35C106.45 135.45 107.35 136.35 108.45 136.35H110.98C112.08 136.35 112.98 135.45 112.98 134.35V116.79C112.98 114.29 112.34 110.45 111.42 108.95C111.06 108.36 110.41 108 109.72 108C109.02 108 108.38 108.36 108.02 108.95C107.66 109.54 107.34 110.5 107.08 111.6C106.11 110.31 105.17 109.05 104.25 107.82C104.25 103.77 104.16 100.89 103.29 96.5003C103.11 95.5603 102.28 94.8903 101.33 94.8903C100.38 94.8903 99.55 95.5703 99.37 96.5003C99.08 97.9703 98.88 99.2603 98.74 100.47C93.94 94.0903 90.11 89.0603 86.41 84.2603C86.26 83.0603 86.07 81.8503 85.82 80.5803C85.64 79.6403 84.81 78.9703 83.86 78.9703C83.4 78.9703 82.97 79.1303 82.63 79.3903C78.53 74.1303 74.38 68.8903 69.76 63.1703V61.5303C69.76 61.1403 69.65 60.7603 69.43 60.4303L67.91 58.1103C67.88 55.6303 67.64 52.3803 67.21 48.4303C67.17 48.0203 67 47.6403 66.73 47.3303C66.35 46.9003 66.01 46.5903 65.66 46.3703C65.62 45.9503 65.59 45.5303 65.55 45.1103C68.98 46.1803 71.31 46.9803 74.67 48.1903C74.89 48.2703 75.12 48.3103 75.35 48.3103C75.72 48.3103 76.09 48.2103 76.42 48.0003C76.94 47.6703 77.28 47.1203 77.34 46.5103C77.57 44.2503 77.64 42.4903 77.34 40.1903C77.29 39.7803 77.11 39.4003 76.82 39.1003C75.72 37.9103 74.71 36.8103 73.77 35.7803C70.47 32.1703 67.82 29.2803 63.77 25.5203C63.52 18.9103 60.74 4.82027 58.09 1.32027C57.71 0.820273 57.12 0.530273 56.49 0.530273V0.540273Z" fill="black"/>
</g>
<defs>
<clipPath id="clip0_824_143">
<rect width="113" height="163" fill="white" transform="translate(0 0.540039)"/>
</clipPath>
</defs>
</svg>
