<svg width="290" height="360" viewBox="0 0 290 360" fill="none" xmlns="http://www.w3.org/2000/svg">
<g clip-path="url(#clip0_531_12)">
<path d="M196.07 357.61C195.61 357.61 195.12 357.53 194.57 357.37C193.15 356.97 167.43 351.73 149.35 348.07L148.21 352.42C147.82 354.21 146.7 355.32 145.29 355.32C143.88 355.32 142.76 354.21 142.37 352.42L141.23 348.07C123.16 351.72 97.4404 356.96 96.0104 357.37C95.4704 357.53 94.9804 357.61 94.5204 357.61C93.5004 357.61 91.1304 357.19 91.1304 353.33C91.1304 343 97.2504 339.12 98.1004 338.64C111.92 329.91 133.66 316.01 138.43 312.6C135.48 302.1 132.84 290.13 130.55 276.98C128.68 275.75 127.45 274.94 126.63 274.41C125.79 275.16 124.87 275.28 124.4 275.28C123.11 275.28 122.02 274.57 121.27 273.86C120.34 274.01 119.42 274.08 118.52 274.08C117.08 274.08 115.91 273.89 115.07 273.68C114.54 274.15 113.83 274.55 112.98 274.55C112.2 274.55 110.78 274.22 110.07 271.97C110.05 271.9 110.03 271.82 110.01 271.75C108.82 265.55 109.89 261.47 110.39 260.03C109.91 255.44 107.43 231.2 108.17 226.3C109.03 220.65 111.86 220.04 113.03 220.04C113.13 220.04 113.22 220.04 113.3 220.05H123.12C123.55 220.05 123.97 220.11 124.35 220.22V199.83L95.9704 201.88C95.3604 208.28 94.8004 209.96 92.7404 209.96C90.6804 209.96 90.1104 208.05 89.5504 202.34L66.2404 204.02C65.7104 209.05 65.1804 210.87 63.1404 210.87C61.1004 210.87 60.6004 209.17 60.0804 204.47C32.4104 206.47 6.49043 208.33 6.02043 208.37C5.92043 208.37 5.83043 208.38 5.74043 208.38C4.91043 208.38 4.17043 208.08 3.64043 207.53C2.89043 206.76 2.86043 205.81 2.87043 205.54C2.87043 194.09 7.07043 190.12 10.5904 188.81C10.6604 188.78 10.8004 188.73 10.8804 188.71C18.4804 186.67 103.09 156.12 123.89 143.4C124.02 143.32 124.16 143.26 124.3 143.21C125.47 142.82 125.35 142.39 125.31 142.25C125.18 141.99 125.21 141.92 125.21 141.63C125.21 141 124.83 78.32 125.21 52.49C125.59 26.2 135.16 2.25 145.27 2.25C155.38 2.25 164.95 26.19 165.33 52.49C165.71 78.32 165.33 141 165.33 141.63C165.33 141.92 165.33 142.06 165.2 142.32C165.19 142.39 165.07 142.82 166.24 143.21C166.38 143.26 166.52 143.32 166.65 143.4C187.45 156.12 272.06 186.67 279.66 188.71C279.73 188.73 279.8 188.75 279.87 188.78C283.47 190.11 287.66 194.09 287.66 205.6C287.66 205.8 287.64 206.74 286.89 207.52C286.36 208.07 285.62 208.37 284.79 208.37C284.7 208.37 284.61 208.37 284.51 208.36C284.04 208.32 258.12 206.46 230.44 204.46C229.92 209.16 229.38 210.86 227.38 210.86C225.38 210.86 224.8 209.05 224.28 204.01L200.97 202.33C200.41 208.04 199.88 209.95 197.78 209.95C195.68 209.95 195.16 208.28 194.55 201.87L166.17 199.82V220.21C166.56 220.09 166.97 220.04 167.4 220.04H177.22C177.3 220.04 177.39 220.03 177.49 220.03C178.67 220.03 181.5 220.64 182.35 226.29C183.09 231.2 180.61 255.44 180.13 260.02C180.63 261.46 181.7 265.54 180.51 271.74C180.5 271.82 180.48 271.89 180.45 271.96C179.74 274.21 178.33 274.54 177.54 274.54C176.68 274.54 175.98 274.14 175.45 273.67C174.61 273.88 173.44 274.07 172 274.07C171.1 274.07 170.18 274 169.25 273.85C168.5 274.56 167.41 275.27 166.12 275.27C165.65 275.27 164.74 275.16 163.89 274.4C163.07 274.93 161.84 275.74 159.97 276.97C157.69 290.12 155.04 302.09 152.09 312.59C156.86 316 178.6 329.89 192.42 338.63C193.27 339.12 199.39 342.99 199.39 353.32C199.39 357.18 197.02 357.6 196 357.6L196.07 357.61Z" fill="white"/>
<path d="M145.291 4.25C153.641 4.25 162.971 26.57 163.351 52.52C163.731 78.62 163.351 141.62 163.351 141.62C163.351 141.62 162.441 144.05 165.631 145.11C186.731 158.01 270.931 188.43 279.161 190.65C279.981 190.97 285.691 192.59 285.691 205.61C285.691 205.61 285.721 206.37 284.821 206.37C284.781 206.37 284.741 206.37 284.691 206.37C284.201 206.33 257.071 204.38 228.681 202.33C228.261 206.69 227.841 208.87 227.421 208.87C227.001 208.87 226.571 206.63 226.141 202.15C216.921 201.49 207.661 200.82 199.201 200.21C198.741 205.38 198.281 207.96 197.821 207.96C197.361 207.96 196.891 205.31 196.431 200.01C178.091 198.69 164.211 197.69 164.211 197.69V227.55L164.791 227.44C164.791 227.44 164.331 222.05 167.451 222.05H177.391C177.391 222.05 177.441 222.04 177.541 222.04C178.061 222.04 179.791 222.37 180.431 226.6C181.191 231.61 178.151 260.3 178.151 260.3C178.151 260.3 179.971 264.25 178.611 271.38C178.331 272.27 177.971 272.56 177.611 272.56C176.891 272.56 176.181 271.38 176.181 271.38C176.181 271.38 174.671 272.09 172.061 272.09C171.051 272.09 169.871 271.98 168.551 271.69C168.271 272.16 167.211 273.29 166.181 273.29C165.561 273.29 164.951 272.88 164.531 271.69C164.021 271.97 160.161 274.52 158.211 275.81C156.131 287.96 153.401 301.05 149.871 313.36C151.241 314.95 191.461 340.38 191.461 340.38C191.461 340.38 197.461 343.57 197.461 353.36C197.461 354.82 197.121 355.64 196.071 355.64C195.811 355.64 195.501 355.59 195.141 355.48C193.361 354.95 147.901 345.77 147.901 345.77L146.271 351.99C146.271 351.99 145.991 353.36 145.291 353.36C144.591 353.36 144.311 351.99 144.311 351.99L142.681 345.77C142.681 345.77 97.2206 354.95 95.4406 355.48C95.0806 355.59 94.7806 355.64 94.5106 355.64C93.4606 355.64 93.1206 354.81 93.1206 353.36C93.1206 343.57 99.1206 340.38 99.1206 340.38C99.1206 340.38 139.341 314.96 140.711 313.36C137.181 301.06 134.461 287.96 132.371 275.81C130.421 274.52 126.561 271.98 126.051 271.69C125.621 272.89 125.011 273.29 124.401 273.29C123.371 273.29 122.321 272.16 122.031 271.69C120.711 271.99 119.541 272.09 118.521 272.09C115.921 272.09 114.401 271.38 114.401 271.38C114.401 271.38 113.691 272.56 112.971 272.56C112.611 272.56 112.251 272.26 111.971 271.38C110.601 264.25 112.431 260.3 112.431 260.3C112.431 260.3 109.391 231.61 110.151 226.6C110.791 222.36 112.521 222.04 113.041 222.04C113.131 222.04 113.191 222.05 113.191 222.05H123.131C126.241 222.05 125.791 227.44 125.791 227.44L126.371 227.55V197.69C126.371 197.69 112.491 198.69 94.1506 200.01C93.6906 205.31 93.2206 207.96 92.7606 207.96C92.3006 207.96 91.8406 205.38 91.3806 200.21C82.9206 200.82 73.6506 201.49 64.4406 202.15C64.0106 206.63 63.5906 208.87 63.1606 208.87C62.7306 208.87 62.3206 206.69 61.9006 202.33C33.5106 204.38 6.38062 206.33 5.89062 206.37C5.85063 206.37 5.80062 206.37 5.76062 206.37C4.87063 206.37 4.89062 205.61 4.89062 205.61C4.89062 192.59 10.5906 190.97 11.4206 190.65C19.6506 188.44 103.861 158.02 124.951 145.11C128.141 144.05 127.231 141.62 127.231 141.62C127.231 141.62 126.851 78.63 127.231 52.52C127.611 26.57 136.941 4.25 145.291 4.25ZM145.291 0.25C132.551 0.25 123.601 27.25 123.231 52.46C122.861 77.71 123.211 138.12 123.231 141.5C123.111 141.56 122.981 141.62 122.871 141.7C102.191 154.35 17.9606 184.75 10.3906 186.78C10.2506 186.82 10.1006 186.87 9.97062 186.92H9.93062C6.55062 188.18 0.890625 192.26 0.890625 205.6C0.890625 206.27 1.04063 207.7 2.22063 208.91C3.13063 209.85 4.38062 210.37 5.76062 210.37C5.90062 210.37 6.04063 210.37 6.18062 210.35C6.67062 210.31 35.1406 208.26 58.3606 206.59C58.4406 207.11 58.5106 207.58 58.5906 207.99C59.2206 211.23 60.7506 212.87 63.1506 212.87C65.5506 212.87 67.1006 211.21 67.7206 207.94C67.8306 207.37 67.9306 206.69 68.0406 205.9L84.8806 204.69L87.8006 204.48C87.9106 205.35 88.0206 206.1 88.1306 206.72C88.3606 208.02 89.0606 211.96 92.7606 211.96C96.4606 211.96 97.1706 207.97 97.4006 206.66C97.5406 205.88 97.6706 204.91 97.8006 203.75L122.371 201.98V218.04H113.381C113.271 218.04 113.161 218.03 113.041 218.03C111.721 218.03 107.321 218.6 106.201 226C105.451 230.98 107.691 253.36 108.361 259.81C107.751 261.77 106.881 266.02 108.051 272.13C108.081 272.28 108.121 272.43 108.161 272.58C109.321 276.27 112.141 276.56 112.981 276.56C113.981 276.56 114.831 276.26 115.531 275.83C116.371 275.98 117.371 276.09 118.521 276.09C119.231 276.09 119.951 276.05 120.671 275.97C121.671 276.71 122.941 277.29 124.391 277.29C124.801 277.29 125.661 277.23 126.601 276.8C127.191 277.19 127.891 277.65 128.721 278.19C130.881 290.51 133.361 301.79 136.111 311.79C129.791 316.12 109.831 328.87 97.0106 336.97C95.6706 337.78 89.1206 342.3 89.1206 353.35C89.1206 359.46 93.9606 359.63 94.5106 359.63C95.1606 359.63 95.8206 359.53 96.5406 359.32C98.3606 358.84 122.121 354 139.761 350.43L140.411 352.92C141.021 355.62 142.921 357.35 145.281 357.35C147.641 357.35 149.541 355.61 150.151 352.92L150.801 350.43C168.451 354 192.201 358.84 194.021 359.32C194.741 359.53 195.401 359.63 196.051 359.63C196.601 359.63 201.441 359.45 201.441 353.35C201.441 342.3 194.901 337.78 193.551 336.97C180.721 328.86 160.771 316.12 154.451 311.79C157.201 301.79 159.681 290.51 161.841 278.19C162.661 277.65 163.371 277.19 163.961 276.8C164.901 277.23 165.761 277.29 166.171 277.29C167.631 277.29 168.901 276.71 169.891 275.97C170.611 276.05 171.331 276.09 172.041 276.09C173.191 276.09 174.201 275.98 175.031 275.83C175.731 276.26 176.581 276.56 177.581 276.56C178.421 276.56 181.241 276.27 182.401 272.58C182.451 272.43 182.481 272.28 182.511 272.13C183.681 266.02 182.811 261.78 182.201 259.81C182.871 253.36 185.111 230.98 184.361 226C183.241 218.61 178.841 218.04 177.521 218.03C177.411 218.03 177.291 218.03 177.181 218.04H168.191V201.98L192.761 203.75C192.891 204.91 193.031 205.87 193.161 206.66C193.391 207.97 194.091 211.96 197.801 211.96C201.511 211.96 202.201 208.02 202.431 206.72C202.541 206.09 202.651 205.35 202.761 204.48L205.681 204.69L222.521 205.9C222.621 206.69 222.731 207.37 222.841 207.94C223.461 211.21 225.001 212.87 227.411 212.87C229.821 212.87 231.341 211.23 231.971 207.99C232.051 207.58 232.131 207.12 232.201 206.59C266.921 209.09 284.001 210.33 284.381 210.35C284.531 210.36 284.671 210.37 284.801 210.37C286.171 210.37 287.431 209.85 288.341 208.91C289.521 207.69 289.671 206.26 289.671 205.59C289.671 192.26 284.011 188.18 280.641 186.93L280.591 186.91C280.461 186.86 280.311 186.81 280.181 186.78C272.611 184.75 188.381 154.34 167.701 141.7C167.581 141.63 167.461 141.56 167.341 141.5C167.361 138.12 167.711 77.71 167.341 52.46C166.971 27.25 158.021 0.25 145.281 0.25L145.291 0.25Z" fill="#231F20"/>
</g>
<defs>
<clipPath id="clip0_531_12">
<rect width="288.8" height="359.36" fill="white" transform="translate(0.890625 0.25)"/>
</clipPath>
</defs>
</svg>
