<svg width="92" height="137" viewBox="0 0 92 137" fill="none" xmlns="http://www.w3.org/2000/svg">
<g clip-path="url(#clip0_121_12)">
<path d="M45.97 115.705H46.79C46.85 115.705 46.9 115.745 46.91 115.805L47.4 119.665C47.41 119.745 47.44 119.825 47.48 119.895L56.44 134.115C56.51 134.225 56.68 134.175 56.68 134.045V123.115C56.68 123.115 56.68 123.085 56.68 123.075L52.34 109.285C52.3 109.165 52.33 109.025 52.41 108.935L61.26 98.8549C61.44 98.6549 61.57 98.4149 61.65 98.1649L63 93.7849C63.04 93.6549 63.2 93.6249 63.29 93.7249L85.15 118.735C85.26 118.865 85.47 118.865 85.58 118.735L89.66 114.295C89.71 114.245 89.74 114.175 89.74 114.095V108.435C89.74 108.435 89.74 108.355 89.72 108.325L46.39 3.09488C46.24 2.72488 45.71 2.72488 45.56 3.09488L2.22996 108.335C2.22996 108.335 2.20996 108.405 2.20996 108.445V114.105C2.20996 114.175 2.23996 114.245 2.28996 114.305L6.36996 118.745C6.48996 118.875 6.68996 118.875 6.79996 118.745L28.66 93.7349C28.75 93.6349 28.91 93.6649 28.95 93.7949L30.3 98.1749C30.38 98.4349 30.51 98.6649 30.69 98.8649L39.54 108.945C39.62 109.045 39.65 109.175 39.61 109.295L35.27 123.085C35.27 123.085 35.27 123.115 35.27 123.125V134.055C35.27 134.185 35.44 134.235 35.51 134.125L44.47 119.905C44.51 119.835 44.54 119.755 44.55 119.675L45.04 115.815C45.04 115.755 45.1 115.715 45.16 115.715H45.98L45.97 115.705Z" fill="white"/>
<path d="M45.97 2.81494C46.14 2.81494 46.31 2.90494 46.38 3.09494L89.71 108.335C89.71 108.335 89.73 108.405 89.73 108.445V114.105C89.73 114.175 89.7 114.245 89.65 114.305L85.57 118.745C85.51 118.805 85.43 118.835 85.36 118.835C85.29 118.835 85.2 118.805 85.14 118.735L63.28 93.7249C63.28 93.7249 63.2 93.6649 63.15 93.6649C63.08 93.6649 63.01 93.7049 62.99 93.7849L61.64 98.1649C61.56 98.4249 61.43 98.6549 61.25 98.8549L52.4 108.935C52.32 109.035 52.29 109.165 52.33 109.285L56.67 123.075C56.67 123.075 56.67 123.105 56.67 123.115V134.045C56.67 134.125 56.6 134.175 56.54 134.175C56.5 134.175 56.46 134.155 56.43 134.115L47.47 119.895C47.43 119.825 47.4 119.745 47.39 119.665L46.9 115.805C46.9 115.745 46.84 115.705 46.78 115.705H45.14C45.08 115.705 45.03 115.745 45.02 115.805L44.53 119.665C44.52 119.745 44.49 119.825 44.45 119.895L35.49 134.115C35.49 134.115 35.42 134.175 35.38 134.175C35.31 134.175 35.25 134.125 35.25 134.045V123.115C35.25 123.115 35.25 123.085 35.25 123.075L39.59 109.285C39.63 109.165 39.6 109.025 39.52 108.935L30.67 98.8549C30.49 98.6549 30.36 98.4149 30.28 98.1649L28.93 93.7849C28.91 93.7049 28.84 93.6649 28.77 93.6649C28.72 93.6649 28.68 93.6849 28.64 93.7249L6.77996 118.735C6.71996 118.805 6.63996 118.835 6.55996 118.835C6.47996 118.835 6.39996 118.805 6.34996 118.745L2.26996 114.305C2.21996 114.255 2.18996 114.185 2.18996 114.105V108.445C2.18996 108.445 2.18996 108.365 2.20996 108.335L45.56 3.09494C45.64 2.91494 45.8 2.81494 45.97 2.81494ZM45.97 0.814941C44.97 0.814941 44.09 1.40494 43.71 2.33494L0.379961 107.565C0.269961 107.845 0.209961 108.135 0.209961 108.435V114.095C0.209961 114.675 0.419961 115.225 0.809961 115.645L4.88996 120.085C5.31996 120.555 5.93996 120.825 6.57996 120.825C7.21996 120.825 7.86996 120.535 8.30996 120.045L28 97.5149L28.38 98.7549C28.54 99.2849 28.81 99.7649 29.18 100.175L37.42 109.565L33.36 122.475C33.3 122.665 33.26 122.915 33.26 123.115V134.045C33.26 135.225 34.22 136.175 35.39 136.175C36.13 136.175 36.8 135.805 37.19 135.175L45.97 121.235L54.75 135.175C55.14 135.795 55.82 136.175 56.55 136.175C57.73 136.175 58.68 135.215 58.68 134.045V123.115C58.68 122.915 58.64 122.665 58.58 122.475L54.52 109.565L62.76 100.185C63.13 99.7649 63.39 99.2949 63.56 98.7649L63.94 97.5249L83.64 120.055C84.08 120.555 84.7 120.835 85.36 120.835C86.02 120.835 86.61 120.565 87.05 120.095L91.13 115.655C91.52 115.235 91.73 114.685 91.73 114.105V108.445C91.73 108.145 91.67 107.855 91.56 107.575L48.24 2.33494C47.86 1.41494 46.97 0.814941 45.98 0.814941H45.97Z" fill="black"/>
</g>
<defs>
<clipPath id="clip0_121_12">
<rect width="91.53" height="135.37" fill="white" transform="translate(0.209961 0.814941)"/>
</clipPath>
</defs>
</svg>
