<svg width="199" height="191" viewBox="0 0 199 191" fill="none" xmlns="http://www.w3.org/2000/svg">
<g clip-path="url(#clip0_80_24)">
<path d="M99.67 188.625H97.76L97.7 187.965L92.66 188.135C92.63 186.895 92.36 185.645 91.66 184.365C91.66 184.365 90.2 180.695 89.7 178.585C88.67 180.705 87.88 182.235 87.88 182.235L81.08 182.315L79.17 176.635L77.88 180.605C77.63 181.155 77.14 182.965 76.58 183.185C75.23 183.715 66.84 186.365 57.83 187.765C56.2 187.965 55.04 188.035 54.23 188.025C53.18 188.025 52.18 187.615 51.46 186.855C49.78 185.085 47.78 182.255 47.34 180.115C47.17 179.315 47.4 178.485 47.94 177.865L75.76 146.085L75.51 135.645L74.82 136.245C74.28 136.715 73.61 136.985 72.9 137.025L3.32 141.125C2.78 141.155 2.5 140.555 2.5 140.125C2.5 137.525 4.87 131.365 5.62 129.045C6 127.885 6.89 126.975 8.03 126.565L65.21 106.005L80.99 68.885C81.13 68.535 81.23 68.165 81.27 67.785L82.02 61.625C82.04 61.455 82.19 61.325 82.36 61.325H89.62C89.9 61.325 90.12 61.545 90.12 61.825V65.765C90.12 65.915 90.24 66.035 90.39 66.035H90.66C90.83 66.035 90.98 65.905 90.99 65.725C91.1 63.815 91.56 47.035 91.66 33.475C91.81 11.355 98.39 3.785 99.66 2.375C100.93 3.785 107.51 11.355 107.66 33.475C107.75 47.035 108.22 63.815 108.33 65.725C108.33 65.895 108.48 66.035 108.66 66.035H108.93C109.08 66.035 109.2 65.915 109.2 65.765V61.825C109.2 61.545 109.42 61.325 109.7 61.325H116.96C117.13 61.325 117.28 61.455 117.3 61.625L118.05 67.785C118.1 68.165 118.19 68.535 118.33 68.885L134.11 106.005L191.29 126.565C192.44 126.975 193.33 127.885 193.7 129.045C194.45 131.355 196.82 137.525 196.82 140.125C196.82 140.555 196.55 141.155 196 141.125L126.44 137.055C125.73 137.015 125.06 136.735 124.52 136.275L123.83 135.675L123.58 146.115L151.4 177.895C151.94 178.515 152.16 179.345 152 180.145C151.55 182.285 149.56 185.115 147.88 186.885C147.16 187.645 146.16 188.055 145.11 188.055C144.3 188.055 143.14 187.995 141.51 187.795C132.49 186.405 124.11 183.745 122.76 183.215C122.2 182.995 121.71 181.175 121.46 180.635L120.17 176.665L118.26 182.345L111.46 182.265C111.46 182.265 110.66 180.735 109.64 178.615C109.14 180.715 107.68 184.395 107.68 184.395C106.99 185.675 106.71 186.935 106.68 188.165L101.64 187.995L101.58 188.655H99.67V188.625Z" fill="white"/>
<path d="M99.67 2.375C100.94 3.785 107.52 11.355 107.67 33.475C107.76 47.035 108.23 63.815 108.34 65.725C108.34 65.895 108.49 66.035 108.67 66.035H108.94C109.09 66.035 109.21 65.915 109.21 65.765V61.825C109.21 61.545 109.43 61.325 109.71 61.325H116.97C117.14 61.325 117.29 61.455 117.31 61.625L118.06 67.785C118.11 68.165 118.2 68.535 118.34 68.885L134.12 106.005L191.3 126.565C192.45 126.975 193.34 127.885 193.71 129.045C194.46 131.355 196.83 137.525 196.83 140.125C196.83 140.545 196.57 141.125 196.05 141.125C196.04 141.125 196.02 141.125 196.01 141.125L126.45 137.055C125.74 137.015 125.07 136.735 124.53 136.275L123.84 135.675L123.59 146.115L151.41 177.895C151.95 178.515 152.17 179.345 152.01 180.145C151.56 182.285 149.57 185.115 147.89 186.885C147.17 187.645 146.17 188.055 145.12 188.055H145.11C144.3 188.055 143.15 187.995 141.52 187.795C132.5 186.405 124.12 183.745 122.77 183.215C122.21 182.995 121.72 181.175 121.47 180.635L120.18 176.665L118.27 182.345L111.47 182.265C111.47 182.265 110.67 180.735 109.65 178.615C109.15 180.715 107.69 184.395 107.69 184.395C107 185.675 106.72 186.935 106.69 188.165L101.65 187.995L101.59 188.655H97.77L97.71 187.995L92.67 188.165C92.64 186.925 92.37 185.675 91.67 184.395C91.67 184.395 90.21 180.725 89.71 178.615C88.68 180.735 87.89 182.265 87.89 182.265L81.09 182.345L79.18 176.665L77.89 180.635C77.64 181.185 77.15 182.995 76.59 183.215C75.24 183.745 66.85 186.395 57.84 187.795C56.21 187.995 55.06 188.055 54.25 188.055H54.24C53.19 188.055 52.19 187.645 51.47 186.885C49.79 185.115 47.79 182.285 47.35 180.145C47.18 179.345 47.41 178.515 47.95 177.895L75.77 146.115L75.52 135.675L74.83 136.275C74.29 136.745 73.62 137.015 72.91 137.055L3.35 141.125C3.35 141.125 3.32 141.125 3.31 141.125C2.79 141.125 2.53 140.545 2.53 140.125C2.53 137.525 4.9 131.365 5.65 129.045C6.03 127.885 6.92 126.975 8.06 126.565L65.24 106.005L81.02 68.885C81.16 68.535 81.26 68.165 81.3 67.785L82.05 61.625C82.07 61.455 82.22 61.325 82.39 61.325H89.65C89.93 61.325 90.15 61.545 90.15 61.825V65.765C90.15 65.915 90.27 66.035 90.42 66.035H90.69C90.86 66.035 91.01 65.905 91.02 65.725C91.13 63.815 91.59 47.035 91.69 33.475C91.84 11.355 98.42 3.785 99.69 2.375M99.67 0.375C99.1 0.375 98.56 0.615 98.18 1.035C95.67 3.825 89.81 12.575 89.66 33.465C89.6 42.625 89.37 52.875 89.2 59.325H82.37C81.19 59.325 80.19 60.205 80.05 61.385L79.3 67.545C79.27 67.755 79.22 67.955 79.15 68.145L63.73 104.415L7.36 124.685C5.62 125.315 4.29 126.675 3.72 128.435C3.58 128.875 3.37 129.455 3.14 130.135C1.75 134.125 0.5 137.885 0.5 140.135C0.5 141.575 1.56 143.135 3.28 143.135C3.32 143.135 3.4 143.135 3.44 143.135L73 139.065C73.19 139.055 73.38 139.035 73.57 138.995L73.72 145.385L46.41 176.575C45.46 177.655 45.07 179.145 45.36 180.545C45.92 183.225 48.2 186.375 49.99 188.255C51.07 189.395 52.61 190.045 54.21 190.045C55.27 190.045 56.56 189.955 58.06 189.765C58.08 189.765 58.1 189.765 58.12 189.765C67.14 188.375 75.68 185.705 77.3 185.075C78.24 184.705 78.76 183.835 79.15 182.895L79.18 182.985C79.45 183.795 80.22 184.345 81.08 184.345H81.1L87.9 184.265C88.41 184.265 88.9 184.055 89.26 183.705C89.56 184.505 89.78 185.065 89.8 185.125C89.83 185.195 89.86 185.265 89.9 185.335C90.39 186.245 90.63 187.155 90.65 188.195C90.66 188.725 90.89 189.235 91.28 189.605C91.65 189.955 92.14 190.155 92.65 190.155C92.67 190.155 92.7 190.155 92.72 190.155L96.31 190.035C96.68 190.415 97.19 190.655 97.75 190.655H101.57C102.13 190.655 102.65 190.425 103.01 190.035L106.6 190.155C106.6 190.155 106.65 190.155 106.67 190.155C107.18 190.155 107.67 189.955 108.04 189.605C108.43 189.235 108.65 188.725 108.67 188.195C108.69 187.155 108.93 186.245 109.42 185.335C109.46 185.265 109.49 185.195 109.52 185.125C109.54 185.065 109.77 184.505 110.06 183.705C110.42 184.055 110.9 184.255 111.42 184.265L118.22 184.345H118.24C119.1 184.345 119.86 183.795 120.14 182.985L120.17 182.895C120.56 183.835 121.08 184.705 122.02 185.075C123.63 185.705 132.18 188.375 141.2 189.765C141.22 189.765 141.24 189.765 141.26 189.765C142.76 189.955 144.05 190.045 145.09 190.045C146.7 190.045 148.24 189.385 149.33 188.255C151.12 186.375 153.4 183.225 153.96 180.545C154.25 179.145 153.86 177.655 152.91 176.575L125.6 145.385L125.75 138.995C125.94 139.025 126.13 139.045 126.32 139.065L195.88 143.135C195.88 143.135 196 143.135 196.04 143.135C197.75 143.135 198.82 141.575 198.82 140.135C198.82 137.895 197.57 134.125 196.18 130.135C195.95 129.465 195.74 128.875 195.6 128.435C195.03 126.685 193.7 125.315 191.96 124.695L135.6 104.425L120.16 68.105C120.1 67.955 120.05 67.755 120.02 67.545L119.27 61.385C119.13 60.215 118.13 59.325 116.95 59.325H110.12C109.95 52.875 109.72 42.625 109.66 33.465C109.51 12.575 103.66 3.825 101.14 1.035C100.76 0.615 100.22 0.375 99.65 0.375L99.67 0.375Z" fill="black"/>
</g>
<defs>
<clipPath id="clip0_80_24">
<rect width="198.34" height="190.25" fill="white" transform="translate(0.5 0.375)"/>
</clipPath>
</defs>
</svg>
