<svg width="136" height="199" viewBox="0 0 136 199" fill="none" xmlns="http://www.w3.org/2000/svg">
<g clip-path="url(#clip0_80_27)">
<path d="M74.66 39.0449C74.66 21.1549 70.3 7.55486 68.7101 3.19486C68.5201 2.66486 67.7601 2.66486 67.5701 3.19486C65.9801 7.55486 61.62 21.1549 61.62 39.0449V57.1549C61.62 57.3949 61.42 57.5949 61.18 57.5949H54.71C54.71 57.5949 52.52 56.7149 52.52 63.8949V72.7749C52.52 73.2449 52.41 73.7049 52.21 74.1249C51.21 76.1849 48.15 83.4849 48.06 96.0449C48.06 96.4149 47.91 96.7649 47.65 97.0249L4.75005 139.925C3.24005 141.435 2.52005 143.615 2.97005 145.705C3.23005 146.935 3.78005 148.375 4.83005 149.935C6.64005 152.615 8.02005 154.755 8.88005 156.095C9.48005 157.035 10.57 157.515 11.67 157.335L28.05 154.635C28.68 154.535 29.31 154.485 29.94 154.485H47.47C47.7 154.485 47.9 154.665 47.91 154.905L48.33 162.875C48.35 163.185 48.25 163.495 48.07 163.745L43.39 170.135C43.14 170.475 42.61 170.305 42.6 169.885L42.57 168.715C42.55 168.175 41.89 167.945 41.54 168.355L27.48 184.815C27.48 184.815 24.46 188.185 28.28 192.495C28.29 192.505 28.31 192.525 28.32 192.545C29.36 194.165 29.82 194.965 29.82 194.965C29.82 194.965 30.6 197.065 35.52 195.785C39.44 194.765 47.14 192.775 50.09 192.015C50.84 191.825 51.46 191.275 51.75 190.555L56.42 178.865V180.665C56.42 181.155 56.82 181.545 57.3 181.545H66.9901C67.48 181.545 67.87 181.145 67.87 180.665V180.465H68.44V180.665C68.44 181.155 68.84 181.545 69.3201 181.545H79.01C79.5 181.545 79.8901 181.145 79.8901 180.665V178.865L84.5601 190.555C84.8501 191.275 85.46 191.815 86.22 192.015C89.18 192.775 96.87 194.765 100.79 195.785C105.71 197.065 106.49 194.965 106.49 194.965C106.49 194.965 106.95 194.155 107.99 192.545C108 192.525 108.01 192.515 108.03 192.495C111.85 188.185 108.83 184.815 108.83 184.815L94.7701 168.355C94.4201 167.945 93.7501 168.185 93.7401 168.715L93.7101 169.885C93.7001 170.305 93.16 170.465 92.9201 170.135L88.2401 163.745C88.0601 163.495 87.9601 163.185 87.98 162.875L88.4 154.905C88.41 154.675 88.6001 154.485 88.84 154.485H106.37C107 154.485 107.64 154.535 108.26 154.635L124.92 157.375C125.84 157.525 126.77 157.115 127.27 156.325C128.1 155.015 129.55 152.775 131.47 149.925C132.52 148.365 133.07 146.925 133.33 145.695C133.78 143.605 133.06 141.425 131.55 139.915L88.65 97.0149C88.39 96.7549 88.2501 96.4049 88.2401 96.0349C88.1501 83.4849 85.1001 76.1749 84.09 74.1149C83.8801 73.6949 83.7801 73.2349 83.7801 72.7549V63.8749C83.7801 56.6949 81.59 57.5749 81.59 57.5749H75.12C74.8801 57.5749 74.68 57.3749 74.68 57.1349V39.0249L74.66 39.0449Z" fill="white"/>
<path d="M68.1397 2.79492C68.3797 2.79492 68.6097 2.92492 68.7097 3.19492C70.2997 7.55492 74.6597 21.1549 74.6597 39.0449V57.1549C74.6597 57.3949 74.8597 57.5949 75.0997 57.5949H81.5697C81.5697 57.5949 81.6497 57.5649 81.7897 57.5649C82.3397 57.5649 83.7597 58.1349 83.7597 63.8949V72.7749C83.7597 73.2449 83.8697 73.7049 84.0697 74.1349C85.0697 76.1949 88.1297 83.5049 88.2197 96.0549C88.2197 96.4249 88.3697 96.7749 88.6297 97.0349L131.53 139.935C133.04 141.445 133.76 143.625 133.31 145.715C133.05 146.945 132.5 148.385 131.45 149.945C129.53 152.795 128.09 155.025 127.25 156.345C126.82 157.025 126.07 157.425 125.28 157.425C125.15 157.425 125.03 157.415 124.9 157.395L108.24 154.655C107.61 154.555 106.98 154.505 106.35 154.505H88.8197C88.5897 154.505 88.3897 154.685 88.3797 154.925L87.9597 162.895C87.9397 163.205 88.0397 163.515 88.2197 163.765L92.8997 170.155C92.9897 170.275 93.1197 170.335 93.2497 170.335C93.4697 170.335 93.6797 170.175 93.6897 169.905L93.7197 168.735C93.7297 168.385 94.0197 168.165 94.3097 168.165C94.4697 168.165 94.6297 168.225 94.7497 168.375L108.81 184.835C108.81 184.835 111.83 188.205 108.01 192.515C108 192.525 107.98 192.545 107.97 192.565C106.93 194.185 106.47 194.985 106.47 194.985C106.47 194.985 106.01 196.215 103.59 196.215C102.85 196.215 101.92 196.095 100.77 195.795C96.8497 194.775 89.1497 192.785 86.1997 192.025C85.4497 191.835 84.8297 191.285 84.5397 190.565L79.8697 178.875V180.675C79.8697 181.165 79.4697 181.555 78.9897 181.555H69.2997C68.8097 181.555 68.4197 181.155 68.4197 180.675V180.475H67.8497V180.675C67.8497 181.165 67.4497 181.555 66.9697 181.555H57.2797C56.7897 181.555 56.3997 181.155 56.3997 180.675V178.875L51.7297 190.565C51.4397 191.285 50.8297 191.825 50.0697 192.025C47.1097 192.785 39.4197 194.775 35.4997 195.795C34.3497 196.095 33.4197 196.215 32.6797 196.215C30.2597 196.215 29.7997 194.985 29.7997 194.985C29.7997 194.985 29.3397 194.175 28.2997 192.565C28.2897 192.545 28.2797 192.535 28.2597 192.515C24.4397 188.205 27.4597 184.835 27.4597 184.835L41.5197 168.375C41.6397 168.235 41.7997 168.165 41.9597 168.165C42.2597 168.165 42.5397 168.385 42.5497 168.735L42.5797 169.905C42.5797 170.165 42.7997 170.335 43.0197 170.335C43.1497 170.335 43.2797 170.275 43.3697 170.155L48.0497 163.765C48.2297 163.515 48.3297 163.205 48.3097 162.895L47.8897 154.925C47.8797 154.695 47.6897 154.505 47.4497 154.505H29.9197C29.2897 154.505 28.6497 154.555 28.0297 154.655L11.6497 157.355C11.4997 157.375 11.3497 157.395 11.1997 157.395C10.2597 157.395 9.37967 156.925 8.85966 156.115C8.00967 154.775 6.61966 152.635 4.80966 149.955C3.75966 148.395 3.20966 146.955 2.94966 145.725C2.49966 143.635 3.21966 141.455 4.72966 139.945L47.6297 97.0449C47.8897 96.7849 48.0297 96.4349 48.0397 96.0649C48.1297 83.5049 51.1897 76.2049 52.1897 74.1449C52.3997 73.7249 52.4997 73.2649 52.4997 72.7949V63.9149C52.4997 58.1449 53.9097 57.5849 54.4697 57.5849C54.6097 57.5849 54.6897 57.6149 54.6897 57.6149H61.1597C61.3997 57.6149 61.5997 57.4149 61.5997 57.1749V39.0649C61.5997 21.1749 65.9597 7.57492 67.5497 3.21492C67.6497 2.94492 67.8797 2.81492 68.1197 2.81492M68.1397 0.794922C67.0297 0.794922 66.0697 1.46492 65.6897 2.50492C63.8597 7.51492 59.6197 21.1049 59.6197 39.0449V55.5949H54.9197C54.7897 55.5749 54.6497 55.5649 54.4897 55.5649C53.8997 55.5649 52.4397 55.7749 51.4997 57.6849C50.8397 59.0349 50.5197 61.0649 50.5197 63.8949V72.7749C50.5197 72.9349 50.4797 73.1049 50.4097 73.2549C49.4197 75.2949 46.1997 82.9149 46.0597 95.7949L3.33966 138.515C1.29966 140.555 0.429665 143.395 1.01966 146.125C1.37966 147.805 2.10966 149.465 3.17966 151.055C4.97966 153.725 6.35966 155.855 7.19966 157.165C8.07966 158.545 9.57966 159.375 11.2197 159.375C11.4797 159.375 11.7397 159.355 11.9997 159.315L28.3797 156.615C28.8997 156.525 29.4197 156.485 29.9497 156.485H45.9997L46.3297 162.745L43.4897 166.625C43.0697 166.325 42.5497 166.145 41.9797 166.145C41.2297 166.145 40.5097 166.475 40.0197 167.055L25.9597 183.515C24.5397 185.095 22.8497 189.295 26.6997 193.725C27.5897 195.105 28.0197 195.855 28.0797 195.955C28.4497 196.635 29.6297 198.205 32.6997 198.205C33.6797 198.205 34.7997 198.045 36.0197 197.725C39.9397 196.705 47.6297 194.715 50.5897 193.955C51.9497 193.605 53.0797 192.615 53.5997 191.305L56.7197 183.505C56.9097 183.545 57.0997 183.565 57.2997 183.565H66.9897C67.4097 183.565 67.7997 183.475 68.1597 183.315C68.5197 183.475 68.9097 183.565 69.3297 183.565H79.0197C79.2197 183.565 79.4097 183.545 79.5997 183.505L82.7197 191.305C83.2397 192.615 84.3697 193.605 85.7297 193.955C88.6897 194.715 96.3797 196.705 100.3 197.725C101.52 198.045 102.64 198.205 103.62 198.205C106.7 198.205 107.88 196.635 108.25 195.955C108.3 195.865 108.74 195.115 109.63 193.725C113.48 189.295 111.78 185.095 110.33 183.485L96.2997 167.065C95.8097 166.485 95.0897 166.155 94.3397 166.155C93.7797 166.155 93.2597 166.335 92.8297 166.635L89.9897 162.755L90.3197 156.495H106.37C106.89 156.495 107.42 156.535 107.94 156.625L124.6 159.365C124.83 159.405 125.07 159.425 125.31 159.425C126.8 159.425 128.17 158.675 128.97 157.415C129.83 156.055 131.25 153.855 133.14 151.065C134.21 149.475 134.94 147.815 135.3 146.135C135.88 143.405 135.02 140.555 132.98 138.525L90.2597 95.7949C90.1297 82.9249 86.8997 75.3049 85.9197 73.2649C85.8397 73.1049 85.8097 72.9449 85.8097 72.7849V63.9049C85.8097 58.3749 84.4697 55.5749 81.8397 55.5749C81.6797 55.5749 81.5397 55.5849 81.4097 55.6049H76.7097V39.0549C76.7097 21.1149 72.4697 7.52492 70.6397 2.51492C70.2597 1.47492 69.2997 0.804922 68.1897 0.804922L68.1397 0.794922Z" fill="black"/>
</g>
<defs>
<clipPath id="clip0_80_27">
<rect width="134.6" height="197.41" fill="white" transform="translate(0.839844 0.794922)"/>
</clipPath>
</defs>
</svg>
