<svg width="105" height="157" viewBox="0 0 105 157" fill="none" xmlns="http://www.w3.org/2000/svg">
<g clip-path="url(#clip0_80_30)">
<path d="M52.0599 2.95496V5.22496H51.8999V7.22496C51.8999 7.22496 51.7399 7.20496 51.7399 7.47496V7.99496C51.7399 7.99496 46.7399 16.975 46.7399 27.245C46.6699 28.845 46.2099 30.785 46.2099 30.785C46.2099 30.785 46.0099 32.295 45.7299 34.485C45.1799 38.665 44.3199 45.315 43.9099 48.545C43.7599 49.995 43.1399 53.965 42.4099 57.325C41.6899 60.685 40.4999 64.145 40.4999 64.145C40.4999 64.145 38.0799 70.965 37.9299 75.855C37.9299 76.155 37.7799 76.435 37.5399 76.615C34.0999 79.255 12.2599 97.055 12.2599 97.055C12.2599 97.055 12.3299 95.695 11.8499 95.695C11.3699 95.695 11.4499 97.635 11.4499 97.635L4.09994 103.605V99.415C4.09994 99.415 4.14994 97.485 3.72994 96.385C3.66994 96.235 3.63994 96.075 3.63994 95.915V91.295C3.63994 91.295 3.63994 90.265 3.15994 90.265H2.58994C2.49994 90.265 2.43994 90.335 2.43994 90.415V117.955C2.43994 118.075 2.53994 118.175 2.65994 118.175H4.03994C4.15994 118.175 4.25994 118.075 4.25994 117.955V116.235C4.25994 116.145 4.32994 116.085 4.40994 116.085H40.7799C40.9099 116.085 41.0199 116.195 41.0199 116.325V128.595C41.0199 128.695 40.9799 128.785 40.9099 128.855L23.0899 144.825C22.8899 145.005 22.7799 145.255 22.7799 145.525V151.945C22.7799 152.065 22.8299 152.165 22.9299 152.235L25.6699 154.275C25.8099 154.375 25.9799 154.435 26.1499 154.435H40.5499C40.9999 154.435 41.3699 154.065 41.3699 153.615V151.065H45.0099C45.2099 151.065 45.3699 150.905 45.3699 150.705V138.635H45.8199C45.8199 138.635 46.1799 145.925 47.8399 153.915C47.8999 154.215 48.1699 154.435 48.4799 154.435H56.0099C56.3199 154.435 56.5899 154.215 56.6499 153.915C58.3099 145.925 58.6699 138.635 58.6699 138.635H59.1199V150.705C59.1199 150.905 59.2799 151.065 59.4799 151.065H63.1199V153.615C63.1199 154.065 63.4899 154.435 63.9399 154.435H78.3399C78.5099 154.435 78.6799 154.375 78.8199 154.275L81.5599 152.235C81.6499 152.165 81.7099 152.055 81.7099 151.945V145.525C81.7099 145.255 81.5999 145.005 81.3999 144.825L63.5799 128.855C63.5099 128.785 63.4699 128.695 63.4699 128.595V116.325C63.4699 116.195 63.5799 116.085 63.7099 116.085H100.08C100.17 116.085 100.23 116.155 100.23 116.235V117.955C100.23 118.075 100.33 118.175 100.45 118.175H101.83C101.95 118.175 102.05 118.075 102.05 117.955V90.415C102.05 90.325 101.98 90.265 101.9 90.265H101.33C100.85 90.265 100.85 91.295 100.85 91.295V95.915C100.85 96.075 100.82 96.235 100.76 96.385C100.34 97.475 100.39 99.415 100.39 99.415V103.605L93.0399 97.635C93.0399 97.635 93.1299 95.695 92.6399 95.695C92.1499 95.695 92.2299 97.055 92.2299 97.055C92.2299 97.055 70.3799 79.255 66.9499 76.615C66.7099 76.435 66.5699 76.155 66.5599 75.855C66.4099 70.965 63.9899 64.145 63.9899 64.145C63.9899 64.145 62.7999 60.685 62.0799 57.325C61.3599 53.965 60.7399 49.995 60.5799 48.545C59.9599 43.625 58.2799 30.785 58.2799 30.785C58.2799 30.785 57.8199 28.835 57.7499 27.245C57.7499 16.975 52.7499 7.99496 52.7499 7.99496V7.47496C52.7499 7.20496 52.5899 7.22496 52.5899 7.22496V5.22496H52.4299V2.95496C52.4299 2.59496 52.2499 2.58496 52.2499 2.58496C52.2499 2.58496 52.0699 2.58496 52.0699 2.95496H52.0599Z" fill="white"/>
<path d="M52.2399 2.58496C52.2399 2.58496 52.4199 2.58496 52.4199 2.95496V5.22496H52.5799V7.22496C52.6099 7.22496 52.7299 7.23496 52.7299 7.47496V7.99496C52.7299 7.99496 57.7299 16.975 57.7299 27.245C57.7999 28.845 58.2599 30.785 58.2599 30.785C58.2599 30.785 59.9399 43.625 60.5599 48.545C60.7099 49.995 61.3299 53.965 62.0599 57.325C62.7799 60.685 63.9699 64.145 63.9699 64.145C63.9699 64.145 66.3899 70.965 66.5399 75.855C66.5399 76.155 66.6899 76.435 66.9299 76.615C70.3699 79.255 92.2099 97.055 92.2099 97.055C92.2099 97.055 92.1399 95.695 92.6199 95.695C93.0999 95.695 93.0199 97.635 93.0199 97.635L100.37 103.605V99.415C100.37 99.415 100.32 97.485 100.74 96.385C100.8 96.235 100.83 96.075 100.83 95.915V91.295C100.83 91.295 100.83 90.265 101.31 90.265H101.88C101.97 90.265 102.03 90.335 102.03 90.415V117.955C102.03 118.075 101.93 118.175 101.81 118.175H100.43C100.31 118.175 100.21 118.075 100.21 117.955V116.235C100.21 116.145 100.14 116.085 100.06 116.085H63.6899C63.5599 116.085 63.4499 116.195 63.4499 116.325V128.595C63.4499 128.695 63.4899 128.785 63.5599 128.855L81.3799 144.825C81.5799 145.005 81.6899 145.255 81.6899 145.525V151.945C81.6899 152.065 81.6399 152.165 81.5399 152.235L78.7999 154.275C78.6599 154.375 78.4899 154.435 78.3199 154.435H63.9199C63.4699 154.435 63.0999 154.065 63.0999 153.615V151.065H59.4599C59.2599 151.065 59.0999 150.905 59.0999 150.705V138.635H58.6499C58.6499 138.635 58.2899 145.925 56.6299 153.915C56.5699 154.215 56.2999 154.435 55.9899 154.435H48.4599C48.1499 154.435 47.8799 154.215 47.8199 153.915C46.1599 145.925 45.7999 138.635 45.7999 138.635H45.3499V150.705C45.3499 150.905 45.1899 151.065 44.9899 151.065H41.3499V153.615C41.3499 154.065 40.9799 154.435 40.5299 154.435H26.1299C25.9599 154.435 25.7899 154.375 25.6499 154.275L22.9099 152.235C22.8199 152.165 22.7599 152.055 22.7599 151.945V145.525C22.7599 145.255 22.8699 145.005 23.0699 144.825L40.8899 128.855C40.9599 128.785 40.9999 128.695 40.9999 128.595V116.325C40.9999 116.195 40.8899 116.085 40.7599 116.085H4.41994C4.32994 116.085 4.26994 116.155 4.26994 116.235V117.955C4.26994 118.075 4.16994 118.175 4.04994 118.175H2.66994C2.54994 118.175 2.44994 118.075 2.44994 117.955V90.415C2.44994 90.325 2.51994 90.265 2.59994 90.265H3.16994C3.64994 90.265 3.64994 91.295 3.64994 91.295V95.915C3.64994 96.075 3.67994 96.235 3.73994 96.385C4.15994 97.475 4.10994 99.415 4.10994 99.415V103.605L11.4599 97.635C11.4599 97.635 11.3699 95.695 11.8599 95.695C12.3499 95.695 12.2699 97.055 12.2699 97.055C12.2699 97.055 34.1199 79.255 37.5499 76.615C37.7899 76.435 37.9299 76.155 37.9399 75.855C38.0899 70.965 40.5099 64.145 40.5099 64.145C40.5099 64.145 41.6999 60.685 42.4199 57.325C43.1399 53.965 43.7599 49.995 43.9199 48.545C44.3299 45.315 45.1899 38.665 45.7399 34.485C46.0199 32.295 46.2199 30.785 46.2199 30.785C46.2199 30.785 46.6799 28.835 46.7499 27.245C46.7499 16.965 51.7499 7.99496 51.7499 7.99496V7.47496C51.7499 7.23496 51.8699 7.22496 51.8999 7.22496V5.22496H52.0599V2.95496C52.0599 2.59496 52.2399 2.58496 52.2399 2.58496ZM52.2399 0.584961C52.2399 0.584961 52.2099 0.584961 52.1899 0.584961C51.1599 0.614961 50.0599 1.44496 50.0599 2.95496V4.44496C49.9599 4.68496 49.8999 4.94496 49.8999 5.22496V6.61496C49.7999 6.87496 49.7399 7.16496 49.7399 7.48496V7.50496C48.6799 9.55496 44.7499 17.795 44.7399 27.205C44.6699 28.575 44.2699 30.315 44.2599 30.335C44.2399 30.405 44.2299 30.475 44.2199 30.535L43.7399 34.235C43.1899 38.425 42.3299 45.075 41.9199 48.305C41.7599 49.785 41.1499 53.665 40.4499 56.915C39.7599 60.105 38.6099 63.465 38.5999 63.505C38.5099 63.765 36.2299 70.245 35.9399 75.325C32.3299 78.145 18.0999 89.715 12.8899 93.965C12.5699 93.795 12.2099 93.705 11.8399 93.705C11.2399 93.705 10.6799 93.945 10.2599 94.385C10.0499 94.605 9.54994 95.125 9.45994 96.685L6.09994 99.415C6.10994 98.915 6.09994 97.115 5.63994 95.795V91.305C5.63994 89.225 4.34994 88.275 3.15994 88.275H2.58994C1.39994 88.275 0.439941 89.245 0.439941 90.425V117.965C0.439941 119.195 1.43994 120.185 2.65994 120.185H4.03994C5.21994 120.185 6.19994 119.255 6.25994 118.085H39.0299V127.855L21.7599 143.325C21.1399 143.885 20.7799 144.675 20.7799 145.515V151.935C20.7799 152.675 21.1399 153.385 21.7299 153.835L24.4699 155.875C24.9499 156.235 25.5499 156.435 26.1499 156.435H40.5499C42.1099 156.435 43.3699 155.165 43.3699 153.615V153.065H45.0099C45.2199 153.065 45.4199 153.035 45.6099 152.985C45.6999 153.425 45.7799 153.875 45.8799 154.325C46.1299 155.545 47.2299 156.435 48.4799 156.435H56.0099C57.2599 156.435 58.3499 155.545 58.6099 154.325C58.6999 153.875 58.7899 153.425 58.8799 152.985C59.0699 153.035 59.2699 153.065 59.4799 153.065H61.1199V153.615C61.1199 155.175 62.3899 156.435 63.9399 156.435H78.3399C78.9399 156.435 79.5399 156.235 80.0199 155.875L82.7599 153.835C83.3599 153.395 83.7099 152.685 83.7099 151.935V145.515C83.7099 144.685 83.3499 143.885 82.7299 143.325L65.4599 127.855V118.085H98.2299C98.2899 119.255 99.2699 120.185 100.45 120.185H101.83C103.06 120.185 104.05 119.185 104.05 117.965V90.425C104.05 89.235 103.08 88.275 101.9 88.275H101.33C100.13 88.275 98.8499 89.225 98.8499 91.305V95.795C98.3799 97.115 98.3799 98.915 98.3899 99.415L95.0299 96.685C94.9299 95.125 94.4299 94.595 94.2299 94.385C93.8099 93.945 93.2499 93.705 92.6499 93.705C92.2799 93.705 91.9199 93.795 91.5999 93.965C86.3799 89.715 72.1499 78.145 68.5499 75.325C68.2599 70.245 65.9799 63.765 65.8799 63.485C65.8799 63.475 64.7299 60.115 64.0399 56.915C63.3399 53.665 62.7299 49.785 62.5799 48.345C61.9599 43.445 60.2899 30.665 60.2799 30.535C60.2799 30.465 60.2599 30.395 60.2399 30.335C60.2399 30.315 59.8299 28.585 59.7599 27.205C59.7499 17.785 55.8199 9.55496 54.7599 7.50496V7.48496C54.7599 7.16496 54.6999 6.87496 54.5999 6.61496V5.22496C54.5999 4.94496 54.5399 4.68496 54.4399 4.44496V2.95496C54.4199 1.45496 53.3299 0.614961 52.2899 0.584961C52.2699 0.584961 52.2599 0.584961 52.2399 0.584961Z" fill="black"/>
</g>
<defs>
<clipPath id="clip0_80_30">
<rect width="103.6" height="155.83" fill="white" transform="translate(0.439941 0.584961)"/>
</clipPath>
</defs>
</svg>
