<svg width="128" height="187" viewBox="0 0 128 187" fill="none" xmlns="http://www.w3.org/2000/svg">
<g clip-path="url(#clip0_80_33)">
<path d="M63.54 2.56982C63.54 2.56982 58.55 10.4398 58.55 22.4698V31.4598C58.55 31.4598 58.1 31.1598 58.1 32.3498V40.9698C58.1 40.9698 53.78 41.8598 53.78 61.0798C53.78 61.6398 52.42 67.2098 50.05 75.2098C49.62 76.6798 49.34 78.1898 49.23 79.7098C48.94 83.7998 48.4 90.9298 48.38 95.9698C48.38 96.1998 48.25 96.3898 48.05 96.4998L4.60004 118.45C4.60004 118.45 4.84004 114.89 3.88004 114.89V110.43C3.88004 110.43 3.66004 109.65 3.43004 109.87C3.50004 108.87 2.80004 108.35 2.04004 108.42V137.05C2.04004 137.05 3.43004 137.57 3.43004 135.88C4.66004 135.88 47.82 139.72 47.82 139.72L43.31 150.86V158.6L28.05 176.03V181.66C28.05 181.66 29.39 185.89 33.68 183.89C37.97 181.88 53.12 174.98 53.12 174.98C53.12 174.98 53.75 177.95 54.72 179.7H61.11C61.11 179.7 62.15 178.96 62.19 176.43V179.47H64.92V176.43C64.96 178.96 66 179.7 66 179.7H72.39C73.36 177.95 73.99 174.98 73.99 174.98C73.99 174.98 89.14 181.89 93.43 183.89C97.72 185.9 99.06 181.66 99.06 181.66V176.03L83.8 158.6V150.86L79.29 139.72C79.29 139.72 122.46 135.88 123.68 135.88C123.68 137.57 125.07 137.05 125.07 137.05V108.42C124.31 108.35 123.6 108.87 123.68 109.87C123.46 109.65 123.23 110.43 123.23 110.43V114.89C122.26 114.89 122.51 118.45 122.51 118.45L79.06 96.4998C78.86 96.3998 78.73 96.1998 78.73 95.9698C78.7 90.9298 78.16 83.7998 77.88 79.7098C77.77 78.1798 77.49 76.6698 77.06 75.2098C74.69 67.2098 73.33 61.6398 73.33 61.0798C73.33 41.8598 69.01 40.9698 69.01 40.9698V32.3498C69.01 31.1598 68.56 31.4598 68.56 31.4598V22.4698C68.56 10.4398 63.57 2.56982 63.57 2.56982L63.54 2.56982Z" fill="white"/>
<path d="M63.54 2.56982C63.54 2.56982 68.53 10.4398 68.53 22.4698V31.4598C68.53 31.4598 68.58 31.4298 68.65 31.4298C68.78 31.4298 68.98 31.5598 68.98 32.3498V40.9698C68.98 40.9698 73.3 41.8598 73.3 61.0798C73.3 61.6398 74.66 67.2098 77.03 75.2098C77.46 76.6798 77.74 78.1898 77.85 79.7098C78.14 83.7998 78.68 90.9298 78.7 95.9698C78.7 96.1998 78.83 96.3898 79.03 96.4998L122.48 118.45C122.48 118.45 122.24 114.89 123.2 114.89V110.43C123.2 110.43 123.37 109.83 123.56 109.83C123.59 109.83 123.62 109.84 123.64 109.87C123.57 108.93 124.19 108.41 124.89 108.41C124.94 108.41 124.98 108.41 125.03 108.41V137.04C125.03 137.04 124.83 137.12 124.58 137.12C124.17 137.12 123.64 136.92 123.64 135.87C122.41 135.87 79.25 139.71 79.25 139.71L83.76 150.85V158.59L99.02 176.02V181.65C99.02 181.65 98.15 184.42 95.54 184.42C94.92 184.42 94.21 184.26 93.39 183.88C89.1 181.87 73.95 174.97 73.95 174.97C73.95 174.97 73.32 177.94 72.35 179.69H65.96C65.96 179.69 64.92 178.95 64.88 176.42V179.46H62.15V176.42C62.11 178.95 61.07 179.69 61.07 179.69H54.68C53.71 177.94 53.08 174.97 53.08 174.97C53.08 174.97 37.93 181.88 33.64 183.88C32.82 184.26 32.11 184.42 31.49 184.42C28.89 184.42 28.01 181.65 28.01 181.65V176.02L43.27 158.59V150.85L47.78 139.71C47.78 139.71 4.61002 135.87 3.39002 135.87C3.39002 136.92 2.86002 137.12 2.45002 137.12C2.20002 137.12 2.00002 137.04 2.00002 137.04V108.41C2.00002 108.41 2.10002 108.41 2.14002 108.41C2.84002 108.41 3.46002 108.93 3.39002 109.87C3.42002 109.84 3.45002 109.83 3.47002 109.83C3.66002 109.83 3.83002 110.43 3.83002 110.43V114.89C4.80002 114.89 4.55002 118.45 4.55002 118.45L48 96.4998C48.2 96.3998 48.33 96.1998 48.33 95.9698C48.36 90.9298 48.9 83.7998 49.18 79.7098C49.29 78.1798 49.57 76.6698 50 75.2098C52.37 67.2098 53.73 61.6398 53.73 61.0798C53.73 41.8598 58.05 40.9698 58.05 40.9698V32.3498C58.05 31.5598 58.25 31.4298 58.38 31.4298C58.45 31.4298 58.5 31.4598 58.5 31.4598V22.4698C58.5 10.4398 63.49 2.56982 63.49 2.56982M63.54 0.569824C62.86 0.569824 62.22 0.919824 61.85 1.49982C61.63 1.83982 56.54 10.0098 56.54 22.4698V30.4798C56.28 30.9098 56.09 31.5098 56.09 32.3398V39.8798C54.17 41.6598 51.78 46.7398 51.77 60.9698C51.65 61.7798 50.45 66.7698 48.12 74.6198C47.64 76.2398 47.34 77.8998 47.22 79.5498L47.14 80.7298C46.86 84.6798 46.44 90.5198 46.37 95.0698L6.42002 115.28C6.29002 114.75 6.11002 114.31 5.87002 113.96V110.42C5.87002 110.23 5.84002 110.05 5.79002 109.87C5.66002 109.43 5.50002 109.09 5.31002 108.81C5.17002 108.29 4.92002 107.82 4.56002 107.42C3.96002 106.77 3.09002 106.4 2.17002 106.4C2.06002 106.4 1.95002 106.4 1.83002 106.42C0.810019 106.52 0.0200195 107.38 0.0200195 108.41V137.04C0.0200195 137.87 0.54002 138.62 1.32002 138.91C1.48002 138.97 1.92002 139.11 2.47002 139.11C3.32002 139.11 4.21002 138.74 4.79002 137.96C10.22 138.39 30.04 140.13 44.94 141.46L41.44 150.1C41.34 150.34 41.29 150.59 41.29 150.85V157.84L26.52 174.71C26.2 175.07 26.02 175.54 26.02 176.03V181.66C26.02 181.86 26.05 182.07 26.11 182.26C26.6 183.81 28.28 186.42 31.49 186.42C32.45 186.42 33.46 186.18 34.49 185.69C37.75 184.17 47.42 179.75 51.76 177.77C52.06 178.72 52.45 179.79 52.93 180.65C53.28 181.29 53.95 181.68 54.68 181.68H61.07C61.39 181.68 61.71 181.6 62 181.45C62.05 181.45 62.1 181.45 62.15 181.45H64.88C64.93 181.45 64.98 181.45 65.03 181.45C65.32 181.6 65.63 181.68 65.96 181.68H72.35C73.08 181.68 73.75 181.28 74.1 180.65C74.58 179.79 74.97 178.72 75.27 177.77C79.61 179.75 89.28 184.17 92.54 185.69C93.57 186.17 94.58 186.42 95.54 186.42C98.75 186.42 100.43 183.8 100.92 182.26C100.98 182.07 101.01 181.86 101.01 181.66V176.03C101.01 175.55 100.83 175.08 100.51 174.71L85.74 157.84V150.85C85.74 150.59 85.69 150.34 85.59 150.1L82.09 141.46C96.97 140.14 116.77 138.4 122.24 137.96C122.81 138.74 123.71 139.11 124.56 139.11C125.11 139.11 125.55 138.97 125.71 138.91C126.49 138.62 127.01 137.87 127.01 137.04V108.41C127.01 107.38 126.23 106.52 125.2 106.42C125.09 106.41 124.97 106.4 124.86 106.4C123.95 106.4 123.08 106.77 122.47 107.42C122.11 107.81 121.85 108.28 121.72 108.81C121.53 109.08 121.37 109.43 121.24 109.87C121.19 110.05 121.16 110.23 121.16 110.42V113.96C120.92 114.31 120.74 114.75 120.61 115.28L80.64 95.0898C80.57 90.5398 80.16 84.6898 79.87 80.7398L79.79 79.5698C79.67 77.9098 79.37 76.2598 78.89 74.6398C76.56 66.7898 75.36 61.7998 75.24 60.9898C75.24 46.7498 72.85 41.6698 70.92 39.8998V32.3598C70.92 31.5198 70.74 30.9198 70.47 30.4998V22.4898C70.47 10.0198 65.38 1.85982 65.16 1.51982C64.79 0.939824 64.16 0.589824 63.47 0.589824L63.54 0.569824Z" fill="black"/>
</g>
<defs>
<clipPath id="clip0_80_33">
<rect width="127" height="185.86" fill="white" transform="translate(0.0400391 0.569824)"/>
</clipPath>
</defs>
</svg>
