<svg width="140" height="195" viewBox="0 0 140 195" fill="none" xmlns="http://www.w3.org/2000/svg">
<g clip-path="url(#clip0_80_36)">
<path d="M61.62 49.82C61.62 50.11 61.49 50.39 61.26 50.58C59.51 52.03 53.13 57.41 51.5 58.78C51.25 58.99 51.1 59.28 51.08 59.6L48.75 86C48.72 86.31 48.58 86.6 48.35 86.81L2.21004 129.33C2.10004 129.43 2.04004 129.58 2.04004 129.73V140.72C2.04004 141.08 2.20004 141.43 2.47004 141.67L10.05 148.31C10.51 148.71 11.05 149.01 11.63 149.19L39.8 157.63C40.11 157.72 40.39 157.92 40.58 158.19L41.45 159.43C41.55 159.57 41.52 159.75 41.4 159.86L25.34 173.77C25.24 173.86 25.18 173.99 25.18 174.12V186.78C25.18 186.94 25.28 187.08 25.44 187.13L41.59 192.23C41.76 192.28 41.95 192.24 42.08 192.12L58.61 177.12C58.71 177.03 58.77 176.89 58.77 176.75V166.29C58.77 166.22 58.85 166.19 58.9 166.24L63.26 170.67C63.26 170.67 63.38 170.72 63.43 170.67L67.38 166.72C67.44 166.66 67.55 166.7 67.55 166.79V175.94C67.55 176.22 67.63 176.5 67.79 176.74C68.16 177.29 68.86 178.23 69.83 178.23V178.26C70.81 178.26 71.51 177.32 71.87 176.77C72.03 176.53 72.11 176.26 72.11 175.98C72.11 174.28 72.11 168.12 72.11 166.82C72.11 166.73 72.22 166.69 72.28 166.75L76.23 170.7C76.23 170.7 76.35 170.75 76.4 170.7L80.76 166.27C80.76 166.27 80.89 166.26 80.89 166.32V176.78C80.89 176.92 80.95 177.05 81.05 177.15L97.58 192.15C97.71 192.27 97.9 192.31 98.07 192.26L114.22 187.16C114.37 187.11 114.48 186.97 114.48 186.81V174.15C114.48 174.02 114.42 173.89 114.32 173.8L98.26 159.89C98.13 159.78 98.11 159.59 98.21 159.46L99.08 158.22C99.27 157.95 99.54 157.76 99.86 157.66L128.03 149.22C128.61 149.04 129.15 148.75 129.61 148.34L137.19 141.7C137.46 141.46 137.62 141.11 137.62 140.75V129.76C137.62 129.61 137.56 129.46 137.45 129.36L91.31 86.85C91.08 86.64 90.94 86.35 90.91 86.04L88.58 59.64C88.55 59.32 88.4 59.03 88.16 58.82C86.53 57.45 80.16 52.07 78.4 50.62C78.17 50.43 78.05 50.15 78.04 49.86C77.98 15.56 71.75 5.01998 70.17 2.90998C69.99 2.66998 69.64 2.66998 69.46 2.90998C67.89 5.01998 61.65 15.53 61.59 49.83L61.62 49.82Z" fill="white"/>
<path d="M69.84 2.72021C69.97 2.72021 70.11 2.78022 70.2 2.90021C71.77 5.01021 78.01 15.5502 78.07 49.8502C78.07 50.1402 78.2 50.4202 78.43 50.6102C80.18 52.0602 86.56 57.4402 88.19 58.8102C88.44 59.0202 88.59 59.3102 88.61 59.6302L90.94 86.0302C90.97 86.3402 91.11 86.6302 91.34 86.8402L137.48 129.35C137.59 129.45 137.65 129.6 137.65 129.75V140.74C137.65 141.1 137.49 141.45 137.22 141.69L129.64 148.33C129.18 148.73 128.64 149.03 128.06 149.21L99.89 157.65C99.58 157.74 99.3 157.94 99.11 158.21L98.24 159.45C98.14 159.59 98.17 159.77 98.29 159.88L114.35 173.79C114.45 173.88 114.51 174.01 114.51 174.14V186.8C114.51 186.96 114.41 187.1 114.25 187.15L98.1 192.25C98.1 192.25 98 192.27 97.95 192.27C97.83 192.27 97.7 192.22 97.61 192.14L81.08 177.14C80.98 177.05 80.92 176.91 80.92 176.77V166.31C80.92 166.31 80.88 166.23 80.84 166.23C80.82 166.23 80.8 166.23 80.79 166.25L76.43 170.68C76.43 170.68 76.38 170.72 76.34 170.72C76.3 170.72 76.28 170.71 76.25 170.68L72.3 166.73C72.3 166.73 72.25 166.7 72.23 166.7C72.18 166.7 72.13 166.74 72.13 166.8V175.96C72.13 176.24 72.05 176.52 71.89 176.75C71.52 177.3 70.82 178.24 69.85 178.24V178.21C68.87 178.21 68.17 177.27 67.81 176.72C67.65 176.48 67.57 176.21 67.57 175.92V166.77C67.57 166.71 67.52 166.67 67.47 166.67C67.45 166.67 67.42 166.67 67.4 166.7L63.45 170.65C63.45 170.65 63.4 170.69 63.36 170.69C63.32 170.69 63.3 170.68 63.27 170.65L58.91 166.22C58.91 166.22 58.88 166.2 58.86 166.2C58.82 166.2 58.78 166.23 58.78 166.28V176.74C58.78 176.88 58.72 177.01 58.62 177.11L42.09 192.11C42 192.2 41.87 192.24 41.75 192.24C41.7 192.24 41.65 192.24 41.6 192.22L25.45 187.12C25.3 187.07 25.19 186.93 25.19 186.77V174.11C25.19 173.98 25.25 173.85 25.35 173.76L41.41 159.85C41.54 159.74 41.56 159.55 41.46 159.42L40.59 158.19C40.4 157.92 40.13 157.73 39.81 157.63L11.64 149.19C11.06 149.01 10.52 148.72 10.06 148.31L2.48004 141.67C2.21004 141.43 2.05004 141.08 2.05004 140.72V129.73C2.05004 129.58 2.11004 129.43 2.22004 129.33L48.36 86.8202C48.59 86.6102 48.73 86.3202 48.76 86.0102L51.09 59.6102C51.12 59.2902 51.27 59.0002 51.51 58.7902C53.14 57.4202 59.51 52.0402 61.27 50.5902C61.5 50.4002 61.62 50.1202 61.63 49.8302C61.69 15.5302 67.92 5.01021 69.5 2.91021C69.59 2.79022 69.72 2.73021 69.86 2.73021M69.84 0.720215C69.07 0.720215 68.34 1.09021 67.88 1.70021C65.97 4.27021 59.73 15.2702 59.62 49.3402C57.51 51.1002 51.96 55.7802 50.22 57.2502C49.57 57.8002 49.17 58.5702 49.09 59.4202L46.79 85.5302L0.860039 127.86C0.340039 128.34 0.0400391 129.02 0.0400391 129.73V140.72C0.0400391 141.66 0.450039 142.56 1.15004 143.18L8.73004 149.82C9.41004 150.42 10.19 150.85 11.06 151.11L38.85 159.43L24.04 172.26C23.5 172.73 23.19 173.41 23.19 174.12V186.78C23.19 187.82 23.86 188.73 24.85 189.04L40.99 194.14C41.23 194.22 41.49 194.26 41.74 194.26C42.37 194.26 42.97 194.03 43.43 193.6L59.95 178.61C60.47 178.14 60.77 177.46 60.77 176.76V171L61.84 172.08C62.24 172.48 62.79 172.71 63.35 172.71C63.91 172.71 64.45 172.49 64.85 172.09L65.56 171.38V175.95C65.56 176.63 65.76 177.28 66.13 177.85C67.06 179.26 68.15 180.05 69.38 180.21C69.53 180.25 69.68 180.27 69.85 180.27C71.27 180.27 72.52 179.47 73.56 177.88C73.93 177.32 74.13 176.66 74.13 175.98V171.41L74.84 172.12C75.24 172.52 75.77 172.74 76.34 172.74C76.91 172.74 77.46 172.51 77.85 172.11L78.92 171.03V176.79C78.92 177.49 79.22 178.17 79.74 178.64L96.27 193.64C96.72 194.06 97.32 194.29 97.95 194.29C98.21 194.29 98.46 194.25 98.7 194.17L114.85 189.07C115.84 188.76 116.51 187.85 116.51 186.81V174.15C116.51 173.43 116.2 172.76 115.66 172.29L100.85 159.46L128.64 151.14C129.51 150.88 130.29 150.45 130.97 149.85L138.55 143.21C139.26 142.59 139.66 141.7 139.66 140.75V129.76C139.66 129.05 139.36 128.37 138.84 127.89L92.91 85.5702L90.61 59.4602C90.54 58.6102 90.13 57.8402 89.48 57.2902C88.24 56.2502 82.28 51.2102 80.08 49.3802C79.97 15.3002 73.73 4.28021 71.82 1.71021C71.36 1.09021 70.63 0.720215 69.86 0.720215L69.84 0.720215Z" fill="black"/>
</g>
<defs>
<clipPath id="clip0_80_36">
<rect width="139.6" height="193.56" fill="white" transform="translate(0.0400391 0.720215)"/>
</clipPath>
</defs>
</svg>
