<svg width="295" height="237" viewBox="0 0 295 237" fill="none" xmlns="http://www.w3.org/2000/svg">
<g clip-path="url(#clip0_524_7)">
<path d="M147.4 235.49C146.42 235.49 145.54 234.45 145.09 233.82C145 233.7 144.94 233.56 144.92 233.41L142.49 218.9C137.03 218.42 106.12 215.67 102.72 215.18C98.44 214.57 97.68 211.8 97.65 211.68C96.83 208.24 97.01 205.65 98.2 203.98C99.24 202.52 100.63 202.33 100.79 202.31L137.85 194.91C137.35 192.06 135.83 183.21 134.26 172.95C132.35 160.44 132.02 144.57 132.02 144.41V123.76C132.02 122.57 130.94 122.42 130.61 122.4L117.6 121.19C117.26 126.16 116.3 132.53 113.73 136.66C113.36 137.26 112.72 137.61 112.01 137.61C111.3 137.61 110.7 137.28 110.32 136.72C107.21 132.15 106.12 125.31 105.77 120.09L5.86995 110.8C5.86995 110.8 5.83995 110.8 5.82995 110.8C5.19995 110.8 3.03995 110.46 1.95995 106.11C0.999952 101.76 1.27995 98.48 2.77995 96.34C4.06995 94.5 5.75995 94.23 5.94995 94.21L105.67 88.55V72.84C105.67 71.22 106.27 69.89 107.09 69.06C106.1 69.1 105.14 69.12 104.21 69.12C100.49 69.12 97.4799 68.82 95.24 68.24C94.67 68.09 94.28 67.59 94.29 67.02C94.29 66.45 94.7 65.95 95.28 65.82C97.16 65.38 99.55 65.16 102.38 65.16C104.73 65.16 107 65.31 108.69 65.47C109.29 64.04 110.16 63.1 110.82 62.54C111.17 62.25 111.6 62.09 112.05 62.09C112.5 62.09 112.94 62.25 113.28 62.54C113.94 63.1 114.8 64.03 115.4 65.44C117.03 65.3 119.21 65.16 121.46 65.16C124.32 65.16 126.72 65.38 128.6 65.82C129.17 65.95 129.58 66.45 129.59 67.02C129.59 67.59 129.21 68.09 128.64 68.24C126.41 68.82 123.37 69.12 119.6 69.12C118.76 69.12 117.9 69.11 117.02 69.08C117.83 69.9 118.43 71.23 118.43 72.84V87.83L132.26 87.05V35.82C132.26 24.4 140.6 1.26001 147.42 1.26001C154.24 1.26001 162.58 24.4 162.58 35.82V87.05L176.41 87.83V72.84C176.41 71.23 177.01 69.9 177.82 69.08C176.94 69.11 176.07 69.12 175.24 69.12C171.48 69.12 168.44 68.82 166.2 68.24C165.63 68.09 165.24 67.59 165.25 67.02C165.25 66.45 165.66 65.95 166.24 65.82C168.12 65.38 170.53 65.16 173.38 65.16C175.63 65.16 177.81 65.3 179.44 65.44C180.04 64.03 180.9 63.09 181.56 62.54C181.9 62.25 182.34 62.09 182.79 62.09C183.24 62.09 183.68 62.25 184.02 62.54C184.69 63.1 185.55 64.04 186.15 65.47C187.84 65.32 190.11 65.16 192.46 65.16C195.29 65.16 197.67 65.38 199.56 65.82C200.13 65.95 200.54 66.45 200.55 67.02C200.55 67.59 200.17 68.09 199.6 68.24C197.36 68.82 194.35 69.12 190.63 69.12C189.7 69.12 188.73 69.1 187.75 69.06C188.56 69.88 189.17 71.21 189.17 72.84V88.55L288.81 94.2C289.07 94.23 290.76 94.5 292.05 96.34C293.55 98.48 293.83 101.75 292.88 106.08C291.78 110.46 289.63 110.8 289 110.8C288.99 110.8 288.97 110.8 288.96 110.8L189.05 120.11C188.7 125.33 187.61 132.16 184.5 136.74C184.12 137.3 183.49 137.63 182.82 137.63C182.15 137.63 181.47 137.27 181.1 136.68C178.53 132.55 177.57 126.18 177.23 121.21L164.27 122.42C163.89 122.44 162.82 122.59 162.82 123.78V144.41C162.82 144.59 162.49 160.46 160.58 172.97C159.01 183.23 157.49 192.07 156.99 194.93L194.14 202.34C194.21 202.34 195.6 202.53 196.64 204C197.82 205.67 198.01 208.26 197.19 211.69C197.16 211.82 196.4 214.59 192.12 215.2C188.72 215.69 157.8 218.43 152.35 218.92L149.92 233.43C149.9 233.58 149.84 233.72 149.75 233.84C149.31 234.46 148.42 235.51 147.44 235.51L147.4 235.49Z" fill="white"/>
<path d="M147.4 2.25C153.1 2.25 161.56 23.88 161.56 35.81V87.99L177.39 88.89V72.84C177.39 70.61 178.72 69.17 179.68 69.17C179.68 68.75 179.71 68.36 179.75 67.99C178.46 68.06 176.88 68.12 175.21 68.12C172.23 68.12 168.93 67.93 166.42 67.27C166.14 67.2 166.15 66.85 166.42 66.79C168.46 66.32 170.93 66.16 173.34 66.16C175.75 66.16 178.28 66.33 180.07 66.5C180.6 64.84 181.55 63.82 182.17 63.3C182.34 63.16 182.55 63.09 182.76 63.09C182.97 63.09 183.18 63.16 183.35 63.3C183.97 63.82 184.93 64.85 185.46 66.54C187.25 66.36 189.8 66.16 192.44 66.16C194.82 66.16 197.27 66.32 199.31 66.79C199.59 66.85 199.59 67.2 199.31 67.27C196.8 67.93 193.54 68.12 190.6 68.12C188.79 68.12 187.09 68.05 185.76 67.97C185.81 68.35 185.84 68.75 185.84 69.17C186.8 69.17 188.13 70.61 188.13 72.84V89.5L288.72 95.2C288.72 95.2 294.06 95.9 291.87 105.86C290.94 109.59 289.31 109.8 288.97 109.8C288.93 109.8 288.9 109.8 288.9 109.8L188.07 119.19C187.8 124.16 186.83 131.47 183.64 136.18C183.43 136.48 183.11 136.63 182.78 136.63C182.45 136.63 182.11 136.47 181.91 136.15C179.27 131.91 178.4 125.1 178.13 120.12L164.14 121.42C164.14 121.42 161.78 121.51 161.78 123.78V144.41C161.78 144.41 161.47 160.23 159.55 172.81C157.63 185.4 155.79 195.71 155.79 195.71L193.9 203.31C193.9 203.31 198.01 203.75 196.17 211.44C196.17 211.44 195.6 213.67 191.93 214.19C188.26 214.71 151.44 217.97 151.44 217.97L148.88 233.24C148.88 233.24 147.99 234.49 147.39 234.49C146.79 234.49 145.9 233.24 145.9 233.24L143.34 217.97C143.34 217.97 106.52 214.71 102.85 214.19C99.1801 213.67 98.6101 211.44 98.6101 211.44C96.7701 203.75 100.88 203.31 100.88 203.31L138.99 195.71C138.99 195.71 137.15 185.4 135.23 172.81C133.31 160.22 133 144.41 133 144.41V123.78C133 121.51 130.64 121.42 130.64 121.42L116.65 120.12C116.38 125.1 115.51 131.91 112.87 136.15C112.67 136.47 112.34 136.63 112 136.63C111.66 136.63 111.35 136.48 111.14 136.18C107.94 131.47 106.98 124.16 106.71 119.19L5.90009 109.79C5.90009 109.79 5.88009 109.79 5.83009 109.79C5.48009 109.79 3.86009 109.58 2.93009 105.85C0.750092 95.89 6.08009 95.19 6.08009 95.19L106.67 89.49V72.83C106.67 70.6 108 69.16 108.96 69.16C108.96 68.73 108.99 68.33 109.04 67.96C107.71 68.04 106.02 68.11 104.2 68.11C101.25 68.11 98.0001 67.92 95.4901 67.26C95.2101 67.19 95.2201 66.84 95.4901 66.78C97.5301 66.31 99.9801 66.15 102.36 66.15C105 66.15 107.55 66.35 109.34 66.53C109.87 64.85 110.83 63.82 111.45 63.29C111.62 63.15 111.83 63.08 112.04 63.08C112.25 63.08 112.46 63.15 112.63 63.29C113.25 63.81 114.2 64.83 114.73 66.49C116.52 66.32 118.95 66.15 121.46 66.15C123.86 66.15 126.34 66.31 128.38 66.78C128.66 66.84 128.66 67.19 128.38 67.26C125.87 67.92 122.58 68.11 119.59 68.11C117.92 68.11 116.34 68.05 115.05 67.98C115.1 68.35 115.12 68.74 115.12 69.16C116.08 69.16 117.41 70.6 117.41 72.83V88.88L133.24 87.98V35.8C133.24 23.87 141.7 2.24 147.4 2.24M147.4 0.25C139.35 0.25 131.24 24.63 131.24 35.81V86.1L119.41 86.77V72.84C119.41 71.82 119.21 70.9 118.87 70.12C119.11 70.12 119.35 70.12 119.58 70.12C123.43 70.12 126.55 69.81 128.87 69.21C129.88 68.95 130.58 68.04 130.57 67.01C130.56 65.98 129.83 65.09 128.81 64.85C126.85 64.4 124.37 64.16 121.44 64.16C119.47 64.16 117.54 64.27 115.99 64.39C115.35 63.16 114.54 62.31 113.9 61.78C113.38 61.34 112.71 61.1 112.02 61.1C111.33 61.1 110.67 61.34 110.14 61.78C109.5 62.32 108.69 63.18 108.04 64.42C106.43 64.29 104.41 64.17 102.34 64.17C99.4401 64.17 96.9701 64.4 95.0201 64.86C94.0001 65.1 93.2701 65.99 93.2601 67.02C93.2501 68.05 93.9401 68.96 94.9601 69.22C97.2801 69.83 100.38 70.13 104.18 70.13C104.51 70.13 104.85 70.13 105.18 70.13C104.84 70.92 104.64 71.84 104.64 72.86V87.63L5.94009 93.23C5.94009 93.23 5.84009 93.23 5.79009 93.24C5.56009 93.27 3.47009 93.6 1.93009 95.79C0.260092 98.16 -0.0699078 101.71 0.940092 106.32C0.940092 106.34 0.940092 106.36 0.950092 106.38C2.18009 111.3 4.75009 111.83 5.79009 111.83L104.8 121.05C105.22 126.28 106.39 132.82 109.46 137.33C110.03 138.16 110.96 138.66 111.97 138.66C112.98 138.66 113.98 138.13 114.54 137.24C117.04 133.22 118.07 127.25 118.48 122.33L130.43 123.44C130.49 123.44 130.48 123.44 130.52 123.44C130.52 123.44 130.53 123.44 130.54 123.44C130.67 123.45 130.9 123.54 130.95 123.59C130.95 123.59 130.97 123.65 130.97 123.8V144.43C130.97 144.63 131.3 160.57 133.22 173.14C134.64 182.44 136.03 190.58 136.65 194.16L100.51 201.37C99.9901 201.45 98.4801 201.82 97.3401 203.44C95.9801 205.36 95.7401 208.22 96.6301 211.93C96.7301 212.32 97.6801 215.51 102.53 216.2C105.82 216.67 134.47 219.22 141.58 219.86L143.88 233.61C143.93 233.91 144.05 234.19 144.22 234.44C144.9 235.39 145.99 236.53 147.34 236.53C148.69 236.53 149.78 235.4 150.46 234.44C150.64 234.19 150.75 233.91 150.8 233.61L153.1 219.86C160.21 219.23 188.86 216.67 192.15 216.2C197.01 215.51 197.95 212.32 198.04 211.96C198.93 208.21 198.7 205.35 197.34 203.44C196.2 201.82 194.69 201.45 194.17 201.37L158.03 194.16C158.65 190.59 160.04 182.45 161.46 173.14C163.38 160.57 163.71 144.63 163.71 144.47V123.81C163.71 123.66 163.74 123.6 163.74 123.6C163.79 123.55 164.01 123.46 164.19 123.45C164.21 123.45 164.22 123.45 164.22 123.45C164.23 123.45 164.22 123.45 164.26 123.45L176.21 122.34C176.62 127.26 177.65 133.23 180.15 137.25C180.7 138.14 181.66 138.67 182.72 138.67C183.78 138.67 184.67 138.17 185.23 137.34C188.29 132.83 189.47 126.29 189.89 121.06L288.9 111.84C289.95 111.84 292.51 111.31 293.74 106.39C293.74 106.37 293.74 106.35 293.75 106.33C294.76 101.72 294.43 98.18 292.76 95.8C291.23 93.61 289.13 93.28 288.9 93.25C288.85 93.25 288.8 93.24 288.75 93.24L190.05 87.64V72.87C190.05 71.85 189.85 70.93 189.51 70.14C189.85 70.14 190.18 70.14 190.51 70.14C194.31 70.14 197.41 69.83 199.73 69.23C200.74 68.97 201.44 68.06 201.43 67.03C201.42 66 200.69 65.11 199.67 64.87C197.71 64.42 195.25 64.18 192.35 64.18C190.28 64.18 188.26 64.3 186.65 64.43C186 63.19 185.2 62.33 184.55 61.79C184.03 61.35 183.36 61.11 182.67 61.11C181.98 61.11 181.32 61.35 180.79 61.79C180.15 62.33 179.35 63.17 178.7 64.4C177.15 64.28 175.22 64.17 173.25 64.17C170.32 64.17 167.84 64.4 165.88 64.86C164.86 65.1 164.13 65.99 164.12 67.02C164.11 68.05 164.8 68.96 165.82 69.22C168.14 69.83 171.26 70.13 175.11 70.13C175.35 70.13 175.58 70.13 175.82 70.13C175.48 70.92 175.28 71.83 175.28 72.85V86.78L163.45 86.11V35.82C163.45 24.64 155.34 0.26 147.29 0.26L147.4 0.25Z" fill="black"/>
</g>
<defs>
<clipPath id="clip0_524_7">
<rect width="294" height="236.24" fill="white" transform="translate(0.400391 0.25)"/>
</clipPath>
</defs>
</svg>
