<svg width="260" height="295" viewBox="0 0 260 295" fill="none" xmlns="http://www.w3.org/2000/svg">
<g clip-path="url(#clip0_464_7)">
<path d="M129.1 292.07C127.04 292.05 126.65 290 125.79 285.49C125.59 284.45 125.41 283.42 125.26 282.56L86.4403 290.79C86.2503 290.84 85.9903 290.89 85.6803 290.89C84.0303 290.89 81.9303 289.77 81.2903 284.45C80.0603 274.38 83.7603 271.78 84.5103 271.37L125.01 247.43V247.16C125.01 247.16 124.94 247.07 124.9 247.03C124.16 246.09 124 244.72 124.02 243.66C121.11 240.71 120.7 234.52 120.71 228.72C120.71 228.41 120.71 228.14 120.71 227.91C119.05 223.81 117.42 216.07 115.72 204.31L109.73 200.04C109.73 200.04 109.73 200.64 109.73 200.68C109.73 200.83 109.44 204.28 104.29 204.28H104.19C100.13 204.24 98.6803 201.61 98.4803 200.22C98.4703 200.12 98.4603 200.02 98.4603 199.92L98.4903 196.69C95.5603 193.13 94.3803 181.88 94.6803 160.31L94.7003 158.91C94.7503 152.75 97.9103 152.27 98.8703 152.27C98.9703 152.27 99.0503 152.27 99.1203 152.27L107.45 152.34C108.78 152.35 109.65 152.85 110.2 153.36C110.09 152.19 110.01 151.29 109.97 150.97C109.74 150.74 108.95 150.48 108.37 150.4L78.5403 152.68C78.1403 159.88 76.3903 160.86 74.8703 160.86C72.7103 160.86 71.6003 158.49 71.3303 153.24L47.1003 155.09C46.8303 159.9 45.8503 161.9 43.8303 161.9C41.8103 161.9 40.9103 160.04 40.6703 155.58L9.59031 157.96C9.44031 157.98 9.22031 158 8.95031 158C7.99031 158 4.77031 157.66 3.57031 153.32C1.89031 146.76 2.03031 141.86 3.98031 138.73C5.27031 136.66 6.91031 136.05 7.48031 135.9L80.5803 111.79C81.2703 111.56 81.9503 111.27 82.6003 110.91L110.31 95.7499L110.72 48.7199C110.82 36.8199 118.67 2.43994 130.34 2.43994C142.01 2.43994 149.65 36.9499 149.65 48.8899V95.9199L177.22 111.32C177.86 111.68 178.54 111.98 179.23 112.21L252.12 136.95C252.69 137.11 254.33 137.73 255.59 139.81C257.51 142.96 257.61 147.86 255.88 154.37C254.64 158.71 251.45 159.04 250.5 159.04C250.21 159.04 249.97 159.01 249.81 158.99L218.76 156.34C218.48 160.78 217.51 162.63 215.56 162.63C213.61 162.63 212.56 160.62 212.33 155.8L188.12 153.74C187.71 160.42 186.01 161.33 184.53 161.33C183.05 161.33 181.25 160.35 180.91 153.12L151.11 150.58C150.47 150.66 149.72 150.92 149.5 151.13C149.46 151.43 149.37 152.33 149.25 153.52C149.8 153.02 150.68 152.53 152.01 152.53H160.34C160.4 152.53 160.48 152.53 160.56 152.53C161.53 152.53 164.7 153.01 164.7 159.21V160.61C164.82 182.19 163.55 193.42 160.58 196.96V200.19C160.58 200.29 160.58 200.39 160.56 200.49C160.35 201.88 158.88 204.5 154.82 204.5C149.58 204.5 149.32 201 149.31 200.86C149.31 200.82 149.31 200.22 149.31 200.22L143.28 204.44C141.48 216.19 139.77 223.91 138.08 228C138.08 228.23 138.08 228.5 138.08 228.81C138.04 234.61 137.57 240.81 134.64 243.73C134.64 244.78 134.48 246.15 133.73 247.09C133.69 247.13 133.66 247.18 133.62 247.22V247.49L173.96 271.81C174.66 272.21 178.33 274.83 177.02 284.89C176.33 290.18 174.24 291.29 172.6 291.29C172.28 291.29 172.01 291.24 171.82 291.18L133.07 282.61C132.92 283.46 132.73 284.5 132.52 285.53C131.62 290.02 131.21 292.08 129.16 292.08H129.14L129.1 292.07Z" fill="white"/>
<path d="M130.32 4.43994C130.32 4.43994 130.34 4.43994 130.36 4.43994C139.46 4.43994 147.63 35.0999 147.63 48.8899V96.3399C147.63 96.7999 147.88 97.2299 148.29 97.4599L176.23 113.07C176.98 113.49 177.76 113.84 178.57 114.11L251.53 138.87C251.53 138.87 257.56 140.21 253.94 153.87C253.13 156.71 251.32 157.05 250.49 157.05C250.22 157.05 250.06 157.01 250.06 157.01L216.83 154.18C216.77 158.49 216.16 160.64 215.56 160.64C214.96 160.64 214.33 158.41 214.28 153.96L186.2 151.57C186.1 156.75 185.32 159.34 184.53 159.34C183.74 159.34 182.93 156.66 182.85 151.29L151.08 148.58C151.08 148.58 147.87 148.85 147.53 150.72C147.47 151.06 147.25 153.39 146.89 157.05H149.94C149.94 157.05 149.64 154.54 152 154.54H160.44C160.44 154.54 160.48 154.54 160.56 154.54C161.02 154.54 162.7 154.84 162.7 159.22C162.7 164.13 163.17 191 159 195.74C158.75 196.03 158.58 196.39 158.58 196.77V200.19C158.58 200.19 158.23 202.5 154.81 202.5C151.39 202.5 151.3 200.74 151.3 200.74V197.46C151.3 197.13 151.03 196.89 150.73 196.89C150.62 196.89 150.51 196.92 150.41 196.99L141.42 203.28C139.81 213.93 137.98 223.2 136.08 227.55C135.98 229.76 136.48 240.3 132.57 242.81C132.57 242.81 132.94 245.99 131.6 246.12V248.6L172.91 273.5C172.91 273.5 176.22 275.37 175.02 284.61C174.48 288.79 173.16 289.27 172.58 289.27C172.41 289.27 172.3 289.23 172.3 289.23L131.43 280.19C131.43 280.19 129.79 290.06 129.13 290.06C128.46 290.06 126.91 280.17 126.91 280.17L85.9604 288.85C85.9604 288.85 85.8604 288.89 85.6904 288.89C85.1204 288.89 83.7904 288.42 83.2904 284.21C82.1604 274.96 85.4904 273.12 85.4904 273.12L127.01 248.57L127.03 246.09C125.69 245.94 126.09 242.77 126.09 242.77C122.2 240.23 122.79 229.69 122.71 227.48C120.85 223.11 119.1 213.83 117.58 203.16L108.65 196.8C108.55 196.73 108.43 196.69 108.32 196.69C108.03 196.69 107.76 196.92 107.75 197.25L107.72 200.53C107.72 200.53 107.61 202.26 104.28 202.26C104.25 202.26 104.22 202.26 104.2 202.26C100.79 202.23 100.45 199.92 100.45 199.92L100.48 196.5C100.48 196.11 100.32 195.76 100.07 195.47C95.9404 190.7 96.6404 163.84 96.6904 158.92C96.7304 154.57 98.3904 154.26 98.8704 154.26C98.9504 154.26 98.9904 154.26 98.9904 154.26C98.9904 154.26 105.07 154.31 107.42 154.33C109.78 154.35 109.46 156.86 109.46 156.86L112.51 156.89C112.18 153.23 111.98 150.9 111.92 150.56C111.6 148.68 108.39 148.39 108.39 148.39L76.5904 150.82C76.4704 156.18 75.6504 158.86 74.8504 158.86C74.0504 158.86 73.2904 156.26 73.2404 151.08L45.1404 153.23C45.0504 157.67 44.4204 159.89 43.8104 159.89C43.2004 159.89 42.6204 157.73 42.5904 153.42L9.34043 155.97C9.34043 155.97 9.18043 156 8.93043 156C8.11043 156 6.28043 155.66 5.48043 152.79C1.98043 139.1 8.02043 137.82 8.02043 137.82L81.1904 113.69C82.0004 113.42 82.7904 113.08 83.5404 112.67L111.62 97.2999C112.03 97.0799 112.28 96.6499 112.28 96.1899L112.69 48.7399C112.81 34.9699 121.22 4.43994 130.31 4.43994M130.32 0.439941C124.28 0.439941 118.91 7.05994 114.37 20.1099C111.04 29.6699 108.77 41.1599 108.7 48.7099L108.3 94.5599L81.6204 109.16C81.0804 109.45 80.5204 109.7 79.9304 109.89L6.89043 133.98C5.47043 134.37 3.60043 135.52 2.26043 137.68C0.0204312 141.3 -0.199569 146.71 1.60043 153.79C1.60043 153.82 1.61043 153.84 1.62043 153.87C2.87043 158.4 6.21043 160.02 8.92043 160.02C9.26043 160.02 9.55043 159.99 9.78043 159.97L38.8104 157.75C39.2204 160.82 40.3904 163.92 43.8004 163.92C47.4504 163.92 48.5704 160.3 48.9404 156.98L69.4304 155.41C69.8204 159.03 71.0104 162.89 74.8404 162.89C78.9004 162.89 80.0504 158.45 80.4104 154.57L93.7804 153.55C93.1404 154.8 92.6904 156.53 92.6704 158.91C92.6704 159.26 92.6704 159.73 92.6504 160.29C92.2904 186.42 94.2804 194.14 96.4504 197.36L96.4304 199.91C96.4304 200.11 96.4404 200.31 96.4704 200.51C96.7504 202.49 98.7204 206.24 104.14 206.28H104.26C107.82 206.28 109.81 204.83 110.82 203.29L113.84 205.44C115.47 216.55 117.07 224.06 118.69 228.29C118.69 228.42 118.69 228.56 118.69 228.72C118.68 234.87 119.12 240.93 122.02 244.46C122.06 245.16 122.18 245.91 122.43 246.63L83.4504 269.68C82.0404 270.5 77.9604 273.84 79.2904 284.72C80.1504 291.85 83.6504 292.92 85.6704 292.92C86.1504 292.92 86.5604 292.85 86.9004 292.77L123.65 284.98C123.71 285.28 123.76 285.59 123.82 285.9C124.11 287.42 124.37 288.65 124.61 289.55C124.93 290.79 125.78 294.07 129.08 294.1C132.42 294.1 133.29 290.82 133.62 289.59C133.86 288.69 134.14 287.46 134.44 285.95C134.5 285.64 134.56 285.34 134.62 285.03L171.3 293.14C171.64 293.23 172.07 293.31 172.57 293.31C174.57 293.31 178.05 292.25 178.97 285.16C180.39 274.31 176.34 270.92 174.94 270.09L136.16 246.71C136.42 245.99 136.54 245.25 136.59 244.55C139.52 241.04 140.01 234.99 140.06 228.84C140.06 228.69 140.06 228.55 140.06 228.41C141.72 224.19 143.38 216.7 145.11 205.6L148.15 203.47C149.16 205.04 151.17 206.52 154.81 206.52C160.23 206.52 162.23 202.79 162.53 200.81C162.56 200.61 162.58 200.41 162.58 200.21V197.66C164.79 194.46 166.84 186.76 166.7 160.63C166.7 160.06 166.7 159.6 166.7 159.24C166.7 156.85 166.27 155.12 165.64 153.87L179 155.01C179.32 158.91 180.44 163.37 184.53 163.37C188.33 163.37 189.55 159.55 189.97 155.94L210.45 157.68C210.79 161.02 211.89 164.67 215.56 164.67C218.94 164.67 220.14 161.6 220.57 158.54L249.58 161.01C249.82 161.04 250.13 161.07 250.5 161.07C253.19 161.07 256.51 159.47 257.8 154.99C257.8 154.96 257.81 154.94 257.82 154.91C259.69 147.85 259.51 142.43 257.3 138.8C255.98 136.63 254.11 135.47 252.7 135.06L179.87 110.34C179.29 110.14 178.73 109.89 178.19 109.59L151.64 94.7599V48.9099C151.64 41.3499 149.46 29.8199 146.21 20.2299C141.75 7.08994 136.42 0.439941 130.35 0.439941H130.31H130.32Z" fill="black"/>
</g>
<defs>
<clipPath id="clip0_464_7">
<rect width="258.69" height="293.63" fill="white" transform="translate(0.400391 0.439941)"/>
</clipPath>
</defs>
</svg>
