<svg width="218" height="242" viewBox="0 0 218 242" fill="none" xmlns="http://www.w3.org/2000/svg">
<g clip-path="url(#clip0_293_25)">
<path d="M109.37 240.27C108.75 240.27 108.19 240.04 107.76 239.6C106.76 238.58 106.72 236.78 106.73 236.43L106.49 221.62C105.97 221.5 105.57 221.29 105.26 220.97C104.77 220.46 104.75 219.9 104.76 219.74V218.79C104.76 218.79 104.72 218.81 104.7 218.81C104.36 218.96 70.7295 234.32 66.7095 236.05C65.6395 236.48 64.7795 236.69 64.0695 236.69C63.0995 236.69 62.5595 236.29 62.2795 235.96C61.7995 235.39 61.7995 234.71 61.8295 234.42L61.7895 228.57C61.7395 221.8 67.7595 218.08 68.4095 217.69C69.5595 216.87 95.1595 198.62 99.6995 195.36C99.7795 195.3 99.8195 195.21 99.7995 195.12C99.5095 193.78 99.2195 191.78 99.0595 190.64L92.7295 190.68C91.5095 190.68 90.4395 189.87 90.1095 188.71C89.6695 187.14 89.3095 184.86 89.0595 182.97C88.8195 183.13 88.5395 183.22 88.2495 183.22C88.1195 183.22 87.9995 183.2 87.8995 183.18L85.6095 183.2C84.7395 183.2 84.2495 182.84 83.9795 182.54C83.4695 181.97 83.4495 181.26 83.4695 181V180.73H83.3395C81.9795 180.73 81.3495 179.06 81.1895 178.54C77.8695 167.67 76.6795 149.51 79.8395 144.4L77.7295 144.63C74.9995 144.93 72.2895 145.53 69.6895 146.42L3.50953 169.07C3.32953 169.13 3.14953 169.16 2.95953 169.16C2.03953 169.16 1.27953 168.41 1.26953 167.48L1.19953 157.87C1.15953 151.64 5.03953 149.55 5.72953 149.23L92.3095 93.2998C92.9695 92.8698 93.3595 92.1498 93.3495 91.3698L93.0695 51.3398C92.9995 41.5998 94.8095 29.5598 97.8895 19.1398C99.7995 12.6798 103.73 1.8298 108.54 1.7998C116.03 1.7998 124.36 31.2598 124.36 51.2298V91.2598C124.36 92.0498 124.76 92.7598 125.42 93.1898L212.39 148.52C213.09 148.84 216.98 150.9 216.98 157.13V166.74C216.98 167.67 216.22 168.43 215.29 168.43C215.11 168.43 214.93 168.4 214.75 168.34L148.4 146.14C145.79 145.27 143.08 144.68 140.34 144.4L138.23 144.18C141.43 149.27 140.37 167.43 137.12 178.33C136.96 178.85 136.35 180.53 134.99 180.53H134.86V180.8C134.88 181.06 134.86 181.77 134.35 182.35C134.08 182.65 133.58 183.01 132.73 183.01H130.44C130.34 183.03 130.22 183.05 130.08 183.05C129.79 183.05 129.51 182.97 129.28 182.81C129.04 184.71 128.69 186.99 128.27 188.56C127.95 189.73 126.88 190.55 125.67 190.55H119.34C119.19 191.69 118.91 193.69 118.63 195.04C118.61 195.13 118.65 195.23 118.73 195.28C123.29 198.51 149.01 216.58 150.17 217.4C150.83 217.78 156.87 221.46 156.87 228.23V234.08C156.9 234.37 156.91 235.04 156.43 235.62C156.15 235.96 155.61 236.36 154.62 236.36C153.92 236.36 153.07 236.16 152.02 235.75C147.97 234.04 114.23 218.92 113.89 218.77C113.87 218.77 113.86 218.76 113.84 218.75V219.75C113.84 219.86 113.84 220.43 113.34 220.94C113.04 221.26 112.63 221.48 112.12 221.59L111.98 236.43C111.98 236.76 111.97 238.57 110.96 239.59C110.53 240.03 109.97 240.27 109.34 240.27H109.37ZM93.2695 142.91C93.3395 142.94 93.4095 142.97 93.4695 143V142.89L93.2695 142.91ZM124.63 142.89C124.69 142.86 124.76 142.83 124.83 142.8L124.63 142.78V142.89Z" fill="white"/>
<path d="M108.57 2.78975C114.99 2.78975 123.39 30.7997 123.39 51.2197V91.2497C123.39 92.3698 123.96 93.4198 124.91 94.0198L211.94 149.39C211.94 149.39 216.01 151.02 216.01 157.12V166.73C216.01 167.12 215.69 167.42 215.32 167.42C215.25 167.42 215.17 167.41 215.1 167.38L148.75 145.18C146.07 144.28 143.29 143.68 140.48 143.39L123.64 141.66V145.36H124.63C124.63 145.36 124.27 143.64 125.62 143.64H135.88C140.4 143.64 140.04 165.15 136.2 178.02C136.2 178.02 135.75 179.51 135.03 179.51H133.9V180.82C133.9 180.82 134.04 181.99 132.77 181.99H130.33C130.33 181.99 130.24 182.03 130.13 182.03C129.89 182.03 129.52 181.85 129.52 180.72V179.27H128.71C128.71 179.27 128.18 185.23 127.35 188.27C127.15 189.01 126.48 189.53 125.71 189.53H118.49C118.49 189.53 118.09 192.9 117.68 194.81C117.58 195.29 117.77 195.79 118.18 196.07C122.88 199.4 149.66 218.22 149.66 218.22C149.66 218.22 155.89 221.7 155.89 228.2V234.13C155.89 234.13 156.11 235.34 154.64 235.34C154.13 235.34 153.41 235.19 152.41 234.8C148.34 233.08 114.32 217.84 114.32 217.84L112.86 215.3V219.73C112.86 219.73 112.91 220.68 111.14 220.68V221.72L111 236.4C111 236.4 111.05 239.25 109.37 239.25C109.37 239.25 109.37 239.25 109.36 239.25C107.69 239.25 107.72 236.42 107.72 236.42L107.48 221.74V220.7C107.48 220.7 107.45 220.7 107.44 220.7C105.71 220.7 105.75 219.76 105.75 219.76L105.72 215.33L104.28 217.88C104.28 217.88 70.3697 233.36 66.3097 235.11C65.2997 235.52 64.5797 235.67 64.0697 235.67C62.6197 235.67 62.8297 234.46 62.8297 234.46C62.8297 234.36 62.8297 233.56 62.7897 228.54C62.7497 222.03 68.9597 218.51 68.9597 218.51C68.9597 218.51 95.6197 199.51 100.29 196.15C100.69 195.86 100.88 195.37 100.78 194.88C100.37 192.97 99.9397 189.61 99.9397 189.61L92.7197 189.66H92.7097C91.9497 189.66 91.2797 189.15 91.0697 188.42C90.2197 185.39 89.6497 179.43 89.6497 179.43H88.8397C88.8397 179.49 88.8397 179.75 88.8397 180.89C88.8397 182.02 88.4797 182.2 88.2397 182.2C88.1197 182.2 88.0397 182.16 88.0397 182.16C88.0397 182.16 86.8697 182.16 85.5997 182.18C85.5997 182.18 85.5997 182.18 85.5897 182.18C84.3397 182.18 84.4697 181.01 84.4697 181.01V179.7C84.4697 179.7 84.0497 179.7 83.3297 179.7C82.6097 179.7 82.1497 178.22 82.1497 178.22C78.2197 165.37 77.7097 143.87 82.2297 143.84C84.4397 143.82 91.1297 143.78 92.4897 143.77C92.4897 143.77 92.4897 143.77 92.4997 143.77C93.8397 143.77 93.4897 145.48 93.4897 145.48H94.4797L94.4497 141.77L77.6197 143.62C74.8097 143.93 72.0397 144.55 69.3597 145.46L3.17968 168.12C3.09968 168.15 3.02968 168.16 2.95968 168.16C2.58968 168.16 2.26968 167.87 2.26968 167.47L2.19968 157.86C2.15968 151.76 6.20968 150.11 6.20968 150.11L92.8597 94.1397C93.7997 93.5297 94.3697 92.4798 94.3597 91.3597L94.0797 51.3297C93.9397 30.9097 102.15 2.83975 108.56 2.79975M108.57 0.789746H108.56C103.38 0.829746 99.3897 10.6297 96.9597 18.8497C93.8497 29.3597 92.0297 41.5097 92.0997 51.3397L92.3797 91.3698C92.3797 91.8098 92.1597 92.2197 91.7897 92.4597L5.23968 148.36C4.21968 148.86 0.149675 151.29 0.199675 157.88L0.269675 167.49C0.279675 168.96 1.48968 170.16 2.95968 170.16C3.25968 170.16 3.54968 170.11 3.82968 170.01L70.0197 147.35C72.5497 146.48 75.1897 145.89 77.8497 145.6L78.2297 145.56C75.8697 152.47 77.1297 168.63 80.2397 178.8C80.4197 179.38 81.0597 181.08 82.5097 181.56C82.5797 182.04 82.7697 182.64 83.2497 183.17C83.8197 183.81 84.6597 184.16 85.6097 184.16L87.8197 184.14C87.9497 184.16 88.0897 184.18 88.2397 184.18C88.4797 185.84 88.7997 187.63 89.1697 188.95C89.6197 190.54 91.0797 191.65 92.7297 191.65L98.2097 191.61C98.3497 192.59 98.5397 193.8 98.7397 194.8C93.3197 198.69 69.3797 215.75 67.8897 216.82C66.9697 217.37 60.7597 221.36 60.8097 228.54L60.8497 234.34C60.7897 235 60.9397 235.86 61.5297 236.56C61.9497 237.06 62.7297 237.65 64.0897 237.65C64.9297 237.65 65.9097 237.42 67.0797 236.95C70.7397 235.37 97.4797 223.18 103.83 220.28C103.94 220.77 104.19 221.25 104.55 221.62C104.82 221.9 105.14 222.13 105.51 222.3L105.74 236.41C105.74 237.04 105.83 239.02 107.06 240.27C107.69 240.9 108.49 241.24 109.38 241.24C110.29 241.24 111.09 240.9 111.72 240.26C112.95 239.01 113.03 237.01 113.02 236.38L113.15 222.27C113.51 222.1 113.83 221.87 114.1 221.59C114.46 221.21 114.72 220.73 114.82 220.23C121.18 223.08 148.01 235.09 151.64 236.63C152.84 237.11 153.81 237.33 154.65 237.33C156.02 237.33 156.81 236.73 157.23 236.23C157.82 235.52 157.96 234.65 157.9 233.99V228.19C157.9 221.01 151.67 217.06 150.74 216.52C149.24 215.46 125.18 198.56 119.74 194.71C119.93 193.71 120.11 192.49 120.25 191.51H125.71C127.37 191.51 128.84 190.39 129.28 188.78C129.64 187.46 129.94 185.67 130.17 184.01C130.32 184.01 130.46 183.99 130.59 183.97H132.77C133.73 183.97 134.57 183.62 135.14 182.97C135.62 182.43 135.81 181.82 135.87 181.34C136.87 180.99 137.68 180.01 138.11 178.57C141.15 168.36 142.31 152.2 139.9 145.3L140.28 145.34C142.94 145.61 145.58 146.18 148.12 147.03L214.47 169.23C214.75 169.32 215.03 169.37 215.32 169.37C216.8 169.37 218.01 168.16 218.01 166.68V157.07C218.01 150.48 213.93 148.08 212.91 147.59L125.99 92.2897C125.62 92.0498 125.4 91.6497 125.4 91.2097V51.1797C125.4 41.3497 123.5 29.2197 120.31 18.7197C117.82 10.5197 113.76 0.739746 108.58 0.739746L108.57 0.789746Z" fill="black"/>
</g>
<defs>
<clipPath id="clip0_293_25">
<rect width="217.8" height="240.48" fill="white" transform="translate(0.200195 0.789795)"/>
</clipPath>
</defs>
</svg>
