<svg width="122" height="181" viewBox="0 0 122 181" fill="none" xmlns="http://www.w3.org/2000/svg">
<g clip-path="url(#clip0_583_12)">
<path d="M59.4392 179.765C58.9692 179.765 58.5492 179.505 58.3492 179.085C58.1392 178.665 58.1992 178.175 58.4892 177.805C58.9092 177.275 59.1992 176.905 59.4092 176.645C59.2092 176.155 59.0592 175.495 58.9192 174.675L35.7992 177.315C35.7992 177.315 35.6492 177.325 35.6092 177.325C34.6792 177.325 33.9192 176.565 33.9192 175.635V170.865C33.9192 170.405 34.0992 169.985 34.4192 169.665C34.5992 169.495 52.4892 151.875 55.3192 149.155C55.1792 146.355 53.9892 141.545 53.5092 139.715H52.2292C51.2692 139.715 50.6592 138.925 50.4992 138.185C50.4992 138.185 50.1592 136.815 49.9292 135.775C49.8792 135.545 49.7792 135.325 49.6492 135.125C48.6992 133.725 48.3792 130.195 48.2692 127.795H47.2692C46.7892 127.795 46.3592 127.535 46.1392 127.105C45.9192 126.685 45.9592 126.175 46.2292 125.785L48.1792 123.015V122.805L4.60922 132.595C4.43922 132.635 4.25922 132.655 4.07922 132.655C2.76922 132.655 1.69922 131.585 1.69922 130.275V118.045C1.69922 117.515 1.87922 116.985 2.20922 116.565L20.2092 93.7753C20.3992 93.5353 20.7692 93.3553 21.0792 93.3553C21.3892 93.3553 21.6692 93.4853 21.8692 93.6853C26.8192 87.7253 44.3792 66.5653 47.0892 63.4353C46.8392 61.6453 46.9092 57.8353 46.9092 57.6753C46.9092 57.4553 47.0892 52.5553 47.3592 49.8553C47.6192 47.3453 48.8392 46.9653 49.5392 46.9653C50.0492 46.9653 50.4192 47.1753 50.5292 47.2353C50.8192 47.4153 51.4092 47.6153 52.1392 47.7953C52.2392 46.5253 52.3892 44.4053 52.4992 42.6853C52.6492 40.1953 52.8692 39.2153 53.7292 38.9753C53.9192 31.5253 54.1892 23.4153 54.5192 18.9453C55.1992 9.83533 59.7392 1.21533 61.1992 1.21533C62.6592 1.21533 67.1992 9.83533 67.8792 18.9453C68.2092 23.4153 68.4792 31.5253 68.6692 38.9753C69.5392 39.2353 69.7492 40.2153 69.8992 42.6853C69.9992 44.4053 70.1592 46.5253 70.2592 47.7953C70.9892 47.6153 71.5792 47.4153 71.8592 47.2453C71.9692 47.1753 72.3492 46.9753 72.8492 46.9753C73.5492 46.9753 74.7692 47.3553 75.0292 49.8553C75.2992 52.5553 75.4692 57.4553 75.4792 57.6653C75.4792 57.8453 75.5492 61.6453 75.2892 63.4053C78.0192 66.5753 95.6092 87.7753 100.519 93.6853C100.719 93.4753 100.999 93.3553 101.309 93.3553C101.619 93.3553 101.989 93.5353 102.179 93.7753L120.179 116.565C120.509 116.985 120.689 117.515 120.689 118.045V130.275C120.689 131.595 119.619 132.655 118.309 132.655C118.129 132.655 117.959 132.635 117.779 132.595L74.2092 122.805V123.015L76.1592 125.785C76.4292 126.175 76.4692 126.675 76.2492 127.105C76.0292 127.525 75.5992 127.795 75.1192 127.795H74.1192C74.0092 130.195 73.6892 133.725 72.7392 135.125C72.5992 135.325 72.5092 135.545 72.4592 135.775C72.2292 136.825 71.8792 138.215 71.8792 138.215C71.7292 138.915 71.1192 139.715 70.1592 139.715H68.8792C68.3992 141.545 67.2092 146.345 67.0392 149.085C69.8992 151.865 87.7992 169.495 87.9692 169.665C88.2892 169.985 88.4692 170.405 88.4692 170.865V175.635C88.4692 176.565 87.7092 177.325 86.7792 177.325C86.7392 177.325 86.6292 177.325 86.5892 177.315L63.4692 174.675C63.3292 175.485 63.1792 176.145 62.9792 176.635C63.1892 176.895 63.4892 177.265 63.8992 177.795C64.1892 178.165 64.2392 178.655 64.0392 179.075C63.8292 179.495 63.4192 179.765 62.9492 179.765H59.4292H59.4392Z" fill="white"/>
<path d="M61.1992 2.2351C61.4592 2.2351 66.1592 9.3351 66.8792 19.0451C67.5992 28.7451 68.0092 55.4551 68.0092 55.4551H68.3092V39.9951C68.3092 39.9951 68.3292 39.9451 68.3492 39.9451C68.4992 39.9751 68.7392 40.2551 68.8892 42.7651C69.0292 45.0251 69.2492 47.9651 69.3192 48.7951C69.3192 48.9051 69.4192 48.9851 69.5192 48.9851C69.5292 48.9851 69.5492 48.9851 69.5592 48.9851C70.1292 48.8751 71.6392 48.5651 72.3792 48.1151C72.3792 48.1151 72.5792 47.9951 72.8492 47.9951C73.2792 47.9951 73.8692 48.3151 74.0292 49.9851C74.2992 52.6851 74.4792 57.7251 74.4792 57.7251C74.4792 57.7251 74.5492 61.5951 74.2992 63.2851C74.2592 63.5851 74.3392 63.8951 74.5392 64.1251C77.5092 67.5551 98.7892 93.2051 101.009 95.8851C101.029 95.9151 101.059 95.9251 101.089 95.9251C101.139 95.9251 101.199 95.8851 101.199 95.8151V94.4951C101.199 94.4251 101.249 94.3851 101.309 94.3851C101.339 94.3851 101.369 94.3951 101.389 94.4251L119.389 117.215C119.579 117.455 119.689 117.765 119.689 118.075V130.305C119.689 131.085 119.049 131.695 118.309 131.695C118.209 131.695 118.109 131.685 117.999 131.665L73.5892 121.685C73.5892 121.685 73.5392 121.685 73.5192 121.685C73.3492 121.685 73.2092 121.825 73.2092 121.995V123.305C73.2092 123.305 73.2192 123.395 73.2492 123.435L75.3392 126.405C75.4692 126.585 75.3392 126.825 75.1192 126.825H73.3792C73.2592 126.825 73.1492 126.925 73.1492 127.045C73.1092 128.155 72.8992 133.135 71.9092 134.595C71.6992 134.895 71.5592 135.235 71.4792 135.595C71.2492 136.635 70.9092 138.015 70.9092 138.015C70.9092 138.015 70.7492 138.755 70.1592 138.755H68.3192C68.1992 138.755 68.0892 138.835 68.0592 138.955C67.7492 140.095 66.2392 145.885 66.0392 149.065C66.0192 149.385 66.1492 149.695 66.3792 149.925C69.0292 152.465 85.2592 168.445 87.2692 170.425C87.3992 170.555 87.4692 170.725 87.4692 170.915V175.685C87.4692 176.065 87.1592 176.375 86.7792 176.375C86.7492 176.375 86.7292 176.375 86.6992 176.375L63.0692 173.675C63.0692 173.675 63.0292 173.675 63.0192 173.675C62.7992 173.675 62.5992 173.835 62.5692 174.065C62.4392 174.925 62.1192 176.745 61.7292 176.745C61.8792 176.895 62.6992 177.925 63.1292 178.475C63.2392 178.615 63.1292 178.825 62.9592 178.825H59.4392C59.2592 178.825 59.1592 178.615 59.2692 178.475C59.6992 177.925 60.5192 176.895 60.6692 176.745C60.2692 176.745 59.9492 174.925 59.8292 174.065C59.7992 173.835 59.5992 173.675 59.3792 173.675C59.3592 173.675 59.3392 173.675 59.3292 173.675L35.6992 176.375C35.6992 176.375 35.6492 176.375 35.6192 176.375C35.2492 176.375 34.9292 176.075 34.9292 175.685V170.915C34.9292 170.735 34.9992 170.555 35.1292 170.425C37.1392 168.445 53.3692 152.465 56.0192 149.925C56.2492 149.705 56.3792 149.395 56.3592 149.065C56.1592 145.885 54.6492 140.095 54.3392 138.955C54.3092 138.835 54.1992 138.755 54.0792 138.755H52.2392C51.6492 138.755 51.4892 138.015 51.4892 138.015C51.4892 138.015 51.1492 136.645 50.9092 135.595C50.8292 135.235 50.6792 134.905 50.4792 134.595C49.4892 133.135 49.2792 128.165 49.2392 127.045C49.2392 126.925 49.1292 126.825 49.0092 126.825H47.2692C47.0492 126.825 46.9192 126.575 47.0492 126.405L49.1392 123.435C49.1392 123.435 49.1792 123.355 49.1792 123.305V121.995C49.1792 121.815 49.0392 121.685 48.8692 121.685C48.8492 121.685 48.8192 121.685 48.7992 121.685L4.38922 131.665C4.28922 131.685 4.17922 131.695 4.07922 131.695C3.33922 131.695 2.69922 131.095 2.69922 130.305V118.075C2.69922 117.765 2.79922 117.465 2.99922 117.215L20.9992 94.4251C20.9992 94.4251 21.0492 94.3851 21.0792 94.3851C21.1292 94.3851 21.1892 94.4251 21.1892 94.4951V95.8151C21.1892 95.8851 21.2392 95.9251 21.2992 95.9251C21.3292 95.9251 21.3592 95.9151 21.3792 95.8851C23.5992 93.2051 44.8792 67.5551 47.8492 64.1251C48.0492 63.8951 48.1392 63.5851 48.0892 63.2851C47.8392 61.5951 47.9092 57.7251 47.9092 57.7251C47.9092 57.7251 48.0792 52.6851 48.3592 49.9851C48.5292 48.3151 49.1192 47.9951 49.5392 47.9951C49.7992 47.9951 50.0092 48.1151 50.0092 48.1151C50.7392 48.5751 52.2592 48.8851 52.8292 48.9851C52.8392 48.9851 52.8592 48.9851 52.8692 48.9851C52.9692 48.9851 53.0692 48.9051 53.0692 48.7951C53.1292 47.9651 53.3592 45.0251 53.4992 42.7651C53.6492 40.2551 53.8892 39.9751 54.0392 39.9451C54.0592 39.9451 54.0792 39.9651 54.0792 39.9951V55.4551H54.3792C54.3792 55.4551 54.7792 28.7451 55.5092 19.0451C56.2292 9.3451 60.9292 2.2351 61.1892 2.2351M61.1992 0.235098C60.4892 0.235098 59.2892 0.235098 56.6992 6.2051C55.4692 9.0351 53.9192 13.5251 53.5292 18.8951C53.1992 23.3151 52.9392 31.1151 52.7492 38.3851C51.7192 39.1651 51.6092 40.8651 51.5092 42.6551C51.4292 43.8851 51.3292 45.3251 51.2492 46.5051C51.1692 46.4751 51.1192 46.4451 51.0792 46.4251C50.8592 46.2951 50.2992 46.0051 49.5592 46.0051C48.9092 46.0051 46.7392 46.2751 46.3892 49.7851C46.1092 52.5251 45.9392 57.4451 45.9292 57.6551C45.9292 58.0651 45.8692 61.2351 46.0792 63.1351C42.7492 67.0251 27.2292 85.7151 21.6392 92.4451C21.4692 92.3951 21.2892 92.3751 21.0992 92.3751C20.4492 92.3751 19.8492 92.6651 19.4492 93.1751L1.42922 115.955C0.959219 116.555 0.699219 117.295 0.699219 118.055V130.285C0.699219 132.155 2.21922 133.675 4.07922 133.675C4.32922 133.675 4.57922 133.645 4.82922 133.595L46.0392 124.335L45.4092 125.225C44.9192 125.925 44.8592 126.825 45.2492 127.575C45.6392 128.325 46.4092 128.795 47.2592 128.795H47.3092C47.4792 131.435 47.8792 134.315 48.8092 135.685C48.8792 135.785 48.9192 135.885 48.9492 135.995C49.1692 136.985 49.4892 138.255 49.5292 138.445C49.7792 139.545 50.7292 140.725 52.2292 140.725H52.7392C53.4192 143.415 54.1392 146.685 54.3292 148.735C51.0192 151.935 36.6592 166.065 33.7292 168.955C33.2092 169.465 32.9292 170.145 32.9292 170.865V175.635C32.9292 177.115 34.1392 178.325 35.6192 178.325C35.7192 178.325 35.8192 178.325 35.9192 178.305L58.1092 175.775C58.1592 176.005 58.2192 176.235 58.2792 176.455C58.1192 176.655 57.9292 176.895 57.6992 177.185C57.1692 177.855 57.0692 178.755 57.4492 179.525C57.8192 180.295 58.5892 180.775 59.4392 180.775H62.9592C63.8192 180.775 64.5792 180.295 64.9492 179.525C65.3192 178.755 65.2292 177.865 64.6992 177.185C64.4792 176.895 64.2792 176.655 64.1192 176.455C64.1892 176.235 64.2392 176.005 64.2892 175.775L86.4792 178.305C86.5792 178.315 86.6892 178.325 86.7892 178.325C88.2692 178.325 89.4792 177.115 89.4792 175.635V170.865C89.4792 170.145 89.1992 169.465 88.6792 168.955C85.7392 166.065 71.3792 151.925 68.0692 148.725C68.2592 146.665 68.9792 143.405 69.6592 140.715H70.1692C71.6692 140.715 72.6092 139.545 72.8692 138.435C72.9092 138.255 73.2292 136.975 73.4492 135.985C73.4692 135.875 73.5192 135.775 73.5892 135.675C74.5192 134.305 74.9192 131.425 75.0892 128.785H75.1392C75.9892 128.785 76.7592 128.315 77.1492 127.555C77.5392 126.795 77.4792 125.895 76.9892 125.205L76.3592 124.315L117.569 133.575C117.819 133.635 118.069 133.655 118.319 133.655C120.179 133.655 121.699 132.135 121.699 130.265V118.035C121.699 117.275 121.439 116.535 120.969 115.935L102.969 93.1451C102.569 92.6351 101.969 92.3451 101.319 92.3451C101.129 92.3451 100.949 92.3651 100.779 92.4151C95.1992 85.6851 79.6692 66.9851 76.3392 63.1051C76.5392 61.2051 76.4892 58.0451 76.4892 57.6651C76.4892 57.4251 76.3092 52.4951 76.0292 49.7651C75.6692 46.2551 73.5092 45.9851 72.8592 45.9851C72.1192 45.9851 71.5592 46.2751 71.3492 46.3951C71.3092 46.4251 71.2492 46.4551 71.1592 46.4851C71.0692 45.3051 70.9692 43.8651 70.8992 42.6351C70.7892 40.8551 70.6892 39.1551 69.6592 38.3751C69.4692 31.1051 69.2092 23.3051 68.8792 18.8851C68.4792 13.5151 66.9292 9.0251 65.7092 6.1951C63.1192 0.225098 61.9192 0.225098 61.2092 0.225098L61.1992 0.235098Z" fill="black"/>
</g>
<defs>
<clipPath id="clip0_583_12">
<rect width="121" height="180.53" fill="white" transform="translate(0.699219 0.234863)"/>
</clipPath>
</defs>
</svg>
