<svg width="199" height="209" viewBox="0 0 199 209" fill="none" xmlns="http://www.w3.org/2000/svg">
<g clip-path="url(#clip0_291_20)">
<path d="M135.94 207.09C135.61 207.09 135.25 207.03 134.88 206.91C134.84 206.9 134.8 206.88 134.76 206.86L104.86 193.04C104.76 193.39 104.59 193.75 104.33 194.03C104.17 194.21 103.98 194.35 103.77 194.45C103.33 196.85 102.73 200.11 100.68 200.11C100.16 200.11 99.82 200.04 99.56 199.93C99.3 200.04 98.96 200.11 98.44 200.11C96.39 200.11 95.79 196.85 95.35 194.45C95.14 194.35 94.95 194.21 94.79 194.03C94.53 193.74 94.36 193.39 94.26 193.04L64.36 206.86C64.36 206.86 64.28 206.89 64.24 206.91C63.87 207.03 63.51 207.09 63.18 207.09C61.68 207.09 61.05 205.93 60.92 205.32C60.91 205.26 60.9 205.19 60.9 205.12V196.42C60.9 192.24 64.42 189.77 64.57 189.67C64.57 189.67 88.61 172.01 90 170.99C90.21 170.84 90.26 170.73 90.26 170.7C90.26 170.64 90.2 170.52 90.13 170.44L85.79 167.64C85.5 167.46 85.33 167.14 85.33 166.8V165.21H81.79C79.66 165.21 79.41 163.65 79.29 162.9C79.27 162.79 79.25 162.67 79.23 162.56C76.53 152.19 76.69 140.27 76.75 136.35C76.75 135.92 76.76 135.58 76.76 135.34C76.76 132.55 79.06 131.65 80.28 131.57H85.72C86.8 131.57 87.55 131.89 88.05 132.33C87.73 131.22 87.53 130.13 87.4 129.25C87.3 128.58 86.72 128.08 86.04 128.08C85.99 128.08 85.93 128.08 85.88 128.08L63 130.75C53.34 133.65 6.25997 147.78 4.33997 147.78C3.72997 147.78 2.85997 147.71 2.30997 147.09C1.78997 146.51 1.87997 145.8 1.92997 145.43C1.92997 145.37 1.94997 145.31 1.94997 145.26C1.94997 133.75 7.95997 130.93 8.77997 130.6L60.05 103.3L85.13 85.7498C85.53 85.4698 85.77 85.0098 85.77 84.5198V49.2598C85.77 25.9298 96 1.78979 99.54 1.78979C103.08 1.78979 113.31 25.9298 113.31 49.2598V84.5198C113.31 85.0098 113.55 85.4698 113.95 85.7498L139.03 103.3L190.3 130.6C191.12 130.93 197.13 133.74 197.13 145.26C197.13 145.31 197.14 145.37 197.15 145.43C197.2 145.81 197.29 146.51 196.77 147.09C196.22 147.71 195.35 147.78 194.74 147.78C192.82 147.78 145.74 133.66 136.08 130.75L113.2 128.08C113.15 128.08 113.09 128.08 113.04 128.08C112.36 128.08 111.78 128.58 111.68 129.25C111.55 130.13 111.35 131.22 111.03 132.33C111.53 131.89 112.28 131.56 113.36 131.56H118.73C120.02 131.65 122.32 132.55 122.32 135.34C122.32 135.59 122.32 135.93 122.33 136.35C122.38 140.27 122.54 152.2 119.83 162.62C119.83 162.68 119.8 162.79 119.78 162.91C119.66 163.66 119.41 165.22 117.28 165.22H113.74V166.81C113.74 167.15 113.57 167.47 113.28 167.65L108.94 170.46C108.88 170.54 108.81 170.66 108.81 170.72C108.81 170.75 108.86 170.85 109.07 171.01C110.46 172.03 134.53 189.71 134.53 189.71C134.65 189.79 138.18 192.26 138.18 196.44V205.14C138.18 205.21 138.18 205.27 138.16 205.34C138.04 205.95 137.41 207.11 135.9 207.11L135.94 207.09Z" fill="white"/>
<path d="M99.5509 2.78978C101.861 2.78978 112.321 25.4198 112.321 49.2598V84.5198C112.321 85.3398 112.721 86.0998 113.391 86.5698L138.521 104.15L189.891 131.5C189.891 131.5 196.141 133.72 196.141 145.25C196.141 145.81 196.631 146.78 194.751 146.78C192.871 146.78 136.291 129.77 136.291 129.77L113.321 127.09C113.231 127.08 113.131 127.07 113.041 127.07C111.881 127.07 110.861 127.92 110.691 129.1C110.471 130.62 110.051 132.63 109.261 134.21C109.401 134.26 109.601 134.28 109.811 134.28C110.411 134.28 111.151 134.13 111.151 134.13C111.151 134.13 111.241 132.56 113.371 132.56H118.741C118.741 132.56 121.331 132.75 121.331 135.34C121.331 137.93 121.841 150.98 118.881 162.37C118.691 163.3 118.791 164.22 117.311 164.22H112.771V166.81L108.331 169.68C108.331 169.68 107.131 170.79 108.521 171.81C109.911 172.83 133.981 190.51 133.981 190.51C133.981 190.51 137.221 192.73 137.221 196.43V205.13C137.221 205.13 137.031 206.09 135.951 206.09C135.731 206.09 135.481 206.05 135.191 205.96L104.021 191.55C104.021 191.55 104.211 193.66 102.911 193.66C102.631 195.05 102.081 199.12 100.691 199.12C99.6709 199.12 99.8909 198.84 99.5709 198.84C99.2509 198.84 99.4709 199.12 98.4509 199.12C97.0609 199.12 96.5109 195.05 96.2309 193.66C94.9309 193.66 95.1209 191.55 95.1209 191.55L63.9509 205.96C63.6609 206.05 63.4009 206.09 63.1909 206.09C62.1109 206.09 61.9209 205.13 61.9209 205.13V196.43C61.9209 192.73 65.1609 190.51 65.1609 190.51C65.1609 190.51 89.2309 172.83 90.6209 171.81C92.0109 170.79 90.8109 169.68 90.8109 169.68L86.3709 166.81V164.22H81.8309C80.3509 164.22 80.4409 163.29 80.2609 162.37C77.3009 150.98 77.8109 137.93 77.8109 135.34C77.8109 132.75 80.4009 132.56 80.4009 132.56H85.7709C87.9009 132.56 87.9909 134.13 87.9909 134.13C87.9909 134.13 88.7209 134.28 89.3309 134.28C89.5409 134.28 89.7409 134.26 89.8809 134.21C89.0909 132.63 88.6709 130.62 88.4509 129.1C88.2809 127.92 87.2609 127.07 86.1009 127.07C86.0109 127.07 85.9109 127.07 85.8209 127.09L62.8509 129.77C62.8509 129.77 6.22094 146.78 4.34094 146.78C2.46094 146.78 2.95094 145.81 2.95094 145.25C2.95094 133.73 9.20094 131.5 9.20094 131.5L60.5709 104.15L85.7009 86.5698C86.3709 86.0998 86.7709 85.3398 86.7709 84.5198V49.2598C86.7709 25.4198 97.2309 2.78978 99.5409 2.78978M99.5509 0.789775C98.2709 0.789775 96.9709 1.63978 94.8109 5.76978C93.3409 8.57978 91.7709 12.3698 90.4009 16.4498C88.3009 22.6998 84.7809 35.2598 84.7809 49.2598V84.5198C84.7809 84.6798 84.7009 84.8398 84.5709 84.9298L59.5409 102.44L8.36094 129.69C7.18094 130.2 0.980935 133.42 0.970935 145.21V145.3C0.900935 145.76 0.770935 146.83 1.58094 147.75C2.49094 148.78 3.90094 148.78 4.36094 148.78C6.24094 148.78 41.9709 138.13 63.2209 131.74L86.0109 129.08C86.2109 129.08 86.3909 129.19 86.4209 129.39C86.4809 129.82 86.5509 130.23 86.6309 130.63C86.3509 130.58 86.0509 130.56 85.7309 130.56H80.3609C80.3609 130.56 80.2609 130.56 80.2209 130.56C78.4309 130.69 75.7709 132.06 75.7709 135.33C75.7709 135.57 75.7709 135.91 75.7609 136.33C75.7109 140.28 75.5409 152.26 78.2709 162.8C78.2909 162.89 78.3009 162.97 78.3109 163.05C78.4309 163.83 78.8109 166.2 81.7909 166.2H84.3309V166.79C84.3309 167.47 84.6709 168.1 85.2409 168.47L88.6909 170.7C84.4009 173.85 64.5909 188.4 63.9609 188.87C63.5209 189.18 59.8909 191.9 59.8909 196.42V205.12C59.8909 205.25 59.9009 205.38 59.9309 205.51C60.1809 206.75 61.3009 208.08 63.1709 208.08C63.6009 208.08 64.0609 208 64.5309 207.86C64.6109 207.83 64.6909 207.8 64.7709 207.77L93.7809 194.37C93.8609 194.49 93.9509 194.61 94.0509 194.72C94.1709 194.85 94.3009 194.97 94.4409 195.08C94.9209 197.65 95.7109 201.13 98.4309 201.13C98.8609 201.13 99.2309 201.09 99.5509 201.01C99.8809 201.09 100.241 201.13 100.671 201.13C103.401 201.13 104.191 197.65 104.661 195.08C104.801 194.97 104.931 194.85 105.051 194.72C105.151 194.61 105.241 194.49 105.321 194.37L134.331 207.77C134.411 207.81 134.491 207.84 134.571 207.86C135.041 208.01 135.501 208.08 135.931 208.08C137.801 208.08 138.921 206.75 139.171 205.51C139.201 205.38 139.211 205.25 139.211 205.12V196.42C139.211 191.91 135.581 189.18 135.141 188.87C134.511 188.41 114.611 173.79 110.411 170.7L113.861 168.47C114.431 168.1 114.771 167.47 114.771 166.79V166.2H117.311C120.291 166.2 120.671 163.83 120.791 163.04C120.801 162.96 120.821 162.87 120.831 162.79C123.561 152.25 123.401 140.26 123.341 136.32C123.341 135.9 123.331 135.56 123.331 135.32C123.331 132.05 120.671 130.68 118.881 130.55C118.831 130.55 118.791 130.55 118.741 130.55H113.371C113.051 130.55 112.751 130.57 112.471 130.62C112.551 130.22 112.621 129.81 112.681 129.38C112.711 129.17 112.891 129.06 113.051 129.06L135.891 131.72C157.151 138.11 192.871 148.76 194.751 148.76C195.211 148.76 196.621 148.76 197.531 147.73C198.341 146.81 198.211 145.74 198.151 145.28V145.19C198.121 133.41 191.931 130.18 190.751 129.67L139.571 102.42L114.541 84.9098C114.411 84.8198 114.331 84.6598 114.331 84.4998V49.2398C114.331 35.2398 110.811 22.6798 108.711 16.4298C107.341 12.3498 105.771 8.55978 104.301 5.74978C102.141 1.61978 100.841 0.769775 99.5609 0.769775L99.5509 0.789775Z" fill="black"/>
</g>
<defs>
<clipPath id="clip0_291_20">
<rect width="197.3" height="207.3" fill="white" transform="translate(0.900391 0.789795)"/>
</clipPath>
</defs>
</svg>
