<svg width="135" height="138" viewBox="0 0 135 138" fill="none" xmlns="http://www.w3.org/2000/svg">
<g clip-path="url(#clip0_274_12)">
<path d="M67.3995 136.51C66.8995 136.51 66.4695 136.31 66.1795 135.96C65.7695 135.46 65.7895 134.82 65.8295 134.51L65.3895 124.87C64.8995 125.55 64.2495 126.08 63.4795 126.44C59.3995 128.31 45.9795 134.46 44.4695 134.99C44.0695 135.13 43.6995 135.2 43.3595 135.2C41.9595 135.2 41.3795 134.08 41.3295 133.34V126.91C41.3295 124.21 43.9495 122.67 44.0595 122.6C50.4395 118.32 59.8595 111.98 62.2895 110.28C61.7095 108.43 61.3795 106.07 61.1595 104.44C61.1295 104.23 61.0995 104.02 61.0795 103.83C58.9595 103.82 56.9595 103.58 55.8495 103.43L55.6895 103.95C55.4995 104.59 54.9195 105.03 54.2395 105.03H52.2495C51.4595 105.03 50.8095 104.43 50.7495 103.64C50.5295 101.06 50.0495 97.8198 49.8295 96.3698C49.2595 96.1298 48.8995 95.4498 48.6195 94.7698C48.5895 94.7098 48.5695 94.6398 48.5595 94.5798C47.7095 90.3998 47.9395 85.1998 48.1295 82.6898C40.8195 84.7898 7.33952 94.4198 4.79952 95.1298C4.19952 95.2998 3.67952 95.3798 3.21952 95.3798C2.22952 95.3798 1.68952 94.9798 1.40952 94.6398C0.959516 94.0898 0.969516 93.4598 0.999516 93.1798V87.9698C0.999516 85.5598 2.76952 84.3098 3.78952 83.9498L33.4695 68.6498C38.0295 66.2998 42.4395 63.5598 46.5695 60.5098L57.7495 52.2698C57.6795 48.8498 57.3395 30.3598 57.7595 25.2798C58.2095 19.9098 59.2695 16.5398 61.1995 10.4298L61.4695 9.57982C62.6395 5.86982 64.0995 3.82982 65.1195 2.77982C65.7195 2.15982 66.5195 1.81982 67.3795 1.81982C68.2395 1.81982 69.0395 2.15982 69.6395 2.77982C70.6595 3.82982 72.1195 5.86982 73.2895 9.57982L73.5595 10.4298C75.4895 16.5398 76.5595 19.9098 76.9995 25.2798C77.4195 30.3598 77.0795 48.8498 77.0095 52.2698L88.1895 60.5098C92.3195 63.5498 96.7295 66.2898 101.29 68.6498L130.97 83.9498C131.98 84.3098 133.76 85.5598 133.76 87.9698V93.1798C133.79 93.4598 133.8 94.0898 133.35 94.6398C133.07 94.9798 132.54 95.3798 131.54 95.3798C131.079 95.3798 130.57 95.2998 129.96 95.1298C127.42 94.4198 93.9495 84.7898 86.6295 82.6898C86.8195 85.1898 87.0495 90.3998 86.1995 94.5798C86.1895 94.6498 86.1695 94.7098 86.1395 94.7698C85.8595 95.4398 85.4895 96.1298 84.9295 96.3698C84.7095 97.8198 84.2195 101.06 84.0095 103.64C83.9495 104.42 83.2895 105.02 82.5095 105.02H80.5195C79.8495 105.02 79.2695 104.59 79.0695 103.94L78.9095 103.42C77.7995 103.58 75.7895 103.81 73.6795 103.82C73.6495 104.01 73.6295 104.21 73.5995 104.43C73.3795 106.06 73.0595 108.42 72.4695 110.27C74.8995 111.97 84.3195 118.31 90.7595 122.62C90.8095 122.65 93.4395 124.19 93.4395 126.89V133.25C93.3895 134.06 92.8095 135.18 91.4095 135.18C91.0695 135.18 90.6995 135.11 90.2995 134.97C88.7795 134.44 75.3595 128.29 71.2895 126.42C70.5195 126.07 69.8695 125.53 69.3795 124.85L68.9395 134.49C68.9795 134.8 68.9995 135.44 68.5895 135.94C68.2995 136.3 67.8695 136.49 67.3695 136.49L67.3995 136.51Z" fill="white"/>
<path d="M67.3997 2.83983C67.9597 2.83983 68.5197 3.05983 68.9397 3.49983C69.9397 4.53983 71.2697 6.45983 72.3597 9.90983C74.4197 16.4498 75.5697 19.8898 76.0297 25.3898C76.4897 30.8898 76.0297 52.7898 76.0297 52.7898L87.6297 61.3398C91.8197 64.4298 96.2497 67.1798 100.87 69.5598L130.61 84.8998C130.61 84.8998 132.79 85.5898 132.79 87.9998V93.2698C132.79 93.2698 133.02 94.3998 131.57 94.3998C131.23 94.3998 130.81 94.3398 130.26 94.1898C127.39 93.3898 85.5397 81.3498 85.5397 81.3498C85.5397 81.3498 86.3697 88.8898 85.2497 94.4098C84.8397 95.3898 84.5897 95.4898 84.5097 95.4898C84.4897 95.4898 84.4797 95.4898 84.4797 95.4898H84.0897C84.0897 95.4898 83.3297 100.11 83.0397 103.59C83.0197 103.85 82.7997 104.06 82.5297 104.06H80.5397C80.3197 104.06 80.1197 103.91 80.0497 103.7L79.6397 102.34C79.6397 102.34 76.6397 102.86 73.5197 102.86C73.2997 102.86 73.0697 102.86 72.8497 102.86C72.5897 104.24 72.2497 108.28 71.2997 110.69C72.2497 111.46 90.2197 123.5 90.2197 123.5C90.2197 123.5 92.4597 124.79 92.4597 126.94V133.3C92.4597 133.3 92.3997 134.23 91.4297 134.23C91.2197 134.23 90.9597 134.19 90.6497 134.08C89.1897 133.57 75.7197 127.4 71.7197 125.56C70.9897 125.23 70.3897 124.68 69.9897 123.99L68.5397 121.52L67.9397 134.59C67.9397 134.59 68.1397 135.54 67.3797 135.54C66.6197 135.54 66.8197 134.59 66.8197 134.59L66.2197 121.52L64.7697 123.99C64.3697 124.68 63.7597 125.23 63.0397 125.56C59.0497 127.39 45.5797 133.57 44.1097 134.08C43.7997 134.19 43.5497 134.23 43.3297 134.23C42.3597 134.23 42.2997 133.3 42.2997 133.3V126.94C42.2997 124.79 44.5397 123.5 44.5397 123.5C44.5397 123.5 62.5097 111.46 63.4597 110.69C62.5097 108.28 62.1697 104.24 61.9097 102.86C61.6897 102.86 61.4597 102.86 61.2397 102.86C58.1097 102.86 55.1197 102.34 55.1197 102.34L54.7097 103.7C54.6497 103.92 54.4497 104.06 54.2197 104.06H52.2297C51.9597 104.06 51.7497 103.86 51.7197 103.59C51.4297 100.1 50.6697 95.4898 50.6697 95.4898H50.2797C50.2797 95.4898 50.2697 95.4898 50.2497 95.4898C50.1697 95.4898 49.9197 95.3898 49.5097 94.4098C48.3897 88.8898 49.2197 81.3498 49.2197 81.3498C49.2197 81.3498 7.36967 93.3898 4.49967 94.1898C3.95967 94.3398 3.52967 94.3998 3.18967 94.3998C1.74967 94.3998 1.96967 93.2698 1.96967 93.2698V87.9998C1.96967 85.5898 4.14967 84.8998 4.14967 84.8998L33.8897 69.5598C38.5097 67.1798 42.9397 64.4298 47.1297 61.3398L58.7297 52.7898C58.7297 52.7898 58.2697 30.8898 58.7297 25.3898C59.1897 19.8898 60.3397 16.4498 62.3997 9.90983C63.4897 6.45983 64.8097 4.53983 65.8197 3.49983C66.2397 3.05983 66.7997 2.83983 67.3597 2.83983M67.3997 0.839834C66.2697 0.839834 65.2097 1.28983 64.4197 2.10983C62.8297 3.75983 61.5197 6.17983 60.5397 9.29983L60.2697 10.1398C58.3797 16.1198 57.2397 19.7298 56.7797 25.2098C56.3697 30.1198 56.6697 47.3198 56.7497 51.7898L45.9897 59.7198C41.8997 62.7398 37.5397 65.4398 33.0197 67.7698L3.39967 83.0498C2.12967 83.5298 0.0196726 85.0798 0.0196726 87.9898V93.1398C-0.0403274 93.7798 0.0996726 94.6098 0.659673 95.2898C1.06967 95.7898 1.85967 96.3998 3.23967 96.3998C3.78967 96.3998 4.38967 96.3098 5.08967 96.1098C7.49967 95.4398 37.6697 86.7598 47.0597 84.0598C46.9097 86.8698 46.8697 91.1898 47.5997 94.7998C47.6297 94.9298 47.6697 95.0598 47.7197 95.1798C47.8897 95.5898 48.2597 96.4498 48.9397 96.9898C49.1797 98.5698 49.5897 101.43 49.7897 103.74C49.8997 105.05 50.9697 106.04 52.2897 106.04H54.2797C55.2897 106.04 56.1797 105.45 56.5797 104.54C57.5597 104.66 58.8497 104.78 60.2397 104.83C60.4397 106.27 60.7097 108.19 61.1697 109.88C58.0697 112.02 49.2897 117.93 43.5297 121.78C42.9797 122.11 40.3597 123.86 40.3597 126.91V133.27C40.3597 133.27 40.3597 133.35 40.3597 133.39C40.4397 134.75 41.5297 136.19 43.3797 136.19C43.8297 136.19 44.3197 136.1 44.8197 135.93C46.2597 135.42 57.4097 130.33 63.9197 127.34C64.1297 127.25 64.3197 127.14 64.5097 127.03L64.8497 134.47C64.7997 134.97 64.8197 135.84 65.4197 136.58C65.8997 137.18 66.6097 137.5 67.4097 137.5C68.2097 137.5 68.9197 137.17 69.3997 136.58C69.9997 135.84 70.0197 134.97 69.9697 134.47L70.3097 127.03C70.4997 127.15 70.6997 127.25 70.8997 127.34C77.4097 130.33 88.5597 135.42 89.9997 135.93C90.4997 136.11 90.9897 136.19 91.4397 136.19C93.2897 136.19 94.3797 134.75 94.4597 133.39C94.4597 133.35 94.4597 133.31 94.4597 133.27V126.91C94.4597 123.86 91.8397 122.11 91.2897 121.78C85.5297 117.92 76.7597 112.02 73.6497 109.87C74.0997 108.18 74.3797 106.26 74.5797 104.82C75.9697 104.77 77.2697 104.65 78.2397 104.53C78.6397 105.44 79.5197 106.03 80.5397 106.03H82.5297C83.8497 106.03 84.9197 105.04 85.0297 103.73C85.2197 101.42 85.6297 98.5598 85.8797 96.9798C86.5597 96.4398 86.9197 95.5798 87.0997 95.1698C87.1497 95.0498 87.1897 94.9198 87.2197 94.7898C87.9497 91.1898 87.8997 86.8598 87.7597 84.0498C97.1497 86.7498 127.32 95.4298 129.73 96.0998C130.42 96.2898 131.02 96.3898 131.58 96.3898C132.96 96.3898 133.74 95.7898 134.16 95.2798C134.72 94.5998 134.86 93.7698 134.8 93.1298V87.9798C134.8 85.0698 132.69 83.5298 131.42 83.0398L101.8 67.7598C97.2797 65.4298 92.9197 62.7198 88.8297 59.7098L78.0697 51.7798C78.1597 47.3098 78.4497 30.1198 78.0397 25.1998C77.5797 19.7198 76.4397 16.1098 74.5497 10.1298L74.2797 9.28983C73.2897 6.15983 71.9897 3.73983 70.3997 2.09983C69.6097 1.27983 68.5497 0.829834 67.4197 0.829834L67.3997 0.839834Z" fill="black"/>
</g>
<defs>
<clipPath id="clip0_274_12">
<rect width="134.8" height="136.67" fill="white" transform="translate(0 0.839844)"/>
</clipPath>
</defs>
</svg>
