<svg width="146" height="174" viewBox="0 0 146 174" fill="none" xmlns="http://www.w3.org/2000/svg">
<path d="M73.1738 172.53C73.1044 172.53 73.0437 172.53 72.9744 172.5C72.4801 172.43 72.168 172.15 72.0033 171.91C71.6824 171.48 71.6391 170.97 71.6391 170.71L69.9917 157.64C69.9223 157.68 69.8616 157.72 69.7922 157.75C67.3384 159.11 59.5435 163.04 53.292 166.2C48.8006 168.47 44.9161 170.43 44.3178 170.78C44.1097 170.9 43.9017 170.96 43.6936 170.96C43.3641 170.96 43.0606 170.81 42.8265 170.53C42.3496 169.96 42.3149 168.95 42.3323 168.49C42.2976 167.92 42.0375 163.41 42.0375 160.87C42.0375 157.69 44.4999 155.94 44.604 155.86C51.2717 150.19 63.6881 139.62 66.2546 137.38C65.7777 135.25 65.535 133.44 65.3355 131.96C65.3008 131.71 65.2662 131.47 65.2401 131.24C64.7546 131.24 64.1737 131.24 63.5841 131.24H61.4944C61.1736 131.24 60.7401 131.24 60.7401 131.24C60.5146 131.24 60.2979 131.14 60.1331 130.95C59.9684 130.76 59.873 130.51 59.873 130.24V128.76L58.8412 128.74C58.3643 129.94 57.714 130.16 57.4972 130.2C57.4539 130.2 57.4019 130.21 57.3498 130.21C56.9337 130.21 56.5435 129.96 56.188 129.46C54.9394 127.67 53.5348 121.6 53.8989 117.49C53.3613 117.16 53.0058 116.36 52.7717 115.72C52.7457 115.65 52.7284 115.58 52.7197 115.51C51.922 110.35 51.818 105.65 51.8266 103.37C44.4739 106.17 6.45308 120.64 3.6698 121.63C3.51372 121.68 3.36632 121.71 3.21025 121.71C2.26515 121.71 1.75358 120.72 1.6582 119.75C1.6582 119.67 1.6582 119.58 1.6582 119.5C1.6582 119.45 2.29983 114.36 2.29983 111.5C2.29983 108.03 4.78831 106.15 4.89236 106.07C5.29988 105.77 46.13 75.1198 51.2023 71.3398L63.0378 62.3598C62.9684 58.5698 62.6129 37.4398 63.0725 31.1698C63.5494 24.5798 64.6852 20.4398 66.7402 12.9198L67.0263 11.8698C68.2055 7.57982 69.6795 5.20982 70.8414 3.62982C71.8125 2.30982 72.7663 1.90982 72.879 1.86982C72.9657 1.83982 73.0611 1.81982 73.1565 1.81982C73.2518 1.81982 73.3992 1.83982 73.4859 1.86982C73.59 1.90982 74.5524 2.30982 75.5236 3.62982C76.6854 5.20982 78.1594 7.57982 79.3386 11.8698L79.6248 12.8998C81.6884 20.4198 82.8242 24.5698 83.3011 31.1698C83.752 37.4398 83.4052 58.5698 83.3358 62.3598L95.1799 71.3498C100.244 75.1298 141.074 105.77 141.49 106.08C141.594 106.15 144.082 108.03 144.082 111.5C144.082 114.36 144.724 119.45 144.724 119.5C144.733 119.58 144.733 119.67 144.724 119.75C144.637 120.73 144.117 121.71 143.172 121.71C143.025 121.71 142.869 121.68 142.712 121.63C139.929 120.64 101.908 106.17 94.5556 103.37C94.5643 105.65 94.4689 110.35 93.6626 115.51C93.6539 115.58 93.6366 115.65 93.6105 115.72C93.3764 116.36 93.0296 117.15 92.4834 117.48C92.8475 121.6 91.4429 127.66 90.1943 129.45C89.8475 129.95 89.4573 130.2 89.0324 130.2C88.9804 130.2 88.9371 130.2 88.885 130.19C88.6683 130.15 88.0266 129.92 87.5411 128.73L86.5179 128.75V130.23C86.5179 130.5 86.4226 130.75 86.2492 130.94C86.0844 131.12 85.8676 131.23 85.6422 131.23C85.6422 131.23 85.2087 131.23 84.8879 131.23H82.7982C82.2173 131.23 81.6364 131.23 81.1421 131.23C81.1075 131.46 81.0814 131.7 81.0468 131.96C80.8473 133.44 80.6046 135.24 80.1277 137.37C82.6942 139.61 95.1106 150.18 101.839 155.9C101.882 155.92 104.345 157.68 104.345 160.86C104.345 163.4 104.085 167.91 104.05 168.48C104.059 168.94 104.033 169.95 103.556 170.52C103.322 170.8 103.018 170.95 102.689 170.95C102.481 170.95 102.273 170.89 102.064 170.77C101.466 170.42 97.5817 168.46 93.0816 166.19C86.8301 163.03 79.0438 159.1 76.5727 157.73C76.512 157.7 76.4513 157.67 76.3906 157.64L74.7432 170.71C74.7432 170.98 74.6998 171.48 74.379 171.91C74.2056 172.14 73.9021 172.42 73.3992 172.5C73.3385 172.52 73.2692 172.53 73.2085 172.53H73.1565H73.1738Z" fill="white"/>
<path d="M73.2259 2.83984C73.2259 2.83984 74.0322 3.14984 74.8733 4.29984C75.8704 5.65984 77.3618 7.93984 78.5237 12.1998C80.726 20.2498 81.9572 24.4898 82.4428 31.2698C82.937 38.0498 82.4601 62.9098 82.4601 62.9098L94.7031 72.1998C99.8275 76.0198 141.013 106.93 141.013 106.93C141.013 106.93 143.207 108.55 143.207 111.52C143.207 114.49 143.857 119.67 143.857 119.67C143.857 119.67 143.762 120.73 143.172 120.73C143.111 120.73 143.042 120.72 142.973 120.69C139.929 119.61 93.6713 101.99 93.6713 101.99C93.6713 101.99 93.9141 108.28 92.8216 115.35C92.388 116.53 92.0759 116.66 91.9632 116.66C91.9285 116.66 91.9198 116.66 91.9198 116.66H91.5036C92.3187 120.97 90.203 129.24 89.0498 129.24C89.0498 129.24 88.5122 129.14 88.1568 127.75L85.6683 127.8V130.26C85.4949 130.26 85.2434 130.26 84.9399 130.26C84.3677 130.26 83.596 130.26 82.8243 130.26C81.8965 130.26 80.9861 130.26 80.4312 130.23C80.1537 131.93 79.937 134.53 79.1566 137.77C80.1711 138.72 101.345 156.72 101.345 156.72C101.345 156.72 103.495 158.22 103.495 160.87C103.495 163.52 103.2 168.48 103.2 168.48C103.2 168.48 103.261 169.97 102.706 169.97C102.637 169.97 102.559 169.95 102.472 169.9C100.989 169.05 81.1942 159.2 76.9629 156.86C76.8502 156.8 76.1479 156.6 76.2086 154.98H75.8704L73.8935 170.67C73.8935 170.67 73.9715 171.49 73.2259 171.53C73.2259 171.53 73.2085 171.53 73.1999 171.53C73.1912 171.53 73.1825 171.53 73.1739 171.53C72.4282 171.48 72.5062 170.66 72.5062 170.66L70.5293 154.95H70.1911C70.2518 156.58 69.5495 156.77 69.4368 156.84C65.2055 159.18 45.4104 169.03 43.9277 169.88C43.841 169.93 43.763 169.95 43.6936 169.95C43.1387 169.95 43.1994 168.46 43.1994 168.46C43.1994 168.46 42.9046 163.5 42.9046 160.85C42.9046 158.2 45.0549 156.7 45.0549 156.7C45.0549 156.7 66.2287 138.71 67.2431 137.75C66.4714 134.51 66.246 131.91 65.9685 130.21C65.4223 130.23 64.5032 130.24 63.5754 130.24C62.8124 130.24 62.0321 130.24 61.4598 130.24C61.1476 130.24 60.8962 130.24 60.7401 130.24V127.78L58.243 127.73C57.8875 129.12 57.3499 129.22 57.3499 129.22C56.1967 129.22 54.0811 120.95 54.8961 116.64H54.4799C54.4799 116.64 54.4626 116.64 54.4366 116.64C54.3238 116.64 54.0117 116.51 53.5782 115.33C52.477 108.26 52.7284 101.97 52.7284 101.97C52.7284 101.97 6.47047 119.59 3.42707 120.67C3.3577 120.7 3.28834 120.71 3.22764 120.71C2.63804 120.71 2.54266 119.65 2.54266 119.65C2.54266 119.65 3.19296 114.47 3.19296 111.5C3.19296 108.53 5.38664 106.91 5.38664 106.91C5.38664 106.91 46.5723 75.9998 51.6966 72.1798L63.9396 62.8898C63.9396 62.8898 63.4714 38.0298 63.9569 31.2498C64.4512 24.4698 65.6737 20.2298 67.8761 12.1798C69.0379 7.92984 70.5293 5.64984 71.5264 4.27984C72.3675 3.12984 73.1739 2.81984 73.1739 2.81984H73.2259M73.2259 0.839844H73.1739C72.9831 0.839844 72.801 0.869844 72.6276 0.939844C72.4195 1.01984 71.301 1.50984 70.1998 2.99984C69.0813 4.51984 67.4599 7.06984 66.22 11.5798L65.9339 12.6198C63.9223 19.9598 62.7084 24.3798 62.2228 31.0898C61.7806 37.1498 62.0928 56.8798 62.1795 61.8298L50.7342 70.5198C45.6705 74.2898 4.84038 104.94 4.43286 105.25C3.33169 106.06 1.45016 108.31 1.45016 111.51C1.45016 114.3 0.825869 119.32 0.817198 119.37C0.799857 119.53 0.791186 119.7 0.817198 119.87C0.97327 121.55 1.96173 122.73 3.22764 122.73C3.46175 122.73 3.70453 122.69 3.93864 122.6C6.6092 121.65 41.5086 108.37 50.977 104.76C51.0116 107.33 51.2024 111.35 51.87 115.7C51.8961 115.85 51.9307 115.99 51.9828 116.13C52.1215 116.51 52.4336 117.37 53.0059 117.98C52.7805 122.39 54.2371 128.27 55.5204 130.11C56.1707 131.04 56.873 131.24 57.3499 131.24C57.4453 131.24 57.5407 131.24 57.636 131.21C57.9308 131.15 58.4771 130.96 58.9973 130.3C58.9973 130.82 59.1881 131.33 59.5176 131.69C59.8384 132.06 60.2806 132.26 60.7315 132.26C60.7401 132.26 60.7488 132.26 60.7575 132.26C60.9135 132.26 61.1563 132.26 61.4511 132.26H62.3529H63.5668C63.9049 132.26 64.2171 132.26 64.4858 132.26C64.6593 133.52 64.876 135.14 65.2575 136.99C62.1188 139.7 51.4539 148.79 44.0665 155.07C42.9479 155.89 41.1531 157.96 41.1531 160.88C41.1531 163.39 41.4046 167.78 41.4479 168.52C41.4306 169.24 41.5259 170.43 42.1849 171.23C42.5838 171.71 43.1127 171.97 43.6763 171.97C44.0144 171.97 44.3613 171.87 44.6821 171.69C45.263 171.36 49.3122 169.31 53.5955 167.15C59.2488 164.3 66.1506 160.81 69.2807 159.14L70.7547 170.81C70.7634 171.25 70.8588 171.96 71.327 172.58C71.6998 173.09 72.2201 173.41 72.8184 173.51C72.9311 173.53 73.0438 173.55 73.1565 173.55C73.1652 173.55 73.1739 173.55 73.1825 173.55C73.1912 173.55 73.1999 173.55 73.2085 173.55C73.3299 173.55 73.4426 173.54 73.5467 173.51C74.145 173.41 74.6652 173.09 75.038 172.58C75.4976 171.95 75.6016 171.25 75.6103 170.81L77.0843 159.14C80.2144 160.81 87.1163 164.29 92.7695 167.15C97.0528 169.31 101.102 171.36 101.683 171.69C102.012 171.88 102.351 171.97 102.689 171.97C103.252 171.97 103.79 171.71 104.18 171.23C104.839 170.43 104.934 169.23 104.917 168.52C104.96 167.78 105.212 163.39 105.212 160.88C105.212 157.97 103.417 155.89 102.299 155.07C94.9112 148.79 84.2463 139.71 81.1075 136.99C81.489 135.14 81.7145 133.53 81.8792 132.26C82.1567 132.26 82.4601 132.26 82.7983 132.26H84.0122H84.9139C85.2087 132.26 85.4515 132.26 85.6076 132.26C85.6162 132.26 85.6249 132.26 85.6336 132.26C86.0845 132.26 86.5267 132.06 86.8475 131.69C87.177 131.32 87.359 130.82 87.3677 130.3C87.888 130.96 88.4429 131.16 88.729 131.21C88.8244 131.23 88.9198 131.24 89.0151 131.24C89.492 131.24 90.203 131.04 90.8447 130.11C92.1279 128.27 93.5846 122.39 93.3591 117.98C93.9314 117.37 94.2436 116.51 94.3823 116.13C94.4343 115.99 94.469 115.85 94.495 115.7C95.1713 111.36 95.3534 107.33 95.3881 104.76C104.856 108.36 139.765 121.65 142.426 122.6C142.661 122.68 142.903 122.73 143.137 122.73C144.403 122.73 145.392 121.56 145.548 119.87C145.565 119.7 145.557 119.54 145.548 119.37C145.548 119.32 144.915 114.3 144.915 111.51C144.915 108.3 143.033 106.06 141.915 105.24C141.516 104.94 100.686 74.2998 95.6135 70.5098L84.1856 61.8298C84.2723 56.8698 84.5758 37.1498 84.1422 31.0898C83.6567 24.3798 82.4428 19.9598 80.4312 12.6198L80.1451 11.5798C78.9138 7.06984 77.2837 4.51984 76.1652 2.99984C75.0641 1.49984 73.9542 1.01984 73.7374 0.939844C73.564 0.869844 73.3733 0.839844 73.1912 0.839844L73.2259 0.839844Z" fill="black"/>
</svg>
