<svg width="194" height="190" viewBox="0 0 194 190" fill="none" xmlns="http://www.w3.org/2000/svg">
<g clip-path="url(#clip0_284_2)">
<path d="M134.86 188.81C134.3 188.81 133.67 188.65 132.94 188.31C130.38 187.12 108.09 177.59 102.25 175.1V176.14C102.16 177.35 101.44 179.39 99.3798 179.9V184.54C99.3798 184.54 99.3798 184.61 99.3798 184.65C99.2398 185.94 98.5498 187.45 97.1098 187.45C95.6698 187.45 94.9798 185.94 94.8398 184.65C94.8398 184.61 94.8398 184.58 94.8398 184.54V179.9C92.7798 179.4 92.0598 177.36 91.9698 176.22V175.11C86.1298 177.6 63.8398 187.14 61.2798 188.32C60.5498 188.66 59.9198 188.82 59.3598 188.82C58.5198 188.82 58.0098 188.45 57.7298 188.15C57.0398 187.4 57.0898 186.36 57.0998 186.16V179.76C57.0998 175.13 61.0998 172.44 61.2698 172.33C61.4298 172.21 82.6998 156.25 87.1898 152.82C87.2698 152.76 87.3098 152.65 87.2898 152.56C86.7798 150.62 86.7498 147.94 86.7898 146.23C86.4198 146.28 85.9998 146.31 85.5198 146.31C84.2698 146.31 83.5498 145.8 83.1598 145.38C82.2898 144.42 82.3798 143.13 82.3998 142.99V139.55C82.2298 139.55 82.0498 139.57 81.8598 139.57C79.3098 139.57 77.5598 138.43 76.9098 136.37C76.8998 136.33 76.8898 136.28 76.8798 136.24C75.7498 129.62 75.6698 121.72 75.6798 118.86L69.5698 119.26C64.8098 119.58 60.0498 120.36 55.4398 121.59L3.9398 135.32C3.7998 135.36 3.6498 135.38 3.4998 135.38C2.5598 135.38 1.7998 134.62 1.7998 133.68V126.51C1.7998 121.22 6.6798 119.18 6.8898 119.1L58.0598 93.0099C59.9998 92.0199 61.8898 90.8999 63.6898 89.6799L85.1598 75.1299C85.6198 74.8199 85.8898 74.2999 85.8898 73.7499V72.1599C85.8498 65.3099 85.7598 48.3999 85.7098 38.6299C85.6798 32.4199 86.3898 26.3399 87.8098 20.5499C89.1898 14.9299 92.8598 1.86987 97.0998 1.86987C101.34 1.86987 105.01 14.9399 106.39 20.5499C107.81 26.3399 108.52 32.4199 108.49 38.6299C108.44 49.1799 108.34 68.0799 108.31 73.6099V73.7499C108.31 74.2999 108.58 74.8199 109.04 75.1299L130.51 89.6799C132.31 90.8999 134.2 92.0199 136.14 93.0099L187.39 119.14C187.52 119.19 192.4 121.22 192.4 126.52V133.69C192.4 134.15 192.22 134.58 191.89 134.9C191.57 135.22 191.15 135.39 190.7 135.39C190.55 135.39 190.4 135.37 190.26 135.33L138.76 121.6C134.15 120.37 129.39 119.59 124.63 119.27L118.53 118.87C118.54 121.73 118.47 129.63 117.33 136.25C117.33 136.29 117.31 136.34 117.3 136.38C116.66 138.44 114.9 139.58 112.35 139.58C112.16 139.58 111.98 139.58 111.82 139.56V143.1C111.82 143.1 111.92 144.44 111.05 145.4C110.66 145.83 109.94 146.33 108.69 146.33C108.22 146.33 107.8 146.3 107.42 146.25C107.46 147.96 107.43 150.64 106.92 152.58C106.9 152.67 106.94 152.78 107.02 152.84C111.5 156.27 132.77 172.22 132.99 172.38C133.11 172.46 137.11 175.14 137.11 179.77V186.26C137.12 186.38 137.17 187.41 136.48 188.16C136.2 188.47 135.68 188.83 134.85 188.83L134.86 188.81Z" fill="white"/>
<path d="M97.0998 2.83984C99.7098 2.83984 103.1 11.3198 105.42 20.7598C106.85 26.5898 107.52 32.5898 107.49 38.5898C107.44 49.2398 107.34 68.3698 107.31 73.7098C107.31 74.5998 107.74 75.4198 108.48 75.9198L129.95 90.4698C131.79 91.7198 133.71 92.8498 135.69 93.8598L186.94 119.99C186.94 119.99 191.41 121.8 191.41 126.48V133.65C191.41 134.05 191.08 134.35 190.71 134.35C190.65 134.35 190.59 134.35 190.53 134.33L139.03 120.6C134.34 119.35 129.55 118.56 124.71 118.24L117.53 117.76C117.53 117.76 117.74 127.97 116.36 136.05C115.71 138.14 113.76 138.55 112.37 138.55C111.5 138.55 110.84 138.39 110.84 138.39V143.07C110.84 143.07 111.05 145.3 108.71 145.3C106.5 145.3 106.38 144.73 106.37 144.67C106.38 144.86 106.71 149.5 105.98 152.3C105.85 152.79 106.04 153.3 106.44 153.61C110.98 157.08 132.42 173.16 132.42 173.16C132.42 173.16 136.14 175.61 136.14 179.75V186.24C136.14 186.24 136.27 187.82 134.88 187.82C134.5 187.82 134.01 187.7 133.38 187.41C130.4 186.03 101.27 173.59 101.27 173.59V176.14C101.27 176.14 101.06 179.01 98.3998 179.01V184.54C98.3998 184.54 98.1898 186.45 97.1198 186.45C96.0498 186.45 95.8398 184.54 95.8398 184.54V179.01C93.1798 179.01 92.9698 176.14 92.9698 176.14V173.59C92.9698 173.59 63.8398 186.03 60.8598 187.41C60.2298 187.7 59.7398 187.82 59.3598 187.82C57.9698 187.82 58.0998 186.24 58.0998 186.24V179.75C58.0998 175.6 61.8198 173.16 61.8198 173.16C61.8198 173.16 83.2598 157.08 87.7998 153.61C88.1998 153.3 88.3898 152.79 88.2598 152.3C87.5298 149.5 87.8498 144.86 87.8698 144.67C87.8698 144.73 87.7398 145.3 85.5298 145.3C83.1898 145.3 83.3998 143.07 83.3998 143.07V138.39C83.3998 138.39 82.7398 138.55 81.8698 138.55C80.4698 138.55 78.5298 138.15 77.8798 136.05C76.4998 127.97 76.7098 117.76 76.7098 117.76L69.5298 118.24C64.6898 118.56 59.8898 119.35 55.2098 120.6L3.7098 134.33C3.6498 134.35 3.5898 134.35 3.5298 134.35C3.1498 134.35 2.8298 134.05 2.8298 133.65V126.48C2.8298 121.8 7.2998 119.99 7.2998 119.99L58.5498 93.8598C60.5298 92.8498 62.4498 91.7198 64.2898 90.4698L85.7598 75.9198C86.4898 75.4198 86.9298 74.5898 86.9298 73.7098C86.8998 68.3698 86.7998 49.2398 86.7498 38.5898C86.7198 32.5798 87.3898 26.5898 88.8198 20.7598C91.1398 11.3198 94.5298 2.83984 97.1398 2.83984M97.0998 0.839844C94.9098 0.839844 93.0298 2.87984 90.9998 7.44984C89.5398 10.7498 88.0598 15.2998 86.8398 20.2798C85.3998 26.1498 84.6798 32.3098 84.7098 38.5998C84.7598 49.2498 84.8598 68.3798 84.8898 73.7198C84.8898 73.9398 84.7798 74.1398 84.5998 74.2698L63.1298 88.8198C61.3598 90.0198 59.5098 91.1098 57.6098 92.0798L6.4098 118.19C5.6198 118.54 0.799805 120.9 0.799805 126.49V133.66C0.799805 135.15 2.0098 136.36 3.4998 136.36C3.7298 136.36 3.9698 136.33 4.1998 136.27L55.6998 122.54C60.2498 121.33 64.9398 120.55 69.6398 120.24L74.6798 119.91C74.6898 123.39 74.8598 130.4 75.8898 136.4C75.9098 136.49 75.9298 136.57 75.9498 136.66C76.6798 139.01 78.6498 140.41 81.3898 140.55V143.02C81.3598 143.51 81.3898 144.93 82.4198 146.06C82.9398 146.64 83.9098 147.32 85.5198 147.32C85.6098 147.32 85.6898 147.32 85.7698 147.32C85.7698 148.85 85.8598 150.75 86.1898 152.33C81.1098 156.2 61.6098 170.83 60.6398 171.55C60.0498 171.96 56.0798 174.88 56.0798 179.77V186.2C56.0598 186.64 56.0998 187.88 56.9698 188.84C57.5598 189.48 58.3998 189.84 59.3398 189.84C60.0498 189.84 60.8198 189.64 61.6798 189.24C64.0598 188.14 83.6598 179.75 90.9798 176.62C91.1798 178.04 92.0498 179.83 93.8098 180.62V184.55C93.8098 184.62 93.8098 184.7 93.8198 184.77C94.0198 186.61 95.1098 188.46 97.0798 188.46C99.0498 188.46 100.14 186.61 100.34 184.77C100.34 184.7 100.35 184.62 100.35 184.55V180.62C102.11 179.83 102.98 178.04 103.18 176.62C110.51 179.75 130.11 188.14 132.48 189.24C133.34 189.64 134.11 189.84 134.82 189.84C135.76 189.84 136.6 189.49 137.19 188.84C138.07 187.89 138.1 186.64 138.08 186.2V179.77C138.08 174.88 134.11 171.96 133.52 171.55C132.55 170.82 113.05 156.19 107.97 152.33C108.31 150.75 108.39 148.85 108.39 147.32C108.47 147.32 108.56 147.32 108.64 147.32C110.25 147.32 111.21 146.63 111.74 146.06C112.77 144.93 112.8 143.51 112.77 143.02V140.55C115.51 140.41 117.47 139.01 118.21 136.66C118.24 136.58 118.26 136.49 118.27 136.4C119.3 130.41 119.47 123.4 119.48 119.91L124.52 120.24C129.22 120.55 133.91 121.32 138.46 122.54L189.96 136.27C190.19 136.33 190.42 136.36 190.66 136.36C192.15 136.36 193.36 135.15 193.36 133.66V126.49C193.36 120.9 188.54 118.54 187.75 118.19L136.56 92.0898C134.66 91.1198 132.8 90.0198 131.04 88.8298L109.57 74.2798C109.39 74.1598 109.28 73.9498 109.28 73.7298C109.31 68.3898 109.41 49.2498 109.46 38.6098C109.49 32.3198 108.77 26.1598 107.33 20.2898C106.11 15.3098 104.63 10.7498 103.17 7.45984C101.14 2.88984 99.2598 0.849844 97.0698 0.849844L97.0998 0.839844Z" fill="black"/>
</g>
<defs>
<clipPath id="clip0_284_2">
<rect width="192.6" height="188.97" fill="white" transform="translate(0.799805 0.839844)"/>
</clipPath>
</defs>
</svg>
