<svg width="271" height="236" viewBox="0 0 271 236" fill="none" xmlns="http://www.w3.org/2000/svg">
<g clip-path="url(#clip0_290_12)">
<path d="M179 233.5C178.2 233.5 177.36 233.26 176.44 232.76C173.81 231.34 149.71 220.06 143.36 217.1L141.36 222.11C140.92 223.21 139.88 223.92 138.69 223.92H133.02C131.84 223.92 130.79 223.21 130.35 222.11L128.35 217.1C116.56 222.61 97.5399 231.54 95.2699 232.76C94.3499 233.26 93.5099 233.5 92.7099 233.5C90.3999 233.5 89.1699 231.53 89.1399 229.58V219.36C89.1399 216.07 92.3999 213.77 93.0099 213.37L123.86 190.79L120.32 187.05H117.1C117.04 187.05 116.98 187.05 116.93 187.05C115.9 187.05 114.85 186.45 113.82 185.27C113.69 185.12 113.59 184.96 113.51 184.79C109.46 175.84 109.48 160.6 109.49 155.59V155.13C109.49 150.99 112.02 149.52 114.19 149.52C114.32 149.52 114.44 149.52 114.52 149.53H119.44C119.01 146.19 118.82 142.31 118.75 139.94L95.6999 143.91C93.3399 144.32 91.0199 144.98 88.7999 145.87L15.4399 175.44C13.4599 176.24 11.6699 177.52 10.2699 179.14C7.71987 182.09 6.44987 182.69 5.33987 182.69C4.54987 182.69 3.83987 182.33 3.36987 181.7C2.54987 180.6 2.60987 178.99 3.59987 175.76C6.91987 164.85 13.4299 159.54 13.7099 159.32C13.7799 159.27 13.8399 159.22 13.9199 159.18L62.3499 129.51C79.2399 119.16 95.3099 107.26 110.13 94.1098L119.88 85.4598C120.56 84.8498 120.96 83.9798 120.96 83.0598V54.7298C120.96 40.3898 123.42 26.4298 128.29 13.2498C129.62 9.62983 130.76 6.95983 131.68 5.30983C132.52 3.77983 134.14 2.82983 135.88 2.82983C137.62 2.82983 139.24 3.77983 140.08 5.30983C140.99 6.96983 142.13 9.63983 143.47 13.2498C148.33 26.4398 150.8 40.3998 150.8 54.7298V83.0598C150.8 83.9798 151.19 84.8498 151.88 85.4598L158.67 91.4798C175.78 106.66 194.36 120.41 213.89 132.33L257.83 159.17C257.9 159.21 257.97 159.26 258.04 159.32C258.32 159.54 264.83 164.85 268.15 175.76C269.13 178.99 269.19 180.59 268.38 181.7C267.92 182.33 267.2 182.69 266.41 182.69C265.3 182.69 264.03 182.09 261.48 179.14C260.08 177.52 258.29 176.24 256.31 175.44L182.95 145.86C180.73 144.97 178.41 144.31 176.05 143.9L153 139.93C152.92 142.55 152.73 146.29 152.31 149.52H157.22C157.3 149.52 157.42 149.51 157.55 149.51C159.72 149.51 162.24 150.98 162.24 155.12V155.58C162.24 160.59 162.27 175.83 158.22 184.78C158.14 184.96 158.04 185.12 157.91 185.26C156.88 186.44 155.84 187.04 154.8 187.04C154.75 187.04 154.69 187.04 154.63 187.04H151.4L147.86 190.78L178.71 213.36C179.32 213.76 182.58 216.06 182.58 219.35V229.55C182.55 231.52 181.32 233.49 179.01 233.49L179 233.5Z" fill="white"/>
<path d="M135.85 4.83984C136.81 4.83984 137.77 5.31984 138.3 6.28984C139.25 8.00984 140.39 10.7798 141.56 13.9598C146.37 27.0098 148.76 40.8398 148.76 54.7498V83.0798C148.76 84.5698 149.4 85.9798 150.51 86.9698L157.3 92.9898C174.55 108.29 193.13 122.04 212.81 134.06L256.75 160.9C256.75 160.9 263.02 165.91 266.19 176.36C267.17 179.58 267.03 180.7 266.36 180.7C265.6 180.7 264.17 179.26 262.94 177.84C261.33 175.97 259.29 174.52 257.01 173.6L183.65 144.02C181.29 143.07 178.84 142.37 176.34 141.94L152.23 137.78C152.17 137.77 152.11 137.76 152.05 137.76C151.49 137.76 151.01 138.21 150.99 138.79C150.93 141.39 150.7 147.52 149.93 151.52H157.29C157.29 151.52 157.38 151.51 157.52 151.51C158.21 151.51 160.21 151.8 160.21 155.12C160.21 159.13 160.38 175.1 156.37 183.96C155.51 184.95 154.97 185.05 154.78 185.05C154.73 185.05 154.7 185.05 154.7 185.05H150.52L145.33 190.55C145.07 190.83 145.11 191.27 145.42 191.5L177.56 215.02C177.56 215.02 180.57 216.94 180.57 219.37V229.57C180.57 229.57 180.54 231.51 179 231.51C178.58 231.51 178.06 231.37 177.39 231.01C174.53 229.46 147.63 216.89 142.97 214.72C142.87 214.67 142.77 214.65 142.67 214.65C142.39 214.65 142.12 214.82 142 215.1L139.49 221.37C139.36 221.7 139.04 221.92 138.68 221.92H133.01C132.65 221.92 132.33 221.7 132.2 221.37L129.69 215.1C129.58 214.82 129.31 214.65 129.02 214.65C128.92 214.65 128.82 214.67 128.72 214.72C124.06 216.9 97.1601 229.47 94.3001 231.01C93.6301 231.37 93.1101 231.51 92.6901 231.51C91.1501 231.51 91.1201 229.57 91.1201 229.57V219.37C91.1201 216.95 94.1301 215.02 94.1301 215.02L126.27 191.5C126.58 191.27 126.62 190.83 126.36 190.55L121.17 185.05H116.99C116.99 185.05 116.96 185.05 116.91 185.05C116.72 185.05 116.17 184.95 115.32 183.96C111.31 175.1 111.48 159.14 111.48 155.12C111.48 151.8 113.48 151.51 114.17 151.51C114.31 151.51 114.4 151.52 114.4 151.52H121.76C120.99 147.52 120.76 141.38 120.7 138.79C120.69 138.2 120.2 137.76 119.64 137.76C119.58 137.76 119.52 137.76 119.46 137.78L95.3501 141.94C92.8501 142.37 90.4001 143.07 88.0401 144.02L14.6801 173.6C12.3901 174.52 10.3601 175.98 8.75008 177.84C7.52008 179.26 6.09008 180.7 5.33008 180.7C4.66008 180.7 4.52008 179.59 5.50008 176.36C8.68008 165.91 14.9401 160.9 14.9401 160.9L63.3701 131.23C80.4001 120.8 96.4901 108.88 111.43 95.6198L121.18 86.9698C122.29 85.9798 122.93 84.5698 122.93 83.0798V54.7498C122.93 40.8398 125.32 27.0098 130.13 13.9598C131.3 10.7798 132.44 8.00984 133.39 6.28984C133.92 5.31984 134.88 4.83984 135.84 4.83984M135.85 0.839844C133.37 0.839844 131.09 2.18984 129.9 4.35984C128.93 6.12984 127.78 8.81984 126.39 12.5798C121.45 25.9898 118.94 40.1798 118.94 54.7598V83.0898C118.94 83.4298 118.79 83.7598 118.54 83.9898L108.79 92.6398C94.0601 105.71 78.0801 117.54 61.3001 127.83L12.8701 157.5C12.7301 157.59 12.5901 157.68 12.4601 157.79C12.1601 158.03 5.18008 163.71 1.69008 175.21C0.680077 178.54 0.340077 180.99 1.77008 182.92C2.62008 184.06 3.92008 184.71 5.34008 184.71C7.65008 184.71 9.52008 183.09 11.7801 180.47C12.9701 179.09 14.5001 178 16.1801 177.32L89.5401 147.74C91.6301 146.9 93.8101 146.28 96.0301 145.89L116.83 142.31C116.91 143.94 117.02 145.76 117.19 147.54H114.58C114.46 147.54 114.33 147.53 114.18 147.53C112.65 147.53 111.17 148.05 110.02 149.01C108.86 149.97 107.48 151.81 107.48 155.14V155.6C107.48 160.72 107.45 176.29 111.68 185.63C111.84 185.98 112.05 186.31 112.3 186.6C113.72 188.24 115.28 189.07 116.92 189.07C117.01 189.07 117.09 189.07 117.18 189.07H119.45L120.84 190.54L91.8601 211.75C90.8301 212.43 87.1301 215.19 87.1301 219.39V229.59C87.1301 229.59 87.1301 229.63 87.1301 229.64C87.1701 232.49 89.1301 235.53 92.7001 235.53C93.8401 235.53 94.9901 235.21 96.2101 234.55C98.1901 233.48 113.52 226.26 127.27 219.83L128.49 222.87C129.23 224.73 131.01 225.93 133.01 225.93H138.68C140.68 225.93 142.46 224.73 143.2 222.87L144.42 219.83C158.17 226.26 173.5 233.48 175.48 234.55C176.7 235.21 177.85 235.53 178.99 235.53C182.55 235.53 184.52 232.5 184.56 229.64C184.56 229.62 184.56 229.6 184.56 229.59V219.39C184.56 215.19 180.86 212.44 179.83 211.75L150.85 190.54L152.24 189.07H154.51C154.6 189.07 154.68 189.07 154.77 189.07C156.41 189.07 157.96 188.24 159.39 186.6C159.64 186.31 159.85 185.98 160.01 185.63C164.24 176.29 164.22 160.72 164.21 155.6V155.14C164.21 149.91 160.74 147.53 157.52 147.53C157.37 147.53 157.24 147.53 157.12 147.54H154.51C154.68 145.75 154.8 143.93 154.87 142.31L175.67 145.89C177.89 146.27 180.07 146.89 182.16 147.74L255.52 177.32C257.21 178 258.73 179.09 259.92 180.47C262.19 183.09 264.05 184.71 266.36 184.71C267.79 184.71 269.09 184.06 269.93 182.92C271.36 180.99 271.02 178.54 270.01 175.21C266.51 163.71 259.53 158.02 259.24 157.79C259.11 157.68 258.97 157.59 258.83 157.5L214.89 130.66C195.46 118.8 176.98 105.12 159.95 90.0198L153.16 83.9998C152.9 83.7698 152.76 83.4398 152.76 83.0998V54.7698C152.76 40.1898 150.25 25.9998 145.31 12.5898C143.92 8.82984 142.77 6.13984 141.8 4.36984C140.6 2.19984 138.32 0.849844 135.85 0.849844V0.839844Z" fill="black"/>
</g>
<defs>
<clipPath id="clip0_290_12">
<rect width="270.1" height="234.66" fill="white" transform="translate(0.799805 0.839844)"/>
</clipPath>
</defs>
</svg>
