<svg width="271" height="242" viewBox="0 0 271 242" fill="none" xmlns="http://www.w3.org/2000/svg">
<g clip-path="url(#clip0_572_78)">
<path d="M179.66 239.86C179.28 239.86 178.88 239.78 178.49 239.64C177.31 239.2 149.98 227.48 142.23 224.16L141.43 227.62C141.21 228.98 140.2 230.4 138.43 230.4C137.93 230.4 137.42 230.28 136.91 230.03C136.86 230.01 136.82 229.98 136.77 229.96C136.35 230.26 135.88 230.39 135.45 230.39C135.02 230.39 134.55 230.26 134.13 229.96C134.09 229.99 134.04 230.01 133.99 230.03C133.48 230.28 132.97 230.4 132.47 230.4C130.71 230.4 129.7 228.98 129.47 227.62L128.67 224.17C120.91 227.5 93.5899 239.21 92.4099 239.65C92.0099 239.8 91.6199 239.87 91.2399 239.87C89.6199 239.87 88.4099 238.53 88.4099 236.74C88.4099 236.47 88.2499 229.18 88.4099 226.26C88.5799 223.21 90.6799 221.22 91.9799 220.46L123.79 197.34L119.99 193.95C119.68 193.68 119.44 193.35 119.26 192.99H115.47C113.64 192.99 112.49 191.43 112.16 189.89C112.14 189.79 111.4 185.78 110.47 181.14C108.16 171.3 109.28 159.05 109.62 157.68C110.09 155.81 111.39 155.15 112.46 155.15C112.5 155.15 112.55 155.15 112.6 155.15C113.22 155.15 117.15 155.11 119.44 155.1C118.78 151.94 118.44 147.84 118.27 145.12L92.9099 150.32C91.3499 150.64 89.8099 151.11 88.3499 151.72L73.0799 158.04C72.6799 159.73 71.9699 161.62 70.1199 161.62C69.0499 161.62 68.3699 160.97 67.9199 160.18C49.3999 167.85 24.8799 177.99 15.4699 181.87C15.2299 183.04 14.7099 184.2 13.2399 184.2C12.4799 184.2 11.9799 183.89 11.6399 183.44C11.5999 183.46 11.5699 183.47 11.5499 183.48C11.0499 183.67 9.93989 184.38 7.47989 186.63C7.41989 186.69 7.35989 186.74 7.30989 186.78C7.21989 186.97 7.07989 187.35 7.00989 187.59C6.91989 187.91 6.73989 188.21 6.50989 188.44C6.24989 188.7 5.53989 189.3 4.54989 189.3C4.30989 189.3 2.18989 189.22 2.01989 186.39C1.88989 184.7 2.76989 182.29 2.93989 181.82C2.97989 181.69 4.61989 176.86 6.73989 172.95C8.93989 168.89 12.1299 166.02 12.2699 165.9C12.3499 165.83 12.4399 165.76 12.5299 165.7L83.7899 120.65C85.7699 119.4 87.6799 118 89.4599 116.49C96.4799 110.57 114.58 95.2999 119.04 91.5399C119.18 91.4299 119.25 91.2599 119.26 91.0799C119.3 88.8499 119.73 85.5499 119.97 83.7799C120.09 82.9399 120.15 82.0799 120.15 81.2299V50.6799C120.15 37.2299 123.61 24.7999 125.68 18.5799C128.13 11.2099 131.81 2.42993 135.45 2.42993C139.09 2.42993 142.77 11.2099 145.22 18.5799C147.28 24.7899 150.75 37.2299 150.75 50.6799V81.2299C150.75 82.0699 150.81 82.9299 150.93 83.7799C151.23 85.9399 151.6 88.9599 151.65 91.0799C151.65 91.2599 151.73 91.4199 151.87 91.5399C155.62 94.7099 181.44 116.49 181.44 116.49C183.23 118 185.13 119.39 187.11 120.65L258.37 165.7C258.46 165.76 258.55 165.82 258.63 165.9C258.76 166.02 261.96 168.89 264.16 172.95C266.28 176.86 267.92 181.69 267.99 181.9C268.14 182.29 269.02 184.71 268.88 186.43C268.71 189.22 266.59 189.3 266.35 189.3C265.35 189.3 264.65 188.7 264.39 188.44C264.15 188.2 263.98 187.91 263.89 187.59C263.81 187.31 263.67 186.96 263.59 186.78C263.54 186.74 263.48 186.68 263.42 186.63C260.96 184.38 259.84 183.67 259.34 183.48C259.32 183.48 259.29 183.46 259.26 183.45C258.92 183.9 258.42 184.21 257.66 184.21C256.19 184.21 255.67 183.05 255.43 181.88C246.02 178 221.5 167.85 202.98 160.19C202.53 160.98 201.86 161.63 200.78 161.63C198.93 161.63 198.22 159.75 197.82 158.05L182.55 151.73C181.08 151.12 179.55 150.65 177.98 150.33L152.62 145.13C152.45 147.86 152.11 151.96 151.45 155.11C153.74 155.13 157.67 155.16 158.29 155.16C158.34 155.16 158.39 155.16 158.43 155.16C159.5 155.16 160.81 155.83 161.27 157.69C161.61 159.06 162.73 171.32 160.41 181.21C159.5 185.78 158.75 189.8 158.75 189.84C158.41 191.44 157.25 193 155.43 193H151.64C151.46 193.36 151.22 193.69 150.91 193.96L147.11 197.35L178.92 220.47C180.23 221.23 182.32 223.23 182.49 226.27C182.66 229.19 182.49 236.48 182.49 236.79C182.49 236.9 182.47 237.43 182.26 238C181.83 239.15 180.84 239.87 179.65 239.87L179.66 239.86Z" fill="white"/>
<path d="M135.45 4.44995C138.71 4.44995 148.75 28.44 148.75 50.69V81.24C148.75 82.1899 148.82 83.13 148.95 84.07C149.2 85.86 149.6 89.02 149.65 91.13C149.66 91.88 150 92.59 150.58 93.0799C155.03 96.84 173.14 112.11 180.15 118.03C182.01 119.6 183.98 121.05 186.05 122.35L257.31 167.4C257.31 167.4 260.35 170.11 262.41 173.91C264.47 177.71 266.1 182.54 266.1 182.54C266.1 182.54 267 184.91 266.9 186.27C266.85 187.09 266.61 187.3 266.36 187.3C266.09 187.3 265.81 187.03 265.81 187.03C265.81 187.03 265.43 185.73 265.05 185.4C264.67 185.07 261.74 182.25 260.06 181.6C259.92 181.54 259.2 181.25 258.03 180.77C257.9 181.72 257.78 182.19 257.65 182.19C257.51 182.19 257.37 181.61 257.23 180.44C248.44 176.82 221.22 165.55 201.8 157.51C201.46 158.9 201.12 159.6 200.78 159.6C200.37 159.6 199.96 158.59 199.55 156.58C192.34 153.59 186.43 151.15 183.31 149.86C181.72 149.2 180.07 148.7 178.38 148.35L151.53 142.84C151.53 142.84 151.44 142.83 151.39 142.83C151.03 142.83 150.73 143.11 150.71 143.48C150.59 146.04 150.1 154.06 148.77 157.26C148.84 157.91 149.16 158.16 149.16 158.16C149.16 158.16 149.13 157.07 149.87 157.07C150.61 157.07 158.37 157.13 158.37 157.13C158.37 157.13 158.4 157.13 158.44 157.13C158.63 157.13 159.11 157.22 159.34 158.15C159.63 159.31 160.72 171.18 158.47 180.73C157.53 185.43 156.79 189.45 156.79 189.45C156.79 189.45 156.46 190.97 155.43 190.97H151.09C151.09 190.97 150.3 190.94 149.95 190.59V191.61C149.95 191.93 149.81 192.23 149.58 192.44L144.31 197.14C144.11 197.32 144.13 197.63 144.34 197.79L177.83 222.13C177.83 222.13 180.33 223.49 180.49 226.36C180.65 229.23 180.49 236.73 180.49 236.73C180.49 236.73 180.49 237.86 179.66 237.86C179.53 237.86 179.37 237.83 179.19 237.76C177.98 237.31 145.77 223.49 141.32 221.59C141.26 221.56 141.2 221.55 141.14 221.55C140.93 221.55 140.74 221.69 140.69 221.91L139.46 227.23C139.46 227.23 139.31 228.38 138.43 228.38C138.25 228.38 138.03 228.33 137.78 228.21C137.29 227.88 136.91 227.5 136.91 227.5L135.94 227.45C135.94 227.45 135.83 228.37 135.45 228.37C135.07 228.37 134.96 227.45 134.96 227.45L133.99 227.5C133.99 227.5 133.61 227.88 133.12 228.21C132.87 228.33 132.65 228.38 132.46 228.38C131.58 228.38 131.43 227.23 131.43 227.23L130.2 221.91C130.15 221.69 129.96 221.55 129.75 221.55C129.69 221.55 129.63 221.56 129.57 221.59C125.12 223.5 92.9197 237.31 91.6997 237.76C91.5197 237.83 91.3597 237.86 91.2297 237.86C90.3997 237.86 90.3997 236.73 90.3997 236.73C90.3997 236.73 90.2397 229.24 90.3997 226.36C90.5597 223.48 93.0597 222.13 93.0597 222.13L126.55 197.79C126.76 197.63 126.78 197.32 126.58 197.14L121.31 192.44C121.07 192.23 120.94 191.93 120.94 191.61V190.59C120.59 190.94 119.8 190.97 119.8 190.97H115.46C114.43 190.97 114.1 189.45 114.1 189.45C114.1 189.45 113.36 185.43 112.42 180.73C110.18 171.18 111.26 159.31 111.55 158.15C111.78 157.22 112.27 157.13 112.45 157.13C112.5 157.13 112.52 157.13 112.52 157.13C112.52 157.13 120.29 157.07 121.02 157.07C121.75 157.07 121.73 158.16 121.73 158.16C121.73 158.16 122.05 157.91 122.12 157.26C120.79 154.06 120.31 146.04 120.18 143.48C120.16 143.11 119.85 142.83 119.5 142.83C119.45 142.83 119.41 142.83 119.36 142.84L92.5097 148.35C90.8197 148.7 89.1697 149.2 87.5797 149.86C84.4697 151.15 78.5597 153.6 71.3397 156.58C70.9297 158.59 70.5197 159.6 70.1097 159.6C69.7697 159.6 69.4297 158.9 69.0897 157.51C49.6697 165.55 22.4497 176.82 13.6597 180.44C13.5197 181.61 13.3797 182.19 13.2397 182.19C13.1097 182.19 12.9897 181.72 12.8597 180.77C11.6897 181.25 10.9797 181.54 10.8297 181.6C9.14968 182.25 6.21968 185.07 5.83968 185.4C5.45968 185.73 5.07968 187.03 5.07968 187.03C5.07968 187.03 4.80968 187.3 4.52968 187.3C4.28968 187.3 4.03968 187.08 3.98968 186.27C3.87968 184.91 4.78968 182.54 4.78968 182.54C4.78968 182.54 6.41968 177.71 8.47968 173.91C10.5397 170.11 13.5797 167.4 13.5797 167.4L84.8397 122.35C86.8997 121.05 88.8697 119.6 90.7397 118.03C97.7597 112.11 115.86 96.84 120.31 93.0799C120.89 92.59 121.22 91.89 121.24 91.13C121.28 89.03 121.68 85.86 121.94 84.07C122.07 83.13 122.14 82.1899 122.14 81.24V50.69C122.14 28.44 132.18 4.44995 135.44 4.44995M135.45 0.449951C133.85 0.449951 129.6 0.449951 123.79 17.97C121.69 24.3 118.16 36.97 118.16 50.7V81.25C118.16 82 118.11 82.77 118 83.52C117.72 85.53 117.38 88.28 117.29 90.42C112.15 94.7599 94.9797 109.24 88.1897 114.97C86.4697 116.42 84.6397 117.76 82.7397 118.96L11.4597 164.01C11.2697 164.13 11.0997 164.26 10.9297 164.41C10.7797 164.54 7.33968 167.64 4.97968 172C2.89968 175.84 1.26968 180.51 1.03968 181.19C0.659681 182.2 -0.130319 184.57 0.0196811 186.55C0.239681 189.82 2.51968 191.31 4.54968 191.31C6.28968 191.31 7.48968 190.3 7.92968 189.86C8.40968 189.38 8.74968 188.8 8.93968 188.15C8.95968 188.09 8.97968 188.02 9.00968 187.95C10.1997 186.86 10.9997 186.22 11.5097 185.84C12.0197 186.07 12.6097 186.19 13.2597 186.19C15.5097 186.19 16.5797 184.77 17.1197 183.35C27.2197 179.19 51.3597 169.19 67.3397 162.58C68.0297 163.19 68.9397 163.61 70.1397 163.61C72.9097 163.61 74.1397 161.47 74.7597 159.51L89.0897 153.58C90.4797 153 91.8997 152.57 93.3297 152.28L116.45 147.54C116.59 149.33 116.79 151.28 117.07 153.12C115.19 153.13 113.25 153.15 112.67 153.15C112.6 153.15 112.53 153.15 112.47 153.15C110.73 153.15 108.43 154.21 107.69 157.2C107.32 158.69 106.1 171.2 108.53 181.6C109.45 186.19 110.18 190.16 110.19 190.2C110.19 190.24 110.2 190.27 110.21 190.31C110.71 192.64 112.53 194.99 115.48 194.99H118.22C118.36 195.15 118.51 195.3 118.67 195.45L120.62 197.19L90.8597 218.82C89.7997 219.48 86.6697 221.8 86.4197 226.16C86.2497 229.09 86.3997 236.19 86.4197 236.81C86.4497 239.66 88.5597 241.88 91.2497 241.88C91.8697 241.88 92.4997 241.76 93.1197 241.53C94.2097 241.12 115.02 232.21 127.27 226.95L127.52 228.01C127.96 230.57 130.01 232.4 132.48 232.4C133.01 232.4 133.54 232.32 134.06 232.15C134.52 232.31 134.99 232.39 135.46 232.39C135.93 232.39 136.4 232.31 136.86 232.15C137.38 232.31 137.91 232.4 138.44 232.4C140.91 232.4 142.96 230.57 143.4 228.01L143.65 226.95C155.91 232.2 176.71 241.12 177.8 241.53C178.42 241.76 179.05 241.88 179.67 241.88C181.68 241.88 183.44 240.63 184.15 238.7C184.44 237.91 184.5 237.2 184.5 236.81C184.51 236.24 184.66 229.1 184.5 226.16C184.25 221.8 181.12 219.48 180.06 218.82L150.31 197.19L152.26 195.45C152.42 195.31 152.57 195.15 152.71 194.99H155.45C158.4 194.99 160.22 192.64 160.72 190.31C160.72 190.27 160.74 190.24 160.74 190.2C160.74 190.16 161.48 186.19 162.4 181.6C164.83 171.2 163.61 158.7 163.24 157.2C162.49 154.21 160.2 153.15 158.46 153.15C158.39 153.15 158.32 153.15 158.26 153.15C157.68 153.15 155.73 153.13 153.86 153.12C154.14 151.28 154.34 149.33 154.48 147.54L177.6 152.28C179.03 152.57 180.45 153.01 181.8 153.57L182.64 153.92L196.18 159.52C196.81 161.48 198.04 163.62 200.8 163.62C202 163.62 202.91 163.2 203.6 162.59C219.57 169.2 243.71 179.19 253.82 183.36C254.35 184.78 255.43 186.2 257.68 186.2C258.33 186.2 258.92 186.08 259.43 185.85C259.94 186.23 260.74 186.87 261.93 187.96C261.96 188.03 261.98 188.11 262 188.17C262.19 188.81 262.54 189.4 263.01 189.87C263.44 190.3 264.64 191.32 266.39 191.32C268.42 191.32 270.7 189.83 270.92 186.57C271.07 184.59 270.28 182.21 269.9 181.21C269.67 180.54 268.04 175.86 265.96 172.02C263.59 167.66 260.15 164.56 260.01 164.43C259.85 164.28 259.67 164.15 259.48 164.03L188.22 118.98C186.32 117.78 184.48 116.43 182.77 114.99C175.98 109.26 158.8 94.77 153.67 90.4399C153.58 88.2999 153.24 85.5499 152.96 83.5399C152.85 82.7799 152.8 82.02 152.8 81.27V50.72C152.8 36.99 149.27 24.32 147.17 17.99C141.29 0.449951 137.05 0.449951 135.45 0.449951Z" fill="black"/>
</g>
<defs>
<clipPath id="clip0_572_78">
<rect width="270.9" height="241.41" fill="white" transform="translate(0 0.449951)"/>
</clipPath>
</defs>
</svg>
