<svg width="271" height="247" viewBox="0 0 271 247" fill="none" xmlns="http://www.w3.org/2000/svg">
<g clip-path="url(#clip0_290_2)">
<path d="M178.729 244.17C177.929 244.17 177.089 243.93 176.169 243.43C174.049 242.29 157.249 234.38 142.979 227.72L140.969 232.75C140.529 233.85 139.479 234.56 138.299 234.56H132.609C131.429 234.56 130.379 233.85 129.939 232.75L127.929 227.72C113.659 234.39 96.8593 242.29 94.7393 243.43C93.8093 243.93 92.9793 244.17 92.1793 244.17C89.8693 244.17 88.6393 242.2 88.6093 240.25V230C88.6093 226.7 91.8793 224.4 92.4893 223.99L123.439 201.34L119.889 197.58H116.649C116.589 197.58 116.529 197.58 116.479 197.58C115.439 197.58 114.399 196.98 113.369 195.79C113.239 195.64 113.139 195.48 113.059 195.3C108.999 186.33 109.019 171.04 109.029 166.01V165.55C109.029 161.4 111.559 159.93 113.729 159.93C113.859 159.93 113.979 159.93 114.059 159.94H119.019C118.689 157.05 118.449 152.82 118.289 147.3L95.1693 151.28C92.8093 151.69 90.4793 152.35 88.2493 153.25L14.7193 185.92C12.6693 186.75 10.8793 188.03 9.46932 189.66C6.90932 192.62 5.64932 193.22 4.52932 193.22C3.73932 193.22 3.02932 192.86 2.55932 192.23C1.73932 191.13 1.79932 189.51 2.78932 186.28C6.11932 175.33 12.6493 170.01 12.9293 169.79C12.9893 169.74 13.0593 169.69 13.1293 169.65L61.7093 139.89C78.6493 129.51 94.7793 117.56 109.629 104.38L119.409 95.6998C120.099 95.0898 120.489 94.2098 120.489 93.2898V54.8398C120.489 40.4598 122.959 26.4598 127.839 13.2298C129.179 9.59977 130.319 6.91978 131.239 5.25978C132.089 3.71978 133.699 2.76978 135.449 2.76978C137.199 2.76978 138.809 3.71978 139.659 5.25978C140.579 6.91978 141.719 9.59977 143.059 13.2298C147.939 26.4598 150.409 40.4598 150.409 54.8398V93.2898C150.409 94.2098 150.799 95.0898 151.489 95.6998L158.299 101.74C175.469 116.97 194.099 130.76 213.689 142.72L257.769 169.64C257.839 169.68 257.909 169.73 257.979 169.79C258.259 170.01 264.789 175.33 268.119 186.28C269.099 189.51 269.159 191.13 268.349 192.23C267.889 192.86 267.169 193.22 266.379 193.22C265.259 193.22 263.999 192.61 261.439 189.66C260.029 188.04 258.239 186.75 256.249 185.95L182.599 153.25C180.429 152.38 178.099 151.72 175.739 151.31L152.619 147.33C152.469 152.85 152.229 157.08 151.899 159.97H156.859C156.939 159.97 157.059 159.96 157.189 159.96C159.359 159.96 161.889 161.43 161.889 165.58V166.04C161.889 171.06 161.919 186.36 157.859 195.33C157.779 195.51 157.679 195.67 157.549 195.82C156.519 197.01 155.469 197.61 154.439 197.61C154.389 197.61 154.329 197.61 154.269 197.61H151.029L147.479 201.37L178.429 224.02C179.039 224.42 182.309 226.73 182.309 230.03V240.26C182.279 242.24 181.049 244.21 178.739 244.21L178.729 244.17Z" fill="white"/>
<path d="M135.45 4.78979C136.41 4.78979 137.37 5.26979 137.91 6.23979C138.86 7.95979 140 10.7398 141.18 13.9298C146.01 27.0198 148.4 40.8898 148.4 54.8498V93.2998C148.4 94.7898 149.04 96.2098 150.15 97.1998L156.96 103.24C174.26 118.59 192.9 132.38 212.64 144.43L256.72 171.35C256.72 171.35 263.01 176.38 266.19 186.86C267.17 190.09 267.03 191.21 266.36 191.21C265.6 191.21 264.16 189.76 262.93 188.34C261.31 186.47 259.27 185.01 256.98 184.08L183.4 151.41C181.04 150.46 178.58 149.76 176.07 149.33L151.88 145.16C151.82 145.15 151.76 145.14 151.7 145.14C151.13 145.14 150.65 145.59 150.64 146.18C150.58 148.78 150.35 157.95 149.57 161.96H156.95C156.95 161.96 157.04 161.95 157.18 161.95C157.87 161.95 159.88 162.24 159.88 165.57C159.88 169.59 160.05 185.61 156.02 194.49C155.16 195.48 154.61 195.59 154.42 195.59C154.37 195.59 154.34 195.59 154.34 195.59H150.15L144.94 201.1C144.68 201.38 144.72 201.82 145.03 202.05L177.27 225.64C177.27 225.64 180.29 227.57 180.29 230V240.23C180.29 240.23 180.26 242.18 178.72 242.18C178.3 242.18 177.77 242.04 177.11 241.68C174.24 240.13 147.26 227.52 142.59 225.34C142.49 225.29 142.39 225.27 142.29 225.27C142.01 225.27 141.73 225.44 141.62 225.73L139.11 232.02C138.98 232.35 138.66 232.57 138.3 232.57H132.61C132.25 232.57 131.93 232.35 131.8 232.02L129.29 225.73C129.18 225.45 128.91 225.27 128.62 225.27C128.52 225.27 128.42 225.29 128.32 225.34C123.65 227.52 96.6695 240.13 93.7995 241.68C93.1295 242.04 92.5995 242.18 92.1895 242.18C90.6395 242.18 90.6195 240.23 90.6195 240.23V230C90.6195 227.57 93.6395 225.64 93.6395 225.64L125.88 202.05C126.19 201.82 126.23 201.38 125.97 201.1L120.76 195.59H116.57C116.57 195.59 116.54 195.59 116.49 195.59C116.3 195.59 115.75 195.49 114.89 194.49C110.87 185.6 111.03 169.59 111.03 165.57C111.03 162.24 113.04 161.95 113.73 161.95C113.87 161.95 113.96 161.96 113.96 161.96H121.34C120.56 157.95 120.34 148.78 120.27 146.18C120.26 145.59 119.77 145.14 119.21 145.14C119.15 145.14 119.09 145.14 119.03 145.16L94.8395 149.33C92.3295 149.76 89.8695 150.46 87.5095 151.41L13.9095 184.09C11.6195 185.02 9.57953 186.47 7.95953 188.35C6.72953 189.77 5.28953 191.22 4.52953 191.22C3.85953 191.22 3.71953 190.1 4.69953 186.87C7.88953 176.39 14.1695 171.36 14.1695 171.36L62.7495 141.6C79.8395 131.13 95.9695 119.18 110.96 105.88L120.74 97.1998C121.86 96.2098 122.49 94.7898 122.49 93.2998V54.8498C122.49 40.8898 124.89 27.0298 129.71 13.9298C130.89 10.7398 132.03 7.95979 132.98 6.23979C133.51 5.26979 134.48 4.78979 135.44 4.78979M135.45 0.789795C132.97 0.789795 130.69 2.13979 129.49 4.30979C128.51 6.07979 127.36 8.7798 125.97 12.5498C121.01 25.9998 118.5 40.2298 118.5 54.8498V93.2998C118.5 93.6498 118.35 93.9798 118.09 94.2098L108.31 102.89C93.5395 116 77.5095 127.87 60.6695 138.19L12.0895 167.95C11.9495 168.04 11.8095 168.13 11.6795 168.24C11.3795 168.48 4.37953 174.18 0.87953 185.71C-0.13047 189.04 -0.47047 191.5 0.95953 193.43C1.80953 194.57 3.10953 195.22 4.52953 195.22C6.83953 195.22 8.70953 193.59 10.9795 190.97C12.1795 189.58 13.7095 188.49 15.3995 187.81C15.4395 187.79 15.4895 187.77 15.5295 187.76L89.0495 155.11C91.1295 154.28 93.2995 153.66 95.4995 153.28L116.35 149.69C116.46 152.96 116.61 155.73 116.8 157.97H114.11C113.99 157.97 113.86 157.96 113.71 157.96C112.18 157.96 110.7 158.49 109.55 159.44C108.39 160.4 107.01 162.24 107.01 165.58V166.04C107.01 171.17 106.98 186.79 111.22 196.15C111.38 196.5 111.59 196.83 111.84 197.12C113.26 198.76 114.82 199.6 116.46 199.6C116.55 199.6 116.63 199.6 116.72 199.6H119.01L120.41 201.09L91.3295 222.37C90.2995 223.06 86.5895 225.81 86.5895 230.02V240.25C86.5895 240.25 86.5895 240.29 86.5895 240.3C86.6295 243.16 88.5895 246.2 92.1595 246.2C93.2995 246.2 94.4495 245.88 95.6695 245.22C97.6495 244.15 113.05 236.9 126.84 230.45L128.07 233.52C128.81 235.38 130.59 236.58 132.6 236.58H138.29C140.3 236.58 142.07 235.38 142.82 233.52L144.05 230.45C157.84 236.9 173.23 244.14 175.22 245.22C176.45 245.88 177.6 246.2 178.73 246.2C182.3 246.2 184.26 243.16 184.3 240.3C184.3 240.28 184.3 240.26 184.3 240.25V230.02C184.3 225.81 180.59 223.06 179.56 222.37L150.48 201.09L151.88 199.6H154.17C154.26 199.6 154.34 199.6 154.43 199.6C156.07 199.6 157.63 198.77 159.05 197.12C159.3 196.83 159.51 196.5 159.67 196.15C163.91 186.79 163.89 171.17 163.88 166.04V165.58C163.88 160.35 160.41 157.96 157.18 157.96C157.03 157.96 156.9 157.96 156.78 157.97H154.09C154.28 155.73 154.43 152.96 154.54 149.69L175.39 153.28C177.59 153.66 179.76 154.27 181.84 155.11L255.36 187.76C255.36 187.76 255.44 187.8 255.49 187.81C257.18 188.49 258.71 189.59 259.91 190.97C262.18 193.6 264.05 195.22 266.36 195.22C267.79 195.22 269.09 194.57 269.93 193.43C271.36 191.5 271.02 189.04 270.01 185.71C266.5 174.18 259.5 168.48 259.21 168.24C259.08 168.13 258.94 168.04 258.8 167.95L214.72 141.03C195.23 129.13 176.69 115.41 159.61 100.26L152.8 94.2198C152.54 93.9898 152.39 93.6598 152.39 93.3098V54.8598C152.39 40.2398 149.88 26.0098 144.92 12.5598C143.53 8.78979 142.38 6.0898 141.4 4.31979C140.2 2.14979 137.92 0.799795 135.44 0.799795L135.45 0.789795Z" fill="black"/>
</g>
<defs>
<clipPath id="clip0_290_2">
<rect width="270.9" height="245.38" fill="white" transform="translate(0 0.789795)"/>
</clipPath>
</defs>
</svg>
