<svg width="179" height="87" viewBox="0 0 179 87" fill="none" xmlns="http://www.w3.org/2000/svg">
<g clip-path="url(#clip0_393_7)">
<path d="M89.73 85.4102C88.5 85.4102 87.26 85.3602 86.03 85.2602L72.97 84.2202C72.24 84.1602 71.67 83.5402 71.67 82.8102V77.4502C71.67 76.8302 72.12 76.2902 72.73 76.1702L87.85 73.3602C87.05 57.4102 86.29 45.8402 85.19 41.1702C84.91 40.0002 84.45 39.9702 83.86 39.9402C83.76 39.9402 3.12002 33.9402 3.12002 33.9402C2.33002 33.8802 1.71002 33.2202 1.71002 32.4302V26.3102C1.71002 26.2402 1.71002 26.1802 1.73002 26.1102C2.02002 24.6602 3.22002 24.0702 3.88002 23.9402C3.94002 23.9302 4.00002 23.9202 4.06002 23.9202L76.06 23.8702C76.68 23.8702 77.3 23.8002 77.91 23.6602L79.51 23.2902C79.7 22.8102 80.12 22.3402 80.89 22.1002C81.09 22.0402 81.29 22.0102 81.48 22.0102C82.04 22.0102 82.47 22.2702 82.76 22.6402L83.28 22.5402C83.49 19.9602 84.2 11.6002 84.81 8.57023C85.09 7.17023 85.56 6.20023 86.07 5.52023C83.96 5.39023 81.5 5.16023 81.35 5.15023C81.31 5.15023 81.27 5.15023 81.24 5.13023C80.22 4.91023 80.12 4.21023 80.12 4.00023C80.11 3.59023 80.29 3.05023 81.24 2.79023C81.33 2.77023 81.42 2.75023 81.51 2.75023C81.51 2.75023 87.07 2.77023 87.79 2.77023C87.92 2.38023 88.12 1.99023 88.39 1.63023C88.69 1.23023 89.17 0.990234 89.67 0.990234C90.17 0.990234 90.64 1.22023 90.94 1.63023C91.21 1.99023 91.41 2.38023 91.54 2.77023C92.25 2.77023 97.83 2.73023 97.83 2.73023C97.92 2.73023 98.01 2.74023 98.09 2.77023C99.04 3.03023 99.23 3.57023 99.21 3.98023C99.21 4.19023 99.11 4.89023 98.09 5.11023C98.05 5.11023 98.01 5.12023 97.98 5.13023C97.83 5.14023 95.37 5.38023 93.26 5.52023C93.77 6.19023 94.24 7.16023 94.53 8.56024C95.15 11.5802 95.89 19.9402 96.11 22.5202L96.63 22.6202C96.92 22.2402 97.35 21.9802 97.92 21.9802C98.11 21.9802 98.3 22.0102 98.5 22.0702C99.28 22.3102 99.69 22.7702 99.88 23.2602L101.48 23.6302C102.08 23.7702 102.69 23.8402 103.3 23.8402L175.32 23.6302C175.38 23.6302 175.44 23.6302 175.5 23.6502C176.16 23.7702 177.36 24.3602 177.66 25.8102C177.67 25.8702 177.68 25.9402 177.68 26.0102L177.7 32.1302C177.7 32.9202 177.09 33.5902 176.3 33.6502C176.3 33.6502 95.68 39.9302 95.59 39.9302C95 39.9702 94.53 39.9902 94.26 41.1702C93.18 45.8402 92.46 57.4102 91.72 73.3602L106.84 76.1102C107.46 76.2302 107.9 76.7602 107.91 77.3802L107.93 82.7402C107.93 83.4702 107.36 84.0902 106.64 84.1502L93.58 85.2402C92.3 85.3502 91.01 85.4002 89.73 85.4002V85.4102Z" fill="white"/>
<path d="M89.66 2C89.84 2 90.01 2.08 90.13 2.24C90.4 2.61 90.69 3.15 90.7 3.79C91.29 3.79 96.14 3.75 97.82 3.74C98.66 3.97 97.88 4.14 97.88 4.14C97.88 4.14 92.86 4.62 90.98 4.62C90.95 4.62 90.91 4.62 90.88 4.62V5.02C90.88 5.02 92.84 5.27 93.55 8.76C94.27 12.26 95.18 23.36 95.18 23.36L97.24 23.76C97.24 23.76 97.3 22.98 97.92 22.98C98.01 22.98 98.1 22.99 98.21 23.03C99.19 23.33 99 24.08 99 24.08L101.27 24.6C101.94 24.75 102.63 24.83 103.32 24.83C103.32 24.83 103.34 24.83 103.35 24.83L175.35 24.62C175.35 24.62 176.47 24.82 176.7 25.99L176.72 32.11C176.72 32.38 176.51 32.61 176.24 32.63L95.75 38.89C95.18 38.96 93.79 38.79 93.3 40.91C92.27 45.38 91.53 55.92 90.71 73.84C90.71 74.02 90.83 74.18 91 74.21L106.68 77.06C106.82 77.09 106.92 77.21 106.92 77.35L106.94 82.71C106.94 82.92 106.78 83.1 106.56 83.12L93.5 84.21C92.25 84.31 90.99 84.37 89.73 84.37C88.47 84.37 87.32 84.32 86.12 84.23L73.06 83.19C72.85 83.17 72.68 82.99 72.68 82.78V77.42C72.68 77.28 72.78 77.15 72.92 77.13L88.59 74.22C88.77 74.19 88.89 74.03 88.88 73.85C87.99 55.93 87.22 45.39 86.17 40.93C85.67 38.81 84.28 38.98 83.71 38.91L3.19002 32.96C2.92002 32.94 2.71002 32.71 2.71002 32.44V26.32C2.94002 25.15 4.06002 24.94 4.06002 24.94L76.06 24.89C76.76 24.89 77.45 24.81 78.13 24.65L80.39 24.12C80.39 24.12 80.2 23.37 81.17 23.06C81.28 23.03 81.38 23.01 81.46 23.01C82.08 23.01 82.14 23.78 82.14 23.78L84.19 23.37C84.19 23.37 85.06 12.27 85.77 8.77C86.47 5.27 88.43 5.02 88.43 5.02V4.62C88.43 4.62 88.34 4.62 88.29 4.62C86.38 4.62 81.43 4.16 81.43 4.16C81.43 4.16 80.65 3.99 81.49 3.76C83.17 3.76 88.03 3.78 88.61 3.78C88.61 3.14 88.9 2.6 89.17 2.23C89.29 2.07 89.46 1.99 89.64 1.99M89.66 0C88.84 0 88.07 0.39 87.58 1.05C87.4 1.29 87.25 1.53 87.12 1.79C86.48 1.79 85.72 1.79 84.95 1.79H81.51V1.78C81.33 1.78 81.15 1.8 80.97 1.85C79.2 2.34 79.11 3.66 79.12 4.06C79.14 4.84 79.66 5.84 81.03 6.14C81.11 6.16 81.18 6.17 81.26 6.18C81.37 6.19 82.81 6.32 84.42 6.45C84.18 7.01 83.98 7.66 83.83 8.41C83.29 11.08 82.68 17.79 82.39 21.2C82.11 21.1 81.81 21.04 81.48 21.04C81.19 21.04 80.89 21.09 80.59 21.18C79.78 21.43 79.2 21.9 78.84 22.45L77.68 22.72C77.15 22.84 76.6 22.91 76.06 22.91L4.06002 22.96C3.94002 22.96 3.82002 22.97 3.70002 22.99C2.79002 23.16 1.15002 23.97 0.750022 25.94C0.720022 26.07 0.710022 26.2 0.710022 26.33V32.45C0.710022 33.76 1.73002 34.86 3.04002 34.96L83.52 40.94C83.6 40.94 83.69 40.95 83.79 40.96C83.87 40.96 83.98 40.97 84.05 40.98C84.08 41.04 84.15 41.17 84.21 41.42C85.12 45.3 85.88 54.36 86.8 72.55L72.55 75.2C71.46 75.4 70.67 76.35 70.67 77.46V82.82C70.67 84.07 71.64 85.12 72.89 85.22L85.95 86.26C87.2 86.36 88.47 86.41 89.72 86.41C90.97 86.41 92.35 86.35 93.66 86.25L106.72 85.16C107.96 85.06 108.94 84 108.93 82.75L108.91 77.39C108.91 76.28 108.11 75.34 107.03 75.14L92.76 72.54C93.62 54.35 94.34 45.28 95.24 41.4C95.3 41.15 95.36 41.02 95.39 40.96C95.46 40.95 95.57 40.94 95.65 40.94C95.75 40.94 95.84 40.93 95.92 40.92L176.38 34.66C177.69 34.56 178.71 33.45 178.7 32.14L178.68 26.02C178.68 25.89 178.67 25.76 178.64 25.63C178.24 23.66 176.59 22.85 175.68 22.69C175.56 22.67 175.44 22.66 175.32 22.66L103.32 22.87C102.76 22.87 102.22 22.81 101.7 22.69L100.54 22.43C100.18 21.88 99.6 21.41 98.79 21.16C98.5 21.07 98.2 21.02 97.91 21.02C97.57 21.02 97.26 21.08 96.99 21.18C96.69 17.77 96.05 11.06 95.5 8.39C95.35 7.64 95.14 6.99 94.9 6.43C96.52 6.3 97.95 6.16 98.06 6.15C98.14 6.15 98.21 6.13 98.29 6.11C99.66 5.81 100.18 4.8 100.2 4.03C100.21 3.64 100.11 2.32 98.34 1.83C98.17 1.78 97.99 1.76 97.81 1.76C97.81 1.76 97.81 1.76 97.8 1.76L94.35 1.78C93.58 1.78 92.81 1.79 92.18 1.8C92.05 1.55 91.9 1.3 91.72 1.07C91.23 0.42 90.46 0.03 89.65 0.03L89.66 0Z" fill="black"/>
</g>
<defs>
<clipPath id="clip0_393_7">
<rect width="178" height="86.41" fill="white" transform="translate(0.710022)"/>
</clipPath>
</defs>
</svg>
