<svg width="70" height="69" viewBox="0 0 70 69" fill="none" xmlns="http://www.w3.org/2000/svg">
<g clip-path="url(#clip0_111_42)">
<path d="M66.9208 2.98001L43.9108 16.42L44.0508 7.43001C44.0508 7.43001 44.1908 6.92001 43.4508 6.91001C42.7108 6.90001 42.8308 8.25001 42.8308 8.25001L42.7508 13.12H42.0308V12.98L42.0608 10.99C42.1708 3.68001 35.5008 3.83001 35.5008 3.83001C35.5008 3.83001 28.8308 3.57001 28.8308 10.88V13H28.1108V8.13001C28.1108 8.13001 28.2508 6.78001 27.5208 6.78001C26.7908 6.78001 26.9108 7.29001 26.9108 7.29001V15.86L3.09082 4.77001C2.97082 4.71001 2.82082 4.77001 2.76082 4.89001L2.24082 5.96001C2.18082 6.08001 2.24082 6.23001 2.36082 6.29001L26.9008 17.84V26.44C26.9008 26.44 26.8008 26.92 27.3808 26.92C27.9608 26.92 27.9908 26.57 27.9908 26.57V23.84H29.0108C29.1208 24.39 29.2708 24.94 29.4708 25.46C30.2308 27.46 31.5708 30.84 33.0808 33.9C33.2308 34.2 33.3108 34.52 33.3108 34.86C33.3508 38.93 33.7608 54.3 33.7608 54.3H29.7808C29.4508 54.3 29.1808 54.54 29.1408 54.87L28.9208 56.68C28.8708 57.07 29.1708 57.41 29.5608 57.41H33.8308L34.1508 64.33C34.1508 64.33 34.0608 66.06 35.0208 66.06C35.9808 66.07 35.9108 64.34 35.9108 64.34L36.3408 57.42L40.6108 57.49C41.0008 57.49 41.3008 57.16 41.2608 56.77L41.0608 54.96C41.0208 54.64 40.7508 54.39 40.4308 54.38L36.4508 54.32C36.4508 54.32 36.9908 41.59 37.1608 36.24L41.7208 57.39C41.7508 57.52 41.8808 57.61 42.0208 57.58L43.1808 57.32C43.3108 57.29 43.4008 57.16 43.3708 57.03L38.1708 32.49C39.4308 29.88 40.5308 27.24 41.1908 25.56C41.4008 25.03 41.5608 24.49 41.6708 23.94L42.6908 23.96L42.6508 26.68C42.6508 26.68 42.6808 27.03 43.2508 27.04C43.8308 27.04 43.7408 26.57 43.7408 26.57L43.8708 18.51L67.7608 4.45001C67.8808 4.38001 67.9208 4.23001 67.8508 4.11001L67.2508 3.08001C67.1808 2.96001 67.0308 2.92001 66.9108 2.99001L66.9208 2.98001ZM42.7408 13.95L42.6908 17.13L41.9608 17.55L42.0208 13.93H42.7408V13.95ZM28.1108 13.84H28.8308V16.77L28.1108 16.43V13.84ZM28.1108 23.04V18.41L28.8308 18.75V21.93C28.8308 22.3 28.8608 22.67 28.9008 23.04H28.1108ZM42.5908 23.15H41.8008C41.8508 22.77 41.8808 22.4 41.8908 22.03L41.9308 19.66L42.6608 19.23L42.6008 23.15H42.5908Z" fill="white"/>
<path d="M67.0406 2.94995C67.1306 2.94995 67.2106 2.98995 67.2607 3.06995L67.8606 4.09995C67.9306 4.21995 67.8907 4.36995 67.7707 4.43995L43.8806 18.5L43.7506 26.56C43.7506 26.56 43.8407 27.03 43.2807 27.03H43.2607C42.6806 27.03 42.6606 26.67 42.6606 26.67L42.7006 23.95L41.6806 23.93C41.5606 24.4799 41.4106 25.02 41.2006 25.55C40.5406 27.22 39.4406 29.87 38.1806 32.48L43.3806 57.02C43.4106 57.15 43.3207 57.28 43.1907 57.31L42.0307 57.57C42.0307 57.57 41.9906 57.57 41.9806 57.57C41.8706 57.57 41.7607 57.4899 41.7407 57.3699L37.1806 36.22C37.0107 41.57 36.4706 54.2999 36.4706 54.2999L40.4506 54.36C40.7807 54.36 41.0507 54.61 41.0807 54.94L41.2807 56.75C41.3207 57.13 41.0206 57.47 40.6406 57.47H40.6306L36.3606 57.4L35.9306 64.32C35.9306 64.32 36.0007 66.0399 35.0507 66.0399H35.0406C34.0807 66.0399 34.1707 64.31 34.1707 64.31L33.8507 57.3899H29.5807C29.1907 57.3899 28.8906 57.0499 28.9406 56.66L29.1607 54.85C29.2007 54.53 29.4806 54.28 29.8006 54.28H33.7807C33.7807 54.28 33.3707 38.91 33.3307 34.84C33.3307 34.5099 33.2507 34.18 33.1007 33.88C31.5807 30.82 30.2407 27.44 29.4907 25.44C29.2906 24.91 29.1406 24.37 29.0306 23.82H28.0107V26.55C28.0107 26.55 27.9806 26.9 27.4007 26.9C26.8207 26.9 26.9207 26.42 26.9207 26.42V17.82L2.36065 6.28995C2.24065 6.22995 2.18065 6.07995 2.24065 5.95995L2.75065 4.87995C2.79065 4.78995 2.88065 4.73995 2.97065 4.73995C3.01065 4.73995 3.04065 4.73995 3.07065 4.75995L26.8906 15.86V7.29995C26.8906 7.29995 26.7607 6.78995 27.5007 6.78995C28.2407 6.78995 28.0907 8.13995 28.0907 8.13995V13.01H28.8106V10.89C28.8106 4.05995 34.6407 3.83995 35.4007 3.83995C35.4506 3.83995 35.4806 3.83995 35.4806 3.83995C35.4806 3.83995 35.4907 3.83995 35.5107 3.83995C36.0007 3.83995 42.1507 3.97995 42.0406 11L42.0107 12.99V13.12L42.7306 13.13L42.8106 8.25995C42.8106 8.25995 42.6907 6.91995 43.4207 6.91995C44.1607 6.92995 44.0206 7.43995 44.0206 7.43995L43.8806 16.43L66.8906 2.98995C66.8906 2.98995 66.9706 2.95995 67.0107 2.95995M28.8307 16.77V13.84H28.1106V16.43L28.8307 16.77ZM41.9607 17.56L42.6907 17.14L42.7407 13.96H42.0206L41.9607 17.57M28.1106 23.04H28.9007C28.8606 22.67 28.8307 22.3 28.8307 21.93V18.75L28.1106 18.41V23.04ZM42.5906 23.15L42.6507 19.23L41.9207 19.66L41.8806 22.03C41.8806 22.4 41.8406 22.77 41.7906 23.14H42.5807M67.0406 0.949951C66.6406 0.949951 66.2506 1.05995 65.9107 1.25995L45.9607 12.91L46.0406 7.59995C46.1007 6.99995 45.9406 6.38995 45.5706 5.89995C45.3006 5.53995 44.6606 4.92995 43.4706 4.90995C43.0807 4.90995 42.7107 4.98995 42.3806 5.13995C42.1707 4.85995 41.9407 4.58995 41.7006 4.33995C39.3507 1.94995 36.1507 1.82995 35.5307 1.82995H35.5206C35.5206 1.82995 35.4607 1.82995 35.4207 1.82995C34.8406 1.82995 32.7906 1.91995 30.8307 3.06995C30.0907 3.49995 29.2906 4.12995 28.6006 5.01995C28.2706 4.85995 27.9006 4.77995 27.5206 4.77995C26.3306 4.77995 25.6807 5.37995 25.4007 5.73995C25.0306 6.21995 24.8507 6.82995 24.9107 7.42995V12.73L3.93065 2.94995C3.63065 2.80995 3.31065 2.73995 2.98065 2.73995C2.12065 2.73995 1.32065 3.23995 0.95065 4.01995L0.44065 5.09995C0.18065 5.63995 0.15065 6.25995 0.35065 6.82995C0.55065 7.39995 0.96065 7.84995 1.51065 8.10995L24.9007 19.12V26.34C24.8507 26.95 25.0406 27.58 25.4306 28.05C25.9006 28.62 26.5906 28.93 27.3806 28.93C27.8307 28.93 28.2306 28.84 28.5807 28.68C29.3407 30.57 30.2806 32.74 31.2906 34.7999C31.3106 34.84 31.3106 34.8699 31.3106 34.8899C31.3407 38.0799 31.5906 47.97 31.7006 52.31H29.7706C28.4406 52.31 27.3106 53.31 27.1406 54.63L26.9207 56.44C26.8307 57.19 27.0606 57.95 27.5606 58.52C28.0606 59.09 28.7806 59.41 29.5406 59.41H31.9007L32.1306 64.34C32.1106 64.9799 32.1906 66.31 33.0606 67.2299C33.5706 67.77 34.2606 68.06 35.0006 68.06C35.7407 68.06 36.4307 67.77 36.9407 67.24C37.8106 66.3299 37.9106 65.0099 37.9007 64.38L38.2006 59.45L40.5606 59.49C40.7506 59.49 40.9407 59.47 41.1306 59.43C41.3806 59.5299 41.6607 59.58 41.9407 59.58C42.1007 59.58 42.2706 59.56 42.4306 59.53L43.6007 59.27C44.8007 59.01 45.5706 57.81 45.3106 56.61L40.2506 32.73C40.9007 31.35 41.5006 29.99 42.0206 28.78C42.3606 28.94 42.7607 29.04 43.2107 29.04C44.0407 29.04 44.7206 28.7299 45.1806 28.18C45.5706 27.71 45.7606 27.1 45.7306 26.49L45.8406 19.67L68.7707 6.17995C69.8307 5.54995 70.1907 4.17995 69.5807 3.11995L68.9906 2.08995C68.5906 1.39995 67.8407 0.959951 67.0406 0.959951V0.949951ZM38.5406 52.35C38.5406 52.29 38.5406 52.22 38.5406 52.16L38.5807 52.36H38.5307L38.5406 52.35Z" fill="black"/>
</g>
<defs>
<clipPath id="clip0_111_42">
<rect width="69.66" height="67.1" fill="white" transform="translate(0.220703 0.949951)"/>
</clipPath>
</defs>
</svg>
