<svg width="91" height="105" viewBox="0 0 91 105" fill="none" xmlns="http://www.w3.org/2000/svg">
<g clip-path="url(#clip0_584_17)">
<path d="M45.5094 103.885C45.0594 103.885 44.6594 103.705 44.3794 103.375C43.8894 102.805 43.9394 101.975 43.9794 101.615V100.475C43.3994 100.245 43.0194 99.6655 42.8494 99.1555C42.8094 99.0455 42.7994 98.9255 42.7994 98.8055L42.8494 97.5055C42.6594 97.2455 42.4194 96.9255 42.2194 96.7555C41.5194 96.1555 41.2894 95.1055 41.2494 94.9055C41.2394 94.8455 41.2294 94.7755 41.2294 94.7155V94.2855C37.1194 96.3555 30.7894 99.5655 30.0794 99.9355C29.6794 100.145 29.2694 100.255 28.8494 100.255C27.8994 100.255 27.3294 99.6955 27.2294 99.5855C27.1494 99.5055 27.0894 99.4055 27.0494 99.3055L26.7094 98.5355C25.6494 96.5555 26.8994 94.1155 26.9494 94.0055C27.0094 93.8855 27.0894 93.7855 27.1894 93.7055C27.1894 93.7055 37.7494 84.7755 40.0094 82.8555C39.2894 77.5655 38.5494 65.7055 38.3594 62.3755C32.9994 65.1555 7.34941 78.4555 6.50941 78.8955C6.08941 79.1155 5.67941 79.2255 5.29941 79.2255C4.61941 79.2255 4.13941 78.8855 3.91941 78.5555C3.87941 78.4955 3.84941 78.4355 3.81941 78.3755C3.80941 78.3455 3.48941 77.5655 2.22941 73.9555C0.799408 69.8755 2.67941 67.3055 2.75941 67.2055C2.80941 67.1455 2.85941 67.0855 2.91941 67.0355L12.4394 59.0455V58.9255C12.4394 58.7855 12.4494 58.6455 12.4894 58.5055C12.5894 58.1355 12.9094 57.0355 13.9094 57.0355C14.1794 57.0355 14.3994 57.1155 14.5894 57.2455L23.9794 49.3655L23.9294 44.8655C23.9294 44.7255 23.9494 44.5755 23.9894 44.4455C24.0894 44.0855 24.3994 42.9855 25.3994 42.9855C26.3194 42.9855 26.7094 43.9655 26.8494 44.3355C26.9194 44.5055 26.9494 44.6955 26.9494 44.8855V46.8755L37.8794 37.7055C37.9994 37.6055 38.0694 37.4555 38.0694 37.2955V28.9455C38.0694 23.8655 38.8894 17.0755 39.2794 13.8055C39.3594 13.1755 39.4094 12.6955 39.4494 12.3955C39.5994 10.9155 40.2994 10.1355 40.9494 9.78547C42.4994 3.48547 43.1494 1.10547 45.5094 1.10547C47.8694 1.10547 48.5194 3.47547 50.0694 9.78547C50.7194 10.1455 51.4094 10.9155 51.5694 12.3955C51.5994 12.6955 51.6594 13.1855 51.7394 13.8055C52.1294 17.0755 52.9494 23.8755 52.9494 28.9455V37.2955C52.9494 37.4555 53.0194 37.6055 53.1394 37.7055L64.0694 46.8755V44.8855C64.0694 44.6955 64.1094 44.5055 64.1694 44.3355C64.3094 43.9655 64.6994 42.9855 65.6194 42.9855C66.6194 42.9855 66.9294 44.0855 67.0294 44.4455C67.0694 44.5855 67.0894 44.7255 67.0894 44.8655L67.0394 49.3655L76.4294 57.2455C76.6094 57.1255 76.8394 57.0355 77.1094 57.0355C78.1094 57.0355 78.4194 58.1355 78.5194 58.4955C78.5594 58.6355 78.5794 58.7855 78.5794 58.9255V59.0455L88.0994 67.0355C88.1594 67.0855 88.2094 67.1355 88.2594 67.2055C88.3394 67.3155 90.2194 69.8755 88.7894 73.9555C87.5294 77.5655 87.2094 78.3355 87.1994 78.3755C87.1694 78.4355 87.1394 78.5055 87.0994 78.5555C86.8794 78.8755 86.3994 79.2255 85.7194 79.2255C85.3394 79.2255 84.9294 79.1155 84.5094 78.8955C83.6694 78.4555 57.9694 65.1255 52.6594 62.3755C52.4594 65.7855 51.7294 77.5755 51.0094 82.8455C53.2694 84.7655 63.8294 93.6955 63.8294 93.6955C63.9294 93.7755 64.0094 93.8855 64.0694 93.9955C64.1194 94.0955 65.3694 96.5355 64.2794 98.5855L63.9694 99.2955C63.9194 99.3955 63.8594 99.4955 63.7894 99.5755C63.6894 99.6855 63.1094 100.245 62.1694 100.245C61.7594 100.245 61.3494 100.135 60.9494 99.9255C60.2394 99.5455 53.9094 96.3455 49.7994 94.2755V94.7055C49.7994 94.7655 49.7994 94.8355 49.7794 94.8955C49.7394 95.0955 49.5094 96.1455 48.8094 96.7455C48.6194 96.9155 48.3694 97.2355 48.1794 97.4955L48.2294 98.7955C48.2294 98.9155 48.2194 99.0255 48.1794 99.1455C48.0094 99.6555 47.6294 100.235 47.0494 100.465V101.605C47.0994 101.955 47.1394 102.785 46.6494 103.365C46.3694 103.695 45.9694 103.875 45.5194 103.875L45.5094 103.885Z" fill="white"/>
<path d="M45.5096 2.11547C47.0696 2.11547 47.6396 4.10547 49.2196 10.5455C49.2196 10.5455 50.3796 10.6755 50.5696 12.5155C50.7596 14.3555 51.9396 22.9555 51.9396 28.9655V37.3155C51.9396 37.7655 52.1396 38.1955 52.4896 38.4855L65.0596 49.0255V44.8855C65.0596 44.8255 65.0696 44.7655 65.0896 44.7055C65.2696 44.2455 65.4396 43.9855 65.6096 43.9855C65.7696 43.9855 65.9196 44.2155 66.0596 44.7155C66.0696 44.7555 66.0796 44.8055 66.0796 44.8555L66.0196 49.8255L76.5896 58.6955C76.7596 58.2755 76.9296 58.0355 77.0896 58.0355C77.2496 58.0355 77.3996 58.2655 77.5396 58.7655C77.5496 58.8055 77.5596 58.8555 77.5596 58.9055V59.5055L87.4396 67.7955C87.4396 67.7955 89.0896 69.9955 87.8296 73.6155C86.5596 77.2455 86.2596 77.9755 86.2596 77.9755C86.2596 77.9755 86.0996 78.2055 85.7096 78.2055C85.5196 78.2055 85.2696 78.1555 84.9596 77.9855C84.0096 77.4855 52.1596 60.9755 52.1596 60.9755C52.1596 60.9755 52.0896 60.9355 52.0096 60.9355C51.8796 60.9355 51.7196 61.0255 51.6996 61.4655C51.6696 62.1855 50.8196 76.8555 49.9996 82.7855C49.9596 83.0655 50.0696 83.3355 50.2796 83.5155C52.3696 85.2955 63.1796 94.4255 63.1796 94.4255C63.1796 94.4255 64.2496 96.4755 63.3896 98.0855L63.0496 98.8555C63.0496 98.8555 62.7196 99.2055 62.1596 99.2055C61.9396 99.2055 61.6896 99.1555 61.4096 99.0055C60.5596 98.5555 52.1496 94.3055 49.5496 92.9955C49.4696 92.9555 49.3896 92.9355 49.3096 92.9355C49.0396 92.9355 48.7896 93.1555 48.7896 93.4655V94.6655C48.7896 94.6655 48.6196 95.5455 48.1496 95.9455C47.6796 96.3555 47.1696 97.1655 47.1696 97.1655L47.2296 98.7955C47.2296 98.7955 46.9896 99.5255 46.5196 99.5255H46.0496V101.645C46.0496 101.645 46.2496 102.845 45.5196 102.845C44.7896 102.845 44.9896 101.645 44.9896 101.645V99.5255H44.5196C44.0496 99.5255 43.8096 98.7955 43.8096 98.7955L43.8696 97.1655C43.8696 97.1655 43.3596 96.3555 42.8896 95.9455C42.4196 95.5355 42.2496 94.6655 42.2496 94.6655V93.4655C42.2496 93.1655 41.9996 92.9355 41.7296 92.9355C41.6496 92.9355 41.5696 92.9555 41.4896 92.9955C38.8896 94.3055 30.4796 98.5555 29.6296 99.0055C29.3496 99.1555 29.0896 99.2055 28.8796 99.2055C28.3196 99.2055 27.9896 98.8555 27.9896 98.8555L27.6496 98.0855C26.7896 96.4855 27.8596 94.4255 27.8596 94.4255C27.8596 94.4255 38.6696 85.2855 40.7596 83.5155C40.9696 83.3355 41.0796 83.0555 41.0396 82.7855C40.2196 76.8555 39.3696 62.1855 39.3396 61.4655C39.3196 61.0155 39.1496 60.9355 39.0296 60.9355C38.9496 60.9355 38.8796 60.9755 38.8796 60.9755C38.8796 60.9755 7.01957 77.4855 6.07957 77.9855C5.76957 78.1455 5.52957 78.2055 5.32957 78.2055C4.93957 78.2055 4.77957 77.9755 4.77957 77.9755C4.77957 77.9755 4.47957 77.2355 3.20957 73.6155C1.93957 69.9855 3.59957 67.7955 3.59957 67.7955L13.4796 59.5055V58.9055C13.4796 58.9055 13.4796 58.8155 13.4896 58.7655C13.6296 58.2555 13.7796 58.0355 13.9396 58.0355C14.0996 58.0355 14.2696 58.2755 14.4396 58.6955L25.0096 49.8255L24.9496 44.8555C24.9496 44.8555 24.9496 44.7655 24.9696 44.7155C25.1096 44.2055 25.2596 43.9855 25.4196 43.9855C25.5896 43.9855 25.7596 44.2455 25.9396 44.7055C25.9596 44.7655 25.9696 44.8255 25.9696 44.8855V49.0255L38.5396 38.4855C38.8896 38.1955 39.0896 37.7655 39.0896 37.3155V28.9655C39.0896 22.9555 40.2696 14.3555 40.4596 12.5155C40.6496 10.6755 41.8096 10.5455 41.8096 10.5455C43.3896 4.10547 43.9596 2.11547 45.5196 2.11547M45.5096 0.115469C42.4396 0.115469 41.6496 2.78547 40.0796 9.17547C39.3296 9.73547 38.6296 10.7055 38.4696 12.3055C38.4396 12.6055 38.3796 13.0855 38.3096 13.7055C37.9096 16.9955 37.0896 23.8355 37.0896 28.9655V37.1055L27.9696 44.7555C27.9496 44.4955 27.8996 44.2355 27.7996 43.9855C27.2796 42.6755 26.4796 42.0055 25.4196 42.0055C24.7596 42.0055 23.5796 42.2855 23.0396 44.1955C22.9796 44.4255 22.9396 44.6655 22.9496 44.9055L22.9996 48.9355L14.4296 56.1255C14.2596 56.0855 14.0896 56.0755 13.9396 56.0755C13.2796 56.0755 12.0996 56.3555 11.5596 58.2655C11.5296 58.3755 11.5096 58.4855 11.4896 58.5955L2.29957 66.3055C2.17957 66.4055 2.07957 66.5155 1.98957 66.6355C1.75957 66.9455 -0.260431 69.8155 1.31957 74.3255C2.56957 77.8955 2.89957 78.7155 2.92957 78.7955C2.97957 78.9255 3.04957 79.0455 3.12957 79.1655C3.49957 79.6955 4.26957 80.2655 5.32957 80.2655C5.87957 80.2655 6.43957 80.1155 7.00957 79.8155C7.78957 79.4055 30.1396 67.8155 37.4896 64.0055C37.7596 68.3955 38.3696 77.6155 38.9796 82.4755C36.0696 84.9455 26.5796 92.9655 26.5796 92.9655C26.3796 93.1355 26.2196 93.3355 26.0996 93.5655C25.9396 93.8655 24.6096 96.5755 25.8596 99.0155L26.1796 99.7255C26.2696 99.9255 26.3996 100.115 26.5496 100.285C26.9996 100.765 27.8496 101.275 28.8996 101.275C29.4796 101.275 30.0496 101.125 30.5896 100.835C31.1796 100.525 35.7996 98.1855 40.4996 95.8055C40.6896 96.3355 41.0196 97.0155 41.5996 97.5255C41.6596 97.5755 41.7596 97.6955 41.8696 97.8255L41.8296 98.7755C41.8296 99.0055 41.8496 99.2455 41.9296 99.4655C42.1096 100.025 42.4696 100.625 43.0096 101.045V101.555C42.9396 102.125 42.9396 103.195 43.6496 104.015C44.1196 104.575 44.7996 104.885 45.5396 104.885C46.2796 104.885 46.9596 104.575 47.4296 104.015C48.1296 103.185 48.1296 102.125 48.0696 101.555V101.045C48.6096 100.625 48.9696 100.015 49.1496 99.4655C49.2196 99.2455 49.2496 99.0055 49.2496 98.7755L49.2096 97.8255C49.3196 97.6855 49.4196 97.5755 49.4796 97.5255C50.0596 97.0255 50.3996 96.3355 50.5796 95.8055C55.2796 98.1755 59.8996 100.525 60.4896 100.835C61.0396 101.125 61.6096 101.275 62.1796 101.275C63.2296 101.275 64.0796 100.765 64.5296 100.285C64.6796 100.125 64.8096 99.9355 64.8996 99.7255L65.2196 99.0155C66.4696 96.5755 65.1396 93.8655 64.9796 93.5655C64.8596 93.3355 64.6996 93.1255 64.4996 92.9655C64.4996 92.9655 54.9996 84.9355 52.0996 82.4755C52.7096 77.6155 53.3196 68.3955 53.5896 64.0055C60.9396 67.8155 83.2896 79.3955 84.0696 79.8155C84.6296 80.1155 85.1996 80.2655 85.7496 80.2655C86.8196 80.2655 87.5896 79.6955 87.9496 79.1655C88.0296 79.0455 88.0996 78.9255 88.1496 78.7955C88.1796 78.7155 88.5096 77.9055 89.7596 74.3255C91.3296 69.8255 89.3196 66.9555 89.0896 66.6355C88.9996 66.5155 88.8896 66.4055 88.7796 66.3055L79.5896 58.5955C79.5696 58.4855 79.5496 58.3755 79.5196 58.2755C78.9796 56.3655 77.7996 56.0755 77.1396 56.0755C76.9896 56.0755 76.8196 56.0955 76.6496 56.1255L68.0796 48.9355L68.1296 44.9055C68.1296 44.6655 68.0996 44.4255 68.0396 44.1955C67.4996 42.2955 66.3196 42.0055 65.6596 42.0055C64.5996 42.0055 63.7996 42.6755 63.2796 43.9855C63.1796 44.2255 63.1296 44.4855 63.1096 44.7455L53.9896 37.0955V28.9555C53.9896 23.8155 53.1696 16.9855 52.7696 13.6955C52.6996 13.0755 52.6396 12.5955 52.6096 12.2955C52.4396 10.6955 51.7496 9.72547 50.9996 9.16547C49.4196 2.77547 48.6296 0.105469 45.5696 0.105469L45.5096 0.115469Z" fill="black"/>
</g>
<defs>
<clipPath id="clip0_584_17">
<rect width="89.61" height="104.77" fill="white" transform="translate(0.699219 0.115234)"/>
</clipPath>
</defs>
</svg>
