<svg width="291" height="315" viewBox="0 0 291 315" fill="none" xmlns="http://www.w3.org/2000/svg">
<g clip-path="url(#clip0_200_2)">
<path d="M192.34 313.72C191.191 313.72 189.63 312.98 187.451 311.39C181.921 307.92 153.731 293.49 147.131 290.12C146.781 297.52 146.52 297.52 145.51 297.52C144.57 297.52 144.101 297.52 143.861 290.14C137.211 293.53 109.081 307.94 103.511 311.44C101.381 312.99 99.8205 313.73 98.6705 313.73C97.9205 313.73 97.4605 313.41 97.2105 313.14C96.6805 312.57 96.7005 311.85 96.7105 311.71V302.39C96.7105 297.73 99.6705 294.41 99.8005 294.27C100.221 293.89 133.751 263.55 138.941 258.54C138.12 254.75 137.96 249.75 137.93 248.01C136.41 247.25 132.221 245.15 130.771 244.24C130.661 245.07 129.941 245.7 129.101 245.7H122.151C118.031 245.7 117.281 244.01 117.151 243.32C116.301 241.28 114.841 232.93 114.011 227.87C111.541 212.91 113.311 195.32 114.351 192.21C115.441 188.94 117.531 188.69 118.141 188.69C118.221 188.69 118.281 188.69 118.331 188.69H129.011C131.461 188.69 132.571 190.23 132.971 191.52H133.09C131.201 184 130.971 178.77 130.971 176.59L107.401 177.95C103.271 178.19 99.1805 178.95 95.2305 180.2L77.8405 185.75C75.1605 186.6 72.5405 187.69 70.0505 188.99C58.8605 194.82 22.9805 213.41 12.5905 218.57C11.2905 219.22 10.1405 220.17 9.27051 221.33C6.42051 225.12 5.27051 227.56 5.06051 228.01C4.25051 231.8 3.33051 231.81 2.83051 231.81C1.51051 231.81 1.23051 230.13 1.02051 228.11C1.02051 228.03 1.02051 227.96 1.02051 227.88C3.60051 207.92 7.46051 204.48 8.65051 203.89L129.711 108.52C130.151 108.17 130.411 107.65 130.411 107.09V37.79C130.411 21.59 139.421 7.58004 143.29 2.30004C143.82 1.58004 144.631 1.17004 145.521 1.17004C146.411 1.17004 147.221 1.58004 147.751 2.30004C151.62 7.57004 160.631 21.59 160.631 37.79V107.08C160.631 107.64 160.881 108.16 161.321 108.51L282.381 203.88C283.571 204.47 287.431 207.92 290.011 227.87C290.011 227.95 290.021 228.02 290.011 228.1C289.801 230.13 289.521 231.8 288.201 231.8C287.701 231.8 286.781 231.8 285.971 228C285.771 227.54 284.611 225.1 281.761 221.32C280.891 220.16 279.741 219.21 278.441 218.56C268.051 213.41 232.171 194.81 220.971 188.98C218.48 187.68 215.85 186.59 213.18 185.74L195.79 180.19C191.85 178.93 187.76 178.17 183.62 177.94L160.051 176.58C160.051 178.76 159.82 184 157.93 191.51H158.051C158.441 190.22 159.55 188.68 162.01 188.68H172.691C172.691 188.68 172.801 188.68 172.881 188.68C173.501 188.68 175.581 188.93 176.671 192.2C177.71 195.31 179.471 212.9 177.01 227.86C176.18 232.93 174.721 241.28 173.87 243.31C173.74 244 172.99 245.69 168.87 245.69H161.921C161.081 245.69 160.361 245.06 160.251 244.23C158.801 245.14 154.611 247.24 153.09 248C153.061 249.74 152.901 254.74 152.081 258.53C157.271 263.53 190.8 293.87 191.15 294.19C191.35 294.4 194.311 297.73 194.311 302.38V311.77C194.311 311.84 194.34 312.56 193.811 313.13C193.561 313.4 193.101 313.72 192.351 313.72H192.34Z" fill="white"/>
<path d="M145.5 2.17004C146.04 2.17004 146.57 2.41004 146.93 2.89004C150.51 7.77004 159.62 21.74 159.62 37.79V107.08C159.62 107.95 160.02 108.76 160.7 109.3L281.86 204.75C281.86 204.75 286.18 206.09 289.02 228C288.8 230.1 288.51 230.81 288.21 230.81C287.58 230.81 286.93 227.71 286.93 227.71C286.93 227.71 285.85 225.11 282.57 220.74C281.6 219.45 280.34 218.4 278.89 217.68C268.52 212.54 232.71 193.98 221.44 188.11C218.89 186.78 216.23 185.68 213.49 184.8L196.1 179.25C192.08 177.97 187.91 177.19 183.69 176.95L159.03 175.53C159.03 175.53 159.48 181.94 156.64 192.52H158.88C158.88 192.52 159.03 189.69 162.01 189.69H172.74C172.74 189.69 172.79 189.69 172.88 189.69C173.34 189.69 174.85 189.9 175.72 192.53C176.76 195.66 178.4 213.25 176.02 227.71C173.63 242.17 172.89 243.06 172.89 243.06C172.89 243.06 172.89 244.7 168.87 244.7H161.92C161.58 244.7 161.28 244.45 161.24 244.11C161.18 243.65 161.01 243.1 160.49 243.1C160.3 243.1 160.06 243.18 159.77 243.36C158.13 244.4 152.09 247.38 152.09 247.38C152.09 247.38 152.07 254.34 150.97 258.86C154.55 262.44 190.47 294.93 190.47 294.93C190.47 294.93 193.3 298.06 193.3 302.38V311.77C193.3 311.77 193.37 312.72 192.34 312.72C191.61 312.72 190.31 312.24 188.03 310.58C181.62 306.56 146.19 288.52 146.19 288.52C146.19 288.52 145.84 296.51 145.49 296.51C145 296.51 144.79 288.52 144.79 288.52C144.79 288.52 109.36 306.56 102.95 310.58C100.67 312.24 99.3801 312.72 98.6401 312.72C97.6101 312.72 97.6801 311.77 97.6801 311.77V302.38C97.6801 298.06 100.51 294.93 100.51 294.93C100.51 294.93 136.43 262.43 140.01 258.86C138.92 254.34 138.89 247.38 138.89 247.38C138.89 247.38 132.85 244.4 131.21 243.36C130.92 243.17 130.68 243.1 130.49 243.1C129.98 243.1 129.8 243.65 129.74 244.11C129.7 244.45 129.4 244.7 129.06 244.7H122.11C118.09 244.7 118.09 243.06 118.09 243.06C118.09 243.06 117.34 242.17 114.96 227.71C112.57 213.25 114.21 195.66 115.26 192.53C116.14 189.9 117.64 189.69 118.1 189.69C118.19 189.69 118.24 189.69 118.24 189.69H128.97C131.95 189.69 132.1 192.52 132.1 192.52H134.34C131.51 181.94 131.95 175.53 131.95 175.53L107.29 176.95C103.07 177.19 98.9001 177.97 94.8801 179.25L77.4901 184.8C74.7501 185.67 72.0901 186.78 69.5401 188.11C58.2701 193.98 22.4601 212.54 12.0901 217.68C10.6401 218.4 9.38012 219.45 8.41012 220.74C5.12012 225.11 4.05012 227.71 4.05012 227.71C4.05012 227.71 3.40012 230.81 2.77012 230.81C2.47012 230.81 2.18012 230.1 1.96012 228C4.79012 206.09 9.12012 204.75 9.12012 204.75L130.28 109.3C130.96 108.76 131.36 107.95 131.36 107.08V37.79C131.36 21.75 140.46 7.77004 144.05 2.89004C144.4 2.41004 144.94 2.17004 145.48 2.17004M145.5 0.170044C144.3 0.170044 143.17 0.740044 142.46 1.71004C138.53 7.06004 129.39 21.29 129.39 37.79V107.08C129.39 107.33 129.28 107.57 129.08 107.73L8.09012 203.03C6.20012 204.05 2.49012 208.56 0.0101172 227.74C-0.00988281 227.89 -0.00988281 228.05 0.0101172 228.2C0.190117 229.92 0.490117 232.8 2.81012 232.8C4.73012 232.8 5.49012 230.67 6.00012 228.32C6.27012 227.74 7.41012 225.43 10.0501 221.93C10.8301 220.89 11.8601 220.04 13.0201 219.46C23.3401 214.34 59.2801 195.72 70.5001 189.88C72.9401 188.61 75.5101 187.54 78.1401 186.7L95.5301 181.15C99.3901 179.92 103.4 179.18 107.45 178.94L129.98 177.64C130.04 179.78 130.32 183.38 131.29 188.15C130.65 187.86 129.9 187.69 129.01 187.69H118.37C118.3 187.69 118.23 187.69 118.14 187.69C117.36 187.69 114.7 187.99 113.4 191.9C112.14 195.67 110.66 213.7 113.03 228.04C114.84 239 115.73 242.44 116.21 243.65C116.47 244.7 117.57 246.7 122.16 246.7H129.11C129.96 246.7 130.74 246.3 131.23 245.66C132.9 246.59 135.47 247.89 136.95 248.63C137 250.66 137.19 254.79 137.86 258.19C131.6 264.14 99.5501 293.14 99.2101 293.44C99.1601 293.48 99.1101 293.53 99.0701 293.58C98.9301 293.73 95.7201 297.34 95.7201 302.38V311.73C95.7101 312.12 95.7701 313.04 96.4901 313.81C97.0301 314.39 97.8101 314.72 98.6801 314.72C100.04 314.72 101.77 313.93 104.11 312.24C109.45 308.91 134.5 296.05 142.95 291.73C142.96 292.03 142.98 292.33 143 292.63C143.21 296.3 143.33 298.51 145.53 298.51C147.44 298.51 147.66 296.54 147.77 295.48C147.85 294.79 147.92 293.84 148 292.65C148.02 292.33 148.04 292.02 148.06 291.71C156.47 296.01 181.6 308.91 186.94 312.25C189.28 313.94 191 314.73 192.37 314.73C193.24 314.73 194.02 314.41 194.56 313.82C195.28 313.05 195.34 312.13 195.33 311.74V302.39C195.33 297.35 192.12 293.75 191.98 293.59C191.94 293.54 191.89 293.49 191.84 293.45C191.5 293.14 159.44 264.14 153.19 258.2C153.85 254.8 154.04 250.67 154.1 248.64C155.58 247.9 158.17 246.59 159.82 245.67C160.31 246.31 161.09 246.71 161.94 246.71H168.89C173.48 246.71 174.58 244.7 174.84 243.66C175.32 242.45 176.21 239.01 178.02 228.05C180.38 213.72 178.9 195.69 177.65 191.91C176.35 188.01 173.69 187.7 172.91 187.7C172.83 187.7 172.75 187.7 172.68 187.7H162.04C161.15 187.7 160.4 187.87 159.76 188.16C160.73 183.39 161.01 179.8 161.07 177.65L183.6 178.95C187.65 179.18 191.66 179.93 195.52 181.16L212.91 186.71C215.54 187.55 218.11 188.62 220.55 189.89C231.77 195.73 267.71 214.35 278.03 219.47C279.19 220.05 280.22 220.9 281 221.94C283.63 225.44 284.78 227.75 285.05 228.34C285.56 230.7 286.32 232.82 288.24 232.82C290.56 232.82 290.86 229.94 291.04 228.22C291.06 228.07 291.05 227.91 291.04 227.76C288.56 208.58 284.85 204.07 282.96 203.05L161.98 107.74C161.78 107.58 161.67 107.35 161.67 107.09V37.79C161.67 21.29 152.53 7.06004 148.6 1.71004C147.89 0.750044 146.76 0.170044 145.56 0.170044L145.5 0.170044Z" fill="#231F20"/>
</g>
<defs>
<clipPath id="clip0_200_2">
<rect width="291" height="314.55" fill="white" transform="translate(0 0.170044)"/>
</clipPath>
</defs>
</svg>
