<svg width="293" height="311" viewBox="0 0 293 311" fill="none" xmlns="http://www.w3.org/2000/svg">
<g clip-path="url(#clip0_249_8)">
<path d="M198.29 308.4C197.62 308.4 196.87 308.25 195.99 307.94C193.39 307.03 159.49 296.17 149.78 293.07C149.64 297.91 149.03 300.9 147.96 301.97C147.48 302.45 146.86 302.72 146.21 302.72C145.55 302.72 144.93 302.45 144.45 301.96C143.39 300.89 142.79 297.9 142.67 293.06C132.95 296.12 98.9904 306.81 96.3904 307.71C95.5204 308.01 94.7704 308.16 94.1104 308.16C92.7904 308.16 92.0304 307.58 91.6204 307.1C91.0604 306.43 90.9104 305.6 90.9604 304.98L91.0004 295.89C91.0204 291.18 94.4004 288.21 94.5504 288.08C94.6104 288.03 94.6804 287.98 94.7404 287.93C110.54 277.35 133.75 261.75 138.89 258.16C138.26 255.33 137.66 251.72 137.4 250.09L129.61 244.72L120.52 244.68C119.64 244.68 118.87 244.1 118.62 243.26L116.99 237.87C116.69 237.66 116.4 237.4 116.18 237.08C115.51 236.09 115.7 234.98 115.83 234.24C115.85 234.13 115.87 234.03 115.88 233.93C112.33 218.41 112.13 206.13 112.13 205.61L112.2 192.15C112.22 187.99 114.79 186.88 116.3 186.88C116.32 186.88 129.22 186.94 129.22 186.94C130.01 186.94 130.71 187.15 131.33 187.49L131.36 182.19L127.46 182.17C125.72 182.17 124.08 182.39 122.49 182.81L10.4404 212.92C9.83043 214.47 8.90043 216.79 8.39043 217.86C7.18043 220.37 6.16043 221.82 4.57043 221.82C3.92043 221.82 3.32043 221.55 2.87043 221.07C2.61043 220.78 1.82043 219.92 2.06043 216.9L2.08043 213.49C2.08043 213.43 2.08043 213.37 2.08043 213.3C2.10043 213.06 2.68043 207.24 3.95043 201.12C5.34043 194.4 11.0504 189.84 11.3004 189.65C11.3604 189.6 11.4304 189.56 11.4904 189.51L132.92 115.4L133.29 39.2301C133.33 31.8301 134.29 24.4901 136.16 17.4101L136.24 17.1101C139 6.71008 144.27 2.83008 146.94 2.83008C149.61 2.83008 154.86 6.72008 157.58 17.1601L157.65 17.4401C159.49 24.5401 160.41 31.8901 160.41 39.2901V115.46L281.47 190.16C281.54 190.2 281.6 190.25 281.66 190.3C281.9 190.49 287.59 195.08 288.95 201.81C290.19 207.94 290.74 213.76 290.76 214C290.76 214.06 290.76 214.12 290.76 214.19V217.6C290.99 220.62 290.19 221.48 289.93 221.77C289.48 222.25 288.88 222.52 288.24 222.52C286.64 222.52 285.63 221.06 284.42 218.54C283.9 217.46 282.99 215.13 282.39 213.59L170.49 182.93C168.87 182.49 167.2 182.26 165.52 182.26H161.62V187.56C162.23 187.23 162.94 187.02 163.73 187.02C163.73 187.02 176.62 187.02 176.64 187.02C178.16 187.02 180.73 188.13 180.73 192.31V205.73C180.73 206.28 180.46 218.6 176.84 234.07C176.85 234.17 176.87 234.27 176.89 234.38C177.01 235.12 177.2 236.23 176.52 237.21C176.3 237.53 176 237.79 175.71 237.99L174.05 243.37C173.79 244.21 173.02 244.78 172.14 244.78H163.05L155.23 250.11C154.96 251.74 154.34 255.35 153.7 258.18C158.81 261.79 181.95 277.5 197.7 288.16C197.77 288.21 197.83 288.26 197.89 288.31C198.03 288.43 201.4 291.43 201.4 296.13V305.22C201.44 305.68 201.4 306.55 200.74 307.33C200.33 307.81 199.58 308.38 198.27 308.38L198.29 308.4Z" fill="white"/>
<path d="M146.93 4.84009C148.37 4.84009 153.07 7.82009 155.63 17.6801C155.66 17.7801 155.68 17.8801 155.71 17.9701C157.51 24.9401 158.41 32.1001 158.41 39.3001V116.58L280.42 191.86C280.42 191.86 285.76 196.11 286.99 202.2C288.22 208.29 288.77 214.18 288.77 214.18V217.67C288.77 217.67 289 220.51 288.25 220.51C287.87 220.51 287.25 219.8 286.24 217.67C285.67 216.48 284.55 213.57 284.1 212.41C283.98 212.1 283.72 211.87 283.4 211.78L171.03 180.99C169.24 180.5 167.39 180.25 165.53 180.25H160.92C160.21 180.25 159.63 180.83 159.63 181.54V191.75H160.59C160.59 191.75 161.62 189.01 163.74 189.01H176.61C176.61 189.01 176.62 189.01 176.64 189.01C176.91 189.01 178.73 189.13 178.73 192.3V205.72C178.73 205.72 178.51 218.23 174.86 233.74C174.71 234.3 175.25 235.52 174.88 236.07C174.68 236.36 174.04 236.62 174.04 236.62L172.14 242.78H162.43L153.39 248.94C153.39 248.94 152.36 255.41 151.44 259.01C153.03 260.35 196.58 289.82 196.58 289.82C196.58 289.82 199.4 292.28 199.4 296.14V305.33C199.4 305.33 199.58 306.39 198.26 306.39C197.86 306.39 197.33 306.29 196.62 306.05C193.54 304.97 147.78 290.34 147.78 290.34C147.78 290.34 147.82 300.71 146.18 300.71C144.54 300.71 144.63 290.33 144.63 290.33C144.63 290.33 98.8004 304.74 95.7204 305.81C95.0204 306.05 94.4904 306.15 94.0904 306.15C92.7604 306.15 92.9504 305.08 92.9504 305.08C92.9504 305.08 92.9804 299.74 92.9904 295.89C93.0004 292.04 95.8504 289.59 95.8504 289.59C95.8504 289.59 139.54 260.33 141.14 259C140.23 255.4 139.24 248.93 139.24 248.93L130.23 242.72L120.52 242.67L118.65 236.5C118.65 236.5 118.01 236.24 117.81 235.95C117.44 235.4 117.99 234.19 117.84 233.62C114.27 218.09 114.11 205.58 114.11 205.58C114.11 205.58 114.16 195.58 114.18 192.16C114.2 189.01 116 188.88 116.28 188.88C116.3 188.88 116.32 188.88 116.32 188.88C116.32 188.88 127.07 188.93 129.19 188.94C131.31 188.95 132.33 191.69 132.33 191.69H133.29L133.34 181.48C133.34 180.77 132.77 180.18 132.05 180.18L127.44 180.16C127.44 180.16 127.37 180.16 127.34 180.16C125.52 180.16 123.7 180.4 121.94 180.87L9.42041 211.11C9.10041 211.2 8.84041 211.43 8.72041 211.74C8.27041 212.9 7.13041 215.8 6.55041 216.99C5.53041 219.11 4.90041 219.82 4.53041 219.82C3.78041 219.82 4.02041 216.98 4.02041 216.98L4.04041 213.49C4.04041 213.49 4.62041 207.6 5.88041 201.52C7.14041 195.43 12.5004 191.21 12.5004 191.21L134.88 116.52L135.26 39.2401C135.3 32.0401 136.23 24.8801 138.06 17.9201C138.09 17.8201 138.11 17.7201 138.14 17.6301C140.76 7.78009 145.47 4.83009 146.91 4.83009M146.93 0.840088C142.86 0.840088 137.18 5.77009 134.3 16.6101L134.24 16.8301L134.22 16.9101C132.31 24.1501 131.32 31.6601 131.29 39.2301L130.92 114.28L10.4404 187.8C10.3004 187.88 10.1704 187.97 10.0504 188.07C9.38041 188.59 3.50041 193.4 1.98041 200.71C0.690413 206.94 0.100412 212.86 0.0804124 213.11C0.0704124 213.23 0.0604124 213.36 0.0604124 213.48L0.0404124 216.82C-0.249588 220.65 0.930412 221.94 1.38041 222.43C2.20041 223.32 3.35041 223.83 4.55041 223.83C7.72041 223.83 9.26041 220.65 10.1704 218.74C10.6204 217.81 11.3304 216.06 11.9104 214.6L111.2 187.92C110.58 189.01 110.2 190.42 110.19 192.14L110.12 205.56C110.12 205.56 110.12 205.61 110.12 205.63C110.12 206.15 110.32 218.47 113.83 233.99C113.68 234.88 113.42 236.6 114.51 238.2C114.73 238.52 114.98 238.79 115.24 239.04L116.69 243.84C117.2 245.52 118.74 246.67 120.5 246.68L128.97 246.72L135.55 251.26C135.8 252.8 136.21 255.13 136.65 257.29C129.96 261.9 108.44 276.36 93.6204 286.28C93.4804 286.37 93.3504 286.47 93.2304 286.58C92.8004 286.95 89.0204 290.38 88.9904 295.89L88.9504 304.89C88.8604 306.15 89.2604 307.43 90.0704 308.4C91.0304 309.54 92.4604 310.18 94.0904 310.18C94.9804 310.18 95.9404 310 97.0204 309.63C99.1904 308.88 124.26 300.98 140.78 295.78C141.21 301.58 142.42 302.81 143 303.4C143.85 304.27 144.98 304.75 146.16 304.75C147.36 304.75 148.49 304.28 149.35 303.41C149.94 302.82 151.16 301.6 151.61 295.8C168.1 301.08 193.14 309.11 195.3 309.87C196.39 310.25 197.36 310.44 198.26 310.44C199.88 310.44 201.3 309.81 202.26 308.68C203.07 307.72 203.48 306.44 203.39 305.19V296.19C203.39 290.68 199.62 287.23 199.2 286.86C199.08 286.75 198.95 286.65 198.81 286.56C184.04 276.56 162.59 262 155.92 257.36C156.37 255.21 156.78 252.88 157.05 251.34L163.65 246.84H172.12C173.88 246.84 175.43 245.7 175.94 244.02L177.42 239.23C177.69 238.99 177.94 238.71 178.16 238.4C179.26 236.8 179.01 235.08 178.86 234.19C182.44 218.69 182.7 206.37 182.71 205.85C182.71 205.83 182.71 205.8 182.71 205.78V192.36C182.71 190.63 182.33 189.23 181.72 188.13L280.87 215.3C281.44 216.77 282.15 218.52 282.59 219.45C283.5 221.36 285.03 224.56 288.21 224.56C289.4 224.56 290.56 224.05 291.37 223.17C291.82 222.68 293 221.4 292.73 217.58V214.24C292.73 214.12 292.73 213.99 292.71 213.87C292.69 213.62 292.13 207.7 290.87 201.47C289.39 194.16 283.53 189.32 282.87 188.79C282.75 188.69 282.62 188.6 282.48 188.52L162.36 114.41V39.3001C162.36 31.7301 161.41 24.2201 159.54 16.9701L159.46 16.6701C156.63 5.80009 150.96 0.840088 146.89 0.840088L146.93 0.840088ZM122.39 184.91L123 184.75C124.42 184.37 125.89 184.17 127.36 184.17H127.44H129.34V184.94C129.34 184.94 129.26 184.94 129.23 184.94L122.39 184.91ZM163.64 184.26H165.54C167.04 184.26 168.53 184.46 169.98 184.86L170.59 185.03H163.75C163.75 185.03 163.68 185.03 163.64 185.03V184.26Z" fill="#231F20"/>
</g>
<defs>
<clipPath id="clip0_249_8">
<rect width="292.81" height="309.56" fill="white" transform="translate(0 0.840088)"/>
</clipPath>
</defs>
</svg>
