<svg width="313" height="308" viewBox="0 0 313 308" fill="none" xmlns="http://www.w3.org/2000/svg">
<g clip-path="url(#clip0_253_18)">
<path d="M212.79 305.77C212.15 305.77 211.48 305.66 210.73 305.42C207.57 304.44 170.42 291.38 160.88 288.03C159.22 294.98 157.03 294.98 156.16 294.98C155.27 294.98 153.08 294.95 151.5 287.98C141.93 291.23 104.63 303.87 101.46 304.82C100.74 305.03 100.07 305.14 99.4602 305.14C97.9602 305.14 97.0502 304.51 96.5402 303.97C95.5902 302.97 95.4802 301.72 95.4802 301.22C95.4302 300.59 95.3702 298.29 96.0802 292.46C96.9002 285.76 100.85 283.64 102.12 283.13C118.58 271.83 142.66 255.21 147.9 251.38C147.38 249.51 146.95 247.57 146.68 246.25L138.85 246.16C138.13 246.16 137.45 245.86 136.94 245.35C136.43 244.83 136.16 244.15 136.17 243.42L136.21 240.25L130.98 240.19C127.82 240.15 126.36 237.64 126.03 236.32C125.72 235.08 118.57 206 121.37 189.03C121.38 188.96 121.4 188.89 121.42 188.82C123.03 183.07 126.15 182.62 127.07 182.62C127.1 182.62 138.79 182.75 138.79 182.75C139.54 182.75 140.21 182.87 140.78 183.05C140.35 179.35 140.16 175.23 140.08 172.77L133.22 172.69C126.6 175.06 27.0802 210.67 21.1202 212.95C15.3402 215.16 13.5002 218.09 11.3802 221.49C11.3602 221.53 11.3302 221.57 11.3002 221.6C8.97022 224.83 7.36022 226.14 5.75022 226.14C4.81022 226.14 3.98022 225.68 3.46022 224.87C1.93022 222.5 3.49022 216.91 4.11022 215.43C10.1102 197.3 14.6302 193.95 17.6202 191.74C18.0902 191.39 18.4902 191.1 18.7902 190.8C18.9002 190.69 19.0302 190.59 19.1602 190.51C54.0502 169.57 126.03 108.87 140.11 96.9101C140.68 96.4201 141.02 95.7101 141.02 94.9501L141.52 49.7801C141.75 29.1101 148.72 13.3001 152.85 5.71006C153.82 3.92006 155.7 2.81006 157.74 2.81006C159.78 2.81006 161.69 3.94006 162.66 5.76006C166.71 13.3901 173.5 29.2801 173.5 49.9501V95.1201C173.5 95.8801 173.83 96.6001 174.39 97.0901C188.34 109.2 259.65 170.72 294.29 192.03C294.42 192.11 294.55 192.21 294.66 192.32C294.96 192.62 295.36 192.92 295.82 193.27C298.79 195.52 303.27 198.91 309.06 217.11C309.66 218.58 311.15 224.18 309.61 226.54C309.09 227.34 308.25 227.8 307.32 227.8C305.7 227.8 304.1 226.47 301.79 223.2C301.76 223.16 301.74 223.12 301.71 223.09C299.63 219.67 297.83 216.71 292.07 214.44C286.13 212.09 187.01 175.38 180.42 172.94H173.56C173.45 175.4 173.21 179.51 172.75 183.21C173.33 183.04 173.99 182.94 174.75 182.94C174.75 182.94 186.42 182.94 186.44 182.94C187.36 182.94 190.49 183.39 192.05 189.2C192.07 189.27 192.08 189.34 192.09 189.42C194.69 206.41 187.22 235.42 186.9 236.65C186.55 237.98 185.06 240.47 181.9 240.47H176.67V243.64C176.67 245.13 175.45 246.35 173.96 246.35H166.13C165.84 247.66 165.39 249.6 164.85 251.46C170.03 255.34 193.94 272.24 210.28 283.72C211.54 284.25 215.47 286.41 216.22 293.11C216.87 298.94 216.78 301.25 216.72 301.88C216.72 302.38 216.59 303.62 215.64 304.61C215.14 305.13 214.23 305.76 212.75 305.76L212.79 305.77Z" fill="white"/>
<path d="M157.75 4.84009C158.99 4.84009 160.24 5.47009 160.9 6.73009C164.95 14.3601 171.51 29.8301 171.51 49.9801V95.1501C171.51 96.4901 172.08 97.7501 173.09 98.6301C184.76 108.77 258.14 172.16 293.25 193.76C295.7 196.21 300.5 196.76 307.19 217.83C308 219.69 309.14 225.83 307.33 225.83C306.59 225.83 305.37 224.81 303.43 222.07C301.14 218.31 299.02 215.05 292.82 212.6C286.61 210.15 180.8 170.96 180.8 170.96H172.75C172.14 170.96 171.64 171.43 171.62 172.04C171.51 174.89 171.12 182.73 170.06 187.21H171.22C171.22 187.21 171.63 184.95 174.76 184.95H186.4C186.4 184.95 186.42 184.95 186.45 184.95C186.81 184.95 188.9 185.15 190.13 189.73C192.7 206.51 184.99 236.15 184.99 236.15C184.99 236.15 184.38 238.48 181.93 238.48H174.7V243.65C174.7 244.04 174.38 244.36 173.99 244.36H164.53C164.53 244.36 163.67 248.77 162.57 252.2C164.41 253.91 209.36 285.51 209.36 285.51C209.36 285.51 213.52 286.73 214.26 293.35C214.99 299.96 214.75 301.8 214.75 301.8C214.75 301.8 214.84 303.77 212.79 303.77C212.39 303.77 211.91 303.69 211.32 303.51C207.77 302.41 159.39 285.38 159.39 285.38C159.39 285.38 158 292.97 156.16 292.97C154.32 292.95 153.02 285.34 153.02 285.34C153.02 285.34 104.46 301.82 100.89 302.89C100.32 303.06 99.8501 303.13 99.4601 303.13C97.3701 303.13 97.4801 301.14 97.4801 301.14C97.4801 301.14 97.2601 299.3 98.0601 292.7C98.8601 286.1 103.05 284.92 103.05 284.92C103.05 284.92 148.35 253.82 150.2 252.13C149.14 248.69 148.33 244.27 148.33 244.27L138.88 244.16C138.49 244.16 138.17 243.83 138.18 243.44L138.24 238.27C138.24 238.27 133.46 238.22 131.01 238.19C128.56 238.16 127.97 235.83 127.97 235.83C127.97 235.83 120.58 206.11 123.34 189.36C124.61 184.84 126.67 184.62 127.06 184.62C127.1 184.62 127.13 184.62 127.13 184.62C127.13 184.62 135.64 184.71 138.76 184.75C141.88 184.79 142.27 187.04 142.27 187.04C142.27 187.04 142.62 187.04 143.43 187.05C142.43 182.56 142.12 174.72 142.04 171.86C142.02 171.25 141.53 170.78 140.92 170.77L132.87 170.68C132.87 170.68 26.6201 208.69 20.3901 211.07C14.1601 213.45 12.0001 216.69 9.67014 220.42C7.71014 223.13 6.48014 224.13 5.74014 224.13C3.92014 224.13 5.13014 217.98 5.96014 216.13C12.8901 195.14 17.6901 194.64 20.1701 192.22C55.5201 171.01 129.6 108.44 141.38 98.4301C142.4 97.5601 142.98 96.3101 143 94.9701L143.5 49.8001C143.72 29.6501 150.46 14.2501 154.59 6.67009C155.27 5.43009 156.49 4.81009 157.72 4.81009M157.75 0.840088C154.98 0.840088 152.43 2.35009 151.1 4.78009C146.88 12.5301 139.76 28.6801 139.52 49.7801L139.02 94.9501C139.02 95.1301 138.94 95.2901 138.81 95.4101C130.19 102.73 53.6101 167.53 18.1301 188.82C17.8601 188.98 17.6101 189.17 17.3901 189.39C17.1901 189.59 16.8301 189.85 16.4301 190.15C12.3601 193.16 7.91014 197.55 2.18014 214.9C1.60014 216.51 -0.369863 222.64 1.78014 225.97C2.66014 227.34 4.15014 228.16 5.75014 228.16C8.48014 228.16 10.5901 226.01 12.9201 222.79C12.9701 222.72 13.0201 222.64 13.0701 222.56C15.0801 219.34 16.6701 216.8 21.8201 214.83C27.6801 212.59 124.46 177.96 133.55 174.71L138.15 174.76C138.23 176.5 138.35 178.62 138.53 180.76L127.27 180.63C127.21 180.63 127.14 180.63 127.06 180.63C125.79 180.63 121.48 181.18 119.49 188.29C119.45 188.43 119.42 188.57 119.39 188.72C116.53 206.08 123.77 235.56 124.08 236.81C124.73 239.38 127.15 242.16 130.95 242.21L134.18 242.25V243.42C134.14 246.02 136.23 248.15 138.82 248.18L145.05 248.25C145.21 248.97 145.4 249.77 145.6 250.58C138.8 255.46 116.6 270.77 101.18 281.36C98.6201 282.44 94.8901 285.64 94.0801 292.24C93.3801 297.92 93.4001 300.4 93.4701 301.33C93.4901 302.19 93.7101 303.93 95.0801 305.37C96.1701 306.53 97.7301 307.16 99.4501 307.16C100.25 307.16 101.12 307.02 102.02 306.75C105.03 305.85 138.16 294.63 150.1 290.58C151.43 294.95 153.35 296.97 156.11 297C158.9 297 160.85 295.01 162.23 290.65C174.13 294.83 207.13 306.42 210.12 307.35C211.06 307.64 211.93 307.79 212.77 307.79C214.47 307.79 216.01 307.16 217.1 306.02C218.47 304.59 218.71 302.88 218.73 302.02C218.8 301.1 218.85 298.61 218.22 292.93C217.49 286.32 213.79 283.08 211.24 281.98C195.93 271.22 173.91 255.66 167.16 250.71C167.37 249.9 167.57 249.11 167.74 248.39H173.97C176.57 248.39 178.68 246.28 178.68 243.68V242.51H181.91C185.71 242.51 188.17 239.76 188.84 237.2C189.17 235.95 196.74 206.55 194.07 189.16C194.05 189.01 194.02 188.87 193.98 188.73C192.05 181.55 187.72 180.99 186.44 180.99C186.39 180.99 186.34 180.99 186.29 180.99H175.02C175.23 178.85 175.38 176.74 175.47 175H180.07C189.12 178.35 285.5 214.06 291.34 216.36C296.47 218.39 298.03 220.95 300.01 224.19C300.06 224.27 300.11 224.34 300.16 224.42C302.47 227.69 304.58 229.87 307.33 229.87C308.92 229.87 310.4 229.06 311.29 227.7C313.45 224.4 311.55 218.26 310.99 216.65C305.46 199.23 301.05 194.79 297.02 191.74C296.62 191.43 296.27 191.17 296.06 190.97C295.84 190.75 295.59 190.56 295.33 190.39C260.09 168.71 184.23 103.06 175.7 95.6401C175.57 95.5301 175.5 95.3601 175.5 95.1801V50.0101C175.5 28.9001 168.56 12.6801 164.42 4.88009C163.11 2.40009 160.54 0.860088 157.73 0.860088L157.75 0.840088Z" fill="#231F20"/>
</g>
<defs>
<clipPath id="clip0_253_18">
<rect width="311.5" height="306.93" fill="white" transform="translate(0.810059 0.840088)"/>
</clipPath>
</defs>
</svg>
