<svg width="155" height="69" viewBox="0 0 155 69" fill="none" xmlns="http://www.w3.org/2000/svg">
<g clip-path="url(#clip0_85_73)">
<path d="M77.3705 65.58L87.0305 66.05C87.2605 66.05 87.4505 65.86 87.4505 65.63V61.39C87.4505 59.54 86.1805 59.75 86.1805 59.75C86.1805 59.75 79.7805 59 78.3505 58.82C78.2905 58.82 78.2505 58.76 78.2505 58.7C78.5205 52.67 78.7505 33.57 78.7505 33.57L78.9005 29.69C79.0505 25.81 80.6005 25.39 80.6005 25.39C80.6005 25.39 147.891 22.21 152.221 22.08C152.321 22.08 152.381 21.97 152.351 21.88C151.741 19.79 150.251 19.99 150.251 19.99L121.561 17.94C116.911 17.61 112.251 17.44 107.581 17.44H80.1805C80.1805 7.67999 78.8605 3.83999 78.0205 2.37999C77.7205 1.85999 76.9705 1.85999 76.6705 2.37999C75.8305 3.82999 74.5205 7.64999 74.5205 17.38H47.1205C42.4605 17.38 37.7905 17.55 33.1405 17.88L4.45052 19.93C4.45052 19.93 2.97052 19.73 2.35052 21.82C2.32052 21.92 2.38052 22.02 2.48052 22.02C6.81052 22.15 74.1005 25.33 74.1005 25.33C74.1005 25.33 75.6405 25.75 75.8005 29.63L75.9505 33.51C75.9505 33.51 76.1805 52.61 76.4505 58.64C76.4505 58.7 76.4105 58.75 76.3505 58.76C74.9205 58.94 68.5305 59.69 68.5305 59.69C68.5305 59.69 67.2605 59.48 67.2605 61.33V65.58C67.2605 65.81 67.4505 66 67.6805 66L77.3505 65.59L77.3705 65.58Z" fill="white"/>
<path d="M77.3598 2C77.6199 2 77.8898 2.13 78.0398 2.39C78.8798 3.85 80.1999 7.69 80.1999 17.45H107.6C112.26 17.45 116.93 17.62 121.58 17.95L150.27 20C150.27 20 150.31 20 150.37 20C150.72 20 151.85 20.14 152.36 21.9C152.39 22 152.33 22.1 152.23 22.1C147.9 22.23 80.6098 25.41 80.6098 25.41C80.6098 25.41 79.0699 25.83 78.9099 29.71L78.7598 33.59C78.7598 33.59 78.5199 52.69 78.2598 58.72C78.2598 58.78 78.2999 58.83 78.3598 58.84C79.7898 59.02 86.1898 59.77 86.1898 59.77C86.1898 59.77 86.2299 59.77 86.3099 59.77C86.6199 59.77 87.4698 59.91 87.4698 61.41V65.65C87.4698 65.88 87.2799 66.07 87.0499 66.07L77.3898 65.6L67.7198 66.01C67.4898 66.01 67.2999 65.82 67.2999 65.59V61.35C67.2999 59.85 68.1398 59.71 68.4598 59.71C68.5298 59.71 68.5798 59.71 68.5798 59.71C68.5798 59.71 74.9698 58.96 76.3998 58.78C76.4598 58.78 76.4998 58.72 76.4998 58.66C76.2299 52.63 75.9998 33.53 75.9998 33.53L75.8499 29.65C75.6999 25.77 74.1498 25.35 74.1498 25.35C74.1498 25.35 6.85985 22.17 2.52985 22.04C2.42985 22.04 2.36985 21.93 2.39985 21.84C2.91985 20.08 4.03985 19.94 4.38985 19.94C4.45985 19.94 4.48985 19.94 4.48985 19.94L33.1799 17.89C37.8299 17.56 42.4899 17.39 47.1599 17.39H74.5599C74.5599 7.66 75.8699 3.84 76.7098 2.39C76.8598 2.13 77.1199 2 77.3898 2M77.3598 0C76.3699 0 75.4499 0.53 74.9499 1.39C73.5098 3.88 72.6798 8.7 72.5499 15.39H47.1299C42.4399 15.39 37.6899 15.56 33.0099 15.89L4.44985 17.93C4.44985 17.93 4.38985 17.93 4.35985 17.93C2.93985 17.93 1.16985 18.81 0.449854 21.26C0.259854 21.9 0.379854 22.6 0.769854 23.14C1.15985 23.68 1.76985 24 2.43985 24.02C6.46985 24.14 66.2498 26.96 73.3399 27.3C73.4999 27.61 73.7598 28.31 73.8099 29.71L73.9598 33.56C73.9698 34.57 74.1599 49.85 74.3998 56.98C72.3099 57.23 69.2399 57.59 68.4899 57.68C68.4699 57.68 68.4498 57.68 68.4298 57.68C67.6798 57.68 66.9598 57.95 66.3998 58.45C65.8898 58.91 65.2699 59.78 65.2699 61.33V65.57C65.2699 66.9 66.3498 67.98 67.6798 67.99C67.6798 67.99 67.7399 67.99 67.7598 67.99L77.3399 67.59L86.9099 68.05C86.9099 68.05 86.9698 68.05 87.0098 68.05C88.3399 68.05 89.4298 66.97 89.4298 65.63V61.39C89.4298 58.89 87.7898 57.75 86.2699 57.75C86.2499 57.75 86.2298 57.75 86.2098 57.75C85.4498 57.66 82.3798 57.3 80.2898 57.05C80.5199 49.92 80.7198 34.64 80.7299 33.63L80.8799 29.78C80.9299 28.38 81.1898 27.68 81.3499 27.37C88.4398 27.03 148.22 24.21 152.25 24.09C152.92 24.07 153.53 23.75 153.92 23.21C154.31 22.67 154.43 21.97 154.24 21.33C153.52 18.87 151.75 18 150.33 18C150.3 18 150.27 18 150.24 18L121.68 15.96C117 15.63 112.25 15.46 107.56 15.46H82.1398C82.0098 8.76 81.1799 3.92 79.7399 1.4C79.2499 0.54 78.3198 0 77.3298 0L77.3598 0Z" fill="black"/>
</g>
<defs>
<clipPath id="clip0_85_73">
<rect width="154" height="68.05" fill="white" transform="translate(0.370117)"/>
</clipPath>
</defs>
</svg>
