<svg width="164" height="274" viewBox="0 0 164 274" fill="none" xmlns="http://www.w3.org/2000/svg">
<g clip-path="url(#clip0_851_72)">
<path d="M6.11995 272.21C6.05995 272.21 5.99995 272.21 5.93995 272.19C5.67995 272.14 5.44995 271.99 5.29995 271.77L1.17995 265.67C0.869946 265.22 0.989946 264.6 1.43995 264.29L62.7099 221.72C62.8799 221.6 63.0799 221.54 63.2799 221.54C63.3899 221.54 63.4999 221.56 63.6099 221.6C65.5799 222.28 66.8999 222.67 68.4199 222.86C68.3799 222.52 68.3299 222.18 68.2899 221.84C68.2 221.07 68.0999 220.3 67.9899 219.54C60.8499 214.02 61.2899 198.65 61.8599 191.91C60.3599 188.83 59.2399 184.71 59.2399 182.2V120.39C59.2399 116.47 62.3099 113.01 66.9699 111.6C66.9699 110.34 66.9999 109.06 67.0499 107.79L6.76995 149.46C6.59995 149.58 6.39995 149.64 6.19995 149.64C6.13995 149.64 6.07995 149.64 6.01995 149.62C5.75995 149.57 5.52995 149.42 5.37995 149.2L1.25995 143.1C0.949946 142.65 1.06995 142.03 1.51995 141.72L62.7899 99.1503C62.9599 99.0303 63.1599 98.9703 63.3599 98.9703C63.4699 98.9703 63.5799 98.9903 63.6899 99.0303C65.2099 99.5603 66.3699 99.9203 67.5399 100.14C68.45 90.8703 70.7799 79.6403 76.6699 75.6803L63.1799 4.00027C63.1299 3.74027 63.1799 3.47027 63.3399 3.25027C63.4899 3.03027 63.7299 2.88027 63.9899 2.83027L71.2399 1.55027C71.2999 1.54027 71.3599 1.53027 71.41 1.53027C71.88 1.53027 72.2999 1.86027 72.3899 2.34027L86.3199 75.6303C92.2999 79.6103 94.6299 91.0503 95.5199 100.33L162.49 138.72C162.72 138.85 162.89 139.07 162.96 139.33C163.03 139.59 162.99 139.86 162.86 140.09L159.12 146.44C158.93 146.76 158.6 146.93 158.26 146.93C158.09 146.93 157.92 146.89 157.76 146.8L101.24 114.55C102.86 116.17 103.8 118.19 103.8 120.35V182.16C103.8 184.67 102.68 188.8 101.18 191.87C101.75 198.61 102.19 213.99 95.0499 219.5C94.9299 220.27 94.8399 221.04 94.7399 221.81C94.6999 222.1 94.6699 222.4 94.6299 222.69L162.48 261.58C162.71 261.71 162.88 261.93 162.95 262.19C163.02 262.45 162.98 262.72 162.85 262.95L159.11 269.3C158.92 269.62 158.59 269.79 158.25 269.79C158.08 269.79 157.91 269.75 157.75 269.66L92.9499 232.69C92.6699 232.53 92.4899 232.25 92.4499 231.93C92.3799 231.33 92.3199 230.81 92.2499 230.34C90.2099 233.16 86.7199 234.5 81.4899 234.5C75.1299 234.5 71.42 232.61 69.66 228.42L6.66995 272.01C6.49995 272.13 6.29995 272.19 6.09995 272.19L6.11995 272.21Z" fill="white"/>
<path d="M71.4199 2.54004L85.3499 75.83C85.2699 75.92 85.1999 75.99 85.1199 76.08C91.0599 79.27 93.6199 90.37 94.5799 100.95L162 139.59L158.26 145.94L95.0499 109.87C95.0699 110.71 95.0699 111.53 95.0699 112.32C99.5899 113.44 102.79 116.61 102.79 120.35V182.16C102.79 184.59 101.66 188.7 100.15 191.68C100.72 198.03 101.28 213.9 94.1199 218.95C93.8899 220.37 93.7399 221.82 93.5499 223.24L161.98 262.46L158.24 268.81L93.4399 231.83C93.2299 229.95 93.0199 228.64 92.6499 227.37C91.4299 230.91 88.7299 233.51 81.4799 233.51C74.2299 233.51 71.2899 230.66 70.1499 226.86L6.11988 271.21L1.99988 265.11L63.2699 222.54C65.8899 223.45 67.4199 223.85 69.5699 223.95C69.3199 222.32 69.1699 220.62 68.8999 218.97C61.7399 213.93 62.3099 198.05 62.8699 191.7C61.3599 188.71 60.2299 184.6 60.2299 182.18V120.37C60.2299 116.63 63.4299 113.46 67.9499 112.34C67.9499 110.32 67.9999 108.1 68.1099 105.8L6.19988 148.64L2.07988 142.54L63.3499 99.97C65.4599 100.7 66.8499 101.1 68.4299 101.28C69.3599 90.68 71.8799 79.48 77.7699 76.16L64.1699 3.82004L71.4199 2.54004ZM71.4199 0.540039C71.2999 0.540039 71.1899 0.550039 71.0699 0.570039L63.8199 1.85004C63.2899 1.94004 62.8299 2.24004 62.5199 2.68004C62.2199 3.12004 62.0999 3.66004 62.1999 4.19004L75.5599 75.22C70.9499 78.74 67.9599 86.68 66.6499 98.9C65.9199 98.71 65.0899 98.44 63.9999 98.07C63.7899 98 63.5599 97.96 63.3399 97.96C62.9399 97.96 62.5399 98.08 62.1999 98.32L0.939878 140.89C0.0398781 141.51 -0.190122 142.75 0.419878 143.65L4.53988 149.75C4.83988 150.19 5.29988 150.5 5.82988 150.6C5.94988 150.62 6.07988 150.63 6.19988 150.63C6.59988 150.63 6.99988 150.51 7.33988 150.27L65.9799 109.69C65.9799 110.07 65.9699 110.45 65.9599 110.83C61.2799 112.5 58.2299 116.18 58.2299 120.35V182.16C58.2299 184.78 59.3099 188.86 60.8299 192.06C60.2599 199 59.9399 214.1 67.0399 220.04C67.1199 220.57 67.1799 221.1 67.2499 221.62C66.3399 221.42 65.3199 221.11 63.9299 220.63C63.7199 220.56 63.4899 220.52 63.2699 220.52C62.8699 220.52 62.4699 220.64 62.1299 220.88L0.859878 263.47C-0.0401219 264.09 -0.270122 265.33 0.339878 266.23L4.45988 272.33C4.75988 272.77 5.21988 273.08 5.74988 273.18C5.86988 273.2 5.99988 273.21 6.11988 273.21C6.51988 273.21 6.91988 273.09 7.25988 272.85L69.2899 229.92C71.3799 233.73 75.3399 235.52 81.5099 235.52C86.0199 235.52 89.3299 234.57 91.6099 232.59C91.7799 233 92.0799 233.35 92.4699 233.57L157.27 270.55C157.58 270.73 157.92 270.81 158.26 270.81C158.95 270.81 159.61 270.46 159.99 269.82L163.73 263.47C164 263.01 164.08 262.46 163.94 261.94C163.8 261.42 163.46 260.98 163 260.72L95.7299 222.16C95.7299 222.09 95.7499 222.01 95.7599 221.94C95.8399 221.31 95.9199 220.67 96.0099 220.04C103.11 214.1 102.79 199 102.22 192.06C103.74 188.85 104.82 184.78 104.82 182.16V120.35C104.82 119.34 104.64 118.37 104.31 117.44L157.3 147.67C157.61 147.85 157.95 147.93 158.29 147.93C158.98 147.93 159.64 147.58 160.02 146.94L163.76 140.59C164.03 140.13 164.11 139.58 163.97 139.06C163.83 138.54 163.5 138.1 163.03 137.84L96.5099 99.71C95.2199 86.82 92.1199 78.53 87.2699 75.03L73.3799 2.17004C73.1999 1.21004 72.3599 0.540039 71.4199 0.540039Z" fill="black"/>
</g>
<defs>
<clipPath id="clip0_851_72">
<rect width="164" height="272.67" fill="white" transform="translate(0 0.540039)"/>
</clipPath>
</defs>
</svg>
