<svg width="107" height="147" viewBox="0 0 107 147" fill="none" xmlns="http://www.w3.org/2000/svg">
<g clip-path="url(#clip0_582_2)">
<path d="M70.5791 145.035C70.2691 145.035 69.9491 144.975 69.5991 144.845C68.2791 144.375 61.8091 140.425 58.2091 138.195C58.2091 138.605 58.1391 139.245 57.7191 139.685V139.765C57.7591 140.075 57.7191 140.475 57.4591 140.815C57.3091 141.015 56.9491 141.355 56.2791 141.355H50.5291C49.8591 141.355 49.5091 141.015 49.3491 140.815C49.0991 140.485 49.0391 140.085 49.0891 139.765V139.685C48.6691 139.245 48.5991 138.605 48.5991 138.195C44.9991 140.415 38.5291 144.375 37.2091 144.845C36.8491 144.975 36.5291 145.035 36.2291 145.035C35.5591 145.035 35.1391 144.735 34.9091 144.475C34.4091 143.925 34.4091 143.195 34.4291 142.945V139.385C34.4291 132.975 38.5891 129.095 38.7691 128.935C38.9791 128.725 44.7391 122.885 46.8091 121.085C45.8891 117.765 45.9391 105.115 45.9491 104.575V88.3946C45.6791 87.8146 44.8991 86.1146 44.6091 85.5546C44.5891 85.5246 44.4891 85.4846 44.3591 85.4746C40.9291 87.0346 5.11914 103.395 3.81914 103.975C3.50914 104.115 3.19914 104.185 2.90914 104.185C2.45914 104.185 2.03914 104.005 1.72914 103.685C1.11914 103.055 1.11914 102.055 1.11914 101.855V95.4646C1.11914 87.3646 5.65914 81.1846 5.84914 80.9246C5.87914 80.8846 5.90914 80.8546 5.93914 80.8146L6.08914 80.6646L6.04914 66.2946C6.14914 64.8546 6.84914 64.3646 7.45914 64.3646C7.71914 64.3646 8.36914 64.4646 8.70914 65.3746C8.85914 65.7746 8.93914 66.2246 8.93914 66.7046V77.7846L23.8191 62.7746V62.5646C23.8191 60.9546 24.8291 60.8746 25.0291 60.8746C25.1091 60.8746 25.3291 60.8846 25.5591 61.0146L35.5691 50.9146C36.9691 49.5046 38.4991 48.2246 40.1391 47.0946L46.0491 43.0346C46.2291 42.9146 46.3291 42.7146 46.3291 42.4946V28.5646C46.3291 16.5946 49.5991 1.97461 53.4191 1.97461C57.2391 1.97461 60.5091 16.5946 60.5091 28.5646V42.4946C60.5091 42.7146 60.6191 42.9146 60.7991 43.0346L66.6991 47.0946C68.3291 48.2146 69.8691 49.5046 71.2691 50.9146L81.2891 61.0246C81.5191 60.8946 81.7391 60.8846 81.8191 60.8846C82.2091 60.8846 82.6991 61.1046 82.9091 61.7346C82.9891 61.9646 83.0291 62.2446 83.0291 62.5746V62.7846L100.909 80.8246C100.909 80.8246 100.969 80.8946 100.999 80.9346C101.189 81.1946 105.729 87.3746 105.729 95.4746V101.905C105.729 102.065 105.729 103.065 105.119 103.705C104.809 104.025 104.389 104.205 103.939 104.205C103.649 104.205 103.339 104.135 103.029 103.995C101.729 103.415 65.9191 87.0646 62.4891 85.4946C62.3491 85.5146 62.2591 85.5546 62.2391 85.5746C61.9491 86.1446 61.1591 87.8346 60.8991 88.4146V104.605C60.8991 105.135 60.9491 117.785 60.0291 121.065C62.1091 122.905 67.8691 128.755 68.1091 129.005C68.2491 129.135 72.4091 133.015 72.4091 139.425V142.985C72.4291 143.235 72.4191 143.965 71.9291 144.515C71.6991 144.765 71.2791 145.075 70.6091 145.075L70.5791 145.035Z" fill="white"/>
<path d="M53.3996 2.96484C55.6896 2.96484 59.4896 14.6748 59.4896 28.5548V42.4848C59.4896 43.0348 59.7596 43.5448 60.2096 43.8448L66.1196 47.9048C67.7096 48.9948 69.1896 50.2348 70.5396 51.6048L81.5896 62.7548V62.5548C81.5896 62.0948 81.6896 61.8648 81.7896 61.8648C81.8896 61.8648 81.9996 62.0948 81.9996 62.5548V63.1748L99.7296 81.0648L100.17 81.5148C100.17 81.5148 104.7 87.5948 104.7 95.4548V101.885C104.7 101.885 104.74 103.175 103.91 103.175C103.77 103.175 103.6 103.135 103.41 103.055C102.06 102.455 62.6696 84.4648 62.6696 84.4648C62.6696 84.4648 62.6396 84.4648 62.5896 84.4648C62.3396 84.4648 61.6296 84.5148 61.3296 85.0948C60.9696 85.8048 59.8796 88.1748 59.8796 88.1748V104.585C59.8796 104.585 59.9396 117.595 59.0496 120.765C58.9396 121.155 59.0496 121.575 59.3596 121.835C61.4196 123.625 67.3796 129.675 67.3796 129.675C67.3796 129.675 71.3996 133.345 71.3996 139.395V142.995C71.3996 142.995 71.5096 144.045 70.5896 144.045C70.4096 144.045 70.1996 144.005 69.9396 143.915C68.4896 143.395 59.4896 137.825 57.7596 136.745C57.6996 136.705 57.6396 136.695 57.5696 136.695C57.3996 136.695 57.2396 136.815 57.2196 137.005C57.2096 137.095 57.1996 137.205 57.1996 137.335V138.025C57.1996 138.025 57.2896 138.845 56.9296 139.065C56.7996 139.145 56.7296 139.305 56.7296 139.465V139.865C56.7296 139.865 56.8596 140.365 56.2896 140.365H50.5396C49.9696 140.365 50.0996 139.865 50.0996 139.865V139.465C50.0996 139.305 50.0296 139.145 49.8996 139.065C49.5396 138.845 49.6296 138.025 49.6296 138.025V137.335C49.6296 137.205 49.6296 137.095 49.6096 137.005C49.5896 136.815 49.4296 136.695 49.2596 136.695C49.1996 136.695 49.1296 136.715 49.0696 136.745C47.3396 137.815 38.3396 143.395 36.8896 143.915C36.6296 144.005 36.4196 144.045 36.2396 144.045C35.3296 144.045 35.4296 142.995 35.4296 142.995V139.395C35.4296 133.355 39.4496 129.675 39.4496 129.675C39.4496 129.675 45.3996 123.635 47.4696 121.835C47.7796 121.565 47.8896 121.155 47.7796 120.765C46.8796 117.595 46.9496 104.585 46.9496 104.585V88.1748C46.9496 88.1748 45.8596 85.8048 45.4996 85.0948C45.1996 84.5148 44.4796 84.4648 44.2396 84.4648C44.1896 84.4648 44.1596 84.4648 44.1596 84.4648C44.1596 84.4648 4.76961 102.455 3.41961 103.055C3.21961 103.145 3.05961 103.175 2.91961 103.175C2.08961 103.175 2.12961 101.885 2.12961 101.885V95.4548C2.12961 87.5948 6.65961 81.5148 6.65961 81.5148L7.09961 81.0648L7.05961 66.2748C7.09961 65.7148 7.27961 65.3448 7.46961 65.3448C7.57961 65.3448 7.68961 65.4548 7.77961 65.7048C7.89961 66.0148 7.93961 66.3548 7.93961 66.6848V80.1948L24.8196 63.1648V62.5448C24.8196 62.0848 24.9296 61.8548 25.0296 61.8548C25.1296 61.8548 25.2396 62.0848 25.2396 62.5448V62.7448L36.2796 51.5948C37.6396 50.2248 39.1196 48.9848 40.6996 47.8948L46.6096 43.8348C47.0596 43.5248 47.3296 43.0148 47.3296 42.4748V28.5448C47.3296 14.6548 51.1196 2.95484 53.4196 2.95484M53.3996 0.964844C52.4596 0.964844 49.9696 0.964844 47.5596 10.0448C46.1096 15.5248 45.3096 22.0948 45.3096 28.5548V42.3048L39.5496 46.2648C37.8596 47.4248 36.2796 48.7448 34.8396 50.2048L25.2396 59.8848C25.1596 59.8748 25.0796 59.8748 24.9996 59.8748C24.2096 59.8748 22.8796 60.4048 22.7896 62.3548L9.90961 75.3548V66.7048C9.90961 66.1048 9.80961 65.5348 9.61961 65.0248C9.03961 63.4848 7.79961 63.3648 7.43961 63.3648C6.41961 63.3648 5.17961 64.0948 5.02961 66.1448C5.02961 66.1948 5.02961 66.2448 5.02961 66.2948L5.06961 80.2648C5.06961 80.2648 5.03961 80.3048 5.02961 80.3248C4.82961 80.5848 0.0996094 87.0248 0.0996094 95.4548V101.855C0.0996094 102.275 0.149609 103.505 0.989609 104.375C1.48961 104.895 2.15961 105.175 2.88961 105.175C3.31961 105.175 3.76961 105.075 4.20961 104.875C5.44961 104.325 37.9596 89.4748 44.0396 86.6948C44.3196 87.2848 44.6796 88.0648 44.9296 88.6048V104.575C44.9296 105.855 44.8896 116.735 45.6996 120.715C43.3896 122.815 38.4996 127.775 38.0396 128.235C37.5196 128.735 33.4196 132.835 33.4196 139.385V142.915C33.3996 143.355 33.4396 144.345 34.1596 145.145C34.6796 145.715 35.4096 146.035 36.2196 146.035C36.6396 146.035 37.0696 145.955 37.5396 145.785C38.7896 145.335 43.9196 142.245 47.9296 139.775C47.9696 139.855 48.0096 139.935 48.0596 140.005C48.0596 140.515 48.2396 141.015 48.5396 141.415C48.9996 142.015 49.6996 142.345 50.5096 142.345H56.2596C57.0696 142.345 57.7696 142.015 58.2296 141.415C58.5396 141.015 58.7096 140.515 58.7096 140.005C58.7596 139.925 58.7996 139.855 58.8396 139.775C62.8496 142.245 67.9796 145.335 69.2296 145.785C69.6996 145.955 70.1296 146.035 70.5496 146.035C71.3596 146.035 72.0996 145.715 72.6096 145.145C73.3296 144.345 73.3696 143.355 73.3496 142.915V139.385C73.3496 132.835 69.2496 128.735 68.7296 128.235C68.2696 127.765 63.3696 122.805 61.0696 120.715C61.8696 116.735 61.8496 105.855 61.8396 104.565V88.6048C62.0896 88.0648 62.4496 87.2848 62.7296 86.6948C68.8096 89.4748 101.32 104.315 102.56 104.875C103 105.075 103.45 105.175 103.88 105.175C104.61 105.175 105.28 104.895 105.78 104.375C106.62 103.505 106.68 102.275 106.67 101.855V95.4548C106.67 87.0248 101.94 80.5848 101.74 80.3148C101.68 80.2348 101.62 80.1648 101.56 80.1048L101.12 79.6548L83.9696 62.3448C83.9496 61.9948 83.8996 61.6648 83.7996 61.3848C83.4796 60.4648 82.6796 59.8648 81.7596 59.8648C81.6896 59.8648 81.6096 59.8648 81.5196 59.8748L71.9196 50.1948C70.4796 48.7448 68.8896 47.4148 67.2096 46.2548L61.4496 42.2948V28.5448C61.4496 22.0848 60.6496 15.5048 59.1996 10.0348C56.8296 0.964844 54.3396 0.964844 53.3996 0.964844Z" fill="black"/>
</g>
<defs>
<clipPath id="clip0_582_2">
<rect width="106.6" height="145.07" fill="white" transform="translate(0.0996094 0.964844)"/>
</clipPath>
</defs>
</svg>
