<svg width="113" height="76" viewBox="0 0 113 76" fill="none" xmlns="http://www.w3.org/2000/svg">
<g clip-path="url(#clip0_549_22)">
<path d="M56.5202 74.6698C56.1202 74.6698 55.7602 74.5098 55.5102 74.2298C55.1502 73.8298 55.1402 73.3198 55.1502 73.0898V71.1398C53.7802 72.5198 51.9902 72.6698 51.2702 72.6698C50.9402 72.6698 50.7002 72.6398 50.5702 72.6298C49.0902 72.6298 39.3702 72.3398 39.3702 66.4598C39.3702 60.5798 49.9502 58.5898 50.4002 58.5098C50.4602 58.5098 50.5102 58.4998 50.5702 58.4998H53.6002C51.7402 45.4998 51.6102 38.7998 51.6602 36.3598C44.4202 36.4098 4.23016 36.6798 3.48016 36.6798C2.83016 36.6798 2.43016 36.3898 2.21016 36.1498C1.70016 35.5898 1.75016 34.8498 1.76016 34.7098V23.8698C1.55016 23.6198 1.41016 23.2798 1.41016 22.8498C1.41016 22.3898 1.55016 22.0098 1.83016 21.7198C2.04016 19.0598 3.87016 18.2698 4.87016 18.2298H45.7302C46.0702 17.0698 46.8502 16.5398 47.5902 16.5398C48.3302 16.5398 49.1102 17.0698 49.4502 18.2298H51.4402V16.5098C51.1702 16.2398 51.0102 15.8698 50.9902 15.4998C50.9802 15.1998 50.7502 9.07977 50.7502 7.82977C50.7502 7.43977 50.8302 7.10977 50.9802 6.82977C50.8302 6.82977 50.6802 6.82977 50.5302 6.82977C49.0202 6.82977 47.6502 6.70976 46.4602 6.48977C45.8702 6.37977 45.4502 5.85977 45.4502 5.25977C45.4502 4.65977 45.8802 4.14977 46.4702 4.04977C47.8102 3.80977 49.3602 3.68977 51.0602 3.68977C52.2802 3.68977 53.3802 3.74977 54.1902 3.81977C54.5802 2.51977 55.3002 1.00977 56.5202 1.00977C57.7402 1.00977 58.4602 2.51977 58.8502 3.81977C59.6502 3.74977 60.7602 3.68977 61.9802 3.68977C63.6802 3.68977 65.2302 3.80977 66.5702 4.04977C67.1602 4.14977 67.5902 4.66977 67.5902 5.25977C67.5902 5.85977 67.1702 6.37977 66.5802 6.48977C65.3902 6.71977 64.0202 6.82977 62.5102 6.82977C62.3602 6.82977 62.2102 6.82977 62.0602 6.82977C62.2002 7.10977 62.2902 7.43977 62.2902 7.82977C62.2902 9.06977 62.0602 15.1998 62.0502 15.4598C62.0202 15.8498 61.8602 16.2298 61.5902 16.5098V18.2298H63.5802C63.9202 17.0698 64.7002 16.5398 65.4402 16.5398C66.1802 16.5398 66.9602 17.0698 67.3002 18.2298H108.12C109.15 18.2698 110.98 19.0498 111.19 21.7198C111.47 22.0098 111.61 22.3798 111.61 22.8398C111.61 23.2698 111.47 23.6098 111.27 23.8598V34.7898C111.27 34.7898 111.32 35.5698 110.82 36.1298C110.6 36.3698 110.2 36.6598 109.55 36.6598C108.8 36.6598 68.6102 36.3898 61.3702 36.3398C61.4202 38.7798 61.3002 45.4798 59.4302 58.4798H62.4602C62.5202 58.4798 62.5702 58.4798 62.6302 58.4898C63.0802 58.5698 73.6602 60.4498 73.6602 66.4398C73.6602 72.4298 63.9002 72.6098 62.4602 72.6098C62.3302 72.6298 62.0802 72.6498 61.7602 72.6498C61.0402 72.6498 59.2502 72.4998 57.8802 71.1198V73.0698C57.9002 73.2998 57.8802 73.8098 57.5202 74.2098C57.2702 74.4998 56.9102 74.6498 56.5102 74.6498L56.5202 74.6698Z" fill="white"/>
<path d="M56.5202 2C57.1602 2 57.8002 3.56 58.1002 4.89C58.8402 4.81 60.2902 4.69 61.9802 4.69C63.3702 4.69 64.9302 4.77 66.4002 5.04C66.6602 5.09 66.6602 5.47 66.4002 5.52C65.1302 5.76 63.7802 5.84 62.5202 5.84C60.7102 5.84 59.1002 5.67 58.2302 5.56C58.2602 5.8 58.2902 6.02 58.2902 6.2C58.4902 6.2 59.8302 6.52 59.8302 6.52C59.8302 6.52 61.2902 6.6 61.2902 7.83C61.2902 9.06 61.0502 15.42 61.0502 15.42C61.0502 15.42 61.0102 15.91 60.5902 15.91V19.22H64.4202C64.4902 18.1 64.9702 17.53 65.4402 17.53C65.9102 17.53 66.3902 18.09 66.4602 19.22H108.12C108.12 19.22 110.21 19.3 110.21 22.23C110.31 22.33 110.61 22.34 110.61 22.84C110.61 23.34 110.27 23.35 110.27 23.35V34.79C110.27 34.79 110.36 35.66 109.55 35.66C108.74 35.66 60.3302 35.34 60.3302 35.34C60.3302 35.34 60.8602 41.91 58.2802 59.49H62.4602C62.4602 59.49 72.6602 61.24 72.6602 66.45C72.6602 71.66 62.6802 71.62 62.3902 71.62C62.3902 71.62 62.1402 71.66 61.7602 71.66C60.5202 71.66 57.8302 71.22 57.2502 67.47H56.8802V73.12C56.8802 73.12 56.9502 73.66 56.5102 73.66C56.0702 73.66 56.1402 73.12 56.1402 73.12V67.47H55.7702C55.1902 71.22 52.5002 71.66 51.2602 71.66C50.8802 71.66 50.6302 71.62 50.6302 71.62C50.3402 71.62 40.3602 71.58 40.3602 66.45C40.3602 61.32 50.5602 59.49 50.5602 59.49H54.7402C52.1502 41.91 52.6902 35.34 52.6902 35.34C52.6902 35.34 4.28018 35.66 3.47018 35.66C2.66018 35.66 2.75018 34.79 2.75018 34.79V23.35C2.75018 23.35 2.41018 23.34 2.41018 22.84C2.41018 22.34 2.72018 22.33 2.81018 22.23C2.81018 19.3 4.90018 19.22 4.90018 19.22H46.5602C46.6302 18.1 47.1102 17.53 47.5802 17.53C48.0502 17.53 48.5302 18.09 48.6002 19.22H52.4302V15.91C52.0102 15.91 51.9702 15.42 51.9702 15.42C51.9702 15.42 51.7302 9.07 51.7302 7.83C51.7302 6.59 53.1902 6.52 53.1902 6.52C53.1902 6.52 54.5302 6.2 54.7302 6.2C54.7302 6.02 54.7502 5.8 54.7902 5.56C53.9302 5.67 52.3202 5.84 50.5002 5.84C49.2402 5.84 47.8802 5.76 46.6202 5.52C46.3602 5.47 46.3602 5.09 46.6202 5.04C48.0902 4.78 49.6502 4.69 51.0402 4.69C52.7302 4.69 54.1702 4.81 54.9202 4.89C55.2202 3.56 55.8602 2 56.5002 2M56.5202 0C55.0002 0 54.0702 1.28 53.4902 2.76C52.7902 2.72 51.9602 2.68 51.0602 2.68C49.3002 2.68 47.6902 2.81 46.2902 3.06C45.2302 3.25 44.4502 4.17 44.4502 5.25C44.4502 6.33 45.2102 7.27 46.2802 7.47C47.3202 7.67 48.4902 7.78 49.7602 7.82C49.7602 9.09 49.9902 15.23 50.0002 15.49C50.0002 15.52 50.0002 15.54 50.0002 15.57C50.0402 16.05 50.2002 16.49 50.4502 16.86V17.22H50.1402C49.5602 16.07 48.5602 15.53 47.6002 15.53C46.6402 15.53 45.6302 16.06 45.0602 17.22H4.92018C4.92018 17.22 4.87018 17.22 4.85018 17.22C3.38018 17.27 1.26018 18.42 0.890176 21.3C0.500176 21.85 0.430176 22.44 0.430176 22.83C0.430176 23.35 0.560176 23.8 0.770176 24.17V34.73C0.750176 35.14 0.800176 36.05 1.48018 36.8C1.98018 37.36 2.70018 37.66 3.49018 37.66C4.21018 37.66 41.3102 37.41 50.6602 37.35C50.6702 40.35 50.9402 46.66 52.4502 57.48H50.5702C50.4602 57.48 50.3402 57.48 50.2302 57.51C49.0202 57.72 38.3702 59.74 38.3702 66.44C38.3702 73.14 48.7502 73.6 50.5002 73.61C50.6702 73.63 50.9402 73.65 51.2702 73.65C52.2202 73.65 53.2202 73.46 54.1502 73.02V73.05C54.1302 73.45 54.1802 74.22 54.7602 74.87C55.2102 75.37 55.8302 75.65 56.5202 75.65C57.2102 75.65 57.8302 75.37 58.2802 74.87C58.8502 74.22 58.9002 73.44 58.8902 73.05V73.02C59.8202 73.46 60.8202 73.65 61.7702 73.65C62.1002 73.65 62.3702 73.63 62.5402 73.61C64.3202 73.59 74.6702 73.2 74.6702 66.44C74.6702 59.68 64.0302 57.72 62.8102 57.51C62.7002 57.49 62.5902 57.48 62.4702 57.48H60.5902C62.1002 46.66 62.3702 40.35 62.3802 37.35C71.7302 37.41 108.83 37.66 109.55 37.66C110.34 37.66 111.06 37.35 111.56 36.8C112.24 36.05 112.29 35.14 112.27 34.73V24.17C112.48 23.8 112.61 23.35 112.61 22.83C112.61 22.44 112.53 21.84 112.15 21.3C111.78 18.42 109.66 17.27 108.19 17.22C108.17 17.22 108.14 17.22 108.12 17.22H67.9802C67.4002 16.07 66.4002 15.53 65.4402 15.53C64.4802 15.53 63.4702 16.06 62.9002 17.22H62.5902V16.86C62.8402 16.5 63.0002 16.06 63.0402 15.57C63.0402 15.54 63.0402 15.52 63.0402 15.49C63.0402 15.23 63.2802 9.09 63.2802 7.83C64.5502 7.79 65.7202 7.67 66.7602 7.48C67.8202 7.28 68.5902 6.35 68.5902 5.26C68.5902 4.18 67.8102 3.26 66.7502 3.07C65.3502 2.82 63.7402 2.69 61.9802 2.69C61.0802 2.69 60.2502 2.72 59.5502 2.77C58.9802 1.29 58.0402 0.01 56.5202 0.01V0Z" fill="black"/>
</g>
<defs>
<clipPath id="clip0_549_22">
<rect width="112.2" height="75.67" fill="white" transform="translate(0.420166)"/>
</clipPath>
</defs>
</svg>
