<svg width="187" height="196" viewBox="0 0 187 196" fill="none" xmlns="http://www.w3.org/2000/svg">
<g clip-path="url(#clip0_473_7)">
<path d="M93.45 194.81C92.59 194.81 92.08 194.41 91.8 194.08C91.1 193.25 91.19 192.03 91.25 191.62V183.5L90.95 183.74C90.38 184.2 89.67 184.46 88.95 184.46C88.82 184.46 88.69 184.46 88.55 184.44C82.84 183.72 64 181.35 61.59 180.93C58.01 180.31 58.09 178.38 58.12 178.16V174.16C58.12 171.52 60.53 170.31 61.8 170.05C62.04 170.01 80.78 166.87 85.93 166.02C84.47 161.89 83.39 155.28 82.73 150.28C82.07 145.29 81.73 140.19 81.73 135.12V108.75H81.64C59.12 105.44 6.49 97.7101 4.34 97.3001C1.7 96.8001 1 94.8601 1 93.9101V89.2101C1 86.9801 2.99 85.8801 4.17 85.5901C4.24 85.5701 4.3 85.5601 4.37 85.5601L57.89 83.3401C57.63 80.4601 57.43 75.7001 58.17 70.4901C58.34 69.5701 58.66 69.0501 58.98 68.7601C59.01 68.6101 59.04 68.4301 59.08 68.2301C58.08 68.3001 57.15 68.3401 56.19 68.3401C53.85 68.3401 51.36 68.1201 48.59 67.6801C47.77 67.5501 47.4 66.9701 47.4 66.4501C47.4 65.9401 47.77 65.3701 48.58 65.2501C51.2 64.8601 53.56 64.6701 55.8 64.6701C57.45 64.6701 58.84 64.7801 59.96 64.8901C60.56 63.1101 61.51 61.1801 63.14 61.1801C64.44 61.1801 65.48 62.3701 66.37 64.9101C67.53 64.7801 68.98 64.6701 70.71 64.6701C72.94 64.6701 75.28 64.8601 77.88 65.2401C78.69 65.3601 79.06 65.9301 79.06 66.4401C79.06 66.9601 78.7 67.5401 77.87 67.6701C75.07 68.1201 72.56 68.3401 70.2 68.3401C69.23 68.3401 68.3 68.3001 67.29 68.2301C67.32 68.3601 67.34 68.4701 67.36 68.5801C68.02 68.8701 68.73 69.5401 68.9 70.8401C68.94 71.0201 69.95 76.3201 69.29 82.8701L81.96 82.3501V39.4501C81.96 16.1101 89.39 1.82008 93.44 1.82008C97.49 1.82008 104.92 16.1101 104.92 39.4501V82.3501L117.59 82.8701C116.93 76.3201 117.94 71.0201 117.99 70.7801C118.16 69.5101 118.86 68.8601 119.52 68.5701C119.54 68.4701 119.57 68.3501 119.59 68.2301C118.58 68.3101 117.65 68.3401 116.68 68.3401C114.31 68.3401 111.8 68.1201 109.01 67.6701C108.19 67.5401 107.82 66.9601 107.83 66.4401C107.83 65.9301 108.2 65.3601 109.01 65.2401C111.61 64.8501 113.95 64.6701 116.18 64.6701C117.91 64.6701 119.36 64.7901 120.52 64.9101C121.42 62.3701 122.45 61.1801 123.75 61.1801C125.38 61.1801 126.33 63.1101 126.93 64.8901C128.05 64.7701 129.44 64.6701 131.09 64.6701C133.33 64.6701 135.69 64.8601 138.31 65.2501C139.12 65.3701 139.49 65.9401 139.49 66.4601C139.49 66.9801 139.13 67.5501 138.3 67.6901C135.52 68.1401 133.04 68.3501 130.69 68.3501C129.73 68.3501 128.81 68.3201 127.8 68.2401C127.84 68.4401 127.87 68.6201 127.9 68.7701C128.22 69.0501 128.54 69.5601 128.71 70.4601C129.45 75.7101 129.25 80.4701 128.99 83.3501L182.51 85.5701C182.58 85.5701 182.65 85.5801 182.71 85.6001C183.89 85.8901 185.88 86.9901 185.88 89.2201V93.9201C185.88 94.8701 185.18 96.8101 182.54 97.3101C180.39 97.7201 127.75 105.45 105.22 108.75H105.15V135.13C105.15 140.2 104.82 145.3 104.15 150.29C103.49 155.29 102.41 161.91 100.95 166.03C106.1 166.88 124.83 170.02 125.04 170.05C126.35 170.32 128.77 171.52 128.77 174.17V178.27C128.79 178.39 128.87 180.32 125.29 180.94C122.88 181.36 104.05 183.73 98.33 184.45C98.2 184.47 98.07 184.47 97.94 184.47C97.21 184.47 96.5 184.22 95.94 183.75L95.64 183.51V191.63C95.7 192.04 95.79 193.25 95.09 194.09C94.81 194.42 94.3 194.82 93.44 194.82L93.45 194.81Z" fill="white"/>
<path d="M93.45 2.84009C96.58 2.84009 103.93 16.2101 103.93 39.4701V82.6701C103.93 83.0401 104.22 83.3401 104.58 83.3501L118.73 83.9401C117.82 76.9401 118.98 71.0001 118.98 71.0001C119.19 69.4201 120.4 69.4001 120.4 69.4001C120.4 69.4001 120.58 68.3901 120.91 67.1301C119.66 67.2601 118.29 67.3601 116.7 67.3601C114.65 67.3601 112.23 67.1901 109.19 66.7001C108.74 66.6301 108.73 66.3101 109.17 66.2401C111.96 65.8201 114.25 65.6801 116.19 65.6801C118.13 65.6801 119.79 65.8301 121.22 66.0101C121.8 64.1401 122.66 62.1901 123.76 62.1901C124.86 62.1901 125.68 64.1201 126.24 65.9901C127.65 65.8201 129.21 65.6801 131.11 65.6801C133.01 65.6801 135.36 65.8301 138.18 66.2501C138.62 66.3201 138.61 66.6301 138.16 66.7101C135.15 67.1901 132.75 67.3601 130.71 67.3601C129.15 67.3601 127.8 67.2601 126.55 67.1401C126.86 68.4101 127.03 69.4301 127.03 69.4301C127.03 69.4301 127.03 69.4301 127.04 69.4301C127.11 69.4301 127.53 69.4801 127.75 70.6601C128.59 76.5801 128.18 81.9601 127.91 84.3201L182.49 86.5801C182.49 86.5801 184.9 87.1801 184.9 89.2301V93.9301C184.9 93.9301 184.9 95.8601 182.37 96.3401C179.97 96.8001 111.77 106.79 104.75 107.82C104.42 107.87 104.17 108.16 104.17 108.49V135.13C104.17 140.16 103.84 145.18 103.18 150.16C102.43 155.81 101.26 162.75 99.69 166.57C99.64 166.7 99.72 166.84 99.85 166.86C102.9 167.35 124.88 171.03 124.88 171.03C124.88 171.03 127.77 171.63 127.77 174.16V178.26C127.77 178.26 127.89 179.46 125.12 179.95C122.67 180.38 102.75 182.88 98.21 183.45C98.12 183.46 98.03 183.47 97.94 183.47C97.44 183.47 96.96 183.3 96.57 182.98L94.64 181.4V191.7C94.64 191.7 95 193.81 93.44 193.81C91.88 193.81 92.24 191.7 92.24 191.7V181.4L90.31 182.98C89.92 183.3 89.44 183.47 88.94 183.47C88.85 183.47 88.76 183.47 88.67 183.45C84.13 182.88 64.21 180.38 61.76 179.95C58.99 179.47 59.11 178.26 59.11 178.26V174.16C59.11 171.63 62 171.03 62 171.03C62 171.03 83.98 167.35 87.03 166.86C87.17 166.84 87.25 166.7 87.19 166.57C85.62 162.75 84.45 155.8 83.7 150.16C83.04 145.18 82.71 140.16 82.71 135.13V108.49C82.71 108.15 82.46 107.87 82.13 107.82C75.12 106.79 6.91 96.8001 4.51 96.3401C1.98 95.8601 1.98 93.9301 1.98 93.9301V89.2301C1.98 87.1801 4.39 86.5801 4.39 86.5801L58.97 84.3201C58.71 81.9501 58.3 76.5701 59.13 70.6601C59.35 69.4901 59.77 69.4301 59.84 69.4301H59.85C59.85 69.4301 60.01 68.4101 60.33 67.1401C59.08 67.2701 57.73 67.3601 56.17 67.3601C54.13 67.3601 51.74 67.1901 48.72 66.7101C48.27 66.6401 48.26 66.3201 48.7 66.2501C51.52 65.8301 53.81 65.6801 55.77 65.6801C57.73 65.6801 59.23 65.8201 60.64 65.9901C61.19 64.1201 62.03 62.1901 63.12 62.1901C64.21 62.1901 65.08 64.1401 65.66 66.0101C67.1 65.8301 68.72 65.6801 70.69 65.6801C72.66 65.6801 74.92 65.8301 77.71 66.2401C78.15 66.3101 78.14 66.6201 77.69 66.7001C74.65 67.1901 72.23 67.3601 70.18 67.3601C68.59 67.3601 67.23 67.2601 65.97 67.1301C66.3 68.3901 66.48 69.4001 66.48 69.4001C66.48 69.4001 67.68 69.4101 67.9 71.0001C67.9 71.0001 69.06 76.9401 68.15 83.9401L82.3 83.3501C82.66 83.3301 82.95 83.0301 82.95 82.6701V39.4701C82.95 16.2201 90.3 2.84009 93.43 2.84009M93.45 0.840088C89.47 0.840088 86.32 8.48009 85.15 11.7601C83.24 17.1101 80.97 26.2601 80.97 39.4701V81.4101L70.39 81.8501C70.83 75.9601 70 71.2801 69.89 70.6701C69.82 70.1701 69.68 69.7401 69.49 69.3601C69.73 69.3601 69.96 69.3601 70.2 69.3601C72.62 69.3601 75.18 69.1401 78.03 68.6801C79.23 68.4901 80.06 67.5701 80.05 66.4601C80.05 65.3501 79.21 64.4501 78.02 64.2701C75.37 63.8801 72.98 63.6901 70.7 63.6901C69.29 63.6901 68.07 63.7601 67.03 63.8601C66.28 62.0001 65.1 60.2001 63.13 60.2001C61.16 60.2001 59.91 62.2001 59.27 63.8401C58.28 63.7501 57.12 63.6901 55.79 63.6901C53.5 63.6901 51.09 63.8801 48.43 64.2801C47.24 64.4601 46.41 65.3601 46.4 66.4701C46.4 67.5801 47.23 68.5001 48.43 68.6901C51.26 69.1401 53.8 69.3601 56.19 69.3601C56.61 69.3601 57.03 69.3601 57.44 69.3401C57.34 69.6101 57.25 69.9301 57.18 70.2801C57.18 70.3101 57.17 70.3401 57.17 70.3701C56.5 75.0801 56.59 79.4401 56.8 82.4001L4.32 84.5701C4.18 84.5701 4.05 84.6001 3.92 84.6301C2.46 84.9901 0 86.3701 0 89.2201V93.9201C0 95.1601 0.87 97.6701 4.16 98.2901C6.47 98.7301 65.94 107.45 80.73 109.62V135.12C80.73 140.24 81.07 145.38 81.73 150.41C82.58 156.86 83.55 161.82 84.61 165.22C78.27 166.27 61.87 169.02 61.68 169.05C61.65 169.05 61.63 169.05 61.6 169.06C60.05 169.38 57.12 170.86 57.12 174.15V178.25C57.12 178.97 57.47 181.22 61.43 181.91C63.88 182.34 82.72 184.71 88.44 185.42C88.61 185.44 88.79 185.45 88.96 185.45C89.4 185.45 89.84 185.38 90.26 185.24V191.54C90.18 192.18 90.13 193.62 91.05 194.71C91.64 195.41 92.5 195.79 93.47 195.79C94.44 195.79 95.3 195.41 95.89 194.71C96.81 193.62 96.76 192.18 96.68 191.54V185.24C97.1 185.38 97.54 185.45 97.98 185.45C98.15 185.45 98.32 185.44 98.5 185.42C104.22 184.7 123.05 182.33 125.51 181.91C129.47 181.22 129.81 178.98 129.82 178.25V174.15C129.82 170.86 126.89 169.38 125.34 169.06C125.31 169.06 125.29 169.05 125.26 169.05C125.07 169.02 108.66 166.27 102.33 165.22C103.39 161.82 104.35 156.86 105.21 150.41C105.88 145.38 106.21 140.23 106.21 135.12V109.62C121 107.45 180.47 98.7301 182.78 98.2901C186.07 97.6601 186.94 95.1501 186.94 93.9201V89.2201C186.94 86.3701 184.47 84.9901 183.02 84.6301C182.89 84.6001 182.75 84.5801 182.62 84.5701L130.14 82.4001C130.35 79.4301 130.44 75.0801 129.77 70.3701C129.77 70.3401 129.77 70.3101 129.76 70.2801C129.69 69.9201 129.6 69.6101 129.5 69.3401C129.92 69.3501 130.33 69.3601 130.75 69.3601C133.15 69.3601 135.69 69.1401 138.51 68.6901C139.71 68.5001 140.54 67.5901 140.54 66.4701C140.54 65.3601 139.7 64.4601 138.51 64.2801C135.84 63.8801 133.43 63.6901 131.15 63.6901C129.82 63.6901 128.66 63.7601 127.67 63.8401C127.03 62.2001 125.87 60.2001 123.81 60.2001C121.75 60.2001 120.66 62.0001 119.91 63.8601C118.87 63.7601 117.64 63.6901 116.24 63.6901C113.96 63.6901 111.57 63.8801 108.92 64.2701C107.73 64.4501 106.89 65.3501 106.89 66.4601C106.89 67.5701 107.72 68.4901 108.91 68.6801C111.76 69.1401 114.32 69.3601 116.74 69.3601C116.98 69.3601 117.21 69.3601 117.45 69.3601C117.26 69.7401 117.13 70.1801 117.05 70.6701C116.94 71.2701 116.11 75.9601 116.55 81.8501L105.97 81.4101V39.4701C105.97 26.2601 103.7 17.1101 101.79 11.7601C100.62 8.48009 97.47 0.840088 93.49 0.840088L93.45 0.840088Z" fill="black"/>
</g>
<defs>
<clipPath id="clip0_473_7">
<rect width="186.9" height="194.97" fill="white" transform="translate(0 0.840088)"/>
</clipPath>
</defs>
</svg>
