<svg width="408" height="437" viewBox="0 0 408 437" fill="none" xmlns="http://www.w3.org/2000/svg">
<g clip-path="url(#clip0_476_17)">
<path d="M204.58 434.99C203.33 434.99 201.36 434.32 201.36 432.54V418.5C201.17 418.15 201.02 417.75 200.89 417.33C200.85 417.33 200.81 417.33 200.76 417.33C200.57 417.33 200.38 417.31 200.19 417.27L190.83 415.31C189.78 415.14 188.51 414.19 188.13 411.99C188.13 411.95 188.12 411.9 188.11 411.86C187.78 408.63 188.22 406.39 189.45 405.02C190.45 403.91 191.6 403.79 192.05 403.79C192.09 403.79 192.16 403.79 192.2 403.79C192.29 403.79 192.37 403.81 192.46 403.82C193.62 404.05 196.53 404.63 198.68 405.11C199.18 402.52 200.25 399.91 200.71 398.87V392.68C170.55 403.37 150.84 410.37 146.21 412.05C145.95 413.23 145.36 414.54 143.79 414.54C141.28 414.54 140.83 410.67 140.75 409.38C138.54 403.72 138.85 393.28 139.05 390.95C139.31 387.88 141.16 386.28 141.7 385.88C144.23 383.73 184.59 349.48 191.49 343.64C184.93 318.73 184.13 288.65 184.12 288.34L183.17 221.81C180.36 215.71 175.62 212.61 169.09 212.61C165.57 212.61 162.72 213.56 162.22 213.73L11.3301 288.84C11.1601 288.93 10.4601 289.3 9.6401 289.64C9.5901 290.34 9.42009 290.88 9.0101 291.32C8.6301 291.74 8.02009 292.01 7.46009 292.01C6.8001 292.01 6.1601 291.69 5.7501 291.16C5.5901 290.95 5.47009 290.7 5.40009 290.44L4.5601 287.18C2.2601 277.22 2.6101 272.66 3.0001 267.37C3.0501 266.77 3.0901 266.15 3.1301 265.51C3.5301 259.62 5.5501 257.85 6.7501 257.32L53.3401 220.42H53.0401C52.9101 220.44 52.7601 220.45 52.5901 220.45C51.1601 220.45 49.8901 219.61 49.1901 218.21C48.0801 215.98 43.3201 194.83 48.5201 178.38C48.5301 178.34 48.5401 178.3 48.5601 178.27C49.5201 175.76 51.0501 175.24 51.5001 175.15C51.6301 175.12 51.7701 175.11 51.9001 175.1L69.2001 174.86C69.2601 174.86 69.3301 174.86 69.4301 174.86C70.1601 174.86 73.8701 175.13 74.9301 180.49C75.6601 184.19 76.6301 194.57 75.7701 202.67L113.25 172.99C112.21 172.71 111.32 171.96 110.78 170.87C109.67 168.64 104.91 147.49 110.11 131.04C110.12 131 110.13 130.96 110.15 130.93C111.11 128.42 112.64 127.9 113.08 127.81C113.21 127.78 113.35 127.77 113.48 127.76C113.48 127.76 121.9 127.64 121.91 127.64C121.94 127.64 121.97 127.64 122.01 127.64L130.78 127.51C130.84 127.51 130.91 127.51 131.01 127.51C131.74 127.51 135.45 127.78 136.51 133.14C137.17 136.47 138.11 145.87 137.5 153.8L181.86 118.67C182.13 118.46 182.28 118.13 182.28 117.79L181.61 70.9701C181.36 53.4201 186.85 15.1601 196.56 5.30011C198.32 3.51011 200.21 2.61011 202.19 2.61011C217.01 2.61011 223.72 54.8201 223.72 70.6701V117.49C223.72 117.83 223.88 118.16 224.15 118.37L269.01 152.86C268.29 144.95 269.09 135.53 269.7 132.19C270.69 126.76 274.43 126.48 275.17 126.48C275.24 126.48 275.29 126.48 275.34 126.48H284.12C284.12 126.48 284.2 126.48 284.24 126.48H292.64C292.77 126.48 292.91 126.49 293.04 126.52C293.49 126.61 295.02 127.1 296.02 129.6C296.04 129.64 296.05 129.68 296.06 129.71C301.5 146.09 297.04 167.3 295.96 169.55C295.43 170.65 294.55 171.41 293.52 171.7L331.42 200.84C330.45 192.75 331.27 182.36 331.94 178.65C332.93 173.22 336.67 172.94 337.41 172.94C337.48 172.94 337.53 172.94 337.58 172.94H346.35C346.35 172.94 346.43 172.94 346.47 172.94H354.87C355 172.94 355.14 172.95 355.27 172.98C355.72 173.07 357.25 173.56 358.25 176.06C358.27 176.1 358.28 176.14 358.29 176.17C363.73 192.54 359.27 213.76 358.2 216.01C357.51 217.44 356.24 218.3 354.78 218.3C354.63 218.3 354.49 218.3 354.38 218.28H354.08L401.2 254.5C402.41 255.01 404.46 256.75 404.94 262.63C404.99 263.27 405.05 263.88 405.1 264.49C405.57 269.77 405.98 274.32 403.84 284.27L403.04 287.59C402.98 287.85 402.86 288.1 402.7 288.32C402.29 288.87 401.65 289.2 400.98 289.2C400.42 289.2 399.82 288.93 399.44 288.52C399.04 288.08 398.85 287.55 398.8 286.86C397.97 286.54 397.24 286.17 397.04 286.06L245.16 213.17C244.68 213.01 241.96 212.15 238.56 212.15C231.88 212.15 227.09 215.31 224.33 221.55V288.07C224.33 288.4 223.95 318.49 217.76 343.49C224.74 349.23 265.58 382.9 268.15 385.01C268.69 385.4 270.57 386.97 270.87 390.04C271.1 392.37 271.56 402.8 269.43 408.49C269.37 409.79 268.97 413.7 266.43 413.7C264.88 413.7 264.28 412.41 264 411.24C258.66 409.39 233.02 400.7 208.41 392.37V398.9C208.86 399.93 209.94 402.55 210.44 405.14C212.59 404.67 215.5 404.08 216.66 403.85C216.75 403.83 216.83 403.82 216.92 403.82C216.96 403.82 217.03 403.82 217.07 403.82C217.52 403.82 218.67 403.94 219.67 405.05C220.91 406.42 221.35 408.66 221.01 411.89C221.01 411.94 221 411.98 220.99 412.03C220.61 414.23 219.34 415.18 218.29 415.35L208.93 417.31C208.75 417.35 208.56 417.37 208.37 417.37C208.33 417.37 208.29 417.37 208.25 417.37C208.12 417.79 207.96 418.19 207.78 418.54V432.58C207.78 434.59 205.44 435.03 204.54 435.03L204.58 434.99Z" fill="white"/>
<path d="M202.21 4.6001C213.8 4.6001 221.74 50.6101 221.74 70.6601V117.48C221.74 118.45 222.19 119.36 222.95 119.94L271.72 157.44C269.98 149.48 270.97 136.46 271.69 132.54C272.39 128.7 274.68 128.48 275.19 128.48C275.26 128.48 275.29 128.48 275.29 128.48H284.26H292.66C292.66 128.48 293.51 128.65 294.18 130.34C299.59 146.64 294.86 167.27 294.18 168.68C293.7 169.69 292.95 169.83 292.57 169.83C292.42 169.83 292.32 169.81 292.32 169.81H289.11V170.81L334.43 205.65C332.08 198.01 333.17 183.23 333.94 179C334.64 175.16 336.93 174.94 337.44 174.94C337.51 174.94 337.54 174.94 337.54 174.94H346.51H354.91C354.91 174.94 355.76 175.11 356.43 176.8C361.84 193.1 357.11 213.73 356.43 215.14C355.95 216.15 355.2 216.29 354.82 216.29C354.67 216.29 354.57 216.27 354.57 216.27H351.36V218.67L400.28 256.28C400.28 256.28 402.48 256.62 402.99 262.79C403.49 268.93 404.25 273.07 401.93 283.84L401.14 287.11C401.14 287.11 401.08 287.18 401.02 287.18C400.9 287.18 400.74 286.91 400.87 285.36C399.8 285.21 398.01 284.26 398.01 284.26L245.96 211.29C245.96 211.29 242.76 210.12 238.6 210.12C233.21 210.12 226.18 212.09 222.37 221.1V288.03C222.37 288.03 222.06 318.9 215.55 344.19C216.4 344.87 266.97 386.56 266.97 386.56C266.97 386.56 268.66 387.66 268.92 390.2C269.17 392.74 269.51 403.06 267.48 408.05C267.48 409.15 266.98 411.66 266.47 411.66C266.24 411.66 266 411.14 265.82 409.71C265 409.35 215.67 392.66 206.45 389.54V399.28C206.45 399.28 208.75 404.24 208.75 407.57C209.71 407.23 217.1 405.77 217.1 405.77C217.1 405.77 217.1 405.77 217.12 405.77C217.37 405.77 219.66 405.92 219.07 411.63C218.79 413.27 218 413.32 218 413.32L208.58 415.29C208.53 415.3 208.48 415.31 208.43 415.31C208.15 415.31 207.89 415.16 207.76 414.91L206.95 413.38C206.95 413.38 206.7 416.91 205.83 417.91V432.53C205.83 432.78 204.84 432.98 204.59 432.98C204.34 432.98 203.37 432.78 203.37 432.53V417.91C202.5 416.91 202.25 413.38 202.25 413.38L201.44 414.91C201.31 415.16 201.05 415.31 200.77 415.31C200.72 415.31 200.67 415.31 200.62 415.29L191.2 413.32C191.2 413.32 190.41 413.26 190.13 411.63C189.54 405.92 191.84 405.77 192.08 405.77C192.09 405.77 192.1 405.77 192.1 405.77C192.1 405.77 199.49 407.24 200.45 407.57C200.45 404.24 202.74 399.28 202.74 399.28V389.83C191.89 393.67 145.24 410.21 144.45 410.57C144.28 412 144.06 412.53 143.82 412.53C143.31 412.53 142.77 410.03 142.76 408.93C140.66 403.97 140.85 393.65 141.07 391.11C141.29 388.57 142.96 387.45 142.96 387.45C142.96 387.45 192.94 345.03 193.77 344.34C186.9 319.15 186.14 288.28 186.14 288.28C186.14 288.28 185.2 223.05 185.18 221.36C181.31 212.57 174.46 210.61 169.11 210.61C164.79 210.61 161.45 211.89 161.45 211.89L10.4399 287.05C10.4399 287.05 8.65989 288.02 7.58989 288.19C7.73989 289.74 7.58989 290.01 7.45989 290.01C7.39989 290.01 7.33989 289.94 7.33989 289.94L6.49989 286.68C4.01989 275.94 4.71989 271.79 5.13989 265.64C5.55989 259.46 7.74989 259.09 7.74989 259.09L56.1299 220.78L56.0999 218.38L52.8899 218.43C52.8899 218.43 52.7799 218.46 52.6199 218.46C52.2299 218.46 51.4999 218.31 51.0199 217.33C50.3199 215.93 45.2899 195.36 50.4699 178.99C51.1199 177.29 51.9699 177.1 51.9699 177.1L60.3699 176.98L69.3299 176.86C69.3299 176.86 69.3799 176.86 69.4599 176.86C70.0299 176.86 72.2499 177.1 72.9999 180.87C73.8299 185.09 75.1299 199.85 72.8899 207.52L117.7 172.03V171.03L114.47 171.08C114.47 171.08 114.36 171.11 114.2 171.11C113.81 171.11 113.08 170.96 112.6 169.98C111.9 168.58 106.87 148.01 112.05 131.64C112.7 129.94 113.55 129.75 113.55 129.75L121.95 129.63L130.91 129.51C130.91 129.51 130.96 129.51 131.04 129.51C131.61 129.51 133.83 129.75 134.58 133.52C135.35 137.44 136.53 150.44 134.9 158.42L183.13 120.23C183.89 119.63 184.32 118.71 184.31 117.75L183.64 70.9301C183.35 50.8901 190.63 4.6001 202.22 4.6001M202.21 0.600098C199.68 0.600098 197.31 1.7101 195.16 3.8901C184.64 14.5601 179.38 53.8101 179.63 70.9901L180.3 117.37L139.7 149.52C139.8 142.58 139.05 135.56 138.5 132.76C137.45 127.42 133.82 125.52 131.04 125.52C130.93 125.52 130.84 125.52 130.75 125.52L122.06 125.64C122.06 125.64 121.98 125.64 121.94 125.64C121.92 125.64 121.9 125.64 121.88 125.64L113.48 125.76C113.21 125.76 112.94 125.79 112.68 125.85C111.79 126.04 109.59 126.86 108.31 130.21C108.28 130.28 108.26 130.36 108.23 130.44C102.76 147.74 107.8 169.34 109.01 171.77C109.26 172.27 109.56 172.72 109.9 173.12L78.0999 198.3C78.3399 190.58 77.3999 182.58 76.9199 180.1C75.8699 174.76 72.2399 172.86 69.4599 172.86C69.3499 172.86 69.2599 172.86 69.1699 172.86L60.4799 172.98C60.4799 172.98 60.3999 172.98 60.3599 172.98C60.3399 172.98 60.3199 172.98 60.2999 172.98L51.8999 173.1C51.6299 173.1 51.3599 173.13 51.0999 173.19C50.2099 173.38 48.0099 174.2 46.7299 177.55C46.6999 177.62 46.6799 177.7 46.6499 177.78C41.1799 195.08 46.2199 216.68 47.4299 219.11C47.8599 219.97 48.4399 220.69 49.1199 221.23L5.72989 255.59C3.94989 256.46 1.58989 258.86 1.14989 265.37C1.10989 266 1.05989 266.62 1.01989 267.22C0.609891 272.67 0.259891 277.37 2.60989 287.58C2.60989 287.61 2.62989 287.64 2.62989 287.68L3.46989 290.94C3.59989 291.46 3.83989 291.95 4.16989 292.38C4.95989 293.4 6.18989 294.02 7.45989 294.02C8.60989 294.02 9.70989 293.53 10.4899 292.68C10.9499 292.18 11.2399 291.63 11.4099 291.06C11.7599 290.89 12.0599 290.74 12.2799 290.62L162.99 215.61C163.59 215.41 166.07 214.64 169.09 214.64C174.71 214.64 178.67 217.15 181.18 222.3L182.13 288.38C182.16 289.66 182.92 318.13 189.25 342.96C180.24 350.59 143.43 381.83 140.48 384.34C139.02 385.43 137.34 387.7 137.07 390.82C136.87 393.2 136.57 403.76 138.79 409.85C138.96 411.85 139.78 416.58 143.81 416.58C145.73 416.58 147.07 415.59 147.82 413.64C154.5 411.23 177.44 403.09 198.73 395.55V398.5C198.34 399.44 197.72 401.02 197.22 402.78C195.81 402.48 194.27 402.17 192.87 401.89C192.7 401.86 192.53 401.83 192.36 401.82C192.27 401.82 192.16 401.82 192.07 401.82C190.56 401.82 189.07 402.51 187.99 403.71C186.35 405.52 185.75 408.27 186.14 412.09C186.14 412.18 186.16 412.27 186.18 412.36C186.73 415.56 188.74 416.99 190.46 417.31L199.37 419.17V432.57C199.37 435.46 202.06 437.02 204.59 437.02C207.12 437.02 209.83 435.46 209.83 432.57V419.16L218.73 417.3C220.45 416.99 222.46 415.56 223.01 412.35C223.03 412.26 223.04 412.17 223.05 412.08C223.44 408.25 222.84 405.51 221.2 403.7C220.12 402.5 218.63 401.81 217.12 401.81C217.03 401.81 216.92 401.81 216.83 401.81C216.66 401.82 216.49 401.84 216.32 401.88C214.92 402.16 213.38 402.47 211.97 402.77C211.47 401 210.85 399.42 210.46 398.49V395.16C232.21 402.52 255.7 410.48 262.48 412.82C263.25 414.74 264.59 415.7 266.47 415.7C270.55 415.7 271.31 410.92 271.45 408.9C273.9 401.92 272.91 389.97 272.9 389.85C272.59 386.74 270.87 384.49 269.4 383.42C266.41 380.96 229.16 350.25 220.04 342.75C226.01 317.83 226.36 289.36 226.37 288.12V222C228.84 216.73 232.85 214.17 238.6 214.17C241.49 214.17 243.85 214.86 244.45 215.05L396.22 287.89C396.44 288 396.74 288.15 397.09 288.32C397.27 288.88 397.56 289.42 398.02 289.91C398.8 290.75 399.89 291.23 401.03 291.23C402.33 291.23 403.57 290.6 404.36 289.55C404.68 289.12 404.91 288.62 405.04 288.1L405.83 284.83C405.83 284.83 405.85 284.77 405.85 284.73C408.06 274.49 407.64 269.79 407.15 264.35C407.1 263.75 407.04 263.14 406.99 262.51C406.46 256 404.06 253.64 402.27 252.79L358.4 219.06C359.08 218.5 359.64 217.78 360.06 216.91C361.23 214.47 365.97 192.8 360.25 175.58C360.22 175.5 360.2 175.43 360.17 175.36C358.84 172.03 356.62 171.24 355.73 171.06C355.47 171.01 355.2 170.98 354.93 170.98H346.53C346.47 170.98 346.42 170.98 346.36 170.98H337.68C337.62 170.98 337.55 170.98 337.47 170.98C334.65 170.98 331.01 172.9 330.03 178.33C329.58 180.81 328.75 188.82 329.11 196.54L296.95 171.82C297.28 171.42 297.58 170.96 297.82 170.46C298.99 168.02 303.73 146.35 298.01 129.13C297.98 129.05 297.96 128.98 297.93 128.91C296.6 125.58 294.38 124.79 293.49 124.61C293.23 124.56 292.96 124.53 292.69 124.53H284.29C284.23 124.53 284.17 124.53 284.12 124.53H275.44C275.38 124.53 275.31 124.53 275.22 124.53C272.4 124.53 268.77 126.45 267.78 131.88C267.27 134.7 266.62 141.72 266.82 148.66L225.77 117.1V70.7201C225.77 59.5801 223.49 42.5101 220.24 29.2201C215.53 10.0001 209.64 0.660098 202.24 0.660098L202.21 0.600098Z" fill="black"/>
</g>
<defs>
<clipPath id="clip0_476_17">
<rect width="406.81" height="436.39" fill="white" transform="translate(0.719727 0.600098)"/>
</clipPath>
</defs>
</svg>
