<svg width="141" height="109" viewBox="0 0 141 109" fill="none" xmlns="http://www.w3.org/2000/svg">
<g clip-path="url(#clip0_5_2)">
<path d="M70.9937 104.88C71.0937 104.18 71.3037 101.72 71.3037 101.72C71.3237 101.5 71.5137 101.32 71.7537 101.32C75.2037 101.32 99.5237 101.35 100.424 101.32C101.394 101.28 101.154 101.17 101.234 100.49C101.314 99.8101 102.134 94.6701 101.694 92.6301C101.474 91.3101 100.804 91.4601 100.804 91.4601H73.7137C73.5737 91.4601 73.4637 91.3301 73.5037 91.1901C73.5037 91.1901 77.3937 78.0401 77.9237 65.8301C78.0637 62.5801 77.9837 56.8701 77.9637 55.7201C77.9637 55.6101 78.0537 55.5101 78.1737 55.5101C80.9337 55.5101 109.844 55.5401 111.334 55.5101C113.034 55.4701 115.274 55.2501 115.274 55.2501L129.844 53.2701C129.844 53.2701 129.854 53.2701 129.864 53.2701C130.054 53.2301 135.684 52.2201 136.044 52.1401C136.044 52.1401 136.054 52.1401 136.064 52.1401C136.464 52.1101 138.124 52.2101 138.784 52.2301C138.904 52.2301 138.994 52.1401 138.994 52.0301C139.034 51.0401 138.874 48.1701 138.494 44.2401C138.174 40.4901 135.664 39.5701 135.394 39.4801C135.374 39.4801 135.364 39.4801 135.344 39.4801L113.714 37.6401C113.434 37.6201 113.174 37.7701 113.064 38.0201L113.024 38.1101C112.924 38.3301 112.704 38.4801 112.454 38.4801H78.5237C78.1837 38.4801 77.9137 38.2101 77.9137 37.8801C77.9137 37.8801 77.8237 33.5901 77.7637 30.0901C77.4037 27.0901 77.0437 24.1101 76.6737 21.1101C75.9637 18.0301 75.2137 15.3401 74.5837 13.2701C74.8137 13.2401 74.8637 13.4101 74.9937 13.6301C74.9937 13.6301 75.4537 14.4101 75.7137 14.8701C75.8037 15.0301 76.0037 15.0901 76.1737 15.0301C77.1037 14.6701 77.6237 14.0601 77.7037 13.7601C77.7237 13.7001 77.7037 13.6301 77.6637 13.5801L75.8837 11.1301C75.5737 10.7001 75.0637 10.4401 74.5137 10.4401H73.8837C73.7537 10.4401 73.6437 10.3601 73.6037 10.2401C73.2737 9.26009 73.0637 8.72009 73.0537 8.70009C73.0237 8.64009 72.9937 8.57009 72.9337 8.56009C72.8937 8.55009 72.8637 8.52009 72.8537 8.48009C72.8237 8.35009 72.7537 8.03009 72.6537 7.61009C73.7537 7.64009 79.2337 7.81009 79.5737 7.81009C79.9537 7.81009 80.9237 7.67009 80.9237 7.02009C80.9237 6.37009 79.8537 6.30009 79.5137 6.30009C79.1837 6.30009 73.0437 6.58009 72.4037 6.61009C72.3837 6.54009 72.3637 6.46009 72.3437 6.39009C72.0337 5.24009 71.6337 3.90009 71.2237 3.10009C71.2237 3.09009 71.2137 3.08009 71.2037 3.06009C70.8137 1.97009 70.5037 2.00009 70.5037 2.00009C70.5037 2.00009 70.1937 1.97009 69.7937 3.02009C69.7937 3.03009 69.7837 3.04009 69.7737 3.06009C69.3437 3.91009 68.9037 5.37009 68.5937 6.57009C67.4137 6.52009 61.7137 6.27009 61.4037 6.27009C61.0637 6.27009 59.9937 6.33009 59.9937 6.99009C59.9937 7.65009 60.9637 7.78009 61.3437 7.78009C61.6937 7.78009 67.4437 7.60009 68.3437 7.58009C68.2437 8.00009 68.1737 8.32009 68.1437 8.45009C68.1437 8.49009 68.1037 8.52009 68.0637 8.53009C67.9937 8.55009 67.9737 8.61009 67.9437 8.67009C67.9437 8.69009 67.7237 9.23009 67.3937 10.2101C67.3537 10.3301 67.2437 10.4101 67.1137 10.4101C66.9537 10.4101 66.7237 10.4101 66.4837 10.4101C65.9437 10.4101 65.4337 10.6701 65.1137 11.1001L63.3337 13.5501C63.2937 13.6001 63.2837 13.6701 63.2937 13.7301C63.3737 14.0301 63.8837 14.6401 64.8237 15.0001C64.9937 15.0701 65.1937 15.0001 65.2837 14.8401C65.5437 14.3801 66.0037 13.6001 66.0037 13.6001C66.1237 13.3801 66.1837 13.2101 66.4137 13.2401C65.7837 15.3201 65.0237 18.0001 64.3237 21.0801C63.9637 24.0801 63.6037 27.0601 63.2337 30.0601C63.1737 33.5601 63.0837 37.8501 63.0837 37.8501C63.0837 38.1801 62.8137 38.4501 62.4737 38.4501H28.5437C28.2937 38.4501 28.0737 38.3101 27.9737 38.0801L27.9337 37.9901C27.8237 37.7401 27.5637 37.5901 27.2837 37.6101L5.65372 39.4501C5.65372 39.4501 5.62372 39.4501 5.60372 39.4501C5.33372 39.5401 2.82372 40.4601 2.50372 44.2101C2.12372 48.1601 1.97372 51.0301 2.00372 52.0201C2.00372 52.1301 2.10372 52.2201 2.21372 52.2201C2.88372 52.2001 4.53372 52.1001 4.93372 52.1301C4.93372 52.1301 4.94372 52.1301 4.95372 52.1301C5.31372 52.2101 10.9437 53.2201 11.1337 53.2601C11.1337 53.2601 11.1437 53.2601 11.1537 53.2601L25.7237 55.2401C25.7237 55.2401 27.9637 55.4701 29.6637 55.5001C31.1537 55.5301 60.0637 55.5001 62.8237 55.5001C62.9437 55.5001 63.0337 55.5901 63.0337 55.7101C63.0137 56.8701 62.9237 62.5701 63.0737 65.8201C63.6037 78.0301 67.4937 91.1801 67.4937 91.1801C67.5237 91.3201 67.4237 91.4501 67.2837 91.4501H40.1937C40.1937 91.4501 39.5237 91.3001 39.3037 92.6201C38.8637 94.6601 39.6937 99.8001 39.7637 100.48C39.8337 101.16 39.6137 101.27 40.5737 101.31C41.4737 101.35 65.7937 101.31 69.2437 101.31C69.4737 101.31 69.6637 101.48 69.6937 101.71C69.6937 101.71 69.9037 104.16 70.0037 104.87C70.2037 106.46 70.4937 106.37 70.4937 106.37C70.4937 106.37 70.7837 106.46 70.9837 104.87L70.9937 104.88Z" fill="white"/>
<path d="M70.5051 2C70.5051 2 70.8351 2.03 71.215 3.02C71.215 3.03 71.2251 3.04 71.2351 3.06C71.6451 3.86 72.055 5.2 72.355 6.35C72.375 6.43 72.3951 6.5 72.4151 6.57C73.0651 6.54 79.205 6.26 79.525 6.26C79.865 6.26 80.9351 6.32 80.9351 6.98C80.9351 7.64 79.965 7.77 79.5851 7.77C79.2451 7.77 73.7551 7.6 72.6651 7.57C72.7651 7.99 72.8351 8.31 72.8651 8.44C72.8651 8.48 72.9051 8.51 72.9451 8.52C73.0151 8.54 73.035 8.6 73.065 8.66C73.065 8.68 73.285 9.22 73.6151 10.2C73.6551 10.32 73.7651 10.4 73.8951 10.4H74.525C75.065 10.4 75.5751 10.66 75.8951 11.09L77.675 13.54C77.715 13.59 77.7251 13.66 77.715 13.72C77.635 14.02 77.1251 14.63 76.1851 14.99C76.1451 15.01 76.0951 15.01 76.0551 15.01C75.9251 15.01 75.7951 14.94 75.7351 14.83C75.4751 14.37 75.0151 13.59 75.0151 13.59C74.9051 13.39 74.8451 13.23 74.6651 13.23C74.6451 13.23 74.635 13.23 74.6151 13.23C75.245 15.31 76.0051 17.99 76.705 21.07C77.065 24.07 77.425 27.05 77.7951 30.05C77.855 33.55 77.9451 37.84 77.9451 37.84C77.9451 38.17 78.2151 38.44 78.5551 38.44H112.485C112.735 38.44 112.955 38.3 113.055 38.07L113.095 37.98C113.195 37.75 113.435 37.6 113.685 37.6C113.705 37.6 113.725 37.6 113.745 37.6L135.375 39.44C135.375 39.44 135.405 39.44 135.425 39.44C135.695 39.53 138.205 40.45 138.525 44.2C138.915 48.13 139.065 51 139.025 51.99C139.025 52.1 138.935 52.19 138.815 52.19C138.235 52.17 136.885 52.09 136.295 52.09C136.215 52.09 136.145 52.09 136.095 52.09C136.095 52.09 136.085 52.09 136.075 52.09C135.715 52.17 130.085 53.18 129.895 53.22C129.895 53.22 129.885 53.22 129.875 53.22L115.305 55.2C115.305 55.2 113.065 55.43 111.365 55.46C110.835 55.47 106.855 55.48 101.805 55.48C92.6451 55.48 79.985 55.47 78.205 55.47C78.085 55.47 77.995 55.56 77.995 55.68C78.015 56.84 78.105 62.54 77.955 65.79C77.425 78 73.535 91.15 73.535 91.15C73.5051 91.29 73.605 91.42 73.745 91.42H100.835C100.835 91.42 100.855 91.42 100.895 91.42C101.065 91.42 101.545 91.52 101.725 92.6C102.165 94.64 101.335 99.78 101.265 100.46C101.185 101.14 101.415 101.25 100.455 101.29C100.135 101.3 96.7951 101.31 92.4851 101.31C84.7851 101.31 73.995 101.3 71.785 101.29C71.555 101.29 71.365 101.46 71.345 101.69C71.345 101.69 71.135 104.14 71.035 104.85C70.855 106.27 70.6051 106.35 70.5551 106.35C70.5051 106.35 70.245 106.27 70.0751 104.85C69.9751 104.15 69.7651 101.69 69.7651 101.69C69.7451 101.47 69.5551 101.29 69.3251 101.29C67.1151 101.29 56.315 101.31 48.625 101.31C44.315 101.31 40.975 101.31 40.655 101.29C39.685 101.25 39.925 101.14 39.845 100.46C39.765 99.78 38.945 94.64 39.385 92.6C39.565 91.52 40.045 91.42 40.215 91.42C40.255 91.42 40.275 91.42 40.275 91.42H67.3651C67.5051 91.42 67.6151 91.29 67.5751 91.15C67.5751 91.15 63.685 78 63.155 65.79C63.015 62.54 63.095 56.83 63.115 55.68C63.115 55.57 63.025 55.47 62.905 55.47C61.125 55.47 48.465 55.48 39.305 55.48C34.265 55.48 30.275 55.48 29.745 55.46C28.045 55.42 25.805 55.2 25.805 55.2L11.235 53.22C11.235 53.22 11.225 53.22 11.215 53.22C11.025 53.18 5.39505 52.17 5.03505 52.09C5.03505 52.09 5.02505 52.09 5.01505 52.09C4.96505 52.09 4.89505 52.09 4.81505 52.09C4.22505 52.09 2.87505 52.17 2.29505 52.19C2.18505 52.19 2.09505 52.1 2.08505 51.99C2.04505 51 2.20505 48.13 2.58505 44.2C2.90505 40.45 5.41505 39.53 5.68505 39.44C5.70505 39.44 5.71505 39.44 5.73505 39.44L27.365 37.6C27.365 37.6 27.405 37.6 27.425 37.6C27.675 37.6 27.915 37.75 28.015 37.98L28.055 38.07C28.155 38.29 28.375 38.44 28.625 38.44H62.555C62.895 38.44 63.165 38.17 63.165 37.84C63.165 37.84 63.255 33.55 63.315 30.05C63.675 27.05 64.035 24.07 64.4051 21.07C65.1151 17.99 65.8651 15.3 66.495 13.23C66.4751 13.23 66.4551 13.23 66.4451 13.23C66.2651 13.23 66.205 13.39 66.095 13.59C66.095 13.59 65.6351 14.37 65.3751 14.83C65.3051 14.95 65.1851 15.01 65.0551 15.01C65.0151 15.01 64.965 15.01 64.925 14.99C63.995 14.63 63.475 14.02 63.395 13.72C63.375 13.66 63.395 13.59 63.435 13.54L65.215 11.09C65.525 10.66 66.035 10.4 66.5851 10.4H67.215C67.345 10.4 67.455 10.32 67.495 10.2C67.8251 9.22 68.035 8.68 68.0451 8.66C68.0751 8.6 68.1051 8.53 68.1651 8.52C68.2051 8.51 68.235 8.48 68.245 8.44C68.275 8.31 68.3451 7.99 68.4451 7.57C67.5551 7.6 61.805 7.77 61.445 7.77C61.065 7.77 60.095 7.63 60.095 6.98C60.095 6.33 61.165 6.26 61.505 6.26C61.815 6.26 67.5151 6.51 68.6951 6.56C69.0051 5.37 69.4351 3.91 69.8751 3.05C69.8751 3.04 69.885 3.03 69.8951 3.01C70.275 2.02 70.5751 1.99 70.605 1.99M70.5051 0H70.345C69.315 0.07 68.515 0.82 67.955 2.22C67.675 2.78 67.3951 3.54 67.095 4.49C64.375 4.37 61.655 4.26 61.405 4.26C59.045 4.26 57.995 5.63 57.995 6.98C57.995 8.6 59.405 9.77 61.345 9.77C61.495 9.77 62.465 9.74 63.665 9.71C63.605 9.78 63.555 9.85 63.505 9.92L61.725 12.37C61.325 12.91 61.205 13.59 61.375 14.24C61.605 15.11 62.365 15.95 63.395 16.52C63.025 17.88 62.685 19.26 62.375 20.63L62.355 20.73V20.83L61.575 27.15L61.255 29.82V29.92L61.245 30.02C61.205 32.29 61.155 34.9 61.115 36.45H29.275C28.785 35.93 28.085 35.62 27.345 35.62C27.275 35.62 27.195 35.62 27.125 35.62L5.49505 37.46H5.38505L5.27505 37.49L5.15505 37.51L4.98505 37.56C3.12505 38.17 0.845047 40.24 0.525047 44.05C0.165047 47.67 -0.0349527 50.83 0.00504729 52.09C0.0550473 53.28 1.01505 54.21 2.21505 54.21H2.28505C2.51505 54.21 2.86505 54.19 3.23505 54.17C3.75505 54.14 4.40505 54.11 4.73505 54.11C5.18505 54.2 6.33505 54.4 8.52505 54.8C9.64505 55 10.615 55.18 10.755 55.21H10.815L10.915 55.24L25.475 57.22H25.505H25.535C25.625 57.22 27.875 57.46 29.635 57.49C30.125 57.5 33.265 57.51 39.235 57.51C46.815 57.51 56.795 57.51 61.015 57.5C60.985 59.79 60.975 63.5 61.075 65.91C61.485 75.31 63.8051 85.1 64.9451 89.45H40.285C40.235 89.45 40.175 89.45 40.125 89.45C39.055 89.45 37.695 90.19 37.335 92.25C36.945 94.13 37.335 97.52 37.715 100.27C37.745 100.48 37.765 100.63 37.775 100.71C37.775 100.78 37.775 100.83 37.775 100.88C37.805 101.94 38.305 103.23 40.485 103.31C40.625 103.31 40.955 103.33 48.535 103.33C55.145 103.33 64.035 103.33 67.815 103.32C67.875 104.02 67.955 104.78 68.0051 105.16C68.095 105.87 68.3651 108.04 70.065 108.34L70.1651 108.37H70.4351C70.4351 108.37 70.455 108.37 70.465 108.37H70.775L70.885 108.34C72.585 108.04 72.855 105.87 72.955 105.12C73.0051 104.77 73.0851 104.01 73.1451 103.32C76.925 103.32 85.815 103.33 92.425 103.33C100.005 103.33 100.335 103.32 100.475 103.31C102.655 103.22 103.155 101.94 103.185 100.88C103.185 100.83 103.185 100.78 103.185 100.71C103.185 100.63 103.215 100.47 103.245 100.27C103.625 97.52 104.015 94.14 103.625 92.25C103.265 90.18 101.895 89.45 100.835 89.45C100.785 89.45 100.725 89.45 100.675 89.45H76.0151C77.1551 85.1 79.475 75.31 79.885 65.91C79.995 63.5 79.9751 59.79 79.9451 57.5C84.1651 57.5 94.1451 57.51 101.725 57.51C107.695 57.51 110.835 57.51 111.325 57.49C113.085 57.45 115.335 57.23 115.425 57.22H115.455H115.485L130.055 55.24H130.135L130.235 55.21C130.335 55.19 131.305 55.02 132.435 54.81C134.625 54.41 135.775 54.2 136.225 54.12C136.545 54.12 137.195 54.15 137.725 54.18C138.095 54.2 138.445 54.21 138.675 54.22H138.705H138.745C139.935 54.22 140.905 53.29 140.955 52.1C141.005 50.84 140.805 47.67 140.445 44.03C140.025 39.04 136.395 37.7 135.985 37.57L135.865 37.53L135.745 37.51L135.695 37.5L135.585 37.48H135.475L113.845 35.63C113.765 35.63 113.695 35.63 113.615 35.63C112.875 35.63 112.175 35.94 111.685 36.46H79.845C79.815 34.91 79.7551 32.31 79.715 30.03V29.93L79.705 29.83L79.2351 25.91L78.6251 20.84V20.74L78.5851 20.64C78.2651 19.27 77.925 17.89 77.565 16.53C78.595 15.96 79.355 15.11 79.5851 14.25C79.7551 13.6 79.6251 12.92 79.2351 12.38L77.455 9.93C77.405 9.86 77.3451 9.79 77.2951 9.72C78.4751 9.75 79.3951 9.78 79.5451 9.78C81.4851 9.78 82.8951 8.6 82.8951 6.99C82.8951 5.64 81.8451 4.27 79.4851 4.27C79.2151 4.27 76.315 4.4 73.8651 4.51C73.5751 3.55 73.285 2.79 73.0051 2.23C72.4451 0.83 71.635 0.08 70.6151 0.02H70.5751H70.465L70.5051 0Z" fill="#231F20"/>
</g>
<defs>
<clipPath id="clip0_5_2">
<rect width="141" height="108.38" fill="white"/>
</clipPath>
</defs>
</svg>
