<svg width="482" height="483" viewBox="0 0 482 483" fill="none" xmlns="http://www.w3.org/2000/svg">
<g clip-path="url(#clip0_428_12)">
<path d="M240.75 480.55C239.02 480.55 237.77 479.06 237.68 476.91L237.35 473.65C236.27 473.56 235.36 472.84 235.03 471.79L233.17 465.88H232.14C230.89 465.88 229.79 464.99 229.53 463.77L227.15 452.74L141.9 479.81C141.72 479.86 140.88 480.11 140 480.11C138.55 480.11 137.78 479.46 137.39 478.92C137.24 478.71 137.13 478.48 137.07 478.23C135.18 470.37 135.85 460.52 136.54 455.93C137.13 452.05 138.97 450.36 139.18 450.17C139.94 449.56 206.13 396.64 215.42 389.08C208.35 356.88 209.09 312.65 209.39 302.06L183.61 305.09C183.38 312.77 182.12 314.38 180.18 314.38C178.24 314.38 177.08 312.89 176.79 305.89L154.16 308.55C153.9 315.99 152.65 317.55 150.75 317.55C149.05 317.55 147.87 316.32 147.45 310.7L129.87 318.78C129.64 326.52 128.38 328.13 126.44 328.13C124.5 328.13 123.58 326.38 123.19 321.85L97.47 333.68C97.23 341.36 95.98 342.95 94.05 342.95C92.12 342.95 91.2 341.22 90.8 336.75L67.78 347.34C67.48 353.12 66.53 355.3 64.41 355.3C62.51 355.3 61.69 353.45 61.3 350.32C26.84 366.17 7.51998 375.06 6.81998 375.4C6.14998 375.73 5.52998 375.89 4.92998 375.89C4.13998 375.89 3.41998 375.59 2.87998 375.06C2.03998 374.21 1.97998 373.1 1.97998 372.78V354.32C1.97998 348.7 6.80998 345.2 7.54998 344.7C27.88 328.84 123.54 254.23 136.41 244.35C136.31 244.06 136.23 243.77 136.15 243.49H133.2C131.63 243.49 130.24 242.42 129.83 240.9C125.29 223.96 127.93 201.99 128.81 198.8C129.77 195.33 131.75 194.96 132.55 194.96C132.63 194.96 132.71 194.96 132.78 194.96H154.37C155.53 194.96 157.19 195.79 158.03 198.13C160.88 207.17 160.41 219.22 159.84 225.81L208.8 187.66C209.16 187.38 209.37 186.94 209.37 186.49V89.5099C209.37 75.5599 213.42 54.3799 219.68 35.5399C223.77 23.2399 231.94 2.60986 240.73 2.60986C249.52 2.60986 257.69 23.2399 261.78 35.5399C268.04 54.3799 272.09 75.5599 272.09 89.5099V186.49C272.09 186.94 272.3 187.38 272.66 187.66L321.62 225.81C321.05 219.23 320.57 207.2 323.4 198.21C324.27 195.79 325.92 194.96 327.09 194.96H348.68C348.75 194.96 348.83 194.96 348.91 194.96C349.71 194.96 351.69 195.34 352.65 198.8C353.54 201.99 356.18 223.96 351.63 240.9C351.22 242.43 349.84 243.49 348.26 243.49H345.31C345.24 243.77 345.15 244.06 345.05 244.35C357.91 254.23 453.58 328.84 473.91 344.7C474.65 345.2 479.48 348.7 479.48 354.32V372.79C479.48 373.1 479.42 374.21 478.58 375.06C478.05 375.6 477.32 375.89 476.53 375.89C475.93 375.89 475.32 375.73 474.64 375.4C473.94 375.06 454.62 366.16 420.16 350.32C419.76 353.45 418.95 355.3 417.05 355.3C414.93 355.3 413.98 353.12 413.68 347.34L390.66 336.75C390.26 341.22 389.3 342.95 387.41 342.95C385.52 342.95 384.23 341.36 383.99 333.68L358.27 321.85C357.88 326.37 356.92 328.13 355.02 328.13C353.12 328.13 351.83 326.53 351.59 318.78L334.01 310.7C333.59 316.32 332.42 317.55 330.71 317.55C328.8 317.55 327.55 315.99 327.3 308.55L304.67 305.89C304.37 312.9 303.14 314.38 301.28 314.38C299.42 314.38 298.08 312.77 297.85 305.09L272.07 302.06C272.37 312.65 273.11 356.88 266.04 389.08C275.33 396.64 341.52 449.56 342.22 450.12C342.49 450.35 344.34 452.05 344.92 455.93C345.61 460.52 346.29 470.38 344.39 478.23C344.33 478.48 344.22 478.72 344.07 478.92C343.68 479.46 342.92 480.11 341.46 480.11C340.58 480.11 339.74 479.87 339.58 479.82L254.31 452.75L251.93 463.78C251.67 465 250.57 465.89 249.32 465.89H248.29L246.43 471.8C246.1 472.85 245.18 473.57 244.11 473.66L243.78 476.91C243.71 479.07 242.46 480.56 240.71 480.56L240.75 480.55Z" fill="white"/>
<path d="M240.75 4.58983C252.68 4.58983 270.11 60.4498 270.11 89.4898V186.47C270.11 187.54 270.61 188.56 271.45 189.22L324.14 230.28C324.14 230.28 321.4 211.24 325.33 198.79C326 196.94 327.11 196.94 327.11 196.94H348.82C348.82 196.94 348.86 196.94 348.93 196.94C349.24 196.94 350.14 197.14 350.75 199.32C351.47 201.93 354.26 223.47 349.73 240.36C349.55 241.01 348.97 241.47 348.3 241.47H343.72C343.72 241.47 343.35 243.91 342.61 244.95C343.8 245.69 472.78 346.3 472.78 346.3C472.78 346.3 477.52 349.36 477.52 354.3V372.77C477.52 372.77 477.52 373.87 476.57 373.87C476.31 373.87 475.98 373.79 475.57 373.58C474.74 373.17 448.43 361.07 418.46 347.28C418.24 351.27 417.67 353.27 417.1 353.27C416.47 353.27 415.85 350.85 415.68 346C406.82 341.93 397.71 337.74 388.89 333.68C388.72 338.51 388.1 340.92 387.47 340.92C386.79 340.92 386.11 338.07 386.02 332.36C375.31 327.44 365.14 322.76 356.5 318.79C356.34 323.67 355.71 326.11 355.08 326.11C354.4 326.11 353.71 323.23 353.63 317.47C343.2 312.68 335.39 309.09 332.22 307.63C332.09 312.9 331.44 315.54 330.78 315.54C330.09 315.54 329.4 312.61 329.33 306.76L302.8 303.65C302.72 309.47 302.03 312.38 301.35 312.38C300.67 312.38 299.95 309.35 299.89 303.3L270.07 299.8C270.07 299.8 272.29 352.99 263.9 389.84C267.65 393 341.05 451.68 341.05 451.68C341.05 451.68 342.53 452.96 343.03 456.22C343.52 459.48 344.51 469.56 342.54 477.75C342.35 478.02 341.96 478.1 341.56 478.1C340.93 478.1 340.27 477.9 340.27 477.9L252.92 450.17L250.07 463.35C250 463.66 249.73 463.88 249.41 463.88H247.26C247.05 463.88 246.87 464.01 246.81 464.21L244.62 471.19C244.53 471.47 244.27 471.66 243.98 471.66H242.83C242.59 471.66 242.38 471.84 242.36 472.09L241.88 476.78C241.88 476.78 241.85 478.56 240.81 478.56C239.77 478.56 239.74 476.78 239.74 476.78L239.26 472.09C239.24 471.85 239.03 471.66 238.79 471.66H237.64C237.35 471.66 237.09 471.47 237 471.19L234.81 464.21C234.75 464.01 234.57 463.88 234.36 463.88H232.21C231.89 463.88 231.62 463.66 231.55 463.35L228.7 450.17L141.35 477.9C141.35 477.9 140.69 478.1 140.06 478.1C139.66 478.1 139.27 478.02 139.08 477.75C137.1 469.55 138.09 459.48 138.59 456.22C139.08 452.96 140.57 451.68 140.57 451.68C140.57 451.68 213.96 393 217.72 389.84C209.32 353 211.55 299.8 211.55 299.8L181.73 303.3C181.67 309.35 180.97 312.38 180.27 312.38C179.57 312.38 178.89 309.47 178.82 303.65L152.29 306.76C152.22 312.62 151.53 315.54 150.84 315.54C150.15 315.54 149.53 312.9 149.4 307.63C146.23 309.09 138.42 312.68 127.99 317.47C127.91 323.23 127.22 326.11 126.54 326.11C125.91 326.11 125.28 323.67 125.12 318.79C116.48 322.76 106.3 327.44 95.6 332.36C95.51 338.07 94.83 340.92 94.15 340.92C93.52 340.92 92.9 338.5 92.73 333.68C83.91 337.74 74.79 341.93 65.94 346C65.77 350.85 65.15 353.27 64.52 353.27C63.95 353.27 63.38 351.27 63.16 347.28C33.19 361.06 6.89 373.17 6.05 373.58C5.63 373.79 5.3 373.87 5.05 373.87C4.1 373.87 4.1 372.77 4.1 372.77V354.3C4.1 349.36 8.84 346.3 8.84 346.3C8.84 346.3 137.82 245.69 139.01 244.95C138.27 243.91 137.9 241.47 137.9 241.47H133.32C132.64 241.47 132.06 241.01 131.89 240.36C127.36 223.47 130.14 201.93 130.87 199.32C131.48 197.14 132.38 196.94 132.69 196.94C132.76 196.94 132.8 196.94 132.8 196.94H154.51C154.51 196.94 155.62 196.94 156.29 198.79C160.22 211.24 157.48 230.28 157.48 230.28L210.17 189.22C211.02 188.56 211.51 187.55 211.51 186.47V89.4898C211.51 60.4498 228.94 4.58983 240.87 4.58983M240.75 0.589834C233.09 0.589834 225.37 12.1298 217.8 34.8898C211.47 53.9198 207.39 75.3498 207.39 89.4898V186.22L162.16 221.47C162.5 214.55 162.35 205.08 159.99 197.59C159.97 197.54 159.96 197.49 159.94 197.44C158.75 194.12 156.21 192.94 154.4 192.94H132.89C132.79 192.94 132.69 192.94 132.59 192.94C131.61 192.94 128.29 193.32 126.92 198.25C125.97 201.67 123.21 223.8 127.93 241.4C128.45 243.36 130.01 244.84 131.91 245.31C113.56 259.5 47.89 310.7 6.41 343.06C5.21 343.86 0 347.79 0 354.29V372.76C0 373.25 0.09 375.04 1.48 376.44C2.39 377.36 3.62 377.86 4.95 377.86C5.85 377.86 6.78 377.63 7.72 377.16C8.31 376.87 17.99 372.41 59.85 353.15C60.52 355.4 61.82 357.26 64.42 357.26C68.58 357.26 69.46 352.7 69.73 348.61L89.17 339.67C89.76 342.53 91.05 344.92 94.06 344.92C98.26 344.92 99.2 340.3 99.44 334.95L120.09 325.46L121.56 324.79C122.14 327.69 123.43 330.11 126.46 330.11C130.67 330.11 131.61 325.45 131.84 320.06L145.75 313.66C146.3 316.83 147.58 319.53 150.75 319.53C154.73 319.53 155.79 315.35 156.09 310.32L174.91 308.11C175.29 312.7 176.45 316.37 180.18 316.37C184.21 316.37 185.26 312.05 185.54 306.86L207.32 304.3C206.99 317.84 206.69 357.6 213.2 388.28C201.14 398.04 138.67 447.99 137.99 448.53C137.95 448.56 137.91 448.6 137.87 448.63C137.44 449.01 135.24 451.11 134.56 455.6C134.36 456.9 132.7 468.63 135.12 478.67C135.24 479.17 135.45 479.64 135.75 480.06C136.29 480.82 137.56 482.09 139.98 482.09C141.12 482.09 142.15 481.8 142.44 481.71L225.64 455.3L227.56 464.18C227.99 466.17 229.68 467.65 231.68 467.84L233.1 472.37C233.49 473.62 234.36 474.6 235.47 475.16L235.66 477.04C235.82 480.23 237.93 482.53 240.73 482.53C243.53 482.53 245.66 480.22 245.8 477.02L245.99 475.16C247.1 474.61 247.97 473.62 248.36 472.37L249.78 467.84C251.77 467.65 253.47 466.17 253.9 464.18L255.82 455.3L338.97 481.7C339.3 481.8 340.34 482.09 341.47 482.09C343.89 482.09 345.16 480.82 345.7 480.06C346 479.64 346.21 479.17 346.33 478.67C348.75 468.63 347.09 456.9 346.89 455.6C346.21 451.11 344.01 449.01 343.58 448.63C343.54 448.6 343.5 448.56 343.46 448.53C342.78 447.99 280.31 398.04 268.25 388.28C274.76 357.6 274.46 317.84 274.13 304.3L295.91 306.86C296.19 312.05 297.24 316.37 301.27 316.37C305 316.37 306.16 312.71 306.54 308.11L325.36 310.32C325.66 315.35 326.72 319.53 330.7 319.53C333.87 319.53 335.16 316.83 335.7 313.66L349.61 320.06C349.85 325.44 350.78 330.11 354.99 330.11C358.02 330.11 359.31 327.69 359.89 324.79L382.01 334.96C382.25 340.3 383.19 344.93 387.39 344.93C390.4 344.93 391.69 342.55 392.28 339.68L411.72 348.62C411.99 352.71 412.87 357.27 417.03 357.27C419.63 357.27 420.93 355.41 421.6 353.16C463.47 372.41 473.14 376.88 473.74 377.17C474.67 377.63 475.6 377.86 476.5 377.86C477.82 377.86 479.06 377.35 479.97 376.44C481.36 375.04 481.45 373.25 481.45 372.73V354.29C481.45 347.79 476.24 343.86 475.06 343.05C433.58 310.69 367.91 259.49 349.56 245.3C351.46 244.83 353.01 243.35 353.54 241.39C358.26 223.78 355.5 201.65 354.55 198.24C353.18 193.31 349.86 192.93 348.88 192.93C348.78 192.93 348.68 192.93 348.58 192.93H327.07C325.26 192.93 322.72 194.11 321.53 197.43C321.51 197.48 321.49 197.53 321.48 197.58C319.12 205.07 318.97 214.54 319.31 221.46L274.08 186.21V89.4798C274.08 75.3398 269.99 53.8998 263.67 34.8798C256.1 12.1198 248.38 0.579834 240.72 0.579834L240.75 0.589834Z" fill="black"/>
</g>
<defs>
<clipPath id="clip0_428_12">
<rect width="481.5" height="481.96" fill="white" transform="translate(0 0.589844)"/>
</clipPath>
</defs>
</svg>
