<svg width="204" height="157" viewBox="0 0 204 157" fill="none" xmlns="http://www.w3.org/2000/svg">
<g clip-path="url(#clip0_299_42)">
<path d="M101.901 155.75C100.911 155.75 100.181 154.93 99.3805 150.75C99.2505 150.07 99.1805 149.37 99.1805 148.66V145.87C97.6705 145.51 97.0805 144.36 97.0605 143.52C96.8305 143.59 96.5905 143.63 96.3405 143.63C96.3205 143.63 96.2205 143.63 96.2005 143.63L64.7605 141.73C63.7805 141.67 62.6605 140.98 62.2805 139.18C61.1205 133.55 61.3305 129.72 62.9105 127.79C63.7305 126.78 64.6705 126.62 64.9905 126.59C66.0005 126.44 86.3405 123.48 91.7805 122.6C89.1105 113.34 88.2505 97.8398 88.2205 97.1498V84.8798L4.73053 76.1298C4.30053 76.0998 3.16053 75.7898 2.23053 73.5698C2.21053 73.5198 2.19053 73.4798 2.18053 73.4298C0.570529 67.0298 0.600529 62.6998 2.27053 60.5598C3.26053 59.2998 4.52053 59.1598 5.02053 59.1598C5.13053 59.1598 5.22053 59.1598 5.29053 59.1698L68.7805 56.5598C68.7305 55.4898 68.7305 53.6898 68.9805 51.5198C68.7905 51.4298 68.6205 51.2998 68.4605 51.1598C67.3705 50.1298 66.9305 49.1598 67.1405 48.2598C67.4005 47.1498 68.5005 46.7898 68.6305 46.7498C68.7205 46.7198 68.8205 46.7098 68.9205 46.7098H69.9305C70.0105 46.4298 70.1005 46.1498 70.1805 45.8798C62.6305 45.6598 62.6305 44.9998 62.6305 44.1098C62.6305 43.1698 62.6305 42.4798 71.6305 42.3098C72.0705 41.4398 72.5505 40.6098 73.0705 39.8398C73.3905 39.3598 73.9305 39.0798 74.5105 39.0798C75.0605 39.0798 75.5705 39.3398 75.8905 39.7798C76.4205 40.5098 76.8805 41.3398 77.2905 42.2898C85.8905 42.4198 85.8905 43.2398 85.8905 44.1098C85.8905 44.9698 85.8905 45.7298 78.4405 45.9098C78.5005 46.1698 78.5605 46.4398 78.6105 46.7098H79.6705C79.7705 46.7098 79.8705 46.7198 79.9605 46.7498C80.0805 46.7898 81.1805 47.1498 81.4505 48.2598C81.6605 49.1598 81.2205 50.1298 80.1305 51.1598C79.8605 51.4198 79.5305 51.5898 79.1805 51.6798C79.2605 53.3898 79.2205 54.8398 79.1805 55.7598H88.6105V32.1898C88.6105 17.7098 97.9305 1.81982 101.891 1.81982C105.851 1.81982 115.171 17.6998 115.171 32.1898V55.7598H124.601C124.551 54.8298 124.521 53.3798 124.601 51.6798C124.251 51.5898 123.921 51.4098 123.651 51.1598C122.561 50.1298 122.121 49.1598 122.331 48.2598C122.591 47.1498 123.691 46.7898 123.821 46.7498C123.911 46.7198 124.011 46.7098 124.111 46.7098H125.171C125.221 46.4398 125.281 46.1698 125.341 45.9098C117.881 45.7298 117.881 44.9698 117.891 44.1098C117.891 43.2398 117.891 42.4198 126.491 42.2898C126.901 41.3398 127.361 40.5098 127.881 39.7798C128.201 39.3398 128.711 39.0798 129.261 39.0798C129.841 39.0798 130.371 39.3698 130.701 39.8398C131.221 40.5998 131.701 41.4298 132.141 42.3098C141.141 42.4798 141.141 43.1698 141.141 44.1098C141.141 44.9998 141.141 45.6598 133.591 45.8798C133.681 46.1598 133.761 46.4298 133.841 46.7098H134.851C134.951 46.7098 135.051 46.7198 135.141 46.7498C135.261 46.7898 136.361 47.1498 136.631 48.2598C136.841 49.1598 136.401 50.1298 135.311 51.1598C135.151 51.3098 134.981 51.4298 134.791 51.5198C135.051 53.6998 135.041 55.4898 134.991 56.5598L198.481 59.1698C198.551 59.1698 198.641 59.1598 198.751 59.1598C199.251 59.1598 200.511 59.2998 201.501 60.5598C203.171 62.6998 203.201 67.0298 201.591 73.4298C201.581 73.4798 201.561 73.5298 201.541 73.5698C200.611 75.7898 199.481 76.0998 199.041 76.1298L115.591 84.8398L115.561 97.0898C115.521 97.8198 114.671 113.33 112.001 122.59C117.441 123.47 137.771 126.43 138.791 126.58C139.121 126.61 140.051 126.77 140.871 127.78C142.451 129.71 142.661 133.55 141.501 139.17C141.101 141.06 139.891 141.73 138.981 141.73L107.581 143.62C107.581 143.62 107.461 143.62 107.441 143.62C107.191 143.62 106.951 143.58 106.721 143.51C106.701 144.35 106.111 145.5 104.601 145.86V148.65C104.601 149.36 104.531 150.06 104.401 150.74C103.601 154.92 102.871 155.74 101.881 155.74L101.901 155.75Z" fill="white"/>
<path d="M101.9 2.83984C104.8 2.83984 114.18 17.5198 114.18 32.2098V56.4998C114.18 56.6498 114.3 56.7798 114.46 56.7798H125.68C125.68 56.7798 125.42 54.1298 125.66 50.7598H125.14C124.84 50.7598 124.55 50.6398 124.34 50.4398C122.11 48.3298 124.11 47.7198 124.11 47.7198H126.01C126.16 46.7898 126.36 45.8598 126.62 44.9398C116.13 44.7798 116.32 43.3998 127.17 43.2898C127.58 42.2398 128.07 41.2398 128.7 40.3698C128.84 40.1798 129.05 40.0798 129.27 40.0798C129.5 40.0798 129.73 40.1898 129.88 40.3998C130.52 41.3398 131.06 42.3198 131.52 43.2998C142.8 43.4798 143.03 44.6998 132.21 44.9198C132.57 45.8598 132.86 46.7998 133.1 47.7198H134.88C134.88 47.7198 136.89 48.3298 134.65 50.4398C134.43 50.6398 134.14 50.7598 133.85 50.7598H133.71C134.28 54.6298 133.96 57.5298 133.96 57.5298L198.56 60.1798C198.56 60.1798 198.64 60.1698 198.79 60.1698C199.8 60.1698 203.74 60.9198 200.66 73.1898C199.84 75.1398 199.01 75.1398 199.01 75.1398L115.54 83.8598C115.01 83.9098 114.62 84.3598 114.62 84.8898V97.1098C114.62 97.1098 113.7 114.36 110.77 123.41C113.45 123.91 138.74 127.6 138.74 127.6C138.74 127.6 142.93 127.6 140.58 138.99C140.22 140.68 139.21 140.75 139.04 140.75C139.02 140.75 139.02 140.75 139.02 140.75L107.58 142.65C107.58 142.65 107.52 142.65 107.5 142.65C106.96 142.65 106.46 142.34 106.23 141.84L105.77 140.86V143.48C105.77 143.48 105.77 144.99 103.65 144.99V148.67C103.65 149.31 103.59 149.95 103.47 150.58C103.18 152.09 102.57 154.77 101.93 154.77C101.29 154.77 100.68 152.09 100.39 150.58C100.27 149.95 100.21 149.31 100.21 148.67V144.99C98.0902 144.99 98.0902 143.48 98.0902 143.48V140.86L97.6302 141.84C97.4002 142.33 96.9002 142.65 96.3602 142.65C96.3302 142.65 96.3002 142.65 96.2802 142.65L64.8402 140.75C64.8402 140.75 64.8402 140.75 64.8202 140.75C64.6502 140.75 63.6402 140.68 63.2802 138.99C60.9302 127.6 65.1202 127.6 65.1202 127.6C65.1202 127.6 90.4102 123.92 93.0902 123.41C90.1602 114.37 89.2402 97.1098 89.2402 97.1098V84.8898C89.2402 84.3598 88.8402 83.9198 88.3202 83.8598L4.81021 75.1398C4.81021 75.1398 3.97021 75.1398 3.16021 73.1898C0.0702131 60.9198 4.02021 60.1698 5.03021 60.1698C5.17021 60.1698 5.26021 60.1798 5.26021 60.1798L69.8602 57.5298C69.8602 57.5298 69.5402 54.6298 70.1102 50.7598H69.9702C69.6702 50.7598 69.3802 50.6398 69.1702 50.4398C66.9402 48.3298 68.9402 47.7198 68.9402 47.7198H70.7202C70.9602 46.7998 71.2502 45.8598 71.6102 44.9198C60.7902 44.6998 61.0202 43.4798 72.3002 43.2998C72.7602 42.3198 73.3002 41.3498 73.9402 40.3998C74.0802 40.1898 74.3202 40.0798 74.5502 40.0798C74.7702 40.0798 74.9802 40.1698 75.1202 40.3698C75.7502 41.2398 76.2402 42.2298 76.6502 43.2898C87.5002 43.3998 87.6902 44.7898 77.2002 44.9398C77.4602 45.8498 77.6602 46.7898 77.8102 47.7198H79.7102C79.7102 47.7198 81.7202 48.3298 79.4802 50.4398C79.2602 50.6398 78.9702 50.7598 78.6802 50.7598H78.1602C78.4002 54.1198 78.1402 56.7798 78.1402 56.7798H89.3602C89.5102 56.7798 89.6402 56.6598 89.6402 56.4998V32.2098C89.6402 17.5298 99.0202 2.83984 101.92 2.83984M101.9 0.839844C96.9302 0.839844 87.6202 17.4598 87.6202 32.2098V54.7798H80.2302C80.2502 54.0898 80.2502 53.2598 80.2302 52.3498C80.4502 52.2298 80.6502 52.0698 80.8402 51.8998C82.2002 50.6098 82.7402 49.3098 82.4402 48.0398C82.3202 47.5298 82.0702 47.0998 81.7602 46.7598C82.2902 46.7198 82.7802 46.6798 83.2102 46.6298C84.6002 46.4698 86.9202 46.1998 86.9102 44.1198C86.9102 42.0198 84.5002 41.7598 83.0602 41.5998C81.7702 41.4598 80.0202 41.3598 77.9602 41.3198C77.5902 40.5398 77.1802 39.8498 76.7302 39.2098C76.2202 38.5098 75.4102 38.0898 74.5402 38.0898C73.6302 38.0898 72.7802 38.5398 72.2702 39.2898C71.8402 39.9298 71.4302 40.6198 71.0402 41.3298C68.8202 41.3798 66.9602 41.4798 65.6102 41.6198C63.9402 41.7898 61.6602 42.0198 61.6502 44.1098C61.6502 46.1798 63.9202 46.4298 65.4202 46.5898C65.8502 46.6398 66.3502 46.6798 66.8902 46.7198C66.5702 47.0698 66.3102 47.4998 66.1802 48.0398C65.8802 49.3098 66.4202 50.6098 67.7802 51.8898C67.8302 51.9298 67.8702 51.9798 67.9202 52.0198C67.7802 53.4198 67.7502 54.6598 67.7502 55.6098L5.30021 58.1698C5.22021 58.1698 5.12021 58.1598 5.01021 58.1598C3.65021 58.1598 2.36021 58.8098 1.48021 59.9498C-0.419787 62.3798 -0.499787 66.8698 1.21021 73.6798C1.23021 73.7798 1.27021 73.8698 1.31021 73.9698C2.42021 76.6198 3.91021 77.0798 4.64021 77.1398L87.2002 85.7598V97.1098C87.2002 97.1098 87.2002 97.1798 87.2002 97.2198C87.2402 97.8798 88.0302 112.36 90.5002 121.8C83.9802 122.82 66.3102 125.4 64.8802 125.6C64.0802 125.66 62.9802 126.1 62.1102 127.16C60.3102 129.37 60.0402 133.37 61.2702 139.38C61.7902 141.84 63.4602 142.72 64.7402 142.74L96.1102 144.63C96.1602 144.63 96.2102 144.63 96.2602 144.63C96.5602 145.39 97.1602 146.15 98.1602 146.59V148.65C98.1602 149.42 98.2302 150.19 98.3802 150.93C98.9902 154.11 99.6802 156.74 101.88 156.74C104.08 156.74 104.77 154.11 105.38 150.93C105.52 150.19 105.6 149.42 105.6 148.65V146.59C106.6 146.15 107.2 145.39 107.5 144.63C107.55 144.63 107.6 144.63 107.65 144.63L139.02 142.74C140.3 142.73 141.97 141.85 142.49 139.4C143.73 133.37 143.46 129.38 141.66 127.17C140.79 126.1 139.7 125.67 138.89 125.61C137.46 125.4 119.79 122.82 113.27 121.81C115.74 112.36 116.54 97.8898 116.57 97.2298C116.57 97.1898 116.57 97.1598 116.57 97.1198V85.7698L199.13 77.1498C199.86 77.0898 201.35 76.6298 202.46 73.9798C202.5 73.8898 202.53 73.7898 202.56 73.6898C204.27 66.8798 204.18 62.3998 202.29 59.9598C201.41 58.8198 200.12 58.1698 198.76 58.1698C198.65 58.1698 198.56 58.1698 198.47 58.1798L136.02 55.6198C136.02 54.6598 135.99 53.4298 135.85 52.0298C135.9 51.9898 135.95 51.9498 135.99 51.8998C137.35 50.6098 137.89 49.3098 137.59 48.0498C137.46 47.5198 137.2 47.0798 136.88 46.7298C137.42 46.6898 137.92 46.6498 138.35 46.5998C139.85 46.4398 142.13 46.1898 142.12 44.1198C142.12 42.0298 139.83 41.7998 138.16 41.6298C136.81 41.4898 134.94 41.3898 132.73 41.3398C132.35 40.6198 131.94 39.9398 131.5 39.2998C130.99 38.5498 130.14 38.0998 129.23 38.0998C128.32 38.0998 127.54 38.5198 127.04 39.2198C126.58 39.8498 126.18 40.5498 125.81 41.3298C123.74 41.3698 122 41.4698 120.71 41.6098C119.27 41.7698 116.86 42.0298 116.86 44.1298C116.86 46.2098 119.18 46.4798 120.56 46.6398C120.99 46.6898 121.48 46.7298 122.01 46.7698C121.7 47.1098 121.45 47.5398 121.33 48.0498C121.03 49.3198 121.57 50.6198 122.93 51.8998C123.12 52.0798 123.32 52.2298 123.54 52.3498C123.51 53.2598 123.52 54.0898 123.54 54.7798H116.15V32.2098C116.15 17.4598 106.83 0.839844 101.87 0.839844L101.9 0.839844Z" fill="black"/>
</g>
<defs>
<clipPath id="clip0_299_42">
<rect width="203.8" height="155.91" fill="white" transform="translate(0 0.839844)"/>
</clipPath>
</defs>
</svg>
