<svg width="516" height="616" viewBox="0 0 516 616" fill="none" xmlns="http://www.w3.org/2000/svg">
<g clip-path="url(#clip0_475_106)">
<path d="M258 617.861C257.441 617.861 256.882 617.582 256.51 617.209C255.671 616.186 255.206 614.79 254.647 612.278H253.343C252.505 612.278 251.76 611.719 251.573 610.882C249.524 603.903 248.127 597.482 247.102 591.341H245.426C244.588 591.341 243.843 590.783 243.656 590.038C242.166 585.107 241.421 582.036 241.607 577.197L221.302 584.269L176.036 600.553C175.85 600.646 175.663 600.646 175.384 600.646C175.012 600.646 174.639 600.553 174.36 600.274C173.894 599.902 173.521 599.344 173.521 598.785V569.009C173.521 568.45 173.801 567.985 174.173 567.613L236.857 513.922C235.087 506.571 233.783 500.523 232.852 495.87C228.102 471.956 225.866 433.619 225.866 433.247V433.154V364.296L164.859 376.765L155.266 381.51C155.079 384.023 154.614 388.954 153.962 392.118C153.31 395.468 151.447 395.84 150.702 395.84C149.957 395.84 148.094 395.468 147.442 392.118C147.069 390.257 146.79 387.931 146.604 385.791L105.715 405.89C105.435 408.588 105.063 412.682 104.504 415.381C103.852 418.731 101.989 419.103 101.244 419.103C100.499 419.103 98.6361 418.731 97.9841 415.381C97.7047 413.985 97.4252 412.217 97.239 409.984L6.42669 454.556L2.51478 461.069C2.14221 461.627 1.58337 462 0.931383 462C0.838242 462 0.65196 462 0.55882 462C-0.186307 461.814 -0.838292 461.255 -0.931433 460.418C-1.67656 455.207 -1.95598 452.229 -1.86284 447.111C-1.86284 447.018 -1.86284 446.925 -1.86284 446.832C-0.55887 439.109 0.65196 434.55 3.2599 426.826V418.266C3.2599 417.707 3.53932 417.149 3.91189 416.777L165.604 286.226C164.859 283.713 164.207 280.456 163.555 276.176H161.879C161.134 276.176 160.388 275.711 160.109 274.966C156.663 265.196 155.266 258.403 157.687 237.56C157.687 237.467 157.687 237.467 157.687 237.374C158.153 235.327 158.526 234.396 159.271 232.814C159.55 232.163 160.202 231.698 160.947 231.698H187.213C187.958 231.698 188.61 232.163 188.889 232.814C189.635 234.396 190.007 235.42 190.473 237.374C190.473 237.467 190.473 237.467 190.473 237.56C192.149 252.076 191.963 259.613 190.659 266.127L225.773 237.746V106.544C225.773 106.171 226.798 75.0921 230.989 54.993C231.175 53.8764 231.455 52.8529 231.641 51.8293C233.131 44.5713 234.342 38.3369 237.136 30.9858C237.975 28.6595 238.813 26.3332 239.558 24.0069C243.563 12.3755 247.382 1.30242 257.441 -1.76828C257.627 -1.86133 257.814 -1.86133 258 -1.86133C258.186 -1.86133 258.373 -1.86133 258.559 -1.76828C268.618 1.39547 272.437 12.3755 276.442 24.0069C277.187 26.3332 278.025 28.6595 278.863 30.9858C281.658 38.3369 282.869 44.5713 284.359 51.8293C284.545 52.8529 284.824 53.8764 285.011 54.993C289.202 75.1852 290.134 106.171 290.134 106.45V237.746L325.248 266.127C323.85 259.613 323.757 252.076 325.434 237.56C325.434 237.467 325.434 237.467 325.434 237.374C325.9 235.42 326.272 234.396 327.017 232.814C327.297 232.163 327.949 231.698 328.694 231.698H354.96C355.705 231.698 356.357 232.163 356.636 232.814C357.381 234.396 357.754 235.42 358.219 237.374C358.219 237.467 358.219 237.467 358.219 237.56C360.641 258.403 359.244 265.289 355.798 274.966C355.518 275.711 354.866 276.176 354.028 276.176H352.352C351.7 280.456 351.048 283.713 350.302 286.226L511.995 416.777C512.461 417.149 512.647 417.707 512.647 418.266V426.826C515.162 434.55 516.466 439.109 517.77 446.832C517.77 446.925 517.77 447.018 517.77 447.111C517.863 452.229 517.583 455.207 516.838 460.418C516.745 461.162 516.093 461.814 515.348 462C515.255 462 515.069 462 514.975 462C514.323 462 513.765 461.627 513.392 461.069L509.48 454.556L418.668 409.984C418.388 412.217 418.202 413.985 417.923 415.381C417.271 418.731 415.501 419.103 414.663 419.103C413.918 419.103 412.055 418.731 411.403 415.381C410.844 412.589 410.471 408.588 410.192 405.89L369.303 385.791C369.024 387.931 368.744 390.35 368.465 392.118C367.813 395.468 366.043 395.84 365.205 395.84C364.46 395.84 362.597 395.468 361.945 392.118C361.293 388.954 360.827 384.023 360.641 381.51L351.048 376.765L290.04 364.203V433.061V433.154C290.04 433.526 287.712 471.863 283.055 495.777C282.123 500.43 280.819 506.478 279.05 513.829L341.827 567.613C342.199 567.985 342.479 568.45 342.479 569.009V598.785C342.479 599.437 342.199 599.995 341.734 600.274C341.454 600.46 341.082 600.646 340.616 600.646C340.43 600.646 340.15 600.646 339.964 600.553L294.697 584.269L274.393 577.197C274.579 582.036 273.927 585.107 272.344 590.038C272.064 590.783 271.412 591.341 270.574 591.341H268.897C267.873 597.482 266.476 603.903 264.427 610.882C264.24 611.719 263.495 612.278 262.657 612.278H261.353C260.794 614.79 260.328 616.093 259.49 617.209C259.118 617.582 258.559 617.861 258 617.861Z" fill="white"/>
<path d="M258 -0.000113726C268.991 3.44279 271.971 17.9588 277.094 31.6373C280.168 39.9189 281.378 46.5256 283.148 55.3654C287.339 75.5576 288.271 106.544 288.271 106.544V238.677L328.508 271.152C325.9 263.149 325.155 255.891 327.204 237.746C327.576 235.885 327.949 234.955 328.601 233.559H341.64H341.827H354.866C355.518 235.048 355.891 235.885 356.264 237.746C358.592 258.217 357.288 264.731 353.935 274.315H350.582C349.744 280.084 348.905 284.086 347.974 286.97L510.691 418.266V427.106C513.299 435.015 514.603 439.481 515.814 447.112C515.907 452.136 515.627 455.021 514.882 460.139L510.691 453.16L416.991 407.1C416.712 409.612 416.432 412.776 415.967 415.009C415.687 416.498 415.129 417.242 414.57 417.242C414.011 417.242 413.452 416.498 413.173 415.009C412.614 411.938 412.148 407.193 411.869 404.587L367.627 382.813C367.347 385.419 366.975 389.141 366.509 391.653C366.23 393.142 365.671 393.886 365.112 393.886C364.553 393.886 363.994 393.142 363.715 391.653C362.97 388.024 362.504 382.162 362.318 380.208L351.513 374.904L288.084 361.877V433.061C288.084 433.061 285.849 471.305 281.099 495.405C279.981 501.081 278.305 508.246 276.814 514.481L340.336 568.916V598.692L295.349 582.501L272.53 574.592V575.988C272.903 581.292 272.251 584.176 270.667 589.48H267.314C266.29 596.273 264.706 603.252 262.657 610.417H259.863C259.118 613.581 258.745 615.069 258 616C257.255 615.069 256.882 613.581 256.137 610.417H253.343C251.294 603.252 249.71 596.273 248.686 589.48H245.426C243.749 584.176 243.191 581.292 243.563 575.988V574.592L220.744 582.501L175.477 598.785V569.009L238.999 514.574C237.509 508.339 235.832 501.174 234.715 495.498C229.965 471.398 227.729 433.154 227.729 433.154V361.97L164.3 374.997L153.496 380.301C153.31 382.255 152.844 388.117 152.099 391.746C151.819 393.235 151.261 393.979 150.702 393.979C150.143 393.979 149.584 393.235 149.305 391.746C148.839 389.234 148.466 385.512 148.187 382.906L103.945 404.68C103.759 407.193 103.293 411.938 102.641 415.102C102.362 416.591 101.803 417.335 101.244 417.335C100.685 417.335 100.126 416.591 99.8469 415.102C99.3812 412.869 99.1018 409.705 98.8224 407.193L5.12274 453.16L0.931407 460.139C0.18628 455.021 -0.093142 452.136 -1.19209e-06 447.112C1.30397 439.481 2.5148 435.015 5.12274 427.106V418.266L167.84 286.97C166.908 284.086 166.07 280.084 165.232 274.315H161.879C158.432 264.731 157.129 258.217 159.55 237.746C159.923 235.885 160.295 234.955 160.947 233.559H173.987H174.173H187.213C187.865 235.048 188.238 235.885 188.61 237.746C190.659 255.891 189.914 263.056 187.306 271.152L227.543 238.677V106.544C227.543 106.544 228.474 75.5576 232.666 55.3654C234.435 46.5256 235.646 39.9189 238.72 31.6373C244.029 17.9588 247.009 3.44279 258 -0.000113726ZM333.071 274.781C333.071 274.594 333.071 274.501 332.978 274.315H332.513L333.071 274.781ZM182.929 274.781L183.487 274.315H183.022C183.022 274.501 183.022 274.594 182.929 274.781ZM258 -3.72217C257.627 -3.72217 257.255 -3.62912 256.882 -3.53607C245.985 -0.0931649 241.793 11.8174 237.788 23.4488C237.043 25.6821 236.205 28.1014 235.367 30.3346C232.573 37.8718 231.269 44.1993 229.778 51.4573C229.592 52.4809 229.406 53.5044 229.126 54.621C224.935 74.9062 224.004 105.148 223.91 106.451V106.544V236.909L193.267 261.66C193.919 255.891 193.733 248.633 192.429 237.374C192.429 237.281 192.429 237.095 192.336 237.002C191.87 234.862 191.404 233.745 190.659 232.07C190.1 230.767 188.703 229.93 187.306 229.93H174.266H174.08H161.04C159.55 229.93 158.246 230.767 157.687 232.07C156.942 233.745 156.477 234.862 156.011 237.002C156.011 237.095 155.918 237.281 155.918 237.374C153.496 258.59 154.893 265.662 158.432 275.618C158.991 277.107 160.388 278.13 161.972 278.13H162.065C162.531 281.108 163.09 283.62 163.555 285.668L2.79422 415.381C1.95596 416.126 1.39711 417.149 1.39711 418.266V426.547C-1.11769 434.178 -2.42166 438.83 -3.72563 446.553C-3.72563 446.739 -3.72563 446.926 -3.81877 447.112C-3.91191 452.416 -3.63249 455.486 -2.88737 460.79C-2.70108 462.372 -1.49025 463.582 0.0931399 463.861C0.372562 463.954 0.558844 463.954 0.838266 463.954C2.14224 463.954 3.35307 463.303 4.00505 462.186L7.63754 456.138L95.5625 412.962C95.7487 414.078 95.8419 415.009 96.0282 415.846C96.9596 420.685 100.126 421.057 101.058 421.057C101.989 421.057 105.156 420.685 106.087 415.846C106.553 413.334 106.926 409.891 107.205 407.193L144.834 388.675C145.02 390.071 145.206 391.374 145.393 392.584C146.324 397.422 149.491 397.794 150.422 397.794C151.354 397.794 154.521 397.422 155.452 392.584C156.011 389.699 156.477 385.605 156.663 382.813L165.139 378.626L223.631 366.622V433.247C223.631 433.34 223.631 433.433 223.631 433.433C223.724 435.015 225.96 472.236 230.71 496.243C231.548 500.709 232.852 506.385 234.435 513.271L172.683 566.217C171.845 566.962 171.379 567.985 171.379 569.009V598.785C171.379 599.995 171.938 601.112 172.962 601.856C173.614 602.321 174.36 602.507 175.105 602.507C175.57 602.507 175.943 602.414 176.409 602.321L221.675 586.037L239.465 579.896C239.558 583.618 240.303 586.503 241.607 590.597C242.073 592.179 243.563 593.202 245.147 593.202H245.24C246.264 598.971 247.661 604.927 249.524 611.44C249.99 613.022 251.387 614.046 252.97 614.139C253.436 615.907 253.995 617.21 254.833 618.326C255.578 619.164 256.603 619.722 257.721 619.722C258.838 619.722 259.863 619.257 260.608 618.326C261.539 617.21 262.005 615.907 262.471 614.139C264.054 614.046 265.451 613.022 265.917 611.44C267.78 604.927 269.177 598.971 270.201 593.202H270.295C271.971 593.202 273.368 592.179 273.834 590.597C275.138 586.503 275.79 583.525 275.976 579.896L293.859 586.037L339.033 602.321C339.405 602.507 339.871 602.507 340.336 602.507C341.082 602.507 341.827 602.321 342.479 601.856C343.503 601.205 344.062 599.995 344.062 598.785V569.009C344.062 567.892 343.596 566.869 342.758 566.217L281.006 513.271C282.589 506.385 283.893 500.709 284.731 496.243C289.482 472.236 291.717 434.922 291.81 433.433C291.81 433.34 291.81 433.247 291.81 433.247V366.622L350.303 378.626L358.778 382.813C359.058 385.605 359.43 389.699 359.989 392.584C360.921 397.422 364.087 397.794 365.019 397.794C365.95 397.794 369.117 397.422 370.048 392.584C370.235 391.467 370.421 390.071 370.607 388.675L408.236 407.193C408.516 409.891 408.888 413.334 409.354 415.846C410.285 420.685 413.452 421.057 414.383 421.057C415.315 421.057 418.482 420.685 419.413 415.846C419.599 415.009 419.692 414.078 419.879 412.962L507.804 456.138L511.436 462.186C512.088 463.303 513.299 463.954 514.603 463.954C514.882 463.954 515.069 463.954 515.348 463.861C516.931 463.582 518.049 462.279 518.328 460.79C519.074 455.486 519.446 452.416 519.26 447.112C519.26 446.926 519.26 446.739 519.167 446.553C517.863 438.83 516.559 434.178 514.044 426.547V418.266C514.044 417.149 513.578 416.033 512.647 415.381L352.445 285.574C353.004 283.527 353.469 281.015 353.935 278.037H354.028C355.612 278.037 357.009 277.014 357.568 275.525C361.107 265.568 362.597 258.497 360.082 237.281C360.082 237.188 360.082 237.002 359.989 236.909C359.523 234.768 359.058 233.652 358.313 231.977C357.661 230.674 356.357 229.837 354.96 229.837H341.92H341.734H328.694C327.204 229.837 325.9 230.674 325.341 231.977C324.596 233.652 324.13 234.768 323.664 236.909C323.664 237.002 323.571 237.188 323.571 237.281C322.267 248.54 322.081 255.798 322.733 261.567L292.09 236.816V106.544V106.451C292.09 105.148 291.065 74.9062 286.874 54.621C286.687 53.5044 286.408 52.4809 286.222 51.4573C284.731 44.1062 283.427 37.8718 280.633 30.3346C279.795 28.1014 278.957 25.6821 278.212 23.4488C274.207 11.8174 270.108 -0.0931649 259.118 -3.53607C258.745 -3.62912 258.373 -3.72217 258 -3.72217Z" fill="black"/>
</g>
<defs>
<clipPath id="clip0_475_106">
<rect width="516" height="616" fill="white"/>
</clipPath>
</defs>
</svg>
