<svg width="328" height="450" viewBox="0 0 328 450" fill="none" xmlns="http://www.w3.org/2000/svg">
<g clip-path="url(#clip0_475_26)">
<path d="M226.881 451.711C226.706 451.711 226.53 451.711 226.355 451.625L168.122 432.205C167.946 433.489 167.771 434.601 167.508 435.798C166.894 439.392 165.929 441.359 164.614 441.787C164.438 441.873 164.175 441.873 164 441.873C163.825 441.873 163.561 441.873 163.386 441.787C162.071 441.359 161.106 439.392 160.492 435.798C160.316 434.686 160.141 433.489 159.878 432.205L101.733 451.625C101.557 451.711 101.382 451.711 101.206 451.711C100.856 451.711 100.505 451.625 100.154 451.369C99.7154 451.027 99.4523 450.513 99.4523 450V442.3C99.4523 442.129 99.4523 441.958 99.54 441.787C100.154 439.905 100.768 438.793 102.259 437.595L155.493 397.129C154.09 390.029 153.125 385.238 151.459 378.479C149.003 375.314 147.337 373.346 145.32 371.464C145.144 372.405 144.969 373.346 144.706 374.201C144.618 374.629 144.53 375.057 144.443 375.485C143.653 379.335 141.636 383.441 141.549 383.612C141.285 384.211 140.672 384.553 139.97 384.553C139.882 384.553 139.795 384.553 139.619 384.553C138.83 384.382 138.216 383.783 138.216 383.013C138.128 381.73 138.041 380.789 137.953 379.762C137.953 379.249 137.865 378.65 137.865 378.137H134.62C134.62 378.736 134.533 379.249 134.533 379.762C134.445 380.789 134.445 381.73 134.269 383.013C134.182 383.783 133.568 384.382 132.866 384.553C132.779 384.553 132.691 384.553 132.515 384.553C131.814 384.553 131.2 384.211 130.937 383.612C130.849 383.441 128.832 379.335 128.043 375.485C127.955 375.057 127.867 374.629 127.78 374.201C127.078 371.122 126.289 367.528 127.078 364.278L125.762 353.84C125.762 353.755 125.762 353.669 125.762 353.669V315.342C125.762 315.171 125.762 315 125.85 314.829C125.938 314.658 126.376 313.203 126.903 312.348C127.341 311.663 127.955 310.893 127.955 310.893C128.306 310.466 128.832 310.209 129.358 310.209H143.215C143.741 310.209 144.267 310.466 144.618 310.893C144.618 310.893 144.881 311.15 145.057 311.492V264.011H113.572L13.2427 284.202L0.613818 289.249C0.438417 289.335 0.175315 289.42 -0.0877863 289.42C-0.438589 289.42 -0.789391 289.335 -1.05249 289.163C-1.5787 288.821 -1.8418 288.308 -1.8418 287.709V278.298C-1.8418 278.127 -1.8418 277.956 -1.7541 277.871C-0.964792 275.133 0.175315 273.679 3.06943 272.139L145.057 197.281V40.2091V40.1236C145.057 39.8669 145.583 33.1084 146.372 28.8308C148.389 18.2224 150.143 9.06843 157.335 1.45436C160.229 -1.53994 163.737 -1.62549 163.912 -1.62549C164.088 -1.62549 167.596 -1.53994 170.49 1.45436C177.769 9.06843 179.435 18.2224 181.452 28.8308C182.242 33.1939 182.768 39.8669 182.768 40.1236V40.2091V197.196L324.843 272.053C327.737 273.679 328.877 275.048 329.666 277.785C329.666 277.956 329.754 278.042 329.754 278.213V287.624C329.754 288.222 329.491 288.736 328.965 289.078C328.702 289.249 328.351 289.335 328 289.335C327.737 289.335 327.561 289.335 327.298 289.163L314.669 284.116L214.34 263.669H182.856V311.15C183.119 310.808 183.294 310.551 183.294 310.551C183.645 310.124 184.171 309.867 184.697 309.867H198.554C199.08 309.867 199.606 310.124 199.957 310.551C199.957 310.551 200.571 311.321 201.01 312.006C201.536 312.861 202.062 314.316 202.062 314.487C202.15 314.658 202.15 314.829 202.15 315V353.327C202.15 353.413 202.15 353.498 202.15 353.498L200.834 363.935C201.623 367.272 200.834 370.779 200.133 373.859C200.045 374.287 199.957 374.715 199.869 375.143C199.08 378.992 197.063 383.099 196.975 383.27C196.712 383.869 196.098 384.211 195.397 384.211C195.309 384.211 195.221 384.211 195.046 384.211C194.257 384.04 193.643 383.441 193.643 382.671C193.555 381.388 193.467 380.447 193.38 379.42C193.38 378.907 193.292 378.308 193.292 377.795H190.047C190.047 378.393 189.959 378.907 189.959 379.42C189.872 380.447 189.872 381.388 189.696 382.671C189.608 383.441 188.995 384.04 188.293 384.211C188.205 384.211 188.118 384.211 187.942 384.211C187.241 384.211 186.627 383.869 186.364 383.27C186.276 383.099 184.259 378.992 183.469 375.143C183.382 374.715 183.294 374.287 183.206 373.859C183.031 373.004 182.768 372.063 182.592 371.122C180.663 373.004 178.997 374.971 176.453 378.137C174.787 384.895 173.91 389.686 172.419 396.787L225.653 437.253C227.232 438.451 227.758 439.563 228.46 441.445C228.548 441.616 228.548 441.787 228.548 441.958V449.658C228.548 450.171 228.284 450.77 227.846 451.027C227.583 451.625 227.232 451.711 226.881 451.711Z" fill="white"/>
<path d="M164 0.000178337C164 0.000178337 166.894 0.000178337 169.262 2.56672C176.015 9.75303 177.769 18.2226 179.786 29.0876C180.575 33.3652 181.102 40.2093 181.102 40.2093V198.223L323.966 273.593C326.509 274.962 327.298 276.074 327.912 278.299V287.709L315.196 282.576L214.515 262.044H181.102V323.726C181.803 323.299 182.154 322.956 182.856 322.015V315.171C182.856 315.171 183.294 313.802 183.82 313.033C184.171 312.434 184.785 311.749 184.785 311.749H191.713H198.642C198.642 311.749 199.168 312.434 199.606 313.033C200.045 313.802 200.571 315.171 200.571 315.171V353.498L199.168 364.278C200.133 367.7 198.992 371.635 198.203 375.057C197.414 378.736 195.397 382.842 195.397 382.842C195.134 380.361 195.134 378.821 194.958 376.34H191.713H188.468C188.205 378.736 188.205 380.276 188.03 382.842C188.03 382.842 186.013 378.821 185.223 375.057C184.697 372.833 184.083 370.266 183.996 367.785C180.488 370.865 178.471 373.175 174.963 377.624C173.209 384.981 172.244 389.943 170.665 397.728L224.776 438.793C226.004 439.734 226.443 440.59 226.969 442.215V449.915L166.631 429.896C166.368 431.778 166.105 433.66 165.754 435.456C164.965 439.82 164 440.162 164 440.162C164 440.162 163.035 439.82 162.246 435.456C161.895 433.66 161.632 431.778 161.369 429.896L101.119 450V442.301C101.733 440.675 102.083 439.82 103.311 438.879L157.422 397.814C155.844 390.029 154.879 384.981 153.125 377.709C149.529 373.175 147.6 370.951 144.092 367.871C144.004 370.352 143.303 372.833 142.864 375.143C142.075 378.821 140.058 382.928 140.058 382.928C139.795 380.447 139.795 378.907 139.619 376.426H136.374H133.129C132.866 378.821 132.866 380.361 132.691 382.928C132.691 382.928 130.674 378.907 129.884 375.143C129.183 371.721 128.043 367.785 128.92 364.363L127.517 353.584V315.257C127.517 315.257 127.955 313.888 128.481 313.118C128.832 312.519 129.446 311.835 129.446 311.835H136.374H143.303C143.303 311.835 143.829 312.519 144.267 313.118C144.706 313.888 145.232 315.257 145.232 315.257V322.101C145.934 323.042 146.284 323.384 146.986 323.812V262.129H113.572L12.8919 282.662L0.175366 287.795V278.384C0.789269 276.16 1.57857 275.048 4.12189 273.679L146.986 198.308V40.2093C146.986 40.2093 147.512 33.3652 148.302 29.0876C150.406 18.2226 152.073 9.66748 158.826 2.56672C161.106 0.000178337 164 0.000178337 164 0.000178337ZM164 -3.42188C163.474 -3.42188 159.44 -3.25077 156.107 0.256833C148.565 8.21311 146.723 17.6238 144.706 28.4888C143.829 32.9374 143.39 39.696 143.303 40.0382C143.303 40.1238 143.303 40.2093 143.303 40.2949V196.255L2.28018 270.599C2.28018 270.599 2.28018 270.599 2.19248 270.599C-1.05244 272.396 -2.54335 274.192 -3.42036 277.358C-3.50806 277.614 -3.50806 277.956 -3.50806 278.213V287.624C-3.50806 288.736 -2.89415 289.848 -1.92945 290.447C-1.31554 290.789 -0.701639 291.046 -3.50475e-05 291.046C0.438468 291.046 0.87697 290.96 1.31547 290.789L13.7689 285.742L113.748 265.295H143.303V308.156H143.215H136.287H129.358C128.306 308.156 127.253 308.669 126.64 309.439C126.552 309.525 125.938 310.295 125.499 311.065C124.886 312.091 124.359 313.546 124.272 313.888C124.184 314.23 124.096 314.572 124.096 314.915V353.242C124.096 353.413 124.096 353.498 124.096 353.669L125.412 363.85C124.622 367.443 125.499 371.036 126.201 374.287C126.289 374.715 126.376 375.143 126.464 375.485C127.341 379.506 129.446 383.869 129.534 384.04C130.148 385.238 131.375 386.008 132.691 386.008C132.866 386.008 133.129 386.008 133.305 385.922C134.883 385.666 136.023 384.382 136.199 382.842C136.287 381.73 136.374 380.875 136.374 380.019C136.462 380.875 136.462 381.816 136.55 382.842C136.725 384.382 137.865 385.666 139.444 385.922C139.619 385.922 139.882 386.008 140.058 386.008C141.373 386.008 142.601 385.238 143.215 384.04C143.303 383.869 145.407 379.591 146.284 375.485C146.372 375.228 146.372 374.972 146.46 374.715C147.512 375.913 148.565 377.196 149.88 378.907C151.371 385.152 152.336 389.686 153.564 396.103L101.206 435.884C99.3647 437.339 98.5754 438.793 97.8738 440.932C97.7861 441.274 97.6984 441.616 97.6984 442.044V449.744C97.6984 450.856 98.2246 451.882 99.1893 452.567C99.8032 452.994 100.505 453.166 101.206 453.166C101.557 453.166 101.996 453.08 102.346 452.994L158.563 434.173C158.65 434.686 158.738 435.2 158.826 435.713C159.615 440.076 160.843 442.301 162.86 443.071C163.211 443.242 163.649 443.242 164.088 443.242C164.526 443.242 164.877 443.156 165.315 443.071C167.333 442.386 168.56 440.076 169.35 435.713C169.437 435.2 169.525 434.686 169.613 434.173L225.829 452.994C226.18 453.08 226.618 453.166 226.969 453.166C227.671 453.166 228.372 452.909 228.986 452.567C229.951 451.882 230.477 450.856 230.477 449.744V442.044C230.477 441.702 230.389 441.274 230.302 440.932C229.6 438.793 228.811 437.339 226.969 435.884L174.612 396.103C175.927 389.686 176.804 385.152 178.295 378.907C179.611 377.196 180.751 375.913 181.715 374.715C181.803 374.972 181.803 375.228 181.891 375.485C182.768 379.506 184.873 383.869 184.96 384.04C185.574 385.238 186.802 386.008 188.118 386.008C188.293 386.008 188.556 386.008 188.732 385.922C190.31 385.666 191.45 384.382 191.626 382.842C191.713 381.73 191.801 380.875 191.801 380.019C191.889 380.875 191.889 381.816 191.976 382.842C192.152 384.382 193.292 385.666 194.871 385.922C195.046 385.922 195.309 386.008 195.484 386.008C196.8 386.008 198.028 385.238 198.642 384.04C198.729 383.869 200.834 379.591 201.711 375.485C201.799 375.057 201.887 374.629 201.974 374.287C202.676 371.122 203.465 367.443 202.764 363.85L204.079 353.669C204.079 353.498 204.079 353.413 204.079 353.242V314.915C204.079 314.572 203.991 314.23 203.904 313.888C203.728 313.46 203.29 312.006 202.676 311.065C202.15 310.295 201.536 309.525 201.536 309.439C200.834 308.584 199.869 308.156 198.817 308.156H191.889H184.96H184.873V265.295H214.428L314.406 285.742L326.86 290.789C327.298 290.96 327.737 291.046 328.175 291.046C328.877 291.046 329.579 290.875 330.105 290.447C331.069 289.848 331.683 288.736 331.683 287.624V278.213C331.683 277.871 331.683 277.614 331.596 277.358C330.719 274.107 329.228 272.396 325.983 270.599C325.983 270.599 325.983 270.599 325.895 270.599L184.873 196.255V40.2093C184.873 40.1238 184.873 40.0382 184.873 39.9527C184.873 39.696 184.346 32.8519 183.469 28.4032C181.365 17.5382 179.611 8.12755 172.068 0.171281C168.56 -3.25077 164.526 -3.42188 164 -3.42188Z" fill="black"/>
</g>
<defs>
<clipPath id="clip0_475_26">
<rect width="328" height="450" fill="white"/>
</clipPath>
</defs>
</svg>
