<svg width="110" height="86" viewBox="0 0 110 86" fill="none" xmlns="http://www.w3.org/2000/svg">
<g clip-path="url(#clip0_500_41)">
<path d="M54.6002 84.6905C53.7802 84.6905 53.2802 84.0005 53.1602 83.3605L52.8102 79.3505L52.5002 79.7905C52.3102 80.0605 52.0102 80.2205 51.6802 80.2205C51.6602 80.2205 40.8702 79.4705 40.8702 79.4705C40.8402 79.4705 40.8202 79.4705 40.8002 79.4705C40.4302 79.4705 37.2202 79.3305 37.2202 74.3205C37.2202 69.3105 40.7202 69.0105 40.8702 69.0105L51.0802 68.5405C50.7302 66.5705 49.9902 62.2305 49.2302 57.2205C48.4102 51.8005 47.9802 47.4605 47.7502 45.1305C47.7002 44.6705 47.6702 44.3005 47.6402 44.0205C46.4702 42.5005 44.2702 42.2905 44.2502 42.2905C42.6302 42.0505 6.25019 36.5705 5.22019 36.4005C3.78019 36.1805 2.88019 34.8405 2.78019 34.6905C0.670191 31.7105 0.790191 28.2205 1.81019 26.2405C2.50019 24.9005 3.65019 24.1305 4.95019 24.1305C5.90019 24.0505 39.5402 20.7405 44.8502 20.2205C45.1402 19.5105 45.7702 18.8305 46.8402 18.8305C47.1702 18.8305 47.4502 18.8805 47.7002 18.9705C47.9302 15.8905 48.4002 9.49047 48.5502 7.74047C48.5902 7.22047 48.7402 6.74047 48.9702 6.31047C47.0802 6.24047 45.1602 6.04047 43.2402 5.72047C42.6202 5.62047 42.1802 5.09047 42.1902 4.46047C42.2002 3.83047 42.6502 3.32047 43.2702 3.23047C46.5402 2.76047 49.2502 2.66047 50.9402 2.66047C51.6202 2.66047 52.1902 2.68047 52.6502 2.69047C53.0702 1.61047 53.7702 0.980469 54.6002 0.980469C55.4302 0.980469 56.1302 1.60047 56.5502 2.69047C57.0102 2.67047 57.5902 2.66047 58.2602 2.66047C59.9602 2.66047 62.6602 2.76047 65.9302 3.23047C66.5502 3.32047 67.0002 3.84047 67.0102 4.46047C67.0202 5.08047 66.5802 5.61047 65.9602 5.72047C64.0402 6.05047 62.1202 6.24047 60.2302 6.31047C60.4602 6.74047 60.6002 7.22047 60.6502 7.74047C60.8002 9.49047 61.2702 15.8905 61.5002 18.9705C61.7502 18.8805 62.0302 18.8305 62.3602 18.8305C63.4302 18.8305 64.0502 19.5005 64.3502 20.2205C69.6602 20.7405 103.3 24.0405 104.34 24.1305C105.55 24.1305 106.69 24.9005 107.38 26.2405C108.4 28.2105 108.52 31.7105 106.39 34.7205C106.32 34.8405 105.42 36.1705 103.98 36.3905C102.95 36.5505 66.5702 42.0305 65.0202 42.2705C64.9302 42.2705 62.7302 42.4805 61.5602 44.0105C61.5302 44.2905 61.4902 44.6605 61.4502 45.1205C61.2202 47.4505 60.7802 51.7905 59.9702 57.2105C59.2102 62.2205 58.4702 66.5605 58.1202 68.5305C58.1202 68.5305 68.3602 69.0005 68.3702 69.0005C68.5402 69.0005 71.9802 69.1005 71.9802 74.3105C71.9802 79.5205 68.7702 79.4605 68.4002 79.4605C68.3902 79.4605 68.3602 79.4605 68.3302 79.4605C68.3302 79.4605 57.5402 80.2105 57.5202 80.2105C57.1902 80.2105 56.8902 80.0505 56.7002 79.7805L56.3902 79.3405L56.0502 83.2505C55.9202 83.9905 55.4202 84.6805 54.6002 84.6805V84.6905Z" fill="white"/>
<path d="M54.6001 2.00023C55.1101 2.00023 55.5901 2.71023 55.8201 3.75023C56.2801 3.72023 57.1101 3.67023 58.2601 3.67023C60.0801 3.67023 62.6801 3.78023 65.7901 4.23023C66.0801 4.27023 66.0901 4.69023 65.7901 4.74023C62.9801 5.21023 60.5601 5.34023 58.7701 5.34023C58.2801 5.34023 57.8401 5.34023 57.4501 5.32023C58.2901 5.62023 59.5201 6.31023 59.6501 7.83023C59.8401 10.1602 60.6201 20.7302 60.6201 20.7302H61.0701C61.0701 20.7302 61.2301 19.8402 62.3501 19.8402C63.4701 19.8402 63.5401 21.1502 63.5401 21.1502C63.5401 21.1502 103.1 25.0302 104.24 25.1302C107.09 25.1302 108.26 30.3502 105.57 34.1402C105.57 34.1402 104.86 35.2402 103.82 35.4002C102.78 35.5602 64.8701 41.2802 64.8701 41.2802C64.8701 41.2802 62.0201 41.5002 60.5901 43.6402C60.4301 45.0002 60.0101 50.1902 58.9701 57.0602C57.9301 63.9302 56.9301 69.4802 56.9301 69.4802L68.3101 70.0002C68.3101 70.0002 68.3101 70.0002 68.3201 70.0002C68.5301 70.0002 70.9601 70.0902 70.9601 74.3102C70.9601 78.2602 68.8301 78.4602 68.3801 78.4602C68.3301 78.4602 68.3001 78.4602 68.3001 78.4602L57.5001 79.2102L55.6201 76.5202L55.0401 83.1702C55.0401 83.1702 54.9401 83.6902 54.5901 83.6902C54.2401 83.6902 54.1401 83.1702 54.1401 83.1702L53.5601 76.5202L51.6801 79.2102L40.8801 78.4602C40.8801 78.4602 40.8501 78.4602 40.8001 78.4602C40.3501 78.4602 38.2201 78.2502 38.2201 74.3102C38.2201 70.0902 40.6601 70.0002 40.8601 70.0002H40.8701L52.2501 69.4802C52.2501 69.4802 51.2401 63.9402 50.2101 57.0602C49.1701 50.1902 48.7501 45.0002 48.5901 43.6402C47.1601 41.5002 44.3101 41.2802 44.3101 41.2802C44.3101 41.2802 6.3901 35.5702 5.3601 35.4002C4.3201 35.2402 3.6101 34.1402 3.6101 34.1402C0.920103 30.3502 2.0901 25.1302 4.9401 25.1302C6.0701 25.0302 45.6401 21.1502 45.6401 21.1502C45.6401 21.1502 45.7101 19.8402 46.8301 19.8402C47.9501 19.8402 48.1101 20.7302 48.1101 20.7302H48.5601C48.5601 20.7302 49.3401 10.1602 49.5301 7.83023C49.6601 6.31023 50.8901 5.61023 51.7301 5.32023C51.3401 5.33024 50.9001 5.34023 50.4101 5.34023C48.6101 5.34023 46.1901 5.21023 43.3901 4.74023C43.1001 4.69023 43.1001 4.27023 43.3901 4.23023C46.5001 3.79023 49.1001 3.67023 50.9201 3.67023C52.0701 3.67023 52.9101 3.71023 53.3601 3.75023C53.5901 2.70023 54.0701 2.00023 54.5801 2.00023M54.6001 0.000234375C53.5301 0.000234375 52.6301 0.610234 52.0201 1.69023C51.6901 1.69023 51.3301 1.68023 50.9301 1.68023C49.2001 1.68023 46.4401 1.78023 43.1201 2.26023C42.0101 2.42023 41.2001 3.35023 41.1801 4.47023C41.1701 5.59023 41.9601 6.54023 43.0601 6.73023C44.5801 6.99023 46.0901 7.17023 47.6001 7.27023C47.5801 7.41023 47.5601 7.55023 47.5501 7.69023C47.4201 9.28023 47.0201 14.5702 46.7801 17.8702C45.6001 17.8902 44.7201 18.4902 44.2001 19.3102C37.5701 19.9602 6.7501 22.9802 4.8401 23.1602C3.1901 23.2002 1.7701 24.1602 0.920103 25.8102C-0.489897 28.5302 -0.0598974 32.4302 1.9701 35.3002C2.2301 35.6902 3.3101 37.1402 5.0601 37.4102C6.0901 37.5702 42.4801 43.0502 44.0301 43.2902C44.0801 43.2902 44.1301 43.3002 44.1801 43.3102C44.1801 43.3102 45.7601 43.4702 46.6901 44.4502C46.7101 44.6802 46.7401 44.9502 46.7701 45.2502C47.0001 47.5902 47.4401 51.9402 48.2601 57.3902C48.9001 61.6102 49.5301 65.3502 49.9201 67.6102L40.8601 68.0202C39.1301 68.0402 36.2501 69.3802 36.2501 74.3302C36.2501 80.3102 40.3601 80.4802 40.8301 80.4802C40.8501 80.4802 40.8601 80.4802 40.8801 80.4802L51.5701 81.2202C51.5701 81.2202 51.6601 81.2202 51.7101 81.2202C51.8101 81.2202 51.9001 81.2202 51.9901 81.2002L52.1801 83.3502C52.1801 83.4102 52.1901 83.4802 52.2101 83.5402C52.4501 84.8102 53.4401 85.6902 54.6301 85.6902C55.8201 85.6902 56.8101 84.8102 57.0501 83.5402C57.0601 83.4802 57.0701 83.4102 57.0801 83.3502L57.2701 81.2002C57.3601 81.2102 57.4601 81.2202 57.5501 81.2202C57.6001 81.2202 57.6401 81.2202 57.6901 81.2202L68.3801 80.4802C68.3801 80.4802 68.4101 80.4802 68.4301 80.4802C68.9001 80.4802 73.0101 80.3102 73.0101 74.3302C73.0101 69.3802 70.1201 68.0302 68.4001 68.0202L59.3401 67.6102C59.7301 65.3502 60.3601 61.6002 61.0001 57.3902C61.8201 51.9402 62.2601 47.5902 62.4901 45.2502C62.5201 44.9402 62.5501 44.6702 62.5701 44.4502C63.5001 43.4602 65.0701 43.3102 65.0901 43.3002C65.1301 43.3002 65.1801 43.3002 65.2201 43.2802C66.7701 43.0502 103.15 37.5602 104.19 37.4002C105.95 37.1302 107.02 35.6802 107.28 35.2902C109.3 32.4202 109.73 28.5202 108.33 25.8002C107.48 24.1502 106.05 23.1902 104.41 23.1502C102.51 22.9702 71.6801 19.9502 65.0501 19.3002C64.5301 18.4802 63.6601 17.8702 62.4701 17.8602C62.2301 14.5602 61.8301 9.27023 61.7001 7.68023C61.6901 7.54023 61.6701 7.40023 61.6501 7.26023C63.1501 7.16023 64.6701 6.98023 66.1901 6.72023C67.2901 6.53023 68.0901 5.58023 68.0701 4.46023C68.0601 3.34023 67.2401 2.41023 66.1301 2.25023C62.8001 1.77023 60.0501 1.67023 58.3201 1.67023C57.9201 1.67023 57.5601 1.67023 57.2301 1.68023C56.6301 0.600234 55.7301 -0.00976562 54.6501 -0.00976562L54.6001 0.000234375Z" fill="black"/>
</g>
<defs>
<clipPath id="clip0_500_41">
<rect width="109.01" height="85.69" fill="white" transform="translate(0.100098)"/>
</clipPath>
</defs>
</svg>
