<svg width="131" height="113" viewBox="0 0 131 113" fill="none" xmlns="http://www.w3.org/2000/svg">
<g clip-path="url(#clip0_580_17)">
<path d="M65.1002 111.465C64.7902 111.465 64.3302 111.335 63.9702 110.715C63.7502 110.345 63.6202 109.925 63.5802 109.475L63.4002 107.265C63.1002 107.425 62.7602 107.505 62.4102 107.505C62.2202 107.505 49.2802 107.125 47.8002 107.015C46.0302 106.885 45.2102 105.045 45.0002 103.975C44.9902 103.915 44.9802 103.845 44.9802 103.785V101.645C44.9802 99.1851 47.2202 97.8751 47.3202 97.8151C47.4002 97.7751 58.4902 92.7351 60.9302 91.6251C60.9002 91.5051 60.8702 91.3451 60.8302 91.2351C60.8102 91.1751 60.8002 91.1251 60.7902 91.0651L56.3702 64.2551C56.3702 64.2551 56.3702 64.1851 56.3602 64.1551C56.3602 64.1351 56.2102 61.7451 55.9602 60.5351C55.8402 59.9751 55.3202 59.7751 55.1702 59.7251C54.4202 59.6251 48.4902 58.8651 47.5102 58.7051C47.2402 60.9051 46.5402 62.6651 46.1002 63.5951C45.8002 64.2451 45.1402 64.6651 44.4202 64.6651H43.7502L43.0502 65.6251C42.8602 65.8851 42.5702 66.0351 42.2502 66.0351C41.9402 66.0351 41.6402 65.8851 41.4502 65.6351L40.7202 64.6651H39.9502C39.2702 64.6651 38.6402 64.2851 38.3102 63.6851C37.4102 62.0351 36.9902 59.5451 36.8102 58.1251C33.3902 58.4651 19.5902 59.8051 16.8202 60.0651C16.5102 60.3551 16.1202 60.5051 15.8002 60.5551C14.7502 60.6451 6.07017 61.3551 5.35017 61.3551C4.38017 61.3551 3.42017 60.5251 3.08017 60.1851C2.82017 59.9751 2.36017 59.3651 1.38017 55.9951C0.400169 52.6151 2.29017 50.7551 3.43017 50.2451L36.5302 38.7951V33.2651C36.5302 29.6051 38.0302 25.8851 38.6802 24.4451C39.0102 23.7151 39.7502 23.2351 40.5502 23.2351H44.3102C45.1402 23.2351 45.8802 23.7251 46.2102 24.4851C48.0902 28.9151 48.0102 33.3151 48.0102 33.5051V34.7551C50.2502 33.9051 54.9302 32.1351 55.5902 31.9151V28.3951C55.5902 20.5051 61.9002 4.33514 62.1602 3.64514C62.4902 2.84514 63.4802 1.51514 65.1002 1.51514C66.7202 1.51514 67.7102 2.84514 68.0302 3.63514C68.3102 4.33514 74.6102 20.5151 74.6102 28.3951V31.8751C74.6102 31.8751 74.6302 31.9351 74.6402 31.9451C75.0502 32.0551 79.8902 33.8851 82.1902 34.7551V33.4751C82.1902 33.3151 82.1102 28.9051 83.9902 24.4751C84.3102 23.7151 85.0602 23.2251 85.8902 23.2251H89.6502C90.4602 23.2251 91.1902 23.6951 91.5202 24.4351C92.1702 25.8651 93.6702 29.5851 93.6702 33.2551V38.7851L126.69 50.2051C127.91 50.7451 129.8 52.6151 128.82 55.9951C127.84 59.3651 127.38 59.9751 127.12 60.1851C126.77 60.5251 125.82 61.3451 124.85 61.3451C124.13 61.3451 115.45 60.6351 114.47 60.5551C114.11 60.5051 113.7 60.3451 113.39 60.0551C112.22 59.9451 108.12 59.5551 93.4002 58.1151C93.2202 59.5351 92.8002 62.0251 91.9002 63.6751C91.5702 64.2751 90.9402 64.6551 90.2602 64.6551H89.4902L88.7602 65.6251C88.5702 65.8751 88.2802 66.0251 87.9602 66.0251C87.6402 66.0251 87.3502 65.8651 87.1602 65.6151L86.4602 64.6551H85.7902C85.0702 64.6551 84.4102 64.2351 84.1102 63.5851C83.6702 62.6551 82.9802 60.8951 82.7002 58.6951C81.7302 58.8551 75.7902 59.6151 75.0402 59.7151C74.8802 59.7651 74.3602 59.9651 74.2502 60.5251C74.0002 61.7351 73.8602 64.1251 73.8502 64.1451C73.8502 64.1751 73.8502 64.2151 73.8402 64.2451L69.4202 91.0551C69.4202 91.1151 69.4002 91.1651 69.3802 91.2251C69.3402 91.3451 69.3102 91.4951 69.2902 91.6251C71.7502 92.7451 82.8102 97.7751 82.8102 97.7751C82.9902 97.8751 85.2302 99.1851 85.2302 101.645V103.785C85.2302 103.845 85.2302 103.915 85.2102 103.975C85.0002 105.045 84.1802 106.885 82.4102 107.015C80.9402 107.125 67.9902 107.495 67.8602 107.495C67.4702 107.495 67.1202 107.415 66.8102 107.255L66.6302 109.465C66.5902 109.925 66.4602 110.345 66.2402 110.715C65.8802 111.325 65.4302 111.455 65.1102 111.455L65.1002 111.465Z" fill="white"/>
<path d="M65.1001 2.53514C66.4901 2.53514 67.1101 4.03514 67.1101 4.03514C67.1101 4.03514 73.6201 20.6251 73.6201 28.4151V31.9951C73.6201 31.9951 73.7101 32.6951 74.2801 32.8651C74.8501 33.0451 82.9601 36.1251 82.9601 36.1251C82.9601 36.1251 83.0101 36.1851 83.0701 36.1851C83.1301 36.1851 83.2001 36.1151 83.2001 35.8251V33.4951C83.2001 33.4951 83.1001 29.1651 84.9201 24.8851C85.0901 24.4951 85.4701 24.2451 85.8901 24.2451H89.6501C90.0601 24.2451 90.4401 24.4851 90.6101 24.8651C91.2401 26.2651 92.6701 29.8151 92.6701 33.2651V39.1751C92.6701 39.3751 92.8001 39.5551 92.9901 39.6251L126.36 51.1651C126.36 51.1651 128.86 52.2851 127.86 55.7251C126.86 59.1651 126.47 59.4351 126.47 59.4351C126.47 59.4351 125.54 60.3651 124.85 60.3651C124.16 60.3651 114.55 59.5851 114.55 59.5851C114.55 59.5851 114.06 59.5151 113.91 59.1351C113.71 59.1351 94.6301 57.2651 92.6701 57.0751C92.6701 57.0751 92.6601 57.0751 92.6501 57.0751C92.5701 57.0751 92.5001 57.1351 92.4901 57.2251C92.4201 57.9951 92.0701 61.3051 91.0201 63.2351C90.8701 63.5151 90.5801 63.6951 90.2601 63.6951H88.9901L87.9601 65.0651L86.9601 63.6951H85.7801C85.4501 63.6951 85.1401 63.5051 85.0001 63.2051C84.5601 62.2751 83.6901 60.1051 83.5801 57.4651C83.5801 57.3651 83.5001 57.3151 83.4201 57.3151C83.3701 57.3151 83.3201 57.3351 83.2801 57.3951C83.1801 57.5451 83.0001 57.6851 82.5601 57.7551C81.6801 57.9051 74.8301 58.7851 74.8301 58.7851C74.8301 58.7851 73.5201 59.0751 73.2501 60.3751C72.9801 61.6751 72.8401 64.1451 72.8401 64.1451L68.4201 90.9551C68.4201 90.9551 68.0801 91.9151 68.3801 92.3851C68.7701 92.5651 82.3701 98.7451 82.3701 98.7451C82.3701 98.7451 84.2101 99.7951 84.2101 101.705V103.845C84.2101 103.845 83.8001 105.965 82.3201 106.075C81.0201 106.165 70.4201 106.485 67.8201 106.555C67.8101 106.555 67.8001 106.555 67.7901 106.555C67.4401 106.555 67.1101 106.395 66.8801 106.125L65.9801 105.025L65.6101 109.445C65.5901 109.735 65.5101 110.015 65.3601 110.265C65.2801 110.405 65.1801 110.515 65.0901 110.515C65.0001 110.515 64.9101 110.405 64.8201 110.265C64.6701 110.015 64.5901 109.735 64.5701 109.445L64.2001 105.025L63.3001 106.125C63.0801 106.395 62.7401 106.555 62.3901 106.555C62.3801 106.555 62.3701 106.555 62.3601 106.555C59.7601 106.475 49.1501 106.165 47.8601 106.075C46.3801 105.965 45.9701 103.845 45.9701 103.845V101.705C45.9701 99.7951 47.8101 98.7451 47.8101 98.7451C47.8101 98.7451 61.4101 92.5651 61.8001 92.3851C62.1001 91.9251 61.7601 90.9551 61.7601 90.9551L57.3401 64.1451C57.3401 64.1451 57.1901 61.6751 56.9301 60.3751C56.6701 59.0751 55.3501 58.7851 55.3501 58.7851C55.3501 58.7851 48.5101 57.9051 47.6201 57.7551C47.1801 57.6851 47.0001 57.5451 46.9001 57.3951C46.8601 57.3451 46.8101 57.3151 46.7601 57.3151C46.6801 57.3151 46.6001 57.3751 46.6001 57.4651C46.4901 60.1051 45.6201 62.2751 45.1801 63.2051C45.0401 63.5051 44.7401 63.6951 44.4001 63.6951H43.2201L42.2201 65.0651L41.1901 63.6951H39.9201C39.6001 63.6951 39.3101 63.5151 39.1601 63.2351C38.1101 61.3051 37.7601 57.9851 37.6901 57.2251C37.6901 57.1451 37.6101 57.0751 37.5301 57.0751C37.5301 57.0751 37.5201 57.0751 37.5101 57.0751C35.5501 57.2651 16.4701 59.1251 16.2701 59.1351C16.1201 59.5151 15.6301 59.5851 15.6301 59.5851C15.6301 59.5851 6.02008 60.3651 5.33008 60.3651C4.64008 60.3651 3.71008 59.4351 3.71008 59.4351C3.71008 59.4351 3.32008 59.1651 2.32008 55.7251C1.32008 52.2851 3.82008 51.1651 3.82008 51.1651L37.1901 39.6251C37.3801 39.5551 37.5101 39.3851 37.5101 39.1751V33.2651C37.5101 29.8051 38.9401 26.2551 39.5701 24.8651C39.7401 24.4851 40.1201 24.2451 40.5301 24.2451H44.2901C44.7101 24.2451 45.1001 24.4951 45.2601 24.8851C47.0701 29.1651 46.9801 33.4951 46.9801 33.4951V35.8251C46.9801 36.1151 47.0501 36.1851 47.1101 36.1851C47.1701 36.1851 47.2201 36.1251 47.2201 36.1251C47.2201 36.1251 55.3301 33.0451 55.9001 32.8651C56.4701 32.6851 56.5601 31.9951 56.5601 31.9951V28.4151C56.5601 20.6251 63.0701 4.03514 63.0701 4.03514C63.0701 4.03514 63.6901 2.53514 65.0801 2.53514M65.1001 0.535137C62.9501 0.535137 61.6601 2.25514 61.2401 3.26514C60.9501 3.99514 54.5801 20.3351 54.5801 28.4151V31.2251C53.3601 31.6751 50.9601 32.5751 49.0001 33.3151C49.0001 32.4251 48.8901 28.2651 47.1201 24.1051C46.6401 22.9751 45.5301 22.2451 44.3001 22.2451H40.5401C39.3401 22.2451 38.2501 22.9551 37.7501 24.0451C37.0801 25.5351 35.5101 29.4151 35.5101 33.2751V38.0951L3.18008 49.2651C3.12008 49.2851 3.07008 49.3051 3.01008 49.3351C1.60008 49.9651 -0.759918 52.2351 0.410082 56.2751C1.38008 59.6251 1.91008 60.5051 2.39008 60.9251C2.90008 61.4151 4.04008 62.3551 5.34008 62.3551C6.06008 62.3551 13.5301 61.7451 15.8001 61.5651C15.8401 61.5651 15.8801 61.5651 15.9301 61.5551C16.3401 61.4951 16.8001 61.3351 17.2101 61.0451C18.7501 60.8951 23.1501 60.4751 35.9401 59.2251C36.1801 60.7551 36.6201 62.7151 37.4201 64.1751C37.9201 65.1051 38.8901 65.6751 39.9401 65.6751H40.2101L40.6401 66.2551C41.0201 66.7551 41.6101 67.0551 42.2401 67.0551H42.2601C42.8901 67.0551 43.4901 66.7451 43.8601 66.2351L44.2601 65.6851H44.4201C45.5301 65.6851 46.5401 65.0351 47.0101 64.0351C47.4001 63.1951 48.0001 61.7151 48.3401 59.8551C50.2301 60.1151 53.9101 60.5951 54.9101 60.7251C54.9401 60.7451 54.9801 60.7651 54.9901 60.7751C55.1701 61.7051 55.3201 63.5951 55.3501 64.2351C55.3501 64.3051 55.3601 64.3751 55.3701 64.4451L59.7601 91.0851C56.3501 92.6351 46.9801 96.8951 46.9801 96.8951C46.9201 96.9251 46.8701 96.9451 46.8101 96.9851C46.5201 97.1551 43.9701 98.6951 43.9701 101.675V103.815C43.9701 103.945 43.9801 104.065 44.0101 104.195C44.2701 105.545 45.3401 107.865 47.7201 108.035C49.0401 108.135 59.2201 108.435 62.3101 108.525C62.3301 108.525 62.3801 108.525 62.4001 108.525C62.4301 108.525 62.4601 108.525 62.4901 108.525L62.5801 109.575C62.6301 110.185 62.8101 110.745 63.1001 111.245C63.7301 112.325 64.6201 112.485 65.0901 112.485C65.5601 112.485 66.4501 112.325 67.0801 111.245C67.3801 110.745 67.5501 110.185 67.6001 109.575L67.6901 108.525C67.6901 108.525 67.7501 108.525 67.7801 108.525C67.8001 108.525 67.8501 108.525 67.8701 108.525C70.9601 108.435 81.1401 108.135 82.4601 108.035C84.8301 107.865 85.9101 105.535 86.1701 104.195C86.1901 104.065 86.2101 103.945 86.2101 103.815V101.675C86.2101 98.6951 83.6601 97.1451 83.3701 96.9851C83.3201 96.9551 83.2601 96.9251 83.2001 96.8951C83.2001 96.8951 73.8201 92.6351 70.4201 91.0851L74.8101 64.4451C74.8201 64.3751 74.8301 64.3051 74.8301 64.2351C74.8701 63.5851 75.0101 61.6951 75.2101 60.7551C75.2101 60.7551 75.2401 60.7351 75.2801 60.7151C76.2801 60.5851 79.9601 60.1051 81.8501 59.8451C82.2001 61.7051 82.7901 63.1851 83.1901 64.0251C83.6601 65.0251 84.6701 65.6751 85.7801 65.6751H85.9401L86.3401 66.2251C86.7101 66.7351 87.3101 67.0451 87.9401 67.0451H87.9601C88.5901 67.0451 89.1801 66.7551 89.5601 66.2451L89.9901 65.6651H90.2601C91.3101 65.6651 92.2801 65.0851 92.7801 64.1651C93.5701 62.7051 94.0101 60.7451 94.2601 59.2151C104.56 60.2151 110.83 60.8251 112.99 61.0351C113.4 61.3251 113.86 61.4851 114.27 61.5451C114.31 61.5451 114.35 61.5551 114.4 61.5551C116.67 61.7451 124.14 62.3451 124.86 62.3451C126.15 62.3451 127.3 61.4051 127.81 60.9151C128.29 60.4951 128.82 59.6151 129.79 56.2651C130.96 52.2251 128.6 49.9551 127.19 49.3251C127.14 49.3051 127.08 49.2751 127.02 49.2551L94.6801 38.0751V33.2551C94.6801 29.4051 93.1201 25.5151 92.4401 24.0251C91.9501 22.9351 90.8501 22.2251 89.6501 22.2251H85.8901C84.6601 22.2251 83.5501 22.9551 83.0701 24.0851C81.3301 28.2051 81.2001 32.3151 81.1901 33.3051C79.2301 32.5651 76.8201 31.6551 75.6101 31.2051V28.3951C75.6101 20.3251 69.2401 3.97514 68.9701 3.28514C68.5401 2.23514 67.2501 0.515137 65.1001 0.515137V0.535137Z" fill="black"/>
</g>
<defs>
<clipPath id="clip0_580_17">
<rect width="130" height="111.93" fill="white" transform="translate(0.0996094 0.535156)"/>
</clipPath>
</defs>
</svg>
