<svg width="144" height="143" viewBox="0 0 144 143" fill="none" xmlns="http://www.w3.org/2000/svg">
<g clip-path="url(#clip0_466_2)">
<path d="M92.0699 141.82C91.8299 141.82 91.5699 141.77 91.3099 141.66C90.6599 141.39 77.9099 136.34 73.8599 134.74L73.3399 139.49C73.2299 140.07 73.0099 141.26 71.9999 141.26C70.9899 141.26 70.7599 140.07 70.6699 139.56L70.1399 134.74C66.0899 136.34 53.3399 141.39 52.6899 141.66C52.4299 141.77 52.1699 141.82 51.9199 141.82C51.1099 141.82 50.5899 141.24 50.4499 140.64C48.5699 134.59 51.2899 132.74 51.5999 132.55L69.5199 121.76L66.6399 120.12C66.0099 119.76 65.6099 119.08 65.6099 118.35V105.21C64.6699 101.42 63.9899 97.6901 63.5999 94.1101C63.2299 92.3101 61.2199 92.0601 61.1299 92.0501L57.1699 91.6501C57.2499 93.3801 57.1899 95.6001 57.1799 95.7101C57.1799 95.7901 57.3799 99.4201 57.3799 100.1C57.3799 101.41 56.5199 101.76 56.0599 101.76H55.9299C55.6099 102.21 55.1799 102.56 54.6599 102.78L54.1799 104.56C55.1899 104.44 56.3499 104.34 57.4899 104.34C59.0799 104.34 60.3799 104.53 61.3599 104.9C61.8599 105.09 62.1799 105.57 62.1599 106.1C62.1399 106.63 61.7799 107.09 61.2599 107.24C60.3499 107.5 59.1099 107.63 57.5899 107.63C56.0699 107.63 54.6299 107.51 53.4299 107.39L52.5799 110.56C52.4499 111.05 52.0099 111.39 51.4999 111.39C50.9899 111.39 50.5599 111.06 50.4299 110.58L49.5199 107.32C48.1999 107.47 46.2999 107.65 44.4999 107.65C42.9599 107.65 41.7099 107.52 40.7999 107.26C40.2799 107.11 39.9199 106.66 39.8999 106.12C39.8799 105.59 40.1999 105.11 40.6999 104.92C41.6799 104.55 42.9899 104.36 44.5999 104.36C46.0699 104.36 47.5799 104.52 48.7799 104.68L48.2699 102.86C47.7499 102.67 47.3199 102.32 46.9899 101.85C46.1499 101.82 45.7199 101.45 45.4999 101.14C45.2099 100.71 45.1899 100.22 45.2799 99.8401L45.7499 88.3501C39.5199 87.6401 3.93988 83.5901 2.97988 83.4901C1.18989 83.3001 1.06989 80.6001 1.08989 79.6401C0.539885 75.2401 2.73988 74.7401 2.98988 74.7001C3.03989 74.7001 3.08989 74.6901 3.13989 74.6901C4.77989 74.6601 40.1599 74.0901 46.5999 73.9901C46.7099 63.3901 48.5699 63.3301 49.1999 63.3101H53.4799C54.1899 63.3101 55.0799 63.8201 55.3099 65.2401C55.7799 68.2901 55.8999 72.0401 55.9399 73.8201L61.9199 73.6501C60.4299 43.8001 63.2299 25.0901 65.0799 16.4301C64.8799 15.7201 64.7999 15.1701 64.7699 14.7601L55.9099 14.0101C55.6099 14.0101 54.6999 13.8001 54.2599 12.0001C53.7399 9.75009 53.8099 8.23009 54.4799 7.32009C54.9499 6.69009 55.5299 6.60009 55.6899 6.59009L68.1199 5.95009C70.0999 1.09009 71.5299 1.09009 72.0099 1.09009C72.4899 1.09009 73.9199 1.09009 75.8999 5.95009L88.2999 6.59009C88.4899 6.60009 89.0699 6.69009 89.5399 7.33009C90.1999 8.23009 90.2799 9.76009 89.7599 11.9901C89.3099 13.8201 88.3899 14.0201 88.0099 14.0201L79.2399 14.7701C79.2099 15.1801 79.1299 15.7301 78.9299 16.4401C80.7899 25.1101 83.5799 43.8201 82.0899 73.6601L88.0699 73.8301C88.0999 72.0501 88.2199 68.3001 88.6999 65.2501C88.9199 63.8201 89.8199 63.3201 90.5099 63.3201H94.7699C95.4299 63.3401 97.2899 63.4101 97.3999 74.0001C103.84 74.1001 139.22 74.6701 140.86 74.7001C140.91 74.7001 140.96 74.7001 141.01 74.7101C141.26 74.7501 143.47 75.2501 142.91 79.6501C142.93 80.6001 142.81 83.3101 141.02 83.5001C140.06 83.6001 104.48 87.6501 98.2499 88.3601L98.7199 99.8501C98.8099 100.23 98.7899 100.73 98.4999 101.15C98.2799 101.46 97.8499 101.83 97.0099 101.86C96.6799 102.34 96.2399 102.68 95.7199 102.87L95.2199 104.68C96.4199 104.51 97.9399 104.36 99.3999 104.36C101.01 104.36 102.32 104.55 103.3 104.91C103.8 105.1 104.12 105.58 104.1 106.11C104.08 106.64 103.72 107.1 103.2 107.25C102.29 107.51 101.04 107.64 99.4999 107.64C97.6999 107.64 95.7999 107.46 94.4799 107.31L93.5699 110.57C93.4299 111.05 92.9899 111.39 92.4899 111.39C91.9899 111.39 91.5399 111.05 91.4099 110.56L90.5599 107.39C89.3599 107.52 87.8499 107.63 86.3999 107.63C84.8799 107.63 83.6399 107.5 82.7299 107.24C82.2099 107.09 81.8499 106.64 81.8299 106.1C81.8099 105.57 82.1299 105.08 82.6299 104.9C83.6099 104.53 84.9099 104.34 86.4999 104.34C87.6399 104.34 88.7999 104.44 89.8099 104.56L89.3299 102.78C88.8199 102.56 88.3799 102.21 88.0599 101.76H87.9299C87.4699 101.76 86.6099 101.41 86.6099 100.1C86.6099 99.4201 86.7999 95.7901 86.8099 95.6301C86.8099 95.5701 86.7499 93.3701 86.8199 91.6401L82.8499 92.0401C82.7699 92.0401 80.7499 92.2901 80.3699 94.1901C79.9999 97.6801 79.3199 101.41 78.3799 105.2V118.34C78.3799 119.07 77.9899 119.75 77.3499 120.11L74.4699 121.75L92.3899 132.54C92.7099 132.73 95.4199 134.58 93.5399 140.63C93.4099 141.23 92.8799 141.81 92.0699 141.81V141.82Z" fill="white"/>
<path d="M71.9998 2.07005C72.7698 2.07005 73.9598 3.67005 75.1998 6.90005L88.2498 7.57005C88.2498 7.57005 89.7198 7.68005 88.7798 11.75C88.4798 12.98 88.0298 13 88.0098 13L78.6798 13.79C78.6798 13.79 78.6298 13.78 78.5698 13.78C78.4398 13.78 78.2598 13.82 78.2598 14.07C78.2598 14.42 78.2798 15.12 77.8998 16.38C80.4698 28.24 82.4698 47.55 81.0398 74.61L89.0598 74.83C89.0598 74.83 89.0598 69.4201 89.6898 65.37C89.8498 64.33 90.4198 64.28 90.5198 64.28H90.5298H94.7798C94.7798 64.28 96.4198 64.34 96.4198 74.95C97.0098 74.95 140.86 75.66 140.86 75.66C140.86 75.66 142.41 75.92 141.93 79.56C141.93 79.56 142 82.36 140.94 82.47C139.88 82.58 97.2298 87.44 97.2298 87.44L97.7498 99.99C97.7498 99.99 98.0698 100.84 96.9398 100.84C96.7998 100.84 96.6498 100.83 96.4598 100.8C96.2398 101.35 95.7198 102.02 94.7798 102.02C94.7698 102.02 94.7598 102.02 94.7498 102.02L94.7998 102.53L93.8598 105.89C95.0798 105.67 97.3098 105.34 99.4198 105.34C100.73 105.34 102 105.47 102.97 105.83C103.18 105.91 103.16 106.21 102.95 106.27C102.04 106.53 100.81 106.62 99.5198 106.62C97.3398 106.62 94.9998 106.35 93.7698 106.19L92.6298 110.28C92.6098 110.34 92.5698 110.37 92.5198 110.37C92.4698 110.37 92.4198 110.34 92.4098 110.28L91.3298 106.29C90.0598 106.44 88.1898 106.62 86.4198 106.62C85.1498 106.62 83.9398 106.53 83.0198 106.27C82.7998 106.21 82.7898 105.91 82.9998 105.83C83.9698 105.47 85.2198 105.34 86.5198 105.34C88.1998 105.34 89.9398 105.56 91.1798 105.76L90.1698 101.99C89.7598 101.91 89.0198 101.64 88.6598 100.76H87.9498C87.9498 100.76 87.6298 100.76 87.6298 100.1C87.6298 99.44 87.8298 95.69 87.8298 95.69C87.8298 95.69 87.7298 92.11 87.9298 90.54L82.7798 91.06C82.7798 91.06 79.9598 91.33 79.4198 94C79.1698 96.26 78.6598 100.08 77.4098 105.09V118.36C77.4098 118.73 77.2098 119.08 76.8898 119.26L73.2198 121.35V122.16L91.9098 133.42C91.9098 133.42 94.3398 134.89 92.6098 140.41C92.6098 140.41 92.5398 140.84 92.1098 140.84C92.0098 140.84 91.8798 140.81 91.7298 140.75C90.9498 140.43 73.0498 133.35 73.0498 133.35L72.3898 139.4C72.3898 139.4 72.2198 140.28 72.0398 140.28C71.8598 140.28 71.6898 139.4 71.6898 139.4L71.0298 133.35C71.0298 133.35 53.1298 140.43 52.3498 140.75C52.1998 140.81 52.0698 140.84 51.9598 140.84C51.5298 140.84 51.4598 140.41 51.4598 140.41C49.7298 134.89 52.1598 133.42 52.1598 133.42L70.8498 122.16V121.35L67.1798 119.26C66.8598 119.08 66.6598 118.73 66.6598 118.36V105.09C65.4098 100.09 64.8898 96.26 64.6498 94C64.1098 91.33 61.2898 91.06 61.2898 91.06L56.1398 90.54C56.3398 92.11 56.2398 95.69 56.2398 95.69C56.2398 95.69 56.4398 99.44 56.4398 100.1C56.4398 100.76 56.1198 100.76 56.1198 100.76H55.4098C55.0498 101.64 54.3098 101.91 53.8998 101.99L52.8898 105.76C54.1298 105.56 55.8698 105.34 57.5498 105.34C58.8398 105.34 60.0998 105.47 61.0698 105.83C61.2798 105.91 61.2598 106.21 61.0498 106.27C60.1398 106.53 58.9198 106.62 57.6498 106.62C55.8798 106.62 54.0198 106.44 52.7398 106.29L51.6598 110.28C51.6398 110.34 51.5998 110.37 51.5498 110.37C51.4998 110.37 51.4498 110.34 51.4398 110.28L50.2998 106.19C49.0798 106.35 46.7298 106.62 44.5498 106.62C43.2698 106.62 42.0398 106.53 41.1198 106.27C40.8998 106.21 40.8898 105.91 41.0998 105.83C42.0698 105.47 43.3398 105.34 44.6498 105.34C46.7698 105.34 48.9898 105.68 50.2098 105.89L49.2698 102.53L49.3198 102.02C49.3098 102.02 49.2998 102.02 49.2898 102.02C48.3498 102.02 47.8298 101.35 47.6098 100.8C47.4298 100.83 47.2698 100.84 47.1298 100.84C45.9998 100.84 46.3198 99.99 46.3198 99.99L46.8298 87.44C46.8298 87.44 4.18983 82.58 3.11983 82.47C2.04983 82.36 2.12983 79.56 2.12983 79.56C1.64983 75.92 3.19983 75.66 3.19983 75.66C3.19983 75.66 47.0498 74.95 47.6398 74.95C47.6398 64.34 49.2798 64.28 49.2798 64.28H53.5298C53.5298 64.28 53.5298 64.28 53.5398 64.28C53.6398 64.28 54.1998 64.33 54.3698 65.37C54.9998 69.4201 54.9998 74.83 54.9998 74.83L63.0198 74.61C61.5998 47.55 63.5898 28.24 66.1598 16.38C65.7798 15.12 65.7998 14.41 65.7998 14.07C65.7998 13.82 65.6098 13.78 65.4898 13.78C65.4298 13.78 65.3798 13.79 65.3798 13.79L56.0498 13C56.0498 13 55.5798 12.98 55.2798 11.75C54.3398 7.68005 55.8098 7.57005 55.8098 7.57005L68.8598 6.90005C70.0998 3.67005 71.2898 2.07005 72.0598 2.07005M71.9998 0.0700488C70.3098 0.0700488 68.8798 1.59005 67.4298 4.97005L55.6598 5.58005C54.8798 5.64005 54.1598 6.06005 53.6698 6.72005C52.8098 7.89005 52.6898 9.63005 53.2798 12.2C53.8598 14.56 55.1998 14.96 55.8698 15L63.8898 15.68C63.9298 15.91 63.9898 16.17 64.0598 16.45C62.2198 25.17 59.5098 43.58 60.8798 72.68L56.9198 72.79C56.8598 70.79 56.7098 67.7001 56.3098 65.08C56.0098 63.16 54.6898 62.3 53.5098 62.3C53.4998 62.3 53.4798 62.3 53.4698 62.3H49.2498C49.2498 62.3 49.2098 62.3 49.1798 62.3C46.8398 62.3801 45.7798 65.51 45.6298 73C37.4998 73.13 7.05983 73.62 3.13983 73.68C3.03983 73.68 2.93983 73.69 2.83983 73.71C2.48983 73.77 -0.530173 74.43 0.099827 79.69C0.059827 82.51 1.09983 84.29 2.88983 84.48C3.80983 84.57 36.5198 88.3 44.7298 89.23L44.2998 99.72C44.1898 100.31 44.2398 101.06 44.6898 101.71C44.9398 102.07 45.4798 102.64 46.4898 102.8C46.7298 103.07 47.0098 103.3 47.3098 103.49C46.4498 103.41 45.5198 103.35 44.6098 103.35C42.8598 103.35 41.4698 103.55 40.3598 103.97C39.4598 104.31 38.8798 105.19 38.9198 106.15C38.9598 107.12 39.6098 107.94 40.5398 108.21C41.5498 108.5 42.8498 108.64 44.5098 108.64C45.9998 108.64 47.5398 108.52 48.7898 108.4L49.4698 110.84C49.7198 111.75 50.5598 112.39 51.5098 112.39C52.4598 112.39 53.3098 111.75 53.5498 110.82L54.1798 108.47C55.2398 108.56 56.4298 108.64 57.5998 108.64C59.2398 108.64 60.5298 108.5 61.5398 108.21C62.4698 107.95 63.1198 107.12 63.1598 106.15C63.1998 105.18 62.6198 104.31 61.7198 103.97C60.6098 103.55 59.2298 103.35 57.4998 103.35C56.8698 103.35 56.2298 103.38 55.6098 103.42C55.9198 103.23 56.1998 103 56.4398 102.73C57.4398 102.55 58.3798 101.64 58.3798 100.1C58.3798 99.44 58.2198 96.3 58.1898 95.66C58.1898 95.28 58.2298 94.04 58.2098 92.76L61.0398 93.04C61.2498 93.07 62.3598 93.26 62.6198 94.32C63.0098 97.87 63.6798 101.57 64.6098 105.33V118.35C64.6098 119.44 65.1998 120.45 66.1398 120.99L67.5398 121.79L51.0798 131.7C50.6898 131.94 47.3998 134.17 49.4798 140.91C49.7198 141.89 50.5998 142.83 51.9098 142.83C52.2898 142.83 52.6698 142.75 53.0598 142.59C53.5998 142.37 62.8498 138.71 69.2798 136.16L69.6598 139.6C69.6598 139.65 69.6698 139.7 69.6798 139.75C70.0698 141.83 71.1498 142.26 71.9998 142.26C72.8498 142.26 73.9298 141.82 74.3198 139.75C74.3198 139.7 74.3398 139.65 74.3398 139.6L74.7198 136.16C81.1498 138.7 90.3998 142.37 90.9398 142.59C91.3198 142.75 91.7098 142.83 92.0898 142.83C93.4098 142.83 94.2798 141.9 94.5198 140.91C96.5998 134.16 93.3098 131.93 92.9198 131.7L76.4598 121.78L77.8598 120.98C78.8098 120.44 79.3898 119.43 79.3898 118.34V105.32C80.3198 101.57 80.9898 97.87 81.3798 94.31C81.6398 93.25 82.7598 93.06 82.9798 93.03L85.7898 92.75C85.7698 94.03 85.7898 95.28 85.8098 95.65C85.7798 96.29 85.6198 99.43 85.6198 100.09C85.6198 101.63 86.5598 102.53 87.5598 102.72C87.7998 102.99 88.0798 103.22 88.3898 103.41C87.7698 103.36 87.1398 103.34 86.4998 103.34C84.7698 103.34 83.3898 103.54 82.2798 103.96C81.3798 104.3 80.7998 105.18 80.8398 106.14C80.8798 107.11 81.5298 107.93 82.4598 108.2C83.4698 108.49 84.7598 108.63 86.3998 108.63C87.5698 108.63 88.7598 108.56 89.8198 108.46L90.4498 110.81C90.6998 111.73 91.5398 112.38 92.4898 112.38C93.4398 112.38 94.2698 111.74 94.5298 110.83L95.2098 108.39C96.4598 108.52 98.0098 108.63 99.4898 108.63C101.15 108.63 102.45 108.49 103.46 108.2C104.39 107.94 105.04 107.11 105.08 106.14C105.12 105.18 104.54 104.3 103.64 103.96C102.53 103.54 101.14 103.34 99.3898 103.34C98.4798 103.34 97.5498 103.4 96.6898 103.48C96.9898 103.29 97.2698 103.06 97.5098 102.79C98.5198 102.62 99.0598 102.06 99.3098 101.69C99.7598 101.04 99.8198 100.3 99.6998 99.7L99.2698 89.21C107.47 88.28 140.19 84.55 141.11 84.46C142.9 84.28 143.94 82.49 143.9 79.67C144.53 74.41 141.51 73.75 141.16 73.69C141.06 73.6701 140.96 73.66 140.86 73.66C136.95 73.6 106.5 73.1001 98.3698 72.98C98.2198 65.4901 97.1598 62.3601 94.8198 62.28C94.7998 62.28 94.7798 62.28 94.7498 62.28H90.5298C90.5298 62.28 90.4998 62.28 90.4898 62.28C89.3098 62.28 87.9898 63.14 87.6898 65.06C87.2898 67.67 87.1298 70.77 87.0798 72.77L83.1198 72.66C84.4898 43.56 81.7798 25.1501 79.9398 16.43C80.0098 16.15 80.0698 15.9 80.1098 15.66L88.1298 14.98C88.7998 14.94 90.1398 14.55 90.7098 12.21C91.3098 9.61005 91.1898 7.87005 90.3298 6.70005C89.8498 6.04005 89.1198 5.62005 88.3898 5.56005L76.5698 4.95005C75.1198 1.58005 73.6898 0.0500488 71.9998 0.0500488V0.0700488Z" fill="black"/>
</g>
<defs>
<clipPath id="clip0_466_2">
<rect width="143.99" height="142.75" fill="white" transform="translate(0 0.0700684)"/>
</clipPath>
</defs>
</svg>
