<svg width="135" height="95" viewBox="0 0 135 95" fill="none" xmlns="http://www.w3.org/2000/svg">
<g clip-path="url(#clip0_891_51)">
<path d="M67.5 93.5398C67.42 93.5398 67.34 93.5398 67.26 93.5098L66.8 93.3898C66.36 93.2798 66.05 92.8898 66.04 92.4398L66.01 90.7598C59.26 90.6998 50.89 90.0198 41.72 88.7898C41.22 88.7198 40.85 88.2998 40.85 87.7998V81.4298C40.85 80.9298 41.22 80.5098 41.72 80.4398L63.2 77.5798C61.34 69.9198 59.45 59.2098 59.45 54.5598V49.9998C47.09 49.9698 39.42 49.3098 27.97 48.3398L24.33 48.0298L1.94 46.6398C1.41 46.6098 1 46.1698 1 45.6398V35.9098C1 35.3798 1.42 34.9398 1.95 34.9098L49.95 32.7198C53.6 30.1498 55.75 28.4398 59.45 25.4698C59.45 22.7498 59.61 19.2398 60.19 16.0098C60.06 16.0498 59.94 16.0598 59.81 16.0598C59.74 16.0598 59.63 16.0498 59.56 16.0398C59.27 15.9798 59.03 15.7998 58.88 15.5498C58.74 15.2898 58.71 14.9898 58.82 14.7098L59.02 14.1898C59.25 13.5898 59.43 13.1498 59.45 12.7098C59.2 11.4298 59.16 10.1898 60.84 9.1198C60.97 9.0398 61.12 8.9798 61.27 8.9698C61.67 8.9298 62 8.8998 62.28 8.8998C62.44 8.8998 62.6 8.8998 62.75 8.9298C62.94 8.6698 63.13 8.4298 63.33 8.2098L57.86 7.9498C57.69 7.9498 57.52 7.8898 57.37 7.7898C57.1 7.6198 56.48 7.2198 56.54 6.4798C56.6 5.73981 57.28 5.4398 57.51 5.3398C57.64 5.2798 57.78 5.2498 57.92 5.2498H64.71C65.13 3.8098 65.9 2.2898 67.03 1.6698C67.18 1.5898 67.34 1.5498 67.51 1.5498C67.68 1.5498 67.84 1.5898 67.99 1.6698C69.12 2.2898 69.9 3.8098 70.31 5.2498H77.1C77.24 5.2498 77.38 5.2798 77.51 5.3398C77.74 5.4398 78.42 5.73981 78.48 6.4798C78.54 7.2198 77.91 7.6198 77.65 7.7898C77.5 7.8798 77.33 7.9398 77.16 7.9498L71.69 8.2098C71.89 8.4298 72.08 8.6698 72.27 8.9298C72.42 8.9098 72.57 8.8998 72.74 8.8998C73.03 8.8998 73.35 8.9298 73.75 8.9698C73.91 8.9898 74.05 9.0398 74.18 9.1198C75.86 10.1898 75.81 11.4298 75.57 12.7098C75.59 13.1498 75.76 13.5898 76 14.1898L76.2 14.7098C76.3 14.9798 76.28 15.2898 76.14 15.5498C76 15.8098 75.75 15.9898 75.46 16.0398C75.4 16.0498 75.28 16.0598 75.21 16.0598C75.08 16.0598 74.96 16.0398 74.83 16.0098C75.4 19.2398 75.56 22.7398 75.57 25.4698C79.28 28.4498 81.43 30.1598 85.07 32.7198L133.07 34.9098C133.6 34.9298 134.02 35.3698 134.02 35.9098V45.6398C134.02 46.1698 133.61 46.6098 133.08 46.6398L110.67 48.0298L107.05 48.3398C95.59 49.3198 87.93 49.9698 75.57 49.9998V54.5598C75.57 59.2098 73.68 69.9098 71.82 77.5798L93.3 80.4398C93.8 80.5098 94.17 80.9298 94.17 81.4298V87.7998C94.17 88.2998 93.8 88.7198 93.3 88.7898C84.13 90.0198 75.76 90.6998 69.01 90.7598L68.98 92.4398C68.98 92.8898 68.66 93.2798 68.22 93.3898L67.76 93.5098C67.68 93.5298 67.6 93.5398 67.52 93.5398H67.5Z" fill="white"/>
<path d="M67.5 2.54004C68.44 3.06004 69.19 4.65004 69.52 6.25004H77.09C77.61 6.48004 77.58 6.63004 77.09 6.94004L69.67 7.29004C69.69 7.49004 69.69 7.68004 69.69 7.87004C70.51 8.33004 71.21 9.09004 71.8 10.06C72.11 9.93004 72.38 9.89004 72.71 9.89004C72.97 9.89004 73.26 9.92004 73.62 9.96004C74.82 10.72 74.78 11.47 74.54 12.62C74.54 13.43 74.89 14.13 75.23 15.05C75.21 15.05 75.2 15.05 75.18 15.05C74.78 15.05 74 14.2 73.06 13.01C74.13 16.46 74.53 21.08 74.53 25.7V25.93L74.65 26.02C78.62 29.2 80.79 30.95 84.7 33.69L132.99 35.89V45.62L110.58 47.01C96.83 48.17 88.75 48.98 74.54 48.98V54.54C74.54 59.37 72.43 70.93 70.55 78.4L93.14 81.41V87.78C83.67 89.05 74.89 89.75 68 89.75L67.96 92.41L67.5 92.53L67.04 92.41L67 89.75C60.11 89.75 51.33 89.06 41.86 87.78V81.41L64.45 78.4C62.57 70.93 60.46 59.37 60.46 54.54V48.98C46.25 48.98 38.16 48.17 24.42 47.01L2.01 45.62V35.89L50.3 33.69C54.21 30.95 56.38 29.21 60.35 26.02L60.47 25.93V25.7C60.47 21.08 60.87 16.46 61.94 13.01C61.01 14.2 60.23 15.05 59.82 15.05C59.8 15.05 59.79 15.05 59.77 15.05C60.12 14.12 60.46 13.43 60.46 12.62C60.23 11.46 60.19 10.72 61.38 9.96004C61.74 9.92004 62.03 9.89004 62.29 9.89004C62.62 9.89004 62.89 9.94004 63.2 10.06C63.79 9.08004 64.48 8.33004 65.31 7.87004C65.31 7.68004 65.31 7.49004 65.33 7.29004L57.91 6.94004C57.42 6.63004 57.39 6.47004 57.91 6.25004H65.48C65.81 4.66004 66.56 3.06004 67.5 2.54004ZM67.5 0.540039C67.17 0.540039 66.84 0.620039 66.54 0.790039C65.21 1.52004 64.42 3.03004 63.97 4.25004H57.91C57.63 4.25004 57.36 4.31004 57.1 4.42004C55.89 4.95004 55.59 5.79004 55.54 6.40004C55.47 7.29004 55.91 8.04004 56.83 8.63004C57.12 8.82004 57.46 8.93004 57.81 8.94004L59.37 9.01004C58.1 10.32 58.27 11.83 58.44 12.75C58.4 13.02 58.27 13.36 58.09 13.81C58.02 13.98 57.95 14.16 57.88 14.34C57.67 14.89 57.72 15.5 58.01 16.01C58.24 16.42 58.6 16.73 59.02 16.9C58.67 19.26 58.48 21.95 58.45 24.97C55.06 27.69 52.97 29.35 49.61 31.72L1.91 33.9C0.84 33.95 0 34.83 0 35.9V45.63C0 46.69 0.82 47.56 1.88 47.63L24.29 49.02L27.89 49.33C39.06 50.28 46.64 50.93 58.45 50.99V54.56C58.45 59.07 60.19 69.11 61.97 76.73L41.58 79.45C40.59 79.58 39.84 80.43 39.84 81.43V87.8C39.84 88.8 40.58 89.65 41.57 89.78C50.34 90.96 58.39 91.64 65.01 91.75V92.46C65.04 93.37 65.66 94.15 66.54 94.37L67 94.49C67.16 94.53 67.32 94.55 67.49 94.55C67.66 94.55 67.82 94.53 67.98 94.49L68.44 94.37C69.32 94.15 69.94 93.37 69.95 92.46V91.75C76.58 91.64 84.63 90.96 93.4 89.78C94.39 89.65 95.13 88.8 95.13 87.8V81.43C95.13 80.43 94.39 79.58 93.39 79.45L73 76.73C74.79 69.11 76.52 59.06 76.52 54.56V50.99C88.34 50.93 95.92 50.28 107.08 49.33L110.73 49.02L133.1 47.63C134.15 47.56 134.98 46.69 134.98 45.63V35.9C134.98 34.83 134.14 33.95 133.07 33.9L85.37 31.73C82.01 29.36 79.91 27.69 76.53 24.98C76.5 21.97 76.31 19.27 75.96 16.91C76.39 16.74 76.75 16.43 76.97 16.02C77.25 15.51 77.3 14.9 77.1 14.35C77.03 14.17 76.96 13.99 76.89 13.82C76.71 13.37 76.58 13.02 76.54 12.76C76.71 11.84 76.88 10.33 75.61 9.02004L77.17 8.95004C77.52 8.93004 77.86 8.83004 78.15 8.64004C79.08 8.05004 79.51 7.30004 79.44 6.41004C79.39 5.80004 79.09 4.97004 77.88 4.43004C77.62 4.32004 77.35 4.26004 77.07 4.26004H71.01C70.57 3.04004 69.78 1.53004 68.44 0.800039C68.14 0.640039 67.81 0.550039 67.48 0.550039L67.5 0.540039Z" fill="black"/>
</g>
<defs>
<clipPath id="clip0_891_51">
<rect width="135" height="94" fill="white" transform="translate(0 0.540039)"/>
</clipPath>
</defs>
</svg>
