<svg width="117" height="103" viewBox="0 0 117 103" fill="none" xmlns="http://www.w3.org/2000/svg">
<g clip-path="url(#clip0_181_16)">
<path d="M58.3996 101.45C57.4896 101.45 57.0996 101.45 56.3496 94.17L40.6696 92.16C39.9296 92.16 38.5496 91.69 37.6396 88.52C37.0996 86.17 37.2696 84.41 38.1496 83.23C39.0096 82.07 40.1996 81.95 40.3396 81.94L55.0896 79.65C54.5996 73.85 53.5696 61.58 53.3696 58.94C52.6896 56.74 51.8496 56.51 51.8496 56.51C51.3696 56.42 9.49956 48.42 4.05956 47.44C3.51956 47.34 3.06956 46.96 2.87956 46.45C0.799562 40.86 0.469562 36.98 1.88956 34.94C2.81956 33.6 4.13956 33.53 4.39956 33.53C4.51956 33.53 22.3596 32.25 29.9196 31.83C35.6196 31.51 43.0296 30.51 47.4596 29.91C48.9396 29.71 50.0996 29.55 50.7396 29.48C52.4096 29.14 52.9396 28.33 53.0696 28.06C53.0696 27.48 53.0996 25.54 53.1496 22.99C53.1296 22.99 53.1096 22.99 53.0996 22.99C52.8496 22.99 52.5996 22.89 52.4196 22.72C52.2196 22.53 52.0996 22.27 52.0996 21.99C52.0996 21.02 52.2196 20.21 52.4696 19.57C52.3996 19.44 52.3696 19.29 52.3696 19.13C52.3696 18.2 52.5096 17.49 52.7096 16.93C52.5896 16.77 52.5296 16.57 52.5296 16.35C52.5296 15.38 52.6796 14.63 52.8996 14.07C52.7996 13.91 52.7396 13.73 52.7396 13.53C52.7396 11.85 53.1996 10.85 53.6696 10.26C53.7096 9.66002 53.7596 9.07002 53.7996 8.52002C51.1396 8.39002 44.4696 8.04002 42.8996 7.96002C42.8396 7.96002 42.7796 7.95002 42.7296 7.93002C41.6096 7.67002 41.4596 6.98002 41.4496 6.70002C41.4196 6.09002 41.8296 5.64002 42.6496 5.37002C44.8996 4.69002 50.9296 4.58002 51.1896 4.58002H54.6396C55.6396 1.29002 57.6796 1.02002 58.3196 1.02002H58.5296C59.1696 1.02002 61.2096 1.29002 62.2096 4.57002H65.6396C65.9096 4.57002 71.9496 4.69002 74.1696 5.35002C75.0096 5.62002 75.4096 6.07002 75.3896 6.68002C75.3796 6.96002 75.2296 7.65002 74.1096 7.91002C74.0496 7.92002 73.9896 7.93002 73.9396 7.94002C72.3696 8.02002 65.6996 8.37002 63.0396 8.50002C63.0896 9.06002 63.1296 9.64002 63.1696 10.24C63.6496 10.82 64.0996 11.82 64.0996 13.51C64.0996 13.71 64.0396 13.9 63.9396 14.05C64.1596 14.62 64.3096 15.36 64.3096 16.33C64.3096 16.54 64.2396 16.74 64.1296 16.91C64.3296 17.46 64.4696 18.18 64.4696 19.11C64.4696 19.27 64.4296 19.42 64.3696 19.55C64.6096 20.2 64.7396 21.01 64.7396 21.97C64.7396 22.25 64.6296 22.51 64.4196 22.7C64.2296 22.87 63.9896 22.97 63.7396 22.97C63.7196 22.97 63.6996 22.97 63.6896 22.97C63.7496 25.54 63.7696 27.48 63.7696 28.05C63.8896 28.29 64.4196 29.12 66.1896 29.48C66.7496 29.54 67.8996 29.69 69.3896 29.89C73.8196 30.49 81.2296 31.49 86.9296 31.81C94.4896 32.23 112.33 33.5 112.51 33.51C112.94 33.53 114.1 33.69 114.96 34.92C116.38 36.97 116.05 40.84 113.97 46.43C113.78 46.94 113.32 47.33 112.79 47.42C107.35 48.4 65.4796 56.4 65.0596 56.48C65.0096 56.48 64.9596 56.49 64.9096 56.5C64.9596 56.5 64.1396 56.76 63.4696 58.92C63.2596 61.83 62.0396 76.29 61.7496 79.63L76.5796 81.93C76.6296 81.93 77.8196 82.05 78.6796 83.21C79.5496 84.39 79.7296 86.15 79.1996 88.45C78.2696 91.67 76.8896 92.15 76.1496 92.15L60.4696 94.16C59.7196 101.45 59.3496 101.45 58.4196 101.45H58.3996Z" fill="white"/>
<path d="M58.5098 2C58.9598 2 60.6798 2.22 61.4198 5.55H65.6198C65.6198 5.55 71.7498 5.66 73.8698 6.29C75.0098 6.66 73.8698 6.93 73.8698 6.93C73.8698 6.93 62.3098 7.54 61.9298 7.54C62.0198 8.49 62.1098 9.54 62.1798 10.66C62.5198 10.96 63.0898 11.74 63.0898 13.51H62.4198C62.7598 13.83 63.2998 14.61 63.2998 16.34H62.6298C62.9698 16.69 63.4598 17.47 63.4598 19.12H62.9198C63.2998 19.48 63.7198 20.26 63.7198 21.98C63.3998 21.96 62.8798 21.89 62.6398 21.86C62.7298 25.52 62.7498 28.24 62.7498 28.24C62.7498 28.24 63.1698 29.9 65.9698 30.47C68.5498 30.75 79.2098 32.4 86.8498 32.82C94.4898 33.24 112.41 34.52 112.41 34.52C112.65 34.52 117.24 34.67 112.99 46.1C112.92 46.29 112.76 46.42 112.57 46.46C107.06 47.46 64.8298 55.53 64.8298 55.53C64.8298 55.53 63.3998 55.58 62.4398 58.77C62.2398 61.54 60.8398 78.1 60.6598 80.28C60.6498 80.41 60.7398 80.53 60.8798 80.55L76.3898 82.95C76.3898 82.95 79.3598 83.16 78.1898 88.25C77.3998 91.01 76.3598 91.17 76.1198 91.17C76.0898 91.17 76.0698 91.17 76.0698 91.17L59.5198 93.29C59.5198 93.29 58.8098 100.47 58.3798 100.47C57.9498 100.47 57.2398 93.29 57.2398 93.29L40.6898 91.17C40.6898 91.17 40.6698 91.17 40.6398 91.17C40.3998 91.17 39.3598 91.01 38.5698 88.25C37.3998 83.16 40.3698 82.95 40.3698 82.95L55.8798 80.55C56.0098 80.53 56.1098 80.41 56.0998 80.28C55.9198 78.1 54.5098 61.55 54.3198 58.77C53.3698 55.59 51.9298 55.53 51.9298 55.53C51.9298 55.53 9.69976 47.46 4.18976 46.46C3.99976 46.42 3.82976 46.29 3.76976 46.1C-0.480236 34.67 4.10976 34.52 4.34976 34.52C4.34976 34.52 22.2798 33.25 29.9098 32.82C37.5398 32.39 48.2098 30.75 50.7898 30.47C53.5798 29.9 54.0098 28.24 54.0098 28.24C54.0098 28.24 54.0298 25.52 54.1198 21.86C53.8798 21.89 53.3598 21.96 53.0398 21.98C53.0398 20.26 53.4598 19.47 53.8398 19.12H53.2998C53.2998 17.48 53.7898 16.69 54.1298 16.34H53.4598C53.4598 14.61 53.9998 13.83 54.3398 13.51H53.6698C53.6698 11.74 54.2398 10.97 54.5798 10.66C54.6498 9.55 54.7398 8.49 54.8298 7.54C54.4498 7.54 42.8898 6.93 42.8898 6.93C42.8898 6.93 41.7498 6.66 42.8898 6.29C45.0098 5.65 51.1398 5.55 51.1398 5.55H55.3398C56.0798 2.21 57.8098 1.99 58.2498 1.99C58.3198 1.99 58.3498 1.99 58.3498 1.99C58.3498 1.99 58.3898 1.99 58.4598 1.99M58.5098 0C58.5098 0 58.4298 0 58.3998 0C58.3698 0 58.3398 0 58.2998 0C57.7498 0 55.2398 0.19 53.9098 3.56H51.1898C50.4998 3.57 44.6898 3.69 42.3698 4.39C40.5598 4.98 40.4198 6.22 40.4398 6.73C40.4798 7.55 41.0298 8.55 42.4898 8.89C42.5998 8.92 42.7198 8.93 42.8398 8.94C45.2698 9.07 49.9498 9.31 52.7098 9.45C52.6998 9.59 52.6898 9.74 52.6798 9.88C52.1698 10.63 51.7198 11.77 51.7198 13.51C51.7198 13.72 51.7498 13.91 51.8098 14.1C51.6298 14.71 51.5098 15.44 51.5098 16.34C51.5098 16.57 51.5498 16.79 51.6198 16.99C51.4598 17.57 51.3498 18.27 51.3498 19.11C51.3498 19.26 51.3698 19.41 51.3998 19.55C51.1898 20.24 51.0898 21.05 51.0898 21.97C51.0898 22.52 51.3198 23.05 51.7198 23.43C51.8398 23.55 51.9798 23.64 52.1198 23.72C52.0798 25.57 52.0598 27.02 52.0598 27.73C51.8898 27.92 51.4698 28.27 50.5198 28.47C49.8398 28.55 48.7198 28.7 47.3198 28.89C42.8998 29.49 35.5098 30.49 29.8398 30.8C22.4998 31.21 5.45976 32.41 4.30976 32.49C3.32976 32.51 1.96976 33.01 1.04976 34.33C-0.590235 36.7 -0.310236 40.76 1.91976 46.76C2.22976 47.6 2.97976 48.23 3.85976 48.39C9.17976 49.35 49.3598 57.03 51.4898 57.44C51.6198 57.56 51.9898 57.97 52.3598 59.1C52.5798 62 53.5998 74.15 53.9898 78.78L40.1198 80.93C39.6498 80.99 38.3198 81.27 37.3198 82.61C36.2698 84.03 36.0298 86.07 36.6298 88.66C36.6298 88.7 36.6498 88.73 36.6598 88.77C37.7298 92.5 39.5598 93.11 40.5898 93.14L55.4198 95.04C55.4898 95.65 55.5698 96.37 55.6698 97.1C56.1098 100.54 56.3598 102.43 58.3798 102.43C60.3998 102.43 60.6498 100.53 61.0898 97.09C61.1798 96.36 61.2698 95.63 61.3398 95.03L76.1698 93.13C77.1998 93.11 79.0298 92.49 80.0998 88.76C80.1098 88.72 80.1198 88.69 80.1298 88.65C80.7198 86.06 80.4898 84.02 79.4398 82.6C78.4498 81.26 77.1098 80.98 76.6398 80.92L62.7698 78.77C63.1598 74.14 64.1798 61.99 64.3998 59.09C64.7698 57.95 65.1398 57.54 65.2698 57.43C67.3998 57.02 107.59 49.34 112.9 48.38C113.78 48.22 114.53 47.6 114.84 46.75C117.07 40.75 117.36 36.68 115.71 34.32C114.79 32.99 113.44 32.5 112.45 32.48C111.29 32.4 94.2598 31.19 86.9198 30.79C81.2598 30.48 73.8598 29.47 69.4398 28.88C68.0398 28.69 66.9198 28.54 66.2398 28.46C65.2898 28.25 64.8698 27.91 64.6998 27.72C64.6998 27.01 64.6698 25.56 64.6398 23.71C64.7898 23.63 64.9198 23.53 65.0398 23.42C65.4398 23.04 65.6698 22.51 65.6698 21.96C65.6698 21.04 65.5598 20.23 65.3598 19.54C65.3898 19.4 65.4098 19.25 65.4098 19.1C65.4098 18.26 65.3098 17.56 65.1398 16.98C65.2098 16.78 65.2498 16.56 65.2498 16.33C65.2498 15.44 65.1298 14.7 64.9498 14.09C65.0098 13.9 65.0398 13.7 65.0398 13.5C65.0398 11.76 64.5998 10.62 64.0798 9.87C64.0698 9.72 64.0598 9.58 64.0498 9.44C66.8098 9.3 71.4998 9.06 73.9198 8.93C74.0398 8.93 74.1498 8.91 74.2698 8.88C75.7298 8.54 76.2898 7.54 76.3198 6.72C76.3398 6.21 76.1998 4.97 74.4298 4.4C72.0698 3.69 66.2498 3.57 65.5998 3.56H62.8398C61.5098 0.2 58.9998 0.01 58.4498 0.01L58.5098 0Z" fill="black"/>
</g>
<defs>
<clipPath id="clip0_181_16">
<rect width="116.8" height="102.45" fill="white"/>
</clipPath>
</defs>
</svg>
