<svg width="112" height="80" viewBox="0 0 112 80" fill="none" xmlns="http://www.w3.org/2000/svg">
<g clip-path="url(#clip0_547_12)">
<path d="M55.85 78.99C55.76 78.99 55.66 78.99 55.57 78.97C55.41 78.95 55.26 78.9 55.13 78.82C54.59 78.53 54.37 77.95 54.41 77.49V76.12C53.27 77.34 52.02 77.47 51.94 77.48C51.49 77.57 50.88 77.62 50.22 77.62C46.12 77.62 40.15 75.49 40.13 72.14C40.11 66.5 48.22 62.73 53.32 62.2C53.07 62.02 52.84 61.74 52.74 61.29C52.66 60.96 52.64 60.42 53.05 59.96C51.77 48.88 51.43 40.05 51.35 37.18C45.34 37.19 13.61 37.25 12.69 37.25C9.54 37.21 1.32 35.24 1 26.69C1.3 17.89 8.77 17.61 8.84 17.61L44.77 17.47V17.33C44.77 16.18 45.7 15.24 46.84 15.24C47.99 15.24 48.93 16.17 48.93 17.32V17.46H50.94L50.88 12.31C50.83 12.26 50.78 12.21 50.74 12.16C50.6 11.98 50.53 11.72 50.52 11.47L50.49 4.83003C50.49 4.49003 50.55 4.20003 50.64 3.96003C46.01 3.84003 46.01 3.61003 46 2.68003C45.98 1.50003 45.98 1.45003 55.55 1.03003C65.42 1.28003 65.42 1.30003 65.42 2.49003C65.42 3.45003 65.42 3.65003 60.56 3.87003C60.67 4.14003 60.73 4.44003 60.73 4.79003V11.43C60.73 11.68 60.65 11.94 60.51 12.12C60.47 12.17 60.42 12.23 60.37 12.27L60.34 17.43H62.34V17.29C62.34 16.14 63.28 15.21 64.42 15.21C65.56 15.21 66.5 16.14 66.5 17.29V17.43H102.41C102.51 17.43 109.97 17.68 110.31 26.41C110.02 35.03 101.81 37.03 98.67 37.08C97.73 37.08 66.01 37.15 59.99 37.16C59.92 40.03 59.61 48.85 58.37 59.94C58.79 60.4 58.76 60.94 58.69 61.27C58.59 61.72 58.37 62 58.11 62.18C63.22 62.69 71.34 66.43 71.34 72.07C71.34 75.44 65.35 77.59 61.23 77.59C60.59 77.59 60 77.54 59.47 77.44C59.47 77.44 58.22 77.31 57.1 76.11V77.55C57.13 77.92 56.95 78.44 56.49 78.75C56.31 78.91 56.09 79.01 55.84 79.01L55.85 78.99Z" fill="white"/>
<path d="M55.6 2C65.26 2.24 69.17 2.55 55.93 3.01V3.13C55.93 3.13 56.04 3.11 56.17 3.11C56.42 3.11 56.79 3.17 56.79 3.51H58.47C58.47 3.51 58.47 3.51 58.49 3.51C58.64 3.51 59.74 3.55 59.74 4.75V11.39C59.74 11.39 59.78 11.52 59.58 11.52H59.39L59.34 18.21C59.34 18.21 59.46 18.26 59.53 18.38H63.35V17.24C63.35 16.64 63.84 16.16 64.43 16.16C65.02 16.16 65.51 16.65 65.51 17.24V18.38H102.42C102.42 18.38 109.01 18.51 109.32 26.4C109.05 34.41 101.18 36 98.67 36.04C97.65 36.04 59.03 36.12 59.03 36.12C59.03 36.12 58.92 46.45 57.34 60.36C57.6 60.48 57.83 60.62 57.74 61.02C57.7 61.22 57.62 61.4 57.22 61.43C57.16 61.98 57.09 62.53 57.02 63.09C61.49 63.09 70.37 66.63 70.37 72.04C70.37 74.54 65.13 76.56 61.26 76.56C60.7 76.56 60.16 76.52 59.68 76.43C59.68 76.43 57.39 76.23 56.58 72.81C56.58 73.07 56.52 74.55 56.52 74.55H56.13V77.52C56.13 77.52 56.15 77.84 55.87 77.93C55.87 77.95 55.87 77.97 55.87 77.98C55.81 77.98 55.76 77.98 55.71 77.96C55.71 77.96 55.7 77.96 55.69 77.96C55.69 77.96 55.69 77.96 55.69 77.95C55.4 77.85 55.42 77.54 55.42 77.54V74.57H55.02C55.02 74.57 54.95 73.1 54.95 72.83C54.15 76.25 51.86 76.46 51.86 76.46C51.36 76.55 50.81 76.6 50.23 76.6C46.36 76.6 41.16 74.61 41.15 72.12C41.13 66.71 50 63.14 54.47 63.12C54.4 62.56 54.33 62.01 54.26 61.46C53.86 61.43 53.78 61.25 53.73 61.05C53.64 60.66 53.87 60.51 54.13 60.39C52.49 46.49 52.34 36.16 52.34 36.16C52.34 36.16 13.72 36.23 12.7 36.23C10.19 36.2 2.32 34.64 2.01 26.63C2.28 18.74 8.88 18.58 8.88 18.58C8.88 18.58 33.99 18.48 45.79 18.44V17.3C45.79 16.7 46.27 16.21 46.87 16.21C47.47 16.21 47.95 16.69 47.95 17.29V18.43C50.31 18.43 51.76 18.42 51.78 18.42C51.85 18.3 51.97 18.25 51.97 18.25L51.9 11.56C51.9 11.56 51.85 11.56 51.71 11.56C51.52 11.56 51.55 11.43 51.55 11.43C51.55 11.43 51.53 6.08 51.52 4.79C51.52 3.58 52.63 3.54 52.76 3.54H52.77C52.77 3.54 54.18 3.54 54.45 3.54C54.45 3.19 54.82 3.13 55.07 3.13C55.2 3.13 55.31 3.15 55.31 3.15V3.02C44.16 2.85 44.26 2.51 55.61 2M55.6 0C55.6 0 55.54 0 55.51 0C52.64 0.13 50.45 0.25 49 0.36C46.84 0.52 44.97 0.66 45 2.67C45.03 4.68 46.86 4.76 48.98 4.86C49.14 4.86 49.31 4.87 49.5 4.88L49.53 11.36C49.51 11.81 49.63 12.27 49.89 12.65L49.93 16.44H49.81C49.43 15.16 48.25 14.22 46.85 14.22C46.01 14.22 45.24 14.55 44.66 15.13C44.29 15.51 44.02 15.96 43.88 16.46L8.85 16.6C5.89 16.67 0.27 18.84 0 26.57C0 26.62 0 26.67 0 26.72C0.36 36.04 9.26 38.2 12.66 38.24C13.56 38.24 42.52 38.19 50.38 38.17C50.5 41.73 50.88 49.79 52.02 59.69C51.7 60.25 51.65 60.88 51.75 61.42C46.28 62.47 39.11 66.37 39.13 72.14C39.15 76.31 45.69 78.62 50.21 78.62C50.9 78.62 51.55 78.57 52.13 78.46C52.51 78.41 52.96 78.28 53.44 78.05C53.58 78.75 54.02 79.36 54.64 79.7C54.88 79.84 55.15 79.94 55.44 79.97C55.57 79.99 55.7 80 55.84 80C56.4 80 56.9 79.77 57.27 79.4C57.68 79.05 57.96 78.56 58.07 78.03C58.55 78.26 59 78.38 59.38 78.43C59.95 78.53 60.58 78.58 61.25 78.58C65.79 78.58 72.36 76.26 72.36 72.06C72.36 66.29 65.18 62.42 59.7 61.39C59.8 60.85 59.75 60.22 59.42 59.66C60.51 49.76 60.86 41.7 60.97 38.14C68.83 38.12 97.79 38.06 98.66 38.06C102.09 38 110.99 35.82 111.31 26.49C111.31 26.44 111.31 26.39 111.31 26.34C111.01 18.61 105.39 16.46 102.45 16.4H67.38C67.01 15.11 65.82 14.17 64.42 14.17C63.02 14.17 61.83 15.11 61.46 16.4H61.34L61.37 12.61C61.63 12.23 61.75 11.77 61.73 11.32V4.77C62.03 4.75 62.31 4.74 62.57 4.72C64.56 4.59 66.44 4.46 66.43 2.46C66.43 1.61 66 0.55 63.99 0.35C63.55 0.31 62.93 0.26 62.09 0.22C60.62 0.15 58.52 0.08 55.65 0C55.63 0 55.62 0 55.6 0Z" fill="black"/>
</g>
<defs>
<clipPath id="clip0_547_12">
<rect width="111.32" height="79.99" fill="white"/>
</clipPath>
</defs>
</svg>
