<svg width="123" height="93" viewBox="0 0 123 93" fill="none" xmlns="http://www.w3.org/2000/svg">
<g clip-path="url(#clip0_442_2)">
<path d="M61.41 91.06C60.71 91.06 60.15 90.49 60.06 89.67L59.96 88.85L42.9 88.32C41.23 88.24 40.76 87.09 40.71 86.96C39.29 83.19 39.13 80.44 40.24 78.81C41.13 77.49 42.46 77.42 42.61 77.42C42.78 77.42 53.84 77.73 57.78 77.81C55.82 63.5 54.1 49.81 53.59 45.73L52.63 45.71C11.78 44.97 5.29002 44.86 5.05002 44.86C3.80002 44.86 3.10002 43.91 2.89002 43.35C1.85002 40.43 1.57002 37.89 1.44002 36.68C1.43002 36.55 1.41002 36.44 1.40002 36.35C0.950021 35.52 1.11002 34.7 1.36002 34.18C1.41002 33.29 1.62002 30.17 2.06002 28.69C2.64002 26.71 4.00002 26.55 4.40002 26.55C4.43002 26.55 4.48002 26.55 4.53002 26.55C5.30002 26.57 33.31 27.3 36.51 27.36V24.25C36.03 23.05 35.79 21.8 35.79 20.52C35.79 19.88 36.06 19.43 36.37 19.13V18.88C36.37 18.06 36.6 17.41 36.92 16.89C35.03 16.89 33.37 16.7 31.99 16.35C31.46 16.21 31.09 15.73 31.1 15.18C31.1 14.63 31.48 14.16 32.02 14.04C33.16 13.78 34.48 13.64 35.95 13.64C37.61 13.64 39.15 13.81 40.16 13.96C40.76 11.93 41.43 11.08 42.41 11.08C43.39 11.08 44.04 11.92 44.63 13.95C45.32 13.9 46.22 13.86 47.19 13.86C49.43 13.86 51.18 14.09 52.39 14.55C52.86 14.73 53.15 15.2 53.13 15.72C53.1 16.24 52.76 16.68 52.28 16.81C51.5 17.02 50.49 17.13 49.27 17.13C48.86 17.13 48.44 17.12 48.02 17.1C48.32 17.77 48.43 18.53 48.46 19.08C48.91 19.48 49.14 20.28 49.14 21.46C49.14 23.17 48.78 24.22 48.56 24.7V27.26L54 25.01V22.24C54.23 16.04 57.1 0.97998 61.44 0.97998C65.78 0.97998 68.65 16.05 68.87 22.21V25L74.32 27.26V24.7C74.1 24.22 73.74 23.17 73.74 21.46C73.74 20.28 73.97 19.48 74.42 19.08C74.45 18.52 74.56 17.77 74.86 17.1C74.44 17.12 74.02 17.13 73.61 17.13C72.39 17.13 71.38 17.02 70.6 16.81C70.12 16.68 69.77 16.24 69.75 15.72C69.72 15.2 70.02 14.73 70.49 14.55C71.69 14.09 73.44 13.86 75.68 13.86C76.65 13.86 77.55 13.9 78.24 13.95C78.83 11.92 79.49 11.08 80.46 11.08C81.43 11.08 82.11 11.93 82.71 13.96C83.72 13.81 85.26 13.64 86.92 13.64C88.38 13.64 89.7 13.77 90.85 14.04C91.38 14.16 91.76 14.63 91.77 15.18C91.77 15.73 91.41 16.21 90.88 16.35C89.49 16.7 87.84 16.88 85.95 16.89C86.28 17.41 86.5 18.06 86.5 18.88V19.13C86.82 19.43 87.08 19.88 87.08 20.52C87.08 21.8 86.84 23.06 86.36 24.25V27.36C89.56 27.3 117.56 26.57 118.34 26.55C118.39 26.55 118.44 26.55 118.47 26.55C118.87 26.55 120.23 26.7 120.81 28.69C121.24 30.16 121.46 33.29 121.51 34.18C121.76 34.7 121.92 35.51 121.47 36.35C121.46 36.44 121.45 36.55 121.43 36.68C121.3 37.9 121.02 40.44 119.99 43.33C119.77 43.91 119.07 44.87 117.82 44.87C117.59 44.87 111.1 44.98 70.24 45.72L69.28 45.74C68.77 49.82 67.05 63.5 65.09 77.82C69.02 77.75 80.09 77.44 80.21 77.43C80.41 77.43 81.74 77.5 82.63 78.82C83.73 80.45 83.58 83.2 82.16 86.97C82.11 87.1 81.64 88.25 79.99 88.33L62.91 88.86L62.81 89.69C62.72 90.5 62.16 91.07 61.46 91.07L61.41 91.06Z" fill="white"/>
<path d="M61.41 2C64.4 2 67.58 14.86 67.84 22.26V25.02C67.84 25.43 68.09 25.8 68.47 25.96L74.71 28.54C74.71 28.54 75.29 28.52 75.29 27.78V24.49C75.29 24.49 74.71 23.57 74.71 21.49C74.71 20.01 75.05 19.8 75.24 19.8C75.32 19.8 75.38 19.84 75.38 19.84C75.38 19.84 75.17 16.56 77.1 16.56H78.63C78.63 16.56 78.69 16.21 78.8 15.7C77.67 15.88 75.54 16.16 73.57 16.16C72.56 16.16 71.59 16.08 70.82 15.88C70.68 15.84 70.66 15.57 70.8 15.52C72.08 15.03 73.96 14.89 75.64 14.89C77.02 14.89 78.27 14.98 78.95 15.04C79.26 13.75 79.79 12.11 80.42 12.11C81.08 12.11 81.63 13.86 81.94 15.12C82.67 14.99 84.66 14.66 86.88 14.66C88.1 14.66 89.39 14.76 90.58 15.03C90.77 15.07 90.77 15.34 90.58 15.39C89.04 15.78 87.3 15.9 85.78 15.9C84.1 15.9 82.68 15.76 82.06 15.68C82.15 16.1 82.2 16.38 82.2 16.38H83.72C83.72 16.38 85.44 16.89 85.44 18.89V19.67C85.44 19.67 86.02 19.85 86.02 20.52C86.02 21.19 85.95 22.51 85.3 24.06V27.87C85.3 27.87 85.02 28.37 86.03 28.37C87.04 28.37 118.32 27.55 118.32 27.55C118.32 27.55 118.35 27.55 118.41 27.55C118.67 27.55 119.41 27.67 119.8 28.97C120.27 30.56 120.47 34.46 120.47 34.46C120.47 34.46 120.99 35.2 120.45 36C120.34 36.67 120.2 39.6 118.99 42.98C118.99 42.98 118.65 43.85 117.76 43.85C117.18 43.85 75.24 44.61 69.09 44.72C68.66 44.72 68.3 45.05 68.25 45.48C67.83 48.88 66.01 63.36 63.96 78.26C63.92 78.55 64.14 78.81 64.44 78.81C67.72 78.76 80.18 78.41 80.18 78.41C80.18 78.41 84.21 78.5 81.16 86.6C81.16 86.6 80.91 87.26 79.87 87.31L61.95 87.86L61.75 89.54C61.75 89.54 61.69 90.04 61.39 90.04C61.09 90.04 61.03 89.54 61.03 89.54L60.83 87.86L42.91 87.31C41.87 87.26 41.62 86.6 41.62 86.6C38.58 78.5 42.61 78.41 42.61 78.41C42.61 78.41 55.06 78.76 58.35 78.81C58.64 78.81 58.87 78.55 58.83 78.26C56.78 63.36 54.97 48.88 54.54 45.48C54.49 45.05 54.13 44.73 53.7 44.72C47.54 44.61 5.61001 43.85 5.03001 43.85C4.13001 43.85 3.80001 42.98 3.80001 42.98C2.59001 39.6 2.46001 36.67 2.34001 36C1.80001 35.19 2.32001 34.46 2.32001 34.46C2.32001 34.46 2.52001 30.57 2.99001 28.97C3.37001 27.67 4.12001 27.55 4.38001 27.55C4.44001 27.55 4.47001 27.55 4.47001 27.55C4.47001 27.55 35.75 28.37 36.76 28.37C37.77 28.37 37.49 27.87 37.49 27.87V24.06C36.84 22.52 36.77 21.19 36.77 20.52C36.77 19.85 37.35 19.67 37.35 19.67V18.89C37.35 16.9 39.07 16.38 39.07 16.38H40.59C40.59 16.38 40.64 16.1 40.73 15.68C40.11 15.75 38.69 15.9 37.01 15.9C35.49 15.9 33.76 15.78 32.21 15.39C32.02 15.34 32.03 15.07 32.21 15.03C33.4 14.75 34.69 14.66 35.91 14.66C38.14 14.66 40.13 14.98 40.85 15.12C41.16 13.86 41.71 12.11 42.37 12.11C43.03 12.11 43.52 13.75 43.84 15.04C44.52 14.98 45.77 14.89 47.15 14.89C48.83 14.89 50.7 15.03 51.99 15.52C52.13 15.57 52.11 15.84 51.97 15.88C51.2 16.09 50.23 16.16 49.22 16.16C47.25 16.16 45.12 15.87 43.99 15.7C44.1 16.21 44.16 16.56 44.16 16.56H45.69C47.62 16.56 47.41 19.84 47.41 19.84C47.41 19.84 47.47 19.8 47.55 19.8C47.75 19.8 48.09 20.01 48.09 21.49C48.09 23.57 47.51 24.49 47.51 24.49V27.78C47.51 28.52 48.09 28.54 48.09 28.54L54.33 25.96C54.71 25.8 54.96 25.43 54.96 25.02V22.26C55.22 14.86 58.4 2 61.39 2M61.41 0C58.95 0 56.99 2.8 55.25 8.8C54.72 10.64 54.25 12.66 53.87 14.68C53.63 14.21 53.23 13.84 52.73 13.65C51.41 13.15 49.55 12.89 47.18 12.89C46.53 12.89 45.9 12.91 45.35 12.94C44.86 11.57 44.02 10.11 42.41 10.11C40.8 10.11 39.96 11.52 39.46 12.88C38.49 12.76 37.26 12.66 35.95 12.66C34.41 12.66 33.01 12.8 31.8 13.08C30.81 13.31 30.12 14.17 30.11 15.19C30.1 16.2 30.78 17.08 31.76 17.33C32.85 17.61 34.1 17.78 35.48 17.86C35.42 18.14 35.39 18.44 35.38 18.75C35.03 19.21 34.8 19.81 34.8 20.52C34.8 21.86 35.04 23.18 35.52 24.44V26.34C30.45 26.22 12.26 25.75 4.63001 25.55C4.57001 25.55 4.49001 25.55 4.41001 25.55C3.22001 25.55 1.73001 26.3 1.11001 28.41C0.670011 29.9 0.450011 32.81 0.380011 33.94C0.0600113 34.71 1.12653e-05 35.7 0.430011 36.63C0.430011 36.68 0.440011 36.73 0.450011 36.79C0.590011 38.05 0.870011 40.67 1.94001 43.67C2.37001 44.79 3.49001 45.87 5.05001 45.87C5.76001 45.87 38.78 46.47 52.71 46.72C53.31 51.49 54.86 63.78 56.64 76.79C52.07 76.69 42.81 76.43 42.7 76.43C42.68 76.43 42.66 76.43 42.64 76.43C42.63 76.43 42.61 76.43 42.6 76.43C41.69 76.45 40.31 76.94 39.42 78.26C38.1 80.2 38.22 83.17 39.79 87.33C40.11 88.2 41.11 89.25 42.85 89.34L59.09 89.84C59.25 91.13 60.23 92.08 61.43 92.08C62.63 92.08 63.61 91.14 63.77 89.84L79.98 89.34C81.75 89.25 82.75 88.2 83.08 87.33C84.64 83.18 84.76 80.21 83.44 78.27C82.55 76.95 81.17 76.46 80.26 76.44C80.25 76.44 80.23 76.44 80.22 76.44C80.2 76.44 80.18 76.44 80.16 76.44C80.05 76.44 70.81 76.7 66.22 76.8C68.04 63.5 69.62 50.9 70.15 46.73C84.07 46.48 117.09 45.88 117.81 45.88C119.37 45.88 120.49 44.8 120.9 43.73C121.99 40.68 122.27 38.07 122.41 36.81C122.41 36.75 122.42 36.7 122.43 36.65C122.86 35.71 122.8 34.73 122.48 33.95C122.41 32.82 122.19 29.92 121.75 28.42C121.13 26.31 119.64 25.56 118.45 25.56C118.37 25.56 118.3 25.56 118.23 25.56C110.59 25.76 92.35 26.23 87.34 26.35V24.45C87.82 23.19 88.06 21.87 88.06 20.53C88.06 19.82 87.83 19.22 87.48 18.76C87.48 18.44 87.44 18.15 87.38 17.87C88.76 17.8 90.01 17.62 91.1 17.34C92.08 17.09 92.76 16.21 92.75 15.2C92.75 14.19 92.04 13.32 91.06 13.09C89.84 12.81 88.45 12.67 86.91 12.67C85.6 12.67 84.37 12.77 83.4 12.89C82.9 11.52 82.04 10.12 80.45 10.12C78.86 10.12 77.99 11.57 77.51 12.95C76.96 12.92 76.33 12.9 75.68 12.9C73.31 12.9 71.45 13.16 70.13 13.66C69.62 13.85 69.22 14.23 68.99 14.69C68.62 12.68 68.15 10.65 67.61 8.81C65.87 2.81 63.91 0.01 61.45 0.01L61.41 0ZM69.84 24.36V22.26C69.84 22.26 69.84 22.21 69.84 22.19C69.79 20.71 69.62 19.03 69.37 17.27C69.62 17.52 69.94 17.7 70.3 17.8C71.16 18.03 72.2 18.15 73.48 18.15C73.45 18.34 73.42 18.53 73.4 18.71C73.27 18.87 73.16 19.05 73.07 19.25C72.81 19.81 72.69 20.52 72.69 21.48C72.69 23.16 73 24.28 73.27 24.93V25.78L69.82 24.35L69.84 24.36ZM49.34 18.16C50.62 18.16 51.66 18.04 52.52 17.81C52.88 17.71 53.19 17.53 53.45 17.28C53.2 19.04 53.04 20.72 52.98 22.2C52.98 22.22 52.98 22.25 52.98 22.27V24.37L49.53 25.8V24.95C49.8 24.3 50.11 23.17 50.11 21.5C50.11 20.13 49.81 19.27 49.41 18.72C49.39 18.54 49.37 18.36 49.34 18.17V18.16Z" fill="black"/>
</g>
<defs>
<clipPath id="clip0_442_2">
<rect width="122.6" height="92.06" fill="white" transform="translate(0.110016)"/>
</clipPath>
</defs>
</svg>
