<svg width="122" height="85" viewBox="0 0 122 85" fill="none" xmlns="http://www.w3.org/2000/svg">
<g clip-path="url(#clip0_442_7)">
<path d="M47.4299 83.61C46.0599 83.61 45.5699 82.86 45.4799 82.34C45.4599 82.24 45.3599 81.83 45.1399 81.03C44.5399 78.41 44.6799 76.51 45.5599 75.33C46.2999 74.33 47.2799 74.23 47.3899 74.23H58.2999C55.9199 62.88 54.6099 46.4 54.2899 42.08H45.1699C44.6899 43.33 43.5199 44.86 41.3199 44.86C39.1199 44.86 37.8699 43.29 37.3399 42.04H34.5499C33.2799 41.92 5.67991 39.29 3.68991 38.92C1.40991 38.5 0.949907 36.98 1.01991 36.23V28.87C1.01991 27.37 2.12991 26.4 3.85991 26.4C3.99991 26.4 4.10991 26.4 4.18991 26.41L30.6599 23.94C32.1899 23.8 33.7499 23.73 35.2999 23.73H35.9999V18.81C35.9999 16.85 36.7999 15.81 37.5699 15.24C30.9699 15.19 30.9799 14.99 30.9799 13.96C30.9799 12.84 30.9799 12.7 39.3099 12.67C39.6499 11.74 40.2099 10.89 41.0699 10.89C41.7999 10.89 42.3299 11.45 42.7699 12.67C51.1399 12.7 51.1399 12.85 51.1399 13.96C51.1399 14.99 51.1399 15.19 44.5399 15.24C46.2299 16.32 46.3499 18.16 46.1199 19.19V23.81H46.5199C46.9899 23.81 47.4399 23.72 47.8699 23.55L53.9899 21.05C54.1899 15.8 57.1299 1.01001 60.8799 1.01001C64.6299 1.01001 67.5699 15.79 67.7699 21.05L73.8899 23.55C74.3199 23.73 74.7699 23.81 75.2399 23.81H75.6399V19.19C75.4099 18.16 75.5299 16.32 77.2199 15.24C70.6199 15.19 70.6199 14.99 70.6199 13.96C70.6199 12.84 70.6199 12.7 78.9899 12.67C79.4199 11.45 79.9599 10.89 80.6899 10.89C81.5499 10.89 82.1099 11.74 82.4499 12.67C90.7799 12.7 90.7799 12.85 90.7799 13.96C90.7799 15 90.7799 15.19 84.1899 15.24C84.9599 15.81 85.7599 16.85 85.7599 18.81V23.73H86.4499C87.9899 23.73 89.5499 23.8 91.0899 23.94L117.56 26.41C117.64 26.41 117.75 26.4 117.89 26.4C119.62 26.4 120.74 27.37 120.74 28.87V36.33C120.81 36.98 120.34 38.51 118.07 38.93C116.07 39.3 88.4799 41.93 87.2999 42.05H84.4099C83.8699 43.31 82.6299 44.88 80.4299 44.88C78.2299 44.88 77.0599 43.35 76.5799 42.1H67.4599C67.1399 46.41 65.8299 62.87 63.4299 74.25H74.2799C74.4699 74.25 75.4499 74.3 76.2099 75.25C77.1199 76.4 77.2499 78.34 76.6199 81.02C76.3899 81.85 76.2899 82.26 76.2699 82.37C76.1799 82.89 75.6899 83.64 74.3199 83.64H47.4899L47.4299 83.61Z" fill="white"/>
<path d="M60.8499 2C63.2899 2 66.6399 14.92 66.7499 21.39C66.7499 21.59 66.8699 21.76 67.0599 21.84L73.4899 24.46C74.0399 24.68 74.63 24.8 75.2199 24.8H76.6199V19.05C76.6199 19.05 75.9499 16.63 78.4299 15.72C78.4299 15.72 79.45 15.21 79.5099 14.59C79.5099 14.5 79.5399 14.38 79.5699 14.23C68.8899 14.2 68.9399 13.67 79.7099 13.64C79.9299 12.83 80.2999 11.86 80.6699 11.86C81.0399 11.86 81.4599 12.75 81.6999 13.64C92.4099 13.67 92.45 14.19 81.8299 14.23C81.8599 14.44 81.8799 14.63 81.8799 14.8C81.9299 15.15 82.1699 15.34 82.6699 15.54C83.4399 15.86 84.7399 16.43 84.7399 18.79V24.71H86.4299C87.9499 24.71 89.4599 24.78 90.9699 24.92L117.53 27.4C117.53 27.4 117.66 27.38 117.86 27.38C118.47 27.38 119.71 27.54 119.71 28.85V36.31C119.71 36.31 119.83 37.56 117.86 37.92C115.88 38.28 87.1799 41.02 87.1799 41.02H83.6699C83.6699 41.02 83.02 43.84 80.3999 43.84C77.7799 43.84 77.2999 41.06 77.2999 41.06H66.9499C66.6899 41.06 66.4799 41.26 66.4599 41.52C66.2399 44.61 64.8699 62.69 62.2999 74.57C62.2999 74.57 62.24 75.21 62.54 75.21H74.2499C74.3599 75.21 76.91 75.27 75.6099 80.75C75.34 81.72 75.2499 82.14 75.2499 82.14C75.2499 82.14 75.2199 82.59 74.2799 82.59H47.45C46.51 82.59 46.4799 82.14 46.4799 82.14C46.4799 82.14 46.3899 81.72 46.1199 80.75C44.8899 75.39 47.4799 75.21 47.4799 75.21H59.1899C59.4899 75.21 59.43 74.57 59.43 74.57C56.86 62.69 55.49 44.61 55.27 41.52C55.25 41.26 55.0399 41.06 54.7799 41.06H44.43C44.43 41.06 43.95 43.84 41.33 43.84C38.71 43.84 38.06 41.02 38.06 41.02H34.5499C34.5499 41.02 5.83995 38.28 3.86995 37.92C1.88995 37.56 2.01995 36.31 2.01995 36.31V28.85C2.01995 27.54 3.25995 27.38 3.86995 27.38C4.06995 27.38 4.19995 27.4 4.19995 27.4L30.7599 24.92C32.2699 24.78 33.79 24.71 35.2999 24.71H37V18.79C37 16.43 38.2999 15.86 39.07 15.54C39.56 15.34 39.81 15.14 39.86 14.8C39.86 14.63 39.88 14.44 39.91 14.23C29.29 14.2 29.33 13.67 40.04 13.64C40.28 12.76 40.7 11.86 41.07 11.86C41.4399 11.86 41.8099 12.82 42.0299 13.64C52.7999 13.67 52.84 14.19 42.1699 14.23C42.1999 14.37 42.22 14.5 42.2299 14.59C42.29 15.21 43.31 15.72 43.31 15.72C45.79 16.63 45.1199 19.05 45.1199 19.05V24.8H46.52C47.11 24.8 47.7 24.68 48.25 24.46L54.68 21.84C54.86 21.77 54.98 21.59 54.99 21.39C55.1 14.92 58.4599 2 60.8899 2M60.8499 0C59.2399 0 57.2999 1.04 55.0999 8.72C53.9699 12.67 53.1699 17.1 52.9799 20.36L47.45 22.61C47.33 22.66 47.2 22.7 47.08 22.73V19.28C47.25 18.38 47.1899 17.23 46.6699 16.18C47.2299 16.17 47.74 16.15 48.2 16.13C50.2099 16.05 52.11 15.97 52.11 13.94C52.11 11.91 50.1899 11.83 48.16 11.75C46.9599 11.7 45.3399 11.67 43.4199 11.66C43 10.77 42.28 9.87 41.04 9.87C40.29 9.87 39.34 10.22 38.6199 11.65C36.7 11.66 35.08 11.7 33.88 11.74C31.86 11.82 29.9499 11.9 29.9399 13.93C29.9399 15.96 31.84 16.04 33.84 16.12C34.32 16.14 34.87 16.16 35.49 16.17C35.17 16.85 34.97 17.7 34.97 18.78V22.7C33.5 22.7 32.0099 22.78 30.5499 22.92L4.15995 25.38C4.06995 25.38 3.95995 25.38 3.83995 25.38C1.54995 25.39 -5.0548e-05 26.79 -5.0548e-05 28.86V36.27C-0.0400505 37.37 0.62995 39.37 3.48995 39.9C5.48995 40.27 31.4 42.75 34.34 43.03C34.4 43.03 34.4699 43.03 34.5299 43.03H36.7C37.47 44.41 38.93 45.85 41.2999 45.85C43.6699 45.85 45.07 44.44 45.79 43.07H53.3499C53.75 48.27 54.97 62.57 57.08 73.22H47.45C47.45 73.22 47.36 73.22 47.31 73.22C46.57 73.27 45.51 73.69 44.74 74.73C43.68 76.16 43.4799 78.34 44.1399 81.21C44.1399 81.24 44.16 81.27 44.16 81.3C44.36 82 44.45 82.39 44.4799 82.52C44.6699 83.56 45.6199 84.6 47.41 84.6H74.2399C76.0299 84.6 76.9899 83.56 77.1699 82.52C77.1999 82.39 77.2899 82 77.4899 81.3C77.4899 81.27 77.4999 81.25 77.5099 81.22C78.2299 78.18 78.0399 76.02 76.91 74.6C76.1099 73.58 74.9799 73.22 74.1999 73.22H64.5699C66.6799 62.57 67.8999 48.27 68.2999 43.07H75.8599C76.5799 44.44 77.9799 45.85 80.3499 45.85C82.7199 45.85 84.1799 44.41 84.9499 43.03H87.1199C87.1799 43.03 87.2499 43.03 87.3099 43.03C90.2599 42.75 116.16 40.27 118.16 39.9C121.02 39.37 121.69 37.38 121.65 36.27V28.86C121.65 26.79 120.1 25.39 117.8 25.39C117.68 25.39 117.57 25.39 117.48 25.39L91.0899 22.93C89.6299 22.79 88.1399 22.72 86.6699 22.71V18.79C86.6699 17.71 86.4599 16.85 86.1499 16.18C86.7599 16.17 87.31 16.15 87.7999 16.13C89.81 16.05 91.6999 15.97 91.6999 13.94C91.6999 11.91 89.7899 11.83 87.7599 11.75C86.56 11.7 84.9399 11.67 83.0199 11.66C82.2999 10.22 81.3499 9.88 80.5999 9.88C79.3699 9.88 78.6499 10.77 78.2199 11.67C76.2999 11.68 74.6799 11.72 73.4799 11.76C71.45 11.84 69.5299 11.92 69.5299 13.95C69.5299 15.98 71.4299 16.06 73.4399 16.14C73.8899 16.16 74.3999 16.17 74.9699 16.19C74.45 17.24 74.3799 18.39 74.5599 19.29V22.74C74.4299 22.71 74.31 22.67 74.1899 22.62L68.66 20.37C68.4699 17.12 67.6699 12.69 66.5399 8.74C64.34 1.06 62.4 0.02 60.79 0.02L60.8499 0Z" fill="black"/>
</g>
<defs>
<clipPath id="clip0_442_7">
<rect width="121.7" height="84.61" fill="white"/>
</clipPath>
</defs>
</svg>
