<svg width="166" height="149" viewBox="0 0 166 149" fill="none" xmlns="http://www.w3.org/2000/svg">
<g clip-path="url(#clip0_882_57)">
<path d="M82.92 147.54C81.78 147.44 81.21 146.24 80.81 143.15C79.74 143.2 78.55 143.22 77.27 143.22C69.28 143.22 58.59 142.25 56.1 141.63C55.76 141.55 55.49 141.29 55.38 140.96C54.78 139.02 55.78 132.16 58.5 130.65C58.62 130.58 58.75 130.54 58.89 130.53L80.26 128.4C80.26 128.3 80.26 128.19 80.26 128.09H79.66C79.11 128.09 78.66 127.64 78.66 127.09V125.13C78.66 124.58 79.11 124.13 79.66 124.13H79.99C79.42 122.41 78.85 120.48 78.29 118.36C77.77 118.05 77.38 117.66 76.87 116.98C76.77 116.84 76.7 116.68 76.68 116.51C76.39 114.28 76.34 112.95 76.46 110.72C74.3 100.71 72.96 90.8298 72.96 87.3998V75.2898C72.66 74.3998 72.48 74.1898 72.11 74.0198L7.89997 67.2498C7.15997 67.2998 5.04997 68.5298 4.02997 69.1398C3.11997 69.6798 2.62997 69.9598 2.27997 70.0798C2.17997 70.1098 2.06997 70.1298 1.96997 70.1298C1.75997 70.1298 1.55997 70.0698 1.37997 69.9398C1.11997 69.7498 0.969971 69.4498 0.969971 69.1298V65.7398C0.969971 64.1298 4.80997 54.5998 7.77997 53.2098C7.89997 53.1498 8.03997 53.1198 8.16997 53.1198L15.69 52.8798V52.8198C15.69 52.2298 16.17 51.6198 17.09 51.6198C18.01 51.6198 18.47 52.1998 18.49 52.7898L72.34 51.0398C72.6 51.0098 72.78 50.9698 72.96 50.8998V37.4098C72.96 34.8498 74.2 26.7498 75.75 19.8198C75.73 19.7998 75.71 19.7698 75.69 19.7398C74.72 18.4698 74.31 17.3698 74.16 15.6898C74.14 15.4398 74.21 15.1898 74.37 14.9898C75.47 13.5798 76.45 12.4398 77.89 11.8598C78.13 11.1398 78.37 10.4798 78.61 9.8998C77.37 10.0498 76.19 10.1498 74.93 10.1498C73.91 10.1498 72.86 10.0798 71.72 9.9398C69.47 9.6598 69.3 8.4098 69.3 8.0298C69.3 7.2398 69.94 6.3298 71.73 6.1198C73.49 5.9198 74.85 5.8298 76.14 5.8298C77.27 5.8298 78.39 5.8998 79.76 6.0498C80.24 4.0598 80.95 1.9498 82.78 1.5698C82.85 1.5598 82.92 1.5498 82.99 1.5498C83.06 1.5498 83.13 1.5498 83.2 1.5698C85.02 1.9498 85.73 4.0698 86.22 6.0498C87.59 5.8998 88.71 5.8298 89.84 5.8298C91.13 5.8298 92.49 5.9198 94.25 6.1198C96.04 6.3198 96.67 7.2398 96.68 8.0298C96.68 8.4098 96.51 9.6598 94.26 9.9398C93.13 10.0798 92.08 10.1498 91.05 10.1498C89.79 10.1498 88.61 10.0498 87.38 9.8998C87.62 10.4798 87.86 11.1398 88.1 11.8598C89.54 12.4398 90.52 13.5798 91.62 14.9898C91.77 15.1898 91.85 15.4398 91.83 15.6898C91.69 17.3598 91.28 18.4598 90.3 19.7398C90.28 19.7698 90.26 19.7898 90.23 19.8198C91.78 26.7598 93.02 34.8498 93.02 37.4098V50.8898C93.21 50.9598 93.42 50.9998 93.73 51.0398L147.49 52.7898C147.51 52.2098 147.99 51.6198 148.89 51.6198C149.79 51.6198 150.29 52.2198 150.29 52.8198V52.8798L156.5 53.0798V51.5598C156.5 51.4898 156.5 51.4198 156.52 51.3498C156.86 49.7398 157.93 48.6998 159.22 48.6998C160.51 48.6998 161.58 49.7398 161.92 51.3498C161.93 51.4198 161.94 51.4898 161.94 51.5598V57.6798C163.57 60.6298 164.99 64.5898 164.99 65.7498V69.1398C164.99 69.4598 164.84 69.7598 164.58 69.9498C164.41 70.0698 164.2 70.1398 163.99 70.1398C163.89 70.1398 163.78 70.1198 163.68 70.0898C163.33 69.9798 162.84 69.6898 161.93 69.1598C160.91 68.5598 158.81 67.3198 158.06 67.2698L93.85 74.0398C93.48 74.2098 93.3 74.4198 93 75.3098V87.4198C93 90.8498 91.66 100.73 89.5 110.74C89.62 112.98 89.57 114.31 89.28 116.53C89.26 116.7 89.19 116.86 89.09 117C88.58 117.68 88.2 118.07 87.67 118.38C87.11 120.5 86.54 122.43 85.97 124.15H86.3C86.85 124.15 87.3 124.6 87.3 125.15V127.11C87.3 127.66 86.85 128.11 86.3 128.11H85.7C85.7 128.21 85.7 128.32 85.7 128.42L107.07 130.55C107.2 130.56 107.34 130.6 107.45 130.67C110.17 132.18 111.18 139.05 110.57 140.98C110.47 141.31 110.19 141.57 109.86 141.65C107.37 142.26 96.68 143.24 88.69 143.24C87.41 143.24 86.23 143.22 85.15 143.17C84.74 146.39 84.14 147.56 82.99 147.56C82.97 147.56 82.92 147.56 82.89 147.56L82.92 147.54Z" fill="white"/>
<path d="M82.9999 2.54004C84.4099 2.84004 84.9699 5.03004 85.4499 7.14004C87.1199 6.93004 88.4599 6.82004 89.8399 6.82004C91.1399 6.82004 92.4699 6.91004 94.1299 7.10004C96.1199 7.33004 96.2499 8.67004 94.1299 8.93004C92.9799 9.07004 91.9899 9.13004 91.0499 9.13004C89.3399 9.13004 87.7899 8.93004 85.8099 8.68004C85.8399 8.81004 85.8799 8.94004 85.9099 9.06004C86.3699 9.99004 86.8399 11.21 87.2899 12.62C88.6499 13.01 89.5199 13.93 90.8099 15.59C90.6799 17.16 90.2799 18.07 89.4799 19.11C89.1799 18.54 88.9199 18.04 88.6699 17.6C90.5599 25.28 91.9999 34.79 91.9999 37.39V51.49C92.5399 51.81 92.8999 51.93 93.5899 52.01L148.47 53.8V52.8C148.47 52.67 148.67 52.6 148.87 52.6C149.07 52.6 149.27 52.67 149.27 52.8V53.83L157.48 54.1V51.54C157.75 50.3 158.48 49.68 159.21 49.68C159.94 49.68 160.67 50.3 160.94 51.54V57.92C162.71 61.04 163.99 64.89 163.99 65.73V69.12C163.2 68.86 159.48 66.25 158.02 66.25L93.5899 73.04C92.6799 73.42 92.3799 73.94 91.9999 75.13V87.4C91.9999 90.96 90.5999 100.92 88.4899 110.64C88.6199 112.88 88.5799 114.14 88.2799 116.39C87.7399 117.11 87.4099 117.4 86.8099 117.7C86.0999 120.4 85.3499 122.93 84.5699 125.14H86.2899V127.1H84.6599C84.6799 127.79 84.6999 128.53 84.7099 129.32L106.97 131.54C109.09 132.72 110.15 138.98 109.62 140.68C107.39 141.23 96.9499 142.24 88.6899 142.24C87.1099 142.24 85.6099 142.2 84.2699 142.12C83.9899 144.75 83.5799 146.56 82.9899 146.56C82.9899 146.56 82.9799 146.56 82.9699 146.56C82.9699 146.56 82.9599 146.56 82.9499 146.56C82.3699 146.56 81.9499 144.75 81.6699 142.12C80.3299 142.2 78.8299 142.24 77.2499 142.24C68.9999 142.24 58.5499 141.23 56.3199 140.68C55.7899 138.98 56.8499 132.72 58.9699 131.54L81.2299 129.32C81.2399 128.54 81.2599 127.79 81.2799 127.1H79.6499V125.14H81.3699C80.5899 122.93 79.8399 120.39 79.1299 117.7C78.5199 117.41 78.1999 117.12 77.6599 116.39C77.3699 114.15 77.3299 112.89 77.4499 110.64C75.3399 100.92 73.9399 90.96 73.9399 87.4V75.13C73.5599 73.94 73.2599 73.42 72.3499 73.04L7.91993 66.25C6.45993 66.25 2.74993 68.86 1.94993 69.12V65.73C1.94993 64.42 5.65993 55.29 8.17993 54.11L16.6599 53.83V52.8C16.6599 52.67 16.8599 52.6 17.0599 52.6C17.2599 52.6 17.4599 52.67 17.4599 52.8V53.8L72.3399 52.01C73.0299 51.92 73.3899 51.81 73.9299 51.49V37.39C73.9299 34.79 75.3699 25.28 77.2599 17.6C77.0099 18.04 76.7499 18.54 76.4499 19.11C75.6499 18.07 75.2599 17.15 75.1199 15.59C76.4099 13.93 77.2799 13.01 78.6399 12.62C79.0899 11.21 79.5599 9.99004 80.0199 9.06004C80.0499 8.94004 80.0899 8.81004 80.1199 8.68004C78.1399 8.94004 76.5999 9.13004 74.8799 9.13004C73.9399 9.13004 72.9399 9.07004 71.7999 8.93004C69.6799 8.67004 69.8099 7.33004 71.7999 7.10004C73.4599 6.91004 74.7899 6.82004 76.0899 6.82004C77.4699 6.82004 78.8199 6.93004 80.4799 7.14004C80.9699 5.03004 81.5199 2.83004 82.9299 2.54004M82.9299 0.540039C82.7899 0.540039 82.6499 0.550039 82.5199 0.580039C80.4399 1.02004 79.5199 3.00004 78.9599 4.96004C77.9199 4.87004 77.0099 4.82004 76.0899 4.82004C74.7599 4.82004 73.3699 4.91004 71.5699 5.12004C69.1299 5.40004 68.2599 6.85004 68.2499 8.02004C68.2499 9.23004 69.1099 10.62 71.5499 10.92C72.7299 11.06 73.8099 11.14 74.8799 11.14C75.6299 11.14 76.3399 11.11 77.0599 11.05C77.0599 11.07 77.0499 11.09 77.0399 11.11C75.6199 11.81 74.6299 12.97 73.5399 14.37C73.2299 14.77 73.0799 15.27 73.1199 15.77C73.2699 17.5 73.6999 18.73 74.6299 20.04C73.0799 27.06 71.9199 34.82 71.9199 37.4V50.03L19.1699 51.75C18.7799 51.06 17.9899 50.61 17.0499 50.61C16.0399 50.61 15.2199 51.12 14.8499 51.89L8.09993 52.11C7.82993 52.11 7.55993 52.18 7.31993 52.3C3.81993 53.93 -0.0700684 64.08 -0.0700684 65.73V69.12C-0.0700684 69.76 0.239932 70.36 0.759932 70.74C1.10993 70.99 1.51993 71.12 1.92993 71.12C2.13993 71.12 2.34993 71.09 2.54993 71.02C2.99993 70.87 3.49993 70.58 4.48993 70C5.30993 69.52 7.17993 68.42 7.87993 68.26L71.7199 74.99C71.7499 75.04 71.8099 75.17 71.9099 75.46V87.41C71.9099 91.45 73.4399 101.68 75.3999 110.81C75.2799 113.04 75.3399 114.39 75.6299 116.65C75.6699 116.99 75.7999 117.31 76.0099 117.59C76.4299 118.16 76.8299 118.61 77.3599 119C77.7799 120.57 78.2099 122.04 78.6399 123.4C78.0199 123.74 77.6099 124.4 77.6099 125.15V127.11C77.6099 127.3 77.6399 127.49 77.6899 127.67L58.7299 129.56C58.4599 129.59 58.1999 129.67 57.9599 129.8C54.7499 131.58 53.6599 139.02 54.3699 141.28C54.5799 141.95 55.1199 142.46 55.7999 142.63C58.3299 143.25 69.1499 144.24 77.2099 144.24C78.1499 144.24 79.0399 144.23 79.8699 144.2C80.1999 146.4 80.8899 148.56 82.9099 148.56C82.9099 148.56 82.9199 148.56 82.9299 148.56C82.9299 148.56 82.9399 148.56 82.9499 148.56C84.9699 148.56 85.6499 146.4 85.9899 144.2C86.8199 144.23 87.7099 144.24 88.6499 144.24C96.7099 144.24 107.53 143.25 110.06 142.63C110.74 142.46 111.28 141.95 111.49 141.29C112.2 139.02 111.11 131.58 107.9 129.81C107.66 129.68 107.4 129.6 107.13 129.57L88.1699 127.68C88.2199 127.5 88.2499 127.32 88.2499 127.12V125.16C88.2499 124.41 87.8299 123.75 87.2199 123.41C87.6499 122.06 88.0699 120.59 88.4999 119.01C89.0299 118.62 89.4299 118.17 89.8499 117.6C90.0499 117.33 90.1799 117 90.2299 116.66C90.5199 114.4 90.5799 113.05 90.4599 110.82C92.4199 101.7 93.9499 91.46 93.9499 87.42V75.47C94.0499 75.19 94.1099 75.06 94.1499 75L157.98 68.27C158.68 68.42 160.55 69.53 161.37 70.01C162.37 70.6 162.87 70.89 163.31 71.03C163.51 71.1 163.72 71.13 163.93 71.13C164.35 71.13 164.76 71 165.1 70.75C165.62 70.37 165.93 69.77 165.93 69.13V65.74C165.93 64.32 164.45 60.33 162.88 57.42V51.56C162.88 51.42 162.87 51.28 162.84 51.14C162.33 48.76 160.62 47.7 159.16 47.7C157.7 47.7 155.99 48.76 155.48 51.14C155.45 51.28 155.44 51.42 155.44 51.56V52.05L151.03 51.91C150.67 51.14 149.84 50.63 148.83 50.63C147.89 50.63 147.1 51.08 146.71 51.77L93.9599 50.05V37.42C93.9599 34.84 92.7999 27.08 91.2499 20.06C92.1799 18.75 92.6099 17.52 92.7599 15.79C92.7999 15.29 92.6499 14.79 92.3399 14.39C91.2499 12.99 90.2599 11.83 88.8399 11.13C88.8399 11.11 88.8299 11.09 88.8199 11.07C89.5299 11.13 90.2499 11.16 90.9999 11.16C92.0599 11.16 93.1499 11.09 94.3299 10.94C96.7699 10.64 97.6299 9.24004 97.6299 8.04004C97.6299 6.88004 96.7499 5.42004 94.3099 5.14004C92.5099 4.94004 91.1199 4.84004 89.7899 4.84004C88.8699 4.84004 87.9599 4.88004 86.9199 4.98004C86.3599 3.02004 85.4499 1.04004 83.3599 0.600039C83.2199 0.570039 83.0899 0.560039 82.9499 0.560039L82.9299 0.540039Z" fill="black"/>
</g>
<defs>
<clipPath id="clip0_882_57">
<rect width="166" height="148" fill="white" transform="translate(0 0.540039)"/>
</clipPath>
</defs>
</svg>
