<svg width="96" height="117" viewBox="0 0 96 117" fill="none" xmlns="http://www.w3.org/2000/svg">
<g clip-path="url(#clip0_493_12)">
<path d="M47.9699 115.29C47.0899 115.29 46.5599 114.53 46.4899 113.78L46.3299 112.61C40.8199 112.42 28.9399 112 28.3899 112C27.8099 112 27.3499 111.83 27.0399 111.49C26.7899 111.22 26.6599 110.85 26.6999 110.51V108.02C26.6999 106.26 27.6699 104.17 27.9699 103.57C28.3199 102.87 28.9899 102.66 29.1199 102.63C29.6199 102.49 41.8799 98.98 42.4499 98.83C42.4699 98.81 42.5599 98.68 42.6399 98.55L43.6599 86.25C42.4399 76.89 41.9199 64.47 41.8099 61.79L40.8599 60.49C32.7299 60.26 3.47987 59.45 2.86987 59.44C2.43987 59.44 2.05987 59.27 1.78987 58.96C1.40987 58.53 1.39987 58 1.41987 57.75C1.42987 45.96 5.84987 44.88 6.75987 44.78L10.5599 43.93V43.09C10.5599 42.42 11.0999 41.88 11.7699 41.88C12.4399 41.88 12.9799 42.42 12.9799 43.09V43.39C20.5399 41.7 38.9099 37.59 41.8099 36.94V30.54C41.8099 27.38 42.2199 23.27 42.4699 21.11C42.5399 20.47 42.6099 19.9 42.6699 19.39C42.6199 19.39 42.5599 19.4 42.5099 19.4C41.9699 19.4 41.5099 19.01 41.4199 18.48C41.2399 17.38 40.8799 17.36 40.6499 17.34C40.3399 17.32 39.9699 17.1 39.7899 16.84C39.5999 16.55 39.5599 16.18 39.6699 15.86C40.2899 14.14 41.0399 13.48 41.8299 12.79C42.2999 12.38 42.9299 12.16 43.6699 12.16C43.7199 12.16 43.7699 12.16 43.8099 12.16C43.8399 11.91 43.8699 11.64 43.8999 11.38C43.4599 11.38 43.0799 11.35 43.0799 11.35L35.9399 11.1C35.3999 11.08 34.9699 10.64 34.9699 10.1V9.51998C34.9699 8.85998 35.4499 8.41998 35.9199 8.26998C35.9499 8.25998 35.9899 8.24998 36.0199 8.23998C36.0199 8.23998 37.1199 8.01998 38.5699 7.78998C39.9099 7.56998 41.1899 7.45998 42.3899 7.45998C43.3099 7.45998 44.0399 7.52998 44.5799 7.59998C45.1299 5.04998 46.2699 0.97998 47.9699 0.97998C49.6699 0.97998 50.8099 5.04998 51.3599 7.59998C51.8899 7.51998 52.6199 7.45998 53.5499 7.45998C54.7399 7.45998 56.0299 7.56998 57.3699 7.78998C58.8099 8.01998 59.9099 8.23998 59.9099 8.23998C59.9399 8.23998 59.9799 8.25998 60.0099 8.26998C60.4799 8.41998 60.9599 8.85998 60.9599 9.51998V10.1C60.9599 10.64 60.5299 11.08 59.9899 11.1L52.8099 11.35C52.8099 11.35 52.4499 11.38 52.0299 11.38C52.0599 11.64 52.0899 11.91 52.1199 12.16C52.1699 12.16 52.2199 12.16 52.2599 12.16C52.9899 12.16 53.6299 12.38 54.0999 12.79C54.8899 13.48 55.6399 14.14 56.2599 15.87C56.3699 16.16 56.3199 16.59 56.1399 16.85C55.9499 17.14 55.6299 17.33 55.2899 17.35C55.0499 17.37 54.6999 17.39 54.5199 18.49C54.4299 19.03 53.9699 19.42 53.4299 19.42C53.3799 19.42 53.3199 19.42 53.2699 19.41C53.3299 19.92 53.3999 20.49 53.4699 21.13C53.7199 23.3 54.1299 27.4 54.1299 30.56V36.97C56.1299 37.42 65.7999 39.58 82.9499 43.42V43.12C82.9499 42.45 83.4899 41.91 84.1599 41.91C84.8299 41.91 85.3699 42.45 85.3699 43.12V43.96L89.1699 44.81C90.0799 44.91 94.4999 45.98 94.5099 57.78C94.5299 58.03 94.5099 58.56 94.1399 58.99C93.8699 59.3 93.4899 59.47 93.0599 59.47C92.4699 59.47 64.9299 60.24 55.0799 60.52L54.1299 61.82C54.0299 64.5 53.4999 76.92 52.2799 86.28L53.2999 98.58C53.3799 98.71 53.4799 98.84 53.5399 98.88C54.0599 99.01 66.3199 102.52 66.8399 102.67C66.9499 102.7 67.6199 102.91 67.9699 103.6C68.2699 104.2 69.2499 106.29 69.2499 108.05V110.63C69.2799 110.88 69.1499 111.25 68.8999 111.52C68.5899 111.86 68.1399 112.03 67.5499 112.03C66.9599 112.03 55.1199 112.44 49.6099 112.64L49.4499 113.85C49.3899 114.56 48.8599 115.32 47.9699 115.32V115.29Z" fill="white"/>
<path d="M47.9699 2C48.3599 2 49.5999 3.66 50.5799 8.8C50.5799 8.8 51.5899 8.48 53.5499 8.48C54.5299 8.48 55.7499 8.56 57.2099 8.8C58.6399 9.03 59.7099 9.24 59.7099 9.24C59.7099 9.24 59.9599 9.32 59.9599 9.54V10.12L52.7799 10.37C52.7799 10.37 52.4299 10.4 52.0299 10.4C51.5699 10.4 51.0399 10.37 50.8999 10.22C50.9399 10.66 51.2499 13.34 51.2499 13.34C51.2499 13.34 51.7199 13.18 52.2699 13.18C52.6699 13.18 53.1099 13.26 53.4499 13.56C54.2199 14.23 54.7999 14.75 55.3299 16.22C55.3499 16.29 55.3099 16.36 55.2299 16.37C53.9299 16.45 53.6499 17.66 53.5399 18.34C53.5399 18.4 53.4799 18.43 53.4299 18.43C53.3899 18.43 53.3499 18.41 53.3299 18.36C53.0999 17.75 52.6899 15.95 51.6899 15.95C51.8699 16 53.1399 25.16 53.1399 30.57V37.44C53.1399 37.44 53.0999 37.76 53.5199 37.86C53.8399 37.94 74.2299 42.5 83.9599 44.67V43.12C83.9599 43.01 84.0499 42.91 84.1699 42.91C84.2899 42.91 84.3799 43 84.3799 43.12V44.76C87.1999 45.39 89.0299 45.8 89.0299 45.8C89.0299 45.8 93.5299 45.98 93.5299 57.82C93.5299 57.82 93.6199 58.45 93.0799 58.45C92.5699 58.45 58.6099 59.4 54.9099 59.5C54.6999 59.5 54.5099 59.61 54.3899 59.77L53.2799 61.28C53.1999 61.39 53.1499 61.52 53.1499 61.65C53.0799 63.44 52.5499 76.6 51.2899 86.22L52.3399 98.82C52.3399 98.82 52.6899 99.65 53.2499 99.79C53.8099 99.93 66.5799 103.59 66.5799 103.59C66.5799 103.59 66.9299 103.68 67.0899 104.01C67.2499 104.34 68.2599 106.4 68.2599 108.01V110.59C68.2599 110.59 68.2999 110.99 67.5699 110.99C66.8399 110.99 48.7499 111.63 48.7499 111.63L48.4799 113.68C48.4799 113.68 48.4299 114.28 47.9999 114.28C47.5699 114.28 47.5199 113.68 47.5199 113.68L47.2499 111.63C47.2499 111.63 29.1599 110.99 28.4299 110.99C27.6999 110.99 27.7399 110.59 27.7399 110.59V108.01C27.7399 106.4 28.7499 104.34 28.9099 104.01C29.0699 103.68 29.4199 103.59 29.4199 103.59C29.4199 103.59 42.1899 99.94 42.7499 99.79C43.3099 99.64 43.6599 98.82 43.6599 98.82L44.7099 86.22C43.4499 76.6 42.9199 63.44 42.8499 61.65C42.8499 61.52 42.7999 61.39 42.7199 61.28L41.6099 59.77C41.4899 59.6 41.2999 59.5 41.0899 59.5C37.3799 59.4 3.41991 58.45 2.91991 58.45C2.37991 58.45 2.46991 57.82 2.46991 57.82C2.46991 45.98 6.96991 45.8 6.96991 45.8C6.96991 45.8 8.79991 45.39 11.6199 44.76V43.12C11.6199 43.01 11.7099 42.91 11.8299 42.91C11.9499 42.91 12.0399 43 12.0399 43.12V44.67C21.7699 42.49 42.1599 37.94 42.4799 37.86C42.8999 37.76 42.8599 37.44 42.8599 37.44V30.57C42.8599 25.16 44.1299 16 44.3099 15.95C43.2999 15.95 42.8999 17.75 42.6699 18.36C42.6499 18.41 42.6099 18.43 42.5699 18.43C42.5199 18.43 42.4699 18.4 42.4599 18.34C42.3499 17.66 42.0699 16.45 40.7699 16.37C40.6999 16.37 40.6499 16.29 40.6699 16.22C41.1999 14.75 41.7799 14.23 42.5499 13.56C42.8799 13.27 43.3299 13.18 43.7299 13.18C44.2799 13.18 44.7499 13.34 44.7499 13.34C44.7499 13.34 45.0699 10.66 45.0999 10.22C44.9599 10.37 44.4299 10.4 43.9699 10.4C43.5699 10.4 43.2199 10.37 43.2199 10.37L36.0399 10.12V9.54C36.0399 9.32 36.2899 9.24 36.2899 9.24C36.2899 9.24 37.3699 9.02 38.7899 8.8C40.2499 8.56 41.4699 8.48 42.4499 8.48C44.4099 8.48 45.4199 8.8 45.4199 8.8C46.3899 3.66 47.6399 2 48.0299 2M47.9699 0C47.2899 0 45.3499 0 43.7999 6.53C43.3899 6.5 42.9199 6.48 42.3899 6.48C41.1399 6.48 39.7999 6.6 38.4099 6.83C36.9699 7.06 35.8799 7.28 35.8299 7.29C35.7599 7.3 35.6899 7.32 35.6199 7.34C34.6399 7.65 33.9699 8.54 33.9699 9.54V10.12C33.9699 11.2 34.8199 12.08 35.8999 12.12L40.8799 12.29C40.1199 12.97 39.3499 13.78 38.7199 15.53C38.4999 16.15 38.5799 16.85 38.9399 17.4C39.2599 17.89 39.7699 18.22 40.3399 18.32C40.3599 18.39 40.3899 18.5 40.4099 18.65C40.5199 19.34 40.9599 19.9 41.5499 20.2C41.5199 20.47 41.4899 20.74 41.4599 21.01C41.2099 23.2 40.7899 27.35 40.7899 30.56V36.16C37.6099 36.87 27.9999 39.02 13.7699 42.2C13.4199 41.43 12.6499 40.9 11.7599 40.9C10.5399 40.9 9.54991 41.89 9.54991 43.11V43.15L6.58991 43.81C5.15991 43.98 0.439912 45.48 0.419912 57.74C0.399912 58.15 0.439912 58.96 1.02991 59.63C1.48991 60.16 2.13991 60.45 2.86991 60.45C3.52991 60.45 26.4199 61.09 40.3399 61.48L40.8199 62.14C40.9299 64.86 41.4699 77.13 42.6499 86.27L41.6699 98C39.3099 98.67 29.9899 101.33 28.8199 101.67C28.5699 101.73 27.5999 102.06 27.0699 103.12C26.6499 103.95 25.6899 106.09 25.6899 108.02V110.56C25.6799 111.14 25.8899 111.72 26.2999 112.16C26.6499 112.54 27.2899 113 28.3899 113C28.9399 113 38.3399 113.33 45.4499 113.58L45.4999 113.92C45.6499 115.3 46.6799 116.29 47.9699 116.29C49.2599 116.29 50.2899 115.3 50.4399 113.92L50.4899 113.58C57.5999 113.33 66.9999 113 67.5599 113C68.6499 113 69.2899 112.54 69.6399 112.16C70.0499 111.72 70.2599 111.14 70.2499 110.56V108.02C70.2499 106.04 69.1899 103.77 68.8699 103.12C68.3399 102.06 67.3699 101.74 67.0799 101.66C65.9499 101.34 56.6299 98.67 54.2699 98L53.2899 86.27C54.4699 77.13 55.0099 64.85 55.1199 62.14L55.5999 61.48C69.5199 61.09 92.4099 60.46 93.0799 60.45C93.7899 60.45 94.4399 60.16 94.8999 59.63C95.4899 58.96 95.5399 58.15 95.5099 57.74C95.4899 45.48 90.7699 43.98 89.3299 43.81L86.3699 43.15V43.11C86.3699 41.89 85.3799 40.9 84.1599 40.9C83.2699 40.9 82.4899 41.44 82.1499 42.2C67.9299 39.02 58.3199 36.87 55.1299 36.16V30.56C55.1299 27.35 54.7099 23.2 54.4599 21.01C54.4299 20.74 54.3999 20.47 54.3699 20.2C54.9599 19.91 55.3999 19.35 55.5099 18.65C55.5299 18.5 55.5599 18.39 55.5799 18.32C56.1499 18.22 56.6599 17.89 56.9799 17.4C57.3399 16.85 57.4199 16.15 57.1999 15.53C56.5699 13.77 55.7999 12.97 55.0399 12.29L60.0199 12.12C61.0999 12.08 61.9499 11.2 61.9499 10.12V9.54C61.9499 8.53 61.2899 7.65 60.2999 7.34C60.2299 7.32 60.1599 7.3 60.0899 7.29C60.0399 7.29 58.9499 7.06 57.4999 6.83C56.1199 6.6 54.7799 6.49 53.5299 6.49C52.9999 6.49 52.5299 6.51 52.1199 6.54C50.5899 0 48.6499 0 47.9699 0Z" fill="black"/>
</g>
<defs>
<clipPath id="clip0_493_12">
<rect width="95.1" height="116.29" fill="white" transform="translate(0.419922)"/>
</clipPath>
</defs>
</svg>
