<svg width="175" height="173" viewBox="0 0 175 173" fill="none" xmlns="http://www.w3.org/2000/svg">
<g clip-path="url(#clip0_391_2)">
<path d="M87.7 171.29C87.7 171.29 87.63 171.29 87.59 171.29C86.91 171.29 86.35 170.84 86.16 170.14C85.73 167.98 85.44 164.6 85.32 162.86L55.4 167.73C55.4 167.73 54.78 167.86 54.21 167.86C53.96 167.86 53.24 167.86 52.79 167.35C52.63 167.17 52.54 166.93 52.54 166.69C52.54 158.93 55.53 157.4 55.87 157.25L83.85 145.1C83.14 142.21 82.44 138.22 82.16 136.51C80.39 136.29 77.92 135.61 77.3 135.44H76.66C76.49 135.58 76.27 135.66 76.04 135.66H70.57C69.89 135.66 69.32 135.18 69.2 134.51C68.9 132.79 67.41 123.89 67.41 118.17C67.41 116.45 67.54 107.88 70.09 107.88H76.18C77.28 107.88 77.9 108.96 78.23 111.47H78.69C77.47 105.54 77.02 98.45 76.89 95.86C66.17 96.21 7.56003 98.14 4.80003 98.22C4.42003 98.29 4.10003 98.51 3.83003 98.7C3.54003 98.9 3.24003 99.1 2.83003 99.1C2.54003 99.1 2.19003 98.94 2.00003 98.73C1.63003 98.31 1.66003 97.74 1.74003 97.1C2.53003 87.85 5.16003 86.59 6.08003 86.44L52.61 75.09C54.54 74.62 56.46 74 58.3 73.25L77.01 65.64V34.23C77.01 17.75 83.86 1 87.69 1C91.52 1 98.37 17.75 98.37 34.23V65.64L117.08 73.25C118.92 74 120.84 74.62 122.77 75.09L169.3 86.44C170.22 86.59 172.85 87.86 173.64 97.14C173.71 97.75 173.75 98.31 173.38 98.73C173.19 98.94 172.84 99.1 172.55 99.1C172.15 99.1 171.84 98.89 171.55 98.7C171.29 98.52 170.96 98.3 170.58 98.22C167.82 98.14 109.21 96.22 98.49 95.86C98.36 98.45 97.9 105.54 96.69 111.47H97.15C97.48 108.96 98.1 107.88 99.2 107.88H105.29C107.84 107.88 107.97 116.45 107.97 118.17C107.97 123.9 106.48 132.79 106.18 134.51C106.06 135.18 105.49 135.66 104.81 135.66H99.34C99.1 135.66 98.89 135.58 98.72 135.44H98.08C97.47 135.61 94.99 136.29 93.22 136.51C92.94 138.22 92.25 142.21 91.53 145.1L119.51 157.25C119.85 157.4 122.84 158.93 122.84 166.69C122.84 166.93 122.75 167.17 122.59 167.35C122.14 167.86 121.41 167.86 121.17 167.86C120.59 167.86 119.99 167.74 119.93 167.72L90.06 162.86C89.94 164.6 89.66 167.97 89.23 170.07C89.02 170.83 88.46 171.28 87.78 171.28C87.74 171.28 87.7 171.28 87.67 171.28L87.7 171.29Z" fill="white"/>
<path d="M87.7 2C90.28 2 97.38 17.42 97.38 34.23V65.95C97.38 66.17 97.51 66.36 97.71 66.44L116.71 74.17C118.6 74.94 120.55 75.57 122.54 76.05L169.11 87.41C169.11 87.41 171.84 87.71 172.65 97.21C172.73 97.87 172.7 98.09 172.56 98.09C172.3 98.09 171.68 97.36 170.69 97.21C170.25 97.21 97.55 94.82 97.55 94.82C97.55 94.82 97.17 104.83 95.52 112.19C95.49 112.33 95.59 112.45 95.73 112.45H97.84C97.96 112.45 98.06 112.36 98.08 112.24C98.16 111.47 98.47 108.87 99.21 108.87H105.3C105.96 108.87 106.98 112.4 106.98 118.16C106.98 123.92 105.51 132.56 105.2 134.33C105.17 134.52 105.01 134.65 104.82 134.65H99.35V134.43H97.95C97.95 134.43 94.14 135.52 92.37 135.57C92.26 136.34 91.28 142.32 90.37 145.67L119.13 158.16C119.13 158.16 121.86 159.35 121.86 166.68C121.74 166.81 121.48 166.85 121.19 166.85C120.7 166.85 120.16 166.73 120.16 166.73L89.15 161.69C89.15 161.69 88.84 167.03 88.27 169.87C88.17 170.22 87.94 170.28 87.8 170.28C87.74 170.28 87.69 170.27 87.69 170.27C87.69 170.27 87.65 170.28 87.58 170.28C87.44 170.28 87.21 170.22 87.11 169.87C86.54 167.03 86.23 161.69 86.23 161.69L55.22 166.73C55.22 166.73 54.67 166.85 54.19 166.85C53.9 166.85 53.63 166.81 53.52 166.68C53.52 159.35 56.25 158.16 56.25 158.16L85.01 145.67C84.1 142.32 83.11 136.34 83.01 135.57C81.24 135.53 77.43 134.43 77.43 134.43H76.03V134.65H70.56C70.37 134.65 70.21 134.52 70.18 134.33C69.87 132.56 68.4 123.8 68.4 118.16C68.4 112.52 69.42 108.87 70.08 108.87H76.17C76.91 108.87 77.23 111.47 77.3 112.24C77.31 112.36 77.41 112.45 77.54 112.45H79.65C79.79 112.45 79.89 112.32 79.86 112.19C78.2 104.83 77.83 94.82 77.83 94.82C77.83 94.82 5.13 97.21 4.69 97.21C3.71 97.36 3.08 98.09 2.82 98.09C2.68 98.09 2.65 97.87 2.73 97.21C3.54 87.71 6.27 87.41 6.27 87.41L52.84 76.05C54.83 75.57 56.78 74.94 58.67 74.17L77.67 66.44C77.87 66.36 78 66.16 78 65.95V34.23C78 17.42 85.1 2 87.68 2M87.7 0C82.46 0 76.02 18.88 76.02 34.23V64.96L57.93 72.32C56.13 73.05 54.26 73.65 52.38 74.11L5.88 85.45C4.48 85.7 1.57 87.41 0.749998 97.01C0.669998 97.65 0.569998 98.61 1.26 99.38C1.66 99.83 2.23 100.09 2.83 100.09C3.54 100.09 4.03 99.76 4.39 99.51C4.57 99.39 4.77 99.25 4.93 99.2C8.84 99.08 60.87 97.37 75.94 96.88C76.07 99.13 76.36 103 76.92 106.98C76.7 106.91 76.45 106.87 76.18 106.87H70.09C67.05 106.87 66.41 113.01 66.41 118.16C66.41 123.98 67.91 132.94 68.22 134.67C68.42 135.82 69.41 136.65 70.57 136.65H76.04C76.37 136.65 76.67 136.57 76.95 136.43H77.17C77.88 136.63 79.69 137.11 81.29 137.38C81.59 139.18 82.13 142.1 82.68 144.51L55.47 156.32C54.81 156.61 51.54 158.46 51.54 166.68C51.54 167.17 51.72 167.64 52.04 168C52.54 168.57 53.27 168.85 54.21 168.85C54.8 168.85 55.4 168.74 55.6 168.7L84.41 164.02C84.56 165.88 84.81 168.5 85.17 170.27C85.17 170.32 85.19 170.36 85.2 170.41C85.51 171.54 86.47 172.29 87.6 172.29C87.64 172.29 87.67 172.29 87.71 172.29C87.75 172.29 87.78 172.29 87.82 172.29C88.95 172.29 89.91 171.53 90.22 170.41C90.23 170.37 90.24 170.32 90.25 170.27C90.6 168.5 90.86 165.88 91.01 164.02L119.82 168.7C120.03 168.74 120.62 168.85 121.21 168.85C122.15 168.85 122.89 168.56 123.38 168C123.7 167.63 123.88 167.17 123.88 166.68C123.88 158.46 120.61 156.61 119.95 156.33L92.73 144.52C93.28 142.12 93.81 139.19 94.12 137.39C95.72 137.12 97.53 136.64 98.24 136.44H98.46C98.73 136.58 99.04 136.66 99.37 136.66H104.84C106 136.66 106.99 135.83 107.19 134.68C107.49 132.94 109 123.98 109 118.17C109 113.02 108.36 106.88 105.32 106.88H99.23C98.96 106.88 98.71 106.92 98.49 106.99C99.05 103.01 99.33 99.14 99.47 96.89C114.54 97.39 166.57 99.1 170.48 99.21C170.64 99.26 170.84 99.4 171.02 99.52C171.38 99.76 171.87 100.1 172.58 100.1C173.18 100.1 173.76 99.84 174.15 99.39C174.84 98.61 174.74 97.66 174.66 97.01C173.84 87.42 170.93 85.71 169.53 85.45L123.03 74.11C121.15 73.65 119.28 73.05 117.48 72.32L99.39 64.96V34.23C99.39 18.87 92.95 0 87.71 0L87.7 0Z" fill="black"/>
</g>
<defs>
<clipPath id="clip0_391_2">
<rect width="174.01" height="172.29" fill="white" transform="translate(0.700012)"/>
</clipPath>
</defs>
</svg>
