<svg width="155" height="78" viewBox="0 0 155 78" fill="none" xmlns="http://www.w3.org/2000/svg">
<g clip-path="url(#clip0_396_17)">
<path d="M77.56 76.2502C76.91 76.2502 76.42 75.8902 76.07 74.3602C75.91 74.4502 75.74 74.5002 75.5499 74.5002C75.52 74.5002 64.86 73.6702 64.86 73.6702C62.66 73.6702 61.55 72.3802 61.48 71.1802C61.41 69.9402 62.43 68.4902 64.83 68.2302L75.49 66.4802C75.41 64.1302 75.2 57.7702 75.16 55.8102C74.5499 46.3402 72.99 37.0102 72.6 35.0302C72.4799 33.8702 71.45 33.5402 71.16 33.4702L36.77 33.0102C36.48 33.0002 9.73996 32.0302 7.59996 32.0302C6.42996 32.0302 4.93996 32.6102 4.03996 32.9602C3.39996 33.2102 3.07996 33.3402 2.75996 33.3402C2.46996 33.3402 2.14996 33.2002 1.95996 32.9902C1.76996 32.7802 1.66996 32.4602 1.70996 32.1802C2.06996 29.1002 6.36996 21.9202 38.4 21.9202H70.89C70.83 20.8602 70.75 19.0602 70.75 16.7402C70.75 7.73023 73.66 3.56023 75.39 1.87023C75.97 1.30023 76.74 0.990234 77.5499 0.990234C78.3599 0.990234 79.13 1.31023 79.71 1.88023C81.75 3.90023 84.18 8.09023 84.18 16.6002C84.18 18.9202 84.1 20.7202 84.04 21.7802C89.36 21.8002 112.88 21.9102 116.7 21.9102C148.73 21.9102 153.03 29.0802 153.39 32.1702C153.42 32.4502 153.33 32.7702 153.14 32.9802C152.95 33.1902 152.63 33.3302 152.34 33.3302C152.02 33.3302 151.7 33.2002 151.06 32.9502C150.16 32.6002 148.67 32.0202 147.5 32.0202C145.36 32.0202 118.62 32.9902 118.35 33.0002L83.47 33.2102C83.18 33.2802 82.15 33.6002 82.04 34.6802C81.64 36.7502 80.08 46.0802 79.47 55.5902C79.43 57.5102 79.22 63.9102 79.14 66.2402L89.47 68.2402C91.79 68.4902 92.81 69.9402 92.74 71.1802C92.68 72.3802 91.57 73.6702 89.28 73.6702L79.38 74.4902C79.38 74.4902 79.3299 74.4902 79.2999 74.4902C79.2 74.4902 79.1099 74.4802 79.02 74.4502C78.67 75.9002 78.1899 76.2402 77.5499 76.2402L77.56 76.2502Z" fill="white"/>
<path d="M77.56 2C78.09 2 78.61 2.2 79.01 2.6C80.68 4.25 83.18 8.14 83.18 16.61C83.18 20.38 82.97 22.79 82.97 22.79C82.97 22.79 112.36 22.93 116.7 22.93C148.73 22.93 152.13 30.03 152.4 32.31C152.4 32.34 152.38 32.36 152.34 32.36C151.92 32.36 149.47 31.05 147.5 31.05C145.32 31.05 118.32 32.03 118.32 32.03L83.37 32.24C83.37 32.24 81.26 32.6 81.05 34.61C80.69 36.46 79.09 45.93 78.48 55.56C78.43 57.98 78.12 67.09 78.12 67.09L89.29 69.25C92.64 69.61 92.52 72.7 89.29 72.7L79.3 73.52L78.37 72.13C78.37 72.13 78.04 75.27 77.55 75.27C77.06 75.27 76.73 72.13 76.73 72.13L75.55 73.52L64.95 72.7C61.72 72.7 61.6 69.61 64.95 69.25L76.53 67.35C76.53 67.35 76.22 58.24 76.17 55.82C75.55 46.2 73.96 36.72 73.6 34.87C73.39 32.86 71.28 32.5 71.28 32.5L36.8 32.04C36.8 32.04 9.79997 31.06 7.61997 31.06C5.64997 31.06 3.19997 32.37 2.77997 32.37C2.73997 32.37 2.71997 32.36 2.71997 32.32C2.98997 30.04 6.38997 22.94 38.42 22.94H71.98C71.98 22.94 71.77 20.54 71.77 16.76C71.77 8.22 74.39 4.28 76.11 2.61C76.52 2.21 77.04 2.01 77.57 2.01M77.56 0C76.49 0 75.48 0.41 74.71 1.16C72.45 3.35 69.76 7.83 69.76 16.74C69.76 18.43 69.8 19.85 69.85 20.92H38.41C6.74997 20.92 1.20997 27.9 0.719968 32.06C0.649968 32.63 0.839968 33.23 1.21997 33.65C1.60997 34.09 2.16997 34.34 2.76997 34.34C3.27997 34.34 3.67997 34.18 4.40997 33.9C5.23997 33.58 6.62997 33.04 7.60997 33.04C9.72997 33.04 36.45 34.01 36.72 34.02L71.03 34.48C71.22 34.54 71.56 34.7 71.6 35.05C71.6 35.11 71.61 35.17 71.63 35.23C72.01 37.19 73.56 46.44 74.17 55.88C74.21 57.7 74.38 62.88 74.47 65.63L64.67 67.24C61.67 67.59 60.39 69.55 60.48 71.23C60.57 72.87 61.98 74.63 64.86 74.67L75.35 75.48C75.74 76.48 76.39 77.24 77.55 77.24C78.71 77.24 79.37 76.47 79.76 75.46L89.37 74.67C92.25 74.63 93.65 72.87 93.74 71.23C93.83 69.55 92.57 67.6 89.58 67.24L80.16 65.42C80.25 62.68 80.42 57.44 80.46 55.62C81.07 46.18 82.62 36.93 83 34.97C83.01 34.91 83.02 34.85 83.03 34.79C83.07 34.44 83.4 34.28 83.6 34.22L118.31 34.02C118.31 34.02 118.35 34.02 118.37 34.02C118.64 34.02 145.36 33.04 147.48 33.04C148.46 33.04 149.85 33.58 150.68 33.9C151.41 34.19 151.82 34.34 152.32 34.34C152.92 34.34 153.48 34.09 153.87 33.65C154.25 33.22 154.44 32.63 154.37 32.06C153.88 27.9 148.34 20.92 116.69 20.92C113.08 20.92 91.9 20.82 85.08 20.79C85.13 19.72 85.17 18.3 85.17 16.6C85.17 7.74 82.58 3.32 80.4 1.17C79.65 0.42 78.64 0 77.56 0Z" fill="black"/>
</g>
<defs>
<clipPath id="clip0_396_17">
<rect width="153.7" height="77.25" fill="white" transform="translate(0.709961)"/>
</clipPath>
</defs>
</svg>
