<svg width="33" height="125" viewBox="0 0 33 125" fill="none" xmlns="http://www.w3.org/2000/svg">
<g clip-path="url(#clip0_337_12)">
<path d="M13.4098 123.2C12.3098 123.2 12.2098 122.86 12.2098 117.36C12.0698 117.16 11.9798 116.89 11.9798 116.57V113.13C11.9798 112.99 11.9998 112.64 12.2098 112.32C12.2098 107.05 12.2398 106.73 13.3598 106.73C13.8298 106.73 14.1098 106.79 14.2798 107.25C14.0798 99.88 13.7298 86.7701 13.4898 77.62L6.78976 105.6C6.64976 106.16 6.15976 106.56 5.57976 106.56C5.48976 106.56 5.32976 106.54 5.23976 106.51L2.85976 105.83C2.21976 105.64 1.83976 104.99 1.98976 104.35L10.6098 67.4901C10.4698 67.3 10.3898 67.07 10.3798 66.82C10.3598 66.46 10.3298 65.77 10.3098 65.29C9.43976 64.64 9.26976 63.6 9.30976 62.98L9.20976 61.9501H4.85976L5.01976 65.44C5.04976 65.66 5.04976 66.05 4.76976 66.4C4.62976 66.59 4.28976 66.9 3.67976 66.9H3.12976C3.12976 66.9 3.06976 66.9 3.03976 66.9C2.70976 66.9 2.39976 66.7701 2.16976 66.5301C1.90976 66.2501 1.78976 65.8801 1.80976 65.41C1.83976 64.9001 1.94976 60.91 1.94976 60.91V33.09C1.94976 30.98 3.13976 30.87 3.37976 30.87C3.61976 30.87 4.80976 30.98 4.80976 33.09V41.87H7.73976C8.68976 31.76 16.2098 31.09 16.2898 31.09C16.3098 31.09 16.4098 31.09 16.4398 31.09C16.4998 31.09 17.5698 31.18 18.9398 31.82L26.0798 2.75005C26.2198 2.19005 26.7198 1.80005 27.2898 1.80005C27.3498 1.80005 27.4698 1.81005 27.5298 1.82005L29.9598 2.29005C30.2898 2.36005 30.5898 2.56005 30.7698 2.84005C30.9498 3.13005 31.0098 3.48005 30.9298 3.81005L23.2198 35.87C24.1898 37.58 24.7798 39.66 24.9798 42.09H27.9998V33.31C27.9998 31.2 29.1898 31.1 29.4298 31.1C29.6698 31.1 30.8598 31.21 30.8598 33.31V61.16C30.8598 61.16 30.9698 65.1201 30.9998 65.6301C31.0198 66.09 30.8998 66.4701 30.6398 66.7401C30.4098 66.98 30.0998 67.11 29.7698 67.11C29.7398 67.11 29.7098 67.11 29.6798 67.11H29.1298C28.5098 67.11 28.1798 66.79 28.0398 66.61C27.7698 66.26 27.7598 65.87 27.7898 65.65L27.9498 62.16H23.4798L23.3998 62.98C23.4498 63.6 23.2798 64.64 22.3998 65.29C22.3798 65.77 22.3398 66.48 22.3298 66.82C22.2998 67.47 21.7598 67.98 21.1098 67.98H19.4598C19.3398 72.64 18.4798 104.95 18.2898 111.91L25.9598 112.39C25.9598 112.39 26.0198 112.39 26.0398 112.39C26.7198 112.39 27.3998 112.89 27.3998 113.84V115.33C27.4298 115.61 27.3498 115.9 27.1898 116.14C27.0698 116.32 26.7698 116.64 26.1998 116.71C25.8998 116.75 22.2098 117.16 20.5398 117.35C20.4198 118.29 20.1698 119.03 19.2998 119.03C18.5498 119.03 18.2498 118.43 18.0698 117.63L17.5298 117.7C17.4498 117.72 17.3698 117.73 17.2998 117.73C16.7698 117.73 16.2298 117.35 16.1398 116.63C16.0798 116.63 16.0098 116.64 15.9398 116.64H14.7198C14.7198 116.76 14.6998 117 14.5698 117.24C14.5698 122.86 14.4798 123.2 13.3698 123.2H13.4098ZM28.0198 59.4V44.8601H25.0398C24.8098 48.5101 24.1998 55.06 23.7798 59.4H28.0198ZM8.92976 59.19C8.49976 54.81 7.87976 48.16 7.66976 44.65H4.79976V59.19H8.91976H8.92976Z" fill="white"/>
<path d="M27.2997 2.80005C27.2997 2.80005 27.3297 2.80005 27.3497 2.80005L29.7797 3.27005C29.9197 3.30005 30.0097 3.43005 29.9697 3.57005L22.1697 36.0201C23.1697 37.6301 23.9297 39.89 24.0597 43.08H28.8097C28.9297 43.08 29.0197 42.99 29.0197 42.87V33.3C29.0197 32.49 29.2397 32.08 29.4497 32.08C29.6597 32.08 29.8797 32.49 29.8797 33.3V61.15C29.8797 61.15 29.9897 65.16 30.0197 65.6701C30.0397 66.0601 29.8697 66.11 29.7897 66.11C29.7597 66.11 29.7497 66.11 29.7497 66.11H29.1497C28.7097 66.11 28.8097 65.75 28.8097 65.75L29.0097 61.3801C29.0097 61.2601 28.9197 61.16 28.7997 61.16H22.5997C22.4897 62.2901 22.4197 62.98 22.4197 62.98C22.4197 62.98 22.6097 64.23 21.4597 64.69C21.4497 64.82 21.3797 66.23 21.3497 66.7701C21.3497 66.8901 21.2497 66.98 21.1297 66.98H19.1897C19.1897 66.98 18.4897 67.1401 18.4897 67.4201C18.4897 67.7001 17.2897 112.78 17.2897 112.78C17.2897 112.78 17.2897 112.81 17.2897 112.85L25.9997 113.39C25.9997 113.39 26.0297 113.39 26.0697 113.39C26.1897 113.39 26.4297 113.44 26.4297 113.84V115.4C26.4297 115.4 26.4997 115.67 26.1097 115.72C25.7197 115.77 19.6597 116.45 19.6597 116.45C19.5697 117.55 19.4597 118.04 19.3397 118.04C19.2097 118.04 19.0697 117.5 18.9297 116.53L17.4197 116.72C17.4197 116.72 17.3897 116.73 17.3497 116.73C17.2797 116.73 17.1797 116.69 17.1797 116.44V115.09L16.6297 115.3C16.5497 115.37 16.4697 115.41 16.3797 115.41C16.3297 115.52 16.2197 115.65 15.9997 115.65H14.6997C14.6997 115.65 14.6997 115.65 14.6797 115.65C14.5897 115.65 14.2597 115.62 14.2597 115.25H13.7797V116.6C13.7797 116.6 13.7897 116.87 13.6397 116.87C13.6397 120.43 13.5397 122.22 13.4397 122.22C13.3397 122.22 13.2397 120.44 13.2397 116.87C13.2397 116.87 13.2197 116.87 13.1997 116.87C13.1297 116.87 13.0097 116.84 13.0097 116.58V113.14C13.0097 113.14 13.0097 112.79 13.2397 112.79C13.2397 109.42 13.3197 107.74 13.3897 107.74C13.4597 107.74 13.5397 109.42 13.5397 112.79C13.5397 112.79 13.5397 112.79 13.5597 112.79C13.5897 112.79 13.6597 112.84 13.6597 113.27V114.6H15.0897C15.0897 114.6 15.1097 114.42 15.4897 114.42H15.6897C15.4997 113.68 15.4497 112.81 15.4497 112.81C15.4497 112.81 14.5597 79.61 14.3097 70.0201L5.83975 105.39C5.80975 105.5 5.70975 105.58 5.59975 105.58C5.57975 105.58 5.54975 105.58 5.52975 105.58L3.14975 104.9C3.01975 104.86 2.94975 104.73 2.97975 104.6L11.7697 67.0201H11.6097C11.4897 67.0201 11.3897 66.9301 11.3897 66.8101C11.3597 66.2701 11.2997 64.8501 11.2797 64.73C10.1397 64.2701 10.3197 63.0201 10.3197 63.0201C10.3197 63.0201 10.2397 62.24 10.1197 60.99H4.02975C3.90975 60.99 3.80975 61.09 3.81975 61.21L4.01975 65.58C4.01975 65.58 4.11975 65.94 3.67975 65.94H3.07975C3.07975 65.94 3.05975 65.94 3.03975 65.94C2.95975 65.94 2.78975 65.89 2.80975 65.5C2.83975 64.99 2.94975 60.98 2.94975 60.98V33.1301C2.94975 32.3201 3.16975 31.91 3.37975 31.91C3.58975 31.91 3.80975 32.3201 3.80975 33.1301V42.7001C3.80975 42.82 3.89975 42.91 4.01975 42.91H8.66975C9.17975 32.65 16.3597 32.12 16.3597 32.12C16.3597 32.12 17.8897 32.2301 19.5897 33.3601L27.0497 2.99005C27.0797 2.88005 27.1797 2.80005 27.2897 2.80005M4.01975 60.19H10.0297C9.60975 55.87 8.82975 47.67 8.63975 44.05C8.63975 43.91 8.63975 43.78 8.63975 43.65H4.01975C3.89975 43.65 3.80975 43.7401 3.80975 43.8601V59.98C3.80975 60.1 3.89975 60.19 4.01975 60.19ZM22.6697 60.4H28.8097C28.9297 60.4 29.0197 60.31 29.0197 60.19V44.07C29.0197 43.9501 28.9297 43.8601 28.8097 43.8601H24.0797C24.0797 43.9201 24.0797 43.99 24.0797 44.05C23.8897 47.73 23.0897 56.14 22.6697 60.4ZM27.2997 0.800049C26.2597 0.800049 25.3597 1.50005 25.1197 2.51005L18.2397 30.47C17.2997 30.16 16.6297 30.1 16.5097 30.09C16.4597 30.09 16.4097 30.09 16.3597 30.09C16.3097 30.09 16.2597 30.09 16.2097 30.09C13.3297 30.3 7.96975 32.86 6.84975 40.87H5.80975V33.09C5.80975 30.7201 4.49975 29.87 3.37975 29.87C2.25975 29.87 0.949747 30.71 0.949747 33.09V60.91C0.909747 62.51 0.829747 65 0.809747 65.36C0.759747 66.29 1.12975 66.8801 1.43975 67.22C1.84975 67.65 2.42975 67.9 3.02975 67.9C3.06975 67.9 3.10975 67.9 3.15975 67.9H3.66975C4.42975 67.9 5.11975 67.57 5.55975 67.01C5.91975 66.54 6.07975 65.93 6.00975 65.34L5.89975 62.9501H8.28975C8.28975 62.9501 8.28975 62.98 8.28975 62.99C8.22975 63.92 8.53975 64.98 9.30975 65.76C9.32975 66.1701 9.34975 66.61 9.35975 66.87C9.36975 67.14 9.42975 67.4 9.52975 67.6301L1.00975 104.1C0.739747 105.27 1.42975 106.44 2.57975 106.77L4.95975 107.45C5.15975 107.51 5.36975 107.54 5.57975 107.54C6.61975 107.54 7.51975 106.83 7.76975 105.81L12.6997 85.23C12.8897 92.3801 13.0997 100.22 13.2397 105.71C11.3597 105.79 11.2997 107.73 11.2597 108.9C11.2297 109.7 11.2197 110.77 11.2097 112.04C10.9997 112.5 10.9797 112.94 10.9797 113.16V114.49V115.22V116.55C10.9797 116.95 11.0597 117.3 11.2097 117.6C11.2097 118.95 11.2397 120.09 11.2697 120.93C11.3197 122.15 11.4097 124.18 13.4097 124.18C15.4097 124.18 15.4897 122.14 15.5497 120.93C15.5797 120.14 15.5997 119.08 15.6097 117.84C16.0297 118.41 16.6997 118.71 17.3297 118.71C17.3497 118.71 17.3797 118.71 17.3997 118.71C17.7297 119.44 18.2797 120.02 19.3197 120.02C20.5797 120.02 21.1297 119.19 21.3897 118.25C23.2197 118.04 26.0797 117.72 26.3397 117.69C27.0497 117.6 27.6597 117.25 28.0397 116.69C28.3297 116.27 28.4597 115.77 28.4197 115.27V113.83C28.4197 112.43 27.3997 111.38 26.0597 111.38C26.0297 111.38 25.9997 111.38 25.9697 111.38L19.3297 110.97C19.6097 100.31 20.2797 75.4501 20.4397 68.97H21.1197C22.3097 68.97 23.2797 68.0401 23.3397 66.8501C23.3497 66.6001 23.3697 66.1501 23.3897 65.7401C24.1197 65.01 24.4297 64.0201 24.4197 63.14H26.9097L26.7997 65.5301C26.7297 66.12 26.8897 66.73 27.2497 67.2001C27.6897 67.7701 28.3697 68.09 29.1397 68.09H29.6497C29.6497 68.09 29.7397 68.09 29.7797 68.09C30.3797 68.09 30.9597 67.84 31.3697 67.41C31.6897 67.08 32.0497 66.4901 31.9997 65.55C31.9797 65.2001 31.9097 62.71 31.8597 61.1V33.28C31.8597 30.91 30.5497 30.06 29.4297 30.06C28.3097 30.06 26.9997 30.9 26.9997 33.28V41.06H25.8797C25.6197 39.03 25.0897 37.2401 24.2797 35.7001L31.9197 4.05005C32.0597 3.46005 31.9597 2.82005 31.6197 2.31005C31.2797 1.80005 30.7597 1.43005 30.1597 1.32005L27.7297 0.850049C27.5997 0.830049 27.4297 0.810049 27.2997 0.810049V0.800049ZM5.80975 45.65H6.73975C6.96975 49.01 7.44975 54.25 7.82975 58.19H5.80975V45.65ZM25.9697 45.8601H27.0197V58.4H24.8797C25.2597 54.47 25.7397 49.2801 25.9797 45.8601H25.9697Z" fill="black"/>
</g>
<defs>
<clipPath id="clip0_337_12">
<rect width="31.22" height="123.4" fill="white" transform="translate(0.799805 0.800049)"/>
</clipPath>
</defs>
</svg>
