<svg width="49" height="123" viewBox="0 0 49 123" fill="none" xmlns="http://www.w3.org/2000/svg">
<g clip-path="url(#clip0_502_51)">
<path d="M21.739 121.24C20.779 121.24 20.299 121.24 20.299 113.76V112.64C20.299 105.04 20.859 105.04 21.789 105.04C21.829 105.04 21.879 105.04 21.919 105.04C21.609 104.8 21.419 104.42 21.419 104V87.3C21.419 86.94 21.559 86.62 21.779 86.37C21.569 77.49 21.469 74.14 21.429 72.91C19.989 72.26 19.399 70.28 19.319 70.01C19.299 69.93 18.709 66.63 18.049 62.93C16.869 62.69 15.889 62.4 15.149 62.15V62.67C15.149 63.69 14.419 64.46 13.449 64.46C12.479 64.46 11.749 63.69 11.749 62.67C11.749 62.6 11.749 62.53 11.769 62.47C11.769 62.4 11.769 62.29 11.749 62.13C11.749 62.04 11.749 61.95 11.769 61.86C11.869 61.36 11.969 60.92 12.009 60.71V36.21C12.009 34.04 13.249 33.94 13.489 33.94C13.579 33.94 13.799 33.96 14.049 34.08L1.56896 4.82002C1.40896 4.44002 1.39896 4.02002 1.55896 3.64002C1.71896 3.26002 2.00896 2.96002 2.38896 2.80002L4.53896 1.89002C4.72897 1.81002 4.92896 1.77002 5.13896 1.77002C5.75897 1.77002 6.31896 2.14002 6.55896 2.71002L18.219 30.38C19.989 27.2 22.539 26.46 24.519 26.46C32.799 26.46 33.269 38.3 33.299 43.86L34.419 43.63V36.23C34.419 34.06 35.659 33.96 35.899 33.96C36.139 33.96 37.379 34.07 37.379 36.23V60.73C37.429 60.93 37.529 61.38 37.619 61.88C37.639 61.97 37.639 62.06 37.639 62.15C37.629 62.32 37.619 62.42 37.619 62.49C37.629 62.55 37.639 62.62 37.639 62.69C37.639 63.71 36.909 64.48 35.939 64.48C34.969 64.48 34.239 63.71 34.239 62.69V62.17C33.619 62.38 32.829 62.62 31.889 62.83L46.959 98.57C47.119 98.95 47.119 99.37 46.959 99.75C46.799 100.13 46.509 100.43 46.129 100.59L43.979 101.5C43.789 101.58 43.589 101.62 43.379 101.62C42.749 101.62 42.189 101.25 41.949 100.67L29.559 70.93C29.229 71.65 28.669 72.54 27.789 72.93C27.669 76.42 27.289 92.82 27.039 104.02C27.039 104.51 26.919 104.89 26.729 105.16V109.83L37.159 110.8C37.669 110.85 38.069 111.28 38.069 111.8V115.07C38.069 115.57 37.689 116 37.189 116.06L29.559 117.01V117.44C29.559 117.99 29.109 118.44 28.559 118.44H24.269C23.719 118.44 23.269 117.99 23.269 117.44V115.86C23.269 115.42 23.409 115.06 23.619 114.78H23.139C23.099 121.24 22.619 121.24 21.699 121.24H21.739ZM33.309 48.12C33.309 48.27 33.169 50.66 32.859 53.08C32.769 53.81 32.459 55.68 31.949 58.63L34.379 58.15V47.64C34.049 47.72 33.679 47.81 33.299 47.87V48.11L33.309 48.12ZM17.299 58.6C16.789 55.67 16.489 53.81 16.399 53.08C16.089 50.66 15.959 48.27 15.949 48.17V47.85C15.629 47.79 15.309 47.72 15.029 47.64V58.15L17.299 58.6ZM15.949 43.81C15.949 42.41 15.979 40.68 16.119 38.89L14.989 36.24V43.62L15.959 43.82L15.949 43.81Z" fill="white"/>
<path d="M5.1491 2.76001C5.3591 2.76001 5.5591 2.88001 5.6491 3.09001L18.2191 32.9C19.2491 29.8 21.1291 27.44 24.5391 27.44C32.2091 27.44 32.3191 39.42 32.3191 44.78V45.06L35.4391 44.42V36.2C35.4391 35.35 35.6791 34.93 35.9191 34.93C36.1591 34.93 36.3991 35.35 36.3991 36.2V60.81C36.3991 60.81 36.5291 61.38 36.6591 62.04C36.6191 62.66 36.6591 62.66 36.6591 62.66C36.6591 63.19 36.3091 63.45 35.9591 63.45C35.6091 63.45 35.2591 63.19 35.2591 62.66V60.68C35.2591 60.68 33.3591 61.57 30.5191 62.06L46.0591 98.93C46.1791 99.21 46.0491 99.53 45.7691 99.64L43.6191 100.55C43.5491 100.58 43.4791 100.59 43.4091 100.59C43.1991 100.59 42.9991 100.46 42.9091 100.26L29.3491 67.69C29.1291 68.94 28.9791 69.74 28.9791 69.74C28.9791 69.74 28.3191 72.11 26.8691 72.11C26.7791 72.68 26.0791 103.97 26.0791 103.97C26.0791 103.97 26.0791 104.67 25.7691 104.67V110.71L37.1091 111.77V115.04L28.6091 116.09V117.41H24.3191V115.83C24.3191 115.3 24.7191 115.17 24.7191 115.17L25.5591 114.86V113.77L22.1991 113.74C22.1991 118.06 21.9791 120.22 21.7591 120.22C21.5391 120.22 21.3191 118.06 21.3191 113.74V112.62C21.3191 108.22 21.5691 106.02 21.8091 106.02C22.0491 106.02 22.2991 108.22 22.2991 112.62H23.4191L23.6091 112.31H23.5091V104.66C23.3591 104.66 23.2791 104.48 23.2391 104.31H22.7591C22.5791 104.31 22.4291 104.16 22.4291 103.98V87.28C22.4291 87.07 22.5991 86.91 22.7991 86.91C22.6191 79.48 22.4391 72.37 22.3991 72.1C20.9491 72.1 20.2891 69.73 20.2891 69.73C20.2891 69.73 19.6191 66.02 18.9191 62.06C16.0591 61.57 14.1591 60.68 14.1591 60.68V62.66C14.1591 63.19 13.8091 63.45 13.4591 63.45C13.1091 63.45 12.7591 63.19 12.7591 62.66C12.7591 62.66 12.7991 62.66 12.7591 62.04C12.8891 61.38 13.0191 60.81 13.0191 60.81V36.2C13.0191 35.35 13.2591 34.93 13.4991 34.93C13.7391 34.93 13.9791 35.35 13.9791 36.2V44.42L16.9491 45.02V44.77C16.9491 43.17 16.9491 40.99 17.1291 38.71L2.4991 4.42001C2.3791 4.14001 2.5091 3.82001 2.7891 3.71001L4.9391 2.80001C5.0091 2.77001 5.0791 2.76001 5.1491 2.76001ZM30.7191 59.89L35.3891 58.97V46.31C35.3891 46.31 33.6191 46.9 32.3091 47V48.11C32.3091 48.11 32.1791 50.53 31.8691 52.94C31.7491 53.91 31.2591 56.78 30.7191 59.88M18.5391 59.86C17.9991 56.77 17.5191 53.92 17.3891 52.95C17.0791 50.53 16.9491 48.12 16.9491 48.12V46.99C15.6591 46.86 14.0291 46.32 14.0291 46.32V58.98L18.5391 59.86ZM5.1491 0.76001C4.8091 0.76001 4.4791 0.83001 4.1591 0.96001L2.0091 1.87001C1.3791 2.13001 0.889104 2.63001 0.639104 3.26001C0.379104 3.89001 0.389104 4.58001 0.659104 5.21001L12.5791 33.15C11.7991 33.51 11.0191 34.39 11.0191 36.22V60.61C10.9691 60.85 10.8791 61.24 10.7991 61.67C10.7591 61.85 10.7491 62.03 10.7691 62.2C10.7691 62.29 10.7791 62.35 10.7791 62.41C10.7691 62.5 10.7591 62.59 10.7591 62.68C10.7591 64.25 11.9491 65.47 13.4591 65.47C14.6991 65.47 15.7291 64.64 16.0491 63.48C16.3991 63.58 16.7791 63.68 17.1891 63.77C17.7991 67.19 18.3191 70.1 18.3191 70.1C18.3291 70.16 18.3391 70.22 18.3591 70.28C18.6791 71.45 19.3791 72.74 20.4491 73.49C20.4991 75.06 20.5891 78.54 20.7691 86.05C20.5491 86.41 20.4191 86.84 20.4191 87.3V104C20.4191 104.17 20.4391 104.33 20.4691 104.49C19.6591 105.2 19.5391 106.59 19.4591 107.52C19.3491 108.77 19.2991 110.54 19.2991 112.64V113.76C19.2991 115.81 19.3491 117.54 19.4391 118.77C19.5391 120.07 19.6991 122.24 21.7391 122.24C23.4691 122.24 23.8491 120.67 23.9791 119.41C24.0891 119.43 24.1991 119.44 24.3091 119.44H28.5991C29.5491 119.44 30.3391 118.78 30.5491 117.9L37.3491 117.06C38.3491 116.94 39.0991 116.08 39.0991 115.08V111.81C39.0991 110.78 38.3091 109.91 37.2891 109.82L27.7691 108.93V105.43C27.9591 105.04 28.0791 104.57 28.0791 104.01C28.3191 93.4 28.6791 77.95 28.8191 73.52C29.0291 73.38 29.2191 73.21 29.3991 73.03L41.0691 101.06C41.4691 102.01 42.3891 102.63 43.4191 102.63C43.7591 102.63 44.0891 102.56 44.4091 102.43L46.5591 101.52C47.8491 100.98 48.4591 99.48 47.9191 98.19L33.2991 63.53C33.2991 63.53 33.3491 63.51 33.3791 63.51C33.7091 64.67 34.7291 65.5 35.9691 65.5C37.4891 65.5 38.6691 64.27 38.6691 62.71C38.6691 62.62 38.6691 62.53 38.6491 62.44C38.6491 62.39 38.6491 62.32 38.6591 62.23C38.6691 62.05 38.6591 61.87 38.6291 61.7C38.5391 61.27 38.4591 60.87 38.4091 60.64V36.25C38.4091 33.67 36.8491 32.98 35.9291 32.98C35.1691 32.98 33.9691 33.45 33.5691 35.08C32.5491 30.13 30.1591 25.49 24.5391 25.49C22.6491 25.49 20.3191 26.07 18.4391 28.33L7.4891 2.32001C7.0891 1.37001 6.1691 0.76001 5.1491 0.76001ZM33.1891 57.37C33.2591 56.94 33.3291 56.55 33.3891 56.18V57.33L33.1891 57.37ZM16.0291 57.33V57.09C16.0391 57.17 16.0591 57.25 16.0691 57.34H16.0291V57.33Z" fill="black"/>
</g>
<defs>
<clipPath id="clip0_502_51">
<rect width="47.65" height="121.48" fill="white" transform="translate(0.449219 0.76001)"/>
</clipPath>
</defs>
</svg>
