<svg width="89" height="149" viewBox="0 0 89 149" fill="none" xmlns="http://www.w3.org/2000/svg">
<g clip-path="url(#clip0_565_43)">
<path d="M41.6506 147.735C40.8706 147.735 40.1906 147.205 40.0206 146.445C39.3606 143.635 38.8706 139.975 38.7006 138.515C37.8806 138.005 37.6006 136.935 37.5506 136.695C37.5006 136.455 36.3106 130.855 36.1406 129.855C36.1106 129.705 35.7506 129.295 35.0606 128.905C34.6406 128.665 34.3706 128.215 34.3706 127.735V126.125L31.9506 124.775C31.7806 124.675 31.5806 124.625 31.3906 124.605L5.22059 122.775V122.845C5.57059 123.495 5.56059 124.325 5.54059 124.575V127.575C5.54059 128.665 4.80059 129.155 4.11059 129.155C4.08059 129.155 4.04059 129.155 3.99059 129.155H3.47059C3.03059 129.155 2.63059 128.925 2.41059 128.555C1.83059 128.425 1.42059 127.935 1.42059 127.355V97.9651C1.40059 97.3551 1.44059 95.7851 2.16059 95.0451C2.44059 94.7551 2.82059 94.5951 3.21059 94.5951C4.82059 94.5951 5.18059 96.9351 5.25059 97.9351V104.585C5.52059 104.935 5.54059 105.335 5.54059 105.525V105.775L5.83059 106.905L13.9606 95.4851C14.0606 95.3451 14.1906 95.2251 14.3406 95.1351V93.9651C14.3406 91.5551 15.4206 91.2951 15.8806 91.2951C16.3406 91.2951 17.3606 91.5351 17.4206 93.7351L23.8506 86.4051V85.5851C23.8506 84.0651 24.6306 83.5251 25.3006 83.5251C25.5006 83.5251 25.7106 83.5751 25.9006 83.6751L31.3906 76.1351C31.8006 75.5651 32.1306 74.9351 32.3606 74.2751L32.8806 72.7751H32.5206C31.0806 73.5651 23.1806 77.9051 22.7406 78.1451C22.4706 78.2951 22.2106 78.3751 21.9606 78.3751C21.2906 78.3751 20.7706 77.8551 20.7706 77.1851V73.1151C20.7706 72.3851 21.0706 71.9151 21.2506 71.6951C25.6606 64.7651 34.0006 51.6751 34.2406 51.2851C34.5006 50.8451 34.6506 50.3651 34.6506 50.2251C34.6506 48.7251 36.0606 48.0551 36.9006 47.8951C37.1106 47.8551 37.3506 47.8051 37.5606 47.7551V47.2851C37.5606 46.4851 38.0806 46.0151 38.6206 45.9251V36.7751C38.2406 36.7051 37.9106 36.4851 37.7006 36.1451C37.5306 35.8551 37.4806 35.5151 37.5606 35.1951C37.6806 34.7351 38.0306 34.4451 38.2506 34.2951L38.6306 33.9651V27.8151C38.6306 22.6951 41.0506 15.0451 41.6706 13.1651C41.4706 12.5951 41.6106 11.9751 41.9006 11.5451L42.8606 9.88514V2.43514C42.8606 2.38514 42.8606 2.32514 42.8706 2.27514C42.9706 1.68514 43.4506 1.26514 44.0306 1.26514C44.6106 1.26514 45.1006 1.69514 45.1906 2.27514C45.1906 2.32514 45.2006 2.38514 45.2006 2.43514V9.88514L46.1906 11.5851C46.4506 11.9751 46.5806 12.5651 46.4106 13.1251C47.8606 16.7451 50.1706 23.2451 50.1706 27.8151C50.1706 33.0251 50.1806 42.7951 50.1906 45.9151C50.7406 46.0051 51.2506 46.4751 51.2506 47.2751V47.7451C51.4606 47.7951 51.7006 47.8451 51.9106 47.8851C52.7406 48.0451 54.1506 48.7051 54.1506 50.2151C54.1506 50.3551 54.3006 50.8351 54.5606 51.2751C54.8006 51.6651 63.1306 64.7551 67.5506 71.6851C67.7306 71.9051 68.0306 72.3851 68.0306 73.1051V77.1751C68.0306 77.2751 68.0106 77.4851 67.9106 77.7151C67.7106 78.1151 67.3106 78.3651 66.8506 78.3651C66.6006 78.3651 66.3406 78.2951 66.0706 78.1351C65.6306 77.8951 57.7306 73.5551 56.2906 72.7651H55.9306L56.4506 74.2651C56.6806 74.9351 57.0106 75.5551 57.4206 76.1251L62.9106 83.6651C63.1006 83.5551 63.3106 83.5151 63.5106 83.5151C64.1806 83.5151 64.9606 84.0551 64.9606 85.5751V86.3951L71.3906 93.7251C71.4506 91.5251 72.4806 91.2851 72.9306 91.2851C73.3806 91.2851 74.4706 91.5451 74.4706 93.9551V95.1251C74.6206 95.2151 74.7506 95.3351 74.8506 95.4751L82.9806 106.895L83.2706 105.765V105.515C83.2706 105.325 83.2806 104.925 83.5506 104.575V98.0051C83.6306 96.9251 83.9906 94.5851 85.6006 94.5851C85.9906 94.5851 86.3706 94.7451 86.6506 95.0351C87.3706 95.7851 87.4106 97.3451 87.3906 97.9851V127.345C87.3906 127.925 86.9706 128.435 86.4006 128.545C86.2206 128.885 85.8006 129.145 85.3406 129.145H84.8206C84.8206 129.145 84.7306 129.145 84.7106 129.145C84.0206 129.145 83.2706 128.645 83.2706 127.565V124.505C83.2606 124.305 83.2406 123.485 83.5906 122.835V122.765L57.4206 124.595C57.2306 124.605 57.0306 124.665 56.8606 124.765L54.4406 126.115V127.725C54.4406 128.215 54.1806 128.665 53.7506 128.895C53.0606 129.285 52.7006 129.685 52.6706 129.845C52.5106 130.845 51.3106 136.445 51.2606 136.685C51.2106 136.935 50.9306 138.005 50.1006 138.515C49.9306 139.985 49.4306 143.635 48.7806 146.445C48.6006 147.205 47.9306 147.745 47.1506 147.745H41.6406L41.6506 147.735Z" fill="white"/>
<path d="M44.0303 2.26514C44.1803 2.26514 44.2103 2.43514 44.2103 2.43514V10.1551L45.3403 12.0851C45.3403 12.0851 45.7003 12.6351 45.3203 13.0751C45.4503 13.4451 49.1803 22.2551 49.1803 27.8151C49.1803 34.0751 49.2003 46.9051 49.2003 46.9051H49.9903C49.9903 46.9051 49.9903 46.9051 50.0003 46.9051C50.0503 46.9051 50.2603 46.9251 50.2603 47.2751V48.2251C50.2603 48.2251 50.1603 48.4751 50.4803 48.5851C50.8003 48.6951 51.7303 48.8751 51.7303 48.8751C51.7303 48.8751 53.1603 49.1451 53.1603 50.2151C53.1603 50.6051 53.4103 51.2851 53.7203 51.7951C54.0203 52.2951 66.7603 72.2851 66.7603 72.2851C66.7603 72.2851 67.0503 72.5551 67.0503 73.1051V77.1751C67.0503 77.1751 67.0503 77.3651 66.8603 77.3651C66.7903 77.3651 66.6903 77.3351 66.5603 77.2651C66.0803 76.9951 56.5503 71.7651 56.5503 71.7651H54.7803C54.6603 71.7651 54.5703 71.8851 54.6103 72.0051L55.5103 74.5951C55.7703 75.3551 56.1503 76.0651 56.6203 76.7151L63.0703 85.5751C63.0703 84.8651 63.2903 84.5151 63.5203 84.5151C63.7503 84.5151 63.9703 84.8651 63.9703 85.5751V86.7751L72.2803 96.2451C72.2803 96.2451 72.3103 96.2651 72.3303 96.2651C72.3603 96.2651 72.4003 96.2351 72.4003 96.1951V93.9451C72.4003 92.8351 72.6703 92.2751 72.9403 92.2751C73.2103 92.2751 73.4803 92.8351 73.4803 93.9451V95.8551C73.4803 95.8551 73.5103 95.9251 73.5503 95.9251H73.7903C73.8903 95.9251 73.9903 95.9751 74.0403 96.0551L83.1603 108.875C83.1603 108.875 83.2503 108.935 83.3403 108.935C83.4203 108.935 83.5003 108.895 83.5303 108.755C83.6103 108.445 84.2703 105.895 84.2703 105.895V105.495C84.2703 105.495 84.2303 105.105 84.5503 105.105V98.0151C84.5503 98.0151 84.7403 95.5951 85.6003 95.5951C86.4603 95.5951 86.3903 97.9751 86.3903 97.9751V127.365C86.3903 127.465 86.3203 127.555 86.2103 127.575C86.0203 127.615 85.7203 127.715 85.5503 128.025C85.5103 128.105 85.4203 128.155 85.3303 128.155H84.7703C84.7703 128.155 84.7403 128.155 84.7003 128.155C84.5603 128.155 84.2603 128.095 84.2603 127.575V124.515C84.2603 124.515 84.2103 123.665 84.5103 123.245C84.5603 123.175 84.5803 123.095 84.5803 123.015V121.815C84.5803 121.755 84.5303 121.705 84.4703 121.705L57.3403 123.595C57.0003 123.615 56.6603 123.715 56.3603 123.885L53.6103 125.425C53.5003 125.485 53.4303 125.605 53.4303 125.735V127.725C53.4303 127.845 53.3603 127.965 53.2503 128.025C52.8303 128.255 51.8003 128.905 51.6703 129.685C51.5103 130.675 50.2703 136.475 50.2703 136.475C50.2703 136.475 50.0203 137.605 49.3303 137.765C49.2303 137.785 49.1603 137.865 49.1503 137.955C49.0603 138.895 48.5303 143.105 47.8003 146.215C47.7303 146.525 47.4503 146.735 47.1403 146.735H41.6303C41.3103 146.735 41.0403 146.515 40.9703 146.215C40.2403 143.105 39.7103 138.895 39.6203 137.955C39.6203 137.855 39.5403 137.785 39.4403 137.765C38.7403 137.605 38.5003 136.475 38.5003 136.475C38.5003 136.475 37.2603 130.675 37.1003 129.685C36.9703 128.905 35.9403 128.255 35.5203 128.025C35.4103 127.965 35.3403 127.845 35.3403 127.725V125.735C35.3403 125.605 35.2703 125.495 35.1603 125.425L32.4103 123.885C32.1103 123.715 31.7703 123.615 31.4303 123.595L4.30033 121.705C4.24033 121.705 4.19033 121.755 4.19033 121.815V123.015C4.19033 123.095 4.21033 123.175 4.26033 123.245C4.56033 123.665 4.51033 124.515 4.51033 124.515V127.575C4.51033 128.095 4.21033 128.155 4.07033 128.155C4.03033 128.155 4.00033 128.155 4.00033 128.155H3.44033C3.35033 128.155 3.26033 128.105 3.22033 128.025C3.06033 127.725 2.76033 127.615 2.56033 127.575C2.46033 127.555 2.38033 127.465 2.38033 127.365V97.9751C2.38033 97.9751 2.31033 95.5951 3.17033 95.5951C4.03033 95.5951 4.22033 98.0151 4.22033 98.0151V105.105C4.54033 105.105 4.50033 105.495 4.50033 105.495V105.895C4.50033 105.895 5.16033 108.445 5.24033 108.755C5.28033 108.895 5.36033 108.935 5.43033 108.935C5.52033 108.935 5.61033 108.875 5.61033 108.875L14.7303 96.0551C14.7903 95.9751 14.8803 95.9251 14.9803 95.9251H15.2203C15.2203 95.9251 15.2903 95.8951 15.2903 95.8551V93.9451C15.2903 92.8351 15.5603 92.2751 15.8303 92.2751C16.1003 92.2751 16.3703 92.8351 16.3703 93.9451V96.1951C16.3703 96.1951 16.4003 96.2651 16.4403 96.2651C16.4603 96.2651 16.4803 96.2651 16.4903 96.2451L24.8003 86.7751V85.5751C24.8003 84.8651 25.0303 84.5151 25.2503 84.5151C25.4703 84.5151 25.7003 84.8651 25.7003 85.5751L32.1503 76.7151C32.6203 76.0651 33.0003 75.3551 33.2603 74.5951L34.1603 72.0051C34.2003 71.8851 34.1103 71.7651 33.9903 71.7651H32.2203C32.2203 71.7651 22.6903 76.9951 22.2103 77.2651C22.0803 77.3351 21.9803 77.3651 21.9103 77.3651C21.7203 77.3651 21.7203 77.1751 21.7203 77.1751V73.1051C21.7203 72.5451 22.0103 72.2851 22.0103 72.2851C22.0103 72.2851 34.7503 52.2951 35.0503 51.7951C35.3503 51.2951 35.6103 50.6151 35.6103 50.2151C35.6103 49.1451 37.0403 48.8751 37.0403 48.8751C37.0403 48.8751 37.9703 48.6951 38.2903 48.5851C38.6103 48.4751 38.5103 48.2251 38.5103 48.2251V47.2751C38.5103 46.9251 38.7203 46.9051 38.7703 46.9051H38.7803H39.5703V35.3451L39.0203 35.7651C39.0203 35.7651 38.9303 35.7951 38.8303 35.7951C38.7303 35.7951 38.5903 35.7651 38.5103 35.6251C38.3503 35.3551 38.7903 35.1051 38.7903 35.1051L39.5803 34.4351V27.8251C39.5803 22.2651 42.5703 13.4551 42.7003 13.0851C42.3203 12.6451 42.6803 12.0951 42.6803 12.0951L43.8103 10.1651V2.43514C43.8103 2.43514 43.8403 2.26514 43.9903 2.26514M44.0303 0.265137C42.9603 0.265137 42.0603 1.04514 41.8803 2.11514C41.8603 2.22514 41.8503 2.32514 41.8503 2.43514V9.60514L41.0103 11.0351C40.6503 11.6051 40.4603 12.3651 40.6103 13.1151C39.8503 15.4451 37.6103 22.7251 37.6103 27.7951V33.4751C37.2703 33.7151 36.7603 34.1751 36.5703 34.9151C36.4203 35.5051 36.5103 36.1051 36.8203 36.6251C37.0203 36.9551 37.2803 37.2151 37.5903 37.4151V45.2351C37.0603 45.5751 36.6403 46.1451 36.5503 46.9151C35.1403 47.2251 33.6703 48.3351 33.6203 50.1151C33.5903 50.2351 33.4903 50.5051 33.3503 50.7351C33.0503 51.2351 23.9703 65.4851 20.4003 71.0751C20.1103 71.4451 19.7303 72.1151 19.7303 73.0851V77.1551C19.7303 78.3651 20.7103 79.3451 21.9203 79.3451C22.3403 79.3451 22.7703 79.2251 23.1903 78.9951C23.5303 78.8051 28.2303 76.2251 31.0603 74.6751C30.9103 74.9651 30.7403 75.2551 30.5403 75.5251L25.4603 82.5051C25.3903 82.5051 25.3303 82.5051 25.2603 82.5051C24.0803 82.5051 22.8103 83.4651 22.8103 85.5651V86.0051L17.9103 91.5951C17.2603 90.3551 16.1403 90.2751 15.8403 90.2751C15.4203 90.2751 13.3003 90.4551 13.3003 93.9451V94.6551C13.2303 94.7251 13.1703 94.8051 13.1103 94.8951L6.31033 104.455C6.28033 104.395 6.26033 104.345 6.23033 104.285V98.0051C6.23033 97.9551 6.23033 97.9051 6.23033 97.8451C5.93033 93.9951 4.00033 93.5851 3.19033 93.5851C2.52033 93.5851 1.90033 93.8551 1.42033 94.3451C0.520333 95.2651 0.370333 96.8351 0.390333 97.9951V127.355C0.390333 128.265 0.950333 129.075 1.77033 129.415C2.19033 129.885 2.79033 130.155 3.44033 130.155H3.90033C3.95033 130.155 4.01033 130.155 4.07033 130.155C5.25033 130.155 6.51033 129.245 6.51033 127.575V124.565C6.51033 124.395 6.51033 124.145 6.49033 123.875L31.2903 125.605C31.3403 125.605 31.3903 125.625 31.4303 125.645L33.3403 126.715V127.735C33.3403 128.585 33.8003 129.375 34.5403 129.785C34.8503 129.955 35.0503 130.125 35.1503 130.225C35.4003 131.585 36.4103 136.345 36.5303 136.905C36.6903 137.655 37.0803 138.485 37.7203 139.065C37.9303 140.755 38.4003 144.075 39.0103 146.685C39.2903 147.905 40.3703 148.755 41.6203 148.755H47.1303C48.3803 148.755 49.4503 147.905 49.7403 146.685C50.3503 144.075 50.8203 140.755 51.0303 139.065C51.6703 138.485 52.0503 137.665 52.2203 136.915C52.3403 136.335 53.3503 131.585 53.6003 130.225C53.7003 130.125 53.9003 129.955 54.2103 129.785C54.9503 129.375 55.4103 128.585 55.4103 127.735V126.715L57.3203 125.645C57.3203 125.645 57.4103 125.605 57.4603 125.605L82.2603 123.875C82.2303 124.155 82.2403 124.395 82.2403 124.565V127.575C82.2403 129.255 83.5003 130.155 84.6803 130.155C84.7403 130.155 84.8003 130.155 84.8503 130.155H85.3103C85.9503 130.155 86.5603 129.875 86.9803 129.415C87.8003 129.085 88.3603 128.275 88.3603 127.355V97.9951C88.3903 96.8351 88.2303 95.2751 87.3303 94.3451C86.8603 93.8551 86.2303 93.5851 85.5603 93.5851C84.7503 93.5851 82.8203 94.0051 82.5203 97.8451C82.5203 97.8951 82.5203 97.9451 82.5203 98.0051V104.285C82.4903 104.345 82.4603 104.405 82.4403 104.455L75.6403 94.8951C75.5803 94.8151 75.5203 94.7351 75.4503 94.6551V93.9451C75.4503 90.4551 73.3303 90.2751 72.9103 90.2751C72.6103 90.2751 71.4903 90.3651 70.8403 91.5951L65.9403 86.0051V85.5651C65.9403 83.4651 64.6703 82.5051 63.4903 82.5051C63.4203 82.5051 63.3603 82.5051 63.2903 82.5051L58.2103 75.5251C58.0103 75.2551 57.8403 74.9751 57.6903 74.6751C60.5303 76.2351 65.2303 78.8151 65.5603 78.9951C65.9803 79.2251 66.4103 79.3451 66.8303 79.3451C68.0403 79.3451 69.0203 78.3651 69.0203 77.1551V73.0851C69.0203 72.1151 68.6403 71.4451 68.3503 71.0751C64.7803 65.4751 55.7103 51.2251 55.4003 50.7251C55.2603 50.5051 55.1603 50.2251 55.1403 50.1151C55.1003 48.3451 53.6303 47.2251 52.2103 46.9151C52.1103 46.1551 51.7003 45.5751 51.1603 45.2351C51.1603 41.5751 51.1403 32.6851 51.1403 27.7951C51.1403 23.1851 48.9003 16.7651 47.4203 13.0251C47.5403 12.3051 47.3503 11.5751 47.0003 11.0251L46.1603 9.58514V2.43514C46.1603 2.32514 46.1603 2.21514 46.1303 2.11514C45.9503 1.04514 45.0503 0.265137 43.9803 0.265137L44.0303 0.265137Z" fill="black"/>
</g>
<defs>
<clipPath id="clip0_565_43">
<rect width="88" height="148.47" fill="white" transform="translate(0.400391 0.265137)"/>
</clipPath>
</defs>
</svg>
