<svg width="220" height="205" viewBox="0 0 220 205" fill="none" xmlns="http://www.w3.org/2000/svg">
<g clip-path="url(#clip0_307_79)">
<path d="M110.749 203.83C110.369 203.83 109.999 203.68 109.729 203.4C109.149 202.81 109.069 201.8 109.069 200.63C107.069 199.32 105.529 194.33 104.499 189.82L70.0893 187.37C69.5693 187.33 69.1693 186.91 69.1593 186.39L69.0493 177.69C69.0093 174.22 72.0593 172.58 73.6793 172.2C74.5893 172.01 93.6093 168.05 98.7493 167.03C96.7593 160.28 97.3293 151.51 97.3493 151.12L96.8493 110.25L81.3593 108.98C81.2693 109.19 81.1493 109.4 80.9893 109.6C80.3193 110.41 79.1593 110.83 77.5293 110.85C75.9993 110.85 74.9093 110.45 74.2193 109.65C73.8493 109.23 73.6593 108.78 73.5593 108.38C65.2693 107.85 5.09931 103.97 3.86931 103.83C2.94931 103.72 2.47931 103.29 2.24931 102.95C1.91931 102.45 1.93931 101.93 1.98931 101.64L1.89931 94.1898C1.84931 90.2998 6.72931 88.9698 6.93931 88.9198C6.98931 88.9098 7.03931 88.8998 7.08931 88.8898L71.2693 82.0498C71.1893 78.8598 71.0493 68.4598 72.4793 62.6398C72.0893 62.6398 71.7093 62.6398 71.3393 62.6398C59.7893 62.6398 59.7893 62.2998 59.7793 61.1798C59.7793 60.0698 59.7693 59.6498 73.6393 59.3998C74.6293 57.1698 75.6193 55.7298 77.0093 55.7298C78.3993 55.7298 79.4493 57.3798 80.2693 59.3198C81.0093 59.3198 81.7193 59.3198 82.3893 59.3198C94.0993 59.3198 94.0993 59.6598 94.1093 60.7698C94.1093 61.8698 94.1193 62.2698 81.3593 62.5298C82.7693 68.1398 83.0693 77.5898 83.1293 80.8198L96.6393 79.4198L96.1293 38.0098C96.0593 32.6298 96.9893 23.5998 99.2093 15.5398C101.019 8.95979 104.279 1.09979 109.509 1.02979C119.099 1.02979 123.349 27.6998 123.349 37.8398V79.2498L136.869 80.4798C136.889 77.2498 137.079 67.7898 138.419 62.1698C125.649 62.0598 125.649 61.6698 125.649 60.5598C125.649 59.4298 125.649 59.0398 139.479 58.9498C140.279 56.9898 141.249 55.3198 142.719 55.3198C144.099 55.3198 145.099 56.7498 146.109 58.9498C159.989 59.0298 159.989 59.4598 159.989 60.5698C159.989 61.6798 159.989 62.0798 147.309 62.1798C148.809 67.9698 148.799 78.3798 148.759 81.5698L213.009 87.6298C213.009 87.6298 213.109 87.6398 213.159 87.6598C213.369 87.7098 218.269 88.9798 218.269 92.8698V100.32C218.319 100.6 218.349 101.12 218.019 101.63C217.799 101.98 217.339 102.42 216.419 102.53C215.189 102.69 155.069 107.3 146.799 107.93C146.709 108.33 146.519 108.79 146.149 109.22C145.449 110.03 144.339 110.45 142.859 110.45C141.229 110.45 140.059 110.04 139.379 109.24C139.209 109.04 139.089 108.84 138.999 108.63L123.519 110.09V151.04C123.549 151.35 124.219 160.11 122.309 166.89C127.459 167.84 146.519 171.57 147.419 171.75C149.069 172.12 152.139 173.72 152.139 177.19V185.89C152.139 186.41 151.739 186.84 151.219 186.89L116.849 189.76C115.879 194.3 114.389 199.32 112.409 200.64C112.419 201.82 112.359 202.83 111.779 203.42C111.509 203.7 111.139 203.85 110.749 203.85V203.83Z" fill="white"/>
<path d="M109.529 2.02979C117.789 2.02979 122.359 26.5098 122.359 37.8398V79.5598C122.359 79.8998 122.619 80.1898 122.959 80.2198L137.879 81.5798C137.879 81.5798 137.799 67.3998 139.729 61.1798C122.149 61.0698 122.299 60.0498 140.169 59.9498C141.099 57.5098 141.899 56.3198 142.719 56.3198C143.559 56.3198 144.409 57.5498 145.459 59.9398C163.329 60.0298 163.499 61.0698 145.959 61.1798C148.119 67.2498 147.739 82.4698 147.739 82.4698L212.919 88.6098C212.919 88.6098 217.269 89.6998 217.269 92.8498V100.41C217.269 100.41 217.569 101.36 216.289 101.52C215.009 101.68 145.869 106.98 145.869 106.98C145.869 106.98 146.219 109.43 142.849 109.43C139.479 109.43 139.809 107.53 139.809 107.53L123.339 109.08C122.879 109.12 122.519 109.51 122.519 109.98V151.01C122.519 151.01 123.309 160.88 121.029 167.64C123.069 167.97 147.229 172.7 147.229 172.7C147.229 172.7 151.139 173.57 151.139 177.16V185.86L116.019 188.8C116.019 188.8 113.739 199.94 111.399 199.94C111.399 200.81 111.559 202.82 110.749 202.82C109.939 202.82 110.079 200.81 110.069 199.95C107.739 199.95 105.319 188.86 105.319 188.86L70.1694 186.35C70.1694 186.35 70.1094 181.24 70.0594 177.65C70.0194 174.06 73.9194 173.15 73.9194 173.15C73.9194 173.15 98.0194 168.13 100.059 167.77C97.6894 161.03 98.3594 151.16 98.3594 151.16L97.8594 110.13C97.8594 109.66 97.4894 109.28 97.0294 109.24L80.5494 107.89C80.5494 107.89 80.8994 109.79 77.5294 109.83C77.4994 109.83 77.4694 109.83 77.4494 109.83C74.1694 109.83 74.4894 107.42 74.4894 107.42C74.4894 107.42 5.27943 102.96 4.00943 102.82C2.72943 102.67 3.01943 101.72 3.01943 101.72C3.01943 101.72 2.96943 97.3198 2.92943 94.1598C2.88943 90.9998 7.22943 89.8698 7.22943 89.8698L72.3294 82.9298C72.3294 82.9298 71.7594 67.7198 73.8394 61.6198C72.9794 61.6198 72.1594 61.6198 71.3794 61.6198C56.3594 61.6198 57.3394 60.6598 74.3294 60.3698C75.3494 57.9498 76.1994 56.7098 77.0394 56.7098C77.8594 56.7098 78.6694 57.8898 79.6294 60.3098C80.6194 60.3098 81.5494 60.3098 82.4294 60.3098C97.4594 60.3098 96.6894 61.2398 80.0894 61.5498C82.0894 67.7398 82.1894 81.9198 82.1894 81.9198L97.0894 80.3798C97.4294 80.3398 97.6894 80.0498 97.6894 79.7098L97.1794 37.9898C97.0394 26.6598 101.309 2.12979 109.569 2.02979M109.529 0.0297852H109.509C104.809 0.0897852 101.029 5.21978 98.2594 15.2698C96.0094 23.4298 95.0794 32.5698 95.1394 38.0198L95.6294 78.5198L84.1094 79.7098C84.0094 76.0598 83.6894 68.6898 82.6094 63.4998C85.5994 63.4298 88.1094 63.3298 89.9794 63.2098C93.1994 63.0098 95.1394 62.8798 95.1194 60.7598C95.0994 58.6698 93.0794 58.5698 90.5294 58.4498C88.5994 58.3598 85.7894 58.3098 82.3994 58.3098C81.9194 58.3098 81.4294 58.3098 80.9194 58.3098C80.0094 56.3298 78.8494 54.7198 77.0094 54.7198C75.0994 54.7198 73.9094 56.4598 72.9894 58.3998C69.3194 58.4698 66.2394 58.5798 64.0294 58.7198C60.7394 58.9298 58.7594 59.0498 58.7794 61.1798C58.7994 63.2698 60.8994 63.3698 63.3294 63.4898C65.2094 63.5798 67.9494 63.6298 71.2394 63.6298C70.1694 69.1798 70.1794 77.4498 70.2494 81.1398L6.98943 87.8798C6.88943 87.8898 6.78943 87.9098 6.68943 87.9298C4.51943 88.5098 0.849431 90.4698 0.899431 94.1898L0.989431 101.56C0.929431 102.03 0.939431 102.76 1.41943 103.48C1.75943 104 2.44943 104.66 3.75943 104.81C4.98943 104.95 61.0394 108.56 72.8394 109.32C72.9894 109.64 73.1894 109.97 73.4694 110.29C74.0894 110.99 75.2794 111.83 77.4394 111.83H77.5494C79.4894 111.81 80.9094 111.26 81.7694 110.21C81.8194 110.14 81.8794 110.08 81.9194 110.01L95.8694 111.15L96.3594 151.11C96.2994 152.06 95.8894 159.76 97.5194 166.24C91.2194 167.51 74.3494 171.02 73.5194 171.2C73.4994 171.2 73.4894 171.2 73.4694 171.21C71.5794 171.65 68.0194 173.58 68.0694 177.69L68.1794 186.39C68.1894 187.43 68.9994 188.29 70.0394 188.36L103.709 190.76C105.269 197.37 106.849 200.07 108.089 201.19C108.119 202.23 108.279 203.34 109.039 204.11C109.499 204.58 110.119 204.83 110.769 204.83C111.439 204.83 112.049 204.57 112.519 204.09C113.279 203.31 113.429 202.19 113.439 201.15C114.669 200.02 116.209 197.29 117.689 190.67L151.329 187.86C152.369 187.77 153.159 186.91 153.159 185.87V177.17C153.159 173.06 149.579 171.18 147.679 170.76C147.659 170.76 147.649 170.76 147.629 170.75C146.789 170.59 129.879 167.28 123.569 166.09C125.119 159.59 124.609 151.9 124.539 150.95V110.99L138.469 109.68C138.519 109.75 138.569 109.81 138.629 109.88C139.509 110.92 140.929 111.45 142.869 111.45C145.089 111.45 146.299 110.6 146.919 109.88C147.199 109.55 147.409 109.21 147.549 108.88C159.339 107.98 215.339 103.68 216.559 103.52C217.869 103.35 218.539 102.69 218.879 102.16C219.349 101.43 219.349 100.7 219.289 100.23V92.8598C219.289 89.1398 215.599 87.2198 213.429 86.6798C213.329 86.6598 213.229 86.6398 213.129 86.6298L149.789 80.6598C149.809 76.9698 149.719 68.6998 148.579 63.1598C151.529 63.1198 154.009 63.0498 155.859 62.9598C158.959 62.7998 161.009 62.6898 161.009 60.5698C161.009 58.4398 159.019 58.3398 155.729 58.1698C153.519 58.0598 150.439 57.9898 146.769 57.9598C145.829 56.0398 144.629 54.3298 142.739 54.3298C140.889 54.3298 139.739 55.9598 138.839 57.9698C135.199 57.9998 132.139 58.0698 129.949 58.1798C126.659 58.3398 124.669 58.4398 124.669 60.5698C124.669 62.6898 126.719 62.7998 129.839 62.9598C131.709 63.0598 134.219 63.1198 137.209 63.1598C136.199 68.3598 135.959 75.7398 135.909 79.3898L124.379 78.3398V37.8398C124.379 29.4998 120.829 0.0297852 109.549 0.0297852L109.529 0.0297852Z" fill="black"/>
</g>
<defs>
<clipPath id="clip0_307_79">
<rect width="218.4" height="204.8" fill="white" transform="translate(0.899902 0.0297852)"/>
</clipPath>
</defs>
</svg>
