<svg width="233" height="222" viewBox="0 0 233 222" fill="none" xmlns="http://www.w3.org/2000/svg">
<g clip-path="url(#clip0_503_56)">
<path d="M115.4 220.52C114.4 220.5 113.85 219.49 113.69 217.42C113.59 215.94 113.47 214.29 113.4 213.61C112.79 212.94 112.56 211.98 112.51 211.76L112.17 209.61C107.31 209.61 84.09 209.56 82.17 209.53C79.86 209.49 78.87 207.51 78.67 206.46C78.67 206.42 78.66 206.39 78.65 206.35C78.65 206.31 78.56 205.18 78.3 199.31C78.41 192.48 82.12 192.2 82.28 192.19L109.93 192.63C109.45 189.57 108.05 180.42 105.83 165.2C103.07 146.2 103.06 132.66 103.06 132.53L103.44 108.53L97.96 107.72C96.89 111.51 96.11 112.28 95.15 112.28C94.09 112.26 93.31 111.34 92.71 106.94L81.8 105.32L5.29002 103.3C4.50002 103.22 3.16002 102.6 2.68002 100.72C0.870022 92.1299 0.960022 86.4899 2.94002 83.8999C3.83002 82.7299 4.81002 82.6199 5.00002 82.6099L79.74 84.5399C79.74 83.2699 79.78 80.9999 80.04 78.3999C79.77 78.3099 79.56 78.1399 79.42 77.9499L78.97 77.4899C78.18 76.6699 78.38 75.5499 78.91 74.8499C78.93 74.8199 78.96 74.7899 78.99 74.7599L80.93 72.7599C81.05 72.2499 81.18 71.7499 81.32 71.2799C80.59 71.3299 79.73 71.3699 78.78 71.3699C75.68 71.3699 72.61 70.9999 69.66 70.2799C68.9 70.0899 68.38 69.4499 68.41 68.7299C68.44 67.9999 69 67.3999 69.78 67.2699C72 66.8899 74.25 66.6999 76.47 66.6999C79.34 66.6999 81.6 67.0199 82.98 67.2899C83.48 66.4299 84.04 65.7099 84.65 65.1399C84.84 64.9599 85.09 64.8699 85.33 64.8699C85.59 64.8699 85.85 64.9699 86.04 65.1699C86.63 65.7699 87.17 66.5199 87.65 67.3999C88.85 67.1999 90.75 66.9599 93.18 66.9599C95.8 66.9599 98.45 67.2299 101.06 67.7599C101.84 67.9199 102.38 68.5399 102.38 69.2699C102.38 69.9999 101.85 70.6199 101.08 70.7799C98.51 71.3199 95.85 71.5999 93.17 71.5999C91.61 71.5999 90.25 71.5099 89.15 71.3899C89.28 71.8899 89.4 72.3999 89.5 72.9399L91.35 74.9599C91.35 74.9599 91.4 75.0199 91.43 75.0599C91.94 75.7699 92.11 76.8999 91.29 77.6899L90.83 78.1399C90.69 78.3199 90.48 78.4799 90.21 78.5599C90.36 80.9799 90.33 83.0799 90.29 84.2899L93.08 84.1699C93.53 82.8799 94.48 82.1299 95.74 82.1299C96.45 82.1399 97.6 82.4099 98.3 83.9399L103.53 83.7099L104.17 43.5799C104.49 23.6799 113.47 1.85986 117.14 1.85986C120.81 1.85986 129.47 24.2399 129.47 43.7799V83.9099L134.69 84.2199C135.42 82.6999 136.56 82.4499 137.23 82.4499C138.51 82.4499 139.48 83.2199 139.91 84.5399L142.69 84.7099C142.67 83.4899 142.67 81.3899 142.86 78.9799C142.59 78.8999 142.39 78.7299 142.25 78.5499L141.8 78.0999C140.99 77.2899 141.18 76.1699 141.7 75.4599C141.72 75.4299 141.75 75.3899 141.78 75.3699L143.66 73.3699C143.78 72.8399 143.9 72.3199 144.04 71.8299C143.1 71.9199 141.95 71.9799 140.64 71.9799C137.75 71.9799 134.88 71.6599 132.12 71.0299C131.35 70.8599 130.83 70.2299 130.84 69.4999C130.85 68.7699 131.41 68.1599 132.19 68.0099C134.61 67.5599 137.06 67.3299 139.48 67.3299C142.19 67.3299 144.3 67.6199 145.61 67.8599C146.1 66.9799 146.65 66.2499 147.25 65.6499C147.44 65.4599 147.7 65.3599 147.95 65.3599C148.2 65.3599 148.45 65.4499 148.64 65.6399C149.24 66.2199 149.79 66.9399 150.28 67.8099C151.56 67.5799 153.6 67.3199 156.19 67.3199C158.61 67.3199 161.06 67.5499 163.48 67.9999C164.26 68.1499 164.81 68.7599 164.83 69.4899C164.84 70.2199 164.32 70.8399 163.55 71.0199C160.79 71.6499 157.93 71.9699 155.03 71.9699C153.83 71.9699 152.76 71.9099 151.87 71.8399C152 72.3199 152.12 72.8099 152.24 73.3299L154.15 75.3599C154.15 75.3599 154.2 75.4199 154.23 75.4499C154.75 76.1599 154.94 77.2799 154.13 78.0899L153.68 78.5499C153.54 78.7299 153.33 78.8999 153.06 78.9899C153.28 81.5899 153.28 83.8699 153.26 85.1299L227.94 84.3899C228.21 84.4099 229.18 84.5299 230.06 85.7199C232 88.3399 232 93.9799 230.06 102.5C229.54 104.42 228.19 105.02 227.47 105.08L150.87 105.88L139.94 107.32C139.27 111.71 138.48 112.62 137.43 112.62C136.46 112.62 135.68 111.84 134.67 108.01L129.18 108.73V132.72C129.18 132.87 128.95 146.41 125.89 165.36C123.42 180.64 121.88 189.69 121.35 192.72H148.94C149.17 192.73 152.87 193.07 152.87 199.84C152.51 205.77 152.41 206.89 152.4 206.94C152.4 206.98 152.4 207.01 152.38 207.05C152.16 208.09 151.14 210.06 148.83 210.06C146.92 210.06 123.7 209.73 118.84 209.66L118.47 211.76C118.41 212.02 118.16 212.98 117.54 213.64C117.46 214.3 117.31 215.95 117.19 217.43C117 219.51 116.43 220.51 115.43 220.51H115.41L115.4 220.52Z" fill="white"/>
<path d="M117.14 2.87988C119.46 2.87988 128.46 23.3399 128.46 43.7999V84.0899C128.46 84.5299 128.8 84.8899 129.24 84.9199L135.35 85.2899C135.63 84.3899 136.17 83.4699 137.22 83.4699C138.56 83.4699 138.97 84.6699 139.1 85.5099L143.72 85.7899C143.72 85.7899 143.5 81.7099 144.04 77.1499C143.9 77.3699 143.76 77.5899 143.63 77.7599C143.46 77.9799 143.32 78.0499 143.22 78.0499C143.08 78.0499 143.01 77.9099 143.01 77.9099C143.01 77.9099 142.75 77.6499 142.5 77.3999C141.93 76.8299 142.5 76.0599 142.5 76.0599L144.57 73.8599C144.8 72.7599 145.09 71.6799 145.44 70.6699C144.39 70.8199 142.72 70.9899 140.63 70.9899C138.3 70.9899 135.44 70.7699 132.34 70.0699C131.66 69.9099 131.68 69.1399 132.37 69.0099C135.02 68.5099 137.42 68.3399 139.47 68.3399C142.76 68.3399 145.13 68.7699 146.13 68.9999C146.63 67.9799 147.22 67.0799 147.94 66.3799C148.65 67.0599 149.24 67.9399 149.73 68.9499C150.83 68.7199 153.11 68.3399 156.18 68.3399C158.23 68.3399 160.64 68.5099 163.28 69.0099C163.97 69.1399 163.99 69.9099 163.31 70.0699C160.21 70.7799 157.35 70.9899 155.02 70.9899C153.09 70.9899 151.51 70.8399 150.46 70.6999C150.81 71.6899 151.09 72.7399 151.31 73.8299L153.41 76.0599C153.41 76.0599 153.98 76.8299 153.41 77.3999C153.15 77.6599 152.9 77.9099 152.9 77.9099C152.9 77.9099 152.83 78.0499 152.69 78.0499C152.59 78.0499 152.45 77.9799 152.28 77.7599C152.14 77.5799 151.99 77.3499 151.85 77.1099C152.43 81.8399 152.22 86.1499 152.22 86.1499L227.94 85.3999C227.94 85.3999 232.83 85.7599 229.07 102.28C228.61 103.98 227.37 104.08 227.37 104.08L150.78 104.88L139.04 106.43C138.8 108.17 138.22 111.62 137.41 111.62C136.67 111.62 135.85 108.73 135.4 106.91L128.88 107.77C128.47 107.82 128.16 108.18 128.16 108.59V132.72C128.16 132.72 127.97 146.1 124.88 165.2C122.27 181.32 120.69 190.55 120.26 193.03C120.2 193.39 120.48 193.72 120.84 193.72H148.91C148.91 193.72 151.84 193.93 151.84 199.85C151.48 205.77 151.38 206.85 151.38 206.85C151.38 206.85 150.92 209.06 148.81 209.06C146.7 209.06 117.98 208.65 117.98 208.65L117.47 211.58C117.47 211.58 117.21 212.71 116.59 213.12C116.49 213.53 116.18 217.34 116.18 217.34C116.18 217.34 115.99 219.5 115.42 219.5C114.85 219.5 114.7 217.33 114.7 217.33C114.7 217.33 114.45 213.52 114.36 213.1C113.75 212.68 113.51 211.54 113.51 211.54L113.04 208.6C113.04 208.6 84.3101 208.55 82.2001 208.52C80.0901 208.49 79.6601 206.27 79.6601 206.27C79.6601 206.27 79.5701 205.19 79.3101 199.26C79.4001 193.34 82.3401 193.18 82.3401 193.18L110.41 193.63C110.77 193.63 111.05 193.31 110.99 192.95C110.6 190.46 109.17 181.21 106.82 165.05C104.04 145.91 104.06 132.52 104.06 132.52L104.45 108.39C104.45 107.97 104.15 107.62 103.74 107.56L97.2301 106.6C96.7601 108.42 95.8901 111.28 95.1501 111.28C94.3401 111.27 93.8201 107.81 93.6101 106.06L81.8901 104.32L5.32011 102.3C5.32011 102.3 4.09011 102.18 3.65011 100.47C0.160114 83.8899 5.05011 83.6099 5.05011 83.6099L80.7501 85.5599C80.7501 85.5599 80.6101 81.2499 81.2701 76.5299C81.1201 76.7599 80.9701 76.9899 80.8301 77.1699C80.6601 77.3899 80.5201 77.4499 80.4201 77.4499C80.2701 77.4499 80.2101 77.3099 80.2101 77.3099C80.2101 77.3099 79.9601 77.0499 79.7001 76.7899C79.1401 76.2099 79.7201 75.4499 79.7201 75.4499L81.8601 73.2499C82.1001 72.1699 82.4001 71.1199 82.7601 70.1399C81.8101 70.2499 80.4501 70.3599 78.8001 70.3599C76.3601 70.3599 73.2801 70.1199 69.9201 69.2999C69.2401 69.1299 69.2701 68.3599 69.9701 68.2399C72.3701 67.8299 74.5701 67.6799 76.4901 67.6799C79.8601 67.6799 82.3501 68.1299 83.5201 68.3999C84.0301 67.3899 84.6401 66.5199 85.3501 65.8599C86.0501 66.5699 86.6301 67.4799 87.1101 68.5099C88.0601 68.3199 90.2101 67.9499 93.1901 67.9499C95.3601 67.9499 97.9801 68.1399 100.87 68.7299C101.56 68.8699 101.57 69.6399 100.88 69.7899C98.0301 70.3899 95.3901 70.5799 93.1801 70.5799C90.8001 70.5799 88.9101 70.3599 87.7701 70.1799C88.1101 71.1999 88.3801 72.2799 88.5901 73.3899L90.6301 75.6199C90.6301 75.6199 91.1801 76.3999 90.6101 76.9599C90.3501 77.2099 90.0901 77.4699 90.0901 77.4699C90.0901 77.4699 90.0201 77.5999 89.8801 77.5999C89.7801 77.5999 89.6401 77.5299 89.4701 77.2999C89.3401 77.1299 89.2001 76.9099 89.0701 76.6799C89.5401 81.2499 89.2601 85.3199 89.2601 85.3199L93.8801 85.1199C94.0201 84.2899 94.4401 83.1099 95.7501 83.1099C95.7601 83.1099 95.7701 83.1099 95.7901 83.1099C96.8401 83.1299 97.3701 84.0499 97.6301 84.9499L103.75 84.6799C104.19 84.6599 104.54 84.2999 104.54 83.8599L105.18 43.5699C105.51 23.1299 114.82 2.82988 117.15 2.82988M117.14 0.879883C115.63 0.879883 114.35 2.14988 112.58 5.41988C111.24 7.88988 109.8 11.2699 108.52 14.9299C106.61 20.4199 103.37 31.4299 103.18 43.5899L102.8 67.6899C102.43 67.2499 101.9 66.9299 101.27 66.8099C98.5901 66.2599 95.8701 65.9899 93.1901 65.9899C91.1201 65.9899 89.4101 66.1599 88.1901 66.3299C87.7601 65.6299 87.2801 65.0099 86.7701 64.4899C86.3801 64.0999 85.8601 63.8999 85.3501 63.8999C84.8601 63.8999 84.3701 64.0799 83.9901 64.4299C83.4601 64.9199 82.9601 65.5199 82.5101 66.1999C81.0701 65.9599 79.0001 65.7199 76.4901 65.7199C74.2101 65.7199 71.9101 65.9199 69.6401 66.3099C68.3901 66.5199 67.4801 67.5199 67.4401 68.7199C67.4001 69.9199 68.2301 70.9799 69.4601 71.2799C72.4901 72.0199 75.6401 72.3999 78.8201 72.3999C79.2101 72.3999 79.6001 72.3999 79.9801 72.3799L78.3101 74.0899C78.2501 74.1499 78.2001 74.2099 78.1501 74.2799C77.3501 75.3399 77.1401 77.0299 78.2901 78.2199L78.6901 78.6299C78.7901 78.7499 78.9001 78.8599 79.0201 78.9599C78.8601 80.7499 78.8001 82.3499 78.7801 83.5399L5.14011 81.6399C5.14011 81.6399 5.11011 81.6399 5.09011 81.6399C5.05011 81.6399 5.01011 81.6399 4.98011 81.6399C4.61011 81.6599 3.32011 81.8499 2.19011 83.3199C0.0301142 86.1499 -0.119886 92.0699 1.74011 100.91C1.74011 100.94 1.75011 100.97 1.76011 100.99C2.38011 103.41 4.19011 104.22 5.17011 104.31C5.22011 104.31 5.27011 104.31 5.32011 104.31L81.7701 106.33L91.8801 107.83C92.4101 111.36 93.2101 113.26 95.1701 113.29C96.9001 113.29 97.8501 111.74 98.7401 108.85L102.49 109.41L102.12 132.52C102.12 132.68 102.13 146.3 104.9 165.37C106.88 179.01 108.22 187.75 108.82 191.63L82.4201 191.21C82.4201 191.21 82.4001 191.21 82.3901 191.21C82.3501 191.21 82.3201 191.21 82.2801 191.21C82.0801 191.22 77.4801 191.56 77.3601 199.25C77.3601 199.29 77.3601 199.33 77.3601 199.37C77.6201 205.26 77.7101 206.4 77.7201 206.44C77.7201 206.51 77.7401 206.59 77.7501 206.66C78.0001 207.98 79.2701 210.49 82.2201 210.54C84.0501 210.57 105.12 210.61 111.38 210.62L111.58 211.88C111.58 211.88 111.59 211.95 111.6 211.98C111.67 212.31 111.91 213.23 112.5 214.02C112.57 214.8 112.68 216.24 112.76 217.48C112.96 220.14 113.86 221.5 115.45 221.52C117.07 221.52 118 220.18 118.23 217.54C118.33 216.28 118.46 214.84 118.54 214.07C119.15 213.29 119.4 212.38 119.47 212.04C119.47 212.01 119.48 211.97 119.49 211.94L119.71 210.68C125.97 210.77 147.04 211.07 148.87 211.07C151.82 211.07 153.13 208.58 153.4 207.27C153.42 207.2 153.43 207.12 153.43 207.05C153.43 207 153.54 205.87 153.9 199.98C153.9 199.94 153.9 199.9 153.9 199.86C153.9 192.16 149.3 191.75 149.11 191.74C149.06 191.74 149.02 191.74 148.97 191.74H122.57C123.23 187.87 124.71 179.15 126.91 165.54C129.99 146.52 130.21 132.9 130.22 132.77V109.63L133.98 109.13C134.82 112.06 135.75 113.63 137.47 113.63C139.44 113.63 140.26 111.74 140.85 108.22L150.98 106.88L227.45 106.08C227.45 106.08 227.55 106.08 227.6 106.08C228.58 106 230.41 105.22 231.06 102.81C231.06 102.78 231.07 102.76 231.08 102.73C233.08 93.9199 233.03 87.9999 230.91 85.1399C229.8 83.6399 228.51 83.4399 228.14 83.4099C228.09 83.4099 228.04 83.4099 227.99 83.4099C227.99 83.4099 227.98 83.4099 227.97 83.4099L154.31 84.1399C154.31 82.9499 154.27 81.3499 154.15 79.5599C154.27 79.4599 154.38 79.3499 154.48 79.2399L154.89 78.8299C156.06 77.6599 155.87 75.9699 155.09 74.8899C155.04 74.8199 154.99 74.7599 154.93 74.6999L153.29 72.9599C153.85 72.9899 154.45 72.9999 155.08 72.9999C158.05 72.9999 160.99 72.6699 163.82 72.0299C165.05 71.7499 165.9 70.7099 165.88 69.5099C165.86 68.2999 164.97 67.2899 163.72 67.0599C161.24 66.5999 158.73 66.3599 156.25 66.3599C154.02 66.3599 152.17 66.5499 150.85 66.7499C150.41 66.0599 149.92 65.4499 149.4 64.9499C149.01 64.5799 148.51 64.3899 148.02 64.3899C147.51 64.3899 147.01 64.5799 146.62 64.9599C146.1 65.4699 145.61 66.0799 145.17 66.7799C143.82 66.5599 141.9 66.3499 139.55 66.3499C137.07 66.3499 134.55 66.5899 132.08 67.0499C131.46 67.1699 130.92 67.4799 130.54 67.9099V43.8099C130.54 31.6399 127.47 20.5699 125.65 15.0499C124.43 11.3699 123.04 7.96988 121.74 5.47988C119.94 2.16988 118.67 0.879883 117.15 0.879883H117.14ZM93.1801 72.6099C95.9301 72.6099 98.6601 72.3299 101.29 71.7699C101.87 71.6499 102.37 71.3499 102.74 70.9499L102.55 82.7599L98.8901 82.9199C97.9001 81.3599 96.4801 81.1399 95.8201 81.1299C95.8101 81.1299 95.7601 81.1299 95.7501 81.1299C94.2801 81.1299 93.0901 81.8899 92.4201 83.1999L91.3301 83.2499C91.3501 82.1499 91.3301 80.7199 91.2601 79.1299C91.3801 79.0299 91.5001 78.9199 91.6001 78.7999L92.0101 78.4099C93.2001 77.2599 93.0401 75.5599 92.2701 74.4799C92.2201 74.4099 92.1701 74.3499 92.1201 74.2899L90.5001 72.5099C91.3101 72.5699 92.2201 72.5999 93.2001 72.5999L93.1801 72.6099ZM130.47 82.9899V71.1799C130.83 71.5899 131.32 71.8899 131.9 72.0199C134.73 72.6599 137.67 72.9899 140.64 72.9899C141.38 72.9899 142.07 72.9699 142.7 72.9399L141.05 74.6899C140.99 74.7499 140.94 74.8099 140.89 74.8799C140.1 75.9499 139.92 77.6499 141.09 78.8199L141.5 79.2299C141.6 79.3499 141.7 79.4499 141.82 79.5499C141.71 81.1399 141.68 82.5699 141.68 83.6699L140.59 83.5999C139.93 82.2599 138.73 81.4699 137.22 81.4699C136.55 81.4699 135.13 81.6699 134.12 83.2099L130.46 82.9899H130.47Z" fill="black"/>
</g>
<defs>
<clipPath id="clip0_503_56">
<rect width="232.08" height="220.64" fill="white" transform="translate(0.400391 0.879883)"/>
</clipPath>
</defs>
</svg>
