<svg width="91" height="72" viewBox="0 0 91 72" fill="none" xmlns="http://www.w3.org/2000/svg">
<g clip-path="url(#clip0_475_12)">
<path d="M31.46 70.22C30.51 70.22 30.19 69.72 29.99 69.18C29.58 68.29 29.35 64.43 29.37 63.37C29.41 61.77 30.67 61.13 31.52 61.09H43.03C42.42 56.69 40.23 40.94 39.97 38.94C39.78 37.47 38.06 36.83 37.71 36.71C35.69 36.5 3.25997 33.08 2.67997 33.03C2.05997 32.97 1.70997 32.69 1.52997 32.46C1.17997 32.03 1.20997 31.55 1.21997 31.41C1.21997 31.41 1.54997 24.52 1.54997 23.28C1.54997 21.57 3.04997 20.94 3.84997 20.84C4.18997 20.82 32.77 18.99 36.61 18.7C36.67 18.7 36.72 18.66 36.75 18.64C37.6 17.9 38.64 17.24 39.19 16.88C39.25 16.84 39.28 16.79 39.29 16.73C39.54 15.02 40.53 9.85 40.87 8.27C40.97 7.79 41.13 7.37 41.33 7.01C39.9 7 38.5 6.88 37.16 6.66C36.58 6.56 36.16 6.07 36.16 5.49C36.16 4.91 36.57 4.41 37.14 4.3C38.52 4.05 39.96 3.92 41.42 3.92C42 3.92 42.59 3.94 43.16 3.98C43.47 2.83 44.15 1 45.22 1C46.29 1 46.97 2.84 47.28 3.98C47.85 3.94 48.43 3.92 49.02 3.92C50.48 3.92 51.92 4.05 53.3 4.3C53.87 4.41 54.28 4.9 54.28 5.49C54.28 6.07 53.85 6.57 53.28 6.66C51.94 6.88 50.54 7 49.11 7.01C49.31 7.37 49.47 7.79 49.57 8.27C49.91 9.85 50.89 15.02 51.15 16.73C51.15 16.8 51.2 16.85 51.25 16.89C51.81 17.24 52.85 17.9 53.7 18.65C53.73 18.67 53.77 18.7 53.83 18.71C57.67 18.99 86.24 20.82 86.53 20.84C87.38 20.94 88.88 21.57 88.88 23.28C88.88 24.52 89.21 31.41 89.21 31.48C89.22 31.54 89.25 32.02 88.9 32.45C88.71 32.68 88.36 32.97 87.75 33.02C87.17 33.07 54.75 36.49 52.72 36.7C52.37 36.82 50.65 37.46 50.45 38.93C50.19 40.93 48 56.68 47.39 61.08H58.85C59.74 61.12 61.01 61.76 61.04 63.36C61.06 64.42 60.84 68.28 60.39 69.24C60.22 69.71 59.91 70.21 58.95 70.21H31.45L31.46 70.22Z" fill="white"/>
<path d="M45.21 2C45.48 2 46.21 3.53 46.5 5.06C47.15 4.99 48.01 4.93 49.01 4.93C50.21 4.93 51.61 5.02 53.11 5.3C53.33 5.34 53.32 5.65 53.11 5.69C51.55 5.95 50.07 6.03 48.83 6.03C47.96 6.03 47.21 5.99 46.61 5.94C46.61 6.03 46.61 6.11 46.61 6.2C46.91 6.2 48.2 6.76 48.57 8.5C48.89 10.01 49.88 15.17 50.14 16.9C50.19 17.25 50.39 17.56 50.69 17.75C51.27 18.12 52.24 18.74 53.01 19.42C53.21 19.6 53.46 19.7 53.73 19.72C57.62 20 86.44 21.85 86.44 21.85C86.44 21.85 87.86 22.02 87.86 23.29C87.86 24.56 88.19 31.54 88.19 31.54C88.19 31.54 88.25 31.98 87.63 32.04C87.02 32.1 52.49 35.73 52.49 35.73C52.49 35.73 49.74 36.48 49.43 38.81C49.12 41.14 46.21 62.09 46.21 62.09H58.82C58.82 62.09 59.99 62.15 60.01 63.4C60.04 64.65 59.76 68.18 59.45 68.84C59.34 69.15 59.31 69.23 58.92 69.23H31.42C31.03 69.23 31 69.15 30.89 68.84C30.58 68.17 30.31 64.65 30.33 63.4C30.36 62.15 31.52 62.09 31.52 62.09H44.13C44.13 62.09 41.21 41.15 40.91 38.81C40.61 36.47 37.85 35.73 37.85 35.73C37.85 35.73 3.31995 32.09 2.70995 32.04C2.09995 31.98 2.14995 31.54 2.14995 31.54C2.14995 31.54 2.47995 24.57 2.47995 23.29C2.47995 22.01 3.89995 21.85 3.89995 21.85C3.89995 21.85 32.72 20 36.61 19.72C36.88 19.7 37.13 19.59 37.33 19.42C38.1 18.74 39.07 18.12 39.65 17.75C39.95 17.56 40.15 17.25 40.2 16.9C40.46 15.17 41.45 10.01 41.77 8.5C42.14 6.76 43.44 6.2 43.73 6.2C43.73 6.12 43.73 6.03 43.73 5.94C43.14 5.99 42.38 6.03 41.51 6.03C40.27 6.03 38.8 5.95 37.23 5.69C37.01 5.65 37.01 5.34 37.23 5.3C38.72 5.02 40.13 4.93 41.33 4.93C42.33 4.93 43.19 4.99 43.84 5.06C44.13 3.54 44.86 2 45.13 2M45.21 0C43.75 0 42.89 1.53 42.41 2.94C42.08 2.93 41.75 2.92 41.41 2.92C39.89 2.92 38.38 3.05 36.95 3.32C35.9 3.51 35.14 4.43 35.15 5.5C35.16 6.57 35.94 7.47 36.99 7.65C37.93 7.8 38.91 7.91 39.9 7.97C39.9 8 39.8899 8.03 39.88 8.07C39.56 9.56 38.67 14.24 38.34 16.24C37.78 16.6 36.99 17.13 36.26 17.73C31.57 18.06 4.10995 19.82 3.81995 19.84C3.77995 19.84 3.74995 19.84 3.70995 19.84C2.12995 20.03 0.529955 21.26 0.529955 23.27C0.539955 24.28 0.309955 29.47 0.209955 31.41C0.189955 31.77 0.229955 32.44 0.739955 33.08C1.16995 33.62 1.82995 33.95 2.57995 34.02C3.14995 34.07 25.53 36.43 37.48 37.69C37.82 37.82 38.87 38.27 38.97 39.07C39.22 40.95 41.11 54.58 41.88 60.09H31.57C31.57 60.09 31.51 60.09 31.47 60.09C30 60.16 28.42 61.33 28.37 63.35C28.35 64.21 28.53 68.16 29.05 69.54C29.46 70.66 30.27 71.23 31.45 71.23H58.95C60.13 71.23 60.94 70.66 61.35 69.54C61.87 68.16 62.05 64.21 62.03 63.35C61.99 61.33 60.4 60.16 58.93 60.09C58.9 60.09 58.87 60.09 58.83 60.09H48.52C49.29 54.58 51.18 40.95 51.43 39.07C51.53 38.28 52.58 37.82 52.92 37.69C64.8699 36.43 87.25 34.07 87.82 34.02C88.57 33.95 89.2199 33.62 89.66 33.08C90.17 32.45 90.21 31.77 90.19 31.41C90.1 29.47 89.86 24.28 89.86 23.28C89.86 21.27 88.26 20.04 86.68 19.85C86.64 19.85 86.61 19.85 86.57 19.85C86.29 19.83 58.83 18.07 54.13 17.74C53.41 17.13 52.61 16.6 52.05 16.25C51.73 14.25 50.83 9.57 50.51 8.08C50.51 8.05 50.5 8.02 50.49 7.98C51.48 7.92 52.46 7.82 53.4 7.66C54.46 7.49 55.23 6.58 55.24 5.51C55.25 4.44 54.5 3.52 53.44 3.33C52 3.06 50.5 2.93 48.98 2.93C48.65 2.93 48.31 2.93 47.98 2.95C47.5 1.53 46.64 0.01 45.18 0.01L45.21 0Z" fill="black"/>
</g>
<defs>
<clipPath id="clip0_475_12">
<rect width="90" height="71.22" fill="white" transform="translate(0.209961)"/>
</clipPath>
</defs>
</svg>
