<svg width="121" height="82" viewBox="0 0 121 82" fill="none" xmlns="http://www.w3.org/2000/svg">
<g clip-path="url(#clip0_192_2)">
<path d="M60.39 80.94C59.79 80.94 59.29 80.51 59.19 79.93C59.04 79.04 58.86 77.45 58.83 74.84C54.8 74.74 42.02 74.21 41.42 74.19C40.67 74.16 40.08 73.55 40.08 72.79V68.95C40.03 68.62 40.08 68.17 40.34 67.74C40.91 66.84 42.22 66.31 44.36 66.1C47.46 65.8 55.46 64.84 58.41 64.49C57.52 60.8 54.65 48.68 53.53 40.93C47.21 40.46 8.77999 36.41 4.10999 35.92C3.79999 36.13 3.33999 36.36 2.83999 36.36C2.47999 36.36 1.59999 36.23 1.19999 35.05C0.609988 33.34 1.32999 29.05 3.52999 26.64C4.43999 25.62 5.92999 25.59 6.08999 25.59L53.33 24.23V13.6C53.33 13.37 53.37 9.53 55.15 7.14H51.2C51.08 7.14 50.97 7.12 50.86 7.08C50.56 6.97 49.59 6.54 49.57 5.6C49.57 5.16 49.78 4.54 50.83 4.12C50.95 4.07 51.08 4.05 51.2 4.05H57.71C58.09 3.19 58.83 1.79 59.78 1.18C59.94 1.08 60.21 1 60.4 1C60.62 1 60.83 1.06 61.02 1.18C61.97 1.79 62.71 3.19 63.09 4.05H69.6C69.73 4.05 69.85 4.07 69.97 4.12C70.82 4.46 71.24 4.96 71.23 5.6C71.22 6.54 70.24 6.97 69.94 7.08C69.83 7.12 69.71 7.14 69.6 7.14H65.65C67.43 9.54 67.46 13.37 67.46 13.6V24.23L114.73 25.59C114.88 25.59 116.36 25.63 117.27 26.64C119.46 29.04 120.19 33.33 119.6 35.04C119.19 36.22 118.31 36.35 117.96 36.35C117.45 36.35 117 36.12 116.69 35.91C112.01 36.4 73.58 40.45 67.27 40.92C66.15 48.68 63.28 60.8 62.39 64.48C65.35 64.83 73.34 65.79 76.44 66.09C78.58 66.3 79.89 66.84 80.46 67.73C80.73 68.16 80.78 68.6 80.72 68.94V72.78C80.72 73.53 80.13 74.15 79.38 74.18C78.78 74.2 66 74.73 61.97 74.83C61.93 77.44 61.76 79.02 61.6 79.92C61.5 80.51 61 80.93 60.4 80.93L60.39 80.94Z" fill="white"/>
<path d="M60.39 2C60.39 2 60.45 2 60.48 2.02C61.54 2.7 62.42 5.04 62.42 5.04H69.6C71.02 5.61 69.6 6.13 69.6 6.13H61.9V6.22C66.46 6.22 66.46 13.59 66.46 13.59V24.3C66.46 25.21 67.22 25.21 67.22 25.21L114.7 26.58C114.7 26.58 115.88 26.58 116.52 27.3C118.53 29.5 119.1 33.38 118.65 34.71C118.49 35.19 118.22 35.34 117.95 35.34C117.47 35.34 116.98 34.86 116.98 34.86C116.98 34.86 71.38 39.68 66.72 39.94C66.52 39.95 66.36 40.1 66.33 40.3C65.06 49.48 61.13 65.33 61.13 65.33C61.13 65.33 72.45 66.7 76.32 67.08C80.19 67.46 79.7 68.83 79.7 68.83V72.78C79.7 72.99 79.53 73.17 79.32 73.18C76.84 73.28 62.82 73.85 60.95 73.85C60.95 76.99 60.75 78.8 60.59 79.76C60.57 79.88 60.47 79.94 60.38 79.94C60.29 79.94 60.19 79.88 60.17 79.76C60.01 78.8 59.81 76.99 59.81 73.85C57.94 73.85 43.93 73.28 41.44 73.18C41.23 73.18 41.06 73 41.06 72.78V68.83C41.06 68.83 40.57 67.46 44.44 67.08C48.31 66.7 59.63 65.33 59.63 65.33C59.63 65.33 55.7 49.48 54.43 40.3C54.4 40.1 54.24 39.95 54.04 39.94C49.38 39.68 3.77999 34.86 3.77999 34.86C3.77999 34.86 3.27999 35.34 2.80999 35.34C2.53999 35.34 2.27999 35.19 2.10999 34.71C1.64999 33.38 2.21999 29.51 4.23999 27.3C4.88999 26.58 6.05999 26.58 6.05999 26.58L53.54 25.21C53.54 25.21 54.3 25.21 54.3 24.3V13.59C54.3 13.59 54.3 6.22 58.86 6.22V6.13H51.16C51.16 6.13 49.74 5.61 51.16 5.04H58.34C58.34 5.04 59.21 2.69 60.28 2.02C60.31 2 60.34 2 60.37 2M60.39 0C59.98 0 59.58 0.12 59.23 0.34C58.28 0.95 57.54 2.1 57.06 3.05H51.18C50.93 3.05 50.67 3.1 50.44 3.19C48.77 3.86 48.54 5 48.55 5.62C48.57 6.68 49.29 7.58 50.49 8.02C50.71 8.1 50.94 8.14 51.18 8.14H53.41C52.61 9.94 52.32 12.02 52.32 13.6V23.26L6.03999 24.59C5.61999 24.59 3.90999 24.7 2.75999 25.98C0.229994 28.77 -0.430006 33.41 0.249994 35.37C0.749994 36.83 1.91999 37.35 2.83999 37.35C3.41999 37.35 3.93999 37.16 4.34999 36.94C10.07 37.54 44.58 41.17 52.67 41.85C53.77 49.06 56.13 59.19 57.19 63.62C53.69 64.04 47.03 64.82 44.28 65.09C41.78 65.34 40.26 66 39.51 67.19C39.16 67.75 39.01 68.41 39.09 69.01V72.77C39.09 74.06 40.1 75.11 41.39 75.17C41.53 75.17 52.96 75.64 57.87 75.79C57.93 77.9 58.09 79.26 58.23 80.08C58.41 81.15 59.33 81.93 60.41 81.93C61.49 81.93 62.41 81.15 62.59 80.09C62.73 79.28 62.89 77.92 62.95 75.8C67.86 75.65 79.29 75.18 79.42 75.18C80.71 75.13 81.72 74.07 81.72 72.78V69.02C81.8 68.41 81.66 67.76 81.3 67.2C80.55 66.01 79.03 65.34 76.53 65.1C73.77 64.83 67.11 64.04 63.62 63.63C64.68 59.2 67.03 49.07 68.14 41.86C76.23 41.18 110.74 37.55 116.46 36.95C116.87 37.17 117.38 37.36 117.97 37.36C118.89 37.36 120.06 36.84 120.56 35.38C121.23 33.42 120.58 28.78 118.02 25.97C116.89 24.71 115.18 24.6 114.76 24.6L68.48 23.27V13.61C68.48 12.03 68.19 9.94 67.39 8.15H69.62C69.85 8.15 70.09 8.11 70.31 8.03C71.51 7.59 72.24 6.69 72.25 5.63C72.25 5.01 72.03 3.87 70.36 3.2C70.12 3.11 69.87 3.06 69.62 3.06H63.74C63.26 2.11 62.53 0.96 61.58 0.35C61.23 0.13 60.83 0.01 60.42 0.01L60.39 0Z" fill="black"/>
</g>
<defs>
<clipPath id="clip0_192_2">
<rect width="120.78" height="81.94" fill="white"/>
</clipPath>
</defs>
</svg>
