<svg width="174" height="319" viewBox="0 0 174 319" fill="none" xmlns="http://www.w3.org/2000/svg">
<g clip-path="url(#clip0_430_17)">
<path d="M86.7994 317.38C85.4494 317.38 84.4594 317.05 83.8494 316.42C83.4794 316.03 83.3094 315.59 83.2794 315.24C83.0194 314.31 81.1694 307.51 80.7594 305.62C80.6394 305.05 80.4595 304.82 80.3895 304.76C80.3295 304.77 80.2594 304.78 80.1994 304.78C80.1294 304.78 80.0494 304.78 79.9794 304.76C79.8194 304.72 63.9094 301.14 61.2994 300.62C58.5694 300.08 57.7894 298.9 57.5794 298.45L51.9394 288.51C51.0494 289.14 49.6394 290.17 48.3294 291.27C47.9294 291.61 47.4894 291.78 47.0394 291.78C45.6694 291.78 44.9994 290.24 44.9194 290.07C44.8694 289.95 44.8394 289.81 44.8394 289.68V288.45L36.7694 288.41C36.1794 289.12 34.8194 290.77 33.6994 292.21C32.6494 293.56 31.6294 293.84 30.9594 293.84C30.4694 293.84 30.0994 293.69 29.8694 293.57C28.7894 293.31 21.7594 291.62 10.0094 288.83C9.96945 288.83 9.92944 288.81 9.89944 288.8C5.85944 287.32 3.18944 284.99 1.94944 281.86C-0.0805556 276.71 2.56944 271.35 2.68944 271.13L24.6494 230.92C24.8694 230.34 26.4994 226 26.8694 224.29C29.6094 194.6 32.9494 177.24 36.3694 174.76L42.4794 151.31C42.6394 150.69 43.1894 150.27 43.8294 150.27C44.4694 150.27 45.0294 150.7 45.1894 151.33L51.0694 174.76L51.3894 175.08C51.5794 175.27 51.6794 175.52 51.6794 175.79V176.61C51.8594 177.9 52.4194 177.91 52.7294 177.91C53.2894 177.91 53.9394 177.64 54.3194 177.45L65.9894 154.12L66.3094 88.6099C67.7894 63.2799 73.3394 40.2999 76.5194 28.8499C78.5494 21.5199 80.7794 14.6599 82.7994 9.53992C85.8894 1.66992 86.8995 1.66992 87.5695 1.66992C88.2395 1.66992 89.2494 1.66992 92.2994 9.51992C94.2894 14.6299 96.4794 21.4799 98.4794 28.7899C101.599 40.2199 107.039 63.1699 108.389 88.4499V154.02L119.939 177.41C120.319 177.6 120.979 177.88 121.539 177.88C121.849 177.88 122.409 177.88 122.599 176.59V175.77C122.599 175.51 122.709 175.25 122.889 175.06L123.209 174.74L129.209 151.34C129.369 150.72 129.919 150.29 130.559 150.29C131.199 150.29 131.759 150.72 131.909 151.34L137.919 174.89C141.369 177.62 144.589 194.96 147.159 224.39C147.529 226.1 149.129 230.45 149.349 231.03L171.099 271.32C171.229 271.57 173.859 276.94 171.799 282.08C170.549 285.21 167.859 287.53 163.819 288.98C163.779 288.99 163.749 289 163.709 289.01C151.949 291.75 144.919 293.4 143.829 293.65C143.599 293.77 143.229 293.91 142.749 293.91C142.079 293.91 141.059 293.62 140.009 292.27C138.899 290.83 137.549 289.17 136.959 288.46H128.889V289.69C128.889 289.82 128.859 289.96 128.809 290.08C128.739 290.25 128.049 291.78 126.689 291.78C126.229 291.78 125.799 291.61 125.389 291.26C124.089 290.15 122.669 289.11 121.789 288.48L116.099 298.39C115.889 298.84 115.099 300.01 112.369 300.54C109.759 301.05 93.8294 304.55 93.6694 304.59C93.5994 304.61 93.5294 304.61 93.4494 304.61C93.3694 304.61 93.3094 304.61 93.2394 304.59C93.1994 304.63 93.0094 304.85 92.8794 305.45C92.4594 307.34 90.5794 314.12 90.3094 315.06C90.2794 315.36 90.1494 315.92 89.6494 316.43C89.0194 317.07 88.0594 317.4 86.7694 317.4L86.7994 317.38Z" fill="white"/>
<path d="M87.5794 2.6201C90.0294 2.6201 105.049 44.3801 107.409 88.4601V154.2L119.199 178.08C119.199 178.08 120.399 178.83 121.559 178.83C122.489 178.83 123.389 178.35 123.619 176.61V175.73L124.139 175.21L130.199 151.54C130.249 151.34 130.419 151.24 130.579 151.24C130.749 151.24 130.909 151.34 130.959 151.54L137.059 175.46C137.219 175.46 141.939 175.89 146.179 224.49C146.569 226.37 148.449 231.4 148.449 231.4L170.229 271.75C170.229 271.75 176.089 283.47 163.489 288C150.669 290.99 143.459 292.68 143.459 292.68C143.459 292.68 143.199 292.88 142.759 292.88C142.279 292.88 141.589 292.64 140.809 291.63C139.319 289.7 137.439 287.43 137.439 287.43H127.899V289.66C127.899 289.66 127.439 290.75 126.709 290.75C126.509 290.75 126.289 290.67 126.059 290.47C123.899 288.64 121.489 287.01 121.489 287.01L115.229 297.92C115.229 297.92 114.859 299.03 112.209 299.54C109.559 300.06 93.4894 303.59 93.4894 303.59C93.4894 303.59 93.4094 303.56 93.2794 303.56C92.9394 303.56 92.2594 303.76 91.9394 305.21C91.4994 307.2 89.3594 314.87 89.3594 314.87C89.3594 314.87 89.3994 316.37 86.8194 316.37C84.2394 316.36 84.2794 315.06 84.2794 315.06C84.2794 315.06 82.1794 307.38 81.7494 305.39C81.4294 303.93 80.7494 303.74 80.4094 303.74C80.2894 303.74 80.2094 303.77 80.2094 303.77C80.2094 303.77 64.1594 300.15 61.5094 299.62C58.8594 299.09 58.4994 297.98 58.4994 297.98L52.2894 287.04C52.2894 287.04 49.8694 288.66 47.6994 290.48C47.4694 290.68 47.2494 290.75 47.0494 290.75C46.3094 290.75 45.8594 289.66 45.8594 289.66V287.43L36.3294 287.38C36.3294 287.38 34.4394 289.64 32.9394 291.56C32.1594 292.56 31.4694 292.8 30.9894 292.8C30.5494 292.8 30.2794 292.59 30.2794 292.59C30.2794 292.59 23.0794 290.86 10.2694 287.81C-2.31065 283.21 3.60935 271.52 3.60935 271.52L25.5894 231.27C25.5894 231.27 27.4894 226.25 27.8894 224.37C32.3594 175.83 37.0794 175.38 37.2494 175.38L43.4694 151.49C43.5194 151.29 43.6894 151.19 43.8494 151.19C44.0094 151.19 44.1794 151.29 44.2394 151.49L50.1894 175.18L50.6994 175.7V176.58C50.9194 178.33 51.8194 178.81 52.7594 178.81C53.9094 178.81 55.1094 178.07 55.1094 178.07L67.0194 154.25L67.3494 88.5101C69.8994 44.5001 85.1294 2.6201 87.5794 2.6201ZM87.5794 0.620098C86.1994 0.620098 84.9794 1.2301 81.8794 9.1201C79.8594 14.2801 77.6194 21.1701 75.5694 28.5301C72.3794 40.0201 66.8094 63.0801 65.3294 88.4401C65.3294 88.4801 65.3294 88.5101 65.3294 88.5501L65.0094 153.83L53.5994 176.64C53.3294 176.75 53.0094 176.85 52.7694 176.86C52.7394 176.79 52.7094 176.67 52.6794 176.49V175.75C52.6794 175.22 52.4794 174.71 52.0994 174.33L51.9694 174.2L46.1594 151.04C45.8894 149.97 44.9394 149.23 43.8394 149.23C42.7494 149.23 41.7894 149.97 41.5194 151.02L35.4994 174.12C33.1794 176.35 29.4394 185.62 25.8894 224.09C25.5594 225.54 24.2794 229.04 23.7494 230.46L1.82935 270.6C1.82935 270.6 1.80935 270.64 1.79935 270.66C1.67935 270.9 -1.17065 276.65 1.02935 282.21C2.37935 285.62 5.24935 288.15 9.56935 289.73C9.63935 289.76 9.71935 289.78 9.78935 289.8C21.1894 292.51 28.1494 294.18 29.5294 294.52C29.8694 294.68 30.3594 294.84 30.9694 294.84C31.8594 294.84 33.1994 294.49 34.4994 292.83C35.4494 291.61 36.5794 290.24 37.2494 289.42L43.8494 289.45V289.68C43.8494 289.95 43.8994 290.21 43.9994 290.46C44.4694 291.58 45.5094 292.79 47.0394 292.79C47.5194 292.79 48.2394 292.66 48.9694 292.05C49.8694 291.29 50.8294 290.56 51.6194 289.98L56.6994 298.92C57.0394 299.63 58.0794 301.01 61.1094 301.61C63.7094 302.13 79.5994 305.71 79.7594 305.75C79.7594 305.78 79.7794 305.81 79.7794 305.85C80.1894 307.74 81.9894 314.36 82.2994 315.47C82.3594 315.9 82.5594 316.54 83.1294 317.13C83.9294 317.96 85.1694 318.39 86.7894 318.4C88.3594 318.4 89.5694 317.97 90.3894 317.13C91.0394 316.46 91.2494 315.73 91.3194 315.26C91.6494 314.08 93.4594 307.55 93.8794 305.67C93.8794 305.63 93.8994 305.6 93.8994 305.57C94.0594 305.53 109.969 302.03 112.569 301.53C115.599 300.94 116.649 299.57 116.989 298.86L122.109 289.94C122.899 290.52 123.849 291.26 124.749 292.02C125.479 292.64 126.209 292.77 126.689 292.77C128.209 292.77 129.259 291.58 129.729 290.46C129.829 290.21 129.889 289.95 129.889 289.68V289.45H136.489C137.159 290.27 138.279 291.65 139.219 292.87C140.509 294.55 141.859 294.9 142.749 294.9C143.349 294.9 143.829 294.74 144.169 294.58C145.559 294.25 152.519 292.62 163.939 289.96C164.019 289.94 164.089 289.92 164.159 289.89C168.489 288.33 171.369 285.82 172.729 282.42C174.959 276.86 172.129 271.11 172.009 270.86C172.009 270.84 171.989 270.82 171.979 270.8L150.269 230.57C149.739 229.15 148.479 225.64 148.159 224.19C144.799 185.73 141.109 176.42 138.789 174.17L132.889 151.04C132.619 149.98 131.659 149.24 130.569 149.24C129.469 149.24 128.519 149.98 128.249 151.04L122.319 174.17L122.189 174.3C121.809 174.68 121.599 175.18 121.599 175.71V176.45C121.569 176.63 121.529 176.75 121.499 176.82C121.259 176.82 120.949 176.71 120.669 176.59L109.379 153.72V88.4401C109.379 88.4401 109.379 88.3701 109.379 88.3301C108.019 62.9601 102.569 39.9301 99.4294 28.4601C97.4194 21.1101 95.2194 14.2301 93.2194 9.0901C90.1594 1.2101 88.9394 0.600098 87.5594 0.600098L87.5794 0.620098Z" fill="black"/>
</g>
<defs>
<clipPath id="clip0_430_17">
<rect width="173.4" height="317.76" fill="white" transform="translate(0.199219 0.620117)"/>
</clipPath>
</defs>
</svg>
