<svg width="171" height="144" viewBox="0 0 171 144" fill="none" xmlns="http://www.w3.org/2000/svg">
<g clip-path="url(#clip0_594_47)">
<path d="M86.2295 142.71C85.9095 142.71 85.4895 142.51 85.1995 142.18C84.7895 141.72 84.5895 141.06 84.5895 140.15C84.8595 135.51 83.1695 122.71 82.7495 120.87C82.6095 120.27 82.4695 119.97 82.3995 119.84L76.8695 118.64C78.9895 121.63 78.4195 122.81 78.2195 123.21C77.9495 123.75 77.3195 124.4 75.8295 124.41C74.9095 129.16 73.4395 132.7 73.1895 133.29C72.9895 134.06 72.4195 134.9 71.4395 134.9C70.4595 134.9 69.8495 134.01 69.6495 133.25L68.0895 128.91C67.5695 127.45 67.2395 125.94 67.1095 124.41C65.8295 124.32 65.2695 123.72 65.0195 123.2C64.4595 122.02 65.0895 120.26 66.8895 117.96C66.8795 117.55 66.8695 117.18 66.8595 116.89C66.3695 116.6 66.0895 116.09 66.0695 115.6V113.9L53.4595 118.08L53.2995 120.84C53.2995 120.92 53.2795 121 53.2595 121.08C53.1095 121.55 52.5795 122.35 51.5195 122.35C50.5395 122.35 49.9395 121.62 49.8495 120.9C49.8495 120.86 49.8495 120.82 49.8495 120.78V119.28L36.5895 123.68L36.4195 126.54C36.4195 126.62 36.3995 126.7 36.3795 126.78C36.2295 127.25 35.6995 128.05 34.6395 128.05C33.6595 128.05 33.0595 127.32 32.9695 126.6C32.9695 126.56 32.9695 126.52 32.9695 126.48V124.89L7.92949 133.21C7.97949 134.43 8.05949 136.86 8.05949 138.64C8.05949 140.62 7.00949 140.84 6.55949 140.84C5.71949 140.84 5.00949 140.08 4.65949 139.63C4.53949 139.48 1.77949 135.82 1.72949 129.47C1.72949 122.32 3.73949 121.03 5.03949 120.94C6.99949 119.97 22.0195 112.53 39.0595 105.07C52.5295 98.2298 67.3395 76.6398 74.9695 64.3898C75.9295 62.8498 76.4495 61.0798 76.4695 59.2798C76.6095 46.2198 77.4995 34.4198 77.8995 29.6498C77.8395 29.6798 77.7895 29.7098 77.7295 29.7298C74.6495 31.1498 59.2095 38.2798 58.1795 38.8098C57.7695 39.0198 57.3595 39.1298 56.9895 39.1298C56.1595 39.1298 55.5895 38.6198 55.3595 38.0798C55.1695 37.6998 54.9195 36.8198 54.4895 34.4298C53.9295 30.5298 55.5095 29.4798 56.0995 29.2198L80.2095 14.6398C82.1795 8.47983 85.0095 1.32983 87.5095 1.32983C90.0195 1.36983 92.7295 8.55983 94.5995 14.7498L118.459 29.7298C119.039 29.9898 120.609 31.0598 119.989 34.9298C119.519 37.3298 119.259 38.2098 119.059 38.5898C118.819 39.1198 118.259 39.6198 117.439 39.6198C117.049 39.6198 116.649 39.5098 116.219 39.2798C115.359 38.8198 103.619 33.1498 96.8195 29.8798C96.7595 29.8498 96.7095 29.8198 96.6495 29.7998C96.9695 34.5698 97.6495 46.3898 97.5795 59.4498C97.5695 61.2598 98.0595 63.0298 98.9895 64.5898C106.409 76.9698 120.87 98.7998 134.27 105.89C151.08 113.59 164.689 120.8 166.539 121.78C166.899 121.82 167.449 121.97 167.989 122.52C169.189 123.74 169.769 126.38 169.699 130.34C169.539 136.7 166.719 140.31 166.599 140.46C166.249 140.9 165.529 141.64 164.709 141.64C164.339 141.64 163.999 141.5 163.749 141.24C163.259 140.75 163.219 139.96 163.229 139.42C163.259 137.64 163.379 135.21 163.449 133.99L139.27 125.56L139.239 127.16C139.239 127.2 139.239 127.24 139.239 127.28C139.139 127.98 138.539 128.7 137.579 128.7C136.489 128.68 135.969 127.87 135.829 127.4C135.809 127.32 135.789 127.24 135.789 127.16L135.669 124.29L122.429 119.51L122.409 121C122.409 121 122.409 121.08 122.409 121.12C122.309 121.82 121.709 122.54 120.749 122.54C119.659 122.52 119.139 121.71 118.999 121.24C118.979 121.16 118.959 121.08 118.959 121L118.839 118.22L106.709 113.7L106.679 115.36C106.699 115.72 106.659 116.48 106.249 116.98C106.239 117.3 106.219 117.75 106.189 118.28C107.949 120.6 108.549 122.37 107.979 123.54C107.729 124.05 107.159 124.66 105.859 124.73C105.699 126.28 105.349 127.78 104.799 129.22L103.139 133.62C102.959 134.29 102.359 135.16 101.369 135.16C100.369 135.14 99.8095 134.29 99.6195 133.52C99.3795 132.93 97.9795 129.37 97.1295 124.6C95.6495 124.57 95.0295 123.92 94.7695 123.37C94.2595 122.31 94.7395 120.77 96.1895 118.81L90.6395 119.92C90.5595 120.05 90.4195 120.34 90.2695 120.94C89.8095 122.77 87.9095 135.53 88.0995 140.12C88.0995 142.65 86.5395 142.72 86.3595 142.72C86.3295 142.72 86.2595 142.72 86.2595 142.72L86.2295 142.71Z" fill="white"/>
<path d="M87.49 2.31982C89.84 2.35982 93.74 15.3898 93.74 15.3898L117.99 30.6098C117.99 30.6098 119.59 31.0598 118.99 34.7598C118.37 37.9598 118.15 38.1298 118.15 38.1298C118.15 38.1298 117.99 38.6098 117.43 38.6098C117.23 38.6098 116.99 38.5498 116.68 38.3898C115.66 37.8398 100.9 30.7298 97.25 28.9698C96.71 28.7098 96.22 28.3598 95.8 27.9398L95.49 27.6398C95.49 27.6398 96.67 42.3698 96.58 59.4298C96.57 61.4198 97.11 63.3798 98.13 65.0898C103.11 73.3998 118.86 98.8598 133.8 106.76C152.04 115.12 166.28 122.76 166.28 122.76C166.28 122.76 166.31 122.76 166.35 122.76C166.77 122.76 168.82 123.13 168.7 130.32C168.54 136.41 165.82 139.84 165.82 139.84C165.82 139.84 165.18 140.65 164.71 140.65C164.43 140.65 164.21 140.36 164.23 139.44C164.27 136.98 164.49 133.3 164.49 133.3L138.82 124.35L138.69 124.38C138.69 124.38 138.3 124.38 138.28 125.58C138.26 126.79 138.25 127.15 138.25 127.15C138.25 127.15 138.17 127.71 137.58 127.71C137.58 127.71 137.57 127.71 137.56 127.71C136.95 127.7 136.79 127.13 136.79 127.13L136.64 123.59L121.8 118.24C121.7 118.27 121.44 118.45 121.42 119.44C121.4 120.65 121.39 121.01 121.39 121.01C121.39 121.01 121.31 121.57 120.72 121.57C120.72 121.57 120.71 121.57 120.7 121.57C120.09 121.56 119.93 120.99 119.93 120.99L119.79 117.55L106.69 112.67C106.69 112.67 106.57 112.64 106.41 112.64C106.12 112.64 105.7 112.75 105.69 113.35C105.67 114.28 105.66 115.38 105.66 115.38C105.66 115.38 105.71 116.48 105.25 116.48C105.25 116.61 105.21 117.47 105.16 118.63C106.04 119.75 108.95 123.76 105.61 123.76C105.41 123.76 105.18 123.74 104.92 123.71C104.92 123.73 104.92 123.74 104.92 123.76C104.84 125.52 104.48 127.25 103.86 128.89L102.2 133.29C102.2 133.29 101.95 134.18 101.37 134.18C100.78 134.18 100.58 133.23 100.58 133.23C100.58 133.23 98.84 129.08 97.97 123.57C97.7 123.6 97.46 123.62 97.25 123.62C93.91 123.62 96.41 120.12 97.51 118.76C97.51 118.43 97.49 118.1 97.49 117.77C97.47 117.68 97.33 117.65 97.19 117.65C96.98 117.65 96.75 117.7 96.75 117.7L90.32 118.98C90.32 118.98 90.32 118.98 90.3 118.98C90.2 118.98 89.71 119.07 89.3 120.72C88.84 122.56 86.9 135.37 87.1 140.19C87.1 141.7 86.45 141.75 86.36 141.75H86.35C86.35 141.75 85.62 141.73 85.62 140.18C85.9 135.37 84.18 122.53 83.75 120.68C83.36 119.01 82.87 118.92 82.78 118.92H82.77L76.36 117.53C76.36 117.53 76.11 117.47 75.9 117.47C75.76 117.47 75.64 117.5 75.61 117.58C75.61 117.91 75.59 118.24 75.58 118.57C76.65 119.94 79.07 123.44 75.84 123.44C75.6 123.44 75.34 123.42 75.04 123.38C74.08 128.87 72.27 132.99 72.27 132.99C72.27 132.99 72.06 133.93 71.47 133.93C70.88 133.93 70.64 133.02 70.64 133.02L69.05 128.6C68.46 126.95 68.13 125.21 68.07 123.45C68.07 123.43 68.07 123.42 68.07 123.4C67.85 123.42 67.64 123.44 67.46 123.44C64 123.44 67.02 119.43 67.92 118.32C67.89 117.16 67.86 116.3 67.86 116.17C67.11 116.17 67.09 115.58 67.09 115.58V113.55C67.09 112.93 66.66 112.83 66.37 112.83C66.22 112.83 66.11 112.86 66.11 112.86L52.53 117.37L52.33 120.81C52.33 120.81 52.15 121.38 51.55 121.38C50.95 121.38 50.87 120.81 50.87 120.81V119.24C50.87 118.25 50.61 118.07 50.51 118.04L35.65 122.98L35.44 126.51C35.44 126.51 35.26 127.08 34.66 127.08C34.06 127.08 33.98 126.51 33.98 126.51V124.94C33.98 123.73 33.59 123.73 33.59 123.73L33.46 123.7L6.90996 132.52C6.90996 132.52 7.06996 136.21 7.06996 138.66C7.06996 139.57 6.84996 139.86 6.56996 139.86C6.09996 139.86 5.46996 139.04 5.46996 139.04C5.46996 139.04 2.79996 135.57 2.74996 129.48C2.74996 122.35 4.75996 121.96 5.20996 121.96C5.26996 121.96 5.29996 121.96 5.29996 121.96C5.29996 121.96 21.11 114.05 39.49 106C54.55 98.3498 70.73 73.1598 75.85 64.9298C76.9 63.2398 77.47 61.2898 77.5 59.2998C77.69 42.2398 79.12 27.5298 79.12 27.5298L78.81 27.8298C78.38 28.2498 77.88 28.5798 77.34 28.8398C73.66 30.5398 58.78 37.4098 57.75 37.9398C57.45 38.0898 57.21 38.1498 57.02 38.1498C56.45 38.1498 56.29 37.6498 56.29 37.6498C56.29 37.6498 56.08 37.4698 55.51 34.2698C54.98 30.5698 56.58 30.1398 56.58 30.1398L81.09 15.3198C81.09 15.3198 85.2 2.34982 87.55 2.34982M87.49 0.319824C86.37 0.319824 83.76 0.319824 79.35 13.9598L55.58 28.3298C54.69 28.7698 52.85 30.1998 53.48 34.5098C53.48 34.5298 53.48 34.5498 53.49 34.5698C53.93 37.0598 54.21 38.0698 54.49 38.5898C54.89 39.3898 55.75 40.0998 56.97 40.0998C57.51 40.0998 58.06 39.9498 58.62 39.6698C59.36 39.2898 68.55 35.0298 76.75 31.2498C76.31 36.7898 75.59 47.5098 75.46 59.2398C75.44 60.8598 74.98 62.4498 74.12 63.8398C61.06 84.8098 48.45 99.1298 38.6 104.16C21.94 111.46 7.20996 118.72 4.72996 119.95C4.01996 120.06 2.89996 120.49 2.02996 122.02C1.13996 123.59 0.709961 126.02 0.709961 129.44C0.769961 136.14 3.71996 140.06 3.84996 140.22C4.30996 140.82 5.26996 141.83 6.53996 141.83C6.79996 141.83 9.03996 141.74 9.03996 138.63C9.03996 137.13 8.97996 135.22 8.93996 133.91L31.95 126.27V126.48C31.95 126.56 31.95 126.65 31.97 126.73C32.11 127.88 33.07 129.05 34.63 129.05C36.06 129.05 37.02 128.06 37.32 127.08C37.37 126.92 37.4 126.76 37.41 126.6L37.54 124.42L48.84 120.67V120.79C48.84 120.87 48.84 120.96 48.86 121.04C49 122.19 49.96 123.36 51.52 123.36C52.95 123.36 53.91 122.37 54.21 121.39C54.26 121.23 54.29 121.07 54.3 120.91L54.42 118.82L65.07 115.28V115.56C65.07 115.56 65.07 115.62 65.07 115.65C65.1 116.27 65.38 116.92 65.87 117.4C65.87 117.48 65.87 117.56 65.87 117.64C63.04 121.39 63.84 123.07 64.11 123.64C64.36 124.16 64.93 124.95 66.19 125.28C66.36 126.65 66.68 127.97 67.14 129.26L68.71 133.62C69.05 134.78 70.02 135.92 71.44 135.92C72.86 135.92 73.8 134.81 74.14 133.64C74.45 132.91 75.75 129.69 76.66 125.37C78.18 125.12 78.84 124.24 79.11 123.67C79.59 122.69 79.51 121.52 78.88 120.12L81.67 120.72C81.7 120.82 81.74 120.95 81.77 121.11C82.19 122.92 83.86 135.53 83.59 140.04C83.59 140.08 83.59 140.12 83.59 140.16C83.59 142.84 85.2 143.64 86.17 143.72C86.22 143.72 86.28 143.72 86.33 143.72C87.35 143.72 89.07 142.97 89.07 140.16C89.07 140.13 89.07 140.1 89.07 140.08C88.88 135.56 90.76 122.99 91.21 121.18C91.25 121.02 91.29 120.9 91.32 120.79L94.12 120.23C93.46 121.63 93.37 122.81 93.84 123.8C94.11 124.36 94.76 125.24 96.25 125.51C97.09 129.85 98.34 133.09 98.63 133.82C98.95 134.99 99.87 136.12 101.29 136.15C102.83 136.15 103.73 134.96 104.06 133.9L105.7 129.57C106.19 128.29 106.53 126.96 106.72 125.61C108 125.3 108.58 124.5 108.84 123.98C109.12 123.41 109.92 121.75 107.17 117.97C107.18 117.71 107.19 117.49 107.2 117.31C107.61 116.63 107.66 115.83 107.65 115.33V115.13L117.84 118.92L117.93 121.04C117.93 121.2 117.96 121.36 118.01 121.52C118.3 122.51 119.24 123.51 120.67 123.54C122.25 123.54 123.21 122.39 123.37 121.26C123.38 121.18 123.39 121.09 123.39 121.01V120.92L134.69 125L134.78 127.19C134.78 127.35 134.81 127.51 134.86 127.67C135.15 128.66 136.09 129.66 137.52 129.69C139.1 129.69 140.06 128.54 140.22 127.41C140.23 127.33 140.24 127.25 140.24 127.16V126.95L162.4 134.67C162.33 135.98 162.24 137.89 162.22 139.38C162.21 140.1 162.28 141.16 163.03 141.92C163.48 142.37 164.07 142.62 164.71 142.62C165.96 142.62 166.92 141.64 167.39 141.06C167.52 140.9 170.54 137.03 170.71 130.35C170.78 126.03 170.13 123.23 168.71 121.79C168.06 121.13 167.38 120.87 166.86 120.78C164.49 119.52 151.14 112.48 134.69 104.94C124.93 99.7398 112.55 85.2198 99.85 64.0398C99.01 62.6398 98.57 61.0498 98.58 59.4198C98.65 47.6898 98.1 36.9598 97.76 31.4198C105.9 35.3398 115.02 39.7498 115.74 40.1398C116.31 40.4498 116.88 40.5998 117.43 40.5998C118.62 40.5998 119.47 39.9098 119.88 39.1398C120.18 38.6298 120.47 37.6298 120.95 35.1298C120.95 35.1098 120.95 35.0898 120.96 35.0698C121.65 30.7698 119.85 29.2998 118.96 28.8498L95.43 14.0798C91.24 0.379825 88.64 0.339824 87.52 0.319824C87.51 0.319824 87.5 0.319824 87.49 0.319824Z" fill="black"/>
</g>
<defs>
<clipPath id="clip0_594_47">
<rect width="170" height="143.39" fill="white" transform="translate(0.700195 0.319824)"/>
</clipPath>
</defs>
</svg>
