<svg width="132" height="112" viewBox="0 0 132 112" fill="none" xmlns="http://www.w3.org/2000/svg">
<g clip-path="url(#clip0_882_40)">
<path d="M66 110.54C65.46 110.54 65.04 110.33 64.73 109.92L42.56 108.14C41.13 108.01 39.19 107.84 39.19 106.12V100.78C39.19 99.47 40.04 97.77 42.45 97.3C42.5 97.3 42.55 97.28 42.6 97.28L62.37 96.53C61.91 93.74 61.45 91.21 61 88.76C59.44 80.26 58.1 72.91 57.76 59.74C57.68 59.63 57.5 59.52 56.94 59.36L2.73 54.77C1.64 54.61 1 53.9 1 52.91V43.81C1 42.39 1.86 41.6 3.55 41.45L57.76 39.88V27.89C57.76 24.93 57.95 20.98 58.72 17.22C57.75 16.8 56.74 15.76 56.83 14.94C56.83 14.88 56.85 14.81 56.87 14.75C57.25 13.53 59.24 10.84 61.37 9.93004C61.71 9.38004 62.07 8.87004 62.45 8.41004C62.47 8.08004 62.52 7.67004 62.59 7.21004L56.16 6.95004C55.81 6.94004 55.5 6.74004 55.33 6.44004C54.87 5.62004 54.77 5.13004 55.37 4.25004C55.56 3.98004 55.87 3.81004 56.2 3.81004L63.51 3.91004C64.07 2.68004 64.8 1.90004 65.68 1.59004C65.79 1.55004 65.9 1.54004 66.01 1.54004C66.12 1.54004 66.23 1.56004 66.34 1.59004C67.23 1.89004 67.96 2.67004 68.51 3.91004L75.82 3.81004C76.15 3.81004 76.46 3.97004 76.65 4.25004C77.25 5.13004 77.16 5.63004 76.72 6.40004C76.55 6.70004 76.21 6.94004 75.86 6.95004L69.43 7.21004C69.5 7.67004 69.55 8.08004 69.57 8.41004C69.95 8.87004 70.32 9.38004 70.65 9.93004C72.78 10.85 74.77 13.54 75.15 14.75C75.17 14.81 75.18 14.87 75.19 14.94C75.28 15.76 74.27 16.8 73.3 17.22C74.07 20.98 74.26 24.93 74.26 27.89V39.88L128.41 41.44C130.16 41.59 131.02 42.39 131.02 43.8V52.9C131.02 53.89 130.38 54.6 129.35 54.75L75.08 59.34C74.52 59.5 74.34 59.61 74.26 59.72C73.92 72.89 72.57 80.23 71.02 88.74C70.57 91.2 70.11 93.73 69.65 96.52L89.43 97.27C89.48 97.27 89.53 97.27 89.58 97.29C91.99 97.76 92.84 99.46 92.84 100.77V106.11C92.84 107.83 90.89 108 89.47 108.13L67.3 109.91C66.99 110.32 66.56 110.53 66.03 110.53L66 110.54Z" fill="white"/>
<path d="M66 2.5398C66.84 2.8298 67.43 3.8098 67.83 4.9198L75.81 4.8098C76.17 5.3398 76.11 5.4098 75.81 5.9498L68.22 6.2498C68.47 7.3498 68.57 8.3698 68.57 8.7898C69.08 9.3698 69.54 10.0198 69.95 10.7298C71.81 11.3398 73.85 13.9798 74.17 15.0398C74.2 15.2998 73.33 16.2998 72.53 16.3998C72.15 15.4798 71.77 14.6698 71.36 13.9198C72.8 18.1498 73.23 23.4098 73.23 27.8898V40.8498L128.35 42.4398C129.64 42.5498 129.99 43.0098 129.99 43.7998V52.8998C129.99 53.4698 129.64 53.6998 129.17 53.7698L74.86 58.3598C74.04 58.5898 73.46 58.8098 73.23 59.4998C72.79 77.0698 70.53 84.3898 68.44 97.4698L89.35 98.2698C91.1 98.6098 91.8 99.7498 91.8 100.77V106.11C91.8 106.91 90.63 107.02 89.35 107.13L66.65 108.95C66.46 109.46 66.25 109.52 65.99 109.52C65.73 109.52 65.52 109.46 65.33 108.95L42.63 107.13C41.35 107.02 40.18 106.9 40.18 106.11V100.77C40.18 99.7498 40.88 98.6098 42.63 98.2698L63.54 97.4698C61.45 84.3898 59.19 77.0598 58.75 59.4998C58.52 58.8098 57.93 58.5798 57.12 58.3598L2.81998 53.7798C2.34998 53.7098 1.99998 53.4798 1.99998 52.9098V43.8098C1.99998 43.0098 2.34998 42.5598 3.62998 42.4498L58.75 40.8598V27.8998C58.75 23.4298 59.18 18.1698 60.62 13.9298C60.21 14.6798 59.83 15.4898 59.45 16.4098C58.66 16.2998 57.79 15.3098 57.81 15.0498C58.14 13.9898 60.17 11.3498 62.03 10.7398C62.44 10.0298 62.9 9.3698 63.41 8.7998C63.41 8.3798 63.51 7.3598 63.76 6.2598L56.17 5.9598C55.87 5.4298 55.81 5.3598 56.17 4.8198L64.15 4.9298C64.55 3.8198 65.14 2.8398 65.98 2.5498M65.98 0.549805C65.76 0.549805 65.54 0.589805 65.33 0.659805C64.34 0.999805 63.51 1.7598 62.87 2.9098L56.2 2.8198C56.2 2.8198 56.18 2.8198 56.17 2.8198C55.51 2.8198 54.89 3.1498 54.52 3.6998C53.65 4.9798 53.85 5.9098 54.41 6.8998L54.44 6.9398C54.78 7.5398 55.41 7.9298 56.1 7.9498L61.35 8.1598C61.11 8.4698 60.88 8.7998 60.66 9.1498C58.35 10.3098 56.32 13.1098 55.9 14.4598C55.86 14.5798 55.84 14.7098 55.82 14.8398C55.71 15.8998 56.54 17.0498 57.58 17.7498C56.91 21.3698 56.74 25.0798 56.74 27.8998V38.9198L3.55998 40.4598C3.55998 40.4598 3.47998 40.4598 3.43998 40.4598C0.319981 40.7398 -0.0200195 42.8998 -0.0200195 43.8198V52.9198C-0.0200195 54.4198 0.96998 55.5398 2.49998 55.7598C2.53998 55.7598 2.57998 55.7698 2.61998 55.7698L56.73 60.3498C56.73 60.3498 56.74 60.3498 56.75 60.3498C57.12 73.2198 58.45 80.5198 59.99 88.9298C60.38 91.0498 60.78 93.2198 61.17 95.5698L42.53 96.2798C42.43 96.2798 42.32 96.2998 42.22 96.3198C39.41 96.8698 38.15 98.9598 38.15 100.78V106.12C38.15 108.76 41.04 109.01 42.43 109.14L64.22 110.89C64.81 111.43 65.51 111.54 65.97 111.54C66.43 111.54 67.12 111.43 67.72 110.89L89.49 109.15C90.89 109.03 93.78 108.77 93.78 106.13V100.79C93.78 98.9598 92.52 96.8698 89.71 96.3298C89.61 96.3098 89.51 96.2998 89.4 96.2898L70.76 95.5798C71.16 93.2398 71.55 91.0598 71.94 88.9398C73.48 80.5198 74.81 73.2298 75.18 60.3598C75.18 60.3598 75.19 60.3598 75.2 60.3598L129.31 55.7798C129.31 55.7798 129.39 55.7798 129.43 55.7698C130.96 55.5398 131.96 54.4298 131.96 52.9298V43.8298C131.96 42.9098 131.62 40.7498 128.5 40.4698C128.46 40.4698 128.42 40.4698 128.38 40.4698L75.2 38.9298V27.9098C75.2 25.0798 75.03 21.3798 74.36 17.7598C75.41 17.0598 76.24 15.9098 76.12 14.8498C76.11 14.7198 76.08 14.5898 76.04 14.4698C75.62 13.1198 73.59 10.3198 71.28 9.1598C71.06 8.8098 70.83 8.4798 70.59 8.1698L75.84 7.9598C76.53 7.9298 77.16 7.5498 77.5 6.9498L77.53 6.9098C78.09 5.9198 78.29 4.9898 77.42 3.7098C77.05 3.1598 76.43 2.8298 75.77 2.8298C75.77 2.8298 75.75 2.8298 75.74 2.8298L69.07 2.9198C68.43 1.7598 67.6 1.0098 66.61 0.669805C66.4 0.599805 66.18 0.559805 65.96 0.559805L65.98 0.549805Z" fill="black"/>
</g>
<defs>
<clipPath id="clip0_882_40">
<rect width="132" height="111" fill="white" transform="translate(0 0.540039)"/>
</clipPath>
</defs>
</svg>
