<svg width="130" height="111" viewBox="0 0 130 111" fill="none" xmlns="http://www.w3.org/2000/svg">
<g clip-path="url(#clip0_882_43)">
<path d="M65 109.54C64.63 109.54 64.15 109.42 63.73 108.89L43.49 106.49C41.96 106.18 41.8 105.2 41.8 104.79V98.2303C41.8 97.4503 42.11 96.1003 44.17 95.8303L61.66 95.2703C61.64 95.0903 61.61 94.9103 61.59 94.7303C59.98 85.7303 58.43 73.8903 57.34 62.2703C56.71 60.7503 56.34 59.3903 56.22 58.1503L13.64 54.7103L3.98 53.8903C2.9 53.7303 1 53.4603 1 52.0703V44.3403C1 42.4603 2.16 40.9803 3.89 40.6603C3.94 40.6603 3.99 40.6503 4.04 40.6403L57 38.7703C57.17 38.7103 57.26 38.6603 57.34 38.6003V31.3303C57.34 26.6103 57.61 22.2103 58.1 18.5903C56.78 17.9003 56.31 16.8503 56 15.8103C55.94 15.6103 55.95 15.4003 56.01 15.2103C56.87 12.6803 57.79 11.1803 60 10.7803C60.32 10.0303 60.67 9.40027 61.04 8.86027L52.22 8.68027C52.01 8.68027 51.8 8.60027 51.63 8.47027C51.29 8.21027 50.66 7.71027 50.7 6.93027C50.74 6.14027 51.45 5.70027 51.72 5.54027C51.87 5.45027 52.04 5.40027 52.22 5.39027L62.45 5.08027C63.41 1.97027 64.28 1.53027 65.01 1.53027C65.74 1.53027 66.61 1.97027 67.57 5.08027L77.8 5.39027C77.98 5.39027 78.15 5.45027 78.3 5.54027C78.57 5.71027 79.28 6.15027 79.32 6.93027C79.36 7.71027 78.73 8.20027 78.39 8.47027C78.22 8.60027 78.01 8.68027 77.8 8.68027L68.98 8.86027C69.36 9.39027 69.7 10.0303 70.02 10.7803C72.23 11.1803 73.15 12.6803 74.01 15.2103C74.08 15.4103 74.08 15.6203 74.02 15.8103C73.71 16.8503 73.24 17.9003 71.92 18.5903C72.57 23.3403 72.68 28.4003 72.68 31.3403V38.6103C72.75 38.6703 72.85 38.7203 73.02 38.7803L125.98 40.6503C125.98 40.6503 126.08 40.6503 126.13 40.6703C127.86 40.9903 129.02 42.4703 129.02 44.3503V52.0803C129.02 53.4603 127.12 53.7403 126.1 53.8903L116.38 54.7203L73.79 58.1603C73.67 59.4003 73.3 60.7603 72.67 62.2803C71.58 73.8903 70.03 85.7303 68.42 94.7703C68.4 94.9303 68.38 95.1003 68.35 95.2703L85.74 95.8203C87.9 96.0903 88.2 97.4403 88.2 98.2203V104.78C88.2 105.19 88.04 106.17 86.6 106.46L66.28 108.88C65.86 109.4 65.38 109.53 65.01 109.53L65 109.54Z" fill="white"/>
<path d="M65 2.54004C65.63 2.54004 66.34 4.40004 66.81 6.07004L77.77 6.40004C78.58 6.90004 78.42 7.19004 77.77 7.69004L67.24 7.90004C67.29 8.16004 67.31 8.37004 67.31 8.51004C68.12 9.18004 68.77 10.3 69.31 11.7C71.3 11.87 72.13 12.81 73.06 15.54C72.72 16.71 72.26 17.41 71.11 17.88C70.82 16.76 70.63 16.02 70.37 15.44C71.68 21.7 71.68 29.78 71.68 31.35V38.96C71.98 39.4 72.24 39.58 72.83 39.78L125.94 41.65C127.2 41.88 128.01 42.94 128.01 44.34V52.07C128.01 52.54 126.74 52.77 125.94 52.89L116.28 53.71L72.82 57.22C72.82 58.74 72.36 60.38 71.67 62.02C70.44 75.14 68.8 86.85 67.42 94.58C67.34 95.12 67.28 95.67 67.21 96.22L85.7 96.81C86.62 96.93 87.19 97.28 87.19 98.22V104.78C87.19 105.13 86.96 105.37 86.39 105.48L65.68 107.94C65.49 108.32 65.27 108.53 65 108.53C64.73 108.53 64.51 108.32 64.32 107.94L43.61 105.48C43.04 105.36 42.81 105.13 42.81 104.78V98.22C42.81 97.28 43.38 96.93 44.3 96.81L62.79 96.22C62.73 95.67 62.66 95.12 62.58 94.58C61.2 86.85 59.55 75.14 58.33 62.02C57.64 60.38 57.18 58.74 57.18 57.22L13.72 53.71L4.06003 52.89C3.26003 52.77 1.99003 52.54 1.99003 52.07V44.34C1.99003 42.93 2.79003 41.88 4.06003 41.65L57.17 39.78C57.76 39.58 58.02 39.4 58.32 38.96V31.35C58.32 29.78 58.32 21.7 59.63 15.44C59.37 16.02 59.18 16.76 58.89 17.88C57.74 17.41 57.28 16.71 56.94 15.54C57.87 12.81 58.7 11.87 60.69 11.7C61.23 10.3 61.88 9.18004 62.69 8.51004C62.69 8.38004 62.71 8.17004 62.76 7.90004L52.23 7.69004C51.58 7.19004 51.42 6.90004 52.23 6.40004L63.19 6.07004C63.65 4.40004 64.37 2.54004 65 2.54004ZM65 0.540039C63.58 0.540039 62.58 1.60004 61.71 4.11004L52.18 4.40004C51.83 4.41004 51.49 4.51004 51.19 4.70004C50.84 4.92004 49.77 5.58004 49.7 6.89004C49.63 8.19004 50.6 8.95004 51.02 9.27004C51.36 9.53004 51.78 9.68004 52.21 9.69004L59.34 9.84004C59.34 9.84004 59.31 9.90004 59.3 9.93004C57.01 10.55 55.95 12.33 55.07 14.9C54.94 15.29 54.93 15.71 55.05 16.11C55.36 17.15 55.84 18.28 57.03 19.13C56.45 23.74 56.35 28.53 56.35 31.36V37.82L4.02003 39.67C3.92003 39.67 3.82003 39.68 3.73003 39.7C1.51003 40.11 0.0300293 41.98 0.0300293 44.36V52.09C0.0300293 54.34 2.68003 54.72 3.81003 54.89C3.85003 54.89 3.89003 54.9 3.93003 54.9L13.59 55.72L55.38 59.1C55.56 60.17 55.9 61.3 56.4 62.53C57.46 73.85 58.96 85.37 60.53 94.32L44.27 94.84C44.21 94.84 44.14 94.84 44.08 94.86C41.07 95.24 40.84 97.55 40.84 98.25V104.81C40.84 105.86 41.47 107.11 43.25 107.47C43.3 107.48 43.36 107.49 43.41 107.5L63.29 109.86C63.95 110.47 64.68 110.56 65.03 110.56C65.38 110.56 66.11 110.47 66.77 109.86L86.65 107.5C86.7 107.5 86.76 107.48 86.81 107.47C88.58 107.11 89.22 105.86 89.22 104.81V98.25C89.22 97.55 88.99 95.24 85.98 94.86C85.92 94.86 85.85 94.85 85.79 94.84L69.53 94.32C71.1 85.38 72.6 73.86 73.66 62.53C74.16 61.3 74.5 60.17 74.68 59.1L116.46 55.72L126.13 54.9C126.13 54.9 126.21 54.9 126.25 54.89C127.38 54.73 130.03 54.34 130.03 52.09V44.36C130.03 41.98 128.54 40.11 126.33 39.7C126.23 39.68 126.13 39.67 126.04 39.67L73.71 37.82V31.36C73.71 28.53 73.61 23.74 73.03 19.13C74.22 18.29 74.71 17.16 75.01 16.11C75.13 15.71 75.12 15.29 74.99 14.9C74.11 12.32 73.05 10.55 70.76 9.93004C70.75 9.90004 70.73 9.87004 70.72 9.85004L77.85 9.70004C78.28 9.70004 78.7 9.54004 79.04 9.28004C79.45 8.96004 80.43 8.20004 80.36 6.90004C80.29 5.59004 79.22 4.93004 78.87 4.71004C78.57 4.52004 78.23 4.42004 77.88 4.41004L68.35 4.12004C67.48 1.60004 66.48 0.550039 65.06 0.550039L65 0.540039Z" fill="black"/>
</g>
<defs>
<clipPath id="clip0_882_43">
<rect width="130" height="110" fill="white" transform="translate(0 0.540039)"/>
</clipPath>
</defs>
</svg>
