<svg width="132" height="112" viewBox="0 0 132 112" fill="none" xmlns="http://www.w3.org/2000/svg">
<g clip-path="url(#clip0_882_46)">
<path d="M65.9999 110.54C65.2799 110.54 64.8799 110.04 64.6599 109.57C55.5599 108.97 49.7699 108.08 41.4399 106.71C40.4299 106.54 39.9299 105.43 39.7799 102.97C39.6899 101.6 39.5399 97.08 41.3199 96.54C41.3899 96.52 41.4699 96.5 41.5499 96.5L44.4699 96.32C51.1299 95.92 55.6599 95.65 62.5799 95.58C60.7099 86.45 58.2599 67.8 58.1899 60.31C57.8199 59.78 57.4599 59.1 57.2799 58.38C39.5699 57.43 28.8699 56.31 12.7799 54.63L4.78992 53.8C4.15992 53.81 3.96992 54.03 3.66992 54.4C3.38992 54.74 3.00992 55.2 2.31992 55.3C2.26992 55.3 2.22992 55.31 2.17992 55.31C1.88992 55.31 1.59992 55.18 1.40992 54.95C0.219916 53.52 2.20992 45.81 3.31992 42.84C3.97992 41.09 4.94992 40.34 6.56992 40.34L17.8799 39.99V38.21C17.8799 36.19 19.2599 35.13 20.6099 35.13C21.9599 35.13 23.3399 36.19 23.3399 38.21V39.82L58.1799 38.75V28.72C58.1799 25.85 58.6199 22 59.3799 18.26C59.3799 18.26 59.3699 18.24 59.3599 18.23C58.6899 17.11 58.3099 16.39 57.7899 15.08C57.6999 14.86 57.6999 14.63 57.7699 14.41C58.3499 12.59 59.4099 10.17 61.8299 10.14C61.8899 10.03 61.9499 9.92004 62.0099 9.81004L54.3499 9.10004C54.3499 9.10004 54.2699 9.09004 54.2199 9.08004C52.9999 8.81004 52.6399 8.02004 52.7099 7.43004C52.7799 6.80004 53.3399 6.17004 54.4399 6.17004H62.9299C63.2799 4.49004 64.0399 2.29004 65.6099 1.62004C65.7399 1.57004 65.8699 1.54004 65.9999 1.54004C66.1299 1.54004 66.2699 1.57004 66.3899 1.62004C67.9599 2.29004 68.7099 4.50004 69.0699 6.17004H77.5599C78.6599 6.17004 79.2199 6.80004 79.2899 7.43004C79.3599 8.02004 78.9999 8.80004 77.7799 9.07004C77.7399 9.07004 77.6999 9.09004 77.6599 9.09004L69.9999 9.80004C70.0599 9.90004 70.1199 10.01 70.1799 10.13C72.6099 10.16 73.6599 12.58 74.2399 14.4C74.3099 14.62 74.2999 14.86 74.2199 15.07C73.6999 16.38 73.3099 17.1 72.6499 18.22C72.6499 18.22 72.6399 18.24 72.6299 18.25C73.3799 22 73.8299 25.84 73.8299 28.71V38.74L125.48 40.33C127.07 40.33 128.04 41.08 128.7 42.83C129.81 45.8 131.81 53.5 130.61 54.94C130.42 55.17 130.14 55.3 129.84 55.3C129.79 55.3 129.75 55.3 129.7 55.29C129.01 55.19 128.63 54.73 128.35 54.39C128.05 54.03 127.86 53.8 127.23 53.79L119.24 54.62C103.15 56.3 92.4499 57.42 74.7399 58.37C74.5599 59.08 74.1999 59.77 73.8299 60.3C73.7599 67.79 71.3099 86.44 69.4399 95.57C76.3599 95.64 80.8899 95.91 87.5499 96.31L90.4699 96.49C90.5499 96.49 90.6199 96.51 90.6999 96.53C92.4799 97.06 92.3299 101.58 92.2399 102.96C92.0799 105.41 91.5799 106.53 90.5799 106.7C82.2399 108.07 76.4499 108.96 67.3599 109.56C67.1399 110.03 66.7399 110.53 66.0199 110.53L65.9999 110.54Z" fill="white"/>
<path d="M66 2.54027C67.17 3.04027 67.91 5.10027 68.24 7.17027H77.57C78.5 7.17027 78.61 7.86027 77.57 8.10027L68.42 8.94027C68.42 9.13027 68.43 9.31027 68.43 9.49027C68.79 9.69027 69.18 10.3003 69.58 11.1803C69.77 11.1403 69.96 11.1203 70.14 11.1203C71.58 11.1203 72.55 12.3603 73.3 14.6903C72.82 15.9003 72.48 16.5503 71.8 17.7003L71.45 17.4103C72.26 21.1203 72.84 25.4303 72.84 28.7003V39.7003L125.46 41.3203C126.62 41.3203 127.25 41.7803 127.77 43.1703C129.37 47.4503 130.43 53.5903 129.85 54.2903C129.04 54.1703 129.04 52.7803 127.19 52.7803C105.91 54.9803 94.86 56.3103 73.87 57.4103C73.87 58.3403 73.29 59.3803 72.83 59.9603C72.83 67.3703 70.17 87.6403 68.2 96.5503C76.82 96.6003 81.79 96.9703 90.41 97.4803C91.57 97.8303 91.57 105.51 90.41 105.7C81.27 107.2 75.72 108.02 66.62 108.59C66.43 109.32 66.22 109.52 66 109.52C65.78 109.52 65.57 109.32 65.38 108.59C56.28 108.01 50.73 107.2 41.59 105.7C40.43 105.51 40.43 97.8303 41.59 97.4803C50.2 96.9703 55.17 96.6103 63.8 96.5503C61.83 87.6303 59.17 67.3703 59.17 59.9603C58.71 59.3803 58.13 58.3403 58.13 57.4103C37.15 56.3003 26.09 54.9803 4.80997 52.7803C2.95997 52.7803 2.95997 54.1703 2.14997 54.2903C1.56997 53.6003 2.62997 47.4503 4.22997 43.1703C4.74997 41.7703 5.38997 41.3203 6.53997 41.3203L18.85 40.9403V38.1903C18.85 36.8003 19.72 36.1103 20.58 36.1103C21.44 36.1103 22.31 36.8003 22.31 38.1903V40.8303L59.15 39.6903V28.6903C59.15 25.4203 59.73 21.1103 60.54 17.4003L60.19 17.6903C59.51 16.5403 59.17 15.8903 58.69 14.6803C59.44 12.3503 60.4 11.1103 61.85 11.1103C62.03 11.1103 62.21 11.1303 62.41 11.1703C62.8 10.2803 63.19 9.68027 63.56 9.48027C63.56 9.30027 63.56 9.12027 63.57 8.93027L54.42 8.09027C53.38 7.86027 53.49 7.16027 54.42 7.16027H63.75C64.08 5.09027 64.82 3.03027 65.99 2.53027M65.99 0.530273C65.72 0.530273 65.45 0.580273 65.2 0.690273C63.54 1.40027 62.62 3.29027 62.13 5.16027H54.43C52.72 5.16027 51.82 6.27027 51.71 7.31027C51.59 8.39027 52.25 9.65027 54 10.0403C54.08 10.0603 54.17 10.0703 54.25 10.0803L58.72 10.4903C57.58 11.6903 57.05 13.3403 56.81 14.0803C56.67 14.5203 56.69 15.0003 56.86 15.4303C57.36 16.6803 57.74 17.4203 58.32 18.4203C57.6 22.1103 57.18 25.8603 57.18 28.7003V37.7603L24.34 38.7703V38.1903C24.34 35.5403 22.42 34.1103 20.61 34.1103C18.8 34.1103 16.88 35.5403 16.88 38.1903V39.0003L6.52997 39.3203C3.85997 39.3303 2.87997 41.1203 2.37997 42.4703C1.60997 44.5403 0.879969 47.2403 0.429969 49.7203C-0.340031 53.9603 0.109969 54.9403 0.639969 55.5703C1.01997 56.0303 1.58997 56.2903 2.17997 56.2903C2.26997 56.2903 2.36997 56.2903 2.45997 56.2703C3.53997 56.1203 4.12997 55.4003 4.43997 55.0203C4.50997 54.9403 4.59997 54.8303 4.63997 54.8003C4.63997 54.8003 4.68997 54.8003 4.74997 54.7903C7.55997 55.0803 10.18 55.3603 12.68 55.6203C28.57 57.2803 39.22 58.4003 56.54 59.3403C56.74 59.8403 56.98 60.2803 57.2 60.6103C57.33 68.0203 59.56 85.1903 61.37 94.5903C55.03 94.6803 50.46 94.9603 44.38 95.3203L41.49 95.4903C41.33 95.4903 41.18 95.5303 41.03 95.5703C38.82 96.2303 38.59 99.9903 38.78 103.02C38.86 104.3 39.06 107.31 41.28 107.68C49.49 109.03 55.24 109.91 64.09 110.52C64.71 111.37 65.5 111.53 66.01 111.53C66.52 111.53 67.32 111.37 67.93 110.52C76.78 109.91 82.53 109.03 90.74 107.68C92.96 107.31 93.16 104.3 93.24 103.02C93.43 99.9903 93.2 96.2303 90.99 95.5703C90.84 95.5303 90.69 95.5003 90.53 95.4903L87.64 95.3203C81.57 94.9503 76.99 94.6803 70.65 94.5903C72.47 85.2003 74.69 68.0203 74.82 60.6103C75.03 60.2703 75.28 59.8403 75.48 59.3403C92.8 58.4003 103.45 57.2803 119.34 55.6203C121.84 55.3603 124.46 55.0803 127.27 54.7903C127.37 54.7903 127.4 54.8103 127.4 54.8103C127.41 54.8303 127.51 54.9403 127.58 55.0203C127.9 55.4003 128.49 56.1203 129.56 56.2703C129.65 56.2803 129.75 56.2903 129.84 56.2903C130.43 56.2903 130.99 56.0303 131.38 55.5703C131.91 54.9403 132.36 53.9603 131.59 49.7203C131.14 47.2503 130.41 44.5403 129.64 42.4703C129.14 41.1203 128.16 39.3303 125.49 39.3203L74.83 37.7603V28.7003C74.83 25.8603 74.41 22.1103 73.69 18.4203C74.28 17.4203 74.65 16.6803 75.15 15.4303C75.32 15.0003 75.34 14.5203 75.2 14.0803C74.96 13.3403 74.44 11.6903 73.29 10.4903L77.76 10.0803C77.84 10.0803 77.93 10.0603 78.01 10.0403C79.76 9.65027 80.42 8.39027 80.3 7.31027C80.19 6.28027 79.29 5.16027 77.58 5.16027H69.88C69.38 3.29027 68.47 1.40027 66.81 0.690273C66.56 0.580273 66.29 0.530273 66.02 0.530273H65.99Z" fill="black"/>
</g>
<defs>
<clipPath id="clip0_882_46">
<rect width="132" height="111" fill="white" transform="translate(0 0.540039)"/>
</clipPath>
</defs>
</svg>
