<svg width="97" height="75" viewBox="0 0 97 75" fill="none" xmlns="http://www.w3.org/2000/svg">
<g clip-path="url(#clip0_418_42)">
<path d="M48.4099 73.15C47.6299 73.15 47.0499 72.61 46.6499 70.06H33.7699C33.2199 70.06 32.7699 69.61 32.7699 69.06V64.33C32.7699 62.72 34.1999 62.03 34.9599 61.89L45.9199 59.49V57.3C44.8399 51.69 43.8299 44.93 43.2199 40.89C42.9599 39.18 42.7799 37.94 42.6999 37.51C42.5599 36.8 42.1199 36.54 41.9499 36.46C35.2999 35.59 3.73991 31.47 2.96991 31.29C1.40991 30.94 1.40991 29.72 1.40991 29.2C1.40991 27.46 1.99991 23.77 2.61991 21.62C3.26991 19.38 4.37991 19.04 4.98991 19.04C5.07991 19.04 5.16991 19.04 5.23991 19.06H41.4799C41.7399 17.76 41.9199 16.65 42.1099 15.49L42.3399 14.05C42.6799 12.03 43.0999 8.87 43.1099 8.84C43.2699 8.03 43.6399 6.15 44.4899 5.06C39.7699 4.94 39.7699 4.82 39.7599 3.82C39.7599 2.72 39.7599 2.68 46.3299 2.46C46.9299 1.16 47.9499 1 48.4099 1C48.8699 1 49.8899 1.16 50.4899 2.46C57.0599 2.68 57.0599 2.71 57.0599 3.82C57.0599 4.81 57.0599 4.94 52.3299 5.06C53.1799 6.14 53.5499 8.01 53.6999 8.78C53.7099 8.87 54.1399 12.03 54.4799 14.05L54.7099 15.48C54.8999 16.65 55.0799 17.76 55.3399 19.06H91.5799C91.6499 19.05 91.7399 19.04 91.8299 19.04C92.4399 19.04 93.5499 19.37 94.1999 21.62C94.8199 23.78 95.4099 27.46 95.4099 29.2C95.4099 29.72 95.4099 30.95 93.8499 31.29C93.0799 31.46 61.4899 35.59 54.8599 36.46C54.7199 36.52 54.2599 36.78 54.1199 37.5C54.0399 37.92 53.8499 39.16 53.5999 40.87C52.9999 44.92 51.9899 51.68 50.8999 57.29V59.48L61.8899 61.89C62.6199 62.03 64.0499 62.72 64.0499 64.33V69.06C64.0499 69.61 63.5999 70.06 63.0499 70.06H50.1699C49.7699 72.61 49.1899 73.15 48.4099 73.15Z" fill="white"/>
<path d="M48.4099 2.00023C49.0799 2.00023 49.5399 2.51023 49.7799 3.43023C58.5499 3.72023 57.7099 3.93023 49.8999 4.10023C49.9399 4.45023 49.9699 4.83024 49.9699 5.26023H50.6599C50.6599 5.26023 50.7299 5.22023 50.8399 5.22023C51.2099 5.22023 52.0599 5.62023 52.7199 8.96023C52.7199 8.96023 53.1499 12.1402 53.4899 14.2002C53.8299 16.2602 54.0499 17.8302 54.5199 20.0502H91.6799C91.6799 20.0502 91.7299 20.0302 91.8199 20.0302C92.0999 20.0302 92.7499 20.2302 93.2299 21.8802C93.8599 24.0602 94.3999 27.6402 94.3999 29.1902C94.3999 29.7102 94.3999 30.1402 93.6299 30.3102C92.8599 30.4802 54.6199 35.4702 54.6199 35.4702C54.6199 35.4702 53.4199 35.8102 53.1299 37.3002C52.8399 38.7902 51.4399 49.1902 49.8899 57.1802V60.2702L61.6699 62.8502C61.6699 62.8502 63.0499 63.1102 63.0499 64.3102V69.0402H49.2999C49.2999 69.0402 48.9299 72.1302 48.4099 72.1302C47.8899 72.1302 47.5199 69.0402 47.5199 69.0402H33.7699V64.3102C33.7699 63.1102 35.1499 62.8502 35.1499 62.8502L46.9299 60.2702V57.1802C45.3799 49.1902 43.9799 38.7902 43.6899 37.3002C43.3999 35.8102 42.1999 35.4702 42.1999 35.4702C42.1999 35.4702 3.95991 30.4802 3.18991 30.3102C2.41991 30.1402 2.41991 29.7102 2.41991 29.1902C2.41991 27.6402 2.95991 24.0602 3.58991 21.8802C4.06991 20.2202 4.70991 20.0302 4.99991 20.0302C5.08991 20.0302 5.13991 20.0502 5.13991 20.0502H42.2999C42.7699 17.8402 42.9899 16.2702 43.3299 14.2002C43.6699 12.1402 44.0999 8.96023 44.0999 8.96023C44.7499 5.62023 45.6099 5.22023 45.9799 5.22023C46.0999 5.22023 46.1599 5.26023 46.1599 5.26023H46.8499C46.8499 4.83024 46.8799 4.45023 46.9199 4.10023C39.1099 3.93023 38.2699 3.72023 47.0399 3.43023C47.2799 2.51023 47.7399 2.00023 48.4099 2.00023ZM48.4099 0.000234375C47.9399 0.000234375 46.6199 0.130234 45.7299 1.48023C44.2099 1.53023 43.0199 1.59023 42.1699 1.64023C40.6499 1.73023 38.7499 1.85023 38.7599 3.82023C38.7699 5.80023 40.6199 5.89023 42.2499 5.97023C42.4299 5.97023 42.6199 5.99023 42.8299 6.00023C42.4499 6.98023 42.2499 7.99023 42.1299 8.59023C42.1299 8.63023 42.1199 8.67023 42.1099 8.71023C42.1099 8.74023 41.6799 11.8802 41.3499 13.8902C41.2699 14.3902 41.1899 14.8702 41.1099 15.3302C40.9599 16.2702 40.8199 17.1302 40.6499 18.0602H5.30991C5.20991 18.0502 5.10991 18.0402 4.98991 18.0402C4.09991 18.0402 2.48991 18.4702 1.65991 21.3402C0.999912 23.6102 0.409912 27.3502 0.409912 29.2002C0.409912 31.3102 1.67991 32.0302 2.74991 32.2702C3.51991 32.4402 29.8999 35.8902 41.5999 37.4202C41.6499 37.4802 41.6899 37.5702 41.7199 37.6902C41.7999 38.0902 41.9899 39.3802 42.2299 41.0102C42.8299 45.0402 43.8399 51.7702 44.9199 57.3802V58.6702L34.7399 60.9002C33.2999 61.1802 31.7699 62.3702 31.7699 64.3202V69.0502C31.7699 70.1502 32.6699 71.0502 33.7699 71.0502H45.8099C46.1599 72.7802 46.8199 74.1402 48.4099 74.1402C49.9999 74.1402 50.6599 72.7702 51.0099 71.0502H63.0499C64.1499 71.0502 65.0499 70.1502 65.0499 69.0502V64.3202C65.0499 62.3702 63.5199 61.1802 62.0799 60.9002L51.8999 58.6702V57.3802C52.9799 51.7702 53.9799 45.0502 54.5899 41.0202C54.8299 39.3802 55.0299 38.0902 55.1099 37.6802C55.1299 37.5602 55.1699 37.4702 55.2299 37.4102C66.9299 35.8802 93.3099 32.4302 94.0799 32.2602C95.1499 32.0202 96.4199 31.3002 96.4199 29.1902C96.4199 27.3402 95.8199 23.5902 95.1699 21.3302C94.3399 18.4602 92.7299 18.0302 91.8399 18.0302C91.7299 18.0302 91.6199 18.0302 91.5199 18.0502H56.1799C56.0099 17.1202 55.8699 16.2602 55.7199 15.3202C55.6499 14.8602 55.5699 14.3802 55.4899 13.8802C55.1599 11.8702 54.7299 8.73023 54.7299 8.70023C54.7299 8.66023 54.7199 8.62023 54.7099 8.58023C54.5899 7.98023 54.3999 6.97023 54.0099 5.99023C54.2199 5.99023 54.4099 5.97023 54.5899 5.96023C56.2199 5.88023 58.0699 5.80023 58.0799 3.81023C58.0899 1.83023 56.1899 1.72023 54.6699 1.63023C53.8299 1.58023 52.6399 1.53023 51.1099 1.47023C50.2199 0.120234 48.8899 -0.00976562 48.4299 -0.00976562L48.4099 0.000234375Z" fill="#231F20"/>
</g>
<defs>
<clipPath id="clip0_418_42">
<rect width="96" height="74.15" fill="white" transform="translate(0.409912)"/>
</clipPath>
</defs>
</svg>
