<svg width="91" height="175" viewBox="0 0 91 175" fill="none" xmlns="http://www.w3.org/2000/svg">
<g clip-path="url(#clip0_305_69)">
<path d="M45.4398 173.565C44.6898 173.565 44.1398 173.335 43.8098 172.895C43.5598 172.555 43.4998 172.165 43.5498 171.855V155.475C42.9698 155.165 42.5698 154.605 42.3398 153.965H37.1398C36.6898 153.965 36.3398 153.795 36.0798 153.525C35.9798 153.625 35.8498 153.695 35.7098 153.745C28.4998 156.155 14.5298 160.865 13.3098 161.375C12.8598 161.565 12.4598 161.655 12.0998 161.655C11.4698 161.655 11.0798 161.385 10.8698 161.155C10.3998 160.655 10.4198 160.005 10.4298 159.885V150.105C10.4298 149.795 10.4498 149.525 10.4898 149.275C10.2298 149.665 10.0598 149.915 10.0198 149.985C9.44982 150.955 8.67982 151.095 8.27982 151.095C7.66982 151.095 7.23982 150.795 7.11982 150.705C6.99982 150.615 6.90982 150.495 6.83982 150.365C6.68982 150.075 3.14982 143.135 2.01982 140.385C0.599819 137.135 1.99982 134.415 2.05982 134.295C7.80982 121.245 18.9198 95.9051 19.5998 93.8651C20.4698 91.2551 21.4798 88.6051 21.4898 88.5851C21.5098 88.5251 21.5398 88.4651 21.5798 88.4151L28.5898 77.1551C28.7998 76.8251 28.9098 76.4351 28.8998 76.0351C28.8098 69.6951 29.1298 62.8051 29.2598 59.8651C29.2898 59.1851 29.3098 58.7551 29.3098 58.6351C29.3098 57.5951 29.9998 57.1151 30.6398 57.1151C30.7198 57.1151 30.7898 57.1151 30.8498 57.1351H36.4598V53.3251C36.4598 52.5951 36.8398 52.0351 37.2498 51.6851V45.7951C37.2498 23.3551 41.9798 12.8451 43.6498 9.83506V3.24506C43.6498 3.14506 43.6598 3.04506 43.6898 2.95506C43.8198 2.53506 44.1598 1.43506 45.1498 1.43506C46.1398 1.43506 46.4798 2.53506 46.6098 2.95506C46.6398 3.04506 46.6498 3.14506 46.6498 3.24506V9.81506C48.3398 12.8251 53.1198 23.3651 53.1998 45.8551L53.2198 51.7451C53.6298 52.1051 54.0098 52.6551 54.0198 53.3851V57.1951L59.6398 57.1751C59.6998 57.1751 59.7698 57.1551 59.8498 57.1551C60.4898 57.1551 61.1798 57.6251 61.1798 58.6651C61.1798 58.7851 61.1998 59.2151 61.2398 59.8751C61.3798 62.8151 61.7298 69.7151 61.6598 76.0651C61.6598 76.4651 61.7598 76.8551 61.9698 77.1851L69.0298 88.4251C69.0598 88.4751 69.0898 88.5351 69.1198 88.5951C69.1198 88.6251 70.1498 91.2651 71.0298 93.8751C71.7198 95.9151 82.9198 121.205 88.7498 134.295C88.7798 134.345 90.1898 137.065 88.7798 140.345C87.6698 143.085 84.1498 150.025 83.9998 150.325C83.9298 150.455 83.8398 150.575 83.7198 150.665C83.5998 150.755 83.1598 151.055 82.5498 151.055C82.1398 151.055 81.3798 150.915 80.8098 149.945C80.7598 149.865 80.5998 149.625 80.3298 149.235C80.3698 149.475 80.3998 149.755 80.3998 150.065L80.4398 159.915C80.4398 159.965 80.4698 160.615 79.9998 161.115C79.7898 161.345 79.3998 161.625 78.7598 161.625C78.3998 161.625 77.9998 161.535 77.5498 161.345C76.3198 160.835 62.3398 156.185 55.1198 153.795C54.9798 153.745 54.8498 153.675 54.7498 153.575C54.4898 153.835 54.1398 154.015 53.6898 154.015L48.4898 154.035C48.2698 154.665 47.8598 155.235 47.2898 155.545L47.3498 171.925C47.3898 172.215 47.3498 172.565 47.1198 172.885C46.7998 173.335 46.2398 173.565 45.4598 173.575L45.4398 173.565ZM70.2098 134.685C66.9898 130.055 63.0898 124.475 58.6198 118.065V118.545L70.2098 134.685ZM32.0598 118.045C28.7098 122.885 24.4398 129.055 20.5398 134.675L32.0598 118.515V118.035V118.045Z" fill="white"/>
<path d="M45.1298 2.43506C45.2998 2.43506 45.4598 2.70506 45.6298 3.24506V10.0751C47.2098 12.7951 52.0998 23.0451 52.1798 45.8551C52.1998 51.7251 52.1998 52.2651 52.1998 52.2651C52.1998 52.2651 52.9898 52.6351 52.9898 53.3851C52.9898 54.1351 53.0098 58.5651 53.0098 58.5651C53.0098 58.5651 53.0698 60.0351 53.2398 60.0351C53.3198 60.0351 53.4298 59.6651 53.5698 58.5651C53.5698 58.1951 53.9598 58.1851 53.9598 58.1851L59.7098 58.1651C59.7098 58.1651 59.7598 58.1451 59.8198 58.1451C59.9498 58.1451 60.1498 58.2151 60.1498 58.6551C60.1498 59.2851 60.7098 68.1751 60.6198 76.0451C60.6198 76.6351 60.7698 77.2051 61.0898 77.7051L68.1497 88.9451C68.1497 88.9451 69.1598 91.5651 70.0398 94.1851C70.9198 96.8051 87.7898 134.695 87.7898 134.695C87.7898 134.695 89.0498 137.065 87.8098 139.935C86.6998 142.685 83.0598 149.855 83.0598 149.855C83.0598 149.855 82.8198 150.035 82.4998 150.035C82.2298 150.035 81.9098 149.905 81.6198 149.415C81.0498 148.445 61.5198 120.495 58.0998 115.585C58.0398 115.505 57.9598 115.465 57.8798 115.465C57.7398 115.465 57.5998 115.575 57.5998 115.745V118.755C57.6098 118.815 57.6298 118.875 57.6598 118.915L78.7698 148.315C78.7698 148.315 79.3498 148.675 79.3598 150.035C79.3598 151.395 79.3997 159.885 79.3997 159.885C79.3997 159.885 79.4498 160.595 78.7298 160.595C78.5198 160.595 78.2598 160.535 77.9098 160.395C76.3298 159.735 55.4098 152.815 55.4098 152.815V151.235H54.5698C54.5698 151.235 54.4098 152.985 53.6598 152.985C52.9098 152.985 47.6698 153.005 47.6698 153.005C47.6698 153.005 47.5098 154.755 46.2598 154.755V155.925L46.3198 171.985C46.3198 171.985 46.5098 172.525 45.4298 172.535C44.3498 172.535 44.5398 171.915 44.5398 171.915V154.685C43.2898 154.685 43.1298 152.935 43.1298 152.935H37.1398C36.3898 152.935 36.2198 151.185 36.2198 151.185H35.3898V152.765C35.3898 152.765 14.4998 159.755 12.9198 160.425C12.5698 160.575 12.2998 160.635 12.0898 160.635C11.3698 160.635 11.4198 159.935 11.4198 159.935V150.085C11.4198 148.725 11.9998 148.365 11.9998 148.365L33.0098 118.895C33.0098 118.895 33.0598 118.795 33.0598 118.735V115.725C33.0598 115.555 32.9198 115.445 32.7798 115.445C32.6998 115.445 32.6098 115.485 32.5598 115.565C29.1498 120.485 9.72975 148.505 9.15975 149.475C8.86975 149.965 8.54975 150.095 8.27975 150.095C7.95975 150.095 7.72975 149.915 7.72975 149.915C7.72975 149.915 4.06975 142.755 2.93975 140.015C1.68975 137.145 2.93975 134.775 2.93975 134.775C2.93975 134.775 19.6698 96.8251 20.5398 94.1951C21.4098 91.5751 22.4098 88.9551 22.4098 88.9551L29.4198 77.6951C29.7298 77.1951 29.8898 76.6251 29.8798 76.0351C29.7698 68.1651 30.2898 59.2751 30.2898 58.6451C30.2898 58.2051 30.4898 58.1251 30.6198 58.1251C30.6798 58.1251 30.7298 58.1451 30.7298 58.1451H36.4798C36.4798 58.1451 36.8798 58.1451 36.8798 58.5151C37.0298 59.6151 37.1398 59.9851 37.2198 59.9851C37.3898 59.9851 37.4398 58.5151 37.4398 58.5151V53.3351C37.4398 52.5851 38.2298 52.2151 38.2298 52.2151V45.8051C38.2298 23.0951 43.0398 12.8751 44.6298 10.1151V3.24506C44.7998 2.70506 44.9598 2.43506 45.1298 2.43506ZM45.1298 0.435059C44.3398 0.435059 43.2798 0.825059 42.7198 2.65506C42.6598 2.84506 42.6298 3.04506 42.6298 3.24506V9.59506C40.5098 13.5051 36.2298 24.0851 36.2298 45.8051V51.2751C35.7798 51.7951 35.4398 52.4851 35.4398 53.3351V56.1451H30.8998C30.8098 56.1351 30.7198 56.1251 30.6198 56.1251C29.4898 56.1251 28.2898 57.0051 28.2898 58.6451C28.2898 58.7751 28.2698 59.1951 28.2398 59.8351C28.1098 62.7851 27.7898 69.7051 27.8798 76.0651C27.8798 76.2751 27.8298 76.4751 27.7198 76.6451L20.7098 87.9051C20.6398 88.0151 20.5798 88.1251 20.5398 88.2551C20.4998 88.3651 19.5198 90.9451 18.6398 93.5751C18.0198 95.4351 7.83975 118.705 1.12975 133.925C0.509754 135.155 -0.160246 137.925 1.09975 140.825C2.22975 143.575 5.78975 150.545 5.93975 150.845C6.06975 151.105 6.26975 151.335 6.49975 151.515C6.72975 151.695 7.36975 152.115 8.26975 152.115C8.66975 152.115 9.05975 152.025 9.41975 151.865V159.935C9.41975 160.305 9.47975 161.145 10.1298 161.845C10.6198 162.375 11.3198 162.665 12.0898 162.665C12.5898 162.665 13.1098 162.545 13.6898 162.305C14.7998 161.835 27.6398 157.505 36.0098 154.705C36.3498 154.875 36.7298 154.965 37.1398 154.965H41.6998C41.9198 155.365 42.1998 155.715 42.5498 156.005V171.775C42.4798 172.375 42.6498 172.985 43.0098 173.485C43.3698 173.975 44.0898 174.565 45.4398 174.565C46.8498 174.565 47.5598 173.955 47.9198 173.455C48.2598 172.975 48.3998 172.405 48.3298 171.845L48.2698 156.075C48.6198 155.785 48.8998 155.425 49.1198 155.035L53.6798 155.015C54.0898 155.015 54.4698 154.925 54.8098 154.745C63.1898 157.515 76.0397 161.795 77.1497 162.265C77.7298 162.505 78.2498 162.625 78.7398 162.625C79.5098 162.625 80.2098 162.335 80.7098 161.795C81.3598 161.095 81.4198 160.245 81.4098 159.875L81.3798 151.815C81.7398 151.975 82.1198 152.055 82.5198 152.055C83.4498 152.055 84.1198 151.595 84.2998 151.455C84.5298 151.275 84.7198 151.045 84.8598 150.775C85.0098 150.475 88.5498 143.495 89.6798 140.695C90.9198 137.825 90.2398 135.065 89.6098 133.835C82.8398 118.635 72.5798 95.4051 71.9498 93.5551C71.0598 90.9251 70.0698 88.3451 70.0298 88.2351C69.9798 88.1151 69.9298 87.9951 69.8598 87.8951L62.7998 76.6551C62.6898 76.4851 62.6398 76.2851 62.6398 76.0751C62.7098 69.7051 62.3698 62.7951 62.2198 59.8451C62.1898 59.2051 62.1698 58.7851 62.1698 58.6551C62.1698 57.0351 60.9598 56.1551 59.8398 56.1551C59.7398 56.1551 59.6398 56.1551 59.5498 56.1751L55.0098 56.1951V53.3851C54.9998 52.5451 54.6598 51.8451 54.1998 51.3251L54.1798 45.8551C54.0998 24.0851 49.7698 13.4851 47.6298 9.56506V3.24506C47.6298 3.04506 47.5998 2.84506 47.5398 2.65506C46.9698 0.815059 45.9198 0.435059 45.1298 0.435059Z" fill="black"/>
</g>
<defs>
<clipPath id="clip0_305_69">
<rect width="89.99" height="174.13" fill="white" transform="translate(0.379883 0.435059)"/>
</clipPath>
</defs>
</svg>
