<svg width="154" height="112" viewBox="0 0 154 112" fill="none" xmlns="http://www.w3.org/2000/svg">
<g clip-path="url(#clip0_419_47)">
<path d="M54.2699 110.95C53.3499 110.95 52.6099 110.2 52.6099 109.29V98.6198C52.6099 95.1498 55.0899 93.9198 57.3999 93.9198C57.6999 93.9198 57.9199 93.9398 58.0399 93.9498H73.2799C71.8599 78.7098 70.2299 60.3998 69.8499 56.1398L2.6899 56.4498C1.7599 56.4498 1.0199 55.6998 1.0199 54.7898V40.9598C1.0199 35.6698 5.8499 33.9098 8.3999 33.7098H53.4699V32.1698C53.4699 31.3898 53.6399 30.7898 53.9099 30.3298C47.7799 30.1798 47.7799 29.8298 47.7799 28.8898C47.7799 27.8198 47.7799 27.5198 56.8599 27.3998L57.3199 26.0498C57.5299 25.5598 58.0799 24.2998 59.2499 24.2998C60.2099 24.2998 60.8199 25.1598 61.1999 25.8398C61.3299 26.0298 61.7499 26.6298 62.0799 27.3698C66.6699 27.3798 68.7399 27.5498 69.6699 27.8598V17.0098C69.6699 9.60977 72.7499 1.00977 76.7199 1.00977C80.6899 1.00977 83.7699 9.60977 83.7699 17.0098V27.8598C84.6999 27.5498 86.7699 27.3798 91.3599 27.3698C91.6999 26.6198 92.1099 26.0198 92.2399 25.8398C92.6199 25.1598 93.2299 24.2998 94.1899 24.2998C95.3599 24.2998 95.9099 25.5698 96.0899 25.9798L96.5799 27.3998C105.66 27.5198 105.66 27.8198 105.67 28.8898C105.67 29.8298 105.67 30.1698 99.5399 30.3298C99.8099 30.7898 99.9799 31.3898 99.9799 32.1698V33.6998H144.97C147.6 33.8998 152.43 35.6598 152.43 40.9498V54.7798C152.43 55.6998 151.68 56.4398 150.77 56.4398L83.5999 56.1298C83.2199 60.3898 81.5899 78.7098 80.1699 93.9398H95.4099C95.5199 93.9298 95.7499 93.9098 96.0499 93.9098C98.3699 93.9098 100.84 95.1498 100.84 98.6098V109.28C100.84 110.2 100.09 110.94 99.1799 110.94H54.2999L54.2699 110.95ZM88.6599 33.6698V32.4498C88.6599 32.3298 88.6499 31.2798 89.1399 30.3898C86.0699 30.3398 84.5299 30.1798 83.7599 29.9198V33.6598H88.6599V33.6698ZM69.6599 33.6698V29.9298C68.8899 30.1798 67.3599 30.3398 64.2799 30.3998C64.7699 31.2898 64.7599 32.3498 64.7599 32.4898V33.6798H69.6599V33.6698Z" fill="white"/>
<path d="M76.7099 2C79.6899 2 82.7599 9.66 82.7599 17V34.66H89.6599V32.44C89.6599 32.44 89.5999 30.13 91.2099 30.13H91.8399V29.4C81.3699 29.4 81.3699 28.36 91.8399 28.36C91.8999 28.36 91.9599 28.36 92.0299 28.36C92.3799 27.3 93.0799 26.37 93.0799 26.37C93.4499 25.7 93.8199 25.29 94.1899 25.29C94.5199 25.29 94.8399 25.61 95.1699 26.37L95.8599 28.39C107.48 28.52 107.59 29.24 96.1999 29.39V29.42V30.15H97.1799C97.1799 30.15 97.2499 30.14 97.3599 30.14C97.8099 30.14 98.9499 30.32 98.9499 32.18V34.71H144.94C144.94 34.71 151.4 35.2 151.4 40.96V54.79C151.4 55.16 151.1 55.45 150.73 55.45L82.6499 55.14C82.6499 55.14 80.6899 77.3 79.0399 94.96H95.4399C95.4399 94.96 95.6699 94.93 96.0099 94.93C97.1999 94.93 99.7999 95.31 99.7999 98.63V109.3C99.7999 109.67 99.4999 109.96 99.1399 109.96H54.2599C53.8899 109.96 53.5999 109.66 53.5999 109.3V98.63C53.5999 95.3 56.2099 94.93 57.3899 94.93C57.7399 94.93 57.9599 94.96 57.9599 94.96H74.3599C72.7099 77.3 70.7499 55.14 70.7499 55.14L2.66989 55.45C2.29989 55.45 1.99989 55.15 1.99989 54.79V40.96C1.99989 35.2 8.45989 34.71 8.45989 34.71H54.4499V32.18C54.4499 30.33 55.5899 30.14 56.0399 30.14C56.1499 30.14 56.2199 30.15 56.2199 30.15H57.1999V29.4C45.8199 29.25 45.9299 28.54 57.5499 28.4L58.2399 26.38C58.5699 25.62 58.8999 25.3 59.2199 25.3C59.5899 25.3 59.9599 25.71 60.3299 26.38C60.3299 26.38 61.0299 27.32 61.3799 28.37C61.4399 28.37 61.4999 28.37 61.5699 28.37C72.0299 28.37 72.0299 29.41 61.5699 29.41V30.14H62.1999C63.8099 30.14 63.7499 32.45 63.7499 32.45V34.67H70.6499V17.01C70.6499 9.67 73.7199 2.01 76.6999 2.01M76.7099 0C71.5299 0 68.6599 10.05 68.6599 17V26.63C68.2999 26.58 67.9399 26.56 67.6099 26.53C66.3599 26.44 64.6799 26.38 62.6899 26.37C62.4199 25.87 62.1699 25.49 62.0299 25.3C61.6899 24.7 60.8199 23.29 59.2299 23.29C58.3999 23.29 57.2299 23.69 56.4099 25.57C56.3899 25.62 56.3699 25.67 56.3499 25.72L56.1099 26.41C53.9499 26.45 52.1399 26.51 50.8199 26.59C48.7199 26.72 46.7399 26.84 46.7399 28.89C46.7399 30.94 48.7699 31.06 50.7299 31.19C51.2499 31.22 51.8399 31.25 52.4999 31.28C52.4599 31.55 52.4299 31.85 52.4299 32.17V32.7H8.46989C8.41989 32.7 8.36989 32.7 8.31989 32.7C5.44989 32.92 0.0098877 34.92 0.0098877 40.95V54.78C0.0098877 56.25 1.20989 57.44 2.67989 57.44L68.9299 57.14C69.4099 62.54 70.8699 78.86 72.1699 92.95H58.0799C57.9299 92.93 57.6899 92.92 57.3899 92.92C56.4899 92.92 55.1599 93.08 53.9699 93.84C52.8899 94.53 51.5899 95.92 51.5899 98.63V109.3C51.5899 110.77 52.7899 111.96 54.2499 111.96H99.1299C100.6 111.96 101.79 110.76 101.79 109.3V98.63C101.79 95.16 99.5199 92.93 95.9999 92.93C95.6999 92.93 95.4599 92.95 95.3099 92.96H81.2199C82.5299 78.87 83.9799 62.55 84.4599 57.15L150.7 57.45C152.18 57.45 153.38 56.25 153.38 54.79V40.96C153.38 34.94 147.95 32.93 145.07 32.71C145.02 32.71 144.97 32.71 144.92 32.71H100.93V32.18C100.93 31.86 100.91 31.57 100.86 31.29C101.53 31.26 102.12 31.23 102.64 31.2C104.6 31.08 106.63 30.95 106.63 28.9C106.63 26.85 104.65 26.73 102.55 26.6C101.23 26.52 99.4199 26.46 97.2599 26.42L97.0199 25.73C97.0199 25.73 96.9799 25.63 96.9599 25.58C96.1399 23.69 94.9799 23.3 94.1399 23.3C92.5499 23.3 91.6799 24.7 91.3399 25.31C91.1999 25.5 90.9499 25.89 90.6799 26.38C88.6899 26.4 87.0099 26.45 85.7599 26.54C85.4299 26.56 85.0699 26.59 84.7099 26.64V17.01C84.7099 10.06 81.8399 0.01 76.6599 0.01L76.7099 0ZM65.6599 31.35C66.3899 31.32 67.0499 31.29 67.6099 31.25C67.9399 31.23 68.2999 31.2 68.6599 31.15V32.67H65.7599V32.48C65.7599 32.3 65.7599 31.87 65.6599 31.35ZM84.7599 32.67V31.15C85.1199 31.2 85.4799 31.22 85.8099 31.25C86.3799 31.29 87.0299 31.33 87.7599 31.35C87.6599 31.87 87.6599 32.29 87.6599 32.48V32.67H84.7599Z" fill="#231F20"/>
</g>
<defs>
<clipPath id="clip0_419_47">
<rect width="153.4" height="111.95" fill="white" transform="translate(0.0098877)"/>
</clipPath>
</defs>
</svg>
