<svg width="108" height="85" viewBox="0 0 108 85" fill="none" xmlns="http://www.w3.org/2000/svg">
<g clip-path="url(#clip0_544_12)">
<path d="M54.02 83.06C53.74 83.06 53.39 82.91 53.2 82.71C52.94 82.44 52.89 82.11 52.88 81.9L52.68 80.31H38.44C37.91 80.28 37.27 79.93 36.92 79.05C36.9 79 36.88 78.94 36.87 78.89C36 74.84 36.06 72.27 37.07 71.03C37.47 70.54 38.02 70.26 38.59 70.26C38.61 70.26 38.65 70.26 38.69 70.26H51.06C49.75 64.37 47.44 47.61 46.81 42.94H23.31C22.45 42.94 21.59 42.86 20.76 42.69L3.05004 39.22C2.38004 39.11 1.60004 38.54 1.54004 37.57C1.54004 37.53 1.54004 37.48 1.54004 37.44C1.66004 35.65 1.83004 28.79 1.83004 28.38C1.83004 25.42 4.22004 24.29 5.48004 24.1C5.53004 24.1 5.58004 24.09 5.63004 24.09H41.9C42.24 24.09 42.57 24.12 42.91 24.19C43.64 24.34 45.21 24.66 46.32 24.89C46.59 19.62 48.43 11.67 49.12 9.19C49.43 8.09 49.9 7.32 50.41 6.79C47.39 6.78 45.32 6.5 44.42 6.38L44.12 6.34C42.28 6.06 41.19 5.9 41.23 4.82C41.27 3.75 42.35 3.67 43.98 3.54C45.4 3.49 46.77 3.48 48.01 3.48C49.7 3.48 51.17 3.51 52.11 3.53C52.9 1 53.7 1 54.05 1C54.4 1 55.2 1 55.99 3.53C56.93 3.5 58.4 3.48 60.09 3.48C61.33 3.48 62.7 3.5 64.08 3.54C65.76 3.67 66.83 3.75 66.87 4.82C66.91 5.9 65.82 6.06 64.01 6.33L63.68 6.37C62.78 6.49 60.71 6.77 57.69 6.78C58.2 7.31 58.67 8.08 58.98 9.18C59.67 11.65 61.51 19.61 61.78 24.88C62.89 24.65 64.46 24.33 65.19 24.18C65.53 24.11 65.86 24.08 66.2 24.08H102.47C102.47 24.08 102.57 24.08 102.62 24.09C103.88 24.28 106.27 25.41 106.27 28.37C106.27 28.78 106.43 35.64 106.56 37.43C106.56 37.47 106.56 37.52 106.56 37.56C106.5 38.52 105.72 39.09 105.02 39.21L87.34 42.68C86.5 42.84 85.64 42.93 84.79 42.93H61.29C60.66 47.6 58.35 64.35 57.04 70.25H69.41C69.41 70.25 69.48 70.25 69.51 70.25C70.08 70.25 70.63 70.53 71.03 71.02C72.03 72.26 72.1 74.83 71.23 78.88C71.22 78.93 71.2 78.99 71.18 79.04C70.82 79.93 70.19 80.28 69.71 80.3H55.41L55.21 81.9C55.21 82.11 55.15 82.43 54.89 82.71C54.7 82.91 54.35 83.06 54.07 83.06H54.02Z" fill="white"/>
<path d="M54.02 2C54.33 2 54.87 3.23 55.21 4.55C55.98 4.52 57.81 4.47 60.05 4.47C61.29 4.47 62.65 4.49 64.02 4.53C66.62 4.73 66.35 4.96 63.83 5.34C63.21 5.41 60.98 5.78 57.48 5.78C56.85 5.78 56.17 5.77 55.46 5.74C55.52 6.11 55.55 6.46 55.55 6.77C55.76 6.77 57.28 6.94 57.98 9.45C58.67 11.92 60.71 20.76 60.77 25.86C60.77 25.97 60.86 26.06 60.97 26.06C60.98 26.06 61 26.06 61.01 26.06C61.86 25.88 64.37 25.37 65.35 25.17C65.62 25.12 65.89 25.09 66.16 25.09H102.43C102.43 25.09 105.23 25.5 105.23 28.38C105.23 28.87 105.39 35.7 105.52 37.51C105.48 38.13 104.81 38.24 104.81 38.24L87.1 41.71C86.32 41.86 85.53 41.94 84.74 41.94H60.72C60.52 41.94 60.34 42.09 60.32 42.29C59.91 45.32 56.97 66.96 55.71 71.25H69.39C69.39 71.25 69.41 71.25 69.46 71.25C69.85 71.25 71.71 71.6 70.2 78.68C69.95 79.3 69.6 79.32 69.6 79.32H54.48L54.16 81.85C54.16 81.85 54.18 82.08 54.02 82.08C53.86 82.08 53.88 81.85 53.88 81.85L53.56 79.32H38.44C38.44 79.32 38.09 79.3 37.84 78.68C36.32 71.6 38.19 71.25 38.58 71.25C38.62 71.25 38.65 71.25 38.65 71.25H52.33C51.07 66.95 48.13 45.31 47.72 42.29C47.69 42.09 47.52 41.94 47.32 41.94H23.3C22.51 41.94 21.72 41.86 20.94 41.71L3.23002 38.24C3.23002 38.24 2.56002 38.13 2.52002 37.51C2.64002 35.7 2.81002 28.88 2.81002 28.38C2.81002 25.5 5.61002 25.09 5.61002 25.09H41.88C42.15 25.09 42.42 25.12 42.69 25.17C43.67 25.37 46.18 25.88 47.03 26.06C47.04 26.06 47.06 26.06 47.07 26.06C47.18 26.06 47.27 25.97 47.27 25.86C47.33 20.76 49.38 11.92 50.06 9.45C50.76 6.94 52.28 6.77 52.49 6.77C52.49 6.47 52.52 6.12 52.58 5.74C51.87 5.77 51.19 5.78 50.56 5.78C47.07 5.78 44.84 5.41 44.21 5.34C41.7 4.96 41.43 4.73 44.02 4.53C45.39 4.48 46.75 4.47 47.99 4.47C50.23 4.47 52.06 4.52 52.83 4.55C53.17 3.23 53.71 2 54.02 2ZM54.02 0C52.86 0 52.03 0.77 51.37 2.51C50.47 2.49 49.29 2.47 47.99 2.47C46.57 2.47 45.21 2.49 43.96 2.53C43.93 2.53 43.9 2.53 43.87 2.53C42.27 2.65 40.27 2.81 40.2 4.77C40.13 6.74 42.05 7.03 43.91 7.31C43.93 7.31 43.95 7.31 43.97 7.31L44.25 7.35C44.97 7.45 46.44 7.65 48.55 7.73C48.39 8.08 48.25 8.47 48.13 8.9C47.48 11.23 45.83 18.35 45.38 23.65C44.5 23.47 43.59 23.28 43.09 23.18C42.69 23.1 42.29 23.06 41.88 23.06H5.60002C5.50002 23.06 5.41002 23.06 5.31002 23.08C3.75002 23.31 0.80002 24.7 0.80002 28.35C0.80002 28.76 0.64002 35.57 0.52002 37.34C0.52002 37.43 0.52002 37.52 0.52002 37.61C0.62002 39.1 1.79002 39.98 2.86002 40.17L20.55 43.64C21.45 43.82 22.37 43.91 23.29 43.91H45.92C46.63 49.14 48.54 62.84 49.81 69.23H38.72C38.72 69.23 38.62 69.23 38.57 69.23C37.7 69.23 36.86 69.65 36.27 70.37C35.05 71.88 34.92 74.65 35.87 79.07C35.89 79.18 35.93 79.29 35.97 79.39C36.5 80.71 37.52 81.24 38.31 81.28C38.35 81.28 38.39 81.28 38.43 81.28H51.79L51.87 81.95C51.9 82.48 52.1 82.98 52.46 83.36C52.86 83.79 53.42 84.03 54.01 84.03C54.6 84.03 55.16 83.79 55.56 83.36C55.91 82.98 56.12 82.48 56.15 81.95L56.23 81.28H69.59C69.59 81.28 69.67 81.28 69.71 81.28C70.49 81.23 71.52 80.71 72.05 79.39C72.09 79.29 72.12 79.18 72.15 79.07C73.1 74.64 72.97 71.88 71.75 70.37C71.16 69.64 70.33 69.23 69.45 69.23C69.4 69.23 69.35 69.23 69.3 69.23H58.21C59.48 62.84 61.39 49.15 62.1 43.91H84.73C85.65 43.91 86.57 43.82 87.48 43.64L105.17 40.17C106.23 39.98 107.41 39.1 107.51 37.61C107.51 37.52 107.51 37.43 107.51 37.34C107.39 35.56 107.23 28.76 107.23 28.35C107.23 24.71 104.28 23.31 102.72 23.08C102.62 23.07 102.53 23.06 102.43 23.06H66.16C65.75 23.06 65.35 23.1 64.95 23.18C64.45 23.28 63.54 23.47 62.66 23.65C62.21 18.35 60.56 11.22 59.91 8.9C59.79 8.47 59.65 8.08 59.49 7.73C61.59 7.65 63.06 7.45 63.79 7.35L64.07 7.31C64.07 7.31 64.11 7.31 64.13 7.31C65.99 7.03 67.91 6.74 67.84 4.77C67.77 2.81 65.77 2.66 64.17 2.53C64.14 2.53 64.11 2.53 64.08 2.53C62.83 2.49 61.47 2.47 60.05 2.47C58.75 2.47 57.57 2.49 56.67 2.51C56.01 0.77 55.18 0 54.02 0Z" fill="black"/>
</g>
<defs>
<clipPath id="clip0_544_12">
<rect width="107" height="84.06" fill="white" transform="translate(0.52002)"/>
</clipPath>
</defs>
</svg>
