<svg width="315" height="199" viewBox="0 0 315 199" fill="none" xmlns="http://www.w3.org/2000/svg">
<g clip-path="url(#clip0_182_29)">
<path d="M157.18 197.94C156.65 197.94 156.22 197.53 156.18 197C156.18 196.94 156.11 195.88 156.08 194.94C154.73 194.58 154.15 193.48 154.1 192.69C154.1 192.59 153.96 190.57 153.92 188.77C153.01 188.4 152.34 187.51 151.97 186.92C140.13 185.76 122.66 184.07 121.73 184.07C119.87 184.07 119.12 182.88 118.68 182.16C118.61 182.04 118.56 181.92 118.54 181.78C117.75 176.67 118.52 172.95 118.54 172.79C118.61 172.45 118.86 172.17 119.19 172.05C119.42 171.97 141.86 164.14 148.64 161.68C147.4 150.24 146.31 129.23 146.1 125.05C146.1 124.89 145.96 124.76 145.8 124.75L6.19967 118.38C2.41967 118.38 1.40967 115.13 1.40967 113.42V105.37C1.40967 104.44 2.06967 103.65 2.98967 103.48L100.79 86.0603V75.1703C100.79 73.0503 101.04 70.9603 101.53 68.9803C102.58 64.7103 103.66 62.9003 105.15 62.9003C106.73 62.9003 107.78 64.8703 108.67 69.4803C108.97 71.0403 109.12 72.6703 109.12 74.3403V84.4603L143.46 78.2703L142.85 60.2203C142.43 48.2303 145.43 46.9603 146.36 46.8603C146.4 46.8603 146.43 46.8603 146.47 46.8603H148.25C148.35 13.0303 153.6 4.01029 155.87 1.70029C156.28 1.28029 156.83 1.05029 157.41 1.05029C157.99 1.05029 158.54 1.28029 158.95 1.70029C161.22 4.01029 166.47 13.0303 166.57 46.8603H168.35C168.35 46.8603 168.42 46.8603 168.46 46.8603C169.39 46.9603 172.39 48.2303 171.97 60.2203L171.36 78.2703L205.7 84.4603V74.3403C205.7 72.6703 205.85 71.0303 206.15 69.4803C207.04 64.8703 208.09 62.9003 209.67 62.9003C211.16 62.9003 212.24 64.7203 213.29 68.9803C213.78 70.9703 214.03 73.0503 214.03 75.1703V86.0603L311.83 103.48C312.75 103.64 313.41 104.44 313.41 105.37V113.42C313.41 115.14 312.4 118.38 308.58 118.38L169.03 124.75C168.87 124.75 168.74 124.88 168.73 125.05C168.43 130.93 167.39 150.62 166.19 161.68C172.97 164.13 195.4 171.97 195.64 172.05C195.97 172.17 196.22 172.45 196.29 172.79C196.32 172.95 197.09 176.67 196.29 181.78C196.27 181.91 196.22 182.04 196.15 182.16C195.7 182.87 194.96 184.07 193.1 184.07C192.17 184.07 174.7 185.76 162.86 186.92C162.49 187.51 161.81 188.4 160.91 188.77C160.87 190.56 160.73 192.59 160.73 192.69C160.68 193.47 160.1 194.57 158.75 194.94C158.71 195.88 158.64 196.95 158.63 197.01C158.59 197.53 158.16 197.94 157.63 197.94H157.21H157.18Z" fill="white"/>
<path d="M157.4 2.06006C157.7 2.06006 158 2.18006 158.23 2.41006C160.31 4.52006 165.57 13.2901 165.57 47.8701H168.35C168.35 47.8701 171.39 48.2101 170.97 60.2001L170.33 79.1201L206.7 85.6701V74.3501C206.7 72.7801 206.84 71.2201 207.13 69.6801C207.61 67.2101 208.47 63.9101 209.67 63.9101C210.77 63.9101 211.71 66.7801 212.32 69.2301C212.8 71.1801 213.03 73.1801 213.03 75.1801V86.9101L311.66 104.48C312.1 104.56 312.42 104.94 312.42 105.38V113.43C312.42 113.43 312.42 117.39 308.59 117.39L168.99 123.76C168.31 123.79 167.77 124.33 167.74 125.01C167.48 130.23 166.37 151.32 165.11 162.36C170.86 164.47 195.31 173 195.31 173C195.31 173 196.08 176.64 195.31 181.63C194.83 182.4 194.35 183.07 193.11 183.07C191.87 183.07 162.26 185.98 162.26 185.98C162.26 185.98 161.26 187.94 160.09 187.94C160.04 187.94 159.98 187.94 159.93 187.93C159.93 189.85 159.74 192.63 159.74 192.63C159.74 192.63 159.64 194.07 157.77 194.07C157.77 195.03 157.63 196.95 157.63 196.95H157.21C157.21 196.95 157.09 195.03 157.09 194.07C155.22 194.07 155.12 192.63 155.12 192.63C155.12 192.63 154.93 189.85 154.93 187.93C154.88 187.93 154.82 187.94 154.77 187.94C153.59 187.94 152.6 185.98 152.6 185.98C152.6 185.98 122.99 183.07 121.75 183.07C120.51 183.07 120.02 182.4 119.55 181.63C118.78 176.64 119.55 173 119.55 173C119.55 173 144 164.47 149.75 162.36C148.5 151.33 147.39 130.23 147.12 125.01C147.09 124.33 146.54 123.8 145.87 123.76L6.2299 117.4C2.3999 117.4 2.3999 113.44 2.3999 113.44V105.39C2.3999 104.95 2.7199 104.57 3.1599 104.49L101.79 86.9201V75.1901C101.79 73.1801 102.02 71.1801 102.5 69.2401C103.1 66.7901 104.05 63.9201 105.15 63.9201C106.35 63.9201 107.21 67.2201 107.69 69.6901C107.99 71.2301 108.12 72.8001 108.12 74.3601V85.6801L144.49 79.1301L143.85 60.2101C143.43 48.2101 146.47 47.8801 146.47 47.8801H149.25C149.25 13.3001 154.51 4.54006 156.59 2.42006C156.82 2.19006 157.12 2.07006 157.42 2.07006M157.4 0.0600586C156.55 0.0600586 155.74 0.400059 155.14 1.01006C152.24 3.96006 147.42 13.7001 147.23 45.8701H146.45C146.38 45.8701 146.3 45.8701 146.23 45.8801C144.41 46.0801 141.41 48.2201 141.83 60.2701L142.41 77.4601L110.1 83.2801V74.3501C110.1 72.6101 109.94 70.9101 109.63 69.3001C108.89 65.4601 107.83 61.9101 105.13 61.9101C102.58 61.9101 101.42 65.2001 100.54 68.7601C100.03 70.8201 99.7699 72.9901 99.7699 75.1901V85.2401L2.7999 102.52C1.4099 102.77 0.399902 103.98 0.399902 105.39V113.44C0.399902 115.83 1.9399 119.38 6.1899 119.4L145.13 125.74C145.46 132.13 146.43 150.16 147.56 161.02C140.04 163.72 119.09 171.04 118.86 171.12C118.2 171.35 117.71 171.91 117.56 172.6C117.53 172.76 116.73 176.66 117.54 181.94C117.58 182.21 117.68 182.47 117.82 182.7C118.3 183.47 119.31 185.08 121.72 185.08C122.84 185.11 139.71 186.74 151.39 187.88C151.76 188.4 152.28 188.98 152.93 189.4C152.98 191.05 153.09 192.69 153.1 192.78C153.16 193.73 153.76 195.02 155.11 195.67C155.14 196.4 155.18 197.04 155.19 197.09C155.26 198.14 156.13 198.97 157.19 198.97H157.61C158.66 198.97 159.53 198.16 159.6 197.11C159.6 197.06 159.65 196.42 159.69 195.68C161.04 195.03 161.64 193.74 161.7 192.79C161.7 192.7 161.82 191.06 161.87 189.42C162.52 189.01 163.04 188.42 163.41 187.9C175.09 186.75 191.96 185.13 193.1 185.1C195.5 185.1 196.5 183.49 196.98 182.72C197.12 182.49 197.22 182.23 197.26 181.96C198.07 176.68 197.27 172.78 197.24 172.62C197.1 171.93 196.6 171.37 195.94 171.14C195.71 171.06 174.76 163.75 167.24 161.04C168.37 150.18 169.35 132.15 169.67 125.76L308.61 119.42C312.85 119.39 314.4 115.85 314.4 113.46V105.41C314.4 103.99 313.39 102.79 312 102.54L215.02 85.2701V75.2201C215.02 73.0201 214.76 70.8501 214.25 68.7901C213.37 65.2301 212.21 61.9401 209.66 61.9401C206.96 61.9401 205.9 65.4901 205.16 69.3301C204.85 70.9501 204.69 72.6501 204.69 74.3801V83.3101L172.38 77.4901L172.96 60.3001C173.38 48.2501 170.38 46.1101 168.56 45.9101C168.49 45.9101 168.41 45.9001 168.34 45.9001H167.56C167.37 13.7301 162.55 3.99006 159.65 1.04006C159.05 0.430059 158.25 0.0900586 157.39 0.0900586L157.4 0.0600586Z" fill="black"/>
</g>
<defs>
<clipPath id="clip0_182_29">
<rect width="314" height="198.88" fill="white" transform="translate(0.399902 0.0600586)"/>
</clipPath>
</defs>
</svg>
