<svg width="262" height="181" viewBox="0 0 262 181" fill="none" xmlns="http://www.w3.org/2000/svg">
<g clip-path="url(#clip0_417_27)">
<path d="M108.61 179.73C107.64 179.73 106.82 178.97 106.75 178L106.72 177.64C106.58 177.71 106.42 177.75 106.22 177.75C105.22 177.75 105.02 176.82 104.64 174.98C104.55 174.55 104.46 174.13 104.38 173.81C102.72 166.09 103.38 155.8 103.41 155.37C103.41 155.31 103.42 155.26 103.44 155.2C104.07 152.59 104.77 150.85 106.13 150.85C107.35 150.85 108.03 152.25 108.59 154.43H118.4V130.06C106.39 114.12 107.2 92.6798 107.24 91.7698V86.4098L65.21 81.1598C65.47 81.4998 65.61 81.8398 65.69 82.1198C65.98 83.1398 65.62 84.0798 65.44 84.4798C65.28 85.4998 64.39 90.9698 64.04 92.8798C63.57 95.4398 62.19 95.6398 61.78 95.6398C61.76 95.6398 55.37 95.6398 55.37 95.6398C53.99 95.6398 53.38 94.5698 53.27 93.7498C53.02 93.0898 51.83 89.8998 50.95 87.2098C49.97 84.2298 50.7 82.7498 51.04 82.2698C51.1 82.1198 51.19 81.7498 50.86 81.3898C49.38 79.9798 48.67 78.6398 48.73 77.3398C48.79 76.1098 49.54 75.2998 50.08 74.8298C48.5 67.2398 48.31 61.1598 48.21 57.8498C48.19 57.1198 48.17 56.5198 48.14 56.0798C47.99 53.7798 49.23 51.4898 49.7 50.7198V49.7898C49.3 49.9298 48.79 49.9998 48.17 49.9998C47.55 49.9998 46.96 49.9198 46.93 49.9198L43.89 49.1998C42.69 48.9098 41.45 48.7398 40.22 48.6698L3.44002 46.7198C1.79002 46.7198 1.02002 45.7598 1.02002 44.8598C1.02002 43.9598 1.80002 42.9998 3.50002 42.9998C3.52002 42.9998 32.92 42.1298 41.64 41.9098C42.73 41.8798 43.78 41.6398 44.78 41.1998L44.97 41.1198C45.8 40.7498 46.69 40.5598 47.6 40.5598L50.28 40.6098C50.42 39.5498 50.86 38.5998 51.59 37.8298C52.68 36.6698 54.33 36.0098 56.1 36.0098C58.42 36.0098 60.98 37.2798 61.62 40.0298L106.92 38.1798C108.95 38.1798 109.85 39.1098 109.85 40.0398C109.85 40.9698 108.98 41.8798 107.04 41.8998C105.42 42.1398 76.55 46.3698 68.75 47.4098C67.88 47.5298 67 47.8498 66.13 48.3698C65 49.0498 63.93 49.2698 63.13 49.3298L63.21 51.2298H64.71C66.92 51.2298 68.32 52.4298 68.91 53.0798C73.2 53.4698 105.47 56.4198 111.43 56.9798C112.07 54.4198 113.5 52.4198 114.69 51.0998C114.44 51.0798 114.21 50.9698 114.03 50.7898C113.84 50.5898 113.74 50.3198 113.76 50.0398C113.76 49.9298 113.93 47.4098 114.51 43.3198C114.96 40.0798 116.02 38.5098 116.63 37.8598V27.2998C116.63 20.5498 121.54 1.02979 130.9 1.02979C140.26 1.02979 145.17 20.5498 145.17 27.2998V37.8598C145.78 38.5198 146.84 40.0798 147.29 43.3198C147.86 47.4098 148.03 49.9298 148.04 50.0398C148.06 50.3198 147.96 50.5898 147.77 50.7898C147.6 50.9698 147.36 51.0798 147.11 51.0998C148.31 52.4198 149.73 54.4298 150.37 56.9798C156.33 56.4198 188.6 53.4698 192.89 53.0798C193.48 52.4298 194.88 51.2298 197.09 51.2298H198.59L198.67 49.3298C197.87 49.2798 196.8 49.0498 195.67 48.3698C194.8 47.8498 193.92 47.5298 193.05 47.4098C185.25 46.3798 156.38 42.1398 154.76 41.8998C152.82 41.8798 151.95 40.9498 151.95 40.0398C151.95 39.1298 152.84 38.1798 154.84 38.1798L200.18 40.0298C200.82 37.2798 203.38 36.0098 205.7 36.0098C207.48 36.0098 209.12 36.6798 210.21 37.8298C210.94 38.5998 211.38 39.5498 211.52 40.6098L214.2 40.5598C215.11 40.5598 216 40.7498 216.83 41.1198L217.02 41.1998C218.02 41.6398 219.07 41.8798 220.16 41.9098C228.89 42.1398 258.33 42.9998 258.33 42.9998C260 42.9998 260.78 43.9598 260.78 44.8598C260.78 45.7598 260.01 46.7198 258.3 46.7198L221.57 48.6698C220.34 48.7298 219.1 48.9098 217.9 49.1998L214.96 49.8998C214.84 49.9198 214.27 49.9998 213.62 49.9998C212.97 49.9998 212.49 49.9298 212.09 49.7898V50.7198C212.56 51.4898 213.8 53.7798 213.65 56.0798C213.62 56.5198 213.6 57.1098 213.58 57.8498C213.48 61.1498 213.29 67.2298 211.71 74.8298C212.25 75.2998 213 76.1098 213.06 77.3398C213.12 78.6398 212.41 79.9798 210.88 81.4398C210.6 81.7498 210.68 82.1098 210.75 82.2798C211.1 82.7698 211.81 84.2398 210.84 87.2098C209.96 89.8898 208.77 93.0898 208.52 93.7498C208.41 94.5698 207.79 95.6398 206.42 95.6398C206.42 95.6398 200.03 95.6398 200.01 95.6398C199.6 95.6398 198.22 95.4398 197.75 92.8798C197.4 90.9698 196.51 85.4998 196.35 84.4798C196.16 84.0798 195.81 83.1398 196.1 82.1198C196.18 81.8398 196.32 81.4998 196.58 81.1598L154.55 86.4098V91.8198C154.59 92.6898 155.4 114.12 143.39 130.07V154.44H153.2C153.76 152.26 154.44 150.86 155.66 150.86C157.02 150.86 157.71 152.6 158.35 155.21C158.36 155.27 158.37 155.32 158.38 155.38C158.41 155.81 159.07 166.1 157.42 173.78C157.33 174.14 157.24 174.56 157.15 174.99C156.76 176.84 156.57 177.76 155.57 177.76C155.37 177.76 155.21 177.72 155.07 177.65L155.04 178.01C154.97 178.98 154.15 179.74 153.18 179.74H108.65L108.61 179.73Z" fill="white"/>
<path d="M130.88 2C139.41 2 144.15 20.87 144.15 27.27V38.27C144.15 38.27 145.71 39.34 146.28 43.44C146.85 47.54 147.02 50.09 147.02 50.09H144.56C144.56 50.09 148.74 53.13 149.57 58.05C151.13 57.89 193.39 54.03 193.39 54.03C193.39 54.03 194.62 52.22 197.08 52.22H199.54L199.7 48.28C199.7 48.28 199.46 48.33 199.07 48.33C198.42 48.33 197.34 48.2 196.17 47.5C195.24 46.95 194.24 46.55 193.17 46.41C185.1 45.34 154.82 40.89 154.82 40.89C152.3 40.89 152.3 39.17 154.82 39.17L201.02 41.06C201.19 38.32 203.42 37.01 205.69 37.01C208.19 37.01 210.73 38.61 210.54 41.64L214.08 41.57C214.08 41.57 214.15 41.57 214.19 41.57C214.96 41.57 215.71 41.73 216.41 42.04L216.6 42.12C217.71 42.61 218.91 42.89 220.12 42.92C228.85 43.15 258.29 44.01 258.29 44.01C260.26 44.01 260.26 45.73 258.29 45.73L221.51 47.68C220.21 47.75 218.93 47.93 217.66 48.23L214.72 48.93C214.72 48.93 214.2 49 213.62 49C213 49 212.29 48.92 212.02 48.6C212.02 48.6 211.72 47.83 211.4 47.83C211.3 47.83 211.19 47.91 211.09 48.11V51.01C211.09 51.01 212.81 53.55 212.65 56.02C212.49 58.49 212.65 65.7 210.6 75.22C211.17 75.71 213.8 77.27 210.19 80.72C209.29 81.7 209.89 82.8 209.89 82.8C209.89 82.8 210.87 83.89 209.89 86.9C208.91 89.91 207.54 93.52 207.54 93.52C207.54 93.52 207.49 94.64 206.42 94.64H200.05C200.05 94.64 200.04 94.64 200.01 94.64C199.84 94.64 199.07 94.53 198.73 92.7C198.35 90.62 197.31 84.17 197.31 84.17C197.31 84.17 196.16 82.2 198.19 81.11V79.96L153.55 85.54V91.83C153.55 91.83 154.53 113.88 142.39 129.74V155.45H153.99C154.55 153.05 155.11 151.87 155.67 151.87C156.24 151.87 156.81 153.08 157.38 155.45C157.38 155.45 158.08 165.94 156.44 173.57C156.16 174.63 155.84 176.76 155.56 176.76C155.43 176.76 155.31 176.3 155.21 175.04C155.09 173.49 154.68 173.3 154.49 173.3C154.43 173.3 154.39 173.32 154.39 173.32L154.04 177.93C154.01 178.38 153.63 178.73 153.18 178.73H108.65C108.2 178.73 107.82 178.38 107.79 177.93L107.44 173.32C107.44 173.32 107.4 173.3 107.34 173.3C107.15 173.3 106.74 173.49 106.62 175.04C106.52 176.29 106.39 176.76 106.27 176.76C105.99 176.76 105.67 174.63 105.39 173.57C103.75 165.94 104.45 155.45 104.45 155.45C105.02 153.07 105.6 151.87 106.16 151.87C106.72 151.87 107.28 153.05 107.84 155.45H119.44V129.74C107.3 113.88 108.28 91.83 108.28 91.83V85.54L63.6398 79.96V81.11C65.6598 82.2 64.5198 84.17 64.5198 84.17C64.5198 84.17 63.4798 90.63 63.0998 92.7C62.7598 94.54 61.9998 94.64 61.8198 94.64C61.7998 94.64 61.7798 94.64 61.7798 94.64H55.4098C54.3398 94.64 54.2898 93.52 54.2898 93.52C54.2898 93.52 52.9198 89.91 51.9398 86.9C50.9598 83.89 51.9398 82.8 51.9398 82.8C51.9398 82.8 52.5398 81.71 51.6398 80.72C48.0298 77.27 50.6598 75.71 51.2298 75.22C49.1798 65.7 49.3398 58.48 49.1798 56.02C49.0198 53.56 50.7398 51.01 50.7398 51.01V48.11C50.6398 47.91 50.5398 47.83 50.4298 47.83C50.1098 47.83 49.8098 48.6 49.8098 48.6C49.5398 48.92 48.8298 49 48.2098 49C47.6198 49 47.1098 48.93 47.1098 48.93L44.1698 48.23C42.9098 47.93 41.6198 47.74 40.3198 47.68L3.53977 45.73C1.56977 45.73 1.56977 44.01 3.53977 44.01C3.53977 44.01 32.9798 43.14 41.7098 42.92C42.9298 42.89 44.1198 42.62 45.2298 42.12L45.4198 42.04C46.1198 41.73 46.8798 41.57 47.6398 41.57C47.6798 41.57 47.7098 41.57 47.7498 41.57L51.2898 41.64C51.1098 38.61 53.6398 37.01 56.1398 37.01C58.3998 37.01 60.6398 38.32 60.8098 41.06L107.01 39.17C109.53 39.17 109.53 40.89 107.01 40.89C107.01 40.89 76.7298 45.34 68.6598 46.41C67.5898 46.55 66.5798 46.95 65.6598 47.5C64.4898 48.2 63.4098 48.33 62.7598 48.33C62.3598 48.33 62.1298 48.28 62.1298 48.28L62.2898 52.22H64.7498C67.2098 52.22 68.4398 54.03 68.4398 54.03C68.4398 54.03 110.7 57.89 112.26 58.05C113.08 53.13 117.27 50.09 117.27 50.09H114.81C114.81 50.09 114.97 47.55 115.55 43.44C116.13 39.33 117.68 38.27 117.68 38.27V27.27C117.68 20.87 122.41 2 130.95 2M130.88 0C120.37 0 115.61 20.92 115.61 27.27V37.47C114.88 38.38 113.92 40.11 113.5 43.16C112.92 47.29 112.75 49.85 112.75 49.95C112.72 50.44 112.87 50.93 113.17 51.31C112.23 52.5 111.27 54.04 110.68 55.88C103.22 55.19 74.6398 52.58 69.3598 52.09C68.5398 51.29 66.9998 50.2 64.6998 50.2H64.1598V50.16C64.8998 50.01 65.7498 49.72 66.6298 49.2C67.3798 48.75 68.1398 48.47 68.8698 48.38C76.5898 47.36 104.91 43.2 107.11 42.88C109.69 42.82 110.84 41.42 110.84 40.02C110.84 38.62 109.64 37.16 106.95 37.16C106.92 37.16 106.9 37.16 106.87 37.16L62.3398 38.98C61.4198 36.56 59.0698 34.99 56.0898 34.99C54.0398 34.99 52.1298 35.77 50.8498 37.13C50.1798 37.84 49.7198 38.67 49.4598 39.58L47.7398 39.55H47.5898C46.5398 39.55 45.5098 39.77 44.5498 40.2L44.3598 40.28C43.4798 40.67 42.5598 40.88 41.5998 40.91C33.0798 41.13 4.45977 41.97 3.44977 42C1.18977 42.01 0.00976562 43.45 0.00976562 44.86C0.00976562 46.27 1.17977 47.7 3.42977 47.72L40.1598 49.67C41.3298 49.73 42.5098 49.9 43.6498 50.17L46.5898 50.87C46.6498 50.89 46.7198 50.9 46.7798 50.91C46.8498 50.91 47.4498 51 48.1498 51C48.2198 51 48.2998 51 48.3798 51C47.7698 52.18 46.9898 54.13 47.1298 56.15C47.1598 56.58 47.1798 57.16 47.1998 57.88C47.2998 61.14 47.4898 67.06 48.9798 74.48C48.3998 75.09 47.7798 76.01 47.7198 77.28C47.6498 78.83 48.3998 80.37 50.0298 81.98C49.5498 82.83 49.0298 84.57 49.9898 87.51C50.8498 90.13 51.9698 93.15 52.2898 93.99C52.5198 95.33 53.5998 96.63 55.3698 96.63H61.6898C61.6898 96.63 61.7498 96.63 61.7698 96.63C62.3798 96.63 64.3998 96.37 65.0098 93.05C65.3498 91.2 66.1798 86.06 66.3898 84.76C66.6098 84.26 66.8898 83.37 66.7498 82.35L106.23 87.28V91.76C106.17 93.2 105.54 114.4 117.39 130.38V153.42H109.34C108.77 151.5 107.89 149.84 106.11 149.84C103.88 149.84 103.05 152.48 102.45 154.95C102.42 155.06 102.41 155.17 102.4 155.29C102.37 155.73 101.7 166.15 103.38 173.96C103.38 173.99 103.39 174.02 103.4 174.05C103.48 174.36 103.56 174.76 103.65 175.16C104.02 176.95 104.35 178.51 105.87 178.71C106.24 179.87 107.34 180.71 108.6 180.71H153.13C154.39 180.71 155.49 179.87 155.86 178.71C157.38 178.51 157.71 176.95 158.08 175.16C158.16 174.75 158.25 174.35 158.33 174.04C158.33 174.01 158.34 173.98 158.35 173.95C160.03 166.13 159.36 155.72 159.33 155.28C159.33 155.17 159.31 155.05 159.28 154.94C158.68 152.47 157.86 149.83 155.62 149.83C153.84 149.83 152.97 151.49 152.39 153.41H144.34V130.37C156.19 114.39 155.56 93.19 155.5 91.75V87.27L194.98 82.34C194.84 83.36 195.12 84.24 195.34 84.75C195.55 86.04 196.38 91.19 196.72 93.04C197.33 96.36 199.36 96.62 199.96 96.62C199.99 96.62 200.01 96.62 200.04 96.62H206.36C208.12 96.62 209.21 95.32 209.44 93.98C209.76 93.14 210.88 90.12 211.74 87.5C212.7 84.56 212.18 82.82 211.7 81.97C213.33 80.36 214.08 78.82 214.01 77.27C213.95 75.99 213.33 75.07 212.75 74.47C214.24 67.05 214.43 61.12 214.53 57.87C214.55 57.15 214.57 56.57 214.6 56.14C214.73 54.12 213.95 52.17 213.35 50.99C213.43 50.99 213.51 50.99 213.58 50.99C214.28 50.99 214.89 50.91 214.95 50.9C215.02 50.9 215.08 50.88 215.14 50.86L218.08 50.16C219.22 49.89 220.4 49.72 221.57 49.66L258.3 47.71C260.54 47.69 261.72 46.26 261.72 44.85C261.72 43.44 260.54 42 258.28 41.99C257.27 41.96 228.65 41.12 220.13 40.9C219.17 40.88 218.25 40.66 217.37 40.27L217.18 40.19C216.22 39.76 215.2 39.54 214.14 39.54H213.99L212.27 39.58C212.01 38.66 211.55 37.84 210.88 37.13C209.6 35.77 207.69 34.99 205.64 34.99C202.67 34.99 200.32 36.56 199.39 38.98L154.86 37.16C154.86 37.16 154.81 37.16 154.78 37.16C152.09 37.16 150.89 38.6 150.89 40.02C150.89 41 151.47 41.89 152.45 42.39C153.05 42.7 153.78 42.86 154.62 42.88C156.82 43.2 185.14 47.36 192.86 48.38C193.59 48.48 194.35 48.75 195.1 49.2C195.98 49.73 196.83 50.01 197.58 50.16V50.2H197.04C194.74 50.2 193.2 51.29 192.38 52.09C187.1 52.57 158.51 55.18 151.06 55.88C150.46 54.04 149.51 52.5 148.57 51.31C148.87 50.92 149.02 50.44 148.99 49.95C148.99 49.84 148.81 47.28 148.24 43.16C147.81 40.11 146.86 38.38 146.13 37.47V27.27C146.13 20.92 141.37 0 130.86 0L130.88 0Z" fill="#231F20"/>
</g>
<defs>
<clipPath id="clip0_417_27">
<rect width="261.76" height="180.73" fill="white"/>
</clipPath>
</defs>
</svg>
