<svg width="121" height="93" viewBox="0 0 121 93" fill="none" xmlns="http://www.w3.org/2000/svg">
<g clip-path="url(#clip0_417_32)">
<path d="M74.3598 91.8801C73.9698 91.8801 73.1698 91.7301 72.8798 90.5201H47.6998C47.4098 91.7201 46.6098 91.8801 46.2198 91.8801C45.8298 91.8801 45.5098 91.7101 45.3998 91.6401C45.3198 91.5901 45.2498 91.5301 45.1898 91.4601C45.0798 91.3301 44.1198 90.1601 44.1398 87.6501C43.5498 80.6201 43.5398 63.4301 43.5398 62.7001V49.9201C36.2098 47.9001 30.3298 47.0901 30.2698 47.0901L8.55984 43.5701C6.09984 43.1701 3.91984 41.8301 2.57984 39.8901C0.839845 37.3801 0.999845 34.9101 3.03984 32.7501C4.25984 31.4601 5.88984 30.5801 7.75984 30.2301L43.7298 23.3801C45.4598 23.0501 47.1398 22.4701 48.7098 21.6601L52.6198 19.6501V19.2401C52.6198 18.4601 53.0098 17.9201 53.5498 17.6401C53.6298 14.0401 54.3498 1.14014 60.2998 1.14014C66.2498 1.14014 66.9698 14.0701 67.0499 17.6501C67.5899 17.9401 67.9798 18.4701 67.9798 19.2401V19.6501L71.8898 21.6601C73.4598 22.4701 75.1299 23.0501 76.8699 23.3801L112.84 30.2301C114.71 30.5901 116.34 31.4601 117.56 32.7501C119.6 34.9101 119.76 37.3801 118.02 39.8901C116.68 41.8301 114.5 43.1701 112.04 43.5701L90.3498 47.0801C90.2598 47.0901 84.3898 47.9001 77.0499 49.9201V62.7001C77.0499 63.4301 77.0498 80.6201 76.4498 87.7401C76.4698 90.1601 75.5098 91.3401 75.3998 91.4601C75.3399 91.5301 75.2699 91.5901 75.1898 91.6401C75.0798 91.7101 74.7799 91.8801 74.3699 91.8801H74.3598ZM71.9398 77.6201L71.3498 51.2001C69.1998 51.6101 64.4898 52.9901 64.0398 57.1701C63.9298 58.1501 63.1198 58.8801 62.1498 58.8801H58.4398C57.4698 58.8801 56.6598 58.1401 56.5498 57.1701C56.0898 52.9901 51.3898 51.6201 49.2398 51.2001L48.6498 77.6201H71.9398Z" fill="white"/>
<path d="M60.3003 2.12012C66.0103 2.12012 66.0603 18.3901 66.0603 18.3901C66.0603 18.3901 66.0703 18.3901 66.0903 18.3901C66.2503 18.3901 66.9803 18.4301 66.9803 19.2301V20.2501L71.4303 22.5401C73.0803 23.3901 74.8503 24.0001 76.6803 24.3501L112.65 31.2001C114.24 31.5001 115.72 32.2501 116.83 33.4301C118.57 35.2801 118.63 37.2501 117.19 39.3201C115.96 41.1001 114.01 42.2401 111.87 42.5801L90.1803 46.0901C90.1803 46.0901 83.8803 46.9401 76.0403 49.1601V62.7001C76.0403 62.7001 76.0403 80.5001 75.4403 87.6501C75.4503 89.8501 74.6303 90.8001 74.6303 90.8001C74.6303 90.8001 74.5103 90.8801 74.3603 90.8801C74.1103 90.8801 73.7803 90.6601 73.7803 89.5201H46.8103C46.8103 90.6601 46.4803 90.8801 46.2303 90.8801C46.0803 90.8801 45.9603 90.8001 45.9603 90.8001C45.9603 90.8001 45.1403 89.8501 45.1503 87.6501C44.5503 80.5001 44.5503 62.7001 44.5503 62.7001V49.1601C36.7203 46.9501 30.4103 46.0901 30.4103 46.0901L8.72034 42.5801C6.59034 42.2301 4.63034 41.0901 3.40034 39.3201C1.97034 37.2501 2.02034 35.2801 3.76034 33.4301C4.87034 32.2501 6.35034 31.5101 7.94034 31.2001L43.9103 24.3501C45.7403 24.0001 47.5003 23.3901 49.1603 22.5401L53.6103 20.2501V19.2301C53.6103 18.4301 54.3403 18.3901 54.5003 18.3901C54.5203 18.3901 54.5303 18.3901 54.5303 18.3901C54.5303 18.3901 54.5803 2.12012 60.2903 2.12012M58.4403 57.8801C57.9703 57.8801 57.6003 57.5201 57.5503 57.0601C56.8603 50.7501 48.2703 50.0501 48.2703 50.0501L47.6303 78.6201H72.9603L72.3203 50.0501C72.3203 50.0501 63.7303 50.7601 63.0403 57.0601C62.9903 57.5201 62.6103 57.8801 62.1503 57.8801H58.4403ZM60.3003 0.120117C56.8203 0.120117 54.4703 3.41012 53.3103 9.90012C52.8103 12.7201 52.6303 15.5101 52.5703 17.0901C52.0303 17.5601 51.6803 18.2401 51.6303 19.0301L48.2603 20.7701C46.7803 21.5301 45.1903 22.0801 43.5503 22.3901L7.58034 29.2401C5.50034 29.6401 3.68034 30.6101 2.32034 32.0601C-0.0396553 34.5701 -0.239655 37.5501 1.77034 40.4601C3.27034 42.6201 5.69034 44.1201 8.41035 44.5601L30.1003 48.0701C30.1003 48.0701 30.1303 48.0701 30.1503 48.0701C30.2103 48.0701 35.6403 48.8301 42.5503 50.6801V62.7001C42.5503 63.4301 42.5503 80.5301 43.1503 87.7301C43.1603 90.4801 44.2303 91.8601 44.4503 92.1101C44.5703 92.2501 44.7203 92.3801 44.8703 92.4801C45.1003 92.6301 45.5803 92.8801 46.2303 92.8801C46.4203 92.8801 47.7203 92.8301 48.3903 91.5201H72.2003C72.8803 92.8301 74.1703 92.8801 74.3603 92.8801C75.0103 92.8801 75.4903 92.6301 75.7203 92.4801C75.8803 92.3801 76.0203 92.2501 76.1403 92.1101C76.3603 91.8601 77.4303 90.4801 77.4403 87.7301C78.0303 80.5301 78.0403 63.4201 78.0403 62.7001V50.6801C84.9503 48.8301 90.3903 48.0801 90.4403 48.0701C90.4603 48.0701 90.4703 48.0701 90.4903 48.0701L112.18 44.5601C114.91 44.1201 117.33 42.6201 118.82 40.4601C120.83 37.5601 120.63 34.5701 118.27 32.0601C116.91 30.6101 115.09 29.6401 113.01 29.2401L77.0403 22.3901C75.4003 22.0801 73.8203 21.5301 72.3303 20.7701L68.9603 19.0301C68.9103 18.2401 68.5603 17.5601 68.0203 17.0901C67.9603 15.5201 67.7903 12.7301 67.2803 9.90012C66.1203 3.41012 63.7703 0.120117 60.2903 0.120117L60.3003 0.120117ZM58.4403 59.8801H62.1503C63.6303 59.8801 64.8703 58.7601 65.0303 57.2701C65.3503 54.3201 68.2903 53.0001 70.3803 52.4401L70.9203 76.6201H49.6803L50.2203 52.4501C52.3103 53.0201 55.2503 54.3501 55.5703 57.2801C55.7303 58.7601 56.9703 59.8801 58.4503 59.8801H58.4403Z" fill="#231F20"/>
</g>
<defs>
<clipPath id="clip0_417_32">
<rect width="119.81" height="92.76" fill="white" transform="translate(0.389648 0.120117)"/>
</clipPath>
</defs>
</svg>
