<svg width="454" height="534" viewBox="0 0 454 534" fill="none" xmlns="http://www.w3.org/2000/svg">
<g clip-path="url(#clip0_504_61)">
<path d="M162.72 531.51C160.71 531.51 159.04 529.88 158.99 527.86L158.76 517.55C158.22 493.21 176.85 475.22 177.64 474.47C177.68 474.43 177.73 474.39 177.78 474.35L219.26 441.62L219.09 433.93C218.64 431.64 218.2 429.39 217.78 427.19C211.46 425.05 206.06 421.02 204.29 419.61L198 419.75L195.43 424.96C194.58 426.54 193.25 428.54 191.17 428.54C188.79 428.54 187.65 425.97 187.26 425.02L184.77 420.11L181.24 420.19C178 420.19 176.48 417.82 176.06 416.39C175.09 414.17 166.02 392.21 169.97 358.83C170.66 354.47 173.44 352.95 175.61 352.95C175.63 352.95 185.38 352.74 185.38 352.74C186.4 352.74 187.15 353.13 187.72 353.76C188.41 353.08 189.34 352.63 190.58 352.63L199.26 352.44C200.99 352.44 202.2 353.44 202.87 354.69L206.78 354.6C205.62 342.54 205.57 336.84 205.57 336.59L204.86 304.83L189.63 305.17C189.23 306.59 188.51 308.01 186.9 308.01C185.29 308.01 184.59 306.68 184.14 305.29L166.12 305.69C165.72 307.11 165 308.53 163.39 308.53C162.03 308.53 161.28 307.51 160.82 306.32L141.44 314.68C141.06 316.67 140.4 318.8 138.41 318.8C137.2 318.8 136.49 317.99 136.02 317.01L116.88 325.26C116.51 327.17 115.84 329.21 113.89 329.21C112.73 329.21 112.02 328.47 111.56 327.56L91.2802 336.3C90.7602 340.05 90.1102 342.44 87.9202 342.44C86.3002 342.44 85.5202 341.07 84.9602 339.02C7.39024 372.48 6.70023 372.71 6.44023 372.8C6.06023 372.93 5.69023 372.99 5.33023 372.99C4.53023 372.99 3.82023 372.67 3.32023 372.08C2.62023 371.26 2.60023 370.24 2.65023 369.72L2.49023 362.6C2.05023 343 14.1402 335.14 15.5502 334.29L204.55 195.04L201.53 58.9199C200.99 34.5199 213.16 3.08986 223.24 2.85986C233.36 2.85986 246.23 34.0199 246.23 58.4399V194.59L438.28 329.61C439.7 330.42 451.96 338.01 451.96 357.62V364.74C452.02 365.26 452.02 366.3 451.32 367.13C450.82 367.73 450.09 368.06 449.28 368.06C448.95 368.06 448.59 368 448.24 367.89C447.96 367.8 447.3 367.6 368.96 335.87C368.44 337.95 367.68 339.35 366.03 339.35C363.87 339.35 363.18 336.99 362.58 333.28L342.11 324.99C341.66 325.92 340.96 326.7 339.78 326.7C337.86 326.7 337.16 324.7 336.75 322.82L317.44 314.99C316.99 315.99 316.28 316.83 315.04 316.83C313.09 316.83 312.39 314.73 311.97 312.78L292.41 304.85C291.97 306.06 291.23 307.12 289.83 307.12C288.24 307.12 287.51 305.75 287.09 304.34H269.07C268.65 305.75 267.92 307.12 266.33 307.12C264.74 307.12 264.01 305.75 263.59 304.34H248.36V336.14C248.36 336.36 248.44 342.05 247.55 354.14H251.45C252.1 352.84 253.29 351.81 255.01 351.81H263.73C264.95 351.81 265.85 352.25 266.52 352.92C267.09 352.24 267.85 351.81 268.89 351.81H278.56C278.61 351.81 278.68 351.81 278.76 351.81C280.9 351.81 283.67 353.3 284.43 357.49C289.13 390.85 280.55 413.01 279.63 415.24C279.24 416.71 277.73 419.16 274.39 419.16H271L268.62 424.13C268.24 425.1 267.14 427.74 264.72 427.74C262.68 427.74 261.33 425.79 260.49 424.33L257.77 419.11H251.47C249.73 420.56 244.42 424.71 238.15 426.99C237.78 429.2 237.39 431.46 236.99 433.76V441.45L279.19 473.25C279.19 473.25 279.29 473.33 279.33 473.37C280.14 474.11 299.17 491.67 299.17 516.02V526.33C299.17 528.39 297.5 530.06 295.44 530.06C294.86 530.06 294.3 529.93 293.78 529.67L237.29 501.48C233.23 525.15 230.52 525.15 229.04 525.15H229.03C227.55 525.15 224.86 525.09 220.31 501.65L164.46 531.09C163.92 531.37 163.32 531.52 162.72 531.52V531.51Z" fill="white"/>
<path d="M223.28 4.87988C230.84 4.87988 244.23 32.8599 244.23 58.4599V194.99C244.23 195.41 244.43 195.8 244.78 196.04L437.22 331.33C437.22 331.33 449.97 338.23 449.97 357.65V364.9C449.97 364.9 450.18 366.09 449.29 366.09C449.16 366.09 449.02 366.07 448.84 366.01C448.13 365.79 407.34 349.28 367.48 333.14C367 335.97 366.52 337.38 366.04 337.38C365.49 337.38 364.94 335.55 364.4 331.89C356.36 328.64 348.41 325.41 340.87 322.36C340.51 323.94 340.15 324.73 339.79 324.73C339.36 324.73 338.94 323.62 338.51 321.4C330.37 318.1 322.77 315.02 316.16 312.34C315.79 314.02 315.42 314.86 315.05 314.86C314.61 314.86 314.18 313.69 313.74 311.36C300.33 305.93 291.55 302.36 291.55 302.36H291.02C290.63 304.21 290.24 305.14 289.85 305.14C289.46 305.14 289.07 304.21 288.68 302.36H267.51C267.12 304.21 266.73 305.14 266.34 305.14C265.95 305.14 265.56 304.21 265.17 302.36H247.65C246.94 302.36 246.37 302.93 246.37 303.64V336.16C246.37 336.16 246.47 342.53 245.4 356.16C245.88 356.16 246.49 356.16 247.34 356.16H252.92C252.92 356.16 253.21 353.82 255.03 353.82H263.75C266.06 353.82 266.35 357.06 266.81 359.2C267.02 357.06 267.42 353.82 268.92 353.82H278.66C278.66 353.82 278.71 353.82 278.79 353.82C279.37 353.82 281.8 354.05 282.49 357.86C287.31 392.09 277.75 414.63 277.75 414.63C277.75 414.63 277.22 417.17 274.42 417.17H269.77L266.82 423.34C266.16 425.02 265.47 425.75 264.75 425.75C263.94 425.75 263.11 424.83 262.26 423.34L259.01 417.11H250.76C250.76 417.11 244.12 423.02 236.4 425.48C235.96 428.12 235.5 430.82 235.02 433.58V442.44L278.02 474.84C278.02 474.84 297.2 492.27 297.2 516.01V526.32C297.2 527.32 296.38 528.05 295.47 528.05C295.21 528.05 294.95 527.99 294.7 527.87L235.79 498.47C235.79 498.47 231.75 523.14 229.06 523.14C226.37 523.14 221.8 498.61 221.8 498.61L163.56 529.31C163.3 529.45 163.02 529.51 162.76 529.51C161.87 529.51 161.06 528.81 161.03 527.82L160.8 517.51C160.27 493.77 179.06 475.92 179.06 475.92L221.33 442.58L221.13 433.72C220.59 430.96 220.07 428.28 219.57 425.65C211.8 423.36 205.03 417.6 205.03 417.6L196.79 417.78L193.68 424.08C192.85 425.6 192.03 426.54 191.22 426.54C190.51 426.54 189.81 425.83 189.12 424.18L186.03 418.08C186.03 418.08 184.19 418.12 181.38 418.18C181.35 418.18 181.31 418.18 181.28 418.18C178.56 418.18 177.99 415.71 177.99 415.71C177.99 415.71 167.93 393.38 171.99 359.06C172.62 355.13 175.16 354.94 175.65 354.94C175.7 354.94 175.73 354.94 175.73 354.94C175.73 354.94 183.97 354.76 185.46 354.72H185.48C186.95 354.72 187.36 357.82 187.63 360.05C187.85 357.81 188.28 354.6 190.62 354.6L199.34 354.41C199.34 354.41 199.37 354.41 199.39 354.41C201.16 354.41 201.5 356.7 201.5 356.7L207.08 356.58C207.92 356.56 208.54 356.55 209.01 356.54C207.63 342.94 207.6 336.57 207.6 336.57L206.88 304.06C206.86 303.36 206.29 302.81 205.6 302.81C205.6 302.81 205.58 302.81 205.57 302.81L188.05 303.2C187.7 305.07 187.33 306.01 186.94 306.01C186.55 306.01 186.14 305.09 185.71 303.26L164.55 303.73C164.2 305.6 163.83 306.54 163.44 306.54C163.05 306.54 162.64 305.62 162.21 303.79H161.68C161.68 303.79 152.98 307.56 139.69 313.29C139.3 315.64 138.89 316.82 138.45 316.82C138.08 316.82 137.69 315.99 137.29 314.33C130.74 317.15 123.21 320.4 115.15 323.88C114.77 326.12 114.37 327.24 113.94 327.24C113.58 327.24 113.21 326.46 112.81 324.89C105.34 328.11 97.4605 331.51 89.5005 334.94C89.0305 338.63 88.5205 340.47 87.9705 340.47C87.4905 340.47 86.9805 339.07 86.4405 336.26C46.9505 353.28 6.54047 370.69 5.83047 370.93C5.65047 370.99 5.49047 371.02 5.36047 371.02C4.49047 371.02 4.68047 369.85 4.68047 369.85C4.68047 369.85 4.61047 366.69 4.52047 362.6C4.09047 343.19 16.6805 336.01 16.6805 336.01L206.07 196.48C206.41 196.23 206.6 195.84 206.59 195.42L203.56 58.9299C202.99 33.3399 215.75 5.08988 223.31 4.91988M223.28 0.879883C223.28 0.879883 223.22 0.879883 223.19 0.879883C215.6 1.04988 209.56 13.4799 206.64 20.8799C201.85 32.9899 199.26 46.8699 199.53 58.9799L202.53 194.06L14.4205 332.65C12.4305 333.88 0.040472 342.4 0.490472 362.66L0.650472 369.67C0.590472 370.57 0.690472 372.09 1.80047 373.39C2.67047 374.41 3.96047 375 5.33047 375C5.90047 375 6.49047 374.9 7.08047 374.7C7.44047 374.58 8.09047 374.36 83.8505 341.7C84.6405 343.26 85.8705 344.45 87.9405 344.45C91.4905 344.45 92.5705 341.11 93.1205 337.7L110.93 330.02C111.65 330.72 112.61 331.21 113.91 331.21C116.83 331.21 118.03 328.84 118.61 326.71L135.32 319.5C136.05 320.26 137.04 320.8 138.42 320.8C141.38 320.8 142.59 318.32 143.17 316.12L160 308.86C160.76 309.82 161.84 310.53 163.4 310.53C165.61 310.53 166.83 309.17 167.53 307.66L182.85 307.32C183.59 308.74 184.82 310.01 186.91 310.01C189.12 310.01 190.34 308.65 191.04 307.14L202.92 306.88L203.58 336.64C203.58 337.16 203.65 342.29 204.6 352.65H203.95C202.92 351.36 201.38 350.43 199.37 350.43C199.34 350.43 199.26 350.43 199.22 350.43L190.54 350.62C189.91 350.62 188.89 350.74 187.82 351.27C187.16 350.93 186.39 350.73 185.46 350.73C185.43 350.73 185.38 350.73 185.36 350.73L175.72 350.94C175.72 350.94 175.65 350.94 175.62 350.94C172.43 350.94 168.84 353.26 168.01 358.43C168.01 358.48 167.99 358.54 167.99 358.59C164.05 391.87 172.92 414.11 174.18 417.05C174.96 419.6 177.41 422.18 181.25 422.18H181.44L183.57 422.13L185.46 425.86C186.8 428.96 188.72 430.53 191.19 430.53C194.69 430.53 196.56 427.1 197.17 425.98C197.2 425.93 197.22 425.89 197.24 425.84L199.27 421.72L203.64 421.62C205.79 423.27 210.51 426.59 216.05 428.68C216.39 430.47 216.75 432.29 217.11 434.14L217.25 440.66L176.55 472.77C176.45 472.85 176.36 472.93 176.27 473.01C175.45 473.79 156.2 492.37 156.76 517.58L156.99 527.89C157.06 530.98 159.63 533.49 162.72 533.49C163.64 533.49 164.57 533.26 165.39 532.83L218.89 504.63C219.33 506.74 219.88 509.26 220.5 511.8C221.39 515.49 222.23 518.46 222.98 520.62C223.78 522.89 225.26 527.13 229.02 527.13C229.02 527.13 229.04 527.13 229.05 527.13C233.26 527.12 234.93 522.55 237.31 511.65C237.87 509.09 238.37 506.55 238.76 504.43L292.88 531.44C293.67 531.84 294.56 532.04 295.44 532.04C298.6 532.04 301.17 529.47 301.17 526.31V516C301.17 490.78 281.52 472.63 280.68 471.87C280.59 471.79 280.5 471.71 280.4 471.64L239 440.44V433.92C239.32 432.06 239.64 430.23 239.94 428.44C245.43 426.23 250.08 422.8 252.19 421.11H256.56L258.68 425.19C258.68 425.19 258.73 425.28 258.76 425.33C259.39 426.42 261.29 429.75 264.72 429.75C266.46 429.75 268.85 428.91 270.45 424.95L272.26 421.17H274.39C278.33 421.17 280.8 418.51 281.53 415.88C282.73 412.9 291.1 390.48 286.42 357.3C286.42 357.25 286.4 357.19 286.39 357.14C285.41 351.73 281.66 349.82 278.75 349.82C278.66 349.82 278.58 349.82 278.51 349.82H268.89C267.92 349.82 267.12 350.04 266.44 350.42C265.69 350.04 264.79 349.82 263.73 349.82H255.01C253 349.82 251.42 350.79 250.36 352.16H249.69C250.41 341.78 250.36 336.66 250.35 336.13V306.36H262.24C262.96 307.83 264.18 309.14 266.33 309.14C268.48 309.14 269.7 307.83 270.42 306.36H285.75C286.47 307.83 287.69 309.14 289.84 309.14C291.46 309.14 292.56 308.39 293.3 307.39L310.27 314.27C310.89 316.47 312.11 318.85 315.03 318.85C316.44 318.85 317.45 318.27 318.18 317.47L335.07 324.31C335.69 326.4 336.93 328.71 339.77 328.71C341.12 328.71 342.1 328.19 342.82 327.45L360.79 334.73C361.41 338.09 362.55 341.36 366.02 341.36C368.12 341.36 369.36 340.11 370.13 338.51C446.61 369.48 447.27 369.69 447.63 369.8C448.18 369.97 448.73 370.06 449.27 370.06C450.67 370.06 451.97 369.46 452.84 368.41C453.95 367.08 454.02 365.52 453.94 364.65V357.61C453.94 337.35 441.36 329.11 439.35 327.92L248.21 193.55V58.4599C248.21 46.3499 245.31 32.5199 240.26 20.5199C237.17 13.1899 230.86 0.879883 223.27 0.879883H223.28Z" fill="black"/>
</g>
<defs>
<clipPath id="clip0_504_61">
<rect width="453.5" height="532.63" fill="white" transform="translate(0.480469 0.879883)"/>
</clipPath>
</defs>
</svg>
