<svg width="90" height="91" viewBox="0 0 90 91" fill="none" xmlns="http://www.w3.org/2000/svg">
<g clip-path="url(#clip0_539_17)">
<path d="M24.9699 89.09C23.9199 89.09 23.2899 88.37 23.1499 87.7C23.1399 87.63 23.1299 87.56 23.1299 87.49V83.67C23.1299 81.6 24.2799 80.5 24.9999 80.15L41.4199 70.41C41.4199 70.21 41.3999 69.89 41.3699 69.4C40.5899 67.04 39.8199 62.9 39.6999 61.47C39.4199 61.19 38.0399 60.76 36.7599 60.6C26.5499 61.26 3.03995 62.79 2.75995 62.79C2.38995 62.79 2.05995 62.64 1.82995 62.37C1.52995 62.02 1.50995 61.6 1.51995 61.39V58.81C1.53995 58.45 1.74995 55.94 2.17995 54.65C2.66995 53.18 3.54995 52.82 3.93995 52.73C5.19995 52.33 26.0799 45.65 31.0899 44C34.9199 42.74 37.1299 41.3 37.9299 40.72V31.27C37.9299 29.79 39.0199 29.23 39.7099 29.23H40.0899C40.2799 18.89 43.2999 9.61 43.7699 8.22V2.61C43.7699 1.34 44.5999 1 45.0399 1C45.4799 1 46.3099 1.34 46.3099 2.61V8.26C46.7399 9.61 49.5499 18.9 49.7299 29.26H50.0999C50.7899 29.26 51.8799 29.81 51.8799 31.3V40.75C52.6799 41.33 54.8899 42.76 58.7199 44.03C63.7399 45.69 84.6099 52.36 85.8699 52.76C86.2699 52.85 87.1399 53.21 87.6299 54.68C88.0599 55.97 88.2599 58.48 88.2899 58.76V61.41C88.3099 61.62 88.2899 62.04 87.9799 62.39C87.7499 62.66 87.4199 62.81 87.0499 62.81C86.7599 62.81 63.2499 61.28 53.0499 60.62C51.7999 60.78 50.4399 61.19 50.1099 61.51C50.0099 62.95 49.5199 66.83 48.7499 69.19C48.7099 69.69 48.6999 70.01 48.6999 70.21L64.1299 79.94C64.8599 80.3 65.9899 81.39 65.9899 83.45V87.27C65.9899 87.34 65.9899 87.41 65.9699 87.48C65.8299 88.15 65.1999 88.87 64.1499 88.87C63.9199 88.87 63.6799 88.84 63.4399 88.77C62.5099 88.52 51.1399 85.47 47.4299 84.48L47.3999 84.88C47.3999 84.88 47.3899 84.97 47.3799 85.01C47.2299 85.73 46.5799 86.51 45.5399 86.51H44.5499V86.48C44.2699 86.51 43.9399 86.51 43.5599 86.51C42.5199 86.51 41.8799 85.73 41.7199 85.01C41.7199 84.97 41.7099 84.93 41.6999 84.89L41.6799 84.7C37.9899 85.69 26.5899 88.74 25.6499 89C25.3999 89.07 25.1599 89.1 24.9399 89.1L24.9699 89.09Z" fill="white"/>
<path d="M45.06 2C45.06 2 45.33 2 45.33 2.61V8.41C45.33 8.41 48.75 18.92 48.75 30.25H50.12C50.12 30.25 50.9 30.25 50.9 31.29V41.23C50.9 41.23 53.22 43.25 58.43 44.97C63.64 46.69 85.65 53.72 85.65 53.72C85.65 53.72 86.31 53.77 86.71 54.98C87.11 56.19 87.32 58.83 87.32 58.83V61.45C87.32 61.45 87.37 61.8 87.08 61.8C86.79 61.8 53.05 59.61 53.05 59.61C53.05 59.61 49.51 60.01 49.15 61.23C49.1 62.34 48.59 66.6 47.78 68.98C47.63 70.8 47.78 70.8 47.78 70.8L63.67 80.82C63.67 80.82 65.01 81.4 65.01 83.45V87.27C65.01 87.27 64.88 87.87 64.17 87.87C64.04 87.87 63.89 87.85 63.72 87.8C62.61 87.5 46.54 83.2 46.54 83.2L46.41 84.79C46.41 84.79 46.26 85.5 45.55 85.5H44.56C44.56 85.5 44.28 85.5 43.57 85.5C42.86 85.5 42.71 84.79 42.71 84.79L42.58 83.42C42.58 83.42 26.52 87.72 25.4 88.02C25.23 88.07 25.08 88.09 24.95 88.09C24.24 88.09 24.11 87.49 24.11 87.49V83.67C24.11 81.62 25.45 81.04 25.45 81.04L42.34 71.02C42.34 71.02 42.49 71.02 42.34 69.2C41.53 66.82 40.72 62.34 40.67 61.22C40.32 60.01 36.77 59.6 36.77 59.6C36.77 59.6 3.01997 61.79 2.73997 61.79C2.45997 61.79 2.49997 61.44 2.49997 61.44V58.82C2.49997 58.82 2.69997 56.19 3.10997 54.97C3.50997 53.76 4.16997 53.71 4.16997 53.71C4.16997 53.71 26.18 46.68 31.39 44.96C36.6 43.24 38.92 41.22 38.92 41.22V31.28C38.92 30.24 39.7 30.24 39.7 30.24H41.07C41.07 18.91 44.76 8.4 44.76 8.4V2.61C44.76 2 45.03 2 45.03 2M45.06 0C43.93 0 42.79 0.9 42.79 2.61V8.08C42.19 9.89 39.46 18.54 39.13 28.32C37.99 28.59 36.95 29.61 36.95 31.29V40.22C35.98 40.86 33.97 42.02 30.79 43.07C25.84 44.7 5.44997 51.22 3.70997 51.78C2.80997 51.98 1.77997 52.74 1.23997 54.35C0.779974 55.73 0.569974 58.19 0.539974 58.67C0.539974 58.72 0.539974 58.77 0.539974 58.82V61.37C0.519974 61.77 0.579974 62.45 1.08997 63.04C1.50997 63.52 2.11997 63.8 2.76997 63.8C2.85997 63.8 3.11998 63.8 36.74 61.62C37.48 61.72 38.32 61.93 38.78 62.12C39.01 63.91 39.68 67.4 40.4 69.61C40.4 69.7 40.41 69.79 40.42 69.87L24.54 79.29C23.59 79.78 22.15 81.17 22.15 83.68V87.5C22.15 87.64 22.16 87.78 22.19 87.92C22.41 88.97 23.38 90.1 24.99 90.1C25.3 90.1 25.63 90.05 25.97 89.96C26.82 89.73 36.65 87.09 41.04 85.92C41.47 86.77 42.35 87.5 43.6 87.5H44.59C44.59 87.5 44.65 87.5 44.68 87.5H45.57C46.92 87.5 47.84 86.65 48.23 85.72C52.66 86.91 62.36 89.5 63.21 89.74C63.54 89.83 63.87 89.88 64.19 89.88C65.79 89.88 66.76 88.75 66.99 87.7C67.02 87.56 67.03 87.42 67.03 87.29V83.47C67.03 80.98 65.62 79.59 64.67 79.09L49.76 69.69C49.76 69.6 49.77 69.5 49.78 69.4C50.49 67.19 50.95 63.88 51.11 62.14C51.57 61.95 52.39 61.75 53.13 61.65C86.75 63.83 87.01 63.83 87.1 63.83C87.75 63.83 88.36 63.55 88.78 63.07C89.29 62.48 89.35 61.8 89.33 61.4V58.85C89.33 58.8 89.33 58.75 89.33 58.7C89.29 58.22 89.09 55.75 88.63 54.38C88.09 52.76 87.06 52.01 86.16 51.81C84.42 51.25 64.02 44.73 59.08 43.1C55.91 42.05 53.9 40.89 52.92 40.25V31.32C52.92 29.64 51.88 28.62 50.74 28.35C50.43 18.56 47.89 9.89 47.35 8.13V2.61C47.35 0.9 46.21 0 45.08 0H45.06Z" fill="black"/>
</g>
<defs>
<clipPath id="clip0_539_17">
<rect width="88.8" height="90.09" fill="white" transform="translate(0.52002)"/>
</clipPath>
</defs>
</svg>
