<svg width="312" height="281" viewBox="0 0 312 281" fill="none" xmlns="http://www.w3.org/2000/svg">
<g clip-path="url(#clip0_417_37)">
<path d="M155.89 278.26C153.25 278.26 152.43 275.86 151.93 274.43C151.8 274.05 151.66 273.65 151.49 273.26C151.46 273.18 151.43 273.1 151.41 273.02C146.48 255.72 147.14 244.6 147.39 240.42C147.42 239.89 147.45 239.48 147.45 239.19C147.38 239.19 147.32 239.2 147.3 239.21C147.18 239.23 147.02 239.25 146.89 239.25H145.47V241.35C145.47 244.32 142.89 246.48 139.33 246.48C135.77 246.48 133.19 244.32 133.19 241.35V239.1H131.79V241.24C131.79 244.55 129.13 246.94 125.47 246.94C121.81 246.94 119.15 244.54 119.15 241.24V239.59C76.4797 241.81 17.7996 249.37 6.30965 250.89C6.15965 250.91 5.99965 250.92 5.84965 250.92C4.92965 250.92 4.06965 250.56 3.40965 249.91C2.74965 249.26 2.38965 248.38 2.38965 247.45V232.72C2.38965 227.1 5.51965 220.39 8.14965 215.74C9.11965 214.03 10.2696 212.35 11.5596 210.74L26.9796 191.64C32.0196 185.4 37.8496 179.84 44.3296 175.1L82.5596 147.17C89.8496 141.84 96.7296 135.84 102.99 129.34L132.15 99.0802C139.18 91.7902 143.04 82.2002 143.04 72.0702V41.4902C143.04 27.9902 149.69 14.2902 151.73 10.4202C152.15 9.62023 152.45 8.82023 152.63 8.03023C152.93 6.70023 153.51 5.04023 153.82 4.18023C154.14 3.32023 154.97 2.74023 155.88 2.74023C156.79 2.74023 157.63 3.32023 157.94 4.18023C158.26 5.05023 158.84 6.70023 159.13 8.03023C159.31 8.81023 159.61 9.61023 160.03 10.4202C162.07 14.3002 168.72 27.9902 168.72 41.4902V72.0702C168.72 82.1902 172.59 91.7802 179.61 99.0802L208.77 129.34C215.03 135.84 221.91 141.84 229.2 147.17L267.43 175.1C273.91 179.83 279.74 185.39 284.78 191.64L300.2 210.74C301.5 212.34 302.64 214.03 303.61 215.74C306.24 220.38 309.37 227.1 309.37 232.72V247.45C309.37 249.36 307.82 250.91 305.91 250.91C305.76 250.91 305.61 250.91 305.45 250.88C293.96 249.36 235.27 241.79 192.61 239.58V241.23C192.61 244.54 189.95 246.93 186.29 246.93C182.63 246.93 179.97 244.53 179.97 241.23V239.09H178.57V241.34C178.57 244.31 175.99 246.47 172.43 246.47C168.87 246.47 166.29 244.31 166.29 241.34V239.24H164.87C164.72 239.24 164.58 239.22 164.43 239.19C164.43 239.19 164.38 239.19 164.31 239.19C164.31 239.48 164.34 239.89 164.37 240.42C164.62 244.61 165.28 255.72 160.35 273.02C160.33 273.1 160.3 273.18 160.26 273.26C160.09 273.65 159.96 274.05 159.82 274.43C159.32 275.86 158.5 278.26 155.86 278.26H155.89Z" fill="white"/>
<path d="M155.89 4.74023C155.97 4.74023 156.04 4.78023 156.08 4.87023C156.37 5.66023 156.92 7.24023 157.2 8.47023C157.43 9.48023 157.8 10.4402 158.28 11.3502C160.69 15.9402 166.74 28.9102 166.74 41.4902V72.0702C166.74 82.6602 170.85 92.8402 178.19 100.46L207.35 130.72C213.71 137.32 220.64 143.36 228.04 148.77L266.27 176.7C272.61 181.33 278.31 186.77 283.24 192.88L298.66 211.98C299.86 213.47 300.95 215.04 301.89 216.71C304.03 220.49 307.39 227.3 307.39 232.71V247.44C307.39 248.26 306.73 248.9 305.93 248.9C305.87 248.9 305.8 248.9 305.74 248.89C294.97 247.47 233.76 239.55 190.63 237.47V241.22C190.63 243.69 188.47 244.92 186.31 244.92C184.15 244.92 181.99 243.69 181.99 241.22V237.08H176.59V241.33C176.59 243.42 174.52 244.46 172.45 244.46C170.38 244.46 168.31 243.42 168.31 241.33V237.23H164.89C164.89 237.23 164.63 237.17 164.28 237.17C163.52 237.17 162.33 237.44 162.33 239.12C162.33 241.59 164.01 252.96 158.45 272.45C157.66 274.3 157.48 276.24 155.89 276.24C154.3 276.24 154.13 274.3 153.33 272.45C147.77 252.96 149.45 241.59 149.45 239.12C149.45 237.43 148.26 237.17 147.5 237.17C147.15 237.17 146.89 237.23 146.89 237.23H143.47V241.33C143.47 243.42 141.4 244.46 139.33 244.46C137.26 244.46 135.19 243.42 135.19 241.33V237.08H129.79V241.22C129.79 243.69 127.63 244.92 125.47 244.92C123.31 244.92 121.15 243.69 121.15 241.22V237.47C78.0199 239.55 16.8199 247.47 6.03988 248.89C5.96988 248.89 5.90988 248.9 5.84988 248.9C5.05988 248.9 4.38988 248.25 4.38988 247.44V232.71C4.38988 227.3 7.74988 220.5 9.88988 216.71C10.8299 215.05 11.9199 213.47 13.1199 211.98L28.5399 192.88C33.4699 186.77 39.1799 181.33 45.5099 176.7L83.7399 148.77C91.1399 143.36 98.0699 137.32 104.43 130.72L133.59 100.46C140.94 92.8302 145.04 82.6602 145.04 72.0702V41.4902C145.04 28.9002 151.09 15.9402 153.5 11.3502C153.98 10.4402 154.35 9.48023 154.58 8.47023C154.86 7.24023 155.41 5.66023 155.7 4.87023C155.73 4.78023 155.81 4.74023 155.89 4.74023ZM155.89 0.740234C154.14 0.740234 152.55 1.85023 151.95 3.50023C151.54 4.62023 150.99 6.23023 150.68 7.60023C150.54 8.21023 150.3 8.85023 149.96 9.49023C147.87 13.4702 141.04 27.5402 141.04 41.5002V72.0802C141.04 81.6802 137.37 90.7802 130.71 97.7002L101.55 127.96C95.3599 134.38 88.5799 140.3 81.3799 145.56L43.1499 173.49C36.5299 178.32 30.5699 184.01 25.4199 190.38L9.99988 209.48C8.63988 211.17 7.42988 212.94 6.39988 214.75C3.64988 219.6 0.379883 226.66 0.379883 232.71V247.44C0.379883 250.45 2.82988 252.9 5.83988 252.9C6.07988 252.9 6.31988 252.88 6.55988 252.85C17.8499 251.36 74.7399 244.02 117.16 241.68C117.4 245.84 120.89 248.92 125.47 248.92C128.53 248.92 131.11 247.54 132.55 245.38C133.98 247.27 136.44 248.46 139.34 248.46C141.7 248.46 143.76 247.67 145.23 246.36C145.28 252.29 146.04 261.45 149.5 273.56C149.55 273.72 149.6 273.88 149.67 274.04C149.8 274.35 149.92 274.7 150.05 275.08C150.59 276.63 151.84 280.26 155.9 280.26C159.96 280.26 161.21 276.63 161.75 275.08C161.88 274.7 162 274.35 162.13 274.04C162.2 273.88 162.25 273.72 162.3 273.56C165.75 261.45 166.51 252.29 166.57 246.36C168.03 247.67 170.1 248.46 172.46 248.46C175.36 248.46 177.81 247.27 179.25 245.38C180.69 247.54 183.27 248.92 186.33 248.92C190.91 248.92 194.4 245.84 194.64 241.68C237.05 244.02 293.95 251.36 305.24 252.85C305.48 252.88 305.72 252.9 305.96 252.9C308.97 252.9 311.42 250.45 311.42 247.44V232.71C311.42 226.66 308.15 219.6 305.4 214.75C304.38 212.94 303.17 211.17 301.8 209.48L286.38 190.38C281.23 184 275.27 178.32 268.65 173.49L230.42 145.56C223.22 140.3 216.44 134.38 210.25 127.96L181.09 97.7002C174.43 90.7802 170.76 81.6902 170.76 72.0802V41.5002C170.76 27.5402 163.93 13.4702 161.84 9.49023C161.5 8.85023 161.26 8.21023 161.12 7.60023C160.81 6.23023 160.26 4.61023 159.85 3.50023C159.25 1.85023 157.66 0.740234 155.91 0.740234L155.89 0.740234Z" fill="#231F20"/>
</g>
<defs>
<clipPath id="clip0_417_37">
<rect width="311" height="279.52" fill="white" transform="translate(0.389648 0.740234)"/>
</clipPath>
</defs>
</svg>
