<svg width="255" height="206" viewBox="0 0 255 206" fill="none" xmlns="http://www.w3.org/2000/svg">
<g clip-path="url(#clip0_300_47)">
<path d="M127.811 204.1C123.261 204.1 118.661 203.88 114.141 203.45C101.091 202.2 93.3205 201.55 91.6805 201.55C90.0405 201.55 88.9605 201.1 88.2405 200.22C87.3905 199.18 87.4905 197.94 87.5505 197.54V189.84C87.5505 186.83 90.0905 185.38 91.4305 185.03C91.4605 185.03 113.491 180.08 120.641 178.5C120.921 178.44 121.151 178.27 121.301 178.04C121.451 177.8 121.501 177.52 121.431 177.25C120.481 173.22 119.571 168.3 118.851 164.34C118.451 162.15 118.101 160.26 117.821 158.93C117.681 158.25 117.311 157.65 116.771 157.19C114.231 155.08 111.241 151.31 110.291 150.08C109.321 150.02 107.171 149.65 105.951 147.51C105.921 147.45 105.891 147.39 105.871 147.33C103.631 140.62 103.511 130.25 103.531 127.13C93.9905 125.92 11.0605 115.39 6.82052 114.97C2.46052 114.53 1.65052 109.72 1.83052 107.23V100.33C1.83052 95.9398 5.56052 94.7799 7.53052 94.7799L114.211 88.8298C114.801 88.7999 115.261 88.3098 115.261 87.7198V33.1699C115.261 16.3499 123.691 1.84985 127.821 1.84985C131.951 1.84985 140.381 16.3499 140.381 33.1699V87.7198C140.381 88.3098 140.841 88.7999 141.431 88.8298L248.171 94.7799C250.091 94.7799 253.811 95.9398 253.811 100.33V107.3C253.991 109.71 253.181 114.53 248.821 114.97C244.571 115.39 161.651 125.92 152.111 127.13C152.131 130.25 152.011 140.62 149.771 147.33C149.751 147.39 149.721 147.45 149.691 147.51C148.471 149.65 146.321 150.03 145.351 150.08C144.401 151.31 141.401 155.08 138.871 157.19C138.331 157.64 137.961 158.24 137.821 158.93C137.541 160.26 137.191 162.15 136.791 164.34C136.061 168.29 135.161 173.21 134.211 177.24C134.151 177.51 134.191 177.79 134.341 178.03C134.491 178.27 134.731 178.44 135.001 178.5C142.151 180.08 164.181 185.03 164.181 185.03C165.551 185.38 168.091 186.83 168.091 189.85V197.55C168.151 197.95 168.251 199.19 167.401 200.23C166.681 201.12 165.521 201.56 163.961 201.56C162.401 201.56 154.561 202.22 141.501 203.46C136.971 203.89 132.371 204.11 127.831 204.11L127.811 204.1Z" fill="white"/>
<path d="M127.81 2.83984C130.99 2.83984 139.37 16.3298 139.37 33.1598V87.7098C139.37 88.8298 140.24 89.7598 141.36 89.8198L248.09 95.7698C248.09 95.7698 252.79 95.7698 252.79 100.32V107.29C252.79 107.29 253.24 113.51 248.7 113.96C244.16 114.41 151.07 126.24 151.07 126.24C151.07 126.24 151.37 139.28 148.8 147.01C147.7 148.93 145.67 149.09 145.03 149.09C144.9 149.09 144.83 149.09 144.83 149.09C144.83 149.09 141.15 153.98 138.2 156.43C137.49 157.02 137 157.82 136.81 158.73C136.02 162.51 134.67 170.81 133.2 177.02C132.94 178.13 133.64 179.23 134.75 179.48C141.9 181.06 163.93 186.01 163.93 186.01C163.93 186.01 167.06 186.82 167.06 189.85V197.63C167.06 197.63 167.67 200.56 163.93 200.56C161.83 200.56 150.73 201.58 141.38 202.47C136.86 202.9 132.33 203.12 127.8 203.12C123.27 203.12 118.74 202.9 114.22 202.47C104.87 201.58 93.7601 200.56 91.6702 200.56C87.9302 200.56 88.5401 197.63 88.5401 197.63V189.85C88.5401 186.82 91.6702 186.01 91.6702 186.01C91.6702 186.01 113.69 181.06 120.85 179.48C121.96 179.23 122.66 178.13 122.4 177.02C120.93 170.81 119.59 162.51 118.79 158.73C118.6 157.83 118.11 157.02 117.4 156.43C114.45 153.98 110.77 149.09 110.77 149.09C110.77 149.09 110.7 149.09 110.57 149.09C109.93 149.09 107.9 148.93 106.8 147.01C104.22 139.28 104.53 126.24 104.53 126.24C104.53 126.24 11.4501 114.42 6.90015 113.96C2.35015 113.51 2.81015 107.29 2.81015 107.29V100.32C2.81015 95.7698 7.51015 95.7698 7.51015 95.7698L114.24 89.8198C115.36 89.7598 116.23 88.8298 116.23 87.7098V33.1598C116.23 16.3298 124.61 2.83984 127.79 2.83984M127.81 0.839844C122.7 0.839844 114.25 15.9398 114.25 33.1598V87.7098C114.25 87.7698 114.2 87.8198 114.15 87.8198L7.47015 93.7698C4.78015 93.7998 0.830148 95.5499 0.830148 100.32V107.22C0.650148 110.06 1.64015 115.44 6.72015 115.95C10.8401 116.36 89.6702 126.37 102.53 128C102.55 131.93 102.82 141.34 104.92 147.64C104.96 147.76 105.02 147.89 105.08 148C106.37 150.25 108.49 150.87 109.76 151.03C110.94 152.54 113.72 155.95 116.13 157.96C116.5 158.27 116.75 158.67 116.84 159.13C117.12 160.45 117.46 162.33 117.86 164.52C118.59 168.48 119.49 173.41 120.45 177.47L120.85 179.47L120.42 177.52C113.35 179.08 91.4602 184 91.2402 184.05C91.2202 184.05 91.2001 184.05 91.1801 184.06C89.5801 184.47 86.5501 186.21 86.5501 189.84V197.48C86.4801 198.09 86.4302 199.58 87.4602 200.85C88.0901 201.63 89.3401 202.55 91.6801 202.55C92.6001 202.55 96.7301 202.8 114.04 204.45C118.6 204.89 123.23 205.11 127.81 205.11C132.39 205.11 137.02 204.89 141.58 204.45C158.89 202.8 163.02 202.55 163.94 202.55C166.28 202.55 167.53 201.62 168.16 200.85C169.19 199.58 169.15 198.09 169.07 197.48V189.84C169.07 186.22 166.04 184.48 164.44 184.06C164.42 184.06 164.4 184.05 164.38 184.05C164.16 184 142.27 179.09 135.2 177.52L133.22 177.01L135.17 177.47C136.13 173.42 137.04 168.48 137.76 164.52C138.16 162.34 138.51 160.45 138.78 159.13C138.88 158.67 139.12 158.26 139.49 157.96C141.9 155.96 144.67 152.54 145.86 151.03C147.14 150.87 149.26 150.25 150.54 148C150.61 147.89 150.66 147.77 150.7 147.64C152.8 141.34 153.07 131.93 153.09 128C165.95 126.37 244.78 116.36 248.9 115.95C253.98 115.44 254.98 110.06 254.79 107.22V100.32C254.79 95.5499 250.84 93.7998 248.15 93.7698L141.47 87.8198C141.41 87.8198 141.37 87.7698 141.37 87.7098V33.1598C141.37 15.9498 132.92 0.839844 127.81 0.839844Z" fill="black"/>
</g>
<defs>
<clipPath id="clip0_300_47">
<rect width="254.02" height="204.26" fill="white" transform="translate(0.799805 0.839844)"/>
</clipPath>
</defs>
</svg>
