<?xml version="1.0" encoding="utf-8"?>
<!-- Generator: Adobe Illustrator 22.1.0, SVG Export Plug-In . SVG Version: 6.00 Build 0)  -->
<svg version="1.1" xmlns="http://www.w3.org/2000/svg" xmlns:xlink="http://www.w3.org/1999/xlink" x="0px" y="0px"
	 viewBox="0 0 97.3 97.3" style="enable-background:new 0 0 97.3 97.3;" xml:space="preserve">
<style type="text/css">
	.st0{fill-rule:evenodd;clip-rule:evenodd;fill:#B38808;}
	.st1{fill-rule:evenodd;clip-rule:evenodd;fill:#D9BB7D;}
	.st2{fill-rule:evenodd;clip-rule:evenodd;fill:#003E7E;}
	.st3{fill-rule:evenodd;clip-rule:evenodd;fill:#FFFFFF;}
	.st4{fill-rule:evenodd;clip-rule:evenodd;fill:#00853F;}
	.st5{fill:#D9BB7D;}
</style>
<g id="Layer_1">
</g>
<g id="Layer_2">
	<g>
		<path class="st0" d="M85.4,51.4c0,19.9-16.3,36.1-36.1,36.1c-19.9,0-36.1-16.2-36.1-36.1c0-20,16.2-36.2,36.1-36.2
			C69.1,15.2,85.4,31.4,85.4,51.4z"/>
		<path class="st1" d="M83.9,51.4c0,19.2-15.6,34.7-34.6,34.7c-19.2,0-34.6-15.6-34.6-34.7c0-19.2,15.5-34.7,34.6-34.7
			C68.3,16.7,83.9,32.3,83.9,51.4z"/>
		<path class="st2" d="M82.4,51.4c0,18.4-14.8,33.3-33.2,33.3C30.9,84.7,16,69.8,16,51.4C16,33,30.9,18.1,49.3,18.1
			C67.6,18.1,82.4,33,82.4,51.4z"/>
		<path class="st3" d="M49.3,28.9c-12.5,0-22.5,10.1-22.5,22.5C26.7,63.9,36.8,74,49.3,74c12.5,0,22.5-10.1,22.5-22.5
			C71.7,39,61.7,28.9,49.3,28.9z"/>
		<path class="st4" d="M69.2,51.5c0,11-8.9,19.9-19.9,19.9c-11,0-19.9-8.9-19.9-19.9c0-11.1,8.9-20,19.9-20
			C60.2,31.5,69.2,40.4,69.2,51.5z"/>
		<path class="st3" d="M19.6,44.6l4.8,1.3l0.2-0.9c0,0-1.9-0.5-2.1-0.5c0.1-0.2,0.4-1.7,0.4-1.7l-0.7-0.1c0,0-0.4,1.4-0.4,1.6
			c-0.2-0.1-1.2-0.3-1.4-0.4c0.1-0.2,0.5-1.9,0.5-1.9l-0.6-0.2L19.6,44.6z"/>
		<path class="st3" d="M21.2,39.8l4.5,2.1l1.3-2.7l-0.6-0.3c0,0-0.8,1.7-0.9,1.9c-0.1-0.1-1.2-0.5-1.4-0.6c0.1-0.2,0.7-1.5,0.7-1.5
			l-0.6-0.4c0,0-0.6,1.4-0.7,1.5c-0.1-0.1-1-0.4-1.2-0.5c0.1-0.2,0.8-1.8,0.8-1.8l-0.6-0.3L21.2,39.8z"/>
		<path class="st3" d="M24.6,33.6l-1.1,1.5l4,2.9l1.1-1.4c0.4-0.6,0.6-1.2,0.4-1.7c-0.1-0.6-0.5-1.3-1.2-1.8
			C26.6,32.2,25.4,32.4,24.6,33.6z"/>
		<path class="st2" d="M25.1,34.2c0.4-0.6,1.2-1.2,2.3-0.4c0.5,0.4,0.9,0.8,0.9,1.2c0,0.1,0,0.1,0,0.2c0,0.4-0.2,0.6-0.3,0.8
			c0,0-0.4,0.6-0.6,0.8c-0.1-0.1-2.7-1.9-2.8-2.1C24.7,34.6,25.1,34.2,25.1,34.2z"/>
		<path class="st3" d="M27.4,30.1l3.5,3.6l2.2-2.1l-0.5-0.5c0,0-1.4,1.3-1.5,1.4c-0.1-0.1-0.9-0.9-1.1-1.1c0.1-0.1,1.2-1.2,1.2-1.2
			l-0.5-0.5c0,0-1.1,1-1.2,1.2c-0.1-0.1-0.7-0.8-0.9-0.9c0.1-0.1,1.4-1.4,1.4-1.4l-0.5-0.5L27.4,30.1z"/>
		<path class="st3" d="M32.6,25.9l-1.4,0.9l2.7,4.1l0.7-0.5c0,0-1-1.4-1.1-1.7c0.1-0.1,0.3-0.2,0.4-0.2c0.1,0,2.2,0.9,2.2,0.9
			l0.9-0.6c0,0-2.4-0.9-2.7-1c0.1-0.2,0.2-0.5,0.2-0.8c0-0.3-0.1-0.6-0.2-0.9c-0.2-0.3-0.4-0.5-0.8-0.6
			C33.2,25.5,32.8,25.8,32.6,25.9z"/>
		<path class="st2" d="M32.8,26.6c0.2-0.1,0.4-0.1,0.6-0.1c0.1,0.1,0.2,0.1,0.4,0.3c0.1,0.1,0.1,0.3,0.1,0.5c0,0.3-0.2,0.6-0.6,0.9
			c0,0-0.1,0-0.1,0.1c-0.1-0.1-0.7-1.1-0.9-1.3C32.5,26.8,32.8,26.6,32.8,26.6z"/>
		<path class="st3" d="M37.4,23.3l0.1,5.3l0.8-0.3c0,0-0.1-1.3-0.1-1.4c0.1-0.1,1.7-0.6,1.8-0.7c0.1,0.1,1,1,1,1l0.9-0.4l-3.7-3.9
			L37.4,23.3z"/>
		<path class="st2" d="M38.2,24.3c0.3,0.3,1.1,1.1,1.2,1.3c-0.2,0.1-0.9,0.4-1.2,0.5C38.2,25.8,38.2,24.7,38.2,24.3z"/>
		<path class="st3" d="M42,21.7l1,4.9l3-0.6l-0.1-0.7c0,0-1.9,0.4-2.1,0.4c-0.1-0.2-0.9-4.2-0.9-4.2L42,21.7z"/>
		<path class="st3" d="M49.9,25.7l0.8,0.1c0,0,0.6-1.2,0.6-1.3c0.1,0,1.8,0.2,1.9,0.2c0,0.1,0.4,1.4,0.4,1.4l0.9,0.1l-1.4-5.2
			L52.4,21L49.9,25.7z"/>
		<path class="st2" d="M52.6,22.3c0.1,0.4,0.4,1.5,0.5,1.7c-0.3,0-1.1-0.1-1.4-0.1C51.8,23.6,52.3,22.6,52.6,22.3z"/>
		<path class="st3" d="M56.3,26.8L57,27l3.2-4.2l-0.8-0.2c0,0-1.9,2.7-2.3,3.2c-0.1-0.6-0.3-4-0.3-4l-0.9-0.3L56.3,26.8z"/>
		<polygon class="st3" points="59.8,28.1 60.6,28.5 62.6,23.9 61.9,23.6 		"/>
		<path class="st3" d="M61.6,28.9l0.6,0.5c0,0,1.1-0.7,1.2-0.9c0.1,0.1,1.4,1,1.6,1.1C65,29.8,64.7,31,64.7,31l0.8,0.5l1.2-5.2
			L66,25.9L61.6,28.9z"/>
		<path class="st2" d="M65.7,27.1c-0.1,0.4-0.4,1.5-0.4,1.8c-0.2-0.1-0.9-0.6-1.1-0.8C64.4,28,65.3,27.4,65.7,27.1z"/>
		<path class="st3" d="M69.6,29.7c-0.1,0.2-2.9,3.1-2.9,3.1l0.5,0.6c0,0,2.8-2.9,3-3c0.1,0.1,1.2,1.2,1.2,1.2l0.5-0.5l-3-3l-0.5,0.5
			L69.6,29.7z"/>
		<polygon class="st3" points="69.1,35.4 69.6,36.1 73.6,33.1 73,32.3 		"/>
		<path class="st3" d="M72.7,35.9c-1.4,0.7-1.9,2-1.2,3.2c0.4,0.6,0.8,0.9,1.3,1.2c0.6,0.1,1.4,0.1,2.2-0.4c1.4-0.7,1.8-2,1.2-3.2
			C75.4,35.5,74,35.2,72.7,35.9z"/>
		<path class="st2" d="M72.1,38.9c-0.6-1.2,0.5-1.9,1-2.2c0.4-0.2,1-0.5,1.6-0.3c0.3,0.1,0.6,0.3,0.7,0.6c0.1,0.2,0.2,0.4,0.2,0.6
			c0,0.8-0.8,1.3-1.2,1.5C73.9,39.5,72.7,40,72.1,38.9z"/>
		<path class="st3" d="M73.1,42.4l0.2,0.7c0,0,2.7-0.7,3.3-0.9c-0.4,0.5-2.7,3.1-2.7,3.1l0.2,0.8l4.8-1.4l-0.2-0.8
			c0,0-2.7,0.8-3.3,0.9c0.4-0.5,2.7-3.1,2.7-3.1l-0.2-0.8L73.1,42.4z"/>
		<path class="st3" d="M19.7,59.4c0,0,1.4,0.1,1.5,0.1c0,0.1,0.6,1.8,0.6,1.9c-0.1,0.1-1.2,0.9-1.2,0.9l0.4,1l4.3-3.7L25,58.9
			l-5.6-0.3L19.7,59.4z"/>
		<path class="st2" d="M22,59.6c0.3,0,1.5,0.1,1.9,0.1c-0.4,0.3-1.3,1.1-1.5,1.3C22.3,60.6,22,59.8,22,59.6z"/>
		<path class="st3" d="M21.9,65.3l1,1.7c0.3,0.6,0.8,0.9,1.4,1.1c0.7,0.2,1.5,0.1,2.2-0.4c0.6-0.4,1.1-0.9,1.2-1.6
			c0.1-0.6,0.1-1.2-0.4-1.8l-1-1.7L21.9,65.3z"/>
		<path class="st2" d="M26.2,63.8c0.1,0.1,0.4,0.6,0.4,0.6c0.1,0.3,0.3,0.6,0.3,1c0,0.4-0.3,0.9-1,1.4c-1.5,0.9-2.2,0.1-2.4-0.4
			c0,0-0.4-0.6-0.5-0.9C23.2,65.6,26,63.9,26.2,63.8z"/>
		<path class="st3" d="M25.7,71.2l0.6,0.6c0,0,1.9-1.8,2.5-2.5c-0.4,0.9-1.4,3.1-1.4,3.1l0.6,0.6c0,0,2.2-1,3.1-1.4
			c-0.6,0.6-2.5,2.4-2.5,2.4l0.6,0.6l3.7-3.7l-0.7-0.8c0,0-3,1.4-3.6,1.7c0.3-0.5,1.7-3.5,1.7-3.5l-0.8-0.9L25.7,71.2z"/>
		<polygon class="st3" points="31.3,76.2 32,76.8 35.1,72.4 34.3,71.9 		"/>
		<path class="st3" d="M34.3,78.2l0.7,0.4c0,0,1.3-2.7,1.6-3.3c0.1,0.7,0.6,4.3,0.6,4.3l0.8,0.4l2.2-4.8l-0.8-0.4
			c0,0-1.2,2.7-1.5,3.3c-0.1-0.6-0.6-4.3-0.6-4.3l-0.8-0.4L34.3,78.2z"/>
		<polygon class="st3" points="40.5,80.8 41.4,81 42.8,76 42,75.7 		"/>
		<path class="st3" d="M44.2,77.7c-0.1,0.8,0.5,1.2,1.1,1.7c0.5,0.4,0.9,0.7,0.9,1.2c-0.1,0.4-0.5,0.6-0.9,0.6
			c-0.5-0.1-0.9-0.3-1.3-0.6l-0.1-0.1l-0.1,1h0.1c0.5,0.2,0.9,0.4,1.3,0.4c1.4,0.1,1.9-0.8,2-1.3c0.1-0.9-0.6-1.4-1.2-1.9
			c-0.5-0.4-0.9-0.6-0.9-1c0.1-0.2,0.3-0.6,0.8-0.5c0.4,0.1,0.7,0.2,1,0.4l0.3,0.1l0.1-0.9h-0.1c-0.4-0.2-0.7-0.4-1.2-0.4
			C44.9,76.3,44.3,77.1,44.2,77.7z"/>
		<path class="st3" d="M48.4,76.8l0.1,0.8c0,0,1.5-0.1,1.8-0.1c0,0.3,0.2,4.5,0.2,4.5l0.9-0.1c0,0-0.3-4.2-0.3-4.5
			c0.2,0,1.8-0.1,1.8-0.1l-0.1-0.8L48.4,76.8z"/>
		<path class="st3" d="M55.7,76L54,76.4l1.3,5.1l0.9-0.3c0,0-0.5-1.8-0.5-2c0.1-0.1,0.4-0.1,0.4-0.1c0.1,0.1,1.9,1.7,1.9,1.7
			l1.1-0.3c0,0-2.1-1.8-2.3-1.9c0.4-0.3,0.6-0.8,0.6-1.3c0-0.1,0-0.2,0-0.4c-0.1-0.4-0.4-0.6-0.6-0.8C56.5,75.8,55.9,75.9,55.7,76z"
			/>
		<path class="st2" d="M55.6,76.8c0.3-0.1,0.5-0.1,0.7,0.1c0.1,0.1,0.2,0.2,0.3,0.4c0,0.1,0,0.2,0,0.3c0,0.1,0,0.3-0.1,0.4
			c-0.1,0.2-0.4,0.4-0.9,0.5c0,0-0.1,0-0.1,0c-0.1-0.1-0.4-1.3-0.4-1.5C55.3,76.8,55.6,76.8,55.6,76.8z"/>
		<path class="st3" d="M60.1,74.4l0.4,5.7l0.7-0.4c0,0-0.1-1.4-0.1-1.5c0.1-0.1,1.7-0.8,1.8-0.9c0.1,0.1,1.2,1,1.2,1l0.9-0.4
			L60.8,74L60.1,74.4z"/>
		<path class="st2" d="M60.9,75.4c0.3,0.3,1.2,1.2,1.4,1.3c-0.3,0.1-1.1,0.5-1.3,0.6C61.1,77.1,60.9,75.8,60.9,75.4z"/>
		<path class="st3" d="M62.9,73l0.4,0.6c0,0,1.2-0.9,1.4-1.1c0.1,0.2,2.7,3.6,2.7,3.6l0.7-0.6c0,0-2.5-3.4-2.7-3.5
			c0.1-0.1,1.4-1.1,1.4-1.1l-0.4-0.6L62.9,73z"/>
		<polygon class="st3" points="67.3,69.3 71.1,73 71.7,72.2 67.9,68.6 		"/>
		<path class="st3" d="M71.6,64.6c-0.6,0.1-1.1,0.4-1.5,1c-0.8,1.2-0.4,2.6,0.9,3.5c0.7,0.5,1.4,0.7,2.2,0.6c0.6-0.1,1.1-0.4,1.4-1
			c0.4-0.6,0.6-1.2,0.4-1.7c-0.1-0.7-0.6-1.4-1.3-1.9C73.1,64.7,72.3,64.5,71.6,64.6z"/>
		<g>
			<path class="st2" d="M71.6,68.3c-0.4-0.2-0.9-0.7-1-1.3c-0.1-0.4,0-0.7,0.2-1c0.2-0.4,0.5-0.5,0.9-0.6c0.6-0.1,1.3,0.2,1.6,0.4
				c0.5,0.4,1.6,1.3,0.9,2.4C73.3,69.4,72.1,68.7,71.6,68.3l1.8-2.6L71.6,68.3z"/>
		</g>
		<path class="st3" d="M73.6,58.8l-0.2,0.6c0,0,2.7,1.1,3.4,1.4c-0.6,0.1-4.2,0.9-4.2,0.9l-0.4,0.8l4.9,1.9l0.4-0.7
			c0,0-2.8-1.2-3.5-1.4c0.7-0.1,4.3-0.9,4.3-0.9l0.3-0.8l-4.9-1.9L73.6,58.8z"/>
		<polygon class="st3" points="75.2,50.6 76.7,50.6 77.1,49.2 77.5,50.6 79,50.6 77.8,51.4 78.3,52.8 77.1,51.9 76,52.8 76.4,51.4 
					"/>
		<polygon class="st3" points="19.4,50.6 20.9,50.6 21.3,49.2 21.7,50.6 23.2,50.6 22,51.4 22.5,52.8 21.3,51.9 20.2,52.8 
			20.6,51.4 		"/>
		<path class="st5" d="M68.9,56.9c0.2-0.9,0.4-1.8,0.6-2.7c0,0,0-0.1,0-0.1c0.5-3.8-0.1-7.5-1.5-10.9c0,0,0,0,0,0
			c-2.4-5.4-7.1-9.8-13.2-11.5c-5.2-1.5-10.6-0.7-15,1.6c0,0,0,0,0,0c-0.1,0.1-0.2,0.1-0.4,0.2l0,0c0,0,0,0,0,0
			c-4.6,2.6-8.3,6.9-9.8,12.4c-1.9,7,0,14.1,4.4,19.1l0,0c0,0,0,0,0,0c2.5,2.8,5.8,5,9.8,6.1c3.1,0.9,6.2,1,9.1,0.4c0,0,0.1,0,0.1,0
			C60.4,70.2,66.7,64.7,68.9,56.9z M68.3,56.8c-0.7,2.6-1.9,4.9-3.6,7c-0.2,0.2-0.3,0.4-0.5,0.6c-0.1,0.1-1.5,1.3-3.9,2.5
			c-0.2,0.1-0.4,0.2-0.6,0.3c0.1-0.1,0.3-0.3,0.4-0.4c1.8-1.8,3.1-3.8,4.1-6c0.2-0.4,0.4-0.9,0.5-1.3c1.6-1.1,2.8-2.2,3.6-3.3
			C68.4,56.3,68.4,56.5,68.3,56.8z M41.7,68.9c1,0.3,2.1,0.5,3.3,0.7c0.5,0.6,0.9,1.1,1.3,1.4c-0.7-0.1-1.4-0.2-2.1-0.4
			C44.1,70.5,43.1,70,41.7,68.9z M32.9,51.2c0.1-1.3,0.3-2.6,0.6-3.8c0.3,0.2,0.6,0.5,0.9,0.7c1.4,1,3,1.8,4.8,2.4
			c-0.1,0.6-0.1,1.1-0.1,1.7c-0.1,2.8,0.3,5.6,1.1,8.3c0.1,0.3,0.2,0.7,0.3,1c-0.4-0.1-0.9-0.2-1.3-0.4c-2.1-0.7-4-1.6-5.5-2.6
			C33,56.1,32.7,53.7,32.9,51.2z M38.9,36.2c-0.2-1,0.4-1.9,0.7-2.1c0.1-0.1,0.2-0.1,0.3-0.2c0.8-0.3,4.2-0.6,7-0.6
			c-2.2,0.6-5,1.8-7.6,3.8C39.1,36.8,38.9,36.5,38.9,36.2z M64.3,58.9c-0.2,0.1-0.4,0.2-0.5,0.3c-1.4,0.9-3.5,1.8-6.2,2.5
			c0.2-0.5,0.4-1,0.5-1.4c0.9-2.6,1.2-5.1,1.1-7.6c0-0.7-0.1-1.3-0.2-2c0.9-0.2,1.6-0.5,2.4-0.7c1.3-0.5,2.4-1.1,3.3-1.7
			c0.3,1.2,0.4,2.4,0.5,3.7C65.4,54.4,65,56.7,64.3,58.9z M55.1,40.3c0,0.1,0.1,0.1,0.1,0.2c-1.5,0.1-3.3,0.1-5.3-0.1
			c-2.4-0.2-4.2-0.5-5.7-0.8c0.6-0.8,1.2-1.6,1.9-2.4c1.3-1.5,2.6-2.7,3.6-3.6C51.1,34.9,53.2,37.1,55.1,40.3z M40.3,50.8
			c0.1,0,0.3,0.1,0.4,0.1c3,0.8,6.4,1.1,10.2,0.9c2.8-0.2,5.3-0.5,7.5-1c0.1,0.6,0.1,1.2,0.2,1.8c0.1,2.4-0.2,4.9-1.1,7.4
			c-0.2,0.6-0.4,1.2-0.7,1.8c-2.2,0.5-4.8,0.8-7.8,0.7c-2.8-0.1-5.4-0.4-7.7-0.9c-0.2-0.5-0.3-0.9-0.5-1.4c-0.8-2.6-1.2-5.3-1.1-8.1
			c0-0.5,0-1,0.1-1.5C40,50.7,40.2,50.8,40.3,50.8z M58.3,36.8c-2.2-1.7-4.6-2.7-6.3-3.4c3.5,0.1,7.1,0.9,7.5,1
			c0.7,0.4,1.4,0.9,2.1,1.5c2,1.6,3.7,3.5,4.9,5.8c0.3,0.5,0.6,1.1,0.8,1.7c0,0.4-0.2,1.6-1.4,2.9c-0.2,0.3-0.5,0.5-0.7,0.7
			c-0.4-1.5-1-2.9-1.7-4.3c-1-1.9-2.4-3.6-4.1-5.1L58.7,38c1.7,1.5,3.2,3.2,4.2,5.1c0.7,1.4,1.3,2.8,1.7,4.4
			c-1.5,1.1-3.5,1.9-5.6,2.5c-0.4-2.8-1.1-5.4-2.2-7.8l-0.6,0.2c1.1,2.4,1.8,5,2.2,7.7c-2.5,0.6-5.1,0.9-7.4,1
			c-3.7,0.2-7.1-0.1-10-0.8c-0.3-0.1-0.7-0.2-1-0.3c0.3-2.2,0.9-4.4,1.9-6.4c0.5-1.2,1.2-2.3,1.9-3.5c1.6,0.4,3.5,0.7,6,0.9
			c2.2,0.2,5.9-0.9,5.8-1.1c-1.6-2.8-3.4-4.8-4.9-6.2c1.8,0.5,4.5,1.6,7.1,3.5C58,37.2,58.2,37,58.3,36.8z M40.2,37.3
			c2.9-2.2,6.1-3.3,8.4-3.7c-0.9,0.8-2,1.9-3.1,3.1c-0.8,0.9-1.4,1.8-2.1,2.7c-1.9-0.5-3-1.1-3.7-1.7C39.9,37.5,40,37.4,40.2,37.3z
			 M43.1,40c-0.7,1.1-1.3,2.2-1.9,3.4c-1,2.1-1.6,4.3-1.9,6.5c-1.7-0.6-3.2-1.3-4.5-2.2c-0.4-0.3-0.8-0.6-1.1-0.9
			c0.4-1.4,1-2.8,1.7-4.1c1-1.8,2.3-3.3,3.9-4.7C40,38.7,41.2,39.4,43.1,40z M39.1,61.7c0.3,0.1,0.6,0.2,0.9,0.3
			c0.3,0.1,0.6,0.2,0.8,0.2c0.6,1.5,1.3,3,2.1,4.4c0.5,0.9,1,1.6,1.5,2.3c-1.6-0.3-2.9-0.6-4.1-1c-0.7-0.6-1.5-1.4-2.3-2.2
			c-1.7-1.9-3.1-3.9-4-6.1c0,0,0-0.1-0.1-0.1C35.6,60.4,37.3,61.1,39.1,61.7z M46,69.7c0.9,0.1,1.9,0.2,2.9,0.2c0.9,0,1.8,0,2.7-0.1
			c-0.7,0.7-1.2,1.2-1.4,1.4c-1,0.1-1.9,0-2.9-0.1C47.2,71,46.7,70.5,46,69.7z M48.9,69.3c-1.3,0-2.4-0.1-3.5-0.3
			c-0.6-0.7-1.2-1.6-1.9-2.7c-0.8-1.3-1.4-2.6-1.9-3.9c2.3,0.5,4.7,0.8,7.4,0.8c2.9,0.1,5.4-0.2,7.5-0.6c-0.5,1.1-1.2,2.3-1.9,3.4
			c-0.8,1.3-1.7,2.3-2.4,3.2C51.2,69.2,50.1,69.3,48.9,69.3z M55.1,66.3c0.8-1.3,1.6-2.6,2.1-3.9c2.9-0.7,5.1-1.6,6.7-2.6
			c-0.1,0.2-0.1,0.4-0.2,0.5c-0.9,2.1-2.2,4.1-3.9,5.9c-0.6,0.6-1.2,1.1-1.7,1.6c-1.4,0.5-3,0.9-4.9,1.2
			C53.8,68.2,54.5,67.3,55.1,66.3z M68.9,54.1c-0.5,1.4-2,3-3.7,4.2c0.6-2,0.8-4.2,0.7-6.4c-0.1-1.4-0.2-2.8-0.5-4.1
			c0.4-0.3,0.7-0.7,1.1-1c0.8-0.9,1.1-1.7,1.3-2.3c0.5,1.4,0.9,2.9,1.1,4.4C69.1,50.6,69.1,52.4,68.9,54.1z M57.5,33.4
			c-1.8-0.3-4.5-0.7-6.9-0.6c0.7-0.5,1.2-0.9,1.4-1c0.9,0.1,1.7,0.3,2.6,0.5C55.6,32.6,56.6,33,57.5,33.4z M49.6,32.8
			c-0.6-0.5-1.1-0.8-1.5-1.1c1-0.1,2,0,2.9,0C50.6,32,50.2,32.3,49.6,32.8z M46.7,31.8c0.1,0,0.1,0,0.2,0c0.2,0.1,0.8,0.4,1.6,1
			c-1.6-0.1-3.6,0-4.5,0c-0.6,0-1.3,0.1-1.9,0.1C43.6,32.4,45.1,32,46.7,31.8z M38.3,34.9c-0.1,0.4-0.2,1-0.1,1.5
			c0.1,0.4,0.3,0.8,0.6,1.2c-2.4,2-4.5,4.9-5.7,8.7c-0.6-0.6-1.1-1.1-1.4-1.5c-0.5-0.6-0.7-1-0.8-1.2c0.7-1.6,1.6-3.1,2.7-4.5
			C35,37.5,36.6,36,38.3,34.9z M30.7,44.3c0.4,0.6,1.1,1.6,2.3,2.7c-0.4,1.3-0.6,2.7-0.7,4.2c-0.2,2.3,0,4.5,0.6,6.6
			c-2.4-1.9-3.3-3.8-3.4-4.2c-0.3-2.5-0.1-5,0.6-7.5C30.3,45.5,30.5,44.9,30.7,44.3z M29.8,55.5c0.6,0.9,1.7,2.1,3.2,3.2
			c0.1,0.1,0.2,0.1,0.2,0.2c0.1,0.3,0.3,0.7,0.4,1c0.9,2.2,2.3,4.3,4.1,6.3c0.4,0.4,0.7,0.8,1.1,1.1c-0.3-0.1-0.6-0.3-0.9-0.4
			c-2.2-1.1-3.4-2.1-3.5-2.2c-0.9-1-1.8-2.2-2.4-3.4C30.9,59.4,30.2,57.5,29.8,55.5z M37.6,67.4c0.7,0.3,1.5,0.7,2.5,1
			c0.6,0.6,1.3,1,1.8,1.4c-1.6-0.6-3.2-1.5-4.6-2.6C37.4,67.3,37.5,67.4,37.6,67.4z M51.3,71.1c0.3-0.3,0.8-0.8,1.3-1.4
			c1.1-0.1,2.1-0.3,3.2-0.5c0.3-0.1,0.6-0.1,0.8-0.2c-1.7,1.2-3.2,1.8-3.7,1.9c-0.4,0.1-0.7,0.1-1.1,0.2
			C51.6,71.1,51.4,71.1,51.3,71.1z M56.2,70c0.7-0.4,1.4-1,2.2-1.6c0.8-0.3,1.5-0.6,2.3-1c0.3-0.1,0.5-0.3,0.8-0.4
			c-0.8,0.6-1.6,1.2-2.5,1.6C58.1,69.2,57.1,69.6,56.2,70z"/>
		<path class="st1" d="M49.2,52.1l24.6-0.6l-0.1-0.2l-6.7-0.6l-9.6-0.9l-5.1-0.4c1.1-1,1.2-2,1.2-2c-0.6,0.3-1.2,0.4-1.4,0.4
			c-0.6,0.1-0.8-0.1-0.8-0.1s0.4,0,0.8-0.1c0.6-0.1,1.5-0.4,2.2-0.9c0.3-0.2,0.5-0.4,0.6-0.6c0.7-0.8,0.6-1.5,0.6-1.5
			c-0.2,0.1-0.4,0.1-0.6,0.2c-1.3,0.5-2.6,0.6-2.6,0.6s0-0.1,0.1-0.1c0.9-0.2,1.8-0.5,2.5-0.8c0.5-0.3,0.9-0.5,1.2-0.6
			c0.2-0.1,0.4-0.3,0.5-0.4c0,0,0.5-0.5,0.4-0.5c0.3-0.4,0.4-0.7,0.4-1c-1,0.4-1.9,0.6-2.6,0.7c-0.4,0-0.6,0-0.6,0s0,0,0.1-0.1
			c0.1,0,0.2,0,0.2,0c0.1-0.1,0.2-0.1,0.3-0.1c1-0.3,1.9-0.6,2.6-0.9c0.3-0.1,0.6-0.2,0.8-0.4c0.8-0.4,1.3-0.9,1.5-1
			c0.2-0.3,0.4-0.6,0.4-0.9c0,0,0,0,0,0l0,0c0-0.1,0-0.1,0-0.2c0,0,0,0,0,0c0-0.1,0-0.2-0.1-0.2c0,0,0,0,0,0c0,0,0,0-0.1,0
			c0,0-0.1,0-0.1,0.1c0,0,0,0,0,0c-0.5,0.4-1.1,0.6-1.7,0.9c-0.3,0.1-0.5,0.2-0.8,0.3c-1.3,0.5-2.4,0.6-2.4,0.6v-0.1
			c0.9-0.2,1.7-0.5,2.4-0.8c0.3-0.1,0.6-0.2,0.8-0.3c0.5-0.3,1-0.5,1.4-0.7c0,0,0,0,0,0c0.2-0.1,0.4-0.2,0.7-0.4c0,0,0,0,0,0
			c0.2-0.1,0.4-0.4,0.6-0.5c0.3-0.2,0.4-0.4,0.6-0.7c0,0,0.1-0.1,0.1-0.1c0.1-0.2,0.2-0.4,0.2-0.6c0,0,0,0,0,0c0,0,0-0.1,0-0.1
			c0,0,0-0.1,0-0.1c0-0.1-0.1-0.1-0.1-0.2c0,0,0,0,0,0c0,0-0.1-0.1-0.2-0.1c0,0-0.1,0-0.1,0c0,0,0,0,0,0c-0.2,0.1-0.4,0.4-0.6,0.5
			c-0.9,0.6-1.9,1.1-2.7,1.4c-0.3,0.1-0.5,0.2-0.8,0.3c-0.6,0.2-1.1,0.4-1.2,0.4c0,0,0-0.1,0-0.1c0.4-0.2,0.8-0.4,1.2-0.6
			c0.3-0.1,0.6-0.2,0.8-0.4c1.1-0.5,1.9-1,2.7-1.6c0.1-0.1,0.2-0.1,0.2-0.1c0,0,0,0,0,0c0.2-0.2,0.4-0.4,0.7-0.5c0,0,0,0,0,0
			c0.7-0.6,1.3-1.2,1.8-1.9c0.5-0.7,0.3-1.3,0.3-1.3c-0.8,0.5-1.6,1-2.3,1.4c-0.2,0.1-0.4,0.2-0.6,0.4c-0.2,0.1-2.2,1-2.7,1.2
			c-0.2,0.1-0.5,0.2-0.8,0.3c-0.2,0.1-2.3,0.6-2.6,0.7c-0.6,0.2-2,0.5-2,0.4c-0.2,0.1-3.1,0.8-3.6,0.9V26.8l-0.2,0.1l-0.9,10.9
			c0,0,0,0-0.1,0c-0.2,0.1-0.4,0.2-0.6,0.3c-0.4,0.1-0.7,0.4-1,0.5c-0.6,0.4-1.1,0.8-1.4,1.2c0,0-0.3,0.3-0.4,0.6
			c-0.6,1.3-0.3,2.7,0.2,4.1c0.7,2.2,1.8,4.2,0,4.9c-0.1,0-9.4,0.9-9.4,0.9l-10.7,0.9l-0.1,0.1l23.9,0.7l-0.4,0.4l-0.6,0.7l-0.4,0.4
			l1,12L49.1,76l0.1,0.1V52.1z"/>
		<polygon class="st1" points="57.4,41.8 57.4,41.8 57.4,41.8 		"/>
		<polygon class="st0" points="49.4,26.8 50.3,37.1 49.3,37.4 49.3,26.8 		"/>
		<polygon class="st0" points="47.1,53.5 24.7,51.6 24.6,51.4 73.8,51.5 73.8,51.6 51.4,53.5 49.4,76 49.2,76.1 49.2,51.5 		"/>
		<path class="st0" d="M53.4,38.9L53.4,38.9c0,0-5.6-0.1-7.1,4c0,0,0,0.1,0,0.2c0,0.1,0,0.4,0,0.4s0.6-3.4,6-4
			C52.4,39.5,53,39.4,53.4,38.9z"/>
		<path class="st0" d="M52,41.1C52,41,52,41,52,41.1c0-0.1-4.2,0-5.2,3.2c0,0-0.1,0.1,0,0.1c0,0.1,0,0.3,0,0.3s0.4-2.5,4.5-3.2
			C51.3,41.6,51.8,41.5,52,41.1z"/>
		<path class="st0" d="M50.9,43.2C50.9,43.1,50.9,43.1,50.9,43.2c0-0.1-3.1,0.2-3.6,2.6c0,0,0,0.1,0,0.1c0,0.1,0,0.2,0,0.2
			s0.4-1.9,3-2.5C50.2,43.6,50.7,43.5,50.9,43.2z"/>
	</g>
</g>
</svg>
