<svg xmlns="http://www.w3.org/2000/svg" width="8in" height="8in" viewBox="0 0 1 1" preserveAspectRatio="none">
   <style>
    @media (prefers-color-scheme: dark) {
      .hd { opacity: 0 }
    }
    </style>
    <path class="hd" style="fill:#fff;fill-opacity:1;fill-rule:evenodd;stroke:#fff;stroke-width:0;stroke-linecap:round;stroke-linejoin:round;stroke-miterlimit:10.43299961;stroke-dasharray:none;stroke-opacity:1" d="M1.214.504a.05.057 0 1 1-.1 0 .05.057 0 1 1 .1 0z" transform="matrix(9.94737 0 0 8.7907 -11.079 -3.93)"/>
    <path style="font-style:normal;font-variant:normal;font-weight:400;font-stretch:normal;letter-spacing:normal;word-spacing:normal;text-anchor:start;fill:red;fill-opacity:1;stroke:red;stroke-width:0;stroke-linecap:butt;stroke-linejoin:miter;stroke-miterlimit:10.43299961;stroke-dasharray:none;stroke-dashoffset:0;stroke-opacity:1" d="M.315.843.29.883l-.026.04L.243.91.26.85A.83.83 0 0 1 .23.9L.213.89.266.81l.02.013-.019.06.011-.02A.393.393 0 0 1 .29.846L.299.832l.016.011z"/>
    <path style="font-style:normal;font-variant:normal;font-weight:400;font-stretch:normal;letter-spacing:normal;word-spacing:normal;text-anchor:start;fill:none;fill-opacity:1;stroke:red;stroke-width:.00007615;stroke-linecap:butt;stroke-linejoin:miter;stroke-miterlimit:10.43299961;stroke-dasharray:none;stroke-dashoffset:0;stroke-opacity:1" d="M.315.843.29.883l-.026.04L.243.91.26.85A.83.83 0 0 1 .23.9L.213.89.266.81l.02.013-.019.06.011-.02A.393.393 0 0 1 .29.846L.299.832l.016.011z"/>
    <path style="font-style:normal;font-variant:normal;font-weight:400;font-stretch:normal;letter-spacing:normal;word-spacing:normal;text-anchor:start;fill:red;fill-opacity:1;stroke:red;stroke-width:0;stroke-linecap:butt;stroke-linejoin:miter;stroke-miterlimit:10.43299961;stroke-dasharray:none;stroke-dashoffset:0;stroke-opacity:1" d="m.174.709-.033.02-.033.018.009.016L.1.772.07.721.087.71l.01.017L.163.69l.011.019z"/>
    <path style="font-style:normal;font-variant:normal;font-weight:400;font-stretch:normal;letter-spacing:normal;word-spacing:normal;text-anchor:start;fill:none;fill-opacity:1;stroke:red;stroke-width:.00007615;stroke-linecap:butt;stroke-linejoin:miter;stroke-miterlimit:10.43299961;stroke-dasharray:none;stroke-dashoffset:0;stroke-opacity:1" d="m.174.709-.033.02-.033.018.009.016L.1.772.07.721.087.71l.01.017L.163.69l.011.019z"/>
    <path style="font-style:normal;font-variant:normal;font-weight:400;font-stretch:normal;letter-spacing:normal;word-spacing:normal;text-anchor:start;fill:red;fill-opacity:1;stroke:red;stroke-width:0;stroke-linecap:butt;stroke-linejoin:miter;stroke-miterlimit:10.43299961;stroke-dasharray:none;stroke-dashoffset:0;stroke-opacity:1" d="M.142.644.096.659.051.675.044.653l.09-.03.008.02z"/>
    <path style="font-style:normal;font-variant:normal;font-weight:400;font-stretch:normal;letter-spacing:normal;word-spacing:normal;text-anchor:start;fill:none;fill-opacity:1;stroke:red;stroke-width:.00007615;stroke-linecap:butt;stroke-linejoin:miter;stroke-miterlimit:10.43299961;stroke-dasharray:none;stroke-dashoffset:0;stroke-opacity:1" d="M.142.644.096.659.051.675.044.653l.09-.03.008.02z"/>
    <path style="font-style:normal;font-variant:normal;font-weight:400;font-stretch:normal;letter-spacing:normal;word-spacing:normal;text-anchor:start;fill:red;fill-opacity:1;stroke:red;stroke-width:0;stroke-linecap:butt;stroke-linejoin:miter;stroke-miterlimit:10.43299961;stroke-dasharray:none;stroke-dashoffset:0;stroke-opacity:1" d="M.115.492.068.487.02.482.023.46l.06-.012L.058.446.039.445.025.443c0-.007 0-.013.002-.02l.095.01-.003.023L.057.47H.08A.38.38 0 0 1 .1.471l.016.001-.002.02z"/>
    <path style="font-style:normal;font-variant:normal;font-weight:400;font-stretch:normal;letter-spacing:normal;word-spacing:normal;text-anchor:start;fill:none;fill-opacity:1;stroke:red;stroke-width:.00007615;stroke-linecap:butt;stroke-linejoin:miter;stroke-miterlimit:10.43299961;stroke-dasharray:none;stroke-dashoffset:0;stroke-opacity:1" d="M.115.492.068.487.02.482.023.46l.06-.012L.058.446.039.445.025.443c0-.007 0-.013.002-.02l.095.01-.003.023L.057.47H.08A.38.38 0 0 1 .1.471l.016.001-.002.02z"/>
    <path style="font-style:normal;font-variant:normal;font-weight:400;font-stretch:normal;letter-spacing:normal;word-spacing:normal;text-anchor:start;fill:red;fill-opacity:1;stroke:red;stroke-width:0;stroke-linecap:butt;stroke-linejoin:miter;stroke-miterlimit:10.43299961;stroke-dasharray:none;stroke-dashoffset:0;stroke-opacity:1" d="m.19.276-.012.02-.014.021-.08-.051.012-.019.064.041.015-.022.016.01z"/>
    <path style="font-style:normal;font-variant:normal;font-weight:400;font-stretch:normal;letter-spacing:normal;word-spacing:normal;text-anchor:start;fill:none;fill-opacity:1;stroke:red;stroke-width:.00007615;stroke-linecap:butt;stroke-linejoin:miter;stroke-miterlimit:10.43299961;stroke-dasharray:none;stroke-dashoffset:0;stroke-opacity:1" d="m.19.276-.012.02-.014.021-.08-.051.012-.019.064.041.015-.022.016.01z"/>
    <path style="font-style:normal;font-variant:normal;font-weight:400;font-stretch:normal;letter-spacing:normal;word-spacing:normal;text-anchor:start;fill:red;fill-opacity:1;stroke:red;stroke-width:0;stroke-linecap:butt;stroke-linejoin:miter;stroke-miterlimit:10.43299961;stroke-dasharray:none;stroke-dashoffset:0;stroke-opacity:1" d="M.26.204.227.17.191.136.21.123l.03.035.008.01.006.007L.25.165a.212.212 0 0 1-.005-.01L.224.114.242.101A46.842 46.842 0 0 1 .29.15L.282.142.278.132.256.09.274.08l.039.09-.02.013-.027-.03L.26.144a.235.235 0 0 1-.008-.01l.007.011.005.01L.28.19a4.11 4.11 0 0 1-.02.014z"/>
    <path style="font-style:normal;font-variant:normal;font-weight:400;font-stretch:normal;letter-spacing:normal;word-spacing:normal;text-anchor:start;fill:none;fill-opacity:1;stroke:red;stroke-width:.00007615;stroke-linecap:butt;stroke-linejoin:miter;stroke-miterlimit:10.43299961;stroke-dasharray:none;stroke-dashoffset:0;stroke-opacity:1" d="M.26.204.227.17.191.136.21.123l.03.035.008.01.006.007L.25.165a.212.212 0 0 1-.005-.01L.224.114.242.101A46.842 46.842 0 0 1 .29.15L.282.142.278.132.256.09.274.08l.039.09-.02.013-.027-.03L.26.144a.235.235 0 0 1-.008-.01l.007.011.005.01L.28.19a4.11 4.11 0 0 1-.02.014z"/>
    <path style="font-style:normal;font-variant:normal;font-weight:400;font-stretch:normal;letter-spacing:normal;word-spacing:normal;text-anchor:start;fill:red;fill-opacity:1;stroke:red;stroke-width:0;stroke-linecap:butt;stroke-linejoin:miter;stroke-miterlimit:10.43299961;stroke-dasharray:none;stroke-dashoffset:0;stroke-opacity:1" d="M.354.149.338.104.323.059l.05-.017.005.018L.35.07l.006.016.025-.01.007.019-.026.009.006.02.028-.01.007.018-.05.017z"/>
    <path style="font-style:normal;font-variant:normal;font-weight:400;font-stretch:normal;letter-spacing:normal;word-spacing:normal;text-anchor:start;fill:none;fill-opacity:1;stroke:red;stroke-width:.00007615;stroke-linecap:butt;stroke-linejoin:miter;stroke-miterlimit:10.43299961;stroke-dasharray:none;stroke-dashoffset:0;stroke-opacity:1" d="M.354.149.338.104.323.059l.05-.017.005.018L.35.07l.006.016.025-.01.007.019-.026.009.006.02.028-.01.007.018-.05.017z"/>
    <path style="font-style:normal;font-variant:normal;font-weight:400;font-stretch:normal;letter-spacing:normal;word-spacing:normal;text-anchor:start;fill:red;fill-opacity:1;stroke:red;stroke-width:0;stroke-linecap:butt;stroke-linejoin:miter;stroke-miterlimit:10.43299961;stroke-dasharray:none;stroke-dashoffset:0;stroke-opacity:1" d="M.539.123.543.085.547.046A1.38 1.38 0 0 1 .529.044L.531.026.59.032.588.051.569.049.561.125.539.123z"/>
    <path style="font-style:normal;font-variant:normal;font-weight:400;font-stretch:normal;letter-spacing:normal;word-spacing:normal;text-anchor:start;fill:none;fill-opacity:1;stroke:red;stroke-width:.00007615;stroke-linecap:butt;stroke-linejoin:miter;stroke-miterlimit:10.43299961;stroke-dasharray:none;stroke-dashoffset:0;stroke-opacity:1" d="M.539.123.543.085.547.046A1.38 1.38 0 0 1 .529.044L.531.026.59.032.588.051.569.049.561.125.539.123z"/>
    <path style="font-style:normal;font-variant:normal;font-weight:400;font-stretch:normal;letter-spacing:normal;word-spacing:normal;text-anchor:start;fill:red;fill-opacity:1;stroke:red;stroke-width:0;stroke-linecap:butt;stroke-linejoin:miter;stroke-miterlimit:10.43299961;stroke-dasharray:none;stroke-dashoffset:0;stroke-opacity:1" d="M.608.134.626.09.643.046l.02.008a7.785 7.785 0 0 1-.012.033l.016.007L.681.06.7.068.666.157a5.798 5.798 0 0 1-.02-.008L.66.112A1.36 1.36 0 0 1 .643.106L.63.142A1.922 1.922 0 0 1 .61.134z"/>
    <path style="font-style:normal;font-variant:normal;font-weight:400;font-stretch:normal;letter-spacing:normal;word-spacing:normal;text-anchor:start;fill:none;fill-opacity:1;stroke:red;stroke-width:.00007615;stroke-linecap:butt;stroke-linejoin:miter;stroke-miterlimit:10.43299961;stroke-dasharray:none;stroke-dashoffset:0;stroke-opacity:1" d="M.608.134.626.09.643.046l.02.008a7.785 7.785 0 0 1-.012.033l.016.007L.681.06.7.068.666.157a5.798 5.798 0 0 1-.02-.008L.66.112A1.36 1.36 0 0 1 .643.106L.63.142A1.922 1.922 0 0 1 .61.134z"/>
    <path style="font-style:normal;font-variant:normal;font-weight:400;font-stretch:normal;letter-spacing:normal;word-spacing:normal;text-anchor:start;fill:red;fill-opacity:1;stroke:red;stroke-width:0;stroke-linecap:butt;stroke-linejoin:miter;stroke-miterlimit:10.43299961;stroke-dasharray:none;stroke-dashoffset:0;stroke-opacity:1" d="m.696.174.028-.04L.75.097l.043.03-.01.013L.759.124a2.8 2.8 0 0 0-.01.014L.77.154.76.169A5.159 5.159 0 0 0 .737.154L.726.17.75.188.739.204.696.174z"/>
    <path style="font-style:normal;font-variant:normal;font-weight:400;font-stretch:normal;letter-spacing:normal;word-spacing:normal;text-anchor:start;fill:none;fill-opacity:1;stroke:red;stroke-width:.00007615;stroke-linecap:butt;stroke-linejoin:miter;stroke-miterlimit:10.43299961;stroke-dasharray:none;stroke-dashoffset:0;stroke-opacity:1" d="m.696.174.028-.04L.75.097l.043.03-.01.013L.759.124a2.8 2.8 0 0 0-.01.014L.77.154.76.169A5.159 5.159 0 0 0 .737.154L.726.17.75.188.739.204.696.174z"/>
    <path style="font-style:normal;font-variant:normal;font-weight:400;font-stretch:normal;letter-spacing:normal;word-spacing:normal;text-anchor:start;fill:red;fill-opacity:1;stroke:red;stroke-width:0;stroke-linecap:butt;stroke-linejoin:miter;stroke-miterlimit:10.43299961;stroke-dasharray:none;stroke-dashoffset:0;stroke-opacity:1" d="m.886.338.007.02H.89a.024.024 0 0 0-.01.006C.878.365.878.368.879.37c0 .003.002.004.004.005H.89C.894.373.897.369.9.36V.358A.067.067 0 0 1 .909.336a.031.031 0 0 1 .015-.01.026.026 0 0 1 .021 0c.006.004.01.01.013.017.003.01.003.017 0 .023A.026.026 0 0 1 .94.38H.937L.931.363a.018.018 0 0 0 .01-.005.006.006 0 0 0 0-.007.007.007 0 0 0-.003-.004.01.01 0 0 0-.006 0c-.004 0-.007.005-.01.014v.006a.051.051 0 0 1-.008.018.026.026 0 0 1-.006.005A.036.036 0 0 1 .9.394C.89.397.883.397.876.394A.038.038 0 0 1 .862.376a.045.045 0 0 1 0-.023C.866.347.872.343.882.34h.001L.886.338z"/>
    <path style="font-style:normal;font-variant:normal;font-weight:400;font-stretch:normal;letter-spacing:normal;word-spacing:normal;text-anchor:start;fill:none;fill-opacity:1;stroke:red;stroke-width:.00007615;stroke-linecap:butt;stroke-linejoin:miter;stroke-miterlimit:10.43299961;stroke-dasharray:none;stroke-dashoffset:0;stroke-opacity:1" d="m.886.338.007.02H.89a.024.024 0 0 0-.01.006C.878.365.878.368.879.37c0 .003.002.004.004.005H.89C.894.373.897.369.9.36V.358A.067.067 0 0 1 .909.336a.031.031 0 0 1 .015-.01.026.026 0 0 1 .021 0c.006.004.01.01.013.017.003.01.003.017 0 .023A.026.026 0 0 1 .94.38H.937L.931.363a.018.018 0 0 0 .01-.005.006.006 0 0 0 0-.007.007.007 0 0 0-.003-.004.01.01 0 0 0-.006 0c-.004 0-.007.005-.01.014v.006a.051.051 0 0 1-.008.018.026.026 0 0 1-.006.005A.036.036 0 0 1 .9.394C.89.397.883.397.876.394A.038.038 0 0 1 .862.376a.045.045 0 0 1 0-.023C.866.347.872.343.882.34h.001L.886.338z"/>
    <path style="font-style:normal;font-variant:normal;font-weight:400;font-stretch:normal;letter-spacing:normal;word-spacing:normal;text-anchor:start;fill:red;fill-opacity:1;stroke:red;stroke-width:0;stroke-linecap:butt;stroke-linejoin:miter;stroke-miterlimit:10.43299961;stroke-dasharray:none;stroke-dashoffset:0;stroke-opacity:1" d="M.879.436.926.431.973.425.98.477.961.479.958.45.94.453.943.48H.924A3.373 3.373 0 0 0 .921.454l-.02.002.003.03-.02.002L.88.436z"/>
    <path style="font-style:normal;font-variant:normal;font-weight:400;font-stretch:normal;letter-spacing:normal;word-spacing:normal;text-anchor:start;fill:none;fill-opacity:1;stroke:red;stroke-width:.00007615;stroke-linecap:butt;stroke-linejoin:miter;stroke-miterlimit:10.43299961;stroke-dasharray:none;stroke-dashoffset:0;stroke-opacity:1" d="M.879.436.926.431.973.425.98.477.961.479.958.45.94.453.943.48H.924A3.373 3.373 0 0 0 .921.454l-.02.002.003.03-.02.002L.88.436z"/>
    <path style="font-style:normal;font-variant:normal;font-weight:400;font-stretch:normal;letter-spacing:normal;word-spacing:normal;text-anchor:start;fill:red;fill-opacity:1;stroke:red;stroke-width:0;stroke-linecap:butt;stroke-linejoin:miter;stroke-miterlimit:10.43299961;stroke-dasharray:none;stroke-dashoffset:0;stroke-opacity:1" d="m.864.626.049.007L.96.64.953.662l-.05-.01L.894.65.883.647a.48.48 0 0 1 .062.035L.937.705.855.65l.01-.025z"/>
    <path style="font-style:normal;font-variant:normal;font-weight:400;font-stretch:normal;letter-spacing:normal;word-spacing:normal;text-anchor:start;fill:none;fill-opacity:1;stroke:red;stroke-width:.00007615;stroke-linecap:butt;stroke-linejoin:miter;stroke-miterlimit:10.43299961;stroke-dasharray:none;stroke-dashoffset:0;stroke-opacity:1" d="m.864.626.049.007L.96.64.953.662l-.05-.01L.894.65.883.647a.48.48 0 0 1 .062.035L.937.705.855.65l.01-.025z"/>
    <path style="font-style:normal;font-variant:normal;font-weight:400;font-stretch:normal;letter-spacing:normal;word-spacing:normal;text-anchor:start;fill:red;fill-opacity:1;stroke:red;stroke-width:0;stroke-linecap:butt;stroke-linejoin:miter;stroke-miterlimit:10.43299961;stroke-dasharray:none;stroke-dashoffset:0;stroke-opacity:1" d="m.833.697.041.024.041.024-.011.02L.82.716l.012-.02z"/>
    <path style="font-style:normal;font-variant:normal;font-weight:400;font-stretch:normal;letter-spacing:normal;word-spacing:normal;text-anchor:start;fill:none;fill-opacity:1;stroke:red;stroke-width:.00007615;stroke-linecap:butt;stroke-linejoin:miter;stroke-miterlimit:10.43299961;stroke-dasharray:none;stroke-dashoffset:0;stroke-opacity:1" d="m.833.697.041.024.041.024-.011.02L.82.716l.012-.02z"/>
    <path style="font-style:normal;font-variant:normal;font-weight:400;font-stretch:normal;letter-spacing:normal;word-spacing:normal;text-anchor:start;fill:red;fill-opacity:1;stroke:red;stroke-width:0;stroke-linecap:butt;stroke-linejoin:miter;stroke-miterlimit:10.43299961;stroke-dasharray:none;stroke-dashoffset:0;stroke-opacity:1" d="M.8.803.785.82.783.818s0-.002-.002-.002A.052.052 0 0 1 .768.792c0-.008.003-.015.01-.023A.036.036 0 0 1 .792.76.026.026 0 0 1 .806.759c.003 0 .007.002.012.006L.837.78A.167.167 0 0 1 .854.8.03.03 0 0 1 .86.81L.859.825A.036.036 0 0 1 .85.84a.035.035 0 0 1-.022.009C.82.85.812.846.803.838L.818.82a.033.033 0 0 0 .011.008c.003 0 .006 0 .008-.002C.84.824.84.82.84.817A.093.093 0 0 0 .822.8L.821.798A.101.101 0 0 0 .8.78C.797.779.794.78.79.782c0 .002-.002.005 0 .007A.03.03 0 0 0 .797.8.13.13 0 0 1 .8.803z"/>
    <path style="font-style:normal;font-variant:normal;font-weight:400;font-stretch:normal;letter-spacing:normal;word-spacing:normal;text-anchor:start;fill:none;fill-opacity:1;stroke:red;stroke-width:.00007615;stroke-linecap:butt;stroke-linejoin:miter;stroke-miterlimit:10.43299961;stroke-dasharray:none;stroke-dashoffset:0;stroke-opacity:1" d="M.8.803.785.82.783.818s0-.002-.002-.002A.052.052 0 0 1 .768.792c0-.008.003-.015.01-.023A.036.036 0 0 1 .792.76.026.026 0 0 1 .806.759c.003 0 .007.002.012.006L.837.78A.167.167 0 0 1 .854.8.03.03 0 0 1 .86.81L.859.825A.036.036 0 0 1 .85.84a.035.035 0 0 1-.022.009C.82.85.812.846.803.838L.818.82a.033.033 0 0 0 .011.008c.003 0 .006 0 .008-.002C.84.824.84.82.84.817A.093.093 0 0 0 .822.8L.821.798A.101.101 0 0 0 .8.78C.797.779.794.78.79.782c0 .002-.002.005 0 .007A.03.03 0 0 0 .797.8.13.13 0 0 1 .8.803z"/>
    <path style="font-style:normal;font-variant:normal;font-weight:400;font-stretch:normal;letter-spacing:normal;word-spacing:normal;text-anchor:start;fill:red;fill-opacity:1;stroke:red;stroke-width:0;stroke-linecap:butt;stroke-linejoin:miter;stroke-miterlimit:10.43299961;stroke-dasharray:none;stroke-dashoffset:0;stroke-opacity:1" d="m.73.814.026.04.026.04L.74.921.73.907.754.89a2.509 2.509 0 0 0-.01-.014L.72.89.711.875.732.86.722.843.697.859.687.843.728.814z"/>
    <path style="font-style:normal;font-variant:normal;font-weight:400;font-stretch:normal;letter-spacing:normal;word-spacing:normal;text-anchor:start;fill:none;fill-opacity:1;stroke:red;stroke-width:.00007615;stroke-linecap:butt;stroke-linejoin:miter;stroke-miterlimit:10.43299961;stroke-dasharray:none;stroke-dashoffset:0;stroke-opacity:1" d="m.73.814.026.04.026.04L.74.921.73.907.754.89a2.509 2.509 0 0 0-.01-.014L.72.89.711.875.732.86.722.843.697.859.687.843.728.814z"/>
    <path style="font-style:normal;font-variant:normal;font-weight:400;font-stretch:normal;letter-spacing:normal;word-spacing:normal;text-anchor:start;fill:#fff;fill-opacity:1;stroke:#fff;stroke-width:0;stroke-linecap:butt;stroke-linejoin:miter;stroke-miterlimit:10.43299961;stroke-dasharray:none;stroke-dashoffset:0;stroke-opacity:1" d="M.186.505V.52l.002.016.002.016.002.015.004.015L.2.598l.005.015.006.014.006.014.007.014.007.013L.24.68l.008.012.01.012.01.011.01.011.01.01.012.01.012.01.012.008.013.009L.35.78l.014.007.014.006L.392.8l.015.005.015.004.015.004.015.002.016.002.016.002H.5c.174 0 .314-.14.314-.314H.186z"/>
    <path style="font-style:normal;font-variant:normal;font-weight:400;font-stretch:normal;letter-spacing:normal;word-spacing:normal;text-anchor:start;fill:none;fill-opacity:1;stroke:#000;stroke-width:.00007615;stroke-linecap:butt;stroke-linejoin:miter;stroke-miterlimit:10.43299961;stroke-dasharray:none;stroke-dashoffset:0;stroke-opacity:1" d="M.186.505V.52l.002.016.002.016.002.015.004.015L.2.598l.005.015.006.014.006.014.007.014.007.013L.24.68l.008.012.01.012.01.011.01.011.01.01.012.01.012.01.012.008.013.009L.35.78l.014.007.014.006L.392.8l.015.005.015.004.015.004.015.002.016.002.016.002H.5c.174 0 .314-.14.314-.314H.186z"/>
    <path style="font-style:normal;font-variant:normal;font-weight:400;font-stretch:normal;letter-spacing:normal;word-spacing:normal;text-anchor:start;fill:#00007f;fill-opacity:1;stroke:#00007f;stroke-width:0;stroke-linecap:butt;stroke-linejoin:miter;stroke-miterlimit:10.43299961;stroke-dasharray:none;stroke-dashoffset:0;stroke-opacity:1" transform="matrix(.00212 0 0 -.00212 -.147 .973)" d="M186.16 133.66 209.73 122l11.89-3.28 10.36-1.22 9.94.46 10.8 2.42 11.45 5.11 4.93 3.13 13.25-6.3 12.31-3.6 9.32-.93 8.72.75 12.96 2.88 13.21 5.54 3.45 1.99 11.88-5.59 10.51-2.98 9.47-1.23 9.8.29 11.12 2.27 14.29 5.11 18.11 9.07-5.11-6.62-11.34-6.45-14.8-5.29-11.77-2.37-10.48-.33-10.15 1.26-11.16 3.21-10.19 4.79-1.72-1.02-13.83-5.79-13.57-3.02-9.4-.8-10.11.98-13.07 3.81-11.37 5.44-3.21-2.05-12.13-5.41-11.63-2.59-10.62-.46-11.09 1.26-12.49 3.49-16.24 8.28-5.86 7.45z"/>
    <path style="font-style:normal;font-variant:normal;font-weight:400;font-stretch:normal;letter-spacing:normal;word-spacing:normal;text-anchor:start;fill:none;fill-opacity:1;stroke:#00007f;stroke-width:.036;stroke-linecap:butt;stroke-linejoin:miter;stroke-miterlimit:10.43299961;stroke-dasharray:none;stroke-dashoffset:0;stroke-opacity:1" transform="matrix(.00212 0 0 -.00212 -.147 .973)" d="M186.16 133.66 209.73 122l11.89-3.28 10.36-1.22 9.94.46 10.8 2.42 11.45 5.11 4.93 3.13 13.25-6.3 12.31-3.6 9.32-.93 8.72.75 12.96 2.88 13.21 5.54 3.45 1.99 11.88-5.59 10.51-2.98 9.47-1.23 9.8.29 11.12 2.27 14.29 5.11 18.11 9.07-5.11-6.62-11.34-6.45-14.8-5.29-11.77-2.37-10.48-.33-10.15 1.26-11.16 3.21-10.19 4.79-1.72-1.02-13.83-5.79-13.57-3.02-9.4-.8-10.11.98-13.07 3.81-11.37 5.44-3.21-2.05-12.13-5.41-11.63-2.59-10.62-.46-11.09 1.26-12.49 3.49-16.24 8.28-5.86 7.45z"/>
    <path style="font-style:normal;font-variant:normal;font-weight:400;font-stretch:normal;letter-spacing:normal;word-spacing:normal;text-anchor:start;fill:#33b0e1;fill-opacity:1;stroke:#33b0e1;stroke-width:0;stroke-linecap:butt;stroke-linejoin:miter;stroke-miterlimit:10.43299961;stroke-dasharray:none;stroke-dashoffset:0;stroke-opacity:1" d="M.814.505V.489L.813.473.81.457.808.442.804.426.8.412.795.397.79.383.783.369.776.355.77.342.76.33.75.317.743.305.732.294.723.283l-.01-.01L.7.262.688.253.676.244.663.236.65.23.636.222.622.216.608.21.593.205.58.2.563.197.548.194.532.192H.516L.5.19a.314.314 0 0 0-.314.314h.628z"/>
    <path style="font-style:normal;font-variant:normal;font-weight:400;font-stretch:normal;letter-spacing:normal;word-spacing:normal;text-anchor:start;fill:none;fill-opacity:1;stroke:#00f;stroke-width:.00007615;stroke-linecap:butt;stroke-linejoin:miter;stroke-miterlimit:10.43299961;stroke-dasharray:none;stroke-dashoffset:0;stroke-opacity:1" d="M.814.505V.489L.813.473.81.457.808.442.804.426.8.412.795.397.79.383.783.369.776.355.77.342.76.33.75.317.743.305.732.294.723.283l-.01-.01L.7.262.688.253.676.244.663.236.65.23.636.222.622.216.608.21.593.205.58.2.563.197.548.194.532.192H.516L.5.19a.314.314 0 0 0-.314.314h.628z"/>
    <path style="font-style:normal;font-variant:normal;font-weight:400;font-stretch:normal;letter-spacing:normal;word-spacing:normal;text-anchor:start;fill:#33b0e1;fill-opacity:1;stroke:#33b0e1;stroke-width:0;stroke-linecap:butt;stroke-linejoin:miter;stroke-miterlimit:10.43299961;stroke-dasharray:none;stroke-dashoffset:0;stroke-opacity:1" d="M.746.7.741.707.735.714.729.72.723.727.716.733.71.739.703.745.696.75.69.756.682.76.675.766.668.77.66.775.652.78.645.784.637.788.629.79.62.795.613.798.605.801.596.804.588.807.579.809.571.81.562.813.553.815H.545l-.01.002H.528L.518.82H.5A.312.312 0 0 1 .26.707l.033.017.027.007.023.003h.023L.39.727.416.716.423.712l.024.011.027.008.022.002.02-.001.028-.007.03-.012.003-.002.022.01.023.007.022.003L.666.73.691.725.722.714.746.7z"/>
    <path style="font-style:normal;font-variant:normal;font-weight:400;font-stretch:normal;letter-spacing:normal;word-spacing:normal;text-anchor:start;fill:none;fill-opacity:1;stroke:#00f;stroke-width:.00007615;stroke-linecap:butt;stroke-linejoin:miter;stroke-miterlimit:10.43299961;stroke-dasharray:none;stroke-dashoffset:0;stroke-opacity:1" d="M.746.7.741.707.735.714.729.72.723.727.716.733.71.739.703.745.696.75.69.756.682.76.675.766.668.77.66.775.652.78.645.784.637.788.629.79.62.795.613.798.605.801.596.804.588.807.579.809.571.81.562.813.553.815H.545l-.01.002H.528L.518.82H.5A.312.312 0 0 1 .26.707l.033.017.027.007.023.003h.023L.39.727.416.716.423.712l.024.011.027.008.022.002.02-.001.028-.007.03-.012.003-.002.022.01.023.007.022.003L.666.73.691.725.722.714.746.7z"/>
    <path style="font-style:normal;font-variant:normal;font-weight:400;font-stretch:normal;letter-spacing:normal;word-spacing:normal;text-anchor:start;fill:red;fill-opacity:1;stroke:red;stroke-width:0;stroke-linecap:butt;stroke-linejoin:miter;stroke-miterlimit:10.43299961;stroke-dasharray:none;stroke-dashoffset:0;stroke-opacity:1" transform="matrix(.00212 0 0 -.00212 -.147 .973)" d="m326.38 24.438-15.84-.04-4.86 15.086-4.86-15.086-15.84.04 12.85-9.29L292.89.102l12.79 9.324L318.46.102l-4.9 15.046 12.82 9.29z"/>
    <path style="font-style:normal;font-variant:normal;font-weight:400;font-stretch:normal;letter-spacing:normal;word-spacing:normal;text-anchor:start;fill:none;fill-opacity:1;stroke:red;stroke-width:.036;stroke-linecap:butt;stroke-linejoin:miter;stroke-miterlimit:10.43299961;stroke-dasharray:none;stroke-dashoffset:0;stroke-opacity:1" transform="matrix(.00212 0 0 -.00212 -.147 .973)" d="m326.38 24.438-15.84-.04-4.86 15.086-4.86-15.086-15.84.04 12.85-9.29L292.89.102l12.79 9.324L318.46.102l-4.9 15.046 12.82 9.29z"/>
    <path style="font-style:normal;font-variant:normal;font-weight:400;font-stretch:normal;letter-spacing:normal;word-spacing:normal;text-anchor:start;fill:#0000c2;fill-opacity:1;stroke:#0000c2;stroke-width:0;stroke-linecap:butt;stroke-linejoin:miter;stroke-miterlimit:10.43299961;stroke-dasharray:none;stroke-dashoffset:0;stroke-opacity:1" transform="matrix(.00212 0 0 -.00212 -.147 .973)" d="m261.36 30.629-9.97-.035-3.06 9.504-3.06-9.504-10.01.035 8.1-5.832-3.09-9.504 8.06 5.902 8.03-5.902-3.1 9.504 8.1 5.832z"/>
    <path style="font-style:normal;font-variant:normal;font-weight:400;font-stretch:normal;letter-spacing:normal;word-spacing:normal;text-anchor:start;fill:none;fill-opacity:1;stroke:#0000c2;stroke-width:.036;stroke-linecap:butt;stroke-linejoin:miter;stroke-miterlimit:10.43299961;stroke-dasharray:none;stroke-dashoffset:0;stroke-opacity:1" transform="matrix(.00212 0 0 -.00212 -.147 .973)" d="m261.36 30.629-9.97-.035-3.06 9.504-3.06-9.504-10.01.035 8.1-5.832-3.09-9.504 8.06 5.902 8.03-5.902-3.1 9.504 8.1 5.832z"/>
    <path style="font-style:normal;font-variant:normal;font-weight:400;font-stretch:normal;letter-spacing:normal;word-spacing:normal;text-anchor:start;fill:#0000c2;fill-opacity:1;stroke:#0000c2;stroke-width:0;stroke-linecap:butt;stroke-linejoin:miter;stroke-miterlimit:10.43299961;stroke-dasharray:none;stroke-dashoffset:0;stroke-opacity:1" transform="matrix(.00212 0 0 -.00212 -.147 .973)" d="m377.17 30.629-9.97-.035-3.06 9.504-3.06-9.504-10.01.035 8.1-5.832-3.1-9.504 8.07 5.902 8.03-5.902-3.1 9.504 8.1 5.832z"/>
    <path style="font-style:normal;font-variant:normal;font-weight:400;font-stretch:normal;letter-spacing:normal;word-spacing:normal;text-anchor:start;fill:none;fill-opacity:1;stroke:#0000c2;stroke-width:.036;stroke-linecap:butt;stroke-linejoin:miter;stroke-miterlimit:10.43299961;stroke-dasharray:none;stroke-dashoffset:0;stroke-opacity:1" transform="matrix(.00212 0 0 -.00212 -.147 .973)" d="m377.17 30.629-9.97-.035-3.06 9.504-3.06-9.504-10.01.035 8.1-5.832-3.1-9.504 8.07 5.902 8.03-5.902-3.1 9.504 8.1 5.832z"/>
    <path style="font-style:normal;font-variant:normal;font-weight:400;font-stretch:normal;letter-spacing:normal;word-spacing:normal;text-anchor:start;fill:#00007f;fill-opacity:1;fill-rule:evenodd;stroke:#00007f;stroke-width:0;stroke-linecap:butt;stroke-linejoin:miter;stroke-miterlimit:10.43299961;stroke-dashoffset:0;stroke-opacity:1" d="M.5.19a.314.314 0 1 1 0 .63.314.314 0 0 1 0-.63zM.5.2a.305.305 0 1 1 0 .61.305.305 0 0 1 0-.61z"/>
    <path style="font-style:normal;font-variant:normal;font-weight:400;font-stretch:normal;letter-spacing:normal;word-spacing:normal;text-anchor:start;fill:none;fill-opacity:1;stroke:#00007f;stroke-width:.00007615;stroke-linecap:butt;stroke-linejoin:miter;stroke-miterlimit:10.43299961;stroke-dasharray:none;stroke-dashoffset:0;stroke-opacity:1" d="M.5.2a.305.305 0 1 1 0 .61.305.305 0 0 1 0-.61z"/>
    <path style="font-style:normal;font-variant:normal;font-weight:400;font-stretch:normal;letter-spacing:normal;word-spacing:normal;text-anchor:start;fill:none;fill-opacity:1;stroke:#00007f;stroke-width:.00007615;stroke-linecap:butt;stroke-linejoin:miter;stroke-miterlimit:10.43299961;stroke-dasharray:none;stroke-dashoffset:0;stroke-opacity:1" d="M.5.19a.314.314 0 1 1 0 .63.314.314 0 0 1 0-.63z"/>
    <path style="font-style:normal;font-variant:normal;font-weight:400;font-stretch:normal;letter-spacing:normal;word-spacing:normal;text-anchor:start;fill:none;fill-opacity:1;stroke:#00007f;stroke-width:.01142213;stroke-linecap:butt;stroke-linejoin:miter;stroke-miterlimit:10.43299961;stroke-dasharray:none;stroke-dashoffset:0;stroke-opacity:1" d="M.5.505V.191"/>
    <path style="font-style:normal;font-variant:normal;font-weight:400;font-stretch:normal;letter-spacing:normal;word-spacing:normal;text-anchor:start;fill:none;fill-opacity:1;stroke:#00007f;stroke-width:.01142171;stroke-linecap:butt;stroke-linejoin:miter;stroke-miterlimit:10.43299961;stroke-dasharray:none;stroke-dashoffset:0;stroke-opacity:1" d="M.5.505.343.233"/>
    <path style="font-style:normal;font-variant:normal;font-weight:400;font-stretch:normal;letter-spacing:normal;word-spacing:normal;text-anchor:start;fill:none;fill-opacity:1;stroke:#00007f;stroke-width:.01142213;stroke-linecap:butt;stroke-linejoin:miter;stroke-miterlimit:10.43299961;stroke-dasharray:none;stroke-dashoffset:0;stroke-opacity:1" d="M.5.505.228.348M.5.505.772.348"/>
    <path style="font-style:normal;font-variant:normal;font-weight:400;font-stretch:normal;letter-spacing:normal;word-spacing:normal;text-anchor:start;fill:none;fill-opacity:1;stroke:#00007f;stroke-width:.01142193;stroke-linecap:butt;stroke-linejoin:miter;stroke-miterlimit:10.43299961;stroke-dasharray:none;stroke-dashoffset:0;stroke-opacity:1" d="M.5.505.657.233"/>
    <path style="font-style:normal;font-variant:normal;font-weight:400;font-stretch:normal;letter-spacing:normal;word-spacing:normal;text-anchor:start;fill:#00007f;fill-opacity:1;stroke:#00007f;stroke-width:0;stroke-linecap:butt;stroke-linejoin:miter;stroke-miterlimit:10.43299961;stroke-dasharray:none;stroke-dashoffset:0;stroke-opacity:1" transform="matrix(.00212 0 0 -.00212 -.147 .973)" d="m228.49 280.97.69 4.07 3.56 7.99 5.55 7.42 6.8 5.79 8.53 4 13 3.64 12.09 1.47 10.55-1.19 9.11-2.95 7.59-4.17 11.31 1.18 19.08.33 11.74-1.12 11.7-3.16 15.51-6.06 13.07-7.23 9.5-7.74 7.89-9.65 5.29-9.25 4.61 1.77 6.58.39 6.41-2.99 3.49-5.83.04-.22 2.99 1.23 8.74 1.15 8.5-.32 6.84-1.77 7.24-4.03 5.94-6.12 2.7-6.23.39-5.65-1-5.43-3.75-5.91-5.18-3.74-.61-4.36-4.07-7.81-9.65-10.3-8.42-5.36-7.93-2.7-12.09-1.77-8.96-.25.39-.5 2.85-6.8.43-5.69-1.98-5.55-5.98-5.98-7.99-4.17-6.05-1.44-7.85.36-6.69 2.23-.58-2.01-4.39-5.73-5.94-4.1-7.74-2.27-9.72-.65-6.37.25-5.65-3.24-12.89-3.81-10.98-2.05h-8.61l-12.71 1.4-12.23 3.02-10.52 4.68-10.04 7.17-5.83 5.36-4.79-1.58-15.05-1.73-8.64.33-9.83 2.62-10.22 4.68-8.14 6.01-5.72 6.88-.07-.04-6.55-2.84-11.88-2.74-7.06-.32-10.91 1.98-6.88 3.06-5.32 4.97-4.32 7.31-2.16 7.13v5.83l2.52 7.84 4.93 7.24 6.7 5.29.28.11-3.27 4.43-2.67 7.45-.72 7.92 2.16 7.95 5.73 9.44 7.2 7.02 8.6 4.21 13.25 3.82 11.74 1.15 11.15-.83 2.49-.65 1.8 2.67 6.19 4.06 7.74 1.8 3.42-.07z"/>
    <path style="font-style:normal;font-variant:normal;font-weight:400;font-stretch:normal;letter-spacing:normal;word-spacing:normal;text-anchor:start;fill:none;fill-opacity:1;stroke:#00007f;stroke-width:.036;stroke-linecap:butt;stroke-linejoin:miter;stroke-miterlimit:10.43299961;stroke-dasharray:none;stroke-dashoffset:0;stroke-opacity:1" transform="matrix(.00212 0 0 -.00212 -.147 .973)" d="m228.49 280.97.69 4.07 3.56 7.99 5.55 7.42 6.8 5.79 8.53 4 13 3.64 12.09 1.47 10.55-1.19 9.11-2.95 7.59-4.17 11.31 1.18 19.08.33 11.74-1.12 11.7-3.16 15.51-6.06 13.07-7.23 9.5-7.74 7.89-9.65 5.29-9.25 4.61 1.77 6.58.39 6.41-2.99 3.49-5.83.04-.22 2.99 1.23 8.74 1.15 8.5-.32 6.84-1.77 7.24-4.03 5.94-6.12 2.7-6.23.39-5.65-1-5.43-3.75-5.91-5.18-3.74-.61-4.36-4.07-7.81-9.65-10.3-8.42-5.36-7.93-2.7-12.09-1.77-8.96-.25.39-.5 2.85-6.8.43-5.69-1.98-5.55-5.98-5.98-7.99-4.17-6.05-1.44-7.85.36-6.69 2.23-.58-2.01-4.39-5.73-5.94-4.1-7.74-2.27-9.72-.65-6.37.25-5.65-3.24-12.89-3.81-10.98-2.05h-8.61l-12.71 1.4-12.23 3.02-10.52 4.68-10.04 7.17-5.83 5.36-4.79-1.58-15.05-1.73-8.64.33-9.83 2.62-10.22 4.68-8.14 6.01-5.72 6.88-.07-.04-6.55-2.84-11.88-2.74-7.06-.32-10.91 1.98-6.88 3.06-5.32 4.97-4.32 7.31-2.16 7.13v5.83l2.52 7.84 4.93 7.24 6.7 5.29.28.11-3.27 4.43-2.67 7.45-.72 7.92 2.16 7.95 5.73 9.44 7.2 7.02 8.6 4.21 13.25 3.82 11.74 1.15 11.15-.83 2.49-.65 1.8 2.67 6.19 4.06 7.74 1.8 3.42-.07z"/>
    <path style="font-style:normal;font-variant:normal;font-weight:400;font-stretch:normal;letter-spacing:normal;word-spacing:normal;text-anchor:start;fill:#0000a4;fill-opacity:1;stroke:#0f2bff;stroke-width:0;stroke-linecap:butt;stroke-linejoin:miter;stroke-miterlimit:10.43299961;stroke-dasharray:none;stroke-dashoffset:0;stroke-opacity:1" transform="matrix(.00212 0 0 -.00212 -.147 .973)" d="m232.13 276.54 1.22 7.24 3.13 7.06 4.97 6.62 6.01 5.11 7.67 3.6 12.32 3.46 11.3 1.33 9.61-1.05 8.28-2.7 7.67-4.21.57-.43 12.64 1.33 18.65.33 11.12-1.08 11.12-2.99 15.05-5.87 12.46-6.91 8.89-7.24 7.35-9 5.43-9.46 1.19-2.85 7.81 2.99 4.82.29 4.22-1.95 2.41-4.06.9-4.65 7.35 2.99 7.84 1.08 7.64-.32 5.86-1.48 6.16-3.45 4.97-5.12 2.12-4.82.29-4.36-.76-4.07-2.84-4.5-6.02-4.35-.75-5.44-3.46-6.59-8.85-9.47-7.53-4.82-7.05-2.41-11.45-1.66-11.12-.28-6.02.28 5.12-7.2 2.41-5.72.29-4.07-1.34-3.74-4.82-4.83-6.91-3.6-4.97-1.18-6.62.28-7.67 2.56-2.7 1.19-1.66-5.83-3.45-4.54-4.79-3.31-6.62-1.95-9.04-.61-7.35.33-6.33-3.6-12.17-3.64-10.37-1.94h-7.99l-12.17 1.36-11.59 2.85-9.76 4.35-9.46 6.77-7.53 6.91-6.77-2.27-14.25-1.65-7.85.32-9 2.42-9.47 4.35-7.38 5.4-6.01 7.24-1.65 3.13-3.46-2.99-5.58-2.41-11.09-2.56-6.19-.28-9.9 1.8-5.73 2.55-4.35 4.04-3.75 6.33-1.83 6.01v4.5l2.12 6.62 4.21 6.16 5.69 4.5 6.77 2.74-4.65 2.99-3.45 4.64-2.27 6.34-.61 6.58 1.83 6.63 5.12 8.42 6.3 6.16 7.67 3.78 12.49 3.6 10.94 1.04 10.41-.75 5.11-1.34 2.98 4.5 4.83 3.17 6.44 1.48 6.63-.15z"/>
    <path style="font-style:normal;font-variant:normal;font-weight:400;font-stretch:normal;letter-spacing:normal;word-spacing:normal;text-anchor:start;fill:none;fill-opacity:1;stroke:#0000a4;stroke-width:.036;stroke-linecap:butt;stroke-linejoin:miter;stroke-miterlimit:10.43299961;stroke-dasharray:none;stroke-dashoffset:0;stroke-opacity:1" transform="matrix(.00212 0 0 -.00212 -.147 .973)" d="m232.13 276.54 1.22 7.24 3.13 7.06 4.97 6.62 6.01 5.11 7.67 3.6 12.32 3.46 11.3 1.33 9.61-1.05 8.28-2.7 7.67-4.21.57-.43 12.64 1.33 18.65.33 11.12-1.08 11.12-2.99 15.05-5.87 12.46-6.91 8.89-7.24 7.35-9 5.43-9.46 1.19-2.85 7.81 2.99 4.82.29 4.22-1.95 2.41-4.06.9-4.65 7.35 2.99 7.84 1.08 7.64-.32 5.86-1.48 6.16-3.45 4.97-5.12 2.12-4.82.29-4.36-.76-4.07-2.84-4.5-6.02-4.35-.75-5.44-3.46-6.59-8.85-9.47-7.53-4.82-7.05-2.41-11.45-1.66-11.12-.28-6.02.28 5.12-7.2 2.41-5.72.29-4.07-1.34-3.74-4.82-4.83-6.91-3.6-4.97-1.18-6.62.28-7.67 2.56-2.7 1.19-1.66-5.83-3.45-4.54-4.79-3.31-6.62-1.95-9.04-.61-7.35.33-6.33-3.6-12.17-3.64-10.37-1.94h-7.99l-12.17 1.36-11.59 2.85-9.76 4.35-9.46 6.77-7.53 6.91-6.77-2.27-14.25-1.65-7.85.32-9 2.42-9.47 4.35-7.38 5.4-6.01 7.24-1.65 3.13-3.46-2.99-5.58-2.41-11.09-2.56-6.19-.28-9.9 1.8-5.73 2.55-4.35 4.04-3.75 6.33-1.83 6.01v4.5l2.12 6.62 4.21 6.16 5.69 4.5 6.77 2.74-4.65 2.99-3.45 4.64-2.27 6.34-.61 6.58 1.83 6.63 5.12 8.42 6.3 6.16 7.67 3.78 12.49 3.6 10.94 1.04 10.41-.75 5.11-1.34 2.98 4.5 4.83 3.17 6.44 1.48 6.63-.15z"/>
    <path style="font-style:normal;font-variant:normal;font-weight:400;font-stretch:normal;letter-spacing:normal;word-spacing:normal;text-anchor:start;fill:#00007f;fill-opacity:1;stroke:#00007f;stroke-width:0;stroke-linecap:butt;stroke-linejoin:miter;stroke-miterlimit:10.43299961;stroke-dasharray:none;stroke-dashoffset:0;stroke-opacity:1" transform="matrix(.00212 0 0 -.00212 -.147 .973)" d="m180.79 348.72 75.39-51.51-26.64-13.47 72.9-47.44-29.45-13.11 72.54-47.7-29.67-13.14 106.28-62.709 2.63 3.959-56.09 56.88h15.37l-57.67 60.81h14.5l-59.47 61.09h15.02l-62.83 66.34h-52.81z"/>
    <path style="font-style:normal;font-variant:normal;font-weight:400;font-stretch:normal;letter-spacing:normal;word-spacing:normal;text-anchor:start;fill:none;fill-opacity:1;stroke:#00007f;stroke-width:.036;stroke-linecap:butt;stroke-linejoin:miter;stroke-miterlimit:10.43299961;stroke-dasharray:none;stroke-dashoffset:0;stroke-opacity:1" transform="matrix(.00212 0 0 -.00212 -.147 .973)" d="m180.79 348.72 75.39-51.51-26.64-13.47 72.9-47.44-29.45-13.11 72.54-47.7-29.67-13.14 106.28-62.709 2.63 3.959-56.09 56.88h15.37l-57.67 60.81h14.5l-59.47 61.09h15.02l-62.83 66.34h-52.81z"/>
    <path style="font-style:normal;font-variant:normal;font-weight:400;font-stretch:normal;letter-spacing:normal;word-spacing:normal;text-anchor:start;fill:#fff;fill-opacity:1;stroke:#fff;stroke-width:0;stroke-linecap:butt;stroke-linejoin:miter;stroke-miterlimit:10.43299961;stroke-dasharray:none;stroke-dashoffset:0;stroke-opacity:1" transform="matrix(.00212 0 0 -.00212 -.147 .973)" d="m194.83 344.37 69.88-47.7-26.53-13.39 73.33-47.74-29.52-13.1 72.57-47.71-29.23-12.92 85.97-50.72-52.99 53.71h15.66l-57.67 60.8h14.32l-59.47 61.13h15.19l-54.61 57.64h-36.9z"/>
    <path style="font-style:normal;font-variant:normal;font-weight:400;font-stretch:normal;letter-spacing:normal;word-spacing:normal;text-anchor:start;fill:none;fill-opacity:1;stroke:#fff;stroke-width:.036;stroke-linecap:butt;stroke-linejoin:miter;stroke-miterlimit:10.43299961;stroke-dasharray:none;stroke-dashoffset:0;stroke-opacity:1" transform="matrix(.00212 0 0 -.00212 -.147 .973)" d="m194.83 344.37 69.88-47.7-26.53-13.39 73.33-47.74-29.52-13.1 72.57-47.71-29.23-12.92 85.97-50.72-52.99 53.71h15.66l-57.67 60.8h14.32l-59.47 61.13h15.19l-54.61 57.64h-36.9z"/>
    <path style="font-style:normal;font-variant:normal;font-weight:400;font-stretch:normal;letter-spacing:normal;word-spacing:normal;text-anchor:start;fill:red;fill-opacity:1;stroke:red;stroke-width:0;stroke-linecap:butt;stroke-linejoin:miter;stroke-miterlimit:10.43299961;stroke-dashoffset:0;stroke-opacity:1" d="M.074.595H.066L.065.597H.054L.052.598H.05c-.006 0-.01 0-.013-.002a.026.026 0 0 1-.011-.01A.037.037 0 0 1 .02.57V.554A.024.024 0 0 1 .03.542.03.03 0 0 1 .041.536.17.17 0 0 1 .066.531.176.176 0 0 1 .09.53C.096.53.1.53.104.532a.025.025 0 0 1 .01.009.037.037 0 0 1 .004.032.027.027 0 0 1-.007.011.032.032 0 0 1-.012.006.167.167 0 0 1-.025.005zM.078.553H.074L.069.555H.061a.052.052 0 0 0-.02.004C.04.56.038.563.038.566S.04.572.043.573h.02L.078.572C.09.57.096.57.1.568L.102.56A.007.007 0 0 0 .098.554a.056.056 0 0 0-.02 0z"/>
    <path style="font-style:normal;font-variant:normal;font-weight:400;font-stretch:normal;letter-spacing:normal;word-spacing:normal;text-anchor:start;fill:none;fill-opacity:1;stroke:red;stroke-width:.00007615;stroke-linecap:butt;stroke-linejoin:miter;stroke-miterlimit:10.43299961;stroke-dashoffset:0;stroke-opacity:1" d="M.078.553H.074L.069.555H.061a.052.052 0 0 0-.02.004C.04.56.038.563.038.566S.04.572.043.573h.02L.078.572C.09.57.096.57.1.568L.102.56A.007.007 0 0 0 .098.554a.056.056 0 0 0-.02 0zM.074.595H.066L.065.597H.054L.052.598H.05c-.006 0-.01 0-.013-.002a.026.026 0 0 1-.011-.01A.037.037 0 0 1 .02.57V.554A.024.024 0 0 1 .03.542.03.03 0 0 1 .041.536.17.17 0 0 1 .066.531.176.176 0 0 1 .09.53C.096.53.1.53.104.532a.025.025 0 0 1 .01.009.037.037 0 0 1 .004.032.027.027 0 0 1-.007.011.032.032 0 0 1-.012.006.167.167 0 0 1-.025.005z"/>
    <path style="font-style:normal;font-variant:normal;font-weight:400;font-stretch:normal;letter-spacing:normal;word-spacing:normal;text-anchor:start;fill:red;fill-opacity:1;stroke:red;stroke-width:0;stroke-linecap:butt;stroke-linejoin:miter;stroke-miterlimit:10.43299961;stroke-dashoffset:0;stroke-opacity:1" d="M.128.406.087.38.045.355.054.33l.097.012a4.074 4.074 0 0 0-.007.02A1.678 1.678 0 0 1 .125.36L.12.376l.016.009-.008.02zM.1.368V.366L.102.365.103.362V.36L.106.356l-.04-.01L.1.368z"/>
    <path style="font-style:normal;font-variant:normal;font-weight:400;font-stretch:normal;letter-spacing:normal;word-spacing:normal;text-anchor:start;fill:none;fill-opacity:1;stroke:red;stroke-width:.00007615;stroke-linecap:butt;stroke-linejoin:miter;stroke-miterlimit:10.43299961;stroke-dashoffset:0;stroke-opacity:1" d="M.1.368V.366L.102.365.103.362V.36L.106.356l-.04-.01L.1.368zm.028.038L.087.38.045.355.054.33l.097.012a4.073 4.073 0 0 0-.007.02A1.678 1.678 0 0 1 .125.36L.12.376l.016.009-.008.02z"/>
    <path style="font-style:normal;font-variant:normal;font-weight:400;font-stretch:normal;letter-spacing:normal;word-spacing:normal;text-anchor:start;fill:red;fill-opacity:1;stroke:red;stroke-width:0;stroke-linecap:butt;stroke-linejoin:miter;stroke-miterlimit:10.43299961;stroke-dashoffset:0;stroke-opacity:1" d="m.244.793-.085.05-.018-.02.056-.08.015.017-.011.014.012.013.015-.01.016.016zM.197.799.196.798.195.797.193.794.19.792.189.789.16.821.197.799z"/>
    <path style="font-style:normal;font-variant:normal;font-weight:400;font-stretch:normal;letter-spacing:normal;word-spacing:normal;text-anchor:start;fill:none;fill-opacity:1;stroke:red;stroke-width:.00007615;stroke-linecap:butt;stroke-linejoin:miter;stroke-miterlimit:10.43299961;stroke-dashoffset:0;stroke-opacity:1" d="M.197.799.196.798.195.797.193.794.19.792.189.789.16.821.197.799zM.244.793l-.085.05-.018-.02.056-.08.015.017-.011.014.012.013.015-.01.016.016z"/>
    <path style="font-style:normal;font-variant:normal;font-weight:400;font-stretch:normal;letter-spacing:normal;word-spacing:normal;text-anchor:start;fill:red;fill-opacity:1;stroke:red;stroke-width:0;stroke-linecap:butt;stroke-linejoin:miter;stroke-miterlimit:10.43299961;stroke-dashoffset:0;stroke-opacity:1" d="M.428.126.434.077.44.03.467.026l.03.093-.023.002L.469.104.452.105.45.124.428.126zm.026-.04L.457.084h.01L.46.043.454.085z"/>
    <path style="font-style:normal;font-variant:normal;font-weight:400;font-stretch:normal;letter-spacing:normal;word-spacing:normal;text-anchor:start;fill:none;fill-opacity:1;stroke:red;stroke-width:.00007615;stroke-linecap:butt;stroke-linejoin:miter;stroke-miterlimit:10.43299961;stroke-dashoffset:0;stroke-opacity:1" d="M.454.085h.013L.46.043.454.085zm-.026.04L.434.078.44.03.467.026l.03.093-.023.002L.469.104.452.105.45.124a8 8 0 0 0-.023.002z"/>
    <path style="font-style:normal;font-variant:normal;font-weight:400;font-stretch:normal;letter-spacing:normal;word-spacing:normal;text-anchor:start;fill:red;fill-opacity:1;stroke:red;stroke-width:0;stroke-linecap:butt;stroke-linejoin:miter;stroke-miterlimit:10.43299961;stroke-dashoffset:0;stroke-opacity:1" d="M.823.202v.001l.001.002C.827.208.83.21.833.21.835.21.838.21.842.207L.847.199C.847.196.845.193.842.189L.84.188.823.202zM.765.224.8.193.836.16l.017.02c.005.006.009.01.01.014a.02.02 0 0 1 .004.009.02.02 0 0 1-.002.01.03.03 0 0 1-.008.01.03.03 0 0 1-.012.006.023.023 0 0 1-.013 0C.835.236.832.244.823.25L.82.256C.812.263.808.268.808.273L.79.253A.044.044 0 0 1 .8.243.102.102 0 0 1 .806.237C.81.233.814.23.814.227c0-.002 0-.005-.003-.008L.808.215.779.241.765.224z"/>
    <path style="font-style:normal;font-variant:normal;font-weight:400;font-stretch:normal;letter-spacing:normal;word-spacing:normal;text-anchor:start;fill:none;fill-opacity:1;stroke:red;stroke-width:.00007615;stroke-linecap:butt;stroke-linejoin:miter;stroke-miterlimit:10.43299961;stroke-dasharray:none;stroke-dashoffset:0;stroke-opacity:1" d="M.823.202v.001l.001.002C.827.208.83.21.833.21.835.21.838.21.842.207L.847.199C.847.196.845.193.842.189L.84.188.823.202z"/>
    <path style="font-style:normal;font-variant:normal;font-weight:400;font-stretch:normal;letter-spacing:normal;word-spacing:normal;text-anchor:start;fill:none;fill-opacity:1;stroke:red;stroke-width:.00007615;stroke-linecap:butt;stroke-linejoin:miter;stroke-miterlimit:10.43299961;stroke-dasharray:none;stroke-dashoffset:0;stroke-opacity:1" d="M.765.224.8.193.836.16l.017.02c.005.006.009.01.01.014a.02.02 0 0 1 .004.009.02.02 0 0 1-.002.01.03.03 0 0 1-.008.01.03.03 0 0 1-.012.006.023.023 0 0 1-.013 0C.835.236.832.244.823.25L.82.256C.812.263.808.268.808.273L.79.253A.044.044 0 0 1 .8.243.102.102 0 0 1 .806.237C.81.233.814.23.814.227c0-.002 0-.005-.003-.008L.808.215.779.241.765.224z"/>
    <path style="font-style:normal;font-variant:normal;font-weight:400;font-stretch:normal;letter-spacing:normal;word-spacing:normal;text-anchor:start;fill:red;fill-opacity:1;stroke:red;stroke-width:0;stroke-linecap:butt;stroke-linejoin:miter;stroke-miterlimit:10.43299961;stroke-dashoffset:0;stroke-opacity:1" d="m.885.52.048.007.047.006-.003.025a.095.095 0 0 1-.004.017.02.02 0 0 1-.005.009.02.02 0 0 1-.009.005.03.03 0 0 1-.012 0A.03.03 0 0 1 .934.585a.022.022 0 0 1-.008-.01C.922.58.915.584.903.583H.898C.888.58.88.581.877.584L.88.559a.055.055 0 0 1 .014 0h.005l.004.002L.916.56C.918.559.919.556.92.552V.548A5.8 5.8 0 0 1 .882.543L.885.52zM.94.55v.014a.013.013 0 0 0 .01.004c.003.001.006 0 .009-.001L.963.556V.553L.94.55z"/>
    <path style="font-style:normal;font-variant:normal;font-weight:400;font-stretch:normal;letter-spacing:normal;word-spacing:normal;text-anchor:start;fill:none;fill-opacity:1;stroke:red;stroke-width:.00007615;stroke-linecap:butt;stroke-linejoin:miter;stroke-miterlimit:10.43299961;stroke-dashoffset:0;stroke-opacity:1" d="M.94.55v.014a.013.013 0 0 0 .01.004c.003.001.006 0 .009-.001l.004-.01V.553L.94.55zM.885.52l.048.007.047.006-.003.025a.095.095 0 0 1-.004.017.02.02 0 0 1-.005.009.02.02 0 0 1-.009.005.03.03 0 0 1-.012 0A.03.03 0 0 1 .934.585a.022.022 0 0 1-.008-.01C.922.58.915.584.903.583H.898C.888.58.88.581.877.584L.88.559a.055.055 0 0 1 .014 0h.005l.004.002L.916.56C.918.559.919.556.92.552V.548A5.8 5.8 0 0 1 .882.543L.885.52z"/>
</svg>
