<?xml version="1.0" encoding="UTF-8"?>
<svg id="Layer_1" xmlns="http://www.w3.org/2000/svg" version="1.1" viewBox="0 0 16 16">
  <!-- Generator: Adobe Illustrator 29.2.1, SVG Export Plug-In . SVG Version: 2.1.0 Build 116)  -->
  <defs>
    <style>
      .st0 {
        fill: #ededf2;
      }
    </style>
  </defs>
  <path class="st0" d="M9.6,14.7l-1.6-5.5,2.3-2.5c.4-.4.3-1,0-1.3s-1-.3-1.3,0l-2.3,2.5-5.6-1.3c-.2,0-.5,0-.6.2-.3.3-.2.8.2,1l4.1,2.1-2.3,2.5-1.6-.3c-.1,0-.2,0-.3,0l-.2.2h0c-.1.2-.1.4,0,.5l1.6.9h.3c0,.1.1.3.1.3v.2c.1,0,.8,1,.8,1l.2.4c.1.2.3.2.5,0l.2-.2h0c0-.2.1-.3,0-.4l-.4-1.6,2.3-2.5,2.3,4c.2.4.7.4,1,.1s.2-.4.1-.6Z"/>
  <path class="st0" d="M11.4,2.6c0-.7.6-1.3,1.3-1.3h.7c.7,0,1.3.6,1.3,1.3h0c0,.5-.2.9-.6,1.2l-.9.6c-.5.3-.8.9-.8,1.5h0c0,.4.3.7.7.7s.7-.3.7-.7h0c0-.2,0-.4.2-.4l.9-.6c.7-.5,1.2-1.3,1.2-2.2h0c0-1.5-1.2-2.7-2.6-2.7h-.7c-1.4,0-2.6,1.2-2.6,2.6s.3.7.7.7.7-.3.7-.7ZM13.1,9.2c.5,0,.8-.4.8-.8s-.4-.8-.8-.8-.8.4-.8.8.4.8.8.8Z"/>
</svg>