<svg width="16" height="16" viewBox="0 0 16 16" fill="none" xmlns="http://www.w3.org/2000/svg">
<path d="M6.64 15.584L10.4 9.2H14.8C15.464 9.2 16 8.664 16 8C16 7.336 15.464 6.8 14.8 6.8H10.4L6.64 0.416C6.496 0.16 6.216 0 5.92 0C5.36 0 4.96 0.536 5.112 1.072L6.792 6.8H2.4L1.32 4.992C1.248 4.872 1.112 4.8 0.976001 4.8H0.576H0.512C0.248 4.8 0.0560007 5.048 0.120001 5.296L0.704 7.632L0.800001 8L0.728001 8.304L0.64 8.64L0.256001 10.16L0.120001 10.696C0.0560007 10.952 0.248 11.192 0.512 11.192H0.808002H0.976001C1.12 11.192 1.248 11.12 1.32 11L2.4 9.2H6.8L5.12 14.928C4.96 15.464 5.36 16 5.92 16C6.216 16 6.496 15.84 6.64 15.584Z" fill="#EDEDF2"/>
</svg>
