<svg width="16" height="16" viewBox="0 0 16 16" fill="none" xmlns="http://www.w3.org/2000/svg">
<path d="M6.15062 9.04958L7.18729 9.35417C7.2434 9.38194 7.29243 9.37604 7.33437 9.33646C7.37632 9.29688 7.39729 9.24868 7.39729 9.19188V9.08896C7.39729 9.07243 7.37486 9.02889 7.33 8.95833L6.56396 8.42833V6.13625L8.95188 6.88771C9.02132 6.91549 9.08514 6.90368 9.14333 6.85229C9.20153 6.80076 9.23063 6.73736 9.23063 6.66208V6.56729C9.23063 6.52562 9.19271 6.46632 9.11687 6.38938L6.56396 4.87667V3C6.56396 2.88625 6.52354 2.78194 6.44271 2.68708C6.36188 2.59222 6.26576 2.54479 6.15437 2.54479C6.03646 2.54479 5.93743 2.59222 5.85729 2.68708C5.77715 2.78194 5.73708 2.88625 5.73708 3V4.87667L3.19708 6.37667C3.17458 6.39056 3.13236 6.46243 3.07042 6.59229V6.62792C3.07042 6.71569 3.09875 6.78312 3.15542 6.83021C3.21194 6.87715 3.28514 6.88937 3.375 6.86687L5.73708 6.13625V8.42688L5.01271 8.95833C5.00951 8.96694 4.98014 9.01778 4.92458 9.11083V9.15229C4.92458 9.22354 4.9509 9.27847 5.00354 9.31708C5.05618 9.35569 5.11535 9.36111 5.18104 9.33333L6.15062 9.04958ZM10.0431 15.1667C9.88285 15.1667 9.75201 15.1111 9.65063 15C9.5491 14.8889 9.49833 14.7623 9.49833 14.6202C9.49833 14.5508 9.50903 14.4853 9.53042 14.4237C9.55181 14.3622 9.58653 14.3081 9.63458 14.2612C11.0897 12.7708 12.1888 11.3539 12.9319 10.0104C13.6749 8.66694 14.0465 7.39208 14.0465 6.18583C14.0465 5.18694 13.8992 4.27458 13.6048 3.44875C13.3105 2.62292 12.8258 1.76285 12.1506 0.868542C12.111 0.815208 12.0792 0.762083 12.0552 0.709166C12.0312 0.65625 12.0192 0.59882 12.0192 0.536875C12.0192 0.395903 12.0734 0.271181 12.1819 0.162708C12.2902 0.0542361 12.4192 0 12.5688 0C12.6538 0 12.734 0.013333 12.8096 0.0399996C12.8851 0.0668052 12.9497 0.113819 13.0031 0.181042C13.7263 1.1009 14.2615 2.0184 14.6087 2.93354C14.956 3.84854 15.1296 4.93264 15.1296 6.18583C15.1296 7.46903 14.7335 8.83361 13.9415 10.2796C13.1492 11.7257 11.9764 13.296 10.4229 14.9904C10.3696 15.0437 10.3106 15.0865 10.2458 15.1185C10.1811 15.1506 10.1135 15.1667 10.0431 15.1667ZM6.12333 13.7404C7.71194 12.3504 8.9491 10.9957 9.83479 9.67625C10.7205 8.35681 11.1633 7.19333 11.1633 6.18583C11.1633 4.72222 10.6876 3.50458 9.73625 2.53292C8.78486 1.56125 7.58056 1.07542 6.12333 1.07542C4.66597 1.07542 3.4616 1.56125 2.51021 2.53292C1.55882 3.50458 1.08313 4.72222 1.08313 6.18583C1.08313 7.19333 1.52597 8.35681 2.41167 9.67625C3.29736 10.9957 4.53458 12.3504 6.12333 13.7404ZM6.12333 14.7756C5.97486 14.7756 5.83674 14.751 5.70896 14.7019C5.58132 14.6527 5.45181 14.5763 5.32042 14.4727C4.91972 14.1309 4.41785 13.6656 3.81479 13.0769C3.21174 12.4883 2.62444 11.8243 2.05292 11.085C1.48125 10.3457 0.996181 9.55639 0.597708 8.71708C0.199236 7.87792 0 7.03417 0 6.18583C0 4.485 0.569931 3.02882 1.70979 1.81729C2.84979 0.605764 4.3175 0 6.11292 0C7.90833 0 9.37945 0.605764 10.5263 1.81729C11.6732 3.02882 12.2467 4.485 12.2467 6.18583C12.2467 7.34722 11.8105 8.60472 10.9381 9.95833C10.0658 11.3119 8.73111 12.8141 6.93417 14.4648C6.80278 14.5684 6.67188 14.6461 6.54146 14.6979C6.41118 14.7497 6.27181 14.7756 6.12333 14.7756Z" fill="#E7E7E7"/>
</svg>
