<svg width="17" height="12" viewBox="0 0 17 12" fill="none" xmlns="http://www.w3.org/2000/svg">
<path d="M15.6075 6.50962H14.015C13.8621 6.50962 13.7327 6.45809 13.6269 6.35504C13.5209 6.25198 13.4679 6.12435 13.4679 5.97212C13.4679 5.81976 13.5197 5.69073 13.6231 5.58504C13.7266 5.47921 13.8548 5.42629 14.0077 5.42629H15.6002C15.7533 5.42629 15.8827 5.47782 15.9885 5.58087C16.0945 5.68393 16.1475 5.81157 16.1475 5.96379C16.1475 6.11615 16.0958 6.24518 15.9923 6.35087C15.8888 6.45671 15.7606 6.50962 15.6075 6.50962ZM12.3894 10.0625C12.4823 9.94393 12.6015 9.8699 12.7469 9.84046C12.8922 9.81115 13.0241 9.83601 13.1427 9.91504L14.4454 10.8161C14.5769 10.9014 14.6574 11.0236 14.6867 11.1827C14.7161 11.3419 14.6843 11.4808 14.5913 11.5994C14.4983 11.7179 14.3792 11.7918 14.234 11.8213C14.0887 11.8507 13.9567 11.8259 13.8381 11.7467L12.5352 10.8459C12.4038 10.7606 12.3235 10.6384 12.2942 10.4792C12.2647 10.32 12.2965 10.1812 12.3894 10.0625ZM14.4119 1.05775L13.0898 1.98879C12.9712 2.06782 12.8358 2.08921 12.6835 2.05296C12.5313 2.01657 12.4156 1.93907 12.3365 1.82046C12.2574 1.70198 12.2326 1.56657 12.2621 1.41421C12.2914 1.26198 12.3653 1.14636 12.484 1.06733L13.806 0.157123C13.9247 0.0780953 14.0601 0.0532339 14.2123 0.0825394C14.3645 0.111984 14.4802 0.185943 14.5594 0.304415C14.6384 0.423026 14.6632 0.558443 14.6337 0.710665C14.6044 0.863026 14.5305 0.97872 14.4119 1.05775ZM2.70833 7.61546H2.19229C1.82382 7.61546 1.5084 7.48428 1.24604 7.22191C0.983681 6.95955 0.8525 6.64414 0.8525 6.27566V5.66025C0.8525 5.29178 0.983681 4.97636 1.24604 4.714C1.5084 4.45164 1.82382 4.32046 2.19229 4.32046H4.97604L8.15063 2.45837C8.37396 2.32157 8.5959 2.31379 8.81646 2.43504C9.03715 2.55615 9.1475 2.74553 9.1475 3.00316V8.91191C9.1475 9.16955 9.03368 9.35893 8.80604 9.48004C8.57854 9.60129 8.35313 9.59351 8.12979 9.45671L5.10104 7.61546H4.29167V10.7363C4.29167 10.9599 4.21576 11.1489 4.06396 11.3034C3.91215 11.458 3.7241 11.5352 3.49979 11.5352C3.27535 11.5352 3.08736 11.4593 2.93583 11.3075C2.78417 11.1559 2.70833 10.9679 2.70833 10.7436V7.61546ZM10.4679 8.21316V3.72275C10.7393 3.99094 10.9471 4.32629 11.0913 4.72879C11.2356 5.13129 11.3077 5.54497 11.3077 5.96983C11.3077 6.39483 11.2356 6.80796 11.0913 7.20921C10.9471 7.61032 10.7393 7.94497 10.4679 8.21316Z" fill="#E7E7E7"/>
</svg>
