<svg width="13" height="15" viewBox="0 0 13 15" fill="none" xmlns="http://www.w3.org/2000/svg">
<path d="M3.92313 12.1667C3.54799 12.1667 3.2309 12.0372 2.97187 11.7781C2.71285 11.5191 2.58333 11.202 2.58333 10.8269V1.33979C2.58333 0.964653 2.71285 0.64757 2.97187 0.388542C3.2309 0.129514 3.54799 0 3.92313 0H11.4102C11.7853 0 12.1024 0.129514 12.3615 0.388542C12.6205 0.64757 12.75 0.964653 12.75 1.33979V10.8269C12.75 11.202 12.6205 11.5191 12.3615 11.7781C12.1024 12.0372 11.7853 12.1667 11.4102 12.1667H3.92313ZM3.92313 11.0833H11.4102C11.4744 11.0833 11.5331 11.0566 11.5865 11.0031C11.6399 10.9498 11.6667 10.891 11.6667 10.8269V1.33979C11.6667 1.27562 11.6399 1.21687 11.5865 1.16354C11.5331 1.11007 11.4744 1.08333 11.4102 1.08333H3.92313C3.85896 1.08333 3.80021 1.11007 3.74688 1.16354C3.6934 1.21687 3.66667 1.27562 3.66667 1.33979V10.8269C3.66667 10.891 3.6934 10.9498 3.74688 11.0031C3.80021 11.0566 3.85896 11.0833 3.92313 11.0833ZM1.33979 14.75C0.964653 14.75 0.647569 14.6205 0.388542 14.3615C0.129514 14.1024 0 13.7853 0 13.4102V3.38146C0 3.22771 0.0514584 3.09896 0.154375 2.99521C0.257153 2.8916 0.384792 2.83979 0.537292 2.83979C0.689792 2.83979 0.818958 2.8916 0.924792 2.99521C1.03049 3.09896 1.08333 3.22771 1.08333 3.38146V13.4102C1.08333 13.4744 1.11007 13.5331 1.16354 13.5865C1.21688 13.6399 1.27562 13.6667 1.33979 13.6667H9.36854C9.52229 13.6667 9.65104 13.7181 9.75479 13.8208C9.8584 13.9238 9.91021 14.0515 9.91021 14.204C9.91021 14.3565 9.8584 14.4856 9.75479 14.5913C9.65104 14.6971 9.52229 14.75 9.36854 14.75H1.33979Z" fill="#E7E7E7"/>
</svg>
