<svg width="16" height="16" viewBox="0 0 16 16" fill="none" xmlns="http://www.w3.org/2000/svg">
<path d="M1.77778 16C1.28889 16 0.87037 15.8259 0.522222 15.4778C0.174074 15.1296 0 14.7111 0 14.2222V1.77778C0 1.28889 0.174074 0.87037 0.522222 0.522222C0.87037 0.174074 1.28889 0 1.77778 0H14.2222C14.7111 0 15.1296 0.174074 15.4778 0.522222C15.8259 0.87037 16 1.28889 16 1.77778V14.2222C16 14.7111 15.8259 15.1296 15.4778 15.4778C15.1296 15.8259 14.7111 16 14.2222 16H1.77778ZM1.77778 4.73333H14.2222V1.77778H1.77778V4.73333ZM1.77778 9.48889H14.2222V6.51111H1.77778V9.48889ZM1.77778 14.2222H14.2222V11.2667H1.77778V14.2222ZM3.55556 4.13333C3.3037 4.13333 3.09259 4.04815 2.92222 3.87778C2.75185 3.70741 2.66667 3.4963 2.66667 3.24444C2.66667 2.99259 2.75185 2.78148 2.92222 2.61111C3.09259 2.44074 3.3037 2.35556 3.55556 2.35556C3.80741 2.35556 4.01852 2.44074 4.18889 2.61111C4.35926 2.78148 4.44444 2.99259 4.44444 3.24444C4.44444 3.4963 4.35926 3.70741 4.18889 3.87778C4.01852 4.04815 3.80741 4.13333 3.55556 4.13333ZM3.55556 8.88889C3.3037 8.88889 3.09259 8.8037 2.92222 8.63333C2.75185 8.46296 2.66667 8.25185 2.66667 8C2.66667 7.74815 2.75185 7.53704 2.92222 7.36667C3.09259 7.1963 3.3037 7.11111 3.55556 7.11111C3.80741 7.11111 4.01852 7.1963 4.18889 7.36667C4.35926 7.53704 4.44444 7.74815 4.44444 8C4.44444 8.25185 4.35926 8.46296 4.18889 8.63333C4.01852 8.8037 3.80741 8.88889 3.55556 8.88889ZM3.55556 13.6444C3.3037 13.6444 3.09259 13.5593 2.92222 13.3889C2.75185 13.2185 2.66667 13.0074 2.66667 12.7556C2.66667 12.5037 2.75185 12.2926 2.92222 12.1222C3.09259 11.9519 3.3037 11.8667 3.55556 11.8667C3.80741 11.8667 4.01852 11.9519 4.18889 12.1222C4.35926 12.2926 4.44444 12.5037 4.44444 12.7556C4.44444 13.0074 4.35926 13.2185 4.18889 13.3889C4.01852 13.5593 3.80741 13.6444 3.55556 13.6444Z" fill="#3B6CEC"/>
</svg>
