<svg width="14" height="14" viewBox="0 0 14 14" fill="none" xmlns="http://www.w3.org/2000/svg">
<path d="M5.75561 12.9112L8.2445 10.4223H11.9778C12.3201 10.4223 12.6131 10.5441 12.857 10.7876C13.1005 11.0315 13.2223 11.3246 13.2223 11.6668C13.2223 12.009 13.1005 12.3021 12.857 12.546C12.6131 12.7895 12.3201 12.9112 11.9778 12.9112H5.75561ZM2.02228 11.6668H2.89339L8.26005 6.30011L7.38894 5.429L2.02228 10.7957V11.6668ZM10.9201 5.39789L8.27561 2.78455L9.14672 1.91344C9.38524 1.67492 9.67831 1.55566 10.0259 1.55566C10.3731 1.55566 10.666 1.67492 10.9045 1.91344L11.7756 2.78455C12.0141 3.02307 12.1386 3.31095 12.1489 3.6482C12.1593 3.98503 12.0452 4.2727 11.8067 4.51122L10.9201 5.39789ZM1.40005 12.9112C1.22376 12.9112 1.07608 12.8515 0.957032 12.732C0.837565 12.613 0.777832 12.4653 0.777832 12.289V10.5312C0.777832 10.4483 0.793388 10.368 0.824499 10.2904C0.85561 10.2124 0.902276 10.1423 0.964499 10.0801L7.37339 3.67122L10.0178 6.31566L3.60894 12.7246C3.54672 12.7868 3.47682 12.8334 3.39925 12.8646C3.32127 12.8957 3.24079 12.9112 3.15783 12.9112H1.40005ZM7.8245 5.86455L7.38894 5.429L8.26005 6.30011L7.8245 5.86455Z" fill="#EDEDF2"/>
</svg>
