<svg width="16" height="16" viewBox="0 0 16 16" fill="none" xmlns="http://www.w3.org/2000/svg">
<path d="M7.99562 11.7756C8.16146 11.7756 8.30194 11.7195 8.41708 11.6073C8.53222 11.4951 8.58979 11.356 8.58979 11.1902C8.58979 11.0244 8.53368 10.8839 8.42146 10.7687C8.30924 10.6537 8.17021 10.5962 8.00437 10.5962C7.83854 10.5962 7.69806 10.6523 7.58292 10.7644C7.46778 10.8766 7.41021 11.0156 7.41021 11.1815C7.41021 11.3473 7.46632 11.4878 7.57854 11.6029C7.69076 11.7181 7.82979 11.7756 7.99562 11.7756ZM7.99583 9.06417C8.14819 9.06417 8.27722 9.01222 8.38292 8.90833C8.48875 8.80458 8.54167 8.67597 8.54167 8.5225V4.60583C8.54167 4.45236 8.49014 4.32368 8.38708 4.21979C8.28403 4.11604 8.15639 4.06417 8.00417 4.06417C7.85181 4.06417 7.72278 4.11604 7.61708 4.21979C7.51125 4.32368 7.45833 4.45236 7.45833 4.60583V8.5225C7.45833 8.67597 7.50986 8.80458 7.61292 8.90833C7.71597 9.01222 7.84361 9.06417 7.99583 9.06417ZM8.00708 15.5833C6.96389 15.5833 5.98139 15.386 5.05958 14.9913C4.13778 14.5965 3.33097 14.0534 2.63917 13.3619C1.94736 12.6703 1.40396 11.8642 1.00896 10.9433C0.614096 10.0226 0.416666 9.03882 0.416666 7.99187C0.416666 6.94493 0.614027 5.96403 1.00875 5.04917C1.40347 4.1343 1.9466 3.33097 2.63812 2.63917C3.32965 1.94736 4.13583 1.40396 5.05667 1.00896C5.97736 0.614096 6.96118 0.416666 8.00812 0.416666C9.05507 0.416666 10.036 0.614027 10.9508 1.00875C11.8657 1.40347 12.669 1.9466 13.3608 2.63812C14.0526 3.32965 14.596 4.13417 14.991 5.05167C15.3859 5.9693 15.5833 6.94972 15.5833 7.99292C15.5833 9.03611 15.386 10.0186 14.9913 10.9404C14.5965 11.8622 14.0534 12.669 13.3619 13.3608C12.6703 14.0526 11.8658 14.596 10.9483 14.991C10.0307 15.3859 9.05028 15.5833 8.00708 15.5833Z" fill="#E7E7E7"/>
</svg>
