<svg width="16" height="12" viewBox="0 0 16 12" fill="none" xmlns="http://www.w3.org/2000/svg">
<path d="M7.11111 11.3334C6.85926 11.3334 6.6483 11.248 6.47822 11.0774C6.30756 10.9073 6.22222 10.6963 6.22222 10.4445C6.22222 10.1926 6.30756 9.98165 6.47822 9.81158C6.6483 9.64091 6.85926 9.55558 7.11111 9.55558H8.88889C9.14074 9.55558 9.352 9.64091 9.52267 9.81158C9.69274 9.98165 9.77778 10.1926 9.77778 10.4445C9.77778 10.6963 9.69274 10.9073 9.52267 11.0774C9.352 11.248 9.14074 11.3334 8.88889 11.3334H7.11111ZM0.888889 2.44446C0.637037 2.44446 0.426074 2.35943 0.256 2.18935C0.0853334 2.01869 0 1.80743 0 1.55558C0 1.30372 0.0853334 1.09246 0.256 0.921798C0.426074 0.751724 0.637037 0.666687 0.888889 0.666687H15.1111C15.363 0.666687 15.5739 0.751724 15.744 0.921798C15.9147 1.09246 16 1.30372 16 1.55558C16 1.80743 15.9147 2.01869 15.744 2.18935C15.5739 2.35943 15.363 2.44446 15.1111 2.44446H0.888889ZM3.55556 6.88891C3.3037 6.88891 3.09244 6.80358 2.92178 6.63291C2.7517 6.46284 2.66667 6.25187 2.66667 6.00002C2.66667 5.74817 2.7517 5.53691 2.92178 5.36624C3.09244 5.19617 3.3037 5.11113 3.55556 5.11113H12.4444C12.6963 5.11113 12.9073 5.19617 13.0773 5.36624C13.248 5.53691 13.3333 5.74817 13.3333 6.00002C13.3333 6.25187 13.248 6.46284 13.0773 6.63291C12.9073 6.80358 12.6963 6.88891 12.4444 6.88891H3.55556Z" fill="#5987FF"/>
</svg>
