<svg width="14" height="14" viewBox="0 0 14 14" fill="none" xmlns="http://www.w3.org/2000/svg">
<path d="M4.15339 12.7556C3.91487 12.7556 3.70746 12.6675 3.53117 12.4912C3.35487 12.3149 3.26672 12.1075 3.26672 11.8689C3.26672 11.7756 3.29016 11.6692 3.33703 11.5497C3.38349 11.4307 3.44302 11.3349 3.51561 11.2623L3.88894 10.8889H2.02228C1.68005 10.8889 1.3872 10.7672 1.1437 10.5237C0.899788 10.2798 0.777832 9.98672 0.777832 9.6445V2.02228C0.777832 1.68005 0.899788 1.38699 1.1437 1.14308C1.3872 0.89958 1.68005 0.777832 2.02228 0.777832H6.37783C6.55413 0.777832 6.70201 0.837358 6.82148 0.95641C6.94053 1.07588 7.00005 1.22376 7.00005 1.40005C7.00005 1.57635 6.94053 1.72402 6.82148 1.84308C6.70201 1.96254 6.55413 2.02228 6.37783 2.02228H2.02228V9.6445H11.9778V7.62228C11.9778 7.44598 12.0376 7.2981 12.157 7.17863C12.2761 7.05958 12.4238 7.00005 12.6001 7.00005C12.7764 7.00005 12.924 7.05958 13.0431 7.17863C13.1625 7.2981 13.2223 7.44598 13.2223 7.62228V9.6445C13.2223 9.98672 13.1005 10.2798 12.857 10.5237C12.6131 10.7672 12.3201 10.8889 11.9778 10.8889H10.1112L10.4845 11.2623C10.5571 11.3349 10.6168 11.4282 10.6637 11.5423C10.7102 11.6563 10.7334 11.7652 10.7334 11.8689C10.7334 12.1075 10.6452 12.3149 10.4689 12.4912C10.2926 12.6675 10.0852 12.7556 9.84672 12.7556H4.15339ZM8.86672 7.98005C8.78376 7.98005 8.70598 7.96699 8.63339 7.94085C8.5608 7.91514 8.49339 7.87117 8.43117 7.80894L6.19117 5.56894C6.07709 5.45487 6.02005 5.30968 6.02005 5.13339C6.02005 4.95709 6.07709 4.81191 6.19117 4.69783C6.30524 4.58376 6.45042 4.52672 6.62672 4.52672C6.80302 4.52672 6.9482 4.58376 7.06228 4.69783L8.2445 5.88005V1.40005C8.2445 1.22376 8.30423 1.07588 8.4237 0.95641C8.54275 0.837358 8.69043 0.777832 8.86672 0.777832C9.04302 0.777832 9.1909 0.837358 9.31037 0.95641C9.42942 1.07588 9.48894 1.22376 9.48894 1.40005V5.88005L10.6712 4.69783C10.7852 4.58376 10.9304 4.52672 11.1067 4.52672C11.283 4.52672 11.4282 4.58376 11.5423 4.69783C11.6564 4.81191 11.7134 4.95709 11.7134 5.13339C11.7134 5.30968 11.6564 5.45487 11.5423 5.56894L9.30228 7.80894C9.24005 7.87117 9.17265 7.91514 9.10005 7.94085C9.02746 7.96699 8.94968 7.98005 8.86672 7.98005Z" fill="#EDEDF2"/>
</svg>
