<svg width="15" height="16" viewBox="0 0 15 16" fill="none" xmlns="http://www.w3.org/2000/svg">
<path d="M14.1586 1.12457L14.0885 1.19467L14.1586 1.12457C13.9295 0.895465 13.5811 0.835118 13.2883 0.97382L0.621686 6.9738C0.329038 7.11243 0.155042 7.41997 0.186951 7.74221C0.218859 8.06446 0.44979 8.3319 0.763941 8.41044L5.651 9.63221L6.87276 14.5193C6.9513 14.8334 7.21875 15.0643 7.54099 15.0963C7.86323 15.1282 8.17078 14.9542 8.3094 14.6615L14.3094 1.99488C14.4481 1.70207 14.3877 1.35367 14.1586 1.12457ZM6.46915 8.25622L3.21411 7.44247L12.0047 3.27851L7.84074 12.0691L7.02698 8.81406C6.95831 8.53937 6.74383 8.3249 6.46915 8.25622Z" fill="#3B6CEC" stroke="#3B6CEC" stroke-width="0.2" stroke-linecap="round" stroke-linejoin="round"/>
</svg>
