<svg width="16" height="16" viewBox="0 0 16 16" fill="none" xmlns="http://www.w3.org/2000/svg">
<path fill-rule="evenodd" clip-rule="evenodd" d="M10.6726 3.74874V14.1278L5.3363 12.2512V1.87214L10.6726 3.74874ZM4.7582 0.19121C5.13174 0.0666961 5.54086 0.0666961 5.9144 0.200104L10.3613 1.75652C10.5659 1.82767 10.7793 1.81878 10.975 1.74763L13.5809 0.733733C14.746 0.280148 16 1.13396 16 2.38799V12.9272C16 13.692 15.5108 14.3769 14.7904 14.617L11.2418 15.8088C10.8683 15.9333 10.4591 15.9333 10.0856 15.7999L5.63869 14.2435C5.44302 14.1723 5.22068 14.1723 5.02501 14.2524L2.41912 15.2663C1.25403 15.7198 0 14.866 0 13.612V3.07281C0 2.30794 0.489161 1.63201 1.20956 1.38298L4.7582 0.19121ZM3.3363 2.77852L2 3.2273V13.2833L3.3363 12.7634V2.77852ZM12.6726 13.2185L14 12.7727V2.71671L12.6726 3.23318V13.2185Z" fill="#3B6CEC"/>
</svg>
