<svg width="16" height="16" viewBox="0 0 16 16" fill="none" xmlns="http://www.w3.org/2000/svg">
<path d="M2.83842 5.15185C2.41326 4.72669 1.68309 4.80063 1.39657 5.32746C1.13777 5.79883 0.934437 6.27945 0.777312 6.78779C0.601702 7.37008 1.06383 7.94312 1.6646 7.94312H1.67385C2.07128 7.94312 2.43174 7.68433 2.54265 7.29614C2.65356 6.92643 2.80145 6.56597 2.9863 6.21475C3.18964 5.87277 3.12494 5.43837 2.83842 5.15185ZM1.68309 9.79164H1.6646C1.06383 9.79164 0.601702 10.3647 0.777312 10.947C0.925194 11.4461 1.12853 11.9359 1.38732 12.4073C1.67385 12.9341 2.41326 13.0173 2.83842 12.5922C3.11569 12.3056 3.18964 11.8805 2.99554 11.5293C2.81069 11.1873 2.66281 10.8268 2.5519 10.4571C2.44098 10.0504 2.08052 9.79164 1.68309 9.79164ZM4.31724 15.3557C4.78861 15.6145 5.27847 15.8178 5.78681 15.9657C6.35985 16.1321 6.9329 15.6699 6.9329 15.0784V15.0507C6.9329 14.6533 6.6741 14.2928 6.28591 14.1819C5.91621 14.071 5.56499 13.9231 5.22301 13.7382C4.87179 13.5441 4.42815 13.6088 4.15087 13.8954L4.12314 13.9231C3.70722 14.339 3.79041 15.0692 4.31724 15.3557ZM8.79066 1.53798V0.92797C8.79066 0.105377 7.79246 -0.310541 7.21018 0.271744L5.25074 2.24042C4.88103 2.61013 4.88103 3.20165 5.25074 3.56212L7.21942 5.48458C7.8017 6.05762 8.79066 5.64171 8.79066 4.81911V3.40499C11.4156 3.84864 13.412 6.12232 13.412 8.86738C13.412 11.3906 11.7298 13.5072 9.41916 14.1819C9.04021 14.2928 8.79066 14.6533 8.79066 15.0507V15.0692C8.79066 15.6699 9.35446 16.1228 9.9275 15.9565C13.0145 15.0692 15.2605 12.2317 15.2605 8.86738C15.2605 5.09639 12.4415 1.99087 8.79066 1.53798Z" fill="#5987FF"/>
</svg>
