<svg width="16" height="16" viewBox="0 0 16 16" fill="none" xmlns="http://www.w3.org/2000/svg">
<path d="M10.75 2.23689L8.78081 0.267708C8.20762 -0.305481 7.20916 0.101298 7.20916 0.924102V1.53427C3.56664 1.98728 0.737671 5.09359 0.737671 8.86555C0.737671 12.2307 2.9842 15.0689 6.07203 15.9657C6.64522 16.1321 7.20916 15.6699 7.20916 15.0782V15.0504C7.20916 14.6529 6.95955 14.2924 6.5805 14.1814C4.26926 13.5158 2.58667 11.3894 2.58667 8.86555C2.58667 6.11979 4.58359 3.84552 7.20916 3.40176V4.81624C7.20916 5.63905 8.19838 6.04583 8.78081 5.47264L10.75 3.54968C11.1198 3.19837 11.1198 2.60669 10.75 2.23689ZM15.2246 6.79467C15.0767 6.2862 14.8733 5.79621 14.6144 5.32472C14.3278 4.79775 13.5975 4.71455 13.1722 5.13982L13.1629 5.14906C12.8763 5.43566 12.8116 5.87017 13.0058 6.22148C13.1907 6.56355 13.3386 6.9241 13.4495 7.2939C13.5605 7.68219 13.921 7.94105 14.3186 7.94105H14.3371C14.938 7.94105 15.4002 7.36786 15.2246 6.79467ZM9.05816 15.0412V15.0597C9.05816 15.6606 9.63135 16.1136 10.2045 15.9472C10.713 15.7993 11.203 15.5959 11.6745 15.337C12.2015 15.0504 12.2847 14.3201 11.8594 13.8948L11.8409 13.8763C11.5543 13.5897 11.1198 13.525 10.7685 13.7192C10.4264 13.9133 10.0659 14.0612 9.69607 14.1722C9.31702 14.2831 9.05816 14.6437 9.05816 15.0412ZM13.1629 12.5913C13.5882 13.0166 14.3186 12.9333 14.6052 12.4064C14.864 11.9349 15.0674 11.4449 15.2246 10.9364C15.391 10.3632 14.938 9.79005 14.3371 9.79005H14.3186C13.9118 9.79005 13.5605 10.0489 13.4495 10.4372C13.3386 10.807 13.1907 11.1676 13.0058 11.5189C12.8116 11.8702 12.8856 12.3139 13.1629 12.5913Z" fill="#5987FF"/>
</svg>
