<svg width="18" height="18" viewBox="0 0 18 18" fill="none" xmlns="http://www.w3.org/2000/svg">
<path d="M10.5392 17H7.46082C7.2556 17 7.07774 16.9333 6.92724 16.8C6.77674 16.6667 6.68781 16.5 6.66045 16.3L6.41418 14.44C6.23632 14.3733 6.06886 14.2933 5.91179 14.2C5.75418 14.1067 5.60012 14.0067 5.44963 13.9L3.66418 14.62C3.47264 14.6867 3.28109 14.6933 3.08955 14.64C2.89801 14.5867 2.74751 14.4733 2.63806 14.3L1.1194 11.72C1.00995 11.5467 0.975746 11.36 1.01679 11.16C1.05784 10.96 1.16045 10.8 1.32463 10.68L2.86381 9.54C2.85012 9.44667 2.84328 9.35653 2.84328 9.2696V8.7296C2.84328 8.6432 2.85012 8.55333 2.86381 8.46L1.32463 7.32C1.16045 7.2 1.05784 7.04 1.01679 6.84C0.975746 6.64 1.00995 6.45333 1.1194 6.28L2.63806 3.7C2.73383 3.51333 2.88077 3.39653 3.07888 3.3496C3.27754 3.3032 3.47264 3.31333 3.66418 3.38L5.44963 4.1C5.60012 3.99333 5.75746 3.89333 5.92164 3.8C6.08582 3.70667 6.25 3.62667 6.41418 3.56L6.66045 1.7C6.68781 1.5 6.77674 1.33333 6.92724 1.2C7.07774 1.06667 7.2556 1 7.46082 1H10.5392C10.7444 1 10.9223 1.06667 11.0728 1.2C11.2233 1.33333 11.3122 1.5 11.3396 1.7L11.5858 3.56C11.7637 3.62667 11.9314 3.70667 12.089 3.8C12.2461 3.89333 12.3999 3.99333 12.5504 4.1L14.3358 3.38C14.5274 3.31333 14.7189 3.30667 14.9104 3.36C15.102 3.41333 15.2525 3.52667 15.3619 3.7L16.8806 6.28C16.99 6.45333 17.0243 6.64 16.9832 6.84C16.9422 7.04 16.8396 7.2 16.6754 7.32L15.1362 8.46C15.1499 8.55333 15.1567 8.6432 15.1567 8.7296V9.2696C15.1567 9.35653 15.143 9.44667 15.1157 9.54L16.6549 10.68C16.819 10.8 16.9216 10.96 16.9627 11.16C17.0037 11.36 16.9695 11.5467 16.8601 11.72L15.3414 14.28C15.232 14.4533 15.0782 14.5701 14.8801 14.6304C14.6814 14.6901 14.4863 14.6867 14.2948 14.62L12.5504 13.9C12.3999 14.0067 12.2425 14.1067 12.0784 14.2C11.9142 14.2933 11.75 14.3733 11.5858 14.44L11.3396 16.3C11.3122 16.5 11.2233 16.6667 11.0728 16.8C10.9223 16.9333 10.7444 17 10.5392 17ZM9.04105 11.8C9.83458 11.8 10.5118 11.5267 11.0728 10.98C11.6337 10.4333 11.9142 9.77333 11.9142 9C11.9142 8.22667 11.6337 7.56667 11.0728 7.02C10.5118 6.47333 9.83458 6.2 9.04105 6.2C8.23383 6.2 7.55303 6.47333 6.99866 7.02C6.44483 7.56667 6.16791 8.22667 6.16791 9C6.16791 9.77333 6.44483 10.4333 6.99866 10.98C7.55303 11.5267 8.23383 11.8 9.04105 11.8ZM9.04105 10.2C8.69901 10.2 8.40841 10.0832 8.16925 9.8496C7.92955 9.61653 7.8097 9.33333 7.8097 9C7.8097 8.66667 7.92955 8.38347 8.16925 8.1504C8.40841 7.9168 8.69901 7.8 9.04105 7.8C9.38308 7.8 9.67395 7.9168 9.91366 8.1504C10.1528 8.38347 10.2724 8.66667 10.2724 9C10.2724 9.33333 10.1528 9.61653 9.91366 9.8496C9.67395 10.0832 9.38308 10.2 9.04105 10.2ZM8.1791 15.4H9.80037L10.0877 13.28C10.5118 13.1733 10.9053 13.0165 11.2681 12.8096C11.6304 12.6032 11.9621 12.3533 12.2631 12.06L14.2948 12.88L15.0951 11.52L13.3302 10.22C13.3986 10.0333 13.4465 9.83653 13.4739 9.6296C13.5012 9.4232 13.5149 9.21333 13.5149 9C13.5149 8.78667 13.5012 8.57653 13.4739 8.3696C13.4465 8.1632 13.3986 7.96667 13.3302 7.78L15.0951 6.48L14.2948 5.12L12.2631 5.96C11.9621 5.65333 11.6304 5.39653 11.2681 5.1896C10.9053 4.9832 10.5118 4.82667 10.0877 4.72L9.8209 2.6H8.19963L7.91231 4.72C7.48818 4.82667 7.09497 4.9832 6.73269 5.1896C6.36985 5.39653 6.03793 5.64667 5.73694 5.94L3.70522 5.12L2.90485 6.48L4.66978 7.76C4.60137 7.96 4.55348 8.16 4.52612 8.36C4.49876 8.56 4.48507 8.77333 4.48507 9C4.48507 9.21333 4.49876 9.42 4.52612 9.62C4.55348 9.82 4.60137 10.02 4.66978 10.22L2.90485 11.52L3.70522 12.88L5.73694 12.04C6.03793 12.3467 6.36985 12.6032 6.73269 12.8096C7.09497 13.0165 7.48818 13.1733 7.91231 13.28L8.1791 15.4Z" fill="#3B6CEC"/>
</svg>
