<svg width="16" height="16" viewBox="0 0 16 16" fill="none" xmlns="http://www.w3.org/2000/svg">
<path fill-rule="evenodd" clip-rule="evenodd" d="M15.1805 5.12934L10.8112 4.49233L8.85832 0.532715C8.50841 -0.173078 7.49458 -0.18205 7.14168 0.532715L5.18879 4.49233L0.819452 5.12934C0.035902 5.24299 -0.278116 6.20897 0.290107 6.76224L3.45122 9.8426L2.70356 14.194C2.56898 14.9805 3.39739 15.5697 4.09122 15.2018L8 13.1473L11.9088 15.2018C12.6026 15.5667 13.431 14.9805 13.2964 14.194L12.5488 9.8426L15.7099 6.76224C16.2781 6.20897 15.9641 5.24299 15.1805 5.12934ZM10.967 12.4474L10.3995 9.14444L12.8016 6.80366L9.48248 6.31976L8 3.31393L6.51752 6.31976L3.19836 6.80366L5.60049 9.14444L5.03298 12.4474L8 10.8878L10.967 12.4474Z" fill="#EDEDF2"/>
</svg>
