<svg width="19" height="18" viewBox="0 0 19 18" fill="none" xmlns="http://www.w3.org/2000/svg">
<path d="M2.58639 17.8889C2.04318 17.8889 1.578 17.6956 1.19084 17.3091C0.804335 16.9219 0.611084 16.4568 0.611084 15.9136V2.08639C0.611084 1.54318 0.804335 1.078 1.19084 0.690837C1.578 0.304335 2.04318 0.111084 2.58639 0.111084H16.4136C16.9568 0.111084 17.4219 0.304335 17.8091 0.690837C18.1956 1.078 18.3889 1.54318 18.3889 2.08639V15.9136C18.3889 16.4568 18.1956 16.9219 17.8091 17.3091C17.4219 17.6956 16.9568 17.8889 16.4136 17.8889H2.58639ZM2.58639 15.9136H16.4136V2.08639H2.58639V15.9136ZM5.54936 13.9382C5.82919 13.9382 6.06392 13.8434 6.25355 13.6538C6.44252 13.4648 6.53701 13.2304 6.53701 12.9506V9.98763C6.53701 9.70779 6.44252 9.47306 6.25355 9.28343C6.06392 9.09446 5.82919 8.99997 5.54936 8.99997C5.26952 8.99997 5.03479 9.09446 4.84516 9.28343C4.65619 9.47306 4.5617 9.70779 4.5617 9.98763V12.9506C4.5617 13.2304 4.65619 13.4648 4.84516 13.6538C5.03479 13.8434 5.26952 13.9382 5.54936 13.9382ZM13.4506 13.9382C13.7304 13.9382 13.9648 13.8434 14.1538 13.6538C14.3434 13.4648 14.4382 13.2304 14.4382 12.9506V5.04936C14.4382 4.76952 14.3434 4.53479 14.1538 4.34516C13.9648 4.15619 13.7304 4.0617 13.4506 4.0617C13.1708 4.0617 12.9364 4.15619 12.7474 4.34516C12.5578 4.53479 12.4629 4.76952 12.4629 5.04936V12.9506C12.4629 13.2304 12.5578 13.4648 12.7474 13.6538C12.9364 13.8434 13.1708 13.9382 13.4506 13.9382ZM9.49997 13.9382C9.77981 13.9382 10.0145 13.8434 10.2042 13.6538C10.3931 13.4648 10.4876 13.2304 10.4876 12.9506V11.9629C10.4876 11.6831 10.3931 11.4484 10.2042 11.2587C10.0145 11.0698 9.77981 10.9753 9.49997 10.9753C9.22014 10.9753 8.98573 11.0698 8.79676 11.2587C8.60713 11.4484 8.51232 11.6831 8.51232 11.9629V12.9506C8.51232 13.2304 8.60713 13.4648 8.79676 13.6538C8.98573 13.8434 9.22014 13.9382 9.49997 13.9382ZM9.49997 8.99997C9.77981 8.99997 10.0145 8.90516 10.2042 8.71553C10.3931 8.52656 10.4876 8.29215 10.4876 8.01232C10.4876 7.73248 10.3931 7.49775 10.2042 7.30812C10.0145 7.11915 9.77981 7.02466 9.49997 7.02466C9.22014 7.02466 8.98573 7.11915 8.79676 7.30812C8.60713 7.49775 8.51232 7.73248 8.51232 8.01232C8.51232 8.29215 8.60713 8.52656 8.79676 8.71553C8.98573 8.90516 9.22014 8.99997 9.49997 8.99997Z" fill="#E6E6EB"/>
</svg>
