<svg width="16" height="14" viewBox="0 0 16 14" fill="none" xmlns="http://www.w3.org/2000/svg">
<path d="M0.915208 13.6059C0.775208 13.6059 0.654375 13.5752 0.552708 13.5138C0.45118 13.4524 0.372222 13.3714 0.315833 13.2709C0.250833 13.1725 0.222014 13.0614 0.229375 12.9375C0.236736 12.8136 0.272013 12.6945 0.335208 12.58L7.4275 0.798351C7.49083 0.683907 7.57368 0.602935 7.67604 0.555435C7.7784 0.507935 7.8866 0.484184 8.00062 0.484184C8.11451 0.484184 8.2225 0.507935 8.32458 0.555435C8.42653 0.602935 8.50917 0.683907 8.5725 0.798351L15.6648 12.58C15.728 12.6945 15.7633 12.8136 15.7706 12.9375C15.778 13.0614 15.7492 13.1725 15.6842 13.2709C15.6218 13.37 15.5413 13.4506 15.4427 13.5127C15.3441 13.5748 15.2248 13.6059 15.0848 13.6059H0.915208ZM7.99563 11.3623C8.16146 11.3623 8.30194 11.3062 8.41708 11.194C8.53222 11.0818 8.58979 10.9427 8.58979 10.7769C8.58979 10.6111 8.53368 10.4706 8.42146 10.3554C8.30924 10.2403 8.17021 10.1827 8.00437 10.1827C7.83854 10.1827 7.69806 10.2388 7.58292 10.3511C7.46778 10.4633 7.41021 10.6023 7.41021 10.7681C7.41021 10.934 7.46632 11.0745 7.57854 11.1896C7.69076 11.3047 7.82979 11.3623 7.99563 11.3623ZM7.99583 9.18273C8.14819 9.18273 8.27722 9.13085 8.38292 9.0271C8.48875 8.92321 8.54167 8.79453 8.54167 8.64106V5.72439C8.54167 5.57092 8.49014 5.44231 8.38708 5.33856C8.28403 5.23467 8.15639 5.18273 8.00417 5.18273C7.85181 5.18273 7.72278 5.23467 7.61708 5.33856C7.51125 5.44231 7.45833 5.57092 7.45833 5.72439V8.64106C7.45833 8.79453 7.50986 8.92321 7.61292 9.0271C7.71597 9.13085 7.84361 9.18273 7.99583 9.18273Z" fill="#313131"/>
</svg>
