<svg width="150" height="131" viewBox="0 0 150 131" fill="none" xmlns="http://www.w3.org/2000/svg">
<path d="M0.470825 0.9375V130.938H149.346V0.9375H0.470825ZM5.47083 5.9375H34.5958L5.47083 56.5313V5.9375ZM115.19 5.9375H144.346V56.5938L115.19 5.9375ZM40.4083 5.96875H109.408L143.971 65.9688L109.408 125.906H40.4083L5.84583 65.9688L40.4083 5.96875ZM74.9083 55.9375C69.3883 55.9375 64.9083 60.4175 64.9083 65.9375C64.9083 71.4575 69.3883 75.9375 74.9083 75.9375C80.4283 75.9375 84.9083 71.4575 84.9083 65.9375C84.9083 60.4175 80.4283 55.9375 74.9083 55.9375ZM144.346 75.2813V125.938H115.221L144.346 75.2813ZM5.47083 75.3438L34.5646 125.938H5.47083V75.3438Z" fill="black"/>
</svg>
