<svg width="36" height="37" viewBox="0 0 36 37" fill="none" xmlns="http://www.w3.org/2000/svg">
<path d="M11.1145 4.43134L11.1144 4.43135L11.117 4.43996L14.1239 14.6921L7.1833 14.6921L5.29969 11.5388L5.29868 11.5371C4.96336 10.9782 4.35451 10.665 3.74853 10.665L2.94311 10.665L2.81425 10.665C1.64434 10.665 0.763187 11.7651 1.05556 12.9093C1.05593 12.9107 1.0563 12.9122 1.05666 12.9136L2.2307 17.6099L2.23065 17.6099L2.23323 17.6198L2.36372 18.12L2.27881 18.4785L2.10461 19.1436L2.10457 19.1436L2.10244 19.1521L1.3295 22.2117L1.32924 22.2127L1.05565 23.2909L1.0548 23.2943C0.764032 24.4574 1.64914 25.5356 2.81425 25.5356L3.41026 25.5356L3.74853 25.5356C4.38171 25.5356 4.96889 25.2131 5.29868 24.6635L7.18201 21.5246L14.14 21.5246L11.1344 31.7721C11.1342 31.773 11.1339 31.7739 11.1336 31.7748C10.6217 33.4961 11.9092 35.2167 13.7035 35.2167C14.6468 35.2167 15.5458 34.7124 16.0193 33.879L23.2957 21.5246L31.5837 21.5246C33.473 21.5246 35 19.9976 35 18.1083C35 16.2191 33.473 14.6921 31.5837 14.6921L23.2957 14.6921L16.0193 2.33767C15.5458 1.50425 14.6468 0.999998 13.7035 0.999998C11.9059 0.999998 10.6292 2.71995 11.1145 4.43134Z" fill="#E6E6EB" stroke="#18181B" stroke-width="2"/>
</svg>
