<svg width="16" height="12" viewBox="0 0 16 12" fill="none" xmlns="http://www.w3.org/2000/svg">
<path d="M15.5998 10.4H0.400063C0.179068 10.4 7.10641e-05 10.579 7.10641e-05 10.8V11.6C7.10641e-05 11.821 0.179068 12 0.400063 12H15.5998C15.8208 12 15.9998 11.821 15.9998 11.6V10.8C15.9998 10.579 15.8208 10.4 15.5998 10.4ZM2.01378 7.73178C2.17078 7.90278 2.39128 7.99978 2.62202 7.99953L5.88546 7.99503C6.143 7.99468 6.39685 7.93371 6.62645 7.81703L13.9003 4.12585C14.5688 3.78661 15.168 3.30237 15.5758 2.66813C16.0335 1.95614 16.0833 1.4409 15.9025 1.07691C15.7223 0.712667 15.284 0.445172 14.4463 0.390673C13.7001 0.342174 12.9578 0.53867 12.2893 0.877664L9.82663 2.12739L4.35924 0.0759287C4.2935 0.0316441 4.21713 0.00572233 4.13802 0.000843772C4.05891 -0.00403478 3.97993 0.0123069 3.90925 0.0481793L2.26553 0.882414C1.99878 1.01766 1.93428 1.37365 2.13628 1.59565L6.04171 4.0481L3.46151 5.35758L1.65279 4.44585C1.59047 4.41443 1.52165 4.3981 1.45186 4.39819C1.38207 4.39828 1.31328 4.41477 1.25105 4.44635L0.247816 4.95559C-0.0131787 5.08808 -0.0819274 5.43358 0.108569 5.65757L2.01378 7.73178Z" fill="#E6E6EB"/>
</svg>
