<svg width="18" height="12" viewBox="0 0 18 12" fill="none" xmlns="http://www.w3.org/2000/svg">
<path d="M16.8515 10.0706H1.6518C1.43081 10.0706 1.25181 10.2496 1.25181 10.4706V11.2706C1.25181 11.4916 1.43081 11.6706 1.6518 11.6706H16.8515C17.0725 11.6706 17.2515 11.4916 17.2515 11.2706V10.4706C17.2515 10.2496 17.0725 10.0706 16.8515 10.0706Z" fill="#E6E6EB"/>
<path d="M1.9471 6.8437C1.74108 6.73977 1.58811 6.55369 1.5252 6.33024L0.761364 3.61938C0.692484 3.33352 0.909778 3.05625 1.20248 3.05583L2.32755 3.05425C2.39734 3.05417 2.46617 3.0705 2.52848 3.10192C2.59079 3.13335 2.64484 3.17898 2.68627 3.23514L3.88871 4.86512L6.78218 4.86128L4.40421 0.910053C4.32417 0.620783 4.54241 0.332231 4.84149 0.331948L6.68478 0.329468C6.76405 0.329361 6.8419 0.350428 6.91029 0.39049C6.97868 0.430553 7.03513 0.488157 7.0738 0.557346L11.0266 4.85579L13.7882 4.85222C14.5377 4.85146 15.2888 5.01115 15.9328 5.39126C16.6557 5.81803 16.926 6.25453 16.9224 6.66092C16.9194 7.06731 16.6425 7.50462 15.9126 7.93333C15.2625 8.31524 14.5092 8.47686 13.7596 8.47784L5.60276 8.48836C5.34521 8.48883 5.09118 8.42867 4.86121 8.31272L1.9471 6.8437Z" fill="#E6E6EB"/>
</svg>
