<svg width="18" height="18" viewBox="0 0 18 18" fill="none" xmlns="http://www.w3.org/2000/svg">
<path d="M16.8515 13.0706H1.6518C1.43081 13.0706 1.25181 13.2496 1.25181 13.4706V14.2706C1.25181 14.4916 1.43081 14.6706 1.6518 14.6706H16.8515C17.0725 14.6706 17.2515 14.4916 17.2515 14.2706V13.4706C17.2515 13.2496 17.0725 13.0706 16.8515 13.0706Z" fill="#E6E6EB"/>
<path d="M1.9471 9.8437C1.74108 9.73977 1.58811 9.55369 1.5252 9.33024L0.761364 6.61938C0.692484 6.33352 0.909778 6.05625 1.20248 6.05583L2.32755 6.05425C2.39734 6.05417 2.46617 6.0705 2.52848 6.10192C2.59079 6.13335 2.64484 6.17898 2.68627 6.23514L3.88871 7.86512L6.78218 7.86128L4.40421 3.91005C4.32417 3.62078 4.54241 3.33223 4.84149 3.33195L6.68478 3.32947C6.76405 3.32936 6.8419 3.35043 6.91029 3.39049C6.97868 3.43055 7.03513 3.48816 7.0738 3.55735L11.0266 7.85579L13.7882 7.85222C14.5377 7.85146 15.2888 8.01115 15.9328 8.39126C16.6557 8.81803 16.926 9.25453 16.9224 9.66092C16.9194 10.0673 16.6425 10.5046 15.9126 10.9333C15.2625 11.3152 14.5092 11.4769 13.7596 11.4778L5.60276 11.4884C5.34521 11.4888 5.09118 11.4287 4.86121 11.3127L1.9471 9.8437Z" fill="#E6E6EB"/>
</svg>
