<svg width="16" height="14" viewBox="0 0 16 14" fill="none" xmlns="http://www.w3.org/2000/svg">
<path d="M15.6 11.8H0.4C0.179 11.8 0 11.979 0 12.2V13C0 13.221 0.179 13.4 0.4 13.4H15.6C15.821 13.4 16 13.221 16 13V12.2C16 11.979 15.821 11.8 15.6 11.8ZM1.12025 5.74149L3.33875 7.7415C3.52078 7.90586 3.7389 8.02515 3.9755 8.08975L11.1655 10.0485C11.8275 10.2287 12.5295 10.2665 13.1905 10.0825C13.9323 9.87574 14.2765 9.55225 14.3717 9.18974C14.4675 8.82724 14.3285 8.37199 13.7875 7.81574C13.3055 7.32025 12.6788 6.99599 12.0168 6.81574L9.579 6.15174L7.07 1.3555C7.03225 1.21025 6.92125 1.09675 6.7785 1.05775L5.15125 0.614495C4.88725 0.542495 4.62875 0.747495 4.6335 1.0255L5.8315 5.13074L3.2765 4.43474L2.58675 2.73775C2.5385 2.61549 2.4365 2.52349 2.31125 2.48949L1.318 2.21874C1.0595 2.14824 0.80475 2.34374 0.8 2.61574L0.80575 5.16024C0.8105 5.38299 0.9565 5.59374 1.12025 5.74149Z" fill="#E6E6EB"/>
</svg>
