<svg width="44" height="44" viewBox="0 0 44 44" fill="none" xmlns="http://www.w3.org/2000/svg">
<path d="M27 22C27 23.3261 26.4732 24.5979 25.5355 25.5355C24.5979 26.4732 23.3261 27 22 27C20.6739 27 19.4021 26.4732 18.4645 25.5355C17.5268 24.5979 17 23.3261 17 22C17 20.6739 17.5268 19.4021 18.4645 18.4645C19.4021 17.5268 20.6739 17 22 17C23.3261 17 24.5979 17.5268 25.5355 18.4645C26.4732 19.4021 27 20.6739 27 22Z" stroke="black" stroke-width="3" stroke-linecap="square"/>
<path d="M22.625 22C22.625 22.1658 22.5592 22.3247 22.4419 22.4419C22.3247 22.5592 22.1658 22.625 22 22.625C21.8342 22.625 21.6753 22.5592 21.5581 22.4419C21.4408 22.3247 21.375 22.1658 21.375 22C21.375 21.8342 21.4408 21.6753 21.5581 21.5581C21.6753 21.4408 21.8342 21.375 22 21.375C22.1658 21.375 22.3247 21.4408 22.4419 21.5581C22.5592 21.6753 22.625 21.8342 22.625 22Z" fill="black" stroke="black" stroke-width="2" stroke-linecap="square"/>
<path d="M22.625 12C22.625 12.1658 22.5592 12.3247 22.4419 12.4419C22.3247 12.5592 22.1658 12.625 22 12.625C21.8342 12.625 21.6753 12.5592 21.5581 12.4419C21.4408 12.3247 21.375 12.1658 21.375 12C21.375 11.8342 21.4408 11.6753 21.5581 11.5581C21.6753 11.4408 21.8342 11.375 22 11.375C22.1658 11.375 22.3247 11.4408 22.4419 11.5581C22.5592 11.6753 22.625 11.8342 22.625 12Z" stroke="black" stroke-width="2" stroke-linecap="square"/>
<path d="M22.625 32C22.625 32.1658 22.5592 32.3247 22.4419 32.4419C22.3247 32.5592 22.1658 32.625 22 32.625C21.8342 32.625 21.6753 32.5592 21.5581 32.4419C21.4408 32.3247 21.375 32.1658 21.375 32C21.375 31.8342 21.4408 31.6753 21.5581 31.5581C21.6753 31.4408 21.8342 31.375 22 31.375C22.1658 31.375 22.3247 31.4408 22.4419 31.5581C22.5592 31.6753 22.625 31.8342 22.625 32Z" stroke="black" stroke-width="2" stroke-linecap="square"/>
<path d="M17.5413 13.0271C17.6242 13.1707 17.6466 13.3413 17.6037 13.5014C17.5608 13.6615 17.4561 13.798 17.3125 13.8809C17.169 13.9638 16.9984 13.9862 16.8382 13.9433C16.6781 13.9004 16.5416 13.7957 16.4587 13.6521C16.3759 13.5086 16.3534 13.338 16.3963 13.1778C16.4392 13.0177 16.544 12.8812 16.6875 12.7983C16.8311 12.7155 17.0017 12.693 17.1618 12.7359C17.3219 12.7788 17.4584 12.8836 17.5413 13.0271Z" stroke="black" stroke-width="2" stroke-linecap="square"/>
<path d="M27.5413 30.3474C27.6242 30.491 27.6466 30.6616 27.6037 30.8217C27.5608 30.9818 27.4561 31.1183 27.3125 31.2012C27.169 31.2841 26.9984 31.3065 26.8382 31.2636C26.6781 31.2207 26.5416 31.116 26.4587 30.9724C26.3759 30.8289 26.3534 30.6583 26.3963 30.4982C26.4392 30.338 26.544 30.2015 26.6875 30.1187C26.8311 30.0358 27.0017 30.0133 27.1618 30.0562C27.3219 30.0991 27.4584 30.2039 27.5413 30.3474Z" stroke="black" stroke-width="2" stroke-linecap="square"/>
<path d="M13.6522 16.459C13.7958 16.5419 13.9005 16.6784 13.9434 16.8385C13.9863 16.9986 13.9639 17.1692 13.881 17.3127C13.7981 17.4563 13.6616 17.561 13.5015 17.6039C13.3414 17.6468 13.1708 17.6244 13.0272 17.5415C12.8837 17.4586 12.7789 17.3221 12.736 17.162C12.6931 17.0019 12.7156 16.8313 12.7985 16.6877C12.8813 16.5442 13.0179 16.4394 13.178 16.3965C13.3381 16.3536 13.5087 16.3761 13.6522 16.459Z" stroke="black" stroke-width="2" stroke-linecap="square"/>
<path d="M30.9728 26.459C31.1163 26.5419 31.2211 26.6784 31.264 26.8385C31.3069 26.9986 31.2844 27.1692 31.2016 27.3127C31.1187 27.4563 30.9822 27.561 30.822 27.6039C30.6619 27.6468 30.4913 27.6244 30.3478 27.5415C30.2042 27.4586 30.0995 27.3221 30.0566 27.162C30.0137 27.0019 30.0361 26.8313 30.119 26.6877C30.2019 26.5442 30.3384 26.4394 30.4985 26.3965C30.6586 26.3536 30.8292 26.3761 30.9728 26.459Z" stroke="black" stroke-width="2" stroke-linecap="square"/>
<path d="M12 21.375C12.1658 21.375 12.3247 21.4408 12.4419 21.5581C12.5592 21.6753 12.625 21.8342 12.625 22C12.625 22.1658 12.5592 22.3247 12.4419 22.4419C12.3247 22.5592 12.1658 22.625 12 22.625C11.8342 22.625 11.6753 22.5592 11.5581 22.4419C11.4408 22.3247 11.375 22.1658 11.375 22C11.375 21.8342 11.4408 21.6753 11.5581 21.5581C11.6753 21.4408 11.8342 21.375 12 21.375Z" stroke="black" stroke-width="2" stroke-linecap="square"/>
<path d="M32 21.375C32.1658 21.375 32.3247 21.4408 32.4419 21.5581C32.5592 21.6753 32.625 21.8342 32.625 22C32.625 22.1658 32.5592 22.3247 32.4419 22.4419C32.3247 22.5592 32.1658 22.625 32 22.625C31.8342 22.625 31.6753 22.5592 31.5581 22.4419C31.4408 22.3247 31.375 22.1658 31.375 22C31.375 21.8342 31.4408 21.6753 31.5581 21.5581C31.6753 21.4408 31.8342 21.375 32 21.375Z" stroke="black" stroke-width="2" stroke-linecap="square"/>
<path d="M13.0272 26.4585C13.1708 26.3756 13.3414 26.3531 13.5015 26.396C13.6616 26.4389 13.7981 26.5437 13.881 26.6872C13.9639 26.8308 13.9863 27.0014 13.9434 27.1615C13.9005 27.3216 13.7958 27.4581 13.6522 27.541C13.5087 27.6239 13.3381 27.6464 13.178 27.6035C13.0179 27.5606 12.8813 27.4558 12.7985 27.3122C12.7156 27.1687 12.6931 26.9981 12.736 26.838C12.7789 26.6779 12.8837 26.5414 13.0272 26.4585Z" stroke="black" stroke-width="2" stroke-linecap="square"/>
<path d="M30.3478 16.4585C30.4913 16.3756 30.6619 16.3531 30.822 16.396C30.9822 16.4389 31.1187 16.5437 31.2016 16.6872C31.2844 16.8308 31.3069 17.0014 31.264 17.1615C31.2211 17.3216 31.1163 17.4581 30.9728 17.541C30.8292 17.6239 30.6586 17.6464 30.4985 17.6035C30.3384 17.5606 30.2019 17.4558 30.119 17.3122C30.0361 17.1687 30.0137 16.9981 30.0566 16.838C30.0995 16.6779 30.2042 16.5414 30.3478 16.4585Z" stroke="black" stroke-width="2" stroke-linecap="square"/>
<path d="M16.4587 30.3479C16.5416 30.2043 16.6781 30.0996 16.8382 30.0567C16.9983 30.0138 17.1689 30.0362 17.3125 30.1191C17.456 30.202 17.5608 30.3385 17.6037 30.4986C17.6466 30.6587 17.6241 30.8293 17.5413 30.9729C17.4584 31.1164 17.3219 31.2212 17.1618 31.2641C17.0016 31.307 16.831 31.2845 16.6875 31.2017C16.5439 31.1188 16.4392 30.9823 16.3963 30.8222C16.3534 30.662 16.3758 30.4914 16.4587 30.3479Z" stroke="black" stroke-width="2" stroke-linecap="square"/>
<path d="M26.4587 13.0276C26.5416 12.884 26.6781 12.7793 26.8382 12.7364C26.9983 12.6935 27.1689 12.7159 27.3125 12.7988C27.456 12.8817 27.5608 13.0182 27.6037 13.1783C27.6466 13.3384 27.6241 13.509 27.5413 13.6526C27.4584 13.7961 27.3219 13.9009 27.1618 13.9438C27.0016 13.9867 26.831 13.9642 26.6875 13.8813C26.5439 13.7985 26.4392 13.662 26.3963 13.5018C26.3534 13.3417 26.3758 13.1711 26.4587 13.0276Z" stroke="black" stroke-width="2" stroke-linecap="square"/>
<path d="M16.2272 8.1412C16.2973 8.29143 16.3048 8.46333 16.2481 8.6191C16.1914 8.77486 16.0751 8.90172 15.9249 8.97178C15.7747 9.04183 15.6028 9.04934 15.447 8.99264C15.2913 8.93595 15.1644 8.8197 15.0943 8.66947C15.0243 8.51924 15.0168 8.34733 15.0735 8.19157C15.1302 8.03581 15.2464 7.90894 15.3966 7.83889C15.5469 7.76884 15.7188 7.76133 15.8745 7.81802C16.0303 7.87472 16.1572 7.99097 16.2272 8.1412Z" stroke="black" stroke-width="2" stroke-linecap="square"/>
<path d="M28.9058 35.3307C28.9759 35.4809 28.9834 35.6528 28.9267 35.8085C28.87 35.9643 28.7537 36.0912 28.6035 36.1612C28.4533 36.2313 28.2814 36.2388 28.1256 36.1821C27.9698 36.1254 27.843 36.0092 27.7729 35.8589C27.7029 35.7087 27.6954 35.5368 27.7521 35.381C27.8088 35.2253 27.925 35.0984 28.0752 35.0283C28.2255 34.9583 28.3974 34.9508 28.5531 35.0075C28.7089 35.0642 28.8358 35.1804 28.9058 35.3307Z" stroke="black" stroke-width="2" stroke-linecap="square"/>
<path d="M11.8353 10.9516C11.9526 11.0688 12.0184 11.2278 12.0184 11.3936C12.0184 11.5593 11.9526 11.7183 11.8353 11.8355C11.7181 11.9527 11.5592 12.0186 11.3934 12.0186C11.2276 12.0186 11.0687 11.9527 10.9515 11.8355C10.8343 11.7183 10.7684 11.5593 10.7684 11.3936C10.7684 11.2278 10.8343 11.0688 10.9515 10.9516C11.0687 10.8344 11.2276 10.7686 11.3934 10.7686C11.5592 10.7686 11.7181 10.8344 11.8353 10.9516Z" stroke="black" stroke-width="2" stroke-linecap="square"/>
<path d="M33.0486 32.165C33.1658 32.2822 33.2317 32.4412 33.2317 32.6069C33.2317 32.7727 33.1658 32.9317 33.0486 33.0489C32.9314 33.1661 32.7724 33.2319 32.6067 33.2319C32.4409 33.2319 32.2819 33.1661 32.1647 33.0489C32.0475 32.9317 31.9817 32.7727 31.9817 32.6069C31.9817 32.4412 32.0475 32.2822 32.1647 32.165C32.2819 32.0478 32.4409 31.9819 32.6067 31.9819C32.7724 31.9819 32.9314 32.0478 33.0486 32.165Z" stroke="black" stroke-width="2" stroke-linecap="square"/>
<path d="M8.66954 15.0941C8.81977 15.1642 8.93602 15.2911 8.99272 15.4468C9.04941 15.6026 9.0419 15.7745 8.97185 15.9247C8.9018 16.075 8.77493 16.1912 8.61917 16.2479C8.46341 16.3046 8.2915 16.2971 8.14127 16.227C7.99104 16.157 7.87479 16.0301 7.8181 15.8743C7.76141 15.7186 7.76891 15.5467 7.83897 15.3964C7.90902 15.2462 8.03588 15.13 8.19165 15.0733C8.34741 15.0166 8.51931 15.0241 8.66954 15.0941Z" stroke="black" stroke-width="2" stroke-linecap="square"/>
<path d="M35.8588 27.7729C36.009 27.8429 36.1252 27.9698 36.1819 28.1255C36.2386 28.2813 36.2311 28.4532 36.1611 28.6034C36.091 28.7537 35.9641 28.8699 35.8084 28.9266C35.6526 28.9833 35.4807 28.9758 35.3305 28.9057C35.1803 28.8357 35.064 28.7088 35.0073 28.5531C34.9506 28.3973 34.9581 28.2254 35.0282 28.0752C35.0982 27.9249 35.2251 27.8087 35.3809 27.752C35.5366 27.6953 35.7085 27.7028 35.8588 27.7729Z" stroke="black" stroke-width="2" stroke-linecap="square"/>
<path d="M7.11157 20.07C7.2767 20.0844 7.42933 20.1639 7.53588 20.2909C7.64243 20.4178 7.69417 20.5819 7.67972 20.7471C7.66527 20.9122 7.58582 21.0648 7.45884 21.1714C7.33186 21.2779 7.16776 21.3297 7.00263 21.3152C6.8375 21.3008 6.68487 21.2213 6.57832 21.0943C6.47177 20.9674 6.42003 20.8033 6.43448 20.6381C6.44892 20.473 6.52838 20.3204 6.65536 20.2138C6.78234 20.1073 6.94644 20.0555 7.11157 20.07Z" stroke="black" stroke-width="2" stroke-linecap="square"/>
<path d="M36.9974 22.6847C37.1626 22.6992 37.3152 22.7786 37.4217 22.9056C37.5283 23.0326 37.58 23.1967 37.5656 23.3618C37.5511 23.5269 37.4717 23.6796 37.3447 23.7861C37.2177 23.8927 37.0536 23.9444 36.8885 23.93C36.7234 23.9155 36.5707 23.8361 36.4642 23.7091C36.3576 23.5821 36.3059 23.418 36.3203 23.2529C36.3348 23.0877 36.4142 22.9351 36.5412 22.8286C36.6682 22.722 36.8323 22.6703 36.9974 22.6847Z" stroke="black" stroke-width="2" stroke-linecap="square"/>
<path d="M7.34939 25.2788C7.50951 25.2359 7.6801 25.2583 7.82366 25.3412C7.96721 25.4241 8.07196 25.5606 8.11486 25.7207C8.15776 25.8808 8.1353 26.0514 8.05242 26.195C7.96954 26.3385 7.83303 26.4433 7.67292 26.4862C7.51281 26.5291 7.34221 26.5066 7.19866 26.4238C7.0551 26.3409 6.95035 26.2044 6.90745 26.0442C6.86455 25.8841 6.88701 25.7135 6.96989 25.57C7.05277 25.4264 7.18928 25.3217 7.34939 25.2788Z" stroke="black" stroke-width="2" stroke-linecap="square"/>
<path d="M36.3272 17.5141C36.4873 17.4712 36.6579 17.4937 36.8014 17.5766C36.945 17.6594 37.0497 17.796 37.0926 17.9561C37.1355 18.1162 37.1131 18.2868 37.0302 18.4303C36.9473 18.5739 36.8108 18.6786 36.6507 18.7215C36.4906 18.7644 36.32 18.742 36.1764 18.6591C36.0329 18.5762 35.9281 18.4397 35.8852 18.2796C35.8423 18.1195 35.8648 17.9489 35.9477 17.8053C36.0306 17.6618 36.1671 17.557 36.3272 17.5141Z" stroke="black" stroke-width="2" stroke-linecap="square"/>
<path d="M9.3542 30.0917C9.48999 29.9966 9.65798 29.9594 9.82122 29.9882C9.98446 30.0169 10.1296 30.1094 10.2247 30.2452C10.3197 30.381 10.357 30.549 10.3282 30.7122C10.2994 30.8754 10.207 31.0206 10.0712 31.1156C9.93539 31.2107 9.7674 31.248 9.60416 31.2192C9.44092 31.1904 9.2958 31.0979 9.20072 30.9622C9.10564 30.8264 9.0684 30.6584 9.09718 30.4951C9.12597 30.3319 9.21842 30.1868 9.3542 30.0917Z" stroke="black" stroke-width="2" stroke-linecap="square"/>
<path d="M33.9288 12.8842C34.0646 12.7891 34.2326 12.7519 34.3958 12.7806C34.559 12.8094 34.7042 12.9019 34.7992 13.0377C34.8943 13.1734 34.9316 13.3414 34.9028 13.5047C34.874 13.6679 34.7815 13.813 34.6458 13.9081C34.51 14.0032 34.342 14.0404 34.1787 14.0117C34.0155 13.9829 33.8704 13.8904 33.7753 13.7546C33.6802 13.6188 33.643 13.4509 33.6718 13.2876C33.7006 13.1244 33.793 12.9793 33.9288 12.8842Z" stroke="black" stroke-width="2" stroke-linecap="square"/>
<path d="M12.8844 33.9288C12.9794 33.793 13.1245 33.7005 13.2878 33.6718C13.451 33.643 13.619 33.6802 13.7548 33.7753C13.8906 33.8704 13.983 34.0155 14.0118 34.1787C14.0406 34.342 14.0034 34.51 13.9083 34.6457C13.8132 34.7815 13.6681 34.874 13.5049 34.9028C13.3416 34.9315 13.1736 34.8943 13.0378 34.7992C12.9021 34.7042 12.8096 34.559 12.7808 34.3958C12.752 34.2325 12.7893 34.0646 12.8844 33.9288Z" stroke="black" stroke-width="2" stroke-linecap="square"/>
<path d="M30.0916 9.35407C30.1867 9.21828 30.3318 9.12583 30.4951 9.09705C30.6583 9.06826 30.8263 9.10551 30.9621 9.20058C31.0979 9.29566 31.1903 9.44078 31.2191 9.60402C31.2479 9.76726 31.2106 9.93526 31.1156 10.071C31.0205 10.2068 30.8754 10.2993 30.7121 10.3281C30.5489 10.3568 30.3809 10.3196 30.2451 10.2245C30.1093 10.1294 30.0169 9.98432 29.9881 9.82108C29.9593 9.65784 29.9965 9.48985 30.0916 9.35407Z" stroke="black" stroke-width="2" stroke-linecap="square"/>
<path d="M17.514 36.3272C17.5569 36.1671 17.6617 36.0305 17.8053 35.9477C17.9488 35.8648 18.1194 35.8423 18.2795 35.8852C18.4396 35.9281 18.5761 36.0329 18.659 36.1764C18.7419 36.32 18.7644 36.4906 18.7215 36.6507C18.6786 36.8108 18.5738 36.9473 18.4303 37.0302C18.2867 37.1131 18.1161 37.1355 17.956 37.0926C17.7959 37.0497 17.6594 36.945 17.5765 36.8014C17.4936 36.6579 17.4711 36.4873 17.514 36.3272Z" stroke="black" stroke-width="2" stroke-linecap="square"/>
<path d="M25.2786 7.34963C25.3215 7.18952 25.4262 7.053 25.5698 6.97012C25.7133 6.88724 25.8839 6.86478 26.044 6.90769C26.2042 6.95059 26.3407 7.05534 26.4235 7.19889C26.5064 7.34244 26.5289 7.51304 26.486 7.67315C26.4431 7.83326 26.3383 7.96978 26.1948 8.05266C26.0512 8.13554 25.8806 8.158 25.7205 8.11509C25.5604 8.07219 25.4239 7.96744 25.341 7.82389C25.2581 7.68034 25.2357 7.50974 25.2786 7.34963Z" stroke="black" stroke-width="2" stroke-linecap="square"/>
<path d="M22.6848 36.9976C22.6703 36.8324 22.7221 36.6683 22.8286 36.5413C22.9352 36.4144 23.0878 36.3349 23.2529 36.3205C23.4181 36.306 23.5822 36.3578 23.7091 36.4643C23.8361 36.5709 23.9156 36.7235 23.93 36.8886C23.9445 37.0537 23.8927 37.2178 23.7862 37.3448C23.6796 37.4718 23.527 37.5513 23.3619 37.5657C23.1967 37.5801 23.0326 37.5284 22.9057 37.4219C22.7787 37.3153 22.6992 37.1627 22.6848 36.9976Z" stroke="black" stroke-width="2" stroke-linecap="square"/>
<path d="M20.0702 7.11181C20.0557 6.94668 20.1075 6.78258 20.214 6.6556C20.3205 6.52862 20.4732 6.44916 20.6383 6.43472C20.8034 6.42027 20.9675 6.47201 21.0945 6.57856C21.2215 6.68511 21.301 6.83774 21.3154 7.00287C21.3298 7.168 21.2781 7.3321 21.1716 7.45908C21.065 7.58606 20.9124 7.66551 20.7473 7.67996C20.5821 7.69441 20.418 7.64267 20.291 7.53612C20.1641 7.42957 20.0846 7.27694 20.0702 7.11181Z" stroke="black" stroke-width="2" stroke-linecap="square"/>
<path d="M22.625 42C22.625 42.1658 22.5592 42.3247 22.4419 42.4419C22.3247 42.5592 22.1658 42.625 22 42.625C21.8342 42.625 21.6753 42.5592 21.5581 42.4419C21.4408 42.3247 21.375 42.1658 21.375 42C21.375 41.8342 21.4408 41.6753 21.5581 41.5581C21.6753 41.4408 21.8342 41.375 22 41.375C22.1658 41.375 22.3247 41.4408 22.4419 41.5581C22.5592 41.6753 22.625 41.8342 22.625 42Z" stroke="black" stroke-width="2" stroke-linecap="square"/>
<path d="M22.625 2C22.625 2.16576 22.5592 2.32473 22.4419 2.44194C22.3247 2.55915 22.1658 2.625 22 2.625C21.8342 2.625 21.6753 2.55915 21.5581 2.44194C21.4408 2.32473 21.375 2.16576 21.375 2C21.375 1.83424 21.4408 1.67527 21.5581 1.55806C21.6753 1.44085 21.8342 1.375 22 1.375C22.1658 1.375 22.3247 1.44085 22.4419 1.55806C22.5592 1.67527 22.625 1.83424 22.625 2Z" stroke="black" stroke-width="2" stroke-linecap="square"/>
<path d="M27.7802 41.1571C27.8231 41.3172 27.8006 41.4878 27.7177 41.6314C27.6349 41.7749 27.4984 41.8797 27.3382 41.9226C27.1781 41.9655 27.0075 41.943 26.864 41.8602C26.7204 41.7773 26.6157 41.6408 26.5728 41.4807C26.5299 41.3205 26.5523 41.1499 26.6352 41.0064C26.7181 40.8628 26.8546 40.7581 27.0147 40.7152C27.1748 40.6723 27.3454 40.6947 27.489 40.7776C27.6325 40.8605 27.7373 40.997 27.7802 41.1571Z" stroke="black" stroke-width="2" stroke-linecap="square"/>
<path d="M17.4274 2.51993C17.4703 2.68004 17.4478 2.85064 17.365 2.99419C17.2821 3.13774 17.1456 3.24249 16.9855 3.28539C16.8253 3.32829 16.6547 3.30583 16.5112 3.22295C16.3676 3.14007 16.2629 3.00356 16.22 2.84345C16.1771 2.68334 16.1995 2.51274 16.2824 2.36919C16.3653 2.22563 16.5018 2.12089 16.6619 2.07798C16.822 2.03508 16.9926 2.05754 17.1362 2.14042C17.2797 2.2233 17.3845 2.35981 17.4274 2.51993Z" stroke="black" stroke-width="2" stroke-linecap="square"/>
<path d="M32.5413 39.0081C32.6242 39.1516 32.6466 39.3222 32.6037 39.4823C32.5608 39.6424 32.4561 39.7789 32.3125 39.8618C32.169 39.9447 31.9984 39.9672 31.8382 39.9243C31.6781 39.8814 31.5416 39.7766 31.4587 39.6331C31.3759 39.4895 31.3534 39.3189 31.3963 39.1588C31.4392 38.9987 31.544 38.8622 31.6875 38.7793C31.8311 38.6964 32.0017 38.674 32.1618 38.7169C32.3219 38.7598 32.4584 38.8645 32.5413 39.0081Z" stroke="black" stroke-width="2" stroke-linecap="square"/>
<path d="M12.5413 4.36695C12.6242 4.5105 12.6466 4.6811 12.6037 4.84121C12.5608 5.00132 12.4561 5.13784 12.3125 5.22072C12.169 5.3036 11.9984 5.32606 11.8382 5.28315C11.6781 5.24025 11.5416 5.1355 11.4587 4.99195C11.3759 4.8484 11.3534 4.6778 11.3963 4.51769C11.4392 4.35758 11.544 4.22106 11.6875 4.13818C11.8311 4.0553 12.0017 4.03284 12.1618 4.07575C12.3219 4.11865 12.4584 4.2234 12.5413 4.36695Z" stroke="black" stroke-width="2" stroke-linecap="square"/>
<path d="M36.5841 35.7001C36.7013 35.8174 36.7672 35.9763 36.7672 36.1421C36.7672 36.3079 36.7013 36.4668 36.5841 36.584C36.4669 36.7012 36.3079 36.7671 36.1422 36.7671C35.9764 36.7671 35.8175 36.7012 35.7002 36.584C35.583 36.4668 35.5172 36.3079 35.5172 36.1421C35.5172 35.9763 35.583 35.8174 35.7002 35.7001C35.8175 35.5829 35.9764 35.5171 36.1422 35.5171C36.3079 35.5171 36.4669 35.5829 36.5841 35.7001Z" stroke="black" stroke-width="2" stroke-linecap="square"/>
<path d="M8.29982 7.41597C8.41703 7.53318 8.48288 7.69215 8.48288 7.85791C8.48288 8.02367 8.41703 8.18264 8.29982 8.29985C8.18261 8.41706 8.02364 8.48291 7.85788 8.48291C7.69212 8.48291 7.53315 8.41706 7.41594 8.29985C7.29873 8.18264 7.23288 8.02367 7.23288 7.85791C7.23288 7.69215 7.29873 7.53318 7.41594 7.41597C7.53315 7.29876 7.69212 7.23291 7.85788 7.23291C8.02364 7.23291 8.18261 7.29876 8.29982 7.41597Z" stroke="black" stroke-width="2" stroke-linecap="square"/>
<path d="M39.6329 31.4585C39.7765 31.5414 39.8812 31.6779 39.9241 31.838C39.967 31.9981 39.9446 32.1687 39.8617 32.3122C39.7788 32.4558 39.6423 32.5606 39.4822 32.6035C39.3221 32.6464 39.1515 32.6239 39.0079 32.541C38.8644 32.4581 38.7596 32.3216 38.7167 32.1615C38.6738 32.0014 38.6963 31.8308 38.7792 31.6872C38.8621 31.5437 38.9986 31.4389 39.1587 31.396C39.3188 31.3531 39.4894 31.3756 39.6329 31.4585Z" stroke="black" stroke-width="2" stroke-linecap="square"/>
<path d="M4.99195 11.4585C5.1355 11.5414 5.24025 11.6779 5.28315 11.838C5.32606 11.9981 5.3036 12.1687 5.22072 12.3122C5.13784 12.4558 5.00132 12.5606 4.84121 12.6035C4.6811 12.6464 4.5105 12.6239 4.36695 12.541C4.2234 12.4581 4.11865 12.3216 4.07575 12.1615C4.03284 12.0014 4.0553 11.8308 4.13818 11.6872C4.22106 11.5437 4.35758 11.4389 4.51769 11.396C4.6778 11.3531 4.8484 11.3756 4.99195 11.4585Z" stroke="black" stroke-width="2" stroke-linecap="square"/>
<path d="M41.4803 26.5725C41.6404 26.6154 41.777 26.7202 41.8598 26.8637C41.9427 27.0073 41.9652 27.1779 41.9223 27.338C41.8794 27.4981 41.7746 27.6346 41.6311 27.7175C41.4875 27.8004 41.3169 27.8228 41.1568 27.7799C40.9967 27.737 40.8602 27.6323 40.7773 27.4887C40.6944 27.3452 40.672 27.1746 40.7149 27.0145C40.7578 26.8543 40.8625 26.7178 41.0061 26.635C41.1496 26.5521 41.3202 26.5296 41.4803 26.5725Z" stroke="black" stroke-width="2" stroke-linecap="square"/>
<path d="M2.84324 16.22C3.00336 16.2629 3.13987 16.3676 3.22275 16.5112C3.30563 16.6547 3.32809 16.8253 3.28518 16.9854C3.24228 17.1456 3.13753 17.2821 2.99398 17.3649C2.85043 17.4478 2.67983 17.4703 2.51972 17.4274C2.35961 17.3845 2.22309 17.2797 2.14021 17.1362C2.05733 16.9926 2.03488 16.822 2.07778 16.6619C2.12068 16.5018 2.22543 16.3653 2.36898 16.2824C2.51253 16.1995 2.68313 16.1771 2.84324 16.22Z" stroke="black" stroke-width="2" stroke-linecap="square"/>
<path d="M42 21.375C42.1658 21.375 42.3247 21.4408 42.4419 21.5581C42.5592 21.6753 42.625 21.8342 42.625 22C42.625 22.1658 42.5592 22.3247 42.4419 22.4419C42.3247 22.5592 42.1658 22.625 42 22.625C41.8342 22.625 41.6753 22.5592 41.5581 22.4419C41.4408 22.3247 41.375 22.1658 41.375 22C41.375 21.8342 41.4408 21.6753 41.5581 21.5581C41.6753 21.4408 41.8342 21.375 42 21.375Z" stroke="black" stroke-width="2" stroke-linecap="square"/>
<path d="M2 21.375C2.16576 21.375 2.32473 21.4408 2.44194 21.5581C2.55915 21.6753 2.625 21.8342 2.625 22C2.625 22.1658 2.55915 22.3247 2.44194 22.4419C2.32473 22.5592 2.16576 22.625 2 22.625C1.83424 22.625 1.67527 22.5592 1.55806 22.4419C1.44085 22.3247 1.375 22.1658 1.375 22C1.375 21.8342 1.44085 21.6753 1.55806 21.5581C1.67527 21.4408 1.83424 21.375 2 21.375Z" stroke="black" stroke-width="2" stroke-linecap="square"/>
<path d="M41.1568 16.2202C41.3169 16.1773 41.4875 16.1997 41.631 16.2826C41.7746 16.3655 41.8793 16.502 41.9222 16.6621C41.9651 16.8222 41.9427 16.9928 41.8598 17.1364C41.7769 17.2799 41.6404 17.3847 41.4803 17.4276C41.3202 17.4705 41.1496 17.448 41.006 17.3652C40.8625 17.2823 40.7577 17.1458 40.7148 16.9857C40.6719 16.8255 40.6944 16.6549 40.7773 16.5114C40.8601 16.3678 40.9967 16.2631 41.1568 16.2202Z" stroke="black" stroke-width="2" stroke-linecap="square"/>
<path d="M2.51968 26.5727C2.67979 26.5298 2.85039 26.5523 2.99394 26.6352C3.1375 26.718 3.24225 26.8546 3.28515 27.0147C3.32805 27.1748 3.30559 27.3454 3.22271 27.4889C3.13983 27.6325 3.00332 27.7372 2.84321 27.7801C2.68309 27.823 2.5125 27.8006 2.36894 27.7177C2.22539 27.6348 2.12064 27.4983 2.07774 27.3382C2.03484 27.1781 2.0573 27.0075 2.14018 26.8639C2.22306 26.7204 2.35957 26.6156 2.51968 26.5727Z" stroke="black" stroke-width="2" stroke-linecap="square"/>
<path d="M39.0079 11.459C39.1515 11.3761 39.3221 11.3536 39.4822 11.3965C39.6423 11.4394 39.7788 11.5442 39.8617 11.6877C39.9446 11.8313 39.967 12.0019 39.9241 12.162C39.8812 12.3221 39.7765 12.4586 39.6329 12.5415C39.4894 12.6244 39.3188 12.6468 39.1587 12.6039C38.9986 12.561 38.8621 12.4563 38.7792 12.3127C38.6963 12.1692 38.6738 11.9986 38.7167 11.8385C38.7596 11.6784 38.8644 11.5419 39.0079 11.459Z" stroke="black" stroke-width="2" stroke-linecap="square"/>
<path d="M4.36695 31.459C4.5105 31.3761 4.6811 31.3536 4.84121 31.3965C5.00132 31.4394 5.13784 31.5442 5.22072 31.6877C5.3036 31.8313 5.32606 32.0019 5.28315 32.162C5.24025 32.3221 5.1355 32.4586 4.99195 32.5415C4.8484 32.6244 4.6778 32.6468 4.51769 32.6039C4.35758 32.561 4.22106 32.4563 4.13818 32.3127C4.0553 32.1692 4.03284 31.9986 4.07575 31.8385C4.11865 31.6784 4.2234 31.5419 4.36695 31.459Z" stroke="black" stroke-width="2" stroke-linecap="square"/>
<path d="M35.7003 7.41587C35.8175 7.29866 35.9765 7.23282 36.1422 7.23282C36.308 7.23282 36.4669 7.29866 36.5842 7.41587C36.7014 7.53308 36.7672 7.69206 36.7672 7.85782C36.7672 8.02358 36.7014 8.18255 36.5842 8.29976C36.4669 8.41697 36.308 8.48282 36.1422 8.48282C35.9765 8.48282 35.8175 8.41697 35.7003 8.29976C35.5831 8.18255 35.5172 8.02358 35.5172 7.85782C35.5172 7.69206 35.5831 7.53308 35.7003 7.41587Z" stroke="black" stroke-width="2" stroke-linecap="square"/>
<path d="M7.41597 35.7001C7.53318 35.5828 7.69215 35.517 7.85791 35.517C8.02367 35.517 8.18264 35.5828 8.29985 35.7001C8.41706 35.8173 8.48291 35.9762 8.48291 36.142C8.48291 36.3078 8.41706 36.4667 8.29985 36.5839C8.18264 36.7011 8.02367 36.767 7.85791 36.767C7.69215 36.767 7.53318 36.7011 7.41597 36.5839C7.29876 36.4667 7.23291 36.3078 7.23291 36.142C7.23291 35.9762 7.29876 35.8173 7.41597 35.7001Z" stroke="black" stroke-width="2" stroke-linecap="square"/>
<path d="M31.4587 4.36694C31.5416 4.22338 31.6781 4.11863 31.8382 4.07573C31.9983 4.03283 32.1689 4.05529 32.3125 4.13817C32.456 4.22105 32.5608 4.35756 32.6037 4.51768C32.6466 4.67779 32.6241 4.84838 32.5413 4.99194C32.4584 5.13549 32.3219 5.24024 32.1618 5.28314C32.0016 5.32604 31.831 5.30358 31.6875 5.2207C31.5439 5.13782 31.4392 5.00131 31.3963 4.8412C31.3534 4.68109 31.3758 4.51049 31.4587 4.36694Z" stroke="black" stroke-width="2" stroke-linecap="square"/>
<path d="M11.4587 39.0081C11.5416 38.8645 11.6781 38.7597 11.8382 38.7168C11.9983 38.6739 12.1689 38.6964 12.3125 38.7793C12.456 38.8622 12.5608 38.9987 12.6037 39.1588C12.6466 39.3189 12.6241 39.4895 12.5413 39.6331C12.4584 39.7766 12.3219 39.8814 12.1618 39.9243C12.0016 39.9672 11.831 39.9447 11.6875 39.8618C11.5439 39.7789 11.4392 39.6424 11.3963 39.4823C11.3534 39.3222 11.3758 39.1516 11.4587 39.0081Z" stroke="black" stroke-width="2" stroke-linecap="square"/>
<path d="M26.5726 2.51955C26.6155 2.35944 26.7203 2.22293 26.8638 2.14005C27.0074 2.05717 27.178 2.03471 27.3381 2.07761C27.4982 2.12051 27.6347 2.22526 27.7176 2.36881C27.8005 2.51236 27.823 2.68296 27.78 2.84307C27.7371 3.00319 27.6324 3.1397 27.4888 3.22258C27.3453 3.30546 27.1747 3.32792 27.0146 3.28502C26.8545 3.24211 26.718 3.13736 26.6351 2.99381C26.5522 2.85026 26.5297 2.67966 26.5726 2.51955Z" stroke="black" stroke-width="2" stroke-linecap="square"/>
<path d="M16.2199 41.1568C16.2628 40.9966 16.3675 40.8601 16.5111 40.7773C16.6546 40.6944 16.8252 40.6719 16.9853 40.7148C17.1454 40.7577 17.2819 40.8625 17.3648 41.006C17.4477 41.1496 17.4702 41.3202 17.4273 41.4803C17.3844 41.6404 17.2796 41.7769 17.1361 41.8598C16.9925 41.9427 16.8219 41.9651 16.6618 41.9222C16.5017 41.8793 16.3652 41.7746 16.2823 41.631C16.1994 41.4875 16.177 41.3169 16.2199 41.1568Z" stroke="black" stroke-width="2" stroke-linecap="square"/>
</svg>
