<svg width="15" height="16" viewBox="0 0 15 16" fill="none" xmlns="http://www.w3.org/2000/svg">
    <g clip-path="url(#clip0_76_39)">
        <mask id="path-2-inside-1_76_39" fill="white">
            <path d="M7.5 4.59091C5.61818 4.59091 4.09091 6.11818 4.09091 8C4.09091 9.88182 5.61818 11.4091 7.5 11.4091C9.38182 11.4091 10.9091 9.88182 10.9091 8C10.9091 6.11818 9.38182 4.59091 7.5 4.59091ZM6.81818 0.5V3.22727H8.18182V0.5H6.81818ZM6.81818 12.7727V15.5H8.18182V12.7727H6.81818ZM15 7.31818H12.2727V8.68182H15V7.31818ZM2.72727 7.31818H0V8.68182H2.72727V7.31818ZM10.3909 11.8591L12.075 13.5432L13.0364 12.5818L11.3523 10.8977L10.3909 11.8591ZM1.95682 3.41818L3.64091 5.10227L4.60227 4.14091L2.91818 2.45682L1.95682 3.41818ZM3.64091 10.8909L1.95682 12.575L2.91818 13.5364L4.60227 11.8523L3.64091 10.8909ZM12.0818 2.45682L10.3977 4.14091L11.3591 5.10227L13.0432 3.41818L12.0818 2.45682Z"/>
        </mask>
        <path d="M7.5 4.59091C5.61818 4.59091 4.09091 6.11818 4.09091 8C4.09091 9.88182 5.61818 11.4091 7.5 11.4091C9.38182 11.4091 10.9091 9.88182 10.9091 8C10.9091 6.11818 9.38182 4.59091 7.5 4.59091ZM6.81818 0.5V3.22727H8.18182V0.5H6.81818ZM6.81818 12.7727V15.5H8.18182V12.7727H6.81818ZM15 7.31818H12.2727V8.68182H15V7.31818ZM2.72727 7.31818H0V8.68182H2.72727V7.31818ZM10.3909 11.8591L12.075 13.5432L13.0364 12.5818L11.3523 10.8977L10.3909 11.8591ZM1.95682 3.41818L3.64091 5.10227L4.60227 4.14091L2.91818 2.45682L1.95682 3.41818ZM3.64091 10.8909L1.95682 12.575L2.91818 13.5364L4.60227 11.8523L3.64091 10.8909ZM12.0818 2.45682L10.3977 4.14091L11.3591 5.10227L13.0432 3.41818L12.0818 2.45682Z"
              stroke="#2B2B33" stroke-width="4" mask="url(#path-2-inside-1_76_39)"/>
    </g>
    <defs>
        <clipPath id="clip0_76_39">
            <rect width="1440" height="1024" fill="white" transform="translate(-1125 -20)"/>
        </clipPath>
    </defs>
</svg>
