<?xml version="1.0" standalone="no"?>
<!DOCTYPE svg PUBLIC "-//W3C//DTD SVG 20010904//EN"
 "http://www.w3.org/TR/2001/REC-SVG-20010904/DTD/svg10.dtd">
<svg version="1.0" xmlns="http://www.w3.org/2000/svg"
 width="512.000000pt" height="512.000000pt" viewBox="0 0 512.000000 512.000000"
 preserveAspectRatio="xMidYMid meet">
<metadata>
Created by potrace 1.14, written by Peter Selinger 2001-2017
</metadata>
<g transform="translate(0.000000,512.000000) scale(0.100000,-0.100000)"
fill="#000000" stroke="none">
<path d="M2315 5113 c-281 -26 -597 -115 -860 -242 -646 -312 -1124 -864
-1343 -1551 -85 -266 -117 -508 -109 -825 9 -400 84 -707 256 -1060 129 -264
282 -477 491 -685 412 -413 941 -669 1516 -736 190 -22 527 -15 703 15 266 46
478 114 716 230 264 129 477 282 685 491 413 412 669 941 736 1516 22 190 15
527 -15 703 -92 539 -335 1014 -711 1392 -69 69 -163 156 -210 193 -383 304
-837 496 -1306 551 -117 14 -437 18 -549 8z m588 -184 c1018 -144 1846 -948
2016 -1961 161 -956 -247 -1885 -1062 -2419 -611 -400 -1398 -493 -2095 -248
-810 287 -1420 1009 -1561 1851 -161 956 247 1885 1062 2419 479 314 1056 440
1640 358z"/>
<path d="M2410 4254 c-108 -13 -238 -40 -334 -71 l-108 -35 5 -31 c9 -53 36
-107 54 -107 9 0 57 13 107 29 206 66 479 84 691 47 440 -78 823 -345 1047
-730 45 -78 62 -96 90 -96 27 0 98 48 98 66 0 26 -102 192 -178 289 -248 319
-602 537 -997 615 -106 21 -381 35 -475 24z"/>
<path d="M2363 3726 c-87 -17 -173 -44 -191 -61 -11 -10 -9 -23 11 -71 28 -69
28 -69 152 -34 105 30 351 34 457 7 114 -28 219 -74 317 -137 52 -34 99 -59
105 -56 52 25 111 65 111 77 0 24 -134 117 -250 175 -165 81 -271 106 -475
110 -110 2 -189 -1 -237 -10z"/>
<path d="M4394 3426 c-77 -18 -96 -27 -271 -138 l-142 -90 -311 86 c-170 47
-322 86 -336 86 -40 0 -233 -126 -241 -158 -14 -56 1 -69 219 -182 115 -58
210 -109 213 -112 6 -6 -199 -138 -214 -138 -6 0 -58 19 -116 42 l-107 42 -52
-27 c-132 -69 -156 -120 -91 -187 l36 -37 -143 -80 c-274 -155 -575 -366 -843
-589 -129 -108 -548 -512 -567 -548 -8 -15 -2 -26 33 -62 24 -24 51 -44 60
-44 10 0 55 -27 101 -60 94 -68 328 -188 433 -221 39 -13 74 -29 78 -36 7 -11
31 -20 109 -37 25 -6 30 0 79 86 192 343 428 648 720 933 277 270 440 389
1154 840 346 219 403 265 455 372 39 78 44 159 13 201 -44 59 -157 83 -269 58z
m-1241 -967 c52 -41 52 -41 123 -37 l72 5 -81 -65 c-45 -36 -113 -92 -150
-125 l-68 -60 39 61 c21 33 45 75 52 93 13 31 13 32 -30 69 l-44 38 -37 -77
c-92 -189 -285 -302 -493 -288 -43 3 -82 9 -87 14 -12 12 276 203 485 322 88
50 161 91 163 91 2 0 27 -19 56 -41z m-342 -516 c-67 -69 -168 -185 -224 -256
l-102 -129 -57 7 c-105 11 -255 63 -357 122 -36 21 -66 43 -68 49 -3 9 179
165 287 246 l35 27 60 -21 c37 -13 97 -23 156 -26 122 -6 218 15 314 67 39 21
72 39 73 40 2 0 -51 -56 -117 -126z m-802 -350 c75 -45 190 -91 293 -117 48
-13 90 -25 93 -28 3 -3 -27 -57 -68 -119 -41 -63 -89 -142 -108 -176 -19 -35
-38 -63 -43 -63 -23 0 -201 67 -276 105 -85 43 -264 157 -275 176 -4 5 58 72
136 149 l142 140 26 -17 c14 -9 50 -32 80 -50z"/>
<path d="M2453 3216 c-107 -21 -108 -22 -68 -112 22 -50 27 -56 47 -49 13 4
61 9 107 12 149 10 267 -33 374 -138 34 -32 64 -59 67 -59 3 0 23 9 45 19 22
11 48 22 58 25 29 9 19 40 -33 99 -145 162 -383 243 -597 203z"/>
<path d="M899 3153 c-16 -42 -59 -213 -59 -234 0 -10 4 -20 8 -23 5 -3 367
-86 805 -185 778 -176 798 -181 823 -210 77 -92 224 -38 224 84 0 87 -103 151
-183 114 -21 -9 -138 25 -803 235 -429 135 -785 246 -792 246 -7 0 -17 -12
-23 -27z"/>
<path d="M4142 2701 l-59 -39 -6 -153 c-6 -161 -25 -266 -73 -414 -136 -415
-478 -775 -889 -934 -188 -73 -346 -101 -570 -101 l-144 0 -30 -54 c-17 -29
-31 -60 -31 -69 0 -22 67 -31 240 -30 165 0 257 12 415 53 288 74 526 212 745
430 289 289 454 645 490 1060 12 141 5 276 -16 284 -7 3 -39 -12 -72 -33z"/>
<path d="M917 2704 c-12 -12 -8 -232 7 -345 42 -311 174 -614 371 -852 31 -38
63 -71 71 -74 17 -6 104 73 104 94 0 7 -29 48 -64 90 -121 144 -233 358 -285
546 -34 121 -51 232 -58 380 -6 131 -7 139 -28 147 -35 13 -109 22 -118 14z"/>
<path d="M1424 2589 c-17 -28 18 -257 58 -379 42 -129 154 -324 227 -394 l28
-27 46 38 c25 21 48 44 51 52 4 7 -17 44 -48 85 -121 160 -183 317 -206 517
-5 45 -11 84 -14 86 -4 4 -113 32 -128 33 -4 0 -10 -5 -14 -11z"/>
<path d="M1957 2473 c-14 -13 -6 -56 23 -131 33 -85 121 -212 146 -212 20 0
114 68 114 82 0 5 -18 31 -40 56 -21 26 -53 77 -70 114 -24 55 -35 69 -58 74
-15 3 -43 10 -62 15 -42 11 -45 11 -53 2z"/>
<path d="M3599 2353 c-60 -42 -68 -52 -84 -102 -23 -75 -94 -208 -148 -278
-136 -175 -339 -314 -536 -364 -48 -12 -61 -21 -108 -78 -29 -36 -53 -74 -53
-84 0 -18 5 -19 63 -14 143 14 363 100 496 194 160 114 291 269 378 449 51
107 106 284 96 311 -9 23 -36 14 -104 -34z"/>
</g>
</svg>
