<svg width="882" height="840" viewBox="0 0 882 840" fill="none" xmlns="http://www.w3.org/2000/svg">
<path d="M598.314 842.383C598.195 842.383 598.077 842.383 597.839 842.383C596.891 842.264 596.061 841.43 595.943 840.477C594.876 834.877 594.164 831.064 593.572 826.179L592.86 826.894C592.386 827.37 591.794 827.609 591.201 827.609C590.845 827.609 590.608 827.49 590.252 827.37C589.423 827.013 588.83 826.179 588.83 825.226V821.413L455.226 757.192C454.87 758.621 454.633 760.051 454.277 761.362C453.448 765.532 452.618 769.107 451.077 774.111C450.721 775.064 449.891 775.779 448.824 775.779H441C440.644 775.779 440.289 775.66 440.052 775.541H433.294C432.227 775.541 431.398 774.826 431.042 773.872C429.501 768.868 428.671 765.294 427.841 761.123C427.604 759.813 427.248 758.383 426.893 756.953L293.289 821.175V824.987C293.289 825.941 292.696 826.775 291.866 827.132C291.51 827.251 291.273 827.37 290.918 827.37C290.325 827.37 289.732 827.132 289.258 826.655L288.547 825.941C287.954 830.945 287.243 834.758 286.176 840.238C285.939 841.192 285.227 841.906 284.279 842.145C284.16 842.145 284.042 842.145 283.805 842.145C282.975 842.145 282.264 841.668 281.789 840.953C280.367 838.57 279.893 834.758 278.707 816.289L275.625 813.311C275.269 812.953 275.032 812.477 274.914 811.881C274.677 810.332 270.172 772.919 273.135 752.783C274.677 742.775 277.285 732.051 279.774 725.975C280.96 723.234 283.805 721.089 284.16 720.851C284.516 720.494 285.109 720.375 285.583 720.375C285.939 720.375 286.294 720.494 286.531 720.613C287.361 720.97 287.835 721.685 287.954 722.638L289.139 738.724L289.969 751.472L407.451 658.06C402.472 637.447 401.405 622.077 399.864 601.107C399.508 596.579 399.152 591.694 398.797 586.451C398.797 586.332 398.797 586.332 398.797 586.213V427.03H392.395C392.395 427.268 392.395 427.626 392.277 427.864C392.277 428.221 392.158 428.579 391.921 428.936L391.684 429.413C391.091 430.366 390.261 431.558 388.839 431.558C387.298 431.558 386.586 430.485 385.994 429.413L385.756 428.936C385.638 428.698 385.519 428.46 385.401 428.102C385.282 427.745 385.282 427.387 385.164 427.03H349.955C349.836 427.745 349.836 428.46 349.718 429.055C349.718 429.413 349.599 429.77 349.362 430.128L349.125 430.604C348.532 431.558 347.702 432.749 346.28 432.749C344.739 432.749 344.027 431.677 343.435 430.604L343.198 430.128C343.079 429.889 342.96 429.651 342.842 429.294C342.723 428.579 342.605 427.745 342.486 427.03H331.224L319.369 430.128C319.251 430.962 319.132 431.915 319.132 432.749C319.132 433.107 319.014 433.464 318.777 433.821L318.539 434.298C317.947 435.251 317.117 436.443 315.694 436.443C314.272 436.443 313.442 435.37 312.849 434.298L312.612 433.821C312.494 433.583 312.375 433.345 312.256 432.987C312.138 432.749 312.138 432.392 312.019 432.034L269.698 442.877C269.579 443.83 269.46 444.902 269.342 445.855C269.342 446.213 269.223 446.57 268.986 446.928L268.749 447.404C268.156 448.358 267.327 449.549 265.904 449.549C264.363 449.549 263.652 448.477 263.059 447.404L262.822 446.928C262.703 446.689 262.585 446.451 262.466 446.094C262.348 445.736 262.348 445.26 262.229 444.783L222.16 455.03L196.316 463.609C196.198 464.681 196.079 466.111 195.96 467.302C195.96 467.66 195.842 468.017 195.605 468.375L195.368 468.851C194.775 469.804 193.945 470.996 192.523 470.996C190.981 470.996 190.27 469.924 189.677 468.851L189.44 468.375C189.322 468.136 189.203 467.898 189.085 467.541C188.966 467.064 188.848 466.587 188.848 466.111L162.056 475.047C161.937 476 161.819 477.072 161.7 478.026C161.7 478.383 161.581 478.741 161.344 479.098L161.107 479.575C160.514 480.528 159.685 481.719 158.262 481.719C156.839 481.719 156.01 480.647 155.417 479.575L155.18 479.098C155.061 478.86 154.943 478.621 154.824 478.264C154.824 478.026 154.706 477.787 154.706 477.549L126.61 486.843C126.491 487.796 126.373 488.868 126.254 489.941C126.254 490.298 126.135 490.655 125.898 491.013L125.661 491.489C125.069 492.443 124.239 493.634 122.816 493.634C121.275 493.634 120.564 492.562 119.971 491.489L119.734 491.013C119.615 490.775 119.497 490.536 119.378 490.179C119.378 489.941 119.26 489.583 119.26 489.345L0.829808 528.306C0.592711 528.426 0.355614 528.426 0.118517 528.426C-0.355676 528.426 -0.82987 528.307 -1.30406 527.949C-1.89681 527.472 -2.25245 526.758 -2.25245 526.043V524.255C-2.6081 504.715 -2.84519 492.8 21.3387 475.285L21.4572 475.166L175.807 379.609C175.57 379.37 175.452 379.013 175.452 378.775C170.473 358.162 169.88 346.485 172.962 326.587C173.081 325.396 174.148 324.562 175.333 324.562H202.481C203.666 324.562 204.615 325.396 204.852 326.587C206.985 340.528 207.223 350.179 205.8 361.141L250.019 333.736C245.277 313.719 244.802 302.043 247.766 282.502C247.885 281.311 248.952 280.477 250.137 280.477H277.285C278.47 280.477 279.419 281.311 279.656 282.502C281.671 295.489 282.027 304.664 280.841 314.672L326.956 286.196C322.452 266.775 321.977 255.217 324.941 236.034C325.06 234.843 326.127 234.009 327.312 234.009H354.46C355.645 234.009 356.594 234.843 356.831 236.034C358.727 248.545 359.202 257.481 358.253 266.894L399.152 241.634V112.119C399.152 111.404 399.745 97.4639 401.523 86.1448C401.998 83.2852 402.472 80.3065 402.946 77.4469C407.451 49.0895 411.6 22.281 430.686 3.09797C434.361 -0.595645 437.681 -1.42969 439.814 -1.42969C440.763 -1.42969 441.356 -1.31054 441.711 -1.19139C441.948 -1.19139 442.304 -1.19139 442.66 -1.19139C444.794 -1.19139 448.113 -0.357347 451.788 3.33627C470.874 22.5192 475.142 49.3278 479.528 77.6852C480.002 80.5448 480.477 83.4044 480.951 86.3831C482.848 97.7022 483.322 111.762 483.322 112.358V241.753L523.984 266.894C523.035 257.362 523.51 248.545 525.406 236.034C525.525 234.843 526.592 234.009 527.777 234.009H554.925C556.11 234.009 557.059 234.843 557.296 236.034C560.26 255.336 559.785 266.775 555.281 286.196L601.396 314.672C600.21 304.664 600.685 295.37 602.581 282.502C602.7 281.311 603.767 280.477 604.952 280.477H632.1C633.286 280.477 634.234 281.311 634.471 282.502C637.435 302.043 636.961 313.719 632.219 333.736L676.437 361.141C675.015 350.179 675.252 340.528 677.386 326.587C677.504 325.396 678.571 324.562 679.757 324.562H706.904C708.09 324.562 709.038 325.396 709.275 326.587C712.239 346.485 711.765 358.162 706.786 378.775C706.667 379.132 706.548 379.37 706.43 379.609L860.661 475.285L860.78 475.404C884.964 492.919 884.727 504.834 884.371 524.375V526.162C884.371 526.877 884.015 527.592 883.423 528.068C883.067 528.307 882.474 528.545 882 528.545C881.763 528.545 881.526 528.545 881.289 528.426L764.044 489.464C764.044 489.821 763.926 490.06 763.926 490.298C763.807 490.536 763.689 490.894 763.57 491.132L763.333 491.609C762.74 492.562 761.911 493.753 760.488 493.753C759.065 493.753 758.235 492.681 757.643 491.609L757.406 491.132C757.169 490.775 757.05 490.417 757.05 490.06C756.931 489.106 756.813 487.915 756.694 486.962L728.598 477.668C728.598 477.906 728.48 478.145 728.48 478.383C728.361 478.621 728.243 478.979 728.124 479.217L727.887 479.694C727.294 480.647 726.465 481.838 725.042 481.838C723.619 481.838 722.79 480.766 722.197 479.694L721.96 479.217C721.723 478.86 721.604 478.502 721.604 478.145C721.486 477.192 721.367 476.119 721.248 475.166L694.456 466.23C694.338 466.706 694.338 467.183 694.219 467.66C694.101 467.898 693.982 468.255 693.864 468.494L693.627 468.97C693.034 469.924 692.204 471.115 690.781 471.115C689.24 471.115 688.529 470.043 687.936 468.97L687.699 468.494C687.462 468.136 687.344 467.779 687.344 467.421C687.225 466.23 687.107 464.8 686.988 463.728L661.144 455.149L621.075 444.902C620.956 445.379 620.956 445.855 620.838 446.213C620.719 446.451 620.601 446.809 620.482 447.047L620.245 447.524C619.652 448.477 618.823 449.668 617.4 449.668C615.859 449.668 615.148 448.596 614.555 447.524L614.318 447.047C614.081 446.689 613.962 446.332 613.962 445.975C613.844 445.021 613.725 443.949 613.606 442.996L571.285 432.153C571.285 432.511 571.166 432.749 571.048 433.106C570.929 433.345 570.81 433.702 570.692 433.941L570.455 434.417C569.862 435.37 569.032 436.562 567.61 436.562C566.069 436.562 565.357 435.489 564.764 434.417L564.527 433.941C564.29 433.583 564.172 433.226 564.172 432.868C564.053 432.034 563.935 431.081 563.935 430.247L552.08 427.149H540.818C540.699 427.983 540.581 428.698 540.462 429.413C540.344 429.651 540.225 430.009 540.106 430.247L539.869 430.724C539.277 431.677 538.447 432.868 537.024 432.868C535.483 432.868 534.772 431.796 534.179 430.724L533.942 430.247C533.705 429.889 533.586 429.532 533.586 429.175C533.468 428.579 533.468 427.864 533.349 427.149H498.14C498.022 427.507 498.022 427.983 497.903 428.221C497.785 428.46 497.666 428.817 497.548 429.055L497.31 429.532C496.718 430.485 495.888 431.677 494.465 431.677C493.043 431.677 492.213 430.604 491.62 429.532L491.383 429.055C491.146 428.698 491.027 428.341 491.027 427.983C491.027 427.745 491.027 427.387 490.909 427.149H484.507V586.451C484.507 586.57 484.507 586.57 484.507 586.689C484.152 591.932 483.796 596.817 483.44 601.345C481.899 622.434 480.832 637.804 475.853 658.298L593.335 751.711L594.164 738.962L595.35 722.877C595.469 722.043 595.943 721.209 596.773 720.851C597.128 720.732 597.484 720.613 597.721 720.613C598.195 720.613 598.669 720.732 599.144 721.089C599.499 721.328 602.344 723.472 603.53 726.213C606.019 732.289 608.746 743.013 610.169 753.021C613.132 773.158 608.627 810.57 608.39 812.119C608.272 812.715 608.035 813.192 607.679 813.549L604.597 816.528C603.411 834.996 602.937 838.689 601.514 841.192C599.855 841.906 599.025 842.383 598.314 842.383Z" fill="white"/>
<path d="M439.577 0.953213C440.526 0.953213 441 1.19151 441 1.19151V1.42981C441 1.42981 441.474 1.19151 442.423 1.19151C443.964 1.19151 446.69 1.78726 449.891 5.00428C470.281 25.4979 473.245 55.6426 478.343 86.7404C480.239 98.0596 480.714 112.357 480.714 112.357V242.945L526.948 271.54C525.288 259.983 525.525 250.332 527.659 236.391H541.292H554.925C557.889 256.17 557.296 267.37 552.554 287.387L604.36 319.438C602.463 307.285 602.7 297.396 604.952 282.86H618.585H632.219C635.182 302.638 634.589 313.957 629.729 334.094H628.306L679.638 365.906C677.267 352.681 677.385 342.434 679.756 326.945H693.39H707.023C709.986 346.723 709.393 358.043 704.533 378.179H701.806V379.728L859.357 477.192C882.474 493.992 882.237 504.834 881.881 524.255V526.162L761.91 486.247C761.792 487.319 761.673 488.63 761.436 489.702C760.725 490.655 760.488 491.132 760.251 491.132C760.014 491.132 759.658 490.655 759.065 489.702C758.947 488.034 758.71 486.128 758.591 485.055L726.346 474.332C726.227 475.404 726.109 476.715 725.872 477.787C725.16 478.74 724.923 479.217 724.686 479.217C724.449 479.217 724.094 478.74 723.501 477.787C723.382 476.238 723.145 474.332 723.027 473.26L691.967 462.894C691.848 464.085 691.73 465.753 691.493 466.945C690.781 467.898 690.544 468.375 690.307 468.375C690.07 468.375 689.714 467.898 689.122 466.945C688.885 464.919 688.648 462.298 688.529 461.702L661.263 452.647L618.467 441.685C618.348 442.757 618.23 444.306 617.993 445.498C617.281 446.451 617.044 446.928 616.807 446.928C616.57 446.928 616.214 446.451 615.622 445.498C615.503 443.83 615.266 441.923 615.148 440.851L568.677 428.936C568.558 430.009 568.439 431.319 568.202 432.272C567.491 433.226 567.254 433.702 567.017 433.702C566.78 433.702 566.424 433.226 565.831 432.272C565.713 430.843 565.476 429.174 565.357 427.983L551.606 424.409H537.854C537.735 425.6 537.617 427.268 537.38 428.579C536.668 429.532 536.431 430.009 536.194 430.009C535.957 430.009 535.602 429.532 535.009 428.579C534.89 427.149 534.653 425.481 534.535 424.409H495.058C494.939 425.362 494.821 426.553 494.584 427.387C493.873 428.34 493.635 428.817 493.398 428.817C493.161 428.817 492.806 428.34 492.213 427.387C492.094 426.434 491.976 425.362 491.857 424.409H480.951V586.094C478.698 615.881 478.343 633.277 472.06 658.894L594.283 756.119L595.468 738.843L596.654 722.757C596.654 722.757 599.262 724.664 600.21 726.928C602.463 732.409 605.189 742.536 606.731 753.14C609.694 773.277 604.952 811.643 604.952 811.643L601.277 815.217C600.21 832.97 599.736 837.617 598.432 839.643C597.01 832.136 596.298 827.966 595.468 820.698L591.319 824.749V819.745L453.685 753.498C451.788 761.362 451.314 765.77 448.943 773.157H441V772.919H433.294C430.923 765.413 430.449 761.123 428.552 753.26L290.918 819.506V824.868L286.769 820.817C285.939 828.085 285.227 832.255 283.805 839.762C282.619 837.736 282.027 832.97 280.96 815.336L277.285 811.762C277.285 811.762 272.543 773.396 275.506 753.26C277.048 742.655 279.774 732.409 282.027 727.047C282.975 724.783 285.583 722.877 285.583 722.877L286.769 738.962L287.954 756.238L410.177 659.132C403.776 633.515 403.539 616.119 401.286 586.332V424.647H390.38C390.261 425.6 390.143 426.672 390.024 427.626C389.313 428.579 389.076 429.055 388.839 429.055C388.602 429.055 388.246 428.579 387.653 427.626C387.416 426.672 387.298 425.6 387.179 424.647H347.702C347.584 425.719 347.347 427.387 347.228 428.817C346.517 429.77 346.28 430.247 346.043 430.247C345.806 430.247 345.45 429.77 344.857 428.817C344.62 427.506 344.383 425.838 344.383 424.647H330.631L316.88 428.221C316.761 429.294 316.524 430.962 316.406 432.511C315.694 433.464 315.457 433.94 315.22 433.94C314.983 433.94 314.627 433.464 314.035 432.511C313.798 431.438 313.679 430.128 313.56 429.174L267.09 441.089C266.971 442.162 266.734 444.068 266.615 445.736C265.904 446.689 265.667 447.166 265.43 447.166C265.193 447.166 264.837 446.689 264.244 445.736C264.007 444.545 263.889 443.115 263.77 441.923L220.974 452.885L193.708 461.94C193.589 462.536 193.352 465.157 193.115 467.183C192.404 468.136 192.167 468.613 191.93 468.613C191.693 468.613 191.337 468.136 190.744 467.183C190.507 465.872 190.27 464.204 190.27 463.132L159.21 473.498C159.092 474.57 158.855 476.477 158.736 478.026C158.025 478.979 157.788 479.455 157.551 479.455C157.314 479.455 156.958 478.979 156.365 478.026C156.128 476.953 156.01 475.643 155.891 474.57L123.646 485.294C123.527 486.366 123.29 488.272 123.172 489.94C122.46 490.894 122.223 491.37 121.986 491.37C121.749 491.37 121.394 490.894 120.801 489.94C120.564 488.868 120.445 487.557 120.327 486.485L0.118531 526.043V524.255C-0.237114 504.953 -0.474211 493.992 22.6427 477.192L180.194 379.609V378.06H177.704C172.844 357.804 172.251 346.604 175.214 326.826H188.848H202.481C204.852 342.196 204.97 352.443 202.599 365.787L253.931 333.974H252.508C247.648 313.719 247.055 302.519 250.019 282.74H263.652H277.285C279.537 297.157 279.774 307.166 277.877 319.319L329.564 287.149C324.823 267.132 324.111 255.932 327.194 236.153H340.827H354.46C356.594 250.094 356.831 259.745 355.171 271.302L401.405 242.706V112.119C401.405 112.119 401.879 97.8213 403.776 86.5021C408.873 55.4043 411.837 25.2596 432.227 4.76598C435.31 1.54896 438.036 0.953213 439.577 0.953213ZM439.577 -3.81274C436.969 -3.81274 433.057 -2.85955 428.789 1.31066C409.11 20.9702 404.843 48.1362 400.338 76.9702C399.864 79.8298 399.389 82.6894 398.915 85.6681C397.018 97.1064 396.544 111.285 396.426 111.881V112V239.966L360.624 262.128C361.098 254.145 360.506 246.043 358.846 235.319C358.49 232.936 356.475 231.268 354.104 231.268H340.471H326.838C324.467 231.268 322.452 232.936 322.096 235.319C319.251 254.383 319.488 265.94 323.756 284.766L283.212 309.906C283.805 301.447 283.212 292.987 281.552 281.906C281.197 279.523 279.181 277.855 276.81 277.855H263.177H249.544C247.173 277.855 245.158 279.523 244.802 281.906C241.839 301.328 242.313 313.004 246.699 332.426L208.052 356.375C208.882 347.081 208.408 338.145 206.511 326.111C206.156 323.728 204.14 322.06 201.769 322.06H188.136H174.503C172.132 322.06 170.117 323.728 169.761 326.111C166.679 346.128 167.272 357.923 172.132 378.536L20.1532 473.14C20.0347 473.26 19.9161 473.26 19.9161 473.379C-5.21615 491.609 -4.97905 504.596 -4.6234 524.375V526.162C-4.6234 527.711 -3.91211 529.14 -2.60808 529.974C-1.77824 530.57 -0.829856 530.928 0.118531 530.928C0.592724 530.928 1.06692 530.809 1.65966 530.689L116.652 492.443L116.889 492.8C117.6 493.872 118.904 496.017 121.749 496.017C124.476 496.017 125.898 493.992 126.61 492.8L126.847 492.323C127.321 491.728 127.558 490.894 127.677 490.179C127.677 489.702 127.795 489.226 127.795 488.63L152.335 480.528L152.572 480.885C153.283 481.957 154.587 484.102 157.432 484.102C160.159 484.102 161.581 482.077 162.293 480.885L162.53 480.409C163.004 479.813 163.241 478.979 163.36 478.264C163.36 477.787 163.478 477.311 163.478 476.834L186.477 469.209C186.595 469.328 186.595 469.566 186.714 469.685L186.951 470.162C187.662 471.234 188.966 473.379 191.811 473.379C194.538 473.379 195.96 471.353 196.672 470.162L196.909 469.685C197.383 469.089 197.62 468.255 197.739 467.54C197.857 466.826 197.857 466.111 197.976 465.396L222.278 457.294L259.977 447.643C260.095 447.881 260.214 448 260.332 448.238L260.569 448.715C261.281 449.787 262.585 451.932 265.43 451.932C268.156 451.932 269.579 449.906 270.29 448.715L270.527 448.238C271.002 447.643 271.239 446.809 271.357 446.094C271.357 445.617 271.476 445.26 271.476 444.783L310.004 434.894C310.004 435.013 310.123 435.013 310.123 435.132L310.36 435.609C311.071 436.681 312.375 438.826 315.22 438.826C317.947 438.826 319.369 436.8 320.081 435.609L320.318 435.132C320.792 434.536 321.029 433.702 321.148 432.987C321.148 432.749 321.266 432.392 321.266 432.034L331.343 429.532H340.234C340.234 429.651 340.352 429.889 340.352 430.009C340.471 430.604 340.708 431.081 341.064 431.677L341.301 432.153C342.012 433.226 343.316 435.37 346.161 435.37C349.006 435.37 350.31 433.345 351.022 432.153L351.259 431.677C351.614 431.081 351.97 430.366 351.97 429.651H383.267C383.385 430.009 383.504 430.247 383.741 430.485L383.978 430.962C384.689 432.034 385.993 434.179 388.839 434.179C391.565 434.179 392.988 432.153 393.699 430.962L393.936 430.485C394.173 430.247 394.292 429.889 394.41 429.651H396.544V586.57C396.544 586.689 396.544 586.809 396.544 586.928C396.9 592.17 397.256 596.936 397.611 601.583C399.034 622.315 400.101 637.447 404.843 657.464L291.985 747.183L291.392 738.962L290.206 722.877C290.088 721.209 289.021 719.66 287.48 718.945C286.887 718.706 286.176 718.468 285.464 718.468C284.516 718.468 283.449 718.826 282.619 719.421C282.027 719.898 278.826 722.281 277.522 725.617C274.914 731.932 272.187 742.655 270.646 753.021C267.564 773.515 272.187 811.166 272.424 812.715C272.543 813.787 273.017 814.86 273.847 815.574L276.218 817.838C277.403 836.187 277.877 839.762 279.656 842.621C280.485 844.051 282.027 844.885 283.686 844.885C283.923 844.885 284.279 844.885 284.516 844.766C286.413 844.409 287.954 842.86 288.31 840.953C289.139 836.664 289.732 833.447 290.325 829.872C290.444 829.872 290.681 829.872 290.799 829.872C291.392 829.872 292.103 829.753 292.696 829.515C294.474 828.8 295.541 827.013 295.541 825.106V822.723L425.233 760.17C425.352 760.647 425.47 761.004 425.47 761.481C426.418 765.651 427.13 769.345 428.789 774.468C429.382 776.494 431.279 777.804 433.294 777.804H439.696C440.17 777.923 440.526 778.043 441 778.043H448.706C450.721 778.043 452.618 776.732 453.21 774.706C454.752 769.583 455.581 766.009 456.53 761.719C456.648 761.362 456.767 760.885 456.767 760.409L586.34 822.723V825.106C586.34 827.013 587.526 828.681 589.185 829.515C589.778 829.753 590.371 829.872 591.082 829.872C591.201 829.872 591.438 829.872 591.556 829.872C592.031 833.447 592.742 836.664 593.572 840.953C593.927 842.86 595.469 844.409 597.365 844.766C597.602 844.766 597.958 844.885 598.195 844.885C599.855 844.885 601.396 844.051 602.226 842.621C604.004 839.762 604.478 836.187 605.664 817.838L608.035 815.574C608.865 814.86 609.339 813.787 609.457 812.715C609.694 811.166 614.318 773.515 611.235 753.021C609.694 742.655 606.968 731.932 604.36 725.617C602.937 722.281 599.855 719.898 599.262 719.421C598.432 718.826 597.484 718.468 596.417 718.468C595.706 718.468 595.113 718.587 594.402 718.945C592.86 719.66 591.794 721.209 591.675 722.877L590.489 738.962L589.897 747.302L477.039 657.583C481.781 637.566 482.848 622.315 484.27 601.702C484.626 597.055 484.981 592.289 485.337 587.047C485.337 586.928 485.337 586.809 485.337 586.689V429.651H487.471C487.589 430.009 487.708 430.247 487.945 430.485L488.182 430.962C488.893 432.034 490.198 434.179 493.043 434.179C495.769 434.179 497.192 432.153 497.903 430.962L498.14 430.485C498.377 430.247 498.496 429.889 498.614 429.651H529.911C530.03 430.366 530.267 431.081 530.623 431.677L530.86 432.153C531.571 433.226 532.875 435.37 535.72 435.37C538.565 435.37 539.869 433.345 540.581 432.153L540.818 431.677C541.173 431.2 541.41 430.604 541.529 430.009C541.529 429.889 541.648 429.77 541.648 429.532H550.539L560.615 432.034C560.615 432.392 560.734 432.63 560.734 432.987C560.852 433.702 561.089 434.536 561.564 435.132L561.801 435.609C562.512 436.681 563.816 438.826 566.661 438.826C569.388 438.826 570.81 436.8 571.522 435.609L571.759 435.132C571.759 435.013 571.877 435.013 571.877 434.894L610.406 444.783C610.406 445.26 610.524 445.617 610.524 446.094C610.643 446.928 610.88 447.643 611.354 448.238L611.591 448.715C612.302 449.787 613.606 451.932 616.452 451.932C619.178 451.932 620.601 449.906 621.312 448.715L621.549 448.238C621.668 448.119 621.786 447.881 621.905 447.643L659.603 457.294L683.906 465.396C684.024 466.111 684.024 466.826 684.143 467.54C684.261 468.374 684.498 469.089 684.973 469.685L685.21 470.162C685.921 471.234 687.225 473.379 690.07 473.379C692.797 473.379 694.219 471.353 694.931 470.162L695.168 469.685C695.286 469.566 695.405 469.328 695.405 469.209L718.403 476.834C718.403 477.311 718.522 477.787 718.522 478.264C718.64 479.098 718.877 479.813 719.352 480.409L719.589 480.885C720.3 481.957 721.604 484.102 724.449 484.102C727.176 484.102 728.598 482.077 729.31 480.885L729.547 480.528L754.086 488.63C754.086 489.106 754.205 489.702 754.205 490.179C754.323 491.013 754.56 491.728 755.035 492.323L755.272 492.8C755.983 493.872 757.287 496.017 760.132 496.017C762.859 496.017 764.281 493.992 764.993 492.8L765.23 492.443L880.222 530.689C880.696 530.809 881.17 530.928 881.763 530.928C882.711 530.928 883.778 530.57 884.489 529.974C885.675 529.021 886.505 527.592 886.505 526.162V524.375C886.86 504.715 887.098 491.728 861.965 473.379C861.847 473.26 861.728 473.26 861.728 473.14L709.038 378.536C713.898 358.043 714.491 346.128 711.409 326.111C711.053 323.728 709.038 322.06 706.667 322.06H693.034H679.401C677.03 322.06 675.014 323.728 674.659 326.111C672.881 338.145 672.288 347.081 673.118 356.375L634.471 332.426C638.976 313.004 639.331 301.328 636.368 281.906C636.012 279.523 633.997 277.855 631.626 277.855H617.993H604.36C601.989 277.855 599.973 279.523 599.618 281.906C597.958 292.987 597.365 301.447 597.958 309.906L557.414 284.766C561.682 265.94 562.038 254.383 559.074 235.319C558.719 232.936 556.703 231.268 554.332 231.268H540.699H527.066C524.695 231.268 522.68 232.936 522.324 235.319C520.664 245.923 520.19 254.026 520.546 262.128L484.744 239.966V112.357V112.238C484.744 111.643 484.152 97.4638 482.255 86.0255C481.781 83.166 481.306 80.1873 480.832 77.3277C476.327 48.4936 472.06 21.3277 452.381 1.66811C448.113 -2.62125 444.201 -3.4553 441.593 -3.4553C441.356 -3.4553 441.118 -3.4553 440.881 -3.4553C441.118 -3.6936 440.407 -3.81274 439.577 -3.81274Z" fill="black"/>
</svg>
