<svg width="446" height="474" viewBox="0 0 446 474" fill="none" xmlns="http://www.w3.org/2000/svg">
<g clip-path="url(#clip0_593_2499)">
<path d="M304.62 472C304.39 472 304.17 471.96 303.95 471.88C276.18 462.01 259.79 455.97 233.06 444.49C229.28 462.18 226.3 465.53 223.64 466.44C223.43 466.51 223.21 466.55 222.99 466.55C222.77 466.55 222.55 466.51 222.34 466.44C219.68 465.53 216.71 462.19 212.93 444.49C186.21 455.97 169.82 462.01 142.05 471.88C141.83 471.96 141.61 472 141.38 472C141 472 140.63 471.89 140.3 471.68C139.78 471.35 139.44 470.79 139.39 470.17C138.6 461.29 138.41 455.66 139.39 445.84C139.43 445.41 139.61 445.01 139.91 444.69C148.73 435.06 165.64 423.2 187.04 408.19C192.76 404.18 198.67 400.03 204.93 395.58C204 389.25 202.94 382.12 201.89 375.58C196.59 342.67 192.34 289.94 192.3 289.41C192.3 289.36 192.3 289.3 192.3 289.25V256.24L192.08 255.13C191.63 252.81 191.3 251.15 190.88 248.27C186.11 248.31 180.49 248.34 174.14 248.35C173.93 250.66 173.71 252.66 173.48 254.31C172.94 258.19 170.93 258.6 170.09 258.6C169.25 258.6 167.25 258.18 166.7 254.31C166.47 252.66 166.25 250.67 166.04 248.35C151.85 248.35 139.03 248.27 136.69 248.26L128.26 251.5C127.98 255.28 127.66 258.42 127.32 260.84C126.78 264.72 124.77 265.13 123.93 265.13C123.09 265.13 121.09 264.71 120.54 260.84C120.3 259.16 120.08 257.11 119.87 254.73L95.57 264.08C95.3 267.6 95 270.54 94.68 272.82C94.14 276.7 92.13 277.11 91.29 277.11C90.45 277.11 88.45 276.69 87.9 272.82C87.68 271.27 87.47 269.41 87.28 267.27L64.04 276.21C63.77 279.66 63.47 282.55 63.16 284.8C62.62 288.68 60.61 289.09 59.77 289.09C58.93 289.09 56.93 288.67 56.38 284.8C56.17 283.29 55.96 281.47 55.77 279.39L40.79 285.15L4.83001 300.37C4.58001 300.48 4.31001 300.53 4.05001 300.53C3.66001 300.53 3.28001 300.42 2.95001 300.2C2.39001 299.83 2.05001 299.2 2.05001 298.53V287.1C1.72001 277.89 2.96001 272.64 10.92 267.96L136.37 192.87C135.34 187.81 134.85 184.21 134.17 178.99C132.45 178.2 131 176.43 131 174.78L130.42 148.15C130.42 147.15 130.42 146.26 130.4 145.4C130.34 138.65 130.3 134.2 134.81 131.19C135.11 130.99 135.45 130.88 135.8 130.86C140.1 130.61 143.48 130.5 146.75 130.5C150.02 130.5 153.3 130.6 158.22 130.86C158.58 130.88 158.93 130.99 159.23 131.19C163.74 134.19 163.7 138.65 163.64 145.4C163.64 146.25 163.62 147.15 163.62 148.1L163.04 174.82C163.04 175.83 162.47 176.9 161.62 177.76L183.52 164.65C188.22 160.24 189.78 157.57 192.3 152.7V108C192.33 106.25 193.07 65.71 200.83 40.45C203.84 30.65 205.88 25.23 209.93 16.26C213.55 8.24002 219.93 2.02002 223.01 2.02002C226.09 2.02002 232.47 8.24002 236.09 16.26C240.14 25.23 242.18 30.65 245.18 40.45C252.94 65.71 253.68 106.25 253.71 107.96V152.69C256.23 157.55 257.79 160.23 262.49 164.64L284.4 177.76C283.54 176.9 282.97 175.81 282.97 174.77L282.39 148.14C282.39 147.15 282.39 146.25 282.37 145.4C282.31 138.65 282.27 134.19 286.78 131.19C287.08 130.99 287.43 130.88 287.79 130.86C292.71 130.61 296.03 130.5 299.26 130.5C302.49 130.5 305.91 130.61 310.21 130.86C310.57 130.88 310.91 130.99 311.2 131.19C315.71 134.19 315.67 138.65 315.61 145.4C315.61 146.25 315.59 147.15 315.59 148.1L315.01 174.82C315.01 176.44 313.56 178.2 311.84 178.99C311.16 184.21 310.67 187.82 309.64 192.87L435.1 267.97C443.05 272.65 444.29 277.89 443.95 287.18V298.54C443.95 299.21 443.62 299.84 443.06 300.21C442.73 300.43 442.34 300.54 441.96 300.54C441.7 300.54 441.43 300.49 441.18 300.38L405.16 285.14L390.24 279.4C390.05 281.5 389.84 283.31 389.63 284.81C389.09 288.68 387.08 289.1 386.24 289.1C385.4 289.1 383.39 288.68 382.85 284.81C382.53 282.55 382.24 279.66 381.97 276.22L358.73 267.28C358.53 269.41 358.33 271.28 358.11 272.83C357.57 276.71 355.56 277.12 354.72 277.12C353.88 277.12 351.88 276.7 351.33 272.83C351.01 270.56 350.71 267.63 350.44 264.09L326.14 254.74C325.93 257.12 325.7 259.16 325.47 260.85C324.93 264.73 322.92 265.14 322.08 265.14C321.24 265.14 319.24 264.72 318.69 260.85C318.35 258.44 318.04 255.31 317.75 251.51L309.32 248.27C306.98 248.28 294.16 248.35 279.97 248.36C279.76 250.68 279.54 252.68 279.31 254.32C278.77 258.2 276.76 258.61 275.92 258.61C275.08 258.61 273.08 258.19 272.53 254.32C272.3 252.68 272.08 250.68 271.87 248.36C264.87 248.35 258.78 248.32 253.71 248.27V289.27C253.71 289.32 253.71 289.38 253.71 289.43C253.67 289.96 249.42 342.7 244.12 375.6C243.09 381.97 242.09 388.69 241.08 395.59C247.34 400.04 253.25 404.19 258.97 408.2C280.37 423.21 297.27 435.07 306.1 444.7C306.39 445.02 306.57 445.42 306.62 445.85C307.6 455.68 307.41 461.3 306.62 470.18C306.57 470.8 306.23 471.35 305.71 471.69C305.38 471.9 305.01 472.01 304.63 472.01L304.62 472Z" fill="white"/>
<path d="M223 4C224.65 4 230.58 8.91 234.26 17.07C238.38 26.19 240.33 31.48 243.27 41.02C251.03 66.3 251.71 107.98 251.71 107.98V153.16C254.45 158.46 256.11 161.4 261.28 166.23L288.64 182.61C288.42 181.01 288.2 179.32 287.95 177.4C286.69 177.4 284.97 175.84 284.97 174.76L284.39 148.08C284.39 139.91 283.81 135.56 287.9 132.84C292.33 132.61 295.77 132.49 299.27 132.49C302.55 132.49 305.88 132.6 310.11 132.84C314.2 135.56 313.62 139.92 313.62 148.08L313.04 174.76C313.04 175.85 311.31 177.4 310.06 177.4C309.23 183.81 308.73 187.67 307.43 193.84L434.11 269.67C440.85 273.64 442.33 277.64 441.99 287.09V298.52L405.97 283.28L388.51 276.56C388.3 279.26 388.02 282.13 387.69 284.52C387.45 286.24 386.87 287.09 386.28 287.09C385.69 287.09 385.11 286.23 384.87 284.52C384.46 281.6 384.14 277.96 383.91 274.79L357 264.44C356.78 267.18 356.51 270.11 356.16 272.54C355.92 274.26 355.34 275.11 354.75 275.11C354.16 275.11 353.58 274.25 353.34 272.54C352.92 269.58 352.6 265.87 352.36 262.66L324.38 251.9C324.16 254.8 323.86 257.97 323.5 260.56C323.26 262.28 322.68 263.13 322.09 263.13C321.5 263.13 320.92 262.27 320.68 260.56C320.24 257.41 319.9 253.42 319.66 250.09L309.7 246.26C309.7 246.26 294.68 246.35 278.15 246.36C277.94 248.98 277.67 251.73 277.35 254.04C277.11 255.76 276.53 256.61 275.94 256.61C275.35 256.61 274.77 255.75 274.53 254.04C274.21 251.74 273.94 248.98 273.72 246.36C266.67 246.36 259.56 246.33 253.41 246.27H251.72V289.28C251.72 289.28 247.5 342.09 242.15 375.29C241.07 382.03 240 389.24 238.92 396.52C269.59 418.36 293.55 433.97 304.62 446.06C305.62 456.05 305.38 461.52 304.62 470.01C275.48 459.66 259.38 453.68 231.61 441.7C229.02 454.46 226.22 463.47 223.01 464.56C219.8 463.46 217 454.45 214.41 441.7C186.64 453.68 170.53 459.66 141.4 470.01C140.65 461.51 140.4 456.05 141.4 446.06C152.47 433.97 176.43 418.36 207.1 396.52C206.03 389.23 204.96 382.03 203.87 375.29C198.52 342.08 194.3 289.28 194.3 289.28V256.07C193.62 252.55 193.25 250.85 192.61 246.27C186.46 246.33 179.35 246.36 172.3 246.36C172.09 248.98 171.82 251.74 171.49 254.04C171.25 255.75 170.67 256.61 170.08 256.61C169.49 256.61 168.91 255.75 168.67 254.04C168.35 251.74 168.08 248.98 167.87 246.36C151.34 246.36 136.31 246.27 136.31 246.27L126.35 250.1C126.11 253.43 125.77 257.42 125.33 260.57C125.09 262.28 124.51 263.14 123.92 263.14C123.33 263.14 122.75 262.28 122.51 260.57C122.15 257.98 121.85 254.81 121.63 251.91L93.65 262.67C93.42 265.87 93.09 269.58 92.67 272.55C92.43 274.26 91.85 275.12 91.26 275.12C90.67 275.12 90.09 274.26 89.85 272.55C89.51 270.12 89.23 267.19 89.01 264.45L62.1 274.8C61.87 277.97 61.54 281.61 61.14 284.53C60.9 286.24 60.32 287.1 59.73 287.1C59.14 287.1 58.56 286.24 58.32 284.53C57.99 282.15 57.71 279.27 57.5 276.57L40.04 283.29L4.02002 298.53V287.1C3.68002 277.65 5.16002 273.65 11.9 269.68L138.58 193.85C137.28 187.68 136.78 183.81 135.94 177.41C134.69 177.41 132.96 175.85 132.96 174.77L132.38 148.09C132.38 139.92 131.79 135.57 135.88 132.85C140.1 132.61 143.43 132.5 146.72 132.5C150.21 132.5 153.66 132.63 158.09 132.85C162.18 135.57 161.6 139.93 161.6 148.09L161.02 174.77C161.02 175.86 159.29 177.41 158.04 177.41C157.79 179.33 157.57 181.03 157.35 182.62L184.71 166.24C189.88 161.42 191.54 158.47 194.28 153.17V107.99C194.28 107.99 194.96 66.31 202.72 41.03C205.65 31.49 207.61 26.2 211.73 17.08C215.41 8.93 221.34 4.01 222.99 4.01M222.99 0.01C218.68 0.01 211.86 7.07 208.08 15.43C203.99 24.49 201.93 29.96 198.9 39.85C191.06 65.38 190.31 106.19 190.28 107.92C190.28 107.94 190.28 107.96 190.28 107.99V152.2C188.02 156.53 186.5 159.06 182.29 163.03L165.06 173.35L165.61 148.18C165.61 148.18 165.61 148.12 165.61 148.09C165.61 147.15 165.61 146.25 165.63 145.41C165.69 138.54 165.74 133.12 160.33 129.52C159.73 129.12 159.04 128.89 158.32 128.86C153.37 128.61 150.01 128.5 146.75 128.5C143.49 128.5 140.03 128.61 135.69 128.86C134.98 128.9 134.29 129.13 133.7 129.52C128.29 133.12 128.33 138.55 128.4 145.41C128.4 146.25 128.42 147.15 128.42 148.09C128.42 148.12 128.42 148.15 128.42 148.18L129 174.84C129.03 176.9 130.43 178.97 132.31 180.22C132.87 184.5 133.33 187.77 134.13 191.88L9.87002 266.23C1.14002 271.37 -0.299984 277.32 0.0500155 287.16V298.52C0.0500155 299.86 0.720016 301.11 1.84002 301.85C2.50002 302.29 3.28002 302.52 4.05002 302.52C4.58002 302.52 5.11002 302.42 5.61002 302.2L41.57 286.98L54.04 282.18C54.16 283.23 54.27 284.19 54.4 285.06C55.2 290.79 59.01 291.08 59.77 291.08C60.53 291.08 64.34 290.79 65.14 285.06C65.42 283.05 65.69 280.55 65.93 277.61L85.55 270.06C85.67 271.17 85.79 272.18 85.92 273.08C86.72 278.81 90.53 279.1 91.29 279.1C92.05 279.1 95.86 278.81 96.66 273.08C96.95 271.04 97.22 268.49 97.47 265.48L118.14 257.53C118.28 258.86 118.42 260.05 118.57 261.11C119.37 266.84 123.18 267.13 123.94 267.13C124.7 267.13 128.51 266.84 129.31 261.11C129.62 258.93 129.9 256.18 130.17 252.91L137.07 250.26C140.05 250.28 151.41 250.34 164.24 250.35C164.4 251.94 164.57 253.36 164.74 254.58C165.54 260.31 169.35 260.6 170.11 260.6C170.87 260.6 174.68 260.31 175.48 254.58C175.65 253.35 175.82 251.93 175.98 250.34C180.87 250.34 185.29 250.31 189.19 250.28C189.51 252.26 189.79 253.71 190.14 255.5L190.32 256.44V289.26C190.32 289.37 190.32 289.47 190.33 289.58C190.37 290.11 194.63 342.93 199.94 375.91C200.92 382.01 201.89 388.46 202.8 394.67C196.92 398.85 191.33 402.76 185.92 406.56C164.42 421.64 147.44 433.55 138.46 443.35C137.88 443.99 137.51 444.8 137.43 445.66C136.44 455.64 136.62 461.35 137.43 470.36C137.54 471.59 138.21 472.7 139.25 473.37C139.9 473.79 140.65 474 141.41 474C141.86 474 142.31 473.92 142.75 473.77C169.78 464.17 186.04 458.18 211.53 447.29C215.08 463 218.11 467.1 221.73 468.34C222.15 468.48 222.59 468.55 223.02 468.55C223.45 468.55 223.89 468.48 224.31 468.34C227.94 467.1 230.97 462.99 234.52 447.29C260.01 458.18 276.27 464.17 303.3 473.77C303.74 473.92 304.19 474 304.64 474C305.4 474 306.15 473.79 306.8 473.37C307.84 472.7 308.51 471.59 308.62 470.36C309.42 461.35 309.61 455.64 308.62 445.66C308.53 444.8 308.17 443.99 307.59 443.35C298.62 433.56 281.64 421.65 260.14 406.57C254.72 402.77 249.14 398.85 243.25 394.67C244.17 388.4 245.14 381.92 246.11 375.91C251.42 342.93 255.67 290.11 255.72 289.58C255.72 289.47 255.73 289.37 255.73 289.26V250.27C259.87 250.3 264.68 250.33 270.07 250.34C270.23 251.94 270.4 253.35 270.57 254.58C271.37 260.31 275.18 260.6 275.94 260.6C276.7 260.6 280.5 260.31 281.31 254.58C281.48 253.36 281.65 251.94 281.81 250.34C294.64 250.33 306 250.27 308.98 250.25L315.88 252.9C316.14 256.17 316.43 258.92 316.74 261.1C317.54 266.83 321.35 267.12 322.11 267.12C322.87 267.12 326.67 266.83 327.48 261.1C327.63 260.04 327.77 258.84 327.91 257.52L348.58 265.47C348.83 268.49 349.1 271.04 349.39 273.07C350.19 278.8 354 279.09 354.76 279.09C355.52 279.09 359.32 278.8 360.13 273.07C360.26 272.16 360.38 271.15 360.5 270.05L380.12 277.6C380.37 280.54 380.63 283.04 380.91 285.05C381.71 290.78 385.52 291.07 386.28 291.07C387.04 291.07 390.85 290.78 391.65 285.05C391.77 284.18 391.89 283.22 392.01 282.17L404.48 286.97L440.44 302.19C440.94 302.4 441.47 302.51 442 302.51C442.77 302.51 443.54 302.29 444.21 301.84C445.33 301.1 446 299.85 446 298.51V287.15C446.35 277.31 444.91 271.37 436.15 266.21L311.92 191.85C312.72 187.74 313.18 184.48 313.74 180.19C315.63 178.94 317.02 176.86 317.05 174.81L317.63 148.15C317.63 148.15 317.63 148.09 317.63 148.06C317.63 147.12 317.63 146.22 317.65 145.38C317.71 138.51 317.76 133.09 312.35 129.49C311.76 129.1 311.07 128.87 310.36 128.83C306.02 128.58 302.61 128.47 299.3 128.47C295.99 128.47 292.68 128.57 287.73 128.83C287.01 128.87 286.32 129.1 285.72 129.49C280.31 133.09 280.35 138.52 280.42 145.38C280.42 146.22 280.44 147.12 280.44 148.06C280.44 148.09 280.44 148.12 280.44 148.15L280.99 173.32L263.76 163C259.55 159.03 258.03 156.5 255.77 152.17V107.96C255.77 107.96 255.77 107.92 255.77 107.89C255.74 106.16 254.99 65.35 247.15 39.82C244.11 29.93 242.05 24.45 237.97 15.4C234.13 7.06 227.31 0 223 0L222.99 0.01Z" fill="black"/>
</g>
<defs>
<clipPath id="clip0_593_2499">
<rect width="446" height="474" fill="white"/>
</clipPath>
</defs>
</svg>
