<svg width="349" height="383" viewBox="0 0 349 383" fill="none" xmlns="http://www.w3.org/2000/svg">
<g clip-path="url(#clip0_436_13)">
<path d="M172.07 381C171.19 381 170.42 380.43 170.16 379.59C170.07 379.3 167.92 372.39 166.8 368.03C166.28 366.01 165.74 363.5 165.18 360.55L112.91 372.19C112.77 372.22 112.62 372.24 112.48 372.24C112.03 372.24 111.59 372.09 111.23 371.8C110.76 371.42 110.48 370.85 110.48 370.24V360.03C110.48 359.91 110.49 359.78 110.51 359.66C110.98 357.19 111.8 355.84 113.92 354.11C113.99 354.05 114.07 354 114.14 353.95L155.74 328.46C156.29 328.05 157.24 327.29 157.66 326.81C157.99 326.44 158.4 325.82 158.72 325.29C157.99 321.2 157.4 317.64 156.97 314.68C155.11 302.11 153.43 282.87 153.41 282.68C153.41 282.62 153.41 282.56 153.41 282.51V195.74H130.01C129.97 196.14 129.94 196.53 129.9 196.88C129.78 197.94 129.47 199.49 129.46 199.55C128.97 201.73 128.03 202.82 126.67 202.82C125.31 202.82 124.36 201.73 123.88 199.59C123.86 199.48 123.55 197.93 123.43 196.88C123.39 196.53 123.35 196.14 123.32 195.74H121.37C121.25 196.43 121.14 197.01 121.13 197.05C120.64 199.23 119.7 200.32 118.34 200.32C116.98 200.32 116.03 199.23 115.55 197.09C115.54 197.03 115.42 196.43 115.3 195.74H111.95L95.56 200.46C95.49 201.36 95.41 202.32 95.32 203.13C95.2 204.19 94.89 205.74 94.88 205.8C94.39 207.99 93.45 209.07 92.09 209.07C90.73 209.07 89.78 207.98 89.3 205.84C89.28 205.73 88.97 204.18 88.85 203.13C88.82 202.9 88.8 202.67 88.78 202.42L59.37 210.9C59.29 212.01 59.19 213.34 59.07 214.39C58.95 215.45 58.64 216.99 58.63 217.06C58.14 219.25 57.2 220.33 55.84 220.33C54.48 220.33 53.53 219.24 53.05 217.1C53.03 216.99 52.72 215.44 52.6 214.39C52.55 213.93 52.5 213.42 52.45 212.9L7.62004 225.9L7.48004 228.25C7.46004 228.6 7.35004 228.94 7.15004 229.23C6.69004 229.93 5.99004 230.33 5.23004 230.33C4.47004 230.33 3.77004 229.93 3.31004 229.23C3.09004 228.9 2.98004 228.52 2.98004 228.13V224.58C2.98004 224.47 2.75004 219.61 3.44004 216.44C4.21004 212.94 4.85004 210.61 7.16004 207.71C8.39004 206.17 10.58 204.45 10.83 204.25C10.93 204.17 11.04 204.1 11.15 204.05L109.09 154.05C108.26 153.93 107.57 153.3 107.41 152.45C107.35 152.13 105.88 144.57 105.5 139.51L105.47 139.14C105.09 134.08 104.86 131.02 105.51 125.78L105.58 125.22C105.82 123.25 105.99 121.83 106.61 119.64C106.91 118.59 107.46 117.06 107.49 117C107.78 116.21 108.53 115.69 109.37 115.69H127.08C127.86 115.69 128.57 116.14 128.9 116.85C128.93 116.91 129.64 118.45 130.01 119.53C130.77 121.69 130.97 123.1 131.25 125.06C131.25 125.06 131.38 125.97 131.4 126.09C131.65 126.28 131.85 126.52 132 126.81C132.15 127.11 132.89 128.7 132.83 130.27C132.79 131.37 132.27 133.04 132.11 133.53C132.02 133.79 131.89 134.03 131.71 134.23C131.67 135.08 131.61 135.95 131.54 136.85C131.48 137.67 131.42 138.54 131.37 139.48C131.31 140.43 131.22 141.55 131.1 142.82L149.7 133.32C150.3 132.78 151.52 131.61 152.08 130.76C152.54 130.07 153.01 128.88 153.42 127.39V73.79C153.34 72.58 152.5 58.84 153.43 49.77C153.89 45.27 154.27 42.75 155.13 38.53C156.19 33.29 156.89 30.25 158.74 24.93C160.38 20.2 163.64 13.45 164.01 12.69C164.39 11.76 166.83 6.05 170.36 3.71C171.44 2.99 172.35 2.54 173.5 2.16C173.57 2.14 173.64 2.12 173.71 2.1C173.93 2.05 174.22 2 174.56 2C174.84 2 175.11 2.03 175.43 2.11C175.49 2.12 175.55 2.14 175.61 2.16C176.75 2.54 177.66 2.99 178.75 3.71C182.28 6.05 184.72 11.76 185.1 12.69C185.47 13.45 188.72 20.21 190.37 24.93C192.22 30.24 192.92 33.29 193.98 38.53C194.84 42.75 195.22 45.27 195.68 49.77C196.61 58.84 195.77 72.59 195.69 73.79V127.39C196.09 128.87 196.57 130.06 197.03 130.76C197.59 131.61 198.81 132.78 199.41 133.32L218.01 142.82C217.89 141.55 217.8 140.44 217.74 139.48C217.69 138.53 217.63 137.66 217.57 136.84C217.51 135.94 217.45 135.07 217.4 134.22C217.23 134.02 217.09 133.79 217 133.52C216.89 133.17 216.32 131.4 216.28 130.26C216.22 128.68 216.96 127.1 217.11 126.8C217.25 126.51 217.46 126.27 217.71 126.08C217.73 125.96 217.86 125.05 217.86 125.05C218.14 123.09 218.35 121.68 219.1 119.52C219.48 118.44 220.18 116.91 220.21 116.85C220.54 116.14 221.25 115.68 222.03 115.68H239.74C240.58 115.68 241.33 116.2 241.62 116.99C241.64 117.05 242.2 118.58 242.5 119.63C243.12 121.82 243.29 123.24 243.53 125.2L243.6 125.77C244.24 131.01 244.02 134.06 243.64 139.12L243.61 139.5C243.23 144.56 241.77 152.12 241.7 152.44C241.53 153.29 240.85 153.92 240.02 154.04L337.96 204.04C338.07 204.1 338.18 204.16 338.28 204.24C338.53 204.43 340.72 206.16 341.95 207.7C344.27 210.61 344.9 212.94 345.67 216.43C346.37 219.6 346.14 224.46 346.13 224.67V228.12C346.13 228.51 346.02 228.89 345.8 229.22C345.34 229.92 344.64 230.32 343.88 230.32C343.12 230.32 342.42 229.92 341.96 229.22C341.77 228.93 341.65 228.59 341.63 228.24L341.49 225.89L296.66 212.89C296.62 213.41 296.57 213.92 296.52 214.38C296.4 215.44 296.09 216.99 296.08 217.05C295.59 219.24 294.65 220.32 293.29 220.32C291.93 220.32 290.99 219.23 290.5 217.09C290.48 216.98 290.17 215.43 290.05 214.38C289.93 213.35 289.83 212.06 289.75 210.89L260.34 202.41C260.32 202.66 260.29 202.9 260.27 203.12C260.15 204.18 259.84 205.73 259.83 205.79C259.34 207.97 258.41 209.06 257.04 209.06C255.67 209.06 254.73 207.97 254.25 205.83C254.23 205.72 253.92 204.17 253.8 203.12C253.71 202.31 253.63 201.34 253.56 200.45L237.17 195.73H233.82C233.7 196.42 233.59 197 233.58 197.04C233.09 199.23 232.15 200.31 230.79 200.31C229.43 200.31 228.49 199.22 228 197.08C227.99 197.02 227.87 196.42 227.75 195.73H225.8C225.76 196.13 225.72 196.52 225.68 196.87C225.56 197.93 225.25 199.47 225.24 199.54C224.75 201.73 223.81 202.81 222.45 202.81C221.09 202.81 220.15 201.72 219.66 199.58C219.64 199.47 219.33 197.92 219.21 196.87C219.17 196.52 219.13 196.13 219.1 195.73H195.7V282.5C195.7 282.56 195.7 282.62 195.7 282.67C195.68 282.86 194.01 302.1 192.14 314.67C191.7 317.6 191.11 321.17 190.39 325.28C190.68 325.77 191.09 326.4 191.44 326.8C191.87 327.27 192.82 328.04 193.37 328.45L234.97 353.94C235.05 353.99 235.12 354.04 235.19 354.1C237.3 355.83 238.13 357.18 238.6 359.65C238.62 359.77 238.64 359.9 238.64 360.02V370.23C238.64 370.84 238.36 371.41 237.89 371.79C237.53 372.08 237.09 372.23 236.64 372.23C236.5 372.23 236.35 372.21 236.21 372.18L183.94 360.54C183.38 363.49 182.84 366 182.32 368.02C181.2 372.38 179.05 379.28 178.96 379.58C178.7 380.42 177.93 380.99 177.05 380.99H172.13L172.07 381Z" fill="white"/>
<path d="M174.54 3.99999C174.67 3.99999 174.79 4.01999 174.95 4.04999C175.94 4.37999 176.68 4.74999 177.62 5.37999C180.84 7.51999 183.25 13.51 183.25 13.51C183.25 13.51 186.77 20.74 188.46 25.6C190.23 30.69 190.93 33.65 192 38.94C192.85 43.14 193.22 45.64 193.67 49.98C194.61 59.21 193.67 73.74 193.67 73.74V127.67C194.02 128.98 194.57 130.72 195.34 131.88C196.26 133.27 198.26 135.01 198.26 135.01L220.39 146.31C220.13 144.1 219.85 141.48 219.73 139.39C219.58 136.89 219.4 134.9 219.34 132.93H218.9C218.9 132.93 218.31 131.13 218.28 130.22C218.24 129.07 218.9 127.72 218.9 127.72L219.54 127.56C219.59 127.08 219.66 126.58 219.73 126.05C220.07 123.75 220.21 122.42 220.98 120.22C221.33 119.22 222.02 117.72 222.02 117.72H239.73C239.73 117.72 240.28 119.23 240.56 120.22C241.19 122.45 241.32 123.76 241.6 126.05C242.24 131.22 241.99 134.19 241.6 139.39C241.23 144.39 239.72 152.1 239.72 152.1H237.01V154.8L337.03 205.86C337.03 205.86 339.25 207.59 340.36 208.98C342.45 211.6 342.97 213.62 343.69 216.9C344.34 219.84 344.11 224.61 344.11 224.61V228.16C344.11 228.16 343.98 228.36 343.86 228.36C343.74 228.36 343.61 228.16 343.61 228.16L343.39 224.4L294.84 210.32C294.76 211.46 294.65 213.02 294.52 214.19C294.41 215.17 294.1 216.69 294.1 216.69C294.1 216.69 293.73 218.36 293.27 218.36C292.81 218.36 292.44 216.69 292.44 216.69C292.44 216.69 292.13 215.17 292.02 214.19C291.85 212.65 291.7 210.46 291.64 209.39L258.53 199.85C258.46 200.86 258.37 202.01 258.26 202.93C258.15 203.91 257.84 205.43 257.84 205.43C257.84 205.43 257.47 207.1 257.01 207.1C256.55 207.1 256.18 205.43 256.18 205.43C256.18 205.43 255.88 203.91 255.76 202.93C255.62 201.72 255.51 200.1 255.43 198.95L237.42 193.76H232.05C232.04 193.9 232.02 194.04 232.01 194.18C231.9 195.16 231.59 196.68 231.59 196.68C231.59 196.68 231.22 198.35 230.76 198.35C230.3 198.35 229.93 196.68 229.93 196.68C229.93 196.68 229.62 195.16 229.51 194.18C229.49 194.05 229.48 193.91 229.47 193.76H223.94C223.87 194.73 223.78 195.81 223.68 196.68C223.57 197.66 223.26 199.18 223.26 199.18C223.26 199.18 222.89 200.85 222.43 200.85C221.97 200.85 221.6 199.18 221.6 199.18C221.6 199.18 221.29 197.66 221.18 196.68C221.08 195.81 220.99 194.73 220.92 193.76H193.67V282.53C193.67 282.53 192 301.75 190.13 314.41C189.63 317.8 188.96 321.72 188.26 325.67C188.32 325.78 189.14 327.29 189.92 328.16C190.67 328.99 192.21 330.13 192.21 330.13L233.89 355.67C235.67 357.13 236.23 358.09 236.6 360.05V370.26L182.31 358.17C181.74 361.35 181.06 364.76 180.34 367.55C179.22 371.91 177.01 379.01 177.01 379.01H172.09C172.09 379.01 169.88 371.91 168.76 367.55C168.04 364.76 167.36 361.35 166.79 358.17L112.5 370.26V360.05C112.87 358.1 113.43 357.14 115.21 355.67L156.88 330.13C156.88 330.13 158.42 328.99 159.17 328.16C159.95 327.29 160.77 325.78 160.83 325.67C160.12 321.72 159.46 317.8 158.96 314.41C157.08 301.75 155.42 282.53 155.42 282.53V193.76H128.17C128.1 194.73 128.01 195.81 127.91 196.68C127.8 197.66 127.49 199.18 127.49 199.18C127.49 199.18 127.12 200.85 126.66 200.85C126.2 200.85 125.83 199.18 125.83 199.18C125.83 199.18 125.53 197.66 125.41 196.68C125.31 195.81 125.22 194.73 125.15 193.76H119.62C119.61 193.9 119.59 194.04 119.58 194.18C119.47 195.16 119.16 196.68 119.16 196.68C119.16 196.68 118.79 198.35 118.33 198.35C117.87 198.35 117.5 196.68 117.5 196.68C117.5 196.68 117.19 195.16 117.08 194.18C117.06 194.05 117.05 193.91 117.04 193.76H111.67L93.6601 198.95C93.5901 200.1 93.4701 201.71 93.3301 202.93C93.2201 203.91 92.9101 205.43 92.9101 205.43C92.9101 205.43 92.5401 207.1 92.0801 207.1C91.6201 207.1 91.2501 205.43 91.2501 205.43C91.2501 205.43 90.9401 203.91 90.8301 202.93C90.7301 202.01 90.6301 200.85 90.5601 199.85L57.4501 209.39C57.3901 210.45 57.2401 212.64 57.0701 214.19C56.9601 215.17 56.6501 216.69 56.6501 216.69C56.6501 216.69 56.2801 218.36 55.8201 218.36C55.3601 218.36 54.9901 216.69 54.9901 216.69C54.9901 216.69 54.6801 215.17 54.5701 214.19C54.4401 213.01 54.3201 211.46 54.2501 210.32L5.70006 224.4L5.48006 228.16C5.48006 228.16 5.35006 228.36 5.23006 228.36C5.11006 228.36 4.98006 228.16 4.98006 228.16V224.61C4.98006 224.61 4.75006 219.84 5.40006 216.9C6.12006 213.62 6.64006 211.61 8.73006 208.98C9.84006 207.58 12.0601 205.86 12.0601 205.86L112.08 154.8V152.1H109.37C109.37 152.1 107.87 144.39 107.49 139.39C107.1 134.2 106.85 131.22 107.49 126.05C107.77 123.75 107.9 122.44 108.53 120.22C108.81 119.23 109.36 117.72 109.36 117.72H127.07C127.07 117.72 127.76 119.22 128.11 120.22C128.88 122.42 129.02 123.75 129.36 126.05C129.44 126.57 129.5 127.07 129.55 127.56L130.19 127.72C130.19 127.72 130.86 129.07 130.81 130.22C130.78 131.13 130.19 132.93 130.19 132.93H129.75C129.69 134.9 129.5 136.89 129.36 139.39C129.24 141.48 128.96 144.1 128.69 146.31L150.82 135.01C150.82 135.01 152.82 133.28 153.74 131.88C154.5 130.72 155.06 128.99 155.41 127.67V73.74C155.41 73.74 154.47 59.21 155.41 49.98C155.85 45.64 156.23 43.13 157.08 38.94C158.15 33.66 158.85 30.69 160.62 25.6C162.31 20.75 165.83 13.51 165.83 13.51C165.83 13.51 168.24 7.51999 171.46 5.37999C172.4 4.75999 173.13 4.38999 174.13 4.04999C174.3 4.00999 174.43 3.99999 174.56 3.99999M174.56 -9.76585e-06C174.02 -9.76585e-06 173.58 0.0799902 173.29 0.13999C173.14 0.16999 173 0.20999 172.86 0.25999C171.54 0.69999 170.49 1.21999 169.25 2.04999C165.34 4.64999 162.78 10.42 162.18 11.88C161.69 12.9 158.49 19.55 156.85 24.28C155.04 29.47 154.28 32.61 153.17 38.14C152.31 42.38 151.91 45.05 151.44 49.57C150.51 58.65 151.32 72.27 151.42 73.86V127.13C150.95 128.79 150.54 129.49 150.41 129.67C150.06 130.2 149.2 131.07 148.55 131.67L133.38 139.42C133.43 138.56 133.49 137.76 133.54 137C133.59 136.29 133.64 135.59 133.68 134.91C133.81 134.68 133.93 134.43 134.01 134.16C134.24 133.46 134.78 131.68 134.83 130.35C134.91 128.34 134.06 126.46 133.79 125.92C133.65 125.64 133.48 125.38 133.29 125.14L133.24 124.77C132.95 122.78 132.73 121.21 131.9 118.87C131.5 117.73 130.8 116.19 130.72 116.02C130.07 114.6 128.65 113.69 127.09 113.69H109.38C107.7 113.69 106.2 114.74 105.62 116.32C105.56 116.49 105.01 118 104.7 119.1C104.04 121.43 103.86 122.92 103.6 124.98L103.53 125.54C102.86 130.98 103.11 134.28 103.48 139.29L103.51 139.66C103.9 144.84 105.38 152.51 105.45 152.84C105.5 153.09 105.57 153.33 105.66 153.56L10.2201 202.28C9.99006 202.4 9.78006 202.53 9.58006 202.69C9.31006 202.9 6.94006 204.76 5.58006 206.48C3.00006 209.72 2.28006 212.37 1.47006 216.03C0.76006 219.24 0.92006 223.81 0.96006 224.69V228.15C0.96006 228.93 1.19006 229.7 1.62006 230.35C2.45006 231.6 3.79006 232.35 5.21006 232.35C6.63006 232.35 7.97006 231.6 8.80006 230.35C9.19006 229.76 9.41006 229.09 9.45006 228.38L9.51006 227.44L50.7001 215.49C50.8401 216.41 51.0301 217.33 51.0501 217.46C51.0501 217.49 51.0601 217.52 51.0701 217.54C52.0001 221.71 54.4401 222.33 55.8101 222.33C57.1801 222.33 59.6101 221.71 60.5501 217.54C60.5501 217.51 60.5601 217.48 60.5701 217.46C60.6001 217.29 60.9101 215.74 61.0401 214.62C61.1101 213.96 61.1801 213.2 61.2401 212.44L87.0901 204.99C87.2001 205.61 87.3001 206.11 87.3201 206.2C87.3201 206.23 87.3301 206.26 87.3401 206.28C88.2701 210.45 90.7101 211.07 92.0801 211.07C93.4501 211.07 95.8801 210.45 96.8201 206.28C96.8201 206.25 96.8301 206.22 96.8401 206.2C96.8701 206.03 97.1801 204.48 97.3101 203.36C97.3601 202.94 97.4001 202.48 97.4401 202.01L112.23 197.75H113.65C114.62 201.73 116.99 202.33 118.34 202.33C119.32 202.33 120.86 202.01 121.99 200.27C122.96 204.23 125.33 204.83 126.67 204.83C128.01 204.83 130.47 204.21 131.41 200.04C131.41 200.01 131.42 199.99 131.43 199.96C131.46 199.82 131.67 198.75 131.82 197.75H151.43V282.52C151.43 282.64 151.43 282.75 151.44 282.87C151.51 283.66 153.14 302.36 155.01 314.99C155.42 317.77 155.97 321.09 156.64 324.89C156.48 325.13 156.32 325.34 156.2 325.48C155.94 325.77 155.21 326.37 154.64 326.81L113.12 352.25C112.96 352.35 112.82 352.45 112.67 352.57C110.19 354.6 109.12 356.36 108.57 359.3C108.52 359.54 108.5 359.79 108.5 360.04V370.25C108.5 371.46 109.05 372.61 110 373.37C110.72 373.94 111.6 374.25 112.5 374.25C112.79 374.25 113.08 374.22 113.37 374.15L163.63 362.96C164.06 365.09 164.48 366.96 164.89 368.54C166.03 372.95 168.19 379.9 168.28 380.19C168.8 381.86 170.35 383 172.1 383H177.02C178.77 383 180.32 381.86 180.84 380.19C180.93 379.9 183.09 372.95 184.23 368.54C184.64 366.96 185.06 365.1 185.49 362.96L235.75 374.15C236.04 374.21 236.33 374.25 236.62 374.25C237.52 374.25 238.41 373.95 239.12 373.37C240.07 372.61 240.62 371.46 240.62 370.25V360.04C240.62 359.79 240.6 359.54 240.55 359.3C240 356.36 238.92 354.6 236.45 352.57C236.31 352.45 236.16 352.35 236 352.25L194.48 326.81C193.91 326.38 193.18 325.77 192.92 325.48C192.8 325.34 192.64 325.13 192.48 324.89C193.15 321.09 193.7 317.76 194.11 314.99C195.98 302.35 197.61 283.66 197.68 282.87C197.68 282.76 197.69 282.64 197.69 282.52V197.75H217.3C217.45 198.75 217.66 199.82 217.69 199.96C217.69 199.99 217.7 200.01 217.71 200.04C218.64 204.21 221.08 204.83 222.45 204.83C223.82 204.83 226.16 204.23 227.13 200.27C228.26 202 229.8 202.33 230.78 202.33C232.13 202.33 234.5 201.73 235.47 197.75H236.88L251.67 202.01C251.71 202.48 251.76 202.94 251.8 203.36C251.93 204.48 252.24 206.03 252.27 206.2C252.27 206.23 252.28 206.26 252.29 206.29C253.22 210.46 255.66 211.08 257.03 211.08C258.4 211.08 260.83 210.46 261.77 206.29C261.77 206.26 261.78 206.24 261.79 206.21C261.81 206.12 261.91 205.61 262.02 204.99L287.87 212.44C287.93 213.19 288 213.95 288.07 214.62C288.2 215.74 288.51 217.29 288.54 217.46C288.54 217.49 288.55 217.52 288.56 217.54C289.49 221.71 291.93 222.33 293.3 222.33C294.67 222.33 297.1 221.71 298.04 217.54C298.04 217.51 298.05 217.48 298.06 217.46C298.09 217.33 298.27 216.41 298.41 215.49L339.6 227.44L339.66 228.38C339.7 229.08 339.93 229.76 340.32 230.35C341.15 231.6 342.49 232.34 343.91 232.34C345.33 232.34 346.68 231.59 347.5 230.33C347.93 229.68 348.16 228.92 348.16 228.14V224.68C348.2 223.79 348.36 219.23 347.65 216.02C346.84 212.35 346.12 209.71 343.54 206.47C342.17 204.75 339.8 202.89 339.54 202.68C339.34 202.52 339.13 202.39 338.9 202.27L243.48 153.56C243.57 153.33 243.64 153.09 243.69 152.84C243.75 152.52 245.24 144.84 245.63 139.66L245.66 139.29C246.03 134.28 246.28 130.98 245.61 125.54L245.54 124.98C245.29 122.92 245.11 121.44 244.44 119.1C244.13 118 243.58 116.49 243.52 116.32C242.94 114.74 241.44 113.69 239.76 113.69H222.05C220.49 113.69 219.07 114.6 218.42 116.02C218.34 116.19 217.64 117.72 217.24 118.86C216.42 121.2 216.19 122.77 215.9 124.76L215.85 125.13C215.65 125.37 215.48 125.63 215.35 125.91C215.09 126.44 214.24 128.33 214.31 130.34C214.36 131.67 214.9 133.44 215.13 134.14C215.22 134.4 215.33 134.65 215.46 134.89C215.5 135.57 215.55 136.27 215.6 136.98C215.65 137.74 215.71 138.54 215.76 139.4L200.58 131.65C199.93 131.05 199.07 130.17 198.72 129.65C198.6 129.46 198.19 128.76 197.72 127.11V73.84C197.82 72.25 198.63 58.64 197.7 49.55C197.24 45.03 196.83 42.36 195.97 38.12C194.85 32.59 194.09 29.44 192.29 24.26C190.64 19.53 187.45 12.88 186.96 11.86C186.36 10.4 183.8 4.62999 179.89 2.02999C178.65 1.20999 177.61 0.68999 176.28 0.24999C176.16 0.20999 176.04 0.17999 175.92 0.14999C175.45 0.0399902 175.03 -0.0100098 174.6 -0.0100098L174.56 -9.76585e-06Z" fill="black"/>
</g>
<defs>
<clipPath id="clip0_436_13">
<rect width="347.24" height="383" fill="white" transform="translate(0.910034)"/>
</clipPath>
</defs>
</svg>
