<svg width="349" height="445" viewBox="0 0 349 445" fill="none" xmlns="http://www.w3.org/2000/svg">
<g clip-path="url(#clip0_487_8)">
<path d="M171.99 442.858C171.11 442.858 170.34 442.248 170.08 441.349C169.99 441.038 167.84 433.639 166.72 428.971C166.2 426.808 165.66 424.12 165.1 420.962L112.83 433.425C112.69 433.457 112.54 433.479 112.4 433.479C111.95 433.479 111.51 433.318 111.15 433.008C110.68 432.601 110.4 431.99 110.4 431.337V420.405C110.4 420.276 110.41 420.137 110.43 420.009C110.9 417.364 111.72 415.919 113.84 414.066C113.91 414.002 113.99 413.948 114.06 413.895L155.66 386.602C156.21 386.163 157.16 385.349 157.58 384.835C157.91 384.439 158.32 383.775 158.64 383.207C157.91 378.828 157.32 375.016 156.89 371.847C155.03 358.388 153.35 337.787 153.33 337.583V337.401L153.36 231.483H129.96C129.92 231.912 129.89 232.329 129.85 232.704C129.73 233.839 129.42 235.499 129.41 235.563C128.92 237.897 127.98 239.064 126.62 239.064C125.26 239.064 124.31 237.897 123.83 235.606C123.81 235.488 123.5 233.828 123.38 232.704C123.34 232.329 123.3 231.912 123.27 231.483H121.32C121.2 232.222 121.09 232.843 121.08 232.886C120.59 235.22 119.65 236.387 118.29 236.387C116.93 236.387 115.98 235.22 115.5 232.929C115.49 232.865 115.37 232.222 115.25 231.483H111.9L95.51 236.537C95.44 237.501 95.36 238.529 95.27 239.396C95.15 240.531 94.84 242.191 94.83 242.255C94.34 244.6 93.4 245.756 92.04 245.756C90.68 245.756 89.73 244.589 89.25 242.298C89.23 242.18 88.92 240.52 88.8 239.396C88.77 239.15 88.75 238.904 88.73 238.636L59.32 247.716C59.24 248.904 59.14 250.328 59.02 251.453C58.9 252.588 58.59 254.237 58.58 254.312C58.09 256.657 57.15 257.813 55.79 257.813C54.43 257.813 53.48 256.646 53 254.354C52.98 254.237 52.67 252.577 52.55 251.453C52.5 250.96 52.45 250.414 52.4 249.857L7.56999 263.777L7.42999 266.293C7.40999 266.668 7.29999 267.032 7.09999 267.343C6.63999 268.092 5.93999 268.52 5.17999 268.52C4.41999 268.52 3.71999 268.092 3.25999 267.343C3.03999 266.989 2.92999 266.582 2.92999 266.165V262.364C2.92999 262.246 2.69999 257.042 3.38999 253.648C4.15999 249.9 4.79999 247.405 7.10999 244.3C8.33999 242.651 10.53 240.81 10.78 240.595C10.88 240.51 10.99 240.435 11.1 240.381L109.04 186.844C108.21 186.716 107.52 186.041 107.36 185.131C107.3 184.788 105.83 176.694 105.45 171.276L105.42 170.879C105.04 165.462 104.81 162.185 105.46 156.574L105.53 155.975C105.77 153.865 105.94 152.345 106.56 150C106.86 148.876 107.41 147.238 107.44 147.173C107.73 146.327 108.48 145.771 109.32 145.771H127.03C127.81 145.771 128.52 146.252 128.85 147.013C128.88 147.077 129.59 148.726 129.96 149.882C130.72 152.195 130.92 153.705 131.2 155.803C131.2 155.803 131.33 156.778 131.35 156.906C131.6 157.11 131.8 157.367 131.95 157.677C132.1 157.998 132.84 159.701 132.78 161.382C132.74 162.56 132.22 164.348 132.06 164.873C131.97 165.151 131.84 165.408 131.66 165.622C131.62 166.532 131.56 167.464 131.49 168.427C131.43 169.305 131.37 170.237 131.32 171.244C131.26 172.261 131.17 173.46 131.05 174.82L149.65 164.648C150.25 164.07 151.47 162.817 152.03 161.907C152.49 161.168 152.96 159.894 153.37 158.298V79.0206C153.28 77.725 152.44 63.013 153.37 53.3014C153.83 48.4831 154.21 45.7848 155.07 41.2663C156.13 35.6556 156.83 32.4005 158.68 26.7042C160.32 21.6396 163.58 14.4121 163.95 13.5983C164.33 12.6025 166.77 6.4886 170.3 3.98307C171.38 3.21213 172.29 2.7303 173.44 2.32342C173.51 2.302 173.58 2.28059 173.65 2.25917C173.87 2.20564 174.16 2.1521 174.5 2.1521C174.78 2.1521 175.05 2.18422 175.37 2.26988C175.43 2.26988 175.49 2.302 175.55 2.32342C176.69 2.7303 177.6 3.21213 178.69 3.98307C182.22 6.4886 184.66 12.6025 185.04 13.5983C185.41 14.4121 188.66 21.6503 190.31 26.7042C192.16 32.3898 192.86 35.6556 193.92 41.2663C194.78 45.7848 195.16 48.4831 195.62 53.3014C196.55 63.013 195.71 77.7357 195.62 79.0206V158.298C196.03 159.883 196.51 161.157 196.97 161.907C197.53 162.817 198.75 164.07 199.35 164.648L217.95 174.82C217.83 173.46 217.74 172.271 217.68 171.244C217.63 170.226 217.57 169.295 217.51 168.417C217.45 167.453 217.39 166.522 217.34 165.611C217.17 165.397 217.03 165.151 216.94 164.862C216.83 164.487 216.26 162.592 216.22 161.371C216.16 159.68 216.9 157.988 217.05 157.667C217.19 157.356 217.4 157.099 217.65 156.896C217.67 156.767 217.8 155.793 217.8 155.793C218.08 153.694 218.29 152.184 219.04 149.872C219.42 148.715 220.12 147.077 220.15 147.013C220.48 146.252 221.19 145.76 221.97 145.76H239.68C240.52 145.76 241.27 146.317 241.56 147.163C241.58 147.227 242.14 148.865 242.44 149.989C243.06 152.334 243.23 153.855 243.47 155.953L243.54 156.564C244.18 162.174 243.96 165.44 243.58 170.858L243.55 171.265C243.17 176.683 241.71 184.778 241.64 185.12C241.47 186.03 240.79 186.705 239.96 186.834L337.9 240.371C338.01 240.435 338.12 240.499 338.22 240.585C338.47 240.788 340.66 242.641 341.89 244.289C344.21 247.405 344.84 249.9 345.61 253.637C346.31 257.031 346.08 262.235 346.07 262.46V266.154C346.07 266.572 345.96 266.978 345.74 267.332C345.28 268.081 344.58 268.51 343.82 268.51C343.06 268.51 342.36 268.081 341.9 267.332C341.71 267.021 341.59 266.657 341.57 266.283L341.43 263.766L296.6 249.847C296.56 250.403 296.51 250.949 296.46 251.442C296.34 252.577 296.03 254.237 296.02 254.301C295.53 256.646 294.59 257.802 293.23 257.802C291.87 257.802 290.93 256.635 290.44 254.344C290.42 254.226 290.11 252.566 289.99 251.442C289.87 250.339 289.77 248.958 289.69 247.705L260.28 238.625C260.26 238.893 260.23 239.15 260.21 239.385C260.09 240.52 259.78 242.18 259.77 242.244C259.28 244.579 258.35 245.746 256.98 245.746C255.61 245.746 254.67 244.579 254.19 242.287C254.17 242.169 253.86 240.51 253.74 239.385C253.65 238.518 253.57 237.48 253.5 236.527L237.11 231.473H233.76C233.64 232.212 233.53 232.833 233.52 232.875C233.03 235.22 232.09 236.377 230.73 236.377C229.37 236.377 228.43 235.21 227.94 232.918C227.94 232.854 227.81 232.212 227.69 231.473H225.74C225.7 231.901 225.66 232.319 225.62 232.693C225.5 233.828 225.19 235.477 225.18 235.552C224.69 237.897 223.75 239.054 222.39 239.054C221.03 239.054 220.09 237.886 219.6 235.595C219.58 235.477 219.27 233.818 219.15 232.693C219.11 232.319 219.07 231.901 219.04 231.473H195.64L195.61 337.39V337.572C195.59 337.776 193.92 358.377 192.05 371.836C191.61 374.973 191.02 378.796 190.3 383.197C190.59 383.721 191 384.396 191.35 384.824C191.78 385.327 192.73 386.152 193.28 386.591L234.88 413.884C234.96 413.938 235.03 413.991 235.1 414.055C237.21 415.908 238.04 417.353 238.51 419.998C238.53 420.127 238.55 420.266 238.55 420.394V431.327C238.55 431.98 238.27 432.59 237.8 432.997C237.44 433.307 237 433.468 236.55 433.468C236.41 433.468 236.26 433.447 236.12 433.414L183.85 420.951C183.29 424.11 182.75 426.797 182.23 428.96C181.11 433.629 178.96 441.017 178.87 441.338C178.61 442.237 177.84 442.848 176.96 442.848H171.98L171.99 442.858Z" fill="white"/>
<path d="M174.48 4.29367C174.61 4.29367 174.73 4.31509 174.89 4.34721C175.88 4.70055 176.62 5.09673 177.56 5.77129C180.78 8.06268 183.19 14.4764 183.19 14.4764C183.19 14.4764 186.71 22.2179 188.4 27.4217C190.17 32.8717 190.87 36.0411 191.94 41.7054C192.79 46.2025 193.16 48.8793 193.61 53.5263C194.55 63.4093 193.61 78.9672 193.61 78.9672V158.598C193.97 160.001 194.52 161.864 195.29 163.106C196.21 164.594 198.21 166.457 198.21 166.457L220.34 178.557C220.08 176.19 219.8 173.385 219.68 171.147C219.53 168.47 219.35 166.34 219.29 164.23H218.85C218.85 164.23 218.26 162.303 218.23 161.329C218.19 160.097 218.85 158.652 218.85 158.652L219.49 158.48C219.54 157.966 219.61 157.431 219.68 156.864C220.02 154.401 220.16 152.977 220.93 150.621C221.28 149.55 221.97 147.944 221.97 147.944H239.68C239.68 147.944 240.23 149.561 240.51 150.621C241.14 153.009 241.27 154.412 241.55 156.864C242.19 162.399 241.94 165.579 241.55 171.147C241.18 176.501 239.67 184.756 239.67 184.756H236.96V187.647L336.98 242.319C336.98 242.319 339.2 244.172 340.31 245.66C342.4 248.465 342.92 250.628 343.64 254.14C344.29 257.288 344.06 262.396 344.06 262.396V266.197C344.06 266.197 343.93 266.411 343.81 266.411C343.69 266.411 343.56 266.197 343.56 266.197L343.34 262.171L294.79 247.095C294.71 248.316 294.6 249.986 294.47 251.239C294.36 252.288 294.05 253.916 294.05 253.916C294.05 253.916 293.68 255.704 293.22 255.704C292.76 255.704 292.39 253.916 292.39 253.916C292.39 253.916 292.08 252.288 291.97 251.239C291.8 249.59 291.65 247.245 291.59 246.099L258.48 235.884C258.41 236.966 258.32 238.197 258.21 239.182C258.1 240.231 257.79 241.859 257.79 241.859C257.79 241.859 257.42 243.647 256.96 243.647C256.5 243.647 256.13 241.859 256.13 241.859C256.13 241.859 255.83 240.231 255.71 239.182C255.57 237.887 255.46 236.152 255.38 234.921L237.37 229.363H232C232 229.513 231.97 229.663 231.96 229.813C231.85 230.862 231.54 232.49 231.54 232.49C231.54 232.49 231.17 234.278 230.71 234.278C230.25 234.278 229.88 232.49 229.88 232.49C229.88 232.49 229.57 230.862 229.46 229.813C229.44 229.674 229.43 229.524 229.42 229.363H223.89C223.82 230.402 223.73 231.558 223.63 232.49C223.52 233.539 223.21 235.167 223.21 235.167C223.21 235.167 222.84 236.955 222.38 236.955C221.92 236.955 221.55 235.167 221.55 235.167C221.55 235.167 221.24 233.539 221.13 232.49C221.03 231.558 220.94 230.402 220.87 229.363H193.62L193.59 337.423C193.59 337.423 191.92 358.002 190.05 371.558C189.55 375.188 188.88 379.385 188.18 383.614C188.24 383.732 189.06 385.349 189.84 386.281C190.59 387.169 192.13 388.39 192.13 388.39L233.81 415.737C235.59 417.3 236.15 418.328 236.52 420.426V431.359L182.23 418.413C181.66 421.818 180.98 425.47 180.26 428.457C179.14 433.125 176.93 440.728 176.93 440.728H172.01C172.01 440.728 169.8 433.125 168.68 428.457C167.96 425.47 167.28 421.818 166.71 418.413L112.42 431.359V420.426C112.79 418.339 113.35 417.311 115.13 415.737L156.8 388.39C156.8 388.39 158.34 387.169 159.09 386.281C159.87 385.349 160.69 383.732 160.75 383.614C160.04 379.385 159.38 375.188 158.88 371.558C157 358.002 155.34 337.423 155.34 337.423L155.37 229.363H128.12C128.05 230.402 127.96 231.558 127.86 232.49C127.75 233.539 127.44 235.167 127.44 235.167C127.44 235.167 127.07 236.955 126.61 236.955C126.15 236.955 125.78 235.167 125.78 235.167C125.78 235.167 125.48 233.539 125.36 232.49C125.26 231.558 125.17 230.402 125.1 229.363H119.57C119.56 229.513 119.54 229.663 119.53 229.813C119.42 230.862 119.11 232.49 119.11 232.49C119.11 232.49 118.74 234.278 118.28 234.278C117.82 234.278 117.45 232.49 117.45 232.49C117.45 232.49 117.14 230.862 117.03 229.813C117.01 229.674 117 229.524 116.99 229.363H111.62L93.61 234.921C93.54 236.152 93.42 237.876 93.28 239.182C93.17 240.231 92.86 241.859 92.86 241.859C92.86 241.859 92.49 243.647 92.03 243.647C91.57 243.647 91.2 241.859 91.2 241.859C91.2 241.859 90.89 240.231 90.78 239.182C90.68 238.197 90.58 236.955 90.51 235.884L57.4 246.099C57.34 247.234 57.19 249.579 57.02 251.239C56.91 252.288 56.6 253.916 56.6 253.916C56.6 253.916 56.23 255.704 55.77 255.704C55.31 255.704 54.94 253.916 54.94 253.916C54.94 253.916 54.63 252.288 54.52 251.239C54.39 249.975 54.27 248.316 54.2 247.095L5.64998 262.171L5.42998 266.197C5.42998 266.197 5.29998 266.411 5.17998 266.411C5.05998 266.411 4.92998 266.197 4.92998 266.197V262.396C4.92998 262.396 4.69998 257.288 5.34998 254.14C6.06998 250.628 6.58998 248.476 8.67998 245.66C9.78998 244.161 12.01 242.319 12.01 242.319L112.03 187.647V184.756H109.32C109.32 184.756 107.82 176.501 107.44 171.147C107.05 165.59 106.8 162.399 107.44 156.864C107.72 154.401 107.85 152.998 108.48 150.621C108.76 149.561 109.31 147.944 109.31 147.944H127.02C127.02 147.944 127.71 149.55 128.06 150.621C128.83 152.977 128.97 154.401 129.31 156.864C129.39 157.42 129.45 157.956 129.5 158.48L130.14 158.652C130.14 158.652 130.81 160.097 130.76 161.329C130.73 162.303 130.14 164.23 130.14 164.23H129.7C129.64 166.34 129.45 168.47 129.31 171.147C129.19 173.385 128.91 176.19 128.64 178.557L150.77 166.457C150.77 166.457 152.77 164.605 153.69 163.106C154.45 161.864 155.01 160.012 155.36 158.598V78.9672C155.36 78.9672 154.41 63.4093 155.35 53.5263C155.79 48.8793 156.17 46.1918 157.02 41.7054C158.09 36.0519 158.79 32.8717 160.56 27.4217C162.25 22.2286 165.77 14.4764 165.77 14.4764C165.77 14.4764 168.18 8.06268 171.4 5.77129C172.34 5.10743 173.07 4.71126 174.07 4.34721C174.24 4.30438 174.37 4.29367 174.5 4.29367M174.5 0C173.96 0 173.52 0.0856593 173.23 0.149904C173.08 0.182026 172.94 0.224856 172.8 0.278393C171.48 0.749519 170.43 1.3063 169.19 2.19502C165.28 4.97895 162.72 11.1571 162.12 12.7204C161.63 13.8126 158.43 20.933 156.79 25.9976C154.98 31.5547 154.22 34.9169 153.11 40.8381C152.25 45.378 151.85 48.2369 151.38 53.0766C150.45 62.799 151.26 77.3825 151.36 79.0849V158.009C150.9 159.787 150.49 160.536 150.36 160.729C150.01 161.296 149.15 162.228 148.5 162.87L133.33 171.169C133.38 170.248 133.44 169.391 133.49 168.577C133.54 167.817 133.59 167.068 133.63 166.34C133.76 166.093 133.88 165.826 133.96 165.537C134.19 164.787 134.73 162.881 134.78 161.457C134.86 159.305 134.01 157.292 133.74 156.714C133.6 156.414 133.43 156.135 133.24 155.878L133.19 155.482C132.9 153.352 132.68 151.67 131.85 149.165C131.45 147.944 130.75 146.295 130.67 146.113C130.02 144.593 128.6 143.618 127.04 143.618H109.33C107.65 143.618 106.15 144.743 105.57 146.435C105.51 146.617 104.96 148.233 104.65 149.411C103.99 151.906 103.81 153.501 103.55 155.707L103.48 156.307C102.81 162.132 103.06 165.665 103.43 171.029L103.46 171.426C103.85 176.972 105.33 185.185 105.4 185.538C105.45 185.806 105.52 186.063 105.61 186.309L10.17 238.486C9.93998 238.615 9.72998 238.754 9.52998 238.925C9.25998 239.15 6.88998 241.142 5.52998 242.983C2.94998 246.452 2.22998 249.29 1.41998 253.209C0.709981 256.646 0.869981 261.539 0.909981 262.481V266.186C0.909981 267.021 1.13998 267.846 1.56998 268.542C2.39998 269.88 3.73998 270.683 5.15998 270.683C6.57998 270.683 7.91998 269.88 8.74998 268.542C9.13998 267.91 9.35998 267.193 9.39998 266.432L9.45998 265.426L50.65 252.631C50.79 253.616 50.98 254.601 51 254.74C51 254.772 51 254.804 51.02 254.826C51.95 259.291 54.39 259.954 55.76 259.954C57.13 259.954 59.56 259.291 60.5 254.826C60.5 254.794 60.5 254.761 60.52 254.74C60.55 254.558 60.86 252.898 60.99 251.699C61.06 250.992 61.13 250.179 61.19 249.365L87.04 241.388C87.15 242.052 87.25 242.587 87.27 242.683C87.27 242.716 87.28 242.748 87.29 242.769C88.22 247.234 90.66 247.898 92.03 247.898C93.4 247.898 95.83 247.234 96.77 242.769C96.77 242.737 96.78 242.705 96.79 242.683C96.82 242.501 97.13 240.842 97.26 239.643C97.31 239.193 97.35 238.7 97.39 238.197L112.18 233.636H113.6C114.57 237.897 116.94 238.54 118.29 238.54C119.27 238.54 120.81 238.197 121.94 236.334C122.91 240.574 125.28 241.217 126.62 241.217C127.96 241.217 130.42 240.553 131.36 236.088C131.36 236.056 131.36 236.034 131.38 236.002C131.41 235.852 131.62 234.706 131.77 233.636H151.38L151.35 337.412C151.35 337.54 151.35 337.658 151.35 337.787C151.42 338.633 153.05 358.655 154.92 372.179C155.33 375.156 155.88 378.71 156.55 382.779C156.39 383.036 156.23 383.261 156.11 383.411C155.85 383.721 155.12 384.364 154.55 384.835L113.03 412.075C112.87 412.182 112.73 412.289 112.58 412.417C110.1 414.591 109.03 416.475 108.48 419.623C108.43 419.88 108.41 420.148 108.41 420.416V431.348C108.41 432.644 108.96 433.875 109.91 434.689C110.63 435.299 111.51 435.631 112.41 435.631C112.7 435.631 112.99 435.599 113.28 435.524L163.54 423.542C163.97 425.823 164.39 427.825 164.8 429.517C165.94 434.239 168.1 441.681 168.19 441.991C168.71 443.779 170.26 445 172.01 445H176.93C178.68 445 180.23 443.779 180.75 441.991C180.84 441.681 183 434.239 184.14 429.517C184.55 427.825 184.97 425.834 185.4 423.542L235.66 435.524C235.95 435.588 236.24 435.631 236.53 435.631C237.43 435.631 238.32 435.31 239.03 434.689C239.98 433.875 240.53 432.644 240.53 431.348V420.416C240.53 420.148 240.51 419.88 240.46 419.623C239.91 416.475 238.83 414.591 236.36 412.417C236.22 412.289 236.07 412.182 235.91 412.075L194.39 384.835C193.82 384.375 193.09 383.721 192.83 383.411C192.71 383.261 192.55 383.036 192.39 382.779C193.06 378.71 193.61 375.145 194.02 372.179C195.89 358.645 197.52 338.633 197.59 337.787C197.59 337.669 197.59 337.54 197.59 337.412L197.62 233.636H217.23C217.38 234.706 217.59 235.852 217.62 236.002C217.62 236.034 217.62 236.056 217.64 236.088C218.57 240.553 221.01 241.217 222.38 241.217C223.75 241.217 226.09 240.574 227.06 236.334C228.19 238.186 229.73 238.54 230.71 238.54C232.06 238.54 234.43 237.897 235.4 233.636H236.81L251.6 238.197C251.64 238.7 251.69 239.193 251.73 239.643C251.86 240.842 252.17 242.501 252.2 242.683C252.2 242.716 252.2 242.748 252.22 242.78C253.15 247.245 255.59 247.909 256.96 247.909C258.33 247.909 260.76 247.245 261.7 242.78C261.7 242.748 261.71 242.726 261.72 242.694C261.74 242.598 261.84 242.052 261.95 241.388L287.8 249.365C287.86 250.168 287.93 250.982 288 251.699C288.13 252.898 288.44 254.558 288.47 254.74C288.47 254.772 288.48 254.804 288.49 254.826C289.42 259.291 291.86 259.954 293.23 259.954C294.6 259.954 297.03 259.291 297.97 254.826C297.97 254.794 297.98 254.761 297.99 254.74C298.02 254.601 298.2 253.616 298.34 252.631L339.53 265.426L339.59 266.432C339.63 267.182 339.86 267.91 340.25 268.542C341.08 269.88 342.42 270.673 343.84 270.673C345.26 270.673 346.61 269.87 347.43 268.52C347.86 267.824 348.09 267.011 348.09 266.176V262.471C348.13 261.518 348.29 256.635 347.58 253.198C346.77 249.269 346.05 246.442 343.47 242.973C342.1 241.131 339.73 239.139 339.47 238.914C339.27 238.743 339.06 238.604 338.83 238.475L243.41 186.32C243.5 186.073 243.57 185.816 243.62 185.549C243.68 185.206 245.17 176.983 245.56 171.436L245.59 171.04C245.96 165.676 246.21 162.142 245.54 156.317L245.47 155.718C245.22 153.512 245.04 151.927 244.37 149.422C244.06 148.244 243.51 146.627 243.45 146.445C242.87 144.753 241.37 143.629 239.69 143.629H221.98C220.42 143.629 219 144.604 218.35 146.124C218.27 146.306 217.57 147.944 217.17 149.165C216.35 151.67 216.12 153.352 215.83 155.482L215.78 155.878C215.58 156.135 215.41 156.414 215.28 156.714C215.02 157.281 214.17 159.305 214.24 161.457C214.29 162.881 214.83 164.776 215.06 165.526C215.15 165.804 215.26 166.072 215.39 166.329C215.43 167.057 215.48 167.807 215.53 168.567C215.58 169.381 215.64 170.237 215.69 171.158L200.51 162.86C199.86 162.217 199 161.275 198.65 160.718C198.53 160.515 198.12 159.765 197.65 157.999V79.0742C197.74 77.3717 198.55 62.799 197.62 53.0659C197.16 48.2262 196.75 45.3673 195.89 40.8274C194.77 34.9062 194.01 31.5333 192.21 25.9869C190.56 20.9223 187.37 13.8019 186.88 12.7097C186.28 11.1464 183.72 4.96824 179.81 2.18431C178.57 1.3063 177.53 0.749519 176.2 0.278393C176.08 0.235563 175.96 0.203441 175.84 0.171319C175.37 0.053537 174.95 0 174.52 0H174.48L174.5 0Z" fill="black"/>
</g>
<defs>
<clipPath id="clip0_487_8">
<rect width="347.29" height="445" fill="white" transform="translate(0.869995)"/>
</clipPath>
</defs>
</svg>
