<svg width="648" height="667" viewBox="0 0 648 667" fill="none" xmlns="http://www.w3.org/2000/svg">
<g clip-path="url(#clip0_184_53)">
<path d="M323.98 664.32C321.66 664.3 318.96 662.33 314.96 648.28C313.57 643.39 312.44 638.45 311.84 635.73C298.68 639.72 230.54 660.38 222.77 662.48C220.9 662.99 219.35 663.23 218.05 663.23C216.05 663.23 214.61 662.63 213.75 661.46C213 660.43 212.94 659.18 213.14 658.31C213.2 657.19 213.53 651.59 214.07 645.22C214.73 637.39 223.24 629.51 223.61 629.18C223.69 629.11 223.77 629.04 223.86 628.99C223.86 628.99 285.25 588.42 300.14 578.56C300.76 578.15 301.11 577.43 301.03 576.68C298.48 551.05 295.17 518.17 292.81 494.66C290.79 474.63 289.72 454.26 289.62 434.11L289.12 354.97C289.12 353.11 287.6 351.6 285.76 351.6C285.68 351.6 285.59 351.6 285.51 351.6C275.3 352.35 257.53 353.59 248.67 353.83C246.54 364.75 244.69 365.7 242.97 365.7C241.25 365.7 239.5 364.82 237.65 354.78C231.37 356.1 225.85 358.42 225.79 358.44C225.75 358.46 225.7 358.48 225.66 358.49L212.07 363.12C211.61 374.66 209.8 377.08 207.24 377.08C204.68 377.08 203.16 374.04 202.46 366.39L175.49 375.58C174.95 381.22 173.9 384.89 170.98 384.89C168.47 384.89 167.39 382.07 166.77 378.56L140.88 387.38C140.26 394.52 138.94 397.33 136.31 397.33C133.68 397.33 132.61 394.24 131.99 390.4L115.22 396.11C104.68 400.74 15.9101 439.76 13.4901 440.54C12.2901 440.93 12.1301 441.24 11.2701 443.57L10.9901 444.33C9.55006 448.26 8.12006 450.89 5.88006 450.89C3.64006 450.89 2.36006 448.47 2.09006 443.69C2.09006 443.55 1.91006 435.75 2.30006 423.13C2.70006 410.48 9.45006 407.01 10.9701 406.39L212.13 279.49V274.43C206.44 272.43 205.37 262.05 205.25 260.76C205.25 260.71 205.25 260.66 205.25 260.61C205.25 260.42 204.99 241.15 204.99 230.8C204.99 219.81 212.25 219.25 213.7 219.25C213.94 219.25 214.12 219.26 214.24 219.27H232.8C238.75 219.27 240.85 225.67 241.15 229.45C241.15 229.5 241.15 229.56 241.15 229.61V261.18L288.07 231.58C288.84 231.1 289.3 230.26 289.31 229.36L290.56 121.02C290.79 99.29 293.02 77.9901 297.2 57.71C307.96 5.45005 321.44 2.80005 324.04 2.80005C326.64 2.80005 340.13 5.45005 350.89 57.71C355.06 77.9901 357.3 99.29 357.53 121.02L358.78 229.35C358.78 230.26 359.25 231.09 360.02 231.58L406.94 261.18V229.61C406.94 229.56 406.94 229.5 406.94 229.45C407.24 225.67 409.34 219.27 415.29 219.27H433.85C433.97 219.27 434.15 219.25 434.39 219.25C435.84 219.25 443.1 219.81 443.1 230.8C443.1 241.15 442.84 260.42 442.84 260.61C442.84 260.66 442.84 260.71 442.84 260.76C442.73 262.05 441.65 272.43 435.96 274.43V279.49L637.12 406.39C638.64 407.01 645.39 410.48 645.79 423.13C646.19 435.74 646.01 443.55 646.01 443.62C645.74 448.46 644.47 450.89 642.22 450.89C639.97 450.89 638.56 448.26 637.11 444.32L636.83 443.58C635.97 441.25 635.81 440.93 634.61 440.55C632.2 439.77 543.42 400.75 532.88 396.12L516.11 390.41C515.5 394.24 514.4 397.34 511.79 397.34C509.18 397.34 507.84 394.52 507.22 387.39L481.33 378.57C480.71 382.09 479.62 384.9 477.12 384.9C474.2 384.9 473.15 381.23 472.61 375.59L445.64 366.4C444.94 374.04 443.54 377.09 440.86 377.09C438.18 377.09 436.49 374.67 436.03 363.13L422.44 358.5C422.44 358.5 422.35 358.47 422.31 358.45C422.25 358.42 416.73 356.11 410.45 354.79C408.6 364.84 406.87 365.71 405.13 365.71C403.39 365.71 401.56 364.76 399.43 353.84C390.57 353.59 372.81 352.36 362.59 351.61C362.51 351.61 362.42 351.61 362.34 351.61C360.5 351.61 358.99 353.12 358.98 354.97C358.94 361.98 358.88 371.25 358.8 382.05C358.7 397.08 358.57 415.09 358.47 434.12C358.37 454.26 357.29 474.62 355.28 494.66C352.91 518.17 349.61 551.05 347.06 576.68C346.99 577.42 347.33 578.14 347.95 578.56C362.83 588.42 424.23 628.99 424.23 628.99C424.32 629.05 424.4 629.11 424.48 629.18C424.84 629.51 433.35 637.39 434.02 645.22C434.56 651.59 434.88 657.19 434.95 658.31C435.14 659.19 435.09 660.43 434.34 661.46C433.49 662.63 432.04 663.23 430.04 663.23C428.73 663.23 427.19 662.98 425.32 662.48C417.54 660.38 349.41 639.73 336.25 635.73C335.65 638.45 334.52 643.39 333.13 648.28C329.13 662.34 326.43 664.3 324.11 664.32H324.07H323.98Z" fill="white"/>
<path d="M324.01 4.82007C324.34 4.82007 337.98 5.15007 348.89 58.1301C353.15 78.8401 355.26 99.9301 355.49 121.06L356.74 229.39C356.76 230.97 357.58 232.44 358.92 233.28L409.68 265.31C409.68 265.31 408.9 264.43 408.9 261.65V229.62C408.9 229.62 409.56 221.28 415.25 221.28H433.91C433.91 221.28 434.07 221.26 434.35 221.26C435.9 221.26 441.06 221.93 441.06 230.81C441.06 241.27 440.8 260.59 440.8 260.59C440.8 260.59 439.74 272.77 433.92 272.77V280.6L636.17 408.19C636.17 408.19 643.34 410.5 643.74 423.2C644.14 435.9 643.96 443.58 643.96 443.58C643.96 443.58 643.66 448.89 642.17 448.89C641.43 448.89 640.38 447.57 638.93 443.63C637.84 440.73 637.56 439.41 635.17 438.64C632.78 437.87 533.56 394.25 533.56 394.25L514.41 387.72C513.97 391.56 513.18 395.33 511.75 395.33C510.09 395.33 509.38 390.27 509.07 385.91L479.66 375.89C479.21 379.51 478.43 382.89 477.07 382.89C475.49 382.89 474.77 378.31 474.44 374.11L443.79 363.67C443.49 368.3 442.72 375.08 440.8 375.08C438.58 375.08 438.05 365.98 437.93 361.67L423.03 356.59C423.03 356.59 416.15 353.67 408.77 352.43C408.18 355.94 406.71 363.7 405.07 363.7C403.34 363.7 401.61 355.03 401.03 351.87C392.85 351.76 372.63 350.34 362.67 349.61C362.54 349.61 362.4 349.6 362.27 349.6C359.34 349.6 356.92 351.97 356.91 354.95C356.83 371.73 356.57 401.4 356.41 434.1C356.31 454.26 355.25 474.39 353.23 494.45C350.86 517.96 347.56 550.84 345.01 576.47C344.86 577.96 345.54 579.39 346.79 580.21C361.67 590.07 423.07 630.64 423.07 630.64C423.07 630.64 431.36 638.23 431.96 645.37C432.57 652.51 432.89 658.6 432.89 658.6C432.89 658.6 433.74 661.21 429.97 661.21C428.95 661.21 427.58 661.02 425.77 660.53C417.27 658.24 334.67 633.17 334.67 633.17C334.67 633.17 328.78 662.26 324.01 662.31C319.25 662.26 313.35 633.17 313.35 633.17C313.35 633.17 230.75 658.24 222.25 660.53C220.44 661.02 219.07 661.21 218.05 661.21C214.28 661.21 215.13 658.6 215.13 658.6C215.13 658.6 215.46 652.51 216.06 645.37C216.67 638.23 224.95 630.64 224.95 630.64C224.95 630.64 286.34 590.07 301.23 580.21C302.48 579.38 303.16 577.96 303.01 576.47C300.46 550.84 297.15 517.96 294.79 494.45C292.77 474.39 291.71 454.25 291.61 434.09L291.11 354.95C291.09 351.97 288.68 349.6 285.75 349.6C285.62 349.6 285.48 349.6 285.35 349.61C275.39 350.34 255.18 351.76 246.99 351.87C246.42 355.03 244.69 363.7 242.95 363.7C241.31 363.7 239.83 355.95 239.25 352.43C231.87 353.68 224.99 356.59 224.99 356.59L210.09 361.67C209.97 365.98 209.44 375.08 207.22 375.08C205.3 375.08 204.53 368.3 204.23 363.67L173.58 374.11C173.25 378.31 172.53 382.89 170.95 382.89C169.59 382.89 168.81 379.51 168.36 375.89L138.95 385.91C138.64 390.27 137.93 395.33 136.27 395.33C134.84 395.33 134.05 391.56 133.61 387.72L114.46 394.25C114.46 394.25 15.24 437.87 12.85 438.64C10.46 439.41 10.18 440.73 9.09002 443.63C7.64002 447.57 6.60002 448.89 5.85002 448.89C4.35002 448.89 4.06002 443.58 4.06002 443.58C4.06002 443.58 3.88002 435.9 4.28002 423.2C4.68002 410.5 11.85 408.19 11.85 408.19L214.1 280.6V272.77C208.28 272.77 207.22 260.59 207.22 260.59C207.22 260.59 206.96 241.27 206.96 230.81C206.96 221.93 212.12 221.26 213.67 221.26C213.95 221.26 214.11 221.28 214.11 221.28H232.77C238.46 221.28 239.12 229.62 239.12 229.62V261.65C239.12 264.43 238.34 265.31 238.34 265.31L289.1 233.28C290.44 232.44 291.26 230.97 291.27 229.39L292.53 121.06C292.75 99.9201 294.87 78.8301 299.13 58.1301C310.04 5.14007 323.68 4.82007 324.01 4.82007H324.02H324.01ZM324.01 0.820068H324C322.67 0.820068 317.91 1.43007 312.28 9.27007C305.6 18.5701 299.85 34.7401 295.21 57.3201C291.01 77.7301 288.76 99.1601 288.53 121.02L287.28 229.35C287.28 229.58 287.16 229.79 286.97 229.91L243.12 257.58V229.63C243.12 229.52 243.12 229.42 243.11 229.31C242.65 223.52 239.22 217.29 232.77 217.29H214.28C214.12 217.28 213.91 217.27 213.67 217.27C208.73 217.27 202.96 220.82 202.96 230.82C202.96 240.82 203.22 260.46 203.22 260.66C203.22 260.76 203.22 260.85 203.23 260.95C203.42 263.14 204.56 272.59 210.1 275.75V278.4L9.96002 404.65C7.75002 405.65 0.670022 409.87 0.260022 423.09C-0.139978 435.76 0.0400216 443.38 0.0400216 443.69C0.0400216 443.73 0.0400216 443.78 0.0400216 443.82C0.460022 451.33 3.42002 452.91 5.83002 452.91C9.61002 452.91 11.42 448.84 12.82 445.03C12.91 444.79 13.01 444.53 13.09 444.29C13.33 443.65 13.62 442.86 13.79 442.56C13.84 442.54 13.92 442.5 14.05 442.46C16.44 441.69 92.38 408.33 115.89 397.99L130.4 393.05C131.19 396.27 132.76 399.34 136.25 399.34C141.04 399.34 142.24 393.61 142.71 388.86L165.24 381.18C166.06 384.1 167.63 386.9 170.93 386.9C175.56 386.9 176.81 381.44 177.31 377.07L200.68 369.11C201.39 374.65 202.94 379.09 207.2 379.09C212.1 379.09 213.03 372.92 213.38 370.6C213.67 368.66 213.85 366.51 213.96 364.59L226.27 360.4C226.36 360.37 226.45 360.33 226.54 360.3C226.59 360.28 230.84 358.5 236.05 357.21C237.46 364.06 239.24 367.72 242.94 367.72C247.09 367.72 248.49 362.75 249.24 360.07C249.64 358.66 249.99 357.15 250.28 355.8C259.57 355.47 275.97 354.32 285.62 353.62C285.66 353.62 285.69 353.62 285.73 353.62C286.48 353.62 287.09 354.24 287.09 354.99L287.59 434.14C287.69 454.34 288.77 474.78 290.79 494.87C293.13 518.1 296.45 551.18 299.01 576.89C284.29 586.64 223.34 626.92 222.73 627.33C222.55 627.45 222.39 627.58 222.23 627.72C221.26 628.6 212.77 636.61 212.05 645.06C211.53 651.21 211.21 656.65 211.13 658.06C210.87 659.4 211.02 661.14 212.12 662.64C212.98 663.82 214.7 665.23 218.03 665.23C219.51 665.23 221.23 664.96 223.27 664.41C230.73 662.4 293.32 643.43 310.34 638.27C310.98 641.08 311.91 644.93 313.02 648.83C316.68 661.7 319.54 666.28 323.94 666.33C323.95 666.33 323.97 666.33 323.98 666.33C323.99 666.33 324.01 666.33 324.02 666.33C328.42 666.28 331.28 661.71 334.94 648.83C336.05 644.93 336.98 641.08 337.62 638.27C354.64 643.43 417.23 662.39 424.69 664.41C426.74 664.96 428.45 665.23 429.94 665.23C433.27 665.23 434.99 663.82 435.86 662.64C436.95 661.14 437.1 659.39 436.84 658.06C436.76 656.65 436.44 651.21 435.92 645.06C435.2 636.61 426.71 628.6 425.74 627.72C425.58 627.58 425.42 627.45 425.24 627.33C424.63 626.92 363.68 586.65 348.97 576.9C351.52 551.27 354.84 518.15 357.19 494.87C359.21 474.77 360.29 454.34 360.39 434.14C360.49 415.08 360.61 396.74 360.72 382.01C360.8 371.24 360.86 361.99 360.89 354.99C360.89 354.23 361.5 353.62 362.25 353.62C362.29 353.62 362.32 353.62 362.36 353.62C372.02 354.33 388.41 355.47 397.7 355.8C397.99 357.15 398.34 358.66 398.74 360.07C399.49 362.74 400.89 367.72 405.04 367.72C408.74 367.72 410.52 364.06 411.93 357.21C417.14 358.5 421.39 360.28 421.44 360.3C421.53 360.34 421.62 360.37 421.71 360.4L434.02 364.59C434.13 366.51 434.3 368.66 434.6 370.6C434.95 372.92 435.88 379.09 440.78 379.09C445.04 379.09 446.58 374.65 447.3 369.11L470.67 377.07C471.16 381.44 472.42 386.9 477.05 386.9C480.34 386.9 481.92 384.11 482.74 381.18L505.27 388.86C505.74 393.61 506.93 399.34 511.73 399.34C515.22 399.34 516.79 396.27 517.58 393.05L532.09 397.99C555.6 408.32 631.54 441.69 633.93 442.46C634.05 442.5 634.13 442.53 634.19 442.55C634.36 442.85 634.65 443.63 634.89 444.28C634.98 444.52 635.07 444.78 635.18 445.05C636.57 448.84 638.38 452.9 642.16 452.9C644.57 452.9 647.53 451.32 647.95 443.81C647.95 443.77 647.95 443.72 647.95 443.68C647.95 443.36 648.13 435.74 647.73 423.08C647.31 409.86 640.24 405.64 638.03 404.64L437.91 278.39V275.74C443.45 272.58 444.59 263.13 444.78 260.94C444.78 260.84 444.79 260.75 444.79 260.65C444.79 260.46 445.06 241.18 445.06 230.81C445.06 220.44 439.29 217.26 434.35 217.26C434.11 217.26 433.9 217.26 433.74 217.28H415.25C408.8 217.28 405.37 223.51 404.91 229.3C404.91 229.41 404.9 229.51 404.9 229.62V257.57L361.05 229.9C360.86 229.78 360.74 229.57 360.74 229.35L359.48 121.01C359.25 99.1601 357 77.7301 352.8 57.3201C348.15 34.7401 342.41 18.5701 335.73 9.27007C330.1 1.43007 325.33 0.820068 324.01 0.820068Z" fill="black"/>
</g>
<defs>
<clipPath id="clip0_184_53">
<rect width="648" height="665.5" fill="white" transform="translate(0 0.820068)"/>
</clipPath>
</defs>
</svg>
