<svg width="648" height="697" viewBox="0 0 648 697" fill="none" xmlns="http://www.w3.org/2000/svg">
<g clip-path="url(#clip0_184_48)">
<path d="M323.98 694.32C321.66 694.3 318.96 692.33 314.96 678.28C313.57 673.39 312.44 668.45 311.84 665.73C298.68 669.72 230.54 690.38 222.77 692.48C220.9 692.99 219.35 693.23 218.05 693.23C216.05 693.23 214.61 692.63 213.75 691.46C213 690.43 212.94 689.18 213.14 688.31C213.2 687.19 213.53 681.59 214.07 675.22C214.73 667.39 223.24 659.51 223.61 659.18C223.69 659.11 223.77 659.04 223.86 658.99C223.86 658.99 285.25 618.42 300.14 608.56C300.76 608.15 301.11 607.43 301.03 606.68C298.48 581.05 295.17 548.17 292.81 524.66C290.79 504.63 289.72 484.26 289.62 464.11L289.12 364.97C289.12 363.12 287.6 361.61 285.76 361.61C285.68 361.61 285.59 361.61 285.51 361.61C275.3 362.36 257.53 363.6 248.67 363.84C246.54 374.76 244.69 375.71 242.97 375.71C241.25 375.71 239.5 374.83 237.65 364.79C231.37 366.11 225.85 368.43 225.79 368.45C225.75 368.47 225.7 368.49 225.66 368.5L212.07 373.13C211.61 384.67 209.8 387.09 207.24 387.09C204.68 387.09 203.16 384.05 202.46 376.4L175.49 385.59C174.95 391.23 173.9 394.9 170.98 394.9C168.47 394.9 167.39 392.08 166.77 388.57L140.88 397.39C140.26 404.53 138.94 407.34 136.31 407.34C133.68 407.34 132.61 404.25 131.99 400.41L115.22 406.12C104.68 410.75 15.9101 449.77 13.4901 450.55C12.2901 450.94 12.1301 451.25 11.2701 453.58L10.9901 454.34C9.55006 458.27 8.12006 460.9 5.88006 460.9C3.64006 460.9 2.36006 458.48 2.09006 453.7C2.09006 453.56 1.91006 445.76 2.30006 433.14C2.70006 420.49 9.45006 417.02 10.9701 416.4L212.13 289.5V284.44C206.44 282.44 205.37 272.06 205.25 270.77C205.25 270.72 205.25 270.67 205.25 270.62C205.25 270.43 204.99 251.16 204.99 240.81C204.99 229.82 212.25 229.26 213.7 229.26C213.94 229.26 214.12 229.27 214.24 229.28H232.8C238.75 229.28 240.85 235.68 241.15 239.46C241.15 239.51 241.15 239.57 241.15 239.62V271.19L288.07 241.59C288.84 241.11 289.3 240.27 289.31 239.37L290.56 121.04C290.79 99.3101 293.02 78.0101 297.2 57.7301C307.96 5.47007 321.44 2.82007 324.04 2.82007C326.64 2.82007 340.13 5.47007 350.89 57.7301C355.06 78.0101 357.3 99.3101 357.53 121.04L358.78 239.37C358.78 240.28 359.25 241.11 360.02 241.59L406.94 271.19V239.62C406.94 239.57 406.94 239.51 406.94 239.46C407.24 235.68 409.34 229.28 415.29 229.28H433.85C433.97 229.28 434.15 229.26 434.39 229.26C435.84 229.26 443.1 229.82 443.1 240.81C443.1 251.16 442.84 270.43 442.84 270.62C442.84 270.67 442.84 270.72 442.84 270.77C442.73 272.06 441.65 282.44 435.96 284.44V289.5L637.12 416.4C638.64 417.02 645.39 420.49 645.79 433.14C646.19 445.75 646.01 453.56 646.01 453.63C645.74 458.47 644.47 460.9 642.22 460.9C639.97 460.9 638.56 458.27 637.11 454.33L636.83 453.59C635.97 451.26 635.81 450.94 634.61 450.56C632.2 449.78 543.42 410.76 532.88 406.13L516.11 400.42C515.5 404.25 514.4 407.35 511.79 407.35C509.18 407.35 507.84 404.53 507.22 397.4L481.33 388.58C480.71 392.1 479.62 394.91 477.12 394.91C474.2 394.91 473.15 391.24 472.61 385.6L445.64 376.41C444.94 384.05 443.54 387.1 440.86 387.1C438.18 387.1 436.49 384.68 436.03 373.14L422.44 368.51C422.44 368.51 422.35 368.48 422.31 368.46C422.25 368.43 416.73 366.12 410.45 364.8C408.6 374.85 406.87 375.72 405.13 375.72C403.39 375.72 401.56 374.77 399.43 363.85C390.57 363.6 372.81 362.37 362.59 361.62C362.51 361.62 362.42 361.62 362.34 361.62C360.5 361.62 358.99 363.13 358.98 364.98L358.48 464.13C358.38 484.27 357.3 504.63 355.29 524.67C352.92 548.18 349.62 581.06 347.07 606.69C347 607.43 347.34 608.15 347.96 608.57C362.84 618.43 424.24 659 424.24 659C424.33 659.06 424.41 659.12 424.49 659.19C424.85 659.52 433.36 667.4 434.03 675.23C434.57 681.6 434.89 687.2 434.96 688.32C435.15 689.2 435.1 690.44 434.35 691.47C433.5 692.64 432.05 693.24 430.05 693.24C428.74 693.24 427.2 692.99 425.33 692.49C417.55 690.39 349.42 669.74 336.26 665.74C335.66 668.46 334.53 673.4 333.14 678.29C329.14 692.35 326.44 694.31 324.12 694.33H324.08L323.98 694.32Z" fill="white"/>
<path d="M324.01 4.82007C324.34 4.82007 337.98 5.15007 348.89 58.1301C353.15 78.8401 355.26 99.9301 355.49 121.06L356.74 239.39C356.76 240.97 357.58 242.44 358.92 243.28L409.68 275.31C409.68 275.31 408.9 274.43 408.9 271.65V239.62C408.9 239.62 409.56 231.28 415.25 231.28H433.91C433.91 231.28 434.07 231.26 434.35 231.26C435.9 231.26 441.06 231.93 441.06 240.81C441.06 251.27 440.8 270.59 440.8 270.59C440.8 270.59 439.74 282.77 433.92 282.77V290.6L636.17 418.19C636.17 418.19 643.34 420.5 643.74 433.2C644.14 445.9 643.96 453.58 643.96 453.58C643.96 453.58 643.66 458.89 642.17 458.89C641.43 458.89 640.38 457.57 638.93 453.63C637.84 450.73 637.56 449.41 635.17 448.64C632.78 447.87 533.56 404.25 533.56 404.25L514.41 397.72C513.97 401.56 513.18 405.33 511.75 405.33C510.09 405.33 509.38 400.27 509.07 395.91L479.66 385.89C479.21 389.51 478.43 392.89 477.07 392.89C475.49 392.89 474.77 388.31 474.44 384.11L443.79 373.67C443.49 378.3 442.72 385.08 440.8 385.08C438.58 385.08 438.05 375.98 437.93 371.67L423.03 366.59C423.03 366.59 416.15 363.67 408.77 362.43C408.18 365.94 406.71 373.7 405.07 373.7C403.34 373.7 401.61 365.03 401.03 361.87C392.85 361.76 372.63 360.34 362.67 359.61C362.54 359.61 362.4 359.6 362.27 359.6C359.34 359.6 356.92 361.97 356.91 364.95C356.83 381.73 356.57 431.4 356.41 464.1C356.31 484.26 355.25 504.39 353.23 524.45C350.86 547.96 347.56 580.84 345.01 606.47C344.86 607.96 345.54 609.39 346.79 610.21C361.67 620.07 423.07 660.64 423.07 660.64C423.07 660.64 431.36 668.23 431.96 675.37C432.57 682.51 432.89 688.6 432.89 688.6C432.89 688.6 433.74 691.21 429.97 691.21C428.95 691.21 427.58 691.02 425.77 690.53C417.27 688.24 334.67 663.17 334.67 663.17C334.67 663.17 328.78 692.26 324.01 692.31C319.25 692.26 313.35 663.17 313.35 663.17C313.35 663.17 230.75 688.24 222.25 690.53C220.44 691.02 219.07 691.21 218.05 691.21C214.28 691.21 215.13 688.6 215.13 688.6C215.13 688.6 215.46 682.51 216.06 675.37C216.67 668.23 224.95 660.64 224.95 660.64C224.95 660.64 286.34 620.07 301.23 610.21C302.48 609.38 303.16 607.96 303.01 606.47C300.46 580.84 297.15 547.96 294.79 524.45C292.77 504.39 291.71 484.25 291.61 464.09L291.11 364.95C291.09 361.97 288.68 359.6 285.75 359.6C285.62 359.6 285.48 359.6 285.35 359.61C275.39 360.34 255.18 361.76 246.99 361.87C246.42 365.03 244.69 373.7 242.95 373.7C241.31 373.7 239.83 365.95 239.25 362.43C231.87 363.68 224.99 366.59 224.99 366.59L210.09 371.67C209.97 375.98 209.44 385.08 207.22 385.08C205.3 385.08 204.53 378.3 204.23 373.67L173.58 384.11C173.25 388.31 172.53 392.89 170.95 392.89C169.59 392.89 168.81 389.51 168.36 385.89L138.95 395.91C138.64 400.27 137.93 405.33 136.27 405.33C134.84 405.33 134.05 401.56 133.61 397.72L114.46 404.25C114.46 404.25 15.24 447.87 12.85 448.64C10.46 449.41 10.18 450.73 9.09002 453.63C7.64002 457.57 6.60002 458.89 5.85002 458.89C4.35002 458.89 4.06002 453.58 4.06002 453.58C4.06002 453.58 3.88002 445.9 4.28002 433.2C4.68002 420.5 11.85 418.19 11.85 418.19L214.1 290.6V282.77C208.28 282.77 207.22 270.59 207.22 270.59C207.22 270.59 206.96 251.27 206.96 240.81C206.96 231.93 212.12 231.26 213.67 231.26C213.95 231.26 214.11 231.28 214.11 231.28H232.77C238.46 231.28 239.12 239.62 239.12 239.62V271.65C239.12 274.43 238.34 275.31 238.34 275.31L289.1 243.28C290.44 242.44 291.26 240.97 291.28 239.39L292.54 121.06C292.76 99.9201 294.88 78.8301 299.14 58.1301C310.05 5.14007 323.69 4.82007 324.02 4.82007M324.01 0.820068C322.68 0.820068 317.91 1.43007 312.28 9.27007C305.6 18.5701 299.85 34.7401 295.21 57.3201C291.01 77.7301 288.76 99.1601 288.53 121.02L287.27 239.35C287.27 239.58 287.15 239.78 286.96 239.9L243.11 267.57V239.62C243.11 239.51 243.11 239.41 243.1 239.3C242.64 233.51 239.21 227.28 232.76 227.28H214.27C214.11 227.27 213.9 227.26 213.66 227.26C208.72 227.26 202.95 230.81 202.95 240.81C202.95 250.81 203.21 270.45 203.22 270.65C203.22 270.75 203.22 270.84 203.23 270.94C203.42 273.13 204.56 282.58 210.1 285.74V288.39L9.96002 414.65C7.75002 415.65 0.670022 419.87 0.260022 433.09C-0.139978 445.76 0.0400216 453.38 0.0400216 453.69C0.0400216 453.73 0.0400216 453.78 0.0400216 453.82C0.460022 461.33 3.42002 462.91 5.83002 462.91C9.61002 462.91 11.42 458.84 12.82 455.03C12.91 454.79 13.01 454.53 13.1 454.29C13.34 453.65 13.63 452.86 13.8 452.56C13.85 452.54 13.93 452.5 14.06 452.46C16.46 451.69 92.39 418.33 115.9 407.99L130.41 403.05C131.2 406.27 132.77 409.34 136.26 409.34C141.05 409.34 142.25 403.61 142.72 398.86L165.25 391.18C166.07 394.1 167.64 396.9 170.94 396.9C175.57 396.9 176.82 391.44 177.32 387.07L200.69 379.11C201.4 384.65 202.95 389.09 207.21 389.09C212.11 389.09 213.04 382.92 213.39 380.6C213.68 378.66 213.86 376.51 213.97 374.59L226.28 370.4C226.37 370.37 226.46 370.33 226.55 370.3C226.6 370.28 230.85 368.5 236.06 367.21C237.47 374.06 239.25 377.72 242.95 377.72C247.1 377.72 248.5 372.75 249.25 370.07C249.65 368.66 250 367.15 250.29 365.8C259.58 365.47 275.98 364.32 285.63 363.62C285.67 363.62 285.7 363.62 285.74 363.62C286.49 363.62 287.1 364.24 287.1 364.99L287.6 464.13C287.7 484.33 288.78 504.77 290.8 524.87C293.14 548.09 296.46 581.17 299.02 606.89C284.3 616.64 223.35 656.92 222.74 657.33C222.56 657.45 222.4 657.58 222.24 657.72C221.27 658.6 212.78 666.61 212.06 675.06C211.54 681.21 211.22 686.65 211.14 688.06C210.89 689.4 211.03 691.14 212.13 692.64C212.99 693.82 214.71 695.23 218.04 695.23C219.52 695.23 221.24 694.96 223.29 694.41C230.75 692.4 293.34 673.43 310.36 668.27C311 671.08 311.93 674.93 313.04 678.83C316.7 691.7 319.56 696.28 323.96 696.33C323.97 696.33 323.99 696.33 324 696.33C324.01 696.33 324.03 696.33 324.04 696.33C328.44 696.28 331.3 691.71 334.96 678.83C336.07 674.93 337 671.08 337.64 668.27C354.66 673.43 417.25 692.39 424.71 694.41C426.76 694.96 428.47 695.23 429.96 695.23C433.29 695.23 435.01 693.82 435.87 692.64C436.96 691.14 437.11 689.39 436.85 688.06C436.77 686.65 436.45 681.21 435.93 675.06C435.21 666.61 426.72 658.6 425.75 657.72C425.6 657.58 425.43 657.45 425.25 657.33C424.64 656.92 363.69 616.65 348.98 606.9C351.53 581.24 354.86 548.13 357.2 524.87C359.22 504.77 360.3 484.34 360.4 464.14L360.71 403.82L360.91 364.99C360.91 364.23 361.52 363.62 362.27 363.62C362.31 363.62 362.34 363.62 362.38 363.62C372.03 364.33 388.43 365.47 397.72 365.8C398.01 367.15 398.36 368.66 398.76 370.07C399.51 372.74 400.91 377.72 405.06 377.72C408.76 377.72 410.54 374.06 411.95 367.21C417.16 368.5 421.41 370.28 421.46 370.3C421.55 370.34 421.64 370.37 421.73 370.4L434.04 374.59C434.15 376.51 434.32 378.66 434.62 380.6C434.97 382.92 435.9 389.09 440.8 389.09C445.06 389.09 446.6 384.65 447.32 379.11L470.69 387.07C471.18 391.44 472.44 396.9 477.07 396.9C480.37 396.9 481.94 394.11 482.76 391.18L505.29 398.86C505.76 403.61 506.95 409.34 511.75 409.34C515.24 409.34 516.81 406.27 517.6 403.05L532.11 407.99C555.62 418.32 631.56 451.69 633.95 452.46C634.07 452.5 634.16 452.53 634.21 452.56C634.38 452.86 634.67 453.64 634.91 454.29C635 454.53 635.09 454.79 635.2 455.06C636.59 458.85 638.4 462.91 642.18 462.91C644.59 462.91 647.55 461.33 647.97 453.82C647.97 453.78 647.97 453.73 647.97 453.69C647.97 453.37 648.15 445.75 647.75 433.09C647.33 419.87 640.26 415.65 638.05 414.65L437.93 288.4V285.75C443.47 282.59 444.61 273.14 444.8 270.95C444.8 270.85 444.81 270.76 444.81 270.66C444.81 270.47 445.08 251.19 445.08 240.82C445.08 230.45 439.31 227.27 434.37 227.27C434.13 227.27 433.92 227.27 433.76 227.29H415.27C408.82 227.29 405.39 233.52 404.93 239.31C404.93 239.42 404.92 239.52 404.92 239.63V267.58L361.07 239.91C360.88 239.79 360.76 239.58 360.76 239.36L359.5 121.03C359.27 99.1701 357.02 77.7401 352.82 57.3301C348.17 34.7501 342.43 18.5801 335.75 9.28007C330.12 1.44007 325.35 0.830068 324.03 0.830068L324.01 0.820068Z" fill="black"/>
</g>
<defs>
<clipPath id="clip0_184_48">
<rect width="648" height="695.5" fill="white" transform="translate(0 0.820068)"/>
</clipPath>
</defs>
</svg>
