<svg width="676" height="655" viewBox="0 0 676 655" fill="none" xmlns="http://www.w3.org/2000/svg">
<g clip-path="url(#clip0_593_2470)">
<path d="M436.42 653C436.2 653 435.97 652.96 435.75 652.88L347.59 621.58C347.43 622.15 347.25 622.77 347.07 623.41C346.69 624.73 346.29 626.1 346.17 626.71C345.08 631.89 342.36 636.36 339.05 638.37C338.73 638.57 338.37 638.66 338.01 638.66C337.65 638.66 337.29 638.56 336.97 638.37C333.67 636.35 330.94 631.88 329.85 626.71C329.72 626.1 329.33 624.74 328.95 623.42C328.77 622.78 328.59 622.16 328.42 621.58L240.26 652.88C240.04 652.96 239.82 653 239.59 653C239.15 653 238.72 652.86 238.37 652.58C237.83 652.16 237.54 651.5 237.6 650.83L237.67 650.03C238.96 634.89 239.82 624.89 252.99 613.25C253.04 613.2 253.1 613.16 253.15 613.12L318.23 566.72C313.09 547.8 309.24 522.72 307.37 509.26C303.93 484.41 303.6 477.14 303.84 474.8H303.82V383.17C302.47 377.9 301.61 374.04 299.46 357.1H262.83C262.21 361.67 261.07 365.53 258 365.53C254.93 365.53 253.78 361.67 253.17 357.1H230.76L213.24 363.32C212.64 368.12 211.53 372.28 208.34 372.28C205.81 372.28 204.65 369.69 203.99 366.61L167.51 379.56C166.77 387.54 165.24 390.82 162.35 390.82C159.46 390.82 158.25 387.34 157.61 383.07L128.99 393.23L41.68 427.77C23.18 434.72 12.81 442.29 5.86999 453.91C5.49999 454.52 4.84999 454.88 4.14999 454.88C3.98999 454.88 3.82999 454.86 3.66999 454.82C2.81999 454.61 2.19999 453.87 2.14999 452.99C0.919992 430.46 8.86999 418.42 36.2 401.45L218.93 280.21C217.81 278.31 216.85 276.42 216.27 273.99H212.16C211.22 273.99 210.41 273.33 210.21 272.41C206.33 254.52 206.33 243.46 206.33 225.13C206.33 210.31 213 208.1 216.97 208.1H243.84C247.81 208.1 254.48 210.31 254.48 225.13C254.48 238.05 254.48 247.12 253.19 257.48L253.37 257.36C260.92 251.57 266.45 247.54 270.89 244.29C282.07 236.12 287.25 232.34 303.83 216V91.23C303.83 91.17 303.83 91.12 303.83 91.07C304 89.03 308.15 40.72 324.34 13.5C327.61 8.00998 334.52 1.97998 337.54 1.97998C337.7 1.97998 337.86 1.98998 338.02 2.01998C338.17 1.98998 338.33 1.97998 338.5 1.97998C341.53 1.97998 348.43 8.00998 351.7 13.5C367.89 40.72 372.04 89.03 372.21 91.07C372.21 91.12 372.21 91.18 372.21 91.23V216C388.8 232.34 393.97 236.12 405.15 244.29C409.59 247.54 415.12 251.57 422.67 257.36L422.84 257.48C421.55 247.12 421.55 238.05 421.55 225.13C421.55 210.31 428.22 208.1 432.19 208.1H459.06C463.03 208.1 469.7 210.31 469.7 225.13C469.7 243.46 469.7 254.52 465.81 272.41C465.61 273.33 464.8 273.99 463.86 273.99H459.75C459.17 276.42 458.22 278.3 457.09 280.21L639.87 401.48C667.15 418.42 675.11 430.46 673.87 452.99C673.82 453.87 673.21 454.61 672.35 454.82C672.19 454.86 672.03 454.88 671.87 454.88C671.18 454.88 670.52 454.52 670.15 453.91C663.21 442.29 652.84 434.72 634.37 427.78L546.96 393.2L518.4 383.06C517.76 387.33 516.58 390.81 513.66 390.81C510.74 390.81 509.24 387.52 508.5 379.55L472.02 366.6C471.35 369.67 470.19 372.27 467.67 372.27C464.48 372.27 463.37 368.11 462.77 363.31L445.25 357.09H422.84C422.22 361.66 421.08 365.52 418.01 365.52C414.94 365.52 413.79 361.66 413.18 357.09H376.55C374.4 374.02 373.54 377.89 372.19 383.16V474.45C372.38 475.48 372.28 477.89 371.55 485.21C370.85 492.16 369.82 500.69 368.63 509.25C366.77 522.71 362.91 547.79 357.77 566.71L422.85 613.11C422.91 613.15 422.96 613.19 423.01 613.24C436.18 624.88 437.03 634.88 438.33 650.02L438.4 650.82C438.46 651.5 438.17 652.16 437.63 652.57C437.27 652.84 436.84 652.99 436.41 652.99L436.42 653Z" fill="white"/>
<path d="M338.48 4C340.27 4 346.65 8.97 349.96 14.54C366.1 41.67 370.19 91.25 370.19 91.25V216.86C394.11 240.46 394.7 238.49 421.5 259.01L425.44 261.62C423.55 249.5 423.55 239.79 423.55 225.14C423.55 219.84 424.51 210.11 432.19 210.11H459.06C466.74 210.11 467.7 219.84 467.7 225.14C467.7 243.71 467.7 254.32 463.86 272H458.1C457.57 275.61 456.22 277.84 454.39 280.82L638.77 403.15C666.65 420.47 673.01 432.2 671.88 452.89C664.48 440.51 653.65 432.89 635.09 425.91L547.71 391.35L516.74 380.35C516.22 385.2 515.29 388.82 513.68 388.82C511.82 388.82 510.87 384.05 510.41 378.1L470.5 363.93C469.95 367.68 469.07 370.27 467.7 370.27C466.09 370.27 465.16 366.68 464.64 361.85L445.63 355.1H421.1C420.58 359.93 419.65 363.53 418.04 363.53C416.43 363.53 415.5 359.93 414.98 355.1H374.81C372.51 373.42 371.66 377.3 370.21 382.92V474.81C371.12 474.81 364.95 533.71 355.5 567.54L421.72 614.75C434.29 625.86 435.1 635.37 436.37 650.2L436.44 651L346.21 618.97C345.96 620.34 344.53 624.87 344.22 626.3C343.24 630.95 340.78 634.98 338.02 636.67C335.26 634.98 332.79 630.95 331.82 626.3C331.52 624.86 330.09 620.34 329.83 618.97L239.6 651L239.67 650.2C240.94 635.37 241.75 625.86 254.32 614.75L320.54 567.54C311.08 533.71 304.91 474.81 305.83 474.81V382.92C304.38 377.3 303.53 373.42 301.23 355.1H261.06C260.54 359.93 259.61 363.53 258 363.53C256.39 363.53 255.46 359.93 254.94 355.1H230.41L211.4 361.85C210.88 366.68 209.95 370.27 208.34 370.27C206.97 370.27 206.09 367.67 205.54 363.93L165.63 378.1C165.17 384.05 164.21 388.82 162.36 388.82C160.74 388.82 159.82 385.21 159.3 380.35L128.33 391.35L40.95 425.91C22.39 432.88 11.56 440.5 4.16002 452.89C3.03002 432.21 9.39002 420.47 37.27 403.15L221.65 280.82C219.82 277.83 218.47 275.6 217.94 272H212.18C208.34 254.32 208.34 243.71 208.34 225.14C208.34 219.84 209.3 210.11 216.98 210.11H243.85C251.53 210.11 252.49 219.84 252.49 225.14C252.49 239.79 252.49 249.49 250.6 261.62L254.54 259.01C281.33 238.49 281.93 240.46 305.85 216.86V91.25C305.85 91.25 309.95 41.67 326.08 14.54C329.4 8.96 335.77 4 337.56 4C337.86 4 338.03 4.14 338.04 4.43C338.05 4.14 338.22 4 338.52 4M338.48 0C338.32 0 338.16 0 338 0.02C337.84 0 337.68 0 337.52 0C333.37 0 325.97 6.84 322.6 12.5C306.18 40.11 301.99 88.87 301.82 90.93C301.82 91.04 301.81 91.15 301.81 91.26V215.19C285.8 230.93 280.65 234.69 269.69 242.7C265.96 245.42 261.47 248.7 255.66 253.11C256.46 244.45 256.46 236.2 256.46 225.15C256.46 207.98 247.62 206.12 243.82 206.12H216.95C213.15 206.12 204.31 207.97 204.31 225.15C204.31 243.61 204.31 254.76 208.24 272.86C208.64 274.7 210.27 276.01 212.15 276.01H214.74C215.16 277.32 215.68 278.48 216.26 279.59L35.07 399.8C20.44 408.89 11.61 416.54 6.43002 424.61C1.35002 432.52 -0.529982 441.05 0.130018 453.12C0.230018 454.88 1.46002 456.36 3.17002 456.78C3.49002 456.86 3.81002 456.9 4.13002 456.9C5.51002 456.9 6.83002 456.18 7.56002 454.95C14.33 443.61 24.08 436.52 42.32 429.67C42.34 429.67 42.36 429.65 42.38 429.64L129.69 395.1L156.03 385.75C156.85 389.28 158.52 392.83 162.31 392.83C164.3 392.83 166.96 391.78 168.33 386.76C168.74 385.24 169.07 383.36 169.33 381.03L202.6 369.22C203.5 371.8 205.16 374.29 208.3 374.29C212.98 374.29 214.43 368.91 215.03 364.81L231.06 359.12H251.41C252.11 363.03 253.68 367.55 257.97 367.55C262.26 367.55 263.83 363.03 264.53 359.12H297.68C299.66 374.46 300.51 378.4 301.8 383.44V474.17C301.59 475.61 301.75 478.42 302.45 485.44C303.15 492.41 304.19 500.97 305.37 509.55C307.2 522.74 310.93 547.05 315.92 565.91L251.97 611.5C251.86 611.58 251.75 611.67 251.64 611.76C237.87 623.93 236.94 634.81 235.65 649.87L235.58 650.67C235.46 652.02 236.04 653.35 237.12 654.18C237.83 654.73 238.69 655.01 239.56 655.01C240.01 655.01 240.46 654.93 240.9 654.78L327.05 624.19C327.37 625.31 327.75 626.63 327.86 627.13C329.06 632.83 332.13 637.79 335.89 640.09C336.53 640.48 337.25 640.68 337.97 640.68C338.69 640.68 339.41 640.48 340.05 640.09C343.81 637.79 346.89 632.83 348.08 627.13C348.19 626.63 348.56 625.31 348.89 624.19L435.04 654.78C435.48 654.93 435.93 655.01 436.38 655.01C437.25 655.01 438.11 654.72 438.82 654.18C439.9 653.35 440.48 652.03 440.36 650.67L440.29 649.87C439 634.81 438.08 623.93 424.3 611.76C424.2 611.67 424.09 611.58 423.97 611.5L360.02 565.91C365.01 547.06 368.74 522.74 370.57 509.55C371.76 500.97 372.8 492.41 373.49 485.44C374.19 478.41 374.36 475.6 374.14 474.17V383.44C375.43 378.4 376.29 374.45 378.26 359.12H411.41C412.11 363.03 413.68 367.55 417.97 367.55C422.26 367.55 423.83 363.03 424.53 359.12H444.88L460.91 364.81C461.51 368.91 462.96 374.29 467.64 374.29C470.79 374.29 472.44 371.8 473.34 369.22L506.61 381.03C506.87 383.35 507.2 385.24 507.61 386.76C508.98 391.78 511.64 392.83 513.63 392.83C517.43 392.83 519.1 389.29 519.91 385.75L546.25 395.1L633.56 429.64C633.56 429.64 633.6 429.66 633.62 429.67C651.86 436.52 661.61 443.61 668.38 454.95C669.11 456.18 670.43 456.9 671.81 456.9C672.13 456.9 672.45 456.86 672.77 456.78C674.48 456.36 675.71 454.87 675.81 453.12C676.47 441.05 674.59 432.52 669.51 424.61C664.33 416.54 655.49 408.89 640.87 399.8L459.68 279.59C460.26 278.49 460.78 277.32 461.2 276.01H463.79C465.67 276.01 467.3 274.7 467.7 272.86C471.63 254.76 471.63 243.62 471.63 225.15C471.63 207.98 462.79 206.12 458.99 206.12H432.12C428.32 206.12 419.48 207.97 419.48 225.15C419.48 236.2 419.48 244.45 420.28 253.11C414.47 248.71 409.98 245.43 406.25 242.7C395.28 234.69 390.14 230.93 374.13 215.19V91.26C374.13 91.15 374.13 91.04 374.12 90.93C373.95 88.87 369.76 40.11 353.34 12.5C350.03 6.84 342.62 0 338.48 0Z" fill="black"/>
</g>
<defs>
<clipPath id="clip0_593_2470">
<rect width="676" height="655" fill="white"/>
</clipPath>
</defs>
</svg>
