<svg width="676" height="738" viewBox="0 0 676 738" fill="none" xmlns="http://www.w3.org/2000/svg">
<g clip-path="url(#clip0_593_2467)">
<path d="M436.42 735.951C436.2 735.951 435.97 735.91 435.75 735.828L347.59 703.766C347.43 704.349 347.25 704.984 347.07 705.64C346.69 706.992 346.29 708.396 346.17 709.021C345.08 714.327 342.36 718.906 339.05 720.965C338.73 721.17 338.37 721.262 338.01 721.262C337.65 721.262 337.29 721.159 336.97 720.965C333.67 718.896 330.94 714.317 329.85 709.021C329.72 708.396 329.33 707.003 328.95 705.65C328.77 704.995 328.59 704.36 328.42 703.766L240.26 735.828C240.04 735.91 239.82 735.951 239.59 735.951C239.15 735.951 238.72 735.808 238.37 735.521C237.83 735.091 237.54 734.415 237.6 733.728L237.67 732.909C238.96 717.4 239.82 707.156 252.99 695.232C253.04 695.181 253.1 695.14 253.15 695.099L318.23 647.579C313.09 628.197 309.24 602.506 307.37 588.718C303.93 563.262 303.6 555.815 303.84 553.418H303.82V420.547C302.47 415.148 301.61 411.194 299.46 393.841H262.83C262.21 398.523 261.07 402.477 258 402.477C254.93 402.477 253.78 398.523 253.17 393.841H230.76L213.24 400.213C212.64 405.13 211.53 409.391 208.34 409.391C205.81 409.391 204.65 406.738 203.99 403.583L167.51 416.849C166.77 425.023 165.24 428.383 162.35 428.383C159.46 428.383 158.25 424.818 157.61 420.444L128.99 430.852L41.68 466.234C23.18 473.353 12.81 481.108 5.86999 493.011C5.49999 493.636 4.84999 494.004 4.14999 494.004C3.98999 494.004 3.82999 493.984 3.66999 493.943C2.81999 493.728 2.19999 492.97 2.14999 492.068C0.919992 468.989 8.86999 456.656 36.2 439.272L218.93 315.077C217.81 313.131 216.85 311.195 216.27 308.705H212.16C211.22 308.705 210.41 308.029 210.21 307.087C206.33 288.761 206.33 277.431 206.33 258.655C206.33 243.473 213 241.209 216.97 241.209H243.84C247.81 241.209 254.48 243.473 254.48 258.655C254.48 271.889 254.48 281.181 253.19 291.793L253.37 291.67C260.92 285.739 266.45 281.611 270.89 278.282C282.07 269.912 287.25 266.04 303.83 249.302V93.4845C303.83 93.423 303.83 93.3718 303.83 93.3206C304 91.2308 308.15 41.7433 324.34 13.8599C327.61 8.23606 334.52 2.05908 337.54 2.05908C337.7 2.05908 337.86 2.06933 338.02 2.10006C338.17 2.06933 338.33 2.05908 338.5 2.05908C341.53 2.05908 348.43 8.23606 351.7 13.8599C367.89 41.7433 372.04 91.2308 372.21 93.3206C372.21 93.3718 372.21 93.4332 372.21 93.4845V249.333C388.8 266.071 393.97 269.943 405.15 278.312C409.59 281.641 415.12 285.77 422.67 291.701L422.84 291.824C421.55 281.211 421.55 271.92 421.55 258.685C421.55 243.504 428.22 241.24 432.19 241.24H459.06C463.03 241.24 469.7 243.504 469.7 258.685C469.7 277.462 469.7 288.792 465.81 307.118C465.61 308.06 464.8 308.736 463.86 308.736H459.75C459.17 311.225 458.22 313.151 457.09 315.108L639.87 439.334C667.15 456.686 675.11 469.02 673.87 492.099C673.82 493.001 673.21 493.759 672.35 493.974C672.19 494.015 672.03 494.035 671.87 494.035C671.18 494.035 670.52 493.666 670.15 493.042C663.21 481.138 652.84 473.384 634.37 466.275L546.96 430.852L518.4 420.465C517.76 424.839 516.58 428.404 513.66 428.404C510.74 428.404 509.24 425.033 508.5 416.869L472.02 403.603C471.35 406.748 470.19 409.412 467.67 409.412C464.48 409.412 463.37 405.15 462.77 400.233L445.25 393.862H422.84C422.22 398.543 421.08 402.497 418.01 402.497C414.94 402.497 413.79 398.543 413.18 393.862H376.55C374.4 411.204 373.54 415.169 372.19 420.567V553.439H372.17C372.41 555.836 372.08 563.283 368.64 588.739C366.78 602.527 362.92 628.218 357.78 647.599L422.86 695.12C422.92 695.161 422.97 695.202 423.02 695.253C436.19 707.177 437.04 717.42 438.34 732.929L438.41 733.749C438.47 734.445 438.18 735.122 437.64 735.542C437.28 735.818 436.85 735.972 436.42 735.972V735.951Z" fill="white"/>
<path d="M338.48 4.0975C340.27 4.0975 346.65 9.18863 349.96 14.8944C366.1 42.6857 370.19 93.4741 370.19 93.4741V250.173C394.11 274.348 394.7 272.33 421.5 293.35L425.44 296.024C423.55 283.608 423.55 273.662 423.55 258.654C423.55 253.225 424.51 243.258 432.19 243.258H459.06C466.74 243.258 467.7 253.225 467.7 258.654C467.7 277.677 467.7 288.546 463.86 306.657H458.1C457.57 310.355 456.22 312.639 454.39 315.692L638.77 441.003C666.65 458.745 673.01 470.761 671.88 491.956C664.48 479.274 653.65 471.468 635.09 464.318L547.71 428.916L516.74 417.658C516.22 422.626 515.29 426.334 513.68 426.334C511.82 426.334 510.87 421.448 510.41 415.353L470.5 400.838C469.95 404.679 469.07 407.332 467.7 407.332C466.09 407.332 465.16 403.655 464.64 398.707L445.63 391.792H421.1C420.58 396.74 419.65 400.428 418.04 400.428C416.43 400.428 415.5 396.74 414.98 391.792H374.81C372.5 410.559 371.66 414.533 370.21 420.29V553.418C371.12 553.418 364.95 613.754 355.5 648.408L421.72 696.769C434.29 708.15 435.1 717.892 436.37 733.083L436.44 733.903L346.21 701.092C345.96 702.495 344.53 707.136 344.22 708.611C343.24 713.374 340.78 717.502 338.02 719.233C335.26 717.502 332.79 713.374 331.82 708.611C331.52 707.136 330.09 702.505 329.83 701.092L239.6 733.903L239.67 733.083C240.94 717.892 241.75 708.15 254.32 696.769L320.54 648.408C311.08 613.754 304.91 553.418 305.83 553.418V420.29C304.38 414.533 303.53 410.559 301.23 391.792H261.06C260.54 396.74 259.61 400.428 258 400.428C256.39 400.428 255.46 396.74 254.94 391.792H230.41L211.4 398.707C210.88 403.655 209.95 407.332 208.34 407.332C206.97 407.332 206.09 404.669 205.54 400.838L165.63 415.353C165.17 421.448 164.21 426.334 162.36 426.334C160.74 426.334 159.82 422.636 159.29 417.658L128.32 428.916L40.94 464.318C22.38 471.458 11.55 479.264 4.15002 491.956C3.02002 470.772 9.38002 458.745 37.26 441.003L221.64 315.692C219.81 312.629 218.46 310.344 217.93 306.657H212.17C208.33 288.546 208.33 277.677 208.33 258.654C208.33 253.225 209.29 243.258 216.97 243.258H243.84C251.52 243.258 252.48 253.225 252.48 258.654C252.48 273.662 252.48 283.598 250.59 296.024L254.53 293.35C281.33 272.33 281.92 274.348 305.84 250.173V93.4844C305.84 93.4844 309.94 42.6959 326.07 14.9046C329.39 9.18863 335.76 4.10774 337.55 4.10774C337.85 4.10774 338.02 4.25115 338.03 4.54822C338.04 4.25115 338.21 4.10774 338.51 4.10774M338.48 0C338.32 0 338.16 0 338 0.0204875C337.84 0 337.68 0 337.52 0C333.37 0 325.97 7.00672 322.6 12.8047C306.18 41.0876 301.99 91.0361 301.82 93.1463C301.82 93.259 301.81 93.3717 301.81 93.4844V248.472C285.8 264.596 280.65 268.447 269.69 276.653C265.96 279.439 261.47 282.799 255.66 287.316C256.46 278.445 256.46 269.994 256.46 258.675C256.46 241.086 247.62 239.181 243.82 239.181H216.95C213.15 239.181 204.31 241.076 204.31 258.675C204.31 277.585 204.31 289.007 208.24 307.548C208.64 309.433 210.27 310.775 212.15 310.775H214.74C215.16 312.117 215.68 313.305 216.26 314.442L35.07 437.582C20.44 446.893 11.61 454.73 6.43002 462.997C1.35002 471.099 -0.529982 479.837 0.130018 492.201C0.230018 494.004 1.46002 495.52 3.17002 495.951C3.49002 496.033 3.81002 496.074 4.13002 496.074C5.51002 496.074 6.83002 495.336 7.56002 494.076C14.33 482.46 24.08 475.197 42.32 468.18C42.34 468.18 42.36 468.159 42.38 468.159L129.69 432.778L156.03 423.2C156.85 426.816 158.52 430.452 162.31 430.452C164.3 430.452 166.96 429.377 168.33 424.234C168.74 422.677 169.07 420.751 169.33 418.365L202.6 406.267C203.5 408.91 205.16 411.46 208.3 411.46C212.98 411.46 214.43 405.949 215.03 401.749L231.06 395.921H251.4C252.1 399.926 253.67 404.556 257.96 404.556C262.25 404.556 263.82 399.926 264.52 395.921H297.67C299.65 411.634 300.5 415.671 301.79 420.833V552.773C301.58 554.248 301.74 557.126 302.44 564.317C303.14 571.457 304.18 580.226 305.36 589.015C307.19 602.527 310.92 627.429 315.91 646.749L251.96 693.45C251.85 693.532 251.74 693.624 251.63 693.716C237.86 706.183 236.93 717.328 235.64 732.755L235.57 733.575C235.45 734.958 236.04 736.32 237.11 737.17C237.82 737.734 238.68 738.021 239.55 738.021C240 738.021 240.45 737.939 240.89 737.785L327.04 706.449C327.36 707.597 327.74 708.949 327.85 709.461C329.05 715.3 332.12 720.381 335.88 722.737C336.52 723.136 337.24 723.341 337.96 723.341C338.68 723.341 339.4 723.136 340.04 722.737C343.8 720.381 346.88 715.3 348.07 709.461C348.18 708.949 348.55 707.597 348.88 706.449L435.03 737.785C435.47 737.939 435.92 738.021 436.37 738.021C437.24 738.021 438.1 737.723 438.81 737.17C439.89 736.32 440.47 734.968 440.35 733.575L440.28 732.755C438.99 717.328 438.07 706.183 424.29 693.716C424.19 693.624 424.08 693.532 423.96 693.45L360.01 646.749C365 627.439 368.73 602.527 370.56 589.015C371.75 580.226 372.79 571.457 373.48 564.317C374.18 557.116 374.35 554.238 374.13 552.773V420.833C375.42 415.671 376.28 411.624 378.25 395.921H411.4C412.1 399.926 413.67 404.556 417.96 404.556C422.25 404.556 423.82 399.926 424.52 395.921H444.86L460.89 401.749C461.49 405.949 462.94 411.46 467.62 411.46C470.77 411.46 472.42 408.91 473.32 406.267L506.59 418.365C506.85 420.741 507.18 422.677 507.59 424.234C508.96 429.377 511.62 430.452 513.61 430.452C517.41 430.452 519.08 426.826 519.89 423.2L546.23 432.778L633.54 468.159C633.54 468.159 633.58 468.18 633.6 468.18C651.84 475.197 661.59 482.46 668.36 494.076C669.09 495.336 670.41 496.074 671.79 496.074C672.11 496.074 672.43 496.033 672.75 495.951C674.46 495.52 675.69 493.994 675.79 492.201C676.45 479.837 674.57 471.099 669.49 462.997C664.31 454.73 655.47 446.893 640.85 437.582L459.66 314.442C460.24 313.315 460.76 312.117 461.18 310.775H463.77C465.65 310.775 467.28 309.433 467.68 307.548C471.61 289.007 471.61 277.595 471.61 258.675C471.61 241.086 462.77 239.181 458.97 239.181H432.1C428.3 239.181 419.46 241.076 419.46 258.675C419.46 269.994 419.46 278.445 420.26 287.316C414.45 282.809 409.96 279.449 406.23 276.653C395.26 268.447 390.12 264.596 374.11 248.472V93.4844C374.11 93.3717 374.11 93.259 374.1 93.1463C373.93 91.0361 369.74 41.0876 353.32 12.8047C350.03 7.00672 342.62 0 338.48 0Z" fill="black"/>
</g>
<defs>
<clipPath id="clip0_593_2467">
<rect width="676" height="738" fill="white"/>
</clipPath>
</defs>
</svg>
