<svg width="457" height="586" viewBox="0 0 457 586" fill="none" xmlns="http://www.w3.org/2000/svg">
<g clip-path="url(#clip0_59_78)">
<path d="M153.95 575.61C153.59 567.01 153.49 560.72 153.46 557.82C153.45 556.74 154.12 555.79 155.13 555.42L219.52 531.83C220.73 531.39 222.02 532.22 222.11 533.5C222.39 537.48 223.1 545.27 224.72 551.01V574.85C224.72 574.85 224.06 578.87 228.2 578.87C232.34 578.87 231.68 574.85 231.68 574.85V551.01C233.29 545.27 234.01 537.47 234.29 533.5C234.38 532.22 235.67 531.39 236.88 531.83L301.27 555.42C302.28 555.79 302.95 556.74 302.94 557.82C302.91 560.72 302.81 567.02 302.45 575.61C307.41 588.66 311.99 575.61 311.99 575.61C311.99 575.61 311.49 539.97 311.99 528.93C307.71 520.8 304.53 526.53 303.68 528.4C303.56 528.67 303.23 528.75 302.99 528.57C298.03 524.74 254.65 491.32 244.85 484.46C243.88 483.78 243.46 482.57 243.8 481.44C247.4 469.26 266.56 402.71 266.56 367.69V301.93C266.56 300.83 267.46 299.93 268.56 299.93H320.08C320.08 299.93 319.33 300.12 323.84 302.38C328.55 331.55 333.63 305.58 333.63 305.58C333.63 305.58 345.11 309.72 352.26 311.6C353.84 335.79 359.04 314.8 359.04 314.8C359.04 314.8 367.32 318.56 372.22 320.64C376.06 341.44 380.31 322.9 380.31 322.9C380.31 322.9 393.67 327.98 398.57 329.68C401.16 350.48 407.6 332.69 407.6 332.69L450.36 351.2C451.32 351.62 452.39 350.91 452.39 349.86V322.6C452.39 320.69 451.39 318.91 449.74 317.93L314.05 236.7V234.44H316.68V225.6C316.68 224.78 317.29 224.13 318.09 223.97C321.18 223.36 320.44 220.71 320.44 220.71L321.22 210.58C321.63 205.32 321.62 200.03 321.21 194.77L320.44 185.07C320.44 181.26 317.35 178.18 313.55 178.18H297.79C293.98 178.18 290.9 181.27 290.9 185.07L290.68 187.28C289.75 196.81 289.71 206.4 290.56 215.94L290.9 219.77C290.9 222.03 293.03 222.15 293.03 222.15V226.67L269.09 211.76C267.44 210.73 266.43 208.92 266.43 206.98V132.63C266.43 116.38 264.29 100.21 260.06 84.52C256.64 71.84 248.46 46.39 248.01 44.67C238.9 1.75004 228.2 4.30004 228.2 4.30004C228.2 4.30004 217.5 1.75004 208.38 44.64C207.93 46.36 199.75 71.81 196.33 84.49C192.1 100.18 189.96 116.35 189.96 132.6V206.95C189.96 208.9 188.96 210.71 187.3 211.73L163.36 226.64V222.12C163.36 222.12 165.49 221.99 165.49 219.74L165.83 215.91C166.68 206.37 166.64 196.78 165.71 187.25L165.49 185.04C165.49 181.23 162.4 178.15 158.6 178.15H142.84C139.03 178.15 135.95 181.24 135.95 185.04L135.18 194.74C134.76 200 134.76 205.29 135.17 210.55L135.95 220.68C135.95 220.68 135.21 223.33 138.3 223.94C139.1 224.1 139.71 224.76 139.71 225.57V234.41H142.35V236.67L6.65 317.92C5.01 318.9 4 320.68 4 322.59V349.85C4 350.9 5.07 351.6 6.03 351.19L48.79 332.68C48.79 332.68 55.24 350.47 57.82 329.67C62.71 327.98 76.08 322.89 76.08 322.89C76.08 322.89 80.33 341.43 84.17 320.63C89.06 318.56 97.35 314.79 97.35 314.79C97.35 314.79 102.54 335.78 104.13 311.59C111.28 309.71 122.76 305.57 122.76 305.57C122.76 305.57 127.84 331.54 132.55 302.37C137.07 300.11 136.31 299.92 136.31 299.92H187.83C188.93 299.92 189.83 300.82 189.83 301.92V367.68C189.83 402.7 209 469.26 212.59 481.43C212.93 482.57 212.51 483.77 211.54 484.45C201.75 491.3 158.37 524.73 153.4 528.56C153.17 528.74 152.83 528.65 152.71 528.39C151.86 526.52 148.68 520.79 144.4 528.92C144.9 539.96 144.4 575.6 144.4 575.6C144.4 575.6 148.98 588.65 153.94 575.6L153.95 575.61Z" fill="white"/>
<path d="M228.55 4.27002C230.46 4.27002 239.87 6.30002 248.02 44.64C248.47 46.36 256.65 71.81 260.07 84.49C264.3 100.18 266.44 116.35 266.44 132.6V206.95C266.44 208.9 267.44 210.71 269.1 211.73L293.04 226.64V222.12C293.04 222.12 290.91 221.99 290.91 219.74L290.57 215.91C289.72 206.37 289.76 196.78 290.69 187.25L290.91 185.04C290.91 181.23 294 178.15 297.8 178.15H313.56C317.37 178.15 320.45 181.24 320.45 185.04L321.22 194.74C321.64 200 321.64 205.29 321.23 210.55L320.45 220.68C320.45 220.68 321.19 223.33 318.1 223.94C317.3 224.1 316.69 224.76 316.69 225.57V234.41H314.05V236.67L449.74 317.9C451.38 318.88 452.39 320.66 452.39 322.57V349.83C452.39 350.67 451.7 351.29 450.94 351.29C450.75 351.29 450.55 351.25 450.36 351.17L407.6 332.66C407.6 332.66 405.03 339.74 402.49 339.74C401 339.74 399.52 337.32 398.57 329.65C393.68 327.96 380.31 322.87 380.31 322.87C380.31 322.87 378.57 330.48 376.3 330.48C375.03 330.48 373.6 328.09 372.22 320.61C367.33 318.54 359.04 314.77 359.04 314.77C359.04 314.77 356.95 323.22 355.02 323.22C353.91 323.22 352.85 320.41 352.27 311.57C345.12 309.69 333.64 305.55 333.64 305.55C333.64 305.55 331.56 316.2 328.82 316.2C327.28 316.2 325.54 312.84 323.85 302.35C319.33 300.09 320.09 299.9 320.09 299.9H268.57C267.47 299.9 266.57 300.8 266.57 301.9V367.66C266.57 402.68 247.4 469.24 243.81 481.41C243.47 482.55 243.89 483.75 244.86 484.43C254.65 491.28 298.03 524.71 303 528.54C303.08 528.6 303.18 528.63 303.27 528.63C303.44 528.63 303.61 528.53 303.68 528.36C304.2 527.22 305.58 524.65 307.55 524.65C308.81 524.65 310.32 525.71 311.99 528.89C311.49 539.93 311.99 575.57 311.99 575.57C311.99 575.57 309.95 581.37 307.13 581.37C305.72 581.37 304.11 579.92 302.45 575.57C302.81 566.97 302.91 560.68 302.94 557.78C302.95 556.7 302.28 555.75 301.27 555.38L236.88 531.79C236.66 531.71 236.43 531.67 236.21 531.67C235.24 531.67 234.36 532.41 234.29 533.46C234.01 537.44 233.3 545.23 231.68 550.97V574.81C231.68 574.81 232.34 578.83 228.2 578.83C224.06 578.83 224.72 574.81 224.72 574.81V550.97C223.11 545.23 222.39 537.43 222.11 533.46C222.04 532.41 221.17 531.67 220.19 531.67C219.97 531.67 219.74 531.71 219.52 531.79L155.13 555.38C154.12 555.75 153.45 556.7 153.46 557.78C153.49 560.68 153.59 566.98 153.95 575.57C152.3 579.92 150.69 581.37 149.27 581.37C146.44 581.37 144.41 575.57 144.41 575.57C144.41 575.57 144.91 539.93 144.41 528.89C146.08 525.71 147.59 524.65 148.85 524.65C150.82 524.65 152.2 527.22 152.72 528.36C152.8 528.53 152.96 528.63 153.13 528.63C153.22 528.63 153.32 528.6 153.4 528.54C158.36 524.71 201.74 491.29 211.54 484.43C212.51 483.75 212.93 482.54 212.59 481.41C208.99 469.23 189.83 402.68 189.83 367.66V301.9C189.83 300.8 188.93 299.9 187.83 299.9H136.31C136.31 299.9 137.06 300.09 132.55 302.35C130.86 312.84 129.12 316.2 127.58 316.2C124.85 316.2 122.76 305.55 122.76 305.55C122.76 305.55 111.28 309.69 104.13 311.57C103.55 320.41 102.49 323.22 101.38 323.22C99.45 323.22 97.36 314.77 97.36 314.77C97.36 314.77 89.08 318.53 84.18 320.61C82.8 328.08 81.37 330.48 80.1 330.48C77.84 330.48 76.09 322.87 76.09 322.87C76.09 322.87 62.73 327.95 57.83 329.65C56.88 337.32 55.4 339.74 53.91 339.74C51.37 339.74 48.8 332.66 48.8 332.66L6.04 351.17C5.85 351.25 5.65 351.29 5.46 351.29C4.69 351.29 4.01 350.67 4.01 349.83V322.57C4.01 320.66 5.01 318.88 6.66 317.9L142.35 236.67V234.41H139.71V225.57C139.71 224.75 139.1 224.1 138.3 223.94C135.21 223.33 135.95 220.68 135.95 220.68L135.17 210.55C134.76 205.29 134.77 200 135.18 194.74L135.95 185.04C135.95 181.23 139.04 178.15 142.84 178.15H158.6C162.41 178.15 165.49 181.24 165.49 185.04L165.71 187.25C166.64 196.78 166.68 206.37 165.83 215.91L165.49 219.74C165.49 222 163.36 222.12 163.36 222.12V226.64L187.3 211.73C188.95 210.7 189.96 208.89 189.96 206.95V132.6C189.96 116.35 192.1 100.18 196.33 84.49C199.75 71.81 207.93 46.36 208.38 44.64C216.53 6.30002 225.95 4.27002 227.85 4.27002C228.08 4.27002 228.2 4.30002 228.2 4.30002C228.2 4.30002 228.32 4.27002 228.55 4.27002ZM228.55 0.27002C228.43 0.27002 228.31 0.27002 228.2 0.27002C228.09 0.27002 227.98 0.27002 227.85 0.27002C225.78 0.27002 221.63 1.25002 217.15 7.83002C212.3 14.94 208.04 27.01 204.49 43.69C204.32 44.3 203.49 46.93 202.62 49.72C199.94 58.3 194.94 74.26 192.47 83.45C188.15 99.47 185.96 116.01 185.96 132.6V206.95C185.96 207.52 185.67 208.04 185.19 208.34L169.66 218.01L169.81 216.27C170.68 206.51 170.64 196.62 169.68 186.86L169.48 184.82C169.36 178.91 164.52 174.14 158.59 174.14H142.83C136.88 174.14 132.03 178.93 131.94 184.86L131.18 194.42C130.75 199.87 130.74 205.4 131.16 210.85L131.91 220.49C131.76 221.76 131.93 223.36 132.81 224.79C133.32 225.62 134.2 226.62 135.7 227.3V234.42C135.7 234.92 135.79 235.39 135.96 235.83L4.59 314.49C1.76 316.19 0 319.29 0 322.59V349.85C0 352.86 2.45 355.31 5.45 355.31C6.2 355.31 6.93 355.16 7.62 354.86L46.73 337.93C48.4 341.08 50.75 343.76 53.9 343.76C59.1 343.76 60.74 337.31 61.46 332.62C64.98 331.35 69.99 329.47 73.48 328.15C75.1 332.37 77.31 334.5 80.09 334.5C84.68 334.5 86.52 329.13 87.7 323.47C90.03 322.46 92.68 321.28 94.82 320.32C96.98 326.31 99.31 327.24 101.37 327.24C106.07 327.24 107.3 321.78 107.91 314.69C111.98 313.5 116.63 311.95 119.9 310.82C122.61 320.23 126.27 320.23 127.58 320.23C132.39 320.23 134.47 314.69 136.16 305.02C136.82 304.67 137.43 304.31 137.97 303.93H185.83V367.69C185.83 402.42 204.15 466.91 208.5 481.71C198.75 488.65 165.94 513.87 153.98 523.07C152.5 521.51 150.75 520.68 148.85 520.68C144.22 520.68 141.7 525.48 140.87 527.06C140.54 527.69 140.38 528.39 140.41 529.1C140.9 539.9 140.41 575.18 140.41 575.54C140.41 576.01 140.48 576.48 140.64 576.92C141.34 578.91 144.02 585.4 149.28 585.4C154.54 585.4 156.91 579.09 157.69 577.02C157.88 576.51 157.97 575.97 157.95 575.43C157.63 567.83 157.52 562.05 157.48 558.81L218.35 536.51C218.73 540.78 219.44 546.71 220.73 551.54V574.61C220.63 575.69 220.61 578.27 222.4 580.39C223.36 581.52 225.14 582.86 228.21 582.86C231.28 582.86 233.06 581.52 234.02 580.39C235.81 578.28 235.8 575.7 235.69 574.61V551.54C236.98 546.71 237.69 540.78 238.07 536.51L298.94 558.81C298.9 562.06 298.78 567.84 298.47 575.43C298.45 575.97 298.53 576.51 298.73 577.02C299.52 579.09 301.91 585.4 307.14 585.4C312.37 585.4 315.08 578.91 315.78 576.92C315.94 576.48 316.01 576.01 316.01 575.54C316.01 575.18 315.52 539.9 316.01 529.1C316.04 528.39 315.88 527.68 315.55 527.06C314.72 525.48 312.19 520.68 307.57 520.68C305.66 520.68 303.92 521.51 302.44 523.07C291.47 514.63 257.75 488.71 247.92 481.71C252.27 466.9 270.59 402.41 270.59 367.69V303.93H318.45C318.99 304.31 319.61 304.67 320.26 305.02C321.95 314.69 324.03 320.23 328.84 320.23C330.15 320.23 333.81 320.23 336.52 310.82C339.8 311.95 344.44 313.51 348.51 314.69C349.11 321.78 350.35 327.24 355.05 327.24C357.11 327.24 359.44 326.31 361.6 320.32C363.75 321.28 366.4 322.46 368.73 323.47C369.91 329.13 371.75 334.5 376.34 334.5C379.12 334.5 381.34 332.37 382.95 328.15C386.43 329.46 391.44 331.34 394.97 332.62C395.69 337.31 397.33 343.76 402.53 343.76C405.68 343.76 408.03 341.08 409.7 337.93L448.81 354.86C449.5 355.16 450.23 355.31 450.98 355.31C453.99 355.31 456.43 352.86 456.43 349.85V322.59C456.43 319.29 454.67 316.19 451.84 314.49L320.47 235.85C320.64 235.41 320.73 234.93 320.73 234.44V227.32C322.23 226.64 323.11 225.64 323.62 224.81C324.5 223.38 324.68 221.78 324.52 220.51L325.27 210.87C325.69 205.42 325.69 199.89 325.25 194.44L324.49 184.88C324.4 178.95 319.55 174.16 313.6 174.16H297.84C291.91 174.16 287.06 178.93 286.95 184.84L286.75 186.88C285.8 196.63 285.75 206.53 286.62 216.29L286.77 218.03L271.24 208.36C270.76 208.06 270.47 207.54 270.47 206.97V132.62C270.47 116.02 268.28 99.48 263.96 83.47C261.48 74.29 256.49 58.33 253.81 49.75C252.94 46.96 252.11 44.32 251.94 43.71C248.38 27.02 244.12 14.96 239.28 7.85002C234.77 1.25002 230.62 0.27002 228.55 0.27002Z" fill="#231F20"/>
</g>
<defs>
<clipPath id="clip0_59_78">
<rect width="456.4" height="585.14" fill="white" transform="translate(0 0.27002)"/>
</clipPath>
</defs>
</svg>
