<svg width="433" height="460" viewBox="0 0 433 460" fill="none" xmlns="http://www.w3.org/2000/svg">
<g clip-path="url(#clip0_59_64)">
<path d="M212.14 423.5C212.14 423.5 214.42 437.22 216.4 437.22C218.38 437.22 220.66 423.5 220.66 423.5C220.66 423.5 295.27 450.59 311.47 455.67C311.97 455.83 312.49 455.44 312.48 454.92C312 440.12 301.72 430.63 301.72 430.63C301.72 430.63 231.44 379.41 229.28 377.92C238.57 354.97 243.56 309.66 244.85 296.53C245.08 294.2 245.19 291.86 245.19 289.52V236.69C249.67 236.69 256.79 226.16 256.79 226.16V214.31L261.2 214.61L261.49 220.11C261.51 220.54 261.87 220.88 262.3 220.88C262.73 220.88 263.06 220.57 263.11 220.17L263.77 214.79L298.07 217.15L298.28 221.11C298.3 221.54 298.66 221.88 299.09 221.88C299.52 221.88 299.85 221.57 299.9 221.17L300.38 217.31L326 219.07L326.21 223.1C326.23 223.53 326.59 223.87 327.02 223.87C327.45 223.87 327.78 223.56 327.83 223.16L328.31 219.24L356.94 221.21L357.2 226.17C357.22 226.6 357.58 226.94 358.01 226.94C358.44 226.94 358.77 226.63 358.82 226.23L359.42 221.38L427.14 226.08C427.81 226.13 428.37 225.6 428.37 224.93V203.81C428.37 201.5 426.89 199.45 424.7 198.72L351.52 174.5V165.97C353.01 165.97 352.6 162.16 352.6 162.16V151.39C352.6 145.75 349.53 141.36 349.53 141.36V140.43H362.39C363.24 140.43 364.07 140.69 364.77 141.18C365.96 142.01 367.85 143.2 368.54 142.96C368.6 142.94 368.63 142.88 368.63 142.82C368.59 140.55 367.15 138.76 365.48 137.44C363.1 135.56 360.12 134.63 357.09 134.63H349.53V129.67C349.53 129.67 348.78 124.78 344.39 124.78C340 124.78 339.91 129.34 339.91 129.34V134.95L339.66 134.63H331.07C328.04 134.63 322.73 135.56 320.36 137.44C318.69 138.76 317.25 140.55 317.21 142.82C317.21 142.88 317.24 142.94 317.3 142.96C318 143.2 319.88 142.01 321.07 141.18C321.77 140.69 322.6 140.43 323.46 140.43H339.92V141.27H338.01C336.97 141.27 336.25 143.45 335.78 145.62C335.31 147.8 335.11 150.03 335.11 152.26V163.23H336.19V169.42L292.68 155.02V148.39C294.17 148.39 293.76 144.58 293.76 144.58V133.81C293.76 128.17 290.69 123.78 290.69 123.78V123.18H304.58C305.43 123.18 306.26 123.44 306.96 123.93C308.15 124.76 310.04 125.95 310.73 125.71C310.79 125.69 310.82 125.63 310.82 125.57C310.78 123.3 309.34 121.51 307.67 120.19C305.29 118.31 302.31 117.38 299.28 117.38H290.69V112.09C290.69 112.09 289.94 107.2 285.55 107.2C281.16 107.2 281.07 111.76 281.07 111.76V117.38H273.25C270.22 117.38 264.91 118.31 262.54 120.19C260.87 121.51 259.43 123.3 259.39 125.57C259.39 125.63 259.42 125.69 259.48 125.71C260.18 125.95 262.06 124.76 263.25 123.93C263.95 123.44 264.78 123.18 265.64 123.18H281.07V123.69H279.16C278.12 123.69 277.4 125.87 276.93 128.04C276.46 130.22 276.26 132.45 276.26 134.68V145.65H277.34V149.63L254.3 142.01C249.34 125.98 245.35 124.36 245.35 124.36V72.15C243.15 32.37 222.84 3.85999 216.4 4.26999C209.96 3.85999 189.65 32.37 187.41 72.15V124.36C187.41 124.36 183.42 125.98 178.46 142.01L155.42 149.63V145.65H156.5V134.68C156.5 132.45 156.29 130.22 155.83 128.04C155.36 125.86 154.64 123.69 153.6 123.69H151.69V123.18H167.12C167.97 123.18 168.8 123.44 169.51 123.93C170.7 124.76 172.59 125.95 173.28 125.71C173.34 125.69 173.37 125.63 173.37 125.57C173.33 123.3 171.89 121.51 170.22 120.19C167.84 118.31 162.54 117.38 159.51 117.38H151.69V111.76C151.69 111.76 151.61 107.2 147.21 107.2C142.81 107.2 142.07 112.09 142.07 112.09V117.38H133.48C130.45 117.38 127.46 118.31 125.09 120.19C123.42 121.51 121.98 123.3 121.94 125.57C121.94 125.63 121.97 125.69 122.03 125.71C122.73 125.95 124.61 124.76 125.8 123.93C126.5 123.44 127.33 123.18 128.18 123.18H142.07V123.78C142.07 123.78 139 128.17 139 133.81V144.58C139 144.58 138.59 148.39 140.08 148.39V155.02L96.57 169.42V163.23H97.65V152.26C97.65 150.03 97.44 147.8 96.98 145.62C96.51 143.44 95.79 141.27 94.75 141.27H92.84V140.43H109.3C110.15 140.43 110.98 140.69 111.69 141.18C112.88 142.01 114.77 143.2 115.46 142.96C115.52 142.94 115.55 142.88 115.55 142.82C115.51 140.55 114.07 138.76 112.4 137.44C110.02 135.56 104.72 134.63 101.69 134.63H93.1L92.85 134.95V129.34C92.85 129.34 92.77 124.78 88.37 124.78C83.97 124.78 83.23 129.67 83.23 129.67V134.63H75.67C72.64 134.63 69.65 135.56 67.28 137.44C65.61 138.76 64.17 140.55 64.13 142.82C64.13 142.88 64.16 142.94 64.22 142.96C64.92 143.2 66.8 142.01 67.99 141.18C68.69 140.69 69.52 140.43 70.37 140.43H83.23V141.36C83.23 141.36 80.16 145.75 80.16 151.39V162.16C80.16 162.16 79.75 165.97 81.24 165.97V174.5L8.07002 198.72C5.88002 199.45 4.40002 201.5 4.40002 203.81V224.93C4.40002 225.6 4.97002 226.13 5.63002 226.08L73.35 221.38L73.95 226.23C74 226.64 74.35 226.94 74.76 226.94C75.19 226.94 75.55 226.6 75.57 226.17L75.83 221.21L104.46 219.24L104.94 223.16C104.99 223.57 105.34 223.87 105.75 223.87C106.18 223.87 106.54 223.53 106.56 223.1L106.77 219.07L132.39 217.31L132.87 221.17C132.92 221.58 133.27 221.88 133.68 221.88C134.11 221.88 134.47 221.54 134.49 221.11L134.7 217.15L169 214.79L169.66 220.17C169.71 220.58 170.06 220.88 170.47 220.88C170.9 220.88 171.26 220.54 171.28 220.11L171.57 214.61L175.98 214.31V226.16C175.98 226.16 183.11 236.69 187.58 236.69V289.52C187.58 291.86 187.69 294.2 187.92 296.53C189.21 309.66 194.2 354.97 203.49 377.92C201.34 379.41 131.05 430.63 131.05 430.63C131.05 430.63 120.77 440.12 120.29 454.92C120.27 455.45 120.79 455.83 121.3 455.67C137.5 450.58 212.11 423.5 212.11 423.5H212.14Z" fill="white"/>
<path d="M216.54 4.27002C223.13 4.27002 243.16 32.66 245.39 72.15V124.36C245.39 124.36 249.38 125.98 254.34 142.01L277.38 149.63V145.65H276.3V134.68C276.3 132.45 276.51 130.22 276.97 128.04C277.44 125.86 278.16 123.69 279.2 123.69H281.11V123.18H265.68C264.83 123.18 264 123.44 263.29 123.93C262.21 124.69 260.54 125.74 259.73 125.74C259.65 125.74 259.58 125.73 259.52 125.71C259.46 125.69 259.43 125.63 259.43 125.57C259.47 123.3 260.91 121.51 262.58 120.19C264.96 118.31 270.26 117.38 273.29 117.38H281.11V111.76C281.11 111.76 281.19 107.2 285.59 107.2C289.99 107.2 290.73 112.09 290.73 112.09V117.38H299.32C302.35 117.38 305.34 118.31 307.71 120.19C309.38 121.51 310.82 123.3 310.86 125.57C310.86 125.63 310.83 125.69 310.77 125.71C310.71 125.73 310.64 125.74 310.56 125.74C309.75 125.74 308.08 124.68 307 123.93C306.3 123.44 305.47 123.18 304.62 123.18H290.73V123.78C290.73 123.78 293.8 128.17 293.8 133.81V144.58C293.8 144.58 294.21 148.39 292.72 148.39V155.02L336.23 169.42V163.23H335.15V152.26C335.15 150.03 335.36 147.8 335.82 145.62C336.29 143.44 337.01 141.27 338.05 141.27H339.96V140.43H323.5C322.65 140.43 321.82 140.69 321.11 141.18C320.03 141.94 318.36 142.99 317.55 142.99C317.47 142.99 317.4 142.98 317.34 142.96C317.28 142.94 317.25 142.88 317.25 142.82C317.29 140.55 318.73 138.76 320.4 137.44C322.78 135.56 328.08 134.63 331.11 134.63H339.7L339.95 134.95V129.34C339.95 129.34 340.03 124.78 344.43 124.78C348.83 124.78 349.57 129.67 349.57 129.67V134.63H357.13C360.16 134.63 363.15 135.56 365.52 137.44C367.19 138.76 368.63 140.55 368.67 142.82C368.67 142.88 368.64 142.94 368.58 142.96C368.52 142.98 368.45 142.99 368.37 142.99C367.56 142.99 365.89 141.93 364.81 141.18C364.11 140.69 363.28 140.43 362.43 140.43H349.57V141.36C349.57 141.36 352.64 145.75 352.64 151.39V162.16C352.64 162.16 353.05 165.97 351.56 165.97V174.5L424.73 198.72C426.92 199.45 428.4 201.5 428.4 203.81V224.93C428.4 225.57 427.88 226.08 427.25 226.08C427.22 226.08 427.2 226.08 427.17 226.08L359.45 221.38L358.85 226.23C358.8 226.64 358.45 226.94 358.04 226.94C357.61 226.94 357.25 226.6 357.23 226.17L356.97 221.21L328.34 219.24L327.86 223.16C327.81 223.57 327.46 223.87 327.05 223.87C326.62 223.87 326.26 223.53 326.24 223.1L326.03 219.07L300.41 217.31L299.93 221.17C299.88 221.58 299.53 221.88 299.12 221.88C298.69 221.88 298.33 221.54 298.31 221.11L298.1 217.15L263.8 214.79L263.14 220.17C263.09 220.58 262.74 220.88 262.33 220.88C261.9 220.88 261.54 220.54 261.52 220.11L261.23 214.61L256.82 214.31V226.16C256.82 226.16 249.69 236.69 245.22 236.69V289.52C245.22 291.86 245.11 294.2 244.88 296.53C243.59 309.66 238.6 354.97 229.31 377.92C231.46 379.41 301.75 430.63 301.75 430.63C301.75 430.63 312.03 440.12 312.51 454.92C312.52 455.37 312.16 455.71 311.74 455.71C311.66 455.71 311.59 455.7 311.51 455.67C295.31 450.58 220.7 423.5 220.7 423.5C220.7 423.5 218.42 437.22 216.44 437.22C214.46 437.22 212.18 423.5 212.18 423.5C212.18 423.5 137.57 450.59 121.37 455.67C121.29 455.69 121.21 455.71 121.14 455.71C120.72 455.71 120.35 455.37 120.37 454.92C120.85 440.12 131.13 430.63 131.13 430.63C131.13 430.63 201.41 379.41 203.57 377.92C194.28 354.97 189.29 309.66 188 296.53C187.77 294.2 187.66 291.86 187.66 289.52V236.69C183.18 236.69 176.06 226.16 176.06 226.16V214.31L171.65 214.61L171.36 220.11C171.34 220.54 170.98 220.88 170.55 220.88C170.12 220.88 169.79 220.57 169.74 220.17L169.08 214.79L134.78 217.15L134.57 221.11C134.55 221.54 134.19 221.88 133.76 221.88C133.33 221.88 133 221.57 132.95 221.17L132.47 217.31L106.85 219.07L106.64 223.1C106.62 223.53 106.26 223.87 105.83 223.87C105.4 223.87 105.07 223.56 105.02 223.16L104.54 219.24L75.91 221.21L75.65 226.17C75.63 226.6 75.27 226.94 74.84 226.94C74.41 226.94 74.08 226.63 74.03 226.23L73.43 221.38L5.71002 226.08C5.71002 226.08 5.66002 226.08 5.63002 226.08C5.00002 226.08 4.48002 225.57 4.48002 224.93V203.81C4.48002 201.5 5.96002 199.45 8.15002 198.72L81.33 174.5V165.97C79.84 165.97 80.25 162.16 80.25 162.16V151.39C80.25 145.75 83.32 141.36 83.32 141.36V140.43H70.46C69.61 140.43 68.78 140.69 68.08 141.18C67 141.94 65.33 142.99 64.52 142.99C64.44 142.99 64.37 142.98 64.31 142.96C64.25 142.94 64.22 142.88 64.22 142.82C64.26 140.55 65.7 138.76 67.37 137.44C69.75 135.56 72.73 134.63 75.76 134.63H83.32V129.67C83.32 129.67 84.07 124.78 88.46 124.78C92.85 124.78 92.94 129.34 92.94 129.34V134.95L93.19 134.63H101.78C104.81 134.63 110.12 135.56 112.49 137.44C114.16 138.76 115.6 140.55 115.64 142.82C115.64 142.88 115.61 142.94 115.55 142.96C115.49 142.98 115.42 142.99 115.34 142.99C114.52 142.99 112.86 141.93 111.78 141.18C111.08 140.69 110.25 140.43 109.39 140.43H92.93V141.27H94.84C95.88 141.27 96.6 143.45 97.07 145.62C97.54 147.8 97.74 150.03 97.74 152.26V163.23H96.66V169.42L140.17 155.02V148.39C138.68 148.39 139.09 144.58 139.09 144.58V133.81C139.09 128.17 142.16 123.78 142.16 123.78V123.18H128.27C127.42 123.18 126.59 123.44 125.88 123.93C124.8 124.69 123.13 125.74 122.32 125.74C122.24 125.74 122.17 125.73 122.11 125.71C122.05 125.69 122.02 125.63 122.02 125.57C122.06 123.3 123.5 121.51 125.17 120.19C127.54 118.31 130.53 117.38 133.56 117.38H142.15V112.09C142.15 112.09 142.9 107.2 147.29 107.2C151.68 107.2 151.77 111.76 151.77 111.76V117.38H159.59C162.62 117.38 167.93 118.31 170.3 120.19C171.97 121.51 173.41 123.3 173.45 125.57C173.45 125.63 173.42 125.69 173.36 125.71C173.3 125.73 173.23 125.74 173.15 125.74C172.34 125.74 170.67 124.68 169.59 123.93C168.89 123.44 168.06 123.18 167.2 123.18H151.77V123.69H153.68C154.72 123.69 155.44 125.87 155.91 128.04C156.38 130.22 156.58 132.45 156.58 134.68V145.65H155.5V149.63L178.54 142.01C183.5 125.98 187.49 124.36 187.49 124.36V72.15C189.71 32.65 209.74 4.27002 216.34 4.27002C216.39 4.27002 216.43 4.27002 216.48 4.27002C216.53 4.27002 216.57 4.27002 216.62 4.27002M216.26 0.27002C209.77 0.27002 201.87 11.28 196.63 21.59C192.27 30.18 184.76 48.13 183.42 71.93C183.42 72 183.42 72.08 183.42 72.15V122.49C181.26 124.74 178.39 129.37 175.28 138.86L160.51 143.75V134.69C160.51 132.09 160.25 129.57 159.75 127.21C159.75 127.21 159.75 127.19 159.75 127.18H167.14C167.14 127.18 167.21 127.19 167.24 127.21C169.82 129.01 171.51 129.74 173.09 129.74C173.62 129.74 174.13 129.66 174.61 129.49C176.3 128.9 177.42 127.3 177.39 125.5C177.35 123.3 176.51 120.04 172.72 117.05C169.32 114.36 162.96 113.38 159.53 113.38H155.71V111.76C155.71 111.76 155.71 111.71 155.71 111.69C155.65 108.28 153.34 103.2 147.24 103.2C141.86 103.2 138.76 107.5 138.15 111.49C138.12 111.69 138.1 111.89 138.1 112.09V113.38H133.51C129.49 113.38 125.63 114.68 122.64 117.05C118.86 120.04 118.01 123.3 117.97 125.5C117.94 127.3 119.06 128.91 120.75 129.49C121.23 129.66 121.74 129.74 122.27 129.74C123.84 129.74 125.54 129.01 128.12 127.21C128.15 127.19 128.18 127.18 128.22 127.18H136.12C135.51 129.07 135.05 131.32 135.05 133.8V144.37C134.88 146.17 134.97 148.5 136.13 150.22V152.12L101.69 163.52C101.69 163.42 101.7 163.32 101.7 163.22V152.25C101.7 149.65 101.44 147.13 100.94 144.77C100.92 144.66 100.89 144.54 100.86 144.41H109.36C109.36 144.41 109.43 144.42 109.46 144.44C112.04 146.24 113.73 146.97 115.31 146.97C115.84 146.97 116.35 146.89 116.83 146.72C118.52 146.13 119.64 144.53 119.61 142.73C119.57 140.53 118.73 137.27 114.94 134.28C111.54 131.59 105.18 130.61 101.75 130.61H96.9V129.32C96.9 129.32 96.9 129.27 96.9 129.25C96.84 125.84 94.53 120.76 88.43 120.76C83.05 120.76 79.95 125.06 79.34 129.05C79.31 129.25 79.29 129.45 79.29 129.65V130.61H75.73C71.71 130.61 67.85 131.91 64.86 134.28C61.08 137.27 60.23 140.53 60.19 142.73C60.16 144.53 61.27 146.14 62.97 146.72C63.45 146.89 63.96 146.97 64.49 146.97C66.06 146.97 67.76 146.24 70.34 144.44C70.37 144.42 70.4 144.41 70.44 144.41H77.41C76.75 146.36 76.23 148.74 76.23 151.37V161.94C76.06 163.74 76.15 166.07 77.31 167.79V171.59L6.82002 194.92C2.98002 196.19 0.400024 199.76 0.400024 203.8V224.92C0.400024 227.76 2.71002 230.07 5.55002 230.07C5.67002 230.07 5.79002 230.07 5.91002 230.06L69.84 225.62L69.97 226.7C70.27 229.11 72.32 230.92 74.75 230.92C77.31 230.92 79.42 228.92 79.56 226.36L79.64 224.93L100.96 223.46L100.98 223.62C101.28 226.03 103.33 227.84 105.76 227.84C108.32 227.84 110.43 225.84 110.57 223.28L110.6 222.79L128.91 221.53V221.63C129.22 224.04 131.27 225.85 133.7 225.85C136.26 225.85 138.37 223.85 138.51 221.29L138.53 220.87L165.52 219.01L165.72 220.63C166.02 223.04 168.07 224.85 170.5 224.85C171.03 224.85 171.54 224.76 172.02 224.61V226.13C172.02 226.93 172.26 227.71 172.71 228.37C174.65 231.24 178.99 237.07 183.63 239.53V289.49C183.63 291.96 183.75 294.45 183.99 296.89C185.26 309.78 189.96 352.35 198.71 376.44C186.02 385.63 131.33 425.48 128.75 427.36C128.63 427.45 128.51 427.55 128.39 427.65C127.92 428.08 116.88 438.46 116.35 454.75C116.31 456.03 116.8 457.29 117.69 458.21C118.59 459.14 119.84 459.67 121.12 459.67C121.61 459.67 122.09 459.6 122.55 459.45C136.55 455.05 192.72 434.76 209.11 428.82C209.27 429.6 209.46 430.42 209.65 431.25C210.95 436.68 212.35 441.18 216.42 441.18C220.49 441.18 221.89 436.68 223.19 431.25C223.39 430.42 223.57 429.6 223.73 428.82C240.12 434.76 296.29 455.05 310.29 459.45C310.75 459.6 311.24 459.67 311.72 459.67C313.01 459.67 314.26 459.14 315.15 458.21C316.04 457.29 316.53 456.03 316.49 454.75C315.96 438.46 304.92 428.08 304.45 427.65C304.34 427.55 304.22 427.45 304.09 427.36C301.51 425.48 246.82 385.62 234.13 376.44C242.88 352.35 247.58 309.78 248.85 296.89C249.09 294.45 249.21 291.96 249.21 289.49V239.53C253.84 237.08 258.18 231.25 260.13 228.37C260.58 227.71 260.82 226.93 260.82 226.13V224.61C261.3 224.77 261.81 224.85 262.34 224.85C264.77 224.85 266.82 223.03 267.12 220.63L267.32 219.01L294.31 220.87L294.33 221.29C294.47 223.85 296.58 225.85 299.14 225.85C301.57 225.85 303.62 224.03 303.92 221.63V221.53L322.24 222.79L322.27 223.28C322.4 225.84 324.52 227.84 327.08 227.84C329.51 227.84 331.56 226.02 331.86 223.62L331.88 223.46L353.2 224.93L353.28 226.36C353.42 228.92 355.53 230.92 358.09 230.92C360.52 230.92 362.57 229.1 362.87 226.7L363 225.61L426.94 230.05C427.06 230.05 427.18 230.06 427.3 230.06C430.14 230.06 432.45 227.75 432.45 224.91V203.79C432.45 199.75 429.87 196.18 426.03 194.91L355.6 171.6V167.8C356.76 166.08 356.85 163.75 356.68 161.95V151.38C356.68 148.75 356.16 146.38 355.5 144.42H362.47C362.47 144.42 362.54 144.43 362.57 144.45C365.15 146.25 366.84 146.98 368.42 146.98C368.95 146.98 369.46 146.9 369.94 146.73C371.64 146.14 372.75 144.54 372.72 142.73C372.68 140.54 371.84 137.28 368.05 134.29C365.06 131.92 361.2 130.62 357.18 130.62H353.62V129.66C353.62 129.46 353.6 129.26 353.57 129.06C352.96 125.07 349.86 120.77 344.48 120.77C338.38 120.77 336.07 125.84 336.01 129.26C336.01 129.28 336.01 129.31 336.01 129.33V130.62H331.16C327.72 130.62 321.37 131.6 317.97 134.29C314.19 137.28 313.34 140.54 313.3 142.74C313.27 144.54 314.38 146.15 316.08 146.73C316.56 146.9 317.08 146.98 317.6 146.98C319.17 146.98 320.87 146.25 323.45 144.45C323.48 144.43 323.51 144.42 323.55 144.42H332.05C332.02 144.55 332 144.67 331.97 144.78C331.46 147.14 331.21 149.66 331.21 152.26V163.23C331.21 163.33 331.21 163.43 331.22 163.53L296.78 152.13V150.23C297.94 148.51 298.03 146.18 297.86 144.38V133.81C297.86 131.33 297.39 129.07 296.79 127.19H304.69C304.69 127.19 304.76 127.2 304.79 127.22C307.37 129.02 309.06 129.75 310.64 129.75C311.17 129.75 311.68 129.67 312.16 129.5C313.85 128.92 314.97 127.31 314.94 125.51C314.9 123.31 314.06 120.05 310.27 117.06C307.28 114.69 303.42 113.39 299.4 113.39H294.81V112.1C294.81 111.9 294.79 111.7 294.76 111.5C294.15 107.51 291.05 103.21 285.67 103.21C279.57 103.21 277.26 108.28 277.2 111.7C277.2 111.72 277.2 111.75 277.2 111.77V113.39H273.38C269.94 113.39 263.59 114.37 260.19 117.06C256.41 120.05 255.56 123.31 255.52 125.51C255.49 127.31 256.6 128.92 258.3 129.5C258.78 129.67 259.29 129.75 259.82 129.75C261.39 129.75 263.09 129.02 265.67 127.22C265.7 127.2 265.73 127.19 265.77 127.19H273.16C273.16 127.19 273.16 127.21 273.16 127.22C272.65 129.58 272.4 132.1 272.4 134.7V143.76L257.63 138.87C254.52 129.38 251.65 124.75 249.49 122.5V72.16C249.49 72.09 249.49 72.01 249.49 71.94C248.15 48.14 240.64 30.19 236.28 21.6C230.94 11.28 223.03 0.27002 216.54 0.27002C216.54 0.27002 216.45 0.27002 216.4 0.27002C216.35 0.27002 216.31 0.27002 216.26 0.27002Z" fill="#231F20"/>
</g>
<defs>
<clipPath id="clip0_59_64">
<rect width="432" height="459.44" fill="white" transform="translate(0.400024 0.27002)"/>
</clipPath>
</defs>
</svg>
