<svg width="100" height="71" viewBox="0 0 100 71" fill="none" xmlns="http://www.w3.org/2000/svg">
<g clip-path="url(#clip0_724_12)">
<path d="M49.91 69.72C49.41 69.72 49.06 69.4 48.89 69.21C48.85 69.17 48.82 69.13 48.8 69.08C48.8 69.08 48.75 69 48.69 68.91C48.42 69.01 48.17 69.02 48.08 69.02C48.08 69.02 31.7 69 31.29 69C30.43 69 29.91 68.33 29.86 67.7V60.75C29.86 59.21 31.19 58.62 32.09 58.6C32.09 58.6 44.61 58.71 46.53 58.73C46.66 57.87 46.58 57.02 46.58 57.01C46.56 56.89 44.5 42.01 44.03 39.19C43.16 37.42 42.13 37.28 41.83 37.28C41.78 37.28 41.72 37.28 41.67 37.28H24.1C23.86 37.28 23.64 37.23 23.46 37.14C23.39 37.17 23.31 37.19 23.24 37.2C23.18 37.2 23.13 37.21 23.07 37.21H2.46C2.04 37.21 1.65 37.05 1.39 36.76C0.989996 36.33 0.989996 35.81 0.999996 35.66V24.79C0.999996 22.7 2.79 21.89 3.74 21.75C3.79 21.75 3.83 21.75 3.88 21.75L41.46 21.83C41.93 21.56 43.12 20.87 43.61 20.62C43.6 20 43.55 17.94 43.55 16.18C43.55 14.29 44.16 9.84002 44.42 7.94002L44.51 7.31002C44.53 7.16002 44.57 6.99002 44.64 6.82002L41.92 6.76002C40.63 6.76002 40.28 5.96002 40.28 5.49002C40.28 5.02002 40.56 4.61002 41.03 4.40002C41.28 4.29002 41.59 4.23002 41.94 4.23002L47.98 4.07002C48.67 1.89002 49.34 1.02002 50.29 1.02002C51.24 1.02002 51.91 1.89002 52.6 4.07002L58.67 4.23002C59.95 4.23002 60.3 5.03002 60.3 5.50002C60.3 5.97002 59.95 6.77002 58.64 6.77002L55.92 6.83002C55.97 6.98002 56.01 7.12002 56.02 7.27002C56.16 8.32002 56.81 14.01 56.81 16.19C56.81 17.96 56.77 20.02 56.75 20.63C57.23 20.9 58.34 21.63 58.85 21.96C60.37 21.97 94.62 22.22 96.1 22.23C96.15 22.23 96.19 22.23 96.24 22.23C97.19 22.37 98.98 23.18 98.98 25.27V36.2C98.98 36.28 98.98 36.81 98.59 37.23C98.32 37.52 97.94 37.68 97.52 37.68C97.03 37.68 77.97 37.53 77.16 37.52C77.11 37.52 77.05 37.52 77 37.51C76.92 37.5 76.85 37.48 76.77 37.45C76.59 37.54 76.37 37.59 76.13 37.59C75.72 37.59 59.17 37.38 58.46 37.37C58.41 37.37 58.37 37.37 58.33 37.36C58.14 37.36 57.49 37.42 56.81 38.2C56.39 38.68 56.11 39.28 56 39.95C55.32 43.92 53.33 57 53.31 57.17C53.31 57.17 53.23 58 53.36 58.85C55.26 58.87 67.03 59.02 67.56 59.02C68.47 59.04 69.81 59.64 69.81 61.17C69.81 62.29 69.79 67.92 69.79 67.92C69.74 68.63 69.22 69.3 68.35 69.3C67.94 69.3 52.36 69.04 51.7 69.03C51.61 69.03 51.37 69.02 51.1 68.92C51.04 69.01 50.99 69.09 50.99 69.09C50.96 69.14 50.93 69.18 50.9 69.22C50.73 69.41 50.38 69.73 49.88 69.73L49.91 69.72Z" fill="white"/>
<path d="M50.3 1.99998C50.91 1.99998 51.53 3.86998 51.86 5.02998L58.65 5.20998C59.53 5.20998 59.53 5.73998 58.65 5.73998L52.08 5.86998L51.88 5.91998C51.88 5.91998 52.2 6.26998 52.67 6.26998C52.7 6.26998 52.74 6.26998 52.79 6.26998C53.38 6.26998 54.9 6.30998 55.04 7.35998C55.19 8.48998 55.82 14.06 55.82 16.15C55.82 18.24 55.76 20.75 55.76 20.75C55.76 20.75 55.83 21.25 56.2 21.42C56.57 21.59 58.46 22.85 58.46 22.85C58.46 22.85 58.59 22.93 58.88 22.93C59.17 22.93 96.11 23.2 96.11 23.2C96.11 23.2 98 23.47 98 25.25V36.18C98 36.18 98.03 36.66 97.54 36.66C97.05 36.66 77.19 36.5 77.19 36.5C77.19 36.5 76.89 36.45 76.89 36.2V33.51H76.58V36.18C76.58 36.18 76.57 36.56 76.16 36.56C75.75 36.56 58.5 36.34 58.5 36.34C58.5 36.34 58.44 36.34 58.34 36.34C57.97 36.34 57.01 36.45 56.08 37.52C55.53 38.15 55.18 38.93 55.04 39.76C54.35 43.79 52.35 57 52.35 57C52.35 57 52.22 58.17 52.46 59.3C52.54 59.65 52.78 59.83 53.15 59.83C53.52 59.83 67.58 60.01 67.58 60.01C67.58 60.01 68.84 60.04 68.84 61.16C68.84 62.28 68.82 67.9 68.82 67.9C68.82 67.9 68.79 68.28 68.38 68.28C67.97 68.28 51.75 68.01 51.75 68.01C51.75 68.01 51.49 68.01 51.33 67.87C51.27 67.82 51.19 67.8 51.11 67.8C50.98 67.8 50.86 67.85 50.86 67.85C50.86 67.85 50.78 67.95 50.56 67.95C50.48 68.05 50.17 68.55 50.17 68.55C50.17 68.55 50.02 68.72 49.91 68.72C49.8 68.72 49.64 68.55 49.64 68.55C49.64 68.55 49.33 68.05 49.25 67.95C49.03 67.95 48.95 67.85 48.95 67.85C48.95 67.85 48.83 67.8 48.7 67.8C48.62 67.8 48.54 67.82 48.48 67.87C48.32 68.01 48.06 68.01 48.06 68.01C48.06 68.01 31.68 67.99 31.27 67.99C30.86 67.99 30.83 67.61 30.83 67.61V60.74C30.83 59.62 32.09 59.59 32.09 59.59C32.09 59.59 46.38 59.72 46.75 59.72C47.12 59.72 47.36 59.54 47.44 59.19C47.68 58.06 47.55 56.89 47.55 56.89C47.55 56.89 45.4 41.36 44.96 38.87C43.84 36.47 42.29 36.26 41.79 36.26C41.69 36.26 41.63 36.26 41.63 36.26H24.06C23.65 36.26 23.64 35.88 23.64 35.88V33.21H23.33V35.9C23.33 36.15 23.03 36.2 23.03 36.2H2.46C1.96 36.2 2 35.72 2 35.72V24.79C2 23.02 3.89 22.74 3.89 22.74C3.89 22.74 41.15 22.82 41.45 22.82C41.75 22.82 41.87 22.74 41.87 22.74C41.87 22.74 43.82 21.61 44.18 21.44C44.54 21.27 44.62 20.77 44.62 20.77C44.62 20.77 44.56 18.26 44.56 16.17C44.56 14.08 45.36 8.55998 45.51 7.42998C45.66 6.29998 47.46 6.28998 47.93 6.28998C48.4 6.28998 48.51 5.93998 48.51 5.93998C48.51 5.93998 48.51 5.91998 48.52 5.88998L41.95 5.75998C41.07 5.75998 41.07 5.22998 41.95 5.22998L48.74 5.04998C49.07 3.88998 49.69 2.01998 50.3 2.01998M50.3 -1.95317e-05C48.7 -1.95317e-05 47.85 1.40998 47.26 3.06998L41.92 3.20998C40.19 3.21998 39.29 4.35998 39.29 5.47998C39.29 6.59998 40.2 7.74998 41.95 7.74998L43.44 7.77998C43 10.95 42.56 14.43 42.56 16.17C42.56 17.56 42.59 19.11 42.61 20.03C42.16 20.28 41.61 20.59 41.2 20.83C37.94 20.83 4.25 20.75 3.89 20.75C3.79 20.75 3.7 20.75 3.6 20.77C1.87 21.01 1.83471e-06 22.38 1.83471e-06 24.79V35.68C-0.0199982 36.32 0.230002 36.97 0.660002 37.43C1.12 37.92 1.76 38.19 2.46 38.19H23.05C23.16 38.19 23.27 38.19 23.38 38.16C23.59 38.22 23.83 38.25 24.08 38.25H41.65C41.74 38.25 41.77 38.25 41.8 38.25C41.82 38.25 41.83 38.25 41.86 38.25C42.02 38.28 42.53 38.47 43.05 39.47C43.55 42.52 45.46 56.29 45.57 57.11C45.58 57.22 45.59 57.44 45.59 57.69C42.87 57.67 36.06 57.61 32.12 57.57C32.12 57.57 32.11 57.57 32.1 57.57C32.08 57.57 32.07 57.57 32.05 57.57C30.49 57.61 28.84 58.73 28.84 60.72V67.59C28.84 67.64 28.84 67.7 28.84 67.75C28.93 68.83 29.81 69.97 31.27 69.97C31.68 69.97 48.05 69.99 48.05 69.99C48.1 69.99 48.17 69.99 48.25 69.99C48.54 70.28 49.11 70.7 49.89 70.7C50.67 70.7 51.24 70.28 51.53 69.99C51.61 69.99 51.68 69.99 51.73 69.99C53.36 70.02 67.95 70.26 68.36 70.26C69.82 70.26 70.7 69.12 70.79 68.04C70.79 67.99 70.79 67.94 70.79 67.89C70.79 67.89 70.81 62.26 70.81 61.14C70.81 59.15 69.15 58.03 67.6 57.99C66.39 57.97 57.52 57.86 54.28 57.83C54.28 57.58 54.28 57.36 54.3 57.23C54.44 56.31 56.32 43.92 56.98 40.08C57.06 39.59 57.26 39.16 57.56 38.82C57.88 38.45 58.15 38.35 58.26 38.33C58.28 38.33 58.29 38.33 58.31 38.33C58.33 38.33 58.36 38.33 58.43 38.33C58.43 38.33 58.44 38.33 58.45 38.33C60.22 38.35 75.72 38.55 76.13 38.55C76.38 38.55 76.61 38.52 76.83 38.46C76.93 38.48 77.04 38.49 77.15 38.49C77.96 38.49 97.02 38.65 97.52 38.65C98.22 38.65 98.86 38.38 99.32 37.89C99.75 37.43 100 36.78 99.98 36.14V25.25C99.98 22.84 98.11 21.47 96.38 21.22C96.29 21.21 96.2 21.2 96.11 21.2C94.68 21.19 62.63 20.96 59.16 20.93C58.59 20.55 58.12 20.25 57.76 20.03C57.78 19.12 57.81 17.55 57.81 16.15C57.81 14.14 57.31 9.55998 57.09 7.75998L58.67 7.72998C60.38 7.72998 61.29 6.58998 61.29 5.45998C61.29 4.32998 60.39 3.20998 58.66 3.18998L53.32 3.04998C52.73 1.39998 51.87 -0.0200195 50.28 -0.0200195L50.3 -1.95317e-05Z" fill="black"/>
</g>
<defs>
<clipPath id="clip0_724_12">
<rect width="100" height="70.72" fill="white"/>
</clipPath>
</defs>
</svg>
