<svg width="116" height="113" viewBox="0 0 116 113" fill="none" xmlns="http://www.w3.org/2000/svg">
<g clip-path="url(#clip0_699_18)">
<path d="M81.96 111.81C81.82 111.81 81.67 111.79 81.52 111.75C80.75 111.55 59.55 106.13 59.55 106.13C59.52 106.13 59.39 106.08 59.34 106.06C59.26 107.61 59.15 109.03 57.9 109.03C56.65 109.03 56.54 107.6 56.46 106.06C56.41 106.08 56.36 106.09 56.34 106.1C56.25 106.13 35.05 111.55 34.28 111.74C34.13 111.78 33.99 111.8 33.84 111.8C32.85 111.8 32.23 110.97 32.06 110.15C32.05 110.08 32.04 110.01 32.04 109.94V106.55C32.04 104.81 33.11 103.86 33.79 103.54L54.21 91.82C54.32 91.76 54.38 91.63 54.36 91.5L50.74 66.83L50.11 66.68C21.48 59.82 5.09002 55.91 3.96002 55.66C1.87002 55.19 1.13002 53.57 1.02002 52.68C1.02002 52.64 1.02002 52.6 1.02002 52.56V46.79C1.02002 44.76 2.93002 44.01 4.22002 43.99H28.5V38.2C28.5 38.2 28.5 38.13 28.5 38.09C28.55 37.61 28.87 36.77 29.71 36.37C28.3 36.3 26.75 36.11 25.06 35.78C24.39 35.65 23.95 35.12 23.97 34.48C23.99 33.84 24.49 33.32 25.17 33.24C26.54 33.07 27.92 32.98 29.28 32.98C30.52 32.98 31.56 33.05 32.36 33.13C32.82 31.78 33.53 31.09 34.48 31.09C35.43 31.09 36.12 31.76 36.58 33.09C37.29 33.03 38.19 32.98 39.23 32.98C40.59 32.98 41.97 33.07 43.34 33.24C44.01 33.32 44.52 33.85 44.54 34.48C44.56 35.12 44.11 35.65 43.45 35.78C42.06 36.05 40.76 36.23 39.55 36.32C40.47 36.71 40.8 37.59 40.86 38.09C40.86 38.13 40.86 38.16 40.86 38.2V43.99H50.02C49.97 41.36 50.05 34.42 50.11 29.78C50.13 27.9 50.15 26.45 50.15 25.96C50.15 16.13 53.72 6.94 55.85 2.33C56.23 1.51 57.03 1 57.93 1C58.83 1 59.63 1.51 60.01 2.33C62.14 6.93 65.71 16.13 65.71 25.96C65.71 26.41 65.72 27.66 65.73 29.31C65.77 33.81 65.83 41.26 65.78 43.98H74.99V38.19C74.99 38.19 74.99 38.12 74.99 38.08C75.04 37.58 75.38 36.7 76.3 36.31C75.1 36.22 73.79 36.04 72.4 35.77C71.74 35.64 71.29 35.11 71.31 34.47C71.33 33.83 71.83 33.31 72.51 33.23C73.88 33.06 75.26 32.97 76.62 32.97C77.66 32.97 78.56 33.02 79.27 33.08C79.73 31.75 80.44 31.08 81.37 31.08C82.3 31.08 83.02 31.76 83.48 33.12C84.28 33.04 85.32 32.97 86.56 32.97C87.92 32.97 89.3 33.06 90.67 33.23C91.34 33.31 91.85 33.84 91.87 34.47C91.89 35.11 91.44 35.64 90.78 35.77C89.1 36.09 87.54 36.29 86.13 36.36C86.97 36.77 87.28 37.6 87.34 38.08C87.34 38.12 87.34 38.15 87.34 38.19V43.98H111.61C112.91 44 114.82 44.75 114.82 46.78V52.55C114.82 52.55 114.82 52.63 114.82 52.67C114.71 53.56 113.96 55.19 111.88 55.65C110.75 55.9 94.34 59.82 65.68 66.69L65.09 66.83L61.47 91.5C61.45 91.63 61.51 91.75 61.62 91.82L82.04 103.54C82.72 103.86 83.79 104.82 83.79 106.55V109.94C83.79 110.01 83.79 110.08 83.77 110.15C83.6 110.97 82.98 111.8 81.99 111.8L81.96 111.81Z" fill="white"/>
<path d="M57.9 1.99999C58.37 1.99999 58.84 2.24999 59.08 2.74999C61.02 6.94999 64.68 16.18 64.68 25.96C64.68 27.66 64.83 40.78 64.75 44.18C64.74 44.62 65.09 44.98 65.54 44.98H75.42C75.72 44.98 75.97 44.73 75.97 44.43V38.19C75.97 38.19 76.06 37.38 76.86 37.17C77.67 36.96 79.13 36.87 79.13 36.87C79.13 36.87 79.73 36.74 79.73 36.29V35.84C79.73 35.84 79.75 35.62 79.79 35.3C79.34 35.35 78.77 35.39 78.07 35.39C76.74 35.39 74.94 35.25 72.58 34.8C72.18 34.72 72.21 34.28 72.62 34.23C74.1 34.05 75.44 33.98 76.61 33.98C78.05 33.98 79.21 34.08 79.99 34.17C80.22 33.17 80.63 32.09 81.36 32.09C82.09 32.09 82.52 33.21 82.74 34.23C83.49 34.12 84.82 33.98 86.55 33.98C87.71 33.98 89.06 34.04 90.54 34.23C90.95 34.28 90.98 34.72 90.58 34.8C88.23 35.25 86.42 35.39 85.09 35.39C84.13 35.39 83.41 35.32 82.92 35.24C82.97 35.6 82.99 35.84 82.99 35.84V36.29C82.99 36.74 83.59 36.87 83.59 36.87C83.59 36.87 84.64 36.97 85.45 37.17C86.26 37.38 86.34 38.19 86.34 38.19V44.43C86.34 44.73 86.59 44.98 86.89 44.98H111.61C111.61 44.98 113.82 45.01 113.82 46.78V52.55C113.82 52.55 113.61 54.24 111.65 54.68C109.82 55.09 69.74 64.69 64.71 65.89C64.4 65.96 64.16 66.22 64.12 66.54L60.48 91.35C60.4 91.88 60.66 92.41 61.13 92.68L81.59 104.43C81.59 104.43 82.8 104.95 82.8 106.55V109.94C82.8 109.94 82.62 110.8 82 110.8C81.94 110.8 81.88 110.8 81.81 110.77C81.04 110.57 59.84 105.15 59.84 105.15C59.84 105.15 59.42 104.99 59 104.99C58.8 104.99 58.61 105.02 58.45 105.13C58.35 105.43 58.41 108.03 57.93 108.03C57.45 108.03 57.51 105.43 57.41 105.13C57.26 105.03 57.06 104.99 56.86 104.99C56.44 104.99 56.02 105.15 56.02 105.15C56.02 105.15 34.83 110.57 34.05 110.77C33.98 110.79 33.92 110.8 33.86 110.8C33.24 110.8 33.06 109.94 33.06 109.94V106.55C33.06 104.94 34.27 104.43 34.27 104.43L54.73 92.68C55.2 92.41 55.45 91.88 55.38 91.35L51.74 66.54C51.69 66.22 51.46 65.96 51.15 65.89C46.12 64.68 6.04 55.09 4.21 54.68C2.25 54.24 2.04 52.55 2.04 52.55V46.78C2.04 45.01 4.25 44.98 4.25 44.98H28.97C29.27 44.98 29.52 44.73 29.52 44.43V38.19C29.52 38.19 29.61 37.38 30.41 37.17C31.22 36.96 32.27 36.87 32.27 36.87C32.27 36.87 32.87 36.74 32.87 36.29V35.84C32.87 35.84 32.89 35.6 32.94 35.24C32.45 35.32 31.73 35.39 30.77 35.39C29.44 35.39 27.64 35.25 25.28 34.8C24.88 34.72 24.91 34.28 25.32 34.23C26.8 34.05 28.14 33.98 29.31 33.98C31.05 33.98 32.37 34.12 33.12 34.23C33.35 33.21 33.76 32.09 34.5 32.09C35.24 32.09 35.64 33.17 35.87 34.17C36.65 34.07 37.81 33.98 39.25 33.98C40.41 33.98 41.76 34.04 43.24 34.23C43.65 34.28 43.68 34.72 43.28 34.8C40.93 35.25 39.12 35.39 37.79 35.39C37.09 35.39 36.52 35.35 36.07 35.3C36.11 35.63 36.13 35.84 36.13 35.84V36.29C36.13 36.74 36.73 36.87 36.73 36.87C36.73 36.87 38.19 36.97 39 37.17C39.81 37.38 39.89 38.19 39.89 38.19V44.43C39.89 44.73 40.14 44.98 40.44 44.98H50.27C50.71 44.98 51.07 44.62 51.06 44.18C50.98 40.78 51.18 27.66 51.18 25.96C51.18 16.18 54.84 6.94999 56.78 2.74999C57.01 2.24999 57.48 1.99999 57.96 1.99999M57.9 -9.76585e-06C56.6 -9.76585e-06 55.45 0.72999 54.91 1.90999C52.75 6.58999 49.12 15.94 49.12 25.96C49.12 26.45 49.1 27.89 49.08 29.76C49.03 33.89 48.96 39.85 48.98 42.98H41.83V38.19C41.83 38.12 41.83 38.05 41.82 37.98C41.79 37.69 41.71 37.39 41.59 37.09C42.24 37 42.91 36.89 43.61 36.75C44.75 36.53 45.55 35.56 45.51 34.43C45.47 33.3 44.6 32.37 43.44 32.23C42.03 32.06 40.61 31.97 39.21 31.97C38.47 31.97 37.79 32 37.2 32.03C36.43 30.46 35.33 30.08 34.45 30.08C33.57 30.08 32.46 30.46 31.69 32.06C31 32.01 30.18 31.97 29.25 31.97C27.85 31.97 26.42 32.06 25.02 32.23C23.86 32.37 22.98 33.3 22.95 34.43C22.91 35.55 23.71 36.53 24.85 36.75C25.83 36.94 26.78 37.09 27.68 37.19C27.58 37.45 27.52 37.72 27.49 37.97C27.49 38.04 27.48 38.11 27.48 38.18V42.97H4.21C2.11 43 0 44.31 0 46.77V52.54C0 52.62 0 52.71 0.02 52.79C0.16 53.94 1.11 56.04 3.74 56.62C5.48 57.01 42.6 65.9 49.85 67.64L53.31 91.17L33.33 102.64C32.42 103.09 31.05 104.34 31.05 106.54V109.93C31.05 110.07 31.06 110.21 31.09 110.34C31.34 111.52 32.31 112.78 33.85 112.78C34.08 112.78 34.31 112.75 34.54 112.69C35.22 112.52 51.48 108.36 55.58 107.31C55.76 108.66 56.26 110.01 57.92 110.01C59.58 110.01 60.08 108.66 60.26 107.31C64.36 108.36 80.62 112.51 81.3 112.69C81.53 112.75 81.76 112.78 81.99 112.78C83.53 112.78 84.5 111.51 84.75 110.34C84.78 110.2 84.79 110.07 84.79 109.93V106.54C84.79 104.35 83.42 103.09 82.51 102.64L62.53 91.17L65.99 67.64C73.25 65.9 110.36 57.01 112.1 56.62C114.73 56.03 115.68 53.93 115.82 52.79C115.83 52.71 115.84 52.62 115.84 52.54V46.77C115.84 44.31 113.73 43 111.65 42.97H88.36V38.18C88.36 38.11 88.36 38.04 88.35 37.97C88.32 37.71 88.26 37.45 88.16 37.19C89.06 37.09 90 36.94 90.99 36.75C92.13 36.53 92.93 35.56 92.89 34.43C92.85 33.3 91.98 32.37 90.82 32.23C89.41 32.06 87.99 31.97 86.59 31.97C85.67 31.97 84.85 32.01 84.15 32.06C83.38 30.47 82.28 30.08 81.39 30.08C80.5 30.08 79.41 30.46 78.65 32.03C78.06 31.99 77.39 31.97 76.64 31.97C75.24 31.97 73.81 32.06 72.41 32.23C71.25 32.37 70.37 33.3 70.34 34.43C70.3 35.55 71.1 36.53 72.24 36.75C72.93 36.88 73.6 37 74.26 37.09C74.14 37.38 74.06 37.69 74.03 37.98C74.03 38.05 74.02 38.12 74.02 38.19V42.98H66.82C66.85 39.72 66.79 33.33 66.76 29.3C66.75 27.65 66.74 26.4 66.74 25.95C66.74 15.93 63.11 6.57999 60.95 1.89999C60.41 0.71999 59.26 -0.0100098 57.96 -0.0100098L57.9 -9.76585e-06Z" fill="black"/>
</g>
<defs>
<clipPath id="clip0_699_18">
<rect width="115.8" height="112.81" fill="white"/>
</clipPath>
</defs>
</svg>
