<svg width="186" height="131" viewBox="0 0 186 131" fill="none" xmlns="http://www.w3.org/2000/svg">
<g clip-path="url(#clip0_302_57)">
<path d="M93 129.59C92.68 129.59 92.38 129.46 92.15 129.22C91.91 128.97 91.21 128.25 91.33 121.57L90.49 122.52C90.3 122.73 90.03 122.85 89.74 122.85H64.32C57.25 122.85 55.7 110.78 55.63 110.27C55.63 110.23 55.63 110.19 55.63 110.15C55.63 102.97 61.19 102.76 61.82 102.76C61.95 102.76 62.02 102.76 62.02 102.76H86.87C83.82 86.52 83.17 63.33 83.07 58.29H51.02C50.87 58.66 50.51 58.93 50.09 58.93H8.65004C8.12004 58.93 6.32004 58.71 4.45004 55.91C0.950038 49.38 1.00004 39.2 1.00004 38.77C1.00004 36.31 3.55004 32.22 6.26004 32.22H72.8C72.8 32.16 72.8 28.96 72.8 28.96C72.8 26.29 74.27 25.07 75.63 25.07C76.81 25.07 78.07 25.98 78.39 27.96H82.87C83 24.46 83.51 20.12 83.53 19.92C83.53 19.87 83.55 19.81 83.56 19.76C83.66 19.42 83.84 19.06 84.12 18.8C84.45 15.86 84.65 13.55 84.8 11.84C85.01 9.40001 85.12 8.18001 85.35 7.48001C85.38 7.38001 85.42 7.29001 85.47 7.20001C73.69 7.05001 73.69 6.48001 73.69 5.44001C73.69 4.40001 73.69 3.76001 88.49 3.26001H89.65C90.07 1.62001 91.55 1.01001 92.84 1.01001C92.91 1.01001 92.97 1.01001 93.01 1.01001C93.05 1.01001 93.11 1.01001 93.18 1.01001C94.47 1.01001 95.95 1.62001 96.37 3.26001H97.5C112.33 3.77001 112.33 4.36001 112.33 5.44001C112.33 6.52001 112.33 7.05001 100.54 7.20001C100.59 7.29001 100.62 7.39001 100.66 7.48001C100.89 8.18001 101 9.40001 101.21 11.84C101.36 13.55 101.56 15.85 101.89 18.79C102.16 19.05 102.35 19.41 102.45 19.75C102.46 19.8 102.47 19.85 102.48 19.91C102.5 20.11 103.01 24.45 103.14 27.95H107.62C107.94 25.97 109.2 25.06 110.38 25.06C111.74 25.06 113.21 26.28 113.21 28.95C113.21 28.95 113.21 32.15 113.21 32.21H179.75C182.46 32.21 185.01 36.3 185.01 38.77C185.01 39.19 185.06 49.38 181.61 55.82C179.69 58.7 177.89 58.92 177.38 58.92H135.92C135.5 58.92 135.13 58.66 134.99 58.28H102.94C102.83 63.32 102.19 86.5 99.14 102.74C99.14 102.74 124.11 102.74 124.19 102.74C124.82 102.74 130.38 102.95 130.38 110.13C130.38 110.17 130.38 110.21 130.38 110.25C130.32 110.76 128.76 122.83 121.69 122.83H96.27C95.98 122.83 95.71 122.71 95.52 122.5L94.68 121.55C94.8 128.23 94.1 128.95 93.86 129.2C93.63 129.44 93.33 129.57 93.01 129.57L93 129.59Z" fill="white"/>
<path d="M93.17 2C93.73 2 95.48 2.17 95.48 4.25H97.49C97.49 4.25 111.32 4.72 111.32 5.43C111.32 6.14 97.4 6.22 97.4 6.22C97.4 6.22 99.35 6.73 99.7 7.79C100.05 8.85 100.14 12.31 100.94 19.41C101.29 19.41 101.47 20.03 101.47 20.03C101.47 20.03 102.1 25.35 102.15 28.96H108.53C108.53 27.03 109.45 26.07 110.36 26.07C111.27 26.07 112.19 27.03 112.19 28.96V32.03C112.19 32.48 112.13 32.87 112.04 33.21H179.73C181.77 33.21 183.99 36.73 183.99 38.77C183.99 38.77 184.08 49.06 180.71 55.35C179.05 57.84 177.54 57.92 177.36 57.92C177.35 57.92 177.34 57.92 177.34 57.92H135.9V57.28H101.94C101.94 57.28 101.57 85.42 97.91 103.74H124.04C124.04 103.74 124.09 103.74 124.18 103.74C125.01 103.74 129.37 104.03 129.37 110.13C129.37 110.13 127.94 121.83 121.68 121.83H96.26L94.58 119.94H93.63C93.63 119.94 93.91 128.57 93 128.57C92.09 128.57 92.37 119.94 92.37 119.94H91.42L89.74 121.83H64.32C58.05 121.83 56.63 110.13 56.63 110.13C56.63 104.03 60.99 103.74 61.82 103.74C61.91 103.74 61.96 103.74 61.96 103.74H88.09C84.42 85.41 84.06 57.28 84.06 57.28H50.1V57.92H8.65004C8.65004 57.92 8.65004 57.92 8.63004 57.92C8.45004 57.92 6.94004 57.84 5.28004 55.35C1.91004 49.05 2.00004 38.77 2.00004 38.77C2.00004 36.73 4.22004 33.21 6.26004 33.21H73.95C73.85 32.87 73.8 32.48 73.8 32.03V28.96C73.8 27.03 74.72 26.07 75.63 26.07C76.54 26.07 77.46 27.03 77.46 28.96H83.84C83.89 25.35 84.52 20.03 84.52 20.03C84.52 20.03 84.7 19.41 85.05 19.41C85.85 12.32 85.94 8.86 86.29 7.79C86.64 6.73 88.59 6.22 88.59 6.22C88.59 6.22 74.67 6.13 74.67 5.43C74.67 4.73 88.5 4.25 88.5 4.25H90.51C90.51 2.16 92.26 2 92.82 2C92.93 2 92.99 2 92.99 2C92.99 2 93.05 2 93.16 2M102.6 32.7L105.52 30.74H102.6V32.7ZM83.4 32.7V30.74H80.48L83.4 32.7ZM106.77 33.22H108.76C108.66 32.88 108.61 32.49 108.61 32.04L108.52 31.39L106.78 33.22M77.25 33.22H79.24L77.5 31.39L77.41 32.04C77.41 32.49 77.35 32.88 77.26 33.22M93.17 0C93.11 0 93.05 0 93 0C92.95 0 92.89 0 92.83 0C91.31 0 89.7 0.72 88.95 2.25H88.51C88.51 2.25 88.46 2.25 88.44 2.25C88.41 2.25 84.92 2.37 81.47 2.58C79.43 2.7 77.79 2.83 76.61 2.96C74.76 3.17 72.67 3.4 72.67 5.43C72.67 7.46 74.89 7.7 76.68 7.85C77.87 7.95 79.51 8.03 81.57 8.1C82.45 8.13 83.34 8.15 84.17 8.17C84.04 8.97 83.94 10.09 83.8 11.76C83.66 13.4 83.46 15.6 83.16 18.38C82.92 18.69 82.72 19.07 82.6 19.49C82.57 19.59 82.55 19.7 82.54 19.81C82.52 19.99 82.09 23.64 81.92 26.97H79.18C78.57 25.07 77.1 24.08 75.64 24.08C73.74 24.08 71.81 25.76 71.81 28.97V31.23H6.26004C2.86004 31.22 3.71225e-05 35.86 3.71225e-05 38.78C3.71225e-05 39.2 -0.0499628 49.64 3.52004 56.31C3.55004 56.37 3.58004 56.42 3.62004 56.48C5.76004 59.69 8.00004 59.94 8.64004 59.94C8.65004 59.94 8.66004 59.94 8.68004 59.94H50.1C50.68 59.94 51.2 59.7 51.56 59.3H82.1C82.25 65.73 82.92 86.26 85.68 101.76H62.01C62.01 101.76 61.9 101.76 61.83 101.76C59.16 101.76 54.64 103.53 54.64 110.15C54.64 110.23 54.64 110.31 54.65 110.39C54.82 111.77 56.52 123.85 64.33 123.85H89.75C89.95 123.85 90.14 123.82 90.33 123.76C90.39 128.82 91.03 129.49 91.44 129.91C91.86 130.34 92.41 130.58 93 130.58C93.59 130.58 94.15 130.34 94.56 129.91C94.97 129.48 95.62 128.82 95.67 123.76C95.86 123.82 96.05 123.85 96.25 123.85H121.67C129.48 123.85 131.18 111.77 131.35 110.39C131.35 110.31 131.36 110.23 131.36 110.15C131.36 103.53 126.84 101.76 124.17 101.76C124.09 101.76 124.03 101.76 123.99 101.76H100.32C103.08 86.26 103.76 65.73 103.9 59.3H134.44C134.81 59.69 135.33 59.94 135.9 59.94H177.32C177.32 59.94 177.35 59.94 177.36 59.94C178 59.94 180.23 59.69 182.38 56.48C182.42 56.43 182.45 56.37 182.48 56.31C186.05 49.64 186 39.21 186 38.77C186 35.87 183.14 31.23 179.74 31.23H114.2V28.97C114.2 25.76 112.27 24.08 110.37 24.08C108.91 24.08 107.44 25.07 106.83 26.97H104.09C103.92 23.64 103.49 19.99 103.47 19.81C103.46 19.7 103.44 19.6 103.41 19.5C103.29 19.07 103.1 18.7 102.85 18.39C102.55 15.61 102.35 13.41 102.21 11.77C102.06 10.1 101.97 8.98 101.84 8.18C102.67 8.16 103.55 8.14 104.44 8.11C106.49 8.05 108.14 7.96 109.33 7.86C111.12 7.71 113.34 7.53 113.34 5.44C113.34 3.35 111.25 3.17 109.4 2.97C108.22 2.84 106.59 2.71 104.54 2.59C101.1 2.38 97.61 2.26 97.57 2.26C97.55 2.26 97.52 2.26 97.5 2.26H97.06C96.3 0.72 94.69 0 93.17 0Z" fill="black"/>
</g>
<defs>
<clipPath id="clip0_302_57">
<rect width="186" height="130.59" fill="white"/>
</clipPath>
</defs>
</svg>
