<svg width="296" height="238" viewBox="0 0 296 238" fill="none" xmlns="http://www.w3.org/2000/svg">
<g clip-path="url(#clip0_60_87)">
<path d="M149.09 234.69L149.4 232.89L151.27 233.74C151.55 233.87 151.88 233.74 151.99 233.45L152.34 232.57C152.4 232.42 152.55 232.32 152.71 232.33L192.42 233.59C193.11 233.61 193.71 233.13 193.85 232.46C194.02 231.62 194.23 230.18 194.47 227.69C195.05 221.69 192.3 220.89 192.3 220.89C192.3 220.89 162.89 210.2 156.6 207.77C156.13 207.59 155.89 207.07 156.04 206.59C163.5 183.54 162.34 162.01 162.34 162.01V118.21C162.34 117.79 162.68 117.45 163.1 117.45H182.74C182.74 117.45 185.62 131.82 187.35 131.82C189.08 131.82 191.2 117.38 191.2 117.38L292.19 112.03C292.19 112.03 293.28 112.1 293.78 106.97C294.87 100.31 291.39 99.95 291.39 99.95C291.39 99.95 204.43 86.28 199.01 85.55C193.59 84.82 192.61 84.85 192.61 84.85C192.61 84.85 192.97 76.33 192.83 70.83C192.52 65.42 192.34 64.14 191.82 62.44C191.44 60.85 189.69 60.52 189.69 60.52V59.4C205.32 59.4 205.86 58 205.86 58H189.65C189.65 58 189.19 51.76 186.56 51.76C183.93 51.76 183.47 58.01 183.47 58.01C183.47 58.01 167.14 57.63 167.08 58.01C167.08 59.31 182.83 59.42 182.83 59.42V60.67C182.24 60.67 181.68 61.2 181.68 61.2C181.68 61.2 180.74 62.43 180.39 70.53C180.04 78.63 181.31 84.85 181.31 84.85H162.78C162.39 84.85 162.07 84.53 162.07 84.14V44.56C160.77 7.95002 148 2.02002 148 2.02002C148 2.02002 135.23 7.95002 133.93 44.55V84.13C133.93 84.52 133.61 84.84 133.22 84.84H114.69C114.69 84.84 115.96 78.62 115.61 70.52C115.26 62.42 114.32 61.19 114.32 61.19C114.32 61.19 113.76 60.66 113.17 60.66V59.41C113.17 59.41 128.92 59.31 128.92 58C128.87 57.62 112.53 58 112.53 58C112.53 58 112.07 51.75 109.44 51.75C106.81 51.75 106.35 57.99 106.35 57.99H90.1401C90.1401 57.99 90.6801 59.39 106.31 59.39V60.51C106.31 60.51 104.56 60.84 104.18 62.43C103.66 64.13 103.47 65.41 103.17 70.82C103.03 76.32 103.39 84.84 103.39 84.84C103.39 84.84 102.41 84.82 96.9901 85.54C91.5601 86.26 4.61008 99.94 4.61008 99.94C4.61008 99.94 1.14008 100.3 2.22008 106.96C2.73008 112.1 3.81008 112.02 3.81008 112.02L104.8 117.37C104.8 117.37 106.92 131.81 108.65 131.81C110.38 131.81 113.26 117.44 113.26 117.44H132.9C133.32 117.44 133.66 117.78 133.66 118.2V162C133.66 162 132.51 183.53 139.96 206.58C140.12 207.06 139.87 207.58 139.4 207.76C133.12 210.19 103.7 220.88 103.7 220.88C103.7 220.88 100.95 221.68 101.53 227.68C101.77 230.17 101.98 231.61 102.15 232.45C102.29 233.13 102.89 233.6 103.58 233.58L143.29 232.32C143.45 232.32 143.6 232.41 143.66 232.56L144.01 233.44C144.12 233.73 144.45 233.86 144.73 233.73L146.6 232.88L146.91 234.68C146.98 235.06 147.31 235.34 147.69 235.34H147.99H148.29C148.68 235.34 149.01 235.06 149.07 234.68L149.09 234.69Z" fill="white"/>
<path d="M148 2C148 2 160.77 7.93 162.07 44.54V84.12C162.07 84.51 162.39 84.83 162.78 84.83H181.31C181.31 84.83 180.04 78.61 180.39 70.51C180.74 62.41 181.68 61.18 181.68 61.18C181.68 61.18 182.24 60.65 182.83 60.65V59.4C182.83 59.4 167.08 59.3 167.08 57.99C167.1 57.86 168.92 57.82 171.35 57.82C176.2 57.82 183.46 57.99 183.46 57.99C183.46 57.99 183.92 51.74 186.55 51.74C189.18 51.74 189.64 57.98 189.64 57.98H205.85C205.85 57.98 205.31 59.38 189.68 59.38V60.5C189.68 60.5 191.43 60.83 191.81 62.42C192.33 64.12 192.52 65.4 192.82 70.81C192.96 76.31 192.6 84.83 192.6 84.83C192.6 84.83 192.6 84.83 192.61 84.83C192.73 84.83 193.9 84.85 199 85.53C204.43 86.25 291.38 99.93 291.38 99.93C291.38 99.93 294.85 100.29 293.77 106.95C293.28 111.95 292.24 112.01 292.18 112.01L191.19 117.36C191.19 117.36 189.07 131.8 187.34 131.8C185.61 131.8 182.73 117.43 182.73 117.43H163.09C162.67 117.43 162.33 117.77 162.33 118.19V161.99C162.33 161.99 163.48 183.52 156.03 206.57C155.87 207.05 156.12 207.57 156.59 207.75C162.87 210.18 192.29 220.87 192.29 220.87C192.29 220.87 195.04 221.67 194.46 227.67C194.22 230.16 194.01 231.6 193.84 232.44C193.71 233.1 193.13 233.57 192.46 233.57C192.44 233.57 192.43 233.57 192.41 233.57L152.7 232.31C152.7 232.31 152.7 232.31 152.69 232.31C152.53 232.31 152.39 232.41 152.33 232.55L151.98 233.43C151.9 233.64 151.69 233.77 151.48 233.77C151.41 233.77 151.33 233.75 151.26 233.72L149.39 232.87L149.08 234.67C149.01 235.05 148.68 235.33 148.3 235.33H148H147.7C147.31 235.33 146.98 235.05 146.92 234.67L146.61 232.87L144.74 233.72C144.67 233.75 144.59 233.77 144.52 233.77C144.31 233.77 144.1 233.64 144.02 233.43L143.67 232.55C143.61 232.4 143.47 232.31 143.31 232.31C143.31 232.31 143.31 232.31 143.3 232.31L103.59 233.57C103.59 233.57 103.56 233.57 103.54 233.57C102.87 233.57 102.29 233.1 102.16 232.44C101.99 231.6 101.78 230.16 101.54 227.67C100.96 221.67 103.71 220.87 103.71 220.87C103.71 220.87 133.12 210.18 139.41 207.75C139.88 207.57 140.12 207.05 139.97 206.57C132.51 183.52 133.67 161.99 133.67 161.99V118.19C133.67 117.77 133.33 117.43 132.91 117.43H113.27C113.27 117.43 110.39 131.8 108.66 131.8C106.93 131.8 104.81 117.36 104.81 117.36L3.80024 112.01C3.74024 112.01 2.70024 111.94 2.21024 106.95C1.12024 100.29 4.60024 99.93 4.60024 99.93C4.60024 99.93 91.5602 86.26 96.9802 85.53C102.09 84.85 103.25 84.83 103.37 84.83H103.38C103.38 84.83 103.02 76.31 103.16 70.81C103.47 65.4 103.65 64.12 104.17 62.42C104.55 60.83 106.3 60.5 106.3 60.5V59.38C90.6702 59.38 90.1302 57.98 90.1302 57.98H106.34C106.34 57.98 106.8 51.74 109.43 51.74C112.06 51.74 112.52 57.99 112.52 57.99C112.52 57.99 119.78 57.82 124.63 57.82C127.06 57.82 128.88 57.86 128.9 57.99C128.9 59.29 113.15 59.4 113.15 59.4V60.65C113.74 60.65 114.3 61.18 114.3 61.18C114.3 61.18 115.24 62.41 115.59 70.51C115.94 78.61 114.67 84.83 114.67 84.83H133.2C133.59 84.83 133.91 84.51 133.91 84.12V44.54C135.21 7.93 147.98 2.01 147.98 2.01M148 0C147.71 0 147.42 0.06 147.16 0.19C146.59 0.45 133.27 7.07 131.94 44.47C131.94 44.49 131.94 44.52 131.94 44.54V82.83H117.05C117.41 80.23 117.85 75.73 117.62 70.42C117.49 67.29 117.19 63.51 116.54 61.34C117.9 61.31 119.53 61.26 121.16 61.18C128.62 60.82 130.94 60.34 130.94 57.99C130.94 57.9 130.94 57.8 130.92 57.71C130.67 55.96 129 55.9 127.78 55.86C127.05 55.83 126 55.82 124.67 55.82C121.32 55.82 116.79 55.9 114.32 55.95C113.87 53.39 112.67 49.74 109.47 49.74C106.27 49.74 105.07 53.51 104.62 55.98H90.1602C89.5002 55.98 88.8802 56.31 88.5102 56.85C88.1402 57.39 88.0602 58.09 88.2902 58.7C88.6902 59.74 89.2302 61.13 102.44 61.35C102.37 61.52 102.31 61.7 102.27 61.88C101.68 63.82 101.49 65.33 101.19 70.69C101.19 70.71 101.19 70.73 101.19 70.75C101.09 74.71 101.24 80.13 101.34 82.98C100.33 83.08 98.8702 83.26 96.7402 83.54C91.3602 84.26 8.18023 97.33 4.33024 97.94C3.90024 98 2.51024 98.31 1.39024 99.77C0.110236 101.44 -0.269764 103.94 0.250236 107.2C0.450236 109.27 0.940236 113.93 3.76024 114.01L103.09 119.28C103.32 120.69 103.69 122.83 104.13 124.99C105.53 131.75 106.59 133.81 108.67 133.81C110.75 133.81 111.81 131.86 113.56 125.13C114.12 122.97 114.6 120.84 114.9 119.44H131.68V161.95C131.61 163.42 130.74 183.84 137.78 206.25C130.05 209.19 103.33 218.9 103.05 219.01C102.25 219.3 98.9002 220.92 99.5702 227.88C99.7802 230.08 100 231.75 100.22 232.85C100.54 234.43 101.95 235.59 103.56 235.59C103.58 235.59 103.65 235.59 103.67 235.59L142.24 234.37C142.66 235.25 143.54 235.8 144.53 235.8C144.75 235.8 144.96 235.77 145.17 235.72C145.61 236.7 146.59 237.36 147.72 237.36H148.01H148.31C149.44 237.36 150.43 236.7 150.87 235.72C151.08 235.77 151.29 235.8 151.51 235.8C152.5 235.8 153.37 235.24 153.8 234.37L192.38 235.59C192.38 235.59 192.47 235.59 192.49 235.59C194.11 235.59 195.51 234.44 195.83 232.85C196.05 231.75 196.27 230.08 196.48 227.88C197.15 220.92 193.8 219.29 193 219.01C192.72 218.91 165.99 209.19 158.27 206.25C165.31 183.84 164.44 163.41 164.37 161.95V119.44H181.15C181.45 120.84 181.93 122.97 182.49 125.13C184.24 131.86 185.34 133.81 187.38 133.81C189.42 133.81 190.52 131.75 191.92 124.99C192.37 122.82 192.73 120.68 192.96 119.28L292.29 114.01C295.11 113.94 295.59 109.28 295.8 107.2C296.32 103.94 295.94 101.45 294.66 99.77C293.54 98.31 292.15 98 291.72 97.94C287.87 97.34 204.69 84.26 199.31 83.54C197.19 83.26 195.72 83.08 194.71 82.98C194.81 80.13 194.96 74.71 194.86 70.75C194.86 70.73 194.86 70.71 194.86 70.69C194.56 65.33 194.37 63.81 193.78 61.88C193.73 61.69 193.67 61.52 193.61 61.35C206.81 61.13 207.35 59.74 207.76 58.7C208 58.08 207.92 57.39 207.54 56.85C207.17 56.31 206.55 55.98 205.89 55.98H191.43C190.98 53.51 189.78 49.74 186.58 49.74C183.38 49.74 182.18 53.39 181.73 55.95C179.25 55.9 174.72 55.82 171.38 55.82C170.05 55.82 169 55.83 168.27 55.86C167.05 55.9 165.38 55.96 165.13 57.71C165.12 57.8 165.11 57.9 165.11 57.99C165.11 60.34 167.43 60.82 174.89 61.18C176.51 61.26 178.15 61.31 179.51 61.34C178.86 63.51 178.57 67.3 178.43 70.42C178.2 75.73 178.64 80.23 179 82.83H164.11V44.54C164.11 44.54 164.11 44.49 164.11 44.47C162.74 7.07 149.41 0.45 148.84 0.19C148.57 0.07 148.28 0 148 0Z" fill="black"/>
</g>
<defs>
<clipPath id="clip0_60_87">
<rect width="296" height="237.36" fill="white"/>
</clipPath>
</defs>
</svg>
