<svg width="301" height="248" viewBox="0 0 301 248" fill="none" xmlns="http://www.w3.org/2000/svg">
<g clip-path="url(#clip0_730_47)">
<path d="M150.5 245.33C149.77 245.33 149.04 244.97 148.59 244.2C145.41 243.41 143.19 240.38 142.17 238.7L141.26 238.67C141.26 238.67 102.44 240.05 102.43 240.05C101.46 240.05 100.22 239.57 99.6201 238.2C99.5801 238.1 99.5401 238 99.5201 237.9C98.0301 232.11 98.0701 227.97 99.6401 225.59C100.46 224.34 101.47 223.92 102 223.77L135.76 211.44C134.01 199.8 133.67 150.86 133.61 126.86H115.69C113.69 138.35 112.11 138.35 110.71 138.35C109.31 138.35 107.33 138.35 104.83 123.73L5.80011 118.86C5.16011 118.84 3.71011 118.52 2.85011 116.1C2.82011 116.03 2.80011 115.95 2.79011 115.88C1.57011 110.5 1.72011 106.84 3.26011 104.68C4.19011 103.37 5.32011 103.07 5.77011 103.01L98.8001 87.62C99.8801 87.44 100.99 87.32 102.09 87.26C101.78 83.31 101.4 75.5 102.68 66.42C102.7 66.31 102.72 66.21 102.75 66.11C102.84 65.83 102.93 65.54 103.03 65.25C100.28 65.12 96.1401 64.83 90.6501 64.38C90.6001 64.38 90.5601 64.38 90.5101 64.36C88.4501 64.05 88.2901 62.53 88.2901 62.07C88.2901 61.61 88.4501 60.08 90.5101 59.78C90.5501 59.78 90.6001 59.77 90.6501 59.77C97.7801 59.2 102.63 58.88 105.11 58.82C105.84 56.39 107.13 53.97 109.43 53.59C109.54 53.57 109.65 53.56 109.76 53.56C109.87 53.56 109.98 53.56 110.09 53.59C112.59 54.01 113.95 56.88 114.59 58.82C117.06 58.87 121.92 59.19 129.08 59.77C129.13 59.77 129.17 59.77 129.22 59.78C131.28 60.09 131.44 61.61 131.44 62.07C131.44 62.53 131.28 64.05 129.22 64.36C129.17 64.36 129.13 64.37 129.08 64.38C123.59 64.82 119.45 65.11 116.7 65.25C116.8 65.54 116.89 65.83 116.98 66.11C117.01 66.21 117.04 66.32 117.05 66.42C118 73.13 118.23 80.12 117.74 87.22H133.23V52.24C133.07 52.03 132.95 51.81 132.87 51.61C132.86 51.58 132.85 51.55 132.84 51.51C132.77 51.3 131.15 46.35 130.62 42.16C130.18 38.76 132.17 36.66 134.39 35.69C136 26.4 141.1 1.98999 150.3 1.98999C159.5 1.98999 164.3 26.34 165.76 35.74C166.75 35.9 167.7 36.77 167.7 38.27V39.89C167.7 40.99 167.03 41.62 166.27 41.99L166.87 51.5C166.87 51.5 166.87 51.58 166.87 51.63V87.22H183.19C182.7 80.11 182.94 73.13 183.88 66.42C183.9 66.31 183.92 66.21 183.95 66.11C184.04 65.83 184.13 65.54 184.23 65.25C181.48 65.12 177.34 64.83 171.85 64.38C171.8 64.38 171.76 64.38 171.71 64.36C169.65 64.05 169.49 62.53 169.49 62.07C169.49 61.61 169.65 60.08 171.71 59.78C171.75 59.78 171.8 59.77 171.85 59.77C179.01 59.19 183.88 58.88 186.34 58.82C186.98 56.88 188.34 54.01 190.84 53.59C190.95 53.57 191.06 53.56 191.17 53.56C191.28 53.56 191.39 53.56 191.5 53.59C193.8 53.97 195.09 56.39 195.82 58.82C198.3 58.87 203.15 59.19 210.28 59.77C210.33 59.77 210.37 59.77 210.42 59.78C212.48 60.09 212.64 61.61 212.64 62.07C212.64 62.53 212.48 64.05 210.42 64.36C210.37 64.36 210.33 64.37 210.28 64.38C204.79 64.82 200.65 65.11 197.9 65.25C198 65.54 198.09 65.83 198.18 66.11C198.21 66.21 198.24 66.32 198.25 66.42C199.53 75.5 199.15 83.32 198.84 87.26C199.94 87.32 201.04 87.44 202.13 87.62L295.16 103.01C295.61 103.08 296.74 103.38 297.67 104.68C299.21 106.84 299.37 110.5 298.14 115.88C298.12 115.96 298.1 116.03 298.08 116.1C297.23 118.52 295.77 118.84 295.13 118.86L196.1 123.73C193.6 138.35 191.66 138.35 190.22 138.35C188.78 138.35 187.24 138.35 185.24 126.86H166.57C166.73 150.87 166.83 199.78 165.16 211.43L198.94 223.76C199.47 223.9 200.47 224.33 201.3 225.58C202.87 227.95 202.91 232.09 201.42 237.89C201.39 237.99 201.36 238.1 201.32 238.19C200.72 239.55 199.48 240.04 198.6 240.04C198.55 240.04 159.69 238.66 159.69 238.66L158.78 238.69C157.76 240.38 155.54 243.4 152.36 244.19C151.85 245.05 151.02 245.32 150.44 245.32L150.5 245.33Z" fill="white"/>
<path d="M150.32 4C159.13 4 164 37.31 164 37.31L164.1 38.94C164.25 38.96 164.38 38.97 164.5 38.97C165.12 38.97 165.21 38.69 165.21 38.69V38.27C165.21 37.9 165.34 37.72 165.47 37.72C165.6 37.72 165.73 37.9 165.73 38.27V39.89C165.73 40.2 164.84 40.42 164.21 40.54L164.91 51.63V89.22H185.39C185.18 86.82 184.34 77.71 185.9 66.7C186.48 64.82 186.71 64.66 187.59 64.66V63.33C187.46 63.33 187.28 63.34 187.05 63.34C185.54 63.34 181.71 63.17 172.06 62.39C171.58 62.32 171.54 62.23 171.54 62.07C171.54 61.91 171.58 61.83 172.06 61.75C181.71 60.97 185.55 60.8 187.05 60.8C187.55 60.8 187.79 60.82 187.91 60.84C188.38 58.59 189.61 55.82 191.22 55.55C192.83 55.82 193.84 58.59 194.32 60.84C194.44 60.82 194.68 60.8 195.18 60.8C196.69 60.8 200.52 60.97 210.17 61.75C210.65 61.82 210.69 61.91 210.69 62.07C210.69 62.23 210.65 62.31 210.17 62.39C200.52 63.17 196.68 63.34 195.18 63.34C194.95 63.34 194.78 63.34 194.64 63.33V64.66C195.52 64.66 195.74 64.82 196.33 66.7C197.88 77.71 196.94 86.79 196.73 89.22H197.31C198.84 89.22 200.36 89.35 201.86 89.59L294.91 104.99C294.91 104.99 298.54 105.38 296.25 115.45C295.76 116.84 295.19 116.88 295.13 116.88L194.46 121.83C194.46 121.83 192.11 136.37 190.29 136.37C188.86 136.37 187.01 124.88 187.01 124.88H164.64C164.64 124.88 165.24 209.06 162.97 212.75L198.44 225.7C198.44 225.7 202.42 226.3 199.56 237.41C199.29 238.02 198.78 238.06 198.67 238.06C198.66 238.06 198.65 238.06 198.65 238.06L159.76 236.68L157.64 236.74C157.64 236.74 154.87 242.4 150.86 242.4C150.86 242.4 150.85 243.33 150.51 243.33C150.17 243.33 150.16 242.4 150.16 242.4C146.14 242.4 143.38 236.74 143.38 236.74L141.26 236.68L102.37 238.06C102.37 238.06 102.37 238.06 102.35 238.06C102.24 238.06 101.73 238.03 101.46 237.41C98.61 226.31 102.58 225.7 102.58 225.7L138.05 212.75C135.78 209.06 135.61 124.88 135.61 124.88H114.01C114.01 124.88 112.15 136.37 110.73 136.37C108.92 136.37 106.56 121.83 106.56 121.83L5.88996 116.88C5.82996 116.88 5.25996 116.84 4.76996 115.45C2.47996 105.38 6.10996 104.99 6.10996 104.99L99.16 89.59C100.67 89.34 102.19 89.22 103.71 89.22H104.29C104.08 86.78 103.13 77.71 104.69 66.7C105.27 64.82 105.5 64.66 106.38 64.66V63.33C106.25 63.33 106.07 63.34 105.84 63.34C104.33 63.34 100.5 63.17 90.85 62.39C90.37 62.32 90.33 62.23 90.33 62.07C90.33 61.91 90.37 61.83 90.85 61.75C100.51 60.97 104.34 60.8 105.84 60.8C106.34 60.8 106.58 60.82 106.7 60.84C107.17 58.59 108.19 55.82 109.8 55.55C111.41 55.82 112.64 58.59 113.11 60.84C113.23 60.82 113.47 60.8 113.97 60.8C115.48 60.8 119.31 60.97 128.96 61.75C129.44 61.82 129.48 61.91 129.48 62.07C129.48 62.23 129.44 62.31 128.96 62.39C119.31 63.17 115.47 63.34 113.97 63.34C113.74 63.34 113.57 63.34 113.43 63.33V64.66C114.3 64.66 114.53 64.82 115.12 66.7C116.67 77.71 115.84 86.82 115.63 89.22H135.28V51.63L135.3 51.29C134.91 51.21 134.78 50.89 134.78 50.89C134.78 50.89 133.16 45.96 132.64 41.91C132.19 38.43 135.32 37.41 136.2 37.2C136.54 35.11 141.81 4 150.33 4M150.32 0C144.64 0 140.2 5.93 136.36 18.66C134.51 24.79 133.23 31.1 132.63 34.36C130.06 35.86 128.18 38.61 128.66 42.41C129.22 46.79 130.9 51.91 130.97 52.13C130.99 52.2 131.01 52.26 131.04 52.32C131.11 52.49 131.18 52.65 131.27 52.81V58.34C130.79 58.08 130.22 57.89 129.55 57.79C129.46 57.78 129.37 57.77 129.27 57.76C123.22 57.27 118.78 56.97 116.02 56.85C115.07 54.61 113.36 52.09 110.44 51.6C110.22 51.56 110 51.55 109.78 51.55C109.56 51.55 109.34 51.57 109.13 51.6C107.38 51.89 105.18 53.09 103.69 56.85C100.93 56.97 96.51 57.27 90.51 57.75C90.42 57.75 90.32 57.77 90.23 57.78C87.34 58.22 86.31 60.35 86.31 62.05C86.31 63.75 87.34 65.88 90.23 66.32C90.32 66.33 90.41 66.34 90.51 66.35C94.62 66.68 97.98 66.93 100.58 67.09C99.6 74.63 99.73 81.23 99.97 85.42C99.47 85.48 98.98 85.55 98.49 85.63L5.43996 101.05C4.68996 101.18 2.97996 101.66 1.64996 103.53C-0.240036 106.18 -0.500036 110.37 0.849964 116.34C0.879964 116.49 0.929964 116.64 0.979964 116.78C2.22996 120.32 4.69996 120.82 5.67996 120.87L103.17 125.66C103.41 126.93 103.71 128.44 104.05 129.97C105.42 136.06 106.69 140.36 110.72 140.36C114.75 140.36 115.87 135.65 116.8 131.49C117 130.59 117.19 129.69 117.35 128.87H131.62C131.65 136.01 131.74 151.7 131.98 167.48C132.38 193.77 132.93 205.03 133.5 210.14L101.34 221.88C100.48 222.14 99.08 222.81 97.97 224.48C96.05 227.38 95.92 231.93 97.58 238.39C97.63 238.6 97.7 238.8 97.79 239C98.6 240.85 100.39 242.05 102.34 242.05C102.39 242.05 102.45 242.05 102.5 242.05L141.07 240.68C142.33 242.5 144.46 244.93 147.38 245.93C148.21 246.86 149.36 247.33 150.49 247.33C151.62 247.33 152.77 246.86 153.6 245.93C156.52 244.93 158.65 242.5 159.91 240.68L198.48 242.05C198.54 242.05 198.59 242.05 198.64 242.05C200.6 242.05 202.38 240.85 203.19 239C203.28 238.8 203.35 238.6 203.4 238.39C205.06 231.94 204.93 227.39 203.01 224.48C201.9 222.81 200.5 222.14 199.64 221.88L167.46 210.13C167.99 205.01 168.45 193.75 168.62 167.44C168.72 151.68 168.66 136.02 168.62 128.87H183.63C183.79 129.69 183.97 130.59 184.18 131.49C185.11 135.65 186.16 140.36 190.26 140.36C194.36 140.36 195.56 136.05 196.93 129.97C197.27 128.44 197.57 126.93 197.81 125.66L295.3 120.87C296.28 120.82 298.75 120.32 300 116.78C300.05 116.63 300.09 116.49 300.13 116.34C301.49 110.37 301.23 106.18 299.33 103.53C298 101.66 296.29 101.17 295.54 101.05L202.49 85.65C202 85.57 201.5 85.5 201 85.44C201.24 81.25 201.37 74.65 200.39 67.11C202.99 66.95 206.35 66.7 210.46 66.37C210.55 66.37 210.64 66.35 210.74 66.34C213.63 65.9 214.66 63.77 214.66 62.07C214.66 60.37 213.63 58.24 210.74 57.8C210.65 57.79 210.56 57.78 210.46 57.77C204.46 57.29 200.04 56.99 197.28 56.87C195.8 53.11 193.59 51.91 191.85 51.62C191.63 51.58 191.41 51.57 191.19 51.57C190.97 51.57 190.75 51.59 190.54 51.62C187.62 52.1 185.92 54.63 184.96 56.87C182.2 56.99 177.76 57.29 171.71 57.78C171.62 57.78 171.53 57.8 171.43 57.81C170.32 57.98 169.49 58.39 168.88 58.94V51.64C168.88 51.56 168.88 51.47 168.88 51.39L168.35 42.99C169.48 41.98 169.71 40.75 169.71 39.9V38.28C169.71 36.41 168.78 35.04 167.55 34.31C167.01 31.17 165.93 25.41 164.31 19.59C160.59 6.23 156.15 0.01 150.31 0.01L150.32 0ZM168.9 85.23V65.22C169.51 65.77 170.34 66.18 171.45 66.35C171.54 66.36 171.63 66.37 171.73 66.38C175.84 66.71 179.2 66.96 181.8 67.12C181.03 72.99 180.8 79.06 181.1 85.23H168.9ZM119.19 67.12C121.79 66.96 125.15 66.71 129.26 66.38C129.35 66.38 129.44 66.36 129.54 66.35C130.21 66.25 130.78 66.06 131.26 65.8V85.23H119.89C120.19 79.06 119.96 72.99 119.19 67.12Z" fill="black"/>
</g>
<defs>
<clipPath id="clip0_730_47">
<rect width="300.99" height="247.33" fill="white"/>
</clipPath>
</defs>
</svg>
