<svg width="184" height="229" viewBox="0 0 184 229" fill="none" xmlns="http://www.w3.org/2000/svg">
<g clip-path="url(#clip0_322_12)">
<path d="M102.371 227.41C101.251 227.41 100.721 227.41 100.711 210.2C100.451 210.05 100.271 209.78 100.231 209.47C100.141 209.42 100.061 209.35 100.001 209.27C99.7606 209.99 99.4406 210.71 99.0406 211.42L97.3906 215.36C97.2406 216.05 96.6406 216.95 95.4406 216.95C94.1106 216.94 93.5206 216.19 93.4106 216.04C93.3706 215.98 93.3306 215.92 93.3106 215.85L91.6306 211.8V212.82C91.6306 213.11 91.5106 213.38 91.2906 213.57C91.1106 213.73 90.8706 213.82 90.6306 213.82C90.5906 213.82 90.5506 213.82 90.5006 213.82L63.0806 210.35C62.5806 210.29 62.2106 209.86 62.2106 209.36V199.58C62.2106 199.04 62.6406 198.6 63.1806 198.58C63.1806 198.58 89.1806 197.77 89.1906 197.77C89.4506 197.77 89.7006 197.87 89.8906 198.05C90.0806 198.24 90.1906 198.5 90.1906 198.77V202.29H91.2206C91.3506 201.9 91.5006 201.52 91.6706 201.14L90.5106 182.68C89.9406 182.87 89.3006 182.98 88.6406 182.98C87.2506 182.98 86.0406 182.51 85.3106 181.7C84.7206 181.04 84.4606 180.19 84.5606 179.23L87.7806 139.17L87.7406 138.51L84.2006 123.79C83.9306 123.21 81.9706 119.21 78.9706 118.88C75.8906 118.47 73.7606 117.43 72.6206 115.81C71.6006 114.36 71.7306 112.95 71.8006 112.54C71.8306 111.97 72.0206 107.77 72.3606 101C72.4506 99.3001 72.6806 97.8201 73.0706 96.5901L5.34063 115.96C5.26063 115.98 5.18063 116 5.10063 116C3.07063 116 1.49063 113.76 1.24063 111.66C1.00063 109.7 1.94063 108.22 3.68063 107.8L80.2206 86.8201L80.4206 70.8201L42.2606 6.98009C42.2206 6.91009 42.1806 6.84009 42.1606 6.76009C41.8906 5.86009 42.1306 4.82009 42.8606 3.85009C43.6906 2.73009 45.2806 1.59009 46.9506 1.59009C48.1506 1.59009 49.1406 2.19009 49.7306 3.28009L80.6006 56.2801L80.6506 52.3101C80.8006 40.5601 88.4406 21.1201 96.8706 21.1201C105.301 21.1201 110.561 40.0001 110.561 52.4901V62.3101L156.191 12.6201C156.241 12.5601 156.311 12.5101 156.381 12.4601C156.821 12.1701 157.341 12.0201 157.921 12.0201C159.721 12.0201 161.851 13.4701 162.561 15.2001C163.091 16.4601 162.841 17.7401 161.871 18.7201L110.561 73.3501V87.9601L181.791 124.72C181.861 124.76 181.931 124.8 181.991 124.86C183.021 125.76 183.241 127.5 182.571 129.28C181.881 131.12 180.511 132.26 179.021 132.26C178.471 132.26 177.931 132.11 177.401 131.81L118.201 100.41C118.221 100.69 118.241 100.98 118.251 101.27C118.511 108.04 118.651 112.25 118.671 112.82C118.731 113.23 118.841 114.64 117.811 116.08C116.651 117.69 114.511 118.7 111.451 119.07C108.431 119.37 106.421 123.34 106.141 123.92L102.421 138.59L99.3906 201.19C99.6506 201.79 99.8706 202.38 100.041 202.97C100.111 202.91 100.191 202.85 100.271 202.81C100.321 202.49 100.521 202.21 100.801 202.07C100.831 185.65 101.361 185.65 102.471 185.65C103.581 185.65 104.121 185.65 104.141 203.08C104.641 203.38 105.101 204 105.101 205.23V207.38C105.101 208.68 104.591 209.29 104.071 209.57C104.051 227.43 103.491 227.43 102.381 227.43L102.371 227.41Z" fill="white"/>
<path d="M46.9404 2.59009C47.6904 2.59009 48.3904 2.92009 48.8504 3.76009L81.5504 59.9001L81.6404 52.3201C81.7904 40.1801 89.7004 22.1101 96.8604 22.1101C96.8804 22.1101 96.9004 22.1101 96.9104 22.1101C104.09 22.1101 109.54 40.3101 109.54 52.4801V64.8701L156.91 13.2901C157.19 13.1001 157.53 13.0201 157.9 13.0201C160.07 13.0201 163.2 15.9301 161.14 18.0101L109.54 72.9501V88.5701L181.32 125.61C182.84 126.95 181.37 131.26 179.01 131.26C178.65 131.26 178.28 131.16 177.89 130.94L116.98 98.6301C117.11 99.4001 117.21 100.29 117.25 101.31C117.53 108.6 117.67 112.92 117.67 112.92C117.67 112.92 118.55 117.2 111.32 118.07C107.46 118.46 105.18 123.58 105.18 123.58L101.42 138.44L98.3704 201.38C99.0204 202.78 99.4204 204.2 99.4904 205.64H100.42L100.72 203.7H101.26V202.95H101.8V203.79C101.8 192.36 102.13 186.64 102.47 186.64C102.81 186.64 103.14 192.36 103.14 203.79H103.08C103.87 203.79 104.1 204.43 104.1 205.23V207.38C104.1 208.17 103.88 208.82 103.08 208.82H103.07V208.64L102.65 208.82H103.07C103.07 220.5 102.72 226.43 102.38 226.43C102.04 226.43 101.72 220.8 101.72 209.36H101.23V208.64H100.76L100.41 206.7H99.5004C99.4104 208.11 98.9804 209.54 98.1404 211L96.4204 215.1C96.4204 215.1 96.3104 215.98 95.4404 215.98C94.5604 215.98 94.2304 215.5 94.2304 215.5L92.4404 211.21C92.3404 210.9 92.2604 210.6 92.1704 210.3H90.6104V212.86L63.1904 209.39V199.61L89.1704 198.8V203.32H91.9404C92.1104 202.66 92.3504 202.01 92.6604 201.36L91.3804 181.04C90.7804 181.66 89.6904 182 88.6104 182C86.9604 182 85.3204 181.2 85.5204 179.36L88.7504 139.2L88.7004 138.38L85.1204 123.48C85.1204 123.48 82.9004 118.33 79.0504 117.9C71.8404 116.93 72.7704 112.67 72.7704 112.67C72.7704 112.67 72.9604 108.36 73.3304 101.07C73.4904 97.9801 74.1304 96.1501 74.8204 95.0601L5.06042 115C5.06042 115 5.03042 115 5.01042 115C2.70042 115 0.610418 109.57 3.91042 108.76L81.2004 87.5801L81.4104 70.5501L43.1204 6.47009C42.6304 4.85009 44.9804 2.59009 46.9504 2.59009M80.8704 93.4801C81.0104 93.4801 81.1304 93.3701 81.1404 93.2301L80.2804 93.4801H80.8704ZM46.9404 0.590088C45.1704 0.590088 43.2504 1.63009 42.0504 3.25009C41.1304 4.49009 40.8304 5.83009 41.2004 7.05009C41.2504 7.21009 41.3104 7.36009 41.4004 7.50009L79.4104 71.0901L79.2304 86.0501L3.41042 106.83C1.19042 107.39 -0.0495824 109.33 0.250418 111.78C0.550418 114.29 2.46042 117 5.02042 117C5.04042 117 5.12042 117 5.14042 117C5.30042 117 5.46042 116.97 5.62042 116.92L71.6804 98.0101C71.5104 98.9001 71.4004 99.8801 71.3504 100.94C71.0204 107.53 70.8204 111.73 70.7904 112.44C70.7104 113.05 70.6204 114.71 71.7904 116.37C73.1004 118.24 75.4604 119.41 78.8004 119.86C80.9404 120.1 82.6604 122.88 83.2304 124.11L86.7304 138.66L86.7604 139.16L83.5504 179.15C83.4304 180.38 83.7704 181.5 84.5504 182.37C85.4704 183.39 86.9504 183.98 88.6304 183.98C88.9504 183.98 89.2704 183.96 89.5804 183.92L90.4104 197.19C90.0604 196.92 89.6304 196.77 89.1904 196.77C89.1704 196.77 89.1504 196.77 89.1304 196.77L63.1504 197.58C62.0704 197.61 61.2104 198.5 61.2104 199.58V209.36C61.2104 210.37 61.9604 211.22 62.9604 211.34L90.3804 214.81C90.4604 214.82 90.5504 214.83 90.6304 214.83C91.0004 214.83 91.3704 214.73 91.6804 214.53L92.3904 216.24C92.4504 216.37 92.5104 216.5 92.6004 216.62C93.0404 217.25 94.0204 217.94 95.4204 217.96H95.4404C95.4804 217.96 95.5204 217.96 95.5704 217.96C97.0804 217.9 98.0704 216.83 98.3504 215.67L99.7304 212.37C99.7504 216.37 99.8204 219.75 99.9304 222.26C99.9904 223.69 100.07 224.81 100.15 225.58C100.24 226.43 100.46 228.42 102.38 228.42C104.3 228.42 104.53 226.39 104.62 225.53C104.71 224.72 104.79 223.57 104.85 222.08C104.98 219.09 105.06 214.95 105.07 210.06C105.68 209.5 106.1 208.62 106.1 207.37V205.22C106.1 204.02 105.71 203.16 105.14 202.6C105.13 197.8 105.06 193.75 104.93 190.84C104.87 189.4 104.79 188.28 104.71 187.5C104.62 186.65 104.4 184.65 102.48 184.65C101.91 184.65 101.49 184.83 101.18 185.09L103.43 138.74L107.1 124.26C107.69 123.05 109.44 120.28 111.54 120.07C114.93 119.66 117.31 118.52 118.64 116.67C119.82 115.02 119.76 113.37 119.69 112.76C119.67 112.08 119.54 108.21 119.31 102.13L176.96 132.71C177.63 133.08 178.33 133.27 179.04 133.27C180.97 133.27 182.69 131.88 183.53 129.64C184.35 127.46 184.01 125.3 182.67 124.12C182.55 124.01 182.41 123.92 182.27 123.84L111.58 87.3601V73.7501L162.63 19.4101C163.86 18.1601 164.19 16.4401 163.51 14.8301C162.64 12.7401 160.14 11.0401 157.94 11.0401C157.17 11.0401 156.44 11.2501 155.84 11.6401C155.7 11.7301 155.58 11.8401 155.47 11.9601L111.58 59.7601V52.5101C111.58 41.2101 106.55 20.1401 96.9504 20.1401H96.9004C87.7804 20.1401 79.8304 39.9101 79.6804 52.3201V52.6701L50.5904 2.77009C49.8204 1.38009 48.4904 0.590088 46.9404 0.590088Z" fill="black"/>
</g>
<defs>
<clipPath id="clip0_322_12">
<rect width="183.75" height="227.82" fill="white" transform="translate(0.200195 0.590088)"/>
</clipPath>
</defs>
</svg>
