<svg width="87" height="125" viewBox="0 0 87 125" fill="none" xmlns="http://www.w3.org/2000/svg">
<g clip-path="url(#clip0_329_17)">
<path d="M33.4802 123.015C32.9502 123.015 32.4502 122.545 32.4202 122.015L32.3202 120.155C31.6402 120.045 30.9202 119.755 30.9202 118.925C30.9202 118.155 31.5502 117.845 32.1802 117.715L31.1002 98.4951H20.9702C20.1002 98.4951 19.3902 97.7851 19.3902 96.9151V93.7051C19.3902 92.8351 20.1002 92.1251 20.9702 92.1251H30.7402C29.8502 76.3951 29.2902 66.5751 29.0602 62.8551C24.8802 72.0851 16.1302 91.3751 15.5402 92.4551C15.0802 93.2951 14.5702 94.0451 13.4202 94.0451C13.2102 94.0451 12.9602 94.0151 12.6602 93.9851C12.5002 93.9651 12.3202 93.9451 12.1102 93.9251C11.1702 93.8351 10.6902 93.3751 10.4602 93.0051C9.92023 92.1651 10.2202 91.1951 10.2902 91.0051L23.8202 61.4751C23.7102 61.5051 23.5902 61.5251 23.4702 61.5251H23.2502C22.5402 61.5251 21.9702 60.9451 21.9702 60.2451V58.1751C21.7902 57.9551 21.6902 57.6751 21.6902 57.3751V35.0551C14.7102 24.7551 3.11023 7.65511 2.51023 6.60511C1.61023 5.03511 1.90023 4.38511 2.71023 3.35511C2.81023 3.22511 2.92023 3.08511 3.05023 2.91511C3.63023 2.14511 4.28023 1.98511 4.73023 1.98511C5.71023 1.98511 6.36023 2.73511 6.49023 2.88511L22.5102 26.7051C22.6602 26.6451 22.8202 26.6151 22.9902 26.6151H23.7002C23.8602 26.6151 24.0102 26.6451 24.1402 26.6951C25.1602 15.5851 28.4002 10.1751 34.0102 10.1751C39.6202 10.1751 42.9202 15.5651 43.8502 26.6151C43.8902 26.6151 43.9202 26.6151 43.9602 26.6151H44.6702C45.3802 26.6151 45.9502 27.1951 45.9502 27.8951V41.1451C55.4102 40.2151 80.8102 37.7151 82.1702 37.6851H82.3902C84.0702 37.6851 84.4702 38.3351 84.9302 39.4151C84.9902 39.5651 85.0602 39.7351 85.1502 39.9251C85.5402 40.7751 85.3802 41.4251 85.1802 41.8151C84.7202 42.6951 83.7302 42.9251 83.5402 42.9651L45.9602 46.4951V57.3751C45.9602 57.6751 45.8502 57.9551 45.6802 58.1751V60.2451C45.6802 60.9551 45.1002 61.5251 44.4002 61.5251H44.1802C43.4702 61.5251 42.9002 60.9451 42.9002 60.2451V58.2851C42.7102 58.0651 42.6002 57.7751 42.6002 57.4651V56.0251H40.5402C40.0302 57.7451 39.4702 59.4051 38.8702 60.9651C38.7302 61.3451 38.6402 61.7251 38.6102 62.1051C38.3202 66.0651 37.2302 82.1551 36.5602 92.1251H46.6802C47.5502 92.1251 48.2602 92.8351 48.2602 93.7051V96.9151C48.2602 97.7851 47.5502 98.4951 46.6802 98.4951H38.7602C39.0002 99.6351 39.0902 102.035 39.0902 107.065V110.235C39.0902 120.215 38.8302 120.215 37.7102 120.215C36.5902 120.215 36.3502 120.215 36.3302 111.035C36.0602 110.865 35.8602 110.595 35.7702 110.285H35.3202L34.8202 117.725C35.4302 117.855 36.0302 118.175 36.0302 118.925C36.0302 119.735 35.3202 120.035 34.6602 120.145L34.5402 122.015C34.5002 122.545 34.0102 123.005 33.4802 123.005V123.015ZM35.8002 106.975C35.8802 106.715 36.0402 106.485 36.2602 106.325C36.2602 101.795 36.3602 99.5751 36.5902 98.4951H36.1202L35.5502 106.975H35.8102H35.8002ZM24.7602 59.4451L26.3202 56.0351H25.0602V57.4751C25.0602 57.7851 24.9502 58.0751 24.7602 58.2951V59.4451ZM42.6602 52.8651V47.0351C42.2902 49.0251 41.8702 50.9851 41.3902 52.8651H42.6602ZM26.3302 52.8651C25.7602 50.5251 25.3202 48.2651 24.9702 46.1651V52.8651H26.3302Z" fill="white"/>
<path d="M4.73002 2.98511C5.28002 2.98511 5.71002 3.51511 5.71002 3.51511L22.7 28.7851V27.8951C22.7 27.7351 22.83 27.6151 22.98 27.6151H23.69C23.85 27.6151 23.97 27.7451 23.97 27.8951V28.6651C23.97 28.9651 24.21 29.2051 24.51 29.2051H24.94C25.57 18.6151 27.98 11.1651 33.99 11.1651C34.02 11.1651 34.04 11.1651 34.07 11.1651C40.12 11.1651 42.48 18.6151 43 29.2051H43.11C43.41 29.2051 43.65 28.9651 43.65 28.6651V27.8951C43.65 27.7351 43.78 27.6151 43.93 27.6151H44.64C44.8 27.6151 44.92 27.7451 44.92 27.8951V42.2551C49.81 41.7751 80.72 38.7251 82.16 38.6851C82.23 38.6851 82.3 38.6851 82.36 38.6851C83.71 38.6851 83.62 39.0451 84.21 40.3451C84.83 41.6951 83.32 41.9751 83.32 41.9751L44.92 45.5851V57.3751C44.92 57.5351 44.79 57.6551 44.64 57.6551V60.2551C44.64 60.4151 44.51 60.5351 44.36 60.5351H44.14C43.98 60.5351 43.86 60.4051 43.86 60.2551V57.7551H43.84C43.68 57.7551 43.56 57.6251 43.56 57.4751V55.5851C43.56 55.2851 43.32 55.0451 43.02 55.0451H39.76C39.23 56.8851 38.62 58.7651 37.91 60.6251C37.74 61.0851 37.62 61.5651 37.59 62.0451C37.33 65.6251 36.39 79.5251 35.47 93.1451H46.66C46.98 93.1451 47.24 93.4051 47.24 93.7251V96.9351C47.24 97.2551 46.98 97.5151 46.66 97.5151H35.18C34.93 101.185 34.69 104.755 34.48 107.995H36.75V107.375C36.75 107.215 36.88 107.085 37.04 107.085H37.26C37.26 101.345 37.47 98.4751 37.67 98.4751C37.87 98.4751 38.08 101.345 38.08 107.085V110.255C38.08 116.245 37.89 119.235 37.7 119.235C37.51 119.235 37.32 116.245 37.32 110.255H37.01C36.85 110.255 36.72 110.125 36.72 109.965V109.295H34.38C34.13 113.015 33.91 116.245 33.75 118.635C35.46 118.665 35.45 119.205 33.71 119.225C33.63 120.395 33.57 121.325 33.53 121.965C33.53 122.005 33.5 122.025 33.47 122.025C33.44 122.025 33.41 122.005 33.41 121.965C33.37 121.325 33.32 120.395 33.26 119.225C31.48 119.205 31.47 118.655 33.23 118.625C32.97 113.945 32.52 106.005 32.04 97.4951H20.96C20.64 97.4951 20.38 97.2351 20.38 96.9151V93.7051C20.38 93.3851 20.64 93.1251 20.96 93.1251H31.79C31.02 79.4951 30.23 65.5751 30.01 61.9851C29.98 61.4951 29.87 61.0151 29.7 60.5551C29.59 60.2651 29.49 59.9751 29.39 59.6851C25.95 67.2951 15.29 90.8151 14.66 91.9651C14.19 92.8251 13.92 93.0351 13.42 93.0351C13.13 93.0351 12.75 92.9651 12.2 92.9151C10.72 92.7751 11.23 91.3251 11.23 91.3251L27.87 55.0151H24.6C24.3 55.0151 24.06 55.2551 24.06 55.5551V57.4451C24.06 57.6051 23.93 57.7251 23.78 57.7251H23.76V60.2251C23.76 60.3851 23.63 60.5051 23.48 60.5051H23.26C23.1 60.5051 22.98 60.3751 22.98 60.2251V57.6251C22.82 57.6251 22.7 57.4951 22.7 57.3451V34.7151C17.54 27.1451 4.00002 7.19511 3.38002 6.10511C2.60002 4.75511 2.96002 4.70511 3.85002 3.51511C4.15002 3.11511 4.45002 2.98511 4.73002 2.98511ZM42.15 44.0551L43.66 42.8251V31.0151C43.66 30.7151 43.42 30.4751 43.12 30.4751H43.06C43.1 31.7351 43.13 33.0251 43.13 34.3551C43.13 34.3551 43.03 38.3451 42.15 44.0551ZM24.83 31.9451C24.85 31.4451 24.86 30.9551 24.88 30.4751H24.52C24.31 30.4751 24.13 30.5951 24.04 30.7751L24.83 31.9551M24.52 53.8651H27.54L27.61 53.8351C25.93 47.3551 25.24 41.3651 24.96 37.7651C24.75 37.6551 24.57 37.5051 24.44 37.3151C24.32 37.1451 24.17 36.9151 23.97 36.6251V53.3151C23.97 53.6151 24.21 53.8551 24.51 53.8551M40.09 53.8651H43.11C43.41 53.8651 43.65 53.6251 43.65 53.3251V45.7051L41.84 45.8751C41.41 48.3451 40.84 51.0551 40.08 53.8651M4.73002 0.985107C4.18002 0.985107 3.12002 1.15511 2.25002 2.31511C2.13002 2.47511 2.02002 2.60511 1.93002 2.72511C0.870021 4.05511 0.52002 5.13511 1.64002 7.09511C2.26002 8.17511 13.68 25.0351 20.7 35.3551V57.3651C20.7 57.7651 20.8 58.1351 20.98 58.4651V60.2451C20.98 61.1751 21.54 61.9751 22.33 62.3351L9.42002 90.5151C9.39002 90.5751 9.37002 90.6251 9.35002 90.6851C9.26002 90.9451 8.84002 92.3251 9.62002 93.5551C9.91002 94.0151 10.61 94.7951 12.02 94.9251C12.22 94.9451 12.39 94.9651 12.54 94.9851C12.84 95.0251 13.12 95.0551 13.42 95.0551C15.26 95.0551 16.04 93.6351 16.41 92.9451C16.93 92.0051 23.18 78.2551 28.29 66.9651C28.58 71.9451 29.04 80.1051 29.67 91.1351H20.96C19.54 91.1351 18.38 92.2951 18.38 93.7151V96.9251C18.38 98.3451 19.54 99.5051 20.96 99.5051H30.15C30.53 106.335 30.89 112.655 31.13 117.035C30.1 117.525 29.91 118.365 29.91 118.935C29.91 119.545 30.14 120.455 31.35 120.925L31.37 121.245L31.42 122.085C31.48 123.175 32.39 124.035 33.48 124.035C34.57 124.035 35.46 123.185 35.54 122.115L35.62 120.935C35.85 120.845 36.04 120.735 36.21 120.625C36.53 121.015 37.01 121.255 37.71 121.255C39.77 121.255 39.87 119.235 39.97 117.105C40.05 115.445 40.09 113.075 40.09 110.275V107.105C40.09 104.415 40.04 102.145 39.96 100.545C39.94 100.205 39.92 99.8651 39.9 99.5351H46.68C48.1 99.5351 49.26 98.3751 49.26 96.9551V93.7451C49.26 92.3251 48.1 91.1651 46.68 91.1651H37.63C38.73 74.8251 39.4 65.0851 39.61 62.2151C39.63 61.9351 39.7 61.6451 39.81 61.3551C40.33 59.9851 40.83 58.5451 41.28 57.0651H41.6V57.5051C41.6 57.9151 41.71 58.3051 41.9 58.6351V60.2851C41.9 61.5451 42.92 62.5651 44.18 62.5651H44.4C45.66 62.5651 46.68 61.5451 46.68 60.2851V58.5051C46.86 58.1751 46.96 57.8051 46.96 57.4051V47.4351L83.55 43.9951C83.61 43.9951 83.67 43.9851 83.73 43.9651C84 43.9151 85.41 43.5951 86.08 42.2951C86.33 41.8151 86.66 40.8151 86.07 39.5351C85.99 39.3551 85.92 39.1951 85.86 39.0551C85.34 37.8251 84.68 36.7151 82.4 36.7151C82.32 36.7151 82.24 36.7151 82.16 36.7151C80.81 36.7451 57.16 39.0651 46.97 40.0751V27.9251C46.97 26.7051 46.01 25.7051 44.81 25.6451C44.23 19.2951 42.27 9.20511 34.11 9.20511H34.03C25.93 9.20511 23.88 19.2951 23.24 25.6451H23L7.37002 2.39511C7.34002 2.34511 7.30002 2.29511 7.26002 2.24511C7.09002 2.03511 6.16002 0.985107 4.73002 0.985107Z" fill="black"/>
</g>
<defs>
<clipPath id="clip0_329_17">
<rect width="85.42" height="123.03" fill="white" transform="translate(0.950195 0.985107)"/>
</clipPath>
</defs>
</svg>
