<svg width="231" height="216" viewBox="0 0 231 216" fill="none" xmlns="http://www.w3.org/2000/svg">
<g clip-path="url(#clip0_242_19)">
<path d="M115.35 214.28C114.38 214.28 113.73 213.75 113.32 213.1C113.23 213.13 113.14 213.14 113.04 213.14C113.02 213.14 113 213.14 112.98 213.14C111.9 213.08 86.4499 211.62 85.4699 211.54C84.7499 211.48 84.3499 211.13 84.1299 210.84C83.7099 210.28 83.7399 209.61 83.7899 209.32V204.83C83.7899 201.16 86.5199 199.69 87.9599 199.43L110.6 194.66L105.02 162.54C103.08 150.23 102.23 143.62 102.23 131.97V110.48H72.9699C72.2599 110.44 6.92985 106.9 4.24985 106.9C3.03985 106.9 2.13985 106.55 1.57985 105.86C0.969853 105.11 0.999853 104.25 1.03985 103.92V100.56C1.03985 97.94 2.24985 96.73 3.31985 96.28V94.7C3.31985 92.26 4.92985 91.39 6.43985 91.39C6.60985 91.39 6.75985 91.4 6.85985 91.41C13.5299 90.85 63.8999 86.6 72.1099 85.98C71.3499 78.87 72.0499 74.51 72.5799 72.46C60.1399 72.36 60.1399 71.62 60.1399 70.6C60.1399 69.47 60.1399 68.85 73.3699 68.84C73.8899 67.08 74.9799 64.37 76.7699 64.37C78.5599 64.37 79.4099 66.98 79.7499 68.74C92.3899 68.82 92.3899 69.57 92.3899 70.6C92.3899 71.68 92.3899 72.27 82.5899 72.27C81.6798 72.27 80.9999 72.27 80.7299 72.26C82.1799 77.47 82.0399 83.47 81.8999 85.9H102.6V24.45C102.6 16.97 106.53 9.25 108.22 6.29C111.01 1.38 114.26 1 115.19 1C115.26 1 115.32 1 115.36 1C115.41 1 115.46 1 115.53 1C116.46 1 119.71 1.38 122.5 6.29C124.19 9.26 128.11 16.97 128.11 24.45V85.9H147.97C147.83 83.47 147.69 77.47 149.14 72.26C148.92 72.26 148.21 72.27 147.28 72.27C137.48 72.27 137.48 71.68 137.48 70.6C137.48 69.52 137.48 68.82 150.12 68.74C150.46 66.98 151.27 64.37 153.1 64.37C154.93 64.37 155.98 67.08 156.5 68.84C169.74 68.84 169.74 69.48 169.74 70.6C169.74 71.61 169.74 72.36 157.3 72.46C157.82 74.51 158.53 78.87 157.77 85.98C166.04 86.59 217.11 90.85 223.86 91.41C223.96 91.4 224.11 91.39 224.28 91.39C225.79 91.39 227.4 92.26 227.4 94.7V96.28C228.48 96.73 229.69 97.94 229.69 100.56V103.92C229.73 104.25 229.76 105.11 229.15 105.86C228.59 106.55 227.69 106.9 226.48 106.9C223.8 106.9 158.47 110.44 157.81 110.48H128.49V131.97C128.49 143.63 127.64 150.23 125.7 162.52L120.11 194.65L142.78 199.43C144.2 199.69 146.92 201.15 146.92 204.83V209.32C146.96 209.62 146.99 210.28 146.58 210.84C146.37 211.13 145.96 211.48 145.24 211.54C144.25 211.62 118.81 213.08 117.73 213.14C117.71 213.14 117.69 213.14 117.67 213.14C117.58 213.14 117.48 213.13 117.39 213.1C116.97 213.75 116.32 214.28 115.36 214.28H115.35Z" fill="white"/>
<path d="M115.521 2C116.241 2 119.071 2.3 121.621 6.78C124.571 11.96 127.101 18.66 127.101 24.45V86.9H149.041C149.041 86.9 148.231 78.27 150.361 71.67C149.751 71.26 149.241 71.26 149.241 71.26C149.241 71.26 148.441 71.27 147.281 71.27C144.181 71.27 138.481 71.19 138.481 70.6C138.481 69.79 150.971 69.74 150.971 69.74C150.971 69.74 151.581 65.37 153.101 65.37C154.621 65.37 155.741 69.84 155.741 69.84C155.741 69.84 155.901 69.84 156.191 69.84C158.471 69.84 168.741 69.88 168.741 70.6C168.741 71.41 155.941 71.46 155.941 71.46C155.941 71.46 157.971 76.13 156.651 86.9C157.771 86.9 223.881 92.41 223.881 92.41C223.881 92.41 224.041 92.38 224.271 92.38C224.981 92.38 226.391 92.64 226.391 94.69V97.05C226.391 97.05 228.671 97.13 228.671 100.55V103.98C228.671 103.98 229.051 105.88 226.461 105.88C223.721 105.88 157.741 109.46 157.741 109.46H127.481V131.95C127.481 143.81 126.551 150.63 124.701 162.35L118.951 195.42L142.561 200.4C142.561 200.4 145.911 201.01 145.911 204.82V209.39C145.911 209.39 146.141 210.46 145.151 210.53C144.161 210.61 117.661 212.13 117.661 212.13L116.971 211.37C116.971 211.37 116.691 213.27 115.351 213.27C114.011 213.27 113.731 211.37 113.731 211.37L113.041 212.13C113.041 212.13 86.5406 210.61 85.5506 210.53C84.5606 210.45 84.7906 209.39 84.7906 209.39V204.82C84.7906 201.01 88.1406 200.4 88.1406 200.4L111.751 195.42L106.001 162.35C104.151 150.63 103.221 143.81 103.221 131.95V109.46H72.9606C72.9606 109.46 6.9806 105.88 4.2406 105.88C1.6506 105.88 2.0306 103.98 2.0306 103.98V100.55C2.0306 97.12 4.3106 97.05 4.3106 97.05V94.69C4.3106 92.63 5.7206 92.38 6.4306 92.38C6.6706 92.38 6.8206 92.41 6.8206 92.41C6.8206 92.41 72.0906 86.9 73.2106 86.9C71.8906 76.14 73.9206 71.46 73.9206 71.46C73.9206 71.46 61.1206 71.41 61.1206 70.6C61.1206 69.88 71.3906 69.84 73.6706 69.84C73.9606 69.84 74.1206 69.84 74.1206 69.84C74.1206 69.84 75.2406 65.37 76.7606 65.37C78.2806 65.37 78.8906 69.74 78.8906 69.74C78.8906 69.74 91.3806 69.79 91.3806 70.6C91.3806 71.19 85.6806 71.27 82.5806 71.27C81.4206 71.27 80.6206 71.26 80.6206 71.26C80.6206 71.26 80.1106 71.26 79.5006 71.67C81.6306 78.27 80.8206 86.9 80.8206 86.9H103.591V24.45C103.591 18.66 106.131 11.96 109.071 6.78C111.621 2.3 114.451 2 115.171 2C115.281 2 115.341 2 115.341 2C115.341 2 115.401 2 115.511 2M115.521 0C115.451 0 115.401 0 115.351 0C115.301 0 115.241 0 115.181 0C114.111 0 110.401 0.42 107.351 5.79C105.621 8.83 101.601 16.73 101.601 24.45V84.9H82.9506C83.0406 82.25 83.0106 77.62 82.0206 73.27C82.2006 73.27 82.3906 73.27 82.5906 73.27C84.1506 73.27 86.4006 73.25 88.2606 73.15C90.7806 73.02 93.3906 72.88 93.3906 70.6C93.3906 68.51 91.1306 68.28 89.6406 68.13C88.5606 68.02 87.0706 67.93 85.2206 67.86C83.5006 67.8 81.7706 67.76 80.5606 67.75C80.0406 65.66 78.9706 63.37 76.7706 63.37C74.6806 63.37 73.4006 65.55 72.6306 67.84C71.1106 67.84 68.7206 67.87 66.4806 67.95C61.7406 68.12 59.1306 68.21 59.1306 70.6C59.1306 72.99 61.7406 73.13 67.4606 73.33C68.8306 73.38 70.2106 73.41 71.3406 73.43C70.9006 75.75 70.5106 79.56 71.0106 85.05C60.6206 85.86 16.9706 89.54 6.8606 90.39C6.7406 90.38 6.6006 90.37 6.4306 90.37C4.3806 90.37 2.3106 91.7 2.3106 94.68V95.66C1.1306 96.39 0.0305991 97.86 0.0305991 100.55V103.85C-0.0194009 104.38 -0.0094009 105.49 0.800599 106.48C1.3206 107.12 2.3506 107.88 4.2406 107.88C6.3706 107.88 50.0506 110.22 72.8606 111.46C72.9006 111.46 72.9306 111.46 72.9706 111.46H101.231V131.95C101.231 143.68 102.081 150.31 104.031 162.66L109.461 193.86L87.7606 198.43C86.0206 198.76 82.8006 200.5 82.8006 204.81V209.23C82.7406 209.72 82.7506 210.62 83.3406 211.42C83.8206 212.06 84.5506 212.45 85.4006 212.52C86.3806 212.6 111.061 214.01 112.861 214.12C113.461 214.8 114.301 215.27 115.351 215.27C116.401 215.27 117.241 214.8 117.841 214.12C119.651 214.02 144.321 212.6 145.301 212.52C146.151 212.45 146.891 212.06 147.361 211.42C147.961 210.62 147.961 209.72 147.901 209.23V204.81C147.901 200.5 144.671 198.76 142.941 198.43L121.241 193.86L126.661 162.69C128.611 150.31 129.471 143.68 129.471 131.95V111.46H157.731C157.731 111.46 157.801 111.46 157.841 111.46C180.641 110.22 224.331 107.88 226.461 107.88C228.361 107.88 229.381 107.12 229.901 106.48C230.711 105.49 230.721 104.38 230.671 103.85V100.55C230.671 97.87 229.571 96.4 228.391 95.66V94.68C228.391 91.7 226.321 90.37 224.271 90.37C224.111 90.37 223.961 90.37 223.841 90.39C213.611 89.54 169.331 85.85 158.861 85.05C159.361 79.56 158.971 75.74 158.531 73.43C159.661 73.41 161.041 73.38 162.411 73.33C168.131 73.13 170.741 73.03 170.741 70.6C170.741 68.17 168.131 68.12 163.391 67.95C161.161 67.87 158.761 67.85 157.241 67.84C156.471 65.55 155.191 63.37 153.101 63.37C150.901 63.37 149.831 65.66 149.311 67.75C148.101 67.77 146.371 67.8 144.651 67.86C142.791 67.93 141.311 68.02 140.231 68.13C138.741 68.28 136.481 68.51 136.481 70.6C136.481 72.89 139.091 73.02 141.611 73.15C143.471 73.25 145.721 73.27 147.281 73.27C147.481 73.27 147.671 73.27 147.851 73.27C146.861 77.62 146.831 82.25 146.921 84.9H129.101V24.45C129.101 16.73 125.081 8.83 123.351 5.79C120.291 0.42 116.581 0 115.521 0Z" fill="black"/>
</g>
<defs>
<clipPath id="clip0_242_19">
<rect width="230.7" height="215.28" fill="white"/>
</clipPath>
</defs>
</svg>
