<svg width="315" height="286" viewBox="0 0 315 286" fill="none" xmlns="http://www.w3.org/2000/svg">
<g clip-path="url(#clip0_339_23)">
<path d="M157.15 283.26C156.16 283.26 155.26 282.87 154.61 282.16C153.39 280.81 153.44 278.73 153.49 278.1V269.6C153.24 269.41 152.53 269.21 151.99 269.17C149.82 268.92 100.89 263.3 98.0803 262.88C96.1703 262.59 94.9203 261.99 94.2603 261.03C93.9203 260.53 93.7503 259.95 93.7803 259.4V247.72C93.7803 243.75 96.7603 242 98.3403 241.64C98.3703 241.64 141.98 233.86 141.98 233.86C142.12 233.69 142.25 233.26 142.09 232.42C139.71 222.32 139.34 209.37 139.32 208.82V166.77C139.32 160.59 135.41 157.8 134.19 157.08H120.13C119.6 157.53 118.84 157.83 117.83 157.83C117.56 157.83 117.37 157.81 117.37 157.81C117.37 157.81 109.95 157.3 108.08 157.3C106.39 157.3 105.28 156.63 104.6 155.87L7.14033 150.27C7.14033 150.27 7.10033 150.27 7.09033 150.27C6.53033 150.27 3.69033 150.05 2.69033 145.8C2.69033 145.76 2.67033 145.71 2.66033 145.67C1.38033 137.95 1.96033 132.6 4.36033 129.76C6.00033 127.83 8.00033 127.62 8.79033 127.62C8.92033 127.62 9.03033 127.62 9.12033 127.63L105.35 118.29V106.65C105.35 103.76 105.69 100.88 106.37 98.0798C106.41 97.9098 106.45 97.7398 106.49 97.5698C103.14 97.5098 100.32 97.4098 98.2503 97.2698C94.9703 97.0598 92.8103 96.9098 92.8103 94.7298C92.8103 92.5398 95.0303 92.3998 98.3903 92.1898C100.81 92.0398 104.2 91.9298 108.26 91.8798C109.21 89.5598 110.6 87.3498 112.89 87.3498C115.18 87.3498 116.6 89.5498 117.64 91.8598C122.17 91.8898 125.97 91.9898 128.7 92.1598C132.42 92.3798 134.67 92.5198 134.67 94.7398C134.67 96.9498 132.36 97.0998 128.86 97.3098C126.53 97.4498 123.38 97.5498 119.65 97.5998C120.54 100.75 120.99 104.05 120.99 107.4V116.47L138.54 114.54C139.37 114.45 139.99 113.75 139.99 112.92V43.8298C139.99 26.8998 148.86 2.83984 157.14 2.83984C165.42 2.83984 174.29 26.8998 174.29 43.8298V112.9C174.29 113.73 174.91 114.43 175.74 114.52L193.29 116.45V107.38C193.29 104.03 193.74 100.73 194.63 97.5798C190.89 97.5298 187.74 97.4298 185.42 97.2898C181.92 97.0698 179.61 96.9298 179.61 94.7198C179.61 92.4998 181.86 92.3598 185.58 92.1398C188.31 91.9798 192.11 91.8698 196.64 91.8398C197.67 89.5298 199.13 87.3298 201.39 87.3298C203.65 87.3298 205.07 89.5398 206.02 91.8598C210.08 91.9098 213.47 92.0198 215.89 92.1698C219.25 92.3798 221.47 92.5298 221.47 94.7098C221.47 96.8898 219.31 97.0298 216.03 97.2498C213.96 97.3898 211.15 97.4898 207.79 97.5498C207.83 97.7198 207.87 97.8898 207.91 98.0598C208.59 100.86 208.93 103.74 208.93 106.64V118.28L305.16 127.62C305.25 127.62 305.37 127.61 305.49 127.61C306.28 127.61 308.28 127.82 309.92 129.75C312.33 132.59 312.9 137.94 311.62 145.66C311.62 145.7 311.6 145.75 311.59 145.79C310.59 150.05 307.75 150.26 307.19 150.26C307.18 150.26 307.16 150.26 307.14 150.26L209.68 155.86C209 156.62 207.89 157.29 206.2 157.29C204.37 157.29 197.24 157.78 196.85 157.81C196.85 157.81 196.68 157.83 196.45 157.83C195.44 157.83 194.68 157.53 194.15 157.08H180.09C178.89 157.79 174.96 160.58 174.96 166.77V208.77C174.94 209.37 174.57 222.33 172.17 232.51C172.03 233.27 172.17 233.69 172.3 233.86C172.3 233.86 215.9 241.63 215.94 241.64C217.52 242.01 220.5 243.75 220.5 247.72V259.4C220.54 259.95 220.37 260.53 220.02 261.03C219.36 261.99 218.11 262.59 216.2 262.88C213.39 263.3 164.47 268.93 162.39 269.17C162.36 269.17 162.32 269.17 162.29 269.17C161.75 269.21 161.05 269.42 160.8 269.6V278.07C160.87 278.74 160.95 280.76 159.77 282.11C159.11 282.86 158.18 283.27 157.14 283.27L157.15 283.26Z" fill="white"/>
<path d="M157.15 4.83984C163.18 4.83984 172.3 26.3998 172.3 43.8298V112.9C172.3 114.75 173.69 116.31 175.53 116.51L195.3 118.68V107.38C195.3 104.14 195.75 100.9 196.66 97.7898C196.89 97.0098 197.12 96.2798 197.35 95.5998C176.17 95.4798 176.38 93.9098 197.99 93.8198C199.12 90.9298 200.25 89.3198 201.4 89.3198C202.47 89.3198 203.55 90.7298 204.64 93.8398C224.24 94.0298 224.42 95.3698 205.2 95.5798C205.46 96.4598 205.72 97.4398 205.99 98.5198C206.63 101.17 206.95 103.9 206.95 106.62V120.07L305.19 129.61C305.19 129.61 305.31 129.59 305.52 129.59C306.91 129.59 312.12 130.55 309.68 145.32C309.03 148.09 307.56 148.25 307.23 148.25C307.18 148.25 307.16 148.25 307.16 148.25L208.59 153.91C208.59 153.91 208.2 155.28 206.24 155.28C204.28 155.28 196.74 155.81 196.74 155.81C196.74 155.81 196.64 155.82 196.49 155.82C196.07 155.82 195.27 155.73 195.27 155.07H179.63C179.63 155.07 173 158.14 173 166.76V208.76C173 208.76 172.65 221.94 170.27 232.04C169.69 235.07 171.64 235.76 171.64 235.76L215.53 243.58C215.53 243.58 218.55 244.28 218.55 247.72V259.5C218.55 259.5 218.76 260.48 215.96 260.9C213.16 261.32 162.21 267.18 162.21 267.18C162.21 267.18 158.84 267.39 158.84 269.49V278.18C158.84 278.18 159.24 281.27 157.17 281.27C155.1 281.27 155.5 278.18 155.5 278.18V269.49C155.5 267.39 152.13 267.18 152.13 267.18C152.13 267.18 101.19 261.33 98.3802 260.9C95.5802 260.48 95.7902 259.5 95.7902 259.5V247.72C95.7902 244.28 98.8102 243.58 98.8102 243.58L142.7 235.76C142.7 235.76 144.65 235.08 144.07 232.04C141.69 221.94 141.34 208.76 141.34 208.76V166.76C141.34 158.14 134.71 155.07 134.71 155.07H119.07C119.07 155.73 118.27 155.82 117.85 155.82C117.7 155.82 117.6 155.81 117.6 155.81C117.6 155.81 110.06 155.28 108.1 155.28C106.14 155.28 105.75 153.91 105.75 153.91L7.18017 148.25C7.18017 148.25 7.15017 148.25 7.11017 148.25C6.77017 148.25 5.31017 148.09 4.66017 145.32C2.22017 130.55 7.43017 129.59 8.82017 129.59C9.03017 129.59 9.15017 129.61 9.15017 129.61L107.39 120.07V106.62C107.39 103.89 107.71 101.17 108.35 98.5198C108.61 97.4298 108.87 96.4598 109.14 95.5798C89.9202 95.3698 90.1002 94.0298 109.7 93.8398C110.79 90.7398 111.87 89.3198 112.94 89.3198C114.08 89.3198 115.22 90.9298 116.35 93.8198C137.96 93.9098 138.17 95.4798 116.99 95.5998C117.22 96.2798 117.45 97.0098 117.68 97.7898C118.59 100.9 119.04 104.14 119.04 107.38V118.68L138.81 116.51C140.65 116.31 142.04 114.75 142.04 112.9V43.8298C142.04 26.4098 151.16 4.83984 157.19 4.83984M157.15 0.839844C151.08 0.839844 146.43 9.24984 143.6 16.3098C140.09 25.0598 138 35.3398 138 43.8198V112.56L123 114.21V107.38C123 104.72 122.73 102.09 122.2 99.5398C124.88 99.4898 127.19 99.3998 129 99.2898C130.42 99.1998 131.49 99.0998 132.29 98.9798C136.26 98.3898 136.68 95.7998 136.68 94.7198C136.68 93.3698 136.1 91.0198 132.24 90.4498C131.42 90.3298 130.3 90.2298 128.83 90.1398C126.33 89.9898 122.93 89.8898 118.92 89.8498C117.79 87.7198 115.91 85.3298 112.91 85.3298C109.87 85.3298 108.05 87.7198 106.97 89.8798C103.44 89.9398 100.47 90.0398 98.2802 90.1798C96.9402 90.2698 95.9102 90.3598 95.1602 90.4798C91.2502 91.0698 90.8302 93.6398 90.8302 94.7198C90.8302 95.7998 91.2502 98.3699 95.1202 98.9598C95.8502 99.0698 96.8402 99.1698 98.1402 99.2498C99.7102 99.3498 101.7 99.4398 104.03 99.4998C103.59 101.85 103.36 104.24 103.36 106.64V116.46L9.09017 125.61C9.00017 125.61 8.90017 125.61 8.80017 125.61C6.55017 125.61 4.38017 126.65 2.85017 128.46C0.000169992 131.79 -0.69983 137.53 0.69017 145.97C0.70017 146.06 0.72017 146.14 0.74017 146.23C1.78017 150.67 4.70017 152.25 7.09017 152.25L103.74 157.8C104.8 158.68 106.26 159.27 108.07 159.27C109.4 159.27 114.27 159.58 117.25 159.78C117.38 159.79 117.58 159.8 117.82 159.8C119 159.8 119.98 159.52 120.77 159.05H133.6C134.84 159.91 137.31 162.19 137.31 166.74V208.74C137.31 208.74 137.31 208.81 137.31 208.85C137.32 209.39 137.68 221.91 139.97 232.16L98.0802 239.62C98.0102 239.63 97.9402 239.65 97.8802 239.66C94.9402 240.34 91.7702 243.15 91.7702 247.69V259.33C91.7302 260.3 92.0202 261.3 92.6002 262.14C93.5902 263.57 95.2802 264.45 97.7702 264.83C100.55 265.25 147.65 270.66 151.47 271.1V278C151.4 279.04 151.43 281.63 153.11 283.48C154.14 284.62 155.57 285.24 157.13 285.24C158.69 285.24 160.22 284.59 161.27 283.4C162.9 281.54 162.89 279.04 162.8 277.95V271.1C166.62 270.66 213.72 265.24 216.51 264.83C219 264.46 220.69 263.58 221.68 262.14C222.26 261.3 222.55 260.3 222.51 259.33V247.69C222.51 243.15 219.34 240.34 216.4 239.66C216.33 239.64 216.26 239.63 216.2 239.62L174.31 232.16C176.6 221.91 176.96 209.39 176.97 208.85C176.97 208.81 176.97 208.78 176.97 208.74V166.74C176.97 162.18 179.44 159.91 180.68 159.05H193.51C194.3 159.52 195.28 159.8 196.46 159.8C196.7 159.8 196.9 159.79 197.03 159.78C200.01 159.57 204.88 159.27 206.21 159.27C208.03 159.27 209.48 158.67 210.54 157.8L307.19 152.25C309.58 152.25 312.5 150.67 313.54 146.23C313.56 146.14 313.58 146.06 313.59 145.97C314.99 137.52 314.28 131.79 311.44 128.44C309.9 126.63 307.73 125.59 305.49 125.59C305.39 125.59 305.29 125.59 305.2 125.59L210.93 116.44V106.62C210.93 104.22 210.71 101.83 210.26 99.4798C212.58 99.4198 214.58 99.3398 216.15 99.2298C217.45 99.1398 218.44 99.0498 219.17 98.9398C223.04 98.3498 223.46 95.7798 223.46 94.6998C223.46 93.6198 223.04 91.0498 219.13 90.4598C218.37 90.3498 217.35 90.2498 216.01 90.1598C213.82 90.0198 210.85 89.9198 207.32 89.8598C206.25 87.6998 204.42 85.3098 201.38 85.3098C198.39 85.3098 196.5 87.6998 195.37 89.8298C191.35 89.8698 187.96 89.9698 185.46 90.1198C183.99 90.2098 182.88 90.3098 182.05 90.4298C178.19 90.9998 177.61 93.3498 177.61 94.6998C177.61 95.7798 178.04 98.3699 182 98.9598C182.8 99.0798 183.87 99.1798 185.29 99.2698C187.1 99.3798 189.41 99.4698 192.09 99.5198C191.56 102.08 191.29 104.7 191.29 107.36V114.19L176.29 112.54V43.8298C176.29 35.3498 174.2 25.0598 170.69 16.3198C167.86 9.25984 163.22 0.849844 157.14 0.849844L157.15 0.839844Z" fill="black"/>
</g>
<defs>
<clipPath id="clip0_339_23">
<rect width="314.3" height="284.43" fill="white" transform="translate(0 0.839844)"/>
</clipPath>
</defs>
</svg>
