<svg width="181" height="188" viewBox="0 0 181 188" fill="none" xmlns="http://www.w3.org/2000/svg">
<g clip-path="url(#clip0_358_7)">
<path d="M90.19 186.97C88.28 186.97 87.54 184.29 87.27 182.58C83.16 183.09 67.55 185.02 65.22 185.43C64.86 185.49 64.51 185.53 64.17 185.53C62.05 185.53 60.88 184.26 60.52 183.51C60.46 183.38 60.42 183.23 60.42 183.08V179.22C60.42 175.61 63.51 173.77 65.2 173.28C66.25 172.85 82.29 166.28 86.62 164.59C86.68 164.57 86.71 164.51 86.69 164.45C86.09 161.99 85.5 159.34 84.92 156.56C82.79 156.97 78.95 157.71 76.97 158.08C76.37 158.19 75.83 158.25 75.36 158.25C73.17 158.25 72.86 157.02 72.82 156.77C72.82 156.72 72.81 156.66 72.81 156.61V154.48C72.81 152.85 74.2 151.81 74.36 151.69L82.98 146.11C82.49 143.19 82.03 140.24 81.63 137.34C81.08 133.45 80.8 129.46 80.8 125.49V95.06C80.03 93.45 79.09 93.08 78.85 93.01H62.81C59.8 93.01 56.77 92.77 53.81 92.3L6.90997 84.87C6.55997 84.81 3.56997 84.26 2.25997 83.65C1.67997 83.38 1.27997 82.84 1.18997 82.2C-0.120026 73.45 5.50997 72.14 5.56997 72.12C5.61997 72.11 5.66997 72.1 5.72997 72.1L50.32 69.64C51.04 69.6 51.72 69.42 52.37 69.11C52.83 68.89 53.38 68.62 53.95 68.33C54.93 67.84 55.97 67.33 56.71 66.99C57.14 66.79 58.57 66.48 59.62 66.27L59.9 60.82H58.75C58.2 60.82 57.75 60.37 57.75 59.82C57.75 57.38 59.06 56.24 60.16 55.71L60.27 53.59C60.27 53.59 60.3 53.27 60.36 52.86C49.06 52.76 49.06 52.36 49.06 51.28C49.06 50.2 49.06 49.78 61.24 49.69C62.15 47.65 63.37 47.19 64.28 47.19C65.54 47.19 66.61 48.03 67.49 49.69C79.44 49.78 79.44 50.2 79.44 51.28C79.44 52.33 79.44 52.75 68.61 52.86C68.78 53.67 68.88 54.5 68.91 55.35V55.67C70.51 56.4 71.41 57.88 71.41 59.82C71.41 60.37 70.96 60.82 70.41 60.82H69.09L69.27 66.06L80.73 65.58V36.77C80.73 12.37 86.37 1.01001 90.18 1.01001C93.99 1.01001 99.63 12.38 99.63 36.77V65.58L111.09 66.06L111.27 60.82H109.95C109.4 60.82 108.95 60.37 108.95 59.82C108.95 57.88 109.85 56.4 111.44 55.67V55.35C111.48 54.5 111.58 53.66 111.75 52.86C100.92 52.75 100.92 52.33 100.92 51.28C100.92 50.2 100.92 49.78 112.87 49.69C113.75 48.03 114.82 47.19 116.08 47.19C116.99 47.19 118.21 47.64 119.12 49.69C131.3 49.78 131.3 50.2 131.3 51.28C131.3 52.37 131.3 52.76 120 52.86C120.06 53.26 120.09 53.52 120.09 53.54L120.2 55.71C121.3 56.24 122.61 57.38 122.61 59.82C122.61 60.37 122.16 60.82 121.61 60.82H120.46L120.74 66.27C121.79 66.48 123.22 66.8 123.65 66.99C124.39 67.32 125.43 67.84 126.42 68.33C126.99 68.61 127.54 68.88 127.99 69.1C128.63 69.41 129.32 69.59 130.04 69.63L174.63 72.09C174.68 72.09 174.73 72.09 174.79 72.11C174.85 72.12 180.48 73.44 179.17 82.19C179.08 82.83 178.67 83.37 178.1 83.64C176.79 84.25 173.81 84.8 173.47 84.85L126.55 92.28C123.59 92.75 120.56 92.99 117.55 92.99H101.5C101.3 93.05 100.34 93.41 99.56 95.05V125.48C99.56 129.45 99.28 133.43 98.73 137.33C98.32 140.24 97.87 143.19 97.38 146.1L105.96 151.65C106.16 151.79 107.54 152.83 107.54 154.46V156.59C107.54 156.64 107.54 156.7 107.53 156.75C107.49 157 107.18 158.23 104.99 158.23C104.52 158.23 103.98 158.17 103.38 158.06C101.41 157.69 97.56 156.95 95.43 156.54C94.86 159.32 94.26 161.98 93.66 164.43C93.64 164.49 93.67 164.55 93.73 164.57C98.06 166.26 114.09 172.83 115.15 173.26C116.84 173.75 119.93 175.58 119.93 179.2V183.06C119.93 183.21 119.9 183.36 119.83 183.49C119.47 184.24 118.3 185.51 116.18 185.51C115.84 185.51 115.49 185.48 115.13 185.41C112.8 185 97.19 183.07 93.08 182.56C92.81 184.27 92.07 186.95 90.16 186.95L90.19 186.97Z" fill="white"/>
<path d="M90.19 2C92.6 2 98.64 11.5 98.64 36.76V65.73C98.64 66.18 98.99 66.55 99.44 66.56L112.07 67.09L112.34 59.17C111.76 59.36 111.76 59.81 111.76 59.81H109.97C109.97 57.51 111.39 56.67 112.44 56.36L112.47 55.37C112.51 54.18 112.71 52.99 113.07 51.86C98.09 51.75 98.24 50.77 113.52 50.67C114.1 49.38 114.95 48.18 116.1 48.18C117.25 48.18 118.01 49.39 118.46 50.67C134.15 50.77 134.27 51.75 118.81 51.86C119.04 52.84 119.12 53.63 119.12 53.63L119.26 56.39C120.3 56.72 121.63 57.57 121.63 59.81H119.84C119.84 59.81 119.84 59.44 119.4 59.23L119.8 67.1C119.8 67.1 122.75 67.67 123.26 67.9C124.42 68.42 126.34 69.41 127.58 70C128.34 70.37 129.16 70.58 130.01 70.62L174.6 73.08C174.6 73.08 179.39 74.11 178.2 82.03C178.16 82.33 177.97 82.6 177.69 82.72C176.46 83.3 173.31 83.86 173.31 83.86L126.41 91.29C123.48 91.75 120.53 91.99 117.57 91.99H101.42C101.42 91.99 99.73 92.23 98.58 94.83V125.47C98.58 129.39 98.31 133.3 97.76 137.18C97.4 139.76 96.91 142.99 96.3 146.58L105.44 152.49C105.44 152.49 106.57 153.29 106.57 154.46V156.59C106.57 156.59 106.47 157.22 105.02 157.22C104.64 157.22 104.17 157.18 103.59 157.07C101.26 156.64 96.31 155.68 94.68 155.36C94.1 158.26 93.45 161.24 92.73 164.19C92.6 164.74 92.88 165.3 93.41 165.5C97.91 167.25 114.86 174.2 114.86 174.2C114.86 174.2 118.96 175.33 118.96 179.19V183.05C118.96 183.05 118.27 184.5 116.21 184.5C115.94 184.5 115.65 184.48 115.34 184.42C112.6 183.94 92.25 181.44 92.25 181.44C92.25 181.44 91.85 185.95 90.2 185.95C88.55 185.95 88.15 181.44 88.15 181.44C88.15 181.44 67.79 183.93 65.06 184.42C64.74 184.48 64.45 184.5 64.19 184.5C62.14 184.5 61.44 183.05 61.44 183.05V179.19C61.44 175.33 65.54 174.2 65.54 174.2C65.54 174.2 82.5 167.25 86.99 165.5C87.52 165.29 87.8 164.73 87.67 164.19C86.95 161.24 86.3 158.27 85.72 155.36C84.09 155.68 79.14 156.63 76.81 157.07C76.23 157.18 75.76 157.22 75.38 157.22C73.93 157.22 73.83 156.59 73.83 156.59V154.46C73.83 153.29 74.96 152.49 74.96 152.49L84.1 146.58C83.49 142.99 83 139.76 82.64 137.18C82.09 133.3 81.82 129.39 81.82 125.47V94.83C80.67 92.23 78.98 91.99 78.98 91.99H62.83C59.87 91.99 56.91 91.76 53.99 91.29L7.08998 83.86C7.08998 83.86 3.93998 83.3 2.70998 82.72C2.43998 82.59 2.24998 82.33 2.19998 82.03C1.01998 74.11 5.79998 73.08 5.79998 73.08L50.39 70.62C51.23 70.57 52.06 70.36 52.82 70C54.06 69.41 55.98 68.42 57.14 67.9C57.65 67.67 60.6 67.1 60.6 67.1L61 59.23C60.56 59.44 60.56 59.81 60.56 59.81H58.77C58.77 57.57 60.1 56.72 61.14 56.39L61.28 53.63C61.28 53.63 61.36 52.84 61.59 51.86C46.13 51.75 46.24 50.77 61.94 50.67C62.39 49.39 63.13 48.18 64.3 48.18C65.47 48.18 66.3 49.38 66.88 50.67C82.16 50.76 82.32 51.75 67.33 51.86C67.69 52.99 67.89 54.18 67.93 55.37L67.96 56.36C69.01 56.67 70.43 57.5 70.43 59.81H68.64C68.64 59.81 68.64 59.36 68.06 59.17L68.33 67.09L80.96 66.56C81.41 66.54 81.76 66.17 81.76 65.73V36.76C81.76 11.49 87.8 2 90.21 2M90.19 0C85.05 0 79.74 13.75 79.74 36.76V49.69C78.92 49.07 77.45 48.99 75.66 48.89C73.78 48.78 71.18 48.71 68.07 48.68C66.81 46.64 65.35 46.18 64.28 46.18C63.21 46.18 61.71 46.65 60.61 48.68C57.46 48.71 54.82 48.78 52.91 48.89C50.09 49.04 48.06 49.16 48.05 51.27C48.05 53.38 50.05 53.49 52.82 53.65C54.45 53.74 56.64 53.81 59.24 53.84L59.18 55.09C57.61 56.06 56.74 57.72 56.74 59.81C56.74 60.91 57.64 61.81 58.74 61.81H58.84L58.66 65.44C57.44 65.7 56.65 65.91 56.3 66.07C55.54 66.41 54.51 66.92 53.52 67.42C52.95 67.7 52.4 67.98 51.94 68.2C51.41 68.45 50.85 68.6 50.27 68.63L5.67998 71.09C5.57998 71.09 5.46998 71.11 5.36998 71.13C3.07998 71.62 -0.940023 74.6 0.209977 82.33C0.349977 83.3 0.969977 84.13 1.84998 84.54C3.23998 85.19 6.15998 85.73 6.72998 85.84L53.67 93.28C56.69 93.76 59.77 94 62.83 94H78.68C78.89 94.1 79.36 94.42 79.82 95.29V125.48C79.82 129.49 80.1 133.53 80.66 137.47C81.04 140.17 81.46 142.91 81.91 145.62L73.88 150.81C73.88 150.81 73.83 150.84 73.8 150.86C73.6 151 71.84 152.32 71.84 154.46V156.59C71.84 156.7 71.84 156.8 71.87 156.91C71.91 157.15 72.33 159.23 75.4 159.23C75.93 159.23 76.53 159.17 77.19 159.05C78.88 158.74 81.93 158.15 84.18 157.72C84.63 159.89 85.1 161.97 85.57 163.94C80.49 165.95 66.24 171.78 64.9 172.33C62.94 172.92 59.45 175.04 59.45 179.21V183.07C59.45 183.37 59.52 183.66 59.65 183.93C60.11 184.89 61.58 186.52 64.2 186.52C64.59 186.52 65.01 186.48 65.42 186.41C67.58 186.03 81.36 184.32 86.49 183.68C86.94 185.67 87.96 187.96 90.22 187.96C92.48 187.96 93.49 185.67 93.95 183.68C99.08 184.31 112.86 186.02 115.02 186.41C115.44 186.48 115.85 186.52 116.24 186.52C118.86 186.52 120.33 184.89 120.79 183.93C120.92 183.66 120.99 183.37 120.99 183.07V179.21C120.99 175.04 117.5 172.92 115.54 172.33C114.2 171.78 99.96 165.95 94.87 163.94C95.34 161.97 95.81 159.89 96.26 157.72C98.5 158.15 101.55 158.74 103.25 159.05C103.91 159.17 104.51 159.23 105.04 159.23C108.11 159.23 108.53 157.15 108.57 156.91C108.59 156.81 108.59 156.7 108.59 156.59V154.46C108.59 152.33 106.83 151 106.63 150.86C106.6 150.84 106.58 150.82 106.55 150.81L98.52 145.62C98.97 142.9 99.39 140.17 99.77 137.47C100.32 133.53 100.61 129.5 100.61 125.48V95.29C101.07 94.42 101.54 94.1 101.75 94H117.6C120.66 94 123.74 93.76 126.76 93.28L173.66 85.85C174.27 85.74 177.18 85.2 178.58 84.55C179.46 84.14 180.07 83.31 180.22 82.34C181.38 74.61 177.35 71.63 175.06 71.14C174.96 71.12 174.85 71.1 174.75 71.1L130.16 68.64C129.58 68.61 129.02 68.46 128.49 68.21C128.03 67.99 127.48 67.72 126.91 67.43C125.92 66.94 124.89 66.43 124.13 66.08C123.78 65.92 122.99 65.71 121.77 65.45L121.59 61.82H121.69C122.79 61.82 123.69 60.92 123.69 59.82C123.69 57.73 122.82 56.07 121.25 55.1L121.19 53.85C123.79 53.81 125.98 53.75 127.61 53.66C130.38 53.5 132.38 53.39 132.38 51.28C132.38 49.17 130.34 49.06 127.52 48.9C125.62 48.8 122.97 48.72 119.82 48.69C118.72 46.66 117.26 46.19 116.15 46.19C115.04 46.19 113.62 46.66 112.36 48.69C109.25 48.72 106.65 48.79 104.77 48.9C102.98 49 101.5 49.08 100.69 49.7V36.77C100.69 13.76 95.38 0.01 90.24 0.01L90.19 0ZM69.8 53.84C72.21 53.8 74.25 53.74 75.78 53.65C77.47 53.55 78.93 53.47 79.75 52.85V64.62L70.25 65.02L70.14 61.82H70.42C71.52 61.82 72.42 60.92 72.42 59.82C72.42 57.72 71.5 56.03 69.91 55.06C69.89 54.65 69.85 54.25 69.8 53.84ZM100.64 64.62V52.85C101.46 53.47 102.92 53.55 104.61 53.65C106.14 53.74 108.18 53.8 110.59 53.84C110.54 54.24 110.5 54.65 110.48 55.06C108.88 56.03 107.97 57.72 107.97 59.82C107.97 60.92 108.87 61.82 109.97 61.82H110.25L110.14 65.02L100.64 64.62Z" fill="#231F20"/>
</g>
<defs>
<clipPath id="clip0_358_7">
<rect width="180.39" height="187.97" fill="white"/>
</clipPath>
</defs>
</svg>
