<svg width="107" height="92" viewBox="0 0 107 92" fill="none" xmlns="http://www.w3.org/2000/svg">
<g clip-path="url(#clip0_705_48)">
<path d="M52.79 90.57C51.52 90.55 51.14 88.95 51.04 88.26C51.04 88.21 51.03 88.15 51.03 88.1L51.06 86.68C50.9 86.72 50.73 86.73 50.57 86.73L47.09 86.67C45.97 86.65 44.91 85.93 44.4 85.52L38.18 85.4C35.27 85.35 34.19 82.99 34.03 81.75C34.03 81.7 34.03 81.65 34.03 81.6L34.09 78.11C34.14 75.59 36.26 74.56 37.38 74.37C37.54 74.35 46.09 73.49 49.38 73.2C47.72 65.07 47.01 53.6 46.82 50.22V50.14L5.91 43.58C5.32 45.1 4.59 46.36 3.45 46.36C2.22 46.36 1.69 44.92 1.52 44.44C1.16 43.45 0.990002 42.38 1.01 41.24L1.2 30.93C1.29 26.16 2.35 23.42 4.1 23.42C4.41 23.42 4.88 23.52 5.33 23.97C6.47 25.13 6.74 27.91 6.78 29.97L41.17 28.81C41.46 28.81 41.74 28.73 42 28.61L46.44 26.54C46.51 26.51 46.55 26.44 46.55 26.36C46.64 23.85 47.58 12.42 49.92 7.95997C49.68 7.95997 49.44 7.96997 49.17 7.96997C47.19 7.96997 45.15 7.72997 43.12 7.26997C42.48 7.11997 42.05 6.56997 42.07 5.92997C42.09 5.28997 42.55 4.76997 43.2 4.65997C44.87 4.37997 46.53 4.23997 48.13 4.23997C49.42 4.23997 50.47 4.32997 51.24 4.43997C51.67 2.09997 52.45 0.969971 53.62 0.969971C54.79 0.969971 55.58 2.14997 55.97 4.48997C56.64 4.40997 57.52 4.34997 58.59 4.34997C60.34 4.34997 62.16 4.51997 64 4.86997C64.64 4.98997 65.1 5.51997 65.11 6.15997C65.11 6.79997 64.67 7.33997 64.03 7.47997C62.15 7.86997 60.27 8.06997 58.43 8.06997C57.99 8.06997 57.59 8.05997 57.22 8.03997C59.48 12.55 60.21 23.98 60.25 26.5C60.25 26.58 60.29 26.64 60.36 26.68L64.76 28.83C65.02 28.96 65.3 29.03 65.59 29.05L99.95 30.85C100.09 26.7 101.08 24.34 102.72 24.34C104.49 24.34 105.51 27.1 105.51 31.9V42.21C105.51 43.35 105.32 44.42 104.94 45.4C104.76 45.87 104.21 47.28 103 47.28C101.79 47.28 101.13 46 100.56 44.45L62.2 49.87C62.24 50.03 62.26 50.2 62.26 50.38V52C62.26 53.07 61.5 53.65 60.79 53.65C60.34 53.65 59.87 53.42 59.58 52.97C59.5 52.97 59.41 52.97 59.33 52.97C58.89 58.14 58.01 66.75 56.55 73.26C59.84 73.61 68.37 74.63 68.46 74.64C69.64 74.86 71.75 75.93 71.75 78.45V81.94C71.75 81.94 71.75 82.04 71.74 82.09C71.55 83.32 70.43 85.66 67.52 85.66H61.3C60.78 86.06 59.7 86.76 58.59 86.76H55.15C54.97 86.76 54.79 86.74 54.61 86.7V88.12C54.61 88.18 54.61 88.23 54.6 88.28C54.49 88.96 54.08 90.55 52.81 90.55H52.79V90.57Z" fill="white"/>
<path d="M53.61 2C53.61 2 53.61 2 53.62 2C54.44 2 54.92 3.88 55.11 5.65C55.69 5.54 56.89 5.37 58.59 5.37C60.01 5.37 61.78 5.49 63.82 5.87C64.2 5.94 64.21 6.43 63.82 6.51C61.73 6.95 59.89 7.08 58.42 7.08C56.95 7.08 55.76 6.93 55.19 6.84C55.19 6.97 55.19 7.1 55.19 7.22C57.19 7.22 59.12 18.77 59.24 26.53C59.24 26.98 59.5 27.39 59.91 27.59L64.31 29.74C64.69 29.93 65.1 30.03 65.53 30.06L100.92 31.91C100.92 27.54 101.81 25.35 102.71 25.35C103.61 25.35 104.5 27.54 104.5 31.91V42.22C104.5 43.18 104.34 44.15 104 45.05C103.67 45.91 103.33 46.29 102.99 46.29C102.42 46.29 101.83 45.19 101.23 43.36L59.17 49.3C58.84 49.35 58.58 49.62 58.56 49.96C58.56 50.05 58.55 50.16 58.54 50.27C58.54 50.33 58.54 50.4 58.53 50.46C59.18 50.44 60.31 50.4 60.32 50.4C60.32 49.96 60.56 49.75 60.79 49.75C61.02 49.75 61.26 49.97 61.26 50.4V52.02C61.26 52.46 61.02 52.67 60.79 52.67C60.56 52.67 60.32 52.45 60.32 52.02C60.32 52.02 59.03 51.98 58.41 51.95C58.04 56.59 57.09 66.58 55.44 73.63C55.37 73.91 55.56 74.18 55.85 74.21C58.55 74.48 68.34 75.65 68.34 75.65C68.34 75.65 70.75 76.11 70.75 78.47V81.96C70.75 81.96 70.34 84.68 67.52 84.68H60.94C60.94 84.68 59.71 85.78 58.58 85.78H55.14C54.62 85.78 54.15 85.47 53.96 84.99L53.61 84.14V88.14C53.61 88.14 53.37 89.58 52.81 89.58C52.25 89.57 52.03 88.13 52.03 88.13L52.1 84.13L51.73 84.97C51.53 85.44 51.06 85.74 50.56 85.74H50.54L47.1 85.68C45.97 85.66 44.76 84.53 44.76 84.53C44.76 84.53 41 84.46 38.18 84.41C35.36 84.36 35 81.63 35 81.63C35 81.63 35.02 80.5 35.07 78.14C35.11 75.78 37.53 75.37 37.53 75.37C37.53 75.37 47.34 74.38 50.04 74.17C50.33 74.15 50.52 73.88 50.46 73.6C48.72 65.48 47.98 53.51 47.8 50.19C47.8 50.08 47.79 49.97 47.78 49.88C47.76 49.54 47.51 49.27 47.18 49.21L5.23999 42.48C4.60999 44.29 4.00999 45.38 3.43999 45.38C3.09999 45.38 2.75999 44.99 2.44999 44.12C2.11999 43.22 1.97999 42.25 1.99999 41.28L2.18999 30.97C2.26999 26.61 3.19999 24.44 4.08999 24.44C4.98999 24.44 5.84999 26.64 5.76999 31.03L41.19 29.84C41.61 29.83 42.03 29.73 42.41 29.55L46.85 27.48C47.26 27.29 47.53 26.89 47.54 26.43C47.8 18.68 49.94 7.19 51.94 7.2C51.94 7.08 51.94 6.95 51.95 6.82C51.43 6.9 50.46 7.01 49.16 7.01C47.63 7.01 45.63 6.86 43.33 6.33C42.95 6.24 42.96 5.75 43.35 5.69C45.17 5.38 46.78 5.28 48.11 5.28C50.06 5.28 51.43 5.5 52.06 5.63C52.28 3.86 52.79 2 53.6 2M53.61 0C51.71 0 50.85 1.79 50.44 3.38C49.78 3.32 49 3.28 48.12 3.28C46.47 3.28 44.75 3.43 43.03 3.72C41.91 3.91 41.1 4.82 41.07 5.94C41.04 7.06 41.79 8.02 42.9 8.28C44.73 8.7 46.56 8.94 48.36 9C47.93 10.18 47.54 11.67 47.15 13.5C46.34 17.32 45.74 22.01 45.58 25.88L41.59 27.74C41.45 27.81 41.3 27.84 41.14 27.85L7.74999 28.97C7.62999 26.76 7.19999 24.47 6.04999 23.3C5.50999 22.75 4.81999 22.45 4.10999 22.45C2.39999 22.45 0.339994 23.92 0.209994 30.94L-5.75476e-06 41.23C-0.0200058 42.49 0.169994 43.69 0.569994 44.79C1.19999 46.5 2.15999 47.37 3.43999 47.37C4.98999 47.37 5.92999 46.02 6.52999 44.7L45.85 51.01C46.07 54.91 46.75 64.74 48.17 72.31C44.44 72.65 37.67 73.33 37.33 73.37C37.28 73.37 37.24 73.38 37.19 73.39C35.79 73.63 33.13 74.93 33.07 78.1L33 81.59C33 81.69 33 81.79 33.02 81.89C33.22 83.42 34.55 86.34 38.14 86.41L44.03 86.52C44.71 87.02 45.83 87.66 47.05 87.68L50.02 87.74V88.1C50.02 88.21 50.02 88.32 50.03 88.43C50.32 90.38 51.33 91.56 52.75 91.59C54.2 91.59 55.24 90.43 55.56 88.48C55.58 88.37 55.59 88.26 55.59 88.15V87.79H58.56C59.78 87.79 60.91 87.17 61.6 86.69H67.49C71.08 86.69 72.47 83.8 72.7 82.27C72.71 82.17 72.72 82.07 72.72 81.97V78.48C72.72 75.31 70.08 73.96 68.69 73.7C68.64 73.7 68.6 73.68 68.55 73.68C68.21 73.64 61.46 72.83 57.73 72.42C58.93 66.64 59.71 59.56 60.16 54.62C60.35 54.67 60.55 54.7 60.76 54.7C62.15 54.7 63.23 53.53 63.23 52.05V50.78L99.88 45.6C100.46 46.94 101.38 48.32 102.96 48.32C104.22 48.32 105.19 47.47 105.83 45.8C106.25 44.71 106.47 43.51 106.47 42.25V31.94C106.47 24.86 104.41 23.38 102.68 23.38C101.14 23.38 99.33 24.56 98.96 29.84L65.6 28.1C65.44 28.1 65.3 28.05 65.16 27.99L61.2 26.06C61.11 22.18 60.6 17.47 59.86 13.63C59.51 11.8 59.14 10.31 58.74 9.13C60.54 9.11 62.38 8.9 64.21 8.52C65.33 8.29 66.1 7.34 66.08 6.22C66.07 5.1 65.28 4.17 64.16 3.96C62.26 3.6 60.37 3.42 58.56 3.42C57.89 3.42 57.28 3.45 56.75 3.48C56.39 1.83 55.56 0 53.62 0H53.61Z" fill="black"/>
</g>
<defs>
<clipPath id="clip0_705_48">
<rect width="106.5" height="91.57" fill="white"/>
</clipPath>
</defs>
</svg>
