<svg width="367" height="399" viewBox="0 0 367 399" fill="none" xmlns="http://www.w3.org/2000/svg">
<g clip-path="url(#clip0_62_109)">
<path d="M183.5 395C185.01 395 190.56 378.86 191.92 375.73L256.2 393.24C256.84 393.41 257.48 392.97 257.53 392.32C257.69 390.43 257.67 386.97 257.59 386.44C257.5 385.82 257.12 385.28 256.58 384.98L198.68 344.73C199.61 340.38 198.57 343.48 199.63 339.21C199.63 337.97 204.19 311.13 203.99 302.91L204.76 214.46L225.03 214.39C225.36 216.84 226.09 221.42 227 221.42C228.24 221.42 228.57 214.38 228.57 214.38L237.31 214.35C237.31 214.35 241.27 215.46 246.79 217C247.04 219.05 247.84 224.81 248.86 224.81C249.97 224.81 250.35 219.2 250.42 218.01C257.95 220.1 267.11 222.62 273.3 224.25C273.62 226.65 274.36 231.44 275.29 231.44C276.28 231.44 276.69 226.98 276.82 225.16C279 225.71 280.33 226.01 280.34 225.92L289.28 228.82L347.75 247.95L349.41 247.89L362.99 254.57V250.04L352.94 237.4C353.11 236.57 351.61 235.41 349.96 231.81L244.18 175.54C243.68 175.29 242.22 174.49 242.22 174.49C242.22 174.49 240.15 173.57 240.34 171C244.09 171.33 244.19 168.75 244.63 167.95C247 159.23 246.51 146.47 245.79 138.02C245.74 136.14 243.69 132.68 241.06 132.68H225.63C223.01 132.68 221.32 136.14 221.27 138.02C220.84 145.03 221.28 156.8 222.72 162.71C217.57 158.74 209.14 151.34 205.05 145.57C205.05 145.57 204.28 59.88 203.82 57.78C200.95 31.37 190.03 4.20996 183.49 4.20996C176.95 4.20996 166.03 31.38 163.16 57.78C162.7 59.87 161.93 145.57 161.93 145.57C157.84 151.34 149.41 158.75 144.26 162.71C145.7 156.8 146.13 145.03 145.71 138.02C145.66 136.14 143.97 132.68 141.35 132.68H125.92C123.3 132.68 121.24 136.14 121.19 138.02C120.47 146.47 119.98 159.23 122.35 167.95C122.8 168.75 122.89 171.33 126.64 171C126.83 173.57 124.76 174.49 124.76 174.49C124.76 174.49 123.3 175.3 122.8 175.54L17.03 231.79C15.37 235.4 13.88 236.56 14.05 237.38L4 250.02V254.55L17.58 247.87L19.24 247.93L77.71 228.8L86.65 225.9C86.67 225.99 88 225.69 90.17 225.14C90.3 226.95 90.71 231.42 91.7 231.42C92.63 231.42 93.38 226.63 93.69 224.23C99.88 222.6 109.04 220.08 116.57 217.99C116.64 219.19 117.02 224.79 118.13 224.79C119.15 224.79 119.95 219.03 120.2 216.98C125.72 215.44 129.68 214.33 129.68 214.33L138.42 214.36C138.42 214.36 138.75 221.4 139.99 221.4C140.9 221.4 141.63 216.82 141.96 214.37L162.23 214.44L163 302.89C162.81 311.12 167.36 337.95 167.36 339.19C168.41 343.46 167.37 340.36 168.31 344.71L110.41 384.96C109.86 385.26 109.49 385.8 109.4 386.42C109.32 386.94 109.31 390.41 109.46 392.3C109.51 392.96 110.15 393.4 110.79 393.22L175.07 375.71C176.43 378.84 181.98 394.98 183.49 394.98L183.5 395Z" fill="white"/>
<path d="M183.5 4.17993C190.04 4.17993 200.96 31.3499 203.83 57.7499C204.29 59.8399 205.06 145.54 205.06 145.54C209.15 151.31 217.58 158.72 222.73 162.68C221.29 156.77 220.86 145 221.28 137.99C221.33 136.11 223.02 132.65 225.64 132.65H241.07C243.69 132.65 245.75 136.11 245.8 137.99C246.52 146.44 247.01 159.2 244.64 167.92C244.22 168.67 244.11 171 240.98 171C240.78 171 240.57 171 240.35 170.97C240.16 173.54 242.23 174.46 242.23 174.46C242.23 174.46 243.69 175.26 244.19 175.51L349.97 231.78C351.63 235.39 353.12 236.55 352.95 237.37L363 250.01V254.54L349.42 247.86L347.76 247.92L289.29 228.79L280.35 225.89C280.35 225.89 280.33 225.91 280.29 225.91C280.01 225.91 278.75 225.62 276.82 225.14C276.69 226.95 276.28 231.42 275.29 231.42C274.36 231.42 273.61 226.63 273.3 224.23C267.11 222.6 257.95 220.08 250.42 217.99C250.35 219.19 249.97 224.79 248.86 224.79C247.84 224.79 247.04 219.03 246.79 216.98C241.27 215.44 237.31 214.33 237.31 214.33L228.57 214.36C228.57 214.36 228.24 221.4 227 221.4C226.09 221.4 225.36 216.82 225.03 214.37L204.76 214.44L203.99 302.89C204.18 311.12 199.63 337.95 199.63 339.19C198.58 343.46 199.62 340.36 198.68 344.71L256.58 384.96C257.13 385.26 257.5 385.8 257.59 386.42C257.67 386.94 257.68 390.41 257.53 392.3C257.48 392.86 257.01 393.26 256.48 393.26C256.39 393.26 256.29 393.25 256.2 393.22L191.92 375.71C190.56 378.84 185.01 394.98 183.5 394.98C181.99 394.98 176.44 378.84 175.08 375.71L110.8 393.22C110.71 393.25 110.61 393.26 110.52 393.26C109.99 393.26 109.52 392.86 109.47 392.3C109.31 390.41 109.33 386.95 109.41 386.42C109.5 385.8 109.88 385.26 110.42 384.96L168.32 344.71C167.39 340.36 168.43 343.46 167.37 339.19C167.37 337.95 162.81 311.11 163.01 302.89L162.24 214.44L141.97 214.37C141.64 216.82 140.91 221.4 140 221.4C138.76 221.4 138.43 214.36 138.43 214.36L129.69 214.33C129.69 214.33 125.73 215.44 120.21 216.98C119.96 219.03 119.16 224.79 118.14 224.79C117.03 224.79 116.65 219.18 116.58 217.99C109.05 220.08 99.89 222.6 93.7 224.23C93.38 226.63 92.64 231.42 91.71 231.42C90.72 231.42 90.31 226.96 90.18 225.14C88.26 225.62 87 225.91 86.71 225.91C86.67 225.91 86.65 225.91 86.65 225.89L77.71 228.79L19.24 247.92L17.58 247.86L3.99999 254.54V250.01L14.05 237.37C13.88 236.54 15.38 235.38 17.03 231.78L122.81 175.51C123.31 175.26 124.77 174.46 124.77 174.46C124.77 174.46 126.84 173.54 126.65 170.97C126.43 170.99 126.22 171 126.02 171C122.89 171 122.78 168.67 122.36 167.92C119.99 159.2 120.48 146.44 121.2 137.99C121.25 136.11 123.3 132.65 125.93 132.65H141.36C143.98 132.65 145.67 136.11 145.72 137.99C146.15 145 145.71 156.77 144.27 162.68C149.42 158.71 157.85 151.31 161.94 145.54C161.94 145.54 162.71 59.8499 163.17 57.7499C166.04 31.3399 176.96 4.17993 183.5 4.17993ZM183.5 0.179932C181.58 0.179932 175.75 0.179932 168.23 19.6199C163.87 30.8899 160.57 44.6299 159.19 57.3199H159.21C158.86 61.3899 158.44 90.5799 157.95 144.2C155.87 146.9 152.79 150.03 149.57 152.98C149.93 147.71 149.97 142.04 149.71 137.81C149.57 134.04 146.54 128.66 141.35 128.66H125.92C120.81 128.66 117.38 133.99 117.2 137.75C116.42 146.99 116.02 159.88 118.49 168.98C118.56 169.22 118.64 169.46 118.75 169.68C118.76 169.72 118.78 169.75 118.79 169.79C119.16 170.85 119.63 171.7 120.17 172.39L15.15 228.26C14.38 228.67 13.76 229.33 13.39 230.12C12.69 231.65 12.03 232.64 11.51 233.43C11.08 234.08 10.6 234.81 10.3 235.66L0.85999 247.53C0.29999 248.24 -0.0100098 249.11 -0.0100098 250.02V254.55C-0.0100098 255.93 0.69999 257.22 1.87999 257.95C2.51999 258.35 3.25999 258.55 3.98999 258.55C4.58999 258.55 5.19999 258.41 5.75999 258.14L18.44 251.9L19.1 251.92C19.1 251.92 19.19 251.92 19.23 251.92C19.65 251.92 20.07 251.85 20.47 251.72L78.94 232.59L86.75 230.06C87.48 233.61 89.15 235.41 91.7 235.41C95.46 235.41 96.62 231.56 97.28 227.41C102.04 226.14 107.91 224.53 113.11 223.09C113.46 225.03 114.46 228.78 118.13 228.78C122.04 228.78 122.94 224.52 123.37 222.47C123.53 221.7 123.68 220.88 123.8 220.12C126.89 219.26 129.23 218.6 130.23 218.32L134.77 218.34C134.77 218.34 134.77 218.39 134.77 218.41C135.03 220.32 135.72 225.39 139.99 225.39C143.46 225.39 144.71 222.12 145.4 218.38L158.26 218.42L159 302.86C158.88 308.79 160.8 322.15 162.62 334.21C162.96 336.48 163.31 338.83 163.37 339.37C163.38 339.63 163.42 339.89 163.48 340.15C163.76 341.27 163.85 341.73 163.88 341.91C163.88 342.21 163.88 342.51 163.92 342.9L108.25 381.6C106.73 382.52 105.69 384.09 105.43 385.86C105.27 386.91 105.31 390.81 105.46 392.64C105.67 395.24 107.89 397.27 110.49 397.27C110.94 397.27 111.39 397.21 111.82 397.09L172.63 380.52C172.77 380.88 172.91 381.26 173.06 381.65C174.18 384.63 175.58 388.34 176.86 391.37C178.87 396.11 180.31 398.98 183.47 398.98C186.63 398.98 188.07 396.1 190.08 391.37C191.36 388.34 192.76 384.63 193.88 381.65C194.03 381.26 194.17 380.88 194.31 380.52L255.12 397.09C255.56 397.21 256 397.27 256.45 397.27C259.06 397.27 261.27 395.23 261.48 392.64C261.63 390.81 261.67 386.91 261.51 385.84C261.26 384.1 260.21 382.52 258.7 381.6L203.03 342.9C203.07 342.51 203.08 342.21 203.07 341.91C203.1 341.73 203.2 341.27 203.47 340.15C203.53 339.89 203.57 339.63 203.58 339.37C203.63 338.83 203.99 336.48 204.33 334.21C206.15 322.15 208.07 308.79 207.95 302.86L208.69 218.42L221.55 218.38C222.24 222.12 223.49 225.39 226.96 225.39C231.23 225.39 231.92 220.32 232.18 218.41C232.18 218.39 232.18 218.36 232.18 218.34L236.72 218.32C237.72 218.6 240.06 219.26 243.15 220.12C243.27 220.88 243.42 221.7 243.58 222.47C244.01 224.52 244.91 228.78 248.82 228.78C252.49 228.78 253.49 225.03 253.84 223.09C259.05 224.53 264.91 226.14 269.67 227.41C270.33 231.56 271.5 235.41 275.25 235.41C277.8 235.41 279.47 233.61 280.2 230.06L288.02 232.59L346.48 251.72C346.88 251.85 347.3 251.92 347.72 251.92C347.76 251.92 347.81 251.92 347.85 251.92L348.51 251.9L361.19 258.14C361.75 258.41 362.35 258.55 362.96 258.55C363.7 258.55 364.43 258.35 365.07 257.95C366.24 257.22 366.96 255.94 366.96 254.55V250.02C366.96 249.12 366.65 248.24 366.09 247.53L356.65 235.66C356.36 234.81 355.87 234.08 355.44 233.43C354.91 232.64 354.26 231.65 353.56 230.12C353.19 229.32 352.58 228.67 351.8 228.26L246.77 172.39C247.31 171.71 247.79 170.85 248.15 169.79C248.16 169.75 248.18 169.71 248.19 169.68C248.3 169.46 248.39 169.22 248.45 168.98C250.93 159.88 250.52 146.99 249.74 137.75C249.56 133.99 246.13 128.66 241.02 128.66H225.59C220.4 128.66 217.37 134.04 217.23 137.81C216.98 142.04 217.01 147.71 217.37 152.98C214.15 150.03 211.07 146.9 208.99 144.2C208.5 90.5799 208.08 61.3899 207.73 57.3199H207.75C206.37 44.6299 203.08 30.8899 198.71 19.6199C191.25 0.179932 185.42 0.179932 183.5 0.179932Z" fill="black"/>
</g>
<defs>
<clipPath id="clip0_62_109">
<rect width="367" height="398.82" fill="white" transform="translate(0 0.179932)"/>
</clipPath>
</defs>
</svg>
