<svg width="367" height="409" viewBox="0 0 367 409" fill="none" xmlns="http://www.w3.org/2000/svg">
<g clip-path="url(#clip0_64_131)">
<path d="M183.5 404.47C185.01 404.47 190.56 388.33 191.92 385.2L256.2 402.71C256.84 402.88 257.48 402.44 257.53 401.79C257.69 399.9 257.67 396.44 257.59 395.91C257.5 395.29 257.12 394.75 256.58 394.45L198.68 354.2C199.61 349.85 198.57 352.95 199.63 348.68C199.63 347.44 204.19 320.6 203.99 312.38L204.76 217.72L225.03 217.65C225.36 220.1 226.09 224.68 227 224.68C228.24 224.68 228.57 217.64 228.57 217.64L237.31 217.61C237.31 217.61 241.27 218.72 246.79 220.26C247.04 222.31 247.84 228.07 248.86 228.07C249.97 228.07 250.35 222.46 250.42 221.27C257.95 223.36 267.11 225.88 273.3 227.51C273.62 229.91 274.36 234.7 275.29 234.7C276.28 234.7 276.69 230.24 276.82 228.42C279 228.97 280.33 229.27 280.34 229.18L289.28 232.08L347.75 251.21L349.41 251.15L362.99 257.83V253.3L352.94 240.66C353.11 239.83 351.61 238.67 349.96 235.07L244.18 178.8C243.68 178.55 242.22 177.75 242.22 177.75C242.22 177.75 240.15 176.83 240.34 174.26C244.09 174.59 244.19 172.01 244.63 171.21C247 162.49 246.51 149.73 245.79 141.28C245.74 139.4 243.69 135.94 241.06 135.94H225.63C223.01 135.94 221.32 139.4 221.27 141.28C220.84 148.29 221.28 160.06 222.72 165.97C217.57 162 209.14 154.6 205.05 148.83C205.05 148.83 204.28 59.8699 203.82 57.77C200.95 31.36 190.03 4.19995 183.49 4.19995C176.95 4.19995 166.03 31.37 163.16 57.77C162.7 59.86 161.93 148.83 161.93 148.83C157.84 154.6 149.41 162.01 144.26 165.97C145.7 160.06 146.13 148.29 145.71 141.28C145.66 139.4 143.97 135.94 141.35 135.94H125.92C123.3 135.94 121.24 139.4 121.19 141.28C120.47 149.73 119.98 162.49 122.35 171.21C122.8 172.01 122.89 174.59 126.64 174.26C126.83 176.83 124.76 177.75 124.76 177.75C124.76 177.75 123.3 178.56 122.8 178.8L17.03 235.07C15.37 238.68 13.88 239.84 14.05 240.66L4 253.3V257.83L17.58 251.15L19.24 251.21L77.71 232.08L86.65 229.18C86.67 229.27 88 228.97 90.17 228.42C90.3 230.23 90.71 234.7 91.7 234.7C92.63 234.7 93.38 229.91 93.69 227.51C99.88 225.88 109.04 223.36 116.57 221.27C116.64 222.47 117.02 228.07 118.13 228.07C119.15 228.07 119.95 222.31 120.2 220.26C125.72 218.72 129.68 217.61 129.68 217.61L138.42 217.64C138.42 217.64 138.75 224.68 139.99 224.68C140.9 224.68 141.63 220.1 141.96 217.65L162.23 217.72L163 312.38C162.81 320.61 167.36 347.44 167.36 348.68C168.41 352.95 167.37 349.85 168.31 354.2L110.41 394.45C109.86 394.75 109.49 395.29 109.4 395.91C109.32 396.43 109.31 399.9 109.46 401.79C109.51 402.45 110.15 402.89 110.79 402.71L175.07 385.2C176.43 388.33 181.98 404.47 183.49 404.47H183.5Z" fill="white"/>
<path d="M183.5 4.17993C190.04 4.17993 200.96 31.3499 203.83 57.7499C204.29 59.8399 205.06 148.81 205.06 148.81C209.15 154.58 217.58 161.99 222.73 165.95C221.29 160.04 220.86 148.27 221.28 141.26C221.33 139.38 223.02 135.92 225.64 135.92H241.07C243.69 135.92 245.75 139.38 245.8 141.26C246.52 149.71 247.01 162.47 244.64 171.19C244.22 171.94 244.11 174.27 240.98 174.27C240.78 174.27 240.57 174.27 240.35 174.24C240.16 176.81 242.23 177.73 242.23 177.73C242.23 177.73 243.69 178.53 244.19 178.78L349.97 235.05C351.63 238.66 353.12 239.82 352.95 240.64L363 253.28V257.81L349.42 251.13L347.76 251.19L289.29 232.06L280.35 229.16C280.35 229.16 280.33 229.18 280.29 229.18C280.01 229.18 278.75 228.89 276.82 228.41C276.69 230.22 276.28 234.69 275.29 234.69C274.36 234.69 273.61 229.9 273.3 227.5C267.11 225.87 257.95 223.35 250.42 221.26C250.35 222.46 249.97 228.06 248.86 228.06C247.84 228.06 247.04 222.3 246.79 220.25C241.27 218.71 237.31 217.6 237.31 217.6L228.57 217.63C228.57 217.63 228.24 224.67 227 224.67C226.09 224.67 225.36 220.09 225.03 217.64L204.76 217.71L203.99 312.37C204.18 320.6 199.63 347.43 199.63 348.67C198.58 352.94 199.62 349.84 198.68 354.19L256.58 394.44C257.13 394.74 257.5 395.28 257.59 395.9C257.67 396.42 257.68 399.89 257.53 401.78C257.48 402.34 257.01 402.74 256.48 402.74C256.39 402.74 256.29 402.73 256.2 402.7L191.92 385.19C190.56 388.32 185.01 404.46 183.5 404.46C181.99 404.46 176.44 388.32 175.08 385.19L110.8 402.7C110.71 402.73 110.61 402.74 110.52 402.74C109.99 402.74 109.52 402.34 109.47 401.78C109.31 399.89 109.33 396.43 109.41 395.9C109.5 395.28 109.88 394.74 110.42 394.44L168.32 354.19C167.39 349.84 168.43 352.94 167.37 348.67C167.37 347.43 162.81 320.59 163.01 312.37L162.24 217.71L141.97 217.64C141.64 220.09 140.91 224.67 140 224.67C138.76 224.67 138.43 217.63 138.43 217.63L129.69 217.6C129.69 217.6 125.73 218.71 120.21 220.25C119.96 222.3 119.16 228.06 118.14 228.06C117.03 228.06 116.65 222.45 116.58 221.26C109.05 223.35 99.89 225.87 93.7 227.5C93.38 229.9 92.64 234.69 91.71 234.69C90.72 234.69 90.31 230.23 90.18 228.41C88.26 228.89 87 229.18 86.71 229.18C86.67 229.18 86.65 229.18 86.65 229.16L77.71 232.06L19.24 251.19L17.58 251.13L4 257.81V253.28L14.05 240.64C13.88 239.81 15.38 238.65 17.03 235.05L122.81 178.78C123.31 178.53 124.77 177.73 124.77 177.73C124.77 177.73 126.84 176.81 126.65 174.24C126.43 174.26 126.22 174.27 126.02 174.27C122.89 174.27 122.78 171.94 122.36 171.19C119.99 162.47 120.48 149.71 121.2 141.26C121.25 139.38 123.3 135.92 125.93 135.92H141.36C143.98 135.92 145.67 139.38 145.72 141.26C146.15 148.27 145.71 160.04 144.27 165.95C149.42 161.98 157.85 154.58 161.94 148.81C161.94 148.81 162.71 59.8499 163.17 57.7499C166.04 31.3399 176.96 4.17993 183.5 4.17993ZM183.5 0.179932C181.58 0.179932 175.75 0.179932 168.23 19.6199C163.87 30.8899 160.57 44.6299 159.19 57.3199H159.21C158.86 61.4599 158.44 91.7499 157.95 147.47C155.87 150.17 152.79 153.3 149.57 156.25C149.93 150.98 149.97 145.31 149.71 141.08C149.57 137.31 146.54 131.93 141.35 131.93H125.92C120.81 131.93 117.38 137.26 117.2 141.02C116.42 150.26 116.02 163.15 118.49 172.25L118.62 172.72L118.77 172.98C118.77 172.98 118.79 173.03 118.8 173.06C119.17 174.12 119.64 174.97 120.18 175.66L15.15 231.54L13.96 232.17L13.4 233.4C12.7 234.93 12.04 235.92 11.52 236.71C11.09 237.36 10.61 238.09 10.31 238.94L0.87 250.81L0 251.9V264.25L5.77 261.41L18.45 255.17L19.11 255.19L19.82 255.21L20.49 254.99L78.96 235.86L86.77 233.33C87.5 236.88 89.17 238.68 91.72 238.68C95.48 238.68 96.64 234.83 97.3 230.68C102.06 229.41 107.93 227.8 113.13 226.36C113.48 228.3 114.48 232.05 118.15 232.05C122.06 232.05 122.96 227.79 123.39 225.74C123.55 224.97 123.7 224.15 123.82 223.39C126.91 222.53 129.25 221.87 130.25 221.59L134.79 221.61C134.79 221.61 134.79 221.66 134.79 221.68C135.05 223.59 135.74 228.66 140.01 228.66C143.48 228.66 144.73 225.39 145.42 221.65L158.28 221.69L159.02 312.33C158.9 318.26 160.82 331.62 162.64 343.68C162.97 345.9 163.32 348.19 163.38 348.8V349.15L163.5 349.62C163.78 350.74 163.87 351.2 163.9 351.38C163.9 351.68 163.9 351.98 163.94 352.37L108.27 391.07C106.75 391.99 105.71 393.56 105.45 395.33C105.29 396.38 105.33 400.28 105.48 402.11C105.69 404.71 107.91 406.74 110.51 406.74C110.96 406.74 111.41 406.68 111.84 406.56L172.65 389.99C172.79 390.35 172.93 390.73 173.08 391.12C174.2 394.1 175.6 397.81 176.88 400.84C178.89 405.58 180.33 408.45 183.49 408.45C186.65 408.45 188.09 405.57 190.1 400.84C191.38 397.81 192.78 394.1 193.9 391.12C194.05 390.73 194.19 390.35 194.33 389.99L255.14 406.56C255.58 406.68 256.02 406.74 256.47 406.74C259.08 406.74 261.29 404.7 261.5 402.11C261.65 400.28 261.69 396.38 261.53 395.31C261.28 393.57 260.23 391.99 258.72 391.07L203.05 352.37C203.09 351.98 203.1 351.68 203.09 351.38C203.12 351.2 203.22 350.74 203.49 349.62L203.61 349.15V348.8C203.68 348.2 204.02 345.9 204.35 343.68C206.17 331.62 208.09 318.26 207.97 312.33L208.71 221.69L221.57 221.65C222.26 225.39 223.51 228.66 226.98 228.66C231.25 228.66 231.94 223.59 232.2 221.68C232.2 221.66 232.2 221.63 232.2 221.61L236.74 221.59C237.74 221.87 240.08 222.53 243.17 223.39C243.29 224.15 243.44 224.97 243.6 225.74C244.03 227.79 244.93 232.05 248.84 232.05C252.51 232.05 253.51 228.3 253.86 226.36C259.07 227.8 264.93 229.41 269.69 230.68C270.35 234.83 271.52 238.68 275.27 238.68C277.82 238.68 279.49 236.88 280.22 233.33L288.04 235.86L346.5 254.99L347.17 255.21L347.88 255.19L348.54 255.17L361.22 261.41L366.99 264.25V251.9L366.12 250.81L356.68 238.94C356.39 238.09 355.9 237.36 355.47 236.71C354.94 235.92 354.29 234.93 353.59 233.4L353.03 232.17L351.84 231.54L246.81 175.67C247.35 174.99 247.83 174.13 248.19 173.07C248.19 173.04 248.21 173.02 248.22 172.99L248.37 172.73L248.5 172.26C250.98 163.16 250.57 150.27 249.79 141.03C249.61 137.27 246.18 131.94 241.07 131.94H225.64C220.45 131.94 217.42 137.32 217.28 141.09C217.03 145.32 217.06 150.99 217.42 156.26C214.2 153.31 211.12 150.18 209.04 147.48C208.55 91.7599 208.13 61.4599 207.78 57.3299H207.8C206.42 44.6399 203.13 30.8999 198.76 19.6299C191.25 0.179932 185.42 0.179932 183.5 0.179932Z" fill="#231F20"/>
</g>
<defs>
<clipPath id="clip0_64_131">
<rect width="367" height="408.29" fill="white" transform="translate(0 0.179932)"/>
</clipPath>
</defs>
</svg>
