<svg width="270" height="271" viewBox="0 0 270 271" fill="none" xmlns="http://www.w3.org/2000/svg">
<g clip-path="url(#clip0_760_326)">
<path d="M135 269C134.7 269 134.39 268.93 134.11 268.79C132.45 267.97 132.05 266.13 131.67 263.98L79.22 268.99C79.16 268.99 79.09 268.99 79.03 268.99C78.53 268.99 78.05 268.81 77.68 268.47C77.26 268.09 77.03 267.55 77.03 266.99C77.03 265.93 77.02 264.89 77.01 263.88C76.94 257.38 76.88 252.24 79.88 249.86C80.02 249.75 80.18 249.66 80.34 249.59L126.23 230.09C118.09 205.7 114.7 161.38 114.7 142.5V137.45L96.3 139.33C95.64 143.7 95.17 145.54 93.16 145.54C91.28 145.54 90.73 143.9 90.11 139.96L71.11 141.9C70.5 145.81 70.02 147.62 68.05 147.62C66.22 147.62 65.66 146.04 65.08 142.52L46.09 144.46C45.42 148.88 44.95 150.74 42.94 150.74C41.06 150.74 40.51 149.08 39.88 145.09L4.95996 148.65C4.88996 148.65 4.81996 148.66 4.75996 148.66C4.29996 148.66 3.83996 148.5 3.47996 148.2C3.06996 147.86 2.80996 147.36 2.75996 146.83L2.61996 145.15C1.63996 133.61 1.26996 129.3 6.47996 126.72C6.57996 126.67 6.68996 126.63 6.79996 126.6L62.3 110.01C59.78 108.11 59.78 105.71 59.78 100.28V89.71C59.78 87.9 61.77 84.14 63.8 82.77C64.13 82.55 64.52 82.43 64.92 82.43H72.24C72.64 82.43 73.03 82.55 73.36 82.77C75.39 84.14 77.38 87.9 77.38 89.71V100.28C77.38 102.48 77.38 104.18 77.21 105.55L87.57 102.45C85.41 100.59 85.41 98.17 85.41 93.01V82.44C85.41 80.63 87.4 76.87 89.43 75.5C89.76 75.28 90.15 75.16 90.55 75.16H97.87C98.27 75.16 98.66 75.28 98.99 75.5C101.02 76.87 103.01 80.63 103.01 82.44V93.01C103.01 95 103.01 96.58 102.89 97.87L114.71 94.34V66.26C114.71 43.68 125.25 5.35002 134.35 2.13002C134.57 2.05002 134.79 2.02002 135.02 2.02002C135.25 2.02002 135.47 2.06002 135.69 2.13002C144.8 5.35002 155.33 43.69 155.33 66.26V94.34L167.15 97.87C167.03 96.58 167.03 95 167.03 93.01V82.44C167.03 80.63 169.02 76.87 171.05 75.5C171.38 75.28 171.77 75.16 172.17 75.16H179.49C179.89 75.16 180.28 75.28 180.61 75.5C182.64 76.87 184.63 80.63 184.63 82.44V93.01C184.63 98.17 184.63 100.59 182.47 102.45L192.83 105.55C192.66 104.18 192.66 102.47 192.66 100.28V89.71C192.66 87.9 194.65 84.14 196.68 82.77C197.01 82.55 197.4 82.43 197.8 82.43H205.12C205.52 82.43 205.91 82.55 206.24 82.77C208.27 84.14 210.26 87.9 210.26 89.71V100.28C210.26 105.71 210.26 108.11 207.74 110.01L263.24 126.6C263.35 126.63 263.45 126.67 263.56 126.72C268.77 129.3 268.4 133.62 267.42 145.15L267.28 146.84C267.24 147.37 266.98 147.87 266.56 148.21C266.2 148.51 265.75 148.67 265.28 148.67C265.21 148.67 265.15 148.67 265.08 148.66L230.16 145.1C229.53 149.09 228.99 150.74 227.1 150.74C225.09 150.74 224.62 148.88 223.95 144.46L204.96 142.52C204.38 146.04 203.82 147.62 201.99 147.62C200.02 147.62 199.54 145.82 198.93 141.9L179.93 139.96C179.31 143.9 178.76 145.54 176.88 145.54C174.87 145.54 174.4 143.7 173.74 139.33L155.34 137.45V142.5C155.34 161.38 151.95 205.71 143.81 230.09L189.7 249.59C189.87 249.66 190.02 249.75 190.16 249.86C193.16 252.24 193.1 257.37 193.03 263.88C193.02 264.89 193.01 265.93 193.01 266.99C193.01 267.55 192.77 268.09 192.36 268.47C191.99 268.81 191.51 268.99 191.01 268.99C190.95 268.99 190.88 268.99 190.82 268.99L138.37 263.98C137.99 266.13 137.59 267.97 135.93 268.79C135.65 268.93 135.35 269 135.04 269H135Z" fill="white"/>
<path d="M135 3.99999C142.33 6.58999 153.31 42.39 153.31 66.25V95.82L170.51 100.96C169.01 99.68 169 97.96 169 93V82.43C169 81.37 170.57 78.2 172.14 77.14H179.46C181.03 78.2 182.6 81.37 182.6 82.43V93C182.6 99.34 182.6 100.4 179.46 101.98V103.63L197.19 108.93C194.64 107.49 194.64 106.18 194.64 100.26V89.69C194.64 88.63 196.21 85.46 197.78 84.4H205.1C206.67 85.46 208.24 88.63 208.24 89.69V100.26C208.24 106.6 208.24 107.66 205.1 109.24V111.29L262.64 128.49C266.82 130.56 266.3 134.2 265.25 146.65L228.43 142.9C228.04 145.58 227.5 148.73 227.06 148.73C226.62 148.73 226.06 145.36 225.66 142.62L203.24 140.33C202.86 142.88 202.37 145.61 201.95 145.61C201.53 145.61 201.02 142.68 200.63 140.06L178.19 137.77C177.8 140.44 177.27 143.53 176.83 143.53C176.39 143.53 175.84 140.21 175.44 137.49L153.29 135.23V142.49C153.29 162.2 149.63 207.85 141.26 231.19L188.87 251.42C191.48 253.49 190.96 259.72 190.96 266.98L136.68 261.79C136.16 264.41 136.03 266.46 134.99 266.98C133.94 266.46 133.82 264.41 133.3 261.79L79.0201 266.98C79.0201 259.72 78.5001 253.49 81.1101 251.42L128.72 231.19C120.35 207.85 116.69 162.2 116.69 142.49V135.23L94.5401 137.49C94.1401 140.22 93.6001 143.53 93.1501 143.53C92.7001 143.53 92.1801 140.44 91.7901 137.77L69.3501 140.06C68.9601 142.68 68.4601 145.61 68.0301 145.61C67.6001 145.61 67.1301 142.87 66.7401 140.33L44.3201 142.62C43.9201 145.36 43.3701 148.73 42.9201 148.73C42.4701 148.73 41.9501 145.59 41.5501 142.9L4.73006 146.65C3.68006 134.2 3.16006 130.57 7.34006 128.49L64.8901 111.29V109.24C61.7501 107.65 61.7501 106.6 61.7501 100.26V89.69C61.7501 88.63 63.3201 85.46 64.8901 84.4H72.2101C73.7801 85.46 75.3501 88.63 75.3501 89.69V100.26C75.3501 106.18 75.3501 107.49 72.8001 108.93L90.5301 103.63V101.98C87.3901 100.39 87.3901 99.34 87.3901 93V82.43C87.3901 81.37 88.9601 78.2 90.5301 77.14H97.8501C99.4201 78.2 100.99 81.37 100.99 82.43V93C100.99 97.96 100.99 99.69 99.4801 100.96L116.69 95.82V66.25C116.69 42.39 127.67 6.59999 135 3.99999ZM135 -9.76585e-06C134.55 -9.76585e-06 134.1 0.0799902 133.67 0.22999C128.7 1.98999 123.85 10.66 119.27 26C115.15 39.78 112.69 54.82 112.69 66.24V92.83L104.99 95.13C104.99 94.46 104.99 93.75 104.99 92.99V82.42C104.99 80.03 102.73 75.6 100.09 73.82C99.43 73.38 98.6501 73.14 97.8601 73.14H90.5401C89.7401 73.14 88.9701 73.38 88.3101 73.82C85.6701 75.6 83.4101 80.04 83.4101 82.42V92.99C83.4101 96.61 83.41 99.24 84.3101 101.32L79.3701 102.8C79.3801 102.01 79.3801 101.16 79.3801 100.26V89.69C79.3801 87.3 77.1201 82.87 74.4801 81.09C73.8201 80.65 73.0401 80.41 72.2501 80.41H64.9301C64.1301 80.41 63.3601 80.65 62.7001 81.09C60.0601 82.87 57.8001 87.31 57.8001 89.69V100.26C57.8001 104.09 57.8001 106.81 58.8601 108.94L6.25006 124.66C6.03006 124.72 5.82006 124.81 5.62006 124.91C2.39006 126.51 0.670055 129.02 0.200055 132.82C-0.159945 135.72 0.160055 139.53 0.660055 145.31L0.800055 146.99C0.890055 148.06 1.41006 149.05 2.23006 149.73C2.95006 150.33 3.86006 150.65 4.78006 150.65C4.91006 150.65 5.05006 150.65 5.19006 150.63L38.2801 147.26C38.3101 147.39 38.3301 147.52 38.3601 147.65C38.6801 149.17 39.4401 152.73 42.9701 152.73C46.5001 152.73 47.2901 149.07 47.6101 147.51C47.6901 147.13 47.7701 146.71 47.8401 146.29L63.5001 144.69C63.5001 144.69 63.5201 144.76 63.5201 144.8C63.8101 146.12 64.5901 149.62 68.0801 149.62C71.5701 149.62 72.3701 146.02 72.6601 144.67C72.7201 144.39 72.7801 144.08 72.8501 143.74L88.5101 142.14C88.5301 142.26 88.5601 142.38 88.5801 142.49C88.8701 143.87 89.6501 147.54 93.1901 147.54C96.7301 147.54 97.5001 143.9 97.8201 142.35C97.9001 141.98 97.9701 141.58 98.0501 141.17L112.74 139.67V142.5C112.74 161.05 116 204.03 123.81 228.97L79.6001 247.76C79.2701 247.9 78.9601 248.08 78.6801 248.31C74.9101 251.3 74.9701 256.87 75.0501 263.92C75.0601 264.92 75.0701 265.95 75.0701 267.01C75.0701 268.14 75.55 269.21 76.3801 269.97C77.12 270.64 78.0801 271.01 79.0701 271.01C79.2001 271.01 79.3201 271.01 79.4501 270.99L130.12 266.15C130.58 267.95 131.37 269.65 133.27 270.59C133.83 270.87 134.44 271.01 135.05 271.01C135.66 271.01 136.27 270.87 136.83 270.59C138.72 269.65 139.52 267.95 139.98 266.15L190.65 270.99C190.78 271 190.9 271.01 191.03 271.01C192.02 271.01 192.98 270.64 193.72 269.97C194.55 269.21 195.03 268.14 195.03 267.01C195.03 265.96 195.04 264.92 195.05 263.92C195.13 256.87 195.19 251.3 191.42 248.31C191.14 248.09 190.83 247.9 190.5 247.76L146.29 228.97C154.09 204.04 157.36 161.05 157.36 142.5V139.67L172.04 141.17C172.11 141.58 172.19 141.98 172.27 142.35C172.59 143.9 173.34 147.54 176.9 147.54C180.46 147.54 181.21 143.87 181.51 142.49C181.53 142.38 181.56 142.26 181.58 142.13L197.24 143.73C197.3 144.07 197.36 144.37 197.43 144.66C197.72 146.01 198.49 149.61 202.01 149.61C205.53 149.61 206.28 146.11 206.57 144.79C206.57 144.76 206.59 144.72 206.59 144.68L222.25 146.28C222.32 146.7 222.4 147.12 222.48 147.5C222.8 149.06 223.55 152.72 227.12 152.72C230.69 152.72 231.41 149.16 231.73 147.64C231.76 147.52 231.78 147.39 231.81 147.25L264.9 150.62C265.04 150.63 265.17 150.64 265.31 150.64C266.24 150.64 267.14 150.32 267.86 149.72C268.69 149.03 269.2 148.05 269.29 146.98L269.43 145.3C269.92 139.52 270.25 135.71 269.89 132.81C269.42 129.02 267.7 126.5 264.47 124.9C264.27 124.8 264.06 124.72 263.84 124.65L211.23 108.93C212.29 106.8 212.29 104.08 212.29 100.25V89.68C212.29 87.29 210.03 82.86 207.39 81.08C206.73 80.64 205.95 80.4 205.15 80.4H197.83C197.03 80.4 196.26 80.64 195.59 81.08C192.95 82.86 190.69 87.3 190.69 89.68V100.25C190.69 101.16 190.69 102 190.7 102.79L185.76 101.31C186.66 99.23 186.66 96.6 186.66 92.98V82.41C186.66 80.02 184.4 75.59 181.76 73.81C181.1 73.37 180.32 73.13 179.53 73.13H172.21C171.41 73.13 170.64 73.37 169.97 73.81C167.33 75.59 165.07 80.03 165.07 82.41V92.98C165.07 93.74 165.07 94.45 165.07 95.12L157.37 92.82V66.23C157.37 54.81 154.91 39.76 150.79 25.99C146.21 10.65 141.36 1.97999 136.39 0.21999C135.96 0.0699902 135.51 -0.0100098 135.06 -0.0100098L135 -9.76585e-06Z" fill="black"/>
</g>
<defs>
<clipPath id="clip0_760_326">
<rect width="270" height="271" fill="white"/>
</clipPath>
</defs>
</svg>
