<svg width="572" height="505" viewBox="0 0 572 505" fill="none" xmlns="http://www.w3.org/2000/svg">
<g clip-path="url(#clip0_722_2)">
<path d="M285.17 502.49C284.21 502.49 283.36 502.11 282.78 501.43C281.94 500.44 281.96 499.15 282.01 498.62V496.6C280.71 495.86 279.43 494.39 278.19 492.2C277.65 491.25 277.37 490.16 277.37 489.04V464.89C208.1 470.85 207.49 470.85 207.29 470.85C205.54 470.85 204.49 469.48 204.49 468.17V466.8C204.05 466.21 203.77 465.4 203.7 464.42C203.7 464.37 203.7 464.32 203.7 464.27V450.46C203.7 446.79 205.76 444.92 206 444.72C208.35 442.58 263.95 391.92 272.19 384.91C270.02 367.08 269.01 309.12 268.97 306.65V205.98C255.43 213.44 184.5 252.42 119.13 286.61C118.27 287.1 116.66 287.23 113.21 287.41C112.28 287.46 111.04 287.52 110.57 287.59C88.8403 298.96 53.9803 317.4 10.9703 340.85C9.58027 341.61 8.77027 342.05 8.62027 342.13C7.64027 342.65 6.70027 342.91 5.84027 342.91C3.78027 342.91 2.46027 341.44 2.10027 340.07C2.06027 339.9 2.03027 339.73 2.03027 339.56V312.17C2.03027 307.48 4.51027 305.3 4.80027 305.07C4.83027 305.05 4.86027 305.02 4.89027 305L50.3303 271.86V255.24C50.3303 255.17 50.3303 255.09 50.3403 255.02C50.8403 250.52 52.3003 242.97 56.4903 242.97C60.6803 242.97 62.1403 250.52 62.6403 255.02C62.6403 255.09 62.6503 255.17 62.6503 255.24V262.87L92.2303 241.3C91.7003 232.9 90.9103 214.32 93.1203 200.18C93.3003 199.02 93.6403 197.94 94.1403 196.96C94.9203 195.42 95.6803 194.83 96.1903 194.6C96.4503 194.48 96.7303 194.42 97.0203 194.42H113.76C114.05 194.42 114.33 194.48 114.59 194.6C115.1 194.83 115.86 195.43 116.64 196.97C117.13 197.94 117.47 199.03 117.66 200.2C118.58 206.08 119.07 213.3 119.12 221.71L170.75 184.05C170.23 175.68 169.45 157.18 171.65 143.13C171.83 141.97 172.17 140.88 172.67 139.9C173.45 138.36 174.21 137.76 174.72 137.53C174.98 137.41 175.26 137.35 175.55 137.35H192.29C192.58 137.35 192.86 137.41 193.12 137.53C193.63 137.76 194.4 138.36 195.17 139.89C195.66 140.87 196.01 141.96 196.19 143.11C197.1 148.94 197.59 156.09 197.65 164.42L269.39 112.1C269.68 111.89 269.86 111.54 269.86 111.18V44.18C269.86 27.23 280.15 2 287.07 2C293.99 2 304.28 26.44 304.28 44.18V111.17C304.28 111.53 304.45 111.88 304.75 112.09L375.26 164.37C375.32 156.06 375.81 148.92 376.72 143.1C376.9 141.94 377.24 140.85 377.74 139.87C378.51 138.33 379.28 137.74 379.79 137.51C380.05 137.39 380.33 137.33 380.62 137.33H397.36C397.65 137.33 397.93 137.39 398.19 137.51C398.7 137.74 399.46 138.34 400.24 139.87C400.74 140.85 401.08 141.94 401.26 143.1C403.46 157.15 402.68 175.65 402.16 184.02L453.79 221.68C453.84 213.27 454.34 206.05 455.25 200.17C455.43 199.01 455.77 197.92 456.27 196.94C457.04 195.4 457.81 194.81 458.32 194.57C458.58 194.45 458.86 194.39 459.15 194.39H475.89C476.18 194.39 476.46 194.45 476.72 194.57C477.23 194.8 477.99 195.4 478.77 196.94C479.26 197.92 479.61 199.01 479.79 200.17C482 214.3 481.21 232.89 480.68 241.29L510.26 262.86V255.23C510.26 255.16 510.26 255.08 510.27 255.01C510.77 250.51 512.23 242.96 516.42 242.96C520.61 242.96 522.07 250.51 522.57 255.01C522.57 255.08 522.58 255.16 522.58 255.23V271.88L567.21 306.21C567.54 306.48 570.03 308.66 570.03 313.35V340.74C570.03 340.91 570.01 341.08 569.96 341.25C569.6 342.62 568.28 344.09 566.22 344.09C565.36 344.09 564.42 343.83 563.44 343.31C563.27 343.22 562.35 342.69 560.76 341.78C518.31 317.35 483.84 298.84 462.34 287.59C461.87 287.52 460.63 287.46 459.7 287.41C456.25 287.24 454.64 287.11 453.71 286.58C388.4 252.43 317.48 213.45 303.93 205.98V301.52C303.93 304.98 303.83 308.5 303.64 311.96C302.69 329.14 300.31 370.39 298.52 384.92C306.76 391.93 362.36 442.59 364.75 444.77C364.94 444.93 367 446.8 367 450.47V464.28C367 464.28 367 464.38 367 464.43C366.93 465.41 366.65 466.22 366.21 466.81V468.18C366.21 469.5 365.16 470.86 363.41 470.86C362.52 470.86 301.7 465.64 292.99 464.9V489.05C292.99 490.16 292.71 491.26 292.17 492.21C290.93 494.4 289.65 495.87 288.35 496.61V498.63C288.4 499.16 288.42 500.45 287.58 501.44C287 502.12 286.15 502.5 285.19 502.5L285.17 502.49Z" fill="white"/>
<path d="M287.05 4C291.77 4 302.26 25.41 302.26 44.18V111.17C302.26 112.17 302.74 113.12 303.55 113.71L377.24 168.35C377.17 160.35 377.46 151.17 378.68 143.41C378.82 142.49 379.09 141.6 379.51 140.78C380.13 139.55 380.6 139.34 380.6 139.34H397.34C397.34 139.34 397.81 139.55 398.43 140.78C398.85 141.61 399.11 142.5 399.26 143.42C401.54 158.02 400.56 177.64 400.07 185L455.78 225.63C455.71 217.58 455.99 208.31 457.21 200.49C457.35 199.57 457.62 198.68 458.04 197.86C458.66 196.63 459.13 196.41 459.13 196.41H475.87C475.87 196.41 476.34 196.62 476.96 197.86C477.38 198.69 477.64 199.58 477.79 200.49C480.09 215.22 479.07 235.06 478.59 242.27L512.24 266.81V255.25C512.24 255.25 513.38 244.98 516.41 244.98C519.44 244.98 520.58 255.25 520.58 255.25V272.89L565.99 307.82C565.99 307.82 568.03 309.49 568.03 313.37V340.76C568.03 340.76 567.68 342.11 566.22 342.11C565.74 342.11 565.13 341.96 564.37 341.56C563.09 340.89 517.13 314.02 463.08 285.73C462.4 285.38 455.77 285.46 454.71 284.85C386.96 249.42 314.32 209.43 303.36 203.38C303.21 203.3 303.05 203.26 302.9 203.26C302.4 203.26 301.94 203.66 301.94 204.22V301.52C301.94 304.97 301.85 308.41 301.66 311.85C300.83 327 298.33 370.73 296.5 385.06C296.45 385.49 296.61 385.91 296.94 386.19C304.01 392.11 363.42 446.25 363.42 446.25C363.42 446.25 365.02 447.62 365.02 450.47V464.28C365.02 464.28 364.91 465.84 364.22 465.84V468.18C364.22 468.18 364.22 468.87 363.42 468.87C362.68 468.87 301.3 463.61 292.15 462.82C292.12 462.82 292.09 462.82 292.06 462.82C291.49 462.82 291.01 463.29 291.01 463.87V489.05C291.01 489.81 290.82 490.56 290.45 491.22C289.61 492.69 287.97 495.17 286.37 495.17V498.75C286.37 498.75 286.65 500.5 285.21 500.5C283.77 500.5 284.05 498.75 284.05 498.75V495.17C282.45 495.17 280.81 492.69 279.97 491.22C279.6 490.56 279.41 489.81 279.41 489.05V463.87C279.41 463.28 278.93 462.82 278.36 462.82C278.33 462.82 278.3 462.82 278.27 462.82C269.12 463.61 208.07 468.87 207.33 468.87C206.53 468.87 206.53 468.18 206.53 468.18V465.84C205.85 465.84 205.73 464.28 205.73 464.28V450.47C205.73 447.62 207.33 446.25 207.33 446.25C207.33 446.25 266.75 392.11 273.81 386.19C274.14 385.91 274.3 385.49 274.25 385.06C272.03 367.62 270.99 306.62 270.99 306.62V204.22C270.99 203.66 270.53 203.26 270.03 203.26C269.88 203.26 269.72 203.3 269.57 203.38C258.61 209.43 185.97 249.41 118.22 284.85C117.15 285.46 110.53 285.37 109.85 285.73C55.79 314.02 8.98 339.7 7.7 340.38C6.94 340.78 6.34 340.93 5.85 340.93C4.4 340.93 4.04 339.58 4.04 339.58V312.19C4.04 308.31 6.08 306.64 6.08 306.64L52.35 272.9V255.26C52.35 255.26 53.49 244.99 56.52 244.99C59.55 244.99 60.69 255.26 60.69 255.26V266.82L94.34 242.28C93.85 235.07 92.83 215.23 95.14 200.5C95.28 199.58 95.55 198.69 95.97 197.87C96.59 196.64 97.06 196.42 97.06 196.42H113.8C113.8 196.42 114.27 196.63 114.89 197.87C115.31 198.7 115.57 199.59 115.72 200.5C116.94 208.32 117.23 217.59 117.15 225.64L172.86 185.01C172.37 177.65 171.39 158.03 173.67 143.43C173.81 142.51 174.08 141.62 174.5 140.79C175.12 139.56 175.59 139.35 175.59 139.35H192.33C192.33 139.35 192.8 139.56 193.42 140.79C193.84 141.62 194.1 142.51 194.25 143.42C195.46 151.18 195.75 160.35 195.69 168.36L270.61 113.72C271.42 113.13 271.9 112.19 271.9 111.18V44.18C271.9 27.12 282.39 4 287.11 4M287.05 0C282.73 0 278.33 5.45 273.97 16.19C270.07 25.78 267.84 35.99 267.84 44.18V110.73L199.57 160.52C199.4 153.73 198.93 147.78 198.14 142.79C197.93 141.42 197.52 140.14 196.93 138.98C196.1 137.33 195.08 136.22 193.92 135.69C193.4 135.45 192.84 135.33 192.27 135.33H175.53C174.96 135.33 174.4 135.45 173.88 135.69C172.72 136.22 171.7 137.32 170.87 138.97C170.28 140.14 169.88 141.42 169.66 142.79C167.52 156.45 168.15 174.18 168.67 183.05L121.04 217.79C120.88 210.92 120.4 204.91 119.61 199.86C119.4 198.49 118.99 197.21 118.4 196.04C117.57 194.39 116.56 193.28 115.39 192.76C114.87 192.52 114.3 192.4 113.73 192.4H96.99C96.42 192.4 95.85 192.52 95.33 192.76C94.17 193.29 93.16 194.39 92.32 196.04C91.73 197.21 91.33 198.49 91.11 199.86C88.96 213.6 89.6 231.41 90.13 240.32L64.61 258.93V255.24C64.61 255.09 64.61 254.94 64.59 254.8C63.89 248.49 61.91 240.97 56.45 240.97C50.99 240.97 49.01 248.49 48.31 254.8C48.29 254.95 48.29 255.09 48.29 255.24V270.84L3.68 303.38C3.62 303.43 3.56 303.47 3.5 303.52C3.14 303.81 0 306.56 0 312.16V339.55C0 339.89 0.04 340.23 0.13 340.56C0.68 342.65 2.69 344.89 5.81 344.89C7 344.89 8.25 344.55 9.53 343.88C9.68 343.8 10.49 343.36 11.89 342.59C54.66 319.27 89.38 300.9 111.13 289.51C111.66 289.46 112.57 289.42 113.28 289.38C117.14 289.19 118.77 289.04 120.07 288.34C181.55 256.19 246.21 220.75 266.95 209.34V306.59C266.95 306.59 266.95 306.64 266.95 306.66C266.99 309.09 267.96 365 270.06 384.07C259.5 393.24 207.16 440.92 204.61 443.25C203.98 443.82 201.69 446.17 201.69 450.45V464.26C201.69 464.36 201.69 464.45 201.7 464.55C201.78 465.69 202.07 466.63 202.49 467.39V468.16C202.49 470.46 204.29 472.85 207.29 472.85C207.56 472.85 208.19 472.85 275.37 467.06V489.03C275.37 490.49 275.74 491.92 276.45 493.17C277.58 495.17 278.76 496.66 280.01 497.65V498.51C279.93 499.43 279.99 501.22 281.26 502.71C282.23 503.85 283.62 504.47 285.17 504.47C286.72 504.47 288.12 503.84 289.09 502.71C290.36 501.22 290.42 499.43 290.34 498.51V497.65C291.59 496.66 292.77 495.17 293.9 493.17C294.61 491.92 294.98 490.49 294.98 489.03V467.06C308.78 468.24 362.44 472.85 363.4 472.85C366.4 472.85 368.2 470.47 368.2 468.16V467.39C368.62 466.63 368.9 465.69 368.99 464.55C368.99 464.45 369 464.36 369 464.26V450.45C369 446.17 366.71 443.82 366.08 443.25C363.53 440.93 311.2 393.25 300.63 384.08C302.42 368.64 304.71 328.85 305.64 312.05C305.83 308.56 305.93 305.01 305.93 301.5V209.34C326.66 220.75 391.34 256.2 452.81 288.34C454.11 289.05 455.74 289.19 459.6 289.38C460.31 289.42 461.22 289.46 461.75 289.51C483.27 300.78 517.59 319.22 559.78 343.5C561.75 344.64 562.28 344.94 562.5 345.05C563.77 345.72 565.02 346.06 566.22 346.06C569.34 346.06 571.35 343.81 571.9 341.72C571.99 341.39 572.03 341.05 572.03 340.71V313.32C572.03 307.71 568.89 304.97 568.54 304.68C568.51 304.65 568.47 304.63 568.44 304.6L524.59 270.87V255.2C524.59 255.05 524.59 254.9 524.57 254.76C523.87 248.45 521.89 240.93 516.43 240.93C510.97 240.93 508.99 248.45 508.29 254.76C508.27 254.91 508.27 255.05 508.27 255.2V258.89L482.75 240.28C483.28 231.37 483.92 213.56 481.77 199.82C481.56 198.45 481.15 197.17 480.56 196C479.73 194.35 478.72 193.24 477.55 192.72C477.03 192.48 476.46 192.36 475.89 192.36H459.15C458.58 192.36 458.01 192.48 457.49 192.72C456.33 193.25 455.32 194.35 454.48 196C453.89 197.17 453.49 198.45 453.27 199.82C452.48 204.87 452 210.87 451.84 217.75L404.21 183.01C404.73 174.13 405.36 156.41 403.22 142.75C403.01 141.38 402.6 140.1 402.01 138.93C401.18 137.28 400.16 136.17 399 135.64C398.48 135.4 397.92 135.28 397.35 135.28H380.61C380.04 135.28 379.48 135.4 378.96 135.64C377.8 136.17 376.78 137.27 375.95 138.92C375.36 140.09 374.96 141.37 374.74 142.74C373.96 147.72 373.48 153.63 373.32 160.39L306.28 110.68V44.18C306.28 35.32 304.04 24.87 300.14 15.51C297.19 8.43 292.52 0 287.07 0L287.05 0Z" fill="#231F20"/>
</g>
<defs>
<clipPath id="clip0_722_2">
<rect width="572" height="504.49" fill="white"/>
</clipPath>
</defs>
</svg>
