<svg width="292" height="388" viewBox="0 0 292 388" fill="none" xmlns="http://www.w3.org/2000/svg">
<g clip-path="url(#clip0_595_2534)">
<path d="M202.8 386C202.6 386 202.39 385.97 202.19 385.91L150.46 369.43C149.69 373.98 148.49 376.12 146.52 376.66C146.35 376.71 146.17 376.73 146 376.73C145.83 376.73 145.65 376.71 145.48 376.66C143.51 376.13 142.32 373.99 141.54 369.43L89.81 385.91C89.61 385.97 89.41 386 89.2 386C88.78 386 88.37 385.87 88.02 385.61C87.5 385.23 87.2 384.63 87.2 384C87.2 383.46 87.2 382.93 87.19 382.4C87.15 378.07 87.1 373.59 90.31 369.9C90.41 369.78 90.52 369.68 90.65 369.59L138.86 334.72C137.67 330.87 135.32 323.13 133.69 316.18C130.49 312.67 126.35 307.76 124.15 305.12C123.89 305.24 123.61 305.31 123.32 305.32C121.99 305.34 120.33 305.35 118.7 305.35C115.45 305.35 112.35 305.32 112.35 305.32C111.47 305.32 110.69 304.72 110.45 303.87C109.59 300.9 108.94 298.91 108.3 296.99C107.46 294.46 106.67 292.06 105.63 287.94C103.42 277.25 103.76 254.73 105.58 243.61C105.7 241.72 107.43 240.05 109.32 240.05H125.05C125.74 240.05 126.41 240.27 126.98 240.64V216.35L4.45 244.89C4.3 244.92 4.15 244.94 4 244.94C3.55 244.94 3.11 244.79 2.76 244.51C2.28 244.13 2 243.55 2 242.94C2 239.68 3.03 230.55 7.74 227.58C7.77 227.56 126.96 161.53 126.96 161.53V43.67C126.96 39 129.61 20.93 134.66 12.25C138.84 5.06 142.23 2 146 2C149.77 2 153.16 5.07 157.34 12.25C162.39 20.93 165.04 39 165.04 43.67V161.53C165.04 161.53 284.23 227.56 284.26 227.58C288.97 230.55 290 239.67 290 242.94C290 243.55 289.72 244.13 289.24 244.51C288.88 244.79 288.44 244.94 288 244.94C287.85 244.94 287.7 244.92 287.55 244.89L165.04 216.37V240.66C165.62 240.29 166.28 240.07 166.97 240.07H182.7C184.59 240.07 186.33 241.74 186.44 243.63C188.25 254.75 188.59 277.27 186.4 287.88C185.34 292.09 184.55 294.48 183.71 297.02C183.07 298.94 182.42 300.93 181.56 303.9C181.31 304.75 180.54 305.34 179.66 305.35C179.66 305.35 176.55 305.38 173.31 305.38C171.68 305.38 170.02 305.38 168.69 305.35C168.4 305.35 168.11 305.28 167.86 305.15C165.66 307.79 161.53 312.7 158.32 316.21C156.7 323.13 154.33 330.9 153.15 334.75L201.36 369.61C201.48 369.7 201.6 369.8 201.7 369.92C204.91 373.61 204.87 378.09 204.82 382.42C204.82 382.95 204.81 383.48 204.81 384.02C204.81 384.66 204.51 385.26 203.99 385.63C203.64 385.88 203.23 386.02 202.81 386.02L202.8 386Z" fill="white"/>
<path d="M146 4C148.62 4 151.52 6.22 155.61 13.26C160.34 21.39 163.04 38.84 163.04 43.68V162.72L283.19 229.28C286.68 231.48 288 238.98 288 242.94L163.04 213.85V246.89C163.04 250.03 162.97 253.61 162.83 257.48L163.91 256.6C163.91 256.6 163.47 251.75 165.22 243.82C165.22 242.94 166.09 242.06 166.97 242.06H182.7C183.57 242.06 184.45 242.94 184.45 243.82C186.2 254.4 186.63 276.88 184.45 287.46C182.66 294.52 181.68 296.27 179.64 303.33C179.64 303.33 176.54 303.36 173.3 303.36C171.68 303.36 170.03 303.36 168.71 303.33L167.84 302.01C167.84 302.01 161.07 310.25 156.48 315.23C154.71 322.92 151.93 331.88 150.89 335.21L150.8 335.51L200.17 371.22C203.23 374.73 202.79 379.15 202.79 384L148.81 366.81C148.28 371.19 147.43 374.34 145.99 374.73C144.55 374.34 143.7 371.19 143.17 366.81L89.19 384C89.19 379.15 88.75 374.73 91.81 371.22L141.18 335.51L141.09 335.21C140.05 331.88 137.28 322.92 135.5 315.23C130.91 310.24 124.14 302.01 124.14 302.01L123.27 303.33C121.95 303.35 120.3 303.36 118.68 303.36C115.44 303.36 112.34 303.33 112.34 303.33C110.31 296.27 109.32 294.52 107.53 287.46C105.35 276.88 105.78 254.4 107.53 243.82C107.53 242.94 108.4 242.06 109.28 242.06H125.01C125.88 242.06 126.76 242.94 126.76 243.82C128.51 251.75 128.07 256.6 128.07 256.6L129.15 257.48C129.01 253.6 128.94 250.02 128.94 246.89V213.85L4 242.94C4 238.97 5.31 231.48 8.81 229.28L128.96 162.72V43.67C128.96 38.84 131.66 21.39 136.39 13.25C140.48 6.21 143.38 3.99 146 3.99M146 0C140.25 0 136.17 5.68 132.93 11.25C127.75 20.15 124.96 38.24 124.96 43.68V160.36L6.87 225.77C6.8 225.81 6.74 225.85 6.67 225.89C1.39 229.22 0 238.5 0 242.94C0 244.16 0.56 245.31 1.51 246.07C2.22 246.64 3.1 246.94 4 246.94C4.3 246.94 4.61 246.91 4.91 246.84L124.96 218.89V238.06H109.3C106.38 238.06 103.81 240.5 103.57 243.39C101.74 254.71 101.41 277.51 103.63 288.27C103.64 288.33 103.65 288.38 103.67 288.44C104.73 292.63 105.53 295.06 106.38 297.63C107.01 299.53 107.66 301.5 108.51 304.43C109 306.13 110.55 307.31 112.31 307.32C112.31 307.32 115.43 307.35 118.68 307.35C120.58 307.35 122.15 307.34 123.34 307.32H123.36C125.58 309.97 128.99 314 131.84 317.15C133.3 323.26 135.27 329.89 136.51 333.94L89.46 367.96C89.21 368.14 88.99 368.34 88.79 368.57C85.08 372.83 85.13 377.92 85.17 382.4C85.17 382.92 85.18 383.45 85.18 383.98C85.18 385.26 85.79 386.46 86.82 387.21C87.51 387.72 88.34 387.98 89.18 387.98C89.59 387.98 90 387.92 90.39 387.79L140 371.99C140.85 375.48 142.26 377.84 144.93 378.56C145.27 378.65 145.63 378.7 145.98 378.7C146.33 378.7 146.68 378.65 147.03 378.56C149.7 377.83 151.11 375.47 151.96 371.99L201.57 387.79C201.97 387.92 202.38 387.98 202.78 387.98C203.62 387.98 204.45 387.72 205.14 387.21C206.17 386.46 206.78 385.26 206.78 383.98C206.78 383.45 206.78 382.92 206.79 382.4C206.84 377.91 206.89 372.83 203.17 368.57C202.97 368.34 202.74 368.13 202.5 367.96L155.45 333.94C156.69 329.89 158.66 323.26 160.12 317.15C162.97 314 166.39 309.97 168.6 307.32H168.62C169.81 307.34 171.37 307.35 173.28 307.35C176.54 307.35 179.65 307.32 179.65 307.32C181.42 307.3 182.97 306.13 183.45 304.43C184.3 301.5 184.95 299.53 185.58 297.62C186.43 295.05 187.23 292.62 188.29 288.43C188.3 288.37 188.32 288.32 188.33 288.26C190.55 277.49 190.22 254.7 188.39 243.38C188.15 240.49 185.58 238.05 182.66 238.05H167V218.88L287.05 246.83C287.35 246.9 287.65 246.93 287.96 246.93C288.85 246.93 289.73 246.63 290.45 246.06C291.41 245.3 291.96 244.15 291.96 242.93C291.96 238.49 290.57 229.21 285.29 225.88C285.23 225.84 285.16 225.8 285.09 225.76L167 160.34V43.67C167 38.24 164.21 20.14 159.03 11.24C155.83 5.69 151.75 0 146 0Z" fill="black"/>
</g>
<defs>
<clipPath id="clip0_595_2534">
<rect width="292" height="388" fill="white"/>
</clipPath>
</defs>
</svg>
