<svg width="337" height="475" viewBox="0 0 337 475" fill="none" xmlns="http://www.w3.org/2000/svg">
<g clip-path="url(#clip0_893_158)">
<path d="M225.96 472.21C225.71 472.21 225.47 472.169 225.24 472.069L174.08 452.18C173.91 458.27 173 462.9 168.5 462.9C164 462.9 163.09 458.27 162.92 452.18L111.76 472.069C111.53 472.159 111.28 472.21 111.03 472.21C110.63 472.21 110.24 472.09 109.9 471.859C109.36 471.49 109.03 470.87 109.03 470.21V449.27C109.03 448.699 109.28 448.15 109.7 447.77L160.17 403.109C156.88 399.68 156.18 394.249 157.27 383.229C156.48 379.4 155.7 375.639 154.95 371.99L154.06 367.69L148.24 362.72C148.18 364.02 148.12 365.35 148.06 366.71C148.01 367.74 147.19 368.57 146.16 368.62C146.16 368.62 136.97 369.079 136.94 369.079C136 369.079 135.18 368.419 134.98 367.49C129.72 342.299 126.1 312.549 130.56 306.77C131.41 305.68 132.4 305.41 133.08 305.37L143.92 304.829C143.92 304.829 144.07 304.829 144.1 304.829C145.42 304.829 146.39 305.44 147.12 306.44V264.62L146.51 264.75C145.69 268.25 143.73 268.81 142.55 268.81C141.61 268.81 140.08 268.44 139.11 266.299L121.58 269.97C120.77 273.549 118.79 274.13 117.6 274.13C116.64 274.13 115.09 273.75 114.12 271.53L111.67 272.039L101.25 276.889C100.74 279.469 99.62 280.77 97.9 280.77C97.28 280.77 96.34 280.57 95.58 279.53L69.13 291.85C68.65 294.64 67.51 296.06 65.72 296.06C64.93 296.06 63.97 295.76 63.24 294.6L4.84 321.799C4.57 321.919 4.28 321.99 4 321.99C3.62 321.99 3.25 321.88 2.93 321.68C2.35 321.31 2 320.68 2 319.99V299.38C2 294.88 3.53 291.94 7.65 288.53C7.68 288.5 7.71 288.479 7.75 288.46L102.2 219.409L147.13 175.889V82.0095C147.13 68.1395 149.26 49.2395 152.55 33.8495C156.77 14.1295 162 3.49949 168.1 2.26949C168.23 2.23949 168.36 2.22949 168.5 2.22949C168.64 2.22949 168.77 2.23949 168.9 2.26949C175 3.50949 180.23 14.1295 184.45 33.8495C187.74 49.2295 189.87 68.1395 189.87 82.0095V175.889L234.8 219.409L329.25 288.46C329.25 288.46 329.31 288.51 329.34 288.53C333.46 291.94 334.99 294.88 334.99 299.38V319.99C334.99 320.669 334.64 321.31 334.07 321.68C333.74 321.889 333.37 321.99 332.99 321.99C332.7 321.99 332.41 321.93 332.15 321.799L273.75 294.6C273.02 295.76 272.06 296.06 271.27 296.06C269.48 296.06 268.34 294.65 267.86 291.85L241.41 279.53C240.65 280.57 239.7 280.77 239.09 280.77C237.37 280.77 236.25 279.469 235.74 276.889L225.32 272.039L222.87 271.53C221.9 273.74 220.35 274.13 219.39 274.13C218.19 274.13 216.21 273.549 215.41 269.97L197.88 266.299C196.91 268.44 195.38 268.81 194.44 268.81C193.26 268.81 191.3 268.24 190.48 264.75L189.87 264.62V306.44C190.59 305.43 191.56 304.829 192.88 304.829C192.91 304.829 193.03 304.829 193.06 304.829L203.9 305.37C204.58 305.4 205.57 305.669 206.42 306.77C210.89 312.549 207.26 342.299 202 367.49C201.81 368.419 200.98 369.079 200.04 369.079C200.01 369.079 190.82 368.62 190.82 368.62C189.79 368.57 188.97 367.74 188.92 366.71C188.86 365.35 188.8 364.03 188.74 362.72L182.92 367.69L182.14 371.43C181.35 375.259 180.53 379.199 179.7 383.229C180.79 394.249 180.09 399.68 176.8 403.109L227.27 447.77C227.7 448.15 227.94 448.69 227.94 449.27V470.21C227.94 470.87 227.61 471.49 227.07 471.859C226.73 472.09 226.34 472.21 225.94 472.21H225.96Z" fill="white"/>
<path d="M168.5 4.20996C179.99 6.53996 187.87 56.06 187.87 81.99V176.72L233.51 220.93L328.07 290.07C331.68 293.06 332.99 295.39 332.99 299.38V319.99L272.63 291.88C272.41 292.99 272 294.07 271.26 294.07C270.2 294.07 269.82 291.89 269.69 290.51L240.4 276.87C240.17 277.88 239.77 278.78 239.08 278.78C238.1 278.78 237.7 276.91 237.54 275.54L225.94 270.14L221.47 269.2C221.22 270.53 220.65 272.13 219.37 272.13C217.78 272.13 217.29 269.63 217.14 268.29L196.5 263.97C196.24 265.28 195.67 266.81 194.42 266.81C192.86 266.81 192.36 264.42 192.2 263.07L187.86 262.16V316.67H189.7C190.07 309.89 191.05 306.83 192.88 306.83C192.91 306.83 192.93 306.83 192.96 306.83L198.38 307.1L203.8 307.37C208.2 307.59 207.24 332.62 200.04 367.08L195.48 366.85L190.92 366.62C190.79 363.82 190.67 361.12 190.56 358.54L181.1 366.62C180.01 371.89 178.85 377.43 177.68 383.13C178.99 396.09 177.68 400.41 173.74 403.07L225.95 449.27V470.21L172.1 449.27C172.1 458.24 171.11 460.9 168.49 460.9C165.87 460.9 164.88 458.24 164.88 449.27L111.03 470.21V449.27L163.24 403.07C159.3 400.41 157.99 396.09 159.3 383.13C158.13 377.43 156.97 371.88 155.88 366.62L146.42 358.54C146.31 361.12 146.19 363.82 146.06 366.62L141.5 366.85L136.94 367.08C129.75 332.62 128.78 307.58 133.18 307.37L138.6 307.1L144.02 306.83C144.02 306.83 144.08 306.83 144.1 306.83C145.93 306.83 146.9 309.89 147.28 316.67H149.12V262.16L144.78 263.07C144.62 264.42 144.11 266.81 142.56 266.81C141.31 266.81 140.74 265.28 140.48 263.97L119.84 268.29C119.69 269.62 119.2 272.13 117.61 272.13C116.34 272.13 115.77 270.53 115.51 269.2L111.04 270.14L99.44 275.54C99.28 276.91 98.89 278.78 97.9 278.78C97.22 278.78 96.82 277.88 96.58 276.87L67.29 290.51C67.16 291.89 66.78 294.07 65.72 294.07C64.98 294.07 64.57 293 64.35 291.88L3.99 319.99V299.38C3.99 295.39 5.3 293.06 8.92 290.07L103.48 220.93L149.12 176.72V81.99C149.12 56.06 157 6.53996 168.49 4.20996M168.49 0.209961C168.22 0.209961 167.96 0.239961 167.7 0.289961C163.58 1.11996 160.07 4.97996 156.95 12.09C154.61 17.43 152.47 24.61 150.58 33.41C147.26 48.92 145.11 67.99 145.11 81.99V175.02L100.89 217.86L6.56 286.83C6.5 286.88 6.43 286.93 6.37 286.98C2.54 290.15 0 293.47 0 299.37V319.98C0 321.35 0.7 322.62 1.85 323.35C2.5 323.77 3.25 323.98 4 323.98C4.57 323.98 5.15 323.86 5.69 323.61L62.76 297.03C63.87 297.91 65.05 298.06 65.73 298.06C67.29 298.06 69.81 297.37 70.88 293.25L95.18 281.93C96.22 282.65 97.28 282.77 97.9 282.77C99.4 282.77 101.85 282.13 102.96 278.3L112.3 273.95L113.12 273.78C114.68 275.9 116.8 276.12 117.6 276.12C118.65 276.12 121.72 275.75 123.16 271.67L138.13 268.53C139.69 270.58 141.76 270.8 142.55 270.8C143.06 270.8 144.06 270.71 145.12 270.14V302.9C144.8 302.85 144.46 302.82 144.11 302.82C144.02 302.82 143.92 302.82 143.83 302.82L138.41 303.09L132.99 303.36C131.43 303.44 130.01 304.21 128.99 305.53C128.06 306.73 125.61 309.91 126.92 327.56C127.76 338.82 129.87 352.76 133.03 367.88C133.42 369.74 135.06 371.06 136.94 371.06C137.01 371.06 137.07 371.06 137.14 371.06L141.7 370.83L146.26 370.6C148.29 370.5 149.91 368.9 150.05 366.89L152.24 368.76L152.97 372.28C153.72 375.87 154.48 379.56 155.25 383.33C154.38 392.23 154.54 398.5 157.44 402.85L108.38 446.27C107.52 447.03 107.03 448.12 107.03 449.27V470.21C107.03 471.53 107.68 472.77 108.77 473.51C109.44 473.97 110.23 474.21 111.03 474.21C111.52 474.21 112.01 474.12 112.48 473.94L161.05 455.05C161.49 460.08 163.04 464.9 168.49 464.9C173.94 464.9 175.49 460.07 175.93 455.05L224.5 473.94C224.97 474.12 225.46 474.21 225.95 474.21C226.75 474.21 227.53 473.97 228.21 473.51C229.3 472.76 229.95 471.53 229.95 470.21V449.27C229.95 448.12 229.46 447.03 228.6 446.27L179.54 402.85C182.43 398.5 182.59 392.23 181.73 383.33C182.5 379.55 183.27 375.85 184.02 372.25L184.74 368.76L186.93 366.89C187.07 368.9 188.7 370.5 190.72 370.6L195.28 370.83L199.84 371.06C199.91 371.06 199.97 371.06 200.04 371.06C201.92 371.06 203.56 369.74 203.95 367.88C207.11 352.76 209.22 338.81 210.06 327.56C211.38 309.91 208.92 306.73 207.99 305.53C206.97 304.21 205.55 303.43 203.99 303.36L198.57 303.09L193.15 302.82C193.06 302.82 192.96 302.82 192.87 302.82C192.51 302.82 192.18 302.85 191.85 302.9V270.14C192.91 270.71 193.9 270.8 194.42 270.8C195.21 270.8 197.28 270.59 198.84 268.53L213.81 271.67C215.25 275.75 218.32 276.12 219.37 276.12C220.17 276.12 222.28 275.9 223.85 273.78L224.67 273.95L234.01 278.3C235.12 282.13 237.57 282.77 239.07 282.77C239.69 282.77 240.76 282.64 241.79 281.93L266.09 293.25C267.16 297.38 269.69 298.06 271.24 298.06C271.92 298.06 273.1 297.91 274.21 297.03L331.28 323.61C331.82 323.86 332.39 323.98 332.97 323.98C333.72 323.98 334.47 323.77 335.12 323.35C336.27 322.62 336.97 321.34 336.97 319.98V299.37C336.97 293.47 334.42 290.15 330.6 286.98C330.54 286.93 330.47 286.88 330.41 286.83L236.07 217.86L191.85 175.02V81.99C191.85 67.99 189.7 48.92 186.38 33.41C184.5 24.61 182.35 17.44 180.01 12.09C176.9 4.97996 173.38 1.11996 169.26 0.289961C169 0.239961 168.73 0.209961 168.47 0.209961L168.49 0.209961Z" fill="black"/>
</g>
<defs>
<clipPath id="clip0_893_158">
<rect width="337" height="474" fill="white" transform="translate(0 0.209961)"/>
</clipPath>
</defs>
</svg>
