<svg width="295" height="354" viewBox="0 0 295 354" fill="none" xmlns="http://www.w3.org/2000/svg">
<g clip-path="url(#clip0_595_2648)">
<path d="M87.51 351.16C87.09 351.16 86.68 351.03 86.33 350.78C85.87 350.44 85.57 349.92 85.51 349.35C85.05 344.41 85.05 341.62 85.51 336.88C85.57 336.27 85.9 335.72 86.42 335.39L132.1 305.98C129.61 297.34 126.27 282.81 126.27 278.14L125.78 202.74H103.47L102.85 210.72C102.77 211.76 101.9 212.56 100.86 212.56H97.78C96.74 212.56 95.87 211.76 95.79 210.72L95.21 203.32L89.33 204.95C89.22 205.52 89.1 206.11 88.95 206.73C88.69 207.82 88.48 208.76 88.31 209.54C87.62 212.66 87.3 214.08 85.47 214.08C83.64 214.08 83.33 212.66 82.63 209.54C82.47 208.82 82.28 207.96 82.05 206.97L63.73 212.05C63.68 212.29 63.62 212.53 63.56 212.78C63.3 213.87 63.09 214.81 62.92 215.59C62.23 218.71 61.91 220.13 60.08 220.13C58.25 220.13 57.94 218.71 57.24 215.59C57.13 215.09 57.01 214.54 56.86 213.92L4.51997 227.63C4.34997 227.67 4.17997 227.7 4.00997 227.7C3.56997 227.7 3.13997 227.56 2.78997 227.28C2.29997 226.9 2.00997 226.32 2.00997 225.7C2.00997 224.74 1.99997 223.83 1.98997 222.95C1.90997 216.04 1.84997 210.58 7.64997 207.33L87.6 165.25C86.25 156.37 85.55 148.16 88.11 134.66C88.29 133.72 89.11 133.03 90.08 133.03H109.31C110.34 133.03 111.2 133.81 111.3 134.83C111.98 141.55 112.29 146.83 112.28 151.8L125.77 144.43L126.26 56.1698C126.26 47.5798 132.19 21.9998 136.52 14.3898L137.31 12.9898C140.38 7.5498 142.84 3.1998 146.16 2.2498C146.42 2.1198 146.7 2.0498 147.01 2.0498C147.09 2.0498 147.17 2.0498 147.25 2.0598C147.33 2.0598 147.41 2.0498 147.49 2.0498C147.81 2.0498 148.12 2.1298 148.39 2.2598C151.68 3.2398 154.13 7.5698 157.19 12.9898L157.99 14.3998C162.32 22.0098 168.25 47.5898 168.25 56.1898L167.76 144.45L181.24 151.82C181.23 146.85 181.54 141.57 182.22 134.86C182.32 133.84 183.18 133.06 184.21 133.06H203.44C204.4 133.06 205.23 133.74 205.4 134.69C207.95 148.19 207.25 156.4 205.91 165.28L286.8 207.34C292.65 210.62 292.59 216.08 292.51 222.99C292.51 223.87 292.49 224.78 292.49 225.74C292.49 226.36 292.2 226.94 291.72 227.32C291.37 227.6 290.93 227.74 290.49 227.74C290.32 227.74 290.16 227.72 289.99 227.68L236.64 213.96C236.5 214.58 236.37 215.15 236.26 215.64C235.57 218.76 235.25 220.18 233.42 220.18C231.59 220.18 231.28 218.76 230.58 215.64C230.41 214.86 230.2 213.92 229.94 212.83C229.88 212.58 229.82 212.33 229.77 212.1L211.45 207.02C211.22 208.02 211.03 208.88 210.86 209.6C210.17 212.71 209.85 214.13 208.03 214.13C206.21 214.13 205.89 212.71 205.2 209.6C205.03 208.82 204.82 207.88 204.56 206.78C204.41 206.16 204.29 205.57 204.18 205L198.3 203.37L197.72 210.77C197.64 211.81 196.77 212.61 195.73 212.61H192.65C191.61 212.61 190.74 211.81 190.66 210.77L190.04 202.79H167.76L168.25 278.18C168.25 282.86 164.91 297.39 162.42 306.03L208.1 335.44C208.61 335.77 208.95 336.32 209.01 336.93C209.47 341.66 209.47 344.46 209.01 349.4C208.96 349.97 208.66 350.49 208.19 350.83C207.85 351.08 207.43 351.21 207.01 351.21C206.86 351.21 206.72 351.19 206.57 351.16L152.08 338.91C151.04 341.33 150.09 342.83 149.07 343.64C148.7 344.11 148.13 344.41 147.5 344.41C147.42 344.41 147.34 344.41 147.26 344.4C147.19 344.4 147.11 344.41 147.02 344.41C146.38 344.41 145.81 344.11 145.45 343.64C144.43 342.83 143.47 341.33 142.44 338.91L87.95 351.16C87.8 351.19 87.66 351.21 87.51 351.21V351.16Z" fill="white"/>
<path d="M147.5 4V4.05C150.39 4.57 153.04 9.69 156.25 15.33C160.35 22.54 166.25 47.82 166.25 56.13L165.75 145.57L183.29 155.16C183.09 149.07 183.38 143.02 184.2 134.99H203.43C205.99 148.54 205.26 156.4 203.71 166.32L285.88 209.04C291.26 212.06 290.49 217.35 290.49 225.66L235.15 211.43C235.09 211.71 235.03 211.99 234.96 212.29C234.05 216.16 233.74 218.1 233.43 218.1C233.12 218.1 232.81 216.16 231.9 212.29C231.74 211.6 231.61 210.99 231.51 210.42L209.96 204.45C209.86 205 209.74 205.59 209.58 206.25C208.67 210.12 208.36 212.06 208.05 212.06C207.74 212.06 207.43 210.12 206.52 206.25C206.25 205.12 206.08 204.17 205.95 203.34L196.51 200.72L195.74 210.54H192.66L191.89 200.72H165.74L166.24 278.12C166.24 282.52 162.77 297.87 160.07 306.83L207.01 337.05C207.48 341.84 207.44 344.49 207.01 349.14L150.86 336.52C149.71 339.53 148.56 341.7 147.49 342.22V342.34C147.41 342.34 147.33 342.3 147.25 342.28C147.17 342.3 147.09 342.34 147.01 342.34V342.22C145.94 341.7 144.79 339.53 143.64 336.52L87.4899 349.14C87.0599 344.49 87.0199 341.84 87.4899 337.05L134.43 306.83C131.73 297.86 128.26 282.51 128.26 278.12L127.76 200.72H101.61L100.84 210.54H97.7599L96.9899 200.72L87.5499 203.34C87.4299 204.17 87.2499 205.12 86.9799 206.25C86.0699 210.12 85.7599 212.06 85.4499 212.06C85.1399 212.06 84.8299 210.12 83.9199 206.25C83.7599 205.59 83.6499 205 83.5399 204.45L61.99 210.42C61.88 210.99 61.7599 211.6 61.5999 212.29C60.6899 216.16 60.38 218.1 60.07 218.1C59.7599 218.1 59.45 216.16 58.54 212.29C58.47 211.98 58.41 211.71 58.3499 211.43L4.00995 225.66C4.00995 217.35 3.23995 212.06 8.61995 209.04L89.7799 166.32C88.2199 156.41 87.4999 148.54 90.0599 134.99H109.29C110.11 143.02 110.4 149.07 110.2 155.16L127.75 145.57L128.25 56.13C128.25 47.82 134.15 22.54 138.25 15.33C141.46 9.69 144.11 4.56 147 4.05V4C147.08 4 147.16 4.02 147.24 4.03C147.32 4.03 147.4 4 147.48 4M147.48 0C147.4 0 147.32 0 147.24 0C147.17 0 147.09 0 147 0C146.43 0 145.88 0.12 145.39 0.34C141.41 1.6 138.8 6.22 135.56 11.96L134.77 13.36C130.23 21.34 124.25 47.13 124.25 56.14L123.76 143.2L114.22 148.41C114.12 144.32 113.81 139.9 113.27 134.59C113.06 132.55 111.34 130.99 109.29 130.99H90.0599C88.1399 130.99 86.4899 132.36 86.1299 134.25C83.6499 147.35 84.1699 155.56 85.3999 164.1L6.78995 205.51C6.78995 205.51 6.72995 205.54 6.69995 205.56C-0.130051 209.39 -0.0600512 215.98 0.0199488 222.95C0.0199488 223.82 0.0399488 224.73 0.0399488 225.67C0.0399488 226.91 0.609949 228.08 1.59995 228.84C2.30995 229.39 3.16995 229.67 4.03995 229.67C4.37995 229.67 4.71995 229.63 5.04995 229.54L55.3899 216.36C55.59 217.25 55.7399 217.92 55.8899 218.44C56.8099 221.75 59.1399 222.11 60.0999 222.11C61.0599 222.11 63.3899 221.75 64.3099 218.44C64.4799 217.84 64.6499 217.07 64.8899 216.01C65.0399 215.34 65.2199 214.55 65.4299 213.64L80.5799 209.44C80.6199 209.62 80.6599 209.8 80.6999 209.96C80.9399 211.03 81.1099 211.8 81.2799 212.39C82.1999 215.7 84.5299 216.06 85.4899 216.06C86.4499 216.06 88.7799 215.7 89.6999 212.39C89.8699 211.79 90.0399 211.02 90.2799 209.96C90.4499 209.18 90.66 208.26 90.91 207.17C90.96 206.95 91.0099 206.74 91.0599 206.53L93.4199 205.88L93.8099 210.86C93.9699 212.94 95.71 214.55 97.7999 214.55H100.88C102.97 214.55 104.7 212.94 104.87 210.86L105.35 204.72H123.82L124.29 278.15C124.29 282.87 127.34 296.3 129.79 305.09L85.3599 333.7C84.3299 334.36 83.66 335.46 83.5399 336.68C83.0599 341.56 83.0599 344.45 83.5399 349.53C83.6499 350.67 84.2399 351.72 85.1699 352.39C85.8599 352.89 86.6799 353.15 87.5199 353.15C87.8099 353.15 88.1099 353.12 88.3999 353.05L141.31 341.16C142.2 342.96 143.08 344.2 144.06 345.02C144.79 345.83 145.85 346.35 147.03 346.35C147.11 346.35 147.19 346.35 147.27 346.35C147.35 346.35 147.43 346.35 147.51 346.35C148.69 346.35 149.75 345.84 150.48 345.02C151.46 344.19 152.34 342.96 153.23 341.16L206.14 353.05C206.43 353.12 206.72 353.15 207.02 353.15C207.86 353.15 208.68 352.89 209.37 352.39C210.3 351.71 210.89 350.67 211 349.53C211.47 344.44 211.47 341.56 211 336.68C210.88 335.46 210.21 334.37 209.18 333.7L164.75 305.09C167.2 296.31 170.25 282.87 170.25 278.13L169.78 204.73H188.2L188.68 210.87C188.84 212.95 190.58 214.56 192.67 214.56H195.75C197.84 214.56 199.57 212.95 199.74 210.87L200.13 205.89L202.49 206.54C202.54 206.75 202.58 206.96 202.64 207.18C202.9 208.26 203.1 209.19 203.28 209.97C203.52 211.04 203.69 211.81 203.85 212.4C204.77 215.71 207.1 216.07 208.06 216.07C209.02 216.07 211.35 215.71 212.27 212.4C212.44 211.8 212.61 211.03 212.85 209.97C212.89 209.8 212.93 209.63 212.97 209.44L228.12 213.64C228.33 214.55 228.51 215.34 228.66 216.01C228.9 217.08 229.07 217.85 229.24 218.44C230.16 221.75 232.49 222.11 233.45 222.11C234.41 222.11 236.74 221.75 237.66 218.44C237.81 217.91 237.96 217.24 238.16 216.34L289.51 229.54C289.84 229.62 290.17 229.67 290.51 229.67C291.39 229.67 292.25 229.38 292.96 228.83C293.94 228.07 294.51 226.91 294.51 225.67C294.51 224.72 294.52 223.82 294.53 222.95C294.61 215.98 294.68 209.39 287.85 205.56C287.81 205.54 287.78 205.52 287.74 205.5L208.11 164.1C209.34 155.56 209.86 147.35 207.38 134.26C207.02 132.37 205.37 131 203.45 131H184.22C182.17 131 180.45 132.55 180.24 134.6C179.7 139.9 179.39 144.33 179.29 148.42L169.78 143.22L170.27 56.17C170.27 47.14 164.29 21.35 159.75 13.37L158.96 11.97C155.72 6.23 153.11 1.61 149.13 0.35C148.64 0.13 148.09 0.01 147.52 0.01L147.48 0Z" fill="black"/>
</g>
<defs>
<clipPath id="clip0_595_2648">
<rect width="294.52" height="353.16" fill="white"/>
</clipPath>
</defs>
</svg>
