<svg width="296" height="373" viewBox="0 0 296 373" fill="none" xmlns="http://www.w3.org/2000/svg">
<g clip-path="url(#clip0_595_2651)">
<path d="M88.03 370.9C87.61 370.9 87.2 370.77 86.85 370.52C86.39 370.18 86.09 369.66 86.03 369.09C85.57 364.15 85.57 361.36 86.03 356.62C86.09 356.01 86.42 355.46 86.94 355.13L132.65 325.7C129.92 314.87 126.79 285.75 126.79 281.59L126.3 200.74H103.99L103.37 208.72C103.29 209.76 102.42 210.56 101.38 210.56H98.3C97.26 210.56 96.39 209.76 96.31 208.72L95.73 201.32L89.85 202.95C89.74 203.52 89.62 204.11 89.47 204.73C89.21 205.82 89 206.76 88.83 207.54C88.14 210.66 87.82 212.08 85.99 212.08C84.16 212.08 83.85 210.66 83.15 207.54C82.99 206.82 82.8 205.96 82.57 204.97L64.25 210.05C64.2 210.29 64.14 210.53 64.08 210.78C63.82 211.87 63.61 212.81 63.44 213.59C62.75 216.71 62.43 218.13 60.6 218.13C58.77 218.13 58.46 216.71 57.76 213.59C57.65 213.09 57.53 212.54 57.38 211.92L5.03999 225.63C4.86999 225.67 4.69999 225.7 4.52999 225.7C4.08999 225.7 3.65999 225.56 3.30999 225.28C2.81999 224.9 2.52999 224.32 2.52999 223.7C2.52999 222.74 2.51999 221.83 2.50999 220.95C2.42999 214.04 2.36999 208.58 8.16999 205.33L88.12 163.25C86.77 154.37 86.07 146.16 88.63 132.66C88.81 131.72 89.63 131.03 90.6 131.03H109.83C110.86 131.03 111.72 131.81 111.82 132.83C112.5 139.55 112.81 144.83 112.8 149.8L126.29 142.43L126.78 56.1698C126.78 47.5798 132.71 21.9998 137.04 14.3898L137.83 12.9898C140.9 7.5498 143.36 3.1998 146.68 2.2498C146.94 2.1198 147.22 2.0498 147.53 2.0498C147.61 2.0498 147.69 2.0498 147.77 2.0598C147.85 2.0598 147.93 2.0498 148.01 2.0498C148.33 2.0498 148.64 2.1298 148.91 2.2598C152.2 3.2398 154.65 7.5698 157.71 12.9898L158.51 14.3998C162.84 22.0098 168.77 47.5898 168.77 56.1898L168.28 142.45L181.76 149.82C181.75 144.85 182.06 139.57 182.74 132.86C182.84 131.84 183.7 131.06 184.73 131.06H203.96C204.92 131.06 205.75 131.74 205.92 132.69C208.47 146.19 207.77 154.4 206.43 163.28L287.32 205.34C293.17 208.62 293.11 214.08 293.03 220.99C293.03 221.87 293.01 222.78 293.01 223.74C293.01 224.36 292.72 224.94 292.24 225.32C291.89 225.6 291.45 225.74 291.01 225.74C290.84 225.74 290.68 225.72 290.51 225.68L237.16 211.96C237.02 212.58 236.89 213.15 236.78 213.64C236.09 216.76 235.77 218.18 233.94 218.18C232.11 218.18 231.8 216.76 231.1 213.64C230.93 212.86 230.72 211.92 230.46 210.83C230.4 210.58 230.34 210.33 230.29 210.1L211.97 205.02C211.74 206.02 211.55 206.88 211.38 207.6C210.69 210.71 210.37 212.13 208.55 212.13C206.73 212.13 206.41 210.71 205.72 207.6C205.55 206.82 205.34 205.88 205.08 204.78C204.93 204.16 204.81 203.57 204.7 203L198.82 201.37L198.24 208.77C198.16 209.81 197.29 210.61 196.25 210.61H193.17C192.13 210.61 191.26 209.81 191.18 208.77L190.56 200.79H168.27L168.76 281.63C168.76 285.81 165.64 314.93 162.9 325.75L208.61 355.18C209.12 355.51 209.46 356.06 209.52 356.67C209.98 361.4 209.98 364.2 209.52 369.14C209.47 369.71 209.17 370.23 208.7 370.57C208.36 370.82 207.94 370.95 207.52 370.95C207.37 370.95 207.23 370.93 207.08 370.9L152.59 358.65C151.55 361.07 150.6 362.57 149.58 363.38C149.21 363.85 148.64 364.15 148.01 364.15C147.93 364.15 147.85 364.15 147.77 364.14C147.7 364.14 147.62 364.15 147.53 364.15C146.89 364.15 146.32 363.85 145.96 363.38C144.94 362.57 143.98 361.07 142.95 358.65L88.46 370.9C88.31 370.93 88.17 370.95 88.02 370.95L88.03 370.9Z" fill="white"/>
<path d="M148.02 4V4.05C150.91 4.57 153.56 9.69 156.77 15.33C160.87 22.54 166.77 47.82 166.77 56.13L166.27 143.57L183.81 153.16C183.61 147.07 183.9 141.02 184.72 132.99H203.95C206.51 146.54 205.78 154.4 204.23 164.32L286.4 207.04C291.78 210.06 291.01 215.35 291.01 223.66L235.67 209.43C235.61 209.71 235.55 209.99 235.48 210.29C234.57 214.16 234.26 216.1 233.95 216.1C233.64 216.1 233.33 214.16 232.42 210.29C232.26 209.6 232.13 208.99 232.03 208.42L210.48 202.45C210.38 203 210.26 203.59 210.1 204.25C209.19 208.12 208.88 210.06 208.57 210.06C208.26 210.06 207.95 208.12 207.04 204.25C206.77 203.12 206.6 202.17 206.47 201.34L197.03 198.72L196.26 208.54H193.18L192.41 198.72H166.26L166.76 281.57C166.76 285.97 163.29 317.6 160.59 326.57L207.53 356.79C208 361.58 207.96 364.23 207.53 368.88L151.38 356.26C150.23 359.27 149.08 361.44 148.01 361.96V362.08C147.93 362.08 147.85 362.04 147.77 362.02C147.69 362.04 147.61 362.08 147.53 362.08V361.96C146.46 361.44 145.31 359.27 144.16 356.26L88.01 368.88C87.58 364.23 87.54 361.58 88.01 356.79L134.95 326.57C132.25 317.6 128.78 285.97 128.78 281.57L128.28 198.72H102.13L101.36 208.54H98.28L97.51 198.72L88.07 201.34C87.95 202.17 87.77 203.12 87.5 204.25C86.59 208.12 86.28 210.06 85.97 210.06C85.66 210.06 85.35 208.12 84.44 204.25C84.28 203.59 84.17 203 84.06 202.45L62.51 208.42C62.4 208.99 62.28 209.6 62.12 210.29C61.21 214.16 60.9 216.1 60.59 216.1C60.28 216.1 59.97 214.16 59.06 210.29C58.99 209.98 58.93 209.71 58.87 209.43L4.52997 223.66C4.52997 215.35 3.75997 210.06 9.13997 207.04L90.3 164.32C88.74 154.41 88.02 146.54 90.58 132.99H109.81C110.63 141.02 110.92 147.07 110.72 153.16L128.27 143.57L128.77 56.13C128.77 47.82 134.67 22.54 138.77 15.33C141.98 9.69 144.63 4.56 147.52 4.05V4C147.6 4 147.68 4.02 147.76 4.03C147.84 4.03 147.92 4 148 4M148 0C147.92 0 147.84 0 147.76 0C147.69 0 147.61 0 147.52 0C146.95 0 146.4 0.12 145.91 0.34C141.93 1.6 139.32 6.22 136.08 11.96L135.29 13.36C130.75 21.34 124.77 47.13 124.77 56.14L124.28 141.2L114.74 146.41C114.64 142.32 114.33 137.9 113.79 132.59C113.58 130.55 111.86 128.99 109.81 128.99H90.58C88.66 128.99 87.01 130.36 86.65 132.25C84.17 145.35 84.69 153.56 85.92 162.1L7.30997 203.51C7.30997 203.51 7.24997 203.54 7.21997 203.56C0.389968 207.39 0.459968 213.98 0.539968 220.95C0.539968 221.82 0.559968 222.73 0.559968 223.67C0.559968 224.91 1.12997 226.08 2.11997 226.84C2.82997 227.39 3.68997 227.67 4.55997 227.67C4.89997 227.67 5.23997 227.63 5.56997 227.54L55.91 214.36C56.11 215.25 56.26 215.92 56.41 216.44C57.3 219.63 59.43 220.11 60.62 220.11C61.81 220.11 63.94 219.63 64.83 216.44C65 215.84 65.17 215.07 65.41 214.01C65.56 213.34 65.74 212.55 65.95 211.64L81.1 207.44C81.14 207.62 81.18 207.8 81.22 207.96C81.46 209.03 81.63 209.8 81.8 210.39C82.69 213.58 84.82 214.06 86.01 214.06C87.2 214.06 89.33 213.58 90.22 210.39C90.39 209.79 90.56 209.02 90.8 207.96C90.97 207.19 91.18 206.26 91.43 205.17C91.48 204.95 91.53 204.74 91.58 204.53L93.94 203.88L94.33 208.86C94.49 210.94 96.23 212.55 98.32 212.55H101.4C103.49 212.55 105.22 210.94 105.39 208.86L105.87 202.72H124.34L124.82 281.6C124.82 285.62 127.73 312.85 130.41 324.77L85.89 353.44C84.86 354.1 84.19 355.2 84.07 356.42C83.59 361.3 83.59 364.19 84.07 369.27C84.18 370.41 84.77 371.46 85.7 372.13C86.39 372.63 87.21 372.89 88.05 372.89C88.34 372.89 88.64 372.86 88.93 372.79L141.84 360.9C142.73 362.7 143.61 363.94 144.59 364.76C145.32 365.57 146.38 366.09 147.56 366.09C147.64 366.09 147.72 366.09 147.8 366.09C147.88 366.09 147.96 366.09 148.04 366.09C149.22 366.09 150.28 365.58 151.01 364.76C151.99 363.93 152.87 362.7 153.76 360.9L206.67 372.79C206.96 372.86 207.25 372.89 207.55 372.89C208.39 372.89 209.21 372.63 209.9 372.13C210.83 371.45 211.42 370.41 211.53 369.27C212 364.18 212 361.3 211.53 356.42C211.41 355.2 210.74 354.11 209.71 353.44L165.19 324.77C167.87 312.85 170.78 285.61 170.78 281.57L170.3 202.72H188.72L189.2 208.86C189.36 210.94 191.1 212.55 193.19 212.55H196.27C198.36 212.55 200.09 210.94 200.26 208.86L200.65 203.88L203.01 204.53C203.06 204.74 203.1 204.95 203.16 205.17C203.42 206.25 203.62 207.18 203.79 207.96C204.03 209.03 204.2 209.8 204.37 210.39C205.26 213.58 207.39 214.06 208.58 214.06C209.77 214.06 211.9 213.58 212.79 210.39C212.96 209.79 213.13 209.02 213.37 207.96C213.41 207.79 213.45 207.62 213.49 207.44L228.64 211.64C228.85 212.55 229.03 213.34 229.18 214.01C229.42 215.08 229.59 215.85 229.76 216.44C230.65 219.63 232.78 220.11 233.97 220.11C235.16 220.11 237.29 219.63 238.18 216.44C238.33 215.91 238.48 215.24 238.68 214.34L290.03 227.54C290.36 227.62 290.69 227.67 291.03 227.67C291.91 227.67 292.77 227.38 293.48 226.83C294.46 226.07 295.03 224.91 295.03 223.67C295.03 222.72 295.04 221.82 295.05 220.95C295.13 213.98 295.2 207.39 288.37 203.56C288.33 203.54 288.3 203.52 288.26 203.5L208.63 162.1C209.86 153.56 210.38 145.35 207.9 132.26C207.54 130.37 205.89 129 203.97 129H184.74C182.69 129 180.97 130.55 180.76 132.6C180.22 137.9 179.91 142.33 179.81 146.42L170.3 141.22L170.79 56.17C170.79 47.14 164.81 21.35 160.27 13.37L159.48 11.97C156.24 6.23 153.63 1.61 149.65 0.35C149.16 0.13 148.61 0.01 148.04 0.01L148 0Z" fill="black"/>
</g>
<defs>
<clipPath id="clip0_595_2651">
<rect width="294.52" height="372.9" fill="white" transform="translate(0.52002)"/>
</clipPath>
</defs>
</svg>
