<svg width="351" height="404" viewBox="0 0 351 404" fill="none" xmlns="http://www.w3.org/2000/svg">
<g clip-path="url(#clip0_595_2626)">
<path d="M246.22 401.09C246.09 401.09 245.95 401.08 245.82 401.05L179.51 387.59C178.14 390.74 177.02 391.9 175.5 391.9C173.98 391.9 172.86 390.74 171.49 387.59L105.18 401.05C105.05 401.08 104.91 401.09 104.78 401.09C104.36 401.09 103.96 400.96 103.61 400.71C103.16 400.39 102.86 399.89 102.79 399.33C102.14 394.15 102.14 391.33 102.79 386.74C102.88 386.12 103.26 385.57 103.81 385.27L163.21 352.67C162.27 348.28 161.18 343.85 160.12 339.54C157.13 327.42 154.04 314.9 154.04 302.01V223.32H135.62C135.51 223.94 135.37 224.58 135.23 225.24C134.99 226.31 134.8 227.23 134.64 228C134 231.1 133.7 232.51 131.87 232.51C130.04 232.51 129.75 231.1 129.1 228C128.94 227.23 128.75 226.31 128.51 225.24C128.36 224.58 128.24 223.94 128.12 223.32H127.35L119.83 224.85C119.69 225.71 119.51 226.61 119.31 227.54C119.07 228.61 118.88 229.53 118.72 230.3C118.08 233.4 117.78 234.81 115.95 234.81C114.12 234.81 113.83 233.4 113.18 230.3C113.02 229.53 112.83 228.61 112.59 227.54C112.5 227.14 112.42 226.75 112.34 226.37L88.06 231.3C87.9 232.29 87.7 233.34 87.46 234.44C87.22 235.51 87.03 236.43 86.87 237.2C86.23 240.3 85.93 241.71 84.1 241.71C82.27 241.71 81.98 240.3 81.33 237.2C81.17 236.43 80.98 235.51 80.74 234.44C80.62 233.9 80.51 233.37 80.41 232.85L70.93 234.77L7.10999 249.34V252.91C7.10999 253.25 7.01999 253.58 6.85999 253.88C6.62999 254.29 5.94999 255.52 4.51999 255.52C3.08999 255.52 2.39999 254.28 2.17999 253.87C2.01999 253.58 1.92999 253.25 1.92999 252.91V237.98C1.92999 234.29 3.29999 231.76 5.99999 230.44L116.24 179.31C116.72 179.08 117.39 178.71 118.18 178.27C115.93 177.21 115.01 173.2 114.95 172.05C114.4 162.16 114.28 156.27 114.95 145.44C115 143.55 116.7 140.07 119.34 140.07H134.87C137.51 140.07 139.21 143.55 139.26 145.44C139.69 152.49 139.81 157.57 139.63 163.64C144.81 159.64 149.62 155.59 153.98 151.54V56.0204C153.98 45.0204 158.87 30.7904 162.97 20.8004C168.39 7.59039 171.65 2.90039 175.43 2.90039C179.21 2.90039 182.46 7.58039 187.89 20.8004C191.99 30.7904 196.88 45.0104 196.88 56.0204V151.54C201.24 155.59 206.05 159.65 211.23 163.64C211.05 157.57 211.17 152.49 211.6 145.44C211.65 143.55 213.35 140.07 215.99 140.07H231.52C234.16 140.07 235.86 143.55 235.91 145.44C236.58 156.27 236.45 162.16 235.91 172.05C235.85 173.2 234.93 177.21 232.68 178.27C233.47 178.72 234.15 179.08 234.65 179.33L344.82 230.43C347.56 231.76 348.93 234.3 348.93 237.99V252.92C348.93 253.25 348.85 253.59 348.68 253.88C348.46 254.29 347.78 255.53 346.34 255.53C344.91 255.53 344.23 254.3 344 253.89C343.83 253.59 343.75 253.26 343.75 252.92V249.35L279.89 234.77L270.46 232.86C270.36 233.37 270.25 233.91 270.13 234.45C269.89 235.52 269.7 236.44 269.55 237.21C268.91 240.31 268.61 241.72 266.78 241.72C264.95 241.72 264.66 240.31 264.01 237.21C263.85 236.44 263.66 235.52 263.43 234.45C263.19 233.34 262.99 232.29 262.83 231.31L238.55 226.38C238.47 226.77 238.39 227.16 238.3 227.55C238.06 228.62 237.87 229.54 237.72 230.31C237.08 233.41 236.78 234.82 234.95 234.82C233.12 234.82 232.83 233.41 232.18 230.31C232.02 229.54 231.83 228.62 231.6 227.55C231.39 226.6 231.22 225.71 231.07 224.86L223.55 223.33H222.78C222.66 223.95 222.53 224.59 222.39 225.25C222.15 226.32 221.96 227.24 221.81 228.01C221.17 231.11 220.87 232.52 219.04 232.52C217.21 232.52 216.92 231.11 216.27 228.01C216.11 227.24 215.92 226.32 215.69 225.25C215.55 224.59 215.42 223.95 215.3 223.33H196.88V302.02C196.88 314.9 193.79 327.43 190.8 339.55C189.74 343.85 188.65 348.29 187.71 352.67L247.11 385.27C247.66 385.57 248.04 386.12 248.13 386.74C248.79 391.33 248.79 394.15 248.13 399.33C248.06 399.88 247.76 400.38 247.31 400.71C246.97 400.96 246.56 401.09 246.14 401.09H246.22Z" fill="white"/>
<path d="M175.5 4.90039C178.44 4.90039 181.89 11.2904 186.11 21.5604C190.82 33.0504 194.95 46.2604 194.95 56.0204V152.41C201.07 158.16 207.55 163.39 213.46 167.79C213.1 159.9 213.13 154.34 213.67 145.52C213.67 144.37 214.87 142.07 216.06 142.07H231.59C232.79 142.07 233.98 144.37 233.98 145.52C234.62 155.81 234.55 161.65 233.98 171.94C233.98 173.09 232.79 176.53 231.59 176.53H230.6V179.33C231.99 180.15 233.09 180.75 233.85 181.12L344.06 232.24C346.42 233.39 347.01 235.69 347.01 237.98V252.91C346.79 253.32 346.61 253.52 346.42 253.52C346.23 253.52 346.05 253.32 345.83 252.91V247.74L280.41 232.81L268.91 230.47C268.76 231.48 268.55 232.65 268.25 234C267.42 237.8 267.13 239.7 266.85 239.7C266.57 239.7 266.28 237.8 265.45 234C265.06 232.24 264.82 230.8 264.68 229.61L237.01 223.99C236.87 224.9 236.68 225.93 236.42 227.1C235.59 230.9 235.3 232.8 235.02 232.8C234.74 232.8 234.45 230.9 233.62 227.1C233.28 225.55 233.06 224.25 232.91 223.15L223.82 221.31H221.15C221 222.31 220.79 223.46 220.5 224.8C219.67 228.6 219.38 230.5 219.1 230.5C218.82 230.5 218.54 228.6 217.7 224.8C217.41 223.46 217.2 222.31 217.05 221.31H194.94V302C194.94 319.7 189.04 336.56 185.51 353.69L246.21 387C246.86 391.53 246.82 394.19 246.21 399.06L178.28 385.28C177.15 388.19 176.18 389.87 175.49 389.87C174.8 389.87 173.83 388.19 172.7 385.28L104.77 399.06C104.16 394.19 104.12 391.53 104.77 387L165.47 353.69C161.94 336.55 156.04 319.69 156.04 302V221.31H133.93C133.78 222.31 133.57 223.46 133.28 224.8C132.45 228.6 132.16 230.5 131.88 230.5C131.6 230.5 131.31 228.6 130.48 224.8C130.19 223.46 129.98 222.31 129.83 221.31H127.16L118.07 223.15C117.92 224.25 117.7 225.54 117.36 227.1C116.53 230.9 116.24 232.8 115.96 232.8C115.68 232.8 115.4 230.9 114.56 227.1C114.3 225.92 114.11 224.9 113.97 223.99L86.3 229.61C86.16 230.79 85.92 232.24 85.53 234C84.7 237.8 84.41 239.7 84.13 239.7C83.85 239.7 83.57 237.8 82.73 234C82.43 232.65 82.22 231.48 82.07 230.47L70.57 232.81L5.15 247.74V252.91C4.92 253.32 4.74 253.52 4.56 253.52C4.38 253.52 4.2 253.32 3.97 252.91V237.98C3.97 235.68 4.56 233.39 6.92 232.24L117.13 181.12C117.89 180.75 118.99 180.15 120.38 179.33V176.53H119.38C118.19 176.53 116.99 173.08 116.99 171.94C116.42 161.65 116.35 155.81 116.99 145.52C116.99 144.37 118.18 142.07 119.38 142.07H134.91C136.1 142.07 137.3 144.37 137.3 145.52C137.84 154.34 137.87 159.9 137.51 167.79C143.43 163.39 149.9 158.16 156.02 152.41V56.0204C156.02 46.2604 160.15 33.0504 164.86 21.5604C169.08 11.2904 172.53 4.90039 175.47 4.90039M175.47 0.900391C170.05 0.900391 166.26 7.63039 161.16 20.0404C156.99 30.2004 152.02 44.6904 152.02 56.0204V150.66C148.82 153.6 145.39 156.54 141.75 159.46C141.78 155.02 141.63 150.76 141.3 145.35C141.21 142.32 138.74 138.06 134.91 138.06H119.38C115.55 138.06 113.08 142.32 112.99 145.35C112.32 156.19 112.45 162.39 112.99 172.15C113.05 173.32 113.6 175.79 114.87 177.75L5.26 228.61C5.26 228.61 5.21 228.63 5.19 228.64C2.82 229.8 0 232.36 0 237.98V252.91C0 253.59 0.17 254.25 0.49 254.83C1.77 257.18 3.61 257.53 4.59 257.53C5.78 257.53 7.45 257.07 8.68 254.86C9.01 254.27 9.18 253.6 9.18 252.91V250.93L71.44 236.72L78.92 235.2C79.12 236.12 79.29 236.92 79.43 237.6C79.65 238.64 79.8 239.4 79.95 239.98C80.82 243.34 83.18 243.7 84.15 243.7C85.12 243.7 87.48 243.34 88.35 239.98C88.5 239.4 88.66 238.64 88.87 237.6C89.03 236.84 89.22 235.93 89.45 234.86C89.59 234.22 89.72 233.59 89.83 232.98L110.82 228.72C110.98 229.47 111.12 230.13 111.24 230.7C111.46 231.74 111.61 232.5 111.77 233.08C112.64 236.44 115 236.8 115.97 236.8C116.94 236.8 119.3 236.44 120.17 233.08C120.32 232.5 120.48 231.74 120.7 230.7C120.86 229.94 121.05 229.03 121.28 227.97C121.39 227.48 121.49 227 121.58 226.54L126.55 225.53C126.55 225.53 126.57 225.62 126.58 225.67C126.81 226.73 127 227.64 127.16 228.41C127.38 229.45 127.53 230.21 127.68 230.79C128.55 234.15 130.91 234.51 131.88 234.51C132.85 234.51 135.21 234.15 136.08 230.79C136.23 230.21 136.39 229.45 136.61 228.41C136.77 227.65 136.96 226.74 137.19 225.67C137.22 225.55 137.24 225.44 137.27 225.32H152.05V302.01C152.05 315.14 155.17 327.79 158.18 340.02C159.12 343.83 160.08 347.75 160.94 351.63L102.85 383.51C101.75 384.12 100.99 385.21 100.81 386.45C100.13 391.25 100.12 394.19 100.81 399.57C100.95 400.67 101.54 401.67 102.45 402.32C103.14 402.81 103.95 403.07 104.78 403.07C105.05 403.07 105.31 403.04 105.58 402.99L170.35 389.85C171.54 392.14 173.08 393.88 175.51 393.88C177.94 393.88 179.48 392.14 180.67 389.85L245.44 402.99C245.7 403.04 245.97 403.07 246.24 403.07C247.07 403.07 247.89 402.81 248.57 402.32C249.47 401.67 250.07 400.67 250.21 399.57C250.89 394.18 250.88 391.24 250.21 386.45C250.03 385.2 249.28 384.11 248.17 383.51L190.08 351.63C190.94 347.75 191.9 343.83 192.84 340.02C195.86 327.79 198.97 315.14 198.97 302.01V225.32H213.75C213.77 225.44 213.8 225.55 213.83 225.67C214.06 226.73 214.25 227.64 214.41 228.41C214.63 229.45 214.78 230.21 214.93 230.79C215.8 234.15 218.16 234.51 219.13 234.51C220.1 234.51 222.46 234.15 223.33 230.79C223.48 230.21 223.64 229.45 223.86 228.41C224.02 227.65 224.21 226.74 224.44 225.67C224.45 225.62 224.46 225.58 224.47 225.53L229.44 226.54C229.53 227 229.63 227.48 229.74 227.97C229.97 229.03 230.16 229.94 230.32 230.71C230.54 231.75 230.69 232.51 230.84 233.09C231.71 236.45 234.07 236.81 235.04 236.81C236.01 236.81 238.37 236.45 239.24 233.09C239.39 232.51 239.55 231.75 239.77 230.71C239.89 230.14 240.03 229.47 240.19 228.73L261.18 232.99C261.29 233.6 261.42 234.22 261.56 234.87C261.79 235.93 261.98 236.84 262.14 237.61C262.36 238.65 262.51 239.41 262.67 239.99C263.54 243.35 265.9 243.71 266.87 243.71C267.84 243.71 270.2 243.35 271.07 239.99C271.22 239.41 271.38 238.65 271.59 237.61C271.73 236.93 271.9 236.13 272.1 235.21L279.58 236.73L341.84 250.94V252.92C341.84 253.6 342.01 254.27 342.35 254.87C343.58 257.07 345.25 257.54 346.44 257.54C347.42 257.54 349.26 257.19 350.54 254.84C350.86 254.25 351.03 253.59 351.03 252.92V237.99C351.03 232.36 348.2 229.81 345.84 228.65C345.82 228.64 345.79 228.63 345.77 228.62L236.13 177.76C237.4 175.8 237.95 173.32 238.01 172.16C238.55 162.4 238.68 156.2 238.01 145.36C237.92 142.33 235.45 138.07 231.62 138.07H216.09C212.26 138.07 209.79 142.33 209.7 145.36C209.37 150.77 209.22 155.04 209.25 159.47C205.61 156.55 202.17 153.61 198.98 150.67V56.0204C198.98 44.6904 194.01 30.2004 189.84 20.0404C184.74 7.63039 180.96 0.900391 175.53 0.900391L175.47 0.900391Z" fill="black"/>
</g>
<defs>
<clipPath id="clip0_595_2626">
<rect width="351" height="402.18" fill="white" transform="translate(0 0.900391)"/>
</clipPath>
</defs>
</svg>
