<svg width="604" height="602" viewBox="0 0 604 602" fill="none" xmlns="http://www.w3.org/2000/svg">
<g clip-path="url(#clip0_821_70)">
<path d="M302 599.931C301.5 599.931 301.05 599.75 300.7 599.451H299.54C298.49 599.451 297.62 598.641 297.55 597.591L294.79 559.171L190.89 586.491C190.72 586.531 190.55 586.561 190.38 586.561C189.93 586.561 189.49 586.411 189.13 586.121C188.64 585.721 188.36 585.121 188.38 584.481C188.42 583.421 188.46 582.411 188.49 581.441C188.78 572.991 188.97 567.411 191.88 555.881C191.97 555.511 192.17 555.171 192.45 554.911L276.71 475.9C272.25 453.91 269.07 433.4 266.09 407.56C266.09 407.48 266.08 407.41 266.08 407.331V316.75L249.78 322.37C249.45 326.79 248.52 333.07 245.84 334.37C245.56 334.5 245.26 334.57 244.97 334.57C244.68 334.57 244.37 334.5 244.1 334.37C243.43 334.05 241.54 333.13 240.51 325.57L221.24 332.22C220.89 336.54 219.94 342.661 217.33 343.931C217.05 344.061 216.75 344.13 216.45 344.13C216.15 344.13 215.85 344.061 215.58 343.931C214.86 343.581 213.06 342.711 212.03 335.391L170.57 349.69L160.29 355.671C159.97 360.061 159.04 366.5 156.35 367.81C156.07 367.94 155.78 368.01 155.48 368.01C155.18 368.01 154.88 367.94 154.61 367.81C153.91 367.47 152.38 366.73 151.33 360.9L122.95 377.431C122.68 381.371 121.8 388.431 118.99 389.79C118.71 389.921 118.42 389.991 118.12 389.991C117.82 389.991 117.52 389.921 117.25 389.79C116.6 389.47 115 388.701 113.93 382.69L7.97 444.361V473.97C7.97 475.07 7.07 475.97 5.97 475.97H4C2.9 475.97 2 475.07 2 473.97V406.611C2 402.831 3.52 400.46 9.07 395.56L82.38 330.59C82.32 325.97 82.41 321.661 82.71 315.931L77.38 315.211C76.45 315.091 75.73 314.331 75.65 313.391C74.6 300.66 74.36 293.19 75.65 279.82C75.75 278.79 76.61 278.01 77.64 278.01H109.34C110.37 278.01 111.23 278.79 111.33 279.82C112.23 289.19 112.43 295.751 111.97 304.361L170.89 252.151C170.83 247.561 170.93 243.271 171.22 237.581L165.89 236.861C164.96 236.731 164.24 235.981 164.16 235.041C163.11 222.311 162.87 214.84 164.16 201.471C164.26 200.441 165.12 199.661 166.15 199.661H197.85C198.88 199.661 199.74 200.441 199.84 201.471C200.74 210.811 200.94 217.351 200.48 225.911L266.05 167.801V104.591C266.05 76.0105 281.51 4.41051 301.77 2.28051C301.84 2.28051 301.91 2.27051 301.98 2.27051C302.05 2.27051 302.12 2.27051 302.19 2.28051C322.45 4.41051 337.91 76.0505 337.91 104.651V167.931L403.48 226.081C403.03 217.521 403.22 210.981 404.12 201.621C404.22 200.591 405.08 199.811 406.11 199.811H437.81C438.84 199.811 439.7 200.591 439.8 201.621C441.09 214.991 440.86 222.481 439.8 235.211C439.72 236.151 439 236.901 438.07 237.031L432.74 237.751C433.03 243.441 433.13 247.73 433.07 252.331L491.99 304.581C491.53 295.971 491.73 289.401 492.63 280.021C492.73 278.991 493.59 278.211 494.62 278.211H526.32C527.35 278.211 528.21 278.991 528.31 280.021C529.6 293.391 529.37 300.88 528.31 313.611C528.23 314.551 527.51 315.301 526.58 315.431L521.25 316.15C521.55 321.89 521.64 326.201 521.58 330.82L594.9 395.831C600.45 400.73 601.97 403.111 601.97 406.891V474.29C601.97 475.391 601.07 476.29 599.97 476.29H598C596.9 476.29 596 475.391 596 474.29V444.66L490.07 382.94C489.01 388.951 487.41 389.73 486.75 390.051C486.47 390.181 486.17 390.25 485.88 390.25C485.59 390.25 485.28 390.181 485.01 390.051C482.2 388.681 481.32 381.621 481.05 377.681L452.67 361.141C451.62 366.97 450.09 367.72 449.39 368.06C449.11 368.19 448.81 368.26 448.51 368.26C448.21 368.26 447.91 368.19 447.64 368.06C444.94 366.75 444.01 360.301 443.7 355.91L433.42 349.921L391.96 335.611C390.93 342.931 389.13 343.8 388.41 344.15C388.13 344.28 387.83 344.35 387.54 344.35C387.25 344.35 386.94 344.28 386.67 344.15C384.06 342.88 383.11 336.76 382.76 332.431L363.49 325.78C362.46 333.34 360.57 334.27 359.9 334.59C359.62 334.72 359.32 334.79 359.02 334.79C358.72 334.79 358.42 334.72 358.14 334.59C355.46 333.29 354.53 327.001 354.2 322.581L337.9 316.951V407.641C337.9 407.72 337.9 407.79 337.89 407.87C334.91 433.71 331.72 454.241 327.27 476.26L411.53 555.331C411.81 555.591 412.01 555.931 412.1 556.301C415.01 567.831 415.2 573.421 415.49 581.871C415.52 582.841 415.56 583.851 415.6 584.911C415.62 585.541 415.35 586.151 414.85 586.551C414.49 586.841 414.05 586.991 413.6 586.991C413.43 586.991 413.26 586.971 413.09 586.921L309.18 559.591L306.42 598.041C306.34 599.091 305.47 599.901 304.42 599.901H301.96L302 599.931Z" fill="white"/>
<path d="M302 4.29004C320.2 6.20004 335.93 75.99 335.93 104.68V168.86L405.81 230.82C405.04 220.22 405.05 213.18 406.14 201.84H437.84C439.07 214.63 438.93 221.93 437.84 235.07L430.68 236.03C431.07 243.09 431.18 247.93 431.09 253.23L494.33 309.31C493.55 298.65 493.56 291.61 494.65 280.23H526.35C527.58 293.02 527.44 300.32 526.35 313.47L519.19 314.43C519.59 321.54 519.7 326.38 519.6 331.72L593.6 397.34C599.01 402.12 599.99 404.03 599.99 406.9V474.3H598.02V443.52L488.53 379.72C488.1 383.5 487.22 387.61 485.9 388.25C484.18 387.41 483.21 380.71 483 376.49L451.14 357.93C450.7 361.66 449.83 365.63 448.53 366.27C446.84 365.45 445.87 358.96 445.64 354.73L434.27 348.11L390.28 332.93C389.89 336.94 388.98 341.68 387.55 342.37C385.88 341.56 384.92 335.22 384.67 330.99L361.79 323.09C361.42 327.15 360.5 332.09 359.03 332.81C357.32 331.98 356.35 325.37 356.13 321.14L335.92 314.16V407.66C332.72 435.4 329.38 456 325.1 476.97L410.17 556.8C413.36 569.45 413.22 574.83 413.61 585L307.37 557.05L304.44 597.91H301.98V597.43H299.52L296.59 556.6L190.35 584.53C190.74 574.37 190.6 568.99 193.79 556.35L278.86 476.57C274.58 455.61 271.24 435.03 268.04 407.3V313.92L247.83 320.89C247.61 325.11 246.64 331.72 244.93 332.55C243.47 331.84 242.55 326.9 242.17 322.84L219.29 330.73C219.04 334.96 218.08 341.29 216.41 342.1C214.98 341.4 214.07 336.67 213.68 332.66L169.69 347.83L158.32 354.45C158.08 358.68 157.12 365.16 155.43 365.98C154.13 365.35 153.26 361.37 152.82 357.65L120.96 376.2C120.75 380.42 119.78 387.12 118.06 387.95C116.74 387.31 115.86 383.2 115.43 379.42L5.97 443.21V473.97H4V406.61C4 403.74 4.98 401.83 10.39 397.06L84.39 331.48C84.3 326.14 84.41 321.3 84.8 314.2L77.64 313.24C76.55 300.11 76.41 292.81 77.64 280.03H109.34C110.44 291.4 110.44 298.44 109.66 309.09L172.9 253.05C172.81 247.75 172.92 242.92 173.31 235.86L166.15 234.9C165.06 221.77 164.92 214.47 166.15 201.69H197.85C198.94 213.02 198.95 220.05 198.18 230.65L268.06 168.73V104.62C268.06 75.96 283.8 6.21004 301.99 4.30004M190.77 237.22L192.59 235.61L190.7 235.86C190.73 236.33 190.75 236.77 190.77 237.22ZM413.22 237.41C413.24 236.96 413.27 236.52 413.29 236.05L411.4 235.8L413.22 237.41ZM102.26 315.66L104.2 313.94L102.18 314.21C102.21 314.71 102.23 315.18 102.26 315.66ZM501.73 315.9C501.76 315.42 501.78 314.95 501.81 314.45L499.79 314.18L501.73 315.9ZM302 0.290039C301.86 0.290039 301.72 0.290039 301.58 0.310039C291.55 1.36004 282.39 15.83 274.37 43.29C268.3 64.06 264.07 89.27 264.07 104.6V166.91L202.68 221.31C202.85 214.77 202.58 208.97 201.84 201.29C201.64 199.24 199.92 197.67 197.86 197.67H166.16C164.1 197.67 162.38 199.24 162.18 201.29C160.88 214.81 161.11 222.37 162.18 235.22C162.33 237.09 163.77 238.6 165.63 238.85L169.14 239.32C168.93 243.81 168.86 247.47 168.89 251.26L114.17 299.75C114.34 293.16 114.08 287.34 113.33 279.63C113.13 277.58 111.41 276.01 109.35 276.01H77.65C75.59 276.01 73.87 277.58 73.67 279.63C72.37 293.15 72.6 300.71 73.67 313.56C73.82 315.43 75.26 316.94 77.12 317.19L80.63 317.66C80.42 322.18 80.34 325.87 80.38 329.69L7.74 394.07C2.39 398.8 0 401.73 0 406.62V473.98C0 476.19 1.79 477.98 4 477.98H5.97C8.18 477.98 9.97 476.19 9.97 473.98V445.52L112.53 385.8C113.59 389.69 115.01 390.95 116.34 391.6C116.89 391.87 117.49 392 118.09 392C118.69 392 119.29 391.87 119.84 391.6C121.9 390.6 123.15 388.39 124.03 384.22C124.37 382.58 124.66 380.61 124.84 378.65L149.97 364.02C151.03 367.77 152.42 369 153.72 369.63C154.27 369.9 154.87 370.03 155.47 370.03C156.07 370.03 156.67 369.9 157.22 369.63C158.25 369.13 161.26 367.67 162.2 356.89L171.4 351.53L210.44 338.07C211.51 343.43 213.16 345 214.7 345.74C215.25 346.01 215.85 346.14 216.45 346.14C217.05 346.14 217.65 346.01 218.2 345.74C219.2 345.25 222.09 343.85 223.11 333.7L238.91 328.25C240.15 334.7 242.16 335.67 243.22 336.19C243.77 336.46 244.37 336.59 244.97 336.59C245.57 336.59 246.17 336.46 246.72 336.19C248.77 335.2 250.02 333 250.89 328.86C251.26 327.09 251.5 325.31 251.65 323.86L264.08 319.57V407.34C264.08 407.49 264.08 407.65 264.11 407.8C267.05 433.27 270.19 453.58 274.54 475.22L191.09 553.47C190.53 553.99 190.14 554.67 189.95 555.41C186.99 567.14 186.78 573.11 186.5 581.38C186.47 582.35 186.43 583.36 186.39 584.42C186.34 585.69 186.9 586.9 187.88 587.69C188.6 588.27 189.48 588.57 190.38 588.57C190.72 588.57 191.06 588.53 191.4 588.44L292.97 561.74L295.56 597.76C295.71 599.85 297.45 601.47 299.55 601.47H300.11C300.67 601.77 301.32 601.95 302.01 601.95H304.47C306.57 601.95 308.31 600.33 308.46 598.24L311.05 562.19L412.62 588.91C412.96 589 413.3 589.04 413.64 589.04C414.54 589.04 415.42 588.74 416.14 588.16C417.13 587.37 417.68 586.15 417.63 584.89C417.59 583.83 417.55 582.82 417.52 581.85C417.23 573.57 417.03 567.6 414.07 555.86C413.88 555.12 413.49 554.45 412.93 553.92L329.48 475.62C333.83 453.97 336.97 433.64 339.91 408.16C339.93 408.01 339.94 407.86 339.94 407.7V319.81L352.35 324.09C353.33 334.5 356.28 335.94 357.3 336.43C357.85 336.7 358.45 336.83 359.05 336.83C359.65 336.83 360.25 336.7 360.8 336.43C361.86 335.91 363.86 334.94 365.11 328.49L380.91 333.94C381.93 344.1 384.82 345.5 385.82 345.99C386.37 346.26 386.97 346.39 387.57 346.39C388.17 346.39 388.77 346.26 389.32 345.99C390.86 345.24 392.5 343.68 393.58 338.31L432.62 351.78L441.82 357.14C442.77 367.92 445.77 369.39 446.8 369.89C447.35 370.16 447.95 370.29 448.55 370.29C449.15 370.29 449.75 370.16 450.3 369.89C451.6 369.26 453 368.03 454.05 364.27L479.18 378.91C479.36 380.87 479.65 382.85 479.99 384.49C480.87 388.67 482.12 390.88 484.17 391.88C484.72 392.15 485.32 392.28 485.92 392.28C486.52 392.28 487.12 392.15 487.67 391.88C489 391.24 490.41 389.97 491.48 386.08L594.04 445.84V474.32C594.04 476.53 595.83 478.32 598.04 478.32H600.01C602.22 478.32 604.01 476.53 604.01 474.32V406.92C604.01 402.03 601.62 399.1 596.27 394.36L523.64 329.96C523.67 326.13 523.6 322.44 523.39 317.92L526.9 317.45C528.76 317.2 530.2 315.69 530.35 313.82C531.41 300.96 531.65 293.4 530.35 279.87C530.15 277.82 528.43 276.25 526.37 276.25H494.67C492.61 276.25 490.89 277.82 490.69 279.87C489.95 287.58 489.68 293.41 489.85 300L435.13 251.48C435.16 247.68 435.09 244.02 434.88 239.53L438.39 239.06C440.25 238.81 441.69 237.3 441.84 235.43C442.9 222.57 443.14 215.01 441.84 201.48C441.64 199.43 439.92 197.86 437.86 197.86H406.16C404.1 197.86 402.38 199.43 402.18 201.48C401.44 209.16 401.17 214.97 401.34 221.51L339.95 167.08V104.7C339.95 89.36 335.71 64.13 329.65 43.35C321.61 15.84 312.45 1.37004 302.42 0.310039C302.28 0.300039 302.14 0.290039 302 0.290039Z" fill="black"/>
</g>
<defs>
<clipPath id="clip0_821_70">
<rect width="604" height="601.64" fill="white" transform="translate(0 0.290039)"/>
</clipPath>
</defs>
</svg>
