<svg width="388" height="482" viewBox="0 0 388 482" fill="none" xmlns="http://www.w3.org/2000/svg">
<g clip-path="url(#clip0_891_82)">
<path d="M192.59 479.55C191.49 479.55 190.59 478.65 190.59 477.55V476.16C189.75 476.16 189 475.62 188.72 474.82C186.52 468.51 185.2 463.21 184.36 457.57L114.44 473.85C114.29 473.88 114.14 473.9 113.99 473.9C113.54 473.9 113.1 473.75 112.75 473.47C112.27 473.09 111.99 472.51 111.99 471.9V453.53C111.99 452.86 112.32 452.24 112.87 451.87L176.46 409.08C174.11 395.78 173.06 383.89 173.06 370.74V272.43H139.28C138.77 280.81 137.26 282.63 135.69 283.29C135.44 283.39 135.18 283.45 134.91 283.45C134.64 283.45 134.38 283.4 134.13 283.29C132.56 282.63 131.05 280.81 130.54 272.43H115.92L105.38 275.04C104.92 284.08 103.37 286 101.75 286.68C101.5 286.78 101.24 286.84 100.97 286.84C100.7 286.84 100.44 286.79 100.19 286.68C98.71 286.06 97.29 284.42 96.7 277.19L71.99 283.32C71.5 292.05 69.97 293.92 68.38 294.6C68.13 294.7 67.87 294.76 67.6 294.76C67.33 294.76 67.07 294.71 66.82 294.6C65.37 293.99 63.96 292.4 63.36 285.46L4.45998 300.06C4.29998 300.1 4.13998 300.12 3.97998 300.12C3.53998 300.12 3.09998 299.97 2.74998 299.7C2.26998 299.32 1.97998 298.74 1.97998 298.12V281.17C1.97998 277.46 3.09998 275.4 6.25998 273.29C6.30998 273.25 6.36998 273.22 6.42998 273.19L113.42 216.05C109.98 171.04 114.72 169.79 116.52 169.32C116.69 169.28 116.86 169.25 117.03 169.25H142C142.17 169.25 142.34 169.27 142.51 169.32C144.3 169.8 147.58 170.66 146.61 198.32L166.6 187.64L167.37 187.07C170.06 185.08 171.72 183.84 173.03 181V46.0896C173.03 30.5096 181.86 4.80957 193.6 2.58957C193.72 2.56957 193.85 2.55957 193.97 2.55957C194.09 2.55957 194.22 2.56957 194.34 2.58957C206.08 4.80957 214.91 30.5096 214.91 46.0896V181.01C216.22 183.85 217.88 185.09 220.57 187.08L221.34 187.65L241.33 198.33C240.36 170.67 243.64 169.8 245.43 169.33C245.6 169.29 245.77 169.26 245.94 169.26H270.91C271.08 169.26 271.25 169.28 271.42 169.33C273.21 169.81 277.96 171.06 274.52 216.06L381.51 273.2C381.57 273.23 381.62 273.26 381.68 273.3C384.84 275.41 385.96 277.47 385.96 281.18V298.13C385.96 298.75 385.68 299.33 385.19 299.71C384.83 299.99 384.4 300.13 383.96 300.13C383.8 300.13 383.64 300.11 383.48 300.07L324.58 285.47C323.98 292.41 322.57 293.99 321.12 294.61C320.87 294.71 320.61 294.77 320.34 294.77C320.07 294.77 319.81 294.72 319.56 294.61C317.97 293.94 316.44 292.07 315.95 283.33L291.24 277.2C290.65 284.43 289.23 286.07 287.75 286.69C287.5 286.79 287.24 286.85 286.97 286.85C286.7 286.85 286.44 286.8 286.19 286.69C284.57 286.01 283.02 284.09 282.56 275.05L272.02 272.44H257.4C256.89 280.82 255.38 282.64 253.81 283.3C253.56 283.4 253.3 283.46 253.03 283.46C252.76 283.46 252.5 283.41 252.25 283.3C250.68 282.64 249.17 280.82 248.66 272.44H214.88V370.75C214.88 383.9 213.83 395.79 211.48 409.09L275.07 451.88C275.62 452.25 275.95 452.87 275.95 453.54V471.91C275.95 472.52 275.67 473.1 275.19 473.48C274.83 473.76 274.39 473.91 273.95 473.91C273.8 473.91 273.65 473.89 273.5 473.86L203.58 457.58C202.74 463.22 201.43 468.51 199.22 474.83C198.94 475.63 198.19 476.16 197.35 476.17V477.56C197.35 478.66 196.45 479.56 195.35 479.56H192.52L192.59 479.55Z" fill="white"/>
<path d="M194 4.5498C204.46 6.5298 212.94 31.3898 212.94 46.0898V181.44C214.64 185.39 216.9 186.81 220.29 189.35L243.49 201.74C242.75 185.02 243.29 171.97 245.97 171.26H270.94C274.4 172.18 274.3 193.75 272.46 217.21L380.6 274.96C383.15 276.66 383.99 278.07 383.99 281.18V298.13L322.78 282.95C322.53 287.71 321.89 292.12 320.37 292.76C318.73 292.07 318.11 286.94 317.91 281.75L289.43 274.69C289.19 279.58 288.56 284.2 287.01 284.85C285.33 284.14 284.72 278.79 284.54 273.47L272.31 270.44H255.55C255.35 275.64 254.73 280.77 253.09 281.46C251.45 280.77 250.83 275.64 250.63 270.44H212.94V370.75C212.94 386.19 211.41 398.64 209.34 410.03L274.01 453.54V471.91L203.61 455.52L203.04 440.26C202.47 453.82 201.63 462.02 197.38 474.17H195.4V477.56H192.57V474.17H190.59C186.35 462.02 185.5 453.83 184.94 440.26L184.37 455.52L113.97 471.91V453.54L178.64 410.03C176.57 398.65 175.04 386.19 175.04 370.75V270.44H137.35C137.15 275.64 136.53 280.77 134.89 281.46C133.25 280.77 132.63 275.64 132.43 270.44H115.66L103.43 273.47C103.24 278.79 102.63 284.14 100.96 284.85C99.41 284.2 98.77 279.58 98.54 274.69L70.06 281.75C69.86 286.95 69.24 292.07 67.6 292.76C66.09 292.12 65.44 287.71 65.19 282.95L3.98 298.13V281.18C3.98 278.07 4.83 276.66 7.37 274.96L115.51 217.21C113.67 193.75 113.57 172.18 117.03 171.26H142C144.67 171.97 145.22 185.02 144.48 201.74L167.68 189.35C171.07 186.81 173.33 185.39 175.03 181.44V46.0898C175.03 31.3998 183.51 6.5298 193.97 4.5498M193.97 0.549805C193.72 0.549805 193.47 0.569805 193.23 0.619805C179.46 3.2198 171.03 31.5398 171.03 46.0898V180.56C169.97 182.67 168.62 183.67 166.18 185.48C165.97 185.64 165.75 185.8 165.53 185.97L148.71 194.95C148.85 189.09 148.78 184.15 148.51 180.23C148.01 173.08 146.92 168.44 143.02 167.41C142.69 167.32 142.34 167.28 142 167.28H117.03C116.68 167.28 116.34 167.32 116.01 167.41C112 168.47 110.55 173.09 110.29 185.71C110.13 193.28 110.5 203.57 111.33 214.92L5.51 271.43C5.4 271.49 5.28 271.56 5.18 271.63C1.46 274.11 0 276.79 0 281.18V298.13C0 299.36 0.57 300.52 1.54 301.28C2.25 301.84 3.12 302.13 4 302.13C4.32 302.13 4.64 302.09 4.96 302.01L61.63 287.96C62.3 292.99 63.63 295.42 66.06 296.44C66.56 296.65 67.09 296.76 67.62 296.76C68.15 296.76 68.68 296.66 69.18 296.45C72.02 295.25 73.39 292.03 73.92 284.92L94.96 279.7C95.62 284.96 96.96 287.49 99.43 288.53C99.93 288.74 100.46 288.84 100.99 288.84C101.52 288.84 102.05 288.74 102.55 288.52C105.43 287.3 106.81 283.99 107.31 276.63L116.18 274.43H128.69C129.26 280.97 130.63 283.98 133.36 285.13C133.86 285.34 134.39 285.45 134.92 285.45C135.45 285.45 135.98 285.34 136.48 285.13C139.21 283.98 140.58 280.96 141.15 274.43H171.07V370.74C171.07 383.59 172.06 395.24 174.28 408.15L111.77 450.21C110.67 450.95 110 452.2 110 453.53V471.9C110 473.12 110.56 474.27 111.51 475.03C112.22 475.6 113.1 475.9 114 475.9C114.3 475.9 114.61 475.87 114.91 475.8L182.74 460.01C183.6 464.99 184.87 469.83 186.85 475.48C187.17 476.4 187.8 477.14 188.61 477.61C188.64 479.79 190.42 481.55 192.61 481.55H195.44C197.63 481.55 199.41 479.79 199.44 477.61C200.24 477.14 200.88 476.4 201.2 475.48C203.17 469.83 204.45 464.98 205.31 460.01L273.14 475.8C273.44 475.87 273.74 475.9 274.05 475.9C274.94 475.9 275.82 475.6 276.54 475.03C277.5 474.27 278.05 473.12 278.05 471.9V453.53C278.05 452.2 277.39 450.95 276.28 450.21L213.77 408.15C215.98 395.24 216.98 383.59 216.98 370.74V274.43H246.9C247.47 280.97 248.84 283.98 251.57 285.13C252.07 285.34 252.6 285.45 253.13 285.45C253.66 285.45 254.19 285.34 254.69 285.13C257.42 283.98 258.79 280.96 259.36 274.43H271.87L280.74 276.63C281.25 283.99 282.62 287.31 285.5 288.52C286 288.73 286.53 288.84 287.06 288.84C287.59 288.84 288.12 288.74 288.62 288.53C291.09 287.49 292.43 284.96 293.09 279.7L314.13 284.92C314.66 292.03 316.02 295.25 318.87 296.45C319.37 296.66 319.9 296.76 320.43 296.76C320.96 296.76 321.49 296.66 321.99 296.45C324.41 295.43 325.74 293 326.42 287.96L383.09 302.01C383.41 302.09 383.73 302.13 384.05 302.13C384.93 302.13 385.8 301.84 386.51 301.28C387.48 300.52 388.05 299.36 388.05 298.13V281.18C388.05 276.79 386.6 274.12 382.87 271.63C382.76 271.56 382.65 271.49 382.54 271.43L276.7 214.91C277.53 203.56 277.9 193.27 277.74 185.7C277.48 173.08 276.03 168.46 272.02 167.4C271.69 167.31 271.34 167.27 271 167.27H246.03C245.68 167.27 245.34 167.31 245.01 167.4C241.11 168.43 240.02 173.07 239.52 180.22C239.25 184.15 239.18 189.08 239.32 194.94L222.5 185.96C222.28 185.79 222.06 185.63 221.85 185.47C219.4 183.66 218.06 182.66 217 180.55V46.0898C217 31.5398 208.57 3.2298 194.8 0.619805C194.55 0.569805 194.31 0.549805 194.06 0.549805L193.97 0.549805Z" fill="black"/>
</g>
<defs>
<clipPath id="clip0_891_82">
<rect width="388" height="481" fill="white" transform="translate(0 0.549805)"/>
</clipPath>
</defs>
</svg>
