<svg width="483" height="553" viewBox="0 0 483 553" fill="none" xmlns="http://www.w3.org/2000/svg">
<g clip-path="url(#clip0_891_73)">
<path d="M239.89 550.44C238.79 550.44 237.89 549.54 237.89 548.44V536.24C235.97 534.84 233.93 530.89 231.11 521.34L145.24 542.7C145.08 542.74 144.92 542.76 144.76 542.76C144.32 542.76 143.88 542.61 143.53 542.34C143.05 541.96 142.76 541.38 142.76 540.76V526.01C142.76 521.32 145.26 519.12 147.68 516.99C148.16 516.57 148.66 516.13 149.16 515.65C149.22 515.59 149.28 515.54 149.35 515.49L218.34 463.99C214.2 441.53 211.54 422.53 211.54 415.36V318.7H178.04C177.33 328.04 175.7 329.29 174.22 329.7C174.05 329.75 173.87 329.77 173.69 329.77C173.51 329.77 173.34 329.75 173.16 329.7C171.67 329.29 170.05 328.04 169.34 318.7H161.16L128.91 329.51C128.22 339.36 126.56 340.65 125.05 341.07C124.88 341.12 124.7 341.14 124.52 341.14C124.34 341.14 124.17 341.12 123.99 341.07C122.3 340.61 121.08 338.91 120.38 332.37L80.73 345.66C80.07 355.91 78.38 357.25 76.84 357.67C76.67 357.72 76.49 357.74 76.31 357.74C76.13 357.74 75.96 357.72 75.78 357.67C74.05 357.2 72.81 355.43 72.12 348.54L4.62999 371.16C4.41999 371.23 4.20999 371.26 3.98999 371.26C3.57999 371.26 3.16999 371.13 2.81999 370.88C2.29999 370.5 1.98999 369.9 1.98999 369.26V345.29C1.98999 345.2 1.98999 345.11 2.00999 345.03C2.36999 342.34 3.05999 340.75 4.96999 338.24C5.10999 338.06 5.27999 337.9 5.47999 337.77L145.88 247.46C145.63 245.32 145.38 242.71 145.28 240.21H143.34C142.42 240.21 141.61 239.58 141.4 238.68C138.16 225.25 138.59 203.16 142.18 198.6C143.03 197.52 143.99 197.3 144.64 197.3H167.38C168.01 197.3 168.93 197.51 169.76 198.5C172.91 202.26 173.51 218.29 172.02 230.65L204.53 209.74C207.87 206.16 209.54 204.23 211.53 200.9V82.0396C211.53 65.7197 214.52 46.1996 219.34 31.0996C223.44 18.2296 230.62 2.88965 241.49 2.88965C252.36 2.88965 259.54 18.2296 263.64 31.0996C268.46 46.1996 271.45 65.7197 271.45 82.0396V200.9C273.45 204.23 275.12 206.16 278.45 209.74L310.96 230.65C309.48 218.29 310.07 202.26 313.22 198.5C314.05 197.51 314.97 197.3 315.6 197.3H338.34C339 197.3 339.95 197.53 340.8 198.6C344.39 203.15 344.82 225.25 341.58 238.68C341.36 239.58 340.56 240.21 339.64 240.21H337.7C337.6 242.71 337.35 245.32 337.1 247.46L477.5 337.77C477.7 337.89 477.87 338.05 478.01 338.24C479.92 340.75 480.61 342.33 480.97 345.03C480.98 345.12 480.99 345.21 480.99 345.29V369.26C480.99 369.9 480.68 370.51 480.16 370.88C479.82 371.13 479.41 371.26 478.99 371.26C478.78 371.26 478.56 371.23 478.35 371.16L410.86 348.54C410.17 355.42 408.93 357.2 407.2 357.67C407.03 357.72 406.85 357.74 406.67 357.74C406.49 357.74 406.31 357.72 406.14 357.67C404.59 357.25 402.9 355.91 402.25 345.66L362.6 332.37C361.9 338.91 360.68 340.61 358.99 341.07C358.82 341.12 358.64 341.14 358.46 341.14C358.28 341.14 358.1 341.12 357.93 341.07C356.41 340.65 354.75 339.36 354.07 329.51L321.82 318.7H313.64C312.93 328.04 311.31 329.29 309.82 329.7C309.65 329.75 309.47 329.77 309.29 329.77C309.11 329.77 308.94 329.75 308.76 329.7C307.27 329.29 305.65 328.04 304.94 318.7H271.44V415.36C271.44 422.53 268.78 441.53 264.64 463.99L333.63 515.49C333.7 515.54 333.76 515.59 333.82 515.65C334.32 516.13 334.82 516.56 335.3 516.99C337.72 519.12 340.22 521.32 340.22 526.01V540.76C340.22 541.38 339.94 541.96 339.45 542.34C339.09 542.62 338.66 542.76 338.22 542.76C338.06 542.76 337.9 542.74 337.74 542.7L251.87 521.34C249.05 530.9 247.01 534.84 245.09 536.24V548.44C245.09 549.54 244.19 550.44 243.09 550.44H239.88H239.89Z" fill="white"/>
<path d="M241.5 4.88965C258.21 4.88965 269.46 50.6897 269.46 82.0396V201.45C271.74 205.34 273.56 207.42 277.17 211.29L313.59 234.72C310.95 219.9 312.31 199.3 315.61 199.3H338.35C341.92 199.3 343.22 223.39 339.65 238.21H335.75C335.75 241.14 335.44 244.83 334.97 248.46L476.42 339.44C478.06 341.59 478.67 342.86 478.99 345.28V369.25L409.08 345.82C408.82 349.6 408.17 355.31 406.68 355.72C404.94 355.24 404.36 347.62 404.18 344.17L360.85 329.65C360.57 333.42 359.92 338.73 358.48 339.12C356.81 338.66 356.21 331.64 356 328.02L322.16 316.68H311.78C311.57 320.31 310.97 327.29 309.3 327.74C307.64 327.29 307.03 320.3 306.82 316.68H269.44V415.33C269.44 422.86 266.48 443.09 262.45 464.81L332.43 517.06C335.32 519.83 338.21 521.36 338.21 525.97V540.72L250.47 518.9C247.52 529.31 245 534.88 243.08 534.88V548.4H239.87V534.88C237.95 534.88 235.43 529.3 232.48 518.9L144.74 540.72V525.97C144.74 521.36 147.63 519.82 150.53 517.06L220.51 464.81C216.48 443.08 213.52 422.85 213.52 415.33V316.68H176.14C175.93 320.31 175.33 327.29 173.66 327.74C172 327.29 171.39 320.3 171.18 316.68H160.8L126.96 328.02C126.76 331.64 126.15 338.66 124.48 339.12C123.04 338.73 122.39 333.42 122.11 329.65L78.78 344.17C78.6 347.61 78.02 355.24 76.28 355.72C74.78 355.31 74.14 349.6 73.88 345.82L3.97 369.25V345.28C4.29 342.86 4.9 341.59 6.54 339.44L147.99 248.46C147.52 244.82 147.21 241.13 147.21 238.21H143.31C139.74 223.39 141.04 199.3 144.61 199.3H167.35C170.65 199.3 172.01 219.89 169.37 234.72L205.79 211.29C209.4 207.42 211.22 205.34 213.5 201.45V82.0396C213.5 50.6897 224.75 4.88965 241.46 4.88965M241.46 0.889648C231.9 0.889648 223.58 11.1296 217.4 30.4896C212.53 45.7696 209.5 65.5196 209.5 82.0296V200.33C207.75 203.17 206.23 204.93 203.2 208.18L174.37 226.73C175.28 215.25 174.69 201.31 171.25 197.21C170.22 195.97 168.83 195.29 167.34 195.29H144.6C143.7 195.29 141.98 195.56 140.57 197.36C138.03 200.59 137.34 208.87 137.21 215.24C137.04 223.89 137.84 232.61 139.42 239.14C139.85 240.94 141.46 242.2 143.31 242.2H143.35C143.45 243.66 143.58 245.11 143.72 246.44L4.41 336.08C4.02 336.33 3.68 336.65 3.39 337.02C1.52 339.47 0.49 341.34 0.03 344.76C0.01 344.93 0 345.11 0 345.29V369.26C0 370.55 0.62 371.76 1.66 372.51C2.35 373.01 3.17 373.26 4 373.26C4.43 373.26 4.86 373.19 5.27 373.05L70.44 351.21C71.23 356.55 72.65 358.88 75.25 359.59C75.6 359.68 75.95 359.73 76.3 359.73C76.65 359.73 77.01 359.68 77.35 359.59C80.51 358.73 81.98 355.38 82.62 347.12L118.7 335.03C119.51 340.08 120.91 342.3 123.45 342.99C123.8 343.08 124.15 343.13 124.5 343.13C124.85 343.13 125.21 343.08 125.56 342.99C128.67 342.14 130.12 338.91 130.79 330.98L161.47 320.7H167.49C168.2 327.85 169.66 330.81 172.62 331.62C172.97 331.71 173.32 331.76 173.67 331.76C174.02 331.76 174.38 331.71 174.72 331.62C177.68 330.81 179.14 327.84 179.85 320.7H209.52V415.35C209.52 422.49 212.1 441.08 216.13 463.12L148.14 513.88C148.01 513.98 147.89 514.08 147.77 514.19C147.31 514.63 146.82 515.06 146.35 515.47C143.85 517.67 140.75 520.4 140.75 525.99V540.74C140.75 541.97 141.32 543.13 142.29 543.89C143 544.45 143.87 544.74 144.75 544.74C145.07 544.74 145.4 544.7 145.72 544.62L229.74 523.72C231.92 530.81 233.8 534.99 235.89 537.11V548.41C235.89 550.62 237.68 552.41 239.89 552.41H243.1C245.31 552.41 247.1 550.62 247.1 548.41V537.11C249.19 534.99 251.07 530.81 253.25 523.72L337.27 544.62C337.59 544.7 337.91 544.74 338.24 544.74C339.12 544.74 339.99 544.45 340.7 543.89C341.67 543.13 342.24 541.97 342.24 540.74V525.99C342.24 520.4 339.13 517.67 336.64 515.47C336.17 515.06 335.68 514.63 335.22 514.19C335.1 514.08 334.98 513.97 334.85 513.88L266.86 463.12C270.89 441.09 273.47 422.5 273.47 415.35V320.7H303.14C303.85 327.85 305.31 330.81 308.27 331.62C308.62 331.71 308.97 331.76 309.32 331.76C309.67 331.76 310.03 331.71 310.37 331.62C313.33 330.81 314.79 327.84 315.5 320.7H321.52L352.2 330.98C352.87 338.92 354.32 342.14 357.43 342.99C357.78 343.08 358.13 343.13 358.49 343.13C358.85 343.13 359.2 343.08 359.54 342.99C362.08 342.3 363.48 340.08 364.29 335.03L400.37 347.12C401.01 355.38 402.48 358.72 405.64 359.59C405.99 359.68 406.34 359.73 406.7 359.73C407.06 359.73 407.41 359.68 407.75 359.59C410.35 358.88 411.77 356.55 412.56 351.21L477.73 373.05C478.14 373.19 478.57 373.26 479 373.26C479.83 373.26 480.65 373 481.34 372.51C482.38 371.76 483 370.55 483 369.26V345.29C483 345.11 482.99 344.94 482.97 344.76C482.52 341.34 481.48 339.47 479.61 337.02C479.33 336.65 478.98 336.33 478.59 336.08L339.24 246.45C339.38 245.12 339.52 243.67 339.61 242.21H339.65C341.5 242.21 343.11 240.94 343.54 239.15C345.12 232.61 345.92 223.9 345.75 215.25C345.62 208.88 344.93 200.6 342.39 197.37C340.97 195.57 339.25 195.3 338.36 195.3H315.62C314.13 195.3 312.74 195.98 311.71 197.22C308.27 201.33 307.68 215.26 308.59 226.74L279.76 208.19C276.74 204.94 275.21 203.18 273.46 200.34V82.0396C273.46 65.5296 270.43 45.7796 265.56 30.4996C259.38 11.1296 251.07 0.899648 241.5 0.899648L241.46 0.889648Z" fill="black"/>
</g>
<defs>
<clipPath id="clip0_891_73">
<rect width="483" height="551.55" fill="white" transform="translate(0 0.889648)"/>
</clipPath>
</defs>
</svg>
