<svg width="527" height="623" viewBox="0 0 527 623" fill="none" xmlns="http://www.w3.org/2000/svg">
<g clip-path="url(#clip0_891_76)">
<path d="M261.96 620.89C260.86 620.89 259.96 619.99 259.96 618.89V606.48C258.18 605.07 256.26 601.26 253.51 592.19L172.47 613.78C172.3 613.82 172.13 613.85 171.96 613.85C171.52 613.85 171.09 613.71 170.74 613.44C170.25 613.06 169.96 612.48 169.96 611.85V596.93C169.96 591.57 171.92 589.35 174.92 586.58C174.96 586.54 175 586.51 175.05 586.47L240.39 535.37C236.7 515.6 234.7 490.64 234.7 483.12V338.95H203.33C202.63 347.59 201.05 348.76 199.6 349.15C199.43 349.19 199.26 349.22 199.09 349.22C198.92 349.22 198.75 349.2 198.58 349.15C197.13 348.77 195.54 347.6 194.85 338.95H186.49L156.2 349.74C155.52 358.73 153.91 359.92 152.44 360.31C152.27 360.35 152.1 360.38 151.93 360.38C151.76 360.38 151.59 360.36 151.42 360.31C149.86 359.9 148.65 358.37 147.95 352.68L109.98 366.21C109.31 375.34 107.69 376.55 106.21 376.94C106.04 376.98 105.87 377.01 105.7 377.01C105.53 377.01 105.36 376.99 105.19 376.94C103.57 376.51 102.39 374.98 101.7 369.16L40.83 390.85L4.93 409C4.65 409.14 4.34 409.21 4.03 409.21C3.67 409.21 3.3 409.11 2.98 408.91C2.39 408.55 2.03 407.9 2.03 407.21V398.26C2.03 394.62 3.85 392.53 6.62 389.75L38.63 357.36C38.72 357.26 38.83 357.18 38.94 357.1L172.02 267.81C171.58 264.73 171.29 261.83 171.18 259.36H169.4C168.48 259.36 167.68 258.74 167.46 257.84C164.36 245.41 164.8 223.09 168.24 218.69C169.07 217.63 170 217.41 170.65 217.41H192.46C193.08 217.41 194 217.62 194.81 218.62C197.92 222.43 198.45 239.09 196.88 251.14L228.05 230.23C231.24 226.92 232.84 225.14 234.74 222.09V76.4399C234.74 61.2899 237.61 43.1599 242.24 29.1299C246.19 17.1599 253.09 2.87988 263.56 2.87988C274.03 2.87988 280.93 17.1499 284.88 29.1299C289.51 43.1499 292.38 61.2799 292.38 76.4399V222.09C294.28 225.14 295.88 226.92 299.07 230.23L330.24 251.14C328.67 239.09 329.2 222.43 332.31 218.62C333.12 217.62 334.04 217.41 334.66 217.41H356.47C357.11 217.41 358.05 217.63 358.88 218.69C362.31 223.09 362.76 245.41 359.66 257.84C359.44 258.73 358.64 259.36 357.72 259.36H355.94C355.83 261.83 355.55 264.73 355.1 267.81L488.18 357.1C488.29 357.18 488.39 357.26 488.49 357.36L520.5 389.76C523.26 392.53 525.08 394.62 525.08 398.26V407.21C525.08 407.9 524.72 408.55 524.13 408.91C523.81 409.11 523.45 409.21 523.08 409.21C522.77 409.21 522.46 409.14 522.18 409L486.28 390.85L425.41 369.16C424.72 374.98 423.54 376.51 421.92 376.94C421.75 376.98 421.58 377.01 421.41 377.01C421.24 377.01 421.07 376.99 420.9 376.94C419.42 376.55 417.8 375.34 417.13 366.21L379.16 352.68C378.46 358.37 377.25 359.9 375.69 360.31C375.52 360.35 375.35 360.38 375.18 360.38C375.01 360.38 374.84 360.36 374.67 360.31C373.2 359.92 371.59 358.73 370.91 349.74L340.62 338.95H332.26C331.57 347.59 329.98 348.76 328.53 349.15C328.36 349.19 328.19 349.22 328.02 349.22C327.85 349.22 327.68 349.2 327.51 349.15C326.06 348.77 324.48 347.6 323.78 338.95H292.41V483.12C292.41 490.64 290.4 515.59 286.72 535.37L352.06 586.47C352.06 586.47 352.14 586.54 352.19 586.58C355.19 589.35 357.15 591.57 357.15 596.93V611.85C357.15 612.47 356.86 613.06 356.37 613.44C356.02 613.71 355.59 613.85 355.15 613.85C354.98 613.85 354.81 613.83 354.64 613.78L273.6 592.19C270.85 601.26 268.93 605.07 267.15 606.48V618.89C267.15 619.99 266.25 620.89 265.15 620.89H262.07H261.96Z" fill="white"/>
<path d="M263.5 4.88965C279.53 4.88965 290.32 47.3596 290.32 76.4397V222.65C292.51 226.26 294.25 228.18 297.72 231.77L332.9 255.38C330.04 241.42 331.33 219.42 334.59 219.42H356.4C359.83 219.42 361.07 243.61 357.65 257.36H353.91C353.91 260.65 353.47 264.87 352.86 268.77L486.99 358.77L519 391.17C521.77 393.95 523 395.49 523 398.27V407.22L486.98 389.01L423.58 366.42C423.3 369.9 422.68 374.65 421.32 375.01C419.73 374.59 419.15 368.14 418.95 364.77L377.33 349.94C377.05 353.4 376.42 358.02 375.08 358.38C373.52 357.97 372.92 351.71 372.72 348.3L340.87 336.95H330.3C330.1 340.31 329.52 346.79 327.93 347.21C326.34 346.79 325.75 340.31 325.56 336.95H290.33V483.12C290.33 490.1 288.31 516.04 284.44 536.19L350.74 588.04C353.51 590.61 355.06 592.34 355.06 596.92V611.84L272.14 589.75C269.31 599.4 266.9 605.19 265.05 605.19V618.88H261.97V605.19C260.12 605.19 257.71 599.4 254.88 589.75L171.96 611.84V596.92C171.96 592.34 173.5 590.6 176.28 588.04L242.58 536.19C238.71 516.04 236.7 490.1 236.69 483.12V336.95H201.46C201.26 340.31 200.68 346.79 199.09 347.21C197.5 346.79 196.91 340.31 196.72 336.95H186.15L154.3 348.3C154.09 351.71 153.5 357.97 151.94 358.38C150.6 358.03 149.98 353.41 149.69 349.94L108.07 364.77C107.87 368.14 107.29 374.59 105.7 375.01C104.34 374.65 103.72 369.9 103.44 366.42L40.04 389.01L4.02001 407.22V398.27C4.02001 395.49 5.25001 393.95 8.02001 391.17L40.03 358.77L174.16 268.77C173.55 264.87 173.11 260.65 173.11 257.36H169.37C165.94 243.61 167.19 219.42 170.62 219.42H192.43C195.7 219.42 196.98 241.41 194.12 255.38L229.3 231.77C232.76 228.18 234.51 226.26 236.7 222.65V76.4397C236.7 47.3596 247.49 4.88965 263.52 4.88965M337.11 258.2C337.11 257.92 337.11 257.64 337.11 257.37H335.88L337.12 258.2M189.94 258.2L191.18 257.37H189.95C189.95 257.64 189.95 257.92 189.95 258.2M263.5 0.889648C254.27 0.889648 246.24 10.4396 240.28 28.5096C235.59 42.7197 232.68 61.0897 232.68 76.4397V221.51C231.03 224.08 229.57 225.71 226.7 228.69L199.26 247.1C200.25 235.55 199.61 221.41 196.3 217.36C195.28 216.11 193.89 215.42 192.4 215.42H170.59C169.7 215.42 168 215.69 166.61 217.47C162.46 222.78 162.39 246 165.46 258.33C165.9 260.08 167.44 261.32 169.24 261.36C169.36 263.07 169.55 264.92 169.81 266.85L37.77 355.45C37.55 355.6 37.34 355.77 37.15 355.96L5.14001 388.36C2.13001 391.38 -0.019989 393.87 -0.019989 398.27V407.22C-0.019989 408.61 0.700011 409.9 1.88001 410.63C2.52001 411.02 3.25001 411.22 3.98001 411.22C4.60001 411.22 5.22001 411.08 5.78001 410.79L41.57 392.7L100.02 371.88C100.73 375.79 102 378.19 104.63 378.89C104.96 378.98 105.31 379.02 105.65 379.02C105.99 379.02 106.34 378.98 106.67 378.89C109.72 378.08 111.16 375.07 111.82 367.68L146.28 355.4C146.99 359.22 148.26 361.57 150.86 362.26C151.19 362.35 151.54 362.39 151.88 362.39C152.22 362.39 152.57 362.35 152.9 362.26C155.93 361.46 157.37 358.49 158.04 351.21L186.79 340.97H192.98C193.68 347.58 195.13 350.33 198.03 351.1C198.36 351.19 198.71 351.23 199.05 351.23C199.39 351.23 199.74 351.19 200.07 351.1C202.97 350.33 204.41 347.58 205.12 340.97H232.66V483.14C232.66 490.58 234.6 514.87 238.17 534.56L173.78 584.92C173.69 584.99 173.61 585.06 173.53 585.13C170.36 588.07 167.93 590.8 167.93 596.95V611.87C167.93 613.11 168.51 614.28 169.49 615.04C170.2 615.58 171.06 615.87 171.93 615.87C172.27 615.87 172.62 615.83 172.96 615.74L252.14 594.64C254.27 601.41 256.02 605.35 257.94 607.4V618.91C257.94 621.12 259.73 622.91 261.94 622.91H265.02C267.23 622.91 269.02 621.12 269.02 618.91V607.4C270.94 605.36 272.68 601.42 274.82 594.64L354 615.74C354.34 615.83 354.69 615.87 355.03 615.87C355.9 615.87 356.76 615.58 357.47 615.04C358.46 614.28 359.03 613.11 359.03 611.87V596.95C359.03 590.8 356.6 588.06 353.43 585.13C353.35 585.06 353.27 584.98 353.18 584.92L288.79 534.56C292.36 514.87 294.3 490.58 294.3 483.14V340.97H321.84C322.54 347.58 323.99 350.33 326.89 351.1C327.22 351.19 327.57 351.23 327.91 351.23C328.25 351.23 328.6 351.19 328.93 351.1C331.83 350.33 333.27 347.58 333.98 340.97H340.17L368.92 351.21C369.59 358.49 371.02 361.46 374.06 362.26C374.39 362.35 374.74 362.39 375.08 362.39C375.42 362.39 375.77 362.35 376.1 362.26C378.7 361.57 379.97 359.22 380.68 355.4L415.14 367.68C415.8 375.07 417.24 378.09 420.29 378.89C420.62 378.98 420.97 379.02 421.31 379.02C421.65 379.02 422 378.98 422.33 378.89C424.96 378.19 426.23 375.79 426.94 371.88L485.39 392.7L521.18 410.79C521.75 411.08 522.37 411.22 522.98 411.22C523.71 411.22 524.43 411.02 525.08 410.63C526.26 409.9 526.98 408.61 526.98 407.22V398.27C526.98 393.87 524.84 391.38 521.81 388.35L489.81 355.96C489.62 355.77 489.42 355.6 489.19 355.45L357.15 266.85C357.41 264.92 357.6 263.07 357.72 261.36C359.51 261.31 361.06 260.08 361.5 258.33C364.58 245.99 364.5 222.77 360.35 217.47C358.96 215.69 357.26 215.42 356.37 215.42H334.56C333.07 215.42 331.68 216.11 330.66 217.36C327.35 221.41 326.72 235.55 327.7 247.1L300.26 228.69C297.38 225.7 295.92 224.08 294.28 221.51V76.4397C294.28 61.0897 291.37 42.7197 286.68 28.5096C280.72 10.4396 272.69 0.889648 263.46 0.889648L263.5 0.889648Z" fill="black"/>
</g>
<defs>
<clipPath id="clip0_891_76">
<rect width="527" height="622" fill="white" transform="translate(0 0.889648)"/>
</clipPath>
</defs>
</svg>
