<svg width="617" height="649" viewBox="0 0 617 649" fill="none" xmlns="http://www.w3.org/2000/svg">
<g clip-path="url(#clip0_892_115)">
<path d="M199.04 646.881C198.66 646.881 198.28 646.77 197.96 646.559C197.43 646.218 197.09 645.635 197.05 645.002L195.79 625.632C195.79 625.632 195.79 625.542 195.79 625.502C195.79 620.117 198.96 617.133 202.21 614.551L279.87 553.589L283.84 545.26C277.18 513.785 273.81 491.371 273.81 478.642V358.164H227.96C227.23 361.751 226.27 363.79 224.23 363.79C222.19 363.79 221.23 361.751 220.5 358.164H205.69L172.81 369.537C172.05 373.837 171.08 376.288 168.86 376.288C166.97 376.288 166.05 374.419 165.45 372.079L118.44 388.344C117.84 391.237 116.95 393.789 114.75 393.789C113.11 393.789 112.24 392.403 111.67 390.685L79.6 401.776L4.79002 433.001C4.54002 433.101 4.28002 433.151 4.02002 433.151C3.63002 433.151 3.24002 433.041 2.91002 432.81C2.35002 432.438 2.02002 431.805 2.02002 431.142V411.772C2.02002 407.402 4.26002 405.513 7.97002 402.379L9.02002 401.495C9.07002 401.455 9.13002 401.404 9.19002 401.364L196.35 273.603C196.27 270.498 196.25 267.434 196.24 264.842H193.61C192.7 264.842 191.9 264.219 191.67 263.325C187.76 247.874 185.25 210.259 195.78 206.16C196.01 206.07 196.26 206.03 196.5 206.03H224.25C224.5 206.03 224.74 206.08 224.97 206.16C233.49 209.476 233.2 234.441 231.49 249.602L273.8 220.718V88.6564C273.8 74.4004 288.18 2.89941 308.52 2.89941C328.86 2.89941 343.24 74.2598 343.24 88.4856V220.276L385.54 249.099C383.83 233.969 383.54 209.054 392.06 205.749C392.29 205.658 392.53 205.618 392.78 205.618H420.53C420.78 205.618 421.02 205.668 421.25 205.749C431.78 209.837 429.27 247.381 425.36 262.803C425.13 263.697 424.34 264.32 423.42 264.32H420.79C420.79 266.902 420.77 269.966 420.68 273.06L607.84 400.57C607.9 400.611 607.96 400.651 608.01 400.701L609.06 401.585C612.77 404.71 615.01 406.598 615.01 410.969V430.308C615.01 430.981 614.68 431.604 614.12 431.976C613.79 432.197 613.4 432.317 613.01 432.317C612.75 432.317 612.49 432.267 612.24 432.167L537.43 401.003L505.36 389.931C504.79 391.649 503.92 393.026 502.28 393.026C500.08 393.026 499.19 390.484 498.59 387.59L451.58 371.355C450.98 373.696 450.06 375.555 448.17 375.555C445.95 375.555 444.98 373.103 444.22 368.813L411.34 357.461H396.53C395.8 361.037 394.84 363.077 392.8 363.077C390.76 363.077 389.8 361.048 389.07 357.461H343.22V477.708C343.22 490.416 339.84 512.79 333.19 544.195L337.16 552.504L414.8 613.336C418.06 615.927 421.23 618.901 421.23 624.276C421.23 624.316 421.23 624.367 421.23 624.407L419.97 643.746C419.93 644.379 419.59 644.962 419.06 645.304C418.73 645.514 418.35 645.625 417.97 645.625C417.73 645.625 417.5 645.585 417.27 645.494L318.27 608.302C318.05 609.779 317.82 611.336 317.6 612.944C316.05 623.884 314.68 633.529 310.49 635.769C310.35 636.744 309.52 637.487 308.51 637.487C302.72 637.487 301.19 626.657 299.41 614.119C299.18 612.502 298.96 610.944 298.74 609.468L199.74 646.73C199.51 646.81 199.28 646.861 199.04 646.861V646.881Z" fill="white"/>
<path d="M308.5 4.90825C326.12 4.90825 341.22 72.2701 341.22 88.4852V221.34L388.09 253.278C385.27 234.793 385.88 210.299 392.76 207.617H420.51C428.61 210.761 428.03 244.076 423.4 262.3H418.78C418.78 265.495 418.78 269.845 418.64 274.084L606.71 402.218C611.11 405.965 613 407.211 613 410.948V430.288L538.13 399.103L503.97 387.309C503.54 389.238 502.97 390.996 502.27 390.996C501.42 390.996 500.76 388.404 500.32 386.053L450.09 368.713C449.65 371.033 448.99 373.535 448.16 373.535C447.15 373.535 446.4 369.878 445.99 367.296L411.67 355.451H394.86C394.43 357.963 393.72 361.067 392.79 361.067C391.86 361.067 391.15 357.963 390.72 355.451H341.21V477.707C341.21 492.355 336.58 518.566 331.08 544.446L335.54 553.799L413.55 614.922C416.69 617.414 419.21 619.916 419.21 624.276L417.95 643.615L316.66 605.569C314.77 616.801 313.51 634.262 308.48 634.262V635.498C303.45 635.498 302.19 617.997 300.3 606.755L199.01 644.881L197.75 625.511C197.75 621.141 200.27 618.64 203.41 616.138L281.42 554.895L285.88 545.521C280.38 519.591 275.75 493.329 275.75 478.652V356.154H226.24C225.81 358.666 225.1 361.78 224.17 361.78C223.24 361.78 222.53 358.666 222.1 356.154H205.29L170.97 368.029C170.56 370.611 169.8 374.278 168.8 374.278C167.97 374.278 167.31 371.777 166.87 369.446L116.64 386.826C116.2 389.187 115.54 391.779 114.69 391.779C113.99 391.779 113.42 390.021 112.99 388.082L78.83 399.897L3.96 431.142V411.772C3.96 408.025 5.85 406.769 10.25 403.021L198.32 274.637C198.18 270.377 198.18 266.027 198.18 262.822H193.56C188.93 244.558 188.36 211.183 196.45 208.029H224.2C231.09 210.711 231.69 235.255 228.87 253.77L275.74 221.772V88.656C275.74 72.4108 290.84 4.90825 308.46 4.90825M308.46 0.889648C302.79 0.889648 297.56 5.069 292.48 13.6588C288.73 19.9981 285.1 28.6883 281.69 39.4783C275.55 58.8982 271.75 80.1265 271.75 88.656V219.642L233.89 245.492C234.52 238.228 234.64 230.864 234.17 224.656C233.28 212.831 230.49 206.16 225.65 204.281C225.19 204.1 224.7 204.01 224.21 204.01H196.46C195.97 204.01 195.48 204.1 195.02 204.281C191.79 205.537 189.52 208.822 188.08 214.328C187.03 218.336 186.41 223.5 186.25 229.649C185.95 240.961 187.31 254.373 189.7 263.807C190.15 265.585 191.75 266.831 193.58 266.831H194.21C194.21 268.619 194.24 270.558 194.28 272.537L8.04 399.686C7.92 399.766 7.81 399.857 7.7 399.947C7.33 400.259 6.99 400.55 6.66 400.831C2.79 404.096 0 406.457 0 411.762V431.132C0 432.478 0.67 433.734 1.78 434.477C2.45 434.929 3.22 435.15 4 435.15C4.52 435.15 5.04 435.05 5.53 434.839L80.28 403.634L110.57 393.156C111.4 394.592 112.69 395.768 114.72 395.768C118.07 395.768 119.43 392.613 120.12 389.85L164.16 374.62C164.99 376.589 166.38 378.277 168.83 378.277C172.54 378.277 173.85 374.509 174.54 371.033L205.99 360.153H218.87C219.62 362.976 221.03 365.779 224.2 365.779C227.37 365.779 228.78 362.976 229.53 360.153H271.78V478.631C271.78 491.411 275.12 513.744 281.71 544.999L278.24 552.292L200.96 612.953C198.43 614.963 193.76 618.68 193.76 625.501C193.76 625.592 193.76 625.672 193.76 625.763L195.02 645.132C195.1 646.398 195.78 647.553 196.84 648.247C197.5 648.669 198.25 648.89 199.01 648.89C199.48 648.89 199.96 648.809 200.41 648.638L297.09 612.25C297.19 612.963 297.3 613.687 297.4 614.43C298.15 619.735 298.93 625.22 300.08 629.57C300.8 632.293 302.71 639.516 308.48 639.516C310.12 639.516 311.54 638.522 312.15 637.095C315.13 634.935 316.34 630.384 316.87 628.355C318.02 624.015 318.8 618.539 319.55 613.245C319.65 612.501 319.76 611.778 319.86 611.065L416.54 647.383C416.99 647.553 417.47 647.634 417.94 647.634C418.7 647.634 419.46 647.413 420.11 646.991C421.17 646.298 421.85 645.142 421.93 643.876L423.19 624.537C423.19 624.447 423.19 624.366 423.19 624.276C423.19 617.474 418.52 613.757 416.01 611.768L338.72 551.207L335.25 543.934C341.84 512.739 345.18 490.456 345.18 477.697V359.46H387.43C388.18 362.283 389.59 365.076 392.76 365.076C395.93 365.076 397.33 362.283 398.09 359.46H410.97L442.42 370.32C443.11 373.786 444.43 377.553 448.13 377.553C450.58 377.553 451.96 375.876 452.79 373.907L496.83 389.117C497.52 391.88 498.89 395.024 502.23 395.024C504.26 395.024 505.54 393.849 506.38 392.412L536.68 402.871L611.43 434.005C611.92 434.206 612.44 434.316 612.96 434.316C613.74 434.316 614.51 434.085 615.18 433.643C616.29 432.9 616.96 431.644 616.96 430.298V410.958C616.96 405.654 614.16 403.303 610.29 400.038C609.96 399.756 609.61 399.465 609.25 399.153C609.14 399.063 609.03 398.973 608.91 398.892L422.66 271.995C422.7 270.026 422.72 268.097 422.73 266.319H423.36C425.19 266.319 426.78 265.073 427.24 263.294C429.63 253.871 430.98 240.489 430.69 229.197C430.53 223.048 429.91 217.904 428.86 213.896C427.42 208.4 425.14 205.115 421.92 203.869C421.46 203.689 420.97 203.598 420.48 203.598H392.73C392.24 203.598 391.75 203.689 391.29 203.869C386.44 205.748 383.66 212.409 382.77 224.214C382.3 230.402 382.42 237.756 383.05 245L345.19 219.2V88.4852C345.19 79.9657 341.39 58.7777 335.25 39.3979C331.84 28.6281 328.21 19.968 324.45 13.6286C319.37 5.05895 314.14 0.889648 308.47 0.889648H308.46Z" fill="black"/>
</g>
<defs>
<clipPath id="clip0_892_115">
<rect width="617" height="648" fill="white" transform="translate(0 0.889648)"/>
</clipPath>
</defs>
</svg>
