<svg width="621" height="726" viewBox="0 0 621 726" fill="none" xmlns="http://www.w3.org/2000/svg">
<g clip-path="url(#clip0_892_118)">
<path d="M201.04 723.942C200.66 723.942 200.28 723.835 199.96 723.631C199.43 723.299 199.09 722.735 199.05 722.121L197.79 703.349C197.79 703.349 197.79 703.261 197.79 703.222C197.79 697.993 200.96 695.111 204.21 692.609L281.87 633.525L285.84 625.453C279.18 594.948 275.81 573.225 275.81 560.888V407.814H229.96C229.23 411.29 228.27 413.267 226.23 413.267C224.19 413.267 223.23 411.29 222.5 407.814H207.69L174.81 418.836C174.05 423.004 173.08 425.379 170.86 425.379C168.97 425.379 168.05 423.568 167.45 421.3L120.44 437.064C119.84 439.868 118.95 442.341 116.75 442.341C115.11 442.341 114.24 440.997 113.67 439.332L81.59 450.082L4.77002 480.354C4.53002 480.451 4.27002 480.5 4.02002 480.5C3.63002 480.5 3.24002 480.383 2.90002 480.169C2.35002 479.809 2.02002 479.205 2.02002 478.553V459.78C2.02002 455.544 4.26002 453.714 7.97002 450.676L9.02002 449.819C9.08002 449.77 9.14002 449.731 9.20002 449.693L198.35 325.868C198.27 322.869 198.25 319.89 198.24 317.388H195.61C194.7 317.388 193.9 316.784 193.67 315.917C189.76 300.942 187.25 264.487 197.78 260.514C198.01 260.427 198.26 260.388 198.5 260.388H226.25C226.5 260.388 226.74 260.436 226.97 260.514C235.49 263.727 235.2 287.924 233.49 302.617L275.8 274.623V85.9511C275.8 72.1344 290.18 2.83691 310.52 2.83691C330.86 2.83691 345.24 71.9981 345.24 85.7856V274.185L387.54 302.12C385.83 287.456 385.54 263.309 394.06 260.105C394.29 260.018 394.53 259.979 394.78 259.979H422.53C422.78 259.979 423.02 260.027 423.25 260.105C433.78 264.068 431.27 300.455 427.36 315.401C427.13 316.268 426.34 316.871 425.42 316.871H422.79C422.79 319.374 422.77 322.344 422.68 325.333L611.83 448.914C611.89 448.953 611.95 449.001 612.01 449.04L613.06 449.897C616.77 452.925 619.01 454.756 619.01 458.991V477.735C619.01 478.387 618.68 478.991 618.13 479.351C617.8 479.575 617.4 479.682 617.01 479.682C616.76 479.682 616.5 479.633 616.26 479.536L539.44 449.332L507.36 438.592C506.79 440.257 505.92 441.591 504.28 441.591C502.08 441.591 501.19 439.128 500.59 436.324L453.58 420.589C452.98 422.858 452.06 424.659 450.17 424.659C447.95 424.659 446.98 422.283 446.22 418.126L413.34 407.123H398.53C397.8 410.589 396.84 412.566 394.8 412.566C392.76 412.566 391.8 410.599 391.07 407.123H345.22V559.963C345.22 572.28 341.84 593.964 335.19 624.402L339.16 632.464L416.81 691.421C420.07 693.933 423.24 696.815 423.24 702.024C423.24 702.063 423.24 702.112 423.24 702.151L421.98 720.894C421.94 721.508 421.6 722.073 421.07 722.404C420.74 722.608 420.36 722.715 419.98 722.715C419.74 722.715 419.51 722.676 419.28 722.589L320.28 686.543C320.06 687.974 319.83 689.483 319.61 691.041C318.06 701.654 316.69 710.992 312.5 713.163C312.36 714.108 311.53 714.828 310.52 714.828C304.73 714.828 303.2 704.332 301.42 692.18C301.19 690.613 300.97 689.113 300.75 687.672L201.75 723.786C201.52 723.864 201.29 723.913 201.05 723.913L201.04 723.942Z" fill="white"/>
<path d="M310.5 4.78441C328.12 4.78441 343.22 70.0703 343.22 85.7857V275.217L390.09 306.171C387.27 288.255 387.88 264.516 394.76 261.917H422.51C430.61 264.964 430.03 297.252 425.4 314.914H420.78C420.78 318.011 420.78 322.227 420.64 326.336L610.71 450.52C615.11 454.152 617 455.36 617 458.982V477.725L540.13 447.502L505.97 436.071C505.54 437.95 504.97 439.644 504.27 439.644C503.42 439.644 502.76 437.132 502.32 434.854L452.09 418.048C451.65 420.297 450.99 422.721 450.16 422.721C449.15 422.721 448.4 419.177 447.99 416.675L413.67 405.195H396.86C396.43 407.629 395.72 410.638 394.79 410.638C393.86 410.638 393.15 407.629 392.72 405.195H343.21V559.983C343.21 574.179 338.58 599.583 333.08 624.665L337.54 633.73L415.55 692.969C418.69 695.384 421.21 697.808 421.21 702.034L419.95 720.778L318.66 683.904C316.77 694.78 315.51 711.713 310.48 711.713V712.91C305.45 712.91 304.19 695.949 302.3 685.053L201.01 722.005L199.75 703.232C199.75 698.987 202.27 696.572 205.41 694.147L283.42 634.791L287.88 625.707C282.38 600.576 277.75 575.123 277.75 560.898V405.877H228.24C227.81 408.311 227.1 411.329 226.17 411.329C225.24 411.329 224.53 408.311 224.1 405.877H207.29L172.97 417.386C172.56 419.888 171.8 423.442 170.8 423.442C169.97 423.442 169.31 421.018 168.87 418.759L118.64 435.603C118.2 437.892 117.54 440.404 116.69 440.404C115.99 440.404 115.42 438.7 114.99 436.82L80.83 448.271L3.96001 478.553V459.78C3.96001 456.148 5.85001 454.931 10.25 451.299L200.32 326.871C200.18 322.743 200.18 318.527 200.18 315.421H195.56C190.93 297.719 190.36 265.373 198.45 262.316H226.2C233.09 264.915 233.69 288.703 230.87 306.648L277.74 275.636V85.9512C277.74 70.2067 292.84 4.78441 310.46 4.78441M310.46 0.889648C304.79 0.889648 299.56 4.9402 294.48 13.2653C290.73 19.4092 287.1 27.8317 283.69 38.2891C277.55 57.1105 273.75 77.6846 273.75 85.9512V273.572L235.89 298.625C236.52 291.585 236.64 284.448 236.17 278.43C235.28 266.97 232.49 260.505 227.65 258.684C227.19 258.509 226.7 258.421 226.21 258.421H198.46C197.97 258.421 197.48 258.509 197.02 258.684C193.79 259.901 191.52 263.085 190.08 268.421C189.03 272.306 188.41 277.311 188.25 283.27C187.95 294.233 189.31 307.232 191.7 316.375C192.15 318.098 193.75 319.306 195.58 319.306H196.21C196.21 321.039 196.24 322.908 196.28 324.827L8.06001 448.047C7.94001 448.125 7.82001 448.213 7.71001 448.31C7.34001 448.612 7.00001 448.894 6.67001 449.167C2.80001 452.331 0.0100098 454.62 0.0100098 459.761V478.533C0.0100098 479.828 0.67001 481.036 1.77001 481.766C2.44001 482.204 3.22001 482.428 4.01001 482.428C4.52001 482.428 5.03001 482.331 5.51001 482.146L82.28 451.903L112.59 441.738C113.42 443.13 114.71 444.269 116.74 444.269C120.09 444.269 121.45 441.212 122.14 438.534L166.18 423.773C167.01 425.681 168.4 427.317 170.85 427.317C174.56 427.317 175.87 423.666 176.56 420.297L208.01 409.752H220.89C221.64 412.488 223.05 415.205 226.22 415.205C229.39 415.205 230.8 412.488 231.55 409.752H273.8V560.878C273.8 573.264 277.14 594.909 283.73 625.2L280.26 632.269L202.99 691.061C200.46 693.008 195.79 696.611 195.79 703.222C195.79 703.31 195.79 703.388 195.79 703.475L197.05 722.248C197.13 723.475 197.81 724.595 198.87 725.266C199.53 725.675 200.28 725.89 201.04 725.89C201.51 725.89 201.99 725.812 202.44 725.646L299.12 690.379C299.22 691.07 299.33 691.772 299.43 692.492C300.18 697.633 300.96 702.949 302.11 707.166C302.83 709.804 304.74 716.805 310.51 716.805C312.15 716.805 313.57 715.841 314.18 714.458C317.16 712.365 318.37 707.954 318.9 705.987C320.05 701.781 320.83 696.474 321.58 691.343C321.68 690.623 321.79 689.922 321.89 689.23L418.57 724.429C419.02 724.595 419.5 724.673 419.97 724.673C420.73 724.673 421.49 724.458 422.14 724.049C423.2 723.378 423.88 722.258 423.96 721.031L425.22 702.287C425.22 702.2 425.22 702.122 425.22 702.034C425.22 695.442 420.55 691.84 418.04 689.912L340.75 631.218L337.28 624.168C343.87 593.935 347.21 572.339 347.21 559.973V409.08H389.46C390.21 411.816 391.62 414.523 394.79 414.523C397.96 414.523 399.36 411.816 400.12 409.08H413L444.45 419.606C445.14 422.965 446.46 426.616 450.16 426.616C452.61 426.616 453.99 424.99 454.82 423.082L498.86 437.823C499.55 440.501 500.92 443.549 504.26 443.549C506.29 443.549 507.57 442.409 508.41 441.017L538.72 451.163L615.49 481.347C615.97 481.532 616.48 481.63 616.99 481.63C617.78 481.63 618.56 481.406 619.23 480.968C620.33 480.247 620.99 479.03 620.99 477.735V458.991C620.99 453.85 618.19 451.572 614.32 448.407C613.99 448.135 613.64 447.852 613.28 447.551C613.17 447.453 613.05 447.375 612.93 447.288L424.69 324.301C424.73 322.402 424.75 320.533 424.76 318.809H425.39C427.22 318.809 428.81 317.602 429.27 315.878C431.66 306.745 433.01 293.776 432.72 282.831C432.56 276.872 431.94 271.887 430.89 268.002C429.45 262.676 427.17 259.492 423.95 258.285C423.49 258.109 423 258.022 422.51 258.022H394.76C394.27 258.022 393.78 258.109 393.32 258.285C388.47 260.105 385.69 266.561 384.8 278.002C384.33 284 384.45 291.127 385.08 298.148L347.22 273.143V85.7857C347.22 77.5288 343.42 56.9937 337.28 38.2112C333.87 27.7732 330.24 19.38 326.48 13.236C321.4 4.93046 316.17 0.889648 310.5 0.889648H310.46Z" fill="black"/>
</g>
<defs>
<clipPath id="clip0_892_118">
<rect width="621" height="725" fill="white" transform="translate(0 0.889648)"/>
</clipPath>
</defs>
</svg>
