<svg width="601" height="682" viewBox="0 0 601 682" fill="none" xmlns="http://www.w3.org/2000/svg">
<g clip-path="url(#clip0_508_44)">
<path d="M398.593 680.091C398.383 680.091 398.172 680.053 397.962 679.986L311.458 650.024C310.797 652.687 310.166 655.321 309.544 658.023C308.185 663.921 305.314 672.894 305.199 673.276C304.941 674.068 304.204 674.602 303.371 674.602H297.629C296.796 674.602 296.059 674.068 295.811 673.276C295.686 672.894 292.815 663.921 291.466 658.023C290.844 655.331 290.212 652.696 289.552 650.024L203.048 679.986C202.847 680.053 202.627 680.091 202.416 680.091C201.967 680.091 201.526 679.929 201.172 679.633C200.656 679.194 200.416 678.506 200.531 677.838L202.445 667.32C202.464 667.195 202.503 667.071 202.55 666.947C203.708 664.065 205.642 660.113 208.264 657.593L276.412 596.962C272.632 576.984 269.914 546.449 269.895 546.144C269.895 546.087 269.895 546.029 269.895 545.972V370.16H219.327C218.714 377.93 217.25 381.137 214.389 381.137C211.527 381.137 210.053 377.93 209.45 370.16H189.899L161.045 382.483C160.509 391.255 159.026 394.863 156.011 394.863C152.997 394.863 151.896 391.16 151.341 386.626L117.98 400.877C117.434 409.582 115.951 413.161 112.946 413.161C109.941 413.161 108.84 409.505 108.285 405.01L24.4611 440.804L15.1016 448.411L5.10084 457.069C4.74675 457.374 4.29696 457.537 3.84716 457.537C3.5792 457.537 3.31124 457.479 3.05285 457.365C2.37337 457.05 1.93315 456.372 1.93315 455.628V444.651C1.93315 444.307 2.02885 443.963 2.20111 443.667L2.6222 442.971C9.25425 431.917 13.6373 424.625 21.9442 413.753C22.0686 413.581 22.2313 413.438 22.4035 413.323L191.526 301.178C191.459 300.929 191.401 300.681 191.334 300.433C191.114 300.385 190.904 300.299 190.722 300.185L190.502 300.404C190.138 300.767 189.65 300.977 189.143 300.977C188.636 300.977 188.138 300.777 187.784 300.404L187.612 300.233C187.506 300.29 187.401 300.338 187.286 300.376L185.803 300.872C185.602 300.939 185.401 300.977 185.19 300.977C184.884 300.977 184.568 300.901 184.291 300.758C183.822 300.509 183.487 300.08 183.343 299.574C177.735 279.138 175.831 266.013 179.343 242.227C179.362 242.112 179.381 242.007 179.42 241.902C180.587 238.409 181.582 236.767 183.879 234.61C184.233 234.276 184.702 234.085 185.19 234.085H215.853C216.341 234.085 216.81 234.276 217.164 234.61C219.451 236.767 220.456 238.409 221.624 241.902C221.662 242.007 221.681 242.112 221.7 242.227C223.968 257.604 224.093 268.591 221.997 280.971L269.904 249.204V88.9033C269.914 88.0252 270.22 67.9136 273.302 54.1781C277.321 36.2428 281.609 20.3215 293.361 7.1206C296.93 3.11165 299.62 2.10941 299.916 2.00441C300.117 1.93759 300.328 1.89941 300.538 1.89941C300.749 1.89941 300.959 1.93759 301.16 2.00441C301.457 2.10941 304.137 3.1021 307.716 7.1206C319.458 20.312 323.746 36.2333 327.775 54.1781C330.856 67.9136 331.162 88.0252 331.172 88.8747V249.204L379.08 280.971C376.984 268.591 377.108 257.595 379.376 242.227C379.396 242.112 379.415 242.007 379.453 241.902C380.621 238.409 381.625 236.767 383.913 234.61C384.267 234.276 384.736 234.085 385.224 234.085H415.886C416.374 234.085 416.843 234.276 417.197 234.61C419.485 236.767 420.489 238.399 421.657 241.902C421.695 242.007 421.714 242.122 421.734 242.227C425.246 266.004 423.341 279.138 417.733 299.574C417.59 300.08 417.255 300.509 416.786 300.758C416.508 300.91 416.192 300.977 415.886 300.977C415.676 300.977 415.475 300.949 415.274 300.872L413.79 300.376C413.676 300.338 413.57 300.29 413.465 300.233L413.293 300.404C412.929 300.767 412.441 300.977 411.934 300.977C411.427 300.977 410.929 300.777 410.575 300.404L410.355 300.185C410.163 300.299 409.953 300.385 409.742 300.433C409.675 300.681 409.618 300.929 409.551 301.178L578.673 413.323C578.845 413.438 579.008 413.591 579.132 413.753C587.43 424.615 591.813 431.908 598.445 442.942L598.875 443.658C599.057 443.954 599.143 444.297 599.143 444.641V455.618C599.143 456.362 598.703 457.04 598.024 457.355C597.765 457.47 597.497 457.527 597.229 457.527C596.78 457.527 596.33 457.365 595.976 457.059L585.927 448.364L576.606 440.794L492.791 405C492.236 409.486 491.117 413.152 488.131 413.152C485.145 413.152 483.642 409.572 483.097 400.867L449.736 386.616C449.18 391.15 448.061 394.854 445.065 394.854C442.07 394.854 440.567 391.246 440.032 382.474L411.178 370.151H391.626C391.014 377.921 389.549 381.128 386.688 381.128C383.827 381.128 382.353 377.921 381.75 370.151H331.182V545.963C331.182 546.02 331.182 546.077 331.182 546.134C331.153 546.449 328.435 576.975 324.664 596.953L392.755 657.526C395.425 660.094 397.359 664.046 398.517 666.928C398.564 667.052 398.603 667.176 398.622 667.3L400.536 677.819C400.66 678.487 400.411 679.165 399.895 679.614C399.541 679.91 399.1 680.072 398.651 680.072L398.593 680.091Z" fill="white"/>
<path d="M300.5 3.81805C300.5 3.81805 302.902 4.63894 306.242 8.39017C317.659 21.2093 321.803 36.5197 325.861 54.5886C328.933 68.2859 329.21 88.8939 329.21 88.8939V250.226L381.75 285.065C378.946 271.416 378.649 259.962 381.224 242.504C382.353 239.134 383.243 237.817 385.176 235.994H415.838C417.772 237.817 418.671 239.134 419.791 242.504C423.198 265.536 421.58 278.117 415.838 299.068L414.355 298.572L413.369 297.57L411.886 299.068L410.403 297.57L409.292 298.572H408.182C407.886 299.803 407.599 300.939 407.292 302.008L577.563 414.918C585.803 425.694 590.09 432.843 596.76 443.954L597.182 444.651V455.628L587.133 446.932L577.563 439.153L491.097 402.232C490.686 407.31 489.805 411.252 488.083 411.252C486.064 411.252 485.212 405.869 484.896 399.588L448.042 383.848C447.63 388.964 446.75 392.954 445.018 392.954C442.989 392.954 442.137 387.513 441.821 381.195L411.522 368.251H389.789C389.444 374.236 388.573 379.228 386.64 379.228C384.707 379.228 383.836 374.236 383.492 368.251H329.22V545.972C329.22 545.972 326.435 577.595 322.521 597.669L391.425 658.968C393.808 661.258 395.607 664.981 396.689 667.663L398.603 678.182L310.118 647.533C309.324 650.692 308.51 654.014 307.687 657.593C306.328 663.482 303.381 672.684 303.381 672.684H297.639C297.639 672.684 294.691 663.473 293.332 657.593C292.509 654.014 291.696 650.682 290.901 647.533L202.416 678.182L204.33 667.663C205.412 664.981 207.211 661.258 209.594 658.968L278.498 597.669C274.584 577.595 271.799 545.972 271.799 545.972V368.251H217.528C217.183 374.236 216.312 379.228 214.379 379.228C212.446 379.228 211.575 374.236 211.23 368.251H189.497L159.198 381.195C158.882 387.523 158.03 392.954 156.002 392.954C154.269 392.954 153.389 388.964 152.977 383.848L116.123 399.588C115.807 405.869 114.946 411.252 112.936 411.252C111.214 411.252 110.333 407.31 109.922 402.232L23.4562 439.153L13.8862 446.932L3.8376 455.628V444.651L4.25868 443.954C10.929 432.843 15.2164 425.694 23.4562 414.918L193.727 302.008C193.43 300.939 193.133 299.803 192.837 298.572H191.727L190.617 297.57L189.133 299.068L187.65 297.57L186.664 298.572L185.181 299.068C179.429 278.117 177.821 265.536 181.228 242.504C182.358 239.134 183.248 237.817 185.181 235.994H215.843C217.776 237.817 218.676 239.134 219.796 242.504C222.38 259.962 222.073 271.416 219.269 285.065L271.809 250.226V88.9034C271.809 88.9034 272.086 68.2859 275.158 54.5982C279.216 36.5292 283.36 21.2188 294.777 8.39972C298.117 4.64848 300.519 3.8276 300.519 3.8276M300.519 0.00954514C300.098 0.00954514 299.677 0.0763611 299.275 0.219538C298.71 0.410441 295.725 1.58449 291.916 5.87026C279.867 19.4053 275.503 35.5747 271.426 53.7773C268.306 67.7037 268 88.0157 267.981 88.8652C267.981 88.8843 267.981 88.9034 267.981 88.9129V248.193L224.523 277.009C225.959 266.09 225.624 255.762 223.585 241.96C223.557 241.74 223.499 241.521 223.432 241.311C222.159 237.512 221.001 235.622 218.475 233.235C217.767 232.567 216.819 232.195 215.843 232.195H185.181C184.205 232.195 183.257 232.567 182.549 233.235C180.022 235.622 178.865 237.512 177.592 241.311C177.525 241.521 177.467 241.74 177.439 241.96C173.878 266.08 175.812 279.386 181.487 300.09C181.764 301.101 182.453 301.96 183.382 302.457C183.937 302.753 184.559 302.905 185.181 302.905C185.296 302.905 185.401 302.905 185.516 302.896L21.3317 411.739C20.9776 411.978 20.6618 412.264 20.4034 412.608C12.0296 423.565 7.62734 430.896 0.966576 441.997L0.545494 442.694C0.191401 443.286 0 443.963 0 444.66V455.637C0 457.136 0.870876 458.491 2.23939 459.111C2.74661 459.341 3.2921 459.455 3.82803 459.455C4.73718 459.455 5.6272 459.14 6.33538 458.52L16.3361 449.862L25.4468 442.465L106.754 407.74C107.501 411.405 109.108 415.07 112.927 415.07C118.066 415.07 119.32 408.78 119.798 402.165L149.81 389.356C150.556 393.059 152.154 396.772 156.002 396.772C161.16 396.772 162.404 390.434 162.873 383.772L190.282 372.069H207.67C208.168 377.081 209.517 383.046 214.379 383.046C219.241 383.046 220.6 377.081 221.088 372.069H267.971V545.972C267.971 546.087 267.971 546.192 267.991 546.306C268.105 547.557 270.651 576.24 274.335 596.256L207.048 656.114C207.048 656.114 206.972 656.18 206.943 656.219C204.646 658.423 202.579 661.793 200.79 666.231C200.694 666.47 200.617 666.718 200.569 666.976L198.655 677.495C198.416 678.831 198.895 680.196 199.928 681.074C200.636 681.675 201.517 681.99 202.416 681.99C202.837 681.99 203.259 681.924 203.67 681.78L288.193 652.505C288.671 654.481 289.14 656.448 289.6 658.443C290.978 664.418 293.868 673.467 293.992 673.848C294.5 675.433 295.973 676.502 297.639 676.502H303.381C305.046 676.502 306.52 675.433 307.027 673.848C307.151 673.467 310.041 664.418 311.419 658.443C311.879 656.448 312.348 654.481 312.826 652.505L397.349 681.78C397.761 681.924 398.182 681.99 398.603 681.99C399.502 681.99 400.392 681.675 401.091 681.074C402.125 680.196 402.613 678.831 402.364 677.495L400.45 666.976C400.402 666.718 400.335 666.47 400.23 666.231C398.44 661.793 396.363 658.423 394.076 656.219C394.038 656.18 394 656.152 393.971 656.114L326.684 596.256C330.368 576.249 332.923 547.566 333.029 546.306C333.038 546.192 333.048 546.087 333.048 545.972V372.069H379.932C380.429 377.081 381.779 383.046 386.64 383.046C391.502 383.046 392.861 377.081 393.349 372.069H410.738L438.146 383.772C438.615 390.434 439.869 396.772 445.018 396.772C448.865 396.772 450.463 393.059 451.209 389.356L481.221 402.165C481.7 408.78 482.953 415.07 488.092 415.07C491.911 415.07 493.519 411.405 494.265 407.74L575.572 442.465L584.683 449.862L594.684 458.52C595.392 459.131 596.292 459.455 597.191 459.455C597.727 459.455 598.273 459.341 598.78 459.111C600.139 458.491 601.019 457.136 601.019 455.637V444.66C601.019 443.973 600.828 443.295 600.474 442.694L600.053 441.997C593.392 430.896 588.99 423.556 580.616 412.608C580.357 412.273 580.042 411.978 579.687 411.739L415.523 302.877C415.628 302.877 415.743 302.886 415.858 302.886C416.48 302.886 417.092 302.734 417.657 302.438C418.585 301.941 419.274 301.092 419.552 300.07C425.236 279.367 427.169 266.061 423.6 241.941C423.571 241.721 423.514 241.501 423.447 241.291C422.174 237.493 421.016 235.603 418.489 233.216C417.781 232.548 416.834 232.176 415.858 232.176H385.195C384.219 232.176 383.271 232.548 382.563 233.216C380.037 235.603 378.879 237.493 377.606 241.291C377.539 241.501 377.482 241.721 377.453 241.941C375.414 255.743 375.079 266.071 376.515 276.99L333.057 248.174V88.9034C333.057 88.9034 333.057 88.8652 333.057 88.8557C333.048 87.9966 332.742 67.6846 329.612 53.7678C325.526 35.5652 321.171 19.4053 309.123 5.86071C305.304 1.57495 302.318 0.400896 301.763 0.209993C301.361 0.0763611 300.94 0 300.519 0V0.00954514Z" fill="black"/>
</g>
<defs>
<clipPath id="clip0_508_44">
<rect width="601" height="682" fill="white"/>
</clipPath>
</defs>
</svg>
