<svg width="351" height="493" viewBox="0 0 351 493" fill="none" xmlns="http://www.w3.org/2000/svg">
<g clip-path="url(#clip0_84_69)">
<path d="M315.399 79.3098C256.009 -4.65018 175.239 4.26982 175.239 4.26982C175.239 4.26982 94.4693 -4.66019 35.0793 79.3098C-34.6207 177.84 35.0793 268.62 35.0793 268.62L130.509 397.5C132.579 400.3 135.859 401.95 139.349 401.95H139.539L151.219 445.81H146.359C145.289 445.81 144.449 446.71 144.529 447.78L147.159 484.64C147.339 487.1 149.379 489.01 151.849 489.01H198.619C201.089 489.01 203.139 487.1 203.309 484.64L205.939 447.78C206.019 446.72 205.169 445.81 204.109 445.81H199.249L210.929 401.95H211.119C214.609 401.95 217.889 400.3 219.959 397.5L315.389 268.62C315.389 268.62 385.089 177.84 315.389 79.3098H315.399ZM191.769 445.81H158.489L148.349 401.95H202.339L191.759 445.81H191.769Z" fill="white"/>
<path d="M182.13 4C202.9 4 266.42 10.07 315.39 79.31C385.09 177.84 315.39 268.62 315.39 268.62L219.96 397.5C217.89 400.3 214.61 401.95 211.12 401.95H210.93L199.25 445.81H204.11C205.18 445.81 206.02 446.71 205.94 447.78L203.31 484.64C203.13 487.1 201.09 489.01 198.62 489.01H151.85C149.38 489.01 147.33 487.1 147.16 484.64L144.53 447.78C144.45 446.72 145.3 445.81 146.36 445.81H151.22L139.54 401.95H139.35C135.86 401.95 132.58 400.3 130.51 397.5L35.0797 268.62C35.0797 268.62 -34.6203 177.84 35.0797 79.31C84.0597 10.07 147.57 4 168.34 4C172.75 4 175.24 4.27 175.24 4.27C175.24 4.27 177.72 4 182.14 4M158.49 445.81H191.77L202.35 401.95H148.36L158.5 445.81M182.13 0C178.57 0 176.17 0.17 175.24 0.26C174.3 0.17 171.91 0 168.34 0C157.67 0 135.99 1.56 110.76 11.99C79.8397 24.78 53.2797 46.65 31.8097 77C15.5397 100 5.41971 124.52 1.70971 149.88C-1.26029 170.19 -0.130287 191.05 5.04971 211.88C13.7797 246.98 30.8597 269.7 31.8697 271.02L127.28 399.87C129.5 402.87 132.77 404.91 136.37 405.64L146 441.81C144.51 441.9 143.09 442.56 142.07 443.66C140.97 444.84 140.4 446.44 140.52 448.05L143.15 484.91C143.47 489.44 147.29 493 151.83 493H198.6C203.15 493 206.96 489.45 207.28 484.91L209.91 448.05C210.02 446.44 209.46 444.84 208.36 443.66C207.34 442.56 205.92 441.9 204.43 441.81L214.06 405.64C217.66 404.91 220.93 402.86 223.15 399.87L318.56 271.02C319.57 269.7 336.65 246.98 345.38 211.88C350.56 191.05 351.69 170.19 348.72 149.88C345.02 124.52 334.89 100 318.62 77C297.15 46.65 270.59 24.78 239.67 11.99C214.48 1.56 192.81 0 182.13 0ZM153.38 405.95H197.26L188.61 441.81H161.66L153.37 405.95H153.38Z" fill="black"/>
</g>
<defs>
<clipPath id="clip0_84_69">
<rect width="350.27" height="493" fill="white" transform="translate(0.0996094)"/>
</clipPath>
</defs>
</svg>
