<svg width="359" height="415" viewBox="0 0 359 415" fill="none" xmlns="http://www.w3.org/2000/svg">
<g clip-path="url(#clip0_536_7)">
<path d="M179.5 412.76C178.29 412.76 177.18 412.1 176.6 411.04C170.83 400.57 169.08 390.31 168.56 385.62C158.61 388.98 122.13 401.28 120.44 401.78C120.07 401.89 119.71 401.94 119.36 401.94C117.14 401.94 115.98 399.9 115.98 397.89V390.15C115.98 384.68 118.6 382.62 119.18 382.23C121.1 380.9 160.56 353.61 163.26 352.05C164.24 351.48 164.13 348.88 163.86 347.68L161.59 334.79C160.1 324.02 160.01 305.68 160.01 304.91V210.98L135.7 211.29C134.7 216 133.8 218.01 131.73 218.01C129.66 218.01 128.75 215.87 127.99 211.39L122.29 211.46C119.67 211.49 117.09 211.96 114.61 212.83L107.75 215.26C106.65 220.76 105.74 223.08 103.55 223.08C101.67 223.08 100.79 221.36 100.09 217.97L79.21 225.36C78.23 229.9 77.34 231.94 75.27 231.94C73.45 231.94 72.62 230.25 72.04 227.89L19.04 246.64L18.62 247.57C18.16 248.59 17.13 249.26 16.01 249.26H14.52C13.18 250.22 9.37 252.98 7.78 254.41C6.82 255.27 5.91 255.69 4.98 255.69C3.29 255.69 2.27 254.33 2.03 253.06C2.01 252.94 2 252.82 2 252.69V249.04C2 247.81 2.47 246.63 3.32 245.73C6.11 242.76 10.53 234.64 11.85 231.37C13.39 227.59 17.34 225.61 18.07 225.27C20.44 223.94 77.21 191.92 117.02 169.48V169.39C116.09 169.36 112.61 168.8 111.26 162.43C110.02 156.58 109.74 145.55 110.59 136.2C110.59 136.15 110.6 136.09 110.61 136.04C111.39 131.58 112 128.05 116.06 128.05H117.93C123.6 128.05 129.12 128.29 134.81 128.8C138.4 129.2 139.57 132.03 139.69 133.47C139.69 133.52 139.69 133.57 139.69 133.61C139.71 135.5 139.89 152 139.69 154.66C139.67 155.54 139.57 156.24 139.45 156.84C149.17 151.36 154.51 148.36 155.34 147.9C158.17 146.33 159.4 141.16 159.66 139.15V53.59C159.66 35.55 169.85 2 179.49 2C189.13 2 199.32 35.55 199.32 53.59V139.14C199.58 141.14 200.81 146.32 203.64 147.89C204.46 148.35 209.54 151.2 219.53 156.83C219.4 156.23 219.31 155.53 219.29 154.65C219.1 151.98 219.27 135.49 219.29 133.6C219.29 133.55 219.29 133.5 219.29 133.46C219.41 132.02 220.58 129.18 224.12 128.79C229.85 128.28 235.37 128.04 241.04 128.04H242.91C246.97 128.04 247.59 131.57 248.36 136.03C248.36 136.08 248.38 136.14 248.38 136.19C249.23 145.54 248.95 156.58 247.71 162.42C246.36 168.81 242.85 169.35 241.95 169.39V169.48C281.76 191.92 338.53 223.93 340.9 225.27C341.64 225.61 345.59 227.59 347.12 231.37C348.45 234.64 352.86 242.76 355.65 245.73C356.5 246.64 356.97 247.81 356.97 249.04V252.69C356.97 252.81 356.96 252.94 356.94 253.06C356.7 254.33 355.68 255.69 353.99 255.69C353.06 255.69 352.15 255.27 351.19 254.41C349.88 253.24 346.81 250.96 344.45 249.26H342.96C341.84 249.26 340.81 248.6 340.35 247.58L339.93 246.65L286.93 227.9C286.36 230.26 285.52 231.95 283.7 231.95C281.63 231.95 280.74 229.91 279.76 225.37L258.88 217.98C258.18 221.37 257.3 223.09 255.42 223.09C253.23 223.09 252.32 220.77 251.22 215.27L244.36 212.84C241.89 211.96 239.3 211.5 236.68 211.47L230.98 211.4C230.22 215.88 229.34 218.02 227.24 218.02C225.14 218.02 224.27 216.02 223.27 211.3L198.95 210.99V304.91C198.95 305.69 198.86 324.03 197.38 334.73L195.12 347.61C194.83 348.94 194.72 351.51 195.7 352.07C198.4 353.63 237.86 380.92 239.78 382.25C240.36 382.64 242.98 384.69 242.98 390.17V397.91C242.98 398.05 242.97 398.79 242.7 399.58C242.2 401.07 241.03 401.97 239.59 401.97C239.24 401.97 238.87 401.92 238.51 401.81C236.82 401.31 200.34 389.01 190.39 385.65C189.87 390.35 188.11 400.61 182.35 411.07C181.77 412.13 180.66 412.79 179.45 412.79L179.5 412.76Z" fill="white"/>
<path d="M179.5 4C186.67 4 197.33 34.81 197.33 53.59V139.26C197.33 139.26 198.24 147.17 202.68 149.64C203.69 150.2 211.31 154.49 222.5 160.79C222.24 157.76 221.35 157.34 221.3 154.55C221.1 152.14 221.3 133.62 221.3 133.62C221.3 133.62 221.51 131.09 224.36 130.77C231.96 130.09 237.87 130.03 241.06 130.03C241.86 130.03 242.49 130.03 242.93 130.03C245.15 130.03 245.57 131.51 246.41 136.36C247.25 145.64 246.94 156.51 245.78 162C244.66 167.28 242.08 167.38 241.89 167.38H241.88H239.98V170.63C280.68 193.57 340.02 227.03 340.02 227.03C340.02 227.03 343.92 228.72 345.3 232.09C346.56 235.2 351.06 243.69 354.23 247.07C354.73 247.6 355.01 248.29 355.01 249.01V252.66C355.01 252.66 354.82 253.65 354.03 253.65C353.68 253.65 353.2 253.45 352.57 252.88C350.75 251.24 346.32 248.06 345.33 247.36C345.2 247.27 345.05 247.22 344.89 247.22H343C342.66 247.22 342.35 247.02 342.21 246.71L341.57 245.3C341.48 245.11 341.32 244.96 341.13 244.89L285.47 225.2C284.88 228.53 284.3 229.9 283.75 229.9C282.99 229.9 282.26 227.37 281.54 223.81L257.38 215.26C256.72 219.38 256.09 221.04 255.48 221.04C254.64 221.04 253.83 217.91 253.03 213.72L245.09 210.91C242.42 209.96 239.61 209.46 236.77 209.43L229.34 209.34C228.63 214.09 227.96 215.98 227.3 215.98C226.5 215.98 225.73 213.16 224.97 209.28L197.02 208.92V304.86C197.02 304.86 196.95 323.72 195.47 334.4L193.22 347.2C193.22 347.2 192.09 352.19 194.77 353.74C197.44 355.29 238.73 383.85 238.73 383.85C238.73 383.85 241.05 385.26 241.05 390.11V397.85C241.05 397.85 241.05 399.9 239.67 399.9C239.52 399.9 239.35 399.87 239.16 399.82C237.26 399.26 188.69 382.87 188.69 382.87C188.69 382.87 188.21 396.37 180.68 410.04C180.43 410.49 179.98 410.72 179.53 410.72C179.08 410.72 178.63 410.49 178.38 410.04C170.85 396.37 170.37 382.87 170.37 382.87C170.37 382.87 121.8 399.26 119.9 399.82C119.71 399.88 119.54 399.9 119.39 399.9C118.01 399.9 118.01 397.85 118.01 397.85V390.11C118.01 385.26 120.33 383.85 120.33 383.85C120.33 383.85 161.62 355.29 164.29 353.74C166.96 352.19 165.84 347.2 165.84 347.2L163.59 334.4C162.11 323.72 162.04 304.86 162.04 304.86V208.92L134.09 209.28C133.33 213.15 132.56 215.98 131.76 215.98C131.1 215.98 130.43 214.09 129.72 209.34L122.29 209.43C119.46 209.47 116.65 209.97 113.97 210.91L106.03 213.72C105.23 217.91 104.42 221.04 103.58 221.04C102.97 221.04 102.33 219.38 101.68 215.26L77.52 223.81C76.8 227.37 76.07 229.9 75.31 229.9C74.75 229.9 74.18 228.53 73.59 225.2L17.93 244.89C17.73 244.96 17.57 245.11 17.49 245.3L16.85 246.71C16.71 247.02 16.4 247.22 16.06 247.22H14.17C14.01 247.22 13.86 247.27 13.73 247.36C12.74 248.06 8.31001 251.25 6.49001 252.88C5.86001 253.45 5.38001 253.65 5.03001 253.65C4.23001 253.65 4.05001 252.66 4.05001 252.66V249.01C4.05001 248.29 4.33001 247.6 4.83001 247.07C8.00001 243.69 12.5 235.2 13.76 232.09C15.13 228.71 19.04 227.03 19.04 227.03C19.04 227.03 78.38 193.57 119.08 170.63V167.38H117.18C117.18 167.38 117.18 167.38 117.17 167.38C116.98 167.38 114.39 167.28 113.28 162C112.12 156.51 111.8 145.65 112.65 136.36C113.49 131.51 113.92 130.03 116.13 130.03C116.57 130.03 117.2 130.03 118 130.03C121.19 130.03 127.1 130.1 134.7 130.77C137.55 131.09 137.76 133.62 137.76 133.62C137.76 133.62 137.97 152.14 137.76 154.55C137.71 157.33 136.82 157.75 136.56 160.79C147.75 154.49 155.37 150.19 156.38 149.64C160.81 147.18 161.73 139.26 161.73 139.26V53.59C161.73 34.81 172.39 4 179.56 4M179.5 0C174.1 0 168.92 6.87 164.12 20.42C160.14 31.66 157.67 44.37 157.67 53.59V139.01C157.34 141.4 156.1 145.19 154.38 146.15C153.65 146.56 149.5 148.89 141.76 153.25C141.86 148.44 141.73 136.29 141.7 133.59C141.7 133.49 141.7 133.4 141.69 133.3C141.46 130.5 139.29 127.27 135.09 126.81C135.06 126.81 135.03 126.81 135 126.81C129.26 126.3 123.68 126.05 117.95 126.05H116.73H116.08C110.33 126.05 109.44 131.17 108.66 135.7C108.64 135.81 108.63 135.91 108.62 136.02C107.75 145.55 108.05 156.83 109.32 162.85C110.05 166.31 111.39 168.37 112.76 169.6C73.53 191.71 20.34 221.71 17.17 223.49C16.04 224.02 11.77 226.26 10.01 230.62C8.76001 233.69 4.47001 241.6 1.87001 244.36C0.67001 245.64 0.0100098 247.3 0.0100098 249.04V252.69C0.0100098 252.94 0.0300098 253.18 0.0800098 253.42C0.55001 255.93 2.57001 257.68 4.99001 257.68C6.41001 257.68 7.80001 257.08 9.12001 255.89C10.27 254.85 12.93 252.86 15.17 251.25H16.02C17.93 251.25 19.67 250.13 20.45 248.39L20.52 248.24L70.76 230.46C71.55 232.38 72.87 233.93 75.27 233.93C78.8 233.93 80.09 230.52 80.93 226.86L98.67 220.58C99.45 223.07 100.8 225.06 103.55 225.06C107.3 225.06 108.55 221.27 109.49 216.75L115.27 214.7C117.54 213.9 119.9 213.48 122.31 213.44L126.31 213.39C127.04 216.92 128.32 219.99 131.73 219.99C135.14 219.99 136.43 216.92 137.32 213.25L158.02 212.99V304.88C158.02 305.68 158.11 324.15 159.61 334.97C159.61 335.02 159.62 335.07 159.63 335.11L161.88 347.91C161.89 347.97 161.9 348.03 161.92 348.1C162.09 348.88 162.1 349.98 161.97 350.48C157.53 353.27 122.3 377.62 118.06 380.56C117.07 381.23 113.99 383.81 113.99 390.13V397.87C113.99 401.32 116.31 403.92 119.37 403.92C119.91 403.92 120.47 403.84 121.02 403.67C122.64 403.19 154.25 392.54 166.91 388.27C167.74 393.75 169.8 402.8 174.86 411.99C175.79 413.69 177.58 414.74 179.51 414.74C181.44 414.74 183.23 413.69 184.16 411.99C189.22 402.81 191.28 393.75 192.11 388.27C204.77 392.54 236.38 403.19 238 403.67C238.55 403.83 239.11 403.92 239.65 403.92C241.96 403.92 243.87 402.48 244.65 400.17C245 399.15 245.03 398.22 245.03 397.87V390.13C245.03 383.81 241.94 381.22 240.96 380.56C236.71 377.62 201.49 353.27 197.05 350.48C196.92 349.98 196.93 348.88 197.11 348.07C197.12 348.01 197.13 347.97 197.14 347.91L199.39 335.11C199.39 335.11 199.41 335.01 199.41 334.97C200.91 324.15 200.99 305.67 200.99 304.89V212.98L221.69 213.24C222.57 216.91 223.91 219.98 227.28 219.98C230.65 219.98 231.97 216.92 232.7 213.38L236.7 213.43C239.1 213.46 241.47 213.88 243.73 214.69L249.51 216.74C250.45 221.26 251.7 225.05 255.45 225.05C258.2 225.05 259.55 223.06 260.33 220.57L278.07 226.85C278.91 230.51 280.2 233.92 283.73 233.92C286.13 233.92 287.45 232.37 288.24 230.45L338.48 248.23L338.55 248.38C339.34 250.12 341.08 251.24 342.98 251.24H343.83C346.07 252.85 348.73 254.85 349.88 255.88C351.2 257.07 352.59 257.67 354.01 257.67C356.44 257.67 358.46 255.92 358.92 253.41C358.96 253.17 358.99 252.92 358.99 252.68V249.03C358.99 247.29 358.33 245.63 357.13 244.35C354.53 241.59 350.24 233.67 348.99 230.61C347.22 226.26 342.96 224.01 341.83 223.48C338.67 221.7 285.48 191.7 246.24 169.59C247.61 168.36 248.95 166.3 249.68 162.84C250.95 156.82 251.25 145.54 250.38 136.01C250.37 135.9 250.36 135.79 250.34 135.69C249.55 131.17 248.66 126.04 242.92 126.04H242.27H241.05C235.32 126.04 229.74 126.29 224 126.8C223.97 126.8 223.94 126.8 223.91 126.8C219.71 127.27 217.54 130.49 217.31 133.29C217.31 133.39 217.3 133.48 217.3 133.58C217.27 136.29 217.14 148.43 217.24 153.24C209.49 148.88 205.35 146.54 204.62 146.14C202.9 145.18 201.67 141.4 201.33 139V53.59C201.33 44.36 198.86 31.65 194.88 20.42C190.08 6.87 184.91 0 179.5 0Z" fill="black"/>
</g>
<defs>
<clipPath id="clip0_536_7">
<rect width="359" height="414.76" fill="white"/>
</clipPath>
</defs>
</svg>
