<svg width="107" height="86" viewBox="0 0 107 86" fill="none" xmlns="http://www.w3.org/2000/svg">
<g clip-path="url(#clip0_725_17)">
<path d="M52.33 84.29C52.01 84.29 51.71 84.16 51.48 83.93C51.45 83.9 51.43 83.87 51.4 83.84C50.99 84.11 50.52 84.22 50.12 84.22C50.1 84.22 50.02 84.22 50 84.22C49.96 84.22 45.84 83.77 44.94 83.69C44.27 83.63 43.64 83.31 43.16 82.77L42.68 82.75C41.05 82.67 37.77 82.5 36.5 82.44C34.67 82.36 33.61 81.13 33.28 80.43C33.26 80.38 33.24 80.33 33.22 80.28C33.2 80.23 32.83 78.94 32.47 76.17C32.08 73.26 34.52 72.07 35.86 71.85C35.93 71.85 45.66 70.98 49.31 70.67C47.87 65.55 46.94 51.74 46.55 44.94C46.4 44.92 46.22 44.87 46.02 44.77C45.73 45.04 45.38 45.15 45.07 45.15C44.26 45.15 43.45 44.44 43.45 42.85C43.45 42.72 43.45 42.59 43.47 42.47L15.91 37.45C15.67 37.62 15.4 37.7 15.17 37.7C15.16 37.7 15.14 37.7 15.12 37.7C15.02 37.7 14.86 37.72 14.65 37.72C14.2 37.72 13.75 37.68 13.31 37.61C12.74 37.51 12.25 37.2 11.91 36.74L4.91003 35.46C4.74003 35.43 3.08003 35.13 2.52003 33.82C0.71003 28.74 0.51003 25.1 1.92003 22.94C2.97003 21.34 4.48003 21.19 4.65003 21.18L40.47 20.04C40.82 20.03 41.16 19.94 41.47 19.79C42.73 19.17 45.43 17.83 46.62 17.24C46.84 13.68 47.95 8.82003 48.36 6.98003L48.43 6.65003C48.5 6.34003 48.61 6.06003 48.76 5.82003L44.17 5.84003C43.74 5.84003 43.38 5.80003 43.04 5.70003C41.71 5.34003 41.6 4.53003 41.61 4.20003C41.63 3.78003 41.86 3.02003 43.27 2.75003C43.52 2.70003 43.78 2.68003 44.09 2.67003L51.43 2.57003C52.01 1.25003 52.87 1.03003 53.37 1.03003C53.87 1.03003 54.72 1.25003 55.31 2.57003L62.65 2.67003C62.96 2.67003 63.22 2.70003 63.47 2.75003C64.88 3.02003 65.12 3.78003 65.14 4.20003C65.15 4.53003 65.04 5.34003 63.71 5.70003C63.37 5.79003 63.01 5.84003 62.61 5.84003L57.99 5.82003C58.14 6.06003 58.25 6.34003 58.32 6.65003C58.66 8.16003 59.57 13.89 59.78 17.65C60.99 18.27 63.69 19.6 64.95 20.23C65.26 20.39 65.6 20.47 65.95 20.48L101.42 22.8C101.59 22.81 103.1 22.96 104.15 24.56C105.56 26.72 105.37 30.36 103.58 35.38C103 36.75 101.33 37.05 101.15 37.08L94.17 38.35C93.84 38.81 93.35 39.12 92.77 39.22C92.33 39.3 91.88 39.33 91.43 39.33C91.22 39.33 91.06 39.33 90.96 39.31C90.94 39.31 90.93 39.31 90.91 39.31C90.67 39.31 90.38 39.23 90.14 39.04L59.23 43.02C58.97 47.07 57.1 64.72 55.36 70.66C59.01 70.97 68.73 71.83 68.73 71.83C70.15 72.06 72.58 73.25 72.2 76.16C71.83 78.93 71.46 80.22 71.45 80.27C71.44 80.32 71.42 80.37 71.39 80.42C71.06 81.13 70 82.35 68.17 82.43C66.9 82.49 63.6 82.66 61.98 82.74L61.51 82.76C61.03 83.3 60.4 83.62 59.73 83.68C58.83 83.76 54.71 84.21 54.7 84.21C54.66 84.21 54.58 84.21 54.54 84.21C54.14 84.21 53.66 84.1 53.26 83.83C53.23 83.86 53.21 83.89 53.18 83.92C52.95 84.15 52.65 84.28 52.33 84.28V84.29Z" fill="white"/>
<path d="M53.38 1.99998C53.98 1.99998 54.39 2.73998 54.61 3.52998L62.64 3.63998C62.86 3.63998 63.07 3.65998 63.29 3.69998C64.38 3.90998 64.43 4.43998 63.45 4.69998C63.18 4.76998 62.89 4.79998 62.61 4.79998C62.61 4.79998 62.6 4.79998 62.59 4.79998L54.86 4.76998C54.9 5.08998 54.92 5.30998 54.92 5.30998C54.92 5.30998 54.94 5.30998 54.97 5.30998C55.28 5.30998 57.02 5.37998 57.34 6.82998C57.68 8.34998 58.57 13.99 58.78 17.67C58.8 18.04 59.02 18.37 59.36 18.54C60.55 19.12 63.25 20.46 64.51 21.08C64.95 21.3 65.43 21.42 65.92 21.43L101.36 23.75C101.36 23.75 106.53 24.11 102.64 35C102.28 35.84 100.99 36.05 100.99 36.05L93.53 37.41C93.41 37.71 93.16 38.1 92.6 38.2C92.14 38.28 91.73 38.3 91.43 38.3C91.13 38.3 90.95 38.28 90.95 38.28C90.95 38.28 90.93 38.28 90.9 38.28C90.82 38.28 90.67 38.24 90.59 37.94L58.73 42.04C58.45 42.09 58.25 42.32 58.23 42.61C58.06 45.97 55.96 65.97 54.17 71.01C54.08 71.27 54.26 71.54 54.53 71.56C57.35 71.8 68.62 72.8 68.62 72.8C68.62 72.8 71.54 73.28 71.18 76C70.82 78.72 70.46 79.97 70.46 79.97C70.46 79.97 69.82 81.33 68.1 81.41C66.62 81.48 62.4 81.7 61.26 81.76C61.09 81.76 60.93 81.86 60.82 81.99C60.62 82.24 60.22 82.62 59.62 82.68C58.72 82.76 54.57 83.21 54.57 83.21C54.57 83.21 54.55 83.21 54.52 83.21C54.34 83.21 53.71 83.17 53.43 82.58C53.1 81.89 53.04 81.62 53.04 81.62H52.74C52.74 81.62 52.76 83.29 52.31 83.29C51.86 83.29 51.88 81.62 51.88 81.62H51.58C51.58 81.62 51.52 81.89 51.19 82.58C50.91 83.17 50.28 83.21 50.1 83.21C50.07 83.21 50.05 83.21 50.05 83.21C50.05 83.21 45.9 82.76 45 82.68C44.4 82.63 44 82.24 43.8 81.99C43.69 81.85 43.53 81.77 43.36 81.76C42.22 81.7 38 81.48 36.52 81.41C34.8 81.33 34.16 79.97 34.16 79.97C34.16 79.97 33.8 78.73 33.44 76C33.08 73.28 36 72.8 36 72.8C36 72.8 47.28 71.8 50.09 71.56C50.36 71.54 50.54 71.26 50.45 71.01C48.82 66.43 47.77 49.48 47.47 43.91H46.75C46.71 43.91 46.29 43.89 45.64 43.25C45.55 43.82 45.3 44.1 45.05 44.1C44.74 44.1 44.43 43.67 44.43 42.8C44.43 42.07 44.74 41.7 45.05 41.7C45.3 41.7 45.55 41.94 45.64 42.43C45.77 42.57 46.4 43.22 46.6 43.22H47.44C47.43 42.97 47.42 42.76 47.41 42.6C47.4 42.32 47.19 42.08 46.91 42.03L15.47 36.3C15.39 36.6 15.24 36.64 15.16 36.64C15.13 36.64 15.11 36.64 15.11 36.64C15.11 36.64 14.93 36.66 14.63 36.66C14.33 36.66 13.92 36.64 13.46 36.56C12.91 36.46 12.65 36.07 12.53 35.77L5.07003 34.41C5.07003 34.41 3.78003 34.2 3.42003 33.36C-0.459974 22.47 4.70003 22.11 4.70003 22.11L40.48 20.97C40.97 20.95 41.45 20.83 41.89 20.62C43.15 20 45.85 18.66 47.04 18.08C47.38 17.91 47.6 17.58 47.62 17.21C47.83 13.53 49.05 8.32998 49.4 6.81998C49.73 5.35998 51.46 5.29998 51.77 5.29998C51.8 5.29998 51.82 5.29998 51.82 5.29998C51.82 5.29998 51.84 5.07998 51.88 4.75998L44.15 4.78998C44.15 4.78998 44.14 4.78998 44.13 4.78998C43.85 4.78998 43.56 4.75998 43.29 4.68998C42.32 4.42998 42.37 3.89998 43.45 3.68998C43.66 3.64998 43.88 3.62998 44.1 3.62998L52.13 3.51998C52.35 2.73998 52.76 1.98998 53.36 1.98998M53.38 -1.95317e-05C52.84 -1.95317e-05 51.68 0.17998 50.84 1.53998L44.09 1.62998C43.72 1.62998 43.39 1.66998 43.09 1.71998C40.86 2.14998 40.63 3.65998 40.62 4.10998C40.59 5.02998 41.14 6.16998 42.79 6.60998C43.21 6.71998 43.66 6.77998 44.16 6.77998H47.38C46.97 8.57998 45.97 13.03 45.69 16.52C44.36 17.18 42.14 18.27 41.03 18.82C40.85 18.91 40.65 18.96 40.44 18.97L4.66003 20.11C4.66003 20.11 4.61003 20.11 4.58003 20.11C3.59003 20.18 2.08003 20.8 1.09003 22.32C-0.499974 24.75 -0.339974 28.69 1.56003 34.03C1.57003 34.07 1.59003 34.11 1.61003 34.15C2.37003 35.91 4.38003 36.32 4.78003 36.39L11.38 37.59C11.84 38.08 12.45 38.41 13.14 38.53C13.63 38.62 14.14 38.66 14.65 38.66C14.85 38.66 15.02 38.66 15.14 38.64C15.14 38.64 15.16 38.64 15.17 38.64C15.47 38.64 15.78 38.58 16.08 38.44L42.47 43.25C42.64 45.2 43.89 46.1 45.07 46.1C45.25 46.1 45.43 46.08 45.61 46.03C46 52.65 46.83 64.12 48.06 69.72C43.85 70.09 35.85 70.79 35.85 70.79C35.8 70.79 35.75 70.8 35.7 70.81C33.76 71.13 31.03 72.84 31.48 76.25C31.85 79.04 32.22 80.37 32.26 80.51C32.29 80.61 32.33 80.71 32.37 80.8C32.8 81.71 34.14 83.28 36.45 83.39C37.75 83.45 41.13 83.62 42.72 83.71C43.32 84.25 44.06 84.58 44.85 84.65C45.72 84.73 49.82 85.17 49.86 85.18C49.88 85.18 49.91 85.18 49.93 85.18C49.98 85.18 50.08 85.18 50.13 85.18C50.54 85.18 50.93 85.11 51.28 84.98C51.6 85.16 51.96 85.25 52.34 85.25C52.72 85.25 53.08 85.15 53.4 84.98C53.76 85.11 54.15 85.18 54.55 85.18C54.6 85.18 54.7 85.18 54.75 85.18C54.77 85.18 54.8 85.18 54.82 85.18C54.86 85.18 58.96 84.73 59.83 84.65C60.62 84.58 61.35 84.25 61.95 83.71C63.54 83.63 66.93 83.45 68.22 83.39C70.53 83.28 71.87 81.71 72.3 80.8C72.34 80.71 72.38 80.61 72.41 80.51C72.45 80.37 72.82 79.04 73.19 76.25C73.64 72.84 70.91 71.13 68.97 70.81C68.92 70.81 68.87 70.8 68.82 70.79C68.82 70.79 60.85 70.08 56.63 69.72C58.19 63.24 59.77 48.78 60.17 43.86L89.93 40.03C90.25 40.19 90.6 40.27 90.92 40.27C90.92 40.27 90.94 40.27 90.95 40.27C91.07 40.27 91.24 40.29 91.44 40.29C91.95 40.29 92.45 40.25 92.95 40.16C93.65 40.04 94.25 39.71 94.71 39.22L101.35 38.01C101.71 37.95 103.73 37.54 104.48 35.78C104.5 35.74 104.51 35.7 104.53 35.66C106.43 30.32 106.59 26.39 105 23.95C104 22.43 102.49 21.8 101.51 21.74L66.07 19.42C66.07 19.42 66.03 19.42 66 19.42C65.8 19.42 65.59 19.36 65.41 19.27C64.3 18.72 62.09 17.63 60.76 16.97C60.51 13.45 59.76 8.62998 59.39 6.75998H62.59C63.11 6.76998 63.56 6.71998 63.98 6.59998C65.63 6.14998 66.18 5.00998 66.15 4.09998C66.13 3.64998 65.91 2.13998 63.68 1.70998C63.37 1.64998 63.05 1.61998 62.68 1.60998L55.93 1.51998C55.09 0.14998 53.93 -0.0200195 53.39 -0.0200195L53.38 -1.95317e-05Z" fill="black"/>
</g>
<defs>
<clipPath id="clip0_725_17">
<rect width="106.08" height="85.29" fill="white"/>
</clipPath>
</defs>
</svg>
