<svg width="107" height="92" viewBox="0 0 107 92" fill="none" xmlns="http://www.w3.org/2000/svg">
<g clip-path="url(#clip0_543_7)">
<path d="M53.85 90.2498C53.07 90.2498 52.58 89.6198 52.47 89.0298C52.47 88.9898 52.46 88.9398 52.45 88.8998L52.2 84.8398H45.73C44.95 84.8398 44.44 84.4198 44.24 83.9098C42.42 83.6998 38.03 83.1798 36.8 82.9998C35.01 82.7398 34.35 81.3598 34.26 80.6798C34.26 80.6298 34.26 80.5898 34.26 80.5398V75.0698C34.26 73.1798 35.72 72.3798 36.7 72.2998C36.7 72.2998 46.78 71.1098 50.1 70.7198C47.93 56.4298 47.37 47.7998 47.31 46.6798C47.31 46.6798 26.87 42.8398 17.14 41.0198C16.87 41.3398 16.47 41.5398 16.03 41.5398C15.96 41.5398 15.79 41.5198 15.73 41.5098L12.61 40.8498C12.13 40.7498 11.74 40.4098 11.56 39.9698C4.47002 38.6398 3.62002 38.4898 3.53002 38.4798C2.17002 38.2798 1.76002 37.2198 1.82002 36.5598V28.5498C1.82002 25.7598 4.17002 24.8898 5.42002 24.8198L14 24.4398C14.19 23.8798 14.72 23.4798 15.35 23.4798H17.02C17.57 23.4798 18.05 23.7898 18.29 24.2498L39.42 23.3098C39.99 23.2798 40.54 23.1498 41.06 22.9198C42.4 22.3198 45.66 20.8698 46.96 20.2498C47.13 14.5698 48.13 9.65977 48.43 8.28977C48.63 7.36977 48.96 6.68977 49.33 6.18977C49.25 6.18977 49.17 6.18977 49.09 6.18977C47.17 6.18977 45.12 6.01977 42.97 5.68977C42.32 5.58977 41.85 5.00977 41.86 4.31977C41.87 3.62977 42.35 3.06977 43.01 2.99977C44.34 2.83977 46.05 2.75977 48.09 2.75977C49.63 2.75977 51.05 2.80977 51.96 2.84977C52.53 1.57977 53.13 1.00977 53.87 1.00977C54.61 1.00977 55.21 1.57977 55.78 2.84977C56.69 2.80977 58.11 2.75977 59.65 2.75977C61.7 2.75977 63.41 2.83977 64.73 2.99977C65.38 3.07977 65.86 3.62977 65.88 4.31977C65.89 5.00977 65.43 5.58977 64.77 5.68977C62.63 6.01977 60.57 6.18977 58.65 6.18977C58.57 6.18977 58.49 6.18977 58.41 6.18977C58.78 6.68977 59.11 7.36977 59.31 8.28977C59.61 9.65977 60.61 14.5798 60.8 20.2698C62.03 20.8398 65.01 22.1798 66.68 22.9198C67.2 23.1498 67.75 23.2798 68.32 23.3098L89.45 24.2498C89.69 23.7898 90.17 23.4798 90.72 23.4798H92.39C93.01 23.4798 93.55 23.8798 93.74 24.4398L102.3 24.8198C103.56 24.8898 105.92 25.7598 105.92 28.5498V36.6398C105.97 37.2098 105.57 38.2698 104.2 38.4698C104.11 38.4798 103.27 38.6298 96.18 39.9598C96 40.3998 95.61 40.7398 95.13 40.8398L92.01 41.4998C91.94 41.5098 91.78 41.5298 91.71 41.5298C91.26 41.5298 90.86 41.3298 90.6 41.0098C81.19 42.7698 69.35 44.9998 63.4 46.1198C63.44 46.3098 63.44 46.4698 63.44 46.5698V47.6598C63.44 47.6598 63.44 47.7398 63.44 47.7798C63.36 48.4398 62.81 49.0998 61.92 49.0998C61.41 49.0998 60.98 48.8398 60.72 48.4298H60.18C60.04 50.9698 59.5 58.4898 57.65 70.6998C60.98 71.0898 71.09 72.2798 71.09 72.2798C72.04 72.3598 73.5 73.1598 73.5 75.0498V80.5198C73.5 80.5198 73.5 80.6098 73.5 80.6598C73.4 81.3498 72.75 82.7198 70.96 82.9798C69.73 83.1598 65.32 83.6798 63.51 83.8898C63.3 84.4098 62.79 84.8198 62.03 84.8198H55.56L55.31 88.8798C55.31 88.8798 55.31 88.9698 55.29 89.0098C55.17 89.5998 54.69 90.2298 53.91 90.2298L53.85 90.2498Z" fill="white"/>
<path d="M53.85 2C54.24 2 54.73 2.9 55.1 3.87C55.83 3.83 57.62 3.75 59.63 3.75C61.29 3.75 63.11 3.8 64.59 3.98C64.94 4.02 64.95 4.64 64.59 4.69C62.18 5.06 60.18 5.18 58.62 5.18C57.06 5.18 56.06 5.07 55.43 4.99C55.5 5.29 55.54 5.56 55.54 5.78H56.03C56.03 5.78 57.74 5.85 58.32 8.5C58.88 11.04 59.63 15.5 59.78 20.3C59.79 20.67 60 21 60.33 21.15C61.6 21.75 64.68 23.13 66.25 23.83C66.88 24.11 67.56 24.27 68.26 24.3L90.27 25.28V24.9C90.27 24.67 90.46 24.48 90.69 24.48H92.36C92.59 24.48 92.78 24.67 92.78 24.9V25.4L102.22 25.82C102.22 25.82 104.88 25.97 104.88 28.56V36.65C104.88 36.65 104.94 37.36 104.02 37.49C103.76 37.53 100.23 38.19 95.25 39.12V39.42C95.25 39.64 95.1 39.83 94.88 39.87L91.75 40.53C91.75 40.53 91.69 40.54 91.65 40.54C91.4 40.54 91.19 40.34 91.19 40.08V39.88C78.79 42.2 61.59 45.44 59.57 45.82C59.46 45.84 59.37 45.94 59.37 46.06V46.52H61.37C61.37 46.52 61.44 46.03 61.93 46.03C62.42 46.03 62.36 46.55 62.36 46.55V47.67C62.36 47.67 62.3 48.12 61.84 48.12C61.38 48.12 61.37 47.45 61.37 47.45H59.14C59.14 47.45 58.89 55.46 56.46 71.29C56.43 71.46 56.55 71.62 56.72 71.63C58.86 71.87 70.88 73.29 70.88 73.29C70.88 73.29 72.4 73.41 72.4 75.06V80.53C72.4 80.53 72.23 81.78 70.7 82C69.18 82.22 62.51 83 62.51 83V83.42C62.51 83.42 62.49 83.83 61.92 83.83H55.47C55.42 83.83 55.07 83.81 54.88 83.38C54.67 82.91 54.58 82.76 54.58 82.76L54.21 88.83C54.21 88.83 54.13 89.24 53.81 89.24C53.49 89.24 53.41 88.83 53.41 88.83L53.04 82.76C53.04 82.76 52.95 82.91 52.74 83.38C52.55 83.81 52.2 83.83 52.15 83.83H45.7C45.14 83.83 45.11 83.42 45.11 83.42V83C45.11 83 38.44 82.23 36.92 82C35.4 81.78 35.22 80.53 35.22 80.53V75.06C35.22 73.41 36.74 73.29 36.74 73.29C36.74 73.29 48.76 71.87 50.9 71.63C51.07 71.61 51.19 71.45 51.16 71.29C48.73 55.46 48.26 46.51 48.26 46.51V46.05C48.26 45.93 48.18 45.83 48.06 45.81C46.04 45.43 28.84 42.2 16.44 39.87V40.07C16.44 40.33 16.23 40.53 15.98 40.53C15.95 40.53 15.92 40.53 15.88 40.52L12.75 39.86C12.54 39.82 12.38 39.63 12.38 39.41V39.11C7.40001 38.18 3.87001 37.52 3.61001 37.48C2.69001 37.34 2.75001 36.64 2.75001 36.64V28.55C2.75001 25.96 5.41001 25.81 5.41001 25.81L14.85 25.39V24.89C14.85 24.66 15.04 24.47 15.27 24.47H16.94C17.17 24.47 17.36 24.66 17.36 24.89V25.27L39.37 24.29C40.06 24.26 40.74 24.1 41.38 23.82C42.95 23.12 46.03 21.74 47.3 21.14C47.63 20.98 47.84 20.65 47.85 20.29C48.01 15.49 48.76 11.03 49.31 8.49C49.89 5.85 51.6 5.77 51.6 5.77H52.09C52.09 5.55 52.13 5.28 52.2 4.98C51.57 5.07 50.5 5.17 49.01 5.17C47.52 5.17 45.46 5.06 43.04 4.68C42.69 4.63 42.69 4.01 43.04 3.97C44.52 3.79 46.34 3.74 48 3.74C50.01 3.74 51.8 3.82 52.53 3.86C52.9 2.89 53.38 1.99 53.78 1.99M53.85 0C52.66 0 51.88 0.82 51.33 1.82C50.45 1.79 49.3 1.76 48.07 1.76C45.99 1.76 44.24 1.84 42.87 2.01C41.72 2.15 40.86 3.11 40.84 4.31C40.82 5.51 41.64 6.51 42.8 6.68C44.49 6.94 46.13 7.1 47.69 7.16C47.59 7.44 47.5 7.75 47.43 8.07C47.05 9.79 46.17 14.27 45.94 19.61C44.52 20.27 42.08 21.36 40.63 22C40.22 22.18 39.79 22.28 39.35 22.3L18.75 23.22C18.31 22.76 17.69 22.47 17 22.47H15.33C14.53 22.47 13.82 22.86 13.38 23.46L5.38001 23.82C3.52001 23.93 0.800012 25.27 0.800012 28.56V36.6C0.750012 37.82 1.62001 39.21 3.37001 39.47C3.52001 39.49 4.74001 39.71 10.91 40.87C11.26 41.35 11.78 41.7 12.39 41.83L15.52 42.49C15.69 42.52 15.86 42.54 16.03 42.54C16.55 42.54 17.04 42.38 17.44 42.1C28.16 44.11 41.8 46.67 46.36 47.53C46.53 50.07 47.16 57.77 48.96 69.85C45.08 70.3 37.09 71.25 36.58 71.31C35.23 71.44 33.26 72.54 33.26 75.07V80.54C33.26 80.63 33.26 80.73 33.28 80.82C33.42 81.83 34.3 83.65 36.67 84C37.81 84.17 41.63 84.62 43.65 84.86C44.09 85.43 44.8 85.85 45.74 85.85H51.27L51.46 88.98C51.46 89.07 51.48 89.16 51.49 89.24C51.73 90.43 52.7 91.27 53.85 91.27C55 91.27 55.98 90.44 56.21 89.24C56.23 89.15 56.24 89.06 56.24 88.98L56.43 85.85H61.96C62.91 85.85 63.62 85.43 64.05 84.86C66.07 84.62 69.89 84.17 71.03 84C73.4 83.65 74.28 81.84 74.42 80.82C74.43 80.73 74.44 80.64 74.44 80.54V75.07C74.44 72.54 72.47 71.44 71.12 71.31C70.6 71.25 62.61 70.3 58.74 69.85C60.22 59.89 60.81 53.28 61.04 49.98C61.3 50.07 61.58 50.13 61.88 50.13C63.35 50.13 64.25 49.02 64.39 47.93C64.4 47.85 64.41 47.77 64.41 47.68V46.96C70.47 45.82 81.38 43.77 90.28 42.1C90.68 42.38 91.17 42.54 91.69 42.54C91.86 42.54 92.03 42.52 92.2 42.49L95.33 41.83C95.94 41.7 96.46 41.35 96.81 40.87C102.98 39.72 104.2 39.5 104.36 39.47C106.1 39.21 106.96 37.82 106.92 36.6V28.56C106.92 25.28 104.2 23.93 102.37 23.83L94.34 23.47C93.9 22.87 93.19 22.48 92.39 22.48H90.72C90.03 22.48 89.41 22.77 88.97 23.23L68.37 22.31C67.93 22.29 67.49 22.19 67.09 22.01C65.64 21.36 63.2 20.27 61.78 19.62C61.55 14.28 60.67 9.8 60.29 8.08C60.22 7.75 60.13 7.45 60.03 7.17C61.59 7.11 63.23 6.95 64.92 6.69C66.07 6.51 66.9 5.51 66.88 4.32C66.86 3.13 66.01 2.16 64.85 2.02C63.49 1.86 61.74 1.77 59.65 1.77C58.42 1.77 57.27 1.8 56.39 1.83C55.84 0.83 55.07 0.01 53.87 0.01L53.85 0Z" fill="black"/>
</g>
<defs>
<clipPath id="clip0_543_7">
<rect width="106.1" height="91.25" fill="white" transform="translate(0.800018)"/>
</clipPath>
</defs>
</svg>
