<svg width="648" height="725" viewBox="0 0 648 725" fill="none" xmlns="http://www.w3.org/2000/svg">
<g clip-path="url(#clip0_824_123)">
<path d="M324 722.291C323.2 722.291 322.48 721.82 322.16 721.081C320.49 717.221 319.94 708.391 319.41 699.851L319.38 699.321C317.62 696.831 315.87 692.871 314.07 687.291L214.31 714.291L209.43 715.371C209.29 715.401 209.14 715.421 209 715.421C208.55 715.421 208.11 715.271 207.75 714.981C207.28 714.601 207 714.031 207 713.421V685.921C207 685.341 207.25 684.801 207.68 684.421L289.1 613.071C292.46 609.741 295.92 606.291 297.46 602.651C293.23 572.94 289.67 540.13 286.77 513.181C286.65 513.191 286.52 513.2 286.4 513.2C285.8 513.2 284.91 513.02 284.09 512.19C282.81 510.88 281.39 507.771 281.7 495.331C281.07 493.461 280.67 491.701 280.48 489.961C280.48 489.891 280.47 489.811 280.47 489.741V371.34L266.69 375.5C265.73 386.66 263.44 387.561 262.44 387.961C262.2 388.051 261.95 388.1 261.7 388.1C261.45 388.1 261.2 388.051 260.96 387.961C259.53 387.391 257.97 385.76 257.03 378.41L239.01 383.85C238.06 395.111 235.76 396.021 234.76 396.421C234.52 396.51 234.27 396.56 234.02 396.56C233.77 396.56 233.52 396.51 233.28 396.421C231.84 395.85 230.27 394.201 229.33 386.771L211.16 392.25L195.97 397.451L185.73 403.28C184.75 414.171 182.57 415.03 181.51 415.451C181.27 415.54 181.02 415.59 180.77 415.59C180.52 415.59 180.27 415.54 180.03 415.451C178.81 414.961 177.46 413.71 176.51 408.53L153.95 421.37C153.18 435.06 150.5 436.201 149.61 436.581C149.36 436.69 149.09 436.741 148.82 436.741C148.55 436.741 148.28 436.69 148.03 436.581C146.65 435.991 145.14 434.32 144.2 426.91L116.26 442.82L39.72 487.16L5.21999 514.04C4.85999 514.32 4.42999 514.461 3.98999 514.461C3.68999 514.461 3.38999 514.39 3.10999 514.26C2.41999 513.93 1.98999 513.23 1.98999 512.46V468.57C1.98999 468 2.23999 467.451 2.66999 467.07L102.52 379.09C101.84 375.39 101.34 370.411 100.91 362.991H99.54C98.56 362.991 97.72 362.28 97.57 361.31C95.12 346.27 94.5 334.48 99.44 325.861C99.8 325.241 100.46 324.85 101.17 324.85H126.18C126.9 324.85 127.56 325.23 127.91 325.85C132.28 333.47 132.15 343.71 130.83 354.13L195.3 297.32C194.55 293.56 194.01 288.361 193.55 280.48H192.18C191.2 280.48 190.36 279.771 190.21 278.801C187.76 263.751 187.14 251.971 192.08 243.341C192.44 242.721 193.1 242.341 193.81 242.341H218.82C219.54 242.341 220.2 242.721 220.55 243.351C224.83 250.811 224.94 260.521 223.34 272.611L280.45 222.291V152.331C280.45 148.001 280.45 138.121 288.97 133.811C289.08 107.801 292.41 76.4805 297.73 51.7305C302.42 29.9005 310.74 3.60051 323.78 2.28051C323.85 2.28051 323.91 2.27051 323.98 2.27051C324.05 2.27051 324.12 2.27051 324.18 2.28051C337.21 3.61051 345.54 29.9105 350.22 51.7305C355.54 76.4805 358.87 107.801 358.98 133.811C367.5 138.121 367.5 148.001 367.5 152.331V222.291L424.61 272.611C423.01 260.521 423.13 250.811 427.4 243.351C427.76 242.731 428.42 242.341 429.14 242.341H454.15C454.87 242.341 455.53 242.721 455.89 243.341C460.83 251.961 460.21 263.751 457.76 278.801C457.6 279.771 456.77 280.48 455.79 280.48H454.42C453.96 288.35 453.42 293.56 452.67 297.32L517.14 354.13C515.82 343.701 515.69 333.46 520.06 325.85C520.42 325.23 521.08 324.84 521.8 324.84H546.81C547.53 324.84 548.19 325.22 548.55 325.85C553.49 334.47 552.87 346.26 550.42 361.301C550.26 362.271 549.43 362.98 548.45 362.98H547.08C546.65 370.401 546.16 375.38 545.47 379.081L645.32 467.06C645.75 467.44 646 467.99 646 468.56V512.45C646 513.21 645.56 513.911 644.88 514.251C644.6 514.391 644.3 514.451 644 514.451C643.56 514.451 643.13 514.31 642.77 514.03L608.27 487.15L531.72 442.801L503.79 426.9C502.87 434.27 501.41 435.94 499.96 436.56C499.71 436.67 499.44 436.72 499.17 436.72C498.9 436.72 498.63 436.67 498.38 436.56C497.49 436.18 494.81 435.04 494.04 421.35L471.48 408.51C470.52 413.69 469.18 414.941 467.96 415.431C467.72 415.521 467.47 415.57 467.22 415.57C466.97 415.57 466.72 415.521 466.48 415.431C465.42 415.01 463.24 414.141 462.26 403.26L452.01 397.431L436.75 392.201L418.66 386.741C417.72 394.181 416.16 395.82 414.71 396.391C414.47 396.48 414.22 396.53 413.97 396.53C413.72 396.53 413.47 396.48 413.23 396.391C412.23 395.991 409.93 395.081 408.97 383.82L390.95 378.38C390.01 385.73 388.45 387.361 387.02 387.931C386.78 388.021 386.53 388.07 386.28 388.07C386.03 388.07 385.78 388.021 385.54 387.931C384.54 387.531 382.26 386.63 381.29 375.47L367.51 371.31V489.711C367.51 489.781 367.51 489.861 367.5 489.931C366.94 494.951 364.83 499.22 362.14 504.56L361.89 506.88C358.47 538.721 354.94 571.641 350.53 602.621C352.07 606.261 355.53 609.701 358.89 613.041L440.31 684.391C440.74 684.771 440.99 685.32 440.99 685.891V713.391C440.99 714 440.71 714.57 440.24 714.951C439.88 715.24 439.44 715.391 438.99 715.391C438.85 715.391 438.7 715.371 438.56 715.341L433.77 714.281L333.92 687.26C332.12 692.841 330.37 696.801 328.6 699.291L328.57 699.821C328.03 708.361 327.48 717.201 325.82 721.061C325.5 721.791 324.78 722.271 323.98 722.271L324 722.291Z" fill="white"/>
<path d="M324 4.29004C344.77 6.41004 357.01 86.25 357.01 135.12C365.53 138.56 365.53 148.07 365.53 152.35V223.21L427.41 277.74C425.32 264.7 424.36 252.74 429.16 244.36H454.17C459.06 252.89 457.97 265.16 455.8 278.5H452.54C452.04 287.89 451.43 293.95 450.48 298.06L519.9 359.23C517.92 346.58 517.13 335.01 521.81 326.86H546.82C551.71 335.4 550.62 347.66 548.45 361H545.19C544.72 369.86 544.15 375.75 543.29 379.84L644 468.58V512.47L609.39 485.5L532.72 441.08L502.12 423.66C501.76 427.8 500.93 433.99 499.18 434.74C496.72 433.69 496.08 421.97 496 420.17L469.96 405.34C469.52 408.91 468.7 413 467.24 413.58C465.28 412.8 464.48 405.73 464.19 402.05L452.87 395.6L437.43 390.31L416.96 384.14C416.6 387.98 415.78 393.84 414 394.54C411.91 393.71 411.13 385.71 410.9 382.31L389.26 375.78C388.9 379.62 388.07 385.38 386.31 386.08C384.24 385.26 383.46 377.42 383.21 373.96L365.54 368.63V489.73C365.01 494.49 362.88 498.72 360.21 504.01L359.92 506.69C356.53 538.23 352.93 571.8 348.5 602.89C350.1 607.12 353.82 610.82 357.55 614.52L439.01 685.91V713.41L434.22 712.35L332.61 684.85C330.63 691.31 328.64 696.04 326.67 698.6C326.14 707.06 325.6 716.58 324.01 720.28C322.41 716.58 321.88 707.06 321.35 698.6C319.38 696.04 317.39 691.32 315.41 684.85L213.8 712.35L209.01 713.41V685.91L290.47 614.52C294.2 610.82 297.92 607.12 299.52 602.89C295.23 572.82 291.72 540.44 288.43 509.82C287.64 510.77 286.97 511.19 286.41 511.19C283.85 511.19 283.52 502.39 283.72 495.01C283.11 493.27 282.68 491.53 282.48 489.72V368.62L264.81 373.95C264.56 377.41 263.78 385.25 261.71 386.07C259.95 385.37 259.12 379.61 258.76 375.77L237.13 382.3C236.89 385.7 236.12 393.7 234.03 394.53C232.26 393.83 231.43 387.96 231.07 384.13L210.6 390.3L195.16 395.59L183.84 402.04C183.55 405.73 182.75 412.79 180.79 413.57C179.33 412.99 178.51 408.9 178.07 405.33L152.03 420.16C151.95 421.96 151.3 433.68 148.85 434.73C147.1 433.98 146.27 427.79 145.91 423.65L115.31 441.07L38.64 485.49L4.03 512.46V468.57L104.74 379.83C103.88 375.74 103.32 369.84 102.84 360.99H99.58C97.41 347.65 96.32 335.39 101.21 326.85H126.22C130.9 335.01 130.11 346.58 128.13 359.22L197.55 298.05C196.6 293.94 196 287.87 195.49 278.49H192.23C190.06 265.15 188.97 252.89 193.86 244.35H218.87C223.67 252.72 222.71 264.69 220.62 277.73L282.5 223.2V152.34C282.5 148.05 282.5 138.55 291.02 135.11C291.02 86.2401 303.27 6.39004 324.03 4.28004M430.96 280.83C430.92 280.07 430.87 279.3 430.83 278.5H428.31L430.96 280.83ZM217.1 280.83L219.75 278.5H217.23C217.19 279.31 217.14 280.08 217.1 280.83ZM523.55 362.42C523.52 361.95 523.5 361.48 523.47 360.99H521.93L523.55 362.42ZM124.5 362.42L126.12 360.99H124.58C124.55 361.48 124.53 361.95 124.5 362.42ZM324 0.290039C323.86 0.290039 323.73 0.290039 323.59 0.310039C317.11 0.970039 311.51 6.44004 306.47 17.03C302.47 25.43 298.88 36.97 295.8 51.33C290.54 75.84 287.2 106.74 287 132.65C278.47 137.78 278.47 148.21 278.47 152.36V221.41L225.93 267.7C226.86 257.56 226.2 249.17 222.3 242.38C221.59 241.14 220.26 240.37 218.83 240.37H193.82C192.39 240.37 191.06 241.14 190.35 242.38C184.53 252.53 186.21 266.68 188.24 279.15C188.53 280.91 189.94 282.25 191.67 282.47C192.06 288.7 192.53 293.18 193.13 296.59L133.36 349.25C134.09 340.28 133.55 331.67 129.65 324.86C128.94 323.62 127.61 322.85 126.18 322.85H101.17C99.74 322.85 98.41 323.62 97.7 324.86C91.88 335.02 93.56 349.17 95.59 361.63C95.88 363.39 97.29 364.73 99.02 364.95C99.39 370.77 99.81 375.01 100.35 378.32L1.36 465.58C0.5 466.34 0 467.43 0 468.58V512.47C0 514 0.87 515.39 2.24 516.06C2.8 516.33 3.4 516.47 4 516.47C4.87 516.47 5.74 516.18 6.46 515.63L40.85 488.83L117.28 444.55L142.66 430.1C143.68 435.7 145.22 437.56 147.24 438.42C147.74 438.64 148.28 438.74 148.81 438.74C149.34 438.74 149.88 438.63 150.38 438.42C151.88 437.78 154.93 436.48 155.86 422.57L175.13 411.6C176.04 414.82 177.33 416.54 179.27 417.31C179.74 417.5 180.25 417.59 180.75 417.59C181.25 417.59 181.75 417.5 182.23 417.31C184.76 416.3 186.66 413.67 187.6 404.5L196.78 399.27L211.79 394.13L227.66 389.34C228.57 394.67 230.04 397.28 232.51 398.27C232.98 398.46 233.49 398.55 233.99 398.55C234.49 398.55 234.99 398.46 235.47 398.27C238.02 397.26 239.94 394.58 240.86 385.36L255.37 380.98C256.28 386.24 257.75 388.83 260.21 389.8C260.68 389.99 261.19 390.08 261.69 390.08C262.19 390.08 262.69 389.99 263.17 389.8C265.71 388.79 267.62 386.14 268.54 377.01L278.46 374.02V489.73C278.46 489.88 278.46 490.03 278.48 490.18C278.68 491.96 279.07 493.75 279.68 495.63C279.39 508.42 280.93 511.83 282.64 513.59C283.3 514.26 284.08 514.74 284.93 515C287.78 541.48 291.26 573.36 295.37 602.37C293.9 605.45 290.89 608.45 287.7 611.62L206.33 682.93C205.46 683.69 204.97 684.79 204.97 685.94V713.44C204.97 714.65 205.52 715.8 206.46 716.56C207.18 717.14 208.06 717.44 208.97 717.44C209.26 717.44 209.55 717.41 209.83 717.35L214.62 716.29C214.68 716.28 214.74 716.26 214.8 716.25L312.73 689.75C314.28 694.27 315.82 697.66 317.38 700.03C318.05 710.72 318.61 718.02 320.29 721.91C320.92 723.38 322.37 724.33 323.96 724.33C325.55 724.33 327 723.38 327.63 721.91C329.31 718.02 329.87 710.72 330.54 700.03C332.1 697.66 333.64 694.27 335.19 689.75L433.12 716.25C433.18 716.27 433.24 716.28 433.3 716.29L438.09 717.35C438.38 717.41 438.67 717.44 438.95 717.44C439.85 717.44 440.74 717.13 441.46 716.56C442.41 715.8 442.95 714.65 442.95 713.44V685.94C442.95 684.79 442.45 683.69 441.59 682.93L360.22 611.62C357.04 608.46 354.03 605.46 352.56 602.37C356.93 571.55 360.44 538.84 363.84 507.19V507.13L364.06 505.17C366.66 499.99 368.87 495.45 369.46 490.19C369.48 490.04 369.48 489.89 369.48 489.74V374.03L379.4 377.02C380.33 386.15 382.23 388.8 384.77 389.81C385.24 390 385.74 390.09 386.25 390.09C386.76 390.09 387.25 390 387.73 389.81C390.19 388.83 391.66 386.25 392.57 380.99L407.08 385.37C408 394.59 409.91 397.26 412.47 398.28C412.94 398.47 413.45 398.56 413.95 398.56C414.45 398.56 414.95 398.47 415.43 398.28C417.9 397.3 419.38 394.68 420.28 389.35L436.15 394.14L451.16 399.28L460.34 404.51C461.28 413.68 463.18 416.31 465.71 417.32C466.18 417.51 466.69 417.6 467.19 417.6C467.69 417.6 468.19 417.51 468.67 417.32C470.61 416.55 471.9 414.83 472.81 411.61L492.08 422.58C493.01 436.48 496.06 437.78 497.56 438.43C498.06 438.64 498.6 438.75 499.13 438.75C499.66 438.75 500.2 438.64 500.7 438.43C502.72 437.56 504.26 435.7 505.28 430.11L530.69 444.58L607.1 488.85L641.49 515.65C642.21 516.21 643.07 516.49 643.95 516.49C644.55 516.49 645.15 516.36 645.71 516.08C647.08 515.41 647.95 514.01 647.95 512.49V468.6C647.95 467.45 647.46 466.36 646.59 465.6L547.58 378.36C548.12 375.05 548.54 370.81 548.91 364.99C550.64 364.77 552.06 363.43 552.34 361.67C554.37 349.2 556.05 335.05 550.23 324.9C549.52 323.66 548.19 322.89 546.76 322.89H521.75C520.32 322.89 518.99 323.66 518.28 324.9C514.38 331.71 513.83 340.31 514.57 349.29L454.8 296.63C455.4 293.21 455.86 288.74 456.26 282.51C457.99 282.29 459.41 280.95 459.69 279.19C461.72 266.72 463.4 252.57 457.58 242.42C456.87 241.18 455.54 240.41 454.11 240.41H429.1C427.67 240.41 426.34 241.18 425.63 242.42C421.73 249.22 421.07 257.61 422 267.74L369.46 221.45V152.4C369.46 148.26 369.46 137.82 360.93 132.69C360.73 106.79 357.4 75.88 352.13 51.37C349.04 37.01 345.45 25.47 341.46 17.07C336.49 6.44004 330.89 0.970039 324.41 0.310039C324.28 0.300039 324.14 0.290039 324 0.290039Z" fill="black"/>
</g>
<defs>
<clipPath id="clip0_824_123">
<rect width="648" height="724" fill="white" transform="translate(0 0.290039)"/>
</clipPath>
</defs>
</svg>
