<svg width="409" height="328" viewBox="0 0 409 328" fill="none" xmlns="http://www.w3.org/2000/svg">
<g clip-path="url(#clip0_571_68)">
<path d="M194.27 325.88C194.21 325.88 194.14 325.88 194.08 325.88C193.58 325.83 143.77 320.98 138.41 320.55C131.7 320.01 129.26 310.12 129 308.99C128.97 308.84 128.95 308.7 128.95 308.55V301.26C128.95 293.72 135.35 291.41 135.63 291.32C135.69 291.3 135.75 291.28 135.8 291.27C136.24 291.16 179.41 280.46 188.7 278.27C189.06 278.19 189.33 277.89 189.34 277.55C189.37 276.78 189.26 276.01 189.03 275.14C187.69 270.23 183.27 253.94 182.42 250.37C182.35 250.07 182.28 249.77 182.22 249.48C181.52 246.27 181.17 242.85 181.17 239.32V178.42C177.48 177.26 175.1 173.12 174.01 170.74L148.2 170.78C139.67 170.78 131.03 170.43 122.54 169.74L10.0398 160.65C9.57979 160.62 6.98979 160.24 5.18979 155.82C5.16979 155.77 5.14979 155.72 5.12979 155.66C1.66979 144.59 1.35979 136.67 4.21979 132.14C6.01979 129.28 8.43979 128.86 8.70979 128.82C9.98979 128.69 126.3 117.18 142.32 115.75C142.5 105.77 144.08 98.6498 145.46 94.2598C142.7 94.4298 139.18 94.5998 136 94.5998C129.3 94.5998 125.42 94.0198 125.42 91.0298C125.42 88.0398 129.42 87.3798 136.81 87.3798C140.93 87.3798 145.4 87.6198 148.28 87.8098C149.26 86.3998 150.94 84.6198 153.26 84.6198C155.07 84.6198 156.72 85.6798 158.17 87.7698C160.92 87.5998 165.17 87.3798 169.06 87.3798C176.45 87.3798 180.45 87.9598 180.45 91.0298C180.45 94.0998 176.57 94.5998 169.87 94.5998C166.97 94.5998 163.8 94.4598 161.09 94.2998C163.55 102.15 164.04 111.66 164.13 115.6H170.49V105.52C170.49 99.5598 174.52 95.4598 181.3 94.4498V65.0798C181.3 37.2798 192.12 2.00977 204.29 2.00977C216.46 2.00977 227.28 37.2798 227.28 65.0798V94.4498C234.06 95.4598 238.09 99.5598 238.09 105.52V115.6H244.45C244.54 111.66 245.03 102.15 247.49 94.2998C244.78 94.4598 241.61 94.5998 238.71 94.5998C232.01 94.5998 228.13 94.0198 228.13 91.0298C228.13 88.0398 232.13 87.3798 239.52 87.3798C243.41 87.3798 247.66 87.5998 250.41 87.7698C251.87 85.6798 253.52 84.6198 255.32 84.6198C257.64 84.6198 259.33 86.3998 260.3 87.8098C263.17 87.6198 267.65 87.3798 271.77 87.3798C279.16 87.3798 283.16 87.9598 283.16 91.0298C283.16 94.0998 279.28 94.5998 272.58 94.5998C269.4 94.5998 265.87 94.4298 263.12 94.2598C264.51 98.6498 266.09 105.77 266.26 115.75C282.28 117.18 398.59 128.69 399.79 128.81C400.15 128.86 402.57 129.28 404.37 132.14C407.23 136.67 406.92 144.59 403.46 155.66C403.44 155.71 403.42 155.76 403.4 155.82C401.6 160.24 399.02 160.62 398.52 160.65L286.06 169.74C277.56 170.43 268.93 170.78 260.4 170.78H234.52C233.5 173.12 231.12 177.26 227.43 178.41V239.31C227.43 242.84 227.08 246.26 226.38 249.47C226.32 249.77 226.25 250.06 226.18 250.37C225.33 253.95 220.91 270.24 219.57 275.14C219.33 276.01 219.23 276.78 219.26 277.51C219.26 277.53 219.26 277.61 219.26 277.63C219.27 277.88 219.54 278.18 219.9 278.26C229.19 280.45 272.37 291.15 272.8 291.26C272.86 291.27 272.92 291.29 272.97 291.31C273.24 291.4 279.65 293.71 279.65 301.25V308.54C279.65 308.69 279.63 308.84 279.6 308.98C279.34 310.11 276.9 320 270.19 320.54C264.83 320.97 215.02 325.82 214.52 325.87C214.46 325.87 214.39 325.87 214.33 325.87H194.3L194.27 325.88Z" fill="white"/>
<path d="M204.29 4C214.15 4 225.28 36.93 225.28 65.07V95C225.28 95.69 225.8 96.27 226.48 96.35C229.3 96.69 236.09 98.26 236.09 105.5V116.33C236.09 117.02 236.65 117.57 237.33 117.57H245.26C245.9 117.57 246.43 117.06 246.43 116.42C246.48 112.66 246.92 100.52 250.4 92.08C247.45 92.29 242.81 92.57 238.71 92.57C234.07 92.57 230.13 92.21 230.13 91C230.13 89.72 234.54 89.35 239.52 89.35C243.95 89.35 248.83 89.64 251.46 89.82C252.85 87.41 254.17 86.59 255.32 86.59C257.3 86.59 258.78 89.01 259.23 89.86C261.66 89.69 266.98 89.35 271.77 89.35C276.56 89.35 281.16 89.71 281.16 91C281.16 92.21 277.22 92.57 272.58 92.57C267.94 92.57 263.1 92.24 260.22 92.03C261.58 95.44 264.14 103.54 264.28 116.5C264.28 117.1 264.73 117.6 265.32 117.65C277.96 118.73 399.6 130.77 399.6 130.77C399.6 130.77 408.74 132.08 401.56 155.03C400.15 158.51 398.4 158.62 398.4 158.62L285.9 167.71C277.42 168.4 268.91 168.74 260.4 168.74H234.52C233.77 168.74 233.09 169.18 232.77 169.86C231.89 171.78 229.8 175.59 226.75 176.49C225.95 176.73 225.42 177.48 225.42 178.31V239.27C225.42 242.54 225.11 245.81 224.42 249.01C224.36 249.29 224.29 249.58 224.23 249.87C223.38 253.48 218.79 270.34 217.64 274.58C217.38 275.55 217.22 276.54 217.26 277.55C217.26 277.57 217.26 277.59 217.26 277.6C217.31 278.85 218.22 279.89 219.44 280.18C228.83 282.39 272.32 293.17 272.32 293.17C272.32 293.17 277.65 295.02 277.65 301.22V308.51C277.65 308.51 275.47 318.08 270.03 318.52C264.59 318.96 214.32 323.85 214.32 323.85H194.29C194.29 323.85 144.02 318.95 138.58 318.52C133.14 318.08 130.96 308.51 130.96 308.51V301.22C130.96 295.02 136.29 293.17 136.29 293.17C136.29 293.17 179.78 282.39 189.17 280.18C190.39 279.89 191.3 278.85 191.35 277.6C191.35 277.58 191.35 277.56 191.35 277.55C191.39 276.55 191.23 275.55 190.97 274.58C189.82 270.34 185.23 253.48 184.38 249.87C184.31 249.58 184.25 249.29 184.19 249.01C183.5 245.81 183.19 242.54 183.19 239.27V178.31C183.19 177.48 182.66 176.72 181.86 176.49C178.81 175.59 176.73 171.79 175.84 169.86C175.53 169.17 174.85 168.74 174.09 168.74H148.21C139.7 168.74 131.19 168.4 122.71 167.71L10.2096 158.62C10.2096 158.62 8.46964 158.51 7.04964 155.03C-0.130356 132.07 9.00964 130.77 9.00964 130.77C9.00964 130.77 130.64 118.73 143.29 117.65C143.88 117.6 144.33 117.1 144.33 116.5C144.47 103.54 147.03 95.44 148.39 92.03C145.51 92.25 140.45 92.57 136.03 92.57C131.61 92.57 127.45 92.21 127.45 91C127.45 89.72 131.86 89.35 136.84 89.35C141.63 89.35 146.95 89.69 149.38 89.86C149.83 89.01 151.31 86.59 153.29 86.59C154.44 86.59 155.76 87.41 157.15 89.82C159.78 89.64 164.66 89.35 169.09 89.35C174.07 89.35 178.48 89.71 178.48 91C178.48 92.21 174.54 92.57 169.9 92.57C165.8 92.57 161.16 92.29 158.21 92.08C161.68 100.52 162.13 112.66 162.18 116.42C162.18 117.06 162.71 117.57 163.35 117.57H171.28C171.97 117.57 172.52 117.01 172.52 116.33V105.5C172.52 98.26 179.31 96.69 182.13 96.35C182.82 96.27 183.33 95.69 183.33 95V65.07C183.33 36.93 194.45 4 204.32 4M204.29 0C195.84 0 189.85 12.34 186.31 22.69C181.92 35.54 179.3 51.38 179.3 65.07V86.58C178.48 86.22 177.47 85.93 176.21 85.75C174.44 85.49 172.1 85.37 169.07 85.37C165.6 85.37 161.86 85.54 159.13 85.7C157.43 83.65 155.47 82.61 153.27 82.61C151.09 82.61 149.01 83.72 147.34 85.73C144.47 85.55 140.51 85.36 136.82 85.36C133.79 85.36 131.45 85.49 129.68 85.74C124.51 86.49 123.43 89.02 123.43 91C123.43 96.57 131 96.57 136.01 96.57C138.23 96.57 140.6 96.49 142.78 96.38C141.68 100.59 140.64 106.41 140.38 113.89C119 115.86 9.76964 126.67 8.60964 126.79C8.54964 126.79 8.49965 126.8 8.43964 126.81C7.84964 126.89 4.76964 127.5 2.53964 131.04C-0.650356 136.09 -0.410356 144.57 3.22964 156.23C3.25964 156.34 3.29964 156.44 3.33964 156.54C5.47964 161.81 8.79964 162.52 9.87964 162.61L122.38 171.7C130.93 172.39 139.62 172.74 148.2 172.74H172.79C174.16 175.36 176.23 178.24 179.18 179.72V239.28C179.18 242.96 179.55 246.52 180.27 249.86C180.34 250.17 180.41 250.48 180.48 250.79C181.34 254.41 185.77 270.72 187.1 275.63C187.19 275.94 187.25 276.24 187.29 276.51C176.32 279.12 135.74 289.18 135.32 289.29C135.2 289.32 135.09 289.35 134.97 289.39C131.99 290.42 126.95 294.08 126.95 301.22V308.51C126.95 308.81 126.98 309.11 127.05 309.4C127.34 310.67 130.11 321.86 138.25 322.51C143.59 322.94 193.39 327.79 193.89 327.84C194.02 327.85 194.15 327.86 194.28 327.86H214.31C214.44 327.86 214.57 327.86 214.7 327.84C215.2 327.79 264.99 322.94 270.34 322.51C278.48 321.86 281.25 310.67 281.54 309.4C281.61 309.11 281.64 308.81 281.64 308.51V301.22C281.64 294.08 276.6 290.42 273.62 289.39C273.51 289.35 273.39 289.32 273.27 289.29C272.85 289.19 232.27 279.12 221.3 276.51C221.34 276.23 221.4 275.94 221.49 275.63C222.83 270.72 227.26 254.41 228.11 250.79C228.18 250.48 228.25 250.16 228.32 249.86C229.05 246.51 229.41 242.95 229.41 239.28V179.72C232.36 178.25 234.43 175.37 235.8 172.74H260.39C268.97 172.74 277.66 172.39 286.21 171.7L398.71 162.61C399.79 162.52 403.11 161.81 405.25 156.54C405.29 156.44 405.33 156.33 405.36 156.23C409.01 144.57 409.24 136.1 406.05 131.04C403.81 127.5 400.74 126.89 400.15 126.81C400.09 126.81 400.04 126.79 399.98 126.79C398.82 126.68 289.58 115.86 268.21 113.89C267.95 106.42 266.91 100.59 265.81 96.38C267.98 96.49 270.36 96.57 272.58 96.57C277.59 96.57 285.16 96.57 285.16 91C285.16 89.01 284.08 86.49 278.91 85.74C277.14 85.48 274.8 85.36 271.77 85.36C268.08 85.36 264.12 85.55 261.25 85.73C259.57 83.72 257.5 82.61 255.32 82.61C253.12 82.61 251.16 83.65 249.46 85.7C246.72 85.54 242.99 85.37 239.52 85.37C236.49 85.37 234.16 85.5 232.38 85.75C231.12 85.93 230.11 86.22 229.29 86.58V65.07C229.29 51.38 226.67 35.53 222.28 22.69C218.74 12.34 212.75 0 204.3 0L204.29 0ZM166.07 113.59C165.89 109.25 165.35 102.64 163.78 96.44C165.78 96.53 167.88 96.59 169.87 96.59C170.57 96.59 171.31 96.59 172.08 96.57C169.77 98.85 168.48 101.91 168.48 105.51V113.59H166.06H166.07ZM238.7 96.59C240.69 96.59 242.79 96.53 244.79 96.44C243.22 102.64 242.68 109.25 242.5 113.59H240.08V105.51C240.08 101.91 238.8 98.85 236.48 96.57C237.25 96.59 238 96.59 238.69 96.59H238.7Z" fill="black"/>
</g>
<defs>
<clipPath id="clip0_571_68">
<rect width="407.97" height="327.88" fill="white" transform="translate(0.299805)"/>
</clipPath>
</defs>
</svg>
