<svg width="159" height="171" viewBox="0 0 159 171" fill="none" xmlns="http://www.w3.org/2000/svg">
<g clip-path="url(#clip0_16_22)">
<path d="M77.8901 162.94C78.2201 162.87 78.5101 163.1 78.5501 163.44C78.7301 165.12 79.4501 165.11 79.4501 165.11C79.4501 165.11 80.2001 165.11 80.3501 163.45C80.3801 163.1 80.6701 162.87 81.0101 162.94C85.1301 163.75 107.03 167.38 112.4 168.26C113.03 168.36 113.59 167.88 113.59 167.24V162.12C113.59 161.26 113.08 160.48 112.29 160.14L82.3601 147.3C81.8001 147.06 81.5301 146.43 81.7501 145.86C82.6501 143.49 84.8001 137.91 85.4301 129.46C85.4601 129 85.7401 128.59 86.1501 128.39C88.2501 127.36 90.3901 126.28 91.2501 125.84C91.5001 125.71 91.6601 125.46 91.6701 125.19L91.7301 122.71C91.7401 122.38 92.0401 122.12 92.3701 122.17C95.6601 122.68 96.7501 120.85 97.5101 116.12C98.4801 109.38 98.1601 99.4901 98.1601 99.4901C98.1601 99.4901 98.1601 97.3001 96.1001 97.3001H90.0601C90.0601 97.3001 88.6901 97.9301 88.5201 100.44C88.1701 100.48 87.7701 100.48 87.7701 100.48V95.7501C87.7701 95.1501 88.2701 94.6801 88.8701 94.7101L155.73 98.5201C156.36 98.5601 156.9 98.0501 156.9 97.4201V88.3501C156.9 88.3501 156.97 85.5701 153.13 84.7201C149.48 83.9001 93.8001 68.4001 88.5101 66.9201C88.2701 66.8501 88.1101 66.6301 88.1001 66.3801L87.9101 23.5201L87.4001 17.0501C86.5401 11.5301 84.3801 2.37012 79.4401 2.37012C74.5001 2.37012 72.2201 12.0101 71.4101 17.4701L70.9701 23.5101L70.7801 66.3801C70.7801 66.6301 70.6201 66.8501 70.3701 66.9201C65.0701 68.3901 9.40009 83.9001 5.75009 84.7201C1.93009 85.5701 2.00009 88.3401 2.00009 88.3401V97.4101C2.00009 98.0401 2.53009 98.5501 3.17009 98.5101L70.0301 94.7001C70.6301 94.6701 71.1301 95.1401 71.1301 95.7401V100.47C71.1301 100.47 70.7301 100.47 70.3801 100.43C70.2001 97.9201 68.8401 97.2901 68.8401 97.2901H62.8001C60.7401 97.2901 60.7401 98.6901 60.7401 98.6901C60.4001 111.17 60.5301 110.14 61.3901 116.12C62.1501 120.85 63.2501 122.68 66.5301 122.17C66.8601 122.12 67.1601 122.37 67.1701 122.71L67.2301 125.19C67.2301 125.47 67.4001 125.72 67.6501 125.84C68.5101 126.28 70.6501 127.37 72.7501 128.39C73.1601 128.59 73.4401 129 73.4701 129.46C74.1001 137.91 76.2501 143.49 77.1501 145.86C77.3701 146.43 77.0901 147.06 76.5401 147.3L46.6101 160.14C45.8201 160.48 45.3101 161.26 45.3101 162.12V167.24C45.3101 167.88 45.8701 168.36 46.5001 168.26C51.8701 167.37 73.7701 163.75 77.8901 162.94Z" fill="white"/>
<path d="M79.4501 2.37012C84.3901 2.37012 86.5501 11.5301 87.4101 17.0501C87.5801 19.2101 87.7501 21.3601 87.9201 23.5201L88.1101 66.3801C88.1101 66.6301 88.2701 66.8501 88.5201 66.9201C93.8201 68.3901 149.49 83.9001 153.14 84.7201C156.97 85.5801 156.91 88.3501 156.91 88.3501V97.4201C156.91 98.0301 156.41 98.5201 155.81 98.5201C155.79 98.5201 155.77 98.5201 155.75 98.5201L88.8901 94.7101C88.8901 94.7101 88.8501 94.7101 88.8301 94.7101C88.2601 94.7101 87.7901 95.1701 87.7901 95.7501V100.48C87.7901 100.48 88.1901 100.48 88.5401 100.44C88.7201 97.9301 90.0801 97.3001 90.0801 97.3001H96.1201C98.1801 97.3001 98.1801 99.4901 98.1801 99.4901C98.1801 99.4901 98.5001 109.38 97.5301 116.12C96.8501 120.34 95.9101 122.25 93.3701 122.25C93.0601 122.25 92.7401 122.22 92.3801 122.17C92.3501 122.17 92.3201 122.17 92.3001 122.17C92.0101 122.17 91.7601 122.41 91.7401 122.71L91.6801 125.19C91.6801 125.47 91.5101 125.72 91.2601 125.84C90.4001 126.28 88.2601 127.37 86.1601 128.39C85.7501 128.59 85.4701 129 85.4401 129.46C84.8101 137.91 82.6601 143.49 81.7601 145.86C81.5401 146.43 81.8201 147.06 82.3701 147.3L112.3 160.14C113.09 160.48 113.6 161.26 113.6 162.12V167.24C113.6 167.82 113.13 168.27 112.58 168.27C112.52 168.27 112.47 168.27 112.41 168.26C107.04 167.37 85.1501 163.75 81.0201 162.94C80.9801 162.94 80.9401 162.93 80.9001 162.93C80.6101 162.93 80.3801 163.15 80.3501 163.45C80.2001 165.11 79.4501 165.11 79.4501 165.11C79.4501 165.11 78.7301 165.11 78.5501 163.44C78.5201 163.14 78.2901 162.93 78.0001 162.93C77.9601 162.93 77.9301 162.93 77.8901 162.94C73.7701 163.75 51.8701 167.38 46.5001 168.26C46.4401 168.26 46.3901 168.27 46.3301 168.27C45.7701 168.27 45.3101 167.82 45.3101 167.24V162.12C45.3101 161.26 45.8201 160.48 46.6101 160.14L76.5401 147.3C77.1001 147.06 77.3701 146.43 77.1501 145.86C76.2501 143.49 74.1001 137.91 73.4701 129.46C73.4401 129 73.1601 128.59 72.7501 128.39C70.6501 127.36 68.5101 126.28 67.6501 125.84C67.4001 125.71 67.2401 125.46 67.2301 125.19L67.1701 122.71C67.1601 122.41 66.9101 122.17 66.6101 122.17C66.5801 122.17 66.5501 122.17 66.5301 122.17C66.1801 122.23 65.8501 122.25 65.5401 122.25C63.0101 122.25 62.0601 120.33 61.3801 116.12C60.5201 110.14 60.3901 111.17 60.7301 98.6901C60.7301 98.6901 60.7301 97.2901 62.7901 97.2901H68.8301C68.8301 97.2901 70.2001 97.9201 70.3701 100.43C70.7201 100.47 71.1201 100.47 71.1201 100.47V95.7401C71.1201 95.1601 70.6501 94.7001 70.0801 94.7001C70.0601 94.7001 70.0401 94.7001 70.0201 94.7001L3.16009 98.5101C3.16009 98.5101 3.12009 98.5101 3.10009 98.5101C2.49009 98.5101 2.00009 98.0201 2.00009 97.4101V88.3401C2.00009 88.3401 1.93009 85.5601 5.77009 84.7101C9.42009 83.8901 65.1001 68.3901 70.3901 66.9101C70.6301 66.8401 70.7901 66.6201 70.8001 66.3701L70.9901 23.5001C71.1401 21.4801 71.2801 19.4801 71.4301 17.4601C72.2401 12.0001 74.3901 2.36012 79.4601 2.36012M79.4501 0.370117C73.2401 0.370117 70.5801 9.51012 69.4501 17.1701C69.4501 17.2201 69.4401 17.2701 69.4301 17.3201L68.9901 23.3601C68.9901 23.3601 68.9901 23.4501 68.9901 23.5001L68.8101 65.2801C46.0801 71.6101 8.21009 82.1201 5.34009 82.7601C1.03009 83.7201 -0.0399076 86.8601 9.23711e-05 88.3901V97.4201C9.23711e-05 99.1301 1.39009 100.52 3.10009 100.52C3.16009 100.52 3.22009 100.52 3.28009 100.52L59.0601 97.3401C58.8401 97.7901 58.7401 98.2501 58.7401 98.6601C58.4401 109.56 58.4901 110.27 59.1401 114.61C59.2201 115.14 59.3101 115.73 59.4001 116.4C59.8301 119.1 60.6201 124.01 65.2001 124.24L65.2201 125.23C65.2601 126.26 65.8301 127.16 66.7301 127.62C67.5201 128.02 69.4901 129.03 71.5001 130.01C72.1201 137.71 73.9601 143.07 74.9801 145.8L45.8201 158.31C44.2901 158.97 43.3001 160.46 43.3001 162.13V167.25C43.3001 168.92 44.6601 170.28 46.3201 170.28C46.4901 170.28 46.6501 170.27 46.8201 170.24C52.6301 169.28 70.7701 166.27 76.9101 165.16C77.6601 167.05 79.2401 167.12 79.4501 167.12C79.6701 167.12 81.2601 167.05 82.0001 165.17C88.1501 166.29 106.26 169.29 112.07 170.25C112.23 170.28 112.4 170.29 112.57 170.29C114.24 170.29 115.59 168.93 115.59 167.26V162.14C115.59 160.48 114.6 158.98 113.07 158.32L83.9101 145.81C84.9301 143.08 86.7701 137.72 87.3901 130.02C89.3901 129.04 91.3701 128.03 92.1601 127.63C93.0501 127.17 93.6301 126.27 93.6601 125.27L93.6801 124.26C98.2601 124.03 99.0501 119.12 99.4701 116.45C100.44 109.7 100.17 100.17 100.14 99.4601C100.14 98.7301 99.9401 97.9801 99.5801 97.3301L155.59 100.53C155.65 100.53 155.71 100.53 155.77 100.53C157.48 100.53 158.87 99.1401 158.87 97.4301V88.3601C158.91 86.8801 157.84 83.7401 153.54 82.7701C150.67 82.1301 112.8 71.6201 90.0701 65.2901L89.8901 23.5201C89.8901 23.5201 89.8901 23.4201 89.8901 23.3701L89.3801 16.9001C89.3801 16.8501 89.3801 16.8001 89.3601 16.7501C87.7001 6.04012 84.2601 0.380117 79.4201 0.380117L79.4501 0.370117Z" fill="#231F20"/>
</g>
<defs>
<clipPath id="clip0_16_22">
<rect width="158.9" height="169.91" fill="white" transform="translate(0 0.370117)"/>
</clipPath>
</defs>
</svg>
