<svg width="139" height="113" viewBox="0 0 139 113" fill="none" xmlns="http://www.w3.org/2000/svg">
<g clip-path="url(#clip0_447_2)">
<path d="M69.26 111.99C68.61 111.99 68.09 111.5 68.05 110.85C67.88 108.2 67.67 104.77 67.6 103.66C67.58 103.64 67.57 103.62 67.55 103.59C64.1 103.28 47.12 101.75 45.67 101.64C43.84 101.5 43.19 100.51 43.07 99.8498C42.97 99.4998 42.64 98.2298 42.28 95.2798C41.87 91.8598 43.82 90.6398 44.91 90.4698L64.73 88.2698C61.77 73.9398 60.28 63.9498 60.28 58.5598V57.3198C60.28 57.3198 60.2 57.2898 60.16 57.2698L50.04 57.1498L49.61 57.5898C49.56 58.1698 49.36 59.1598 48.58 59.9898C47.74 60.8898 46.52 61.3398 44.93 61.3398C43.34 61.3398 42.13 60.8798 41.32 59.9798C40.53 59.0898 40.37 58.0398 40.36 57.4598L39.65 56.5398C31.79 55.9598 19.33 54.4198 19.21 54.4098C18.62 54.3198 5.29995 52.3598 3.83995 52.1098C3.00995 51.9698 2.39995 51.6298 2.02995 51.1098C1.69995 50.6398 1.67995 50.1798 1.69995 49.9398V45.2298C0.629954 43.8898 1.06995 42.4998 1.48995 41.9198C1.54995 41.8398 1.61995 41.7598 1.69995 41.6998V41.0298C1.67995 40.6798 1.76995 40.1898 2.11995 39.7798C2.54995 39.2698 3.21995 38.9898 4.12995 38.9598C17.22 38.1598 35.04 37.7998 39.39 37.7198V28.0998C39.39 28.0298 39.39 27.9698 39.41 27.8998C39.57 27.0798 40.27 26.1898 41.42 26.1898H42.24C42.24 26.1898 42.26 26.1198 42.26 26.0898C41.95 26.0898 41.65 26.0998 41.35 26.0998C39.87 26.0998 38.55 25.9898 37.41 25.7898C36.86 25.6898 36.47 25.2598 36.45 24.7298C36.43 24.1998 36.79 23.7298 37.33 23.5798C38.37 23.2898 39.53 23.1498 40.79 23.1498C41.67 23.1498 42.48 23.2198 43.14 23.3098C43.56 22.2998 44.14 21.4498 45.05 21.4498C45.96 21.4498 46.54 22.2798 47 23.3298C47.71 23.2298 48.6 23.1498 49.55 23.1498C50.8 23.1498 51.97 23.2898 53 23.5798C53.54 23.7298 53.91 24.1998 53.88 24.7298C53.86 25.2598 53.47 25.6898 52.92 25.7898C51.78 25.9998 50.46 26.0998 48.98 26.0998C48.63 26.0998 48.27 26.0998 47.91 26.0798C47.92 26.1198 47.93 26.1598 47.94 26.1898H48.56C48.61 26.1898 48.67 26.1898 48.72 26.1998C49.71 26.3598 50.7 27.0098 50.7 28.0898V37.6798H60.68C60.86 34.0198 61.63 20.6298 62.72 15.0198C63.62 10.3998 66.56 1.33984 69.29 1.33984C72.3 1.33984 75.23 12.1098 75.85 14.9998C77.07 20.6698 77.75 34.3698 77.9 37.6798H87.87V28.0898C87.87 27.0098 88.87 26.3598 89.85 26.1998C89.9 26.1998 89.96 26.1898 90.01 26.1898H90.63C90.63 26.1898 90.65 26.1098 90.66 26.0798C90.3 26.0898 89.94 26.0998 89.59 26.0998C88.11 26.0998 86.79 25.9898 85.65 25.7898C85.1 25.6898 84.71 25.2598 84.69 24.7298C84.67 24.1998 85.03 23.7298 85.57 23.5798C86.61 23.2898 87.77 23.1498 89.02 23.1498C89.97 23.1498 90.86 23.2298 91.57 23.3298C92.02 22.2798 92.6 21.4498 93.52 21.4498C94.44 21.4498 95.01 22.2998 95.43 23.3098C96.09 23.2198 96.91 23.1498 97.78 23.1498C99.03 23.1498 100.2 23.2898 101.23 23.5798C101.77 23.7298 102.14 24.1998 102.11 24.7298C102.09 25.2598 101.7 25.6898 101.15 25.7898C100.01 25.9998 98.69 26.0998 97.21 26.0998C96.91 26.0998 96.61 26.0998 96.3 26.0898C96.3 26.1198 96.32 26.1598 96.32 26.1898H97.14C98.29 26.1898 98.99 27.0798 99.15 27.8998C99.16 27.9598 99.17 28.0298 99.17 28.0998V37.7198C103.52 37.7998 121.35 38.1598 134.46 38.9598C135.34 38.9898 136.02 39.2698 136.44 39.7798C136.79 40.1998 136.88 40.6798 136.86 41.0298V41.6998C136.94 41.7598 137.01 41.8298 137.07 41.9198C137.49 42.4998 137.93 43.8898 136.86 45.2298V49.9398C136.88 50.1798 136.86 50.6398 136.53 51.1098C136.16 51.6298 135.55 51.9598 134.72 52.1098C133.26 52.3598 119.94 54.3198 119.37 54.3998C119.22 54.4198 106.77 55.9598 98.9 56.5298L98.19 57.4498C98.17 58.0398 98.02 59.0898 97.23 59.9698C96.42 60.8698 95.21 61.3298 93.62 61.3298C92.03 61.3298 90.8 60.8698 89.97 59.9798C89.19 59.1398 88.98 58.1598 88.94 57.5798L88.51 57.1398L78.39 57.2598C78.39 57.2598 78.31 57.2898 78.27 57.3098V58.5498C78.27 63.9398 76.77 73.9298 73.82 88.2598L93.6 90.4498C94.73 90.6198 96.68 91.8498 96.27 95.2598C95.92 98.2098 95.59 99.4798 95.48 99.8298C95.36 100.49 94.71 101.48 92.88 101.62C91.43 101.73 74.45 103.26 71 103.57C70.98 103.59 70.97 103.61 70.95 103.64C70.88 104.75 70.67 108.18 70.5 110.83C70.46 111.48 69.94 111.97 69.29 111.97L69.26 111.99Z" fill="white"/>
<path d="M69.26 2.37988C70.72 2.37988 73.5 8.99988 74.85 15.2499C76.11 21.1099 76.82 36.2299 76.91 38.4899C76.91 38.6199 77.02 38.7199 77.15 38.7199H88.85V28.1299C88.85 27.4099 89.99 27.2299 89.99 27.2299H91.39C91.39 27.2299 91.63 26.1599 92 25.0399C91.36 25.0899 90.51 25.1299 89.57 25.1299C88.38 25.1299 87.05 25.0599 85.81 24.8299C85.61 24.7899 85.62 24.6199 85.81 24.5699C86.88 24.2799 87.98 24.1799 89 24.1799C90.28 24.1799 91.42 24.3399 92.19 24.4799C92.57 23.4299 93.04 22.4799 93.5 22.4799C93.96 22.4799 94.4 23.4099 94.76 24.4499C95.52 24.3199 96.58 24.1799 97.76 24.1799C98.78 24.1799 99.88 24.2799 100.95 24.5699C101.14 24.6199 101.15 24.7899 100.95 24.8299C99.72 25.0599 98.38 25.1299 97.19 25.1299C96.34 25.1299 95.57 25.0899 94.95 25.0499C95.29 26.1599 95.51 27.2099 95.51 27.2099H97.12C97.97 27.2099 98.15 28.1099 98.15 28.1099V38.7099C98.15 38.7099 119.27 39.0399 134.38 39.9599C135.98 40.0199 135.84 40.9899 135.84 40.9899V42.5099H136.24C136.24 42.5099 137.05 43.6399 135.84 44.8599V49.9999C135.84 49.9999 135.99 50.8799 134.53 51.1299C133.07 51.3799 119.2 53.4199 119.2 53.4199C119.2 53.4199 106.25 55.0199 98.36 55.5799L97.16 57.1399C97.16 57.1399 97.52 60.3599 93.59 60.3599C89.66 60.3599 89.89 57.1799 89.89 57.1799L88.87 56.1399C88.62 56.1499 88.48 56.1599 88.48 56.1599L78.18 56.2799C78.18 56.2799 77.22 56.5599 77.22 56.9299V58.5599C77.22 61.5499 76.8 68.7099 72.69 88.5199C72.62 88.8499 72.85 89.1799 73.19 89.2099L93.43 91.4499C93.43 91.4499 95.62 91.7899 95.22 95.1499C94.82 98.5099 94.45 99.6199 94.45 99.6199C94.45 99.6199 94.39 100.51 92.75 100.64C91.12 100.76 70.24 102.64 70.24 102.64C70.24 102.64 70.26 102.94 69.92 103.24C69.9 103.56 69.64 107.69 69.45 110.78C69.45 110.91 69.34 110.98 69.24 110.98C69.14 110.98 69.04 110.91 69.03 110.78C68.84 107.7 68.58 103.56 68.56 103.24C68.22 102.94 68.24 102.64 68.24 102.64C68.24 102.64 47.37 100.76 45.73 100.64C44.1 100.52 44.03 99.6199 44.03 99.6199C44.03 99.6199 43.66 98.5099 43.26 95.1499C42.86 91.7899 45.05 91.4499 45.05 91.4499L65.29 89.2099C65.63 89.1699 65.86 88.8499 65.79 88.5199C61.69 68.7099 61.26 61.5499 61.26 58.5599V56.9299C61.26 56.5599 60.3 56.2799 60.3 56.2799L50 56.1599C50 56.1599 49.86 56.1599 49.61 56.1399L48.59 57.1799C48.59 57.1799 48.82 60.3599 44.89 60.3599C40.96 60.3599 41.32 57.1399 41.32 57.1399L40.12 55.5799C32.23 55.0299 19.28 53.4199 19.28 53.4199C19.28 53.4199 5.42001 51.3699 3.95001 51.1299C2.48001 50.8899 2.64001 49.9999 2.64001 49.9999V44.8599C1.43001 43.6499 2.24001 42.5099 2.24001 42.5099H2.64001V40.9899C2.64001 40.9899 2.50001 40.0199 4.10001 39.9599C19.21 39.0399 40.33 38.7099 40.33 38.7099V28.1099C40.33 28.1099 40.51 27.2099 41.36 27.2099H42.97C42.97 27.2099 43.19 26.1599 43.53 25.0499C42.92 25.0899 42.14 25.1299 41.29 25.1299C40.1 25.1299 38.77 25.0599 37.53 24.8299C37.33 24.7899 37.34 24.6199 37.53 24.5699C38.6 24.2799 39.7 24.1799 40.72 24.1799C41.9 24.1799 42.96 24.3199 43.72 24.4499C44.08 23.4099 44.52 22.4799 44.98 22.4799C45.44 22.4799 45.91 23.4299 46.29 24.4799C47.05 24.3399 48.2 24.1799 49.48 24.1799C50.5 24.1799 51.6 24.2799 52.67 24.5699C52.86 24.6199 52.87 24.7899 52.67 24.8299C51.44 25.0599 50.1 25.1299 48.91 25.1299C47.97 25.1299 47.12 25.0899 46.48 25.0399C46.84 26.1599 47.09 27.2299 47.09 27.2299H48.49C48.49 27.2299 49.63 27.4099 49.63 28.1299V38.7199H61.33C61.46 38.7199 61.57 38.6199 61.57 38.4899C61.66 36.2199 62.48 21.1799 63.63 15.2499C64.83 9.08988 67.75 2.37988 69.22 2.37988M69.26 0.379883C67.57 0.379883 66.16 1.96988 64.53 5.69988C63.33 8.44988 62.3 11.7899 61.71 14.8599C60.69 20.1099 59.94 32.0599 59.7 36.7099H51.67V28.1199C51.67 27.7099 51.58 27.3399 51.43 27.0099C52.01 26.9599 52.56 26.8799 53.07 26.7899C54.08 26.5999 54.81 25.7799 54.85 24.7899C54.89 23.7899 54.23 22.9099 53.23 22.6299C52.11 22.3199 50.85 22.1599 49.51 22.1599C48.81 22.1599 48.14 22.1999 47.55 22.2599C47.04 21.3399 46.26 20.4599 45.01 20.4599C43.76 20.4599 43 21.3399 42.5 22.2399C41.97 22.1899 41.37 22.1599 40.75 22.1599C39.41 22.1599 38.15 22.3199 37.03 22.6299C36.03 22.8999 35.37 23.7899 35.41 24.7899C35.45 25.7799 36.18 26.5999 37.19 26.7899C37.64 26.8699 38.12 26.9399 38.62 26.9899C38.51 27.2299 38.43 27.4799 38.38 27.7199C38.35 27.8499 38.34 27.9799 38.34 28.1099V36.7499C32.73 36.8599 16.29 37.2199 3.99002 37.9699C2.54001 38.0299 1.72001 38.6399 1.30001 39.1499C0.700015 39.8699 0.630015 40.6399 0.650015 41.0499V41.3099C0.650015 41.3099 0.630015 41.3299 0.620015 41.3499C-0.129985 42.3899 -0.359985 44.0699 0.650015 45.5699V49.9399C0.630015 50.3399 0.690015 51.0199 1.17001 51.6999C1.53001 52.2099 2.25001 52.8699 3.63001 53.0999C5.10001 53.3499 18.43 55.3099 19 55.3999C19.17 55.4199 31.19 56.9099 39.09 57.5099L39.34 57.8399C39.41 58.5999 39.68 59.7099 40.53 60.6599C41.22 61.4299 42.54 62.3599 44.88 62.3599C47.22 62.3599 48.56 61.4499 49.27 60.6899C50.05 59.8499 50.37 58.8999 50.5 58.1699L59.25 58.2699V58.5599C59.25 63.8799 60.68 73.5799 63.5 87.3999L44.81 89.4699C44.81 89.4699 44.75 89.4699 44.72 89.4799C43.3 89.6999 40.75 91.2199 41.25 95.3899C41.6 98.2999 41.93 99.6399 42.06 100.1C42.28 101.09 43.18 102.46 45.55 102.64C46.9 102.74 61.87 104.09 66.6 104.51C66.69 106.02 66.86 108.73 67 110.91C67.07 112.07 68.04 112.98 69.21 112.98C70.38 112.98 71.34 112.07 71.42 110.91L71.58 108.37C71.67 106.9 71.76 105.46 71.82 104.51C76.55 104.08 91.52 102.74 92.87 102.64C95.24 102.46 96.15 101.09 96.36 100.1C96.49 99.6399 96.82 98.2999 97.17 95.3899C97.67 91.2199 95.12 89.6999 93.7 89.4799C93.67 89.4799 93.64 89.4799 93.61 89.4699L74.92 87.3999C77.74 73.5799 79.17 63.8799 79.17 58.5599V58.2699L87.92 58.1699C88.05 58.8999 88.37 59.8499 89.15 60.6899C89.86 61.4499 91.2 62.3599 93.54 62.3599C95.88 62.3599 97.2 61.4399 97.89 60.6599C98.74 59.7099 99.01 58.6099 99.08 57.8399L99.33 57.5099C107.23 56.9099 119.25 55.4199 119.38 55.4099C119.99 55.3199 133.33 53.3499 134.79 53.1099C136.17 52.8799 136.89 52.2199 137.25 51.7099C137.73 51.0299 137.79 50.3499 137.77 49.9499V45.5799C138.78 44.0799 138.54 42.3999 137.8 41.3599C137.8 41.3499 137.78 41.3399 137.77 41.3199V41.0599C137.79 40.6499 137.72 39.8699 137.12 39.1599C136.7 38.6499 135.88 38.0399 134.38 37.9799C122.12 37.2299 105.69 36.8699 100.08 36.7599V28.1199C100.08 27.9899 100.07 27.8599 100.04 27.7299C99.99 27.4899 99.91 27.2399 99.8 26.9999C100.3 26.9499 100.78 26.8799 101.23 26.7999C102.24 26.6099 102.97 25.7899 103.01 24.7999C103.05 23.7999 102.39 22.9199 101.39 22.6399C100.27 22.3299 99.01 22.1699 97.67 22.1699C97.05 22.1699 96.45 22.1999 95.92 22.2499C95.42 21.3399 94.65 20.4699 93.41 20.4699C92.17 20.4699 91.38 21.3499 90.87 22.2699C90.28 22.2099 89.61 22.1699 88.91 22.1699C87.57 22.1699 86.31 22.3299 85.19 22.6399C84.19 22.9099 83.53 23.7999 83.57 24.7999C83.61 25.7899 84.35 26.6099 85.35 26.7999C85.86 26.8899 86.41 26.9699 86.99 27.0199C86.84 27.3499 86.75 27.7199 86.75 28.1299V36.7199H78.73C78.52 32.2499 77.85 20.1299 76.7 14.8299C76.02 11.6799 74.98 8.34988 73.83 5.68988C72.21 1.91988 70.86 0.389883 69.16 0.389883L69.26 0.379883Z" fill="black"/>
</g>
<defs>
<clipPath id="clip0_447_2">
<rect width="138.52" height="112.61" fill="white" transform="translate(0 0.379883)"/>
</clipPath>
</defs>
</svg>
