<svg width="338" height="240" viewBox="0 0 338 240" fill="none" xmlns="http://www.w3.org/2000/svg">
<g clip-path="url(#clip0_726_22)">
<path d="M168.6 237.51C167.16 237.51 166.1 236.32 165.74 234.31L164.19 229.07H157.71C152.64 229.07 146.56 225.33 144.19 223.72C144.12 223.67 144.04 223.64 143.96 223.63L124.12 221.23C122.93 221.09 121.8 220.74 120.77 220.2C118.12 218.81 113.69 215.7 113.69 210.4C113.69 207.52 114.94 204.94 117.32 202.92C119.04 201.46 121.22 200.46 123.62 200.03C126.69 199.48 153.73 194.68 156.06 194.31C157.1 194.15 157.53 193.93 157.83 193.61C155.2 178.92 152.14 129.44 151.79 123.75C151.66 121.56 149.21 120.88 148.6 120.74H120.88C120.81 120.74 120.74 120.74 120.67 120.73C86.05 117.13 19.98 110.31 17.74 110.22C16.9 110.22 15.81 109.89 14.37 109.19C12.31 108.19 10.35 106.84 8.53998 105.18L6.87998 103.66C3.71998 100.71 2.08998 97.86 2.01998 95.17C1.96998 93.27 2.69998 91.49 4.12998 90.01C5.43998 88.65 7.19998 87.74 9.19998 87.36L119.35 66.46V60.57C118.88 59.98 118.6 59.17 118.6 58.22C118.6 57.27 118.91 56.38 119.42 55.79C119.51 54.89 119.7 53.77 120.21 52.94V44.51C120.21 44.45 120.21 44.39 120.21 44.33C120.37 42.56 121.25 40.69 122.87 39.81H109.88C106.64 39.81 106.14 38.09 106.07 37.35C105.93 35.76 107.28 34.47 109.52 34.06L110.08 33.95C111.69 33.63 114.39 33.1 119.55 33.1C121.74 33.1 124.19 33.2 126.85 33.39C127.27 32.81 127.86 32.31 128.67 32.06C128.92 31.94 129.2 31.88 129.49 31.88C129.53 31.88 129.57 31.88 129.62 31.88C129.67 31.88 129.72 31.88 129.78 31.88C130.09 31.88 130.38 31.95 130.65 32.08C131.47 32.34 132.05 32.86 132.45 33.43C135.29 33.21 137.9 33.1 140.21 33.1C145.37 33.1 148.07 33.63 149.68 33.95L150.24 34.06C151.88 34.36 153.05 35.13 153.5 36.15C156.16 18.69 161.02 1.98999 168.6 1.98999C176.18 1.98999 181.04 18.69 183.7 36.15C184.15 35.13 185.31 34.35 186.96 34.06L187.53 33.95C189.14 33.63 191.84 33.1 197 33.1C199.32 33.1 201.92 33.21 204.76 33.43C205.17 32.85 205.76 32.32 206.61 32.06C206.86 31.94 207.14 31.88 207.43 31.88C207.47 31.88 207.51 31.88 207.56 31.88C207.61 31.88 207.66 31.88 207.72 31.88C208.03 31.88 208.33 31.95 208.59 32.08C209.38 32.33 209.96 32.82 210.37 33.4C213.03 33.21 215.48 33.11 217.67 33.11C222.83 33.11 225.53 33.64 227.14 33.96L227.7 34.07C229.94 34.48 231.29 35.77 231.15 37.36C231.08 38.1 230.58 39.82 227.34 39.82H214.35C215.97 40.71 216.85 42.58 217.01 44.34C217.01 44.4 217.01 44.46 217.01 44.52V52.95C217.52 53.78 217.72 54.9 217.8 55.8C218.32 56.39 218.62 57.24 218.62 58.23C218.62 59.22 218.34 59.99 217.87 60.58V66.47L328.02 87.37C330.03 87.75 331.78 88.67 333.1 90.02C334.53 91.5 335.26 93.28 335.21 95.18C335.14 97.87 333.51 100.72 330.36 103.66L328.69 105.19C326.88 106.85 324.91 108.2 322.86 109.2C321.41 109.9 320.33 110.23 319.45 110.23C317.25 110.32 251.18 117.15 216.56 120.74C216.49 120.74 216.42 120.75 216.35 120.75H188.63C188.04 120.88 185.58 121.55 185.44 123.76C185.09 129.46 182.03 178.93 179.4 193.62C179.69 193.94 180.12 194.16 181.17 194.32C183.51 194.69 210.54 199.49 213.61 200.04C216.01 200.47 218.19 201.47 219.91 202.93C222.28 204.95 223.54 207.54 223.54 210.41C223.54 215.71 219.1 218.82 216.46 220.21C215.43 220.75 214.3 221.09 213.11 221.24L193.27 223.64C193.19 223.65 193.11 223.68 193.04 223.73C190.66 225.34 184.59 229.08 179.52 229.08H173.04L171.49 234.32C171.14 236.33 170.07 237.52 168.63 237.52L168.6 237.51ZM197.27 65.04V60.56C196.8 59.97 196.52 59.16 196.52 58.21C196.52 57.26 196.83 56.37 197.34 55.78C197.43 54.88 197.62 53.76 198.13 52.93V44.5C198.13 44.44 198.13 44.38 198.13 44.32C198.29 42.55 199.17 40.68 200.79 39.8H187.31C185.53 39.8 184.57 39.28 184.07 38.69C185.43 48.38 186.12 58.07 186.23 65.04H197.26H197.27ZM150.96 65.04C151.07 58.07 151.76 48.39 153.12 38.69C152.61 39.28 151.66 39.8 149.88 39.8H136.4C138.02 40.69 138.9 42.56 139.06 44.32C139.06 44.38 139.06 44.44 139.06 44.5V52.93C139.57 53.76 139.77 54.88 139.85 55.78C140.37 56.37 140.67 57.22 140.67 58.21C140.67 59.2 140.39 59.97 139.92 60.56V65.04H150.95H150.96Z" fill="white"/>
<path d="M168.6 4C177.65 4 184.25 41.83 184.25 67.04H199.27V59.52C198.26 59.52 198.26 56.9 199.27 56.9C199.27 56.9 199.41 53.77 200.13 53.77V44.5C200.13 44.5 200.42 41.27 202.93 41.27H206.02V40.48C204.87 40.48 204.87 38.68 206.02 38.68V37.8H187.32C184.59 37.8 185.23 36.4 187.32 36.02C188.78 35.75 191.34 35.09 196.99 35.09C199.39 35.09 202.35 35.21 206.02 35.53C206.02 35.53 206.19 34.11 207.42 33.91V33.87C207.47 33.87 207.51 33.89 207.56 33.89C207.61 33.89 207.65 33.87 207.7 33.87V33.91C208.85 34.1 209.07 35.32 209.1 35.49C212.55 35.2 215.36 35.09 217.65 35.09C223.3 35.09 225.86 35.75 227.32 36.02C229.41 36.4 230.05 37.8 227.32 37.8H209.1V38.68C210.25 38.68 210.25 40.48 209.1 40.48V41.27H212.19C214.7 41.27 214.99 44.5 214.99 44.5V53.77C215.71 53.77 215.85 56.9 215.85 56.9C216.86 56.9 216.86 59.52 215.85 59.52V68.11H215.92L327.62 89.31C329.13 89.6 330.56 90.28 331.63 91.39C333.49 93.31 334.72 96.81 328.96 102.17L327.3 103.69C325.69 105.16 323.9 106.42 321.94 107.38C320.98 107.85 320.03 108.21 319.4 108.21C317.6 108.21 216.3 118.74 216.3 118.74H188.39C188.39 118.74 183.65 119.49 183.4 123.63C183.15 127.76 179.93 180.38 177.24 194.07C177.78 194.93 178.3 195.9 180.81 196.3C182.98 196.64 206.78 200.87 213.21 202.01C215.18 202.36 217.04 203.16 218.56 204.45C220.08 205.74 221.48 207.68 221.48 210.41C221.48 214.68 217.64 217.3 215.47 218.43C214.64 218.86 213.74 219.13 212.81 219.24L192.97 221.64C192.57 221.69 192.19 221.83 191.86 222.06C190.12 223.24 184.11 227.07 179.46 227.07H172.12C171.74 227.07 171.41 227.32 171.31 227.68L169.48 233.86C169.48 233.86 169.22 235.51 168.57 235.51C167.92 235.51 167.66 233.86 167.66 233.86L165.83 227.68C165.72 227.32 165.39 227.07 165.02 227.07H157.68C153.03 227.07 147.02 223.24 145.28 222.06C144.95 221.83 144.57 221.69 144.17 221.64L124.33 219.24C123.4 219.13 122.5 218.86 121.67 218.43C119.5 217.29 115.66 214.68 115.66 210.41C115.66 207.68 117.06 205.74 118.58 204.45C120.1 203.16 121.97 202.36 123.93 202.01C130.37 200.86 154.16 196.64 156.33 196.3C158.84 195.9 159.37 194.93 159.9 194.07C157.21 180.38 153.99 127.77 153.74 123.63C153.49 119.5 148.75 118.74 148.75 118.74H120.84C120.84 118.74 19.5398 108.21 17.7398 108.21C17.1098 108.21 16.1698 107.85 15.1998 107.38C13.2398 106.43 11.4498 105.16 9.83983 103.69L8.17983 102.17C2.41983 96.8 3.65983 93.31 5.50983 91.39C6.57983 90.28 8.00983 89.6 9.51983 89.31L121.22 68.12H121.29V59.53C120.28 59.53 120.28 56.91 121.29 56.91C121.29 56.91 121.43 53.78 122.15 53.78V44.51C122.15 44.51 122.44 41.28 124.95 41.28H128.04V40.49C126.89 40.49 126.89 38.69 128.04 38.69V37.81H109.82C107.09 37.81 107.73 36.41 109.82 36.03C111.28 35.76 113.84 35.1 119.49 35.1C121.79 35.1 124.59 35.21 128.04 35.5C128.06 35.33 128.29 34.11 129.44 33.92V33.88C129.49 33.88 129.53 33.9 129.58 33.9C129.63 33.9 129.67 33.88 129.72 33.88V33.92C130.95 34.12 131.12 35.53 131.12 35.53C134.79 35.22 137.75 35.1 140.15 35.1C145.81 35.1 148.36 35.76 149.82 36.03C151.91 36.41 152.55 37.81 149.82 37.81H131.12V38.69C132.27 38.69 132.27 40.49 131.12 40.49V41.28H134.21C136.72 41.28 137.01 44.51 137.01 44.51V53.78C137.73 53.78 137.87 56.91 137.87 56.91C138.88 56.91 138.88 59.53 137.87 59.53V67.05H137.91H152.89C152.89 41.83 159.49 4.01 168.54 4.01M168.6 0C162.07 0 157.27 8.01 153.47 25.2C152.96 27.52 152.48 29.96 152.04 32.48C151.6 32.32 151.12 32.19 150.6 32.09C150.44 32.06 150.26 32.03 150.06 31.99C148.38 31.66 145.56 31.1 140.2 31.1C138.11 31.1 135.79 31.19 133.28 31.36C132.74 30.86 132.08 30.45 131.3 30.19C130.83 29.99 130.31 29.88 129.77 29.88C129.72 29.88 129.67 29.88 129.63 29.88C129.58 29.88 129.54 29.88 129.49 29.88C128.93 29.88 128.38 30 127.88 30.22C127.16 30.47 126.54 30.86 126.03 31.33C123.69 31.18 121.52 31.1 119.55 31.1C114.2 31.1 111.38 31.66 109.69 31.99C109.49 32.03 109.32 32.06 109.16 32.09C105.37 32.78 103.88 35.32 104.08 37.53C104.14 38.24 104.73 41.81 109.88 41.81H118.78C118.49 42.57 118.3 43.36 118.23 44.16C118.22 44.28 118.21 44.4 118.21 44.51V52.5C117.91 53.17 117.67 53.99 117.52 54.99C116.94 55.87 116.6 56.98 116.6 58.21C116.6 59.32 116.87 60.33 117.35 61.16V64.79L8.80983 85.38C6.38983 85.84 4.26983 86.96 2.66983 88.61C0.859828 90.48 -0.060172 92.77 -0.000171999 95.21C0.079828 98.46 1.92983 101.79 5.47983 105.1L7.16983 106.64C9.11983 108.43 11.2498 109.89 13.4798 110.97C15.1798 111.8 16.4798 112.18 17.6698 112.2C21.0898 112.41 92.9398 119.85 120.46 122.7C120.6 122.71 120.74 122.72 120.87 122.72H148.34C148.8 122.85 149.74 123.19 149.78 123.85C150.33 132.84 153.06 176.34 155.58 192.34C152.35 192.87 126.27 197.51 123.26 198.04C120.51 198.53 118.01 199.68 116.02 201.37C113.19 203.78 111.69 206.89 111.69 210.38C111.69 215.02 114.66 219.24 119.85 221.95C121.09 222.6 122.45 223.02 123.88 223.19L143.37 225.55C146.08 227.35 152.3 231.05 157.72 231.05H162.71L163.81 234.76C164.47 238.25 166.71 239.5 168.62 239.5C170.53 239.5 172.77 238.25 173.43 234.76L174.53 231.05H179.52C184.94 231.05 191.16 227.35 193.87 225.55L213.36 223.19C214.8 223.02 216.15 222.6 217.39 221.95C222.57 219.24 225.55 215.02 225.55 210.38C225.55 206.9 224.05 203.78 221.22 201.37C219.23 199.68 216.72 198.52 213.98 198.04C210.96 197.5 184.89 192.87 181.66 192.34C184.18 176.34 186.91 132.84 187.46 123.85C187.5 123.19 188.45 122.85 188.9 122.72H216.37C216.51 122.72 216.65 122.72 216.78 122.7C244.29 119.84 316.15 112.41 319.57 112.2C320.76 112.18 322.05 111.8 323.76 110.97C325.99 109.88 328.11 108.43 330.07 106.64L331.73 105.12C335.31 101.78 337.16 98.45 337.24 95.21C337.3 92.76 336.38 90.48 334.57 88.61C332.97 86.96 330.85 85.84 328.43 85.38L219.91 64.79V61.16C220.39 60.33 220.66 59.32 220.66 58.21C220.66 56.98 220.32 55.87 219.74 54.99C219.59 53.98 219.35 53.16 219.05 52.5V44.51C219.05 44.39 219.05 44.27 219.03 44.16C218.96 43.36 218.77 42.57 218.48 41.81H227.37C232.52 41.81 233.1 38.25 233.17 37.53C233.37 35.32 231.88 32.78 228.09 32.09C227.93 32.06 227.75 32.03 227.56 31.99C225.88 31.66 223.06 31.1 217.7 31.1C215.73 31.1 213.56 31.18 211.22 31.33C210.69 30.85 210.05 30.45 209.31 30.2C208.83 29.99 208.31 29.88 207.76 29.88C207.71 29.88 207.66 29.88 207.62 29.88C207.57 29.88 207.53 29.88 207.48 29.88C206.91 29.88 206.37 30 205.88 30.21C205.13 30.47 204.49 30.87 203.97 31.36C201.46 31.19 199.15 31.1 197.05 31.1C191.7 31.1 188.88 31.66 187.19 31.99C186.99 32.03 186.82 32.06 186.65 32.09C186.13 32.19 185.64 32.32 185.21 32.48C184.77 29.97 184.29 27.53 183.78 25.2C179.99 8.01 175.18 0 168.65 0L168.6 0ZM188.2 63.04C188.03 56.25 187.45 48.91 186.55 41.78C186.79 41.8 187.05 41.81 187.32 41.81H196.7C196.41 42.57 196.22 43.36 196.15 44.16C196.14 44.28 196.13 44.4 196.13 44.51V52.5C195.83 53.17 195.59 53.99 195.44 54.99C194.86 55.87 194.52 56.98 194.52 58.21C194.52 59.32 194.79 60.33 195.27 61.16V63.04H188.2ZM140.5 41.81H149.88C150.15 41.81 150.4 41.81 150.65 41.78C149.74 48.91 149.16 56.26 149 63.04H141.93V61.16C142.41 60.33 142.68 59.32 142.68 58.21C142.68 56.98 142.34 55.87 141.76 54.99C141.61 53.99 141.37 53.16 141.07 52.5V44.51C141.07 44.39 141.07 44.27 141.05 44.16C140.98 43.37 140.79 42.57 140.5 41.81Z" fill="black"/>
</g>
<defs>
<clipPath id="clip0_726_22">
<rect width="337.2" height="239.51" fill="white"/>
</clipPath>
</defs>
</svg>
