<svg width="135" height="128" viewBox="0 0 135 128" fill="none" xmlns="http://www.w3.org/2000/svg">
<g clip-path="url(#clip0_824_147)">
<path d="M97.7899 126.54C94.1899 126.54 88.9599 125.33 82.8899 123.94C78.6499 122.96 73.8699 121.87 69.0399 121.05C68.7599 122.34 68.4999 122.8 68.2699 123.07C68.0799 123.3 67.7999 123.43 67.5099 123.43C67.2199 123.43 66.9299 123.3 66.7399 123.07C66.4999 122.79 66.2499 122.33 65.9699 121.05C61.1399 121.87 56.3599 122.97 52.1199 123.94C46.0499 125.34 40.8199 126.54 37.2199 126.54C36.8399 126.54 36.4899 126.32 36.3199 125.97C35.5799 124.44 35.0199 119.11 36.4999 117.57C36.5899 117.48 36.6899 117.4 36.8099 117.35L63.8099 105.13C62.8099 102.49 61.9899 99.96 61.3199 97.43L56.3399 91.67H53.2299C52.8599 91.67 52.5299 91.47 52.3499 91.15C50.3099 87.43 50.0799 83.11 50.5999 73.18C50.5999 73.18 2.08993 74.31 2.07993 74.31C1.57993 74.31 1.15993 73.94 1.08993 73.45C1.07993 73.35 0.409934 63.14 2.99993 62.55L58.2099 51.28L58.3699 23.16C58.3699 16.04 61.1099 1.91004 67.4599 1.54004C67.4799 1.54004 67.5599 1.54004 67.5799 1.54004C73.9199 1.91004 76.6699 16.04 76.6699 23.16L76.8399 51.28L132.03 62.54C134.64 63.14 133.98 73.35 133.96 73.45C133.89 73.95 133.47 74.31 132.97 74.31L84.4499 73.18C84.9699 83.11 84.7399 87.43 82.6999 91.15C82.5299 91.47 82.1899 91.67 81.8199 91.67H78.7099L73.7299 97.43C73.0599 99.96 72.2399 102.49 71.2399 105.13L98.2399 117.35C98.3599 117.4 98.4599 117.48 98.5499 117.57C100.03 119.1 99.4699 124.43 98.7299 125.97C98.5599 126.32 98.2099 126.54 97.8299 126.54H97.7899Z" fill="white"/>
<path d="M67.4999 2.54004C72.6399 2.84004 75.6399 15.6 75.6399 23.16L75.8099 52.09L131.79 63.51C133.08 63.81 133.08 72.26 132.93 73.3L83.3499 72.14C83.9299 82.82 83.7599 87.04 81.7799 90.66H78.2099L72.7799 96.95C72.0399 99.78 71.0999 102.62 69.9199 105.65L97.7799 118.26C98.7799 119.3 98.4899 124.05 97.7799 125.53C94.2999 125.53 89.1199 124.34 83.0999 122.95C78.4999 121.89 73.4099 120.72 68.2199 119.89C67.9999 121.17 67.7599 122.08 67.4799 122.41C67.1999 122.08 66.9599 121.17 66.7399 119.89C61.5499 120.73 56.4599 121.9 51.8599 122.95C45.8499 124.33 40.6699 125.53 37.1799 125.53C36.4699 124.05 36.1799 119.3 37.1799 118.26L65.0399 105.65C63.8599 102.63 62.9299 99.78 62.1799 96.95L56.7499 90.66H53.1799C51.1999 87.04 51.0199 82.82 51.6099 72.14L2.02989 73.3C1.88989 72.26 1.88989 63.8 3.16989 63.51L59.1499 52.09L59.3199 23.16C59.3199 15.59 62.3199 2.83004 67.4599 2.54004M75.7999 73.76H76.8899C76.8899 73.46 77.0299 72.16 77.0299 72.16L75.8899 71.98C75.8599 72.58 75.8299 73.18 75.7999 73.76ZM58.0299 73.76H59.1199C59.0899 73.18 59.0599 72.58 59.0299 71.98L57.8899 72.16C57.8899 72.16 58.0299 73.47 58.0299 73.76ZM67.4999 0.540039C67.4999 0.540039 67.4199 0.540039 67.3799 0.540039C60.2899 0.950039 57.3499 15.47 57.3499 23.16L57.1899 50.46L2.80989 61.56C2.80989 61.56 2.77989 61.56 2.75989 61.57C0.849891 62.01 0.339891 64.27 0.109891 68.01C-0.0301089 70.23 -0.0201089 72.82 0.0898911 73.58C0.229891 74.57 1.06989 75.31 2.06989 75.31C2.08989 75.31 2.09989 75.31 2.11989 75.31L49.5399 74.2C49.0899 83.59 49.3899 87.84 51.4699 91.63C51.8199 92.27 52.4899 92.67 53.2199 92.67H55.8799L60.4099 97.91C61.0099 100.12 61.7099 102.32 62.5499 104.6L36.3999 116.44C36.1699 116.54 35.9599 116.69 35.7799 116.87C33.9099 118.81 34.5699 124.63 35.4199 126.4C35.7499 127.09 36.4499 127.53 37.2199 127.53C40.9299 127.53 46.2199 126.31 52.3399 124.9C56.3199 123.99 60.7399 122.97 65.2299 122.18C65.4399 122.87 65.6799 123.34 65.9799 123.7C66.3599 124.15 66.9199 124.41 67.5099 124.41C68.0999 124.41 68.6599 124.15 69.0399 123.7C69.3399 123.34 69.5799 122.87 69.7899 122.18C74.2699 122.97 78.6899 123.99 82.6499 124.9C88.7999 126.32 94.0899 127.53 97.7999 127.53C98.5699 127.53 99.2699 127.09 99.5999 126.4C100.45 124.63 101.11 118.82 99.2399 116.87C99.0599 116.69 98.8599 116.54 98.6199 116.44L72.4699 104.6C73.3099 102.32 74.0099 100.12 74.6099 97.91L79.1399 92.67H81.7999C82.5299 92.67 83.1999 92.27 83.5499 91.63C85.6199 87.84 85.9299 83.59 85.4799 74.2L132.9 75.31C132.9 75.31 132.93 75.31 132.95 75.31C133.95 75.31 134.79 74.57 134.93 73.58C135.03 72.82 135.05 70.22 134.91 68.01C134.68 64.26 134.17 62.01 132.26 61.57C132.24 61.57 132.23 61.57 132.21 61.56L77.8199 50.46L77.6599 23.15C77.6599 15.48 74.7199 0.950039 67.6299 0.540039C67.5899 0.540039 67.5499 0.540039 67.5099 0.540039L67.4999 0.540039Z" fill="black"/>
</g>
<defs>
<clipPath id="clip0_824_147">
<rect width="135" height="127" fill="white" transform="translate(0 0.540039)"/>
</clipPath>
</defs>
</svg>
