<svg width="149" height="124" viewBox="0 0 149 124" fill="none" xmlns="http://www.w3.org/2000/svg">
<g clip-path="url(#clip0_410_7)">
<path d="M74.9003 122.63C74.0003 122.63 73.4203 121.87 73.2303 120.46L50.3503 118.31C49.6103 118.24 49.0503 117.63 49.0503 116.88V112.04C49.0503 110.3 50.1903 109.58 51.0003 109.5L71.4603 106.09L70.2803 96.3099L68.3503 95.5499C67.6403 95.2699 67.1003 94.6999 66.8603 93.9799L65.5703 90.0899H61.7603C60.9903 90.0899 60.2903 89.6499 59.9703 88.9599C58.3903 85.5799 58.3403 79.6399 58.3403 79.3799V73.9799L3.79027 65.4899C3.79027 65.4899 3.77027 65.4899 3.76027 65.4899C3.51027 65.4899 2.25027 65.3999 2.12027 63.5199C1.56027 57.6899 2.17027 56.1899 2.76027 55.5399C3.05027 55.2199 3.44027 55.0399 3.84027 55.0399C3.93027 55.0399 4.01027 55.0399 4.08027 55.0599L66.8703 49.5599V19.1399C66.8703 11.2499 70.5703 1.59985 74.9003 1.59985C79.2303 1.59985 82.9303 11.2399 82.9303 19.1399V49.5599L145.72 55.0599C145.79 55.0499 145.87 55.0399 145.96 55.0399C146.36 55.0399 146.75 55.2199 147.04 55.5399C147.63 56.1899 148.24 57.6899 147.68 63.5499C147.56 65.3999 146.29 65.4899 146.04 65.4899C146.03 65.4899 146.02 65.4899 146 65.4899L91.4603 73.9999V79.3998C91.4603 79.6599 91.4103 85.5999 89.8303 88.9799C89.5103 89.6599 88.8103 90.1098 88.0403 90.1098H84.2303L82.9403 93.9999C82.7003 94.7199 82.1603 95.2899 81.4503 95.5699L79.5203 96.3298L78.3403 106.11L98.8003 109.52C99.6103 109.6 100.75 110.32 100.75 112.06V116.9C100.75 117.65 100.19 118.26 99.4503 118.33L76.5703 120.48C76.3803 121.89 75.8003 122.65 74.9003 122.65V122.63Z" fill="white"/>
<path d="M74.9 2.58984C78.35 2.58984 81.93 11.5798 81.93 19.1298V50.4698L145.81 56.0698C145.81 56.0698 145.87 56.0398 145.96 56.0398C146.35 56.0398 147.33 56.6698 146.69 63.4598C146.63 64.3998 146.22 64.4998 146.05 64.4998C146 64.4998 145.98 64.4998 145.98 64.4998L90.47 73.1598V79.4098C90.47 79.4098 90.43 85.3498 88.93 88.5698C88.77 88.9098 88.4201 89.1198 88.05 89.1198H83.5201L82 93.6898C81.85 94.1298 81.5201 94.4798 81.09 94.6498L78.61 95.6298L77.24 106.95L98.68 110.52C98.68 110.52 99.75 110.58 99.75 112.07V116.91C99.75 117.13 99.58 117.32 99.36 117.34L75.6301 119.57C75.6301 119.57 75.59 121.65 74.9 121.65C74.21 121.65 74.17 119.57 74.17 119.57L50.4401 117.34C50.2201 117.32 50.0501 117.13 50.0501 116.91V112.07C50.0501 110.58 51.1201 110.52 51.1201 110.52L72.5601 106.95L71.19 95.6298L68.71 94.6498C68.28 94.4798 67.9501 94.1298 67.8 93.6898L66.28 89.1198H61.75C61.3801 89.1198 61.0301 88.9098 60.8701 88.5698C59.3701 85.3498 59.3301 79.4098 59.3301 79.4098V73.1598L3.83005 64.4798C3.83005 64.4798 3.80005 64.4798 3.76005 64.4798C3.59005 64.4798 3.18005 64.3798 3.12005 63.4398C2.47005 56.6498 3.46005 56.0198 3.85005 56.0198C3.94005 56.0198 4.00005 56.0498 4.00005 56.0498L67.8801 50.4498V19.1098C67.8801 11.5698 71.4501 2.56984 74.91 2.56984M74.9 0.589844C69.39 0.589844 65.87 11.5698 65.87 19.1298V48.6298L4.11005 54.0398C4.02005 54.0398 3.93005 54.0198 3.85005 54.0198C3.16005 54.0198 2.51005 54.3098 2.03005 54.8498C1.22005 55.7398 0.55005 57.4198 1.13005 63.5998C1.27005 65.5598 2.53005 66.4598 3.73005 66.4698L57.3501 74.8298V79.3698C57.3501 80.0298 57.4401 85.8598 59.0801 89.3698C59.5601 90.4098 60.62 91.0698 61.7701 91.0698H64.8601L65.92 94.2698C66.25 95.2698 67.01 96.0698 67.99 96.4598L69.36 96.9998L70.36 105.24L50.8701 108.49C49.6901 108.63 48.0601 109.65 48.0601 112.02V116.86C48.0601 118.12 49.0101 119.17 50.2701 119.28L72.41 121.36C72.9501 123.35 74.2701 123.6 74.91 123.6C75.55 123.6 76.8801 123.35 77.41 121.36L99.55 119.28C100.81 119.16 101.76 118.12 101.76 116.86V112.02C101.76 109.64 100.14 108.63 98.9501 108.49L79.46 105.24L80.46 96.9998L81.83 96.4598C82.8101 96.0698 83.57 95.2698 83.9 94.2698L84.96 91.0698H88.05C89.2001 91.0698 90.26 90.3998 90.74 89.3698C92.38 85.8498 92.46 80.0298 92.47 79.3798V74.8298L146.09 66.4698C147.29 66.4498 148.54 65.5598 148.69 63.5998C149.28 57.4198 148.61 55.7398 147.79 54.8498C147.3 54.3098 146.66 54.0198 145.97 54.0198C145.88 54.0198 145.79 54.0198 145.71 54.0398L83.94 48.6298V19.1298C83.94 11.5698 80.4201 0.589844 74.91 0.589844L74.9 0.589844Z" fill="black"/>
</g>
<defs>
<clipPath id="clip0_410_7">
<rect width="148" height="123.04" fill="white" transform="translate(0.899902 0.589844)"/>
</clipPath>
</defs>
</svg>
