<svg width="226" height="190" viewBox="0 0 226 190" fill="none" xmlns="http://www.w3.org/2000/svg">
<g clip-path="url(#clip0_630_7)">
<path d="M154.13 188.83C153.87 188.83 153.59 188.79 153.29 188.71C152.15 188.41 125.86 182.85 117.84 181.16C117.28 181.04 116.81 180.69 116.53 180.22L116.2 182.21C116.2 182.21 116.18 182.29 116.17 182.33C115.94 183.11 115.38 184.01 114.5 184.21C114.28 185.25 113.75 185.82 112.99 185.82C112.23 185.82 111.7 185.24 111.48 184.21C110.6 184 110.03 183.11 109.81 182.33C109.8 182.29 109.79 182.25 109.78 182.21L109.45 180.22C109.17 180.69 108.7 181.04 108.14 181.16C100.11 182.86 73.83 188.41 72.69 188.71C72.39 188.79 72.1 188.83 71.85 188.83C70.64 188.83 70.13 188 70.06 187.38L69.96 186.86C69.7 185.2 69.73 181.89 69.73 181.75V179.52C69.73 177.62 70.96 176.65 71.69 176.37L102.08 161.54V160.42C102.08 158.11 104.23 150.49 104.66 148.99V148.69C102.39 147.75 99.96 146.74 98.81 146.27C98.17 146.81 97.23 147.1 96.06 147.1C95.69 147.1 95.39 147.07 95.25 147.05H93.71C88.75 147.05 88.58 137.36 88.58 136.25L88.53 118.37C78.4 118.62 3.93001 120.41 3.35001 120.41C2.91001 120.41 2.51001 120.25 2.23001 119.95C1.78001 119.49 1.76001 118.89 1.77001 118.72V116.04C1.77001 113.66 4.27001 111.13 9.20001 108.53C11.71 107.21 14.49 106.1 17.47 105.24L101.18 81.0099V37.4999C101.18 19.8799 109.39 1.36987 113.02 1.36987C116.65 1.36987 124.85 19.8899 124.85 37.4999V80.9999L208.57 105.23C211.55 106.09 214.33 107.2 216.84 108.52C221.77 111.12 224.27 113.64 224.27 116.03V118.74C224.27 118.88 224.25 119.48 223.81 119.94C223.52 120.23 223.12 120.4 222.69 120.4C222.11 120.4 147.64 118.6 137.51 118.36L137.46 136.24C137.46 137.35 137.28 147.04 132.33 147.04H130.79C130.65 147.06 130.35 147.09 129.98 147.09C128.81 147.09 127.87 146.8 127.23 146.26C126.08 146.73 123.65 147.73 121.39 148.68V149.05C121.81 150.48 123.96 158.11 123.96 160.42V161.54L154.44 176.41C155.09 176.65 156.32 177.62 156.32 179.52V181.77C156.32 181.9 156.35 185.21 156.09 186.84L155.99 187.39C155.92 188.01 155.41 188.84 154.2 188.84L154.13 188.83Z" fill="white"/>
<path d="M112.97 2.37988C115.39 2.37988 123.8 19.2699 123.8 37.5099V81.0099C123.8 81.4599 124.1 81.8499 124.52 81.9699L208.23 106.2C211.02 107.01 213.74 108.06 216.32 109.42C219.62 111.16 223.21 113.61 223.21 116.04V118.75C223.21 118.75 223.23 119.41 222.62 119.41C222.01 119.41 136.44 117.34 136.44 117.34L136.39 136.24C136.39 136.24 136.36 146.04 132.26 146.04H130.66C130.66 146.04 130.35 146.09 129.92 146.09C129.13 146.09 127.94 145.93 127.46 145.06C126.98 145.24 122.29 147.19 120.79 147.81C120.51 147.93 120.33 148.2 120.33 148.5V149.04C120.33 149.11 120.33 149.18 120.36 149.25C120.64 150.24 122.9 158.2 122.9 160.41V162.16L153.94 177.3C153.94 177.3 155.26 177.8 155.26 179.51V181.75C155.26 181.75 155.3 185.1 155.05 186.67L154.94 187.24C154.94 187.24 154.92 187.83 154.14 187.83C153.98 187.83 153.78 187.8 153.55 187.74C152.32 187.42 123.29 181.29 118.05 180.18C117.58 180.08 117.24 179.66 117.24 179.18V173.99H116.56L115.21 182.04C115.21 182.04 114.85 183.25 114.11 183.25H113.61C113.61 183.25 113.54 184.82 112.99 184.82C112.44 184.82 112.37 183.25 112.37 183.25H111.87C111.12 183.25 110.77 182.04 110.77 182.04L109.42 173.99H108.74V179.18C108.74 179.66 108.4 180.08 107.93 180.18C102.69 181.29 73.66 187.42 72.43 187.74C72.2 187.8 72 187.83 71.84 187.83C71.06 187.83 71.04 187.24 71.04 187.24L70.93 186.67C70.68 185.1 70.72 181.75 70.72 181.75V179.51C70.72 177.8 72.04 177.3 72.04 177.3L103.08 162.16V160.41C103.08 158.21 105.34 150.24 105.62 149.25C105.64 149.18 105.65 149.11 105.65 149.04V148.5C105.65 148.2 105.47 147.93 105.19 147.81C103.69 147.19 98.99 145.24 98.52 145.06C98.04 145.93 96.85 146.09 96.06 146.09C95.63 146.09 95.32 146.04 95.32 146.04H93.72C89.62 146.04 89.59 136.24 89.59 136.24L89.54 117.34C89.54 117.34 3.96997 119.41 3.35997 119.41C2.74997 119.41 2.76997 118.75 2.76997 118.75V116.04C2.76997 113.61 6.36997 111.16 9.65997 109.42C12.23 108.06 14.95 107.01 17.75 106.2L101.46 81.9699C101.89 81.8499 102.18 81.4499 102.18 81.0099V37.5099C102.18 19.2699 110.59 2.37988 113.01 2.37988M112.97 0.379883C109.71 0.379883 106.43 7.91988 104.77 12.4099C103.04 17.0899 100.14 26.5699 100.14 37.5099V80.2599L17.15 104.28C14.1 105.16 11.25 106.3 8.68997 107.65C3.31997 110.48 0.719971 113.23 0.719971 116.05V118.75C0.719971 119.07 0.779971 119.95 1.46997 120.66C1.94997 121.15 2.59997 121.42 3.30997 121.42C3.88997 121.42 72.54 119.76 87.5 119.4L87.55 136.26C87.55 138.23 87.88 148.05 93.68 148.05H95.16C95.35 148.07 95.65 148.1 96.03 148.1C97.17 148.1 98.15 147.86 98.91 147.4C99.9 147.81 101.49 148.46 103.5 149.3C102.65 152.32 101.05 158.26 101.05 160.42V160.92L71.19 175.49C70.21 175.91 68.69 177.18 68.69 179.52V181.76C68.69 182.1 68.66 185.31 68.93 186.99C68.93 187.01 68.93 187.03 68.93 187.04L69.02 187.53C69.17 188.68 70.15 189.83 71.8 189.83C72.14 189.83 72.51 189.78 72.9 189.68C73.87 189.43 92.58 185.46 108.31 182.14C108.45 182.11 108.58 182.07 108.71 182.03L108.77 182.38C108.78 182.46 108.8 182.54 108.82 182.61C109.08 183.5 109.68 184.49 110.62 184.97C111.2 186.67 112.5 186.83 112.96 186.83C113.42 186.83 114.72 186.67 115.3 184.97C116.24 184.49 116.84 183.5 117.1 182.61C117.12 182.53 117.14 182.46 117.15 182.38L117.21 182.03C117.34 182.08 117.47 182.11 117.61 182.14C133.34 185.46 152.04 189.43 153.02 189.68C153.4 189.78 153.77 189.83 154.12 189.83C155.77 189.83 156.75 188.68 156.9 187.53L156.99 187.04C156.99 187.04 156.99 187 156.99 186.99C157.26 185.3 157.23 182.1 157.23 181.74V179.52C157.23 177.17 155.71 175.9 154.73 175.49L124.87 160.92V160.42C124.87 158.27 123.28 152.32 122.42 149.3C124.41 148.47 126.01 147.81 127.01 147.4C127.78 147.86 128.75 148.1 129.89 148.1C130.26 148.1 130.57 148.07 130.76 148.05H132.24C138.04 148.05 138.37 138.23 138.37 136.26L138.42 119.4C153.37 119.76 222.03 121.42 222.61 121.42C223.32 121.42 223.97 121.15 224.45 120.66C225.13 119.96 225.2 119.08 225.2 118.75V116.05C225.2 113.23 222.6 110.48 217.24 107.66C214.68 106.31 211.83 105.18 208.78 104.29L125.79 80.2699V37.5199C125.79 26.5699 122.89 17.0899 121.16 12.4199C119.5 7.92988 116.22 0.389883 112.96 0.389883L112.97 0.379883Z" fill="black"/>
</g>
<defs>
<clipPath id="clip0_630_7">
<rect width="224.5" height="189.45" fill="white" transform="translate(0.719971 0.379883)"/>
</clipPath>
</defs>
</svg>
