<svg width="215" height="215" viewBox="0 0 215 215" fill="none" xmlns="http://www.w3.org/2000/svg">
<g clip-path="url(#clip0_107_29)">
<path d="M107.74 212.17C106.87 212.17 106.29 206.22 106.06 204.8C105.19 204.08 104.42 200.59 104.42 200.59L102.99 202.01C102.99 202.01 65.8803 210.54 64.1303 210.84C62.3803 211.14 62.4703 210.04 62.4703 210.04C62.4703 210.04 61.9403 204.81 62.0303 202.35C62.1203 199.89 64.7403 198.8 64.7403 198.8C64.7403 198.8 96.4203 183.59 101.26 181.32C99.6403 172.99 99.8603 164.77 99.8603 164.77L93.8203 163.17C92.9703 165.13 85.0803 166.67 84.4303 161.36C82.3803 148.47 83.1703 133.76 83.1703 133.76C83.1703 133.76 13.4303 134.68 4.54026 134.78C4.00026 134.78 3.54026 134.41 3.43026 133.88C2.61026 129.85 2.97026 126.06 2.98026 123.78C2.99026 121.32 4.97026 121.02 4.97026 121.02L97.2603 95.6398C97.6503 95.5298 97.9303 95.1698 97.9303 94.7598L98.2103 39.0598C100.31 3.90984 108.27 2.83984 108.27 2.83984C108.27 2.83984 116.22 3.94984 118.12 39.1198V94.8198C118.12 95.2299 118.39 95.5898 118.79 95.6998L210.95 121.55C210.95 121.55 212.93 121.87 212.93 124.32C212.93 126.6 213.27 130.4 212.43 134.42C212.32 134.95 211.85 135.32 211.32 135.32C202.44 135.18 132.7 133.91 132.7 133.91C132.7 133.91 133.41 148.62 131.3 161.5C130.62 166.81 122.74 165.22 121.9 163.26L115.85 164.82C115.85 164.82 116.03 173.04 114.37 181.36C119.2 183.66 150.81 199.02 150.81 199.02C150.81 199.02 153.42 200.13 153.5 202.58C153.58 205.03 153.02 210.26 153.02 210.26C153.02 210.26 153.1 211.37 151.36 211.05C149.62 210.73 112.55 202.02 112.55 202.02L111.12 200.59C111.12 200.59 110.33 204.08 109.46 204.79C109.22 206.22 108.61 212.16 107.74 212.16V212.17Z" fill="white"/>
<path d="M108.27 2.83984C108.27 2.83984 116.22 3.94984 118.12 39.1198V94.8198C118.12 95.2299 118.39 95.5898 118.79 95.6998L210.95 121.55C210.95 121.55 212.93 121.87 212.93 124.32C212.93 126.6 213.27 130.4 212.43 134.42C212.32 134.94 211.86 135.32 211.33 135.32C211.33 135.32 211.32 135.32 211.31 135.32C202.43 135.18 132.69 133.91 132.69 133.91C132.69 133.91 133.4 148.62 131.29 161.5C130.95 164.19 128.76 165.11 126.57 165.11C124.38 165.11 122.3 164.23 121.89 163.27L115.84 164.83C115.84 164.83 116.02 173.05 114.36 181.37C119.19 183.67 150.8 199.03 150.8 199.03C150.8 199.03 153.41 200.14 153.49 202.59C153.57 205.05 153.01 210.27 153.01 210.27C153.01 210.27 153.07 211.12 151.92 211.12C151.76 211.12 151.57 211.1 151.35 211.06C149.61 210.74 112.54 202.03 112.54 202.03L111.11 200.6C111.11 200.6 110.32 204.09 109.45 204.8C109.21 206.23 108.6 212.17 107.73 212.17C106.86 212.17 106.28 206.22 106.05 204.8C105.18 204.08 104.41 200.59 104.41 200.59L102.98 202.01C102.98 202.01 65.8697 210.54 64.1197 210.84C63.9097 210.88 63.7197 210.89 63.5597 210.89C62.3897 210.89 62.4597 210.04 62.4597 210.04C62.4597 210.04 61.9297 204.81 62.0197 202.35C62.1097 199.89 64.7297 198.8 64.7297 198.8C64.7297 198.8 96.4097 183.59 101.25 181.32C99.6297 173 99.8497 164.77 99.8497 164.77L93.8097 163.17C93.3897 164.13 91.2797 164.99 89.1597 164.99C87.0397 164.99 84.7497 164.06 84.4197 161.36C82.3697 148.47 83.1597 133.76 83.1597 133.76C83.1597 133.76 13.4197 134.68 4.52967 134.78H4.51967C3.98967 134.78 3.52967 134.4 3.41967 133.88C2.59967 129.85 2.95967 126.06 2.96967 123.78C2.97967 121.32 4.95967 121.02 4.95967 121.02L97.2497 95.6398C97.6397 95.5298 97.9197 95.1698 97.9197 94.7598L98.1997 39.0598C100.31 3.90984 108.27 2.83984 108.27 2.83984ZM108.27 0.839844C108.18 0.839844 108.09 0.839844 108 0.859844C107.28 0.959844 104.75 1.67984 102.23 6.89984C99.1297 13.3198 97.1097 24.1098 96.2397 38.9498C96.2397 38.9898 96.2397 39.0198 96.2397 39.0598L95.9597 93.9398L4.52967 119.08C3.22967 119.34 0.999669 120.61 0.979669 123.78C0.979669 124.23 0.959669 124.73 0.939669 125.29C0.869669 127.64 0.759669 130.85 1.46967 134.3C1.76967 135.75 3.04967 136.8 4.52967 136.8C12.4697 136.72 69.3597 135.97 81.0897 135.81C80.9497 140.38 80.8397 151.48 82.4497 161.66C82.8697 164.96 85.4497 167.01 89.1697 167.01C91.0197 167.01 93.1197 166.47 94.4697 165.43L97.8397 166.32C97.8497 168.93 98.0197 174.38 98.9997 180.18C91.4497 183.76 65.0997 196.41 63.8897 196.99C62.4697 197.6 60.1097 199.38 60.0097 202.29C59.9197 204.7 60.3697 209.44 60.4497 210.16C60.4697 210.58 60.5897 211.31 61.1897 211.95C61.5897 212.38 62.3297 212.9 63.5497 212.9C63.8297 212.9 64.1397 212.87 64.4597 212.82C66.1997 212.51 100.73 204.58 103.31 203.99C103.55 204.6 103.82 205.17 104.14 205.64C104.16 205.82 104.19 206.02 104.22 206.24C104.87 211.19 105.26 214.17 107.72 214.18C110.19 214.18 110.59 211.2 111.27 206.26C111.3 206.04 111.33 205.84 111.35 205.66C111.67 205.2 111.95 204.63 112.19 204.02C114.77 204.63 149.26 212.73 151 213.05C151.33 213.11 151.64 213.14 151.93 213.14C153.15 213.14 153.88 212.63 154.28 212.2C154.88 211.56 155 210.83 155.02 210.42C155.1 209.7 155.57 204.96 155.5 202.55C155.41 199.64 153.06 197.85 151.64 197.23C150.44 196.64 124.15 183.86 116.62 180.24C117.64 174.45 117.83 169 117.85 166.39L121.23 165.52C122.59 166.58 124.71 167.13 126.58 167.13C130.28 167.13 132.84 165.09 133.28 161.81C134.94 151.64 134.89 140.54 134.77 135.97C146.5 136.18 203.38 137.22 211.29 137.35C212.81 137.35 214.09 136.31 214.39 134.87C215.11 131.43 215.03 128.21 214.96 125.86C214.95 125.31 214.93 124.8 214.93 124.35C214.93 121.18 212.7 119.9 211.41 119.63L120.12 94.0298V39.1498C120.12 39.1498 120.12 39.0798 120.12 39.0398C119.32 24.1898 117.36 13.3998 114.29 6.95984C111.79 1.68984 109.26 0.959844 108.54 0.859844C108.45 0.849844 108.36 0.839844 108.26 0.839844H108.27Z" fill="black"/>
</g>
<defs>
<clipPath id="clip0_107_29">
<rect width="214.1" height="213.33" fill="white" transform="translate(0.899902 0.839844)"/>
</clipPath>
</defs>
</svg>
