<svg width="200" height="213" viewBox="0 0 200 213" fill="none" xmlns="http://www.w3.org/2000/svg">
<g clip-path="url(#clip0_655_2)">
<path d="M100.041 210.82C97.3411 210.82 96.0511 208.61 95.8111 207.04L94.2511 200.5C71.1511 206.39 69.8711 206.39 69.4511 206.39C66.8711 206.39 65.8411 204.55 65.7911 203.32V199C65.7911 196.2 67.3511 194.75 68.4511 194.23C70.1411 193.13 85.8311 182.88 90.2111 180.03C88.2111 167.31 87.4611 151.42 87.4511 151.26V117.67H75.1611C74.7511 122.2 74.0811 124.13 72.0011 124.13C69.9211 124.13 69.4511 122.13 69.1711 117.67C67.9411 117.68 66.7311 117.88 65.5611 118.26L60.4711 119.91C60.0611 124.98 59.4211 127.13 57.2411 127.13C55.3011 127.13 54.7811 125.41 54.5011 121.84C51.0411 122.96 47.1811 124.2 43.2611 125.47C42.8511 130.12 42.1911 132.22 40.0811 132.22C38.1511 132.22 37.6411 130.36 37.3711 127.36C24.0811 131.62 16.5511 133.96 14.9511 134.34C11.5211 135.15 9.84109 137.18 9.77109 137.27L7.82109 139.54C7.55109 139.87 6.47109 141.03 5.02109 141.03C4.03109 141.03 3.16109 140.5 2.63109 139.58C2.46109 139.28 2.37109 138.94 2.37109 138.59C2.37109 127.21 11.1611 122.8 12.0711 122.38L63.7411 95.62C63.2311 95 62.9511 94.18 62.9511 93.22V77.89C62.9511 76.15 64.2511 74.31 66.6611 74.31H74.9911C77.4011 74.31 78.7011 76.16 78.7011 77.89V87.87L87.5311 83.29V35.42C87.5311 20.96 94.5311 2.5 100.011 2.5C105.491 2.5 112.491 20.96 112.491 35.42V83.29L121.321 87.87V77.89C121.321 76.15 122.621 74.31 125.031 74.31H133.361C135.771 74.31 137.071 76.16 137.071 77.89V93.22C137.071 94.18 136.781 95 136.281 95.62L187.951 122.38C188.861 122.81 197.661 127.21 197.661 138.59C197.661 138.94 197.571 139.28 197.401 139.58C196.871 140.5 196.001 141.03 195.011 141.03C193.561 141.03 192.481 139.86 192.191 139.51L190.311 137.33C190.191 137.19 188.511 135.16 185.091 134.35C183.491 133.97 175.961 131.62 162.671 127.37C162.411 130.37 161.901 132.23 159.961 132.23C157.841 132.23 157.191 130.14 156.781 125.48C152.851 124.22 148.991 122.97 145.541 121.85C145.261 125.41 144.741 127.14 142.801 127.14C140.621 127.14 139.981 124.99 139.571 119.92L134.481 118.27C133.311 117.89 132.101 117.69 130.871 117.68C130.591 122.14 130.161 124.14 128.041 124.14C125.921 124.14 125.291 122.21 124.881 117.68H112.591V151.18C112.591 151.43 111.831 167.33 109.831 180.04C114.211 182.89 129.901 193.13 131.591 194.24C132.701 194.76 134.251 196.21 134.251 199.01V203.23C134.191 204.56 133.171 206.4 130.581 206.4C130.161 206.4 128.881 206.4 105.781 200.51L104.221 207.05C103.981 208.62 102.701 210.83 99.9911 210.83L100.041 210.82Z" fill="white"/>
<path d="M100.041 4.5C103.211 4.5 110.521 20.25 110.521 35.42V83.76C110.521 84.22 110.771 84.63 111.181 84.84L123.351 91.15V77.88C123.351 77.88 123.351 76.3 125.061 76.3H133.391C135.101 76.3 135.101 77.88 135.101 77.88V93.21C135.101 94.66 134.001 94.86 133.401 94.86C133.171 94.86 133.021 94.83 133.021 94.83V96.15L187.101 124.16C187.101 124.16 195.681 127.99 195.681 138.58C195.501 138.9 195.271 139.02 195.031 139.02C194.411 139.02 193.751 138.22 193.751 138.22L191.851 136.01C191.851 136.01 189.791 133.39 185.571 132.39C183.641 131.93 172.441 128.38 160.871 124.67C160.721 127.21 160.441 130.21 159.991 130.21C159.281 130.21 158.891 126.62 158.691 123.97C153.371 122.26 148.111 120.56 143.731 119.14C143.581 121.76 143.301 125.12 142.821 125.12C142.071 125.12 141.671 121.09 141.491 118.41C138.821 117.55 136.621 116.83 135.131 116.35C133.731 115.9 132.271 115.66 130.801 115.66H129.011C128.871 118.33 128.591 122.12 128.081 122.12C127.351 122.12 126.961 118.33 126.771 115.66H111.861C111.191 115.66 110.641 116.21 110.641 116.88V151.16C110.641 151.16 109.891 167.45 107.811 180.29C107.741 180.72 107.921 181.14 108.291 181.37C112.001 183.77 130.701 195.99 130.701 195.99C130.701 195.99 132.311 196.55 132.311 198.99V203.21C132.311 203.21 132.251 204.38 130.641 204.38C129.231 204.38 110.211 199.54 105.441 198.32C105.351 198.3 105.261 198.29 105.171 198.29C104.681 198.29 104.231 198.63 104.111 199.13L102.311 206.66C102.311 206.66 102.061 208.81 100.051 208.81C98.0409 208.81 97.7909 206.66 97.7909 206.66L95.9909 199.13C95.8709 198.63 95.4209 198.29 94.9309 198.29C94.8409 198.29 94.7509 198.3 94.6609 198.32C89.8909 199.54 70.8709 204.38 69.4609 204.38C67.8509 204.38 67.7909 203.21 67.7909 203.21V198.99C67.7909 196.55 69.4009 195.99 69.4009 195.99C69.4009 195.99 88.1009 183.78 91.8109 181.37C92.1709 181.13 92.3609 180.71 92.2909 180.29C90.2109 167.45 89.4609 151.16 89.4609 151.16V116.88C89.4609 116.21 88.9109 115.66 88.2409 115.66H73.3309C73.1409 118.33 72.7509 122.12 72.0209 122.12C71.5109 122.12 71.2209 118.33 71.0909 115.66H69.3009C67.8309 115.66 66.3709 115.89 64.9709 116.35C63.4809 116.83 61.2709 117.55 58.6109 118.41C58.4309 121.09 58.0309 125.12 57.2809 125.12C56.8009 125.12 56.5209 121.76 56.3709 119.14C52.0009 120.56 46.7309 122.26 41.4109 123.97C41.2109 126.63 40.8209 130.21 40.1109 130.21C39.6509 130.21 39.3809 127.21 39.2309 124.67C27.6609 128.38 16.4709 131.93 14.5309 132.39C10.3109 133.39 8.25086 136.01 8.25086 136.01L6.35086 138.22C6.35086 138.22 5.69086 139.02 5.07086 139.02C4.83086 139.02 4.60086 138.9 4.42086 138.58C4.42086 128 13.0009 124.16 13.0009 124.16L67.0809 96.15V94.83C67.0809 94.83 66.9309 94.86 66.7009 94.86C66.1009 94.86 65.0009 94.66 65.0009 93.21V77.88C65.0009 77.88 65.0009 76.3 66.7109 76.3H75.0409C76.7509 76.3 76.7509 77.88 76.7509 77.88V91.15L88.9209 84.84C89.3209 84.63 89.5809 84.21 89.5809 83.76V35.42C89.5809 20.25 96.9009 4.5 100.061 4.5M100.041 0.5C98.6909 0.5 94.5809 0.5 89.8709 12.85C87.1309 20.04 85.5509 28.27 85.5509 35.42V82.07L80.7209 84.57V77.87C80.7209 75.13 78.5809 72.29 75.0109 72.29H66.6809C63.1109 72.29 60.9709 75.13 60.9709 77.87V93.2C60.9709 93.72 61.0309 94.23 61.1509 94.7L11.1909 120.58C9.83086 121.23 0.380859 126.23 0.380859 138.58C0.380859 139.28 0.560859 139.96 0.910859 140.56C1.79086 142.1 3.33086 143.01 5.03086 143.01C7.25086 143.01 8.78086 141.49 9.36086 140.8L11.2409 138.61C11.3109 138.53 11.3009 138.55 11.3409 138.49C11.5409 138.26 12.8809 136.86 15.4109 136.26C16.0109 136.12 17.7309 135.71 35.7409 129.95C36.3609 132.76 37.8209 134.18 40.0809 134.18C42.6309 134.18 44.2409 132.35 44.8609 128.73C44.9509 128.2 45.0409 127.6 45.1109 126.93C47.7609 126.08 50.3709 125.24 52.8209 124.44C53.1309 126.18 54.0209 129.08 57.2409 129.08C61.1509 129.08 61.8409 124.78 62.0709 123.37C62.1609 122.78 62.2509 122.11 62.3309 121.36C63.8809 120.86 65.1809 120.43 66.1709 120.11C66.5609 119.98 66.9509 119.88 67.3509 119.8C67.3709 119.98 67.3909 120.15 67.4109 120.32C67.6009 121.89 68.0909 126.07 71.9909 126.07C75.8909 126.07 76.5609 121.88 76.7909 120.5C76.8409 120.22 76.8809 119.93 76.9209 119.61H85.4309V151.11C85.4309 151.17 85.4309 151.23 85.4309 151.29C85.4609 151.93 86.1409 166.46 88.0109 179C82.7009 182.46 69.4909 191.08 67.4509 192.42C65.5309 193.37 63.7609 195.64 63.7609 198.94V203.16C63.7609 203.22 63.7609 203.29 63.7609 203.35C63.8709 205.76 65.9009 208.33 69.4209 208.33C70.0909 208.33 71.3109 208.33 92.7509 202.88L93.8209 207.36C94.2609 210.09 96.4809 212.76 100.011 212.76C103.541 212.76 105.761 210.09 106.201 207.36L107.271 202.88C128.701 208.33 129.931 208.33 130.601 208.33C134.121 208.33 136.151 205.77 136.261 203.35C136.261 203.29 136.261 203.22 136.261 203.16V198.94C136.261 195.63 134.491 193.37 132.571 192.42C130.521 191.08 117.321 182.46 112.011 179C113.881 166.46 114.561 151.93 114.591 151.29C114.591 151.23 114.591 151.17 114.591 151.11V119.61H123.101C123.141 119.93 123.191 120.22 123.231 120.5C123.461 121.88 124.161 126.07 128.031 126.07C131.901 126.07 132.421 121.89 132.611 120.32C132.631 120.15 132.651 119.98 132.671 119.8C133.071 119.88 133.461 119.98 133.851 120.11C134.841 120.43 136.151 120.86 137.691 121.36C137.771 122.11 137.861 122.78 137.951 123.37C138.181 124.78 138.871 129.08 142.781 129.08C146.001 129.08 146.891 126.18 147.201 124.44C149.651 125.23 152.261 126.07 154.911 126.93C154.991 127.6 155.071 128.2 155.161 128.73C155.781 132.34 157.391 134.18 159.941 134.18C162.201 134.18 163.651 132.76 164.281 129.95C182.281 135.71 184.011 136.11 184.611 136.26C187.141 136.86 188.481 138.26 188.681 138.49C188.721 138.55 188.711 138.53 188.781 138.61L190.661 140.8C191.241 141.5 192.771 143.01 194.991 143.01C196.691 143.01 198.231 142.09 199.111 140.56C199.461 139.96 199.641 139.27 199.641 138.58C199.641 126.22 190.191 121.23 188.831 120.58L138.871 94.7C138.991 94.23 139.051 93.73 139.051 93.2V77.87C139.051 75.13 136.911 72.29 133.341 72.29H125.011C121.441 72.29 119.301 75.13 119.301 77.87V84.57L114.471 82.07V35.42C114.471 28.27 112.901 20.04 110.151 12.85C105.501 0.5 101.391 0.5 100.041 0.5Z" fill="black"/>
</g>
<defs>
<clipPath id="clip0_655_2">
<rect width="199.3" height="212.32" fill="white" transform="translate(0.390625 0.5)"/>
</clipPath>
</defs>
</svg>
