<svg width="292" height="202" viewBox="0 0 292 202" fill="none" xmlns="http://www.w3.org/2000/svg">
<g clip-path="url(#clip0_637_7)">
<path d="M146.07 199.84C145.41 199.84 144.79 199.57 144.33 199.09C143.49 198.21 143.36 196.79 143.4 195.76V192.06C142.75 192.4 141.99 192.58 141.15 192.58C140.86 192.58 140.62 192.56 140.45 192.54H98.5699C94.7499 192.54 93.3499 190.29 93.2099 190.04C93.1499 189.94 93.0999 189.83 93.0599 189.72C93.0599 189.72 92.4999 188.16 92.4899 188.13C90.1899 180.45 90.3699 171.36 90.3799 170.98V167.29C90.3799 167.18 90.3799 167.07 90.4099 166.96C90.4399 166.78 90.7499 165.12 92.1999 163.28C93.6599 161.42 95.7699 161.22 96.6099 161.22C96.7499 161.22 96.8699 161.22 96.9499 161.23H140.13L133.66 112.16C132.55 111.58 131.56 110.46 131.56 108.62C131.56 108.31 131.58 108.01 131.63 107.74H115.78C115.07 108.72 113.95 109.9 112.17 109.9C110.58 109.9 109.36 108.71 108.63 107.74H14.6299C12.2299 107.74 10.0599 106.41 8.96992 104.27C7.34992 101.09 4.58992 95.67 3.76992 94.05C3.21992 92.95 2.78992 91.77 2.47992 90.57C2.26992 89.74 2.16992 88.85 2.16992 87.93V77.88C2.16992 75.43 3.37992 73.14 5.40992 71.75L8.83992 69.41C9.91992 68.68 11.1699 68.29 12.4699 68.29H14.2499C14.6199 66.77 15.2999 65.18 16.5199 64.16C17.1099 63.67 17.8699 63.39 18.6499 63.39C19.5199 63.39 20.3499 63.71 20.9899 64.29C22.1699 65.35 22.7299 66.85 22.9799 68.29H100.81L101.99 66.82C102.26 66.5 103.22 65.46 104.51 64.82V57.41C104.51 54.75 104.7 52.17 105.08 49.73C103.73 49.83 102.42 49.87 101.16 49.87C97.7899 49.87 94.8899 49.52 92.5699 48.82C91.3399 48.45 90.5399 47.46 90.5399 46.3C90.5399 45.14 91.3299 44.16 92.5499 43.79C94.7599 43.12 97.4599 42.78 100.56 42.78C102.91 42.78 105.17 42.98 106.96 43.2C108.48 40.06 110.26 39.35 111.55 39.35C112.84 39.35 114.69 40.09 116.22 43.37C118.18 43.09 120.96 42.79 123.88 42.79C126.53 42.79 128.88 43.04 130.89 43.53V36C130.89 24.14 135.34 2 146.07 2C156.8 2 161.25 24.14 161.25 36V43.53C163.26 43.04 165.61 42.79 168.26 42.79C171.17 42.79 173.95 43.09 175.92 43.37C177.45 40.09 179.27 39.35 180.59 39.35C181.91 39.35 183.66 40.06 185.18 43.2C186.97 42.98 189.23 42.78 191.58 42.78C194.68 42.78 197.38 43.12 199.59 43.79C200.81 44.16 201.6 45.14 201.6 46.3C201.6 47.46 200.8 48.45 199.57 48.82C197.24 49.52 194.35 49.87 190.97 49.87C189.71 49.87 188.4 49.82 187.05 49.73C187.43 52.17 187.62 54.74 187.62 57.41V64.81C188.91 65.44 189.85 66.48 190.09 66.76L191.31 68.28H269.14C269.39 66.84 269.95 65.34 271.13 64.28C271.77 63.7 272.6 63.38 273.47 63.38C274.25 63.38 275.01 63.65 275.6 64.15C276.83 65.17 277.5 66.77 277.87 68.28H279.65C280.95 68.28 282.21 68.67 283.28 69.4L286.71 71.74C288.74 73.12 289.95 75.41 289.95 77.87V87.92C289.95 88.84 289.85 89.73 289.64 90.56C289.34 91.77 288.91 92.94 288.35 94.04C287.54 95.67 284.77 101.09 283.15 104.27C282.06 106.41 279.89 107.74 277.49 107.74H183.49C182.76 108.71 181.54 109.9 179.95 109.9C178.18 109.9 177.05 108.72 176.34 107.74H160.49C160.54 108.01 160.56 108.31 160.56 108.62C160.56 110.46 159.57 111.59 158.46 112.16L151.99 161.23H195.17C195.25 161.23 195.36 161.22 195.51 161.22C196.35 161.22 198.46 161.42 199.92 163.27C201.37 165.11 201.68 166.77 201.71 166.95C201.73 167.06 201.74 167.17 201.74 167.28V171.01C201.74 171.35 201.93 180.43 199.63 188.12C199.62 188.15 199.06 189.71 199.06 189.71C199.02 189.82 198.97 189.93 198.91 190.03C198.76 190.29 197.37 192.53 193.55 192.53H151.67C151.5 192.55 151.26 192.57 150.97 192.57C150.13 192.57 149.37 192.39 148.73 192.05V195.83C148.73 196.86 148.57 198.28 147.73 199.12C147.28 199.58 146.68 199.83 146.05 199.83L146.07 199.84ZM173.54 68.29V57.42C173.54 54.72 173.74 52.1 174.13 49.63C172.57 49.77 170.75 49.89 168.86 49.89C165.94 49.89 163.39 49.63 161.24 49.1V49.81C162.33 50.53 163.37 51.85 163.37 54.03C163.37 56.09 162.45 57.37 161.37 58.06V68.3H173.53L173.54 68.29ZM130.76 68.29V58.05C129.68 57.36 128.76 56.08 128.76 54.02C128.76 51.84 129.8 50.52 130.89 49.8V49.09C128.75 49.61 126.19 49.88 123.27 49.88C121.38 49.88 119.57 49.77 118 49.62C118.39 52.09 118.59 54.7 118.59 57.41V68.28H130.75L130.76 68.29Z" fill="white"/>
<path d="M146.07 4C155.03 4 159.25 24.91 159.25 36V51.09C159.25 51.09 161.38 51.46 161.38 54.02C161.38 56.58 159.38 56.69 159.38 56.69V70.29H175.54V57.42C175.54 54.52 175.77 51.63 176.31 48.78C176.4 48.3 176.51 47.82 176.63 47.33C174.83 47.57 171.95 47.88 168.86 47.88C166.15 47.88 163.27 47.64 160.84 46.91C160.04 46.67 160.03 45.95 160.82 45.71C163.1 45.02 165.73 44.79 168.25 44.79C171.9 44.79 175.32 45.28 177.16 45.6C178 43.25 179.22 41.36 180.58 41.36C181.94 41.36 183.09 43.14 183.92 45.4C185.85 45.11 188.64 44.8 191.57 44.8C194.1 44.8 196.73 45.03 199 45.72C199.79 45.96 199.78 46.68 198.98 46.92C196.55 47.65 193.67 47.89 190.96 47.89C188.57 47.89 186.31 47.71 184.57 47.51C184.68 47.93 184.77 48.36 184.85 48.78C185.39 51.63 185.62 54.52 185.62 57.42V66.32C187.06 66.32 188.58 68.08 188.58 68.08L190.36 70.29H270.98C270.99 69.07 271.21 66.92 272.48 65.78C272.76 65.53 273.12 65.4 273.48 65.4C273.78 65.4 274.09 65.5 274.33 65.7C275.61 66.77 276.06 69.03 276.21 70.3H279.66C280.55 70.3 281.43 70.57 282.17 71.07L285.6 73.41C287.08 74.42 287.97 76.09 287.97 77.88V87.93C287.97 88.65 287.89 89.38 287.72 90.08C287.52 90.88 287.17 91.98 286.59 93.15C285.78 94.78 283.02 100.19 281.4 103.36C280.66 104.82 279.16 105.73 277.52 105.73H182.44C181.9 106.71 180.92 107.89 179.98 107.89C178.73 107.89 177.97 106.53 177.44 105.73H157.2L157.09 106.48C157.09 106.48 158.58 106.69 158.58 108.61C158.58 110.53 156.66 110.64 156.66 110.64L149.73 163.23H195.28C195.28 163.23 195.37 163.22 195.54 163.22C196.1 163.22 197.47 163.35 198.38 164.51C199.55 166 199.77 167.28 199.77 167.28V171.01C199.77 171.01 199.98 180.08 197.74 187.54L197.21 189.03C197.21 189.03 196.36 190.52 193.58 190.52H151.55C151.55 190.52 151.32 190.56 151 190.56C150.32 190.56 149.21 190.38 148.78 189.26C148.14 187.61 147.87 186.38 147.87 186.38C147.87 186.38 147.82 186.38 147.74 186.38C147.44 186.38 146.75 186.48 146.75 187.4V195.83C146.75 195.83 146.76 197.83 146.08 197.83C145.33 197.83 145.41 195.83 145.41 195.83V187.4C145.41 186.48 144.72 186.38 144.42 186.38C144.34 186.38 144.29 186.38 144.29 186.38C144.29 186.38 144.02 187.61 143.38 189.26C142.95 190.37 141.84 190.56 141.16 190.56C140.83 190.56 140.61 190.52 140.61 190.52H98.5799C95.8099 190.52 94.9499 189.03 94.9499 189.03L94.4199 187.54C92.1799 180.07 92.3899 171.01 92.3899 171.01V167.28C92.3899 167.28 92.5999 166 93.7799 164.51C94.6899 163.35 96.0599 163.22 96.6199 163.22C96.7799 163.22 96.8799 163.23 96.8799 163.23H142.43L135.5 110.64C135.5 110.64 133.58 110.53 133.58 108.61C133.58 106.69 135.07 106.48 135.07 106.48L134.96 105.73H114.72C114.19 106.53 113.43 107.89 112.18 107.89C111.24 107.89 110.26 106.71 109.72 105.73H14.6299C12.9899 105.73 11.4899 104.82 10.7499 103.36C9.12992 100.19 6.36992 94.77 5.55992 93.15C4.96992 91.97 4.62992 90.88 4.42992 90.08C4.24992 89.38 4.17992 88.65 4.17992 87.93V77.88C4.17992 76.09 5.06992 74.41 6.54992 73.41L9.97992 71.07C10.7199 70.57 11.5899 70.3 12.4899 70.3H15.9399C16.0899 69.04 16.5399 66.78 17.8199 65.7C18.0599 65.5 18.3699 65.4 18.6699 65.4C19.0299 65.4 19.3899 65.53 19.6699 65.78C20.9399 66.92 21.1499 69.07 21.1699 70.29H101.78L103.56 68.08C103.56 68.08 105.08 66.32 106.52 66.32V57.42C106.52 54.52 106.75 51.63 107.29 48.78C107.37 48.36 107.46 47.93 107.57 47.51C105.83 47.71 103.56 47.89 101.18 47.89C98.4699 47.89 95.5899 47.65 93.1599 46.92C92.3599 46.68 92.3499 45.96 93.1399 45.72C95.4199 45.03 98.0499 44.8 100.57 44.8C103.5 44.8 106.28 45.12 108.22 45.4C109.06 43.14 110.24 41.36 111.56 41.36C112.88 41.36 114.14 43.25 114.98 45.6C116.81 45.28 120.24 44.79 123.89 44.79C126.42 44.79 129.05 45.02 131.32 45.71C132.11 45.95 132.1 46.67 131.3 46.91C128.86 47.64 125.99 47.88 123.28 47.88C120.2 47.88 117.31 47.57 115.51 47.33C115.63 47.81 115.74 48.3 115.83 48.78C116.37 51.63 116.6 54.52 116.6 57.42V70.29H132.76V56.69C132.76 56.69 130.76 56.58 130.76 54.02C130.76 51.46 132.89 51.09 132.89 51.09V36C132.89 24.91 137.11 4 146.07 4ZM146.07 0C131.81 0 128.89 28.4 128.89 36V41.12C127.35 40.9 125.68 40.79 123.88 40.79C121.49 40.79 119.2 40.98 117.34 41.21C115.48 38.1 113.26 37.35 111.56 37.35C109.86 37.35 107.71 38.07 105.86 41.07C104.27 40.91 102.45 40.79 100.57 40.79C97.2699 40.79 94.3799 41.16 91.9799 41.89C89.9299 42.51 88.5499 44.29 88.5499 46.32C88.5499 48.35 89.9399 50.13 92.0099 50.75C94.5299 51.5 97.6099 51.89 101.18 51.89C101.71 51.89 102.26 51.89 102.81 51.86C102.62 53.66 102.53 55.52 102.53 57.42V63.69C101.55 64.37 100.85 65.11 100.54 65.47C100.51 65.51 100.48 65.54 100.45 65.58L99.8699 66.3H24.5499C24.1299 65.04 23.4399 63.8 22.3399 62.81C21.3299 61.9 20.0199 61.4 18.6699 61.4C17.4199 61.4 16.1999 61.84 15.2499 62.63C14.0699 63.61 13.2999 64.94 12.7899 66.3H12.4799C10.7799 66.3 9.12992 66.81 7.71992 67.77L4.28992 70.11C1.70992 71.86 0.169922 74.77 0.169922 77.89V87.94C0.169922 89.02 0.289922 90.07 0.539922 91.06C0.879922 92.41 1.35992 93.72 1.97992 94.95C2.79992 96.59 5.58992 102.07 7.17992 105.19C8.60992 108 11.4699 109.75 14.6299 109.75H107.69C108.73 110.87 110.22 111.91 112.17 111.91C114.29 111.91 115.76 110.83 116.73 109.75H129.65C129.92 111.29 130.73 112.51 131.79 113.34L137.84 159.24H96.9899C96.8799 159.24 96.7499 159.23 96.5999 159.23C94.1999 159.23 92.0199 160.26 90.6199 162.05C88.9499 164.18 88.5199 166.1 88.4299 166.64C88.3899 166.86 88.3799 167.08 88.3799 167.3V170.99C88.3599 171.84 88.2399 180.95 90.5799 188.72C90.5999 188.79 90.6199 188.85 90.6399 188.92L91.1699 190.41C91.2499 190.63 91.3499 190.85 91.4599 191.05C91.7899 191.64 93.7099 194.56 98.5599 194.56H140.33C140.55 194.58 140.83 194.6 141.14 194.6C141.22 194.6 141.3 194.6 141.39 194.6V195.8C141.35 197.22 141.58 199.15 142.88 200.51C143.72 201.39 144.86 201.87 146.06 201.87C147.26 201.87 148.33 201.41 149.16 200.57C150.22 199.5 150.75 197.91 150.74 195.84V194.6C150.82 194.6 150.9 194.6 150.99 194.6C151.3 194.6 151.58 194.58 151.8 194.56H193.57C198.42 194.56 200.33 191.64 200.67 191.05C200.79 190.85 200.88 190.63 200.96 190.41L201.49 188.92C201.51 188.86 201.53 188.79 201.55 188.72C203.88 180.95 203.76 171.84 203.75 170.99V167.3C203.75 167.08 203.73 166.86 203.7 166.64C203.61 166.1 203.19 164.19 201.51 162.05C200.1 160.26 197.92 159.23 195.53 159.23C195.38 159.23 195.25 159.23 195.14 159.24H154.29L160.34 113.34C161.4 112.51 162.22 111.3 162.48 109.75H175.4C176.37 110.83 177.83 111.91 179.96 111.91C181.91 111.91 183.41 110.87 184.44 109.75H277.5C280.66 109.75 283.51 108 284.95 105.19C286.54 102.07 289.33 96.59 290.15 94.95C290.77 93.71 291.25 92.4 291.59 91.06C291.84 90.07 291.96 89.02 291.96 87.94V77.89C291.96 74.77 290.42 71.86 287.84 70.11L284.41 67.77C283 66.81 281.36 66.3 279.65 66.3H279.34C278.83 64.94 278.05 63.62 276.88 62.63C275.93 61.84 274.72 61.4 273.47 61.4C272.11 61.4 270.81 61.9 269.79 62.81C268.69 63.8 268 65.03 267.58 66.3H192.27L191.69 65.58C191.69 65.58 191.63 65.51 191.6 65.47C191.29 65.11 190.59 64.37 189.61 63.69V57.42C189.61 55.52 189.52 53.66 189.33 51.86C189.88 51.88 190.42 51.89 190.96 51.89C194.53 51.89 197.61 51.51 200.13 50.75C202.2 50.13 203.59 48.35 203.59 46.32C203.59 44.29 202.22 42.51 200.16 41.89C197.76 41.16 194.87 40.79 191.57 40.79C189.69 40.79 187.86 40.91 186.28 41.07C184.43 38.07 182.25 37.35 180.58 37.35C178.91 37.35 176.66 38.09 174.8 41.21C172.94 40.99 170.64 40.79 168.26 40.79C166.47 40.79 164.79 40.9 163.25 41.12V36C163.25 28.4 160.33 0 146.07 0ZM163.38 59.01C164.56 57.88 165.38 56.19 165.38 54.03C165.38 53.19 165.26 52.42 165.05 51.73C166.25 51.84 167.52 51.89 168.87 51.89C169.89 51.89 170.89 51.86 171.84 51.81C171.65 53.63 171.55 55.51 171.55 57.42V66.29H163.39V59L163.38 59.01ZM123.28 51.89C124.62 51.89 125.89 51.84 127.1 51.73C126.89 52.42 126.77 53.19 126.77 54.03C126.77 56.19 127.59 57.87 128.77 59.01V66.3H120.61V57.43C120.61 55.51 120.51 53.64 120.32 51.82C121.27 51.87 122.27 51.9 123.29 51.9L123.28 51.89Z" fill="black"/>
</g>
<defs>
<clipPath id="clip0_637_7">
<rect width="291.8" height="201.84" fill="white" transform="translate(0.169922)"/>
</clipPath>
</defs>
</svg>
