<svg width="214" height="214" viewBox="0 0 214 214" fill="none" xmlns="http://www.w3.org/2000/svg">
<g clip-path="url(#clip0_651_2)">
<path d="M142.49 212.33C142.33 212.33 142.17 212.31 142 212.27C141.31 212.1 115.66 204.35 109.05 202.35C108.64 210.01 107.84 210.01 107 210.01C106.16 210.01 105.36 210.01 104.95 202.35C98.3405 204.35 72.6805 212.11 72.0005 212.27C71.8305 212.31 71.6705 212.33 71.5105 212.33C70.5905 212.33 70.0405 211.65 69.9705 210.98V203.97C69.9705 202.35 71.0705 201.3 71.7705 200.91C72.9105 200.14 98.6005 182.82 103.09 179.75C101.83 174.63 100.91 167.7 100.65 165.63C100.64 165.53 100.58 165.44 100.48 165.38L94.6505 162.04C94.4105 162.68 94.0105 162.95 93.4205 163.14C92.6405 163.37 91.7405 163.47 90.6805 163.47C89.1605 163.47 87.7605 163.25 87.3005 163.18C86.2705 163.02 85.8305 162.2 85.7105 161.68C85.5805 161.25 84.7705 158.36 83.0205 148.88C81.1405 138.68 82.6405 126.91 82.8005 126.38C82.8905 126.09 83.1405 125.22 84.1905 124.95C85.5305 124.5 87.0605 124.25 88.6705 124.25C91.2305 124.25 93.1305 124.87 93.2105 124.9C93.9505 125.15 94.2805 125.57 94.5905 125.99C94.7605 126.21 94.9505 126.55 95.1505 127.43H95.8105L94.8505 117.38L89.4005 117.03C89.3205 117.03 89.2305 117.03 89.1505 117.03C88.7905 117.03 88.4405 117.08 88.0905 117.18L78.0705 120C78.0005 121.83 77.6705 125.69 76.1505 125.72H76.1305C75.5305 125.72 74.7505 125.68 74.4205 121.02L57.0905 125.9C57.0005 127.54 56.6305 131.11 55.1505 131.11C54.6005 131.11 53.7905 131.11 53.6105 126.87L41.4705 130.28C41.3605 131.8 40.9205 133.89 40.3305 134.49C40.1105 134.72 39.8205 134.84 39.5205 134.84C39.2505 134.84 38.9505 134.71 38.7605 134.52C38.2905 134.04 38.0905 132.43 38.0105 131.26C24.9305 134.93 17.2405 137.07 15.1305 137.64C14.7505 138.93 13.8205 139.39 13.0305 139.39C12.8505 139.39 12.7405 139.37 12.7405 139.37L11.9005 139.29L2.94047 144.87C2.74047 145 2.50047 145.07 2.26047 145.07C1.55047 145.07 0.980469 144.49 0.980469 143.78V142.35C0.980469 142.01 1.11047 141.68 1.36047 141.44C3.63047 139.2 8.25047 133.37 10.5705 130.05C12.0305 127.95 12.5705 126.71 12.7605 126.16C12.9705 125.54 13.4005 125.02 13.9705 124.69L94.7405 77.33L94.6805 35.36C96.6005 11.39 104.69 1.12 107 1.12C109.31 1.12 117.4 11.39 119.29 35.27L119.23 77.32L200 124.68C200.57 125.01 201 125.53 201.21 126.15C201.4 126.7 201.94 127.93 203.4 130.04C205.72 133.37 210.34 139.19 212.61 141.43C212.86 141.67 212.99 142 212.99 142.34V143.77C212.99 144.48 212.41 145.06 211.71 145.06C211.47 145.06 211.24 144.99 211.03 144.86L202.08 139.28L201.18 139.36C201.18 139.36 201.08 139.37 200.95 139.37C200.16 139.37 199.23 138.9 198.85 137.62C196.75 137.06 189.24 134.97 175.97 131.24C175.89 132.42 175.69 134.02 175.21 134.5C175.02 134.69 174.72 134.82 174.45 134.82C174.15 134.82 173.87 134.7 173.64 134.47C173.05 133.86 172.61 131.78 172.5 130.26L160.36 126.85C160.18 131.09 159.37 131.09 158.82 131.09C157.34 131.09 156.97 127.52 156.88 125.88L139.55 121C139.22 125.7 138.44 125.7 137.85 125.7C136.31 125.66 135.98 121.81 135.91 119.98L125.89 117.16C125.55 117.06 125.19 117.01 124.83 117.01C124.75 117.01 124.66 117.01 124.58 117.01L119.13 117.36L118.17 127.41H118.83C119.03 126.54 119.22 126.2 119.37 126.01C119.7 125.57 120.03 125.15 120.77 124.9C120.85 124.87 122.74 124.25 125.31 124.25C126.92 124.25 128.45 124.49 129.86 124.97C130.84 125.22 131.09 126.09 131.18 126.37C131.34 126.91 132.84 138.69 130.96 148.88C129.21 158.36 128.4 161.25 128.27 161.68C128.16 162.2 127.72 163.02 126.7 163.18C126.22 163.26 124.82 163.47 123.3 163.47C122.24 163.47 121.33 163.36 120.6 163.15C119.99 162.94 119.57 162.68 119.33 162.03L113.5 165.38C113.41 165.43 113.35 165.52 113.34 165.63C113.08 167.7 112.16 174.63 110.9 179.75C115.39 182.82 141.08 200.14 142.22 200.91C142.91 201.3 144.02 202.35 144.02 203.97V210.88C144.02 210.88 144.02 210.95 144.02 210.98C143.95 211.65 143.4 212.33 142.48 212.33H142.49Z" fill="white"/>
<path d="M107 2.12C108.47 2.12 116.41 11.53 118.29 35.35L118.23 77.46C118.23 77.73 118.37 77.98 118.6 78.11L199.49 125.54C199.85 125.75 200.13 126.08 200.26 126.48C200.5 127.16 201.09 128.47 202.58 130.61C204.9 133.95 209.58 139.85 211.91 142.14C211.96 142.19 211.99 142.26 211.99 142.34V143.77C211.99 143.94 211.85 144.05 211.71 144.05C211.66 144.05 211.61 144.04 211.56 144.01L202.55 138.4C202.42 138.32 202.27 138.28 202.12 138.28C202.09 138.28 202.07 138.28 202.04 138.28L201.05 138.37C201.05 138.37 201.01 138.37 200.94 138.37C200.67 138.37 199.98 138.25 199.75 137.12C199.71 136.93 199.57 136.78 199.38 136.73C197.46 136.23 187.26 133.38 175.03 129.94C175.05 131.09 174.75 133.83 174.45 133.83C174.1 133.83 173.45 131.24 173.48 129.5C168.92 128.22 164.13 126.87 159.4 125.55C159.38 127.09 159.1 130.1 158.82 130.1C158.49 130.1 157.89 127.25 157.85 125.12C150.88 123.16 144.14 121.26 138.62 119.71C138.54 121.5 138.16 124.71 137.85 124.71C137.49 124.71 136.91 121.62 136.89 119.23C131.67 117.76 127.76 116.66 126.16 116.21C125.73 116.09 125.28 116.03 124.83 116.03C124.73 116.03 124.62 116.03 124.52 116.04L118.88 116.4C118.5 116.42 118.2 116.72 118.16 117.09L117.08 128.42L119.35 128.44C119.53 128.44 119.68 128.31 119.71 128.14C119.79 127.7 119.96 126.9 120.16 126.64C120.45 126.27 120.62 126.02 121.09 125.87C121.38 125.77 123.08 125.27 125.31 125.27C126.59 125.27 128.06 125.43 129.54 125.93C130.05 126.06 130.16 126.46 130.22 126.68C130.29 126.9 131.85 138.51 129.97 148.71C128.09 158.91 127.29 161.44 127.29 161.44C127.29 161.44 127.18 162.09 126.54 162.19C126.13 162.25 124.75 162.47 123.29 162.47C122.46 162.47 121.59 162.4 120.87 162.19C120.46 162.05 120.28 161.98 120.16 161.3C120.04 160.62 120.1 160.43 120.1 160.43L112.99 164.51C112.63 164.72 112.38 165.08 112.33 165.5C112.05 167.72 111.08 175.08 109.74 180.17C111.71 181.55 141.68 201.76 141.68 201.76C141.68 201.76 143 202.47 143 203.97V210.88C143 210.88 142.96 211.32 142.46 211.32C142.39 211.32 142.3 211.31 142.21 211.29C141.47 211.11 108.09 201.01 108.09 201.01C108.09 201.01 107.74 208.99 106.98 208.99C106.22 208.99 105.87 201.01 105.87 201.01C105.87 201.01 72.49 211.11 71.75 211.29C71.65 211.31 71.57 211.32 71.5 211.32C71.01 211.32 70.96 210.88 70.96 210.88V203.97C70.96 202.47 72.28 201.76 72.28 201.76C72.28 201.76 102.25 181.56 104.22 180.17C102.89 175.08 101.91 167.72 101.63 165.5C101.58 165.09 101.33 164.72 100.97 164.51L93.86 160.43C93.86 160.43 93.92 160.62 93.8 161.3C93.68 161.98 93.51 162.05 93.09 162.19C92.36 162.4 91.5 162.47 90.67 162.47C89.21 162.47 87.83 162.25 87.42 162.19C86.78 162.09 86.67 161.44 86.67 161.44C86.67 161.44 85.88 158.91 83.99 148.71C82.1 138.51 83.67 126.9 83.74 126.68C83.81 126.46 83.92 126.06 84.42 125.93C85.9 125.43 87.36 125.27 88.65 125.27C90.89 125.27 92.58 125.77 92.87 125.87C93.33 126.02 93.51 126.27 93.8 126.64C94 126.91 94.17 127.7 94.25 128.14C94.28 128.31 94.43 128.44 94.61 128.44L96.88 128.42L95.8 117.09C95.76 116.71 95.46 116.42 95.08 116.4L89.44 116.04C89.34 116.04 89.23 116.03 89.13 116.03C88.68 116.03 88.24 116.09 87.8 116.21C86.19 116.66 82.29 117.76 77.07 119.23C77.05 121.62 76.48 124.71 76.11 124.71C75.81 124.71 75.42 121.5 75.34 119.71C69.82 121.26 63.08 123.16 56.11 125.12C56.07 127.24 55.47 130.1 55.14 130.1C54.86 130.1 54.58 127.09 54.56 125.55C49.83 126.88 45.04 128.23 40.48 129.5C40.51 131.24 39.86 133.83 39.51 133.83C39.21 133.83 38.92 131.09 38.93 129.94C26.69 133.37 16.5 136.22 14.58 136.73C14.39 136.78 14.25 136.93 14.21 137.12C13.97 138.26 13.28 138.37 13.02 138.37C12.95 138.37 12.91 138.37 12.91 138.37L11.92 138.28C11.92 138.28 11.87 138.28 11.84 138.28C11.69 138.28 11.54 138.32 11.41 138.4L2.4 144.01C2.4 144.01 2.3 144.05 2.25 144.05C2.1 144.05 1.97 143.93 1.97 143.77V142.34C1.97 142.26 2 142.19 2.05 142.14C4.37 139.84 9.05 133.95 11.38 130.61C12.87 128.47 13.46 127.16 13.7 126.48C13.84 126.09 14.11 125.75 14.47 125.54L95.36 78.11C95.59 77.97 95.73 77.73 95.73 77.46L95.67 35.35C97.55 11.53 105.49 2.12 106.96 2.12M107 0.119995C103.92 0.119995 100.62 6.89999 99.68 8.97999C97.52 13.76 94.74 22.19 93.71 35.19C93.71 35.24 93.71 35.3 93.71 35.35L93.77 76.75L13.49 123.82C12.72 124.27 12.13 124.99 11.84 125.83C11.7 126.23 11.22 127.4 9.77 129.48C7.48 132.77 2.92 138.52 0.68 140.73C0.24 141.16 0 141.74 0 142.35V143.78C0 145.04 1.02 146.06 2.28 146.06C2.71 146.06 3.12 145.94 3.49 145.71L12.16 140.31L12.71 140.36C12.8 140.37 12.91 140.38 13.04 140.38C14.03 140.38 15.26 139.86 15.9 138.46C18.5 137.75 25.62 135.77 37.13 132.54C37.28 133.6 37.55 134.7 38.07 135.22C38.47 135.62 38.99 135.84 39.54 135.84C40.09 135.84 40.65 135.61 41.06 135.19C41.82 134.42 42.24 132.54 42.41 131.06C45.78 130.11 49.26 129.14 52.74 128.16C52.76 128.32 52.77 128.48 52.79 128.64C52.95 130.02 53.18 132.11 55.16 132.11C57.14 132.11 57.47 130.04 57.72 128.81C57.86 128.12 57.97 127.38 58.04 126.67C63.57 125.11 68.92 123.61 73.58 122.3C73.61 122.6 73.65 122.89 73.69 123.17C73.9 124.67 74.19 126.72 76.14 126.72C76.16 126.72 76.17 126.72 76.19 126.72C78.1 126.67 78.47 124.6 78.72 123.23C78.86 122.45 78.97 121.6 79.03 120.77L88.38 118.14C88.64 118.07 88.9 118.03 89.16 118.03C89.22 118.03 89.28 118.03 89.35 118.03L93.94 118.32L94.53 124.48C94.27 124.28 93.94 124.1 93.53 123.96C93.32 123.89 91.35 123.26 88.68 123.26C86.98 123.26 85.37 123.51 83.87 124.01C83.16 124.22 82.26 124.75 81.86 126.09C81.69 126.67 80.11 138.51 82.06 149.07C83.76 158.28 84.59 161.34 84.76 161.93C84.99 162.92 85.79 163.96 87.14 164.17C87.64 164.25 89.11 164.48 90.7 164.48C91.85 164.48 92.85 164.36 93.68 164.12C93.71 164.12 93.74 164.1 93.76 164.09C94.18 163.95 94.62 163.75 94.99 163.38L99.71 166.09C100 168.4 100.83 174.49 101.97 179.32C96.28 183.19 72.67 199.11 71.25 200.07C70.36 200.59 68.98 201.93 68.98 203.98V210.89C68.98 210.96 68.98 211.02 68.98 211.09C69.09 212.18 70.01 213.34 71.51 213.34C71.74 213.34 71.99 213.31 72.23 213.25C72.91 213.09 95.35 206.3 104.04 203.68C104.08 204.17 104.12 204.68 104.16 205.21C104.45 208.33 104.69 211.02 107 211.02C109.31 211.02 109.55 208.33 109.84 205.21C109.89 204.69 109.93 204.17 109.96 203.68C118.65 206.31 141.09 213.09 141.77 213.25C142.01 213.31 142.26 213.34 142.49 213.34C143.99 213.34 144.91 212.18 145.02 211.09C145.02 211.02 145.02 210.96 145.02 210.89V203.98C145.02 201.94 143.64 200.6 142.75 200.07C141.33 199.11 117.72 183.19 112.03 179.32C113.16 174.49 113.99 168.4 114.29 166.09L119.01 163.38C119.38 163.75 119.81 163.95 120.24 164.09C120.27 164.09 120.3 164.11 120.32 164.12C121.14 164.36 122.15 164.48 123.3 164.48C124.89 164.48 126.35 164.25 126.83 164.18C128.21 163.97 129.01 162.93 129.24 161.94C129.41 161.35 130.24 158.29 131.94 149.08C133.89 138.52 132.31 126.68 132.14 126.11C131.74 124.76 130.84 124.23 130.13 124.02C128.63 123.52 127.01 123.27 125.32 123.27C122.64 123.27 120.68 123.9 120.47 123.97C120.06 124.11 119.73 124.29 119.47 124.49L120.06 118.33L124.65 118.04C124.71 118.04 124.77 118.04 124.83 118.04C125.1 118.04 125.36 118.08 125.61 118.15L134.96 120.78C135.02 121.6 135.13 122.46 135.27 123.24C135.52 124.61 135.89 126.69 137.8 126.73C139.8 126.73 140.09 124.68 140.3 123.18C140.34 122.9 140.38 122.61 140.41 122.31C145.07 123.62 150.41 125.13 155.95 126.68C156.02 127.39 156.13 128.13 156.27 128.82C156.52 130.05 156.93 132.12 158.83 132.12C160.73 132.12 161.05 130.03 161.2 128.65C161.22 128.49 161.23 128.34 161.25 128.17C164.73 129.15 168.21 130.13 171.58 131.07C171.75 132.55 172.17 134.43 172.93 135.2C173.34 135.62 173.88 135.85 174.45 135.85C175.02 135.85 175.53 135.63 175.92 135.23C176.44 134.71 176.71 133.61 176.86 132.55C188.37 135.78 195.49 137.76 198.09 138.47C198.72 139.87 199.96 140.39 200.95 140.39C201.08 140.39 201.19 140.39 201.28 140.37L201.83 140.32L210.5 145.72C210.86 145.95 211.28 146.07 211.71 146.07C212.97 146.07 213.99 145.05 213.99 143.79V142.36C213.99 141.75 213.75 141.17 213.31 140.74C211.07 138.53 206.51 132.78 204.22 129.49C202.77 127.41 202.29 126.25 202.15 125.84C201.86 125 201.27 124.29 200.5 123.83L120.22 76.76L120.28 35.36C120.28 35.31 120.28 35.25 120.28 35.2C119.25 22.2 116.47 13.77 114.31 8.99C113.37 6.91 110.07 0.129995 106.99 0.129995L107 0.119995Z" fill="black"/>
</g>
<defs>
<clipPath id="clip0_651_2">
<rect width="214" height="213.21" fill="white" transform="translate(0 0.119995)"/>
</clipPath>
</defs>
</svg>
