<svg width="242" height="337" viewBox="0 0 242 337" fill="none" xmlns="http://www.w3.org/2000/svg">
<g clip-path="url(#clip0_852_102)">
<path d="M163.03 334.247C162.83 334.247 162.61 334.217 162.42 334.157L125.28 319.869C124.41 326.031 123.14 328.293 120.75 328.293C118.36 328.293 117.08 326.031 116.22 319.869L79.0799 334.157C78.8799 334.217 78.6699 334.247 78.4699 334.247H76.7999C75.6199 334.247 74.6599 333.294 74.6599 332.123V324.215C74.6599 322.201 74.8299 320.841 77.1699 319.095L112.66 299.092L112.1 295.996C110.6 287.731 108.93 278.414 107.34 268.967L101.16 265.008C101 265.505 100.84 266.04 100.66 266.596C100.38 267.479 99.5699 268.074 98.6399 268.084C98.6399 268.084 94.7799 268.124 94.7699 268.124C93.8599 268.124 93.0399 267.549 92.7499 266.695C90.1999 259.293 89.7099 257.041 88.5299 250.909C86.9199 250.175 85.7899 248.914 85.4099 247.357C85.3899 247.257 85.3699 247.158 85.3599 247.059C84.6099 239.339 84.9299 228.633 85.1199 227.046L85.1399 226.877C85.5599 223.275 88.2299 222.084 96.1599 221.995H96.9399C99.6799 221.995 100.75 222.144 102.29 222.521L102.27 195.612H78.7399L11.3799 214.415C8.8699 217.103 6.8699 219.197 4.6299 219.614C4.4999 219.634 4.3599 219.644 4.2299 219.644C3.7199 219.644 3.2299 219.465 2.8299 219.128C2.3399 218.701 2.0699 218.076 2.0899 217.431C2.3699 211.259 3.0399 207.707 5.0799 201.873V198.797C5.0799 196.336 6.3799 195.135 9.1299 193.538C9.1799 193.508 9.2299 193.488 9.2799 193.449L77.3399 160.437L103.26 142.755V38.3229C103.25 28.3608 110.4 7.61325 119.69 2.73146C120 2.5727 120.34 2.4834 120.69 2.4834C121.04 2.4834 121.37 2.5727 121.69 2.73146C130.98 7.61325 138.13 28.3608 138.13 38.3229V142.755L164.06 160.437L232.12 193.449C232.12 193.449 232.22 193.498 232.27 193.538C235.02 195.145 236.32 196.336 236.32 198.797V201.873C238.36 207.707 239.03 211.259 239.31 217.431C239.34 218.076 239.06 218.701 238.57 219.128C238.17 219.465 237.68 219.644 237.17 219.644C237.04 219.644 236.9 219.634 236.77 219.604C234.53 219.177 232.52 217.094 230.02 214.405L162.65 195.602H139.13L139.15 222.511C140.69 222.134 142.76 221.985 145.5 221.985H145.28C153.21 222.075 155.88 223.255 156.3 226.867L156.32 227.046C156.52 228.623 156.84 239.339 156.08 247.059C156.08 247.158 156.05 247.257 156.03 247.357C155.65 248.914 154.51 250.185 152.91 250.909C151.72 257.051 151.24 259.283 148.69 266.695C148.39 267.559 147.58 268.124 146.67 268.124L143.8 268.084C142.87 268.084 142.06 267.479 141.78 266.596C141.6 266.03 141.44 265.515 141.28 265.008L134.1 268.967C132.52 278.414 130.84 287.741 129.34 295.996L128.78 299.092L164.19 319.026C166.62 320.841 166.79 322.201 166.79 324.215V332.123C166.79 333.294 165.83 334.247 164.65 334.247H162.98V334.266L163.03 334.247Z" fill="white"/>
<path d="M120.72 4.60695C129.05 8.97278 136.03 28.6488 136.03 38.3131V143.837L163 162.253L231.23 195.334C233.89 196.892 234.22 197.517 234.22 198.767V202.2C236.33 208.164 236.95 211.527 237.21 217.491C235.59 217.183 233.68 215.139 231.41 212.698L231.23 212.5L163 193.459H137.04L137.06 227.006H137.3C137.5 225.567 137.49 224.079 145.55 224.079C145.8 224.079 145.05 224.079 145.31 224.079C154.29 224.178 154.06 225.756 154.25 227.284C154.44 228.802 154.74 239.28 154.01 246.831C153.67 248.2 152.4 248.984 151.09 249.282L151.05 249.53C149.72 256.446 149.35 258.351 146.72 265.991L145.8 265.971L143.88 265.951C143.38 264.384 142.97 263.054 142.63 261.873L132.23 267.598C130.31 279.168 128.17 290.837 126.51 300.064L163.06 320.772C164.73 322.022 164.73 322.648 164.73 324.205V332.113H163.06L123.5 317.101C123.13 320.504 122.34 326.16 120.77 326.16C119.2 326.16 118.42 320.504 118.04 317.101L78.4801 332.113H76.8101V324.205C76.8101 322.648 76.8101 322.022 78.4801 320.772L115.03 300.064C113.36 290.827 111.23 279.168 109.31 267.598L99.9001 261.873C99.5501 263.054 99.1401 264.374 98.6501 265.951L96.7301 265.971L94.8101 265.991C92.1801 258.361 91.8201 256.446 90.4801 249.53L90.4401 249.282C89.1401 248.984 87.8601 248.2 87.5201 246.831C86.7801 239.28 87.0901 228.802 87.2801 227.284C87.4701 225.766 87.2401 224.188 96.2201 224.079H96.9801C105.04 224.079 104.02 225.567 104.23 227.006H104.47L104.45 193.459H78.4901L10.2601 212.5L10.0801 212.698C7.80007 215.139 5.89007 217.193 4.28007 217.491C4.55007 211.517 5.17007 208.164 7.27007 202.2V198.767C7.27007 197.517 7.60007 196.892 10.2601 195.334L78.4901 162.253L105.45 143.837V38.323C105.44 28.6388 112.42 8.9827 120.75 4.61688M120.76 0.370117C120.08 0.370117 119.38 0.528875 118.76 0.856312C108.68 6.14492 101.18 27.6268 101.18 38.323V141.664L76.3001 158.611L8.39007 191.544C8.29007 191.593 8.19007 191.653 8.09007 191.702C5.41007 193.27 2.99007 194.997 2.99007 198.787V201.506C0.980069 207.35 0.290069 211.021 6.94173e-05 217.322C-0.0499306 218.612 0.480069 219.862 1.46007 220.715C2.24007 221.39 3.24007 221.757 4.26007 221.757C4.53007 221.757 4.78007 221.737 5.05007 221.688C7.83007 221.172 9.99007 219.039 12.5601 216.28L79.0601 197.725H100.16L101.18 220.021C99.8301 219.892 98.4001 219.862 96.9801 219.862H96.1701C89.6501 219.932 83.7501 220.497 83.0501 226.629L83.0301 226.778C82.7701 228.802 82.5101 239.608 83.2501 247.258C83.2701 247.456 83.3001 247.664 83.3601 247.863C83.8201 249.718 84.9801 251.266 86.6501 252.298C87.7201 257.825 88.3001 260.256 90.7501 267.38C91.3401 269.097 92.9701 270.258 94.7901 270.258H94.8301L96.7501 270.238L98.6701 270.218C100.2 270.198 100.59 269.384 101.32 268.095L105.39 270.347C106.92 279.475 108.54 288.455 109.99 296.443L110.3 298.149L76.0401 317.309C75.9901 317.349 75.9301 317.379 75.8801 317.428C72.7701 319.76 72.5101 321.893 72.5101 324.245V332.153C72.5101 334.495 74.4201 336.39 76.7801 336.39H78.4501C78.8701 336.39 79.2701 336.33 79.6701 336.211L114.45 322.628C115.23 326.726 116.79 330.446 120.73 330.446C124.67 330.446 126.23 326.726 127.01 322.628L161.79 336.211C162.19 336.33 162.6 336.39 163.01 336.39H164.68C167.04 336.39 168.95 334.495 168.95 332.153V324.245C168.95 321.893 168.69 319.76 165.59 317.428C165.54 317.389 165.48 317.359 165.43 317.309L131.17 298.149L131.48 296.423C132.92 288.445 134.55 279.475 136.08 270.347L140.15 268.095C140.9 269.375 142.28 270.208 143.8 270.218L145.72 270.238L146.64 270.258H146.68C148.51 270.258 150.13 269.107 150.72 267.38C153.18 260.246 153.76 257.825 154.82 252.298C156.49 251.256 157.66 249.708 158.11 247.853C158.16 247.655 158.2 247.456 158.22 247.258C158.97 239.598 158.7 228.792 158.44 226.778L158.42 226.629C157.73 220.507 151.82 219.941 145.3 219.862C145.02 219.862 145.75 219.862 145.5 219.862C144.07 219.862 142.65 219.892 141.3 220.021L141.28 197.725H162.38L228.88 216.28C231.47 219.039 233.61 221.162 236.39 221.688C236.66 221.737 236.91 221.757 237.18 221.757C238.2 221.757 239.2 221.4 239.98 220.715C240.96 219.872 241.51 218.612 241.44 217.322C241.15 211.021 240.48 207.35 238.45 201.506V198.787C238.45 194.997 236.03 193.27 233.35 191.702C233.25 191.653 233.16 191.593 233.05 191.544L165.15 158.611L140.26 141.664V38.323C140.25 27.6367 132.74 6.15484 122.67 0.856312C122.04 0.528875 121.36 0.370117 120.67 0.370117H120.71L120.76 0.370117Z" fill="black"/>
</g>
<defs>
<clipPath id="clip0_852_102">
<rect width="241.49" height="336" fill="white" transform="translate(0 0.370117)"/>
</clipPath>
</defs>
</svg>
