<svg width="258" height="371" viewBox="0 0 258 371" fill="none" xmlns="http://www.w3.org/2000/svg">
<g clip-path="url(#clip0_853_114)">
<path d="M171.62 368.37C171.4 368.37 171.19 368.33 170.98 368.26L132.48 355.15C131.97 356.83 131 358.57 129 358.57C127 358.57 126.03 356.83 125.52 355.15L87.02 368.26C86.81 368.33 86.59 368.37 86.38 368.37C85.97 368.37 85.56 368.24 85.22 368C84.7 367.62 84.38 367.02 84.38 366.37C84.38 364.96 84.37 363.69 84.35 362.54C84.26 354.36 84.23 351.3 89.91 346.66C89.96 346.62 90.02 346.58 90.08 346.54L123.04 324.85C120.79 316.23 118.81 307.29 117.15 298.24L111.18 292.98C110.2 295.98 108.72 298.58 106.23 298.62C101.19 298.62 99.07 286.66 98.37 281.27C97.28 280.69 96.56 279.61 96.54 278.35L96.21 259.33C96.14 255.45 98.67 254.98 99.76 254.96L111.18 254.76C111.42 254.76 111.69 254.78 111.97 254.82C111.82 251.59 111.75 248.51 111.75 245.61V211.7L83.32 213.3L17.47 232.26C17.47 232.26 17.38 232.28 17.34 232.29C14.91 232.81 12.35 235.46 10.29 237.59C8.13999 239.81 6.44999 241.56 4.48999 241.56C3.38999 241.56 2.48999 240.66 2.48999 239.56C2.48999 235.46 9.66999 216.85 15.71 212.31C15.77 212.26 15.84 212.22 15.91 212.18L111.74 156.84V60.2801C111.74 59.7801 111.93 10.2801 128.12 2.56012C128.39 2.43012 128.69 2.37012 128.98 2.37012C129.27 2.37012 129.57 2.43012 129.84 2.56012C146.04 10.2801 146.22 59.7801 146.22 60.2801V156.83L242.05 212.17C242.12 212.21 242.19 212.26 242.25 212.3C248.29 216.84 255.47 235.45 255.47 239.55C255.47 240.65 254.57 241.55 253.47 241.55C251.51 241.55 249.82 239.8 247.68 237.58C245.62 235.45 243.06 232.81 240.63 232.28C240.59 232.28 240.54 232.26 240.5 232.25L174.66 213.29L146.23 211.69V245.6C146.23 248.49 146.16 251.57 146.01 254.8C146.26 254.76 146.5 254.75 146.72 254.75L158.22 254.95C159.31 254.97 161.84 255.43 161.78 259.32L161.45 278.34C161.43 279.61 160.7 280.7 159.62 281.28C158.92 286.68 156.8 298.62 151.82 298.62C149.28 298.58 147.8 295.98 146.81 292.98L140.84 298.24C139.19 307.29 137.21 316.24 134.95 324.85L167.91 346.54C167.97 346.58 168.02 346.62 168.08 346.66C173.76 351.3 173.73 354.36 173.64 362.54C173.63 363.69 173.61 364.96 173.61 366.37C173.61 367.02 173.3 367.62 172.77 368C172.43 368.25 172.02 368.37 171.61 368.37H171.62Z" fill="white"/>
<path d="M128.99 4.37035C141.69 10.4204 144.23 48.1804 144.24 60.2803V157.99L241.07 213.9C246.43 217.94 253.49 235.8 253.49 239.55C250.95 239.55 246.43 231.48 241.07 230.33L175.01 211.31L144.24 209.58V245.61C144.24 249.82 144.08 254.46 143.76 259.44H145.1V259.02C145.12 258.16 145.15 256.74 146.73 256.74C146.75 256.74 146.76 256.74 146.78 256.74L152.49 256.84L158.2 256.94C159.83 256.97 159.81 258.41 159.79 259.27L159.46 278.29C159.44 279.14 158.64 279.7 157.83 279.7C157.82 279.7 157.81 279.7 157.8 279.7C157.48 282.57 155.34 296.6 151.82 296.6H151.8C150.07 296.57 148.79 293.15 147.9 289.33L139 297.18C137.31 306.51 135.21 316.14 132.66 325.71L166.82 348.19C172.47 352.8 171.62 355.11 171.62 366.35L131 352.52C130.58 355.01 129.96 356.56 128.99 356.56C128.02 356.56 127.4 355.01 126.98 352.52L86.36 366.35C86.36 355.11 85.51 352.8 91.16 348.19L125.32 325.71C122.77 316.14 120.66 306.51 118.98 297.18L110.08 289.33C109.2 293.15 107.92 296.56 106.18 296.6H106.16C102.64 296.6 100.5 282.57 100.18 279.7C100.17 279.7 100.16 279.7 100.15 279.7C99.34 279.7 98.54 279.14 98.52 278.29L98.19 259.27C98.18 258.41 98.15 256.96 99.78 256.94L105.49 256.84L111.2 256.74C111.2 256.74 111.23 256.74 111.25 256.74C112.83 256.74 112.86 258.16 112.87 259.02V259.44H114.22C113.9 254.45 113.74 249.81 113.74 245.61V209.58L82.97 211.31L16.91 230.33C11.55 231.48 7.02999 239.55 4.48999 239.55C4.48999 235.8 11.55 217.93 16.91 213.9L113.74 157.99V60.2803C113.74 48.1703 116.28 10.4204 128.99 4.37035ZM128.99 0.370352C128.4 0.370352 127.81 0.500352 127.27 0.760352C109.95 9.01035 109.74 58.2003 109.74 60.2803V155.68L14.91 210.44C14.77 210.52 14.63 210.61 14.51 210.71C7.77999 215.77 0.48999 234.98 0.48999 239.56C0.48999 241.77 2.27999 243.56 4.48999 243.56C7.28999 243.56 9.34999 241.44 11.72 238.98C13.49 237.15 15.91 234.64 17.75 234.25C17.84 234.23 17.93 234.21 18.02 234.18L83.65 215.28L109.75 213.81V245.61C109.75 247.89 109.8 250.29 109.89 252.77L105.44 252.85L99.73 252.95C99.15 252.96 94.11 253.23 94.21 259.35L94.54 278.37C94.57 279.98 95.34 281.43 96.53 282.41C96.85 284.53 97.39 287.46 98.12 290.25C98.93 293.35 100.84 300.61 106.18 300.61C106.21 300.61 106.26 300.61 106.29 300.61C109.04 300.56 110.82 298.62 111.99 296.34L115.32 299.28C116.87 307.67 118.69 315.95 120.75 323.97L88.99 344.87C88.88 344.95 88.76 345.03 88.66 345.11C82.24 350.36 82.28 354.18 82.37 362.56C82.38 363.7 82.4 364.97 82.4 366.37C82.4 367.66 83.02 368.87 84.07 369.62C84.76 370.11 85.57 370.37 86.4 370.37C86.83 370.37 87.27 370.3 87.69 370.16L124.44 357.64C125.3 359.22 126.71 360.57 129.03 360.57C131.35 360.57 132.76 359.22 133.62 357.64L170.37 370.16C170.79 370.3 171.23 370.37 171.66 370.37C172.48 370.37 173.3 370.11 173.99 369.62C175.04 368.87 175.66 367.66 175.66 366.37C175.66 364.97 175.67 363.71 175.69 362.56C175.78 354.18 175.82 350.36 169.4 345.11C169.29 345.02 169.18 344.94 169.07 344.87L137.31 323.97C139.37 315.96 141.19 307.67 142.74 299.28L146.07 296.34C147.24 298.63 149.02 300.56 151.78 300.61C151.8 300.61 151.85 300.61 151.88 300.61C157.22 300.61 159.12 293.35 159.94 290.25C160.67 287.46 161.21 284.52 161.53 282.41C162.72 281.43 163.49 279.98 163.52 278.37L163.85 259.35C163.95 253.22 158.91 252.96 158.33 252.95L152.62 252.85L148.17 252.77C148.26 250.28 148.31 247.89 148.31 245.61V213.81L174.41 215.28L240.04 234.18C240.13 234.21 240.22 234.23 240.31 234.25C242.15 234.64 244.57 237.15 246.34 238.98C248.72 241.44 250.77 243.56 253.57 243.56C255.78 243.56 257.57 241.77 257.57 239.56C257.57 234.98 250.28 215.78 243.55 210.71C243.42 210.61 243.29 210.52 243.15 210.44L148.32 155.68V60.2803C148.32 58.1903 148.12 9.01035 130.79 0.750352C130.25 0.490352 129.66 0.360352 129.07 0.360352L128.99 0.370352Z" fill="black"/>
</g>
<defs>
<clipPath id="clip0_853_114">
<rect width="257" height="370" fill="white" transform="translate(0.48999 0.370117)"/>
</clipPath>
</defs>
</svg>
