<svg width="271" height="399" viewBox="0 0 271 399" fill="none" xmlns="http://www.w3.org/2000/svg">
<g clip-path="url(#clip0_853_117)">
<path d="M179.64 396.54C179.43 396.54 179.22 396.51 179.02 396.44L139.04 383.29C138.51 384.96 137.51 386.74 135.5 386.74C133.49 386.74 132.49 384.96 131.96 383.29L91.98 396.44C91.78 396.51 91.56 396.54 91.36 396.54C90.94 396.54 90.53 396.41 90.19 396.16C89.67 395.78 89.36 395.18 89.36 394.54C89.36 393.13 89.35 391.86 89.33 390.71C89.24 382.52 89.21 379.45 95.09 374.81C95.14 374.77 95.2 374.73 95.26 374.69L129.39 353C127.06 344.41 125.02 335.48 123.3 326.43L117 321.07C115.99 324.1 114.48 326.74 111.92 326.79C106.76 326.79 104.58 314.86 103.85 309.46C102.72 308.89 101.98 307.8 101.95 306.52L101.61 287.5C101.61 286.96 101.58 286.06 101.96 285.19C102.51 283.9 103.7 283.15 105.23 283.13C105.23 283.13 117.05 282.93 117.06 282.93C117.33 282.93 117.64 282.95 117.95 283.01C117.8 279.78 117.72 276.69 117.72 273.79V234.2L88.17 235.8L17.89 254.77C17.89 254.77 17.81 254.79 17.78 254.8C15.23 255.33 12.57 257.98 10.44 260.12C8.23001 262.33 6.49001 264.07 4.51001 264.07C3.41001 264.07 2.51001 263.17 2.51001 262.07C2.51001 257.96 9.95001 239.34 16.2 234.8C16.27 234.75 16.34 234.7 16.42 234.66L117.73 179.31V60.2801C117.73 59.7801 117.93 10.2601 134.68 2.55012C134.95 2.43012 135.23 2.37012 135.52 2.37012C135.81 2.37012 136.09 2.43012 136.36 2.55012C153.11 10.2601 153.31 59.7801 153.31 60.2801V179.29L254.62 234.64C254.7 234.68 254.77 234.73 254.84 234.78C261.09 239.32 268.53 257.94 268.53 262.05C268.53 263.15 267.63 264.05 266.53 264.05C264.56 264.05 262.81 262.31 260.6 260.1C258.46 257.97 255.8 255.31 253.26 254.78C253.22 254.78 253.18 254.76 253.14 254.75L182.86 235.78L153.31 234.18V273.77C153.31 276.67 153.23 279.75 153.08 282.98C153.37 282.93 153.64 282.91 153.89 282.91L165.8 283.11C167.32 283.14 168.51 283.89 169.07 285.17C169.44 286.04 169.43 286.94 169.42 287.48L169.08 306.5C169.06 307.79 168.3 308.88 167.18 309.46C166.45 314.87 164.27 326.78 159.17 326.78C156.57 326.74 155.04 324.1 154.03 321.06L147.73 326.42C146.02 335.47 143.97 344.4 141.64 352.99L175.77 374.68C175.83 374.72 175.88 374.76 175.94 374.8C181.82 379.44 181.79 382.51 181.7 390.7C181.69 391.85 181.67 393.12 181.67 394.53C181.67 395.17 181.36 395.77 180.84 396.15C180.49 396.4 180.08 396.53 179.67 396.53L179.64 396.54Z" fill="white"/>
<path d="M135.49 4.37035C148.65 10.4204 151.28 48.1804 151.28 60.2803V180.48L253.63 236.39C259.18 240.43 266.49 258.29 266.49 262.04C263.86 262.04 259.18 253.97 253.63 252.82L183.15 233.8L151.28 232.07V273.77C151.28 277.98 151.11 282.62 150.78 287.6H152.17V287.18C152.19 286.32 152.22 284.9 153.86 284.9C153.88 284.9 153.89 284.9 153.91 284.9L159.82 285L165.73 285.1C167.42 285.13 167.39 286.57 167.38 287.43L167.04 306.45C167.02 307.3 166.19 307.86 165.36 307.86C165.35 307.86 165.34 307.86 165.33 307.86C165 310.73 162.79 324.76 159.14 324.76H159.12C157.33 324.73 156 321.31 155.08 317.49L145.86 325.34C144.11 334.67 141.93 344.3 139.29 353.87L174.67 376.35C180.52 380.96 179.64 383.27 179.64 394.51L137.57 380.68C137.14 383.17 136.5 384.72 135.49 384.72C134.48 384.72 133.84 383.17 133.41 380.68L91.34 394.51C91.34 383.27 90.46 380.96 96.31 376.35L131.69 353.87C129.05 344.3 126.87 334.67 125.12 325.34L115.9 317.49C114.99 321.31 113.66 324.72 111.86 324.76H111.84C108.2 324.76 105.98 310.73 105.65 307.86C105.64 307.86 105.63 307.86 105.62 307.86C104.79 307.86 103.95 307.3 103.94 306.45L103.6 287.43C103.58 286.57 103.56 285.12 105.25 285.1L111.16 285L117.07 284.9C117.07 284.9 117.1 284.9 117.12 284.9C118.76 284.9 118.78 286.32 118.8 287.18V287.6H120.2C119.86 282.61 119.7 277.97 119.7 273.77V232.07L87.83 233.8L17.35 252.82C11.8 253.97 7.12 262.04 4.49 262.04C4.49 258.29 11.8 240.42 17.35 236.39L119.7 180.48V60.2803C119.7 48.1703 122.33 10.4204 135.49 4.37035ZM135.49 0.370352C134.92 0.370352 134.35 0.490352 133.82 0.740352C115.91 8.98035 115.7 58.2003 115.7 60.2903V178.12L15.44 232.89C15.29 232.97 15.15 233.06 15.01 233.16C8.4 237.96 0.5 256.87 0.5 262.05C0.5 264.26 2.29 266.05 4.5 266.05C7.3 266.05 9.41 263.95 11.84 261.52C13.79 259.57 16.21 257.15 18.18 256.74C18.26 256.72 18.33 256.71 18.41 256.69L88.49 237.78L115.72 236.3V273.78C115.72 276.06 115.77 278.45 115.86 280.94L111.11 281.02L105.2 281.12C102.89 281.16 101 282.38 100.13 284.39C99.59 285.65 99.61 286.87 99.62 287.52L99.96 306.54C99.99 308.22 100.79 309.69 102.03 310.66C102.37 312.78 102.92 315.69 103.67 318.46C104.51 321.55 106.47 328.79 111.87 328.79C111.89 328.79 111.93 328.79 111.95 328.79C114.8 328.74 116.63 326.73 117.82 324.39L121.47 327.5C123.07 335.86 124.95 344.12 127.08 352.11L94.19 373.01C94.08 373.08 93.96 373.16 93.86 373.25C87.21 378.5 87.25 382.59 87.34 390.74C87.35 391.88 87.37 393.14 87.37 394.55C87.37 395.83 87.99 397.04 89.02 397.79C89.71 398.29 90.53 398.55 91.37 398.55C91.79 398.55 92.21 398.48 92.62 398.35L130.85 385.78C131.72 387.38 133.15 388.76 135.51 388.76C137.87 388.76 139.3 387.39 140.17 385.78L178.4 398.35C178.81 398.48 179.23 398.55 179.65 398.55C180.48 398.55 181.3 398.29 182 397.79C183.04 397.04 183.65 395.83 183.65 394.55C183.65 393.15 183.66 391.89 183.68 390.74C183.77 382.59 183.81 378.5 177.16 373.25C177.05 373.17 176.94 373.09 176.83 373.01L143.94 352.11C146.07 344.12 147.95 335.87 149.55 327.5L153.2 324.39C154.4 326.73 156.22 328.74 159.06 328.79C159.08 328.79 159.13 328.79 159.15 328.79C164.54 328.79 166.51 321.55 167.35 318.46C168.1 315.69 168.65 312.78 168.99 310.66C170.23 309.69 171.03 308.22 171.06 306.54L171.4 287.52C171.41 286.87 171.43 285.65 170.89 284.39C170.03 282.38 168.13 281.16 165.82 281.12L159.91 281.02L155.16 280.94C155.25 278.45 155.3 276.06 155.3 273.78V236.3L182.53 237.78L252.61 256.69C252.69 256.71 252.76 256.73 252.84 256.74C254.8 257.15 257.23 259.57 259.18 261.52C261.61 263.95 263.72 266.05 266.52 266.05C268.73 266.05 270.52 264.26 270.52 262.05C270.52 256.87 262.62 237.96 256.01 233.16C255.87 233.06 255.73 232.97 255.58 232.89L155.31 178.11V60.2803C155.31 58.1903 155.1 8.97035 137.19 0.730352C136.66 0.490352 136.09 0.360352 135.52 0.360352L135.49 0.370352Z" fill="black"/>
</g>
<defs>
<clipPath id="clip0_853_117">
<rect width="270" height="398.17" fill="white" transform="translate(0.48999 0.370117)"/>
</clipPath>
</defs>
</svg>
