<svg width="164" height="141" viewBox="0 0 164 141" fill="none" xmlns="http://www.w3.org/2000/svg">
<g clip-path="url(#clip0_678_2)">
<path d="M81.56 139.23C80.48 139.23 79.88 138.28 79.63 137.2C75.46 136.75 56.21 134.66 54.44 134.43C52.37 134.15 51.47 132.69 51.27 131.87C51.25 131.79 51.24 131.71 51.24 131.63V125.8C51.24 123.71 52.68 122.9 53.7 122.86C54.84 122.67 69.93 120.18 75.52 119.34C75.73 119.31 75.92 119.19 76.04 119.02C76.16 118.85 76.2 118.64 76.15 118.44C75.68 116.37 75.27 113.58 75.06 112.1C75.04 111.96 74.94 111.85 74.81 111.83C74 111.71 73.15 111.48 72.3 111.14C69.86 110.16 69.37 107.38 69.35 107.26C69.35 107.21 69.34 107.15 69.34 107.1V106.8H67.53C67.52 107.32 67.58 108.05 67.62 108.47C67.73 109.7 67.79 110.45 67.33 110.95C67.11 111.19 66.82 111.32 66.5 111.32C65.85 111.32 65.37 110.82 64.77 109.96C64.33 109.2 64.04 108.43 63.86 107.59C62.42 100.8 62.04 91.71 61.94 88.11C61.94 88 61.86 87.91 61.75 87.9C40.26 85.09 4.08 80.33 3.18 80.11C1.64 79.72 1.1 78.06 1.04 77.87C1.01 77.78 1 77.68 1 77.58V70.06C1 67.42 3.52 66.39 4.85 66.22L70.96 60.28C71.42 60.24 71.77 59.86 71.77 59.39V22.09C71.77 17.92 74.92 1 81.56 1C88.2 1 91.35 17.92 91.35 22.09V59.38C91.35 59.84 91.7 60.23 92.16 60.27L158.23 66.21C159.6 66.39 162.12 67.42 162.12 70.06V77.58C162.12 77.68 162.11 77.77 162.08 77.87C162.02 78.06 161.48 79.72 159.94 80.11C159.04 80.33 122.86 85.09 101.37 87.9C101.26 87.91 101.18 88 101.18 88.11C101.08 91.71 100.7 100.8 99.26 107.59C99.08 108.42 98.79 109.19 98.4 109.88C97.75 110.82 97.27 111.31 96.62 111.31C96.3 111.31 96 111.18 95.79 110.94C95.33 110.44 95.39 109.69 95.5 108.46C95.54 108.04 95.6 107.32 95.59 106.79H93.78V107.09C93.78 107.14 93.78 107.2 93.77 107.25C93.75 107.37 93.26 110.15 90.82 111.13C89.97 111.47 89.12 111.7 88.31 111.82C88.18 111.84 88.08 111.95 88.06 112.09C87.86 113.57 87.44 116.36 86.97 118.43C86.92 118.63 86.97 118.84 87.08 119.01C87.2 119.19 87.38 119.3 87.6 119.33C93.2 120.17 108.28 122.66 109.42 122.85C110.44 122.9 111.88 123.7 111.88 125.79V131.62C111.88 131.7 111.87 131.78 111.85 131.86C111.64 132.68 110.75 134.15 108.68 134.42C106.92 134.66 87.67 136.74 83.49 137.19C83.24 138.28 82.64 139.22 81.56 139.22V139.23Z" fill="white"/>
<path d="M81.56 2C87.13 2 90.35 17.94 90.35 22.09V59.38C90.35 60.36 91.1 61.18 92.07 61.26L158.14 67.2C158.14 67.2 161.12 67.59 161.12 70.05V77.57C161.12 77.57 160.73 78.87 159.69 79.13C158.73 79.37 109.07 85.87 101.23 86.9C100.63 86.98 100.19 87.47 100.17 88.07C100.09 91.16 99.72 100.54 98.27 107.37C98.12 108.07 97.88 108.75 97.52 109.37C97.06 110.03 96.78 110.3 96.61 110.3C96.03 110.3 96.93 106.9 96.39 105.78H92.76V107.08C92.76 107.08 92.37 109.41 90.43 110.19C89.5 110.56 88.71 110.74 88.15 110.82C87.57 110.9 87.13 111.36 87.05 111.94C86.85 113.42 86.44 116.17 85.98 118.2C85.76 119.19 86.43 120.16 87.44 120.31C93.29 121.19 109.32 123.84 109.32 123.84C109.32 123.84 110.88 123.84 110.88 125.78V131.61C110.88 131.61 110.49 133.17 108.55 133.42C106.61 133.68 82.63 136.27 82.63 136.27C82.63 136.27 82.48 138.21 81.57 138.21C80.66 138.21 80.51 136.27 80.51 136.27C80.51 136.27 56.53 133.68 54.59 133.42C52.65 133.16 52.26 131.61 52.26 131.61V125.78C52.26 123.84 53.82 123.84 53.82 123.84C53.82 123.84 69.85 121.19 75.7 120.31C76.71 120.16 77.38 119.19 77.16 118.2C76.7 116.17 76.29 113.42 76.09 111.94C76.01 111.36 75.57 110.9 74.99 110.82C74.43 110.74 73.64 110.57 72.71 110.19C70.77 109.41 70.38 107.08 70.38 107.08V105.78H66.75C66.2 106.89 67.11 110.3 66.53 110.3C66.37 110.3 66.09 110.03 65.62 109.37C65.26 108.75 65.02 108.07 64.87 107.37C63.42 100.54 63.06 91.17 62.97 88.07C62.95 87.47 62.51 86.97 61.91 86.9C54.07 85.87 4.41 79.37 3.45 79.13C2.41 78.87 2.02 77.57 2.02 77.57V70.05C2.02 67.59 5 67.2 5 67.2L71.07 61.26C72.05 61.17 72.79 60.36 72.79 59.38V22.09C72.79 17.94 76.01 2 81.58 2M81.56 0C73.71 0 70.77 18.34 70.77 22.09V59.28L4.8 65.21C4.8 65.21 4.75 65.21 4.72 65.21C3.09 65.42 0 66.71 0 70.04V77.56C0 77.75 0.03 77.95 0.08 78.13C0.41 79.23 1.36 80.66 2.94 81.05C3.83 81.27 34.83 85.35 60.96 88.78C61.09 92.77 61.51 101.29 62.88 107.77C63.08 108.71 63.41 109.57 63.85 110.35C63.88 110.4 63.91 110.45 63.95 110.5C64.42 111.17 65.2 112.29 66.5 112.29C67.1 112.29 67.67 112.04 68.07 111.6C68.83 110.77 68.74 109.76 68.62 108.35C68.62 108.34 68.62 108.33 68.62 108.32C69 109.43 69.9 111.22 71.94 112.04C72.68 112.34 73.43 112.56 74.15 112.7C74.36 114.2 74.72 116.51 75.12 118.37C69.39 119.24 55 121.61 53.58 121.85C52.2 121.95 50.24 123.06 50.24 125.79V131.62C50.24 131.78 50.26 131.95 50.3 132.11C50.57 133.18 51.71 135.08 54.31 135.42C56 135.65 73.64 137.56 78.86 138.12C79.36 139.44 80.33 140.23 81.55 140.23C82.77 140.23 83.74 139.44 84.24 138.12C89.47 137.55 107.1 135.64 108.79 135.42C111.39 135.07 112.53 133.18 112.8 132.11C112.84 131.95 112.86 131.79 112.86 131.62V125.79C112.86 123.06 110.89 121.96 109.52 121.85C108.1 121.62 93.71 119.24 87.98 118.37C88.38 116.52 88.74 114.2 88.95 112.7C89.68 112.56 90.42 112.34 91.16 112.04C93.2 111.22 94.11 109.43 94.48 108.32C94.48 108.33 94.48 108.34 94.48 108.35C94.36 109.75 94.27 110.77 95.03 111.6C95.43 112.04 96.01 112.29 96.6 112.29C97.9 112.29 98.68 111.17 99.15 110.5C99.18 110.45 99.22 110.4 99.25 110.35C99.69 109.57 100.02 108.71 100.22 107.77C101.6 101.29 102.02 92.76 102.14 88.78C128.28 85.36 159.27 81.28 160.16 81.05C161.74 80.65 162.69 79.23 163.02 78.13C163.08 77.94 163.1 77.75 163.1 77.56V70.04C163.1 66.7 160.01 65.42 158.38 65.21C158.35 65.21 158.33 65.21 158.3 65.21L92.33 59.28V22.09C92.33 18.34 89.39 0 81.54 0H81.56Z" fill="black"/>
</g>
<defs>
<clipPath id="clip0_678_2">
<rect width="163.13" height="140.23" fill="white"/>
</clipPath>
</defs>
</svg>
