<svg width="121" height="86" viewBox="0 0 121 86" fill="none" xmlns="http://www.w3.org/2000/svg">
<g clip-path="url(#clip0_23_21)">
<path d="M60.16 2C60.26 2 61.09 2.08 61.48 4.64C61.87 4.62 65.13 4.44 66.97 4.44C67.56 4.44 68.01 4.46 68.16 4.51C68.75 4.67 68.62 5.14 68.16 5.17C68.1 5.17 67.76 5.18 67.25 5.18C65.54 5.18 61.99 5.14 61.54 5.13C61.57 5.43 61.6 5.75 61.61 6.1C61.76 6.1 61.99 6.1 62.25 6.1C62.78 6.1 63.42 6.14 63.74 6.35C63.82 7.23 65.25 13.25 65.59 23.33C65.59 23.43 65.66 23.52 65.76 23.54C66.69 23.73 69.69 24.5 70.58 24.73C70.75 24.77 70.92 24.8 71.09 24.8L114.27 25.47C114.27 25.47 114.3 25.47 114.35 25.47C114.62 25.47 115.51 25.58 116.1 27.03C116.69 28.48 117.86 31.01 118.2 31.76C118.27 31.9 118.3 32.05 118.3 32.21V35.08C118.3 35.14 118.25 35.19 118.19 35.2L98.22 36.21L72.34 37.86C72.16 37.87 71.98 37.9 71.8 37.93L65.7 39.26C65.52 39.3 65.39 39.44 65.36 39.62C65.15 40.86 64.33 45.69 63.58 47.65C63.3 48.37 63.02 49.59 62.75 50.91C62.11 54.12 61.73 57.37 61.57 60.64L60.96 73.52C60.96 73.71 61.08 73.89 61.27 73.93L74.02 77.21C74.35 77.29 74.62 77.52 74.75 77.83L75.91 80.41C75.96 80.51 75.98 80.62 75.98 80.74V82.58C75.98 82.69 75.89 82.78 75.78 82.78L64.97 83.2L64.59 84.01H55.68L55.3 83.2L44.49 82.78C44.38 82.78 44.29 82.69 44.29 82.58V80.74C44.29 80.63 44.31 80.52 44.36 80.41L45.52 77.83C45.66 77.52 45.93 77.3 46.25 77.21L59 73.93C59.19 73.88 59.31 73.71 59.31 73.52L58.7 60.64C58.54 57.37 58.16 54.12 57.52 50.91C57.26 49.59 56.97 48.37 56.69 47.65C55.94 45.69 55.12 40.86 54.91 39.62C54.88 39.44 54.74 39.3 54.57 39.26L48.47 37.93C48.29 37.89 48.11 37.87 47.93 37.86L22.05 36.21L2.08001 35.2C2.02001 35.2 1.97001 35.15 1.97001 35.08V32.21C1.97001 32.06 2.00001 31.9 2.07001 31.76C2.42001 31.02 3.58001 28.49 4.17001 27.03C4.76001 25.58 5.65001 25.47 5.92001 25.47C5.97001 25.47 6.00001 25.47 6.00001 25.47L49.18 24.8C49.35 24.8 49.52 24.77 49.69 24.73C50.58 24.5 53.58 23.72 54.51 23.54C54.61 23.52 54.68 23.43 54.68 23.33C55.01 13.25 56.45 7.23 56.53 6.35C56.85 6.14 57.5 6.1 58.02 6.1C58.28 6.1 58.52 6.1 58.66 6.1C58.67 5.75 58.7 5.43 58.73 5.13C58.29 5.13 54.74 5.18 53.02 5.18C52.52 5.18 52.17 5.18 52.11 5.17C51.65 5.14 51.52 4.67 52.11 4.51C52.26 4.46 52.71 4.44 53.3 4.44C55.14 4.44 58.4 4.62 58.79 4.64C59.18 2.08 60 2 60.11 2H60.12C60.12 2 60.12 2 60.13 2M60.16 0C60.16 0 60.16 0 60.15 0C60.15 0 60.15 0 60.14 0C59.34 0 58.03 0.37 57.27 2.56C56.06 2.5 54.45 2.44 53.34 2.44C52.3 2.44 51.91 2.49 51.59 2.59C50.4 2.93 49.65 3.95 49.77 5.09C49.88 6.19 50.78 7.05 51.93 7.16C52.09 7.18 52.32 7.19 53.06 7.19C53.43 7.19 53.9 7.19 54.39 7.19C53.97 9.5 53.09 14.5 52.77 21.9C51.56 22.2 50.01 22.59 49.22 22.8L6.09001 23.47C6.09001 23.47 6.00001 23.47 5.95001 23.47C5.37001 23.47 3.41001 23.67 2.35001 26.28C1.78001 27.69 0.62001 30.19 0.29001 30.92C0.10001 31.33 0.0100098 31.76 0.0100098 32.21V35.08C0.0100098 36.21 0.89001 37.14 2.02001 37.2L21.99 38.21L47.84 39.86C47.92 39.86 48 39.88 48.08 39.89L53.15 40.99C53.53 43.15 54.19 46.63 54.85 48.36C54.97 48.66 55.22 49.45 55.58 51.3C56.18 54.33 56.57 57.5 56.72 60.74L57.27 72.32L45.78 75.27C44.86 75.51 44.11 76.14 43.72 77L42.56 79.58C42.4 79.94 42.31 80.33 42.31 80.73V82.57C42.31 83.76 43.24 84.73 44.43 84.77L54.06 85.15C54.43 85.68 55.04 86 55.7 86H64.61C65.27 86 65.88 85.68 66.25 85.15L75.88 84.77C77.07 84.72 78 83.76 78 82.57V80.73C78 80.33 77.92 79.95 77.75 79.58L76.59 77C76.2 76.13 75.45 75.5 74.53 75.27L63.04 72.32L63.59 60.74C63.74 57.51 64.13 54.33 64.73 51.3C65.1 49.45 65.35 48.66 65.46 48.36C66.12 46.63 66.79 43.15 67.16 40.99L72.23 39.89C72.31 39.87 72.39 39.86 72.47 39.86L98.35 38.21L118.3 37.2C119.43 37.14 120.31 36.21 120.31 35.09V32.22C120.31 31.77 120.21 31.34 120.03 30.93C119.69 30.2 118.54 27.7 117.97 26.29C116.91 23.68 114.95 23.48 114.37 23.48C114.32 23.48 114.27 23.48 114.23 23.48L71.14 22.81C70.32 22.6 68.77 22.2 67.55 21.91C67.22 14.51 66.34 9.51 65.93 7.2C66.43 7.2 66.89 7.2 67.26 7.2C68 7.2 68.23 7.2 68.39 7.17C69.54 7.05 70.44 6.19 70.55 5.1C70.66 3.97 69.92 2.94 68.73 2.6C68.41 2.5 68.02 2.45 66.98 2.45C65.87 2.45 64.26 2.51 63.05 2.57C62.27 0.38 60.96 0 60.16 0Z" fill="black"/>
<path d="M64.98 83.1901L75.79 82.7701C75.9 82.7701 75.99 82.6801 75.99 82.5701V80.7301C75.99 80.6201 75.97 80.5101 75.92 80.4001L74.76 77.8201C74.62 77.5101 74.35 77.2901 74.03 77.2001L61.28 73.9201C61.09 73.8701 60.97 73.7001 60.97 73.5101L61.58 60.6301C61.74 57.3601 62.12 54.1101 62.76 50.9001C63.02 49.5801 63.31 48.3601 63.59 47.6401C64.34 45.6801 65.16 40.8501 65.37 39.6101C65.4 39.4301 65.54 39.2901 65.71 39.2501L71.81 37.9201C71.99 37.8801 72.17 37.8601 72.35 37.8501L98.23 36.2001L118.2 35.1901C118.26 35.1901 118.31 35.1401 118.31 35.0701V32.2001C118.31 32.0501 118.28 31.8901 118.21 31.7501C117.86 31.0101 116.7 28.4801 116.11 27.0201C115.41 25.3001 114.28 25.4601 114.28 25.4601L71.1 24.7901C70.93 24.7901 70.76 24.7601 70.59 24.7201C69.7 24.4901 66.7 23.7101 65.77 23.5301C65.67 23.5101 65.6 23.4201 65.6 23.3201C65.27 13.2401 63.83 7.2201 63.75 6.3401C63.27 6.0201 62.06 6.1001 61.62 6.1001C61.61 5.7501 61.58 5.4301 61.55 5.1301C62.12 5.1301 67.9 5.2101 68.16 5.1701C68.62 5.1401 68.75 4.6701 68.16 4.5101C67.54 4.3101 62 4.6101 61.48 4.6401C61.07 1.9101 60.15 2.0001 60.15 2.0001C60.15 2.0001 59.23 1.9101 58.82 4.6401C58.3 4.6101 52.77 4.3101 52.14 4.5101C51.55 4.6701 51.68 5.1401 52.14 5.1701C52.4 5.2101 58.18 5.1401 58.75 5.1301C58.72 5.4301 58.69 5.7501 58.68 6.1001C58.24 6.1001 57.03 6.0201 56.55 6.3401C56.47 7.2201 55.04 13.2401 54.7 23.3201C54.7 23.4201 54.63 23.5101 54.53 23.5301C53.6 23.7201 50.6 24.4901 49.71 24.7201C49.54 24.7601 49.37 24.7901 49.2 24.7901L6.02 25.4601C6.02 25.4601 4.89 25.3001 4.19 27.0201C3.6 28.4701 2.43 31.0001 2.09 31.7501C2.03 31.8901 2 32.0401 2 32.2001V35.0701C2 35.1301 2.05 35.1801 2.11 35.1901L22.08 36.2001L47.96 37.8501C48.14 37.8601 48.32 37.8901 48.5 37.9201L54.6 39.2501C54.78 39.2901 54.91 39.4301 54.94 39.6101C55.15 40.8501 55.97 45.6801 56.72 47.6401C57 48.3601 57.28 49.5801 57.55 50.9001C58.19 54.1101 58.57 57.3601 58.73 60.6301L59.34 73.5101C59.34 73.7001 59.22 73.8801 59.03 73.9201L46.28 77.2001C45.95 77.2801 45.68 77.5101 45.55 77.8201L44.39 80.4001C44.34 80.5001 44.32 80.6101 44.32 80.7301V82.5701C44.32 82.6801 44.41 82.7701 44.52 82.7701L55.33 83.1901L55.71 84.0001H64.62L65 83.1901H64.98Z" fill="white"/>
</g>
<defs>
<clipPath id="clip0_23_21">
<rect width="120.3" height="85.99" fill="white"/>
</clipPath>
</defs>
</svg>
