<svg width="150" height="96" viewBox="0 0 150 96" fill="none" xmlns="http://www.w3.org/2000/svg">
<g clip-path="url(#clip0_824_154)">
<path d="M75.0001 94.54C74.8201 94.54 74.6401 94.49 74.4801 94.39C74.4401 94.37 74.4001 94.34 74.3401 94.29C73.4001 94.29 71.2901 94.21 69.6601 93.85C68.8401 93.67 68.2601 93.23 67.9301 92.91L60.0901 92.49C60.0301 92.49 59.9701 92.48 59.9101 92.46C58.4901 92.12 57.6801 91.88 56.3701 91.34C56.2601 91.29 56.1601 91.23 56.0801 91.15C55.5301 90.64 55.2101 89.87 55.2001 89.03C55.2001 88.19 55.5101 87.41 56.0701 86.88L56.5001 86.52C57.5901 85.61 58.3801 84.95 59.7101 84.3C59.7901 84.26 59.8701 84.24 59.9501 84.22C63.8301 83.45 66.3501 82.84 69.5301 82.06C70.5101 81.82 71.5501 81.57 72.7001 81.3C72.1501 74.13 70.9501 67.25 69.7801 60.59C69.0001 56.12 68.2601 51.9 67.7901 47.95C67.7401 47.55 67.7001 47.15 67.6501 46.77L62.5401 46.26C62.5101 46.5 62.4901 46.73 62.4601 46.96C62.3901 47.57 62.3201 48.16 62.2601 48.76C62.2101 49.22 61.8501 49.59 61.3901 49.65C61.3301 49.65 59.8701 49.84 58.8301 49.91H58.7901C57.7401 49.91 56.2001 49.83 56.1401 49.83C55.6701 49.81 55.2901 49.46 55.2101 49.01C55.0801 48.28 54.9401 47.57 54.7801 46.8C54.6901 46.38 54.6101 45.94 54.5201 45.48L26.1701 43.39L9.82012 42.56H3.07012C2.93012 42.56 2.79012 42.53 2.66012 42.48C2.31012 42.33 1.27012 41.86 1.04012 40.74C0.860122 39.83 1.28012 38.84 2.34012 37.72C2.83012 37.2 3.30012 36.7 3.74012 36.22C6.49012 33.27 8.14012 31.49 9.67012 31.17C9.73012 31.16 9.80012 31.15 9.86012 31.15L52.7101 30.61C52.4901 29.27 52.1901 27.07 52.3201 25.64C52.4501 24.16 53.4601 22.68 54.2801 21.7L49.1701 22C48.4001 22 47.8601 21.41 47.8401 20.63C47.8301 19.86 48.3501 19.26 49.0501 19.23L55.4701 19.32C55.8801 17.78 56.2501 16.9 56.8801 16.34C57.0701 16.17 57.3001 16.09 57.5401 16.09C57.7501 16.09 57.9701 16.16 58.1501 16.29C58.8201 16.8 59.2501 17.66 59.7701 19.17C59.7701 19.17 66.1201 18.64 66.1301 18.64C66.9201 18.64 67.4601 19.23 67.4801 20C67.4901 20.77 66.9701 21.37 66.2701 21.4L61.1401 21.45C62.0301 22.37 63.1401 23.78 63.3701 25.24C63.5301 26.24 63.5101 27.62 63.4301 28.89L67.3401 28.17C67.5401 23.46 68.0101 20.38 68.6401 16.2L68.9801 13.96C70.0401 6.78004 71.8301 2.86004 74.6101 1.63004C74.7401 1.57004 74.8801 1.54004 75.0201 1.54004C75.1601 1.54004 75.3001 1.57004 75.4301 1.63004C78.2101 2.87004 80.0001 6.79004 81.0601 13.96L81.4001 16.2C82.0301 20.38 82.5001 23.46 82.7001 28.17L86.6101 28.89C86.5301 27.63 86.5101 26.24 86.6701 25.24C86.9001 23.77 88.0101 22.36 88.9001 21.45L83.7901 21.4C83.0601 21.38 82.5401 20.78 82.5601 20C82.5701 19.22 83.1201 18.63 83.8201 18.63L90.2601 19.16C90.7801 17.65 91.2101 16.79 91.8801 16.28C92.0601 16.14 92.2701 16.08 92.4901 16.08C92.7301 16.08 92.9601 16.16 93.1501 16.33C93.7801 16.89 94.1501 17.77 94.5601 19.31L100.93 19.22C101.68 19.24 102.2 19.84 102.19 20.62C102.18 21.4 101.63 21.99 100.93 21.99L95.7601 21.69C96.5801 22.67 97.5901 24.15 97.7201 25.63C97.8401 27.06 97.5401 29.26 97.3301 30.6L140.18 31.14C140.24 31.14 140.31 31.14 140.37 31.16C141.9 31.48 143.56 33.26 146.31 36.21C146.75 36.68 147.22 37.18 147.7 37.7C148.76 38.82 149.18 39.81 149 40.72C148.77 41.84 147.72 42.31 147.38 42.46C147.25 42.52 147.11 42.55 146.97 42.55H140.16L123.84 43.38L95.5101 45.47C95.4201 45.94 95.3301 46.38 95.2401 46.81C95.0901 47.57 94.9401 48.28 94.8201 49C94.7401 49.46 94.3501 49.8 93.8901 49.82C93.8201 49.82 92.2401 49.9 91.2601 49.9C90.1601 49.83 88.6901 49.64 88.6301 49.63C88.1701 49.57 87.8101 49.2 87.7601 48.74C87.7001 48.14 87.6301 47.55 87.5501 46.93C87.5201 46.71 87.5001 46.48 87.4701 46.25L82.3601 46.76C82.3201 47.14 82.2701 47.54 82.2201 47.94C81.7501 51.89 81.0101 56.11 80.2301 60.58C79.0601 67.24 77.8601 74.12 77.3101 81.29C78.4601 81.56 79.5001 81.82 80.4801 82.05C83.6701 82.82 86.1901 83.44 90.0601 84.21C90.1401 84.23 90.2201 84.25 90.3001 84.29C91.6401 84.94 92.4301 85.6 93.5201 86.51L93.8901 86.82C94.5001 87.4 94.8101 88.18 94.8101 89.02C94.8101 89.86 94.4801 90.63 93.9301 91.14C93.8401 91.22 93.7501 91.28 93.6401 91.33C92.3301 91.88 91.5301 92.11 90.1001 92.45C90.0401 92.46 89.9801 92.47 89.9201 92.48L82.0801 92.9C81.7401 93.23 81.1701 93.66 80.3501 93.84C78.7301 94.21 76.6201 94.27 75.6701 94.28C75.6101 94.32 75.5701 94.36 75.5301 94.38C75.3701 94.48 75.1901 94.53 75.0101 94.53L75.0001 94.54Z" fill="white"/>
<path d="M75.0001 2.54004C77.9601 3.86004 79.3201 9.21004 80.0401 14.11C80.8901 19.84 81.4901 23.08 81.7001 29.01L87.6701 30.11C87.55 28.8 87.4201 26.7 87.6201 25.4C87.9401 23.34 90.6101 21.19 90.6101 21.19C90.6901 20.93 90.7701 20.69 90.84 20.47L83.7601 20.4C83.4201 20.39 83.4401 19.64 83.7801 19.64L90.9101 20.23C91.5301 18.34 91.9101 17.49 92.4401 17.09C92.9401 17.53 93.26 18.4 93.7401 20.33L100.9 20.23C101.24 20.24 101.22 20.99 100.88 20.99L93.8101 20.57C93.87 20.8 93.9301 21.05 93.9901 21.31C93.9901 21.31 96.5001 23.64 96.6801 25.71C96.8501 27.72 96.1001 31.56 96.1001 31.56C96.1001 31.56 96.1001 31.57 96.1001 31.58L140.12 32.13C141.56 32.43 143.72 34.98 146.93 38.38C148.93 40.5 147.64 41.23 146.93 41.54H140.12L123.75 42.37L95.0701 44.49L94.6401 44.53C94.34 46.15 94.0401 47.47 93.8101 48.82C93.8101 48.82 92.2001 48.9 91.2301 48.9C90.2101 48.83 88.7301 48.64 88.7301 48.64C88.6101 47.52 88.4701 46.42 88.3301 45.16L81.4301 45.85C81.3601 46.48 81.2901 47.14 81.2101 47.83C80.0301 57.77 77.09 69.64 76.2401 82.08C81.59 83.34 84.4601 84.13 89.8601 85.21C91.2301 85.87 91.9701 86.55 93.2501 87.61C94.0201 88.35 93.9501 89.77 93.2501 90.42C92.0101 90.94 91.2601 91.16 89.8601 91.5L81.6001 91.94C81.6001 91.94 81.1101 92.66 80.1201 92.89C78.3801 93.28 75.9801 93.31 75.3701 93.31C75.2801 93.31 75.2301 93.31 75.2301 93.31C75.1001 93.5 75.0101 93.55 75.0101 93.55C75.0101 93.55 74.9201 93.49 74.7901 93.31C74.7901 93.31 74.7401 93.31 74.6501 93.31C74.0401 93.31 71.6401 93.28 69.9001 92.89C68.9101 92.67 68.4201 91.94 68.4201 91.94L60.1601 91.5C58.7701 91.16 58.0101 90.94 56.7701 90.42C56.0701 89.77 56.0001 88.34 56.7701 87.61C58.0401 86.55 58.7901 85.88 60.1601 85.21C65.5601 84.14 68.4301 83.35 73.7801 82.08C72.9301 69.64 69.98 57.77 68.8101 47.83C68.73 47.14 68.66 46.48 68.59 45.85L61.6901 45.16C61.5501 46.43 61.4101 47.53 61.2901 48.64C61.2901 48.64 59.8101 48.83 58.7901 48.9C57.8201 48.9 56.2101 48.82 56.2101 48.82C55.9701 47.47 55.6801 46.16 55.3801 44.53L54.9501 44.49L26.2701 42.37L9.90005 41.54H3.07006C2.36006 41.23 1.07006 40.5 3.07006 38.38C6.28006 34.98 8.44006 32.43 9.88006 32.13L53.9001 31.58C53.9001 31.58 53.9001 31.57 53.9001 31.56C53.9001 31.56 53.1501 27.72 53.3201 25.71C53.5001 23.64 56.0101 21.31 56.0101 21.31C56.0701 21.05 56.1301 20.8 56.1901 20.57L49.1201 20.99C48.7801 20.99 48.7601 20.24 49.1001 20.23L56.2601 20.33C56.7401 18.4 57.0601 17.53 57.5601 17.09C58.0901 17.49 58.4701 18.34 59.0901 20.23L66.2201 19.64C66.5601 19.64 66.58 20.39 66.2401 20.4L59.1601 20.47C59.2301 20.7 59.3101 20.94 59.3901 21.19C59.3901 21.19 62.0601 23.34 62.3801 25.4C62.5801 26.7 62.4501 28.8 62.3301 30.11L68.3001 29.01C68.5101 23.08 69.1101 19.84 69.9601 14.11C70.6801 9.21004 72.0401 3.86004 75.0001 2.54004ZM75.0001 0.540039C74.7201 0.540039 74.4501 0.600039 74.1901 0.710039C71.0701 2.10004 69.1001 6.26004 67.9801 13.81C67.8601 14.6 67.7501 15.34 67.6401 16.05C67.5401 16.71 67.4501 17.34 67.3501 17.95C67.0101 17.74 66.62 17.63 66.2001 17.63C66.1801 17.63 66.1501 17.63 66.1201 17.63C66.0901 17.63 66.0601 17.63 66.0201 17.63L60.4301 18.09C59.9401 16.82 59.4701 16.03 58.7401 15.48C58.3801 15.21 57.9501 15.07 57.5301 15.07C57.0601 15.07 56.5901 15.24 56.2101 15.57C55.5201 16.18 55.1001 17 54.7101 18.29L49.1001 18.21C49.1001 18.21 49.0801 18.21 49.0701 18.21C49.0501 18.21 49.0201 18.21 49.0001 18.21C47.7601 18.25 46.8001 19.31 46.8201 20.62C46.8401 21.94 47.8401 22.97 49.0801 22.97C49.1001 22.97 49.1301 22.97 49.1601 22.97L52.2401 22.79C51.7601 23.62 51.3801 24.56 51.3001 25.52C51.2001 26.69 51.3501 28.28 51.5301 29.59L9.83006 30.11C9.70006 30.11 9.57006 30.13 9.45006 30.15C7.61005 30.53 5.87006 32.4 2.99006 35.49C2.55006 35.97 2.08006 36.47 1.59006 36.99C1.11006 37.5 -0.339944 39.03 0.0400556 40.9C0.260056 41.98 1.00006 42.81 2.24006 43.35C2.50006 43.46 2.77006 43.52 3.05006 43.52H9.81006L26.1301 44.35L53.6701 46.39C53.7101 46.59 53.7501 46.78 53.7901 46.97C53.9401 47.73 54.0901 48.44 54.2101 49.16C54.3701 50.08 55.1501 50.76 56.0801 50.81C56.1501 50.81 57.7501 50.9 58.7601 50.9C58.8001 50.9 58.8501 50.9 58.8901 50.9C59.9601 50.83 61.4501 50.64 61.5101 50.63C62.4301 50.51 63.1501 49.78 63.2501 48.85C63.3001 48.35 63.3601 47.85 63.4201 47.34L66.7501 47.67C66.7601 47.8 66.7801 47.93 66.8001 48.05C67.2701 52.03 68.0101 56.26 68.8001 60.75C69.9201 67.12 71.0701 73.69 71.6401 80.51C70.8201 80.71 70.05 80.89 69.3101 81.07C66.1301 81.84 63.6201 82.45 59.7601 83.22C59.5901 83.25 59.4301 83.31 59.2801 83.38C57.8301 84.08 56.9601 84.81 55.8501 85.73L55.4801 86.04C55.4801 86.04 55.4101 86.1 55.3801 86.13C54.6201 86.85 54.2001 87.9 54.2001 89.01C54.2001 90.12 54.6501 91.16 55.4001 91.86C55.5701 92.02 55.7701 92.15 55.9801 92.24C57.3401 92.81 58.2201 93.06 59.6701 93.42C59.7901 93.45 59.9101 93.47 60.0301 93.47L67.5201 93.87C67.97 94.24 68.6001 94.62 69.4401 94.81C71.0001 95.16 72.9501 95.25 74.0301 95.27C74.3301 95.44 74.6601 95.52 75.0001 95.52C75.34 95.52 75.6701 95.44 75.9701 95.27C77.0501 95.25 79.0001 95.16 80.5601 94.81C81.4 94.62 82.0301 94.24 82.4801 93.87L89.9701 93.47C90.0901 93.47 90.2201 93.45 90.3301 93.42C91.7801 93.07 92.66 92.81 94.0201 92.24C94.2401 92.15 94.4301 92.02 94.6001 91.86C95.3501 91.16 95.7901 90.13 95.8001 89.01C95.8001 87.9 95.3801 86.85 94.6201 86.13C94.5901 86.1 94.55 86.07 94.5201 86.04L94.1501 85.73C93.0501 84.81 92.1701 84.08 90.7201 83.38C90.5701 83.31 90.4001 83.25 90.2401 83.22C86.3801 82.45 83.8701 81.84 80.6901 81.07C79.9501 80.89 79.1801 80.7 78.3601 80.51C78.9301 73.69 80.08 67.12 81.2001 60.75C81.9901 56.26 82.73 52.03 83.2001 48.05C83.22 47.92 83.2301 47.79 83.2501 47.67L86.5801 47.34C86.6401 47.85 86.7001 48.35 86.7501 48.85C86.8501 49.77 87.5701 50.51 88.4901 50.63C88.55 50.63 90.0401 50.83 91.1101 50.9C91.1501 50.9 91.2001 50.9 91.2401 50.9C92.2401 50.9 93.8501 50.82 93.9201 50.81C94.8501 50.76 95.6201 50.08 95.7901 49.16C95.9201 48.44 96.0601 47.73 96.2101 46.98C96.2501 46.79 96.2901 46.6 96.3301 46.4L123.92 44.36L140.19 43.53H146.95C147.23 43.53 147.5 43.47 147.76 43.36C149 42.81 149.74 41.99 149.96 40.91C150.34 39.05 148.89 37.51 148.41 37C147.92 36.48 147.46 35.98 147.01 35.51C144.13 32.41 142.39 30.55 140.55 30.16C140.42 30.13 140.3 30.12 140.17 30.12L98.4701 29.6C98.6501 28.29 98.8 26.7 98.7001 25.53C98.62 24.57 98.2401 23.63 97.7601 22.8L100.79 22.98C100.79 22.98 100.88 22.98 100.92 22.98C102.17 22.98 103.16 21.95 103.18 20.63C103.2 19.32 102.25 18.26 101 18.22C100.98 18.22 100.95 18.22 100.93 18.22C100.93 18.22 100.91 18.22 100.9 18.22L95.2901 18.3C94.8901 17.01 94.4801 16.19 93.7901 15.58C93.4101 15.25 92.9401 15.08 92.4701 15.08C92.0401 15.08 91.6201 15.22 91.2601 15.49C90.5301 16.05 90.0601 16.84 89.5701 18.1L83.9801 17.64C83.9801 17.64 83.9201 17.64 83.8801 17.64C83.8601 17.64 83.8301 17.64 83.8001 17.64C83.3801 17.64 82.9901 17.76 82.6501 17.96C82.5601 17.35 82.4601 16.71 82.3601 16.06C82.2501 15.35 82.1401 14.61 82.0201 13.82C80.9 6.27004 78.9301 2.11004 75.8101 0.720039C75.55 0.600039 75.2701 0.550039 75.0001 0.550039V0.540039ZM63.2201 22.43L66.2501 22.4C66.4301 22.4 66.6101 22.37 66.7801 22.32C66.6101 23.87 66.4701 25.47 66.3701 27.33L64.4701 27.68C64.4901 26.63 64.4501 25.77 64.3501 25.09C64.2001 24.14 63.7601 23.23 63.2201 22.43ZM83.6301 27.33C83.5301 25.48 83.4001 23.87 83.2201 22.33C83.3701 22.37 83.5301 22.39 83.7001 22.4L86.7801 22.43C86.2501 23.23 85.8001 24.13 85.6501 25.09C85.5401 25.77 85.5001 26.63 85.5301 27.68L83.6301 27.33Z" fill="black"/>
</g>
<defs>
<clipPath id="clip0_824_154">
<rect width="150" height="95" fill="white" transform="translate(0 0.540039)"/>
</clipPath>
</defs>
</svg>
