<svg width="298" height="206" viewBox="0 0 298 206" fill="none" xmlns="http://www.w3.org/2000/svg">
<g clip-path="url(#clip0_30_18)">
<path d="M144.12 195.4L148.9 201.59L153.68 195.4L157.08 198.8C157.08 198.8 180 198.89 183.73 198.8C188.39 196.39 191.77 190.42 186.91 183.02C185.97 182.42 156.43 163.64 156.43 163.64C156.43 163.64 161.67 141.6 161.67 104.08C161.67 104.08 163.85 97.1 168.77 97.1H285.31C285.31 97.1 304.85 93.52 285.31 82.76C263.56 75.07 185.32 53.17 185.32 53.17C185.32 53.17 186.43 46.01 185.54 39.73C185.18 37.33 180.93 36.49 179.42 36.26V35.5C184.2 36.8 187.64 36.65 187.64 36.65C187.64 36.65 199.04 35.06 191.44 34C183.84 32.94 179.42 34 179.42 34V33.12C179.42 33.12 177.56 29.76 175.08 33.12C174.97 33.32 174.87 33.53 174.79 33.74C172.86 33.51 169.31 33.32 164.43 34C156.83 35.06 168.23 36.65 168.23 36.65C168.23 36.65 170.73 36.76 174.42 35.99C174.42 36.2 174.43 36.4 174.45 36.61C172.1 37.11 169.7 38.21 169.7 40.61C169.7 45.3 169.35 46.36 169.88 52.99C167.32 52.99 161.84 52.81 161.84 52.81C161.84 52.81 160.82 4.01001 148.88 4.01001C136.94 4.01001 135.92 52.81 135.92 52.81C135.92 52.81 130.44 52.99 127.88 52.99C128.41 46.36 128.06 45.3 128.06 40.61C128.06 38.21 125.66 37.11 123.31 36.61C123.33 36.4 123.34 36.2 123.34 35.99C127.03 36.76 129.53 36.65 129.53 36.65C129.53 36.65 140.93 35.06 133.33 34C128.46 33.32 124.9 33.51 122.97 33.74C122.89 33.53 122.8 33.32 122.68 33.12C120.2 29.76 118.34 33.12 118.34 33.12V34C118.34 34 113.93 32.94 106.32 34C98.7198 35.06 110.12 36.65 110.12 36.65C110.12 36.65 113.56 36.8 118.34 35.5V36.26C116.83 36.49 112.59 37.33 112.22 39.73C111.34 46.01 112.44 53.17 112.44 53.17C112.44 53.17 34.1998 75.07 12.4498 82.76C-6.65017 92.57 12.4498 97.1 12.4498 97.1H128.99C133.91 97.1 136.09 104.08 136.09 104.08C136.09 141.61 141.33 163.64 141.33 163.64C141.33 163.64 111.79 182.43 110.85 183.02C105.99 190.42 109.37 196.39 114.03 198.8C117.77 198.89 140.68 198.8 140.68 198.8L144.08 195.4H144.12Z" fill="white"/>
<path d="M148.91 3.99999C160.84 3.99999 161.87 52.8 161.87 52.8C161.87 52.8 167.35 52.98 169.91 52.98C169.38 46.35 169.73 45.29 169.73 40.6C169.73 38.2 172.13 37.1 174.48 36.6C174.46 36.39 174.45 36.19 174.45 35.98C171.56 36.58 169.4 36.65 168.6 36.65C168.38 36.65 168.26 36.65 168.26 36.65C168.26 36.65 156.86 35.06 164.46 34C166.99 33.65 169.17 33.53 170.95 33.53C172.59 33.53 173.89 33.63 174.82 33.74C174.9 33.53 174.99 33.32 175.11 33.12C175.94 32 176.69 31.63 177.33 31.63C178.62 31.63 179.44 33.12 179.44 33.12V34C179.44 34 181.4 33.53 184.96 33.53C186.74 33.53 188.92 33.65 191.45 34C199.05 35.06 187.65 36.65 187.65 36.65C187.65 36.65 187.53 36.65 187.3 36.65C186.31 36.65 183.31 36.55 179.44 35.5V36.26C180.95 36.49 185.19 37.33 185.56 39.73C186.44 46.01 185.34 53.17 185.34 53.17C185.34 53.17 263.58 75.07 285.33 82.76C304.87 93.52 285.33 97.1 285.33 97.1H168.79C163.87 97.1 161.69 104.08 161.69 104.08C161.69 141.61 156.45 163.64 156.45 163.64C156.45 163.64 185.99 182.43 186.93 183.02C191.79 190.42 188.41 196.39 183.75 198.8C182.5 198.83 179.13 198.84 175.18 198.84C167.28 198.84 157.1 198.8 157.1 198.8L153.7 195.4L148.92 201.59L144.14 195.4L140.74 198.8C140.74 198.8 130.55 198.84 122.66 198.84C118.71 198.84 115.33 198.84 114.09 198.8C109.43 196.39 106.05 190.42 110.91 183.02C111.85 182.42 141.39 163.64 141.39 163.64C141.39 163.64 136.15 141.6 136.15 104.08C136.15 104.08 133.97 97.1 129.05 97.1H12.4904C12.4904 97.1 -6.60958 92.57 12.4904 82.76C34.2404 75.07 112.48 53.17 112.48 53.17C112.48 53.17 111.37 46.01 112.26 39.73C112.62 37.33 116.87 36.49 118.38 36.26V35.5C114.5 36.56 111.51 36.65 110.52 36.65C110.29 36.65 110.17 36.65 110.17 36.65C110.17 36.65 98.7704 35.06 106.37 34C108.9 33.65 111.08 33.53 112.86 33.53C116.42 33.53 118.38 34 118.38 34V33.12C118.38 33.12 119.21 31.63 120.49 31.63C121.13 31.63 121.89 32 122.71 33.12C122.82 33.32 122.92 33.53 123 33.74C123.93 33.63 125.23 33.53 126.87 33.53C128.65 33.53 130.83 33.65 133.36 34C140.96 35.06 129.56 36.65 129.56 36.65C129.56 36.65 129.44 36.65 129.22 36.65C128.42 36.65 126.26 36.58 123.37 35.98C123.37 36.19 123.36 36.39 123.34 36.6C125.69 37.1 128.09 38.2 128.09 40.6C128.09 45.29 128.44 46.35 127.91 52.98C130.47 52.98 135.95 52.8 135.95 52.8C135.95 52.8 136.97 3.99999 148.91 3.99999ZM148.91 -9.76585e-06C141.45 -9.76585e-06 136.72 8.83999 134 27.83C133.9 28.55 133.8 29.28 133.7 30C131.35 29.68 129.05 29.52 126.87 29.52C126.21 29.52 125.56 29.53 124.93 29.56C123.32 27.98 121.68 27.61 120.49 27.61C118.61 27.61 117.08 28.51 116.01 29.64C115.12 29.57 114.07 29.52 112.86 29.52C110.61 29.52 108.24 29.69 105.81 30.03C104.15 30.26 99.7504 30.88 99.7504 34.85C99.7504 38.54 103.3 39.63 108.15 40.39C107.78 43.99 107.92 47.64 108.13 50.22C92.9104 54.5 30.5004 72.13 11.1604 78.98C10.9904 79.04 10.8304 79.11 10.6704 79.19C5.77042 81.71 -0.659578 85.74 0.0604225 91.69C0.840422 98.12 9.79042 100.56 11.5704 100.98C11.8704 101.05 12.1804 101.09 12.4904 101.09H129.03C130.18 101.09 131.51 103.24 132.13 104.77C132.18 134.75 135.49 154.69 136.88 161.75L108.74 179.64C108.26 179.94 107.85 180.35 107.54 180.82C104.05 186.14 104.2 190.64 104.94 193.47C105.93 197.23 108.58 200.47 112.23 202.35C112.77 202.63 113.36 202.78 113.97 202.8C115.12 202.83 117.95 202.84 122.64 202.84C130.46 202.84 140.64 202.8 140.74 202.8C141.8 202.8 142.81 202.37 143.55 201.63L143.74 201.44L145.74 204.03C146.5 205.01 147.67 205.59 148.91 205.59C150.15 205.59 151.32 205.02 152.08 204.03L154.08 201.44L154.27 201.63C155.02 202.38 156.03 202.8 157.08 202.8C157.18 202.8 167.36 202.84 175.18 202.84C179.86 202.84 182.7 202.83 183.85 202.8C184.46 202.79 185.05 202.63 185.59 202.35C189.24 200.47 191.89 197.23 192.88 193.47C193.62 190.64 193.78 186.14 190.28 180.82C189.97 180.35 189.56 179.94 189.08 179.64L160.94 161.75C162.33 154.69 165.64 134.75 165.69 104.77C166.3 103.25 167.64 101.09 168.79 101.09H285.33C285.57 101.09 285.81 101.07 286.05 101.02C288.58 100.56 296.92 98.56 297.92 92.38C298.89 86.4 292.3 82.02 287.26 79.24C287.07 79.13 286.87 79.05 286.66 78.97C267.31 72.13 204.92 54.5 189.69 50.21C189.9 47.63 190.05 43.97 189.67 40.38C194.53 39.63 198.07 38.53 198.07 34.84C198.07 30.86 193.67 30.25 192.01 30.02C189.59 29.68 187.21 29.51 184.96 29.51C183.75 29.51 182.7 29.56 181.81 29.63C180.73 28.5 179.2 27.6 177.33 27.6C176.14 27.6 174.5 27.97 172.89 29.55C172.26 29.52 171.61 29.51 170.95 29.51C168.77 29.51 166.47 29.67 164.12 29.99C164.03 29.27 163.93 28.55 163.82 27.82C161.1 8.82999 156.36 -0.0100098 148.91 -0.0100098V-9.76585e-06ZM165.61 46.71C165.51 44.85 165.37 42.64 165.17 40.22C165.35 40.25 165.54 40.28 165.73 40.32C165.73 40.42 165.73 40.52 165.73 40.61C165.73 41.98 165.7 43.02 165.67 44.03C165.64 44.92 165.62 45.76 165.62 46.71H165.61ZM132.08 40.31C132.27 40.28 132.46 40.25 132.64 40.21C132.44 42.63 132.3 44.84 132.2 46.7C132.2 45.74 132.17 44.9 132.15 44.02C132.12 43.01 132.09 41.97 132.09 40.6C132.09 40.51 132.09 40.41 132.09 40.31H132.08Z" fill="black"/>
</g>
<defs>
<clipPath id="clip0_30_18">
<rect width="298.01" height="205.59" fill="white"/>
</clipPath>
</defs>
</svg>
