<svg width="358" height="321" viewBox="0 0 358 321" fill="none" xmlns="http://www.w3.org/2000/svg">
<path d="M178.656 322.427C178.174 322.427 177.761 322.213 177.485 321.785C177.21 321.285 177.003 321 176.797 320.572C176.453 320.429 176.177 320.144 176.04 319.716C175.42 318.717 171.014 313.51 167.09 312.083L114.904 305.093V306.377C114.904 306.805 114.766 307.161 114.491 307.447C114.353 307.589 113.871 308.017 113.183 308.017C112.701 308.017 112.288 307.803 111.875 307.447C111.6 307.161 111.462 306.805 111.462 306.448V305.877C111.393 306.234 111.255 306.519 111.049 306.733C110.911 306.876 110.429 307.304 109.741 307.304C109.052 307.304 108.57 306.876 108.433 306.733C108.157 306.448 108.02 306.091 108.02 305.735V303.167C106.436 301.954 105.679 300.028 105.61 297.103C105.403 291.825 106.161 288.543 110.567 286.546C110.636 286.475 110.773 286.475 110.911 286.475L162.821 276.559L166.057 274.562C166.057 273.349 166.126 270.995 166.057 269.355C165.988 267.072 165.713 265.431 165.368 263.577C165.162 262.364 164.886 261.08 164.749 259.51C164.611 258.298 164.473 257.299 164.336 256.372C164.129 254.874 163.923 253.376 163.716 251.236C163.028 242.961 162.339 229.622 162.339 229.479V169.702L162.27 169.488C160.893 163.853 160.205 160.999 156.005 158.431L21.5488 137.245V139.671C21.5488 140.099 21.4111 140.455 21.1357 140.741C20.998 140.883 20.5161 141.311 19.8276 141.311C19.3457 141.311 18.9326 141.097 18.5195 140.741C18.2441 140.455 18.1065 140.099 18.1065 139.742V136.817L15.3526 136.389V139.029C15.3526 139.457 15.2149 139.813 14.9395 140.099C14.8018 140.241 14.3199 140.669 13.6315 140.669C13.1495 140.669 12.7365 140.455 12.3234 140.099C12.048 139.813 11.9103 139.457 11.9103 139.1V135.89L9.15646 135.462V138.387C9.15646 138.815 9.01876 139.171 8.74338 139.457C8.60569 139.599 8.12376 140.027 7.4353 140.027C6.95338 140.027 6.5403 139.813 6.12723 139.457C5.85184 139.171 5.71415 138.815 5.71415 138.458V134.677C-1.23931 131.753 -2.06547 126.902 -1.17047 118.699C-1.17047 118.485 -1.10162 118.342 -0.963928 118.128C1.85876 113.063 4.19953 112.065 8.3303 111.708L89.3622 105.359C89.2934 98.7965 89.2934 93.0899 89.5688 84.3159C89.5688 84.1019 89.6376 82.1045 89.9818 80.7492C90.0507 80.4639 90.1884 80.1785 90.3261 79.8932C89.2934 79.8932 88.123 79.8219 86.6084 79.6079L85.438 79.3939C84.1988 79.1799 82.9595 78.9659 81.7891 78.8945C80.4122 78.8945 79.7926 77.9672 79.7926 77.1112C79.7926 76.2552 80.4122 75.3279 81.7891 75.3279C82.3399 75.2565 82.8907 75.1852 83.3726 75.1139C84.4741 74.9712 85.438 74.8285 86.4707 74.6145C86.5395 74.6145 86.6084 74.6145 86.6772 74.6145C88.2607 74.4719 89.4311 74.4719 90.5326 74.4719C91.703 74.4719 92.8734 74.5432 94.5257 74.6145C94.8011 74.6145 95.0765 74.6859 95.283 74.6859C95.3518 74.5432 95.4207 74.4719 95.4895 74.3292V72.7599C95.4895 72.4745 95.5584 72.1892 95.6961 71.9752C96.3845 70.8339 97.6238 70.6912 98.0368 70.6199C98.1057 70.6199 98.1745 70.6199 98.2434 70.6199C98.3122 70.6199 98.3811 70.6199 98.4499 70.6199C98.863 70.6912 100.102 70.9052 100.791 71.9752C100.928 72.1892 100.997 72.4745 100.997 72.7599V74.3292C101.066 74.4005 101.135 74.5432 101.204 74.6859C101.41 74.6859 101.686 74.6859 102.03 74.6145C103.682 74.4719 104.853 74.4719 106.023 74.4719C107.193 74.4719 108.295 74.5432 109.878 74.6145C109.947 74.6145 110.016 74.6145 110.085 74.6145C111.118 74.8285 112.081 74.9712 113.183 75.1139C113.734 75.1852 114.285 75.2565 114.766 75.3279C116.143 75.3279 116.763 76.2552 116.763 77.1112C116.763 77.9672 116.143 78.8945 114.766 78.8945C113.527 79.0372 112.357 79.1799 111.118 79.3939L110.016 79.5365C108.433 79.6792 107.331 79.8219 106.298 79.8219C106.436 80.1072 106.574 80.3925 106.643 80.6779C106.987 82.0332 107.056 84.0305 107.056 84.2445C107.262 92.5192 107.331 97.8692 107.262 103.861L132.735 101.864C132.529 92.7332 132.529 86.3845 132.804 75.6845C132.804 75.4705 132.873 73.4732 133.217 72.1179C133.355 71.6185 133.63 71.0479 133.975 70.5485H133.906C132.735 70.5485 131.565 70.4772 129.844 70.2632L128.673 70.0492C127.434 69.8352 126.264 69.6212 125.025 69.5499C123.648 69.5499 123.028 68.6225 123.028 67.7665C123.028 66.9105 123.648 65.9832 125.025 65.9832C125.575 65.9119 126.126 65.8405 126.608 65.7692C127.71 65.6265 128.673 65.4839 129.706 65.2699C129.775 65.2699 129.844 65.2699 129.913 65.2699C131.496 65.1272 132.666 65.1272 133.768 65.1272C134.938 65.1272 136.109 65.1985 137.761 65.2699C138.036 65.2699 138.312 65.3412 138.518 65.3412C138.587 65.1985 138.656 65.1272 138.725 64.9845V63.4152C138.725 63.1299 138.794 62.8445 138.931 62.6305C139.62 61.4892 140.859 61.3465 141.272 61.2752C141.341 61.2752 141.41 61.2752 141.479 61.2752C141.548 61.2752 141.616 61.2752 141.685 61.2752C142.098 61.3465 143.338 61.5605 144.026 62.6305C144.164 62.8445 144.233 63.1299 144.233 63.4152V64.9845C144.301 65.0559 144.37 65.1985 144.439 65.3412C144.646 65.3412 144.921 65.3412 145.196 65.2699C146.849 65.1985 148.019 65.1272 149.19 65.1272C150.36 65.1272 151.461 65.1985 153.045 65.2699C153.114 65.2699 153.183 65.2699 153.251 65.2699C154.284 65.4839 155.248 65.6265 156.35 65.7692C156.9 65.8405 157.451 65.9119 157.933 65.9832C159.31 65.9832 159.93 66.9105 159.93 67.7665C159.93 68.6225 159.31 69.5499 157.933 69.5499C156.694 69.6925 155.523 69.8352 154.284 70.0492L153.183 70.2632C151.461 70.4772 150.222 70.5485 149.121 70.5485H149.052C149.396 71.0479 149.671 71.6185 149.809 72.1179C150.153 73.4732 150.222 75.4705 150.222 75.6845C150.498 85.8852 150.566 92.1625 150.36 100.509L162.064 99.5812V60.9185C162.064 60.7759 162.821 45.2252 164.473 35.4525C165.713 28.2479 166.401 24.1819 168.673 17.4052C170.532 11.6985 171.909 8.6312 174.594 3.63786C175.695 1.64053 177.761 -0.784802 177.83 -0.856135C178.105 -1.14147 178.449 -1.35547 178.862 -1.35547C179.275 -1.35547 179.62 -1.2128 179.895 -0.856135C179.964 -0.784802 182.098 1.71186 183.131 3.63786C185.885 8.6312 187.193 11.6985 189.051 17.4052C191.255 24.1819 192.012 28.2479 193.251 35.4525C194.903 45.2252 195.661 60.7759 195.661 60.9185V99.5812L207.365 100.509C207.158 92.1625 207.227 85.8852 207.502 75.6845C207.502 75.4705 207.571 73.4732 207.915 72.1179C208.053 71.6185 208.328 71.0479 208.673 70.5485H208.604C207.433 70.5485 206.263 70.4772 204.542 70.2632L203.371 70.0492C202.132 69.8352 200.962 69.6212 199.723 69.5499C198.346 69.5499 197.726 68.6225 197.726 67.7665C197.726 66.9105 198.346 65.9832 199.723 65.9832C200.273 65.9119 200.824 65.8405 201.306 65.7692C202.408 65.6265 203.371 65.4839 204.404 65.2699C204.473 65.2699 204.542 65.2699 204.611 65.2699C206.194 65.1272 207.365 65.1272 208.466 65.1272C209.636 65.1272 210.807 65.1985 212.459 65.2699C212.735 65.2699 213.01 65.3412 213.216 65.3412C213.285 65.1985 213.354 65.1272 213.423 64.9845V63.4152C213.423 63.1299 213.492 62.9159 213.63 62.6305C214.318 61.4892 215.557 61.3465 215.97 61.2752C216.039 61.2752 216.108 61.2752 216.177 61.2752C216.246 61.2752 216.315 61.2752 216.383 61.2752C216.796 61.3465 218.036 61.5605 218.724 62.6305C218.862 62.8445 218.931 63.1299 218.931 63.4152V64.9845C219 65.0559 219.068 65.1985 219.137 65.3412C219.344 65.3412 219.619 65.3412 219.895 65.2699C221.547 65.1985 222.717 65.1272 223.888 65.1272C225.058 65.1272 226.16 65.1985 227.743 65.2699C227.812 65.2699 227.881 65.2699 227.95 65.2699C228.982 65.4839 229.946 65.6265 231.048 65.7692C231.598 65.8405 232.149 65.9119 232.631 65.9832C234.008 65.9832 234.628 66.9105 234.628 67.7665C234.628 68.6225 234.008 69.5499 232.631 69.5499C231.392 69.6925 230.221 69.8352 228.982 70.0492L227.881 70.2632C226.16 70.4772 224.92 70.5485 223.819 70.5485H223.75C224.094 71.0479 224.37 71.6185 224.507 72.1179C224.851 73.4732 224.92 75.4705 224.92 75.6845C225.196 86.3845 225.265 92.7332 224.989 101.864L250.462 103.861C250.393 97.8692 250.462 92.5192 250.669 84.2445C250.669 84.0305 250.738 82.0332 251.082 80.6779C251.151 80.3925 251.288 80.1072 251.426 79.8219C250.393 79.8219 249.223 79.7505 247.708 79.5365L246.538 79.3225C245.299 79.1085 244.06 78.8945 242.889 78.8232C241.512 78.8232 240.893 77.8959 240.893 77.0399C240.893 76.1839 241.512 75.2565 242.889 75.2565C243.44 75.1852 243.991 75.1139 244.473 75.0425C245.574 74.8999 246.538 74.7572 247.571 74.5432C247.64 74.5432 247.708 74.5432 247.777 74.5432C249.361 74.4005 250.531 74.4005 251.633 74.4005C252.803 74.4005 253.973 74.4719 255.626 74.5432C255.901 74.5432 256.176 74.6145 256.383 74.6145C256.452 74.4719 256.521 74.4005 256.59 74.2579V72.6885C256.59 72.4032 256.658 72.1179 256.796 71.9039C257.485 70.7625 258.724 70.6199 259.137 70.5485C259.206 70.5485 259.275 70.5485 259.343 70.5485C259.412 70.5485 259.481 70.5485 259.55 70.5485C259.963 70.6199 261.202 70.8339 261.891 71.9039C262.028 72.1179 262.097 72.4032 262.097 72.6885V74.2579C262.166 74.3292 262.235 74.4719 262.304 74.6145C262.51 74.6145 262.786 74.6145 263.061 74.5432C264.713 74.4005 265.884 74.4005 267.054 74.4005C268.225 74.4005 269.326 74.4719 270.91 74.5432C270.978 74.5432 271.047 74.5432 271.116 74.5432C272.149 74.7572 273.113 74.8999 274.214 75.0425C274.765 75.1139 275.316 75.1852 275.798 75.2565C277.175 75.2565 277.794 76.1839 277.794 77.0399C277.794 77.8959 277.175 78.8232 275.798 78.8232C274.558 78.9659 273.388 79.1085 272.149 79.3225L271.047 79.4652C269.464 79.6079 268.362 79.7505 267.33 79.7505C267.467 80.0359 267.605 80.3212 267.674 80.6065C268.018 81.9619 268.087 83.9592 268.087 84.1732C268.362 92.9472 268.362 98.6539 268.293 105.217L349.325 111.565C353.525 111.922 355.866 112.921 358.62 117.985C358.688 118.128 358.757 118.342 358.757 118.556C359.652 126.759 358.826 131.61 351.873 134.535V138.315C351.873 138.672 351.735 139.1 351.46 139.314C351.322 139.457 350.84 139.885 350.151 139.885C349.463 139.885 348.981 139.457 348.843 139.314C348.568 139.029 348.43 138.672 348.43 138.244V135.319L345.676 135.747V138.957C345.676 139.314 345.539 139.742 345.263 139.956C345.126 140.099 344.644 140.527 343.955 140.527C343.267 140.527 342.854 140.099 342.647 139.956C342.372 139.671 342.234 139.314 342.234 138.886V136.247L339.48 136.675V139.599C339.48 139.956 339.343 140.384 339.067 140.598C338.654 141.026 338.241 141.169 337.759 141.169C337.071 141.169 336.589 140.741 336.451 140.598C336.176 140.313 336.038 139.956 336.038 139.528V137.103L201.719 158.289C197.588 160.857 196.831 163.71 195.454 169.345L195.385 169.559C195.385 169.559 195.385 229.265 195.385 229.337C195.385 229.479 194.697 242.819 194.008 251.093C193.871 253.233 193.595 254.66 193.389 256.229C193.251 257.157 193.113 258.155 192.976 259.368C192.769 260.937 192.563 262.221 192.356 263.434C192.012 265.289 191.736 266.929 191.668 269.212C191.599 270.853 191.668 273.207 191.668 274.419L194.903 276.417L246.813 286.332C246.951 286.332 247.02 286.403 247.158 286.403C251.564 288.472 252.252 291.753 252.115 297.032C252.046 299.885 251.288 301.811 249.705 303.024V305.521C249.705 305.877 249.567 306.305 249.292 306.519C248.879 306.947 248.466 307.09 247.984 307.09C247.295 307.09 246.813 306.662 246.676 306.519C246.469 306.305 246.263 305.949 246.263 305.663V306.234C246.263 306.591 246.125 307.019 245.85 307.233C245.436 307.661 245.023 307.803 244.541 307.803C243.853 307.803 243.371 307.375 243.233 307.233C242.958 306.947 242.82 306.591 242.82 306.163V304.879L190.635 311.869C186.642 313.296 182.236 318.503 181.685 319.502C181.547 319.859 181.272 320.215 180.928 320.358C180.721 320.786 180.515 321.071 180.239 321.57C179.964 321.999 179.551 322.213 179.069 322.213H178.656V322.427Z" fill="white"/>
<path d="M179 -0.00018239C179 -0.00018239 181.065 2.42515 182.098 4.27982C184.852 9.34448 186.16 12.3405 187.95 17.8332C190.153 24.5385 190.91 28.6045 192.081 35.6665C193.733 45.4391 194.49 60.9898 194.49 60.9898V100.865L209.017 102.006C208.81 92.4478 208.81 86.0991 209.086 75.6845C209.086 75.6845 209.155 73.6871 209.43 72.4745C209.705 71.2618 211.22 69.9778 211.495 69.9778H214.662V68.9078V68.7652C214.593 68.7652 214.525 68.7652 214.456 68.7652C214.111 68.7652 213.561 68.8365 212.597 68.9078C211.082 69.0505 209.912 69.1931 208.81 69.1931C207.64 69.1931 206.47 69.1218 204.955 68.9078C203.303 68.6225 201.719 68.3372 200.067 68.1945C200.067 68.1945 200.067 68.1945 199.998 68.1945C199.86 68.1945 199.378 68.1945 199.378 67.8378C199.378 67.4811 199.86 67.4811 199.998 67.4811H200.067C201.719 67.2672 203.372 67.1245 204.955 66.7678C206.401 66.6965 207.571 66.6252 208.742 66.6252C209.912 66.6252 211.082 66.6965 212.666 66.7678C213.698 66.8391 214.318 66.8391 214.593 66.8391C214.662 66.8391 214.731 66.8391 214.731 66.8391V66.7678V66.0545L215.075 65.6978V63.5578C215.351 63.1298 215.833 62.9158 216.452 62.8445C217.072 62.9158 217.554 63.1298 217.829 63.5578V65.6978L218.173 66.0545V66.7678V66.8391C218.242 66.8391 218.242 66.8391 218.311 66.8391C218.655 66.8391 219.206 66.8391 220.239 66.7678C221.822 66.6965 222.993 66.6252 224.163 66.6252C225.333 66.6252 226.504 66.6965 227.95 66.7678C229.533 67.1245 231.185 67.2672 232.838 67.4811C232.838 67.4811 232.838 67.4811 232.906 67.4811C233.044 67.4811 233.526 67.4811 233.526 67.8378C233.526 68.1945 233.044 68.1945 232.906 68.1945H232.838C231.185 68.3372 229.602 68.6225 227.95 68.9078C226.435 69.0505 225.265 69.1931 224.094 69.1931C222.924 69.1931 221.753 69.1218 220.308 68.9078C219.275 68.7651 218.724 68.7652 218.449 68.7652C218.38 68.7652 218.311 68.7652 218.242 68.7652V68.9078V69.9065H221.409C221.685 69.9065 223.199 71.1905 223.475 72.4031C223.75 73.6158 223.819 75.6132 223.819 75.6132C224.094 86.4558 224.163 92.8758 223.888 103.076L252.115 105.288C251.977 98.3685 252.115 92.5905 252.321 84.1731C252.321 84.1731 252.39 82.1758 252.665 80.9632C252.941 79.7505 254.455 78.4665 254.731 78.4665H257.898V78.1098V77.9671C257.829 77.9671 257.76 77.9671 257.691 77.9671C257.347 77.9671 256.796 78.0385 255.832 78.1098C254.318 78.2525 253.147 78.3951 252.046 78.3951C250.875 78.3951 249.705 78.3238 248.19 78.1098C246.538 77.8245 244.955 77.5391 243.302 77.3965C243.302 77.3965 243.302 77.3965 243.233 77.3965C243.096 77.3965 242.614 77.3965 242.614 77.0398C242.614 76.6832 243.096 76.6832 243.233 76.6832H243.302C244.955 76.4691 246.607 76.3265 248.19 75.9698C249.636 75.8985 250.807 75.8271 251.977 75.8271C253.147 75.8271 254.318 75.8985 255.901 75.9698C256.934 76.0411 257.553 76.0411 257.829 76.0411C257.898 76.0411 257.966 76.0411 257.966 76.0411V75.9698V75.2565L258.311 74.8998V72.7598C258.586 72.3318 259.068 72.1178 259.688 72.0465C260.307 72.1178 260.789 72.3318 261.065 72.7598V74.8998L261.409 75.2565V75.9698V76.0411C261.478 76.0411 261.478 76.0411 261.546 76.0411C261.891 76.0411 262.441 76.0411 263.474 75.9698C265.058 75.8985 266.228 75.8271 267.398 75.8271C268.569 75.8271 269.739 75.8985 271.185 75.9698C272.768 76.3265 274.421 76.4691 276.073 76.6832C276.073 76.6832 276.073 76.6832 276.142 76.6832C276.28 76.6832 276.762 76.6832 276.762 77.0398C276.762 77.3965 276.28 77.3965 276.142 77.3965H276.073C274.421 77.5391 272.837 77.8245 271.185 78.1098C269.67 78.2525 268.5 78.3951 267.33 78.3951C266.159 78.3951 264.989 78.3238 263.543 78.1098C262.51 77.9671 261.96 77.9671 261.684 77.9671C261.615 77.9671 261.546 77.9671 261.478 77.9671V78.1098V78.4665H264.645C264.92 78.4665 266.435 79.7505 266.71 80.9632C266.985 82.1758 267.054 84.1731 267.054 84.1731C267.33 93.0898 267.33 99.0105 267.261 106.5L349.601 112.92C353.318 113.206 355.246 113.919 357.862 118.627C358.826 127.187 357.656 130.968 350.978 133.464V138.244C350.84 138.386 350.771 138.458 350.633 138.458C350.496 138.458 350.427 138.386 350.289 138.244V133.678L344.781 134.534V138.957C344.644 139.1 344.575 139.171 344.437 139.171C344.3 139.171 344.231 139.1 344.093 138.957V134.677L338.585 135.533V139.67C338.448 139.813 338.379 139.884 338.241 139.884C338.103 139.884 338.035 139.813 337.897 139.67V135.604L201.719 157.147C196.762 160.072 196.005 163.567 194.49 169.63V229.479C194.49 229.479 193.802 242.89 193.113 251.236C192.838 254.588 192.494 256.086 192.081 259.439C191.599 263.362 190.841 265.431 190.704 269.426C190.635 271.78 190.704 275.489 190.704 275.489L194.835 277.986L246.951 287.972C250.393 289.613 251.288 291.824 251.082 297.246C251.013 300.028 250.325 301.597 248.672 302.524V305.806C248.535 305.948 248.466 306.02 248.328 306.02C248.19 306.02 248.122 305.948 247.984 305.806V302.881C247.571 303.024 247.089 303.166 246.607 303.309L245.23 303.523V306.519C245.092 306.662 245.023 306.733 244.886 306.733C244.748 306.733 244.679 306.662 244.542 306.519V303.594L190.704 310.799C185.885 312.44 180.859 318.788 180.79 319.359H180.377C179.964 320.072 179.757 320.5 179.344 321.142H179H178.656C178.243 320.5 178.036 320.072 177.623 319.359H177.279C177.21 318.788 172.115 312.44 167.365 310.799L113.527 303.594V306.519C113.39 306.662 113.321 306.733 113.183 306.733C113.045 306.733 112.977 306.662 112.839 306.519V303.523L111.462 303.309C110.98 303.166 110.498 303.024 110.085 302.881V305.806C109.947 305.948 109.878 306.02 109.741 306.02C109.603 306.02 109.534 305.948 109.396 305.806V302.524C107.744 301.597 107.056 300.028 106.987 297.246C106.78 291.824 107.675 289.613 111.118 287.972L163.234 277.986L167.365 275.489C167.365 275.489 167.434 271.78 167.365 269.426C167.227 265.502 166.47 263.362 165.988 259.439C165.575 256.086 165.231 254.588 164.955 251.236C164.267 242.89 163.578 229.479 163.578 229.479V169.63C162.064 163.567 161.375 160.072 156.35 157.147L20.1719 135.604V139.67C20.0342 139.813 19.9653 139.884 19.8277 139.884C19.69 139.884 19.6211 139.813 19.4834 139.67V135.533L13.9757 134.677V138.957C13.838 139.1 13.7692 139.171 13.6315 139.171C13.4938 139.171 13.425 139.1 13.2873 138.957V134.534L7.77958 133.678V138.244C7.64189 138.386 7.57304 138.458 7.43535 138.458C7.29766 138.458 7.22881 138.386 7.09112 138.244V133.464C0.413042 130.968 -0.688496 127.187 0.206504 118.627C2.82266 113.919 4.75035 113.206 8.46804 112.92L90.808 106.5C90.6703 99.0105 90.7392 93.0898 91.0146 84.1731C91.0146 84.1731 91.0834 82.1758 91.3588 80.9632C91.6342 79.7505 93.1488 78.4665 93.4242 78.4665H96.5911V78.1098V77.9671C96.5223 77.9671 96.4534 77.9671 96.3846 77.9671C96.0404 77.9671 95.4896 78.0385 94.5257 78.1098C93.0111 78.2525 91.8407 78.3951 90.7392 78.3951C89.5688 78.3951 88.3984 78.3238 86.8838 78.1098C85.2315 77.8245 83.648 77.5391 81.9957 77.3965C81.9957 77.3965 81.9957 77.3965 81.9269 77.3965C81.7892 77.3965 81.3073 77.3965 81.3073 77.0398C81.3073 76.6832 81.7892 76.6832 81.9269 76.6832H81.9957C83.648 76.4691 85.3004 76.3265 86.8838 75.9698C88.3296 75.8985 89.5 75.8271 90.6703 75.8271C91.8407 75.8271 93.0111 75.8985 94.5946 75.9698C95.6273 76.0411 96.2469 76.0411 96.5223 76.0411C96.5911 76.0411 96.66 76.0411 96.66 76.0411V75.9698V75.2565L97.0042 74.8998V72.7598C97.2796 72.3318 97.7615 72.1178 98.3811 72.0465C99.0007 72.1178 99.4827 72.3318 99.758 72.7598V74.8998L100.102 75.2565V75.9698V76.0411C100.171 76.0411 100.171 76.0411 100.24 76.0411C100.584 76.0411 101.135 76.0411 102.168 75.9698C103.751 75.8985 104.922 75.8271 106.092 75.8271C107.262 75.8271 108.433 75.8985 109.878 75.9698C111.462 76.3265 113.114 76.4691 114.767 76.6832C114.767 76.6832 114.767 76.6832 114.835 76.6832C114.973 76.6832 115.455 76.6832 115.455 77.0398C115.455 77.3965 114.973 77.3965 114.835 77.3965H114.767C113.114 77.5391 111.531 77.8245 109.878 78.1098C108.364 78.2525 107.193 78.3951 106.023 78.3951C104.853 78.3951 103.682 78.3238 102.237 78.1098C101.204 77.9671 100.653 77.9671 100.378 77.9671C100.309 77.9671 100.24 77.9671 100.171 77.9671V78.1098V78.4665H103.338C103.613 78.4665 105.128 79.7505 105.403 80.9632C105.679 82.1758 105.748 84.1731 105.748 84.1731C105.954 92.5905 106.023 98.3685 105.954 105.288L134.181 103.076C133.906 92.8758 133.975 86.4558 134.25 75.6132C134.25 75.6132 134.319 73.6158 134.594 72.4031C134.87 71.1905 136.384 69.9065 136.66 69.9065H139.827V68.8365V68.6938C139.758 68.6938 139.689 68.6938 139.62 68.6938C139.276 68.6938 138.725 68.7652 137.761 68.8365C136.247 68.9791 135.076 69.1218 133.975 69.1218C132.804 69.1218 131.634 69.0505 130.119 68.8365C128.467 68.5511 126.883 68.2658 125.231 68.1231C125.231 68.1231 125.231 68.1231 125.162 68.1231C125.025 68.1231 124.543 68.1231 124.543 67.7665C124.543 67.4098 125.025 67.4098 125.162 67.4098H125.231C126.883 67.1958 128.536 67.0531 130.119 66.6965C131.565 66.6251 132.735 66.5538 133.906 66.5538C135.076 66.5538 136.247 66.6251 137.83 66.6965C138.863 66.7678 139.482 66.7678 139.758 66.7678C139.827 66.7678 139.895 66.7678 139.895 66.7678V66.6965V65.9831L140.24 65.6265V63.4865C140.515 63.0585 140.997 62.8445 141.617 62.7731C142.236 62.8445 142.718 63.0585 142.993 63.4865V65.6265L143.338 65.9831V66.6965V66.7678C143.407 66.7678 143.407 66.7678 143.475 66.7678C143.82 66.7678 144.37 66.7678 145.403 66.6965C146.987 66.6251 148.157 66.5538 149.327 66.5538C150.498 66.5538 151.668 66.6251 153.114 66.6965C154.697 67.0531 156.35 67.1958 158.002 67.4098C158.002 67.4098 158.002 67.4098 158.071 67.4098C158.208 67.4098 158.69 67.4098 158.69 67.7665C158.69 68.1231 158.208 68.1231 158.071 68.1231H158.002C156.35 68.2658 154.766 68.5511 153.114 68.8365C151.599 68.9791 150.429 69.1218 149.258 69.1218C148.088 69.1218 146.918 69.0505 145.472 68.8365C144.439 68.6938 143.888 68.6938 143.613 68.6938C143.544 68.6938 143.475 68.6938 143.407 68.6938V68.8365V69.9065H146.573C146.849 69.9065 148.363 71.1905 148.639 72.4031C148.914 73.6158 148.983 75.6132 148.983 75.6132C149.258 86.0278 149.327 92.3765 149.052 101.935L163.578 100.794V60.9185C163.578 60.9185 164.336 45.4392 165.988 35.5951C167.158 28.6045 167.916 24.5385 170.119 17.7618C171.909 12.2692 173.217 9.27315 175.971 4.20848C176.935 2.42515 179 -0.00018239 179 -0.00018239ZM179 -2.85352C178.243 -2.85352 177.485 -2.49685 176.935 -1.92618C176.728 -1.64085 174.663 0.784484 173.492 2.85315C170.738 7.91782 169.362 11.0565 167.434 16.9058C165.162 23.7538 164.405 27.8911 163.234 35.1671C161.582 45.0112 160.825 60.1338 160.825 60.7758C160.825 60.8471 160.825 60.8471 160.825 60.9185V65.6978C160.274 64.9845 159.448 64.5565 158.277 64.4852C157.727 64.4138 157.245 64.3425 156.694 64.2711C155.661 64.1285 154.628 64.0572 153.733 63.8431C153.596 63.8431 153.458 63.7718 153.32 63.7718C151.737 63.6292 150.498 63.6291 149.327 63.6291C148.226 63.6291 147.124 63.7005 145.678 63.7718V63.4152C145.678 62.8445 145.541 62.3452 145.265 61.9172C144.577 60.8472 143.475 60.1338 141.961 59.9198C141.823 59.9198 141.685 59.9198 141.548 59.9198C141.41 59.9198 141.272 59.9198 141.135 59.9198C139.62 60.1338 138.518 60.8472 137.83 61.9172C137.555 62.3452 137.417 62.9158 137.417 63.4152V63.7718C135.971 63.7005 134.87 63.6291 133.768 63.6291C132.598 63.6291 131.427 63.7005 129.775 63.7718C129.637 63.7718 129.5 63.7718 129.362 63.8431C128.398 64.0572 127.434 64.1998 126.402 64.2711C125.851 64.3425 125.369 64.4138 124.818 64.4852C122.684 64.5565 121.582 66.1972 121.582 67.6952C121.582 69.2645 122.753 70.9052 124.887 70.9052C126.057 71.0478 127.159 71.1905 128.398 71.4045C128.742 71.4758 129.155 71.5471 129.5 71.6185C129.568 71.6185 129.568 71.6185 129.637 71.6185C130.463 71.6898 131.152 71.7611 131.771 71.8325C131.427 73.3305 131.358 75.3278 131.358 75.5418C131.083 85.7425 131.014 92.0198 131.221 100.437L108.57 102.22C108.639 96.7991 108.57 91.6631 108.364 84.1018C108.364 83.8878 108.295 82.4611 108.088 81.1058C108.708 81.0345 109.328 81.0345 110.085 80.8918C110.154 80.8918 110.154 80.8918 110.223 80.8918C110.567 80.8205 110.98 80.7491 111.324 80.6778C112.563 80.4638 113.665 80.2498 114.835 80.1785C116.97 80.1071 118.14 78.5378 118.14 76.9685C118.14 75.4705 116.97 73.8298 114.904 73.7585C114.353 73.6871 113.872 73.6158 113.321 73.5445C112.288 73.4018 111.255 73.3305 110.36 73.1165C110.223 73.1165 110.085 73.0452 109.947 73.0452C108.364 72.9025 107.125 72.9025 105.954 72.9025C104.853 72.9025 103.751 72.9738 102.305 73.0452V72.6885C102.305 72.1178 102.168 71.6185 101.892 71.1905C101.204 70.1205 100.102 69.4072 98.5877 69.1931C98.45 69.1931 98.3123 69.1931 98.1746 69.1931C98.0369 69.1931 97.8992 69.1931 97.7615 69.1931C96.2469 69.4072 95.1453 70.1205 94.4569 71.1905C94.1815 71.6185 94.0438 72.1891 94.0438 72.6885V73.0452C92.5981 72.9738 91.4965 72.9025 90.395 72.9025C89.2246 72.9025 88.0542 72.9738 86.4019 73.0452C86.2642 73.0452 86.1265 73.0452 85.9888 73.1165C85.025 73.3305 84.0611 73.4731 83.0284 73.5445C82.4777 73.6158 81.9957 73.6871 81.445 73.7585C79.3107 73.8298 78.2092 75.4705 78.2092 76.9685C78.2092 78.5378 79.3796 80.1785 81.5138 80.1785C82.6842 80.3212 83.7857 80.4638 85.025 80.6778C85.3692 80.7491 85.7823 80.8205 86.1265 80.8918C86.1954 80.8918 86.1954 80.8918 86.2642 80.8918C87.0215 80.9632 87.6411 81.0345 88.2607 81.1058C88.0542 82.4611 87.9854 83.8878 87.9854 84.1018C87.7788 92.3051 87.71 97.7978 87.7788 103.861L8.05497 110.067C3.57996 110.424 0.688426 111.636 -2.3408 117.2C-2.54734 117.557 -2.61619 117.914 -2.68504 118.27C-3.58004 126.474 -2.68503 132.038 4.13073 135.319V138.172C4.13073 138.957 4.40612 139.67 4.95689 140.241C5.78304 141.097 6.6092 141.24 7.22881 141.24C8.05497 141.24 8.81227 140.883 9.43189 140.241C9.91381 139.813 10.1892 139.171 10.258 138.458V138.814C10.258 139.599 10.5334 140.312 11.0842 140.883C11.9104 141.739 12.7365 141.882 13.3561 141.882C14.1823 141.882 14.9396 141.525 15.5592 140.954C16.0411 140.526 16.3165 139.884 16.3853 139.171V139.528C16.3853 140.312 16.6607 141.026 17.2115 141.596C18.0377 142.452 18.8638 142.595 19.4834 142.595C20.3096 142.595 21.0669 142.238 21.6865 141.668C22.2373 141.097 22.5815 140.384 22.5815 139.599V138.886L155.042 159.786C158.484 161.998 159.103 164.352 160.412 169.773V169.844V229.336C160.412 229.408 160.412 229.408 160.412 229.479C160.412 229.622 161.1 243.032 161.788 251.307C161.995 253.518 162.202 254.945 162.408 256.514C162.546 257.442 162.683 258.44 162.821 259.653C163.028 261.294 163.234 262.578 163.51 263.79C163.854 265.574 164.129 267.143 164.198 269.354C164.267 270.638 164.198 272.422 164.198 273.706L161.857 275.132L110.223 285.048C110.016 285.119 109.81 285.19 109.603 285.262C104.577 287.616 103.682 291.61 103.889 297.174C103.958 299.172 104.233 301.882 106.298 303.808V305.663C106.298 306.448 106.574 307.161 107.125 307.732C107.951 308.588 108.777 308.73 109.396 308.73C109.81 308.73 110.223 308.659 110.567 308.445C111.393 309.23 112.219 309.444 112.77 309.444C113.596 309.444 114.353 309.087 114.973 308.516C115.455 308.017 115.73 307.446 115.799 306.733L166.263 313.51C169.637 314.794 173.561 319.216 174.318 320.429C174.525 320.928 174.869 321.356 175.351 321.642C175.489 321.927 175.695 322.212 175.902 322.569C176.384 323.354 177.279 323.853 178.243 323.853H178.587H178.931C179.895 323.853 180.721 323.354 181.272 322.569C181.478 322.212 181.685 321.927 181.823 321.642C182.236 321.356 182.649 320.928 182.855 320.429C183.613 319.216 187.537 314.794 190.91 313.51L241.375 306.733C241.443 307.375 241.719 308.017 242.201 308.516C242.889 309.158 243.578 309.444 244.404 309.444C244.955 309.444 245.85 309.301 246.607 308.445C247.02 308.588 247.364 308.73 247.777 308.73C248.328 308.73 249.223 308.588 250.049 307.732C250.6 307.161 250.875 306.448 250.875 305.663V303.88C252.941 301.954 253.216 299.243 253.285 297.246C253.491 291.61 252.596 287.687 247.571 285.333C247.364 285.262 247.158 285.19 246.951 285.119L195.317 275.204L192.976 273.777C192.976 272.493 192.976 270.781 192.976 269.426C193.045 267.214 193.32 265.645 193.664 263.862C193.871 262.649 194.146 261.365 194.353 259.724C194.49 258.512 194.628 257.513 194.766 256.586C194.972 255.016 195.179 253.59 195.385 251.378C196.074 243.104 196.762 229.693 196.762 229.55C196.762 229.479 196.762 229.479 196.762 229.408V169.916V169.844C198.07 164.423 198.69 161.998 202.132 159.858L334.592 138.957V139.67C334.592 140.455 334.936 141.24 335.487 141.739C336.176 142.381 336.864 142.738 337.69 142.738C338.241 142.738 339.136 142.595 339.962 141.739C340.513 141.168 340.788 140.455 340.788 139.67V139.314C340.857 139.956 341.202 140.598 341.615 141.097C342.303 141.739 342.991 142.024 343.818 142.024C344.368 142.024 345.263 141.882 346.09 141.026C346.64 140.455 346.916 139.742 346.916 138.957V138.6C346.985 139.242 347.26 139.884 347.742 140.384C348.43 141.026 349.119 141.311 349.945 141.311C350.496 141.311 351.391 141.168 352.217 140.312C352.768 139.742 353.043 139.028 353.043 138.244V135.39C359.928 132.109 360.754 126.545 359.859 118.342C359.79 117.985 359.721 117.557 359.515 117.272C356.417 111.708 353.594 110.495 349.119 110.138L269.395 103.932C269.464 97.9405 269.395 92.3765 269.188 84.1731C269.188 83.9591 269.12 82.5325 268.913 81.1771C269.533 81.1058 270.152 81.1058 270.91 80.9632C270.978 80.9632 270.978 80.9632 271.047 80.9632C271.392 80.8918 271.805 80.8205 272.149 80.7491C273.388 80.5351 274.49 80.3212 275.66 80.2498C277.794 80.1785 278.965 78.6091 278.965 77.0398C278.965 75.5418 277.794 73.9011 275.729 73.8298C275.178 73.7585 274.696 73.6871 274.145 73.6158C273.113 73.4731 272.08 73.4018 271.185 73.1878C271.047 73.1878 270.91 73.1165 270.772 73.1165C269.188 72.9738 267.949 72.9738 266.779 72.9738C265.677 72.9738 264.576 73.0452 263.13 73.1165V72.7598C263.13 72.1891 262.992 71.6898 262.717 71.2618C262.028 70.1918 260.927 69.4785 259.412 69.2645C259.275 69.2645 259.137 69.2645 258.999 69.2645C258.862 69.2645 258.724 69.2645 258.586 69.2645C257.072 69.4785 255.97 70.1918 255.281 71.2618C255.006 71.6898 254.868 72.2605 254.868 72.7598V73.1165C253.423 73.0452 252.321 72.9738 251.22 72.9738C250.049 72.9738 248.879 73.0452 247.227 73.1165C247.089 73.1165 246.951 73.1165 246.813 73.1878C245.85 73.4018 244.886 73.5445 243.853 73.6158C243.302 73.6871 242.82 73.7585 242.27 73.8298C240.135 73.9011 239.034 75.5418 239.034 77.0398C239.034 78.6091 240.204 80.2498 242.338 80.2498C243.509 80.3925 244.61 80.5351 245.85 80.7491C246.194 80.8205 246.607 80.8918 246.951 80.9632C247.02 80.9632 247.02 80.9632 247.089 80.9632C247.846 81.0345 248.466 81.1058 249.085 81.1771C248.879 82.5325 248.81 83.9591 248.81 84.1731C248.603 91.7345 248.535 96.8705 248.603 102.292L225.953 100.508C226.16 92.0198 226.091 85.8138 225.815 75.6132C225.815 75.3991 225.746 73.4018 225.402 71.9038C226.022 71.8325 226.71 71.7611 227.536 71.6898C227.605 71.6898 227.605 71.6898 227.674 71.6898C228.018 71.6185 228.431 71.5471 228.776 71.4758C230.015 71.2618 231.116 71.1191 232.287 70.9765C234.421 70.9052 235.592 69.3358 235.592 67.7665C235.592 66.2685 234.421 64.6278 232.356 64.5565C231.805 64.4851 231.323 64.4138 230.772 64.3425C229.74 64.1998 228.707 64.1285 227.812 63.9145C227.674 63.9145 227.536 63.8431 227.399 63.8431C225.815 63.7005 224.576 63.7005 223.406 63.7005C222.304 63.7005 221.203 63.7718 219.757 63.8431V63.4865C219.757 62.9158 219.619 62.4165 219.344 61.9885C218.655 60.9185 217.554 60.2051 216.039 59.9911C215.901 59.9911 215.764 59.9911 215.626 59.9911C215.488 59.9911 215.351 59.9911 215.213 59.9911C213.698 60.2051 212.597 60.9185 211.908 61.9885C211.633 62.4165 211.495 62.9872 211.495 63.4865V63.8431C210.05 63.7718 208.948 63.7005 207.846 63.7005C206.676 63.7005 205.506 63.7718 203.853 63.8431C203.716 63.8431 203.578 63.8431 203.44 63.9145C202.477 64.1285 201.513 64.2711 200.48 64.3425C199.929 64.4138 199.447 64.4851 198.896 64.5565C197.726 64.6278 196.9 65.0558 196.349 65.7691V60.9898C196.349 60.9185 196.349 60.9185 196.349 60.8472C196.349 60.2052 195.592 45.0825 193.94 35.2385C192.7 27.9625 191.943 23.8251 189.74 16.9771C188.638 11.0565 187.261 7.91782 184.508 2.85315C183.406 0.784484 181.341 -1.64085 181.065 -1.92618C180.515 -2.49685 179.757 -2.85352 179 -2.85352ZM197.175 98.1545V69.7638C197.726 70.4771 198.621 70.9765 199.792 70.9765C200.962 71.1191 202.063 71.2618 203.303 71.4758C203.647 71.5471 204.06 71.6185 204.404 71.6898C204.473 71.6898 204.473 71.6898 204.542 71.6898C205.368 71.7611 206.057 71.8325 206.676 71.9038C206.332 73.4018 206.263 75.3991 206.263 75.6132C205.988 85.1718 205.988 91.3065 206.125 98.9391L197.175 98.1545ZM158.208 70.9765C159.379 70.9765 160.274 70.4771 160.825 69.7638V98.2258L151.875 98.9391C152.012 91.3065 151.943 85.1718 151.737 75.6132C151.737 75.3991 151.668 73.4018 151.324 71.9038C151.943 71.8325 152.632 71.7611 153.458 71.6898C153.527 71.6898 153.527 71.6898 153.596 71.6898C153.94 71.6185 154.353 71.5471 154.697 71.4758C155.868 71.2618 157.038 71.0478 158.208 70.9765Z" fill="black"/>
</svg>
