<svg width="442" height="582" viewBox="0 0 442 582" fill="none" xmlns="http://www.w3.org/2000/svg">
<g clip-path="url(#clip0_412_7)">
<path d="M291.01 579.04C289.5 579.04 287.48 578.58 284.85 577.65C276.6 574.72 236.36 561.76 226.12 558.47C225.67 561.46 224.44 565.45 221.03 565.45C217.62 565.45 216.33 561.46 215.87 558.47C205.63 561.76 165.38 574.72 157.14 577.65C154.51 578.59 152.49 579.04 150.98 579.04C148.89 579.04 147.91 578.14 147.46 577.39C146.79 576.28 146.99 575.11 147.23 574.4C147.09 572.64 146.62 566.48 146.62 563.66C146.62 559.84 150.65 555.62 151.45 554.81C151.51 554.75 151.56 554.7 151.63 554.65C152.11 554.27 197.54 518.38 206.26 510.37C201.02 491.22 199.97 462.6 199.93 461.37V317.55C199.93 317.35 199.77 317.2 199.58 317.2H175.25C170.75 317.2 166.3 317.89 162.02 319.25C110.45 335.53 12.15 366.63 9.21 367.81C8.64 368.04 8.12 368.33 7.66 368.59C6.86 369.04 6.11 369.47 5.21 369.47C2 369.47 2 365.97 2 358.31C2 345.13 11.95 337.68 12.37 337.37C36.57 321.07 57.36 307.08 75.3 295V269.57C74.15 268.89 73.03 267.69 73.03 265.86C73.03 265.69 72.97 265.05 72.92 264.47C72.52 260.05 71.57 249.71 74.59 243.01C75.74 240.45 78.29 238.8 81.08 238.8H90.02C90.19 238.78 90.42 238.76 90.69 238.76C93.01 238.76 98.41 240.12 98.41 252.7V264.59C98.41 266.5 97.29 268.16 95.68 268.94C95.8 271.15 95.95 275.43 95.78 281.23L133.17 256.07L132.81 234.77C131.65 234.09 130.52 232.89 130.52 231.04C130.52 230.87 130.46 230.23 130.41 229.65C130.01 225.23 129.06 214.89 132.08 208.19C133.23 205.63 135.78 203.98 138.57 203.98H147.51C147.68 203.96 147.91 203.94 148.18 203.94C150.5 203.94 155.9 205.3 155.9 217.88V229.77C155.9 231.68 154.78 233.34 153.17 234.12C153.26 235.8 153.37 238.67 153.34 242.5C189.19 218.37 190.95 217.16 196.95 212.91C199.72 210.95 200.18 209.51 200.12 209.08C200.04 208.86 200 208.62 200 208.39V78.3299C200 29.4599 212.4 2.42993 220.97 2.42993C229.54 2.42993 242.01 29.4599 242.01 78.3299V208.37C242.01 208.61 241.97 208.84 241.89 209.06C241.84 209.49 242.3 210.94 245.06 212.89C246.46 213.88 261.36 223.96 289.37 242.84V236.14C288.22 235.46 287.1 234.26 287.1 232.43C287.1 232.26 287.04 231.62 286.99 231.04C286.59 226.62 285.64 216.28 288.66 209.58C289.81 207.02 292.36 205.37 295.15 205.37H304.09C304.26 205.35 304.49 205.33 304.76 205.33C307.08 205.33 312.48 206.69 312.48 219.27V231.16C312.48 233.07 311.37 234.73 309.75 235.51C309.91 238.55 310.14 245.5 309.5 254.94C309.5 255.02 309.48 255.11 309.47 255.19C309.4 255.53 309.32 255.88 309.22 256.24C321.14 264.28 333.74 272.77 346.14 281.12V269.57C344.99 268.89 343.87 267.69 343.87 265.86C343.87 265.69 343.81 265.05 343.76 264.47C343.36 260.05 342.41 249.71 345.43 243.01C346.58 240.45 349.13 238.8 351.92 238.8H360.86C361.03 238.78 361.26 238.76 361.53 238.76C363.85 238.76 369.25 240.12 369.25 252.7V264.59C369.25 266.5 368.14 268.16 366.52 268.94C366.68 271.98 366.91 278.93 366.27 288.37C366.27 288.47 366.25 288.56 366.23 288.66C365.8 290.65 365.38 292.46 365.05 293.88C400.29 317.62 429.56 337.33 429.56 337.33C430.05 337.69 440 345.13 440 358.31C440 365.97 440 369.47 436.79 369.47C435.89 369.47 435.14 369.04 434.34 368.59C433.88 368.33 433.37 368.04 432.79 367.81C429.85 366.63 331.55 335.53 279.99 319.25C275.7 317.89 271.25 317.2 266.76 317.2H242.43C242.24 317.2 242.08 317.36 242.08 317.55V461.3C242.04 462.6 240.99 491.22 235.75 510.37C244.47 518.39 289.9 554.28 290.38 554.65C290.44 554.7 290.5 554.75 290.56 554.81C291.37 555.62 295.39 559.84 295.39 563.66C295.39 566.47 294.92 572.63 294.78 574.4C295.02 575.11 295.22 576.29 294.55 577.39C294.09 578.14 293.11 579.04 291.02 579.04H291.01Z" fill="white"/>
<path d="M221.04 4.42992C227.27 4.42992 240.01 28.6399 240.01 78.3299V208.37C240.01 208.37 238.81 210.92 243.9 214.53C245.54 215.69 265.33 229.05 291.36 246.61V234.84C291.36 234.84 289.09 234.27 289.09 232.43C289.09 230.84 287.14 217.81 290.47 210.4C291.3 208.56 293.12 207.37 295.14 207.37H304.24C304.24 207.37 304.43 207.33 304.75 207.33C306.24 207.33 310.47 208.29 310.47 219.27V231.16C310.47 232.72 309.2 233.99 307.64 233.99C307.64 233.99 308.35 242.2 307.5 254.8C307.35 255.57 307.12 256.33 306.86 257.06C320.14 266.01 334.32 275.57 348.13 284.88V268.26C348.13 268.26 345.86 267.69 345.86 265.85C345.86 264.26 343.91 251.23 347.24 243.82C348.07 241.98 349.89 240.79 351.91 240.79H361.01C361.01 240.79 361.2 240.75 361.52 240.75C363.01 240.75 367.24 241.71 367.24 252.69V264.58C367.24 266.14 365.97 267.41 364.41 267.41C364.41 267.41 365.12 275.62 364.27 288.22C363.7 290.87 363.15 293.21 362.77 294.75C398.52 318.83 428.44 338.98 428.44 338.98C428.44 338.98 438 345.99 438 358.31C438 365.6 437.76 367.47 436.79 367.47C436.12 367.47 435.09 366.58 433.54 365.96C429.75 364.44 280.59 317.35 280.59 317.35C276.12 315.93 271.45 315.2 266.75 315.2H242.42C241.12 315.2 240.07 316.25 240.07 317.55V461.3C240.07 461.3 239.01 491.88 233.49 510.99C239.65 517.15 289.13 556.22 289.13 556.22C289.13 556.22 293.38 560.47 293.38 563.65C293.38 566.83 292.74 574.69 292.74 574.69C292.74 574.69 293.97 577.03 291.01 577.03C289.89 577.03 288.15 576.69 285.52 575.75C275.96 572.35 224.36 555.79 224.36 555.79C224.36 555.79 224.08 563.44 221.03 563.44H220.96C217.92 563.44 217.63 555.79 217.63 555.79C217.63 555.79 166.03 572.35 156.47 575.75C153.83 576.69 152.1 577.03 150.98 577.03C148.03 577.03 149.25 574.69 149.25 574.69C149.25 574.69 148.61 566.83 148.61 563.65C148.61 560.47 152.86 556.22 152.86 556.22C152.86 556.22 202.34 517.14 208.5 510.99C202.98 491.88 201.92 461.3 201.92 461.3V317.55C201.92 316.25 200.87 315.2 199.57 315.2H175.24C170.55 315.2 165.88 315.92 161.4 317.35C161.4 317.35 12.24 364.44 8.45 365.96C6.9 366.58 5.88 367.47 5.2 367.47C4.22 367.47 3.99 365.6 3.99 358.31C3.99 345.99 13.55 338.98 13.55 338.98C38.08 322.46 59.15 308.28 77.29 296.06V268.26C77.29 268.26 75.02 267.69 75.02 265.85C75.02 264.26 73.07 251.23 76.4 243.82C77.23 241.98 79.05 240.79 81.07 240.79H90.17C90.17 240.79 90.36 240.75 90.68 240.75C92.17 240.75 96.4 241.71 96.4 252.69V264.58C96.4 266.14 95.13 267.41 93.57 267.41C93.57 267.41 94.16 274.28 93.61 285.08C110.12 273.97 123.8 264.76 135.17 257.11L134.77 233.43C134.77 233.43 132.5 232.86 132.5 231.02C132.5 229.43 130.55 216.4 133.88 208.99C134.71 207.15 136.53 205.96 138.55 205.96H147.65C147.65 205.96 147.84 205.92 148.16 205.92C149.65 205.92 153.88 206.88 153.88 217.86V229.75C153.88 231.31 152.61 232.58 151.05 232.58C151.05 232.58 151.5 237.8 151.25 246.29C190.11 220.14 191.92 218.9 198.09 214.53C203.19 210.92 201.98 208.37 201.98 208.37V78.3299C201.98 28.6399 214.72 4.42992 220.95 4.42992H221.02M221.04 0.429922H220.97C213.3 0.429922 207.89 13.6399 205.34 21.5199C201.99 31.8799 198 50.1499 198 78.3399V208.38C198 208.62 198.02 208.86 198.06 209.09C197.88 209.41 197.34 210.18 195.79 211.27C189.98 215.39 188.15 216.65 155.32 238.74C155.3 237.34 155.26 236.14 155.22 235.17C156.85 233.92 157.9 231.96 157.9 229.75V217.86C157.9 203.07 150.46 201.92 148.18 201.92C147.88 201.92 147.61 201.94 147.39 201.96H138.58C135 201.96 131.74 204.08 130.26 207.35C127.03 214.53 128 225.24 128.42 229.81C128.47 230.32 128.52 230.89 128.52 231.05C128.52 233.09 129.48 234.7 130.82 235.8L131.15 254.99C121.7 261.35 110.69 268.76 97.85 277.4C97.87 274.27 97.81 271.75 97.74 269.99C99.37 268.74 100.42 266.78 100.42 264.57V252.68C100.42 237.89 92.98 236.74 90.7 236.74C90.4 236.74 90.13 236.76 89.91 236.78H81.1C77.52 236.78 74.26 238.9 72.78 242.17C69.55 249.35 70.52 260.06 70.94 264.63C70.99 265.14 71.04 265.71 71.04 265.87C71.04 267.89 71.98 269.49 73.3 270.59V293.91C55.56 305.85 35.06 319.65 11.32 335.64C11.28 335.67 11.23 335.7 11.19 335.73C10.73 336.07 0 344.1 0 358.28C0 362.41 0.08 364.61 0.27 366.11C0.9 370.92 3.93 371.44 5.21 371.44C6.64 371.44 7.75 370.81 8.64 370.3C9.06 370.06 9.5 369.81 9.95 369.63C13.7 368.19 121.42 334.13 162.61 321.12C166.71 319.82 170.95 319.16 175.24 319.16H197.92V461.27C197.92 461.27 197.92 461.36 197.92 461.41C197.96 462.63 198.98 490.33 204 509.68C195.67 517.07 166.06 540.67 150.38 553.06C150.26 553.16 150.14 553.26 150.03 553.37C148.76 554.64 144.61 559.14 144.61 563.63C144.61 566.34 145.03 572 145.19 574.15C144.86 575.44 144.89 576.99 145.74 578.39C146.33 579.37 147.8 581.01 150.98 581.01C152.72 581.01 154.96 580.52 157.81 579.5C165.54 576.75 201.58 565.13 214.35 561.02C215.46 565.1 217.78 567.41 220.95 567.41H221.02C224.19 567.41 226.51 565.1 227.62 561.02C240.39 565.13 276.43 576.75 284.17 579.5C287.02 580.51 289.26 581.01 291 581.01C294.18 581.01 295.65 579.37 296.24 578.39C297.09 576.99 297.12 575.44 296.78 574.15C296.95 572 297.36 566.34 297.36 563.63C297.36 559.14 293.21 554.64 291.94 553.37C291.83 553.26 291.71 553.16 291.59 553.06C275.91 540.67 246.3 517.07 237.97 509.68C243 490.33 244.01 462.63 244.05 461.41C244.05 461.36 244.05 461.32 244.05 461.27V319.16H266.73C271.02 319.16 275.27 319.82 279.35 321.12C320.55 334.13 428.27 368.19 432.03 369.63C432.46 369.8 432.9 370.05 433.32 370.29C434.21 370.8 435.33 371.43 436.75 371.43C438.02 371.43 441.06 370.91 441.69 366.1C441.89 364.6 441.96 362.4 441.96 358.27C441.96 344.09 431.23 336.05 430.77 335.72C430.73 335.69 430.68 335.66 430.64 335.63C430.64 335.63 402 316.34 367.27 292.95C367.54 291.79 367.84 290.46 368.15 289.04C368.19 288.85 368.22 288.66 368.23 288.47C368.8 280.01 368.69 273.5 368.54 269.98C370.17 268.73 371.21 266.77 371.21 264.56V252.67C371.21 237.88 363.77 236.73 361.49 236.73C361.19 236.73 360.92 236.75 360.7 236.77H351.89C348.31 236.77 345.05 238.89 343.57 242.16C340.34 249.34 341.31 260.05 341.73 264.62C341.78 265.13 341.83 265.7 341.83 265.86C341.83 267.88 342.77 269.48 344.09 270.58V277.33C333.1 269.92 322.01 262.45 311.42 255.31C311.43 255.22 311.44 255.13 311.45 255.04C312.02 246.58 311.91 240.07 311.76 236.55C313.39 235.3 314.43 233.34 314.43 231.13V219.24C314.43 204.45 306.99 203.3 304.71 203.3C304.41 203.3 304.14 203.32 303.92 203.34H295.11C291.53 203.34 288.27 205.46 286.79 208.73C283.56 215.91 284.53 226.62 284.95 231.19C285 231.7 285.05 232.27 285.05 232.43C285.05 234.45 285.99 236.05 287.31 237.15V239.04C261.32 221.51 247.49 212.16 246.16 211.22C244.61 210.12 244.07 209.36 243.89 209.04C243.93 208.81 243.95 208.57 243.95 208.33V78.3299C243.95 50.1499 239.96 31.8799 236.61 21.5099C234.06 13.6299 228.65 0.419922 220.98 0.419922L221.04 0.429922Z" fill="#231F20"/>
</g>
<defs>
<clipPath id="clip0_412_7">
<rect width="442" height="580.61" fill="white" transform="translate(0 0.429932)"/>
</clipPath>
</defs>
</svg>
