<svg width="151" height="98" viewBox="0 0 151 98" fill="none" xmlns="http://www.w3.org/2000/svg">
<g clip-path="url(#clip0_38_47)">
<path d="M97.8701 92.3301C98.3301 92.2601 98.7101 91.9401 98.8501 91.4901L99.7701 88.5501C99.7701 88.5501 100.61 85.6601 98.2901 85.4101C96.1001 85.1701 80.0101 83.0901 78.2001 82.8501C78.1101 82.8401 78.0401 82.7501 78.0501 82.6601L81.9501 38.0001C81.9501 38.0001 81.9901 37.9301 82.0301 37.9301H144.16C144.29 37.9301 144.41 37.8601 144.47 37.7501C145.43 36.0301 152.65 22.6101 144.37 21.4601H91.7301V17.1101C91.7301 17.1101 91.3901 16.2701 90.7201 16.2701C89.5701 16.2701 89.5901 17.4001 89.5901 17.4001V18.8701L81.7901 19.7701L81.2801 12.3401H81.7801L81.1601 7.58006C81.1601 7.58006 80.7101 5.77006 79.1201 5.77006H76.5401C76.5401 5.77006 76.6101 5.32006 76.5901 4.75006H81.9601C82.1801 4.75006 82.4101 4.72006 82.6301 4.66006C83.3401 4.45006 83.1201 4.25006 82.8001 4.12006C82.5201 4.00006 82.2201 3.95006 81.9101 3.95006H76.5001C76.3601 3.22006 75.9901 2.56006 75.1401 2.56006C74.2901 2.56006 73.9301 3.23006 73.7801 3.95006H68.3701C68.0701 3.95006 67.7601 4.00006 67.4801 4.12006C67.1601 4.25006 66.9401 4.45006 67.6501 4.66006C67.8701 4.72006 68.0901 4.75006 68.3201 4.75006H73.6901C73.6801 5.32006 73.7401 5.77006 73.7401 5.77006H71.1601C69.5601 5.77006 69.1201 7.58006 69.1201 7.58006L68.5001 12.3501H69.0001L68.4901 19.7701L60.6901 18.8701V17.4001C60.6901 17.4001 60.7001 16.2701 59.5601 16.2701C58.8901 16.2701 58.5501 17.1101 58.5501 17.1101V21.4601H5.93013C-2.34987 22.6101 4.86013 36.0201 5.83013 37.7501C5.89013 37.8601 6.01013 37.9301 6.14013 37.9301H68.2701C68.2701 37.9301 68.3401 37.9601 68.3501 38.0001L72.2501 82.6601C72.2501 82.7501 72.1901 82.8401 72.1001 82.8501C70.2901 83.0801 54.2101 85.1701 52.0101 85.4101C49.6901 85.6601 50.5301 88.5501 50.5301 88.5501L51.4501 91.4901C51.5901 91.9401 51.9701 92.2601 52.4301 92.3301L75.1501 95.6101L97.8701 92.3301ZM89.6601 21.4701H87.9201L89.6601 20.5101V21.4701ZM60.6401 21.4701V20.5101L62.3801 21.4701H60.6401Z" fill="white"/>
<path d="M75.1297 2.56005C75.9797 2.56005 76.3397 3.23005 76.4897 3.95005H81.8997C82.1997 3.95005 82.5097 4.00005 82.7897 4.12005C83.1097 4.25005 83.3297 4.45005 82.6197 4.66005C82.3997 4.72005 82.1797 4.75005 81.9497 4.75005H76.5797C76.5897 5.32005 76.5297 5.77005 76.5297 5.77005H79.1097C80.7097 5.77005 81.1497 7.58005 81.1497 7.58005L81.7697 12.35H81.2697L81.7797 19.77L89.5797 18.87V17.4C89.5797 17.4 89.5697 16.27 90.7097 16.27C91.3797 16.27 91.7197 17.11 91.7197 17.11V21.46H144.36C152.64 22.61 145.43 36.02 144.46 37.75C144.4 37.86 144.28 37.93 144.15 37.93H82.0197C82.0197 37.93 81.9497 37.96 81.9397 38L78.0397 82.66C78.0397 82.75 78.0997 82.84 78.1897 82.8501C79.9997 83.0801 96.0797 85.1701 98.2797 85.41C100.6 85.66 99.7597 88.55 99.7597 88.55L98.8397 91.4901C98.6997 91.94 98.3197 92.26 97.8597 92.33L75.1397 95.6101L52.4197 92.33C51.9597 92.26 51.5797 91.94 51.4397 91.4901L50.5197 88.55C50.5197 88.55 49.6797 85.66 51.9997 85.41C54.1897 85.1701 70.2797 83.09 72.0897 82.8501C72.1797 82.84 72.2497 82.75 72.2397 82.66L68.3397 38C68.3397 38 68.2997 37.93 68.2597 37.93H6.12973C5.99973 37.93 5.87973 37.86 5.81973 37.75C4.85973 36.03 -2.36027 22.61 5.91973 21.46H58.5597V17.11C58.5597 17.11 58.8997 16.27 59.5697 16.27C60.7197 16.27 60.6997 17.4 60.6997 17.4V18.87L68.4997 19.77L69.0097 12.34H68.5097L69.1297 7.58005C69.1297 7.58005 69.5797 5.77005 71.1697 5.77005H73.7497C73.7497 5.77005 73.6797 5.32005 73.6997 4.75005H68.3297C68.1097 4.75005 67.8797 4.72005 67.6597 4.66005C66.9497 4.45005 67.1697 4.25005 67.4897 4.12005C67.7697 4.00005 68.0697 3.95005 68.3797 3.95005H73.7897C73.9297 3.22005 74.2997 2.56005 75.1497 2.56005M87.8997 21.47H89.6397V20.51L87.8997 21.47ZM60.6297 21.47H62.3697L60.6297 20.51V21.47ZM75.1297 0.560049C74.1997 0.560049 73.1497 0.950049 72.4597 1.95005H68.3597C67.7697 1.95005 67.2097 2.06005 66.6997 2.27005C65.2097 2.90005 65.1597 4.12005 65.1797 4.48005C65.2097 5.06005 65.4997 6.11005 67.0897 6.58005C67.1697 6.60005 67.2497 6.62005 67.3297 6.64005C67.2697 6.79005 67.2297 6.94005 67.1897 7.09005C67.1697 7.16005 67.1597 7.24005 67.1497 7.32005L66.5297 12.09C66.4597 12.62 66.6097 13.15 66.9297 13.57L66.6597 17.55L62.6897 17.09C62.6397 16.6301 62.4597 15.83 61.7997 15.16C61.3997 14.75 60.6797 14.27 59.5697 14.27C58.0697 14.27 57.0897 15.4 56.6997 16.37C56.6097 16.6101 56.5597 16.86 56.5597 17.11V19.46H5.91973C5.82973 19.46 5.73973 19.46 5.63973 19.48C2.71973 19.89 1.34973 21.49 0.719728 22.77C-1.72027 27.67 2.65973 36.23 4.06973 38.73C4.48973 39.47 5.26973 39.94 6.12973 39.94H66.4997L70.0997 81.1001C65.4197 81.7001 53.6297 83.2301 51.7897 83.4301C50.2897 83.5901 49.4697 84.3801 49.0497 85.0201C47.9597 86.6401 48.4897 88.72 48.5997 89.12L49.5297 92.1001C49.8997 93.2701 50.9197 94.1401 52.1397 94.3201L74.8597 97.6001C74.9497 97.6101 75.0497 97.62 75.1497 97.62C75.2497 97.62 75.3397 97.62 75.4397 97.6001L98.1597 94.3201C99.3797 94.1401 100.4 93.2701 100.77 92.1001L101.69 89.16C101.82 88.72 102.34 86.65 101.26 85.0201C100.84 84.3901 100.02 83.6001 98.5197 83.4301C96.6797 83.2301 84.8897 81.7101 80.2097 81.1001L83.8097 39.93H144.18C145.03 39.93 145.82 39.47 146.24 38.72C147.64 36.22 152.02 27.66 149.59 22.76C148.96 21.49 147.59 19.88 144.67 19.47C144.58 19.46 144.49 19.45 144.39 19.45H93.7497V17.1C93.7497 16.85 93.6997 16.59 93.6097 16.36C93.2197 15.39 92.2397 14.26 90.7397 14.26C89.6197 14.26 88.9097 14.75 88.5097 15.15C87.8597 15.81 87.6697 16.6 87.6197 17.08L83.6497 17.54L83.3797 13.56C83.6997 13.14 83.8497 12.61 83.7797 12.08L83.1597 7.31005C83.1597 7.23005 83.1397 7.16005 83.1197 7.08005C83.0797 6.93005 83.0397 6.78005 82.9797 6.63005C83.0597 6.61005 83.1397 6.59005 83.2197 6.57005C84.7997 6.10005 85.0897 5.06005 85.1297 4.47005C85.1497 4.11005 85.0997 2.89005 83.6097 2.26005C83.0997 2.05005 82.5397 1.94005 81.9497 1.94005H77.8497C77.1597 0.940049 76.1097 0.550049 75.1797 0.550049L75.1297 0.560049Z" fill="black"/>
</g>
<defs>
<clipPath id="clip0_38_47">
<rect width="150.27" height="97.05" fill="white" transform="translate(0 0.560059)"/>
</clipPath>
</defs>
</svg>
