<svg width="203" height="158" viewBox="0 0 203 158" fill="none" xmlns="http://www.w3.org/2000/svg">
<g clip-path="url(#clip0_39_53)">
<path d="M99.8802 147.7C100.1 150.42 100.41 152.94 100.68 154.93C100.78 155.68 101.86 155.68 101.96 154.93C102.23 152.95 102.53 150.42 102.76 147.7H133.94C135.71 148.29 137.95 132.09 133.94 132.65H105.78C105.78 132.65 112.28 90.84 111.33 75.74C118.18 75.74 194.66 75.3 196.5 75.3C200.33 72.38 202.86 54.98 196.5 54.98C188.48 54.39 133.98 55.27 133.98 55.27V48.06L133.61 46.37C133.61 46.37 137 44.75 132.87 42.69C132.72 41.59 132.5 40.63 132.5 40.63C132.5 40.63 139.71 41.66 141.55 39.75C142.29 39.16 141.66 38.87 141.66 38.87H132.26C132.26 38.87 131.38 34.64 129.94 34.64C128.5 34.64 127.6 38.82 127.6 38.82H118.34C118.34 38.82 117.25 38.82 118.14 39.83C121.42 42.04 127.29 40.46 127.29 40.46C127.29 40.46 126.85 42.34 126.74 42.98C125.64 42.65 123.37 45.05 126 46.29C126 46.29 125.82 47.52 125.82 48.13V55.45H110.97V35.7C110.97 35.7 109.9 21.23 105.93 8.13002C103.9 1.72002 101.32 2.60002 101.32 2.60002C101.32 2.60002 98.7402 1.72002 96.7102 8.12002C92.7302 21.22 91.6702 35.69 91.6702 35.69V55.44H76.8202V48.12C76.8202 47.51 76.6402 46.28 76.6402 46.28C79.2702 45.03 77.0102 42.64 75.9002 42.97C75.7902 42.33 75.3502 40.45 75.3502 40.45C75.3502 40.45 81.2202 42.03 84.5002 39.82C85.3802 38.81 84.3002 38.81 84.3002 38.81H75.0402C75.0402 38.81 74.1402 34.63 72.7002 34.63C71.2602 34.63 70.3802 38.86 70.3802 38.86H60.9802C60.9802 38.86 60.3502 39.15 61.0902 39.74C62.9302 41.65 70.1402 40.62 70.1402 40.62C70.1402 40.62 69.9202 41.58 69.7702 42.68C65.6502 44.74 69.0302 46.36 69.0302 46.36L68.6602 48.05V55.26C68.6602 55.26 14.1602 54.38 6.14016 54.97C-0.219841 54.97 2.31016 72.37 6.14016 75.29C7.98016 75.29 84.4702 75.73 91.3102 75.73C90.3502 90.82 96.8602 132.64 96.8602 132.64H68.7002C64.6902 132.09 66.9302 148.28 68.7002 147.69H99.8802V147.7Z" fill="white"/>
<path d="M101.64 2.56006C102.4 2.56006 104.33 3.10006 105.92 8.12006C109.9 21.2201 110.96 35.6901 110.96 35.6901V55.4401H125.81V48.1201C125.81 47.5101 125.99 46.2801 125.99 46.2801C123.52 45.1101 125.36 42.9401 126.51 42.9401C126.59 42.9401 126.66 42.9401 126.73 42.9701C126.84 42.3301 127.28 40.4501 127.28 40.4501C127.28 40.4501 125.24 41.0001 122.9 41.0001C121.26 41.0001 119.48 40.7301 118.13 39.8201C117.25 38.8101 118.33 38.8101 118.33 38.8101H127.59C127.59 38.8101 128.49 34.6301 129.93 34.6301C131.37 34.6301 132.25 38.8601 132.25 38.8601H141.65C141.65 38.8601 142.28 39.1501 141.54 39.7401C140.65 40.6601 138.52 40.9001 136.55 40.9001C134.43 40.9001 132.49 40.6201 132.49 40.6201C132.49 40.6201 132.71 41.5801 132.86 42.6801C136.98 44.7401 133.6 46.3601 133.6 46.3601L133.97 48.0501V55.2601C133.97 55.2601 164.63 54.7601 183.34 54.7601C189.58 54.7601 194.49 54.8201 196.5 54.9601C202.86 54.9601 200.33 72.3601 196.5 75.2801C194.66 75.2801 118.17 75.7201 111.33 75.7201C112.29 90.8101 105.78 132.63 105.78 132.63H133.94C134.01 132.63 134.07 132.62 134.14 132.62C137.81 132.62 135.76 147.7 134.04 147.7C134.01 147.7 133.98 147.7 133.94 147.68H102.76C102.54 150.4 102.23 152.92 101.96 154.91C101.91 155.28 101.62 155.47 101.32 155.47C101.02 155.47 100.73 155.28 100.68 154.91C100.41 152.93 100.11 150.4 99.88 147.68H68.7C68.7 147.68 68.64 147.7 68.6 147.7C66.88 147.7 64.83 132.62 68.5 132.62C68.56 132.62 68.63 132.62 68.7 132.63H96.86C96.86 132.63 90.36 90.8201 91.31 75.7201C84.46 75.7201 7.97996 75.2801 6.13996 75.2801C2.30996 72.3601 -0.220037 54.9601 6.13996 54.9601C8.14996 54.8101 13.06 54.7601 19.3 54.7601C38.01 54.7601 68.67 55.2601 68.67 55.2601V48.0501L69.04 46.3601C69.04 46.3601 65.65 44.7401 69.78 42.6801C69.93 41.5801 70.15 40.6201 70.15 40.6201C70.15 40.6201 68.21 40.9001 66.09 40.9001C64.12 40.9001 61.99 40.6601 61.1 39.7401C60.36 39.1501 60.99 38.8601 60.99 38.8601H70.39C70.39 38.8601 71.27 34.6301 72.71 34.6301C74.15 34.6301 75.05 38.8101 75.05 38.8101H84.31C84.31 38.8101 85.4 38.8101 84.51 39.8201C83.16 40.7301 81.38 41.0001 79.74 41.0001C77.4 41.0001 75.36 40.4501 75.36 40.4501C75.36 40.4501 75.8 42.3301 75.91 42.9701C75.98 42.9501 76.05 42.9401 76.13 42.9401C77.28 42.9401 79.11 45.1201 76.65 46.2801C76.65 46.2801 76.83 47.5101 76.83 48.1201V55.4401H91.68V35.6901C91.68 35.6901 92.75 21.2201 96.72 8.12006C98.31 3.10006 100.24 2.56006 101 2.56006C101.21 2.56006 101.33 2.60006 101.33 2.60006C101.33 2.60006 101.45 2.56006 101.66 2.56006M101.64 0.560059C101.52 0.560059 101.41 0.560059 101.31 0.580059C101.21 0.580059 101.1 0.560059 100.98 0.560059C99.16 0.560059 96.61 1.77006 94.8 7.52006C90.8 20.7101 89.71 34.9501 89.67 35.5401C89.67 35.5901 89.67 35.6401 89.67 35.6901V53.4401H78.82V48.1201C78.82 47.8601 78.8 47.5401 78.77 47.2301C79.8 46.2501 80 45.0001 79.78 44.0201C79.7 43.6601 79.56 43.3201 79.38 43.0001C79.5 43.0001 79.61 43.0001 79.73 43.0001C82.14 43.0001 84.12 42.4901 85.61 41.4801C85.75 41.3801 85.88 41.2701 86 41.1401C87.12 39.8601 86.88 38.7601 86.63 38.2201C86.16 37.1801 85.11 36.8101 84.29 36.8101H76.57C75.89 34.6501 74.72 32.6301 72.69 32.6301C70.66 32.6301 69.49 34.6801 68.82 36.8601H60.97C60.68 36.8601 60.38 36.9201 60.12 37.0501C59.53 37.3301 58.85 37.9701 58.74 38.9401C58.68 39.4301 58.74 40.3701 59.73 41.2201C60.91 42.3701 62.93 42.9001 66.07 42.9001C66.16 42.9001 66.24 42.9001 66.33 42.9001C65.92 43.4901 65.72 44.1201 65.72 44.8001C65.72 45.8501 66.24 46.6501 66.8 47.2001L66.71 47.6301C66.68 47.7701 66.66 47.9101 66.66 48.0501V53.2301C59.5 53.1201 35.03 52.7601 19.29 52.7601C12.33 52.7601 7.98996 52.8301 6.04996 52.9601C4.63996 52.9801 2.19996 53.5801 0.969963 57.2101C-0.950037 62.9001 1.29996 74.1101 4.91996 76.8701C5.26996 77.1401 5.68996 77.2801 6.12996 77.2801C6.74996 77.2801 16.29 77.3301 28.37 77.4001C49.42 77.5201 80.22 77.6901 89.22 77.7201C88.92 92.0601 93.23 122.02 94.52 130.63H68.8C68.7 130.63 68.6 130.62 68.5 130.62C67.78 130.62 66.45 130.86 65.52 132.47C63.45 136.05 64.74 145.51 66.29 148.19C67.01 149.44 67.95 149.71 68.6 149.71C68.69 149.71 68.78 149.71 68.87 149.69H98.05C98.22 151.47 98.44 153.32 98.69 155.19C98.87 156.52 99.97 157.48 101.31 157.48C102.65 157.48 103.75 156.52 103.93 155.19C104.18 153.32 104.4 151.48 104.57 149.69H133.75C133.84 149.7 133.93 149.71 134.02 149.71C136.1 149.71 136.91 147.32 137.43 144.97C137.89 142.87 138.17 140.32 138.17 138.14C138.17 131.93 135.97 130.62 134.12 130.62C134.02 130.62 133.92 130.62 133.81 130.63H108.09C109.38 122.02 113.69 92.0601 113.39 77.7201C122.4 77.6901 153.19 77.5201 174.24 77.4001C186.32 77.3301 195.86 77.2801 196.48 77.2801C196.92 77.2801 197.34 77.1401 197.69 76.8701C201.31 74.1101 203.56 62.9001 201.64 57.2101C200.42 53.5801 197.97 52.9801 196.56 52.9601C194.62 52.8201 190.29 52.7601 183.32 52.7601C167.58 52.7601 143.11 53.1201 135.95 53.2301V48.0501C135.95 47.9101 135.93 47.7601 135.9 47.6301L135.81 47.2001C136.37 46.6401 136.88 45.8501 136.89 44.8001C136.89 44.1201 136.69 43.4901 136.29 42.9001C136.38 42.9001 136.46 42.9001 136.55 42.9001C139.69 42.9001 141.71 42.3701 142.89 41.2201C143.88 40.3701 143.94 39.4301 143.88 38.9401C143.77 37.9701 143.09 37.3301 142.5 37.0501C142.23 36.9201 141.94 36.8601 141.65 36.8601H133.8C133.13 34.6801 131.96 32.6301 129.93 32.6301C127.9 32.6301 126.73 34.6501 126.05 36.8101H118.33C117.51 36.8101 116.46 37.1801 115.99 38.2201C115.75 38.7601 115.5 39.8501 116.62 41.1401C116.73 41.2701 116.86 41.3901 117.01 41.4801C118.5 42.4901 120.48 43.0001 122.89 43.0001C123.01 43.0001 123.12 43.0001 123.24 43.0001C123.06 43.3201 122.92 43.6601 122.84 44.0201C122.62 45.0101 122.82 46.2501 123.85 47.2401C123.82 47.5501 123.8 47.8701 123.8 48.1301V53.4501H112.95V35.7001C112.95 35.7001 112.95 35.6001 112.95 35.5501C112.91 34.9501 111.82 20.7101 107.83 7.55006C106 1.77006 103.45 0.560059 101.64 0.560059Z" fill="black"/>
</g>
<defs>
<clipPath id="clip0_39_53">
<rect width="202.07" height="156.93" fill="white" transform="translate(0.27002 0.560059)"/>
</clipPath>
</defs>
</svg>
