<svg width="169" height="77" viewBox="0 0 169 77" fill="none" xmlns="http://www.w3.org/2000/svg">
<g clip-path="url(#clip0_240_2)">
<path d="M84.4399 75.15C84.4399 75.15 70.4399 74.22 68.7499 74.1C67.6799 74.03 67.2199 73.52 67.0199 73.1C66.5999 72.23 67.0999 71.3 67.3099 70.98C67.4199 70.75 67.7899 69.97 68.2899 69.02C68.9699 67.72 69.7999 67.5 70.2599 67.49L81.8999 65.23C81.8499 63.1 81.7499 56.96 81.7499 46.72C81.7499 35.16 78.1099 34.8 78.0799 34.8L30.1699 31.42C21.7999 30.47 6.34993 28.72 3.44993 28.42C3.20993 28.61 2.86993 28.8 2.47993 28.8C2.12993 28.8 1.80993 28.66 1.55993 28.4C1.05993 27.88 1.01993 26.96 1.03993 26.46C1.03993 26.32 1.07993 26.18 1.13993 26.06C1.13993 26.04 1.97993 24.35 2.24993 23.05C2.60993 21.33 3.88993 20.79 4.58993 20.73L77.7999 19.95C77.8799 17.6 78.1299 11.58 78.5499 8.29998C78.5599 6.49998 79.1399 5.37998 79.8399 4.70998C78.0699 4.54998 77.7499 4.17998 77.7499 3.44998C77.7499 2.46998 78.1899 2.10998 82.9299 2.07998C83.4499 1.40998 84.0199 1.11998 84.0899 1.07998C84.2299 1.00998 84.3699 0.97998 84.5199 0.97998C84.6699 0.97998 84.8099 1.00998 84.9499 1.07998C85.0299 1.11998 85.5899 1.39998 86.1099 2.07998C90.8499 2.10998 91.2899 2.46998 91.2899 3.44998C91.2899 4.17998 90.9699 4.54998 89.1999 4.70998C89.9099 5.36998 90.4799 6.49998 90.4999 8.29998C90.9199 11.58 91.1699 17.61 91.2499 19.95L164.39 20.73C165.15 20.79 166.43 21.33 166.8 23.05C167.08 24.35 167.9 26.04 167.91 26.06C167.97 26.18 168.01 26.32 168.01 26.46C168.03 26.96 167.99 27.88 167.49 28.4C167.24 28.65 166.92 28.8 166.57 28.8C166.17 28.8 165.84 28.62 165.6 28.42C162.69 28.72 147.25 30.47 138.92 31.42L91.0199 34.8C90.9299 34.8 87.2899 35.17 87.2899 46.73C87.2899 56.97 87.1799 63.11 87.1299 65.24L98.7699 67.5C99.2199 67.5 100.06 67.73 100.74 69.03C101.24 69.98 101.61 70.76 101.72 70.99C101.92 71.31 102.42 72.24 102.01 73.11C101.81 73.53 101.35 74.04 100.28 74.11C98.5899 74.23 84.5899 75.16 84.5899 75.16C84.5699 75.16 84.5499 75.16 84.5199 75.16C84.4899 75.16 84.4799 75.16 84.4499 75.16L84.4399 75.15Z" fill="white"/>
<path d="M84.5 2C84.5 2 85.12 2.3 85.56 3.09C91.75 3.09 91.85 3.81 85.86 3.83C85.94 4.13 85.99 4.48 85.99 4.88H87.3C87.3 4.88 89.48 4.97 89.48 8.37C90 12.39 90.27 20.95 90.27 20.95L164.37 21.74C164.37 21.74 165.51 21.83 165.81 23.27C166.12 24.71 167 26.52 167 26.52C167 26.52 167.05 27.81 166.56 27.81C166.41 27.81 166.22 27.69 165.95 27.39C164.73 27.48 138.79 30.43 138.79 30.43L90.93 33.81C90.77 33.81 86.28 33.92 86.28 46.74C86.28 59.56 86.11 66.07 86.11 66.07L98.69 68.52C98.69 68.52 98.71 68.52 98.74 68.52C98.89 68.52 99.37 68.6 99.85 69.51C100.43 70.62 100.84 71.49 100.84 71.49C100.84 71.49 101.89 73 100.2 73.12C98.51 73.24 84.51 74.17 84.51 74.17C84.51 74.17 70.51 73.24 68.82 73.12C67.13 73 68.18 71.49 68.18 71.49C68.18 71.49 68.59 70.62 69.17 69.51C69.65 68.6 70.13 68.52 70.28 68.52C70.31 68.52 70.33 68.52 70.33 68.52L82.91 66.07C82.91 66.07 82.74 59.78 82.74 46.74C82.74 33.7 78.24 33.81 78.09 33.81L30.23 30.43C30.23 30.43 4.28998 27.48 3.06998 27.39C2.80998 27.69 2.60998 27.81 2.45998 27.81C1.96998 27.81 2.01998 26.52 2.01998 26.52C2.01998 26.52 2.90998 24.72 3.20998 23.27C3.51998 21.83 4.64998 21.74 4.64998 21.74L78.75 20.95C78.75 20.95 79.01 12.39 79.54 8.37C79.54 4.96 81.72 4.88 81.72 4.88H83.03C83.03 4.48 83.08 4.13 83.16 3.83C77.17 3.8 77.26 3.09 83.46 3.09C83.9 2.29 84.52 2 84.52 2M84.5 0C84.21 0 83.91 0.06 83.64 0.19C83.5 0.25 82.99 0.52 82.45 1.09C78.86 1.11 76.73 1.29 76.73 3.45C76.73 4.49 77.23 5.07 78.12 5.39C77.77 6.13 77.55 7.06 77.53 8.23C77.16 11.18 76.92 16.21 76.81 18.96L4.61998 19.73C4.61998 19.73 4.52998 19.73 4.48998 19.73C3.50998 19.81 1.72998 20.54 1.24998 22.84C1.03998 23.81 0.429984 25.18 0.219984 25.62C0.0999844 25.87 0.0299844 26.14 0.0199844 26.42C-0.0100156 27.22 0.0999844 28.34 0.819984 29.09C1.25998 29.54 1.83998 29.79 2.45998 29.79C2.88998 29.79 3.29998 29.67 3.68998 29.44C7.10998 29.8 20.7 31.34 30 32.4C30.03 32.4 30.06 32.4 30.09 32.4L77.95 35.78C78.19 35.87 80.74 37.11 80.74 46.71C80.74 56.31 80.83 61.71 80.88 64.4L70.14 66.49C69.53 66.53 68.3 66.84 67.41 68.55C66.94 69.45 66.58 70.2 66.44 70.49C65.94 71.3 65.62 72.47 66.13 73.53C66.39 74.07 67.06 74.98 68.69 75.09C70.38 75.21 84.39 76.14 84.39 76.14C84.43 76.14 84.48 76.14 84.52 76.14C84.56 76.14 84.61 76.14 84.65 76.14C84.65 76.14 98.66 75.21 100.35 75.09C101.98 74.98 102.66 74.06 102.91 73.53C103.42 72.47 103.1 71.3 102.6 70.49C102.46 70.2 102.1 69.45 101.63 68.55C100.73 66.84 99.51 66.53 98.9 66.49L88.16 64.4C88.21 61.72 88.3 55.84 88.3 46.71C88.3 37.11 90.85 35.87 91.09 35.78L138.95 32.4C138.95 32.4 139.01 32.4 139.04 32.4C148.33 31.34 161.93 29.8 165.35 29.44C165.74 29.67 166.15 29.79 166.58 29.79C167.2 29.79 167.78 29.54 168.22 29.09C168.94 28.34 169.05 27.23 169.02 26.42C169.01 26.14 168.94 25.87 168.82 25.62C168.6 25.18 167.99 23.82 167.79 22.84C167.3 20.55 165.52 19.81 164.55 19.73C164.51 19.73 164.46 19.73 164.42 19.73L92.23 18.96C92.12 16.21 91.89 11.17 91.51 8.23C91.49 7.06 91.27 6.13 90.92 5.39C91.81 5.06 92.31 4.48 92.31 3.45C92.31 1.28 90.18 1.1 86.59 1.09C86.05 0.52 85.53 0.26 85.4 0.19C85.13 0.06 84.83 0 84.54 0L84.5 0Z" fill="black"/>
</g>
<defs>
<clipPath id="clip0_240_2">
<rect width="169" height="76.15" fill="white"/>
</clipPath>
</defs>
</svg>
