<svg width="92" height="74" viewBox="0 0 92 74" fill="none" xmlns="http://www.w3.org/2000/svg">
<g clip-path="url(#clip0_490_2)">
<path d="M46.16 72.8903C45.66 72.8903 44.83 72.6103 44.81 70.7303L44.73 67.9603H36.59C35.94 67.9603 35.41 67.4303 35.41 66.7803V66.7603H30.49C30.2801 66.7603 30.08 66.6903 29.91 66.5703C29.8 66.4902 29.41 66.1703 29.21 65.5103C28.82 64.3103 28.84 59.7603 29.03 58.5503C29.27 57.0103 30.55 56.5603 31.18 56.5403H42.15L39.63 36.7403H19.54C18.6 36.7403 17.67 36.5903 16.77 36.2803C12.86 34.9503 3.67005 31.8303 2.81005 31.5203C1.44005 31.0303 1.18005 29.9303 1.23005 29.3303V21.7803C1.23005 20.3303 2.30005 19.7603 3.01005 19.7303L16.45 18.2303C17.77 18.0803 19.12 18.0103 20.45 18.0103H39.43C39.55 13.1103 40.48 9.08025 40.8 7.72025L40.87 7.40025C40.89 7.33025 40.9 7.26025 40.92 7.19025C39.65 7.18025 38.63 7.15025 37.87 7.11025C36.35 7.04025 35.25 6.99025 35.25 5.89025C35.25 4.79025 36.08 4.68025 40.01 4.32025C41.22 4.21025 42.51 4.11025 43.31 4.05025C43.65 3.07025 44.13 2.21025 44.74 1.50025C45.01 1.19025 45.4 1.01025 45.81 1.01025C46.22 1.01025 46.61 1.19025 46.88 1.50025C47.49 2.21025 47.97 3.07025 48.31 4.05025C49.11 4.11025 50.4001 4.21025 51.6101 4.32025C55.5401 4.68025 56.37 4.79025 56.37 5.89025C56.37 6.99025 55.2701 7.04025 53.75 7.11025C52.9901 7.15025 51.9701 7.17025 50.7001 7.19025C50.7201 7.26025 50.7401 7.33025 50.75 7.40025L50.82 7.72025C51.14 9.08025 52.07 13.1103 52.19 18.0103H71.17C72.5 18.0103 73.85 18.0903 75.17 18.2303L88.61 19.7303C89.33 19.7703 90.39 20.3403 90.39 21.7803V29.3303C90.44 29.9303 90.18 31.0303 88.81 31.5203C87.95 31.8303 78.76 34.9503 74.84 36.2803C73.95 36.5803 73.01 36.7403 72.07 36.7403H51.98L49.46 56.5403H60.4C61.07 56.5603 62.34 57.0003 62.58 58.5503C62.77 59.7703 62.7901 64.3102 62.39 65.5303C62.19 66.1803 61.81 66.4902 61.69 66.5703C61.5201 66.6903 61.32 66.7603 61.1101 66.7603H56.19V66.7803C56.19 67.4303 55.66 67.9603 55.01 67.9603H47.71L47.48 70.8003C47.42 71.4303 47.28 72.8903 46.13 72.8903H46.16Z" fill="white"/>
<path d="M45.81 2.00023C45.93 2.00023 46.04 2.05023 46.13 2.15023C46.58 2.67023 47.18 3.55023 47.56 5.00023C47.8 5.00023 64.89 6.20023 47.76 6.20023V6.63023L49.12 6.79023C49.12 6.79023 49.63 6.88023 49.78 7.60023C49.93 8.30023 51.15 12.9602 51.21 18.6002C51.21 18.8302 51.4 19.0202 51.63 19.0202H71.18C72.48 19.0202 73.78 19.0902 75.07 19.2402L88.55 20.7502C88.55 20.7502 89.41 20.7502 89.41 21.8102V29.4202C89.41 29.4202 89.55 30.2402 88.49 30.6202C87.62 30.9302 77.96 34.2102 74.54 35.3802C73.75 35.6502 72.93 35.7802 72.09 35.7802H51.36C51.22 35.7802 51.11 35.8802 51.09 36.0202L48.36 57.4302C48.35 57.5102 48.41 57.5802 48.49 57.5802H60.41C60.41 57.5802 61.43 57.6102 61.61 58.7502C61.79 59.8902 61.79 64.2502 61.46 65.2602C61.34 65.6502 61.13 65.8002 61.13 65.8002H55.21V66.8202C55.21 66.9202 55.13 67.0002 55.03 67.0002H47.63C47.57 67.0002 47.51 66.9702 47.47 66.9202L46.87 66.1202L46.5 70.7702C46.5 70.7702 46.39 71.9402 46.15 71.9402C45.81 71.9402 45.8 70.7702 45.8 70.7702L45.66 66.1202L45.06 66.9202C45.02 66.9702 44.96 67.0002 44.9 67.0002H36.58C36.48 67.0002 36.4 66.9202 36.4 66.8202V65.8002H30.48C30.48 65.8002 30.27 65.6502 30.15 65.2602C29.82 64.2402 29.82 59.8802 30 58.7502C30.18 57.6102 31.2 57.5802 31.2 57.5802H43.12C43.2 57.5802 43.26 57.5102 43.25 57.4302L40.52 36.0202C40.5 35.8802 40.39 35.7802 40.25 35.7802H19.52C18.69 35.7802 17.86 35.6402 17.07 35.3802C13.65 34.2202 3.99001 30.9402 3.12001 30.6202C2.06001 30.2402 2.20001 29.4202 2.20001 29.4202V21.8102C2.20001 20.7502 3.06001 20.7502 3.06001 20.7502L16.54 19.2402C17.83 19.1002 19.13 19.0202 20.43 19.0202H39.98C40.21 19.0202 40.4 18.8302 40.4 18.6002C40.46 12.9602 41.69 8.30023 41.83 7.60023C41.98 6.88023 42.49 6.79023 42.49 6.79023L43.85 6.63023V6.20023C26.72 6.20023 43.81 5.00023 44.05 5.00023C44.43 3.56023 45.03 2.67023 45.48 2.15023C45.56 2.05023 45.68 2.00023 45.8 2.00023M45.81 0.000234375C45.11 0.000234375 44.44 0.310234 43.98 0.840234C43.42 1.49023 42.96 2.24023 42.6 3.09023C41.79 3.15023 40.78 3.23023 39.91 3.31023C38.76 3.42023 37.84 3.52023 37.17 3.61023C36.15 3.75023 34.25 4.01023 34.25 5.88023C34.25 7.93023 36.32 8.03024 37.83 8.10023C38.33 8.12024 38.95 8.14023 39.67 8.16023C39.3 9.82023 38.64 13.0802 38.46 17.0102H20.44C19.07 17.0102 17.69 17.0902 16.33 17.2402L2.93001 18.7402C1.59001 18.8002 0.210014 19.8702 0.210014 21.7802V29.2802C0.120014 30.4402 0.750014 31.8602 2.45001 32.4702C3.31001 32.7802 12.51 35.9102 16.43 37.2402C17.43 37.5802 18.47 37.7502 19.52 37.7502H38.73L41 55.5502H31.2C31.2 55.5502 31.16 55.5502 31.14 55.5502C29.85 55.5902 28.33 56.5002 28.03 58.4002C27.83 59.6402 27.77 64.3502 28.25 65.8402C28.53 66.7502 29.09 67.2302 29.32 67.3902C29.66 67.6302 30.07 67.7602 30.48 67.7602H34.63C34.99 68.4702 35.73 68.9602 36.57 68.9602H43.74L43.8 70.7902C43.82 73.6702 45.6 73.8902 46.15 73.8902C47.09 73.8902 48.26 73.3702 48.49 70.9102L48.64 68.9602H55.02C55.87 68.9602 56.6 68.4702 56.96 67.7602H61.11C61.53 67.7602 61.93 67.6302 62.27 67.3902C62.5 67.2302 63.06 66.7502 63.35 65.8102C63.82 64.3502 63.76 59.6302 63.56 58.4002C63.26 56.4902 61.74 55.5902 60.45 55.5502C60.43 55.5502 60.41 55.5502 60.39 55.5502H50.59L52.86 37.7502H72.07C73.12 37.7502 74.16 37.5802 75.16 37.2402C79.08 35.9102 88.28 32.7802 89.14 32.4702C90.84 31.8602 91.48 30.4402 91.38 29.2802V21.7802C91.38 19.8702 90.01 18.8002 88.67 18.7302L75.27 17.2302C73.91 17.0802 72.53 17.0002 71.16 17.0002H53.14C52.96 13.0802 52.3 9.81023 51.93 8.15023C52.65 8.14023 53.27 8.12023 53.77 8.09023C55.28 8.02024 57.35 7.92023 57.35 5.87023C57.35 4.01023 55.45 3.74023 54.43 3.60023C53.76 3.51023 52.84 3.41023 51.69 3.30023C50.82 3.22023 49.81 3.14023 49 3.08023C48.64 2.23023 48.18 1.48023 47.62 0.830234C47.16 0.300234 46.49 -0.00976562 45.79 -0.00976562L45.81 0.000234375Z" fill="black"/>
</g>
<defs>
<clipPath id="clip0_490_2">
<rect width="91.21" height="73.89" fill="white" transform="translate(0.209961)"/>
</clipPath>
</defs>
</svg>
