<svg width="264" height="303" viewBox="0 0 264 303" fill="none" xmlns="http://www.w3.org/2000/svg">
<g clip-path="url(#clip0_824_160)">
<path d="M132 302C131.79 302 131.58 301.93 131.4 301.8C130.66 301.25 130.28 300.38 129.87 299.46C129.72 299.11 129.55 298.74 129.36 298.36C127.58 294.91 126.26 291.28 125.42 287.56L81.69 297.75C81.61 297.77 81.54 297.78 81.46 297.78C81.24 297.78 81.02 297.7 80.84 297.56C80.6 297.37 80.46 297.08 80.46 296.78C80.46 289.88 80.46 285.32 84.36 282.2L119.26 255.78C119.79 255.19 120.14 254.65 120.5 254.08C120.62 253.89 120.74 253.7 120.87 253.51C117.04 238.16 116.19 228.91 114.92 212.68V166.02H100.16C99.88 168.87 99.28 170.3 98.19 170.73C98.07 170.78 97.94 170.8 97.82 170.8C97.7 170.8 97.57 170.78 97.45 170.73C96.36 170.29 95.75 168.86 95.48 166.02H84.39L77.51 167.99C77.22 170.63 76.61 172.01 75.57 172.43C75.45 172.48 75.32 172.5 75.2 172.5C75.08 172.5 74.95 172.48 74.83 172.43C73.96 172.08 73.4 171.09 73.07 169.26L52.39 175.17C52.11 177.9 51.49 179.32 50.43 179.75C50.31 179.8 50.18 179.82 50.06 179.82C49.94 179.82 49.81 179.8 49.69 179.75C48.8 179.39 48.24 178.36 47.91 176.46L12.81 186.49L2.66004 194.53C2.48004 194.67 2.26004 194.75 2.04004 194.75C1.89004 194.75 1.74004 194.72 1.60004 194.65C1.25004 194.48 1.04004 194.13 1.04004 193.75V187.84C1.04004 187.73 1.06004 187.62 1.10004 187.51L5.12004 175.97C5.25004 175.66 5.36004 175.39 5.47004 175.1C6.22004 173.15 7.46004 169.88 11.88 167.54L80.72 131.69C80.64 130.95 80.58 130.18 80.52 129.36H78.91C78.41 129.36 77.98 128.99 77.92 128.49C76.65 118.76 75.46 109.56 79.61 98.5298C79.76 98.1398 80.13 97.8798 80.55 97.8798H93.03C93.45 97.8798 93.82 98.1398 93.97 98.5298C97.39 107.75 97.16 115.57 96.33 123.3L114.96 113.2V50.4498C114.96 31.0598 120.21 2.90979 131.89 1.03979C131.94 1.03979 132 1.02979 132.05 1.02979C132.1 1.02979 132.16 1.02979 132.21 1.03979C143.89 2.90979 149.14 31.0598 149.14 50.4498V113.2L167.77 123.3C166.94 115.56 166.71 107.75 170.13 98.5298C170.28 98.1398 170.65 97.8798 171.07 97.8798H183.55C183.97 97.8798 184.34 98.1398 184.49 98.5298C188.64 109.57 187.45 118.76 186.18 128.49C186.12 128.99 185.69 129.36 185.19 129.36H183.58C183.52 130.18 183.45 130.95 183.38 131.69L252.22 167.53C256.65 169.88 257.89 173.14 258.64 175.1C258.75 175.4 258.85 175.67 258.96 175.9L263.01 187.52C263.05 187.63 263.07 187.74 263.07 187.85V193.76C263.07 194.14 262.85 194.49 262.51 194.66C262.37 194.73 262.22 194.76 262.07 194.76C261.85 194.76 261.63 194.69 261.45 194.54L251.3 186.5L216.2 176.47C215.87 178.38 215.31 179.41 214.42 179.76C214.3 179.81 214.17 179.83 214.05 179.83C213.93 179.83 213.8 179.81 213.68 179.76C212.62 179.33 212.01 177.91 211.72 175.18L191.04 169.27C190.71 171.1 190.15 172.09 189.28 172.44C189.16 172.49 189.03 172.51 188.91 172.51C188.79 172.51 188.66 172.49 188.54 172.44C187.5 172.02 186.89 170.64 186.6 168L179.72 166.03H168.63C168.35 168.88 167.75 170.31 166.66 170.74C166.54 170.79 166.41 170.81 166.29 170.81C166.17 170.81 166.04 170.79 165.92 170.74C164.83 170.3 164.23 168.87 163.95 166.03H149.19V212.61C147.91 228.92 147.06 238.18 143.23 253.52C143.36 253.71 143.48 253.9 143.6 254.09C143.96 254.66 144.31 255.2 144.84 255.79L179.72 282.2C183.64 285.33 183.64 289.89 183.64 296.79C183.64 297.09 183.5 297.38 183.26 297.57C183.08 297.71 182.86 297.79 182.64 297.79C182.56 297.79 182.49 297.79 182.41 297.76L138.68 287.57C137.84 291.29 136.52 294.91 134.74 298.37C134.54 298.75 134.38 299.12 134.23 299.47C133.82 300.39 133.43 301.26 132.7 301.81C132.52 301.94 132.31 302.01 132.1 302.01L132 302Z" fill="white"/>
<path d="M132 1.99996C142.56 3.68996 148.09 30.15 148.09 50.43V113.78L168.93 125.08C167.86 115.97 167.55 108.19 171.02 98.86H183.5C187.42 109.28 186.51 117.72 185.13 128.34H182.58C182.49 129.81 182.38 131.07 182.24 132.24L251.68 168.4C256.46 170.93 257.21 174.59 257.97 176.28L261.99 187.82V193.73L251.68 185.57L215.29 175.17C215.09 176.97 214.71 178.52 213.97 178.81C213.13 178.47 212.74 176.5 212.57 174.39L190.13 167.98C189.93 169.72 189.54 171.2 188.82 171.49C187.99 171.16 187.61 169.27 187.44 167.21L179.77 165.02H167.61C167.46 167.27 167.08 169.45 166.19 169.81C165.3 169.45 164.92 167.27 164.77 165.02H148.09V212.6C146.77 229.37 145.88 238.48 142.06 253.71C142.75 254.68 143.15 255.52 144.07 256.53L179.02 283C182.54 285.82 182.54 290.04 182.54 296.8L137.82 286.38C136.97 290.59 135.54 294.45 133.75 297.92C133.07 299.24 132.75 300.45 131.99 301.02C131.24 300.46 130.91 299.25 130.23 297.92C128.44 294.45 127.01 290.59 126.16 286.38L81.44 296.8C81.44 290.04 81.44 285.82 84.96 283L119.91 256.53C120.84 255.52 121.24 254.68 121.92 253.71C118.1 238.48 117.2 229.37 115.89 212.6V165.02H99.21C99.06 167.27 98.68 169.45 97.79 169.81C96.9 169.45 96.52 167.27 96.37 165.02H84.21L76.54 167.21C76.37 169.27 75.98 171.16 75.16 171.49C74.44 171.2 74.05 169.72 73.85 167.98L51.41 174.39C51.24 176.5 50.86 178.47 50.02 178.81C49.28 178.51 48.89 176.96 48.7 175.17L12.31 185.57L2 193.73V187.82L6.02 176.28C6.77 174.59 7.53 170.93 12.31 168.4L81.75 132.24C81.62 131.07 81.5 129.81 81.41 128.34H78.86C77.48 117.72 76.57 109.27 80.49 98.86H92.97C96.43 108.19 96.13 115.97 95.06 125.08L115.9 113.78V50.43C115.9 30.16 121.43 3.68996 131.99 1.99996M131.99 -3.90634e-05C131.88 -3.90634e-05 131.78 -3.90634e-05 131.67 0.0299609C118.72 2.09996 113.89 32.04 113.89 50.43V112.59L97.44 121.51C98.11 114.26 98.05 106.83 94.84 98.17C94.55 97.39 93.8 96.87 92.96 96.87H80.48C79.65 96.87 78.9 97.39 78.61 98.17C74.37 109.44 75.58 118.76 76.87 128.62C77 129.62 77.85 130.36 78.85 130.36H79.54C79.56 130.62 79.58 130.87 79.61 131.12L11.39 166.62C6.63 169.15 5.24 172.77 4.5 174.72C4.39 175 4.3 175.25 4.2 175.47C4.18 175.52 4.16 175.57 4.14 175.63L0.11 187.16C0.04 187.37 0 187.59 0 187.82V193.73C0 194.5 0.44 195.2 1.13 195.53C1.41 195.66 1.7 195.73 2 195.73C2.44 195.73 2.88 195.58 3.24 195.3L13.24 187.38L47.11 177.7C47.47 179.04 48.09 180.19 49.28 180.67C49.52 180.77 49.77 180.81 50.03 180.81C50.29 180.81 50.54 180.76 50.78 180.67C52.13 180.13 52.91 178.69 53.28 175.95L72.3 170.51C72.66 171.79 73.28 172.89 74.43 173.35C74.67 173.45 74.92 173.49 75.18 173.49C75.44 173.49 75.69 173.44 75.93 173.35C77.52 172.71 78.13 170.81 78.41 168.76L84.52 167.02H94.58C94.95 169.73 95.71 171.12 97.07 171.66C97.31 171.76 97.56 171.8 97.82 171.8C98.08 171.8 98.33 171.75 98.57 171.66C99.92 171.12 100.69 169.73 101.06 167.02H113.93V212.6C113.93 212.65 113.93 212.7 113.93 212.76C115.2 228.89 116.05 238.16 119.8 253.33C119.75 253.4 119.71 253.47 119.66 253.55C119.32 254.08 119.02 254.54 118.58 255.05L83.78 281.4C83.78 281.4 83.75 281.42 83.74 281.43C79.47 284.85 79.47 289.85 79.47 296.79C79.47 297.4 79.75 297.98 80.23 298.36C80.59 298.64 81.03 298.79 81.47 298.79C81.62 298.79 81.77 298.77 81.92 298.74L124.68 288.78C125.54 292.24 126.81 295.61 128.48 298.83C128.66 299.18 128.82 299.53 128.97 299.88C129.41 300.88 129.87 301.91 130.82 302.62C131.17 302.88 131.6 303.02 132.02 303.02C132.44 303.02 132.86 302.89 133.22 302.62C134.17 301.91 134.62 300.88 135.07 299.88C135.22 299.54 135.38 299.18 135.56 298.83C137.22 295.61 138.49 292.23 139.36 288.78L182.12 298.74C182.27 298.77 182.42 298.79 182.57 298.79C183.02 298.79 183.46 298.64 183.81 298.36C184.29 297.98 184.57 297.4 184.57 296.79C184.57 289.86 184.57 284.85 180.3 281.43C180.29 281.42 180.27 281.41 180.26 281.4L145.46 255.05C145.02 254.55 144.72 254.09 144.38 253.55C144.33 253.48 144.29 253.41 144.24 253.33C148 238.15 148.85 228.89 150.11 212.76C150.11 212.71 150.11 212.66 150.11 212.6V167.02H162.98C163.35 169.73 164.11 171.12 165.47 171.66C165.71 171.76 165.96 171.8 166.22 171.8C166.48 171.8 166.73 171.75 166.97 171.66C168.32 171.12 169.09 169.73 169.46 167.02H179.52L185.63 168.76C185.91 170.81 186.52 172.71 188.11 173.35C188.35 173.45 188.6 173.49 188.86 173.49C189.12 173.49 189.37 173.44 189.61 173.35C190.76 172.89 191.38 171.79 191.74 170.51L210.76 175.95C211.13 178.69 211.9 180.13 213.26 180.67C213.5 180.77 213.75 180.81 214.01 180.81C214.27 180.81 214.52 180.76 214.76 180.67C215.94 180.19 216.57 179.05 216.93 177.7L250.8 187.38L260.8 195.3C261.16 195.59 261.6 195.73 262.04 195.73C262.34 195.73 262.63 195.66 262.91 195.53C263.6 195.2 264.04 194.5 264.04 193.73V187.82C264.04 187.6 264 187.37 263.93 187.16L259.91 175.62C259.89 175.57 259.87 175.51 259.85 175.46C259.75 175.25 259.66 174.99 259.55 174.71C258.81 172.76 257.42 169.14 252.67 166.62L184.42 131.08C184.44 130.83 184.47 130.58 184.49 130.32H185.18C186.18 130.32 187.03 129.57 187.16 128.58C188.44 118.72 189.66 109.41 185.42 98.13C185.13 97.35 184.38 96.83 183.55 96.83H171.07C170.23 96.83 169.49 97.35 169.19 98.13C165.97 106.8 165.92 114.22 166.59 121.47L150.14 112.55V50.39C150.14 32 145.31 2.05996 132.36 -0.0100391C132.26 -0.0300391 132.15 -0.0400391 132.04 -0.0400391L131.99 -3.90634e-05Z" fill="black"/>
</g>
<defs>
<clipPath id="clip0_824_160">
<rect width="264" height="303" fill="white"/>
</clipPath>
</defs>
</svg>
