<svg width="288" height="388" viewBox="0 0 288 388" fill="none" xmlns="http://www.w3.org/2000/svg">
<g clip-path="url(#clip0_825_163)">
<path d="M145.8 386.37C147.63 382.9 149.09 376.04 149.95 371.83L199.74 382.25C199.74 375.49 199.74 371.27 196.14 368.45L156.34 341.98C155.39 340.97 153.96 340.13 153.26 339.16C157.17 323.93 159.1 312.82 160.45 296.05V192.43H182.56C182.71 194.68 183.1 196.86 184.01 197.22C184.92 196.86 185.31 194.68 185.46 192.43H198.91L206.75 194.62C206.92 196.68 207.32 198.57 208.16 198.9C208.9 198.61 209.29 197.13 209.5 195.39L233.43 201.8C233.6 203.91 233.99 205.88 234.86 206.22C235.62 205.92 236.01 204.37 236.21 202.58L278.51 213.98L287 222.14V216.23L282.89 204.69C282.12 203 281.35 199.34 276.47 196.81L201.44 159.65C201.58 158.48 201.69 157.22 201.78 155.75H204.38C205.79 145.13 207.74 138.68 203.73 128.27H187.91C184.37 137.6 185.7 143.38 186.8 152.49L160.43 140.19V49.43C160.43 29.16 154.78 2.69 143.98 1C133.19 2.69 127.53 29.15 127.53 49.43V140.21L101.16 152.51C102.26 143.4 103.59 137.62 100.05 128.29H84.23C80.23 138.71 82.17 145.15 83.58 155.77H86.18C86.27 157.24 86.39 158.5 86.52 159.67L11.54 196.82C6.66001 199.35 5.89001 203.01 5.12001 204.7L1.01001 216.24V222.15L9.50001 213.99L51.8 202.59C52 204.39 52.39 205.94 53.15 206.23C54.01 205.89 54.41 203.92 54.58 201.81L78.51 195.4C78.71 197.14 79.11 198.62 79.85 198.91C80.69 198.58 81.09 196.69 81.26 194.63L89.1 192.44H102.55C102.7 194.69 103.09 196.87 104 197.23C104.91 196.87 105.3 194.69 105.45 192.44H127.56V296.06C128.91 312.83 130.84 323.94 134.75 339.17C134.05 340.14 132.62 340.98 131.67 341.99L91.87 368.46C88.27 371.28 88.27 375.5 88.27 382.26L138.06 371.84C138.93 376.05 140.39 382.91 142.21 386.38H145.8V386.37Z" fill="white" stroke="black" stroke-width="2" stroke-linecap="round" stroke-linejoin="round"/>
</g>
<defs>
<clipPath id="clip0_825_163">
<rect width="288" height="387.37" fill="white"/>
</clipPath>
</defs>
</svg>
