<svg width="360" height="426" viewBox="0 0 360 426" fill="none" xmlns="http://www.w3.org/2000/svg">
<g clip-path="url(#clip0_505_66)">
<path d="M179.54 423.41C178.56 423.41 176.18 423.21 175.18 421.32C175.15 421.27 175.13 421.22 175.11 421.17C173.94 418.43 173.23 411.84 172.92 408.19C163.31 410.83 128.1 420.52 126.93 420.82C126.57 420.91 126.23 420.96 125.9 420.96C124.18 420.96 123.13 419.67 123.02 418.47C123.02 418.41 123.02 418.35 123.02 418.29V405.19C123.02 401.84 126.52 399.76 127.39 399.29L167.81 370.36C167.93 370.1 168.1 369.29 167.75 367.72C161.75 353.49 160.68 329.35 160.64 328.32V235.91H147.3C146.46 240.65 145.55 242.91 143.4 242.91C141.25 242.91 140.34 240.65 139.52 235.91H129.87L119.99 238.65C118.86 246.61 117.85 248.84 115.58 248.84C113.54 248.84 112.54 247.02 111.55 240.98L86.2201 248C85.2201 256.01 84.3601 258.02 82.1501 258.02C80.1401 258.02 79.2601 256.34 78.3701 250.18L28.4001 264.04C25.5701 265.27 6.07011 273.76 5.39011 274.04C5.05011 274.18 4.70011 274.25 4.36011 274.25C3.71011 274.25 3.10011 273.99 2.66011 273.53C2.05011 272.88 1.98011 272.09 1.99011 271.71V268.86C1.99011 265.82 5.32011 262.92 5.99011 262.37L23.1301 249.53C23.3401 249.33 24.0701 248.67 25.4901 247.36C25.5401 247.31 25.5901 247.27 25.6501 247.23C26.8701 246.31 27.9301 245.87 28.9001 245.86C35.2801 242.54 93.1201 212.45 128.48 193.94C128.07 192.86 127.72 191.47 127.56 189.72C126.67 189.63 124.99 189.21 123.9 187.34C122.47 184.85 121.68 181.46 121.68 177.79V157.01C121.71 153.63 123.47 150 127.25 150H143.56C147.35 150 149.1 153.62 149.13 156.99V177.79C149.13 179.79 148.9 181.71 148.45 183.45C153.84 180.6 155.67 179.6 156.15 179.32C160.17 176.95 160.9 172.01 160.99 171.35V51.79C160.99 29.98 172.53 2.37 179.6 2.37C186.67 2.37 198.21 29.98 198.21 51.79V171.34C198.29 171.99 199.06 176.97 203.05 179.32C203.53 179.6 205.36 180.6 210.75 183.45C210.3 181.71 210.07 179.79 210.07 177.79V157.01C210.1 153.63 211.86 150 215.64 150H231.95C235.74 150 237.49 153.62 237.52 156.99V177.79C237.52 181.46 236.73 184.84 235.31 187.33C234.21 189.21 232.53 189.64 231.64 189.73C231.49 191.48 231.14 192.87 230.72 193.95C266.08 212.46 323.92 242.55 330.3 245.87C331.26 245.87 332.33 246.33 333.55 247.24C333.61 247.28 333.66 247.32 333.71 247.37C335.13 248.68 335.85 249.34 336.07 249.54L353.13 262.32C353.87 262.93 357.2 265.83 357.2 268.86V271.71C357.2 272.09 357.14 272.88 356.53 273.53C356.09 274 355.49 274.25 354.83 274.25C354.49 274.25 354.14 274.18 353.8 274.04C353.12 273.77 333.62 265.27 330.79 264.04L280.82 250.18C279.93 256.34 279.05 258.02 277.04 258.02C274.82 258.02 273.96 256.01 272.97 248L247.64 240.98C246.65 247.01 245.66 248.84 243.61 248.84C241.34 248.84 240.34 246.61 239.2 238.65L229.32 235.91H219.67C218.84 240.65 217.94 242.91 215.79 242.91C213.64 242.91 212.73 240.64 211.89 235.91H198.55V328.24C198.51 329.35 197.44 353.49 191.44 367.72C191.09 369.28 191.25 370.1 191.38 370.36L231.8 399.29C232.68 399.76 236.17 401.84 236.17 405.19V418.29C236.17 418.35 236.17 418.41 236.17 418.47C236.06 419.68 235.02 420.96 233.29 420.96C232.96 420.96 232.62 420.91 232.26 420.82C231.09 420.52 195.88 410.83 186.27 408.19C185.95 411.84 185.25 418.42 184.08 421.17C184.06 421.22 184.03 421.27 184.01 421.32C183.01 423.21 180.63 423.41 179.65 423.41H179.52H179.54Z" fill="white"/>
<path d="M179.6 4.37C184.39 4.37 196.21 29.71 196.21 51.79V171.45C196.21 171.45 196.81 177.96 202.03 181.04C203.1 181.67 209.09 184.85 217.94 189.5C217.89 188.95 217.86 188.38 217.86 187.74H216.45C216.45 187.74 216.42 187.74 216.36 187.74C216.02 187.74 214.78 187.65 214.01 186.33C212.62 183.91 212.06 180.74 212.06 177.79V157.01C212.06 157.01 212.1 152 215.63 152H231.94C235.47 152 235.51 157.01 235.51 157.01V177.79C235.51 180.74 234.95 183.91 233.56 186.33C232.79 187.65 231.55 187.74 231.21 187.74C231.15 187.74 231.12 187.74 231.12 187.74H229.71C229.71 191.59 228.76 193.73 228.04 194.8C265.51 214.43 329.94 247.93 329.94 247.93C329.94 247.93 330.04 247.86 330.27 247.86C330.62 247.86 331.26 248.02 332.34 248.83C334.07 250.43 334.78 251.08 334.78 251.08L351.92 263.92C351.92 263.92 355.19 266.62 355.19 268.86V271.75C355.19 271.75 355.22 272.26 354.82 272.26C354.74 272.26 354.65 272.24 354.54 272.2C353.86 271.92 331.45 262.16 331.45 262.16L279.13 247.65C278.43 253.24 277.73 256.03 277.03 256.03C276.28 256.03 275.53 252.83 274.78 246.44L245.99 238.46C245.19 244.08 244.4 246.85 243.6 246.85C242.73 246.85 241.86 243.56 241 237.08L229.59 233.92H217.97C217.24 238.61 216.51 240.92 215.79 240.92C215.07 240.92 214.32 238.56 213.59 233.92H196.56V328.25C196.56 328.25 195.53 353.07 189.54 367.11C188.62 370.98 190.1 371.9 190.1 371.9L230.76 401C230.76 401 234.18 402.71 234.18 405.19V418.29C234.18 418.29 234.12 418.96 233.3 418.96C233.15 418.96 232.98 418.94 232.77 418.89C231.44 418.55 184.47 405.62 184.47 405.62C184.47 405.62 183.72 416.92 182.24 420.39C181.72 421.37 180.01 421.42 179.65 421.42C179.61 421.42 179.59 421.42 179.59 421.42C179.59 421.42 179.57 421.42 179.53 421.42C179.17 421.42 177.46 421.37 176.94 420.39C175.46 416.92 174.71 405.62 174.71 405.62C174.71 405.62 127.74 418.54 126.41 418.89C126.21 418.94 126.03 418.96 125.88 418.96C125.06 418.96 125 418.29 125 418.29V405.19C125 402.71 128.42 401 128.42 401L169.08 371.9C169.08 371.9 170.56 370.98 169.64 367.11C163.65 353.07 162.62 328.25 162.62 328.25V233.92H145.59C144.86 238.57 144.12 240.92 143.39 240.92C142.66 240.92 141.93 238.61 141.21 233.92H129.59L118.18 237.08C117.31 243.56 116.44 246.85 115.58 246.85C114.78 246.85 113.99 244.08 113.19 238.46L84.4 246.44C83.65 252.83 82.9 256.03 82.15 256.03C81.45 256.03 80.75 253.24 80.05 247.65L27.73 262.16C27.73 262.16 5.33 271.92 4.64 272.2C4.53 272.24 4.44 272.26 4.36 272.26C3.96 272.26 3.99 271.75 3.99 271.75V268.86C3.99 266.61 7.26 263.92 7.26 263.92L24.4 251.08C24.4 251.08 25.11 250.44 26.84 248.83C27.92 248.02 28.57 247.86 28.91 247.86C29.14 247.86 29.24 247.93 29.24 247.93C29.24 247.93 93.67 214.42 131.14 194.8C130.43 193.73 129.47 191.58 129.47 187.74H128.06C128.06 187.74 128.03 187.74 127.97 187.74C127.63 187.74 126.39 187.65 125.62 186.33C124.23 183.91 123.67 180.74 123.67 177.79V157.01C123.67 157.01 123.71 152 127.24 152H143.55C147.08 152 147.12 157.01 147.12 157.01V177.79C147.12 180.74 146.56 183.91 145.17 186.33C144.4 187.65 143.16 187.74 142.82 187.74C142.76 187.74 142.73 187.74 142.73 187.74H141.32C141.32 188.38 141.29 188.95 141.24 189.5C150.09 184.85 156.08 181.67 157.15 181.04C162.37 177.96 162.97 171.45 162.97 171.45V51.79C162.97 29.71 174.78 4.37 179.58 4.37M179.6 0.369995C175.08 0.369995 170.43 6.41999 165.77 18.34C161.46 29.37 158.99 41.56 158.99 51.79V171.21C158.88 171.94 158.16 175.81 155.14 177.6C154.8 177.8 153.73 178.38 151.06 179.81C151.11 179.09 151.13 178.41 151.13 177.8V157.02C151.09 152.53 148.48 148.01 143.56 148.01H127.25C122.33 148.01 119.71 152.52 119.68 156.98V177.79C119.68 180.63 120.11 184.76 122.16 188.32C123.01 189.77 124.28 190.83 125.75 191.36C125.84 191.93 125.95 192.45 126.07 192.95C91.22 211.19 36.22 239.81 28.34 243.9C27.1 244.04 25.82 244.61 24.44 245.64C24.33 245.72 24.22 245.81 24.12 245.9C22.84 247.09 22.12 247.74 21.84 248L4.85 260.72C4.85 260.72 4.75 260.79 4.71 260.83C3.62 261.74 0 265.02 0 268.86V271.71C0 272.4 0.13 273.76 1.21 274.91C2.03 275.78 3.15 276.26 4.36 276.26C4.96 276.26 5.56 276.14 6.14 275.9C6.82 275.62 24.79 267.8 29.06 265.94L76.71 252.73C77.46 256.96 78.71 260.04 82.13 260.04C85.86 260.04 86.8 256.06 87.15 254.56C87.45 253.3 87.73 251.66 88.01 249.6L109.92 243.52C110.73 247.66 112.07 250.86 115.56 250.86C119.28 250.86 120.33 246.92 120.73 245.43C121.08 244.11 121.42 242.4 121.75 240.24L130.12 237.92H137.82C138.58 241.65 139.89 244.92 143.38 244.92C146.87 244.92 148.17 241.65 148.95 237.92H158.62V328.25C158.62 328.31 158.62 328.36 158.62 328.42C158.66 329.46 159.73 353.75 165.81 368.34C165.89 368.73 165.92 369.03 165.93 369.24L126.31 397.6C124.92 398.36 120.99 400.89 120.99 405.2V418.3C120.99 418.42 120.99 418.54 121.01 418.66C121.2 420.75 122.97 422.97 125.88 422.97C126.37 422.97 126.89 422.9 127.41 422.77C128.51 422.49 159.19 414.05 171.13 410.76C171.53 414.58 172.21 419.51 173.25 421.96C173.29 422.06 173.34 422.16 173.39 422.26C174.45 424.27 176.68 425.42 179.51 425.42C179.53 425.42 179.56 425.42 179.57 425.42C179.59 425.42 179.61 425.42 179.63 425.42C182.46 425.42 184.69 424.27 185.75 422.26C185.8 422.16 185.85 422.06 185.89 421.96C186.93 419.51 187.61 414.58 188.01 410.76C199.96 414.05 230.63 422.48 231.73 422.77C232.25 422.9 232.76 422.97 233.26 422.97C236.17 422.97 237.94 420.75 238.13 418.66C238.14 418.54 238.15 418.42 238.15 418.3V405.2C238.15 400.89 234.23 398.36 232.83 397.6L193.21 369.24C193.22 369.03 193.25 368.73 193.33 368.34C199.41 353.75 200.48 329.46 200.52 328.42C200.52 328.36 200.52 328.31 200.52 328.25V237.92H210.19C210.96 241.65 212.28 244.92 215.76 244.92C219.24 244.92 220.55 241.65 221.32 237.92H229.02L237.39 240.24C237.73 242.4 238.06 244.11 238.41 245.43C238.8 246.91 239.85 250.86 243.58 250.86C247.06 250.86 248.4 247.67 249.22 243.52L271.13 249.6C271.41 251.67 271.7 253.3 271.99 254.56C272.34 256.06 273.28 260.04 277.01 260.04C280.44 260.04 281.69 256.96 282.43 252.73L330.08 265.94C334.36 267.8 352.32 275.63 353 275.9C353.58 276.14 354.18 276.26 354.78 276.26C355.99 276.26 357.11 275.78 357.93 274.91C359.01 273.76 359.15 272.41 359.14 271.71V268.86C359.14 265.02 355.52 261.74 354.41 260.83C354.36 260.79 354.31 260.75 354.27 260.72L337.28 248C337 247.75 336.29 247.09 335 245.9C334.9 245.81 334.79 245.72 334.68 245.64C333.3 244.61 332.02 244.04 330.78 243.9C322.91 239.8 267.9 211.19 233.05 192.95C233.17 192.46 233.28 191.93 233.37 191.37C234.84 190.84 236.11 189.8 236.95 188.35C239.01 184.77 239.44 180.63 239.44 177.8V157.02C239.4 152.53 236.79 148.01 231.87 148.01H215.56C210.64 148.01 208.02 152.52 207.99 156.98V177.79C207.99 178.41 208.01 179.08 208.06 179.8C205.39 178.38 204.32 177.79 203.98 177.59C200.98 175.82 200.25 171.98 200.13 171.19V51.79C200.13 41.56 197.66 29.37 193.35 18.34C188.69 6.40999 184.04 0.369995 179.52 0.369995H179.6Z" fill="#231F20"/>
</g>
<defs>
<clipPath id="clip0_505_66">
<rect width="359.2" height="425.04" fill="white" transform="translate(0 0.369995)"/>
</clipPath>
</defs>
</svg>
