<svg width="84" height="78" viewBox="0 0 84 78" fill="none" xmlns="http://www.w3.org/2000/svg">
<g clip-path="url(#clip0_700_23)">
<path d="M42 76.2998C41.35 76.2998 40.86 75.7598 40.85 75.0398V72.9198C40.69 72.6698 40.46 72.3098 40.29 71.9598C40.19 71.7698 40.13 71.5898 40.1 71.4298C40.07 71.4298 40.04 71.4298 40 71.4298C39.96 71.4298 39.89 71.4298 39.85 71.4298L39.51 71.3898C30.32 70.3698 28.17 70.1398 27.99 70.1198C27.23 70.0798 26.79 69.4498 26.77 68.8698V62.0398C26.77 61.2898 27.36 60.8198 27.91 60.7598C31.81 60.2398 37.42 59.4798 39.37 59.2098L37.47 41.8298H37.42C36.71 41.8298 36.15 41.2698 36.15 40.5498C36.15 40.2398 36.26 39.9398 36.46 39.7098C36.65 39.4898 36.91 39.3398 37.2 39.2898L37.17 39.0198C30.29 37.7098 2.40002 32.4198 2.11002 32.3598C1.40002 32.1998 1.05002 31.5798 1.02002 31.0798V22.5398C1.02002 21.8398 1.46002 21.3998 1.96002 21.2698C1.98002 19.3898 2.12002 18.5998 3.12002 18.5998C4.12002 18.5998 4.24002 19.3498 4.27002 21.0998L30.97 19.4298C31.04 16.4898 31.66 15.8598 31.88 15.6398C32.16 15.3598 32.52 15.1998 32.9 15.1998C33.28 15.1998 33.64 15.3598 33.92 15.6398C34.15 15.8698 34.73 16.4498 34.82 19.1898L35.56 19.1398C35.57 16.9098 35.62 11.7998 35.73 10.1698C35.79 9.26977 36.08 8.60977 36.46 8.12977C34.38 8.03977 32.27 7.81977 31.55 7.73977C31.22 7.69977 30.92 7.51977 30.73 7.24977C30.54 6.96977 30.48 6.62977 30.57 6.30977L30.72 5.74977C30.85 5.27977 31.27 4.93977 31.75 4.90977C33.81 4.78977 37.41 4.59977 38.67 4.58977H38.84C39.09 4.58977 39.33 4.58977 39.54 4.59977C39.97 3.26977 40.87 1.00977 42.02 1.00977C43.17 1.00977 44.15 3.17977 44.65 4.59977C44.87 4.59977 45.1 4.58977 45.36 4.58977H45.53C46.79 4.58977 50.4 4.79977 52.44 4.90977C52.94 4.93977 53.35 5.27977 53.49 5.74977L53.64 6.30977C53.73 6.63977 53.67 6.97977 53.48 7.25977C53.29 7.53977 52.99 7.71977 52.66 7.74977C51.93 7.82977 49.75 8.04977 47.64 8.13977C47.99 8.60977 48.26 9.26977 48.32 10.1698C48.43 11.7998 48.47 16.9198 48.49 19.1398L49.23 19.1898C49.33 16.4598 49.9 15.8798 50.13 15.6398C50.41 15.3598 50.77 15.1998 51.15 15.1998C51.53 15.1998 51.89 15.3598 52.17 15.6398C52.39 15.8598 53.01 16.4898 53.08 19.4298L81.81 21.2298C82.46 21.2898 83.03 21.7498 83.03 22.5398V31.0298C83 31.5898 82.65 32.2098 81.94 32.3698C81.65 32.4298 53.76 37.7198 46.88 39.0298C46.61 41.5398 45.06 55.6698 44.67 59.2298C46.59 59.4998 52.22 60.2598 56.15 60.7798C56.68 60.8398 57.27 61.3098 57.27 62.0598V68.8498C57.25 69.4598 56.81 70.0898 56.03 70.1398C55.86 70.1498 53.73 70.3798 44.63 71.3898L44.18 71.4398C44.18 71.4398 44.07 71.4398 44.03 71.4398C44 71.4398 43.97 71.4398 43.93 71.4398C43.9 71.5998 43.84 71.7798 43.74 71.9698C43.56 72.3098 43.34 72.6798 43.18 72.9298V75.0398C43.17 75.7698 42.67 76.3098 42.03 76.3098L42 76.2998Z" fill="white"/>
<path d="M42 2C42.26 2 43.32 3.45 43.91 5.66C44.13 5.62 44.56 5.57 45.35 5.57C45.4 5.57 45.45 5.57 45.5 5.57C46.93 5.58 51.61 5.85 52.37 5.89C52.43 5.89 52.48 5.94 52.5 6L52.65 6.56C52.67 6.65 52.62 6.73 52.53 6.74C51.77 6.82 48.55 7.16 46.06 7.16C45.37 7.16 44.73 7.13 44.22 7.07C44.23 7.15 44.25 7.23 44.26 7.31C44.28 7.45 44.29 7.6 44.29 7.74V7.92L45.74 8.08C45.74 8.08 47.16 8.17 47.3 10.23C47.42 12.01 47.46 18.08 47.47 19.68C47.47 19.9 47.64 20.08 47.86 20.1L50.19 20.25C50.18 19.16 50.23 16.2 51.12 16.2C52.01 16.2 52.07 19.39 52.05 20.37L81.71 22.23C81.71 22.23 81.71 22.23 81.72 22.23C81.77 22.23 81.99 22.25 81.99 22.55V31.04C81.99 31.04 81.97 31.33 81.68 31.4C81.39 31.47 46.15 38.15 46.15 38.15C46.15 38.15 45.92 38.24 45.88 38.56C45.85 38.88 43.54 59.92 43.54 59.92C43.54 59.92 43.5 60.08 43.76 60.13C44.02 60.18 55.97 61.79 55.97 61.79C55.97 61.79 56.22 61.82 56.22 62.08V68.87C56.22 68.87 56.21 69.14 55.93 69.16C55.67 69.17 45.88 70.26 44.03 70.47C44.02 70.47 44 70.47 43.99 70.47C43.83 70.47 43.69 70.36 43.65 70.21L42.84 67.18C42.84 67.18 42.83 67.17 42.82 67.17C42.82 67.17 42.8 67.17 42.8 67.19L42.32 70.95H42.77C42.77 70.95 43.07 71.04 42.81 71.55C42.61 71.94 42.33 72.37 42.2 72.56C42.16 72.62 42.13 72.7 42.13 72.78V75.07C42.13 75.07 42.13 75.34 41.98 75.34C41.83 75.34 41.83 75.07 41.83 75.07V72.78C41.83 72.7 41.81 72.63 41.76 72.56C41.63 72.37 41.35 71.93 41.15 71.55C40.89 71.04 41.19 70.95 41.19 70.95H41.64L41.16 67.19C41.16 67.19 41.16 67.17 41.14 67.17C41.14 67.17 41.12 67.17 41.12 67.18L40.31 70.21C40.27 70.37 40.13 70.47 39.97 70.47C39.96 70.47 39.94 70.47 39.93 70.47C38.07 70.26 28.28 69.18 28.03 69.16C27.75 69.14 27.74 68.87 27.74 68.87V62.08C27.74 61.82 27.99 61.79 27.99 61.79C27.99 61.79 39.95 60.18 40.2 60.13C40.45 60.08 40.42 59.92 40.42 59.92C40.42 59.92 38.94 46.38 38.33 40.86H37.38C37.02 40.86 37.02 40.3 37.38 40.3H38.27C38.16 39.27 38.09 38.62 38.08 38.57C38.05 38.25 37.81 38.16 37.81 38.16C37.81 38.16 2.58001 31.48 2.28001 31.41C1.99001 31.34 1.97001 31.05 1.97001 31.05V22.56C1.97001 22.26 2.19001 22.24 2.24001 22.24H2.25001L2.90001 22.2C2.90001 20.48 2.98001 19.61 3.06001 19.61C3.14001 19.61 3.22001 20.47 3.22001 22.18L31.9 20.38C31.89 19.41 31.9 16.21 32.83 16.21C33.76 16.21 33.77 19.17 33.76 20.26L36.09 20.11C36.31 20.1 36.48 19.92 36.48 19.69C36.48 18.09 36.53 12.02 36.65 10.24C36.79 8.18 38.36 8.09 38.36 8.09L39.81 7.93V7.75C39.81 7.61 39.81 7.46 39.84 7.32C39.85 7.24 39.87 7.16 39.88 7.08C39.37 7.14 38.73 7.17 38.04 7.17C35.55 7.17 32.33 6.83 31.57 6.75C31.48 6.75 31.42 6.65 31.45 6.57L31.6 6.01C31.62 5.95 31.67 5.91 31.73 5.9C32.48 5.86 37.17 5.59 38.6 5.58C38.65 5.58 38.7 5.58 38.75 5.58C39.54 5.58 39.96 5.62 40.19 5.67C40.78 3.46 41.69 2.01 41.95 2.01M42 0C40.51 0 39.48 1.71 38.8 3.58H38.64C37.17 3.59 32.58 3.85 31.67 3.9C30.75 3.95 29.97 4.58 29.73 5.47L29.58 6.02C29.41 6.63 29.52 7.27 29.87 7.79C30.22 8.31 30.78 8.65 31.41 8.72C31.96 8.78 33.33 8.92 34.88 9.03C34.79 9.35 34.74 9.7 34.71 10.08C34.65 10.99 34.61 12.94 34.58 14.88C34.12 14.43 33.51 14.18 32.88 14.18C32.25 14.18 31.62 14.44 31.15 14.92C30.84 15.24 30.18 15.9 30 18.47L5.20001 20.02C5.03001 17.9 3.82001 17.58 3.11001 17.58C2.39001 17.58 1.16001 17.91 1.01001 20.09C1.00001 20.25 0.99001 20.42 0.98001 20.62C0.39001 21.03 0.0100098 21.73 0.0100098 22.53V31.02C0.0100098 31.02 0.0100098 31.09 0.0100098 31.13C0.0700098 32.19 0.84001 33.1 1.88001 33.33C2.16001 33.39 25.28 37.78 35.3 39.68C35.19 39.95 35.14 40.24 35.14 40.55C35.14 41.52 35.71 42.33 36.55 42.67L38.27 58.36C35.83 58.69 31.15 59.33 27.77 59.78C26.63 59.92 25.77 60.89 25.77 62.05V68.84C25.77 68.84 25.77 68.89 25.77 68.92C25.82 70.11 26.75 71.06 27.95 71.13C28.3 71.16 34.25 71.82 39.38 72.39C39.38 72.4 39.39 72.42 39.4 72.43C39.54 72.7 39.71 72.98 39.85 73.22V75.04C39.87 76.35 40.8 77.31 42 77.31C43.2 77.31 44.13 76.35 44.15 75.07V73.22C44.3 72.98 44.46 72.7 44.6 72.43C44.6 72.42 44.61 72.4 44.62 72.39C49.75 71.82 55.7 71.16 56.09 71.13C57.24 71.06 58.18 70.12 58.23 68.93C58.23 68.9 58.23 68.88 58.23 68.85V62.06C58.23 60.9 57.37 59.93 56.23 59.79C52.85 59.34 48.18 58.7 45.73 58.37C46.2 54.1 47.37 43.37 47.75 39.87C57.17 38.08 81.82 33.41 82.11 33.34C83.15 33.11 83.92 32.2 83.98 31.14C83.98 31.1 83.98 31.07 83.98 31.03V22.54C83.98 21.26 83.01 20.26 81.77 20.22L53.99 18.48C53.8 15.91 53.15 15.25 52.84 14.93C52.37 14.45 51.76 14.19 51.11 14.19C50.46 14.19 49.88 14.44 49.41 14.89C49.38 12.95 49.34 11 49.28 10.09C49.25 9.71 49.2 9.36 49.12 9.05C50.73 8.94 52.17 8.79 52.73 8.73C53.36 8.66 53.92 8.32 54.27 7.8C54.62 7.28 54.73 6.63 54.56 6.03L54.41 5.47C54.17 4.58 53.38 3.95 52.47 3.9C51.56 3.85 46.97 3.59 45.5 3.58H45.34H45.32C44.71 2.03 43.61 0 41.99 0L42 0Z" fill="black"/>
</g>
<defs>
<clipPath id="clip0_700_23">
<rect width="84" height="77.3" fill="white"/>
</clipPath>
</defs>
</svg>
