<svg width="265" height="307" viewBox="0 0 265 307" fill="none" xmlns="http://www.w3.org/2000/svg">
<g clip-path="url(#clip0_415_12)">
<path d="M132.019 305.1C130.889 305.1 129.439 304.88 128.979 303.81C128.959 303.76 128.939 303.71 128.929 303.65C127.779 298.96 126.649 290.91 126.249 287.93C119.429 289.77 84.8293 299.12 83.3193 299.42C83.0293 299.48 82.7793 299.51 82.5493 299.51C81.6793 299.51 81.2893 299.07 81.1393 298.81C80.8993 298.41 80.9193 297.96 81.0393 297.6V290.56C81.0393 283.74 84.4493 281.82 85.2293 281.47L121.169 256.64C121.409 256.36 122.399 255.11 121.889 253.9C117.689 243.63 115.979 217.79 115.909 216.7V163.76H100.709C99.9393 170.27 99.4393 170.9 98.3693 170.9C97.2993 170.9 96.7893 170.26 96.3293 163.76H87.9093C87.0293 163.76 86.1393 163.83 85.2393 163.96C84.9593 165.18 84.5993 166.04 83.6893 166.04C82.8993 166.04 82.5393 165.37 82.3393 164.61L76.6293 166.15C75.8593 172.65 75.3593 173.28 74.2893 173.28C73.2193 173.28 72.7493 172.46 72.3393 167.3L61.9693 170.09C61.7393 171.04 61.3893 171.98 60.4593 171.98C59.7593 171.98 59.3993 171.44 59.1993 170.84L49.0393 173.57C48.2893 179.8 47.7893 180.41 46.7393 180.41C45.6893 180.41 45.2193 179.63 44.8093 174.71L38.9693 176.28C38.7593 177.03 38.3993 177.82 37.5493 177.82C36.9593 177.82 36.6093 177.43 36.3993 176.97C18.3493 181.82 9.1793 184.28 8.3993 184.47C6.8493 184.86 6.5993 185.48 6.5993 185.49C6.5793 185.6 6.5593 185.63 6.5093 185.72C6.5093 185.72 5.3193 187.82 4.4593 189.39C3.7193 190.81 3.1593 191.59 2.3393 191.59C2.0093 191.59 1.6993 191.45 1.4793 191.2C1.3593 191.06 0.979299 190.64 1.1393 189.28V188.19C1.1393 186.83 1.3693 185.5 1.8393 184.22L2.8793 181.36C3.5493 179.5 3.9893 177.51 4.1693 175.45C4.2293 174.73 4.3193 173.9 4.4493 172.98C4.9493 169.35 9.6793 167.12 9.8793 167.02C9.8793 167.02 55.8193 144.37 86.1793 129.4C85.8693 128.3 85.4893 126.59 85.4393 124.71H84.4993C84.0493 124.71 83.6593 124.41 83.5393 123.98C83.4393 123.63 81.1993 115.37 82.7893 104.41C82.8693 103.95 83.5793 100.1 86.0793 100.1H98.1093C98.2093 100.1 98.3093 100.12 98.4093 100.15C98.5393 100.19 101.629 101.21 101.629 105.28C101.629 105.9 101.659 106.55 101.689 107.27C101.829 110.43 102.029 114.72 100.229 122.49C107.149 119.08 111.709 116.82 112.259 116.55C114.289 115.53 115.719 112.77 116.059 112.04V46.3198C116.059 25.5898 124.629 1.95984 132.149 1.95984C139.669 1.95984 148.239 25.5898 148.239 46.3198V112.02C148.589 112.75 150.009 115.52 152.039 116.53C152.589 116.8 157.159 119.06 164.079 122.47C162.279 114.73 162.469 110.43 162.609 107.25C162.639 106.53 162.669 105.88 162.669 105.26C162.669 101.19 165.759 100.17 165.889 100.13C165.989 100.1 166.089 100.08 166.189 100.08H178.219C180.719 100.08 181.439 103.93 181.509 104.37C183.109 115.35 180.859 123.61 180.769 123.96C180.649 124.39 180.259 124.69 179.809 124.69H178.869C178.819 126.57 178.439 128.28 178.129 129.38C208.489 144.35 254.449 167.01 254.449 167.01C254.629 167.09 259.359 169.32 259.859 172.96C259.989 173.87 260.079 174.71 260.139 175.43C260.319 177.49 260.759 179.48 261.429 181.34L262.469 184.2C262.929 185.48 263.169 186.81 263.169 188.17V189.26C263.329 190.61 262.959 191.04 262.839 191.18C262.619 191.43 262.309 191.57 261.979 191.57C261.169 191.57 260.599 190.79 259.849 189.35C258.999 187.81 257.809 185.7 257.809 185.7C257.759 185.61 257.719 185.5 257.699 185.4C257.689 185.4 257.389 184.82 255.919 184.45C255.129 184.25 245.959 181.8 227.919 176.95C227.709 177.4 227.369 177.8 226.769 177.8C225.929 177.8 225.559 177.01 225.349 176.26L219.509 174.69C219.099 179.61 218.669 180.39 217.579 180.39C216.489 180.39 216.029 179.79 215.279 173.55L205.119 170.82C204.909 171.42 204.559 171.96 203.859 171.96C202.929 171.96 202.579 171.02 202.349 170.07L191.979 167.28C191.559 172.44 191.129 173.26 190.029 173.26C188.929 173.26 188.469 172.63 187.689 166.13L181.979 164.59C181.779 165.35 181.419 166.02 180.629 166.02C179.719 166.02 179.349 165.16 179.079 163.94C178.179 163.81 177.279 163.74 176.409 163.74H167.989C167.529 170.25 167.039 170.88 165.949 170.88C164.859 170.88 164.379 170.24 163.609 163.74H148.409V216.61C148.339 217.77 146.619 243.6 142.429 253.86C141.909 255.08 142.889 256.33 143.139 256.61L179.079 281.44C179.859 281.79 183.269 283.71 183.269 290.53V297.57C183.389 297.93 183.409 298.38 183.169 298.78C183.019 299.04 182.629 299.48 181.759 299.48C181.529 299.48 181.279 299.45 180.989 299.39C179.489 299.09 144.879 289.74 138.059 287.9C137.659 290.88 136.529 298.93 135.379 303.62C135.369 303.67 135.349 303.73 135.329 303.78C134.869 304.85 133.429 305.07 132.289 305.07H132.019V305.1Z" fill="white"/>
<path d="M132.15 2.95984C138.78 2.95984 147.24 25.8598 147.24 46.3198V112.24C147.24 112.24 148.9 116.08 151.6 117.43C152.2 117.73 157.51 120.35 165.43 124.26C165.38 123.9 165.32 123.53 165.27 123.14C162.82 113.06 163.69 108.66 163.69 105.28C163.69 101.9 166.21 101.1 166.21 101.1H178.24C179.97 101.1 180.54 104.56 180.54 104.56C182.12 115.44 179.82 123.72 179.82 123.72H177.88C177.99 126.44 177.26 128.98 176.94 129.94C207.29 144.9 254.02 167.94 254.02 167.94C254.02 167.94 258.45 169.99 258.88 173.13C259 174.03 259.09 174.84 259.15 175.55C259.34 177.65 259.78 179.73 260.5 181.71L261.54 184.57C261.96 185.73 262.18 186.96 262.18 188.2V189.36C262.18 189.36 262.34 190.61 261.98 190.61C261.78 190.61 261.4 190.2 260.74 188.93C259.88 187.36 258.69 185.26 258.69 185.26C258.69 185.26 258.47 184.11 256.17 183.53C255.23 183.3 242.28 179.82 227.24 175.78C227.09 176.49 226.94 176.85 226.77 176.85C226.59 176.85 226.39 176.4 226.18 175.5C223.69 174.83 221.15 174.15 218.61 173.46C218.32 177.42 217.98 179.44 217.58 179.44C217.18 179.44 216.71 177.26 216.19 172.81C212.18 171.73 208.18 170.66 204.38 169.63C204.22 170.54 204.04 171.01 203.85 171.01C203.64 171.01 203.42 170.45 203.19 169.31C198.76 168.12 194.63 167.01 191.07 166.05C190.77 170.2 190.42 172.3 190.02 172.3C189.62 172.3 189.13 170.02 188.6 165.38C185.56 164.56 183.07 163.89 181.39 163.44C181.33 163.42 181.26 163.41 181.2 163.4C181.02 164.51 180.83 165.07 180.62 165.07C180.4 165.07 180.16 164.42 179.91 163.12C178.75 162.9 177.58 162.79 176.4 162.79H167.04C166.73 167.52 166.36 169.93 165.93 169.93C165.5 169.93 165.03 167.58 164.48 162.79H147.39V216.66C147.39 216.66 145.66 243.31 141.48 253.53C140.62 255.55 142.45 257.42 142.45 257.42L178.57 282.37C178.57 282.37 182.24 283.67 182.24 290.58V297.82C182.24 297.82 182.64 298.53 181.73 298.53C181.58 298.53 181.39 298.51 181.16 298.46C179.54 298.14 137.19 286.68 137.19 286.68C137.19 286.68 135.79 297.7 134.38 303.42C134.11 304.06 132.7 304.11 132.26 304.11C132.18 304.11 132.13 304.11 132.13 304.11C132.13 304.11 132.08 304.11 132 304.11C131.56 304.11 130.15 304.06 129.88 303.42C128.48 297.69 127.07 286.68 127.07 286.68C127.07 286.68 84.7197 298.13 83.0997 298.46C82.8697 298.51 82.6797 298.53 82.5297 298.53C81.6197 298.53 82.0197 297.82 82.0197 297.82V290.58C82.0197 283.67 85.6897 282.37 85.6897 282.37L121.81 257.42C121.81 257.42 123.65 255.55 122.78 253.53C118.6 243.3 116.87 216.66 116.87 216.66V162.79H99.7797C99.2397 167.58 98.7598 169.93 98.3298 169.93C97.8997 169.93 97.5297 167.52 97.2197 162.79H87.8597C86.6797 162.79 85.4997 162.9 84.3497 163.12C84.0997 164.43 83.8597 165.07 83.6397 165.07C83.4297 165.07 83.2397 164.51 83.0597 163.4C82.9997 163.42 82.9297 163.43 82.8697 163.44C81.1897 163.89 78.6997 164.56 75.6597 165.38C75.1297 170.02 74.6597 172.3 74.2397 172.3C73.8197 172.3 73.4897 170.19 73.1897 166.05C69.6297 167.01 65.4997 168.12 61.0697 169.31C60.8397 170.44 60.6097 171.01 60.4097 171.01C60.2197 171.01 60.0497 170.55 59.8797 169.63C56.0797 170.65 52.0897 171.73 48.0697 172.81C47.5497 177.25 47.0897 179.44 46.6797 179.44C46.2697 179.44 45.9497 177.42 45.6497 173.46C43.1097 174.14 40.5697 174.83 38.0797 175.5C37.8697 176.4 37.6797 176.85 37.4897 176.85C37.3297 176.85 37.1697 176.49 37.0197 175.78C21.9797 179.82 9.02975 183.3 8.08975 183.53C5.78975 184.11 5.56975 185.26 5.56975 185.26C5.56975 185.26 4.37975 187.37 3.51975 188.93C2.84975 190.21 2.47975 190.61 2.27975 190.61C1.91975 190.61 2.07975 189.36 2.07975 189.36V188.2C2.07975 186.96 2.29975 185.74 2.71975 184.57L3.75975 181.71C4.47975 179.72 4.91975 177.65 5.10975 175.55C5.16975 174.84 5.25975 174.03 5.37975 173.13C5.80975 170 10.2397 167.94 10.2397 167.94C10.2397 167.94 56.9797 144.9 87.3197 129.94C86.9997 128.98 86.2697 126.45 86.3797 123.72H84.4397C84.4397 123.72 82.1397 115.44 83.7197 104.56C83.7197 104.56 84.2997 101.1 86.0197 101.1H98.0497C98.0497 101.1 100.57 101.89 100.57 105.28C100.57 108.67 101.43 113.06 98.9897 123.14C98.9397 123.53 98.8798 123.9 98.8298 124.26C106.75 120.35 112.06 117.73 112.66 117.43C115.36 116.08 117.02 112.24 117.02 112.24V46.3198C117.02 25.8698 125.48 2.95984 132.11 2.95984M132.15 0.959839C126.53 0.959839 122.27 10.5698 120.24 16.2998C116.95 25.5498 115.07 36.4898 115.07 46.3198V111.79C114.54 112.85 113.3 114.89 111.82 115.63C111.36 115.86 108.03 117.51 101.65 120.65C103 114.02 102.82 110.13 102.69 107.2C102.66 106.47 102.63 105.85 102.63 105.26C102.63 101.43 100.17 99.6298 98.7097 99.1698C98.5197 99.1098 98.3097 99.0798 98.1097 99.0798H86.0798C83.5598 99.0798 82.2197 101.73 81.7997 104.21C80.1697 115.41 82.4697 123.88 82.5697 124.23C82.8097 125.09 83.5897 125.69 84.4897 125.69C84.5897 126.88 84.7897 127.97 84.9997 128.85C54.6397 143.82 9.40975 166.12 9.40975 166.12C8.89975 166.36 4.01975 168.73 3.44975 172.83C3.32975 173.67 3.23975 174.51 3.15975 175.35C2.97975 177.32 2.56975 179.23 1.91975 181.01L0.879748 183.87C0.379748 185.25 0.119748 186.7 0.119748 188.18V189.22C-0.0702516 190.97 0.509748 191.63 0.699748 191.85C1.10975 192.32 1.69975 192.58 2.30975 192.58C3.75975 192.58 4.56975 191.28 5.32975 189.83C6.16975 188.31 7.34975 186.21 7.34975 186.21C7.39975 186.12 7.43975 186.03 7.47975 185.93C7.56975 185.84 7.87975 185.62 8.60975 185.44C9.39975 185.24 18.5897 182.78 35.9397 178.12C36.2997 178.52 36.7997 178.82 37.5197 178.82C38.7397 178.82 39.3597 177.96 39.6997 177.11L43.8797 175.99C44.2297 179.64 44.7497 181.41 46.6997 181.41C48.6497 181.41 49.0697 179.3 49.3097 178.17C49.5097 177.24 49.6997 175.99 49.9097 174.36L58.6297 172.01C58.9997 172.56 59.5497 172.97 60.4197 172.97C61.7797 172.97 62.3997 171.92 62.7297 170.9L71.3897 168.57C71.7397 172.5 72.2497 174.27 74.2397 174.27C76.2297 174.27 76.8197 172.44 77.4897 166.93L81.6897 165.8C82.0597 166.49 82.6497 167.03 83.6397 167.03C85.0297 167.03 85.6497 165.97 85.9897 164.85C86.6197 164.78 87.2497 164.74 87.8697 164.74H95.3697C95.4897 166.27 95.6198 167.48 95.7598 168.39C95.9498 169.61 96.2998 171.88 98.3298 171.88C100.36 171.88 100.9 170.09 101.56 164.74H114.87V216.61C114.87 216.61 114.87 216.7 114.87 216.74C114.94 217.84 116.67 243.83 120.92 254.24C121.18 254.84 120.67 255.59 120.45 255.87L84.6797 280.58C83.5498 281.14 80.0098 283.46 80.0098 290.53V297.43C79.8698 297.99 79.8797 298.66 80.2497 299.29C80.4597 299.65 81.1097 300.48 82.5197 300.48C82.8097 300.48 83.1297 300.45 83.4797 300.38C84.9597 300.08 116.07 291.68 125.38 289.17C125.87 292.73 126.89 299.64 127.93 303.87C127.96 303.98 127.99 304.08 128.03 304.18C128.4 305.05 129.39 306.08 131.99 306.08C132.04 306.08 132.09 306.08 132.12 306.08C132.15 306.08 132.2 306.08 132.25 306.08C134.85 306.08 135.83 305.05 136.21 304.18C136.25 304.08 136.29 303.98 136.31 303.87C137.35 299.64 138.36 292.74 138.86 289.17C148.16 291.68 179.28 300.09 180.76 300.38C181.11 300.45 181.43 300.48 181.72 300.48C183.14 300.48 183.78 299.65 183.99 299.29C184.36 298.67 184.37 298 184.23 297.43V290.53C184.23 283.46 180.69 281.14 179.56 280.58L143.79 255.86C143.58 255.59 143.06 254.84 143.31 254.26C147.57 243.82 149.3 217.83 149.37 216.73C149.37 216.69 149.37 216.64 149.37 216.6V164.73H162.68C163.33 170.08 163.88 171.87 165.91 171.87C167.94 171.87 168.3 169.6 168.48 168.38C168.62 167.46 168.75 166.26 168.87 164.73H176.37C176.99 164.73 177.61 164.77 178.25 164.84C178.59 165.96 179.21 167.02 180.6 167.02C181.59 167.02 182.18 166.47 182.55 165.79L182.75 165.84L186.75 166.92C187.42 172.43 187.94 174.26 190 174.26C192.06 174.26 192.5 172.49 192.85 168.56L201.51 170.89C201.84 171.91 202.47 172.96 203.82 172.96C204.69 172.96 205.25 172.54 205.61 172L214.33 174.35C214.54 175.97 214.73 177.23 214.93 178.16C215.17 179.29 215.61 181.4 217.54 181.4C219.47 181.4 220.02 179.63 220.36 175.98L224.54 177.1C224.88 177.94 225.5 178.81 226.72 178.81C227.44 178.81 227.94 178.52 228.3 178.11C245.64 182.77 254.83 185.23 255.63 185.43C256.37 185.61 256.67 185.84 256.76 185.92C256.8 186.02 256.84 186.11 256.89 186.2C256.89 186.2 258.07 188.3 258.93 189.86C259.67 191.27 260.47 192.57 261.92 192.57C262.54 192.57 263.12 192.3 263.53 191.84C263.72 191.62 264.31 190.96 264.11 189.21V188.17C264.11 186.7 263.86 185.25 263.35 183.86L262.31 181C261.67 179.22 261.25 177.32 261.07 175.34C261 174.51 260.9 173.66 260.78 172.82C260.21 168.72 255.33 166.35 254.78 166.09C254.78 166.09 209.58 143.81 179.23 128.84C179.44 127.96 179.64 126.87 179.74 125.68C180.64 125.68 181.42 125.08 181.66 124.22C181.76 123.87 184.06 115.4 182.43 104.24C182.01 101.72 180.67 99.0698 178.15 99.0698H166.12C165.92 99.0698 165.71 99.0998 165.52 99.1598C164.06 99.6198 161.6 101.41 161.6 105.25C161.6 105.84 161.57 106.46 161.54 107.19C161.41 110.12 161.23 114 162.58 120.64C156.2 117.49 152.87 115.85 152.41 115.62C150.93 114.88 149.69 112.84 149.16 111.78V46.3198C149.16 36.4998 147.27 25.5498 143.99 16.2998C141.95 10.5698 137.7 0.959839 132.08 0.959839H132.15Z" fill="#231F20"/>
</g>
<defs>
<clipPath id="clip0_415_12">
<rect width="264.1" height="305.14" fill="white" transform="translate(0.0996094 0.959839)"/>
</clipPath>
</defs>
</svg>
