<svg width="114" height="175" viewBox="0 0 114 175" fill="none" xmlns="http://www.w3.org/2000/svg">
<g clip-path="url(#clip0_42_68)">
<path d="M109.931 2.62012C110.511 2.62012 111.091 2.70012 111.541 2.94012C112.901 3.66012 110.821 5.11012 110.821 5.11012C110.821 5.11012 105.841 11.2701 102.481 14.8101C99.131 18.3401 70.131 48.7001 70.131 48.7001C70.131 48.7001 69.731 48.6201 69.181 48.6201C69.131 48.6201 69.091 48.6201 69.041 48.6201V68.9301C70.021 69.3801 70.811 69.7801 70.811 69.7801L111.671 108.38C111.671 108.38 112.401 110.92 111.671 112.28C111.491 112.61 111.271 112.74 111.041 112.74C110.321 112.74 109.501 111.55 109.501 111.55C109.501 111.55 103.341 106.57 99.801 103.21C96.921 100.48 76.191 80.6801 68.651 73.4801C68.091 76.9201 66.781 82.7801 63.881 88.1201C63.541 88.7401 63.221 89.3801 62.921 90.0301C61.961 92.1501 60.951 94.2201 60.381 95.3701C60.081 95.9701 59.921 96.6401 59.921 97.3101L59.611 130.12C59.611 130.6 60.001 130.98 60.471 130.98H74.581C75.071 130.98 75.461 131.38 75.461 131.86V137.57C75.461 138.06 75.061 138.45 74.581 138.45H59.431C59.401 138.45 59.141 138.51 59.951 140.92C60.291 141.94 60.471 143.01 60.471 144.09V167.58C60.471 167.58 60.331 171.25 59.201 172.38H54.401C53.271 171.25 53.131 167.58 53.131 167.58V144.09C53.131 143.01 53.311 141.94 53.651 140.92C54.461 138.51 54.201 138.45 54.171 138.45H39.021C38.531 138.45 38.141 138.05 38.141 137.57V131.86C38.141 131.37 38.541 130.98 39.021 130.98H53.131C53.611 130.98 53.991 130.59 53.991 130.12L53.681 97.3101C53.681 96.6401 53.521 95.9701 53.221 95.3701C52.651 94.2201 51.641 92.1501 50.681 90.0301C50.391 89.3801 50.061 88.7501 49.721 88.1201C46.211 81.6401 45.031 74.3801 44.691 71.6301L6.36104 112.41C6.36104 112.41 5.22104 112.74 4.06104 112.74C3.49104 112.74 2.91104 112.66 2.46104 112.42C1.10104 111.7 3.18104 110.24 3.18104 110.24C3.18104 110.24 8.15104 104.07 11.491 100.53C14.831 96.9901 43.761 66.5701 43.761 66.5701C43.761 66.5701 44.101 66.6401 44.571 66.6501V46.9101C43.821 46.5601 43.271 46.2801 43.271 46.2801L2.33104 7.77012C2.33104 7.77012 1.60104 5.23012 2.33104 3.87012C2.51104 3.53012 2.73104 3.41012 2.96104 3.41012C3.68104 3.41012 4.50104 4.59012 4.50104 4.59012C4.50104 4.59012 10.671 9.56012 14.211 12.9001C17.001 15.5301 36.431 34.0001 44.581 41.7601V33.2901C43.491 28.5301 45.031 24.5001 45.031 24.0001C46.041 10.4001 53.431 9.22012 55.961 9.22012C56.491 9.22012 56.811 9.27012 56.811 9.27012C56.811 9.27012 57.131 9.22012 57.661 9.22012C60.191 9.22012 67.581 10.4001 68.591 24.0001C68.591 24.5001 70.131 28.5301 69.041 33.2901V43.8001L107.641 2.94012C107.641 2.94012 108.771 2.62012 109.921 2.62012M109.931 0.620117C108.541 0.620117 107.241 0.980117 107.101 1.02012C106.751 1.12012 106.441 1.31012 106.201 1.57012L71.051 38.7801V33.5201C71.961 29.3001 71.061 25.7201 70.671 24.1701C70.631 24.0201 70.601 23.9001 70.581 23.8201C69.421 8.43012 60.401 7.24012 57.661 7.24012C57.311 7.24012 57.021 7.26012 56.811 7.28012C56.611 7.26012 56.321 7.24012 55.961 7.24012C53.221 7.24012 44.201 8.44012 43.041 23.8201C43.021 23.9101 42.991 24.0301 42.951 24.1701C42.561 25.7101 41.671 29.2901 42.571 33.5201V37.1101C32.281 27.3301 17.961 13.7101 15.571 11.4601C12.341 8.39012 7.06104 4.10012 5.95104 3.20012C5.42104 2.52012 4.35104 1.41012 2.95104 1.41012C1.94104 1.41012 1.06104 1.97012 0.551036 2.93012C-0.498964 4.90012 0.241036 7.76012 0.401036 8.32012C0.501036 8.67012 0.691036 8.98012 0.951036 9.22012L41.901 47.7301C42.041 47.8601 42.201 47.9801 42.381 48.0601C42.381 48.0601 42.451 48.0901 42.571 48.1501V64.9501C42.481 65.0201 42.391 65.1001 42.311 65.1801C42.021 65.4801 13.341 95.6401 10.041 99.1501C6.98104 102.39 2.68104 107.67 1.78104 108.78C1.07104 109.33 -0.0889639 110.46 0.00103613 111.94C0.0610361 112.88 0.611036 113.7 1.52104 114.18C2.21104 114.55 3.06104 114.73 4.06104 114.73C5.46104 114.73 6.77104 114.37 6.91104 114.32C7.25104 114.22 7.57104 114.03 7.81104 113.77L43.381 75.9401C44.121 79.5501 45.481 84.4801 47.971 89.0701C48.331 89.7401 48.621 90.3101 48.861 90.8501C49.851 93.0301 50.891 95.1701 51.431 96.2501C51.591 96.5801 51.681 96.9501 51.691 97.3201L51.991 128.97H39.031C37.441 128.97 36.151 130.26 36.151 131.85V137.56C36.151 139.15 37.441 140.44 39.031 140.44H51.711C51.331 141.62 51.141 142.85 51.141 144.09V167.58C51.141 167.58 51.141 167.63 51.141 167.65C51.191 168.99 51.471 172.27 52.991 173.79C53.371 174.17 53.871 174.38 54.401 174.38H59.201C59.731 174.38 60.241 174.17 60.611 173.79C62.131 172.27 62.411 168.99 62.461 167.65C62.461 167.63 62.461 167.6 62.461 167.58V144.09C62.461 142.85 62.271 141.63 61.891 140.44H74.571C76.161 140.44 77.451 139.15 77.451 137.56V131.85C77.451 130.26 76.161 128.97 74.571 128.97H61.611L61.911 97.3201C61.911 96.9501 62.001 96.5801 62.171 96.2501C62.711 95.1701 63.751 93.0201 64.741 90.8501C64.981 90.3101 65.271 89.7501 65.631 89.0701C67.761 85.1301 69.081 80.9601 69.891 77.4401C80.511 87.5801 95.951 102.33 98.411 104.66C101.641 107.73 106.911 112.04 108.021 112.94C108.551 113.62 109.621 114.73 111.021 114.73C112.031 114.73 112.901 114.18 113.421 113.21C114.471 111.24 113.741 108.38 113.581 107.82C113.481 107.47 113.291 107.16 113.031 106.92L72.171 68.3201C72.031 68.1901 71.871 68.0701 71.691 67.9901C71.691 67.9901 71.431 67.8601 71.031 67.6601V50.4701C71.231 50.3701 71.411 50.2401 71.561 50.0701C71.851 49.7701 100.601 19.6701 103.911 16.1801C106.981 12.9501 111.281 7.68012 112.191 6.57012C112.901 6.02012 114.071 4.89012 113.981 3.42012C113.921 2.48012 113.371 1.66012 112.471 1.18012C111.791 0.810117 110.931 0.620117 109.931 0.620117Z" fill="black"/>
<path d="M60.4808 167.58V144.09C60.4808 143.01 60.3008 141.94 59.9608 140.92C59.1108 138.38 59.4408 138.45 59.4408 138.45H74.5908C75.0808 138.45 75.4708 138.05 75.4708 137.57V131.86C75.4708 131.37 75.0708 130.98 74.5908 130.98H60.4808C60.0008 130.98 59.6208 130.59 59.6208 130.12L59.9308 97.3101C59.9308 96.6401 60.0908 95.9701 60.3908 95.3701C60.9608 94.2201 61.9708 92.1501 62.9308 90.0301C63.2208 89.3801 63.5508 88.7501 63.8908 88.1201C66.7808 82.7801 68.0909 76.9201 68.6609 73.4801C76.2009 80.6801 96.9308 100.48 99.8108 103.21C103.341 106.56 109.511 111.55 109.511 111.55C109.511 111.55 110.961 113.63 111.681 112.27C112.401 110.91 111.681 108.37 111.681 108.37L70.8208 69.7701C70.8208 69.7701 70.0309 69.3701 69.0508 68.9201V48.6101C69.6709 48.5901 70.1408 48.6901 70.1408 48.6901C70.1408 48.6901 99.1308 18.3401 102.491 14.8001C105.841 11.2701 110.831 5.10011 110.831 5.10011C110.831 5.10011 112.911 3.65011 111.551 2.93011C110.191 2.21011 107.651 2.93011 107.651 2.93011L69.0508 43.7901V33.2801C70.1408 28.5201 68.6008 24.4901 68.6008 23.9901C67.3808 7.54011 56.8208 9.27011 56.8208 9.27011C56.8208 9.27011 46.2608 7.55011 45.0408 23.9901C45.0408 24.4901 43.5008 28.5201 44.5908 33.2801V41.7501C36.4308 34.0001 17.0108 15.5301 14.2208 12.8901C10.6708 9.56011 4.49084 4.59011 4.49084 4.59011C4.49084 4.59011 3.04084 2.51011 2.32084 3.87011C1.60084 5.23011 2.32084 7.77011 2.32084 7.77011L43.2708 46.2801C43.2708 46.2801 43.8208 46.5501 44.5708 46.9101V66.6501C44.0908 66.6401 43.7608 66.5701 43.7608 66.5701C43.7608 66.5701 14.8308 96.9901 11.4908 100.53C8.15084 104.07 3.18084 110.24 3.18084 110.24C3.18084 110.24 1.10084 111.69 2.46084 112.42C3.82084 113.14 6.36084 112.42 6.36084 112.42L44.7008 71.6401C45.0408 74.3901 46.2208 81.6501 49.7308 88.1301C50.0708 88.7501 50.3908 89.3901 50.6908 90.0401C51.6508 92.1601 52.6608 94.2301 53.2308 95.3801C53.5308 95.9801 53.6908 96.6501 53.6908 97.3201L54.0008 130.13C54.0008 130.61 53.6108 130.99 53.1408 130.99H39.0308C38.5408 130.99 38.1508 131.39 38.1508 131.87V137.58C38.1508 138.07 38.5508 138.46 39.0308 138.46H54.1808C54.1808 138.46 54.5108 138.39 53.6608 140.93C53.3208 141.95 53.1408 143.02 53.1408 144.1V167.59C53.1408 167.59 53.2808 171.26 54.4108 172.39H59.2108C60.3408 171.26 60.4808 167.59 60.4808 167.59V167.58Z" fill="white"/>
</g>
<defs>
<clipPath id="clip0_42_68">
<rect width="114" height="173.76" fill="white" transform="translate(0.000976562 0.620117)"/>
</clipPath>
</defs>
</svg>
