<svg width="180" height="233" viewBox="0 0 180 233" fill="none" xmlns="http://www.w3.org/2000/svg">
<g clip-path="url(#clip0_87_85)">
<path d="M82.211 229.37V212.63C82.211 212.63 82.631 214.52 83.631 214.2V223.56C83.631 223.56 86.481 223.28 87.601 217.26C87.811 216.07 87.601 216 87.601 216C87.601 216 91.241 215.18 92.151 213.84C92.271 213.66 92.361 213.48 92.431 213.31L93.581 213.07V209.75C93.581 209.75 113.411 206.92 116.041 206.6C118.661 206.29 118.351 204.82 118.351 204.82V202.41C118.351 200.73 117.201 200.63 117.201 200.63L93.731 199.23C93.731 199.23 94.291 192.51 94.851 185.94C96.471 177.61 98.411 163.31 98.831 160.23C98.881 159.89 99.171 159.63 99.521 159.63H101.411C101.871 159.63 102.261 159.3 102.331 158.85C103.361 152.49 103.881 144.08 103.881 142.87C105.541 142.85 105.401 141.63 105.401 141.63H110.861C112.961 141.63 112.991 139.92 112.991 139.92L113.051 139.6C113.261 138.5 113.391 137.39 113.481 136.28L130.411 160.35C131.301 161.62 131.971 163.03 132.391 164.53L134.001 170.27C134.251 171.15 134.711 171.95 135.341 172.61L135.871 173.16C136.371 173.68 137.211 173.68 137.711 173.14C138.721 172.05 140.421 170.19 141.931 168.32C144.291 165.42 142.971 162.88 142.971 162.88L140.181 157.87C139.641 156.9 138.621 156.28 137.501 156.26L136.401 156.24C136.091 156.24 135.811 156.09 135.641 155.84C133.581 152.92 120.561 134.47 113.571 124.51V109.57C113.571 108.43 112.641 107.5 111.501 107.5H106.221C106.221 105.61 104.961 99.3098 104.961 99.3098V91.1198C106.001 90.7198 107.331 90.2498 108.521 89.9498C110.971 89.3298 116.441 90.0098 116.441 90.0098L162.631 76.2398C164.121 75.7998 165.671 75.6098 167.221 75.6898L173.171 75.9898C174.081 76.0398 174.991 75.8498 175.821 75.4598L176.511 75.1298C177.171 74.8198 177.421 74.0198 177.081 73.3798C176.371 72.0698 175.141 69.8798 173.861 67.8398C171.861 64.6798 169.031 65.1298 169.031 65.1298L163.391 66.1798C162.291 66.3798 161.391 67.1598 161.021 68.2098L160.651 69.2498C160.551 69.5398 160.321 69.7598 160.031 69.8498C155.591 71.1798 120.581 81.6798 116.301 82.8698C111.731 84.1398 108.011 86.4598 108.011 86.4598L104.971 87.5798V61.1098C104.971 46.0998 99.231 35.8098 94.841 31.6498C94.301 31.1398 93.711 30.7298 93.081 30.4198L93.421 17.2898C93.461 15.7398 93.771 14.1998 94.321 12.7498L96.451 7.18984C96.781 6.33984 96.891 5.41984 96.771 4.50984L96.671 3.74984C96.581 3.02984 95.901 2.53984 95.191 2.66984C93.731 2.93984 91.261 3.41984 88.931 4.00984C85.311 4.92984 84.851 7.74984 84.851 7.74984L84.101 13.4398C83.951 14.5498 84.411 15.6498 85.291 16.3298L86.161 16.9998C86.401 17.1898 86.541 17.4698 86.531 17.7798C86.491 19.3198 86.371 24.4198 86.211 30.6898C85.761 30.9598 85.341 31.2698 84.951 31.6398C80.551 35.7998 74.821 46.0898 74.821 61.0998V88.5198C73.661 88.2898 70.121 87.5398 68.171 86.7898C65.821 85.8798 61.731 82.1698 61.731 82.1698L16.051 66.7998C14.581 66.2998 13.201 65.5598 11.981 64.6098L7.29103 60.9398C6.57103 60.3798 5.72103 59.9998 4.82103 59.8498L4.06103 59.7198C3.34103 59.5998 2.67103 60.0998 2.59103 60.8198C2.42103 62.2998 2.16103 64.7998 2.03103 67.1998C1.84103 70.9298 4.41103 72.1998 4.41103 72.1998L9.62103 74.5898C10.631 75.0598 11.821 74.9398 12.731 74.2998L13.631 73.6598C13.881 73.4798 14.191 73.4298 14.481 73.5298C18.871 74.9998 53.541 86.5998 57.731 88.0898C62.201 89.6798 66.571 89.9298 66.571 89.9298L74.801 91.9898V99.2798C74.801 99.2798 73.541 105.58 73.541 107.47H68.261C67.121 107.47 66.191 108.4 66.191 109.54V118.82L39.671 154.31C38.741 155.55 37.611 156.63 36.321 157.49L31.371 160.8C30.611 161.31 29.991 162 29.561 162.8L29.201 163.48C28.861 164.12 29.131 164.92 29.791 165.22C31.141 165.84 33.441 166.87 35.681 167.74C39.171 169.08 41.171 167.04 41.171 167.04L45.071 162.83C45.831 162.01 46.091 160.85 45.761 159.79L45.441 158.73C45.351 158.44 45.401 158.12 45.581 157.88C47.501 155.3 58.661 140.31 66.191 130.26V133.8C66.191 135.73 66.371 137.67 66.721 139.57L66.781 139.89C66.781 139.89 66.811 141.6 68.911 141.6H74.371C74.371 141.6 74.231 142.82 75.891 142.84C75.891 144.05 76.411 152.45 77.441 158.82C77.511 159.27 77.911 159.6 78.361 159.6H80.251C80.601 159.6 80.891 159.85 80.941 160.2C81.351 163.28 83.301 177.58 84.921 185.91C85.481 192.49 86.041 199.2 86.041 199.2L86.121 205.15C86.121 205.15 83.531 206.41 82.631 207.25L82.051 206.67V188.62C82.051 188.62 81.161 186.21 80.321 188.62V206.25H77.751V212.65H80.371V229.33C80.371 229.33 81.261 231.53 82.211 229.33V229.37Z" fill="white"/>
<path d="M95.3908 2.6499C96.0108 2.6499 96.5608 3.1099 96.6408 3.7499L96.7408 4.5099C96.8608 5.4199 96.7408 6.3399 96.4208 7.1899L94.2908 12.7499C93.7308 14.1999 93.4308 15.7299 93.3908 17.2899L93.0508 30.4199C93.6808 30.7299 94.2808 31.1399 94.8108 31.6499C99.2108 35.8099 104.941 46.0999 104.941 61.1099V87.5799L107.981 86.4599C107.981 86.4599 111.701 84.1399 116.271 82.8699C120.551 81.6799 155.571 71.1799 160.001 69.8499C160.291 69.7599 160.521 69.5399 160.621 69.2499L160.991 68.2099C161.361 67.1599 162.271 66.3899 163.361 66.1799L169.001 65.1299C169.001 65.1299 169.141 65.1099 169.371 65.1099C170.201 65.1099 172.271 65.3799 173.831 67.8499C175.121 69.8799 176.341 72.0799 177.051 73.3899C177.401 74.0299 177.141 74.8199 176.481 75.1399L175.791 75.4699C175.051 75.8199 174.241 76.0099 173.421 76.0099C173.331 76.0099 173.241 76.0099 173.151 76.0099L167.201 75.7099C166.971 75.6999 166.751 75.6899 166.521 75.6899C165.201 75.6899 163.881 75.8799 162.611 76.2599L116.421 90.0299C116.421 90.0299 113.831 89.7099 111.421 89.7099C110.321 89.7099 109.271 89.7799 108.501 89.9699C107.301 90.2699 105.981 90.7399 104.941 91.1399V99.3299C104.941 99.3299 106.201 105.63 106.201 107.52H111.481C112.621 107.52 113.551 108.45 113.551 109.59V124.53C120.531 134.5 133.561 152.94 135.621 155.86C135.801 156.11 136.081 156.26 136.381 156.26L137.481 156.28C138.591 156.3 139.621 156.91 140.161 157.89L142.951 162.9C142.951 162.9 144.271 165.44 141.911 168.34C140.391 170.2 138.701 172.07 137.691 173.16C137.441 173.43 137.101 173.56 136.761 173.56C136.421 173.56 136.101 173.43 135.851 173.17L135.321 172.62C134.691 171.96 134.221 171.16 133.981 170.28L132.371 164.54C131.951 163.05 131.281 161.63 130.391 160.36L113.461 136.29C113.371 137.4 113.231 138.51 113.031 139.61L112.971 139.93C112.971 139.93 112.931 141.64 110.841 141.64H105.381C105.381 141.64 105.521 142.86 103.861 142.88C103.861 144.09 103.341 152.49 102.311 158.86C102.241 159.31 101.841 159.64 101.391 159.64H99.5008C99.1508 159.64 98.8608 159.89 98.8108 160.24C98.4008 163.32 96.4508 177.62 94.8308 185.95C94.2708 192.53 93.7108 199.24 93.7108 199.24L117.181 200.64C117.181 200.64 118.331 200.74 118.331 202.42V204.83C118.331 204.83 118.641 206.3 116.021 206.61C113.401 206.92 93.5608 209.76 93.5608 209.76V213.08L92.4108 213.32C92.3508 213.49 92.2608 213.67 92.1308 213.85C91.2208 215.19 87.5808 216.01 87.5808 216.01C87.5808 216.01 87.7908 216.08 87.5808 217.27C86.4608 223.29 83.6108 223.57 83.6108 223.57V214.21C83.5308 214.23 83.4608 214.25 83.3908 214.25C82.5508 214.25 82.1908 212.64 82.1908 212.64V229.38C81.8808 230.11 81.5708 230.36 81.2908 230.36C80.7508 230.36 80.3508 229.38 80.3508 229.38V212.7H77.7308V206.3H80.3008V188.67C80.5808 187.87 80.8708 187.6 81.1208 187.6C81.6308 187.6 82.0308 188.67 82.0308 188.67V206.72L82.6108 207.3C83.5008 206.46 86.1008 205.2 86.1008 205.2L86.0208 199.25C86.0208 199.25 85.4608 192.53 84.9008 185.96C83.2808 177.63 81.3408 163.33 80.9208 160.25C80.8708 159.91 80.5808 159.65 80.2308 159.65H78.3408C77.8808 159.65 77.4908 159.32 77.4208 158.87C76.3908 152.51 75.8708 144.1 75.8708 142.89C74.2108 142.87 74.3508 141.65 74.3508 141.65H68.8908C66.7908 141.65 66.7608 139.94 66.7608 139.94L66.7008 139.62C66.3408 137.72 66.1708 135.79 66.1708 133.85V130.31C58.6408 140.37 47.4808 155.35 45.5608 157.93C45.3808 158.18 45.3308 158.49 45.4208 158.78L45.7408 159.84C46.0708 160.91 45.8008 162.07 45.0508 162.88L41.1508 167.09C41.1508 167.09 40.0108 168.25 37.9608 168.25C37.2908 168.25 36.5208 168.13 35.6508 167.79C33.4108 166.93 31.1108 165.9 29.7608 165.27C29.1008 164.97 28.8308 164.17 29.1708 163.53L29.5308 162.85C29.9608 162.04 30.5808 161.35 31.3408 160.85L36.2908 157.54C37.5808 156.68 38.7208 155.6 39.6408 154.36L66.1608 118.87V109.59C66.1608 108.45 67.0908 107.52 68.2308 107.52H73.5108C73.5108 105.63 74.7708 99.3299 74.7708 99.3299V92.0399L66.5408 89.9799C66.5408 89.9799 62.1708 89.7299 57.7008 88.1399C53.5108 86.6499 18.8508 75.0499 14.4508 73.5799C14.3508 73.5499 14.2508 73.5299 14.1508 73.5299C13.9508 73.5299 13.7608 73.5899 13.6008 73.7099L12.7008 74.3499C12.1608 74.7299 11.5308 74.9199 10.8908 74.9199C10.4508 74.9199 10.0008 74.8299 9.59078 74.6399L4.38078 72.2499C4.38078 72.2499 1.81078 70.9799 2.00078 67.2499C2.12078 64.8499 2.38078 62.3499 2.56078 60.8699C2.64078 60.2199 3.18078 59.7499 3.81078 59.7499C3.88078 59.7499 3.95078 59.7499 4.03078 59.7699L4.79078 59.8999C5.69078 60.0499 6.54078 60.4299 7.26078 60.9899L11.9508 64.6599C13.1708 65.6199 14.5508 66.3599 16.0208 66.8499L61.7008 82.2199C61.7008 82.2199 65.7808 85.9299 68.1408 86.8399C70.0908 87.5899 73.6308 88.3399 74.7908 88.5699V61.1499C74.7908 46.1399 80.5308 35.8499 84.9208 31.6899C85.3108 31.3199 85.7408 31.0099 86.1808 30.7399C86.3408 24.4699 86.4608 19.3699 86.5008 17.8299C86.5008 17.5199 86.3708 17.2399 86.1308 17.0499L85.2608 16.3799C84.3808 15.6999 83.9208 14.5999 84.0708 13.4899L84.8208 7.7999C84.8208 7.7999 85.2808 4.9699 88.9008 4.0599C91.2308 3.4699 93.7008 2.9899 95.1608 2.7199C95.2408 2.7099 95.3208 2.6999 95.3908 2.6999M95.3908 0.649902C95.1908 0.649902 94.9908 0.669902 94.8008 0.699902C93.1708 0.999902 90.7308 1.4799 88.4108 2.0699C84.5508 3.0499 83.0908 5.8999 82.8508 7.4299C82.8508 7.4499 82.8508 7.4699 82.8508 7.4899L82.1008 13.1799C81.8608 14.9899 82.6108 16.7999 84.0508 17.9099L84.5108 18.2599C84.4608 20.1299 84.3608 24.3999 84.2308 29.6199C84.0008 29.7999 83.7808 29.9899 83.5708 30.1899C78.6108 34.8899 72.8108 45.8099 72.8108 61.1099V86.0499C71.4708 85.7399 69.9108 85.3299 68.8808 84.9399C67.4208 84.3799 64.5408 82.0499 63.0708 80.7099C62.8708 80.5199 62.6208 80.3799 62.3608 80.2899L16.6808 64.9199C15.4208 64.4999 14.2508 63.8699 13.2008 63.0499L8.51078 59.3799C7.53078 58.6199 6.37078 58.0999 5.15078 57.8899L4.39078 57.7599C4.21078 57.7299 4.02078 57.7099 3.84078 57.7099C2.18078 57.7099 0.790782 58.9499 0.600782 60.5999C0.410782 62.2499 0.150782 64.7199 0.0307824 67.1099C-0.169218 71.0899 2.13078 73.3199 3.52078 73.9999C3.54078 73.9999 3.55078 74.0199 3.57078 74.0199L8.78078 76.4099C9.46078 76.7199 10.1708 76.8799 10.9208 76.8799C11.9908 76.8799 13.0108 76.5499 13.8808 75.9399L14.3508 75.6099C19.1208 77.1999 52.9708 88.5399 57.0508 89.9899C61.2408 91.4899 65.3108 91.8599 66.2508 91.9299L72.7908 93.5699V99.1099C72.6108 100.02 72.0008 103.16 71.7008 105.49H68.2508C66.0108 105.49 64.1808 107.32 64.1808 109.56V118.18L38.0608 153.14C37.2608 154.2 36.3008 155.12 35.2008 155.86L30.2508 159.17C29.2208 159.86 28.3708 160.8 27.7908 161.9L27.4308 162.58C27.0108 163.37 26.9408 164.31 27.2208 165.15C27.5108 166 28.1308 166.7 28.9408 167.07C30.4508 167.77 32.7208 168.78 34.9508 169.64C35.9708 170.03 36.9908 170.23 37.9808 170.23C40.7908 170.23 42.4208 168.65 42.5908 168.47C42.6008 168.46 42.6208 168.44 42.6308 168.43L46.5308 164.22C47.7708 162.88 48.2108 160.97 47.6708 159.23L47.5008 158.68C49.8208 155.57 57.6008 145.12 64.2708 136.19C64.3608 137.45 64.5208 138.72 64.7508 139.96L64.7908 140.17C64.9208 141.59 66.1008 143.63 68.9108 143.63H73.0408C73.0408 143.63 73.1108 143.71 73.1408 143.75C73.3308 143.97 73.6008 144.2 73.9508 144.4C74.1208 147.43 74.6208 153.97 75.4608 159.17C75.6908 160.6 76.9108 161.63 78.3608 161.63H79.1108C79.7108 166.07 81.4608 178.59 82.9308 186.21C82.9308 186.26 82.9308 186.32 82.9408 186.37C82.4308 185.86 81.8108 185.58 81.1408 185.58C80.2908 185.58 79.1208 186 78.4308 188C78.3608 188.21 78.3208 188.43 78.3208 188.66V204.29H77.7508C76.6508 204.29 75.7508 205.19 75.7508 206.29V212.69C75.7508 213.79 76.6508 214.69 77.7508 214.69H78.3708V229.37C78.3708 229.63 78.4208 229.88 78.5208 230.12C78.7308 230.64 79.5608 232.35 81.3108 232.35C82.1308 232.35 83.2708 231.97 84.0408 230.16C84.1508 229.91 84.2008 229.64 84.2008 229.37V225.48C85.3308 225.2 88.3908 223.87 89.5508 217.63C89.5508 217.6 89.5608 217.57 89.5708 217.54C91.0108 217.08 92.8108 216.3 93.7108 215.09L93.9708 215.04C94.9008 214.85 95.5608 214.03 95.5608 213.08V211.49C100.441 210.8 114.141 208.85 116.251 208.59C117.861 208.4 119.031 207.81 119.731 206.84C120.331 206.01 120.371 205.18 120.321 204.71V202.41C120.321 199.84 118.541 198.74 117.351 198.63C117.331 198.63 117.311 198.63 117.291 198.63L95.8608 197.35C96.0708 194.88 96.4308 190.52 96.8008 186.21C98.2708 178.59 100.021 166.07 100.621 161.63H101.371C102.821 161.63 104.041 160.6 104.271 159.17C105.111 153.98 105.621 147.44 105.781 144.4C106.141 144.2 106.401 143.96 106.591 143.75C106.631 143.71 106.661 143.67 106.691 143.63H110.821C112.881 143.63 114.061 142.53 114.601 141.39L128.741 161.49C129.501 162.58 130.071 163.78 130.431 165.06L132.041 170.8C132.371 171.99 133.011 173.1 133.871 173.99L134.401 174.54C135.011 175.17 135.871 175.54 136.751 175.54C137.631 175.54 138.521 175.16 139.141 174.5C140.271 173.28 141.941 171.44 143.451 169.59C145.971 166.5 145.431 163.34 144.711 161.97C144.711 161.95 144.691 161.94 144.681 161.92L141.891 156.91C141.011 155.32 139.321 154.31 137.501 154.28H136.921C133.151 148.93 122.041 133.18 115.531 123.9V109.59C115.531 107.35 113.701 105.52 111.461 105.52H108.011C107.711 103.19 107.101 100.05 106.921 99.1399V92.5399C107.691 92.2699 108.381 92.0599 108.971 91.9099C109.331 91.8199 110.041 91.7099 111.401 91.7099C113.651 91.7099 116.131 92.0099 116.161 92.0199C116.241 92.0299 116.321 92.0399 116.411 92.0399C116.601 92.0399 116.801 92.0099 116.981 91.9599L163.171 78.1899C164.251 77.8699 165.381 77.6999 166.511 77.6999C166.701 77.6999 166.901 77.6999 167.091 77.7099L173.041 78.0099C173.161 78.0099 173.291 78.0099 173.411 78.0099C174.521 78.0099 175.641 77.7599 176.641 77.2799L177.331 76.9499C178.141 76.5699 178.761 75.8599 179.031 75.0099C179.311 74.1599 179.221 73.2299 178.791 72.4399C178.001 70.9799 176.781 68.8199 175.501 66.7899C173.411 63.4799 170.501 63.1199 169.351 63.1199C169.001 63.1199 168.761 63.1499 168.671 63.1699C168.651 63.1699 168.631 63.1699 168.611 63.1699L162.971 64.2199C161.181 64.5499 159.691 65.8299 159.081 67.5499L158.891 68.0899C153.031 69.8499 119.861 79.7899 115.701 80.9499C111.441 82.1399 107.911 84.1599 107.071 84.6599L106.911 84.7199V61.1199C106.911 45.8199 101.111 34.8999 96.1508 30.2099C95.8008 29.8799 95.4308 29.5799 95.0408 29.3099L95.3508 17.3599C95.3808 16.0299 95.6408 14.7299 96.1208 13.4899L98.2508 7.9299C98.6908 6.7699 98.8408 5.5099 98.6908 4.2799L98.5908 3.5199C98.3808 1.8999 96.9908 0.669902 95.3508 0.669902L95.3908 0.649902ZM84.0508 203.99V200.51L84.1008 203.97C84.1008 203.97 84.0708 203.99 84.0508 203.99Z" fill="black"/>
</g>
<defs>
<clipPath id="clip0_87_85">
<rect width="179.22" height="231.7" fill="white" transform="translate(0.000976562 0.649902)"/>
</clipPath>
</defs>
</svg>
