<svg width="135" height="115" viewBox="0 0 135 115" fill="none" xmlns="http://www.w3.org/2000/svg">
<g clip-path="url(#clip0_623_2)">
<path d="M66.7802 113.95C66.2502 113.95 65.7702 113.66 65.5302 113.19L65.4502 113.01C65.2802 112.63 65.1802 112.21 65.1502 111.76C65.0102 109.73 64.5702 103.22 64.4802 100.33C58.8302 99.4702 48.5502 99.1602 45.4602 99.0902C45.2902 99.0902 45.1202 99.0902 44.9502 99.0902C44.3302 99.0902 43.7102 99.1202 43.0902 99.1702L41.5102 99.3102C41.5102 99.3102 41.4502 99.3102 41.4202 99.3102C41.3902 99.3102 41.3502 99.3102 41.3202 99.3102C41.1502 99.2902 40.7202 99.2002 40.3602 98.7302C39.7702 97.9702 39.6602 96.5302 40.0202 94.3502C40.4802 89.9602 43.6502 88.4602 45.2602 88.2902C45.2602 88.2902 58.8702 86.3102 62.8402 85.7102C61.8502 80.1802 59.5902 60.0802 59.0302 55.1002L7.63021 56.3302C7.63021 56.3302 5.14021 56.6102 3.80021 56.8202C3.46021 56.8702 3.16021 56.9002 2.90021 56.9002C1.42021 56.9002 1.24021 55.9702 1.22021 55.7802C1.22021 55.7302 1.22021 55.6702 1.22021 55.6202L1.26021 54.7402C1.54021 48.7702 1.81021 43.1402 7.48022 41.9102C30.7302 37.0002 55.5002 35.1702 58.8502 34.9502C59.0402 24.8802 62.1802 13.2302 63.4502 9.20021H61.6102C61.2402 9.20021 60.8602 9.17021 60.4902 9.11021C60.2402 9.07021 59.8902 9.01021 59.4902 8.94021C59.2002 8.89021 58.8902 8.87021 58.4802 8.87021H58.0802C57.1602 8.87021 56.1702 8.91021 55.6002 8.95021L55.3802 8.97021C55.2002 8.99022 55.0302 9.00021 54.8702 9.00021C54.8102 9.00021 54.7502 9.00021 54.6902 9.00021C54.6502 9.00021 54.6102 9.00021 54.5702 8.98021C53.8502 8.85021 53.4502 8.50021 53.3802 7.96021C53.3302 7.59021 53.4402 7.08021 54.2102 6.71021C54.5602 6.54021 54.9502 6.43021 55.3702 6.38021C56.2602 6.27021 59.3902 5.89021 61.9702 5.76021C63.0102 5.71021 63.7202 5.69022 64.2102 5.69022C64.2302 5.69022 64.2602 5.69022 64.2802 5.69022C65.4402 0.970215 66.7702 0.970215 67.2302 0.970215C67.6902 0.970215 69.0802 0.970215 70.3902 5.69022C70.8702 5.69022 71.5602 5.71021 72.5202 5.76021C75.0302 5.89021 77.9702 6.24021 79.1202 6.38021C79.5402 6.43021 79.9202 6.54021 80.2802 6.71021C81.0502 7.08021 81.1602 7.59021 81.1102 7.96021C81.0402 8.50021 80.6402 8.84021 79.9202 8.98021C79.8802 8.98021 79.8402 8.99021 79.8002 9.00021C79.7402 9.00021 79.6802 9.00021 79.6202 9.00021C79.4602 9.00021 79.2902 8.99022 79.1102 8.97021L78.8902 8.95021C78.3102 8.91021 77.3202 8.87021 76.5002 8.87021H76.0102C75.6102 8.87021 75.3002 8.87021 75.0102 8.93021C74.6102 9.00021 74.2702 9.06021 74.0102 9.10021C73.6502 9.16022 73.2702 9.19021 72.9002 9.19021H71.3202C72.6602 13.6202 75.4602 25.2802 75.6402 34.9402C78.9802 35.1702 103.75 36.9902 127 41.9002C132.68 43.1302 132.95 48.7602 133.23 54.7302L133.27 55.6102C133.27 55.6602 133.27 55.7202 133.27 55.7702C133.25 55.9602 133.07 56.8902 131.59 56.8902C131.33 56.8902 131.03 56.8602 130.69 56.8102C129.34 56.6002 126.8 56.3102 126.78 56.3102L75.4702 55.0902C74.9502 59.4902 72.1302 80.0502 71.0502 85.7002C74.9902 86.2702 88.2402 88.1302 88.2402 88.1302C89.8202 88.3002 92.9902 89.7902 93.4602 94.2402C93.8102 96.3702 93.7002 97.8002 93.1202 98.5702C92.7602 99.0402 92.3302 99.1302 92.1602 99.1502C92.1302 99.1502 92.0902 99.1502 92.0602 99.1502C92.0302 99.1502 92.0002 99.1502 91.9702 99.1502L90.2302 98.9902C89.8202 98.9502 89.4102 98.9302 89.0002 98.9302C88.7502 98.9302 88.5002 98.9302 88.2502 98.9502C85.1602 99.1202 74.8702 99.7102 69.0902 100.29C69.0102 103.08 68.6302 109.12 68.4702 111.73C68.4402 112.19 68.3402 112.61 68.1702 113L68.1002 113.16C67.8502 113.64 67.3702 113.93 66.8402 113.93L66.7802 113.95Z" fill="white"/>
<path d="M67.2202 2C68.1502 2 69.0902 4.62 69.6102 6.73C69.7602 6.73 69.9802 6.71 70.2702 6.71C70.7502 6.71 71.4402 6.73 72.4502 6.78C74.9602 6.91 77.9702 7.27 78.9802 7.4C79.2702 7.44 79.5602 7.51 79.8302 7.64C80.1902 7.81 80.2202 7.93 79.7102 8.03C79.6702 8.03 79.6402 8.03 79.6002 8.03C79.3902 8.03 79.1702 8 78.9302 7.98C78.4002 7.94 77.3702 7.89 76.4602 7.89H76.3702C76.2402 7.89 76.1102 7.89 75.9902 7.89C75.5902 7.89 75.1902 7.89 74.8002 7.97C74.4102 8.04 74.0802 8.1 73.8202 8.14C73.5002 8.19 73.1802 8.22 72.8602 8.22H69.9302C69.9302 8.22 69.9402 8.29 69.9502 8.32C69.9602 8.39 69.9802 8.46 70.0002 8.53C70.9102 11.18 74.4702 24.37 74.6002 35.36C74.6002 35.67 74.8402 35.93 75.1502 35.95C79.6802 36.23 104.4 38.2 126.74 42.92C131.91 44.04 131.91 49.51 132.22 55.7C132.22 55.7 132.19 55.93 131.54 55.93C131.35 55.93 131.11 55.91 130.8 55.86C129.41 55.64 126.84 55.35 126.84 55.35L75.0702 54.11C75.0702 54.11 75.0702 54.11 75.0602 54.11C74.7602 54.11 74.5002 54.34 74.4702 54.64C74.0502 58.44 70.9402 81.05 69.9302 85.98C69.8602 86.3 70.0802 86.6 70.4002 86.65C73.6302 87.12 88.0502 89.15 88.0502 89.15C88.0502 89.15 91.9102 89.56 92.4102 94.37C93.0202 98.07 92.0002 98.17 92.0002 98.17L90.2602 98.01C89.8202 97.97 89.3802 97.95 88.9402 97.95C88.6702 97.95 88.4002 97.95 88.1402 97.97C84.7302 98.16 74.0402 98.77 68.3902 99.37C68.2002 99.39 68.0502 99.55 68.0502 99.74C68.0102 102.35 67.5202 110 67.4102 111.68C67.3902 112 67.3202 112.32 67.1902 112.61C67.1702 112.65 67.1502 112.69 67.1402 112.72C67.0602 112.87 66.9202 112.94 66.7802 112.94C66.6402 112.94 66.4902 112.87 66.4202 112.72C66.4002 112.68 66.3802 112.64 66.3602 112.6C66.2302 112.31 66.1602 112 66.1402 111.69C66.0202 110.03 65.5002 102.39 65.4602 99.79C65.4602 99.61 65.3202 99.45 65.1502 99.42C59.6402 98.5 49.1202 98.17 45.4802 98.08C45.3002 98.08 45.1202 98.08 44.9502 98.08C44.3002 98.08 43.6502 98.11 43.0002 98.17L41.4202 98.31C41.4202 98.31 40.4102 98.21 41.0102 94.51C41.5202 89.69 45.3702 89.29 45.3702 89.29C45.3702 89.29 60.1802 87.13 63.4402 86.64C63.7602 86.59 63.9702 86.29 63.9102 85.98C62.9502 81.07 60.4102 58.43 59.9902 54.63C59.9602 54.33 59.7002 54.1 59.4002 54.1C59.4002 54.1 59.4002 54.1 59.3902 54.1L7.62021 55.34C7.62021 55.34 5.05021 55.63 3.66021 55.85C3.35021 55.9 3.11021 55.92 2.92021 55.92C2.26021 55.92 2.24021 55.69 2.24021 55.69C2.54021 49.5 2.54022 44.02 7.72021 42.91C30.0602 38.19 54.7802 36.21 59.3102 35.94C59.6202 35.92 59.8602 35.67 59.8602 35.35C59.9902 24.33 63.8202 11.17 64.7302 8.57C64.7702 8.45 64.8002 8.33 64.8102 8.21H61.6302C61.3102 8.21 60.9902 8.18 60.6702 8.13C60.4202 8.09 60.0802 8.03 59.6902 7.96C59.3002 7.89 58.9002 7.88 58.5002 7.88C58.3702 7.88 58.2402 7.88 58.1202 7.88H58.0302C57.1302 7.88 56.0902 7.93 55.5602 7.97C55.3202 7.99 55.1002 8.02 54.8902 8.02C54.8502 8.02 54.8202 8.02 54.7802 8.02C54.2702 7.92 54.3002 7.81 54.6602 7.63C54.9302 7.5 55.2102 7.43 55.5102 7.39C56.5202 7.26 59.5302 6.9 62.0402 6.77C63.0502 6.72 63.7402 6.7 64.2202 6.7C64.7002 6.7 64.9402 6.72 65.0802 6.73C65.5302 4.66 66.4102 1.98 67.2402 1.98M67.2202 0C66.0702 0 64.6502 0.58 63.4902 4.72C63.0302 4.73 62.5002 4.75 61.9102 4.78C59.3802 4.91 56.4002 5.26 55.2402 5.41C54.7202 5.48 54.2202 5.62 53.7802 5.83C52.3102 6.53 52.3502 7.76 52.3902 8.11C52.4502 8.57 52.7702 9.68 54.3902 9.98C54.4702 10 54.5502 10.01 54.6302 10.01C54.7102 10.01 54.7902 10.01 54.8702 10.01C55.0602 10.01 55.2702 9.99 55.4802 9.97L55.6802 9.95C56.2402 9.91 57.2102 9.87 58.0102 9.87H58.3002H58.4802C58.8302 9.87 59.1002 9.87 59.3202 9.92C59.7302 9.99 60.0802 10.05 60.3402 10.09C60.7602 10.16 61.1902 10.19 61.6102 10.19H62.1002C60.7002 14.95 58.1902 24.98 57.8702 34.01C52.2302 34.42 29.0902 36.32 7.28021 40.93C0.850215 42.34 0.550215 48.63 0.260215 54.71L0.220215 55.59C0.220215 55.7 0.220215 55.8 0.220215 55.91C0.300215 56.66 0.960215 57.92 2.89021 57.92C3.21021 57.92 3.55021 57.89 3.95021 57.83C5.14021 57.64 7.28022 57.4 7.73022 57.34L58.1202 56.13C58.7702 61.94 60.6702 78.58 61.6702 84.88C56.9602 85.58 45.7902 87.2 45.0902 87.31C43.1902 87.53 39.5502 89.25 39.0002 94.25C38.5902 96.76 38.7602 98.33 39.5402 99.35C39.9602 99.9 40.5602 100.25 41.1902 100.31C41.2602 100.31 41.3202 100.31 41.3902 100.31C41.4502 100.31 41.5102 100.31 41.5702 100.31L43.1502 100.17C43.7302 100.12 44.3302 100.09 44.9202 100.09C45.0802 100.09 45.2402 100.09 45.4002 100.09C48.3302 100.16 57.7702 100.45 63.4802 101.21C63.6202 104.54 64.0302 110.51 64.1202 111.83C64.1602 112.39 64.2902 112.93 64.5002 113.41C64.5402 113.49 64.5702 113.56 64.6102 113.64C65.0302 114.44 65.8502 114.94 66.7502 114.94C67.6502 114.94 68.4802 114.44 68.8902 113.64C68.9302 113.57 68.9602 113.49 69.0002 113.42C69.2202 112.93 69.3502 112.38 69.3902 111.81C69.5102 109.97 69.8602 104.43 69.9802 101.22C75.8502 100.67 85.2902 100.13 88.2302 99.97C88.4602 99.96 88.6902 99.95 88.9202 99.95C89.3002 99.95 89.6802 99.97 90.0602 100L91.8002 100.16C91.8602 100.16 91.9202 100.16 91.9802 100.16C92.0502 100.16 92.1102 100.16 92.1802 100.16C92.8102 100.1 93.4102 99.75 93.8302 99.2C94.6102 98.18 94.7802 96.61 94.3702 94.1C93.8202 89.1 90.1702 87.38 88.2702 87.16C87.6202 87.07 76.8002 85.55 72.1402 84.88C73.2602 78.49 75.5802 61.62 76.2702 56.13L126.67 57.34C127.12 57.39 129.26 57.64 130.45 57.83C130.84 57.89 131.19 57.92 131.51 57.92C133.44 57.92 134.1 56.66 134.18 55.91C134.19 55.8 134.2 55.7 134.18 55.59L134.14 54.71C133.85 48.63 133.56 42.34 127.13 40.95C105.31 36.34 82.1802 34.44 76.5302 34.03C76.2202 24.83 73.8502 14.85 72.5602 10.21H72.8202C73.2402 10.21 73.6702 10.18 74.0902 10.11C74.3602 10.07 74.7102 10.01 75.1102 9.94C75.3302 9.9 75.5902 9.89 75.9402 9.89H76.1202H76.3202H76.3802C77.2202 9.89 78.1902 9.93 78.7402 9.97L78.9402 9.99C79.1502 10.01 79.3602 10.03 79.5502 10.03C79.6302 10.03 79.7102 10.03 79.7902 10.03C79.8702 10.03 79.9502 10.01 80.0302 10C81.6502 9.69 81.9702 8.59 82.0302 8.13C82.0802 7.77 82.1102 6.55 80.6402 5.85C80.1902 5.64 79.7002 5.49 79.1802 5.43C78.0202 5.28 75.0402 4.93 72.5102 4.8C71.9802 4.77 71.5002 4.75 71.0802 4.74C69.8002 0.59 68.3302 0.01 67.1702 0.01L67.2202 0Z" fill="black"/>
</g>
<defs>
<clipPath id="clip0_623_2">
<rect width="134" height="114.95" fill="white" transform="translate(0.220215)"/>
</clipPath>
</defs>
</svg>
