<svg width="115" height="93" viewBox="0 0 115 93" fill="none" xmlns="http://www.w3.org/2000/svg">
<g clip-path="url(#clip0_449_13)">
<path d="M57.21 91.6602C56.31 91.6602 56.01 91.4702 55.66 87.1102L37.08 85.8502C36.56 85.8102 36.15 85.3802 36.15 84.8502V80.7502C36.15 78.3402 38.66 77.2002 40.14 76.9002L54.72 74.9802C54.51 71.9702 53.76 62.3402 52.42 56.4902C51.29 51.5502 50.89 47.9502 50.69 46.2102C50.67 45.9902 50.64 45.7602 50.62 45.5702C50.31 45.4202 50.06 45.2102 49.86 44.9902C47.16 44.9002 34.17 44.4602 20.52 43.9302C8.01996 43.4502 3.55996 42.1202 2.21996 41.5702C1.60996 41.3202 1.20996 40.7302 1.20996 40.0702V38.4802C1.20996 37.1602 1.78996 35.9202 2.75996 35.1602C8.10996 30.9602 18.27 30.7402 20.26 30.7402H20.45L45 29.7002C46 29.6602 46.98 29.4602 47.93 29.1202L50.04 28.3602C50.39 22.4902 51.41 16.8402 52.08 13.6202C51.99 13.7002 51.89 13.7702 51.77 13.8102C51.65 13.8602 51.53 13.8802 51.4 13.8802C51.18 13.8802 50.97 13.8102 50.79 13.6702L49.57 12.7302C49.17 12.4202 48.93 11.9502 48.92 11.4502C48.91 10.9502 49.11 10.4702 49.49 10.1502C49.74 9.93023 50.05 9.67023 50.41 9.39023C51.27 8.71023 52.34 8.61023 52.9 8.61023C53.12 8.61023 53.26 8.63023 53.26 8.63023C53.34 8.35023 53.41 8.09023 53.49 7.84023H48.25C47.5 7.84023 46.89 7.23023 46.89 6.48023V5.41023C46.89 4.85023 47.23 4.34023 47.75 4.15023C48.65 3.80023 49.83 3.63023 51.25 3.63023C52.67 3.63023 53.97 3.79023 54.83 3.91023C55.27 2.66023 56.22 0.990234 57.21 0.990234C58.2 0.990234 59.15 2.66023 59.59 3.91023C60.45 3.79023 61.78 3.63023 63.17 3.63023C64.56 3.63023 65.77 3.81023 66.67 4.15023C67.18 4.35023 67.53 4.86023 67.53 5.41023V6.48023C67.53 7.23023 66.92 7.84023 66.17 7.84023H60.93C61 8.09023 61.08 8.35023 61.16 8.63023C61.24 8.63023 61.36 8.61023 61.52 8.61023C62.08 8.61023 63.14 8.71023 64.01 9.39023C64.36 9.67023 64.68 9.93023 64.93 10.1502C65.31 10.4802 65.52 10.9502 65.5 11.4502C65.49 11.9502 65.25 12.4202 64.85 12.7302L63.63 13.6702C63.45 13.8102 63.24 13.8802 63.02 13.8802C62.9 13.8802 62.77 13.8602 62.65 13.8102C62.53 13.7702 62.43 13.7002 62.34 13.6202C63.01 16.8402 64.03 22.4902 64.38 28.3602L66.49 29.1202C67.43 29.4602 68.42 29.6502 69.42 29.7002L94.02 30.7402H94.15C96.13 30.7402 106.3 30.9502 111.65 35.1502C112.62 35.9202 113.2 37.1602 113.2 38.4802V40.0702C113.2 40.7302 112.81 41.3202 112.2 41.5702C110.86 42.1202 106.4 43.4502 93.9 43.9302C80.25 44.4602 67.26 44.9002 64.56 44.9902C64.37 45.2102 64.12 45.4302 63.8 45.5702C63.78 45.7602 63.75 45.9902 63.73 46.2102C63.54 47.9402 63.14 51.5502 62.01 56.4802C60.67 62.3202 59.92 71.9502 59.71 74.9702L74.22 76.8802C75.77 77.1902 78.27 78.3302 78.27 80.7402V84.8402C78.27 85.3702 77.86 85.8002 77.34 85.8402L58.76 87.1002C58.42 91.4702 58.11 91.6502 57.21 91.6502V91.6602Z" fill="white"/>
<path d="M57.2099 2C57.6099 2 58.8499 4.15 58.8499 5.02C59.0999 5.02 61.0999 4.63 63.1699 4.63C64.2799 4.63 65.42 4.74 66.31 5.09C66.44 5.14 66.53 5.28 66.53 5.42V6.49C66.53 6.69 66.37 6.85 66.17 6.85H59.5599C59.8199 7.6 60.1199 8.6 60.4199 9.78L61.2599 9.63C61.2599 9.63 61.3599 9.62 61.5099 9.62C61.9199 9.62 62.7499 9.69 63.3799 10.19C63.7199 10.46 64.02 10.71 64.26 10.92C64.58 11.2 64.5599 11.7 64.2299 11.95L63.0099 12.89C63.0099 12.89 62.9 12.24 61 12.2C62.03 16.79 63.0699 23.01 63.3899 28.67C63.3999 28.92 63.5599 29.13 63.7999 29.22L66.15 30.07C67.19 30.44 68.27 30.66 69.37 30.7L93.97 31.74C93.97 31.74 94.03 31.74 94.15 31.74C95.62 31.74 105.87 31.89 111.03 35.94C111.8 36.54 112.2 37.5 112.2 38.48V40.07C112.2 40.32 112.05 40.55 111.82 40.64C110.64 41.13 106.35 42.44 93.86 42.92C78.42 43.52 64.02 43.99 64.02 43.99C64.02 43.99 63.7 44.75 62.95 44.75C62.75 44.95 62.67 49.13 61.04 56.25C59.41 63.37 58.6499 75.83 58.6499 75.83L74.09 77.86C74.09 77.86 77.27 78.5 77.27 80.73V84.83L58.4899 86.1L57.8899 85.14C57.8899 85.14 57.5299 90.63 57.2099 90.63C56.8899 90.63 56.5299 85.14 56.5299 85.14L55.93 86.1L37.1499 84.83V80.73C37.1499 78.5 40.3299 77.86 40.3299 77.86L55.77 75.83C55.77 75.83 55.0099 63.37 53.3799 56.25C51.7499 49.13 51.6699 44.95 51.4699 44.75C50.7199 44.75 50.3999 43.99 50.3999 43.99C50.3999 43.99 36 43.51 20.56 42.92C8.06995 42.44 3.77995 41.12 2.59995 40.64C2.36995 40.54 2.21995 40.32 2.21995 40.07V38.48C2.21995 37.5 2.61995 36.54 3.38995 35.94C8.54995 31.89 18.8 31.74 20.27 31.74C20.38 31.74 20.45 31.74 20.45 31.74L45.0499 30.7C46.1499 30.65 47.24 30.44 48.27 30.07L50.6199 29.22C50.8599 29.13 51.0199 28.92 51.0299 28.67C51.3499 23.01 52.3799 16.79 53.4199 12.2C51.5199 12.23 51.41 12.89 51.41 12.89L50.1899 11.95C49.8599 11.69 49.84 11.19 50.16 10.92C50.4 10.71 50.7 10.46 51.04 10.19C51.67 9.69 52.5 9.62 52.91 9.62C53.07 9.62 53.16 9.63 53.16 9.63L54 9.78C54.31 8.6 54.6 7.6 54.86 6.85H48.25C48.05 6.85 47.8899 6.69 47.8899 6.49V5.42C47.8899 5.28 47.97 5.14 48.11 5.09C49 4.75 50.14 4.63 51.25 4.63C53.32 4.63 55.32 5.02 55.57 5.02C55.57 4.14 56.8099 2 57.2099 2ZM57.2099 0C55.8699 0 54.8 1.43 54.18 2.83C53.36 2.73 52.32 2.64 51.25 2.64C49.68 2.64 48.4199 2.83 47.3899 3.23C46.4899 3.57 45.8899 4.46 45.8899 5.43V6.5C45.8899 7.8 46.95 8.86 48.25 8.86H49.5099C49.2599 9.07 49.03 9.26 48.84 9.42C48.23 9.95 47.8999 10.71 47.9199 11.51C47.9399 12.31 48.3199 13.06 48.9599 13.55L50.18 14.49C50.38 14.64 50.59 14.75 50.82 14.82C50.2 18.03 49.4199 22.74 49.0799 27.67L47.5799 28.21C46.7299 28.52 45.85 28.69 44.95 28.73L20.39 29.77H20.25C18.21 29.77 7.73995 29.99 2.12995 34.4C0.899951 35.37 0.199951 36.86 0.199951 38.51V40.1C0.199951 41.17 0.839951 42.12 1.82995 42.52C3.54995 43.23 8.25995 44.48 20.47 44.95C33.55 45.46 46.0199 45.88 49.4199 45.99C49.4999 46.06 49.5799 46.12 49.6699 46.19C49.6699 46.24 49.6799 46.29 49.6899 46.34C49.8799 48.09 50.29 51.73 51.43 56.73C52.64 62 53.3599 70.41 53.6399 74.12L40.07 75.9C40.07 75.9 39.9799 75.91 39.9399 75.92C38.1599 76.28 35.1499 77.69 35.1499 80.75V84.85C35.1499 85.9 35.9599 86.77 37.0099 86.85L54.75 88.05C54.75 88.05 54.75 88.09 54.75 88.11C55 90.75 55.18 92.67 57.2 92.67C59.22 92.67 59.3999 90.76 59.6499 88.11C59.6499 88.09 59.6499 88.07 59.6499 88.05L77.39 86.85C78.44 86.78 79.25 85.91 79.25 84.85V80.75C79.25 77.7 76.24 76.28 74.46 75.92C74.42 75.92 74.37 75.9 74.33 75.9L60.7599 74.12C61.0399 70.41 61.7599 61.99 62.9699 56.73C64.1099 51.74 64.52 48.09 64.71 46.34C64.71 46.29 64.7199 46.24 64.7299 46.19C64.8199 46.13 64.8999 46.06 64.9799 45.99C68.38 45.88 80.85 45.45 93.93 44.95C106.15 44.48 110.85 43.22 112.57 42.52C113.56 42.11 114.19 41.16 114.19 40.1V38.51C114.19 36.86 113.49 35.37 112.26 34.4C106.66 29.99 96.19 29.77 94.14 29.77H94L69.44 28.73C68.54 28.69 67.66 28.52 66.81 28.21L65.31 27.67C64.97 22.74 64.19 18.03 63.57 14.82C63.8 14.75 64.02 14.64 64.21 14.49L65.43 13.55C66.07 13.06 66.45 12.31 66.47 11.51C66.49 10.71 66.1599 9.95 65.5499 9.42C65.3599 9.25 65.13 9.06 64.88 8.86H66.14C67.44 8.86 68.5 7.8 68.5 6.5V5.43C68.5 4.46 67.9 3.58 67 3.23C65.97 2.83 64.7099 2.64 63.1399 2.64C62.0799 2.64 61.0299 2.73 60.2099 2.83C59.5899 1.44 58.51 0 57.18 0L57.2099 0Z" fill="black"/>
</g>
<defs>
<clipPath id="clip0_449_13">
<rect width="114" height="92.66" fill="white" transform="translate(0.209961)"/>
</clipPath>
</defs>
</svg>
