<svg width="71" height="175" viewBox="0 0 71 175" fill="none" xmlns="http://www.w3.org/2000/svg">
<g clip-path="url(#clip0_585_22)">
<path d="M35.3596 173.97C35.3596 173.97 34.9196 173.92 34.4496 173.76L17.9196 168.12C17.1496 167.86 16.6296 167.13 16.6296 166.32V161C16.6296 160.33 17.0596 159.73 17.6896 159.51L28.6996 155.64L27.2996 129.98L25.9196 129.23C25.4996 129 25.0596 128.84 24.5896 128.75L3.02957 124.55C2.29957 124.41 1.76957 123.79 1.74957 123.04L1.30957 108.74C1.28957 108.23 1.57957 107.76 2.02957 107.52L24.2896 96.09V80.49C24.2896 78.92 25.1796 77.7 26.6696 77.17C27.1796 76.11 28.0096 74.42 28.4696 73.63C28.4896 30.97 33.5196 14.76 34.2096 12.75V2.33002C34.2096 1.48002 34.8496 1.02002 35.4396 1.02002H35.4796C36.0796 1.02002 36.7096 1.48002 36.7096 2.33002V12.74C37.3996 14.75 42.4196 30.96 42.4496 73.62C42.9296 74.44 43.8096 76.25 44.2496 77.16C45.7496 77.68 46.6296 78.91 46.6296 80.48V96.08L68.8896 107.51C69.3396 107.74 69.6196 108.22 69.6096 108.73L69.1696 123.03C69.1496 123.78 68.6196 124.39 67.8896 124.54L46.3296 128.73C45.8696 128.82 45.4196 128.98 44.9996 129.21L43.6196 129.96L42.2196 155.62L53.2296 159.49C53.8596 159.71 54.2896 160.31 54.2896 160.98V166.3C54.2896 167.12 53.7696 167.84 52.9996 168.1L36.4696 173.74C35.9996 173.9 35.5996 173.95 35.5596 173.95C35.5296 173.95 35.4896 173.95 35.4596 173.95C35.4296 173.95 35.3896 173.95 35.3596 173.95V173.97Z" fill="white"/>
<path d="M35.4799 2.02002C35.5399 2.02002 35.7099 2.05002 35.7099 2.33002V12.81C35.7099 12.88 35.7199 12.94 35.7399 13C36.1999 14.33 41.4299 30.36 41.4399 73.74C41.4399 73.84 41.4699 73.95 41.5199 74.04C41.9899 74.83 43.0599 77.03 43.4099 77.77C43.4799 77.92 43.6099 78.03 43.7599 78.07C44.3099 78.24 45.6099 78.81 45.6099 80.49V96.35C45.6099 96.57 45.7299 96.77 45.9299 96.87L68.4199 108.42C68.5299 108.48 68.5999 108.59 68.5999 108.72L68.1599 123.03C68.1599 123.3 67.9599 123.53 67.6899 123.59L46.1299 127.79C45.5699 127.9 45.0199 128.1 44.5199 128.37L42.9399 129.23C42.7599 129.33 42.6499 129.51 42.6399 129.71L41.2099 155.92C41.1999 156.18 41.3499 156.42 41.5999 156.5L52.9099 160.47C53.1399 160.55 53.2999 160.77 53.2999 161.02V166.34C53.2999 166.73 53.0499 167.07 52.6899 167.2L36.1599 172.84C35.7799 172.97 35.4699 173 35.4699 173C35.4699 173 35.1599 172.97 34.7799 172.84L18.2499 167.2C17.8799 167.07 17.6399 166.73 17.6399 166.34V161.02C17.6399 160.77 17.7999 160.55 18.0299 160.47L29.3399 156.5C29.5799 156.41 29.7399 156.18 29.7299 155.92L28.2999 129.71C28.2899 129.51 28.1699 129.33 27.9999 129.23L26.4199 128.37C25.9199 128.1 25.3699 127.9 24.8099 127.79L3.24987 123.59C2.97987 123.54 2.78987 123.31 2.77987 123.03L2.33987 108.72C2.33987 108.6 2.39987 108.48 2.50987 108.42L24.9999 96.87C25.1899 96.77 25.3199 96.57 25.3199 96.35V80.49C25.3199 78.81 26.6199 78.24 27.1699 78.07C27.3299 78.02 27.4499 77.91 27.5199 77.77C27.8699 77.03 28.9399 74.84 29.4099 74.04C29.4599 73.95 29.4899 73.85 29.4899 73.74C29.4999 30.37 34.7299 14.34 35.1899 13C35.2099 12.94 35.2199 12.87 35.2199 12.81V2.33002C35.2199 2.05002 35.3899 2.02002 35.4499 2.02002C35.4599 2.02002 35.4699 2.02002 35.4699 2.02002C35.4699 2.02002 35.4699 2.02002 35.4899 2.02002M35.4799 0.0200195H35.4599H35.4399C34.1899 0.0200195 33.2099 1.04002 33.2099 2.33002V12.58C32.3399 15.21 27.5199 31.73 27.4699 73.36C27.0399 74.15 26.4099 75.42 25.9399 76.38C24.5699 77.01 23.2899 78.33 23.2899 80.48V95.47L1.56987 106.63C0.779873 107.04 0.279873 107.88 0.309873 108.77L0.749873 123.07C0.789873 124.29 1.64987 125.29 2.83987 125.53L24.3999 129.73C24.7599 129.8 25.1099 129.93 25.4399 130.1L26.3299 130.58L27.6599 154.94L17.3499 158.56C16.3199 158.92 15.6199 159.9 15.6199 161V166.32C15.6199 167.56 16.4099 168.67 17.5899 169.07L34.1199 174.71C34.6699 174.9 35.1199 174.96 35.2499 174.97C35.3199 174.97 35.3899 174.98 35.4599 174.98C35.5299 174.98 35.5999 174.98 35.6699 174.97C35.7999 174.96 36.2499 174.9 36.7999 174.71L53.3299 169.07C54.5099 168.67 55.2999 167.56 55.2999 166.32V161C55.2999 159.9 54.6099 158.93 53.5699 158.56L43.2599 154.94L44.5899 130.58L45.4799 130.1C45.8099 129.92 46.1499 129.8 46.5199 129.73L68.0799 125.53C69.2699 125.3 70.1299 124.29 70.1699 123.07L70.6099 108.77C70.6399 107.88 70.1399 107.04 69.3499 106.63L47.6299 95.48V80.49C47.6299 78.35 46.3499 77.02 44.9799 76.39C44.5199 75.43 43.8899 74.16 43.4499 73.37C43.4099 31.74 38.5799 15.22 37.7099 12.59V2.33002C37.7099 1.03002 36.7299 0.0200195 35.4799 0.0200195Z" fill="black"/>
</g>
<defs>
<clipPath id="clip0_585_22">
<rect width="70.3" height="174.96" fill="white" transform="translate(0.30957 0.0200195)"/>
</clipPath>
</defs>
</svg>
