<svg width="115" height="179" viewBox="0 0 115 179" fill="none" xmlns="http://www.w3.org/2000/svg">
<g clip-path="url(#clip0_80_39)">
<path d="M57.6396 2.91016C57.6396 2.91016 51.4296 12.5002 50.3096 29.1602C50.0596 33.7502 50.0596 38.5002 48.3896 47.7902C48.1896 47.7402 46.9296 46.2802 46.0196 43.6502C45.8196 43.0402 45.2396 42.6902 44.7096 43.8002C43.9496 45.3902 42.9396 47.3802 42.9396 47.3802C42.9396 47.3802 41.4296 50.2602 40.7696 54.7002C40.1596 58.8002 36.7296 84.7902 36.1896 88.8102C36.1496 89.1402 35.9697 89.4402 35.6996 89.6402L3.27965 113.51C2.87965 113.81 2.63965 114.28 2.63965 114.78V134.05C2.63965 134.31 2.81965 134.54 3.06965 134.61L37.2696 143.33C37.4897 143.39 37.6096 143.63 37.5096 143.84L36.1096 146.8C35.9796 147.08 35.7696 147.32 35.5196 147.5L19.5096 158.62C19.1297 158.88 18.9096 159.31 18.9096 159.77V167.96C18.9096 168.24 19.0996 168.48 19.3596 168.55L48.0696 176.08C48.5196 176.2 48.9696 175.88 49.0096 175.42L50.3296 160.03C50.3296 160.03 50.4796 159.12 51.1196 158.67C51.2696 160.07 51.8896 165.53 52.4196 167.58C52.4696 167.78 57.6396 167.58 57.6396 167.58C57.6396 167.58 62.8097 167.78 62.8596 167.58C63.3896 165.54 64.0096 160.07 64.1596 158.67C64.7996 159.12 64.9496 160.03 64.9496 160.03L66.2696 175.42C66.3097 175.88 66.7597 176.2 67.2096 176.08L95.9196 168.55C96.1896 168.48 96.3697 168.24 96.3697 167.96V159.77C96.3697 159.31 96.1496 158.88 95.7696 158.62L79.7597 147.5C79.5097 147.32 79.2996 147.08 79.1696 146.8L77.7696 143.84C77.6696 143.63 77.7896 143.39 78.0097 143.33L112.21 134.61C112.46 134.55 112.64 134.32 112.64 134.05V114.78C112.64 114.28 112.4 113.81 112 113.51L79.5797 89.6402C79.3097 89.4402 79.1296 89.1402 79.0896 88.8102C78.5596 84.8002 75.1197 58.8002 74.5097 54.7002C73.8496 50.2602 72.3396 47.3802 72.3396 47.3802C72.3396 47.3802 71.3297 45.3902 70.5696 43.8002C70.0396 42.6902 69.4596 43.0402 69.2597 43.6502C68.3496 46.2702 67.0896 47.7402 66.8896 47.7902C65.2197 38.5002 65.2197 33.7602 64.9697 29.1602C63.8596 12.5002 57.6396 2.91016 57.6396 2.91016Z" fill="white"/>
<path d="M57.6396 2.91016C57.6396 2.91016 63.8497 12.5002 64.9697 29.1602C65.2197 33.7502 65.2197 38.5002 66.8896 47.7902C67.0896 47.7402 68.3496 46.2802 69.2597 43.6502C69.3697 43.3302 69.5797 43.0802 69.8297 43.0802C70.0597 43.0802 70.3196 43.2802 70.5696 43.8002C71.3297 45.3902 72.3396 47.3802 72.3396 47.3802C72.3396 47.3802 73.8496 50.2602 74.5097 54.7002C75.1197 58.8002 78.5496 84.7902 79.0896 88.8102C79.1296 89.1402 79.3097 89.4402 79.5797 89.6402L112 113.51C112.4 113.81 112.64 114.28 112.64 114.78V134.05C112.64 134.31 112.46 134.54 112.21 134.61L78.0097 143.33C77.7896 143.39 77.6696 143.63 77.7696 143.84L79.1696 146.8C79.2996 147.08 79.5097 147.32 79.7597 147.5L95.7696 158.62C96.1496 158.88 96.3697 159.31 96.3697 159.77V167.96C96.3697 168.24 96.1796 168.48 95.9196 168.55L67.2096 176.08C67.1497 176.1 67.0796 176.1 67.0196 176.1C66.6396 176.1 66.3096 175.81 66.2796 175.42L64.9596 160.03C64.9596 160.03 64.8096 159.12 64.1696 158.67C64.0196 160.07 63.3996 165.53 62.8696 167.58C62.8496 167.65 62.2696 167.67 61.4896 167.67C59.9396 167.67 57.6496 167.58 57.6496 167.58C57.6496 167.58 55.3496 167.67 53.8096 167.67C53.0396 167.67 52.4496 167.65 52.4296 167.58C51.8997 165.54 51.2797 160.07 51.1297 158.67C50.4897 159.12 50.3396 160.03 50.3396 160.03L49.0196 175.42C48.9897 175.82 48.6496 176.1 48.2796 176.1C48.2196 176.1 48.1497 176.1 48.0896 176.08L19.3796 168.55C19.1096 168.48 18.9296 168.24 18.9296 167.96V159.77C18.9296 159.31 19.1496 158.88 19.5296 158.62L35.5396 147.5C35.7896 147.32 35.9996 147.08 36.1297 146.8L37.5296 143.84C37.6296 143.63 37.5097 143.39 37.2896 143.33L3.08965 134.61C2.83965 134.55 2.65965 134.32 2.65965 134.05V114.78C2.65965 114.28 2.89965 113.81 3.29965 113.51L35.7197 89.6402C35.9897 89.4402 36.1696 89.1402 36.2096 88.8102C36.7396 84.8002 40.1796 58.8002 40.7896 54.7002C41.4496 50.2602 42.9596 47.3802 42.9596 47.3802C42.9596 47.3802 43.9697 45.3902 44.7296 43.8002C44.9796 43.2802 45.2397 43.0802 45.4697 43.0802C45.7296 43.0802 45.9397 43.3302 46.0396 43.6502C46.9496 46.2702 48.2096 47.7402 48.4096 47.7902C50.0796 38.5002 50.0796 33.7602 50.3296 29.1602C51.4396 12.5002 57.6596 2.91016 57.6596 2.91016M57.6396 0.910156C56.9596 0.910156 56.3296 1.25016 55.9596 1.82016C55.6896 2.23016 49.4496 12.0402 48.3196 29.0202C48.2796 29.7402 48.2496 30.4502 48.2096 31.1702C48.0696 34.1002 47.9196 37.3302 47.2996 41.9202C46.8196 41.3902 46.1596 41.0702 45.4496 41.0702C44.8297 41.0702 43.6796 41.3102 42.9096 42.9302C42.1696 44.4802 41.1696 46.4502 41.1596 46.4702C41.1096 46.5702 39.4896 49.6702 38.7996 54.4002C38.2096 58.3902 35.0096 82.5502 34.2596 88.2102L2.09965 111.9C1.18965 112.57 0.639648 113.65 0.639648 114.78V134.05C0.639648 135.23 1.43965 136.25 2.57965 136.54L34.8496 144.76L34.3196 145.87L18.3596 156.96C17.4496 157.59 16.8996 158.64 16.8996 159.75V167.94C16.8996 169.13 17.6996 170.16 18.8496 170.46L47.5596 177.99C47.7896 178.05 48.0196 178.08 48.2596 178.08C49.6696 178.08 50.8797 176.98 50.9996 175.57L51.5296 169.36C52.1696 169.64 52.9896 169.64 53.7996 169.64C55.2196 169.64 57.2197 169.57 57.6396 169.55C58.0596 169.57 60.0597 169.64 61.4796 169.64C62.2896 169.64 63.1096 169.64 63.7496 169.35L64.2796 175.57C64.3996 176.98 65.5996 178.08 67.0196 178.08C67.2596 178.08 67.4896 178.05 67.7197 177.99L96.4296 170.46C97.5797 170.16 98.3796 169.12 98.3796 167.94V159.75C98.3796 158.64 97.8297 157.59 96.9196 156.96L80.9596 145.87L80.4296 144.76L112.7 136.54C113.84 136.25 114.64 135.22 114.64 134.05V114.78C114.64 113.65 114.1 112.57 113.18 111.9L81.0196 88.2202C80.2696 82.5602 77.0696 58.3902 76.4796 54.4102C75.7796 49.6902 74.1696 46.5802 74.0996 46.4502C74.0996 46.4502 73.1096 44.4802 72.3697 42.9402C71.5997 41.3202 70.4497 41.0802 69.8297 41.0802C69.1197 41.0802 68.4596 41.4002 67.9796 41.9302C67.3596 37.3402 67.2096 34.1102 67.0696 31.1802C67.0396 30.4602 66.9996 29.7502 66.9697 29.0502C65.8397 12.0502 59.5896 2.23016 59.3296 1.82016C58.9596 1.25016 58.3296 0.910156 57.6496 0.910156L57.6396 0.910156Z" fill="black"/>
</g>
<defs>
<clipPath id="clip0_80_39">
<rect width="114" height="177.18" fill="white" transform="translate(0.639648 0.910156)"/>
</clipPath>
</defs>
</svg>
