<svg width="289" height="323" viewBox="0 0 289 323" fill="none" xmlns="http://www.w3.org/2000/svg">
<g clip-path="url(#clip0_530_7)">
<path d="M95.8097 320.95C94.1697 320.95 93.2297 320.27 92.7197 319.7C91.8397 318.71 91.7997 317.54 91.8197 317.07L91.7897 311.2C91.7497 304.06 96.9897 301.09 97.9397 300.61L137.62 276.2C137.73 276.1 138.01 275.8 138.28 275.32C135.73 266.3 133.2 254 130.73 238.72C128.99 237.69 126.59 236.27 125.56 235.63C125.17 235.39 124.85 235.24 124.61 235.15C123.92 235.61 123.12 235.86 122.3 235.86C121.66 235.86 120.75 235.7 119.81 235.04C119.81 235.04 113.32 235.08 113.3 235.08C112.11 235.08 109.23 234.36 108.04 227.69C106.45 215.39 106.68 200.86 106.82 192.18C106.85 190.13 106.88 188.44 106.87 187.24C106.85 184.09 107.47 182.09 108.24 180.83L94.9897 181.65C94.6797 189.24 92.8597 190.27 91.2697 190.27C89.6797 190.27 87.9397 189.29 87.5097 182.11L65.4197 183.48C65.0297 188.27 63.8897 190.42 61.7997 190.42C59.7097 190.42 58.6397 188.39 58.1697 183.9C49.4097 184.32 8.70973 186.26 6.72973 186.27C3.26973 186.27 2.31973 184.02 2.21973 183.76C2.13973 183.54 2.08973 183.3 2.08973 183.06L2.06973 179.97C2.00973 169.05 8.78973 166.02 9.07973 165.9C9.10973 165.89 9.14973 165.87 9.17973 165.86L95.3297 134.41C96.9897 133.62 121.94 121.77 124.29 120.58C125.18 120.13 125.53 119.76 125.65 119.59C125.6 114.95 125.06 58.39 125.26 47.78C125.69 25.88 131.73 2.27997 143.98 2.21997C156.65 2.21997 162.7 28.82 162.96 47.71C163.1 58.3 162.97 114.82 162.96 119.5C163.08 119.66 163.43 120.03 164.32 120.48C166.67 121.65 191.69 133.37 193.35 134.15C193.35 134.15 279.74 165.16 279.77 165.17C280.06 165.29 286.86 168.28 286.86 179.2V182.29C286.86 182.53 286.82 182.77 286.73 182.99C286.63 183.25 285.68 185.52 282.23 185.52C280.24 185.52 239.47 183.79 230.77 183.42C230.33 187.92 229.19 189.96 227.17 189.96C225.15 189.96 223.94 187.81 223.53 183.04L201.43 181.79C201.03 188.98 199.25 189.97 197.7 189.97C196.15 189.97 194.29 188.94 193.95 181.37L180.69 180.62C181.47 181.88 182.09 183.88 182.09 187.03C182.09 188.23 182.13 189.92 182.17 191.97C182.35 200.65 182.66 215.18 181.15 227.39C179.98 234.18 177.09 234.91 175.9 234.91C175.88 234.91 169.4 234.91 169.4 234.91C168.46 235.59 167.55 235.75 166.9 235.75C166.09 235.75 165.3 235.5 164.61 235.05C164.37 235.14 164.06 235.29 163.67 235.54C162.65 236.18 160.26 237.61 158.52 238.66C156.14 253.95 153.67 266.27 151.17 275.3C151.44 275.76 151.72 276.06 151.85 276.18L191.65 300.37C192.61 300.84 197.86 303.78 197.86 310.92V316.79C197.89 317.26 197.85 318.44 196.97 319.43C196.46 320 195.51 320.69 193.86 320.69C193.27 320.69 192.62 320.6 191.91 320.43C188.68 319.64 157.7 313.24 149.67 311.58C148.79 314.7 147.31 317.71 144.82 317.71C142.33 317.71 140.84 314.71 139.95 311.6C131.93 313.3 100.98 319.87 97.7497 320.68C97.0197 320.86 96.3797 320.95 95.7697 320.95H95.8097Z" fill="white"/>
<path d="M144.02 4.24998C154.2 4.24998 160.71 27.21 160.99 47.76C161.14 58.87 160.99 119.82 160.99 119.82C160.99 119.82 160.99 121.05 163.46 122.29C165.93 123.52 192.62 136.02 192.62 136.02L279.03 167.03C279.03 167.03 284.89 169.5 284.89 179.22V182.31C284.89 182.31 284.43 183.54 282.27 183.54C280.11 183.54 229.35 181.38 229.35 181.38L228.96 181.36C228.74 185.78 227.98 187.98 227.21 187.98C226.44 187.98 225.66 185.71 225.45 181.16L199.54 179.69C199.45 185.22 198.59 187.98 197.74 187.98C196.89 187.98 196 185.15 195.93 179.49L163.92 177.68C163.92 177.68 163.76 179.48 163.46 182.63C163.91 181.58 164.81 180.46 166.66 180.46H177.56C177.56 180.46 180.13 180.87 180.13 187.04C180.13 193.21 181.06 212.14 179.2 227.16C178.24 232.74 176.2 232.92 175.94 232.92C175.92 232.92 175.91 232.92 175.91 232.92H168.71C168.11 233.52 167.5 233.76 166.93 233.76C166.24 233.76 165.63 233.4 165.21 232.92C165.21 232.92 165.18 232.92 165.13 232.92C164.88 232.92 164.01 232.99 162.63 233.85C161.45 234.59 158.35 236.44 156.71 237.43C154.56 251.37 151.99 265.14 149.07 275.49C149.69 277.03 150.69 277.8 150.69 277.8L190.72 302.13C190.72 302.13 195.89 304.44 195.89 310.93V316.87C195.89 316.87 196.11 318.69 193.89 318.69C193.49 318.69 193 318.63 192.42 318.49C188.64 317.56 148.21 309.23 148.21 309.23C148.21 309.23 146.85 315.71 144.85 315.71C144.85 313.75 144.05 18.59 144.01 4.75998C144.05 18.59 144.84 313.75 144.85 315.71C142.85 315.71 141.46 309.25 141.46 309.25C141.46 309.25 101.08 317.8 97.3002 318.75C96.7102 318.9 96.2202 318.96 95.8102 318.96C93.6102 318.96 93.8202 317.15 93.8202 317.15C93.8202 317.07 93.8202 316.35 93.7902 311.21C93.7502 304.73 98.9102 302.39 98.9102 302.39L138.81 277.85C138.81 277.85 139.81 277.07 140.42 275.53C137.44 265.2 134.8 251.44 132.57 237.51C130.92 236.53 127.82 234.7 126.63 233.96C125.27 233.12 124.4 233.04 124.14 233.04C124.08 233.04 124.06 233.04 124.06 233.04C123.64 233.52 123.03 233.89 122.33 233.89C121.77 233.89 121.16 233.66 120.56 233.06L113.36 233.1C113.36 233.1 113.35 233.1 113.33 233.1C113.06 233.1 111.03 232.91 110.04 227.36C108.11 212.35 108.93 193.42 108.9 187.25C108.87 181.08 111.44 180.65 111.44 180.65C111.44 180.65 118.85 180.61 122.34 180.59H122.36C124.19 180.59 125.1 181.7 125.55 182.74C125.23 179.6 125.06 177.8 125.06 177.8L93.0602 179.78C93.0202 185.45 92.1702 188.28 91.3002 188.28C90.4302 188.28 89.5702 185.52 89.4502 180L63.5502 181.61C63.3702 186.16 62.6002 188.44 61.8302 188.44C61.0602 188.44 60.2902 186.24 60.0502 181.83L59.6702 181.85C59.6702 181.85 8.9202 184.28 6.7602 184.3C6.7502 184.3 6.7402 184.3 6.7302 184.3C4.6002 184.3 4.1302 183.08 4.1302 183.08C4.1302 183.08 4.1302 182.15 4.1102 179.99C4.0602 170.27 9.9102 167.77 9.9102 167.77L96.1502 136.29C96.1502 136.29 122.78 123.65 125.24 122.4C127.7 121.15 127.7 119.92 127.7 119.92C127.7 119.92 127.09 58.97 127.31 47.86C127.74 26.22 133.86 4.30998 144.05 4.25998M144.02 0.24998C144.02 0.24998 144.01 0.24998 144 0.24998C139.4 0.26998 132.93 3.13998 128.22 16.64C125.31 24.97 123.51 36.32 123.29 47.78C123.09 58.07 123.58 109.68 123.67 118.69C123.6 118.73 123.51 118.78 123.42 118.83C121.52 119.79 103.83 128.21 94.5902 132.59L8.5302 164.01C8.4602 164.03 8.4002 164.06 8.3302 164.09C5.2402 165.4 0.0402017 170.23 0.0902017 180L0.110202 183.09C0.110202 183.57 0.200202 184.05 0.370202 184.49C1.0402 186.24 3.1002 188.29 6.7102 188.29C6.7102 188.29 6.7502 188.29 6.7602 188.29C8.6802 188.28 44.4402 186.58 56.4402 186C56.9802 189.11 58.3102 192.43 61.8202 192.43C65.5602 192.43 66.8102 188.69 67.2602 185.38L85.6602 184.24C86.0702 188.08 87.3002 192.28 91.2802 192.28C95.4602 192.28 96.5902 187.54 96.9102 183.54L105.29 183.02C105.02 184.2 104.87 185.6 104.88 187.26C104.88 188.43 104.86 190.16 104.83 192.16C104.69 200.89 104.47 215.51 106.06 227.86C106.06 227.92 106.08 227.99 106.09 228.05C107.54 236.21 111.63 237.09 113.32 237.09C113.35 237.09 113.39 237.09 113.42 237.09L119.26 237.06C120.41 237.71 121.5 237.88 122.32 237.88C123.14 237.88 123.9 237.72 124.64 237.42C125.56 237.99 127.36 239.06 128.92 239.98C131.25 254.32 133.65 266.02 136.07 274.82L97.0002 298.86C94.1902 300.26 89.7602 304.28 89.8002 311.22L89.8302 316.53V317.04C89.8002 317.87 89.9302 319.57 91.2402 321.04C92.0202 321.91 93.4502 322.95 95.8202 322.95C96.5902 322.95 97.4002 322.84 98.2802 322.62C100.97 321.95 124.1 317.02 138.65 313.93C140.09 317.77 142.17 319.71 144.86 319.71C147.56 319.71 149.64 317.76 151.06 313.9C165.63 316.91 188.78 321.71 191.47 322.37C192.34 322.58 193.13 322.69 193.89 322.69C196.29 322.69 197.72 321.64 198.5 320.76C199.81 319.28 199.93 317.58 199.89 316.74V310.92C199.89 303.98 195.44 299.98 192.62 298.6L153.42 274.77C155.79 265.96 158.13 254.25 160.38 239.89C161.93 238.96 163.72 237.88 164.65 237.31C165.37 237.6 166.15 237.76 166.94 237.76C167.77 237.76 168.87 237.59 170.03 236.92H175.86C175.86 236.92 175.91 236.92 175.94 236.92C177.64 236.92 181.73 236.04 183.15 227.84C183.16 227.78 183.17 227.71 183.18 227.65C184.7 215.29 184.4 200.68 184.21 191.94C184.17 189.94 184.13 188.21 184.13 187.04C184.13 185.38 183.97 183.98 183.69 182.81L192.1 183.29C192.22 184.62 192.4 185.79 192.63 186.79C193.7 191.32 196.28 191.99 197.72 191.99C201.68 191.99 202.91 187.72 203.31 183.92L221.73 184.96C222.2 188.27 223.46 191.98 227.19 191.98C230.72 191.98 232.03 188.65 232.56 185.52C244.56 186.03 280.32 187.54 282.25 187.54C285.89 187.54 287.96 185.48 288.62 183.71C288.79 183.26 288.87 182.79 288.87 182.31V179.22C288.87 169.45 283.65 164.64 280.56 163.34C280.49 163.31 280.43 163.29 280.36 163.26L194.13 132.31C184.86 127.97 167.13 119.65 165.23 118.7C165.13 118.65 165.05 118.61 164.98 118.56C165 109.82 165.12 57.82 164.98 47.69C164.83 36.73 163.01 25.52 159.98 16.95C155.1 3.12998 148.6 0.22998 144.01 0.22998L144.02 0.24998Z" fill="#231F20"/>
</g>
<defs>
<clipPath id="clip0_530_7">
<rect width="288.8" height="322.7" fill="white" transform="translate(0.0898438 0.25)"/>
</clipPath>
</defs>
</svg>
