<svg width="268" height="272" viewBox="0 0 268 272" fill="none" xmlns="http://www.w3.org/2000/svg">
<g clip-path="url(#clip0_290_7)">
<path d="M182.65 269.79C181.26 269.79 179.53 269.26 177.36 268.17C172.14 265.56 148.12 255.15 140.49 251.85L139.17 259.52C138.92 261.06 137.53 263.99 134.11 263.99C130.69 263.99 129.3 261.06 129.04 259.51L127.72 251.85C120.09 255.15 96.0701 265.56 90.8501 268.17C88.6801 269.26 86.9501 269.79 85.5601 269.79C84.0801 269.79 83.2001 269.19 82.7201 268.68C82.0301 267.95 81.8001 267.01 81.8201 266.35V258.84C81.8201 257.84 81.9501 256.8 82.2101 255.74C83.0001 252.53 85.0101 249.56 87.8501 247.39L115.53 226.24L115.09 225H109.09C108.24 225 106.6 224.51 105.15 221.22C100.63 210.34 100.51 179.23 100.51 178.92C100.51 173.66 103.8 171.8 106.62 171.8C106.9 171.8 107.13 171.82 107.29 171.84H114.67C113.97 168.41 113.63 165.46 113.46 163.61L100.45 164.55C92.1701 165.15 83.8701 166.36 75.7701 168.16L68.5601 169.76C67.7501 172.4 66.6301 174.61 64.4901 174.61C62.7701 174.61 61.7201 173.17 60.9601 171.38C52.8501 173.74 20.0101 183.3 15.5501 184.78C12.2901 185.86 10.3501 189.35 9.07012 191.66C8.11012 193.39 7.41012 194.64 5.90012 194.64C3.64012 194.64 3.35012 192.09 3.13012 190.23L2.49012 183.38C2.43012 182.86 1.08012 169.67 13.0301 162.69C13.0901 162.65 13.1601 162.62 13.2201 162.59C62.6001 140.54 108.08 109.74 114.81 105.12V54.0499C114.81 48.4099 115.28 43.0199 116.21 38.0499C119.37 21.0899 126.32 2.84985 134.12 2.84985C141.92 2.84985 148.87 21.0999 152.03 38.0599C152.96 43.0299 153.43 48.4199 153.43 54.0599V105.13C160.16 109.76 205.65 140.56 255.02 162.6C255.09 162.63 255.15 162.66 255.21 162.7C267.17 169.68 265.81 182.87 265.75 183.43L265.12 190.2C264.9 192.1 264.61 194.65 262.35 194.66C260.83 194.66 260.14 193.41 259.18 191.68C257.9 189.37 255.96 185.88 252.7 184.8C248.23 183.32 215.4 173.76 207.29 171.4C206.54 173.18 205.48 174.63 203.76 174.63C201.62 174.63 200.5 172.42 199.69 169.78L192.48 168.18C184.38 166.38 176.08 165.16 167.8 164.57L154.78 163.63C154.62 165.48 154.27 168.43 153.57 171.86H160.95C161.11 171.84 161.34 171.82 161.62 171.82C164.44 171.82 167.73 173.69 167.73 178.94C167.73 179.25 167.6 210.36 163.1 221.2C161.63 224.53 159.99 225.02 159.15 225.02H153.15L152.71 226.26L180.39 247.41C183.23 249.58 185.24 252.55 186.03 255.76C186.29 256.82 186.43 257.86 186.43 258.86V266.37C186.45 267.03 186.22 267.97 185.53 268.7C185.05 269.2 184.17 269.81 182.69 269.81L182.65 269.79Z" fill="white"/>
<path d="M134.1 4.83984C139.25 4.83984 146.3 18.3398 150.04 38.4098C151 43.5598 151.4 48.8098 151.4 54.0498V106.17C151.4 106.17 200.13 140.3 254.17 164.42C265.14 170.82 263.73 183.19 263.73 183.19L263.09 190C262.87 191.9 262.64 192.64 262.31 192.64C261.25 192.64 259.17 184.83 253.29 182.88C248.12 181.16 206 168.93 206 168.93C205.22 171.39 204.46 172.6 203.72 172.6C202.88 172.6 202.05 171.06 201.24 168.05L192.86 166.19C184.64 164.36 176.29 163.14 167.89 162.53L152.87 161.45C152.87 161.45 152.66 167.06 151.03 173.82H161.03C161.03 173.82 161.24 173.78 161.57 173.78C162.79 173.78 165.68 174.27 165.68 178.9C165.68 184.78 165.07 211.1 161.21 220.4C160.07 222.99 159.1 222.99 159.1 222.99H151.69L150.29 226.94L179.12 248.97C181.5 250.79 183.31 253.3 184.03 256.21C184.24 257.04 184.37 257.93 184.37 258.83V266.37C184.37 266.37 184.45 267.77 182.63 267.77C181.72 267.77 180.34 267.42 178.23 266.37C171.91 263.21 138.93 249 138.93 249L137.18 259.18C137.18 259.18 136.72 261.99 134.09 261.99C131.46 261.99 131 259.18 131 259.18L129.25 249C129.25 249 96.26 263.21 89.95 266.37C87.84 267.42 86.46 267.77 85.55 267.77C83.73 267.77 83.81 266.37 83.81 266.37V258.83C83.81 257.93 83.94 257.04 84.15 256.21C84.87 253.3 86.68 250.79 89.06 248.97L117.89 226.94L116.49 222.99H109.08C109.08 222.99 108.11 222.99 106.97 220.4C103.11 211.1 102.5 184.78 102.5 178.9C102.5 174.27 105.39 173.78 106.61 173.78C106.94 173.78 107.15 173.82 107.15 173.82H117.15C115.52 167.06 115.31 161.45 115.31 161.45L100.29 162.53C91.89 163.14 83.54 164.36 75.32 166.19L66.94 168.05C66.13 171.06 65.31 172.6 64.46 172.6C63.71 172.6 62.95 171.39 62.18 168.93C62.18 168.93 20.06 181.16 14.89 182.88C9.00997 184.83 6.92997 192.64 5.86997 192.64C5.53997 192.64 5.30997 191.89 5.08997 190L4.44997 183.19C4.44997 183.19 3.04997 170.82 14.01 164.42C68.05 140.29 116.78 106.17 116.78 106.17V54.0498C116.78 48.8098 117.18 43.5698 118.14 38.4098C121.88 18.3398 128.93 4.83984 134.08 4.83984M134.1 0.839844C124.5 0.839844 117.39 20.6798 114.23 37.6798C113.28 42.7798 112.8 48.2798 112.8 54.0498V104.07C103.73 110.26 59.85 139.59 12.39 160.77C12.26 160.83 12.13 160.9 12 160.97C-0.79003 168.44 0.35997 182.44 0.47997 183.59L1.10997 190.38C1.10997 190.38 1.10997 190.44 1.10997 190.46C1.31997 192.31 1.81997 196.65 5.85997 196.65C8.54997 196.65 9.73997 194.52 10.78 192.64C11.91 190.6 13.62 187.52 16.14 186.69C20.33 185.3 49.78 176.72 59.89 173.77C60.83 175.29 62.26 176.61 64.45 176.61C67.62 176.61 69.2 173.88 70.07 171.46L76.17 170.11C84.18 168.33 92.38 167.13 100.56 166.54L111.64 165.74C111.78 166.92 111.97 168.31 112.23 169.84H107.36C107.15 169.82 106.89 169.8 106.59 169.8C102.55 169.8 98.48 172.62 98.48 178.92C98.48 179.24 98.61 210.75 103.26 221.95C103.27 221.98 103.28 222 103.29 222.03C105.2 226.36 107.72 227.01 109.06 227.01H111.22L86.61 245.81C83.41 248.26 81.15 251.62 80.24 255.27C79.94 256.49 79.79 257.69 79.79 258.85V266.39C79.79 267.1 79.95 268.7 81.24 270.06C81.99 270.85 83.34 271.79 85.53 271.79C87.26 271.79 89.23 271.21 91.72 269.96C96.45 267.6 116.85 258.73 126.16 254.7L127.05 259.87C127.53 262.8 129.94 266 134.08 266C138.22 266 140.63 262.81 141.12 259.84L142.01 254.7C151.32 258.73 171.72 267.6 176.45 269.96C178.94 271.21 180.91 271.79 182.64 271.79C184.83 271.79 186.18 270.85 186.93 270.06C188.22 268.69 188.38 267.09 188.38 266.39V258.85C188.38 257.69 188.23 256.49 187.93 255.27C187.03 251.62 184.77 248.26 181.56 245.81L156.95 227.01H159.11C160.44 227.01 162.97 226.36 164.88 222.04C164.89 222.01 164.9 221.99 164.91 221.96C169.56 210.76 169.69 179.25 169.69 178.93C169.69 172.63 165.62 169.81 161.58 169.81C161.28 169.81 161.02 169.83 160.81 169.85H155.94C156.2 168.32 156.39 166.94 156.53 165.75L167.61 166.55C175.79 167.14 184 168.34 192 170.12L198.1 171.47C198.97 173.89 200.55 176.62 203.72 176.62C205.91 176.62 207.34 175.3 208.28 173.78C218.39 176.72 247.84 185.31 252.03 186.7C254.55 187.54 256.26 190.61 257.39 192.65C258.43 194.53 259.62 196.66 262.31 196.66C266.35 196.66 266.85 192.33 267.06 190.47C267.06 190.44 267.06 190.41 267.06 190.39L267.69 183.6C267.81 182.45 268.96 168.45 256.16 160.98C256.03 160.91 255.91 160.84 255.77 160.78C208.31 139.59 164.43 110.27 155.36 104.08V54.0598C155.36 48.2898 154.88 42.7898 153.93 37.6898C150.76 20.6998 143.66 0.849844 134.06 0.849844L134.1 0.839844Z" fill="black"/>
</g>
<defs>
<clipPath id="clip0_290_7">
<rect width="267.4" height="270.95" fill="white" transform="translate(0.400391 0.839844)"/>
</clipPath>
</defs>
</svg>
