<svg width="89" height="70" viewBox="0 0 89 70" fill="none" xmlns="http://www.w3.org/2000/svg">
<g clip-path="url(#clip0_698_13)">
<path d="M44.5 68.41C43.75 68.41 43.15 67.79 43.11 66.97V65.48H33.41C32.6 65.48 32.08 64.88 31.98 64.28C31.98 64.24 31.97 64.19 31.97 64.14C31.97 64.06 31.92 62.17 32.09 59.79C32.31 56.66 34.1 56.45 34.3 56.43H42.62C42.74 50.24 42.22 41.14 39.24 31.49L39.18 31.28C39.11 31.06 39.04 30.85 38.96 30.63C38.81 30.22 38.7 29.89 38.64 29.61H3.4L3.38 29.9C3.38 29.99 3.35 30.08 3.32 30.17C3.02 30.96 2.53 31.13 2.17 31.13C1.74 31.13 1.18 30.84 1.03 30.03C1.01 29.95 1.01 29.87 1.02 29.78C1.09 28.71 1.72 19.26 1.98 17.81C2.28 16.19 3.28 15.62 4.05 15.62H37.95V15.24C37.95 14.55 38.11 13.54 38.42 12.22C38.57 11.6 38.75 10.98 38.97 10.36C39.07 10.09 39.18 9.75 39.31 9.39C39.87 7.76 40.33 6.46 40.67 5.89C40.77 5.72 40.87 5.57 40.98 5.42C39.08 5.41 36.69 5.33 36.66 5.33C35.94 5.33 35.35 4.79 35.35 4.1C35.35 3.41 35.94 2.86 36.69 2.86L42.5 2.59C42.99 1.78 43.67 1 44.52 1C45.37 1 46.05 1.78 46.54 2.59L52.4 2.87C53.11 2.87 53.69 3.41 53.69 4.1C53.69 4.79 53.1 5.34 52.35 5.34C52.35 5.34 49.96 5.42 48.06 5.43C48.17 5.58 48.28 5.73 48.37 5.9C48.71 6.47 49.16 7.77 49.73 9.4C49.86 9.76 49.97 10.1 50.07 10.37C50.29 10.98 50.47 11.6 50.62 12.23C50.93 13.55 51.09 14.56 51.09 15.25V15.63H84.97C85.75 15.63 86.75 16.2 87.05 17.82C87.31 19.26 87.94 28.71 88.01 29.79C88.01 29.87 88.01 29.96 88 30.04C87.85 30.85 87.29 31.14 86.86 31.14C86.5 31.14 86.01 30.97 85.71 30.18C85.68 30.09 85.66 30 85.65 29.91L85.62 29.62H50.4C50.33 29.91 50.23 30.25 50.08 30.65C50 30.86 49.93 31.08 49.86 31.3L49.8 31.5C46.81 41.17 46.29 50.28 46.42 56.44H54.66C54.94 56.46 56.73 56.68 56.95 59.8C57.12 62.17 57.07 64.07 57.07 64.15C57.07 64.2 57.07 64.24 57.06 64.29C56.96 64.89 56.44 65.49 55.63 65.49H45.93V66.93C45.9 67.69 45.41 68.42 44.54 68.42L44.5 68.41Z" fill="white"/>
<path d="M44.5 2C45.12 2 45.91 3.57 45.91 3.57L52.33 3.87C52.79 3.87 52.79 4.34 52.33 4.34C52.33 4.34 49.53 4.43 47.58 4.43C46.82 4.43 46.19 4.42 45.91 4.38V4.72C45.91 4.83 45.97 4.92 46.06 4.97C46.38 5.15 47.07 5.67 47.49 6.4C47.9 7.09 48.68 9.5 49.11 10.71C49.32 11.28 49.49 11.87 49.63 12.46C49.83 13.3 50.07 14.49 50.07 15.25V16.32C50.07 16.49 50.21 16.63 50.38 16.63H84.95C84.95 16.63 84.95 16.63 84.96 16.63C85.07 16.63 85.8 16.68 86.04 18C86.3 19.43 86.99 29.85 86.99 29.85C86.99 29.85 86.94 30.13 86.83 30.13C86.77 30.13 86.7 30.05 86.61 29.82L86.51 28.61H50.08C49.76 28.61 49.48 28.85 49.43 29.17C49.38 29.49 49.25 29.9 49.1 30.29C49.01 30.52 48.93 30.76 48.86 30.99C48.22 33.09 44.99 43.08 45.39 57.13C45.39 57.13 45.39 57.43 45.51 57.43H54.61C54.61 57.43 55.73 57.51 55.9 59.86C56.07 62.21 56.01 64.11 56.01 64.11C56.01 64.11 55.95 64.48 55.57 64.48H45.11C44.97 64.48 44.86 64.59 44.86 64.73V66.93C44.86 66.93 44.84 67.42 44.47 67.42C44.1 67.42 44.08 66.93 44.08 66.93V64.73C44.08 64.59 43.97 64.48 43.83 64.48H33.37C32.99 64.48 32.93 64.11 32.93 64.11C32.93 64.11 32.88 62.21 33.04 59.86C33.21 57.51 34.33 57.43 34.33 57.43H43.43C43.56 57.43 43.55 57.13 43.55 57.13C43.95 43.08 40.72 33.09 40.08 30.99C40.01 30.75 39.93 30.52 39.84 30.29C39.7 29.91 39.56 29.49 39.51 29.17C39.46 28.85 39.19 28.61 38.86 28.61H2.48003L2.38003 29.82C2.29003 30.05 2.22003 30.13 2.16003 30.13C2.05003 30.13 2.00003 29.85 2.00003 29.85C2.00003 29.85 2.69003 19.43 2.95003 18C3.19003 16.68 3.92003 16.63 4.03003 16.63H4.04003H38.61C38.78 16.63 38.92 16.49 38.92 16.32V15.25C38.92 14.49 39.16 13.3 39.36 12.46C39.5 11.87 39.67 11.28 39.88 10.71C40.31 9.5 41.09 7.1 41.5 6.4C41.93 5.67 42.61 5.14 42.93 4.97C43.02 4.92 43.08 4.82 43.08 4.72V4.38C42.8 4.42 42.17 4.43 41.41 4.43C39.46 4.43 36.66 4.34 36.66 4.34C36.2 4.34 36.2 3.87 36.66 3.87L43.08 3.57C43.08 3.57 43.87 2 44.49 2M44.5 0C43.54 0 42.68 0.54 41.92 1.62L36.6 1.87C35.32 1.9 34.32 2.87 34.32 4.1C34.32 5.33 35.33 6.31 36.62 6.33C36.81 6.33 37.98 6.37 39.3 6.4C39.02 7.09 38.71 7.99 38.33 9.07C38.21 9.43 38.09 9.76 37.99 10.03C37.76 10.68 37.56 11.34 37.41 12C37.16 13.05 37.01 13.93 36.95 14.63H4.07003C4.07003 14.63 4.05003 14.63 4.03003 14.63C2.79003 14.63 1.36003 15.56 0.980027 17.64C0.710027 19.11 0.120027 27.96 2.68554e-05 29.72C-0.00997314 29.89 2.68538e-05 30.05 0.0300269 30.21C0.270027 31.53 1.27003 32.13 2.16003 32.13C2.60003 32.13 3.66003 31.98 4.21003 30.61H37.87C37.91 30.73 37.96 30.85 38 30.99C38.07 31.19 38.14 31.38 38.2 31.58L38.26 31.79C41.05 40.83 41.66 49.39 41.61 55.43H34.35C34.35 55.43 34.25 55.43 34.21 55.43C33.92 55.45 31.35 55.75 31.07 59.72C30.9 62.14 30.95 64.08 30.95 64.17C30.95 64.26 30.96 64.35 30.98 64.44C31.15 65.45 32.03 66.48 33.4 66.48H42.1V66.92C42.1 66.92 42.1 66.98 42.1 67.01C42.16 68.38 43.19 69.41 44.49 69.41C45.79 69.41 46.81 68.38 46.88 67.01C46.88 66.98 46.88 66.95 46.88 66.92V66.48H55.58C56.94 66.48 57.83 65.46 58 64.44C58.02 64.35 58.02 64.26 58.03 64.17C58.03 64.09 58.08 62.15 57.91 59.73C57.63 55.76 55.06 55.46 54.77 55.44C54.72 55.44 54.67 55.44 54.63 55.44H47.37C47.32 49.4 47.93 40.84 50.72 31.8L50.78 31.59C50.84 31.39 50.91 31.19 50.98 31C51.03 30.87 51.07 30.74 51.11 30.63H84.77C85.33 32 86.39 32.15 86.82 32.15C87.7 32.15 88.7 31.56 88.95 30.23C88.98 30.07 88.99 29.9 88.98 29.74C88.86 27.98 88.27 19.13 88.01 17.66C87.63 15.58 86.2 14.65 84.96 14.65C84.95 14.65 84.94 14.65 84.92 14.65H52.03C51.97 13.95 51.81 13.07 51.57 12.02C51.42 11.36 51.22 10.7 50.99 10.05C50.89 9.78 50.78 9.44 50.65 9.08C50.28 8 49.96 7.1 49.68 6.42C51 6.4 52.17 6.36 52.36 6.35C53.65 6.33 54.66 5.36 54.66 4.12C54.66 2.88 53.66 1.92 52.38 1.89L47.07 1.64C46.45 0.78 45.53 0.02 44.49 0.02L44.5 0Z" fill="black"/>
</g>
<defs>
<clipPath id="clip0_698_13">
<rect width="89" height="69.41" fill="white"/>
</clipPath>
</defs>
</svg>
