<svg width="102" height="68" viewBox="0 0 102 68" fill="none" xmlns="http://www.w3.org/2000/svg">
<g clip-path="url(#clip0_681_12)">
<path d="M50.8 66.41C50.46 66.41 50.15 66.28 49.92 66.04C49.58 65.68 49.59 65.24 49.59 65.11C49.31 64.91 49.12 64.58 49.1 64.19C49.1 64.14 49.09 64.07 49.08 63.99C48.99 64.01 48.91 64.02 48.83 64.02C48.81 64.02 48.73 64.02 48.7 64.02C48.62 64.02 40.69 63.39 39.68 63.33C39.6 63.33 39.53 63.31 39.45 63.29C37.81 62.8 37.18 61.16 37.12 60.97C37.08 60.86 37.06 60.75 37.06 60.64V57.1C37.06 55.74 38.3 55.06 39.03 54.87L48.41 52.66L45.21 36.42C45.21 36.42 45.12 36.42 45.07 36.42H7.46001C6.82001 36.42 6.31001 35.9 6.31001 35.27V34.5H2.95001C2.66001 34.89 2.23001 34.92 2.11001 34.92C1.93001 34.92 1.01001 34.85 1.01001 33.5V20.25C1.01001 19.61 1.53001 19.08 2.17001 19.08L37.83 18.98C37.93 16.15 39.25 14.88 40.56 14.88C41.77 14.88 43.07 16.03 43.34 18.51H44.62V18.15C44.78 13.57 46.14 7.73 46.5 6.42C46.55 6.24 46.61 6.07 46.67 5.92C44.45 5.87 42.23 5.73 41.74 5.68C40.49 5.49 40.42 4.63 40.42 4.45C40.42 3.97 40.74 3.36 41.68 3.2C43.07 3.02 44.58 2.94 46.21 2.94C47.31 2.94 48.27 2.98 48.94 3.03C49.11 2.7 49.36 2.25 49.72 1.63C49.95 1.24 50.38 1 50.83 1C51.28 1 51.71 1.24 51.94 1.63C52.31 2.25 52.55 2.7 52.72 3.03C53.39 2.98 54.35 2.94 55.45 2.94C57.08 2.94 58.59 3.03 59.94 3.2C60.91 3.36 61.24 3.98 61.24 4.46C61.24 4.63 61.17 5.5 59.97 5.68C59.43 5.73 57.21 5.88 54.99 5.93C55.05 6.08 55.11 6.25 55.16 6.43C55.51 7.74 56.87 13.57 57.04 18.12V18.51H58.32C58.59 16.03 59.89 14.88 61.1 14.88C62.41 14.88 63.73 16.15 63.83 18.98L99.48 19.08C100.13 19.08 100.65 19.61 100.65 20.25V33.5C100.65 34.85 99.73 34.92 99.55 34.92C99.43 34.92 99 34.89 98.71 34.5H95.35V35.27C95.35 35.91 94.83 36.42 94.2 36.42H56.57C56.57 36.42 56.47 36.42 56.43 36.42L53.23 52.66L62.59 54.86C63.34 55.05 64.58 55.74 64.58 57.09V60.63C64.58 60.74 64.56 60.86 64.52 60.96C64.45 61.15 63.83 62.79 62.19 63.28C62.12 63.3 62.04 63.32 61.96 63.32C60.96 63.38 53.02 64 52.95 64.01C52.92 64.01 52.84 64.01 52.82 64.01C52.74 64.01 52.66 64 52.57 63.98C52.57 64.06 52.55 64.13 52.55 64.18C52.53 64.56 52.34 64.89 52.06 65.09V65.16C52.06 65.23 52.06 65.67 51.73 66.02C51.5 66.26 51.19 66.39 50.85 66.39L50.8 66.41Z" fill="white"/>
<path d="M50.8 2C50.9 2 50.99 2.05 51.05 2.14C51.41 2.76 52.05 3.87 52.05 4.1C52.29 4.05 53.64 3.94 55.42 3.94C56.74 3.94 58.29 4 59.78 4.19C60.31 4.28 60.37 4.6 59.78 4.68C59.27 4.73 56.13 4.93 53.47 4.93C53.07 4.93 52.68 4.93 52.32 4.92V5.06L53.19 5.29C53.19 5.29 53.83 5.48 54.15 6.68C54.47 7.88 55.83 13.7 55.99 18.15V19.38C55.99 19.45 56.05 19.5 56.11 19.5H59.21C59.21 17.11 60.14 15.88 61.05 15.88C61.92 15.88 62.78 17.02 62.78 19.33V19.98L99.42 20.09C99.51 20.09 99.59 20.17 99.59 20.26V33.5C99.59 33.78 99.54 33.92 99.49 33.92C99.44 33.92 99.39 33.78 99.39 33.5H94.29V35.27C94.29 35.36 94.22 35.43 94.13 35.43H56.5C56.41 35.43 56.34 35.36 56.34 35.27V33.51H56.01C55.95 33.51 55.9 33.55 55.89 33.61L51.99 53.41L62.29 55.83C62.29 55.83 63.51 56.14 63.51 57.09V60.63C63.51 60.63 63.04 61.97 61.84 62.32C60.82 62.38 52.8 63.01 52.8 63.01C52.8 63.01 52.04 62.97 51.84 61.97C51.63 60.97 51.23 58.99 51.23 58.99L51.13 61.84C51.13 61.84 51.63 61.88 51.63 62.3C51.63 62.72 51.48 64.12 51.48 64.12C51.48 64.12 51.48 64.31 51.33 64.31H50.99V65.17C50.99 65.17 51 65.41 50.78 65.41C50.56 65.41 50.57 65.17 50.57 65.17V64.31H50.23C50.08 64.31 50.08 64.12 50.08 64.12C50.08 64.12 49.93 62.72 49.93 62.3C49.93 61.88 50.43 61.84 50.43 61.84L50.33 58.99C50.33 58.99 49.93 60.97 49.72 61.97C49.51 62.97 48.76 63.01 48.76 63.01C48.76 63.01 40.75 62.38 39.72 62.32C38.52 61.97 38.05 60.63 38.05 60.63V57.09C38.05 56.14 39.27 55.83 39.27 55.83L49.57 53.41L45.67 33.61C45.66 33.55 45.61 33.51 45.55 33.51H45.22V35.27C45.22 35.36 45.15 35.43 45.06 35.43H7.45999C7.36999 35.43 7.29999 35.36 7.29999 35.27V33.5H2.20999C2.20999 33.78 2.15999 33.92 2.10999 33.92C2.05999 33.92 2.00999 33.78 2.00999 33.5V20.26C2.00999 20.16 2.08999 20.09 2.17999 20.09L38.82 19.98V19.33C38.82 17.01 39.68 15.88 40.55 15.88C41.46 15.88 42.39 17.11 42.39 19.52H45.49C45.56 19.51 45.61 19.45 45.61 19.38V18.15C45.77 13.7 47.13 7.88 47.45 6.68C47.77 5.48 48.41 5.29 48.41 5.29L49.28 5.06V4.92C48.91 4.93 48.53 4.93 48.13 4.93C45.47 4.93 42.33 4.73 41.82 4.68C41.23 4.59 41.29 4.27 41.82 4.19C43.32 4 44.87 3.94 46.18 3.94C47.96 3.94 49.32 4.05 49.55 4.1C49.55 3.87 50.19 2.76 50.55 2.14C50.61 2.05 50.7 2 50.8 2ZM50.8 0C50 0 49.24 0.43 48.83 1.12C48.64 1.45 48.47 1.74 48.33 1.99C47.68 1.96 46.92 1.94 46.18 1.94C44.51 1.94 42.96 2.03 41.57 2.2C41.54 2.2 41.52 2.2 41.49 2.21C40.03 2.45 39.39 3.51 39.4 4.46C39.4 5.4 40.07 6.44 41.52 6.66C41.55 6.66 41.58 6.66 41.62 6.67C42.02 6.71 43.57 6.81 45.34 6.88C44.91 8.67 44.07 12.57 43.74 16.19C43 14.62 41.75 13.88 40.55 13.88C39.36 13.88 38.29 14.56 37.61 15.75C37.26 16.38 37.02 17.12 36.9 17.98L2.15999 18.08C0.96999 18.08 -0.0100098 19.06 -0.0100098 20.25V33.49C-0.0100098 35.41 1.36999 35.91 2.08999 35.91C2.42999 35.91 2.90999 35.8 3.32999 35.49H5.30999C5.41999 36.57 6.33999 37.42 7.44999 37.42H44.4L47.25 51.9L38.83 53.88C37.43 54.24 36.07 55.36 36.07 57.09V60.63C36.07 60.86 36.11 61.08 36.18 61.3C36.26 61.54 37.05 63.62 39.17 64.25C39.32 64.29 39.47 64.32 39.62 64.33C40.49 64.38 46.7 64.87 48.26 64.99C48.35 65.2 48.47 65.4 48.61 65.56C48.68 65.99 48.88 66.39 49.18 66.71C49.6 67.15 50.17 67.4 50.79 67.4C51.41 67.4 51.98 67.16 52.4 66.71C52.7 66.39 52.9 65.99 52.97 65.56C53.11 65.39 53.23 65.2 53.32 64.99C54.88 64.87 61.09 64.38 61.96 64.33C62.11 64.33 62.26 64.29 62.41 64.25C64.53 63.62 65.32 61.54 65.4 61.3C65.48 61.09 65.51 60.86 65.51 60.63V57.09C65.51 55.37 64.14 54.24 62.79 53.89L54.33 51.9L57.18 37.42H94.13C95.24 37.42 96.16 36.57 96.27 35.49H98.25C98.67 35.8 99.15 35.91 99.49 35.91C100.22 35.91 101.59 35.4 101.59 33.49V20.25C101.59 19.06 100.62 18.08 99.42 18.08L64.68 17.98C64.29 15.16 62.66 13.87 61.04 13.87C59.83 13.87 58.74 14.57 58.04 15.8C57.97 15.92 57.91 16.04 57.85 16.17C57.52 12.56 56.68 8.66 56.25 6.88C58.02 6.82 59.56 6.71 59.97 6.67C60 6.67 60.03 6.67 60.07 6.66C61.53 6.44 62.19 5.4 62.19 4.46C62.19 3.52 61.55 2.46 60.1 2.21C60.07 2.21 60.05 2.21 60.02 2.2C58.63 2.02 57.08 1.94 55.41 1.94C54.67 1.94 53.91 1.96 53.26 1.99C53.12 1.74 52.95 1.45 52.76 1.12C52.35 0.43 51.6 0 50.79 0L50.8 0Z" fill="black"/>
</g>
<defs>
<clipPath id="clip0_681_12">
<rect width="101.6" height="67.41" fill="white"/>
</clipPath>
</defs>
</svg>
