<svg width="319" height="337" viewBox="0 0 319 337" fill="none" xmlns="http://www.w3.org/2000/svg">
<g clip-path="url(#clip0_728_32)">
<path d="M211.059 334.82C210.269 334.82 209.419 334.6 208.529 334.17C206.089 332.99 177.599 322.19 162.449 316.49V322.37C162.339 324.58 161.239 326.71 159.009 326.71C156.779 326.71 155.669 324.58 155.569 322.47V316.49C140.419 322.2 111.919 333 109.489 334.17C108.599 334.6 107.749 334.82 106.959 334.82C104.619 334.82 103.259 333 102.979 331.31C102.959 331.2 102.949 331.1 102.949 330.99V320.56C102.949 317.83 106.319 314.52 107.759 313.22C107.819 313.16 107.889 313.11 107.959 313.06L151.149 283.24C151.379 283.08 151.479 282.81 151.419 282.54L150.239 277.58H143.359C141.599 277.58 140.539 276.86 139.959 276.25C138.739 274.98 138.749 273.36 138.759 273.04V271.03H135.009C132.489 271.03 130.209 269.63 129.079 267.37C129.039 267.29 129.009 267.22 128.979 267.14C126.839 261.1 125.479 251.57 124.709 244.63C124.349 241.35 124.159 237.99 124.159 234.63V220.02C124.159 215.69 127.449 213.97 129.659 213.87H141.639C142.089 213.87 142.489 213.9 142.859 213.97C141.939 206.44 142.249 197.17 142.439 191.72C142.479 190.65 142.509 189.72 142.519 189.03C141.729 188.54 140.839 188.29 139.809 188.29C138.229 188.29 136.939 188.88 136.929 188.89C136.879 188.91 136.819 188.94 136.779 188.95C135.759 189.33 34.7892 227.42 27.5892 230.21C24.9192 231.24 22.6392 232.29 20.8292 233.31C19.5992 234 18.4892 234.92 17.5192 236.04C15.6492 238.2 11.0292 243.53 8.49918 246.51C7.59918 247.57 6.37918 248.78 4.89918 248.78C4.15918 248.78 3.47918 248.48 2.96918 247.93C2.00918 246.89 1.99918 245.21 2.04918 244.45V242.81C2.04918 241.29 2.42918 239.77 3.13918 238.43C5.54918 233.87 11.5692 222.53 15.3492 215.72C17.3392 212.13 20.1492 208.96 23.4792 206.55C83.0492 163.44 127.219 126.27 139.339 115.9C140.969 114.5 141.909 112.47 141.909 110.31V49.58C141.909 42.66 144.309 31.75 148.319 20.41C154.839 1.97998 158.009 1.97998 159.059 1.97998C160.109 1.97998 163.279 1.97998 169.799 20.41C173.809 31.75 176.209 42.66 176.209 49.58V110.31C176.209 112.46 177.149 114.5 178.779 115.9C190.899 126.27 235.059 163.44 294.639 206.55C297.969 208.96 300.779 212.13 302.769 215.72C306.689 222.79 313.099 234.89 314.979 238.43C315.689 239.77 316.069 241.29 316.069 242.81V244.45C316.119 245.21 316.109 246.89 315.149 247.93C314.649 248.48 313.959 248.78 313.219 248.78C311.739 248.78 310.509 247.57 309.619 246.51C307.239 243.71 302.949 238.75 300.599 236.04C299.629 234.92 298.509 234 297.279 233.31C295.469 232.29 293.189 231.25 290.519 230.21C283.319 227.42 182.349 189.34 181.329 188.95C181.269 188.93 181.219 188.91 181.169 188.88C181.169 188.88 179.879 188.28 178.299 188.28C177.269 188.28 176.369 188.52 175.589 189.02C175.599 189.71 175.639 190.64 175.669 191.71C175.859 197.16 176.169 206.44 175.249 213.97C175.619 213.91 176.019 213.87 176.469 213.87H188.359C190.659 213.97 193.949 215.69 193.949 220.02V234.63C193.949 237.99 193.759 241.36 193.399 244.63C192.629 251.56 191.259 261.1 189.129 267.14C189.099 267.22 189.069 267.3 189.029 267.37C187.899 269.62 185.619 271.03 183.099 271.03H179.349V273.13C179.359 273.35 179.369 274.97 178.149 276.25C177.569 276.86 176.509 277.58 174.749 277.58H167.869L166.689 282.54C166.629 282.81 166.729 283.09 166.959 283.24L210.149 313.06C210.219 313.11 210.289 313.16 210.349 313.22C211.799 314.52 215.159 317.84 215.159 320.56V330.99C215.159 331.1 215.159 331.21 215.129 331.31C214.849 333 213.489 334.82 211.149 334.82H211.059Z" fill="white"/>
<path d="M159.01 4C162.42 4 174.16 34.38 174.16 49.6V110.33C174.16 113.07 175.35 115.66 177.43 117.44C189.45 127.73 233.67 164.95 293.41 208.19C296.52 210.44 299.1 213.35 300.96 216.71C304.78 223.6 310.91 235.16 313.15 239.38C313.71 240.44 314 241.62 314 242.82V244.53C314 244.53 314.18 246.79 313.15 246.79C312.71 246.79 312.05 246.38 311.07 245.23C308.65 242.38 304.22 237.27 302.04 234.75C300.94 233.48 299.65 232.41 298.19 231.58C296.69 230.74 294.43 229.62 291.17 228.36C283.88 225.54 181.96 187.1 181.96 187.1C181.96 187.1 180.32 186.31 178.22 186.31C176.74 186.31 175.02 186.71 173.5 188.06C173.42 191.33 174.72 208.65 172.38 218.34H173.42C173.42 218.34 173.11 215.9 176.38 215.9H188.27C188.27 215.9 191.86 216.06 191.86 220.05V234.66C191.86 237.93 191.68 241.19 191.32 244.44C190.64 250.58 189.28 260.46 187.15 266.5C186.36 268.07 184.76 269.05 183.01 269.05H177.26V273.15C177.26 273.15 177.37 275.6 174.65 275.6H166.19L164.64 282.1C164.39 283.17 164.81 284.29 165.72 284.91L208.91 314.73C208.91 314.73 213.06 318.46 213.06 320.58V331.01C213.06 331.01 212.76 332.84 211.05 332.84C210.6 332.84 210.05 332.71 209.39 332.39C206.2 330.85 162.67 314.46 162.67 314.46C162.67 314.46 162.62 314.46 162.55 314.46C162.08 314.46 160.44 314.5 160.44 315.05V322.39C160.44 322.39 160.33 324.73 159 324.73C157.67 324.73 157.56 322.39 157.56 322.39V315.05C157.56 314.5 155.92 314.46 155.45 314.46C155.37 314.46 155.33 314.46 155.33 314.46C155.33 314.46 111.81 330.85 108.61 332.39C107.94 332.71 107.4 332.84 106.95 332.84C105.24 332.84 104.94 331.01 104.94 331.01V320.58C104.94 318.45 109.09 314.73 109.09 314.73L152.28 284.91C153.19 284.28 153.61 283.17 153.36 282.1L151.81 275.6H143.35C140.64 275.6 140.74 273.15 140.74 273.15V269.05H134.99C133.24 269.05 131.63 268.06 130.85 266.5C128.71 260.46 127.36 250.57 126.68 244.44C126.32 241.19 126.14 237.93 126.14 234.66V220.05C126.14 216.06 129.73 215.9 129.73 215.9H141.62C144.89 215.9 144.58 218.34 144.58 218.34H145.62C143.28 208.66 144.58 191.34 144.5 188.06C142.98 186.7 141.27 186.31 139.78 186.31C137.68 186.31 136.04 187.1 136.04 187.1C136.04 187.1 34.1196 225.54 26.8296 228.36C23.5696 229.62 21.3096 230.73 19.8096 231.58C18.3496 232.4 17.0596 233.48 15.9596 234.75C13.7696 237.27 9.34961 242.38 6.92961 245.23C5.94961 246.39 5.28961 246.79 4.84961 246.79C3.81961 246.79 3.99961 244.53 3.99961 244.53V242.82C3.99961 241.62 4.28961 240.44 4.84961 239.38C7.08961 235.15 13.2196 223.6 17.0396 216.71C18.8996 213.35 21.4796 210.45 24.5896 208.19C84.3396 164.95 128.55 127.73 140.57 117.44C142.65 115.66 143.84 113.07 143.84 110.33V49.6C143.84 34.38 155.58 4 158.99 4M159.01 0C157.04 0 153.38 0 146.39 19.76C142.3 31.31 139.87 42.46 139.87 49.6V110.33C139.87 111.9 139.19 113.38 138 114.4C125.9 124.75 81.7896 161.88 22.2696 204.95C18.7096 207.53 15.6996 210.92 13.5696 214.77C9.77961 221.62 3.75961 232.96 1.34961 237.51C0.489606 239.14 0.0296059 240.98 0.0296059 242.82V244.39C-0.0503941 245.64 0.0696059 247.77 1.47961 249.29C2.36961 250.25 3.56961 250.78 4.87961 250.78C7.18961 250.78 8.82961 249.19 10.0096 247.81C12.3796 245.02 16.6696 240.07 19.0096 237.36C19.8296 236.41 20.7696 235.64 21.7896 235.06C22.9796 234.39 25.0696 233.33 28.2896 232.09C35.4796 229.31 136.45 191.22 137.47 190.84C137.61 190.79 137.65 190.77 137.77 190.71C137.92 190.65 138.79 190.3 139.8 190.3C140.05 190.3 140.27 190.32 140.48 190.36C140.47 190.77 140.45 191.21 140.44 191.66C140.27 196.62 140 204.7 140.63 211.88H129.75C129.69 211.88 129.63 211.88 129.57 211.88C126.59 212.01 122.16 214.29 122.16 220.03V234.64C122.16 238.07 122.35 241.51 122.72 244.86C123.5 251.9 124.9 261.59 127.1 267.81C127.16 267.97 127.22 268.12 127.3 268.28C128.78 271.21 131.73 273.04 135.02 273.04H136.77V273.09C136.76 273.86 136.89 275.93 138.53 277.64C139.38 278.53 140.91 279.58 143.38 279.58H148.68L149.28 282.12L106.84 311.43C106.7 311.53 106.57 311.63 106.44 311.74C103.94 313.98 100.96 317.34 100.96 320.57V331C100.96 331.22 100.98 331.43 101.01 331.65C101.43 334.23 103.61 336.84 106.96 336.84C108.06 336.84 109.2 336.55 110.37 335.99C112.46 334.98 136.26 325.93 153.58 319.4V322.39C153.58 322.46 153.58 322.52 153.58 322.59C153.76 326.21 155.99 328.74 159.02 328.74C162.05 328.74 164.28 326.21 164.46 322.59C164.46 322.52 164.46 322.46 164.46 322.39V319.4C181.78 325.93 205.58 334.98 207.67 335.99C208.83 336.55 209.98 336.84 211.08 336.84C214.43 336.84 216.61 334.23 217.03 331.65C217.06 331.44 217.08 331.22 217.08 331V320.57C217.08 317.34 214.1 313.98 211.6 311.74C211.47 311.63 211.34 311.52 211.2 311.43L168.76 282.13L169.36 279.59H174.66C177.13 279.59 178.66 278.53 179.51 277.65C181.15 275.94 181.28 273.87 181.27 273.1V273.05H183.02C186.3 273.05 189.26 271.23 190.74 268.29C190.82 268.14 190.88 267.98 190.94 267.82C193.14 261.6 194.53 251.9 195.32 244.87C195.69 241.52 195.88 238.08 195.88 234.65V220.04C195.88 214.3 191.45 212.03 188.47 211.89C188.41 211.89 188.35 211.89 188.29 211.89H177.41C178.04 204.71 177.77 196.63 177.6 191.67C177.58 191.21 177.57 190.77 177.56 190.37C177.76 190.33 177.99 190.31 178.24 190.31C179.25 190.31 180.12 190.65 180.27 190.72C180.39 190.78 180.44 190.8 180.57 190.85C181.59 191.23 282.56 229.32 289.75 232.1C292.97 233.35 295.06 234.4 296.25 235.07C297.27 235.65 298.21 236.42 299.03 237.37C301.38 240.08 305.67 245.04 308.04 247.82C309.22 249.2 310.86 250.79 313.17 250.79C314.47 250.79 315.68 250.26 316.57 249.3C317.98 247.77 318.1 245.64 318.02 244.4V242.83C318.02 240.98 317.56 239.15 316.7 237.52C314.29 232.96 308.27 221.62 304.48 214.78C302.35 210.94 299.34 207.54 295.78 204.96C236.26 161.89 192.15 124.76 180.05 114.41C178.86 113.39 178.18 111.91 178.18 110.34V49.61C178.18 42.47 175.74 31.32 171.66 19.77C164.63 0 160.97 0 159.01 0Z" fill="black"/>
</g>
<defs>
<clipPath id="clip0_728_32">
<rect width="318.01" height="336.82" fill="white"/>
</clipPath>
</defs>
</svg>
