<svg width="295" height="311" viewBox="0 0 295 311" fill="none" xmlns="http://www.w3.org/2000/svg">
<g clip-path="url(#clip0_254_23)">
<path d="M192.501 308.2C191.631 308.2 190.671 307.98 189.561 307.54C186.261 306.21 156.781 296.21 150.741 294.16C150.591 294.58 150.361 295 150.021 295.37C149.391 296.07 148.491 296.45 147.491 296.45C146.491 296.45 145.591 296.07 144.961 295.37C144.621 294.99 144.391 294.57 144.241 294.16C138.201 296.21 108.721 306.21 105.421 307.54C104.311 307.99 103.351 308.2 102.481 308.2C99.9206 308.2 98.8505 306.32 98.7505 305.06C98.7505 304.98 98.7505 304.91 98.7505 304.83C98.7505 304.79 98.7805 304.03 98.7705 302.03C98.7705 300.31 98.9205 298.69 99.2405 297.21C101.361 287.41 105.481 283.94 106.191 283.4C107.791 282.09 133.071 261.43 139.021 256.75C138.091 252.73 137.631 249.53 137.441 247.92C136.091 247.27 133.751 246.12 132.031 245.23C131.371 245.8 130.531 246.14 129.721 246.24C129.631 246.25 129.551 246.26 129.461 246.26H119.921C118.051 246.26 116.641 245.76 115.741 244.77C115.081 244.05 114.821 243.19 114.801 242.53C114.421 240 110.391 212.62 112.001 198.22C112.261 195.87 113.071 188.7 117.141 188.7C117.401 188.7 117.621 188.73 117.821 188.78H130.171C131.211 188.78 131.961 189.06 132.491 189.42C131.741 186.21 131.291 183.5 131.041 181.79L103.741 184.31C103.481 187.85 102.821 189.74 100.871 189.74C98.9206 189.74 98.3405 187.86 98.0705 185.26L77.4706 190.29C77.2706 194.55 76.6506 196.71 74.5305 196.71C72.8105 196.71 72.0905 195.25 71.7705 192.5C66.8505 194.95 57.2706 199.71 47.4306 204.6C47.2506 210.1 46.4806 211.91 44.4606 211.91C42.7006 211.91 41.9906 210.37 41.6706 207.46C30.3406 213.08 17.7606 219.32 16.3006 220C14.9606 220.62 14.4106 220.96 14.1806 221.13C13.9206 222.08 13.1506 222.8 12.1906 222.97L11.3206 223.27C11.2606 223.29 11.2206 223.34 11.1906 223.38C10.7606 223.96 10.1806 224.63 9.45055 225.36C8.93055 226.02 8.48055 226.61 8.09055 227.12C6.40055 229.33 5.70055 230.25 4.37055 230.25C3.78055 230.25 3.23055 230.02 2.81055 229.6C1.96055 228.74 1.96055 227.76 1.98055 224.49V222.78C1.98055 222.48 1.98055 221.59 3.44055 218.88C3.62055 218.48 4.36055 216.86 5.80055 214.56C6.73055 213.08 7.12055 212.27 7.27055 211.92V209.78C7.27055 206.55 10.5106 203.46 11.1606 202.88C11.2006 202.84 11.2506 202.81 11.2906 202.77C12.3906 201.93 121.731 118.97 126.421 115.19C129.991 112.32 130.491 110.14 130.551 109.84V40.22C130.551 36.39 133.461 19.68 137.971 11C141.951 3.31004 145.521 2.17004 147.291 2.17004C147.361 2.17004 147.431 2.17004 147.491 2.17004C147.551 2.17004 147.621 2.17004 147.691 2.17004C149.461 2.17004 153.021 3.32004 157.011 11C161.511 19.68 164.431 36.38 164.431 40.22V109.84C164.481 110.14 164.981 112.32 168.551 115.19C173.241 118.96 282.581 201.93 283.681 202.77C283.721 202.8 283.771 202.84 283.811 202.88C284.461 203.47 287.701 206.56 287.701 209.78V211.93C287.831 212.23 288.221 213.04 289.171 214.55C290.601 216.85 291.351 218.46 291.531 218.87C292.981 221.58 292.981 222.47 292.981 222.77V224.48C293.001 227.74 293.011 228.73 292.151 229.59C291.731 230.01 291.181 230.24 290.591 230.24C289.261 230.24 288.561 229.32 286.871 227.11C286.481 226.6 286.031 226.01 285.511 225.35C284.781 224.62 284.201 223.95 283.781 223.37C283.761 223.34 283.711 223.28 283.651 223.26L282.781 222.96C281.821 222.79 281.041 222.08 280.791 221.12C280.561 220.95 280.001 220.61 278.671 219.99C277.481 219.43 268.951 215.22 253.301 207.45C252.991 210.36 252.271 211.9 250.511 211.9C248.491 211.9 247.721 210.09 247.541 204.59C237.701 199.7 228.121 194.94 223.201 192.49C222.881 195.24 222.161 196.7 220.441 196.7C218.321 196.7 217.701 194.54 217.501 190.28L196.901 185.25C196.631 187.85 196.001 189.73 194.101 189.73C192.201 189.73 191.481 187.83 191.231 184.3L163.931 181.78C163.681 183.49 163.231 186.2 162.481 189.41C163.011 189.05 163.761 188.77 164.801 188.77H177.151C177.351 188.72 177.571 188.69 177.831 188.69C181.901 188.69 182.701 195.85 182.971 198.21C184.581 212.62 180.551 239.99 180.171 242.52C180.141 243.18 179.891 244.03 179.231 244.76C178.321 245.75 176.911 246.25 175.051 246.25H165.511C165.421 246.25 165.341 246.25 165.251 246.23C164.441 246.12 163.601 245.78 162.941 245.22C161.221 246.11 158.881 247.26 157.531 247.91C157.341 249.53 156.881 252.72 155.951 256.74C161.901 261.42 187.181 282.09 188.781 283.39C189.501 283.93 193.611 287.4 195.731 297.2C196.051 298.69 196.211 300.31 196.201 302.02C196.191 304.04 196.221 304.81 196.221 304.82C196.221 304.9 196.221 304.98 196.221 305.05C196.131 306.31 195.061 308.19 192.491 308.19L192.501 308.2Z" fill="white"/>
<path d="M147.7 4.17004C148.48 4.17004 151.49 4.69004 155.24 11.92C159.62 20.36 162.43 36.78 162.43 40.22V109.95C162.43 109.95 162.53 112.92 167.3 116.75C172.07 120.58 282.48 204.36 282.48 204.36C282.48 204.36 285.71 207.28 285.71 209.78V212.28C285.71 212.28 285.92 213.11 287.48 215.62C289.04 218.13 289.73 219.75 289.73 219.75C289.73 219.75 290.98 222.07 290.98 222.77C290.98 226.55 291.09 228.24 290.6 228.24C290.14 228.24 289.14 226.72 287.02 224.02C286.18 223.18 285.69 222.58 285.4 222.19C285.12 221.81 284.75 221.52 284.3 221.37L283.23 221C282.95 221 282.73 220.78 282.7 220.5C282.64 219.82 281.66 219.18 279.51 218.18C278.04 217.49 264.95 211 251.49 204.32C251.37 208.04 250.94 209.9 250.51 209.9C250.04 209.9 249.58 207.71 249.51 203.33C236.92 197.08 224.51 190.9 221.42 189.36C221.29 192.92 220.87 194.7 220.45 194.7C220.01 194.7 219.56 192.7 219.46 188.7L195.08 182.75C194.93 186.08 194.53 187.74 194.12 187.74C193.71 187.74 193.29 185.98 193.15 182.47L162.21 179.62C162.21 179.62 161.61 185.54 159.58 192.73H163.02C163.02 192.73 162.63 190.78 164.82 190.78H177.48C177.48 190.78 177.62 190.7 177.85 190.7C178.58 190.7 180.22 191.52 181 198.44C182.64 213.14 178.19 242.37 178.19 242.37C178.19 242.37 178.35 244.25 175.06 244.25H165.52C165.52 244.25 163.72 244.02 163.72 242.53C162.31 243.39 155.67 246.6 155.67 246.6C155.67 246.6 155.28 251.21 153.72 257.54C156.3 259.42 187.57 284.98 187.57 284.98C187.57 284.98 191.7 287.95 193.8 297.63C194.11 299.07 194.23 300.54 194.22 302.02C194.21 304.14 194.24 304.92 194.24 304.92C194.24 304.92 194.14 306.21 192.51 306.21C191.97 306.21 191.26 306.07 190.32 305.69C186.57 304.18 150.32 291.91 150.32 291.91L149.02 292.33C149.02 292.33 149.23 294.47 147.51 294.47C145.79 294.47 146 292.33 146 292.33L144.7 291.91C144.7 291.91 108.45 304.18 104.7 305.69C103.77 306.07 103.05 306.21 102.51 306.21C100.87 306.21 100.78 304.92 100.78 304.92C100.78 304.92 100.81 304.15 100.8 302.02C100.8 300.55 100.91 299.07 101.22 297.63C103.31 287.94 107.45 284.98 107.45 284.98C107.45 284.98 138.72 259.42 141.3 257.54C139.74 251.21 139.35 246.6 139.35 246.6C139.35 246.6 132.71 243.39 131.3 242.53C131.3 244.02 129.5 244.25 129.5 244.25H119.96C116.68 244.25 116.83 242.37 116.83 242.37C116.83 242.37 112.37 213.13 114.02 198.44C114.8 191.52 116.44 190.7 117.17 190.7C117.4 190.7 117.54 190.78 117.54 190.78H130.2C132.39 190.78 132 192.73 132 192.73H135.44C133.41 185.54 132.81 179.62 132.81 179.62L101.87 182.47C101.73 185.98 101.32 187.74 100.9 187.74C100.48 187.74 100.09 186.08 99.9404 182.75L75.5604 188.7C75.4604 192.7 75.0104 194.7 74.5704 194.7C74.1504 194.7 73.7304 192.92 73.6004 189.36C70.5104 190.9 58.0904 197.08 45.5104 203.33C45.4404 207.71 44.9704 209.9 44.5104 209.9C44.0804 209.9 43.6504 208.04 43.5304 204.32C30.0704 211.01 16.9804 217.5 15.5104 218.18C13.3604 219.18 12.3704 219.82 12.3204 220.5C12.3004 220.78 12.0804 221 11.7904 221L10.7204 221.37C10.2804 221.52 9.90041 221.81 9.62041 222.19C9.33041 222.58 8.84042 223.18 8.00041 224.02C5.88041 226.72 4.88041 228.24 4.42041 228.24C3.93041 228.24 4.04041 226.55 4.04041 222.77C4.04041 222.07 5.29041 219.75 5.29041 219.75C5.29041 219.75 5.98041 218.12 7.54041 215.62C9.10041 213.12 9.31042 212.28 9.31042 212.28V209.78C9.31042 207.28 12.5404 204.36 12.5404 204.36C12.5404 204.36 122.95 120.58 127.72 116.75C132.49 112.92 132.59 109.95 132.59 109.95V40.22C132.59 36.78 135.4 20.36 139.78 11.92C143.53 4.68004 146.54 4.17004 147.32 4.17004C147.45 4.17004 147.52 4.18004 147.52 4.18004C147.52 4.18004 147.59 4.17004 147.72 4.17004M147.7 0.170044C147.63 0.170044 147.57 0.170044 147.5 0.170044C147.43 0.170044 147.37 0.170044 147.3 0.170044C144.58 0.170044 140.46 1.89004 136.21 10.08C131.36 19.43 128.57 36.51 128.57 40.22V109.6C128.44 110.01 127.78 111.55 125.19 113.63C120.52 117.38 11.2004 200.33 10.1004 201.17C10.0104 201.24 9.92041 201.31 9.84042 201.39C8.77042 202.35 5.29041 205.81 5.29041 209.78V211.47C5.10041 211.85 4.75041 212.5 4.13041 213.49C2.70042 215.78 1.92041 217.43 1.67041 217.99C0.000414729 221.1 0.000414741 222.23 0.000414741 222.77C0.000414741 223.39 0.000414741 223.96 0.000414741 224.47C-0.0195853 227.96 -0.0295854 229.55 1.41041 231C2.20041 231.8 3.26042 232.24 4.38041 232.24C6.70041 232.24 7.82041 230.77 9.69041 228.33C10.0604 227.85 10.4804 227.3 10.9704 226.68C11.5604 226.08 12.0704 225.51 12.4804 224.99L12.7004 224.91C14.0704 224.62 15.2104 223.72 15.8104 222.48C16.0804 222.33 16.5004 222.12 17.1604 221.81C18.3104 221.28 25.8704 217.54 40.2304 210.41C41.2004 213.42 43.2504 213.91 44.4804 213.91C46.1904 213.91 48.3804 213.05 49.0704 208.93C49.2104 208.08 49.3204 207.05 49.3904 205.87C57.5004 201.84 65.3204 197.95 70.3704 195.44C71.3604 198.26 73.3504 198.72 74.5404 198.72C75.9204 198.72 78.3504 198.1 79.1004 193.93C79.2104 193.34 79.2904 192.67 79.3604 191.9L96.4604 187.73C97.3704 191.36 99.8204 191.76 100.86 191.76C104.07 191.76 105.15 189 105.56 186.17L129.35 183.98C129.49 184.82 129.66 185.77 129.87 186.8H118.02C117.75 186.75 117.46 186.72 117.14 186.72C111.28 186.72 110.33 195.22 110.01 198.01C108.39 212.56 112.38 239.87 112.81 242.78C112.87 243.62 113.16 244.93 114.27 246.13C115.57 247.55 117.48 248.26 119.93 248.26H129.47C129.64 248.26 129.82 248.25 129.99 248.23C130.73 248.13 131.47 247.9 132.16 247.54C133.31 248.12 134.57 248.74 135.61 249.25C135.83 250.85 136.2 253.18 136.81 255.97C129.62 261.7 107.92 279.43 104.94 281.86C103.93 282.65 99.4904 286.62 97.2904 296.8C96.9404 298.42 96.7704 300.19 96.7804 302.05C96.7904 304 96.7604 304.76 96.7604 304.76C96.7604 304.91 96.7604 305.07 96.7604 305.22C96.9404 307.64 99.0104 310.21 102.48 310.21C103.61 310.21 104.81 309.95 106.16 309.4C108.92 308.29 131.91 300.46 143.34 296.58C143.38 296.63 143.42 296.68 143.47 296.72C144.49 297.84 145.91 298.46 147.48 298.46C149.05 298.46 150.48 297.84 151.49 296.72C151.53 296.67 151.58 296.62 151.62 296.58C163.05 300.46 186.04 308.29 188.8 309.4C190.15 309.94 191.35 310.21 192.48 310.21C195.96 310.21 198.02 307.64 198.2 305.22C198.21 305.07 198.21 304.91 198.2 304.76C198.2 304.76 198.17 304.01 198.18 302.05C198.19 300.19 198.02 298.42 197.67 296.8C195.47 286.62 191.03 282.65 190.02 281.86C187.05 279.43 165.35 261.7 158.15 255.97C158.76 253.18 159.13 250.84 159.35 249.25C160.38 248.74 161.64 248.12 162.8 247.54C163.49 247.9 164.23 248.13 164.97 248.23C165.14 248.25 165.31 248.26 165.49 248.26H175.03C177.48 248.26 179.38 247.54 180.69 246.13C181.79 244.93 182.09 243.62 182.15 242.78C182.59 239.87 186.58 212.56 184.95 198.01C184.64 195.22 183.68 186.71 177.83 186.71C177.51 186.71 177.22 186.74 176.95 186.79H165.1C165.31 185.76 165.48 184.81 165.62 183.97L189.41 186.16C189.82 188.99 190.9 191.75 194.11 191.75C195.15 191.75 197.6 191.35 198.51 187.72L215.61 191.89C215.68 192.65 215.77 193.33 215.87 193.92C216.62 198.09 219.05 198.71 220.43 198.71C221.62 198.71 223.61 198.25 224.6 195.43C229.66 197.95 237.48 201.84 245.58 205.86C245.65 207.05 245.76 208.07 245.9 208.92C246.59 213.04 248.78 213.9 250.49 213.9C251.71 213.9 253.77 213.42 254.74 210.4C269.1 217.53 276.66 221.27 277.81 221.8C278.46 222.11 278.89 222.32 279.16 222.47C279.76 223.71 280.9 224.61 282.27 224.9L282.49 224.98C282.91 225.5 283.41 226.07 284.01 226.67C284.49 227.29 284.92 227.84 285.28 228.32C287.14 230.76 288.27 232.23 290.59 232.23C291.71 232.23 292.77 231.79 293.56 230.99C295 229.54 294.99 227.95 294.97 224.46C294.97 223.95 294.97 223.38 294.97 222.76C294.97 222.21 294.97 221.08 293.32 217.98C293.07 217.42 292.29 215.77 290.86 213.48C290.24 212.48 289.89 211.84 289.7 211.46V209.77C289.7 205.8 286.22 202.35 285.15 201.38C285.07 201.3 284.98 201.23 284.89 201.16C283.79 200.32 174.47 117.37 169.8 113.62C167.21 111.54 166.56 109.99 166.42 109.59V40.22C166.42 36.51 163.63 19.43 158.78 10.08C154.53 1.89004 150.4 0.170044 147.69 0.170044L147.7 0.170044ZM166.43 109.8V109.78V109.99C166.43 109.99 166.43 109.98 166.43 109.95V109.79V109.8ZM128.57 109.99C128.57 109.99 128.56 109.78 128.57 109.78C128.57 109.78 128.57 109.78 128.57 109.8V109.96V110V109.99Z" fill="#231F20"/>
</g>
<defs>
<clipPath id="clip0_254_23">
<rect width="295" height="310.03" fill="white" transform="translate(0 0.170044)"/>
</clipPath>
</defs>
</svg>
