<svg width="328" height="351" viewBox="0 0 328 351" fill="none" xmlns="http://www.w3.org/2000/svg">
<g clip-path="url(#clip0_273_7)">
<path d="M214.75 348.31C213.91 348.31 212.98 348.1 211.92 347.67C208.62 346.34 169.88 330.78 164 328.42C158.12 330.78 119.39 346.34 116.08 347.67C115.01 348.1 114.09 348.31 113.25 348.31C110.74 348.31 109.7 346.47 109.61 345.23C109.61 345.15 109.61 345.08 109.61 345C109.61 344.96 109.64 344.22 109.63 342.27C109.63 340.67 109.78 339.11 110.09 337.66C112.11 328.33 114.66 325.62 115.15 325.17C115.19 325.14 115.22 325.11 115.26 325.08C116.75 323.89 149.27 297.93 155.96 292.73C155.03 288.69 154.6 285.54 154.44 284.11C152.8 282.72 150.65 280.94 149.18 279.76C148.59 280.18 147.9 280.43 147.22 280.52C147.13 280.53 147.05 280.54 146.96 280.54H137.87C136.06 280.54 134.7 280.05 133.81 279.09C133.17 278.39 132.92 277.57 132.89 276.92C132.5 274.56 128.69 250.7 130.22 237C130.47 234.74 131.25 227.85 135.21 227.85C135.46 227.85 135.68 227.88 135.87 227.93H147.63C148.7 227.93 149.45 228.24 149.98 228.62C148.82 220.54 148.32 205.75 148.17 200.3L111.22 201.94L108.5 203.19C38.1195 235.65 23.7695 243.02 21.1895 244.62C21.0095 245.17 20.6895 245.7 20.2295 246.18C19.2995 247.14 17.8395 247.82 16.4295 248C15.0695 249.32 13.1795 251.07 11.7495 252.4C10.9295 253.16 10.2995 253.73 10.1095 253.93C7.30951 256.89 6.12951 258.13 4.60951 258.13C3.92951 258.13 3.29951 257.85 2.83951 257.35C1.84951 256.27 1.89951 254.66 2.27951 250.67C2.31951 250.27 2.47951 249.89 2.72951 249.58C2.83951 249.44 3.43951 248.62 6.51951 244.12C14.2495 232.82 23.5995 222.74 34.2995 214.15L144.03 126.03C147.38 123.34 147.87 121.29 147.93 121V41.76C147.93 38.1 150.71 22.16 155.01 13.87C159.32 5.57003 162.62 2.74003 162.76 2.63003C163.13 2.32003 163.59 2.16003 164.04 2.16003C164.49 2.16003 164.95 2.32003 165.32 2.63003C165.46 2.75003 168.77 5.57003 173.07 13.87C177.37 22.16 180.15 38.1 180.15 41.76V120.98C180.2 121.28 180.69 123.32 184.05 126.01C186.5 127.98 296.87 216.89 296.87 216.89C307.12 225.15 315.919 234.94 323.049 246.01C324.979 249.01 325.329 249.52 325.4 249.61C325.66 249.92 325.77 250.24 325.81 250.65C326.18 254.64 326.229 256.24 325.24 257.33C324.78 257.83 324.15 258.11 323.47 258.11C321.95 258.11 320.77 256.87 317.93 253.87C317.78 253.72 317.16 253.14 316.35 252.4C314.91 251.07 313.009 249.31 311.65 247.99C310.24 247.81 308.78 247.12 307.85 246.17C307.39 245.69 307.07 245.17 306.89 244.61C304.3 243.01 289.96 235.64 219.58 203.18L216.86 201.92L179.91 200.28C179.76 205.72 179.26 220.51 178.1 228.59C178.63 228.21 179.38 227.9 180.44 227.9H192.2C192.39 227.86 192.61 227.82 192.86 227.82C196.82 227.82 197.6 234.71 197.85 236.97C199.38 250.67 195.57 274.53 195.18 276.89C195.15 277.53 194.9 278.36 194.26 279.06C193.38 280.02 192.01 280.51 190.2 280.51H181.11C181.02 280.51 180.94 280.51 180.85 280.49C180.18 280.4 179.48 280.15 178.89 279.73C177.41 280.9 175.27 282.69 173.63 284.08C173.47 285.51 173.04 288.67 172.11 292.7C178.8 297.9 211.33 323.86 212.81 325.05C212.85 325.08 212.88 325.11 212.92 325.14C213.41 325.59 215.95 328.31 217.97 337.63C218.29 339.09 218.439 340.64 218.43 342.24C218.42 344.19 218.45 344.93 218.45 344.97C218.45 345.05 218.45 345.12 218.45 345.2C218.36 346.44 217.31 348.28 214.8 348.28L214.75 348.31Z" fill="white"/>
<path d="M164 4.17004C164 4.17004 167.09 6.75004 171.26 14.8C175.43 22.85 178.11 38.49 178.11 41.76V121.09C178.11 121.09 178.21 123.92 182.75 127.57C185.44 129.73 262.11 191.5 295.56 218.45C305.62 226.56 314.32 236.23 321.31 247.1C322.66 249.2 323.63 250.68 323.76 250.84C324.1 254.5 324.13 256.11 323.41 256.11C322.76 256.11 321.51 254.8 319.32 252.5C318.75 251.93 314.48 248.06 312.45 246.03C312.4 246.03 312.34 246.03 312.29 246.03C310.69 246.03 308.62 244.87 308.66 243.53C308.71 241.99 224.6 203.33 217.27 199.94L177.89 198.19C177.89 198.19 177.32 224.92 175.38 231.77H178.66C178.66 231.77 178.29 229.91 180.37 229.91H192.44C192.44 229.91 192.57 229.83 192.79 229.83C193.49 229.83 195.05 230.61 195.79 237.21C197.35 251.21 193.11 276.74 193.11 276.74C193.11 276.74 193.26 278.53 190.13 278.53H181.04C181.04 278.53 179.33 278.31 179.33 276.89C177.99 277.71 171.66 283.1 171.66 283.1C171.66 283.1 171.29 287.49 169.8 293.53C172.26 295.32 211.5 326.64 211.5 326.64C211.5 326.64 213.96 328.91 215.96 338.09C216.26 339.46 216.39 340.86 216.38 342.27C216.37 344.34 216.4 345.09 216.4 345.09C216.4 345.09 216.31 346.32 214.75 346.32C214.23 346.32 213.55 346.19 212.66 345.83C209.08 344.39 164 326.27 164 326.27C164 326.27 118.91 344.38 115.34 345.83C114.45 346.19 113.77 346.32 113.25 346.32C111.69 346.32 111.6 345.09 111.6 345.09C111.6 345.09 111.63 344.34 111.62 342.27C111.62 340.87 111.74 339.46 112.04 338.09C114.03 328.91 116.5 326.64 116.5 326.64C116.5 326.64 155.74 295.31 158.2 293.53C156.71 287.5 156.34 283.1 156.34 283.1C156.34 283.1 150.01 277.71 148.67 276.89C148.67 278.31 146.96 278.53 146.96 278.53H137.87C134.74 278.53 134.89 276.74 134.89 276.74C134.89 276.74 130.64 251.21 132.21 237.21C132.95 230.62 134.51 229.83 135.21 229.83C135.43 229.83 135.56 229.91 135.56 229.91H147.63C149.72 229.91 149.34 231.77 149.34 231.77H152.62C150.68 224.92 150.11 198.19 150.11 198.19L110.73 199.94C103.4 203.33 19.2897 241.98 19.3397 243.53C19.3797 244.87 17.3097 246.03 15.7097 246.03C15.6597 246.03 15.5997 246.03 15.5497 246.03C13.5197 248.06 9.24972 251.93 8.67972 252.5C6.49972 254.8 5.23972 256.11 4.58972 256.11C3.86972 256.11 3.89972 254.5 4.23972 250.84C4.50972 250.52 6.08972 248.23 8.13972 245.23C15.7697 234.09 24.9897 224.14 35.5197 215.69C68.7197 189.03 142.08 130.12 145.25 127.57C149.79 123.92 149.89 121.09 149.89 121.09V41.76C149.89 38.48 152.57 22.84 156.74 14.8C160.91 6.76004 164 4.17004 164 4.17004ZM164 0.170044C163.09 0.170044 162.18 0.480044 161.43 1.10004C161.05 1.42004 157.6 4.44004 153.19 12.95C148.56 21.88 145.89 38.21 145.89 41.76V120.73C145.75 121.12 145.13 122.54 142.74 124.46C139.57 127.01 66.2197 185.91 33.0097 212.58C22.1597 221.29 12.6797 231.52 4.82972 242.98C1.85972 247.31 1.24972 248.16 1.11972 248.33C0.619717 248.94 0.319717 249.69 0.249717 250.47C-0.140283 254.66 -0.270283 256.92 1.32972 258.68C2.15972 259.59 3.34972 260.12 4.57972 260.12C6.94972 260.12 8.38972 258.61 11.5197 255.31C11.7197 255.12 12.4297 254.46 13.0597 253.88C14.3597 252.68 16.0297 251.14 17.3497 249.86C18.9697 249.51 20.5497 248.69 21.6397 247.57C22.0997 247.09 22.4797 246.57 22.7497 246.01C26.3097 243.97 42.2497 235.94 109.26 205.04L111.68 203.92L146.21 202.38C146.39 208.15 146.8 218.47 147.61 225.92H136.05C135.77 225.87 135.48 225.84 135.2 225.84C129.45 225.84 128.53 234.07 128.22 236.77C126.67 250.61 130.45 274.43 130.89 277.18C130.96 278.01 131.26 279.28 132.32 280.44C133.6 281.83 135.46 282.53 137.85 282.53H146.94C147.11 282.53 147.29 282.52 147.46 282.5C147.95 282.44 148.44 282.31 148.91 282.13C149.98 283 151.27 284.07 152.53 285.13C152.72 286.62 153.08 289.01 153.71 291.94C145.2 298.61 115.41 322.39 113.99 323.52C113.92 323.58 113.85 323.64 113.78 323.7C112.98 324.43 110.22 327.58 108.12 337.24C107.77 338.84 107.6 340.54 107.61 342.29C107.62 344.19 107.59 344.92 107.59 344.93C107.59 345.08 107.59 345.24 107.59 345.39C107.77 347.78 109.81 350.32 113.23 350.32C114.33 350.32 115.5 350.06 116.81 349.54C120 348.26 156.14 333.73 163.98 330.59C171.81 333.74 207.96 348.26 211.15 349.54C212.46 350.07 213.63 350.32 214.73 350.32C218.16 350.32 220.19 347.78 220.37 345.39C220.38 345.24 220.38 345.08 220.37 344.93C220.37 344.93 220.34 344.2 220.35 342.3C220.36 340.55 220.19 338.85 219.84 337.25C217.74 327.58 214.98 324.44 214.18 323.71C214.11 323.65 214.04 323.59 213.97 323.53C212.55 322.39 182.76 298.61 174.25 291.95C174.88 289.03 175.24 286.64 175.43 285.14C176.68 284.08 177.98 283.01 179.05 282.14C179.52 282.32 180.01 282.45 180.5 282.51C180.67 282.53 180.84 282.54 181.02 282.54H190.11C192.5 282.54 194.36 281.84 195.64 280.45C196.71 279.29 197.01 278.02 197.07 277.19C197.52 274.45 201.29 250.63 199.74 236.79C199.44 234.09 198.52 225.86 192.76 225.86C192.47 225.86 192.19 225.89 191.91 225.94H180.35C181.17 218.49 181.58 208.17 181.75 202.4L216.28 203.94L218.7 205.06C285.71 235.96 301.65 243.99 305.21 246.03C305.49 246.59 305.86 247.12 306.32 247.59C307.41 248.71 308.98 249.54 310.61 249.88C311.94 251.16 313.61 252.7 314.91 253.9C315.53 254.48 316.24 255.13 316.44 255.33C319.57 258.63 321.01 260.14 323.38 260.14C324.61 260.14 325.8 259.62 326.63 258.7C328.23 256.94 328.1 254.67 327.71 250.49C327.64 249.75 327.36 249.04 326.91 248.44C326.8 248.29 326.37 247.64 324.64 244.96C317.4 233.71 308.45 223.75 298.04 215.36C270.82 193.43 188 126.71 185.22 124.48C182.84 122.56 182.21 121.15 182.07 120.75V41.76C182.07 38.21 179.4 21.89 174.77 12.95C170.36 4.44004 166.91 1.41004 166.53 1.10004C165.79 0.480044 164.88 0.170044 163.96 0.170044L164 0.170044Z" fill="#231F20"/>
</g>
<defs>
<clipPath id="clip0_273_7">
<rect width="328" height="350.14" fill="white" transform="translate(0 0.170044)"/>
</clipPath>
</defs>
</svg>
