<svg width="138" height="144" viewBox="0 0 138 144" fill="none" xmlns="http://www.w3.org/2000/svg">
<g clip-path="url(#clip0_851_69)">
<path d="M75.2601 142.54C75.1801 142.54 75.0901 142.54 75.0101 142.51C73.2601 142.07 71.8301 140.63 70.8701 138.37C68.9501 133.84 69.0301 126.18 70.9301 121.73C67.9001 121.74 65.5301 121.79 62.8401 121.85C61.5401 121.88 60.1801 121.91 58.6401 121.93C58.6001 122.1 58.5801 122.26 58.5601 122.47C58.5401 122.64 58.5201 122.83 58.4801 123.07C58.4101 123.56 57.9901 123.92 57.4901 123.92H56.6901C56.2001 123.92 55.7901 123.57 55.7001 123.09C55.2601 120.57 55.7001 116.9 57.1901 115.13C57.9501 114.22 58.7901 114.03 59.3601 114.03C59.5501 114.03 59.9401 114.03 60.4901 114.02C61.7801 114.01 63.9401 113.98 66.4401 113.98C67.8901 113.98 69.4601 113.98 71.0401 114.01L70.9901 113.05C70.7101 108.13 70.3701 102.01 69.2401 96.7498C67.9001 94.0698 66.5801 90.7598 65.4601 87.2398C62.3601 92.5798 59.0501 97.8398 54.1401 105.21C53.9101 107.71 54.0601 110.27 54.2001 112.76C54.2701 113.93 54.3301 115.11 54.3701 116.28C54.3801 116.78 54.0301 117.21 53.5401 117.29L51.0401 117.71C50.9801 117.71 50.9301 117.72 50.8701 117.72C50.4701 117.72 50.1001 117.48 49.9501 117.1L48.6401 113.9C48.6101 113.82 48.5901 113.74 48.5701 113.66C48.0101 109.69 48.0201 107.37 48.2401 104.23C48.2501 104.06 48.3101 103.89 48.4001 103.75C54.6501 94.2898 58.8501 87.3498 63.3201 79.0798C62.4801 75.1098 61.9701 71.2198 61.7901 67.4998C61.3301 67.4398 60.9601 67.0698 60.9201 66.5898C60.8001 65.1698 60.7001 63.8998 60.6201 62.7098C60.3801 62.7498 60.1301 62.7898 59.8601 62.8298C59.8101 62.8298 59.7601 62.8398 59.7101 62.8398C59.6801 62.8398 59.6601 62.8398 59.6301 62.8398C42.8701 61.4998 33.5701 60.3898 16.5101 57.6598C13.4601 58.2398 10.4601 59.1498 7.56007 60.0298C6.22007 60.4398 4.88007 60.8398 3.52007 61.2198C3.43007 61.2398 3.34007 61.2598 3.25007 61.2598C2.92007 61.2598 2.61007 61.0998 2.42007 60.8198L1.18007 58.9898C1.03007 58.7598 0.970072 58.4798 1.03007 58.2098C1.09007 57.9398 1.26007 57.7098 1.49007 57.5698L4.81007 55.5798C4.86007 55.5498 4.92007 55.5198 4.98007 55.4998C9.39007 53.8798 12.0601 53.1898 15.7501 52.4198C15.8201 52.4098 15.8901 52.3998 15.9601 52.3998C16.0101 52.3998 16.0601 52.3998 16.1201 52.4098C32.4901 54.9898 43.4001 56.2598 60.3701 57.5298C60.3301 55.7698 60.3301 53.9298 60.3701 51.7198C60.3801 51.2398 60.7301 50.8298 61.2101 50.7498L61.7101 50.6698V49.7698C61.7101 49.7698 61.7801 48.1998 61.9401 45.9498C61.7101 45.9298 61.5001 45.8198 61.3401 45.6598C61.1501 45.4698 61.0501 45.2198 61.0501 44.9498C61.0601 42.6298 61.1501 41.1498 61.6001 38.5398C61.6801 38.0598 62.1001 37.7098 62.5901 37.7098H62.6701C62.9501 35.1398 63.2701 32.9698 63.6101 31.2498C62.5801 26.2798 61.6601 20.9998 60.5701 13.6898C58.9701 11.5398 57.0201 9.5098 55.1301 7.5398C54.2401 6.6198 53.3601 5.6998 52.5001 4.7598C52.3201 4.5598 52.2301 4.2998 52.2401 4.0298C52.2501 3.7598 52.3801 3.5098 52.5801 3.3298L54.3201 1.7998C54.5101 1.6298 54.7401 1.5498 54.9801 1.5498C55.1501 1.5498 55.3301 1.5998 55.4901 1.6898L58.8301 3.6598C58.8901 3.6898 58.9401 3.7298 58.9901 3.7798C61.9001 6.4198 63.5901 8.2298 65.9301 11.2498C66.0301 11.3798 66.1001 11.5398 66.1301 11.7098C66.6101 14.8598 67.0901 17.7398 67.5701 20.4498C69.3601 17.2898 71.9001 14.3298 75.2201 14.0398C75.2501 14.0398 75.2801 14.0398 75.3101 14.0398C75.3401 14.0398 75.3701 14.0398 75.4001 14.0398C80.7501 14.4998 84.6801 22.2498 86.5701 29.3498C87.0701 31.2298 87.5301 34.0298 87.9301 37.6998H88.0101C88.5001 37.6998 88.9101 38.0498 89.0001 38.5298C89.4501 41.1398 89.5401 42.6198 89.5501 44.9398C89.5501 45.2098 89.4501 45.4598 89.2601 45.6498C89.1001 45.8098 88.8801 45.9198 88.6601 45.9398C88.8001 47.9598 88.8701 49.3798 88.8801 49.6698C102.03 43.3098 110.13 39.8198 125.12 34.0298C127.14 32.0998 128.89 29.9298 130.58 27.8198C131.37 26.8398 132.16 25.8598 132.97 24.8998C133.16 24.6698 133.44 24.5498 133.73 24.5498C133.85 24.5498 133.97 24.5698 134.08 24.6098L136.4 25.4798C136.65 25.5698 136.85 25.7598 136.96 26.0098C137.07 26.2498 137.08 26.5298 136.98 26.7798L135.74 29.9998C135.71 30.0698 135.67 30.1498 135.63 30.2098C133.48 33.3098 131.9 35.1898 129.14 37.9598C129.04 38.0598 128.93 38.1298 128.8 38.1798C113.86 43.9998 104.4 48.1498 90.2501 55.1098C90.2501 58.7998 90.0801 61.6798 89.7301 65.8998C102.41 74.9498 109.2 80.2898 121.13 90.6098C124.02 91.5798 127.1 92.2698 130.08 92.9398C131.46 93.2498 132.84 93.5598 134.2 93.8898C134.7 94.0098 135.02 94.4898 134.95 94.9998L134.66 97.0798C134.59 97.5698 134.17 97.9398 133.68 97.9398C133.68 97.9398 129.56 97.9798 129.55 97.9798C129.5 97.9798 129.44 97.9798 129.39 97.9698C124.66 97.1898 121.99 96.4798 118.44 95.3498C118.31 95.3098 118.19 95.2398 118.09 95.1498C107.33 85.8998 99.6701 79.8798 88.4301 71.8698C87.2801 82.0298 84.0801 91.2698 81.3301 96.7398C80.2001 102 79.8601 108.11 79.5801 113.03L79.5201 114C81.1001 113.98 82.6701 113.97 84.1201 113.97C86.6201 113.97 88.7801 113.99 90.0701 114.01C90.6201 114.01 91.0001 114.02 91.2001 114.02C91.7701 114.02 92.6101 114.21 93.3701 115.12C94.8601 116.9 95.3001 120.56 94.8601 123.08C94.7801 123.56 94.3601 123.91 93.8701 123.91H93.0701C92.5801 123.91 92.1601 123.55 92.0801 123.06C92.0401 122.82 92.0201 122.63 92.0001 122.47C91.9701 122.26 91.9501 122.1 91.9201 121.93C90.3801 121.9 89.0201 121.87 87.7201 121.85C85.0301 121.79 82.6601 121.74 79.6301 121.73C81.5201 126.18 81.6101 133.83 79.6901 138.36C78.7301 140.63 77.2901 142.06 75.5501 142.5C75.4701 142.52 75.3901 142.53 75.3001 142.53L75.2601 142.54Z" fill="white"/>
<path d="M54.9399 2.54021L58.2799 4.51021C61.3299 7.27022 62.9299 9.05021 65.0999 11.8502C65.7599 16.1702 66.4099 19.9802 67.0799 23.5602C69.0099 19.2102 71.7899 15.3202 75.2599 15.0202C80.3399 15.4602 83.9499 23.5602 85.5499 29.5902C86.1599 31.8602 86.6299 35.2902 86.9799 38.6802H87.9499C88.3699 41.1202 88.4699 42.4902 88.4799 44.9202H87.5099C87.7099 47.7402 87.8099 49.7402 87.8099 49.7402V51.2402C101.95 44.3602 110.17 40.8202 125.59 34.8702C128.65 31.9802 131 28.6702 133.66 25.5302L135.98 26.4002L134.74 29.6202C132.5 32.8602 130.93 34.6602 128.36 37.2302C112.49 43.4102 102.85 47.7302 89.1699 54.4702C89.1899 58.7502 88.9899 61.7702 88.5999 66.4902H88.5399C88.7099 66.5502 88.8699 66.6102 89.0399 66.6802C101.9 75.8602 108.59 81.1402 120.54 91.4802C124.85 92.9602 129.42 93.7502 133.88 94.8402L133.6 96.9202L129.48 96.9602C125.03 96.2302 122.45 95.5702 118.67 94.3802C106.92 84.2802 99.0199 78.1802 87.5299 70.0402C86.5799 80.7602 83.1399 90.7702 80.3099 96.3802C78.9699 102.51 78.7099 109.79 78.3899 115C80.3199 114.96 82.2699 114.95 84.0499 114.95C87.6099 114.95 90.4799 115 91.1299 115C93.3999 115 94.3399 119.82 93.7999 122.88H92.9999C92.8699 122 92.9099 121.8 92.5999 120.91C86.9699 120.82 83.7199 120.69 78.1699 120.69C78.1699 120.96 78.1599 121.04 78.1699 121.13C81.1099 126.28 80.8399 140.08 75.2299 141.5C69.6199 140.08 69.3499 126.28 72.2899 121.13C72.2999 121.04 72.2899 120.97 72.2899 120.69C66.7399 120.69 63.4899 120.82 57.8599 120.91C57.5499 121.8 57.5899 122 57.4599 122.88H56.6599C56.1299 119.81 57.0599 115 59.3299 115C59.9799 115 62.8499 114.95 66.4099 114.95C68.1899 114.95 70.1399 114.96 72.0699 115C71.7599 109.79 71.4899 102.51 70.1499 96.3802C68.6899 93.4902 67.0699 89.4202 65.7099 84.7002C62.0599 91.1302 58.4699 96.8202 53.1399 104.83C52.7499 108.65 53.2399 112.46 53.3399 116.27L50.8399 116.69L49.5199 113.49C48.9999 109.79 48.9699 107.58 49.1899 104.26C55.6299 94.5102 59.8899 87.4302 64.3299 79.1902C63.4599 75.1602 62.8499 70.8402 62.7099 66.4702H61.8799C61.7299 64.6002 61.5999 63.0002 61.5099 61.4902C60.9499 61.6002 60.3499 61.7002 59.6799 61.8002C42.7099 60.4502 33.5199 59.3302 16.4699 56.6002C11.9199 57.4502 7.62992 58.9802 3.21993 60.2102L1.97993 58.3802L5.29993 56.3902C9.43993 54.8702 12.0099 54.1702 15.9299 53.3502C33.6799 56.1502 44.6999 57.3302 61.3699 58.5602C61.2999 56.5002 61.2899 54.3702 61.3499 51.6902L62.6899 51.4702V49.7202C62.6899 49.7202 62.7799 47.7202 62.9899 44.9002H62.0199C62.0299 42.4702 62.1299 41.1002 62.5499 38.6602H63.5199C63.7999 36.0002 64.1499 33.3302 64.5799 31.2002C63.4599 25.8102 62.5299 20.3702 61.4699 13.2502C59.0799 9.96021 55.9699 7.10021 53.1799 4.04021L54.9199 2.51021M54.9199 0.510215C54.4399 0.510215 53.9699 0.680215 53.5999 1.01021L51.8599 2.54021C51.4599 2.90021 51.2199 3.40021 51.1899 3.93021C51.1599 4.47021 51.3499 4.99021 51.7099 5.39021C52.5799 6.34021 53.4799 7.28022 54.3599 8.19022C56.2499 10.1602 58.0499 12.0202 59.5699 14.0402C60.6399 21.1402 61.5299 26.3302 62.5399 31.2102C62.2399 32.7602 61.9699 34.6502 61.7099 36.8402C61.1299 37.1102 60.6899 37.6502 60.5799 38.3102C60.1099 40.9902 60.0299 42.5102 60.0199 44.8802C60.0199 45.4102 60.2299 45.9202 60.5999 46.3002C60.6799 46.3802 60.7699 46.4602 60.8699 46.5302C60.7499 48.3602 60.6899 49.5602 60.6899 49.6202C60.6899 49.6502 60.6899 49.6802 60.6899 49.7102V49.7902C59.9199 50.0602 59.3699 50.7902 59.3499 51.6302C59.3099 53.4002 59.2999 54.9302 59.3199 56.3802C42.9999 55.1402 32.2299 53.8702 16.2399 51.3502C16.1399 51.3302 16.0299 51.3302 15.9299 51.3302C15.7899 51.3302 15.6499 51.3402 15.5199 51.3702C11.7899 52.1502 9.07993 52.8502 4.60993 54.4902C4.48993 54.5302 4.37993 54.5902 4.26993 54.6502L0.949925 56.6402C0.479925 56.9202 0.139925 57.3902 0.0299251 57.9202C-0.0900749 58.4602 0.0199251 59.0202 0.329925 59.4702L1.56993 61.3002C1.94993 61.8602 2.56993 62.1802 3.22993 62.1802C3.40993 62.1802 3.58993 62.1602 3.76993 62.1102C5.13993 61.7302 6.49993 61.3202 7.81993 60.9202C10.7799 60.0302 13.5699 59.1802 16.5099 58.6102C33.4899 61.3302 42.7999 62.4402 59.5299 63.7802C59.5799 63.7802 59.6299 63.7802 59.6799 63.7802C59.7399 64.6002 59.8099 65.5202 59.8999 66.6102C59.9499 67.2502 60.2999 67.7902 60.7999 68.1202C60.9999 71.5802 61.4799 75.1802 62.2399 78.8602C57.8599 86.9502 53.6899 93.8202 47.5399 103.13C47.3499 103.42 47.2399 103.75 47.2099 104.1C46.9599 107.77 47.0399 110.11 47.5499 113.74C47.5699 113.91 47.6199 114.07 47.6799 114.22L48.9999 117.42C49.3099 118.18 50.0499 118.66 50.8499 118.66C50.9599 118.66 51.0699 118.66 51.1799 118.63L53.6799 118.21C54.2299 118.12 54.6899 117.81 54.9899 117.39C54.4799 119.3 54.4199 121.5 54.7099 123.19C54.8799 124.15 55.7099 124.85 56.6799 124.85H57.4799C58.4699 124.85 59.3099 124.13 59.4599 123.15C59.4799 123.04 59.4899 122.94 59.4999 122.85C60.6999 122.83 61.7899 122.8 62.8499 122.78C65.0999 122.73 67.1299 122.69 69.4999 122.67C68.0299 127.43 68.1199 134.4 69.9399 138.69C71.3199 141.93 73.3199 143.04 74.7599 143.41C74.9199 143.45 75.0899 143.47 75.2499 143.47C75.4099 143.47 75.5799 143.45 75.7399 143.41C77.1799 143.04 79.1799 141.93 80.5599 138.69C82.3799 134.4 82.4699 127.43 80.9999 122.67C83.3699 122.69 85.3999 122.73 87.6499 122.78C88.6999 122.8 89.7999 122.83 90.9999 122.85C91.0099 122.94 91.0299 123.04 91.0399 123.15C91.1899 124.13 92.0299 124.85 93.0199 124.85H93.8199C94.7899 124.85 95.6199 124.15 95.7899 123.19C96.2599 120.48 95.8199 116.49 94.0799 114.41C93.0699 113.21 91.9299 112.96 91.1499 112.96C90.9599 112.96 90.5699 112.96 90.0299 112.95C88.7299 112.94 86.5699 112.91 84.0699 112.91C82.8299 112.91 81.6499 112.91 80.5299 112.93C80.7999 108.1 81.1399 102.13 82.2299 97.0102C84.8499 91.7502 87.8599 83.1602 89.1599 73.6002C99.6499 81.1202 107.09 87.0002 117.39 95.8502C117.59 96.0302 117.83 96.1602 118.09 96.2402C122.19 97.5402 124.89 98.1802 129.18 98.8902C129.29 98.9102 129.4 98.9202 129.5 98.9202C129.5 98.9202 129.51 98.9202 129.52 98.9202L133.64 98.8802C134.63 98.8702 135.47 98.1302 135.6 97.1502L135.88 95.0702C136.02 94.0602 135.37 93.1002 134.38 92.8602C133 92.5202 131.59 92.2102 130.24 91.9002C127.35 91.2602 124.36 90.5902 121.58 89.6602C109.85 79.5202 103.08 74.1802 90.7099 65.3502C91.0099 61.6302 91.1599 58.9302 91.1799 55.6602C105 48.8702 114.38 44.7602 129.1 39.0302C129.36 38.9302 129.59 38.7802 129.79 38.5802C132.6 35.7702 134.21 33.8502 136.4 30.7002C136.49 30.5702 136.57 30.4302 136.62 30.2802L137.86 27.0602C138.05 26.5602 138.04 26.0102 137.82 25.5202C137.6 25.0302 137.2 24.6502 136.7 24.4702L134.38 23.6002C134.15 23.5102 133.91 23.4702 133.68 23.4702C133.1 23.4702 132.54 23.7202 132.16 24.1702C131.33 25.1402 130.53 26.1402 129.75 27.1102C128.04 29.2302 126.42 31.2402 124.52 33.0802C110.14 38.6402 102.09 42.0802 89.7499 48.0302C89.7199 47.5902 89.6899 47.0802 89.6599 46.5002C89.7499 46.4302 89.8399 46.3602 89.9299 46.2702C90.3099 45.8902 90.5099 45.3802 90.5099 44.8502C90.4999 42.1802 90.3699 40.7102 89.9499 38.2802C89.8299 37.6202 89.3999 37.0702 88.8199 36.8102C88.4299 33.4402 87.9899 30.8202 87.5099 29.0202C86.5499 25.4202 82.8499 13.6102 75.4599 12.9702C75.3999 12.9702 75.3499 12.9702 75.2899 12.9702C75.2299 12.9702 75.1799 12.9702 75.1199 12.9702C72.5799 13.1902 70.1999 14.7902 68.0999 17.6702C67.7699 15.7102 67.4399 13.6602 67.0999 11.4802C67.0499 11.1402 66.9099 10.8302 66.6999 10.5602C64.3199 7.49022 62.6099 5.64021 59.6399 2.96021C59.5399 2.87021 59.4299 2.79021 59.3099 2.72021L55.9699 0.750215C55.6499 0.560215 55.2999 0.470215 54.9499 0.470215L54.9199 0.510215ZM55.0899 105.53C59.3499 99.1202 62.4099 94.3102 65.1799 89.6202C66.1299 92.3502 67.1799 94.9002 68.2599 97.0602C69.3499 102.18 69.6899 108.15 69.9599 112.98C68.8399 112.97 67.6499 112.96 66.4199 112.96C63.9199 112.96 61.7499 112.98 60.4599 113C59.9199 113 59.5299 113.01 59.3399 113.01C58.5599 113.01 57.4199 113.26 56.4099 114.46C55.9699 114.98 55.6199 115.62 55.3399 116.32C55.3399 116.29 55.3399 116.26 55.3399 116.23C55.3099 115.04 55.2399 113.84 55.1699 112.68C55.0299 110.21 54.8899 107.86 55.0899 105.53Z" fill="black"/>
</g>
<defs>
<clipPath id="clip0_851_69">
<rect width="138" height="143" fill="white" transform="translate(0 0.540039)"/>
</clipPath>
</defs>
</svg>
