<svg width="132" height="189" viewBox="0 0 132 189" fill="none" xmlns="http://www.w3.org/2000/svg">
<g clip-path="url(#clip0_597_52)">
<path d="M63.01 187.035C61.84 187.035 61.66 185.605 61.46 183.945C61.46 183.905 61.46 183.865 61.46 183.825V176.445L61.39 176.495C61.39 176.495 61.29 176.555 61.24 176.575C60.83 176.765 60.41 176.855 60.02 176.855C59 176.855 58.18 176.235 57.98 175.305C57.82 174.545 58.1 173.445 59.42 172.805L59.83 172.495L44.44 169.855C43.33 169.665 42.51 168.715 42.48 167.585L42.4 164.735C42.37 163.475 43.32 162.415 44.57 162.315L62.56 160.865C62.17 154.855 59.71 117.375 59.06 109.805C59.02 109.295 58.79 108.815 58.42 108.465C54.86 105.115 53.7 101.835 53.41 99.4151C52.36 99.3651 51.54 98.5551 51.5 97.5151L51.4 95.1251C51.02 95.0051 50.74 94.6851 50.7 94.2751L50.61 93.3851L50.46 87.8551L10.17 122.185C9.88998 122.425 9.66998 122.725 9.51998 123.065L7.83998 126.975C7.59998 127.525 7.05998 127.885 6.45998 127.885C6.12998 127.885 5.81998 127.785 5.55998 127.585C4.86998 127.065 4.17998 126.635 3.60998 126.385C2.03998 125.685 1.76998 123.815 1.86998 122.815C1.86998 122.725 1.89998 122.635 1.92998 122.545L2.72998 120.475C3.21998 119.195 3.88998 117.985 4.36998 117.185C4.74998 116.555 5.22998 115.995 5.78998 115.515L50.17 78.0751L49.88 67.2751C48.53 66.9451 48.08 65.8751 48.05 65.2651L47.9 59.7751C47.88 58.9051 48.29 58.1051 49.08 57.4551L8.64998 10.2751C8.40998 9.99509 8.10998 9.77509 7.76998 9.62509L3.85998 7.94509C3.42998 7.76509 3.11998 7.39509 2.99998 6.95509C2.87998 6.50509 2.96998 6.04509 3.24998 5.67509C3.54998 5.27509 4.10998 4.49509 4.44998 3.72509C4.94998 2.60509 6.12998 1.96509 7.68998 1.96509C7.88998 1.96509 8.01998 1.97509 8.01998 1.97509C8.10998 1.97509 8.20998 2.00509 8.28998 2.03509L10.36 2.83509C11.64 3.32509 12.85 3.99509 13.65 4.47509C14.28 4.85509 14.84 5.32509 15.32 5.89509L47.92 44.5351V44.4251C47.92 44.0051 48.18 43.6451 48.55 43.4951V42.6451C48.55 42.0951 49 41.6451 49.55 41.6451H50.1C50.47 41.6451 50.79 41.8451 50.96 42.1351C51.19 36.1251 53.02 24.7351 63.45 24.4451C63.45 24.4451 63.57 24.4451 63.61 24.4451C68.44 24.5051 72.14 27.1451 74.31 32.1051C75.75 35.3851 76.28 39.0651 76.45 41.8551C76.62 41.7251 76.83 41.6451 77.07 41.6451H77.62C78.17 41.6451 78.62 42.0951 78.62 42.6451V43.4951C78.99 43.6451 79.25 44.0051 79.25 44.4251V49.7951L121.71 13.5751C121.99 13.3351 122.21 13.0351 122.36 12.6951L124.04 8.78509C124.28 8.23509 124.82 7.87509 125.42 7.87509C125.75 7.87509 126.06 7.97509 126.32 8.17509C126.72 8.47509 127.5 9.03509 128.27 9.37509C129.84 10.0751 130.11 11.9451 130.01 12.9451C130.01 13.0351 129.98 13.1251 129.95 13.2151L129.15 15.2851C128.66 16.5651 127.99 17.7751 127.51 18.5751C127.13 19.2051 126.65 19.7651 126.09 20.2451L79.96 59.0151C79.98 59.1351 79.99 59.2451 79.99 59.3651V64.8251C79.97 65.5651 79.46 66.5551 78.21 66.9051V74.7951L120.24 123.565C120.48 123.845 120.79 124.075 121.12 124.215L125.03 125.895C125.46 126.075 125.77 126.445 125.89 126.885C126.01 127.335 125.92 127.795 125.64 128.165C125.34 128.565 124.78 129.345 124.44 130.115C123.94 131.235 122.76 131.875 121.2 131.875C121 131.875 120.87 131.865 120.87 131.865C120.78 131.865 120.69 131.835 120.6 131.805L118.53 131.005C117.25 130.515 116.03 129.835 115.24 129.365C114.61 128.985 114.05 128.505 113.57 127.945L78.2 86.0251V92.9451L78.13 93.9051C78.1 94.3151 77.82 94.6551 77.45 94.7751L77.42 97.1651C77.41 98.2051 76.61 99.0451 75.58 99.1151C75.43 101.435 74.66 104.575 71.3 107.935C70.93 108.305 70.71 108.785 70.68 109.295C70.22 116.725 68.73 152.515 68.39 160.685L85.85 161.895C87.08 161.985 88.05 163.015 88.05 164.255V167.185C88.05 168.265 87.32 169.205 86.27 169.475L67.68 174.245C67.68 174.245 67.66 174.285 67.65 174.305C67.56 174.995 67.41 177.635 67.41 177.935C67.44 178.265 67.38 178.645 67.32 179.045C67.26 179.445 67.08 180.615 66.14 180.785C66.07 180.805 65.99 180.815 65.91 180.815C65.61 180.815 65.32 180.695 65.1 180.475C64.96 180.335 64.68 180.045 64.58 178.935V183.815C64.58 183.815 64.58 183.905 64.58 183.955C64.35 185.605 64.15 187.035 62.99 187.035H63.01Z" fill="white"/>
<path d="M7.69981 2.96508C7.84981 2.96508 7.92981 2.96508 7.92981 2.96508L9.99981 3.76508C11.2198 4.23508 12.3798 4.87508 13.1298 5.33508C13.6698 5.65508 14.1398 6.06508 14.5498 6.53508L48.9098 47.2651V44.4151H49.5398V42.6351H50.0898V44.4151H51.9298C51.7798 37.8451 53.2498 25.7151 63.4698 25.4451C73.8198 25.4751 75.5398 37.9151 75.5198 44.4151H77.0598V42.6351H77.6098V44.4151H78.2398V51.9451L122.36 14.3451C122.76 14.0051 123.07 13.5751 123.28 13.0951L124.96 9.18508C125.04 8.99508 125.23 8.88508 125.42 8.88508C125.52 8.88508 125.63 8.91508 125.72 8.98508C126.22 9.36508 127.04 9.93508 127.87 10.3051C129.2 10.8951 129.02 12.8751 129.02 12.8751L128.22 14.9451C127.75 16.1651 127.11 17.3251 126.65 18.0751C126.33 18.6151 125.92 19.0851 125.45 19.4951L78.8098 58.6851C78.9098 58.8951 78.9898 59.1151 78.9898 59.3651V64.8251C78.9898 64.8251 78.9498 66.0351 77.2098 66.0351V75.1651L119.48 124.215C119.82 124.615 120.25 124.925 120.73 125.135L124.64 126.815C124.94 126.945 125.04 127.315 124.84 127.565C124.46 128.065 123.89 128.885 123.52 129.715C123.05 130.765 121.73 130.875 121.19 130.875C121.04 130.875 120.95 130.875 120.95 130.875L118.88 130.075C117.66 129.605 116.5 128.965 115.75 128.505C115.21 128.185 114.74 127.775 114.33 127.305L77.1998 83.2951V92.9451L77.1298 93.8351L76.4598 93.8651L76.4198 97.1551C76.4198 97.6851 75.9798 98.1151 75.4498 98.1251C75.1698 98.1251 74.8598 98.1251 74.5998 98.1251C74.5998 100.885 73.8598 103.945 70.5798 107.225C70.0398 107.765 69.7198 108.475 69.6698 109.225C69.1898 116.965 67.5798 155.845 67.3598 161.035C67.3498 161.355 67.5898 161.625 67.9098 161.645L85.7598 162.885C86.4798 162.935 87.0298 163.535 87.0298 164.245V167.175C87.0298 167.795 86.6098 168.345 85.9998 168.495L67.1198 173.345C67.1198 173.345 66.7098 173.695 66.6498 174.165C66.5498 174.945 66.3798 177.955 66.3998 177.955C66.3998 177.955 66.3498 179.785 65.8998 179.795C65.5298 179.795 65.5498 177.965 65.5498 177.965C65.5498 177.965 65.3898 175.315 65.1798 173.745H63.5798V183.805C63.3698 185.325 63.1698 186.015 62.9798 186.015C62.7798 186.015 62.5898 185.225 62.4198 183.805V174.535L60.7898 175.645C60.4898 175.775 60.2198 175.835 59.9698 175.835C58.7398 175.835 58.3598 174.325 59.8898 173.645L62.2098 171.875L44.5498 168.845C43.9098 168.735 43.4298 168.185 43.4198 167.535L43.3398 164.685C43.3198 163.955 43.8698 163.345 44.5998 163.285L62.9898 161.805C63.3098 161.775 63.5498 161.505 63.5298 161.175C63.1898 155.985 60.6698 117.405 59.9998 109.695C59.9398 108.945 59.5998 108.235 59.0398 107.715C55.5998 104.485 54.3498 101.135 54.2798 98.3751C54.0198 98.3751 53.7198 98.3851 53.4298 98.3951C53.4298 98.3951 53.4298 98.3951 53.4198 98.3951C52.8898 98.3951 52.4598 97.9751 52.4398 97.4551L52.3098 94.1651L51.6398 94.1451L51.5498 93.2551L51.3398 85.7051L9.51981 121.415C9.11981 121.755 8.80981 122.185 8.59981 122.665L6.91981 126.575C6.83981 126.765 6.64981 126.875 6.45981 126.875C6.35981 126.875 6.24981 126.845 6.15981 126.775C5.65981 126.395 4.83981 125.825 4.00981 125.455C2.67981 124.865 2.85981 122.885 2.85981 122.885L3.65981 120.815C4.12981 119.595 4.76981 118.435 5.22981 117.685C5.54981 117.145 5.95981 116.675 6.42981 116.265L51.1698 78.5151L50.8398 66.3651C50.8398 66.3651 50.7698 66.3651 50.7398 66.3651C49.0998 66.3651 49.0298 65.2051 49.0298 65.2051C49.0298 65.2051 48.9198 61.2551 48.8798 59.7451C48.8498 58.6851 49.9198 58.0051 50.5498 57.6851C50.5498 57.6851 50.5498 57.6651 50.5498 57.6551L9.40981 9.62508C9.06981 9.22508 8.63981 8.91508 8.15981 8.70508L4.24981 7.02508C3.94981 6.89508 3.84981 6.52508 4.04981 6.27508C4.42981 5.77508 4.99981 4.95508 5.36981 4.12508C5.83981 3.07508 7.15981 2.96508 7.69981 2.96508ZM7.69981 0.965078C5.74981 0.965078 4.19981 1.84508 3.53981 3.31508C3.31981 3.81508 2.92981 4.43508 2.45981 5.06508C1.99981 5.67508 1.83981 6.45508 2.03981 7.20508C2.23981 7.95508 2.75981 8.55508 3.46981 8.86508L7.37981 10.5451C7.57981 10.6251 7.74981 10.7651 7.88981 10.9251L47.7198 57.4251C47.1598 58.1351 46.8698 58.9451 46.8998 59.8051L47.0498 65.2651C47.0498 65.2651 47.0498 65.3051 47.0498 65.3351C47.0998 66.2051 47.6498 67.3851 48.8998 67.9851L49.1598 77.6251L5.14981 114.755C4.49981 115.295 3.95981 115.945 3.51981 116.675C3.01981 117.505 2.31981 118.775 1.79981 120.115L0.999806 122.185C0.929806 122.355 0.889806 122.535 0.869806 122.725C0.749806 123.985 1.11981 126.375 3.19981 127.295C3.69981 127.515 4.31981 127.905 4.94981 128.375C5.38981 128.705 5.90981 128.875 6.44981 128.875C7.44981 128.875 8.34981 128.285 8.74981 127.365L10.4298 123.455C10.5098 123.255 10.6398 123.085 10.8098 122.945L49.4798 89.9651L49.5698 93.3251C49.5698 93.3751 49.5698 93.4251 49.5698 93.4751L49.6598 94.3651C49.7198 94.9051 49.9898 95.3751 50.3798 95.7051L50.4498 97.5451C50.4998 98.8151 51.3298 99.8651 52.4698 100.255C52.9098 102.765 54.2398 105.955 57.6798 109.185C57.8698 109.365 57.9898 109.615 58.0098 109.875C58.6298 117.085 60.8998 151.625 61.4398 159.925L44.4298 161.295C42.6498 161.435 41.2898 162.955 41.3398 164.745L41.4198 167.595C41.4598 169.195 42.6398 170.555 44.2198 170.825L57.4698 173.105C56.9298 173.875 56.7898 174.755 56.9498 175.505C57.2398 176.885 58.4798 177.845 59.9698 177.845C60.1198 177.845 60.2698 177.845 60.4198 177.815V183.815C60.4198 183.895 60.4198 183.975 60.4398 184.065C60.6598 185.835 60.9298 188.035 62.9898 188.035C65.0498 188.035 65.3198 185.855 65.5698 184.095C65.5798 184.005 65.5898 183.915 65.5898 183.815V181.785C65.6998 181.805 65.7998 181.805 65.9098 181.805C66.0198 181.805 66.1298 181.805 66.2398 181.775C67.6198 181.595 68.3498 180.325 68.4098 178.005C68.4098 177.965 68.4098 177.935 68.4098 177.905C68.4198 177.515 68.5098 175.985 68.5898 175.045L86.5198 170.445C88.0098 170.065 89.0498 168.725 89.0498 167.185V164.255C89.0498 162.495 87.6698 161.015 85.9198 160.895L69.4398 159.745C69.7898 151.425 71.2498 116.545 71.6898 109.345C71.7098 109.075 71.8198 108.825 72.0198 108.635C74.6798 105.975 76.1398 103.165 76.5198 99.9151C77.6398 99.4951 78.4198 98.4251 78.4398 97.1651L78.4598 95.3251C78.8398 94.9951 79.0998 94.5151 79.1398 93.9751L79.2098 93.0851C79.2098 93.0351 79.2098 92.9851 79.2098 92.9351V88.7551L112.81 128.585C113.35 129.235 114 129.775 114.73 130.215C115.56 130.715 116.83 131.415 118.17 131.935L120.24 132.735C120.4 132.795 120.6 132.845 120.78 132.865C120.78 132.865 120.94 132.885 121.2 132.885C123.15 132.885 124.7 132.005 125.36 130.535C125.58 130.035 125.97 129.415 126.44 128.785C126.9 128.175 127.06 127.395 126.86 126.645C126.66 125.895 126.14 125.295 125.43 124.985L121.52 123.305C121.32 123.225 121.15 123.085 121.01 122.925L79.2198 74.4351V67.6051C80.4498 66.9751 80.9698 65.7851 80.9998 64.9051C80.9998 64.8851 80.9998 64.8651 80.9998 64.8351V59.4651L126.74 21.0251C127.39 20.4751 127.94 19.8351 128.37 19.1051C128.87 18.2751 129.57 17.0051 130.09 15.6651L130.89 13.5951C130.96 13.4251 131 13.2451 131.02 13.0551C131.14 11.7951 130.77 9.40508 128.69 8.48508C128.19 8.26508 127.57 7.87508 126.94 7.40508C126.5 7.07508 125.98 6.90508 125.44 6.90508C124.44 6.90508 123.54 7.49508 123.14 8.41508L121.46 12.3251C121.38 12.5251 121.24 12.6951 121.08 12.8351L80.2698 47.6351V44.4351C80.2698 43.8551 80.0298 43.3451 79.6398 42.9751V42.6551C79.6398 41.5551 78.7398 40.6551 77.6398 40.6551H77.3798C77.1298 37.9651 76.5498 34.6951 75.2498 31.7251C72.9198 26.4051 68.9298 23.5551 63.6998 23.4751C63.6398 23.4751 63.5698 23.4751 63.4998 23.4751C63.4798 23.4751 63.4598 23.4751 63.4398 23.4751C55.6098 23.6851 50.7498 30.0351 50.0398 40.6751H49.5698C48.4998 40.6751 47.6198 41.5151 47.5698 42.5751L16.0798 5.24508C15.5298 4.59508 14.8898 4.05508 14.1598 3.61508C13.3298 3.11508 12.0598 2.41508 10.7198 1.89508L8.65981 1.10508C8.49981 1.04508 8.29981 0.995078 8.11981 0.975078C8.11981 0.975078 7.95981 0.955078 7.69981 0.955078V0.965078Z" fill="black"/>
</g>
<defs>
<clipPath id="clip0_597_52">
<rect width="130.16" height="187.07" fill="white" transform="translate(0.859375 0.965088)"/>
</clipPath>
</defs>
</svg>
