<svg width="115" height="161" viewBox="0 0 115 161" fill="none" xmlns="http://www.w3.org/2000/svg">
<g clip-path="url(#clip0_588_37)">
<path d="M57.4199 159.275C56.5799 159.275 56.0699 158.895 55.7999 158.575C55.3099 158.015 55.2099 157.275 55.1999 156.775L42.2599 155.295V155.345C42.2599 156.255 41.6099 156.755 41.0099 156.755C40.4099 156.755 39.7599 156.265 39.7599 155.345L39.7199 154.535C39.6199 154.245 39.3799 153.565 39.0399 152.385C38.4199 149.615 38.5699 147.545 39.4499 146.185C40.1499 145.105 41.0499 144.875 41.2199 144.835C41.2699 144.825 41.3299 144.815 41.3899 144.815L54.1599 144.345L53.6199 135.985C52.8299 135.755 52.2399 135.065 52.1699 134.205L48.7999 94.8651C48.7499 94.2951 48.9399 93.7351 49.3299 93.3151C49.7099 92.8951 50.2599 92.6551 50.8299 92.6551H50.9299L50.5599 85.6751L49.9499 85.4551C49.4199 85.2651 48.8599 85.1251 48.2999 85.0451L45.8099 84.6851C42.6799 84.2251 41.9599 80.7351 42.0099 78.8451L13.4999 106.415C12.9999 106.895 12.5999 107.465 12.3099 108.085L10.6999 111.555C10.4599 112.085 9.91994 112.425 9.33994 112.425C8.96994 112.425 8.61994 112.285 8.33994 112.045L5.06994 109.125C4.55994 108.675 4.41994 107.935 4.72994 107.325L6.60994 103.645C7.02994 102.815 7.57994 102.075 8.23994 101.425L42.0099 68.4351V65.4951C38.3599 65.2251 34.6599 64.9551 34.1899 64.9551C33.4899 64.9551 33.0899 64.6951 32.8699 64.4451H32.4699C31.5199 64.4451 30.9999 64.0451 30.7299 63.7151C30.2899 63.1651 30.3099 62.5351 30.3499 62.2451V46.4051C30.3499 45.0651 31.1899 44.4651 31.5499 44.2651C31.7699 44.1451 32.0199 44.0851 32.2799 44.0851H35.3599C36.6499 44.0851 37.3199 45.2251 37.3199 46.3551V52.8151H37.5499V46.3551C37.5299 46.0951 37.5399 45.4351 38.0199 44.8751C38.1799 44.6851 38.4399 44.4751 38.7999 44.3451C38.5899 44.1951 38.4399 44.0851 38.3899 44.0451C38.3499 44.0151 38.3099 43.9851 38.2799 43.9451L7.48994 12.0951C7.00994 11.5951 6.43994 11.1951 5.81994 10.9051L2.34994 9.29509C1.91994 9.09509 1.60994 8.70509 1.50994 8.23509C1.40994 7.77509 1.54994 7.28509 1.85994 6.93509L4.77994 3.66509C5.05994 3.34509 5.46994 3.16509 5.89994 3.16509C6.13994 3.16509 6.36994 3.22509 6.57994 3.32509L10.2599 5.20509C11.0899 5.62509 11.8299 6.17509 12.4799 6.83509L45.6299 40.7851V34.4851C45.3399 33.8751 44.9699 32.8251 44.9699 31.5651C44.9699 30.3751 45.3099 29.4051 45.6299 28.7451C45.6699 23.5551 46.5999 19.5351 48.4199 16.7751V16.5151C48.3699 16.1951 48.4199 15.7951 48.6599 15.4451C48.8699 15.1551 49.2999 14.8051 50.1299 14.8051H50.1499C50.3899 14.6051 50.6099 14.4451 50.7999 14.3251V12.1351C50.7999 10.7151 51.8199 10.0651 52.7699 10.0651C52.7699 10.0651 52.7899 10.0651 52.8099 10.0651V8.76509C52.8099 6.05509 54.4299 5.32509 55.3899 5.32509C55.4199 5.32509 55.4899 5.32509 55.5099 5.32509C55.5099 5.32509 59.3799 5.32509 59.3899 5.32509C60.3899 5.32509 62.0099 6.04509 62.0099 8.75509V10.0551C62.0099 10.0551 62.0399 10.0551 62.0499 10.0551C62.9999 10.0551 64.0199 10.7051 64.0199 12.1251V14.3151C64.2099 14.4351 64.4299 14.5951 64.6699 14.7951H64.6899C65.5199 14.7951 65.9399 15.1451 66.1599 15.4351C66.4099 15.7851 66.4599 16.1851 66.3999 16.5051V16.7651C68.2099 19.5251 69.1499 23.5451 69.1899 28.7351C69.5099 29.3951 69.8499 30.3751 69.8499 31.5551C69.8499 32.8151 69.4799 33.8651 69.1899 34.4751V38.0851C69.4299 37.7651 69.6099 37.5451 69.6599 37.4751C69.6899 37.4351 69.7199 37.4051 69.7599 37.3651L102.53 7.60509C103.04 7.13509 103.46 6.58509 103.77 5.96509L105.48 2.54509C105.74 2.03509 106.25 1.71509 106.82 1.71509C107.21 1.71509 107.57 1.86509 107.85 2.12509L111.03 5.14509C111.52 5.61509 111.64 6.35509 111.31 6.95509L109.32 10.5751C108.87 11.3851 108.3 12.1151 107.62 12.7451L73.0099 44.5551C73.1199 44.6251 73.2299 44.7051 73.3299 44.7951C73.6999 44.4351 74.2699 44.1651 75.1499 44.1651C76.0299 44.1651 76.5699 44.5351 76.8399 44.8551C77.3199 45.4051 77.3299 46.0651 77.3099 46.3351V52.7951H77.5399V46.3351C77.5399 45.2051 78.2099 44.0651 79.4999 44.0651H82.5799C82.8299 44.0651 83.0899 44.1251 83.3099 44.2451C83.6699 44.4451 84.5099 45.0451 84.5099 46.3851V62.2251C84.5499 62.5151 84.5699 63.1451 84.1299 63.6951C83.8599 64.0251 83.3499 64.4251 82.3899 64.4251H81.9899C81.7599 64.6751 81.3599 64.9351 80.6699 64.9351C80.1899 64.9351 76.4899 65.1951 72.8499 65.4751V66.8251C74.3099 67.2951 76.1999 68.7251 76.4299 68.8951C76.4699 68.9251 76.5099 68.9551 76.5399 68.9951L107.31 100.825C107.79 101.325 108.36 101.725 108.99 102.015L112.46 103.625C112.89 103.825 113.2 104.215 113.3 104.685C113.4 105.145 113.26 105.635 112.95 105.985L110.03 109.255C109.75 109.575 109.34 109.755 108.91 109.755C108.67 109.755 108.44 109.695 108.23 109.595L104.55 107.715C103.72 107.295 102.98 106.745 102.33 106.085L72.8699 75.9151V78.7651C72.9499 80.5751 72.2699 84.2051 69.0699 84.6751C67.0599 84.9651 66.2099 85.0951 65.8699 85.1451V86.3151C65.8699 87.1651 65.4299 87.7851 64.9799 88.1751L64.9299 90.1651C64.9299 90.4851 64.7699 90.7651 64.5299 90.9351L64.3699 93.9751L64.0899 100.855C64.7299 101.365 64.8999 101.955 64.9399 102.355C65.0199 103.285 64.4599 103.975 64.3499 104.105C64.2399 104.235 64.0999 104.325 63.9399 104.385L62.7099 134.145C62.6599 134.695 62.6499 135.085 62.6499 135.095C62.6399 135.415 62.4699 135.685 62.2299 135.865L61.9199 140.615C62.3599 141.025 62.7099 141.655 62.7099 142.525C62.7099 143.185 62.4599 143.815 62.0099 144.345L74.3399 144.805C74.3999 144.805 74.4499 144.805 74.5099 144.825C74.6799 144.865 75.5799 145.095 76.2799 146.175C77.1599 147.535 77.2999 149.605 76.6999 152.315C76.3399 153.545 76.1099 154.245 75.9999 154.535L75.9599 155.395C75.9599 156.255 75.3199 156.755 74.7099 156.755C74.0999 156.755 73.4599 156.265 73.4599 155.345V155.295L59.6599 156.785C59.6599 157.285 59.5499 158.015 59.0599 158.585C58.7799 158.905 58.2699 159.285 57.4399 159.285L57.4199 159.275Z" fill="white"/>
<path d="M106.82 2.7251C106.94 2.7251 107.07 2.7651 107.16 2.8651L110.34 5.8851C110.5 6.0451 110.54 6.2851 110.43 6.4851L108.44 10.1051C108.05 10.8251 107.54 11.4651 106.94 12.0151L70.3897 45.6051L70.4597 45.6951L71.9997 45.1751C71.9997 45.1751 73.2197 45.5851 73.2197 46.6451V49.7851H73.7797V45.9851C73.7797 45.9851 73.8297 45.1751 75.1497 45.1751C76.4697 45.1751 76.3197 46.2951 76.3197 46.2951V53.8051H78.5497V46.3451C78.5497 46.3451 78.5497 45.0751 79.5097 45.0751H82.5897C82.6797 45.0751 82.7597 45.0951 82.8397 45.1351C83.0697 45.2651 83.5197 45.6051 83.5197 46.3951V62.3251C83.5197 62.3251 83.7697 63.4451 82.3997 63.4451H81.3297C81.3297 63.4451 81.4797 63.9551 80.6697 63.9551C79.9597 63.9551 73.6797 64.4251 72.1697 64.5351C71.9897 64.5451 71.8497 64.7051 71.8497 64.8851V67.6051C71.9997 67.6451 72.1597 67.6851 72.3197 67.7251C73.6397 68.0251 75.8197 69.7051 75.8197 69.7051L106.59 101.535C107.16 102.125 107.82 102.595 108.56 102.935L112.03 104.545C112.33 104.685 112.42 105.085 112.19 105.335L109.27 108.605C109.17 108.715 109.04 108.775 108.9 108.775C108.82 108.775 108.74 108.755 108.67 108.725L104.99 106.845C104.26 106.475 103.6 105.985 103.03 105.405L71.8497 73.4751V78.7751C71.8497 78.7751 72.0497 83.2351 68.9097 83.6951C65.7697 84.1551 65.4597 84.2051 65.4597 84.2051L64.8497 84.5751V86.3251C64.8497 87.2351 63.9697 87.6451 63.9697 87.6451L63.8997 90.1451H63.5397L63.3397 93.9351L63.0297 101.335C63.1497 101.435 63.2797 101.535 63.4197 101.645C64.4297 102.455 63.5597 103.475 63.5597 103.475L62.9397 103.625L61.6797 134.135C61.6297 134.675 61.6197 135.085 61.6197 135.085H61.2497L60.8597 141.155C61.0697 141.245 61.6797 141.575 61.6797 142.565C61.6797 143.435 61.0097 143.985 60.6597 144.215L60.6197 144.865C60.5997 145.115 60.7997 145.335 61.0497 145.345L74.2797 145.835C74.2797 145.835 76.9697 146.395 75.6997 152.125C75.2397 153.695 74.9897 154.355 74.9897 154.355L74.9397 155.365C74.9397 155.635 74.8097 155.775 74.6897 155.775C74.5697 155.775 74.4397 155.635 74.4397 155.365V154.195L59.4297 155.815L59.1297 153.985L58.5697 154.035L58.6197 156.415C58.6197 156.415 58.8897 158.295 57.4197 158.295C55.9497 158.295 56.2197 156.415 56.2197 156.415L56.2697 154.035L55.7097 153.985L55.4097 155.815L41.2597 154.195V155.365C41.2597 155.635 41.1297 155.775 41.0097 155.775C40.8897 155.775 40.7597 155.635 40.7597 155.365L40.7097 154.355C40.7097 154.355 40.4597 153.695 39.9997 152.125C38.7297 146.395 41.4197 145.835 41.4197 145.835L54.7597 145.345C55.0097 145.345 55.2097 145.125 55.1897 144.865L54.5597 135.075H54.1897C53.6497 135.075 53.1997 134.665 53.1597 134.125L49.7897 94.7851C49.7397 94.1751 50.2197 93.6551 50.8197 93.6551H50.8397L51.9697 93.6851L51.5397 85.4251C51.5297 85.1451 51.3497 84.9051 50.9797 84.7751L50.2797 84.5251C49.6797 84.3151 49.0597 84.1551 48.4397 84.0651C47.9297 83.9851 47.1397 83.8751 45.9497 83.7051C42.8097 83.2451 43.0097 78.7851 43.0097 78.7851V76.4951L12.7997 105.705C12.2097 106.275 11.7397 106.935 11.3997 107.675L9.78971 111.145C9.69971 111.335 9.51971 111.435 9.32971 111.435C9.20971 111.435 9.08971 111.395 8.99971 111.305L5.72971 108.385C5.55971 108.235 5.50971 107.985 5.61971 107.785L7.49971 104.105C7.86971 103.375 8.35971 102.715 8.93971 102.145L43.0097 68.8651V64.9051C43.0097 64.7251 42.8697 64.5651 42.6897 64.5551C41.1797 64.4451 34.8997 63.9751 34.1897 63.9751C33.3797 63.9751 33.5297 63.4651 33.5297 63.4651H32.4697C31.0997 63.4651 31.3497 62.3451 31.3497 62.3451V46.4151C31.3497 45.6251 31.7897 45.2851 32.0297 45.1551C32.1097 45.1151 32.1897 45.0951 32.2797 45.0951H35.3597C36.3197 45.0951 36.3197 46.3651 36.3197 46.3651V53.8251H38.5497V46.3151C38.5497 46.3151 38.3997 45.1951 39.7197 45.1951C41.0397 45.1951 41.0897 46.0051 41.0897 46.0051V49.8051H41.6497V46.6651C41.6497 45.9251 42.2297 45.5051 42.5897 45.3151C42.5897 45.2451 42.5897 45.3151 42.5897 45.2451C41.2797 44.9851 39.0197 43.2551 39.0197 43.2551L8.20971 11.4051C7.63971 10.8151 6.97972 10.3451 6.23972 10.0051L2.76971 8.3951C2.45971 8.2551 2.37971 7.8551 2.60971 7.6051L5.52972 4.3351C5.62972 4.2251 5.75971 4.1651 5.89971 4.1651C5.97971 4.1651 6.05971 4.1851 6.12971 4.2151L9.80971 6.0951C10.5397 6.4651 11.1997 6.9551 11.7697 7.5351L46.4297 43.0251L46.6397 42.7451V34.2551C46.3897 33.7551 45.9797 32.7851 45.9797 31.5651C45.9797 30.3451 46.3697 29.4851 46.6397 28.9851C46.6397 22.5651 48.0797 19.0051 49.4297 17.0751V16.3951C49.4297 16.3951 49.2297 15.7851 50.1397 15.7851C50.2697 15.7851 50.3997 15.7851 50.5197 15.7951C51.2597 15.1051 51.8097 14.9051 51.8097 14.9051V12.1151C51.8097 11.1351 52.5197 11.0451 52.7797 11.0451C52.8397 11.0451 52.8697 11.0451 52.8697 11.0451H53.8197V8.7451C53.8197 6.4151 55.1497 6.3051 55.3997 6.3051C55.4297 6.3051 55.4397 6.3051 55.4397 6.3051H59.3997C59.3997 6.3051 59.4097 6.3051 59.4397 6.3051C59.6897 6.3051 61.0197 6.4151 61.0197 8.7451V11.0451H61.9697C61.9697 11.0451 62.0097 11.0451 62.0597 11.0451C62.3197 11.0451 63.0297 11.1351 63.0297 12.1151V14.9051C63.0297 14.9051 63.5797 15.1051 64.3197 15.7951C64.4397 15.7951 64.5697 15.7851 64.6997 15.7851C65.6097 15.7851 65.4097 16.3951 65.4097 16.3951V17.0751C66.7597 19.0051 68.1897 22.5651 68.1997 28.9851C68.4697 29.4851 68.8597 30.4051 68.8597 31.5651C68.8597 32.7251 68.4597 33.7551 68.1997 34.2551V42.1251C68.2597 41.9451 68.3097 41.7551 68.3697 41.5551C68.7097 40.2451 70.4497 38.1151 70.4497 38.1151L103.2 8.3451C103.8 7.7951 104.3 7.1451 104.66 6.4151L106.37 2.9951C106.46 2.8151 106.64 2.7151 106.82 2.7151M106.82 0.725098C105.87 0.725098 105.01 1.2551 104.58 2.1051L102.87 5.5251C102.61 6.0351 102.27 6.4851 101.85 6.8751L70.1997 35.6651V34.7151C70.5097 33.9951 70.8597 32.8951 70.8597 31.5851C70.8597 30.2751 70.5397 29.2851 70.1997 28.5351C70.1397 23.4151 69.2097 19.3851 67.4297 16.5151C67.4897 15.9351 67.3297 15.3451 66.9897 14.8751C66.7297 14.5151 66.1497 13.9351 65.0597 13.8351C65.0597 13.8351 65.0397 13.8251 65.0397 13.8151V12.1451C65.0397 10.5751 64.1297 9.5851 63.0297 9.2251V8.7751C63.0297 5.2651 60.6897 4.3351 59.4497 4.3351C59.4297 4.3351 59.4097 4.3351 59.3797 4.3351H55.4797C55.4797 4.3351 55.4297 4.3351 55.4097 4.3351C54.6197 4.3351 53.8197 4.6451 53.2097 5.1751C52.2897 5.9751 51.8297 7.1851 51.8297 8.7751V9.2251C50.7297 9.5851 49.8197 10.5751 49.8197 12.1451V13.8151C49.8197 13.8151 49.7997 13.8251 49.7997 13.8351C48.7097 13.9351 48.1297 14.5151 47.8697 14.8751C47.5197 15.3551 47.3697 15.9451 47.4297 16.5151C45.6497 19.3851 44.7197 23.4151 44.6597 28.5351C44.3197 29.2951 43.9997 30.3351 43.9997 31.5851C43.9997 32.8351 44.3497 34.0051 44.6597 34.7151V38.3451L13.1997 6.1451C12.4797 5.4051 11.6397 4.7851 10.7197 4.3151L7.03971 2.4351C6.68971 2.2551 6.29971 2.1651 5.89971 2.1651C5.18971 2.1651 4.50971 2.4651 4.03971 2.9951L1.11971 6.2751C0.589715 6.8551 0.369715 7.6751 0.529715 8.4451C0.689715 9.2151 1.20971 9.8751 1.92971 10.2051L5.39971 11.8151C5.91971 12.0551 6.37972 12.3851 6.77972 12.7951L36.1597 43.1851C35.9097 43.1151 35.6297 43.0751 35.3297 43.0751H32.2497C31.8297 43.0751 31.4197 43.1751 31.0497 43.3751C29.9697 43.9651 29.3297 45.0851 29.3297 46.3951V62.1751C29.2597 62.8151 29.3797 63.6451 29.9297 64.3351C30.3297 64.8351 31.0997 65.4351 32.4497 65.4351H32.4797C32.8497 65.7051 33.3997 65.9451 34.1797 65.9451C34.5697 65.9451 37.2897 66.1351 41.0097 66.4051V67.9951L7.51971 100.685C6.77971 101.405 6.15971 102.245 5.68971 103.165L3.80971 106.845C3.29971 107.855 3.52972 109.085 4.36971 109.845L7.63971 112.765C8.09971 113.175 8.68971 113.405 9.30971 113.405C10.2797 113.405 11.1697 112.835 11.5797 111.955L13.1897 108.485C13.4297 107.965 13.7597 107.505 14.1697 107.105L41.2097 80.9651C41.6597 83.0051 42.8897 85.2451 45.6497 85.6451C46.8397 85.8151 47.6297 85.9351 48.1397 86.0051C48.6297 86.0751 49.1197 86.1951 49.5897 86.3651L49.8697 91.7851C49.3797 91.9451 48.9397 92.2351 48.5797 92.6151C48.0097 93.2351 47.7197 94.0851 47.7897 94.9251L51.1597 134.265C51.2497 135.295 51.8197 136.155 52.6497 136.635L53.0797 143.365L41.3397 143.795C41.2297 143.795 41.1197 143.815 41.0097 143.835C40.3097 143.985 39.3097 144.525 38.5997 145.615C37.5697 147.205 37.3797 149.525 38.0397 152.515C38.0397 152.555 38.0597 152.595 38.0697 152.645C38.3697 153.695 38.5897 154.355 38.7197 154.715L38.7497 155.395C38.7797 156.715 39.7597 157.735 40.9997 157.735C41.9097 157.735 42.6797 157.185 43.0297 156.385L54.2897 157.675C54.3997 158.185 54.6097 158.745 55.0297 159.225C55.6197 159.905 56.4597 160.275 57.4097 160.275C58.3597 160.275 59.1997 159.905 59.7897 159.225C60.2097 158.745 60.4197 158.185 60.5297 157.675L72.6497 156.365C73.0097 157.185 73.7797 157.735 74.6897 157.735C75.9297 157.735 76.9097 156.715 76.9397 155.395L76.9697 154.715C77.0897 154.355 77.3097 153.695 77.6197 152.645C77.6297 152.605 77.6397 152.565 77.6497 152.515C78.3097 149.535 78.1197 147.215 77.0897 145.615C76.3797 144.525 75.3797 143.975 74.6797 143.835C74.5697 143.815 74.4597 143.795 74.3497 143.795L63.5797 143.395C63.6497 143.115 63.6897 142.815 63.6897 142.525C63.6897 141.555 63.3697 140.805 62.9297 140.245L63.1797 136.295C63.4397 135.975 63.5997 135.575 63.6197 135.135C63.6197 135.115 63.6397 134.745 63.6797 134.265C63.6797 134.235 63.6797 134.205 63.6797 134.175L64.8897 104.935C64.9597 104.875 65.0197 104.815 65.0797 104.745C65.2397 104.565 66.0297 103.575 65.9097 102.245C65.8597 101.745 65.6797 101.055 65.0797 100.415L65.3497 93.9851L65.4897 91.3451C65.7397 91.0151 65.8997 90.6151 65.9097 90.1751L65.9497 88.5951C66.4597 88.0351 66.8497 87.2651 66.8497 86.2951V85.9851C67.3597 85.9151 68.0997 85.8051 69.1897 85.6451C73.0697 85.0851 73.9297 80.8851 73.8397 78.7051V78.3551L101.59 106.775C102.31 107.515 103.15 108.125 104.07 108.605L107.75 110.485C108.1 110.665 108.49 110.755 108.89 110.755C109.6 110.755 110.28 110.455 110.75 109.925L113.67 106.655C114.2 106.065 114.41 105.255 114.25 104.485C114.09 103.715 113.57 103.055 112.85 102.725L109.38 101.115C108.86 100.875 108.4 100.545 108 100.135L77.2297 68.3051C77.1597 68.2351 77.0897 68.1651 77.0097 68.1051C76.7097 67.8751 75.5497 67.0051 74.2997 66.3751C77.7697 66.1151 80.2797 65.9451 80.6497 65.9451C81.4197 65.9451 81.9697 65.7051 82.3497 65.4351H82.3797C83.7297 65.4351 84.4897 64.8351 84.8997 64.3351C85.4497 63.6551 85.5697 62.8151 85.4997 62.1751V46.3951C85.4997 45.0951 84.8597 43.9651 83.7797 43.3751C83.4197 43.1751 82.9997 43.0751 82.5797 43.0751H79.4997C78.5997 43.0751 77.8897 43.4451 77.3897 44.0051C77.0597 43.6951 76.5797 43.3851 75.9097 43.2551L108.29 13.4951C109.05 12.7951 109.69 11.9751 110.19 11.0751L112.18 7.4551C112.73 6.4651 112.53 5.2251 111.71 4.4451L108.53 1.4251C108.06 0.985098 107.45 0.735098 106.81 0.735098L106.82 0.725098Z" fill="black"/>
</g>
<defs>
<clipPath id="clip0_588_37">
<rect width="113.85" height="159.55" fill="white" transform="translate(0.479492 0.725098)"/>
</clipPath>
</defs>
</svg>
