<svg width="104" height="129" viewBox="0 0 104 129" fill="none" xmlns="http://www.w3.org/2000/svg">
<g clip-path="url(#clip0_555_7)">
<path d="M74.8796 127.336C74.8096 127.336 74.6596 127.316 74.5796 127.306C74.2196 127.226 58.4496 123.446 55.2696 122.676C55.2396 122.696 55.2096 122.706 55.1796 122.726C54.9396 123.146 54.5196 123.486 53.9296 123.486H50.4197C49.8297 123.486 49.4097 123.146 49.1697 122.726C49.1397 122.706 49.0996 122.696 49.0696 122.676C45.8496 123.436 29.7696 127.226 29.4096 127.306C29.3396 127.326 29.1896 127.336 29.1096 127.336C28.3996 127.336 27.8296 126.766 27.7296 125.946C27.7296 125.906 27.7296 125.866 27.7296 125.826V123.566C27.7296 120.616 30.0396 118.776 30.1396 118.696C30.3296 118.566 43.3497 109.636 46.1297 107.696C45.3097 102.056 45.1397 91.7155 45.0797 87.7755C45.0697 87.0855 45.0596 86.5655 45.0496 86.2855L44.2397 84.8155C39.5897 85.3455 3.61965 89.1455 2.98965 89.1655C1.96965 89.1655 1.41965 88.3955 1.38965 87.6655V84.2755C1.38965 77.5955 7.35965 74.6155 7.61965 74.4955L38.4496 59.8455C38.8796 59.6355 39.3096 59.3455 39.6996 58.9955C40.0396 58.6955 40.4996 58.3555 40.9096 58.0655C41.0896 57.9355 41.2496 57.8155 41.3896 57.7155C40.8896 52.3655 41.0197 49.2255 43.0597 48.9455C44.1297 48.7355 45.0496 48.6355 45.7996 48.6355C45.8196 45.6755 45.8996 36.0755 45.9996 27.6255C45.9996 27.1555 46.0296 26.6955 46.0696 26.2255C46.5296 21.0655 47.5897 14.0855 50.0597 10.0355C50.3297 9.27551 50.7296 8.84551 51.1096 8.59551C51.1096 6.97551 51.1297 3.03551 51.1297 2.86551C51.1297 2.11551 51.7096 1.67551 52.2496 1.64551C52.2696 1.64551 52.3396 1.64551 52.3596 1.64551C52.8996 1.67551 53.4796 2.11551 53.4796 2.86551C53.4796 3.03551 53.4896 6.98551 53.4996 8.59551C53.8796 8.83551 54.2796 9.26551 54.5496 10.0155L54.5896 10.0755C56.8796 13.6455 58.2297 19.3155 58.5997 26.9355C58.6997 35.5955 58.7897 45.6555 58.8097 48.6255C59.5697 48.6255 60.4796 48.7355 61.6096 48.9455C63.5996 49.2155 63.7296 52.3655 63.2296 57.7155L64.6697 58.9955C65.0497 59.3255 65.4696 59.6155 65.9196 59.8355L96.5696 74.9155C96.8196 75.0355 102.79 78.0155 102.79 84.6955V88.0355C102.76 88.8055 102.21 89.5855 101.25 89.5855C100.7 89.5655 75.3696 86.5855 60.1096 84.7955L59.3097 86.2455C59.2297 88.7355 58.8297 101.196 57.8697 107.666C60.6497 109.606 73.6796 118.536 73.8096 118.626C73.9596 118.736 76.2696 120.586 76.2696 123.526V125.786C76.2696 125.786 76.2696 125.866 76.2696 125.906C76.1696 126.726 75.6096 127.296 74.8896 127.296L74.8796 127.336Z" fill="white"/>
<path d="M52.2996 2.66527C52.2996 2.66527 52.4796 2.66527 52.4796 2.88527C52.4796 3.10527 52.4996 9.30527 52.4996 9.30527C52.5896 9.30527 53.2597 9.34527 53.6297 10.4853C54.0997 11.2553 56.9996 15.1253 57.5896 27.0153C57.7096 37.2653 57.8097 49.5253 57.8097 49.5253C57.8097 49.5253 57.7397 50.9053 57.9197 50.9053V49.9253C57.9197 49.9253 57.9597 49.6653 58.2797 49.6653C58.3897 49.6653 58.5496 49.6553 58.7996 49.6553C59.2696 49.6553 60.0596 49.6953 61.4096 49.9653C62.7396 50.1453 62.5697 54.0553 62.1897 57.9453C62.1797 58.0853 62.2297 58.2153 62.3297 58.3053C62.6797 58.6253 63.4397 59.2853 63.9897 59.7853C64.4297 60.1753 64.9296 60.5153 65.4596 60.7753L96.1096 75.8553C96.1096 75.8553 101.77 78.6053 101.77 84.7353V88.0753C101.77 88.0753 101.75 88.6253 101.23 88.6253C101.23 88.6253 101.21 88.6253 101.2 88.6253C100.68 88.6053 64.2297 84.3153 59.9496 83.8053C59.9296 83.8053 59.8997 83.8053 59.8797 83.8053C59.6597 83.8053 59.4496 83.9253 59.3396 84.1253L58.4096 85.8053C58.3296 85.9553 58.2897 86.1153 58.2797 86.2753C58.2197 88.2553 57.8097 101.465 56.8097 107.875C56.7797 108.055 56.8597 108.235 57.0097 108.345C59.1297 109.825 73.2196 119.495 73.2196 119.495C73.2196 119.495 75.2396 121.075 75.2396 123.575V125.835C75.2396 125.835 75.1796 126.345 74.8596 126.345C74.8396 126.345 74.8096 126.345 74.7796 126.345C74.3896 126.255 54.9496 121.595 54.9496 121.595C54.9496 121.595 54.9096 121.895 54.3896 121.895C54.3896 122.075 54.2497 122.505 53.8997 122.505H50.3896C50.0396 122.505 49.8997 122.075 49.8997 121.895C49.3797 121.895 49.3396 121.595 49.3396 121.595C49.3396 121.595 29.5496 126.265 29.1496 126.345C29.1196 126.345 29.0996 126.345 29.0696 126.345C28.7496 126.345 28.6896 125.835 28.6896 125.835V123.575C28.6896 121.085 30.7096 119.495 30.7096 119.495C30.7096 119.495 44.8097 109.825 46.9197 108.345C47.0697 108.235 47.1497 108.055 47.1197 107.875C46.1197 101.465 46.0597 88.2553 46.0097 86.2753C46.0097 86.1053 45.9597 85.9453 45.8797 85.8053L44.9496 84.1253C44.8396 83.9253 44.6396 83.8053 44.4096 83.8053C44.3896 83.8053 44.3596 83.8053 44.3396 83.8053C40.0596 84.3053 3.42965 88.1653 2.90965 88.1853C2.90965 88.1853 2.88965 88.1853 2.87965 88.1853C2.35965 88.1853 2.33965 87.6353 2.33965 87.6353V84.2953C2.33965 78.1653 7.99965 75.4153 7.99965 75.4153L38.8196 60.7753C39.3596 60.5153 39.8496 60.1753 40.2996 59.7753C40.8596 59.2853 41.8597 58.6253 42.2097 58.3053C42.3097 58.2153 42.3597 58.0753 42.3497 57.9453C41.9797 54.0553 41.7997 50.1453 43.1297 49.9653C44.4797 49.7053 45.2697 49.6553 45.7397 49.6553C45.9897 49.6553 46.1497 49.6653 46.2597 49.6653C46.5797 49.6653 46.6197 49.9253 46.6197 49.9253V50.9053C46.7997 50.9053 46.7296 49.5253 46.7296 49.5253C46.7296 49.5253 46.8197 37.7653 46.9397 27.6553C46.9397 27.2153 46.9697 26.7753 47.0097 26.3353C48.0197 14.9453 50.4496 11.2453 50.9096 10.4853C51.2796 9.34527 51.9496 9.30527 52.0396 9.30527C52.0396 9.30527 52.0597 3.10527 52.0597 2.88527C52.0597 2.66527 52.2397 2.66527 52.2397 2.66527M52.2996 0.665273C52.2996 0.665273 52.2297 0.665273 52.1897 0.665273C51.0297 0.725273 50.1197 1.70527 50.1197 2.88527C50.1197 3.04527 50.1097 6.32527 50.0997 8.12527C49.7197 8.48527 49.3896 8.96527 49.1396 9.61527C46.6096 13.8353 45.5297 20.9253 45.0597 26.1553C45.0197 26.6353 44.9897 27.1253 44.9897 27.6253C44.8997 35.2953 44.8296 44.0053 44.7996 47.6953C44.2196 47.7453 43.5697 47.8453 42.8497 47.9853C39.9097 48.4353 39.8897 52.3853 40.3297 57.2653C40.3297 57.2653 40.3197 57.2753 40.3097 57.2853C39.8797 57.5953 39.3997 57.9453 39.0297 58.2753C38.6997 58.5653 38.3497 58.7953 37.9897 58.9753L7.18965 73.6053C6.89965 73.7453 0.389648 76.9953 0.389648 84.2953V87.6353C0.389648 87.6353 0.389648 87.6953 0.389648 87.7253C0.439648 88.9153 1.34965 90.1853 2.92965 90.1853C2.94965 90.1853 3.00965 90.1853 3.02965 90.1853C3.68965 90.1653 36.7397 86.6753 43.6897 85.9053L44.0496 86.5653C44.0496 86.8653 44.0596 87.2853 44.0696 87.8153C44.1396 91.9853 44.2896 101.465 45.0496 107.235C41.4796 109.705 29.7496 117.755 29.6196 117.845C29.5896 117.865 29.5496 117.895 29.5196 117.915C29.2296 118.135 26.7296 120.195 26.7296 123.565V125.825C26.7296 125.905 26.7296 125.975 26.7396 126.055C26.8896 127.375 27.8896 128.335 29.1096 128.335C29.2796 128.335 29.4596 128.315 29.6296 128.275C29.9796 128.195 44.5097 124.775 48.7197 123.775C49.1397 124.195 49.7197 124.475 50.4197 124.475H53.9296C54.6296 124.475 55.1997 124.195 55.6297 123.775C60.0196 124.825 74.0296 128.185 74.3796 128.265C74.5496 128.305 74.7196 128.325 74.8996 128.325C76.1196 128.325 77.1196 127.365 77.2696 126.045C77.2696 125.965 77.2796 125.895 77.2796 125.815V123.555C77.2796 120.185 74.7696 118.125 74.4896 117.905C74.4596 117.875 74.4196 117.855 74.3896 117.835C74.2596 117.745 62.5297 109.705 58.9597 107.225C59.8397 100.735 60.2197 89.3953 60.3097 86.5553L60.6697 85.8953C100.56 90.5953 101.01 90.6153 101.16 90.6153C101.18 90.6153 101.23 90.6153 101.26 90.6153C102.84 90.6153 103.75 89.3453 103.8 88.1553C103.8 88.1253 103.8 88.0953 103.8 88.0653V84.7253C103.8 77.4253 97.2896 74.1753 97.0096 74.0453L66.3696 58.9653C65.9996 58.7853 65.6496 58.5553 65.3396 58.2753C65.0096 57.9853 64.6196 57.6353 64.2696 57.3253C64.7096 52.4153 64.7096 48.4253 61.7496 47.9753C61.0296 47.8353 60.3796 47.7453 59.7996 47.6853C59.7696 43.8853 59.6897 34.7953 59.5997 26.9753C59.5997 26.9453 59.5997 26.9253 59.5997 26.8953C59.2197 19.1253 57.8196 13.2953 55.4496 9.58527C55.2096 8.95527 54.8696 8.47527 54.4996 8.11527C54.4996 6.30527 54.4796 3.02527 54.4796 2.87527C54.4796 1.69527 53.5696 0.715273 52.4096 0.655273C52.3696 0.655273 52.3396 0.655273 52.2996 0.655273V0.665273Z" fill="black"/>
</g>
<defs>
<clipPath id="clip0_555_7">
<rect width="103.4" height="127.67" fill="white" transform="translate(0.379883 0.665039)"/>
</clipPath>
</defs>
</svg>
