<svg width="126" height="125" viewBox="0 0 126 125" fill="none" xmlns="http://www.w3.org/2000/svg">
<g clip-path="url(#clip0_546_2)">
<path d="M40.9098 123.11C40.1398 123.11 39.5098 122.49 39.4998 121.72L39.4498 118.34C39.3998 114.85 41.6798 113.75 42.1598 113.56C42.9498 113.18 55.7798 106.95 59.4598 105.2C53.6298 93.5198 53.3198 77.9198 53.3598 73.4998L53.0298 73.4798C53.2698 79.7198 52.2398 83.6798 51.8398 85.2198C51.7998 85.3898 51.7598 85.5298 51.7398 85.6198C51.4098 87.0998 50.3898 87.2198 50.0798 87.2198C49.9098 87.2198 49.7498 87.1898 49.6298 87.1498L48.5098 87.1698C48.5098 87.4798 48.5098 87.8698 48.5198 88.2998C48.5198 88.4998 48.5298 89.1098 48.1098 89.5398C47.8798 89.7698 47.5798 89.8998 47.2598 89.8998C46.6098 89.8998 46.0498 89.3798 45.6998 88.9498C45.6798 88.9198 45.6498 88.8898 45.6298 88.8598C44.6598 87.3698 44.0198 85.7398 43.7298 84.0098C42.9598 79.4298 42.8498 75.4998 42.9198 72.7698L8.19977 70.2998C8.09977 70.2998 8.01977 70.3198 7.95977 70.3598C6.35977 71.3798 4.48977 72.5998 4.00977 72.9498C3.67977 73.1998 3.33977 73.3198 2.99977 73.3198C2.24977 73.3198 1.64977 72.7198 1.54977 71.8498C1.54977 71.8098 1.54977 71.7798 1.54977 71.7398L1.50977 69.0098C1.50977 68.3998 1.71977 67.8198 2.12977 67.3698L4.44977 64.6798V63.8498C4.38977 60.7898 6.50977 59.7898 7.62977 59.6798L53.6298 52.9498L53.3698 34.5198C53.0898 14.5398 59.6698 1.5298 62.5598 1.2998C62.5898 1.2998 62.6698 1.2998 62.6798 1.2998C62.7198 1.2998 62.7598 1.2998 62.8098 1.3098C65.7998 1.8498 72.3798 14.6898 72.3798 34.3798V52.8098L118.52 58.8898C119.59 58.9698 121.72 59.9498 121.72 63.0098V63.8398L124.1 66.5098C124.5 66.9298 124.73 67.5098 124.73 68.1198V70.8498C124.73 70.8498 124.73 70.9198 124.73 70.9598C124.63 71.8398 124.04 72.4498 123.28 72.4498C122.95 72.4498 122.61 72.3298 122.28 72.0898C121.88 71.7998 120.39 70.8498 118.29 69.5598C118.22 69.5198 118.15 69.4998 118.08 69.4998L83.3698 72.4598C83.4798 75.1898 83.4298 79.1198 82.7198 83.7098C82.4498 85.4498 81.8398 87.0898 80.8898 88.5898C80.8698 88.6198 80.8498 88.6498 80.8298 88.6798C80.4798 89.1198 79.9298 89.6498 79.2698 89.6498C79.1398 89.6498 77.9998 89.6098 77.9998 88.0698C77.9998 87.6398 77.9998 87.2498 77.9998 86.9398H76.8798C76.7498 86.9798 76.5898 87.0098 76.4098 87.0098C76.1098 87.0098 75.0998 86.8998 74.7498 85.4398C74.7298 85.3398 74.6898 85.2098 74.6398 85.0398C74.2198 83.4998 73.1298 79.5598 73.2798 73.3198L72.9498 73.3498C73.0498 77.7698 72.9598 93.3798 67.2998 105.14C70.9998 106.83 83.9198 112.88 84.7098 113.25C85.1898 113.43 87.4798 114.5 87.4798 117.99V121.37C87.4798 122.15 86.8498 122.78 86.0698 122.78L69.4698 122.37C68.4798 122.35 67.5598 121.79 67.0798 120.92L65.3198 117.71L65.0398 121.15C64.9798 121.85 64.4598 122.57 63.5798 122.62C63.5598 122.62 63.5298 122.62 63.4998 122.62C62.5698 122.62 62.0198 121.89 61.9598 121.17L61.6298 117.74L59.9198 120.97C59.4498 121.85 58.5498 122.42 57.5598 122.46C57.5598 122.46 40.9598 123.11 40.9498 123.11H40.9098Z" fill="white"/>
<path d="M62.6302 2.31982C64.2202 2.36982 71.3602 13.5798 71.3602 34.3998V53.7098L118.37 59.8998C118.37 59.8998 120.7 60.0798 120.7 63.0298V63.9998C120.7 64.1598 120.76 64.3198 120.87 64.4398L123.32 67.1998C123.56 67.4598 123.7 67.7898 123.7 68.1498V70.8798C123.7 70.8798 123.63 71.4798 123.24 71.4798C123.13 71.4798 122.99 71.4298 122.82 71.3098C122.21 70.8698 119.75 69.3398 118.77 68.7398C118.55 68.5998 118.29 68.5298 118.03 68.5298C117.99 68.5298 117.95 68.5298 117.91 68.5298L82.2702 71.5698C82.4402 74.2998 82.4602 78.5298 81.6802 83.5798C81.4302 85.1798 80.8502 86.7098 79.9902 88.0798C79.9902 88.0798 79.5202 88.6798 79.2102 88.6798C79.0602 88.6798 78.9402 88.5398 78.9402 88.0998C78.9402 86.7998 78.9202 85.9698 78.9202 85.9698H76.6202C76.6202 85.9698 76.5002 86.0398 76.3402 86.0398C76.1202 86.0398 75.8203 85.8998 75.6602 85.2298C75.4302 84.2598 73.9002 79.7998 74.2602 72.2498L72.1602 72.4298C71.9902 72.4398 71.8702 72.5898 71.8702 72.7498C71.9602 75.2298 72.3102 92.6298 66.1802 105.05C66.0202 105.37 66.1502 105.75 66.4802 105.9C69.7302 107.38 84.2702 114.19 84.2702 114.19C84.2702 114.19 86.4302 114.88 86.4302 118.01V121.39C86.4302 121.62 86.2502 121.8 86.0202 121.8C86.0202 121.8 86.0202 121.8 86.0102 121.8L69.4502 121.39C68.8102 121.37 68.2202 121.02 67.9202 120.46L64.6402 114.49C64.6402 114.49 64.6102 114.46 64.6002 114.46C64.5802 114.46 64.5502 114.48 64.5502 114.51L64.0102 121.1C64.0102 121.1 63.9702 121.64 63.4702 121.65C62.9802 121.65 62.9302 121.1 62.9302 121.1L62.3002 114.52C62.3002 114.52 62.2702 114.47 62.2502 114.47C62.2302 114.47 62.2102 114.47 62.2002 114.5L59.0102 120.52C58.7102 121.09 58.1302 121.45 57.4902 121.48L40.9302 122.12C40.9302 122.12 40.9202 122.12 40.9102 122.12C40.6902 122.12 40.5102 121.94 40.5002 121.72L40.4502 118.34C40.4102 115.21 42.5602 114.49 42.5602 114.49C42.5602 114.49 57.0002 107.48 60.2302 105.95C60.5502 105.8 60.6802 105.41 60.5202 105.1C54.2102 92.7698 54.3202 75.3598 54.3702 72.8798C54.3702 72.7098 54.2402 72.5698 54.0802 72.5598L51.9802 72.4098C52.4402 79.9598 50.9802 84.4298 50.7602 85.4098C50.6102 86.0898 50.3002 86.2298 50.0802 86.2298C49.9202 86.2298 49.8102 86.1598 49.8102 86.1598L47.5102 86.1898C47.5102 86.1898 47.5102 87.0198 47.5302 88.3198C47.5302 88.7598 47.4202 88.8998 47.2702 88.8998C46.9602 88.8998 46.4902 88.3198 46.4902 88.3198C45.6102 86.9598 45.0102 85.4398 44.7402 83.8398C43.8902 78.7998 43.8502 74.5698 43.9802 71.8398L8.30024 69.3098C8.30024 69.3098 8.23024 69.3098 8.20024 69.3098C7.93024 69.3098 7.67024 69.3898 7.44024 69.5298C6.48024 70.1498 4.04024 71.7098 3.43024 72.1598C3.26024 72.2898 3.12024 72.3298 3.01024 72.3298C2.62024 72.3298 2.55024 71.7398 2.55024 71.7398L2.51024 69.0098C2.51024 68.6598 2.63024 68.3198 2.87024 68.0598L5.28024 65.2598C5.39024 65.1398 5.45024 64.9798 5.45024 64.8198V63.8498C5.39024 60.9098 7.72024 60.6898 7.72024 60.6898L54.6402 53.8298C54.6402 53.8298 54.4302 39.0298 54.3702 34.5298C54.0702 13.7098 61.0502 2.39982 62.6402 2.32982M62.6302 0.319824H62.6202C62.4602 0.319824 62.3002 0.339824 62.1602 0.369824C59.3302 1.00982 56.8602 7.23982 55.9002 9.97982C54.1902 14.8498 52.2002 23.0598 52.3602 34.5498L52.6102 52.0998L7.47024 58.6998C5.80024 58.8898 3.39024 60.3998 3.43024 63.8698V64.3198L1.36024 66.7198C0.790242 67.3498 0.490242 68.1698 0.500242 69.0198L0.540242 71.7498C0.540242 71.8198 0.540242 71.8998 0.550242 71.9698C0.720242 73.3298 1.75024 74.3098 3.00024 74.3098C3.56024 74.3098 4.10024 74.1198 4.61024 73.7398C4.98024 73.4698 6.40024 72.5398 8.34024 71.2898L41.9102 73.6798C41.8802 76.3898 42.0502 80.0098 42.7502 84.1598C43.0702 86.0298 43.7602 87.7898 44.8002 89.3898C44.8402 89.4498 44.8802 89.5098 44.9302 89.5598C45.4202 90.1598 46.2202 90.8798 47.2602 90.8798C47.8502 90.8798 48.4102 90.6498 48.8302 90.2298C49.3002 89.7498 49.5402 89.0898 49.5202 88.2798C49.5202 88.2398 49.5202 88.1898 49.5202 88.1498C49.6902 88.1898 49.8802 88.2098 50.0802 88.2098C51.0902 88.2098 52.3202 87.5898 52.7102 85.8298C52.7302 85.7398 52.7602 85.6198 52.8002 85.4598C52.8502 85.2698 52.9102 85.0498 52.9702 84.7898C53.6702 90.9098 55.1202 98.3198 58.1102 104.73C53.6702 106.86 42.8602 112.1 41.7702 112.63C40.4502 113.15 38.4002 114.86 38.4502 118.35L38.5002 121.73C38.5202 123.04 39.6002 124.1 40.9102 124.1C40.9402 124.1 40.9802 124.1 41.0102 124.1L57.5602 123.46C58.9102 123.41 60.1402 122.63 60.7702 121.44L60.9202 121.15V121.27C61.0302 122.36 61.9002 123.53 63.3102 123.62C63.3602 123.62 63.4202 123.62 63.4702 123.62H63.4802C63.5402 123.62 63.6102 123.62 63.6702 123.62C65.0802 123.52 65.9302 122.34 66.0102 121.24V121.12L66.1802 121.41C66.8302 122.59 68.0702 123.35 69.4202 123.38L85.9902 123.79C85.9902 123.79 86.0303 123.79 86.0502 123.79C87.3802 123.79 88.4602 122.71 88.4602 121.38V118C88.4602 114.51 86.3902 112.83 85.0602 112.33C83.9502 111.81 73.0802 106.72 68.6102 104.66C71.5102 98.2098 72.8602 90.7798 73.4702 84.6498C73.5402 84.9098 73.6002 85.1298 73.6502 85.3198C73.6902 85.4798 73.7302 85.5998 73.7502 85.6898C74.1602 87.4198 75.3802 88.0298 76.3802 88.0298C76.6002 88.0298 76.8002 87.9998 76.9802 87.9598V88.0898C76.9802 89.8598 78.1502 90.6698 79.2502 90.6698C80.3502 90.6698 81.1102 89.9298 81.6002 89.3198C81.6402 89.2698 81.6802 89.2098 81.7102 89.1598C82.7402 87.5298 83.4102 85.7598 83.6902 83.8898C84.3302 79.7298 84.4402 76.1098 84.3802 73.3998L117.91 70.5398C119.87 71.7498 121.3 72.6698 121.67 72.9298C122.17 73.2898 122.71 73.4798 123.25 73.4798C124.52 73.4798 125.55 72.4798 125.7 71.0998C125.7 71.0298 125.71 70.9598 125.71 70.8798V68.1498C125.71 67.2998 125.39 66.4798 124.81 65.8598L122.7 63.4898V63.0398C122.7 59.5698 120.27 58.0898 118.59 57.9298L73.3602 51.9698V34.4198C73.3602 22.9298 71.2402 14.7398 69.4702 9.89982C68.4702 7.16982 65.8902 0.939824 63.0502 0.379824C62.9202 0.349824 62.7802 0.339824 62.6402 0.339824L62.6302 0.319824Z" fill="#231F20"/>
</g>
<defs>
<clipPath id="clip0_546_2">
<rect width="125.2" height="123.79" fill="white" transform="translate(0.5 0.319824)"/>
</clipPath>
</defs>
</svg>
