<svg width="382" height="365" viewBox="0 0 382 365" fill="none" xmlns="http://www.w3.org/2000/svg">
<g clip-path="url(#clip0_703_33)">
<path d="M196.48 362.1C195.84 362.09 192.82 361.99 191 361.61C189.18 361.99 186.17 362.08 185.52 362.1C185.5 362.1 185.49 362.1 185.47 362.1C185.4 362.1 185.32 362.1 185.25 362.09C183.44 361.89 140.81 357.16 136.44 356.52C131.69 355.83 130.17 350.35 130.02 347.23V339.99C130.02 337.96 131.62 336.74 133.26 336.54L179.17 326.11C172.05 304.33 172.28 269.48 172.3 267.99V203.5L153.69 200.59C153.51 201.19 153.23 201.68 152.85 202.07C152.31 202.62 151.58 202.93 150.81 202.93C149.57 202.93 148.54 202.16 148.12 201.8L146.92 200.94C146.85 200.93 146.77 200.92 146.68 200.92C146.62 200.92 146.58 200.92 146.54 200.92C145.64 202.1 144.66 202.36 143.95 202.36C142.55 202.36 141.53 201.34 141.05 200.38C141.01 200.29 140.97 200.2 140.94 200.11L140.41 198.51L106.36 193.19C105.67 195.13 104.12 195.32 103.56 195.32C102.32 195.32 101.29 194.55 100.87 194.19L99.67 193.33C99.6 193.32 99.52 193.31 99.43 193.31C99.37 193.31 99.33 193.31 99.28 193.32C98.38 194.5 97.4 194.76 96.69 194.76C95.28 194.76 94.27 193.74 93.79 192.78C93.75 192.69 93.71 192.6 93.68 192.51L93.23 191.14C38.23 182.55 8.62 177.94 7.6 177.79C4.47 177.33 3.41 175.34 3.28 174.24C3.28 174.16 3.27 174.08 3.27 174.01V170.66C2.2 168.98 2 165.94 2 163.87C2 163.16 2.29 162.53 2.77 162.08V159.83C2.77 155.52 5.49 154.36 7.1 154.36C7.13 154.36 7.16 154.36 7.18 154.36L90.52 147.27V134.94C90.65 130.37 91.13 125.31 92.45 121.87C92.09 121.9 91.71 121.94 91.32 121.97C90.94 122 90.52 122.02 90.05 122.02C86.49 122.02 80.54 121.12 76.17 120.36C74.92 120.15 74.05 119.07 74.09 117.8C74.13 116.54 75.07 115.53 76.32 115.39C84.2 114.56 89.97 114.14 93.47 114.14H93.64C94.12 112.47 95.02 110.1 96.6 107.94C97.28 107.02 98.37 106.46 99.53 106.46C100.69 106.46 101.78 107.01 102.46 107.94C104.04 110.1 104.94 112.47 105.42 114.14C108.93 114.16 114.61 114.58 122.31 115.39C123.56 115.52 124.5 116.53 124.54 117.8C124.58 119.07 123.71 120.15 122.46 120.36C118.09 121.12 112.13 122.02 108.58 122.02C108.11 122.02 107.69 122 107.31 121.97C107.08 121.95 106.85 121.93 106.63 121.91C107.94 125.34 108.41 130.36 108.54 134.88V145.74L138.29 143.21V121.48C138.42 116.91 138.9 111.85 140.22 108.41C139.86 108.44 139.48 108.48 139.09 108.51C138.71 108.54 138.29 108.56 137.82 108.56C134.26 108.56 128.31 107.66 123.94 106.9C122.69 106.69 121.82 105.61 121.86 104.34C121.9 103.08 122.84 102.07 124.09 101.93C131.97 101.1 137.74 100.68 141.24 100.68H141.41C141.89 99.01 142.79 96.64 144.37 94.48C145.05 93.56 146.14 93 147.3 93C148.46 93 149.55 93.55 150.23 94.48C151.81 96.64 152.71 99.01 153.19 100.68C156.7 100.7 162.38 101.12 170.08 101.93C171.19 102.05 172.05 102.86 172.26 103.92V54.83C172.26 35.59 180.18 15.87 184.91 5.82999C186.03 3.45999 188.35 1.98999 190.96 1.98999C193.57 1.98999 195.9 3.45999 197.01 5.82999C201.73 15.87 209.66 35.6 209.66 54.83V103.92C209.87 102.86 210.73 102.05 211.84 101.93C219.53 101.12 225.21 100.7 228.73 100.68C229.21 99.01 230.11 96.64 231.69 94.48C232.37 93.56 233.46 93 234.62 93C235.78 93 236.87 93.55 237.55 94.48C239.13 96.64 240.03 99 240.51 100.68H240.68C244.18 100.68 249.94 101.1 257.83 101.93C259.08 102.06 260.02 103.07 260.06 104.34C260.1 105.61 259.23 106.69 257.98 106.9C253.61 107.66 247.65 108.56 244.09 108.56C243.62 108.56 243.2 108.54 242.82 108.51C242.43 108.48 242.05 108.44 241.69 108.41C243.01 111.84 243.49 116.89 243.62 121.42V143.21L273.37 145.74V134.94C273.5 130.39 273.98 125.35 275.29 121.91C275.07 121.93 274.84 121.95 274.61 121.97C274.23 122 273.81 122.02 273.34 122.02C269.78 122.02 263.83 121.12 259.45 120.36C258.2 120.15 257.33 119.07 257.37 117.8C257.41 116.54 258.35 115.53 259.6 115.39C267.29 114.58 272.97 114.16 276.49 114.14C276.97 112.47 277.87 110.1 279.46 107.94C280.14 107.02 281.23 106.46 282.39 106.46C283.55 106.46 284.64 107.01 285.32 107.94C286.9 110.1 287.8 112.46 288.29 114.14H288.46C291.96 114.14 297.73 114.56 305.61 115.39C306.86 115.52 307.8 116.53 307.84 117.8C307.88 119.07 307.01 120.15 305.76 120.36C301.39 121.12 295.43 122.02 291.88 122.02C291.41 122.02 290.99 122 290.61 121.97C290.22 121.94 289.84 121.9 289.48 121.87C290.8 125.3 291.28 130.35 291.41 134.88V147.27L374.76 154.36C374.79 154.36 374.81 154.36 374.84 154.36C376.45 154.36 379.17 155.51 379.17 159.83V162.09C379.65 162.54 379.94 163.16 379.94 163.87C379.94 165.94 379.74 168.98 378.67 170.66V174.01C378.67 174.09 378.67 174.16 378.66 174.24C378.53 175.34 377.48 177.33 374.34 177.79C373.33 177.94 343.73 182.55 288.71 191.14L288.26 192.51C288.23 192.6 288.19 192.69 288.15 192.78C287.67 193.74 286.66 194.76 285.25 194.76C284.54 194.76 283.56 194.49 282.66 193.32C282.62 193.32 282.57 193.31 282.51 193.31C282.42 193.31 282.34 193.32 282.27 193.33L281.07 194.19C280.65 194.55 279.62 195.32 278.38 195.32C277.81 195.32 276.27 195.13 275.58 193.19L241.53 198.51L241 200.11C240.97 200.2 240.93 200.29 240.89 200.38C240.41 201.34 239.4 202.36 237.99 202.36C237.28 202.36 236.3 202.09 235.4 200.92C235.36 200.92 235.31 200.92 235.25 200.92C235.16 200.92 235.08 200.92 235 200.94L233.8 201.8C233.38 202.16 232.35 202.93 231.11 202.93C230.33 202.93 229.61 202.63 229.07 202.07C228.69 201.68 228.41 201.2 228.23 200.59L209.62 203.5V268C209.63 269.47 209.87 304.32 202.75 326.1L248.66 336.53C250.3 336.73 251.9 337.95 251.9 339.98V347.13C251.75 350.35 250.23 355.82 245.48 356.51C241.11 357.15 198.48 361.88 196.67 362.08C196.6 362.08 196.52 362.09 196.45 362.09C196.43 362.09 196.42 362.09 196.4 362.09L196.48 362.1ZM154.43 108.46C155.74 111.89 156.21 116.91 156.34 121.43V141.68L172.29 140.32V104.93C172.09 105.93 171.31 106.72 170.26 106.9C165.89 107.66 159.93 108.56 156.38 108.56C155.91 108.56 155.49 108.54 155.11 108.51C154.88 108.49 154.65 108.47 154.43 108.45V108.46ZM225.65 141.68V121.49C225.78 116.94 226.26 111.9 227.57 108.46C227.35 108.48 227.12 108.5 226.89 108.52C226.51 108.55 226.09 108.57 225.62 108.57C222.06 108.57 216.11 107.67 211.73 106.91C210.68 106.73 209.9 105.94 209.7 104.94V140.33L225.65 141.69V141.68Z" fill="white"/>
<path d="M191 4C192.7 4 194.4 4.9 195.24 6.7C200.19 17.22 207.7 36.25 207.7 54.85V142.17L227.65 143.87V121.5C227.65 121.5 228.08 106.31 231.93 106.31V106.27L231.57 105.96C230.74 106.12 229.28 106.32 226.71 106.54C226.38 106.57 226.02 106.58 225.61 106.58C222.05 106.58 215.76 105.59 212.07 104.95C211.5 104.85 211.52 104 212.09 103.94C221.3 102.97 226.3 102.7 229.02 102.7C229.53 102.7 229.96 102.7 230.32 102.73C230.55 101.57 231.33 98.42 233.34 95.69C233.66 95.25 234.16 95.03 234.66 95.03C235.16 95.03 235.66 95.25 235.98 95.69C238 98.44 238.78 101.61 239 102.75C239.44 102.72 240 102.7 240.73 102.7C243.45 102.7 248.46 102.97 257.67 103.94C258.25 104 258.26 104.85 257.69 104.95C254 105.59 247.7 106.58 244.15 106.58C243.75 106.58 243.38 106.57 243.05 106.54C240.08 106.29 238.59 106.05 237.84 105.89L237.4 106.27V106.31C241.25 106.31 241.68 121.5 241.68 121.5V145.06L275.43 147.93V134.95C275.43 134.95 275.86 119.76 279.71 119.76V119.72L279.35 119.41C278.51 119.57 277.06 119.77 274.49 119.99C274.16 120.02 273.8 120.03 273.39 120.03C269.83 120.03 263.54 119.04 259.85 118.4C259.28 118.3 259.3 117.45 259.87 117.39C269.08 116.42 274.08 116.15 276.8 116.15C277.31 116.15 277.74 116.15 278.11 116.18C278.34 115.02 279.12 111.87 281.13 109.14C281.45 108.7 281.95 108.48 282.45 108.48C282.95 108.48 283.45 108.7 283.77 109.14C285.79 111.89 286.57 115.06 286.79 116.2C287.23 116.17 287.79 116.15 288.52 116.15C291.24 116.15 296.25 116.42 305.46 117.39C306.04 117.45 306.05 118.3 305.48 118.4C301.79 119.04 295.49 120.03 291.94 120.03C291.54 120.03 291.17 120.02 290.84 119.99C287.87 119.74 286.38 119.5 285.63 119.34L285.19 119.72V119.76C289.04 119.76 289.47 134.95 289.47 134.95V149.12L374.78 156.38C374.78 156.38 374.82 156.38 374.9 156.38C375.39 156.38 377.23 156.6 377.23 159.85V163.36C377.23 163.36 377.23 163.36 377.24 163.36C377.34 163.36 378 163.38 378 163.89C378 164.44 377.64 169.9 376.73 169.9V174.03C376.73 174.03 376.56 175.47 374.11 175.83C372.85 176.02 329.33 182.81 287.26 189.37L286.42 191.9C286.42 191.9 285.98 192.77 285.31 192.77C284.95 192.77 284.53 192.52 284.08 191.77C283.58 191.42 283.04 191.32 282.58 191.32C281.94 191.32 281.45 191.51 281.45 191.51L279.88 192.63C279.88 192.63 279.13 193.33 278.44 193.33C277.85 193.33 277.3 192.82 277.3 190.92C263.89 193.01 250.99 195.03 240.07 196.73L239.16 199.49C239.16 199.49 238.72 200.36 238.05 200.36C237.69 200.36 237.27 200.11 236.82 199.36C236.32 199.01 235.78 198.91 235.32 198.91C234.68 198.91 234.19 199.1 234.19 199.1L232.62 200.22C232.62 200.22 231.87 200.92 231.18 200.92C230.57 200.92 230 200.37 230.04 198.29C217.1 200.31 208.75 201.61 208.75 201.61C208.75 201.61 208.15 201.79 207.69 202.25V267.99C207.69 267.99 208.03 304.4 200.72 326.06C200.53 326.96 201.45 327.83 201.45 327.83L248.4 338.5C248.4 338.5 249.97 338.63 249.97 339.97V347.12C249.97 347.12 249.65 353.88 245.26 354.52C240.87 355.16 196.52 360.08 196.52 360.08C196.52 360.08 192.5 359.98 190.99 359.54C189.48 359.99 185.46 360.08 185.46 360.08C185.46 360.08 141.11 355.16 136.72 354.52C132.33 353.88 132.01 347.12 132.01 347.12V339.97C132.01 338.62 133.58 338.5 133.58 338.5L180.53 327.83C180.53 327.83 181.45 326.96 181.25 326.06C173.94 304.4 174.28 267.99 174.28 267.99V202.25C173.82 201.79 173.22 201.61 173.22 201.61C173.22 201.61 164.87 200.31 151.93 198.29C151.97 200.37 151.4 200.92 150.79 200.92C150.1 200.92 149.35 200.22 149.35 200.22L147.78 199.1C147.78 199.1 147.29 198.91 146.65 198.91C146.19 198.91 145.65 199.01 145.15 199.36C144.69 200.12 144.27 200.36 143.92 200.36C143.25 200.36 142.81 199.49 142.81 199.49L141.9 196.73C130.98 195.03 118.08 193.01 104.67 190.92C104.67 192.82 104.12 193.33 103.53 193.33C102.84 193.33 102.09 192.63 102.09 192.63L100.52 191.51C100.52 191.51 100.03 191.32 99.3895 191.32C98.9295 191.32 98.3895 191.42 97.8895 191.77C97.4295 192.53 97.0095 192.77 96.6595 192.77C95.9895 192.77 95.5495 191.9 95.5495 191.9L94.7095 189.37C52.6395 182.8 9.11953 176.01 7.85953 175.83C5.40953 175.47 5.23953 174.03 5.23953 174.03V169.9C4.32953 169.9 3.96953 164.44 3.96953 163.89C3.96953 163.38 4.61953 163.36 4.72953 163.36H4.73953V159.85C4.73953 156.6 6.57953 156.38 7.06953 156.38C7.14953 156.38 7.18953 156.38 7.18953 156.38L92.4995 149.12V134.95C92.4995 134.95 92.9295 119.76 96.7795 119.76V119.72L96.3395 119.34C95.5895 119.51 94.0995 119.74 91.1295 119.99C90.7995 120.02 90.4395 120.03 90.0295 120.03C86.4695 120.03 80.1795 119.04 76.4895 118.4C75.9195 118.3 75.9395 117.45 76.5095 117.39C85.7195 116.42 90.7295 116.15 93.4495 116.15C94.1795 116.15 94.7395 116.17 95.1795 116.2C95.4095 115.06 96.1895 111.89 98.1995 109.14C98.5195 108.7 99.0195 108.48 99.5195 108.48C100.02 108.48 100.51 108.7 100.84 109.14C102.84 111.87 103.63 115.02 103.86 116.18C104.22 116.16 104.65 116.15 105.17 116.15C107.89 116.15 112.89 116.42 122.1 117.39C122.68 117.45 122.69 118.3 122.12 118.4C118.43 119.04 112.13 120.03 108.58 120.03C108.18 120.03 107.81 120.02 107.48 119.99C104.92 119.77 103.46 119.57 102.62 119.41L102.26 119.72V119.76C106.11 119.76 106.54 134.95 106.54 134.95V147.93L140.29 145.06V121.5C140.29 121.5 140.72 106.31 144.57 106.31V106.27L144.13 105.89C143.38 106.06 141.89 106.29 138.92 106.54C138.59 106.57 138.23 106.58 137.82 106.58C134.26 106.58 127.97 105.59 124.28 104.95C123.71 104.85 123.73 104 124.3 103.94C133.51 102.97 138.52 102.7 141.24 102.7C141.97 102.7 142.53 102.72 142.97 102.75C143.2 101.61 143.98 98.44 145.99 95.69C146.31 95.25 146.81 95.03 147.31 95.03C147.81 95.03 148.3 95.25 148.63 95.69C150.64 98.42 151.42 101.57 151.65 102.73C152.01 102.71 152.44 102.7 152.95 102.7C155.67 102.7 160.67 102.97 169.88 103.94C170.46 104 170.47 104.85 169.9 104.95C166.21 105.59 159.91 106.58 156.36 106.58C155.96 106.58 155.59 106.57 155.26 106.54C152.7 106.32 151.24 106.12 150.4 105.96L150.04 106.27V106.31C153.89 106.31 154.32 121.5 154.32 121.5V143.87L174.27 142.17V54.85C174.27 36.25 181.78 17.22 186.73 6.7C187.58 4.9 189.27 4 190.97 4M191 0C187.6 0 184.58 1.91 183.14 4.99C178.35 15.18 170.3 35.22 170.3 54.84V99.95C163.53 99.24 158.29 98.82 154.69 98.71C154.11 97.07 153.21 95.12 151.87 93.3C150.82 91.86 149.12 91.01 147.33 91.01C145.54 91.01 143.84 91.87 142.79 93.3C141.46 95.12 140.56 97.06 139.98 98.7C136.36 98.78 130.97 99.2 123.91 99.95C121.66 100.19 119.97 102.01 119.89 104.28C119.81 106.56 121.39 108.49 123.62 108.88C127.95 109.63 133.83 110.52 137.55 110.56C137.31 111.62 137.16 112.58 137.06 113.28C136.44 117.28 136.32 121.21 136.32 121.37C136.32 121.41 136.32 121.45 136.32 121.48V141.37L110.57 143.56V134.94C110.57 134.94 110.57 134.86 110.57 134.83C110.57 134.66 110.45 130.74 109.83 126.74C109.72 126.04 109.57 125.08 109.34 124.02C113.07 123.92 118.67 123.07 122.84 122.34C125.08 121.95 126.65 120.02 126.58 117.74C126.5 115.47 124.81 113.65 122.56 113.41C115.78 112.69 110.53 112.28 106.92 112.17C106.34 110.53 105.44 108.58 104.1 106.76C103.05 105.32 101.35 104.47 99.5595 104.47C97.7695 104.47 96.0695 105.33 95.0195 106.76C93.6895 108.58 92.7895 110.52 92.2095 112.16C88.5895 112.24 83.1995 112.66 76.1395 113.41C73.8895 113.65 72.1995 115.47 72.1195 117.74C72.0395 120.02 73.6195 121.95 75.8495 122.34C80.1795 123.09 86.0595 123.98 89.7795 124.02C89.5395 125.08 89.3895 126.04 89.2895 126.74C88.6695 130.74 88.5495 134.67 88.5495 134.83C88.5495 134.87 88.5495 134.91 88.5495 134.94V145.44L7.12953 152.37C6.27953 152.37 4.62953 152.57 3.12953 153.89C2.05953 154.83 0.789531 156.63 0.789531 159.84V161.38C0.299531 162.09 0.0195312 162.95 0.0195312 163.88C0.0195312 164.39 0.129531 166.09 0.349531 167.66C0.469531 168.47 0.669531 169.91 1.28953 171.21V174.03C1.28953 174.18 1.28953 174.34 1.31953 174.49C1.57953 176.72 3.53953 179.23 7.32953 179.79C8.02953 179.89 23.3095 182.27 91.7295 192.95L91.7995 193.16C91.8595 193.34 91.9295 193.52 92.0195 193.7C92.7695 195.19 94.3895 196.79 96.6995 196.79C97.4095 196.79 98.5295 196.63 99.6495 195.79C100.35 196.38 101.77 197.34 103.57 197.34C103.92 197.34 106.05 197.26 107.46 195.41L138.91 200.32L139.06 200.76C139.12 200.94 139.19 201.12 139.28 201.3C140.03 202.79 141.65 204.39 143.96 204.39C144.67 204.39 145.79 204.23 146.91 203.39C147.61 203.98 149.03 204.94 150.83 204.94C152.15 204.94 153.38 204.42 154.3 203.48C154.51 203.27 154.69 203.04 154.85 202.81L170.31 205.22V268.01C170.3 269.43 170.07 302.49 176.63 324.64L132.91 334.58C130.48 334.94 128.03 336.89 128.03 340V347.15C128.03 347.21 128.03 347.28 128.03 347.34C128.21 351.07 130.12 357.63 136.16 358.51C140.57 359.15 183.23 363.89 185.04 364.09C185.19 364.11 185.33 364.11 185.48 364.11C185.51 364.11 185.54 364.11 185.58 364.11C186.46 364.09 189.07 364 191.01 363.66C192.95 364 195.56 364.09 196.44 364.11C196.47 364.11 196.5 364.11 196.54 364.11C196.69 364.11 196.83 364.11 196.98 364.09C198.79 363.89 241.45 359.16 245.86 358.51C251.9 357.63 253.81 351.07 253.99 347.34C253.99 347.28 253.99 347.21 253.99 347.15V340C253.99 336.89 251.54 334.94 249.11 334.58L205.39 324.64C211.95 302.49 211.72 269.43 211.71 267.97V205.21L227.17 202.8C227.33 203.03 227.51 203.26 227.72 203.47C228.64 204.41 229.87 204.93 231.19 204.93C232.99 204.93 234.41 203.97 235.11 203.38C236.23 204.21 237.35 204.38 238.06 204.38C240.38 204.38 242 202.79 242.74 201.29C242.83 201.12 242.9 200.94 242.96 200.76L243.11 200.32L274.56 195.41C275.97 197.27 278.1 197.34 278.45 197.34C280.25 197.34 281.67 196.38 282.37 195.79C283.49 196.62 284.61 196.79 285.32 196.79C287.64 196.79 289.26 195.2 290 193.7C290.09 193.53 290.16 193.35 290.22 193.17L290.29 192.96C358.71 182.28 373.99 179.9 374.69 179.8C378.48 179.24 380.44 176.74 380.7 174.5C380.72 174.35 380.73 174.19 380.73 174.04V171.22C381.35 169.92 381.55 168.48 381.67 167.67C381.89 166.11 382 164.41 382 163.89C382 162.96 381.72 162.1 381.23 161.39V159.85C381.23 154.72 377.95 152.38 374.9 152.38L293.48 145.45V134.95C293.48 134.95 293.48 134.87 293.48 134.84C293.48 134.67 293.36 130.75 292.74 126.75C292.63 126.06 292.48 125.1 292.25 124.03C295.97 123.98 301.85 123.09 306.18 122.35C308.42 121.96 309.99 120.03 309.92 117.75C309.85 115.48 308.16 113.66 305.9 113.42C298.84 112.67 293.44 112.25 289.83 112.17C289.25 110.53 288.35 108.59 287.02 106.77C285.97 105.33 284.27 104.48 282.48 104.48C280.69 104.48 278.99 105.34 277.94 106.77C276.6 108.59 275.71 110.54 275.13 112.18C271.52 112.29 266.28 112.7 259.49 113.42C257.24 113.66 255.55 115.48 255.47 117.75C255.39 120.03 256.97 121.96 259.2 122.35C263.37 123.07 268.97 123.92 272.7 124.03C272.46 125.1 272.31 126.06 272.21 126.75C271.59 130.75 271.47 134.68 271.47 134.84C271.47 134.88 271.47 134.92 271.47 134.95V143.57L245.72 141.38V121.49C245.72 121.49 245.72 121.41 245.72 121.38C245.72 121.21 245.6 117.29 244.98 113.29C244.87 112.6 244.72 111.64 244.49 110.57C248.21 110.52 254.09 109.63 258.42 108.89C260.66 108.5 262.23 106.57 262.16 104.29C262.08 102.02 260.39 100.2 258.14 99.96C251.08 99.21 245.68 98.79 242.07 98.71C241.49 97.07 240.59 95.13 239.26 93.31C238.21 91.87 236.51 91.02 234.72 91.02C232.93 91.02 231.23 91.88 230.18 93.31C228.84 95.13 227.95 97.08 227.37 98.72C223.77 98.83 218.53 99.24 211.76 99.96V54.85C211.76 35.22 203.72 15.19 198.92 5C197.47 1.92 194.46 0.01 191.06 0.01L191 0ZM211.7 138.49V108.94C215.83 109.65 221.25 110.46 224.89 110.56C224.65 111.63 224.5 112.59 224.4 113.28C223.78 117.28 223.66 121.21 223.66 121.37C223.66 121.41 223.66 121.45 223.66 121.48V139.5L211.71 138.48L211.7 138.49ZM157.11 110.56C160.75 110.46 166.16 109.65 170.3 108.94V138.49L158.35 139.51V121.49C158.35 121.49 158.35 121.41 158.35 121.38C158.35 121.21 158.23 117.29 157.61 113.29C157.5 112.59 157.35 111.63 157.12 110.57L157.11 110.56Z" fill="black"/>
</g>
<defs>
<clipPath id="clip0_703_33">
<rect width="382" height="364.1" fill="white"/>
</clipPath>
</defs>
</svg>
