<svg width="383" height="371" viewBox="0 0 383 371" fill="none" xmlns="http://www.w3.org/2000/svg">
<g clip-path="url(#clip0_704_38)">
<path d="M191.1 368.78C189.44 368.78 188.19 368.32 187.37 367.4C187.27 367.29 187.19 367.18 187.11 367.07C180.07 366.73 147.08 365.11 142.34 364.8C135.77 364.38 133.63 358.73 133.55 358.49C133.47 358.27 133.43 358.04 133.43 357.8V348.71C133.43 341.5 140.45 338.77 140.74 338.66C140.89 338.6 141.05 338.56 141.21 338.54C153.58 337.08 171.44 334.94 177.64 334.11C171.47 311.31 169.96 276.58 169.89 275.07V203.24C152.62 201.92 20.78 191.87 13.42 191.34C5.96 190.8 2.72 184.65 2.04 181.46C2.01 181.33 2 181.19 2 181.05V172.19C2 165.28 7.51 162.89 10.42 162.59L89.73 155.94V137.26C89.73 137.19 89.73 137.13 89.73 137.06C89.86 135.78 90.75 134.01 92.67 133.3C91.84 133.33 91.01 133.34 90.18 133.34C84.33 133.34 79.21 132.67 74.97 131.34C73.72 130.95 72.95 129.77 73.09 128.48C73.23 127.2 74.22 126.22 75.51 126.1C77.77 125.9 80.43 125.79 83.4 125.79C87.58 125.79 91.64 125.99 94.35 126.17C95.1 123.98 96.61 120.87 99.44 120.87C102.27 120.87 103.78 123.99 104.53 126.17C107.24 126 111.31 125.79 115.48 125.79C118.46 125.79 121.11 125.89 123.37 126.1C124.66 126.22 125.65 127.19 125.79 128.48C125.93 129.78 125.16 130.95 123.91 131.34C119.67 132.67 114.55 133.34 108.7 133.34C107.87 133.34 107.04 133.33 106.21 133.3C108.13 134.01 109.02 135.78 109.15 137.06C109.15 137.13 109.15 137.19 109.15 137.26V154.31L134.53 152.18V124.53C134.53 124.46 134.53 124.4 134.53 124.33C134.66 123.05 135.55 121.28 137.47 120.57C136.64 120.6 135.81 120.61 134.98 120.61C129.13 120.61 124.01 119.94 119.77 118.61C118.52 118.22 117.75 117.04 117.89 115.74C118.03 114.46 119.02 113.48 120.31 113.37C122.57 113.17 125.22 113.06 128.2 113.06C132.37 113.06 136.44 113.27 139.15 113.44C139.9 111.25 141.41 108.14 144.24 108.14C147.07 108.14 148.58 111.26 149.33 113.44C152.04 113.27 156.11 113.06 160.28 113.06C163.26 113.06 165.91 113.16 168.17 113.37C169.11 113.45 169.9 114.01 170.31 114.8V101.44C168.03 100.45 166.71 97.89 166.24 96.24C166.19 96.06 166.16 95.88 166.16 95.69V56.77C166.16 52.71 169.21 50.77 171.54 50.05C171.77 47.18 172.58 44.5 173.96 42.04C174.09 41.8 174.17 41.54 174.17 41.28C174.44 18.85 184.6 1.97 191.04 1.97C197.48 1.97 207.64 18.85 207.91 41.28C207.91 41.54 207.99 41.8 208.12 42.04C209.5 44.5 210.31 47.18 210.54 50.05C212.88 50.76 215.92 52.71 215.92 56.77V95.69C215.92 95.88 215.89 96.06 215.84 96.24C215.37 97.89 214.05 100.45 211.77 101.44V114.8C212.18 114 212.96 113.45 213.91 113.37C216.17 113.17 218.82 113.06 221.8 113.06C225.97 113.06 230.04 113.27 232.75 113.44C233.5 111.25 235.01 108.14 237.84 108.14C240.67 108.14 242.18 111.26 242.93 113.44C245.64 113.27 249.71 113.06 253.88 113.06C256.86 113.06 259.51 113.16 261.77 113.37C263.05 113.48 264.05 114.46 264.19 115.74C264.33 117.04 263.56 118.21 262.31 118.6C258.07 119.93 252.95 120.6 247.1 120.6C246.27 120.6 245.44 120.59 244.61 120.56C246.53 121.27 247.43 123.04 247.55 124.32C247.55 124.39 247.55 124.45 247.55 124.52V152.17L272.93 154.3V137.25C272.93 137.18 272.93 137.12 272.93 137.05C273.06 135.77 273.95 134 275.87 133.29C275.04 133.32 274.21 133.33 273.38 133.33C267.53 133.33 262.41 132.66 258.17 131.33C256.92 130.94 256.15 129.76 256.29 128.47C256.43 127.19 257.42 126.21 258.71 126.09C260.97 125.89 263.63 125.78 266.6 125.78C270.78 125.78 274.84 125.98 277.55 126.16C278.3 123.97 279.81 120.86 282.64 120.86C285.47 120.86 286.98 123.98 287.73 126.16C290.44 125.99 294.51 125.78 298.68 125.78C301.66 125.78 304.31 125.88 306.57 126.09C307.86 126.21 308.85 127.18 308.99 128.47C309.13 129.77 308.36 130.94 307.11 131.33C302.87 132.66 297.75 133.33 291.9 133.33C291.07 133.33 290.24 133.32 289.41 133.29C291.33 134 292.22 135.77 292.35 137.05C292.35 137.12 292.35 137.18 292.35 137.25V155.93L371.62 162.57C374.57 162.87 380.08 165.27 380.08 172.17V181.03C380.08 181.17 380.07 181.31 380.04 181.44C379.37 184.62 376.13 190.78 368.67 191.32C361.31 191.85 229.47 201.9 212.2 203.22V274.97C212.14 276.56 210.62 311.29 204.45 334.09C210.64 334.92 228.5 337.06 240.88 338.52C241.04 338.54 241.2 338.58 241.35 338.64C241.65 338.75 248.66 341.48 248.66 348.69V357.78C248.66 358.01 248.62 358.25 248.54 358.47C248.45 358.71 246.31 364.36 239.75 364.78C235 365.08 202.01 366.7 194.98 367.05C194.9 367.16 194.81 367.27 194.72 367.38C193.9 368.3 192.65 368.76 190.99 368.76L191.1 368.78ZM228.19 150.57V124.55C228.19 124.48 228.19 124.42 228.19 124.35C228.32 123.07 229.21 121.3 231.13 120.59C230.3 120.62 229.47 120.63 228.64 120.63C222.79 120.63 217.67 119.96 213.43 118.63C212.71 118.4 212.15 117.92 211.83 117.29V149.19L228.18 150.56L228.19 150.57ZM151.05 120.6C152.97 121.31 153.87 123.08 153.99 124.36C153.99 124.43 153.99 124.49 153.99 124.56V150.58L170.34 149.21V117.31C170.02 117.93 169.46 118.42 168.74 118.65C164.5 119.98 159.38 120.65 153.53 120.65C152.7 120.65 151.87 120.64 151.04 120.61L151.05 120.6Z" fill="white"/>
<path d="M191.1 4C195.36 4 205.7 18.55 205.97 41.34C205.97 41.94 206.14 42.53 206.44 43.06C207.33 44.63 208.67 47.59 208.67 51.75C209.37 51.75 213.99 52.55 213.99 56.8V95.72C213.99 95.72 212.8 99.88 209.84 99.88V151.03L230.19 152.74V124.55C230.19 124.55 230.42 122.28 232.99 122.28C232.99 122.28 233.17 120.59 233.59 118.47C232.29 118.56 230.6 118.64 228.66 118.64C224.37 118.64 218.91 118.25 214.04 116.73C213.32 116.51 213.41 115.46 214.16 115.39C216.58 115.17 219.25 115.09 221.87 115.09C226.86 115.09 231.68 115.38 234.27 115.57C235.05 112.77 236.23 110.16 237.91 110.16C239.59 110.16 240.77 112.77 241.55 115.57C244.14 115.38 248.96 115.09 253.95 115.09C256.57 115.09 259.24 115.17 261.66 115.39C262.41 115.46 262.5 116.5 261.78 116.73C256.91 118.25 251.45 118.64 247.16 118.64C245.22 118.64 243.52 118.56 242.23 118.47C242.64 120.59 242.83 122.28 242.83 122.28C245.4 122.28 245.63 124.55 245.63 124.55V154.04L275.01 156.5V137.27C275.01 137.27 275.24 135 277.81 135C277.81 135 277.99 133.31 278.41 131.19C277.11 131.28 275.42 131.36 273.48 131.36C269.19 131.36 263.73 130.97 258.86 129.45C258.14 129.23 258.23 128.18 258.98 128.11C261.4 127.89 264.07 127.81 266.69 127.81C271.68 127.81 276.5 128.1 279.09 128.29C279.87 125.49 281.05 122.88 282.73 122.88C284.41 122.88 285.59 125.49 286.37 128.29C288.96 128.1 293.78 127.81 298.77 127.81C301.39 127.81 304.06 127.89 306.48 128.11C307.23 128.18 307.32 129.22 306.6 129.45C301.73 130.97 296.27 131.36 291.98 131.36C290.04 131.36 288.34 131.28 287.05 131.19C287.46 133.31 287.65 135 287.65 135C290.22 135 290.45 137.27 290.45 137.27V157.79L371.55 164.59C371.55 164.59 378.18 165.27 378.18 172.2V181.06C378.18 181.06 376.55 188.78 368.62 189.35C360.69 189.92 210.3 201.39 210.3 201.39V275C210.3 275 208.71 313.05 202.01 335.77C204.17 336.22 240.74 340.54 240.74 340.54C240.74 340.54 246.76 342.81 246.76 348.72V357.81C246.76 357.81 245.06 362.47 239.72 362.81C234.38 363.15 193.66 365.14 193.66 365.14C193.66 365.14 193.85 366.79 191.09 366.79C188.33 366.79 188.52 365.14 188.52 365.14C188.52 365.14 147.8 363.15 142.46 362.81C137.12 362.47 135.42 357.81 135.42 357.81V348.72C135.42 342.81 141.44 340.54 141.44 340.54C141.44 340.54 178.02 336.22 180.17 335.77C173.47 313.05 171.88 275 171.88 275V201.39C171.88 201.39 21.4899 189.92 13.5599 189.35C5.62994 188.78 3.99994 181.06 3.99994 181.06V172.2C3.99994 165.27 10.6299 164.59 10.6299 164.59L91.7299 157.79V137.27C91.7299 137.27 91.9599 135 94.5299 135C94.5299 135 94.7099 133.31 95.1299 131.19C93.8299 131.28 92.1399 131.36 90.1999 131.36C85.9099 131.36 80.4499 130.97 75.5799 129.45C74.8599 129.23 74.9499 128.18 75.6999 128.11C78.1199 127.89 80.7899 127.81 83.4099 127.81C88.3999 127.81 93.2199 128.1 95.8099 128.29C96.5899 125.49 97.7699 122.88 99.4499 122.88C101.13 122.88 102.31 125.49 103.09 128.29C105.68 128.1 110.5 127.81 115.49 127.81C118.11 127.81 120.78 127.89 123.2 128.11C123.95 128.18 124.04 129.22 123.32 129.45C118.45 130.97 112.99 131.36 108.7 131.36C106.76 131.36 105.06 131.28 103.77 131.19C104.19 133.31 104.37 135 104.37 135C106.94 135 107.17 137.27 107.17 137.27V156.5L136.55 154.04V124.55C136.55 124.55 136.78 122.28 139.35 122.28C139.35 122.28 139.53 120.59 139.95 118.47C138.65 118.56 136.96 118.64 135.02 118.64C130.73 118.64 125.27 118.25 120.4 116.73C119.68 116.51 119.77 115.46 120.52 115.39C122.94 115.17 125.61 115.09 128.23 115.09C133.22 115.09 138.04 115.38 140.63 115.57C141.41 112.77 142.59 110.16 144.27 110.16C145.95 110.16 147.13 112.77 147.91 115.57C150.5 115.38 155.32 115.09 160.31 115.09C162.93 115.09 165.6 115.17 168.02 115.39C168.77 115.46 168.86 116.5 168.14 116.73C163.27 118.25 157.81 118.64 153.52 118.64C151.58 118.64 149.88 118.56 148.59 118.47C149 120.59 149.19 122.28 149.19 122.28C151.76 122.28 151.99 124.55 151.99 124.55V152.74L172.34 151.03V99.88C169.39 99.88 168.19 95.72 168.19 95.72V56.8C168.19 52.54 172.81 51.75 173.51 51.75C173.51 47.58 174.85 44.63 175.74 43.06C176.04 42.54 176.2 41.94 176.21 41.34C176.49 18.56 186.83 4 191.08 4M191.1 -4.27291e-06C185.22 -4.27291e-06 180.38 8.66 178.57 12.38C174.62 20.51 172.37 30.73 172.22 41.18C170.95 43.46 170.11 46 169.74 48.64C166.95 49.89 164.21 52.5 164.21 56.8V95.72C164.21 96.09 164.26 96.46 164.36 96.82C164.86 98.57 166.15 101.12 168.35 102.63V111.4C166.04 111.19 163.34 111.09 160.32 111.09C156.79 111.09 153.34 111.23 150.7 111.38C149.62 108.92 147.7 106.16 144.27 106.16C140.84 106.16 138.92 108.92 137.84 111.38C135.2 111.23 131.75 111.09 128.22 111.09C125.18 111.09 122.47 111.2 120.15 111.41C117.9 111.61 116.17 113.32 115.93 115.56C115.69 117.78 117.07 119.88 119.2 120.55C123.12 121.77 127.73 122.47 132.92 122.61C132.73 123.12 132.62 123.64 132.56 124.16C132.55 124.29 132.54 124.43 132.54 124.56V150.37L111.16 152.16V137.28C111.16 137.15 111.16 137.01 111.14 136.88C111.09 136.36 110.97 135.84 110.78 135.33C115.98 135.19 120.58 134.49 124.5 133.27C126.63 132.6 128.01 130.51 127.77 128.29C127.53 126.05 125.79 124.34 123.54 124.13C121.22 123.92 118.51 123.81 115.47 123.81C111.94 123.81 108.49 123.95 105.85 124.1C104.77 121.64 102.85 118.88 99.4199 118.88C95.9899 118.88 94.0699 121.64 92.9899 124.1C90.3499 123.95 86.9099 123.81 83.3699 123.81C80.3299 123.81 77.6199 123.92 75.2999 124.13C73.0499 124.33 71.3099 126.04 71.0699 128.29C70.8299 130.51 72.2099 132.61 74.3399 133.27C78.2599 134.49 82.8699 135.19 88.0599 135.33C87.8799 135.84 87.7599 136.36 87.6999 136.88C87.6899 137.01 87.6799 137.15 87.6799 137.28V154.12L10.2399 160.61C10.2399 160.61 10.1899 160.61 10.1599 160.61C6.04994 161.03 -0.0600586 164.47 -0.0600586 172.2V181.06C-0.0600586 181.34 -0.0300586 181.61 0.0299414 181.89C0.809941 185.58 4.56994 192.73 13.2199 193.35C20.3599 193.86 144.64 203.34 167.83 205.11V275.01C167.83 275.07 167.83 275.12 167.83 275.18C167.89 276.66 169.32 309.46 175.07 332.45C167.48 333.42 151.59 335.32 140.92 336.58C140.6 336.62 140.28 336.7 139.98 336.81C136.78 338.02 131.37 341.88 131.37 348.73V357.82C131.37 358.29 131.45 358.75 131.61 359.19C132.58 361.83 135.88 366.41 142.15 366.81C146.81 367.11 177.52 368.62 186.1 369.04C186.99 369.9 188.52 370.8 191.04 370.8C193.56 370.8 195.09 369.9 195.98 369.04C204.56 368.62 235.27 367.11 239.93 366.81C246.2 366.41 249.51 361.83 250.47 359.19C250.63 358.75 250.71 358.28 250.71 357.82V348.73C250.71 341.88 245.3 338.02 242.1 336.81C241.8 336.7 241.48 336.62 241.16 336.58C230.49 335.32 214.6 333.42 207.01 332.44C212.76 309.45 214.19 276.65 214.25 275.17C214.25 275.11 214.25 275.06 214.25 275V205.1C237.44 203.33 361.72 193.85 368.86 193.34C377.51 192.72 381.27 185.58 382.05 181.88C382.11 181.61 382.14 181.33 382.14 181.05V172.19C382.14 164.46 376.03 161.02 371.92 160.6C371.89 160.6 371.87 160.6 371.84 160.6L294.4 154.11V137.27C294.4 137.14 294.4 137 294.38 136.87C294.33 136.35 294.21 135.83 294.02 135.32C299.22 135.18 303.82 134.48 307.74 133.26C309.87 132.59 311.25 130.5 311.01 128.28C310.77 126.04 309.03 124.33 306.78 124.12C304.46 123.91 301.75 123.8 298.71 123.8C295.18 123.8 291.73 123.94 289.09 124.09C288.01 121.63 286.09 118.87 282.66 118.87C279.23 118.87 277.31 121.63 276.23 124.09C273.59 123.94 270.14 123.8 266.61 123.8C263.57 123.8 260.86 123.91 258.54 124.12C256.29 124.32 254.55 126.03 254.32 128.27C254.08 130.49 255.46 132.59 257.59 133.25C261.51 134.47 266.12 135.17 271.31 135.31C271.13 135.82 271.01 136.34 270.95 136.86C270.94 136.99 270.93 137.13 270.93 137.26V152.14L249.55 150.35V124.54C249.55 124.41 249.55 124.27 249.53 124.14C249.48 123.62 249.36 123.1 249.17 122.59C254.36 122.45 258.97 121.75 262.89 120.53C265.02 119.86 266.4 117.77 266.16 115.54C265.92 113.3 264.18 111.59 261.93 111.39C259.61 111.18 256.9 111.07 253.86 111.07C250.33 111.07 246.88 111.21 244.24 111.36C243.16 108.9 241.24 106.14 237.81 106.14C234.38 106.14 232.46 108.9 231.38 111.36C228.74 111.21 225.29 111.07 221.76 111.07C218.74 111.07 216.04 111.17 213.73 111.38V102.61C215.93 101.1 217.22 98.54 217.72 96.8C217.82 96.44 217.87 96.07 217.87 95.7V56.78C217.87 52.48 215.12 49.86 212.34 48.62C211.97 45.97 211.13 43.44 209.86 41.16C209.72 30.72 207.46 20.49 203.51 12.36C201.7 8.64 196.86 -0.0200043 190.98 -0.0200043L191.1 -4.27291e-06ZM155.63 122.61C160.39 122.48 164.66 121.89 168.36 120.84V147.36L156.01 148.4V124.56C156.01 124.43 156.01 124.29 155.99 124.16C155.94 123.64 155.82 123.12 155.63 122.61ZM213.84 147.36V120.84C217.54 121.88 221.81 122.47 226.57 122.61C226.39 123.12 226.27 123.64 226.21 124.16C226.2 124.29 226.19 124.43 226.19 124.56V148.4L213.84 147.36Z" fill="black"/>
</g>
<defs>
<clipPath id="clip0_704_38">
<rect width="382.2" height="370.78" fill="white"/>
</clipPath>
</defs>
</svg>
