<svg width="235" height="226" viewBox="0 0 235 226" fill="none" xmlns="http://www.w3.org/2000/svg">
<g clip-path="url(#clip0_704_43)">
<path d="M117.3 224.57C115.78 224.57 115.32 222.75 115.18 221.5C110.17 221.04 85.7502 218.82 83.9802 218.53C81.9202 218.2 81.0602 216.58 80.8802 215.68C80.8702 215.61 80.8602 215.55 80.8602 215.48V210C80.8602 206.9 82.7502 205.84 83.7402 205.72C83.9302 205.69 105.8 202.15 111.17 201.34C107.31 188.14 105.54 152.6 105.47 151.08V127.29C105.47 126.57 105.19 125.9 104.69 125.45C103.56 124.43 101.95 123.5 100.79 122.9C99.6402 122.31 98.4102 121.93 97.1202 121.77L94.1302 121.4L92.2802 123.49C91.9702 123.84 91.5302 124.04 91.0602 124.04C90.3902 124.04 89.8002 123.64 89.5502 123.02L89.3302 122.46L88.9902 122.93C88.6802 123.35 88.1902 123.6 87.6702 123.6C87.0702 123.6 86.5202 123.27 86.2302 122.74L84.8902 120.25L65.3902 117.84L63.8502 119.59C63.5402 119.94 63.1002 120.14 62.6302 120.14C61.9602 120.14 61.3702 119.74 61.1202 119.12L60.9002 118.56L60.5602 119.03C60.2502 119.45 59.7602 119.7 59.2402 119.7C58.6402 119.7 58.0902 119.37 57.8002 118.84L56.6802 116.76C13.8402 111.48 4.43019 110.33 4.10019 110.29C3.27019 110.29 2.03019 109.68 1.38019 106.81C0.630193 102.28 1.07019 99 2.66019 96.99C3.96019 95.35 5.53019 95.2 5.71019 95.19L55.6402 91.95C55.6802 86.86 55.8502 83 56.1602 80.45C56.3002 79.31 56.5802 77 57.6502 75.94C57.5702 75.94 57.4902 75.94 57.4102 75.94C54.8702 75.94 51.5302 75.49 47.4802 74.6C46.7102 74.43 46.2002 73.74 46.2602 72.95C46.3202 72.17 46.9402 71.56 47.7202 71.52C49.7202 71.41 51.6602 71.35 53.4702 71.35C55.7102 71.35 57.4402 71.44 58.6602 71.53C59.0602 70.07 59.7702 68.55 61.1802 68.55C62.5902 68.55 63.2902 70.06 63.6902 71.5C64.8402 71.42 66.4402 71.35 68.4702 71.35C70.2802 71.35 72.2202 71.41 74.2202 71.52C75.0102 71.56 75.6202 72.17 75.6902 72.95C75.7502 73.73 75.2402 74.43 74.4702 74.59C70.5102 75.46 67.2302 75.91 64.7102 75.93C65.7802 76.99 66.0602 79.29 66.2002 80.44C66.4902 82.86 66.6602 86.49 66.7102 91.22L83.8802 90.1C83.8202 85.72 83.7902 77.02 84.3702 72.21C84.5102 71.07 84.7902 68.76 85.8602 67.7C85.7802 67.7 85.7002 67.7 85.6202 67.7C83.0802 67.7 79.7402 67.25 75.6902 66.36C74.9202 66.19 74.4102 65.5 74.4702 64.71C74.5302 63.93 75.1502 63.33 75.9302 63.28C77.9402 63.17 79.8702 63.11 81.6802 63.11C83.9202 63.11 85.6502 63.2 86.8702 63.29C87.2702 61.83 87.9802 60.31 89.3902 60.31C90.8002 60.31 91.5002 61.82 91.9002 63.26C93.0502 63.18 94.6502 63.11 96.6902 63.11C98.5002 63.11 100.44 63.17 102.44 63.28C103.23 63.32 103.84 63.93 103.91 64.71C103.97 65.49 103.46 66.19 102.7 66.36C98.7402 67.23 95.4602 67.68 92.9402 67.7C94.0102 68.76 94.2902 71.06 94.4302 72.21C94.9702 76.71 94.9902 84.5 94.9302 89.38L104.82 88.74C104.88 88.74 104.92 88.69 104.92 88.63L106.38 35.15C106.38 26.64 109.84 18.21 110.3 17.14C111.09 13.21 113.88 0.960007 118.04 0.960007C122.2 0.960007 125 13.2 125.78 17.14C126.23 18.21 129.7 26.64 129.7 35.18V88.63C129.7 88.69 129.75 88.74 129.8 88.74L139.69 89.38C139.63 84.5 139.65 76.71 140.19 72.21C140.33 71.07 140.61 68.76 141.68 67.7C139.16 67.68 135.88 67.23 131.92 66.36C131.15 66.19 130.64 65.5 130.7 64.71C130.76 63.92 131.38 63.32 132.17 63.28C134.17 63.17 136.11 63.11 137.92 63.11C139.95 63.11 141.56 63.18 142.71 63.26C143.11 61.82 143.82 60.31 145.22 60.31C146.62 60.31 147.34 61.83 147.74 63.29C148.96 63.2 150.69 63.11 152.93 63.11C154.74 63.11 156.68 63.17 158.68 63.28C159.47 63.32 160.08 63.93 160.14 64.71C160.2 65.5 159.69 66.19 158.92 66.36C154.87 67.25 151.53 67.7 148.99 67.7C148.91 67.7 148.83 67.7 148.75 67.7C149.82 68.76 150.1 71.06 150.24 72.21C150.8 76.89 150.8 85.07 150.73 90.1L167.9 91.22C167.95 86.49 168.12 82.86 168.41 80.44C168.55 79.3 168.83 76.99 169.9 75.93C167.38 75.91 164.1 75.46 160.14 74.59C159.37 74.42 158.86 73.73 158.92 72.95C158.98 72.16 159.6 71.56 160.39 71.52C162.39 71.41 164.33 71.35 166.14 71.35C168.17 71.35 169.77 71.42 170.92 71.5C171.26 70.29 171.97 68.55 173.44 68.55C174.91 68.55 175.56 70.07 175.96 71.53C177.18 71.44 178.91 71.35 181.15 71.35C182.96 71.35 184.9 71.41 186.9 71.52C187.69 71.56 188.3 72.16 188.36 72.95C188.42 73.74 187.91 74.43 187.14 74.6C183.1 75.49 179.75 75.94 177.21 75.94C177.13 75.94 177.05 75.94 176.97 75.94C178.04 77 178.32 79.3 178.46 80.45C178.77 83 178.94 86.86 178.98 91.95L228.9 95.19C229.08 95.2 230.65 95.35 231.95 96.99C233.55 99 233.98 102.28 233.24 106.75C232.57 109.69 231.33 110.29 230.4 110.29C230.16 110.32 220.75 111.47 177.91 116.75L176.79 118.83C176.51 119.36 175.95 119.69 175.35 119.69C174.83 119.69 174.34 119.44 174.03 119.02L173.69 118.55L173.47 119.11C173.22 119.73 172.63 120.13 171.96 120.13C171.49 120.13 171.05 119.93 170.74 119.58L169.2 117.84L149.7 120.25L148.36 122.74C148.08 123.27 147.53 123.6 146.92 123.6C146.4 123.6 145.91 123.35 145.6 122.93L145.26 122.46L145.04 123.02C144.79 123.64 144.2 124.04 143.53 124.04C143.06 124.04 142.62 123.84 142.31 123.49L140.46 121.4L137.47 121.77C136.18 121.93 134.94 122.31 133.8 122.9C132.64 123.5 131.03 124.42 129.9 125.45C129.41 125.9 129.12 126.57 129.12 127.29V151.03C129.04 152.6 127.28 188.14 123.41 201.34C128.78 202.14 150.64 205.68 150.87 205.72C151.83 205.84 153.72 206.9 153.72 210V215.48C153.72 215.55 153.72 215.61 153.7 215.68C153.52 216.59 152.66 218.2 150.6 218.53C148.83 218.81 124.41 221.04 119.4 221.5C119.26 222.76 118.8 224.57 117.28 224.57H117.3Z" fill="white"/>
<path d="M118.03 2C121.73 2 124.81 17.47 124.81 17.47C124.81 17.47 128.69 26.38 128.69 35.21V88.66C128.69 89.25 129.14 89.73 129.73 89.77L140.7 90.48C140.63 85.99 140.6 77.2 141.18 72.36C141.37 70.79 141.8 68.18 142.98 68.18C142.98 67.89 143.01 67.35 143.09 66.69C142.73 66.72 142.32 66.73 141.85 66.73C139.86 66.73 136.79 66.44 132.14 65.41C131.51 65.27 131.59 64.34 132.23 64.31C134.4 64.19 136.3 64.14 137.92 64.14C140.4 64.14 142.25 64.25 143.47 64.35C143.82 62.77 144.38 61.34 145.22 61.34C146.06 61.34 146.63 62.8 146.98 64.39C148.19 64.27 150.16 64.14 152.94 64.14C154.56 64.14 156.46 64.19 158.64 64.31C159.29 64.35 159.36 65.27 158.72 65.41C154.07 66.43 151 66.73 149 66.73C148.33 66.73 147.79 66.7 147.34 66.65C147.42 67.33 147.45 67.89 147.45 68.18C148.64 68.18 149.06 70.79 149.25 72.36C149.86 77.42 149.79 86.8 149.72 91.07L168.89 92.32C168.91 88.21 169.04 83.63 169.4 80.6C169.59 79.03 170.02 76.42 171.2 76.42C171.2 76.13 171.23 75.59 171.31 74.93C170.95 74.96 170.54 74.97 170.07 74.97C168.08 74.97 165.01 74.68 160.36 73.65C159.73 73.51 159.81 72.58 160.45 72.55C162.62 72.43 164.52 72.38 166.14 72.38C168.62 72.38 170.47 72.49 171.69 72.59C172.04 71.01 172.6 69.58 173.44 69.58C174.28 69.58 174.85 71.04 175.2 72.63C176.41 72.51 178.38 72.38 181.16 72.38C182.78 72.38 184.68 72.43 186.86 72.55C187.51 72.59 187.58 73.51 186.94 73.65C182.29 74.67 179.22 74.97 177.22 74.97C176.55 74.97 176.01 74.94 175.56 74.89C175.64 75.57 175.67 76.13 175.67 76.42C176.86 76.42 177.28 79.03 177.47 80.6C177.85 83.78 177.97 88.66 177.98 92.92L228.84 96.22C228.84 96.22 233.92 96.55 232.26 106.62C231.64 109.33 230.6 109.33 230.41 109.33C230.31 109.33 202.7 112.73 177.28 115.87L175.92 118.41C175.8 118.63 175.58 118.74 175.36 118.74C175.17 118.74 174.98 118.65 174.85 118.48L174.04 117.36C173.93 117.2 173.76 117.13 173.59 117.13C173.38 117.13 173.16 117.25 173.07 117.48L172.55 118.78C172.45 119.04 172.21 119.17 171.96 119.17C171.79 119.17 171.62 119.1 171.49 118.96L169.6 116.82C161.96 117.76 154.82 118.64 149.06 119.35L147.48 122.3C147.36 122.52 147.14 122.63 146.92 122.63C146.73 122.63 146.54 122.54 146.41 122.37L145.6 121.25C145.49 121.09 145.32 121.02 145.15 121.02C144.94 121.02 144.72 121.14 144.63 121.37L144.11 122.67C144.01 122.93 143.77 123.06 143.52 123.06C143.35 123.06 143.18 122.99 143.05 122.85L140.86 120.36C139.42 120.54 138.24 120.68 137.35 120.79C135.95 120.96 134.59 121.38 133.34 122.03C132.04 122.7 130.4 123.66 129.23 124.73C128.51 125.39 128.13 126.34 128.13 127.31V151.05C128.13 151.05 126.3 188.72 122.33 201.55C122.23 201.89 122.45 202.23 122.8 202.28C127.19 202.92 150.73 206.73 150.73 206.73C150.73 206.73 152.74 206.98 152.74 210.02V215.5C152.74 215.5 152.38 217.26 150.46 217.56C148.54 217.87 118.47 220.6 118.47 220.6C118.47 220.6 118.43 223.59 117.3 223.59C116.17 223.59 116.13 220.6 116.13 220.6C116.13 220.6 86.0701 217.87 84.1401 217.56C82.2201 217.25 81.8601 215.5 81.8601 215.5V210.02C81.8601 206.98 83.8701 206.73 83.8701 206.73C83.8701 206.73 107.41 202.92 111.8 202.28C112.15 202.23 112.37 201.88 112.27 201.55C108.3 188.73 106.47 151.05 106.47 151.05V127.31C106.47 126.34 106.09 125.38 105.37 124.73C104.2 123.66 102.56 122.71 101.26 122.03C100.01 121.38 98.6501 120.97 97.2501 120.79C96.3601 120.68 95.1701 120.53 93.7401 120.36L91.5501 122.85C91.4201 122.99 91.2501 123.06 91.0801 123.06C90.8401 123.06 90.6001 122.92 90.4901 122.67L89.9701 121.37C89.8801 121.14 89.6701 121.02 89.4501 121.02C89.2801 121.02 89.1101 121.09 89.0001 121.25L88.1901 122.37C88.0601 122.55 87.8701 122.63 87.6801 122.63C87.4601 122.63 87.2401 122.52 87.1201 122.3L85.5401 119.35C79.7901 118.64 72.6501 117.76 65.0001 116.82L63.1101 118.96C62.9801 119.1 62.8101 119.17 62.6401 119.17C62.4001 119.17 62.1601 119.03 62.0501 118.78L61.5301 117.48C61.4401 117.25 61.2301 117.13 61.0101 117.13C60.8401 117.13 60.6701 117.2 60.5601 117.36L59.7501 118.48C59.6201 118.66 59.4301 118.74 59.2401 118.74C59.0201 118.74 58.8001 118.63 58.6801 118.41L57.3201 115.87C31.9101 112.74 4.30014 109.33 4.19014 109.33C4.00014 109.33 2.96014 109.33 2.34014 106.62C0.680137 96.56 5.76014 96.22 5.76014 96.22L56.6201 92.92C56.6401 88.67 56.7501 83.79 57.1301 80.6C57.3201 79.03 57.7501 76.42 58.9301 76.42C58.9301 76.13 58.9601 75.57 59.0401 74.89C58.6001 74.94 58.0501 74.97 57.3801 74.97C55.3801 74.97 52.3101 74.68 47.6601 73.65C47.0301 73.51 47.1001 72.58 47.7401 72.55C49.9101 72.43 51.8101 72.38 53.4401 72.38C56.2101 72.38 58.1901 72.51 59.4001 72.63C59.7501 71.04 60.3101 69.58 61.1601 69.58C62.0101 69.58 62.5601 71.02 62.9101 72.59C64.1401 72.48 65.9801 72.38 68.4601 72.38C70.0801 72.38 71.9801 72.43 74.1501 72.55C74.8001 72.59 74.8801 73.51 74.2401 73.65C69.5901 74.67 66.5201 74.97 64.5301 74.97C64.0601 74.97 63.6401 74.95 63.2901 74.93C63.3601 75.59 63.4001 76.14 63.4001 76.42C64.5901 76.42 65.0101 79.03 65.2001 80.6C65.5701 83.63 65.6901 88.22 65.7101 92.32L84.8901 91.07C84.8201 86.8 84.7501 77.42 85.3601 72.36C85.5501 70.79 85.9801 68.18 87.1601 68.18C87.1601 67.89 87.1901 67.33 87.2701 66.65C86.8301 66.7 86.2801 66.73 85.6101 66.73C83.6101 66.73 80.5401 66.44 75.8901 65.41C75.2601 65.27 75.3301 64.34 75.9701 64.31C78.1501 64.19 80.0401 64.14 81.6701 64.14C84.4401 64.14 86.4201 64.27 87.6301 64.39C87.9801 62.8 88.5401 61.34 89.3901 61.34C90.2401 61.34 90.7901 62.78 91.1401 64.35C92.3701 64.24 94.2101 64.14 96.6901 64.14C98.3101 64.14 100.21 64.19 102.38 64.31C103.03 64.35 103.11 65.27 102.47 65.41C97.8201 66.43 94.7501 66.73 92.7601 66.73C92.2901 66.73 91.8701 66.71 91.5201 66.69C91.5901 67.35 91.6301 67.9 91.6301 68.18C92.8201 68.18 93.2401 70.79 93.4301 72.36C94.0101 77.2 93.9801 85.99 93.9101 90.48L104.88 89.77C105.46 89.73 105.92 89.25 105.92 88.66L107.37 35.21C107.37 26.38 111.25 17.47 111.25 17.47C111.25 17.47 114.33 2 118.03 2ZM118.03 0C115.42 0 113.36 2.82 111.34 9.13C110.24 12.6 109.5 16.01 109.32 16.88C108.72 18.31 105.37 26.69 105.36 35.19L104.59 63.65C104.18 62.89 103.4 62.38 102.48 62.33C100.46 62.22 98.5101 62.16 96.6801 62.16C95.2301 62.16 93.8701 62.19 92.6101 62.26C92.1101 60.9 91.1801 59.36 89.3801 59.36C87.5801 59.36 86.6401 60.92 86.1401 62.29C84.9801 62.22 83.4901 62.16 81.6701 62.16C79.8501 62.16 77.8801 62.22 75.8601 62.33C74.5701 62.4 73.5601 63.39 73.4601 64.68C73.3601 65.97 74.2001 67.11 75.4601 67.39C78.8301 68.13 81.7301 68.57 84.1001 68.71C83.6301 69.92 83.4601 71.3 83.3601 72.14C82.8201 76.6 82.7901 84.13 82.8501 89.22L67.6801 90.21C67.6201 85.95 67.4501 82.65 67.1801 80.38C67.0801 79.53 66.9101 78.14 66.4301 76.92C68.7301 76.76 71.4901 76.33 74.6701 75.63C75.9301 75.35 76.7701 74.22 76.6701 72.93C76.5701 71.64 75.5501 70.65 74.2601 70.58C72.2401 70.47 70.2901 70.41 68.4601 70.41C67.0101 70.41 65.6501 70.44 64.3901 70.51C63.8901 69.15 62.9601 67.61 61.1601 67.61C59.3601 67.61 58.4201 69.17 57.9201 70.54C56.7601 70.47 55.2701 70.41 53.4501 70.41C51.6301 70.41 49.6701 70.47 47.6401 70.58C46.3501 70.65 45.3401 71.64 45.2401 72.93C45.1401 74.22 45.9801 75.36 47.2401 75.64C50.6101 76.38 53.5101 76.82 55.8801 76.96C55.4101 78.17 55.2401 79.55 55.1401 80.39C54.8501 82.82 54.6701 86.4 54.6201 91.07L5.62014 94.25C5.40014 94.26 3.42014 94.45 1.85014 96.42C0.0701368 98.66 -0.429863 102.21 0.350137 106.96C0.350137 107 0.360137 107.04 0.370137 107.08C1.18014 110.63 2.96014 111.29 4.03014 111.34C4.96014 111.45 15.0101 112.68 56.0201 117.74L56.8901 119.36C57.3501 120.22 58.2401 120.75 59.2101 120.75C59.7301 120.75 60.2301 120.59 60.6601 120.32C61.1501 120.86 61.8501 121.18 62.6101 121.18C63.3701 121.18 64.0801 120.86 64.5801 120.29L65.7701 118.94L84.2301 121.22L85.3201 123.26C85.7801 124.12 86.6701 124.65 87.6401 124.65C88.1601 124.65 88.6601 124.49 89.0901 124.22C89.5801 124.76 90.2801 125.08 91.0401 125.08C91.8001 125.08 92.5101 124.76 93.0101 124.19L94.5101 122.49L95.6801 122.63L96.9701 122.79C98.1401 122.93 99.2701 123.28 100.31 123.82C101.9 124.64 103.17 125.47 104 126.22C104.28 126.48 104.45 126.88 104.45 127.32V151.06C104.45 151.06 104.45 151.12 104.45 151.16C104.52 152.65 106.21 186.47 109.89 200.56C103.26 201.58 84.6901 204.59 83.5601 204.77C82.2501 204.96 79.8501 206.29 79.8501 210.04V215.52C79.8501 215.65 79.8601 215.79 79.8901 215.92C80.1201 217.08 81.2101 219.15 83.8101 219.56C85.5501 219.84 107.58 221.85 114.29 222.47C114.69 224.47 115.75 225.62 117.29 225.62C118.83 225.62 119.88 224.47 120.29 222.47C127 221.86 149.03 219.84 150.77 219.56C153.37 219.14 154.46 217.07 154.69 215.92C154.72 215.79 154.73 215.66 154.73 215.52V210.04C154.73 206.29 152.33 204.96 151.02 204.77C149.88 204.59 131.31 201.58 124.69 200.56C128.37 186.48 130.06 152.65 130.13 151.16C130.13 151.13 130.13 151.1 130.13 151.06V127.32C130.13 126.88 130.29 126.48 130.58 126.22C131.41 125.47 132.68 124.64 134.27 123.82C135.31 123.28 136.43 122.94 137.61 122.79L139.04 122.61L140.08 122.48L141.58 124.18C142.08 124.75 142.8 125.07 143.55 125.07C144.3 125.07 145.01 124.75 145.5 124.21C145.92 124.49 146.43 124.64 146.95 124.64C147.92 124.64 148.81 124.11 149.27 123.25L150.36 121.21L168.82 118.93L170.01 120.28C170.51 120.85 171.23 121.17 171.98 121.17C172.73 121.17 173.44 120.85 173.93 120.31C174.35 120.59 174.86 120.74 175.38 120.74C176.35 120.74 177.24 120.21 177.7 119.35L178.57 117.73C219.58 112.67 229.63 111.44 230.56 111.33C231.64 111.28 233.41 110.62 234.22 107.07C234.22 107.03 234.24 106.99 234.24 106.95C235.03 102.19 234.52 98.65 232.74 96.41C231.17 94.44 229.2 94.25 228.98 94.24L179.98 91.06C179.93 86.39 179.76 82.81 179.46 80.38C179.36 79.54 179.19 78.16 178.72 76.95C181.09 76.81 183.99 76.37 187.36 75.63C188.62 75.35 189.47 74.21 189.36 72.92C189.26 71.63 188.25 70.64 186.96 70.57C184.94 70.46 182.98 70.4 181.15 70.4C179.32 70.4 177.84 70.46 176.68 70.53C176.18 69.16 175.24 67.6 173.44 67.6C171.64 67.6 170.71 69.14 170.21 70.51C168.95 70.44 167.57 70.41 166.14 70.41C164.31 70.41 162.36 70.47 160.34 70.58C159.05 70.65 158.04 71.64 157.93 72.93C157.83 74.22 158.67 75.35 159.93 75.63C163.11 76.33 165.88 76.76 168.17 76.92C167.69 78.14 167.52 79.53 167.42 80.38C167.15 82.65 166.98 85.96 166.92 90.21L151.75 89.22C151.81 84.13 151.78 76.6 151.24 72.15C151.14 71.31 150.97 69.93 150.5 68.72C152.88 68.58 155.77 68.14 159.14 67.4C160.4 67.12 161.25 65.98 161.14 64.69C161.04 63.4 160.03 62.41 158.74 62.34C156.72 62.23 154.76 62.17 152.93 62.17C151.1 62.17 149.62 62.23 148.46 62.3C147.96 60.93 147.02 59.37 145.22 59.37C143.42 59.37 142.49 60.91 141.99 62.28C140.73 62.21 139.35 62.18 137.92 62.18C136.09 62.18 134.14 62.24 132.12 62.35C131.58 62.38 131.09 62.57 130.69 62.88V35.24C130.69 26.73 127.33 18.34 126.73 16.91C126.55 16.04 125.82 12.63 124.71 9.16C122.7 2.85 120.64 0.03 118.02 0.03L118.03 0ZM94.6501 68.67C96.9501 68.51 99.7101 68.08 102.89 67.38C103.59 67.23 104.16 66.8 104.51 66.24L103.92 87.84L95.9101 88.36C95.9501 83.44 95.9101 76.37 95.3901 72.13C95.2901 71.28 95.1201 69.89 94.6401 68.67H94.6501ZM130.69 87.83V66.9C130.98 67.12 131.32 67.28 131.71 67.37C134.89 68.07 137.66 68.5 139.95 68.66C139.47 69.88 139.3 71.27 139.2 72.12C138.69 76.36 138.64 83.43 138.68 88.35L130.69 87.83Z" fill="black"/>
</g>
<defs>
<clipPath id="clip0_704_43">
<rect width="234.6" height="225.57" fill="white"/>
</clipPath>
</defs>
</svg>
