<svg width="513" height="473" viewBox="0 0 513 473" fill="none" xmlns="http://www.w3.org/2000/svg">
<g clip-path="url(#clip0_304_62)">
<path d="M256.5 470.82C256.37 470.82 256.25 470.81 256.12 470.78C255.26 470.61 252.36 469.55 251.03 462.83C250.15 458.38 249.73 450.12 249.56 445.9L169.91 470.01C169.65 470.09 169.39 470.13 169.12 470.13C167.63 470.13 166.41 468.91 166.41 467.42V458.77C166.41 444.87 177.54 438.83 179.01 438.09L239.86 397.76C230.94 361.75 229.96 319.52 229.95 319.09V289.4C222.3 265.91 221.26 250.41 221.17 244.74L195.36 248.12C194.73 250.11 193.6 250.58 192.67 250.58C191.86 250.58 190.89 250.23 190.23 248.79L174.61 250.84C174.04 253.41 172.78 254.01 171.74 254.01C170.81 254.01 169.69 253.54 169.06 251.57L153.45 253.62C153.1 256.35 152.08 257.73 150.41 257.73C148.91 257.73 147.94 256.61 147.5 254.4L142.4 255.07L136.21 256.91C135.51 258.23 134.5 258.45 133.89 258.45C133.6 258.45 133.06 258.39 132.51 258.01L113.58 263.64C113.01 266.14 111.75 266.72 110.73 266.72C109.97 266.72 109.06 266.41 108.41 265.18L84.87 272.17C84.44 276.55 82.77 277.52 81.37 277.52C80.24 277.52 78.88 276.87 78.2 274.15L75.1 275.07C74.69 277.44 73.69 278.64 72.14 278.64C71.3 278.64 70.29 278.25 69.64 276.69C7.10998 295.25 6.22998 295.46 5.93998 295.53C5.42998 295.65 4.98998 295.71 4.59998 295.71C3.25998 295.71 2.60998 295 2.34998 294.58C2.00998 294.03 1.94998 293.44 2.03998 292.94V277.16C2.03998 263.02 8.91998 259.55 10.3 259L140.75 188.99C140.17 185.6 139.12 179.03 139.12 175.7V150.04C139.12 148.99 139.19 143.55 141.62 141.11C142.45 140.27 143.49 139.83 144.62 139.83H156.62C156.67 139.83 156.72 139.83 156.76 139.83C158.29 139.83 161.84 140.83 161.84 150.12V174.3C161.84 174.41 161.84 175.92 161.7 177.76L181.93 166.9C181.46 161.87 180.96 155.88 180.96 153.26V127.6C180.96 126.55 181.03 121.11 183.46 118.67C184.29 117.83 185.33 117.39 186.46 117.39H198.46C198.51 117.39 198.56 117.39 198.6 117.39C200.13 117.39 203.68 118.39 203.68 127.68V151.86C203.68 151.97 203.68 153.48 203.54 155.31C213.66 149.88 220.11 146.42 220.98 145.95C224.82 143.88 228.38 141.14 229.85 139.96V92.4201C229.85 45.2401 247.95 2.88013 256.5 2.88013C265.05 2.88013 283.15 45.2501 283.15 92.4201V139.96C284.62 141.14 288.18 143.88 292.02 145.95C292.9 146.42 299.34 149.88 309.46 155.31C309.33 153.48 309.32 151.97 309.32 151.87V127.69C309.32 118.4 312.87 117.4 314.4 117.4C314.44 117.4 314.49 117.4 314.54 117.4H326.54C327.67 117.4 328.71 117.84 329.54 118.68C331.97 121.13 332.05 126.56 332.04 127.63V153.27C332.04 155.89 331.54 161.88 331.07 166.91L351.3 177.77C351.17 175.93 351.16 174.42 351.16 174.32V150.14C351.16 140.85 354.71 139.85 356.24 139.85C356.28 139.85 356.33 139.85 356.38 139.85H368.38C369.51 139.85 370.55 140.29 371.38 141.13C373.81 143.58 373.89 149.01 373.88 150.08V175.72C373.88 179.06 372.83 185.63 372.25 189.01L502.7 259.02C504.08 259.58 510.96 263.05 510.96 277.18V292.95C511.05 293.45 510.99 294.04 510.65 294.59C510.38 295.01 509.74 295.72 508.4 295.72C508.01 295.72 507.57 295.66 507.06 295.54C506.77 295.47 505.89 295.26 443.36 276.7C442.71 278.26 441.7 278.65 440.86 278.65C439.31 278.65 438.32 277.45 437.9 275.08L434.8 274.16C434.12 276.88 432.76 277.53 431.63 277.53C430.23 277.53 428.56 276.56 428.13 272.18L404.59 265.19C403.94 266.42 403.03 266.73 402.27 266.73C401.25 266.73 399.99 266.16 399.42 263.65L380.49 258.02C379.94 258.4 379.4 258.46 379.11 258.46C378.5 258.46 377.49 258.23 376.79 256.92L370.6 255.08L365.5 254.41C365.06 256.62 364.09 257.74 362.59 257.74C360.92 257.74 359.91 256.36 359.55 253.63L343.94 251.58C343.31 253.55 342.19 254.02 341.26 254.02C340.22 254.02 338.95 253.43 338.39 250.85L322.77 248.8C322.12 250.24 321.14 250.59 320.33 250.59C319.4 250.59 318.27 250.12 317.64 248.13L291.83 244.75C291.74 250.42 290.71 265.92 283.05 289.41V319.06C283.05 319.53 282.06 361.76 273.14 397.77L333.99 438.1C335.46 438.84 346.59 444.88 346.59 458.78V467.43C346.59 468.92 345.38 470.14 343.88 470.14C343.61 470.14 343.35 470.1 343.09 470.02L263.44 445.91C263.27 450.13 262.85 458.39 261.97 462.84C260.65 469.57 257.74 470.63 256.88 470.79C256.76 470.81 256.63 470.83 256.5 470.83V470.82Z" fill="white"/>
<path d="M256.5 4.84009C262.16 4.84009 281.15 42.9601 281.15 92.3801V140.87C281.15 140.87 285.82 144.84 291.07 147.67C292.04 148.19 299.85 152.38 311.93 158.87C311.33 156.03 311.32 151.82 311.32 151.82V127.64C311.32 119.74 313.9 119.35 314.4 119.35C314.45 119.35 314.48 119.35 314.48 119.35H326.53C330.1 119.35 330.03 127.57 330.03 127.57V153.23C330.03 156.08 329.39 163.3 328.95 168C336.53 172.07 344.9 176.56 353.77 181.32C353.17 178.48 353.16 174.26 353.16 174.26V150.08C353.16 142.18 355.74 141.79 356.24 141.79C356.29 141.79 356.32 141.79 356.32 141.79H368.37C371.94 141.79 371.87 150.01 371.87 150.01V175.67C371.87 179.43 370.43 187.77 370.02 190.04C429.88 222.16 501.86 260.79 501.86 260.79C501.86 260.79 508.95 263.03 508.95 277.13V293.15C508.95 293.15 509.2 293.68 508.38 293.68C508.17 293.68 507.88 293.64 507.5 293.55C506.6 293.34 474.66 283.87 441.9 274.14C441.7 275.78 441.27 276.6 440.84 276.6C440.35 276.6 439.86 275.56 439.71 273.49C437.52 272.84 435.33 272.19 433.16 271.54C432.96 274.17 432.28 275.48 431.61 275.48C430.86 275.48 430.12 273.86 430.01 270.61C420.61 267.82 411.44 265.1 403.25 262.66C403.03 264 402.64 264.68 402.25 264.68C401.8 264.68 401.35 263.8 401.17 262.04C392.53 259.47 385.1 257.26 379.76 255.68C379.56 256.17 379.32 256.42 379.08 256.42C378.78 256.42 378.48 256.03 378.26 255.23C373.67 253.86 370.99 253.07 370.99 253.07L363.72 252.12C363.61 254.51 363.09 255.7 362.57 255.7C362.05 255.7 361.48 254.41 361.4 251.82L342.32 249.32C342.14 251.1 341.68 251.98 341.23 251.98C340.76 251.98 340.28 250.99 340.12 249.03L321.3 246.56C321.08 247.89 320.69 248.56 320.3 248.56C319.88 248.56 319.47 247.81 319.26 246.3L289.77 242.44C289.77 242.44 290.71 259.43 281.02 289.06V319.03C281.02 319.03 280.12 362.13 270.83 398.63L332.97 439.81C332.97 439.81 344.57 445.29 344.57 458.76V467.41C344.57 467.81 344.24 468.12 343.86 468.12C343.79 468.12 343.72 468.12 343.65 468.09L261.51 443.23C261.51 443.23 261.15 456.52 259.98 462.44C258.81 468.37 256.48 468.82 256.48 468.82C256.48 468.82 254.15 468.37 252.98 462.44C251.81 456.51 251.45 443.23 251.45 443.23L169.31 468.09C169.24 468.11 169.17 468.12 169.1 468.12C168.72 468.12 168.39 467.81 168.39 467.41V458.76C168.39 445.29 179.99 439.81 179.99 439.81L242.13 398.63C232.84 362.13 231.94 319.03 231.94 319.03V289.06C222.24 259.43 223.19 242.44 223.19 242.44L193.7 246.3C193.49 247.81 193.08 248.56 192.66 248.56C192.27 248.56 191.88 247.89 191.66 246.56L172.84 249.03C172.67 251 172.2 251.98 171.73 251.98C171.26 251.98 170.83 251.09 170.64 249.32L151.56 251.82C151.48 254.41 150.94 255.7 150.39 255.7C149.84 255.7 149.35 254.51 149.24 252.12L141.97 253.07C141.97 253.07 139.3 253.86 134.7 255.23C134.48 256.02 134.18 256.42 133.88 256.42C133.64 256.42 133.4 256.17 133.2 255.68C127.87 257.26 120.43 259.48 111.79 262.04C111.6 263.8 111.16 264.68 110.71 264.68C110.32 264.68 109.92 264.01 109.71 262.66C101.51 265.09 92.3499 267.82 82.9499 270.61C82.8499 273.86 82.0999 275.48 81.3499 275.48C80.6799 275.48 80.0099 274.17 79.7999 271.54C77.6199 272.19 75.4299 272.84 73.2499 273.49C73.0999 275.56 72.6099 276.6 72.1199 276.6C71.6899 276.6 71.2499 275.78 71.0599 274.14C38.2999 283.86 6.34986 293.33 5.45986 293.55C5.07986 293.64 4.78986 293.68 4.57986 293.68C3.75986 293.68 4.00986 293.15 4.00986 293.15V277.13C4.00986 263.03 11.0999 260.79 11.0999 260.79C11.0999 260.79 83.0799 222.16 142.94 190.04C142.54 187.78 141.09 179.44 141.09 175.67V150.01C141.09 150.01 141.02 141.79 144.59 141.79H156.64C156.64 141.79 156.67 141.79 156.72 141.79C157.22 141.79 159.8 142.17 159.8 150.08V174.26C159.8 174.26 159.78 178.47 159.19 181.32C168.05 176.56 176.43 172.07 184.01 168C183.57 163.3 182.93 156.08 182.93 153.23V127.57C182.93 127.57 182.86 119.35 186.43 119.35H198.48C198.48 119.35 198.51 119.35 198.56 119.35C199.06 119.35 201.64 119.73 201.64 127.64V151.82C201.64 151.82 201.62 156.02 201.03 158.87C213.11 152.39 220.92 148.19 221.89 147.67C227.14 144.84 231.81 140.87 231.81 140.87V92.3801C231.81 42.9501 250.8 4.84009 256.46 4.84009M256.5 0.840088C253.37 0.840088 250.38 3.52009 246.82 9.53009C243.87 14.5001 240.92 21.1501 238.28 28.7701C234.39 39.9801 227.86 63.1501 227.86 92.3901V138.96C226.18 140.27 223.2 142.45 220.04 144.15C219.26 144.57 214.02 147.38 205.69 151.86C205.69 151.86 205.69 151.85 205.69 151.84V127.65C205.69 116.56 200.74 115.36 198.61 115.36C198.54 115.36 198.47 115.36 198.4 115.36H186.47C184.79 115.36 183.26 116.01 182.05 117.23C179.14 120.16 178.96 125.91 178.97 127.6V153.22C178.97 155.67 179.39 160.95 179.82 165.72L163.85 174.29V174.27V150.08C163.85 138.99 158.9 137.79 156.77 137.79C156.7 137.79 156.63 137.79 156.56 137.79H144.63C142.95 137.79 141.42 138.44 140.21 139.66C137.3 142.59 137.12 148.34 137.13 150.03V175.65C137.13 178.69 137.92 184.07 138.55 187.86L9.44986 257.16C7.34986 258.03 0.0298579 262.12 0.0298579 277.14V292.77C-0.0901421 293.76 0.119858 294.77 0.649858 295.62C1.47986 296.93 2.90986 297.68 4.58986 297.68C5.13986 297.68 5.72986 297.6 6.38986 297.45C6.74986 297.36 7.59985 297.16 68.7399 279.02C69.8999 280.4 71.3499 280.61 72.1399 280.61C73.5399 280.61 75.7499 280.03 76.7699 276.63L76.9799 276.57C78.2099 279.02 80.1099 279.49 81.3799 279.49C83.0798 279.49 85.7799 278.66 86.6799 273.69L107.67 267.45C108.77 268.51 110.03 268.68 110.74 268.68C111.8 268.68 114.05 268.29 115.19 265.21L132.33 260.12C133.01 260.38 133.6 260.42 133.9 260.42C134.52 260.42 136.22 260.25 137.49 258.58L142.82 257L146.09 256.57C147.19 259.21 149.12 259.7 150.41 259.7C151.88 259.7 154.16 259.06 155.12 255.39L167.86 253.72C169.07 255.7 170.83 255.99 171.74 255.99C172.8 255.99 174.98 255.6 176.14 252.64L189.23 250.93C190.4 252.36 191.89 252.57 192.67 252.57C193.62 252.57 195.55 252.26 196.76 249.94L219.25 246.99C219.58 254.07 221.16 268.76 227.95 289.7V319.03C227.95 319.03 227.95 319.09 227.95 319.11C227.99 320.84 228.92 360.99 237.58 396.85L177.99 436.34C175.9 437.42 164.4 444.05 164.4 458.75V467.4C164.4 470 166.51 472.11 169.11 472.11C169.57 472.11 170.03 472.04 170.48 471.91L247.67 448.54C247.89 453.05 248.32 459.42 249.06 463.2C250.58 470.94 254.23 472.44 255.73 472.73C255.98 472.78 256.23 472.8 256.49 472.8C256.75 472.8 257 472.78 257.25 472.73C258.75 472.44 262.4 470.94 263.92 463.2C264.66 459.42 265.09 453.05 265.31 448.54L342.5 471.91C342.94 472.04 343.4 472.11 343.87 472.11C346.47 472.11 348.58 470 348.58 467.4V458.75C348.58 444.05 337.08 437.42 334.99 436.34L275.4 396.85C284.06 360.99 284.99 320.85 285.03 319.11C285.03 319.08 285.03 319.05 285.03 319.03V289.7C291.82 268.76 293.4 254.07 293.73 246.99L316.22 249.94C317.43 252.26 319.36 252.57 320.31 252.57C321.09 252.57 322.58 252.36 323.75 250.93L336.84 252.64C338 255.6 340.18 255.99 341.24 255.99C342.15 255.99 343.91 255.71 345.12 253.72L357.86 255.39C358.83 259.06 361.11 259.7 362.57 259.7C363.86 259.7 365.79 259.21 366.89 256.57L370.16 257L375.49 258.58C376.76 260.25 378.47 260.42 379.08 260.42C379.38 260.42 379.97 260.38 380.65 260.12L397.79 265.21C398.94 268.28 401.18 268.68 402.24 268.68C402.94 268.68 404.21 268.51 405.31 267.45L426.3 273.69C427.2 278.66 429.91 279.49 431.6 279.49C432.87 279.49 434.77 279.02 436 276.57L436.21 276.63C437.23 280.02 439.44 280.61 440.84 280.61C441.63 280.61 443.08 280.39 444.24 279.02C505.38 297.17 506.22 297.37 506.59 297.45C507.25 297.61 507.84 297.68 508.39 297.68C510.07 297.68 511.51 296.93 512.34 295.61C512.87 294.76 513.09 293.74 512.96 292.76V277.13C512.96 262.1 505.64 258.01 503.54 257.15L374.46 187.88C375.09 184.1 375.88 178.72 375.88 175.67V150.01C375.89 148.35 375.71 142.6 372.8 139.67C371.58 138.44 370.05 137.8 368.38 137.8H356.45C356.38 137.8 356.31 137.8 356.24 137.8C355.3 137.8 352.93 138.09 351.16 140.79C349.81 142.85 349.16 145.89 349.16 150.08V174.26C349.16 174.26 349.16 174.28 349.16 174.3L333.19 165.73C333.62 160.96 334.04 155.68 334.04 153.23V127.57C334.05 125.91 333.87 120.16 330.96 117.23C329.74 116 328.21 115.36 326.54 115.36H314.61C314.54 115.36 314.47 115.36 314.4 115.36C313.46 115.36 311.09 115.65 309.32 118.35C307.97 120.41 307.32 123.45 307.32 127.64V151.82C307.32 151.82 307.32 151.84 307.32 151.85C298.99 147.38 293.75 144.57 292.97 144.15C289.81 142.45 286.83 140.26 285.15 138.96V92.3901C285.15 63.1501 278.62 39.9801 274.73 28.7701C272.09 21.1601 269.13 14.5001 266.19 9.53009C262.63 3.52009 259.64 0.840088 256.51 0.840088L256.5 0.840088Z" fill="black"/>
</g>
<defs>
<clipPath id="clip0_304_62">
<rect width="512.99" height="471.98" fill="white" transform="translate(0 0.840088)"/>
</clipPath>
</defs>
</svg>
