<svg width="610" height="673" viewBox="0 0 610 673" fill="none" xmlns="http://www.w3.org/2000/svg">
<g clip-path="url(#clip0_564_38)">
<path d="M304.59 670.2C302.05 670.2 300.62 668 300.5 665.79C298.7 651.03 294.01 612.93 293.51 609.9C293.49 609.9 293.48 609.9 293.46 609.9C293.05 609.9 292.57 610.05 292.42 610.1C291.55 610.44 204.8 644.11 200.25 645.96C199.32 646.34 198.48 646.52 197.7 646.52C196.49 646.52 195.45 646.07 194.7 645.21C193.39 643.7 193.5 641.49 193.58 640.77C193.58 639.63 193.67 631.48 195.03 624.85C196.38 618.25 199.65 616.13 200.93 615.55C205.43 611.65 268.9 556.64 279.06 547.98C279.31 547.77 279.43 547.42 279.37 547.09C273.79 514.56 270.85 487.47 269.59 474.22C269.09 468.94 268.84 463.56 268.84 458.22V363.81L248.5 367.21C247.34 375.27 246.27 377.66 243.98 377.66C241.82 377.66 240.77 375.59 239.69 368.68L220.02 371.97C219.11 378.77 218.25 380.59 216.17 380.59C214.09 380.59 213.28 378.62 212.49 373.23L181.55 378.41L175.81 380.62C174.88 387.65 174.03 389.51 171.92 389.51C169.96 389.51 169.15 387.69 168.45 383.46L148.13 391.31C147.15 399.26 146.31 401.25 144.11 401.25C142.08 401.25 141.26 399.37 140.49 394.26L122.9 401.05C121.92 409 121.08 410.99 118.88 410.99C116.85 410.99 116.03 409.11 115.26 404L91.0704 413.34C90.2505 419.19 89.4804 421.31 87.3104 421.31C85.4604 421.31 84.6505 419.68 83.9904 416.08C33.0704 435.76 21.4704 440.26 20.7804 440.55C18.8104 441.37 17.3304 441.86 16.5504 442.1C15.2504 443.58 10.9904 448.36 8.25045 451C7.00045 452.21 5.93045 452.77 4.88045 452.77C4.11045 452.77 3.40045 452.46 2.89045 451.9C1.99045 450.92 1.95045 449.5 1.99045 448.85V445.16C1.99045 441.89 3.45045 439.68 3.96045 439.01C4.57045 437.89 8.40045 430.79 9.45045 428.49C9.90045 427.51 10.2404 425.38 10.6104 423.13C11.0604 420.36 11.6204 416.92 12.6504 413.69C14.7104 407.26 19.0804 404.11 19.2704 403.98C19.3004 403.96 19.3404 403.94 19.3704 403.91L123.31 339.49L123.38 332.72C123.38 332.72 123.31 332.71 123.27 332.7C122.08 332.48 119.92 331.26 119.34 328.11C118.35 324.13 119.18 302.89 121.41 294.09C121.43 294.01 121.45 293.94 121.48 293.87L121.62 293.5C122.31 291.68 123.25 289.18 127.05 289.18H145.71C145.71 289.18 145.8 289.18 145.84 289.18C148.39 289.35 151.2 290.86 151.34 293.78C151.45 296.16 151.36 300.12 151.34 300.68C151.37 301.8 151.71 313.78 150.32 322.74L186.46 300.34L186.59 286.71C186.59 286.71 186.52 286.7 186.48 286.69C185.29 286.47 183.13 285.25 182.55 282.1C181.56 278.11 182.39 256.88 184.62 248.09C184.64 248.01 184.66 247.94 184.69 247.87L184.83 247.5C185.52 245.67 186.45 243.18 190.26 243.18H208.92C208.92 243.18 209.01 243.18 209.05 243.18C211.6 243.35 214.41 244.86 214.55 247.78C214.66 250.16 214.57 254.12 214.55 254.68C214.69 258.93 215.08 278.65 210.93 285.17L271.41 247.68C271.87 247.4 272.14 246.9 272.14 246.36V106.81C272.14 87.53 276.63 62.83 284.47 39.06C287.26 30.59 296.96 2.94995 304.58 2.94995C312.2 2.94995 321.9 30.59 324.69 39.06C332.52 62.84 337.02 87.53 337.02 106.81V246.36C337.02 246.9 337.29 247.39 337.75 247.68L398.23 285.16C394.08 278.63 394.47 258.91 394.61 254.67C394.6 254.11 394.5 250.15 394.61 247.77C394.75 244.85 397.56 243.34 400.11 243.17C400.15 243.17 400.2 243.17 400.24 243.17H418.9C422.7 243.17 423.64 245.67 424.33 247.49L424.47 247.86C424.5 247.93 424.52 248.01 424.54 248.08C426.77 256.87 427.6 278.11 426.61 282.09C426.03 285.24 423.87 286.45 422.68 286.68C422.64 286.68 422.61 286.69 422.57 286.7L422.7 300.33L458.84 322.73C457.45 313.77 457.79 301.79 457.82 300.67C457.81 300.12 457.71 296.16 457.82 293.77C457.96 290.85 460.77 289.34 463.32 289.17C463.36 289.17 463.41 289.17 463.45 289.17H482.11C485.91 289.17 486.85 291.67 487.53 293.49L487.67 293.86C487.7 293.93 487.72 294.01 487.74 294.08C489.97 302.87 490.8 324.11 489.81 328.1C489.23 331.24 487.07 332.46 485.88 332.69C485.84 332.69 485.81 332.7 485.77 332.71L485.84 339.48L589.78 403.9C589.78 403.9 589.85 403.94 589.88 403.97C590.07 404.1 594.44 407.25 596.5 413.68C597.53 416.9 598.09 420.35 598.54 423.12C598.91 425.37 599.25 427.5 599.7 428.48C600.75 430.78 604.58 437.88 605.19 439C605.7 439.67 607.16 441.88 607.16 445.15V448.84C607.2 449.49 607.16 450.91 606.26 451.89C605.74 452.45 605.03 452.76 604.27 452.76C603.22 452.76 602.15 452.2 600.9 450.99C598.16 448.36 593.9 443.57 592.6 442.09C591.82 441.85 590.34 441.36 588.37 440.54C587.67 440.25 576.08 435.74 525.16 416.07C524.49 419.67 523.68 421.3 521.84 421.3C519.67 421.3 518.9 419.18 518.08 413.33L493.89 403.99C493.12 409.09 492.3 410.98 490.27 410.98C488.07 410.98 487.22 408.99 486.25 401.04L468.66 394.25C467.89 399.36 467.07 401.24 465.04 401.24C462.84 401.24 461.99 399.25 461.02 391.3L440.7 383.45C440 387.69 439.19 389.5 437.23 389.5C435.12 389.5 434.27 387.63 433.34 380.61L427.6 378.4L396.66 373.22C395.87 378.61 395.07 380.58 392.98 380.58C390.89 380.58 390.04 378.76 389.13 371.96L369.46 368.67C368.38 375.58 367.33 377.65 365.17 377.65C362.88 377.65 361.81 375.26 360.65 367.2L340.31 363.8V458.21C340.31 463.55 340.06 468.93 339.56 474.21C338.3 487.45 335.36 514.52 329.78 547.08C329.72 547.42 329.84 547.76 330.1 547.98C340.26 556.64 403.73 611.64 408.23 615.55C409.51 616.14 412.78 618.25 414.13 624.85C415.49 631.49 415.57 639.63 415.58 640.77C415.66 641.49 415.77 643.7 414.46 645.21C413.71 646.07 412.68 646.52 411.46 646.52C410.68 646.52 409.85 646.34 408.91 645.96C404.36 644.11 317.61 610.44 316.74 610.1C316.59 610.05 316.11 609.9 315.7 609.9C315.69 609.9 315.67 609.9 315.66 609.9C315.1 613.35 310.46 651.12 308.66 665.79C308.54 668 307.1 670.2 304.57 670.2H304.59Z" fill="white"/>
<path d="M304.591 4.94995C312.571 4.94995 335.031 63.63 335.031 106.81V246.37C335.031 247.6 335.661 248.74 336.711 249.39L402.391 290.1C402.19 287.96 402.141 285.69 402.141 285.59C395.611 285.59 396.621 254.69 396.621 254.69C396.621 254.69 396.501 250.35 396.621 247.88C396.741 245.42 400.26 245.18 400.26 245.18H418.921C421.5 245.18 421.851 246.59 422.621 248.58C424.911 257.62 425.5 278.74 424.671 281.67C424.201 284.37 422.32 284.72 422.32 284.72H420.561L420.721 301.45L461.781 326.9C459.261 318.26 459.841 300.68 459.841 300.68C459.841 300.68 459.721 296.34 459.841 293.87C459.961 291.4 463.48 291.17 463.48 291.17H482.141C484.72 291.17 485.071 292.58 485.841 294.57C488.131 303.61 488.72 324.73 487.891 327.66C487.421 330.36 485.54 330.71 485.54 330.71H483.781L483.881 340.58L588.761 405.58C588.761 405.58 592.751 408.4 594.631 414.26C596.511 420.13 596.741 426.7 597.921 429.28C599.091 431.86 603.551 440.08 603.551 440.08C603.551 440.08 605.191 442.02 605.191 445.13V448.89C605.191 448.89 605.341 450.74 604.301 450.74C603.871 450.74 603.241 450.42 602.321 449.53C599.151 446.48 593.751 440.32 593.751 440.32C593.751 440.32 591.991 439.85 589.171 438.68C587.951 438.17 557.621 426.44 523.611 413.3C523.031 417.29 522.451 419.29 521.871 419.29C521.221 419.29 520.581 416.82 519.931 411.88C510.751 408.33 501.371 404.71 492.281 401.2C491.621 406.38 490.961 408.96 490.301 408.96C489.57 408.96 488.851 405.84 488.121 399.59C480.761 396.75 473.651 394 467.051 391.45C466.391 396.63 465.73 399.22 465.07 399.22C464.34 399.22 463.621 396.09 462.891 389.85C453.391 386.18 445.171 383.01 439.121 380.67C438.501 385.22 437.88 387.49 437.26 387.49C436.57 387.49 435.891 384.71 435.201 379.16C430.73 377.43 428.161 376.44 428.161 376.44L394.98 370.89C394.32 376.01 393.671 378.56 393.01 378.56C392.35 378.56 391.641 375.78 390.951 370.21L367.811 366.34C366.941 372.53 366.071 375.63 365.191 375.63C364.311 375.63 363.361 372.24 362.451 365.45L340.551 361.79C340.441 361.77 340.34 361.76 340.23 361.76C339.201 361.76 338.331 362.59 338.331 363.66V458.19C338.331 463.47 338.081 468.74 337.581 474.01C336.331 487.13 333.4 514.2 327.82 546.73C327.641 547.76 328.011 548.81 328.811 549.49C339.411 558.52 407.181 617.26 407.181 617.26C407.181 617.26 410.781 618.36 412.191 625.24C413.601 632.12 413.6 640.89 413.6 640.89C413.6 640.89 414.1 644.51 411.48 644.51C411 644.51 410.411 644.39 409.691 644.09C405.071 642.21 317.491 608.22 317.491 608.22C317.491 608.22 316.63 607.88 315.73 607.88C314.871 607.88 313.971 608.19 313.741 609.39C313.271 611.85 306.701 665.6 306.701 665.6C306.701 665.6 306.59 668.18 304.6 668.18C302.611 668.18 302.501 665.6 302.501 665.6C302.501 665.6 295.931 611.85 295.461 609.39C295.23 608.19 294.331 607.88 293.471 607.88C292.611 607.88 291.711 608.22 291.711 608.22C291.711 608.22 204.121 642.21 199.511 644.09C198.791 644.38 198.201 644.51 197.721 644.51C195.101 644.51 195.601 640.89 195.601 640.89C195.601 640.89 195.601 632.13 197.011 625.24C198.421 618.36 202.021 617.26 202.021 617.26C202.021 617.26 269.79 558.52 280.391 549.49C281.181 548.81 281.551 547.76 281.381 546.73C275.801 514.2 272.861 487.13 271.621 474.01C271.121 468.75 270.871 463.48 270.871 458.19V363.66C270.871 362.59 270.001 361.76 268.971 361.76C268.871 361.76 268.76 361.76 268.651 361.79L246.751 365.45C245.841 372.24 244.921 375.63 244.011 375.63C243.101 375.63 242.271 372.53 241.391 366.34L218.251 370.21C217.561 375.77 216.881 378.56 216.191 378.56C215.501 378.56 214.871 376 214.221 370.89L181.041 376.44C181.041 376.44 178.471 377.43 174.001 379.16C173.311 384.71 172.631 387.49 171.941 387.49C171.321 387.49 170.701 385.22 170.081 380.67C164.021 383.01 155.801 386.18 146.311 389.85C145.581 396.1 144.861 399.22 144.131 399.22C143.471 399.22 142.811 396.63 142.151 391.45C135.551 394 128.441 396.74 121.081 399.59C120.351 405.84 119.631 408.96 118.901 408.96C118.241 408.96 117.581 406.37 116.921 401.2C107.831 404.71 98.4505 408.33 89.2705 411.88C88.6205 416.82 87.9805 419.29 87.3305 419.29C86.7505 419.29 86.1705 417.29 85.5905 413.3C51.5805 426.44 21.2505 438.17 20.0305 438.68C17.2105 439.85 15.4505 440.32 15.4505 440.32C15.4505 440.32 10.0505 446.48 6.88052 449.53C5.95052 450.42 5.32052 450.74 4.90052 450.74C3.86052 450.74 4.01052 448.89 4.01052 448.89V445.13C4.01052 442.02 5.65052 440.08 5.65052 440.08C5.65052 440.08 10.1105 431.87 11.2805 429.28C12.4505 426.7 12.6905 420.13 14.5705 414.26C16.4505 408.39 20.4405 405.58 20.4405 405.58L125.321 340.58L125.421 330.71H123.661C123.661 330.71 121.781 330.36 121.311 327.66C120.491 324.73 121.081 303.6 123.361 294.57C124.121 292.57 124.471 291.17 127.061 291.17H145.721C145.721 291.17 149.241 291.4 149.361 293.87C149.481 296.33 149.361 300.68 149.361 300.68C149.361 300.68 149.941 318.26 147.421 326.9L188.481 301.45L188.641 284.72H186.881C186.881 284.72 185.001 284.37 184.531 281.67C183.711 278.74 184.301 257.61 186.581 248.58C187.341 246.59 187.691 245.18 190.281 245.18H208.941C208.941 245.18 212.461 245.41 212.581 247.88C212.701 250.35 212.581 254.69 212.581 254.69C212.581 254.69 213.601 285.59 207.061 285.59C207.061 285.68 207.011 287.96 206.811 290.1L272.491 249.39C273.531 248.74 274.171 247.6 274.171 246.37V106.81C274.171 63.62 296.63 4.94995 304.611 4.94995M304.591 0.949951C300.801 0.949951 297.311 4.53995 292.921 12.94C289.53 19.43 285.861 28.4799 282.581 38.43C274.681 62.3999 270.151 87.32 270.151 106.81V246.11L214.901 280.36C215.551 277.52 216.091 273.61 216.391 268.14C216.751 261.57 216.591 255.61 216.571 254.67C216.591 253.93 216.681 250.06 216.571 247.68C216.371 243.54 212.611 241.41 209.201 241.18C209.111 241.18 209.021 241.18 208.931 241.18H190.271C185.091 241.18 183.711 244.83 182.971 246.8L182.831 247.16C182.771 247.31 182.731 247.45 182.691 247.61C180.381 256.74 179.591 277.9 180.591 282.49C181.171 285.6 182.991 287.32 184.581 288.13L184.471 299.23L152.811 318.85C153.601 310.69 153.381 301.91 153.341 300.68C153.361 299.94 153.451 296.07 153.341 293.69C153.141 289.55 149.381 287.42 145.971 287.19C145.881 287.19 145.791 287.19 145.701 287.19H127.041C121.861 287.19 120.481 290.84 119.741 292.81L119.601 293.17C119.541 293.32 119.501 293.47 119.461 293.62C117.151 302.75 116.361 323.91 117.361 328.5C117.941 331.61 119.761 333.32 121.351 334.14L121.311 338.38L18.3005 402.22C18.2305 402.26 18.1705 402.31 18.1005 402.35C17.5805 402.72 12.9505 406.14 10.7305 413.08C9.65052 416.45 9.08052 419.97 8.62052 422.81C8.31052 424.74 7.95052 426.93 7.61052 427.67C6.73052 429.61 3.56052 435.52 2.24052 437.96C1.53052 438.95 -0.0294815 441.54 -0.0294815 445.17V448.8C-0.0794815 449.76 0.0205184 451.77 1.40052 453.26C2.30052 454.24 3.53052 454.77 4.86052 454.77C6.96052 454.77 8.58052 453.44 9.62052 452.44C12.1905 449.97 16.0405 445.67 17.6605 443.84C18.5405 443.55 19.8705 443.08 21.5305 442.39C22.2605 442.09 33.5605 437.7 82.5305 418.78C83.2805 421.34 84.5805 423.31 87.3005 423.31C91.1405 423.31 92.2005 419.42 92.8805 414.78L113.681 406.75C114.421 410.33 115.721 412.99 118.871 412.99C122.991 412.99 123.981 408.52 124.741 402.48L138.921 397C139.661 400.58 140.961 403.24 144.111 403.24C148.231 403.24 149.221 398.77 149.981 392.73L166.951 386.18C167.691 389.2 169.001 391.51 171.931 391.51C175.911 391.51 176.931 387.34 177.651 382.05L182.091 380.34L210.831 375.53C211.551 379.5 212.781 382.58 216.171 382.58C220.011 382.58 221.101 378.7 221.811 373.69L238.041 370.98C239.011 376.34 240.371 379.65 243.981 379.65C247.971 379.65 249.241 375.66 250.271 368.93L266.841 366.16V458.21C266.841 463.61 267.1 469.06 267.6 474.4C268.85 487.6 271.771 514.5 277.301 546.84C265.98 556.51 205.661 608.78 199.821 613.85C197.991 614.78 194.501 617.41 193.061 624.44C191.701 631.08 191.581 639.15 191.571 640.65C191.461 641.8 191.421 644.49 193.181 646.51C194.301 647.8 195.901 648.51 197.681 648.51C198.721 648.51 199.801 648.28 200.981 647.8C205.211 646.08 280.921 616.69 291.831 612.46C292.91 620.57 296.221 647.41 298.491 665.97C298.701 669.1 300.82 672.2 304.581 672.2C308.341 672.2 310.461 669.1 310.671 665.97C312.94 647.42 316.251 620.58 317.331 612.46C328.29 616.71 403.951 646.09 408.181 647.8C409.361 648.28 410.44 648.51 411.48 648.51C413.26 648.51 414.861 647.8 415.98 646.51C417.741 644.49 417.711 641.8 417.591 640.65C417.581 639.15 417.46 631.08 416.1 624.44C414.66 617.41 411.181 614.77 409.341 613.85C403.491 608.78 343.181 556.51 331.861 546.84C337.391 514.5 340.311 487.6 341.561 474.4C342.071 469.06 342.32 463.61 342.32 458.21V366.16L358.891 368.93C359.921 375.66 361.191 379.65 365.181 379.65C368.79 379.65 370.161 376.33 371.121 370.98L387.35 373.69C388.07 378.7 389.161 382.58 392.991 382.58C396.381 382.58 397.621 379.5 398.331 375.53L427.07 380.34L431.51 382.05C432.23 387.33 433.25 391.51 437.23 391.51C440.16 391.51 441.461 389.21 442.211 386.18L459.181 392.73C459.941 398.77 460.931 403.24 465.051 403.24C468.201 403.24 469.491 400.58 470.241 397L484.421 402.47C485.181 408.51 486.171 412.98 490.29 412.98C493.44 412.98 494.73 410.32 495.48 406.74L516.281 414.77C516.961 419.41 518.021 423.3 521.861 423.3C524.581 423.3 525.881 421.33 526.631 418.77C575.591 437.69 586.901 442.08 587.631 442.38C589.291 443.07 590.611 443.54 591.491 443.83C593.111 445.66 596.971 449.96 599.531 452.43C600.57 453.43 602.191 454.76 604.291 454.76C605.621 454.76 606.851 454.22 607.751 453.25C609.131 451.75 609.231 449.75 609.181 448.79V445.16C609.181 441.53 607.63 438.94 606.911 437.95C605.591 435.51 602.421 429.6 601.541 427.66C601.201 426.92 600.851 424.73 600.531 422.8C600.07 419.97 599.501 416.44 598.421 413.07C596.201 406.13 591.571 402.7 591.051 402.34C590.981 402.29 590.921 402.25 590.851 402.21L487.841 338.37L487.801 334.13C489.391 333.32 491.22 331.6 491.79 328.49C492.79 323.9 492.011 302.74 489.691 293.61C489.651 293.46 489.6 293.31 489.551 293.16L489.411 292.8C488.671 290.84 487.301 287.18 482.111 287.18H463.451C463.361 287.18 463.271 287.18 463.181 287.18C459.771 287.41 456.011 289.54 455.811 293.68C455.701 296.06 455.791 299.93 455.811 300.67C455.771 301.9 455.551 310.68 456.341 318.84L424.681 299.22L424.57 288.12C426.16 287.31 427.981 285.59 428.561 282.48C429.561 277.89 428.781 256.73 426.461 247.6C426.421 247.45 426.37 247.3 426.32 247.15L426.181 246.79C425.441 244.83 424.071 241.17 418.881 241.17H400.221C400.131 241.17 400.04 241.17 399.951 241.17C396.54 241.4 392.781 243.53 392.581 247.67C392.471 250.05 392.561 253.92 392.581 254.66C392.551 255.61 392.401 261.56 392.76 268.13C393.06 273.61 393.591 277.51 394.251 280.35L339.001 246.1V106.81C339.001 87.32 334.47 62.3999 326.57 38.43C323.29 28.4799 319.621 19.42 316.23 12.94C311.84 4.53995 308.351 0.949951 304.561 0.949951L304.591 0.949951Z" fill="black"/>
</g>
<defs>
<clipPath id="clip0_564_38">
<rect width="609.2" height="671.25" fill="white" transform="translate(-0.00976562 0.949951)"/>
</clipPath>
</defs>
</svg>
