<svg width="214" height="209" viewBox="0 0 214 209" fill="none" xmlns="http://www.w3.org/2000/svg">
<g clip-path="url(#clip0_465_12)">
<path d="M106.54 207.06C105.75 207.06 105.31 206.7 105.09 206.41C104.72 205.94 104.71 205.4 104.75 205.1L104.41 201.08C99.6599 200.82 77.0499 199.6 74.8799 199.58C73.7399 199.58 72.9099 199.22 72.4199 198.53C71.8699 197.75 71.9999 196.86 72.0899 196.47L72.1299 191.52C72.1599 187.72 76.6599 186.24 76.8499 186.18C76.8899 186.17 76.9398 186.16 76.9799 186.15L101.04 182.02C100.07 176.56 95.4099 150.17 94.4899 143.76C93.4599 136.61 93.0098 128.51 93.0098 128.43L92.7399 98.3099C83.2999 98.0099 7.69985 95.5799 4.19985 95.5499C3.59985 95.5499 1.75985 95.5299 1.21985 94.2099C0.70985 92.9399 1.91985 91.6599 2.16985 91.4099L12.9099 80.1199C13.5499 79.4499 14.4199 79.0199 15.3399 78.9099L65.4799 73.3899C65.5499 71.9499 65.6098 70.6399 65.6599 69.4399C65.9298 63.1899 66.0899 59.6599 67.1098 56.2599C65.5398 56.3599 63.5899 56.4499 61.5599 56.4499C58.6199 56.4499 56.1899 56.2599 54.3299 55.8999C53.7299 55.7799 53.3099 55.2799 53.3099 54.6699C53.3099 54.0599 53.7199 53.5499 54.3099 53.4199C56.1599 53.0199 58.5399 52.8199 61.3999 52.8199C64.1099 52.8199 66.6798 52.9999 68.2999 53.1399C68.7699 52.1199 69.3298 51.0399 70.0499 49.7799C70.3898 49.1799 71.0298 48.8099 71.7198 48.8099C72.3098 48.8099 72.8499 49.0699 73.2099 49.5399C74.0299 50.5999 74.7699 51.8399 75.3998 53.2499C76.7699 53.1399 79.1798 52.9899 81.7898 52.9899C85.1098 52.9899 87.8299 53.2299 89.8899 53.7099C90.4799 53.8499 90.8898 54.3699 90.8699 54.9699C90.8598 55.5799 90.4298 56.0799 89.8298 56.1899C88.1999 56.4899 86.1099 56.6399 83.6399 56.6399C80.9999 56.6399 78.4099 56.4699 76.5499 56.3099C78.5698 62.8599 78.3999 70.2299 78.2499 72.9699L92.7198 73.0799L93.0699 29.2199C93.0999 25.4099 94.1898 20.5799 96.1199 15.6199C96.1999 15.4299 96.2299 15.2299 96.2399 15.0299L96.2598 13.0499C96.2598 12.1299 97.0199 11.3699 97.9499 11.3699C99.5199 8.34992 103.4 1.41992 107.35 1.41992C111.3 1.41992 115.18 8.35992 116.63 11.3399C117.63 11.3899 118.39 12.1499 118.39 13.0799V15.0599C118.39 15.2599 118.43 15.4599 118.5 15.6499C120.4 20.6199 121.45 25.4599 121.45 29.2699V73.1299H135.92C135.79 70.3899 135.68 63.0199 137.75 56.4899C136.03 56.6199 133.64 56.7599 131.16 56.7599C128.46 56.7599 126.2 56.5899 124.46 56.2599C123.86 56.1499 123.44 55.6399 123.43 55.0399C123.42 54.4299 123.83 53.9199 124.42 53.7799C126.37 53.3499 128.92 53.1199 132 53.1199C134.81 53.1199 137.44 53.3099 138.91 53.4299C139.55 52.0299 140.3 50.7999 141.13 49.7399C141.49 49.2899 142.03 49.0299 142.61 49.0299C143.31 49.0299 143.95 49.4099 144.29 50.0099C145 51.2799 145.55 52.3699 146.01 53.3899C147.52 53.2699 149.89 53.1199 152.41 53.1199C155.49 53.1199 158.04 53.3399 159.99 53.7699C160.58 53.8999 160.99 54.4199 160.98 55.0299C160.98 55.6399 160.55 56.1399 159.95 56.2499C158.21 56.5799 155.95 56.7499 153.25 56.7499C151.04 56.7499 148.89 56.6399 147.17 56.5199C148.17 59.9299 148.29 63.4599 148.52 69.7099C148.56 70.9199 148.61 72.2299 148.67 73.6599L198.77 79.5699C199.69 79.6799 200.56 80.1099 201.19 80.7899L211.86 92.1799C212.08 92.3999 213.29 93.6999 212.76 94.9699C212.22 96.2899 210.38 96.2899 209.77 96.2899C206.27 96.2899 130.82 98.1199 121.41 98.3399L120.71 128.42C120.71 128.54 120.19 136.63 119.1 143.77C118.13 150.17 113.26 176.52 112.24 181.97L136.27 186.29C136.27 186.29 136.36 186.31 136.4 186.32C136.59 186.38 141.08 187.89 141.08 191.69V196.64C141.17 197.03 141.29 197.92 140.73 198.7C140.24 199.39 139.41 199.73 138.26 199.73C136.09 199.73 113.47 200.77 108.72 200.99L108.35 205.01C108.38 205.31 108.37 205.89 107.98 206.37C107.75 206.66 107.31 207 106.54 207V207.06Z" fill="white"/>
<path d="M107.33 2.43994C107.33 2.43994 107.34 2.43994 107.35 2.43994C109.89 2.43994 113.11 6.46994 115.72 11.7999C115.9 12.1699 116.27 12.4099 116.69 12.4099C117.07 12.4099 117.38 12.7199 117.38 13.0999V15.0799C117.38 15.4099 117.44 15.7299 117.56 16.0299C119.28 20.5299 120.44 25.3799 120.44 29.2899V74.1499H136.97C136.97 74.1499 136.08 63.5799 139.19 55.3799C137.68 55.5199 134.48 55.7799 131.15 55.7799C128.87 55.7799 126.54 55.6599 124.64 55.2999C124.35 55.2499 124.35 54.8399 124.63 54.7799C126.78 54.2999 129.47 54.1499 132 54.1499C135.29 54.1499 138.32 54.4099 139.53 54.5199C140.17 53.0199 140.95 51.6099 141.91 50.3899C142.09 50.1599 142.35 50.0599 142.6 50.0599C142.92 50.0599 143.23 50.2199 143.41 50.5299C144.23 51.9999 144.87 53.2699 145.37 54.4799C146.8 54.3499 149.5 54.1499 152.41 54.1499C154.93 54.1499 157.62 54.2999 159.77 54.7799C160.06 54.8399 160.05 55.2499 159.77 55.2999C157.87 55.6599 155.54 55.7799 153.26 55.7799C150.28 55.7799 147.41 55.5699 145.76 55.4299C147.43 59.9599 147.27 63.9799 147.71 74.5899L198.66 80.5999C199.35 80.6799 199.99 81.0099 200.47 81.5099L211.14 92.8999C211.14 92.8999 213.56 95.3199 209.79 95.3199C206.02 95.3199 120.45 97.3999 120.45 97.3999L119.72 128.44C119.72 128.44 119.21 136.49 118.12 143.67C117.03 150.85 111.09 182.83 111.09 182.83L136.11 187.33C136.11 187.33 140.1 188.64 140.1 191.75V196.83C140.1 196.83 140.75 198.79 138.29 198.79C135.83 198.79 107.83 200.1 107.83 200.1L107.37 205.1C107.37 205.1 107.58 206.07 106.56 206.07C105.54 206.07 105.76 205.15 105.76 205.15L105.34 200.14C105.34 200.14 77.3603 198.61 74.8903 198.59C72.4203 198.57 73.0903 196.62 73.0903 196.62C73.0903 196.62 73.1103 194.66 73.1303 191.54C73.1503 188.42 77.1503 187.15 77.1503 187.15L102.2 182.85C102.2 182.85 96.5103 150.82 95.4803 143.64C94.4503 136.45 94.0103 128.4 94.0103 128.4L93.7303 97.3599C93.7303 97.3599 7.98031 94.5999 4.21031 94.5699C0.440313 94.5399 2.88031 92.1399 2.88031 92.1399L13.6403 80.8299C14.1203 80.3199 14.7603 80.0099 15.4603 79.9299L66.4503 74.3199C66.9703 63.7199 66.8403 59.6899 68.5503 55.1799C66.9903 55.2999 64.3503 55.4699 61.5703 55.4699C59.1303 55.4699 56.5803 55.3399 54.5403 54.9399C54.2503 54.8799 54.2503 54.4799 54.5403 54.4199C56.5603 53.9899 59.0403 53.8499 61.4203 53.8499C64.5103 53.8499 67.4403 54.0899 68.9403 54.2399C69.4503 53.0399 70.1003 51.7699 70.9303 50.3099C71.1003 50.0099 71.4203 49.8499 71.7303 49.8499C71.9903 49.8499 72.2503 49.9599 72.4303 50.1899C73.3803 51.4199 74.1503 52.8299 74.7803 54.3399C75.9303 54.2399 78.7103 54.0199 81.8003 54.0199C84.4703 54.0199 87.3803 54.1799 89.6803 54.7099C89.9603 54.7799 89.9503 55.1799 89.6703 55.2299C87.9103 55.5499 85.7703 55.6599 83.6503 55.6599C80.1503 55.6599 76.7103 55.3599 75.1203 55.1999C78.1603 63.4299 77.1903 73.9899 77.1903 73.9899L93.7203 74.1199L94.0803 29.2599C94.1103 25.3399 95.3103 20.4999 97.0703 16.0199C97.1903 15.7199 97.2503 15.3999 97.2503 15.0699L97.2703 13.0899C97.2703 12.7099 97.5803 12.4099 97.9603 12.4099C98.3703 12.4099 98.7403 12.1699 98.9203 11.8099C101.56 6.50994 104.8 2.45994 107.34 2.46994M107.33 0.439941C103.14 0.439941 99.3503 6.51994 97.3403 10.4499C96.1503 10.7199 95.2503 11.7799 95.2403 13.0499L95.2203 15.0299C95.2203 15.1099 95.2003 15.1899 95.1703 15.2699C93.1903 20.3299 92.0803 25.2899 92.0503 29.2199L91.8503 54.6999C91.7503 53.7499 91.0703 52.9599 90.1103 52.7399C87.9803 52.2499 85.1803 51.9999 81.7803 51.9999C79.5303 51.9999 77.4403 52.1099 76.0103 52.2099C75.4103 50.9899 74.7403 49.8999 74.0003 48.9399C73.4503 48.2299 72.6203 47.8299 71.7203 47.8299C70.6703 47.8299 69.7003 48.3999 69.1803 49.3099C68.5903 50.3399 68.1103 51.2599 67.6903 52.1099C66.0603 51.9799 63.7803 51.8399 61.4003 51.8399C58.4703 51.8399 56.0203 52.0499 54.1003 52.4599C53.0403 52.6899 52.3003 53.6099 52.3103 54.6999C52.3103 55.7899 53.0703 56.6899 54.1403 56.9099C56.0603 57.2899 58.5503 57.4799 61.5603 57.4799C63.0503 57.4799 64.5003 57.4299 65.7803 57.3699C65.0503 60.4799 64.9003 63.9099 64.6603 69.4299C64.6203 70.3899 64.5703 71.4199 64.5203 72.5299L15.2303 77.9499C14.0703 78.0799 12.9903 78.6099 12.1803 79.4599L1.44031 90.7499C0.500313 91.6899 -0.279687 93.1799 0.290313 94.6099C0.810313 95.8999 2.12031 96.5599 4.18031 96.5699C7.57031 96.5999 79.0303 98.8899 91.7303 99.2999L91.9903 128.42C91.9903 128.42 91.9903 128.48 91.9903 128.51C92.0103 128.84 92.4503 136.73 93.4803 143.92C94.3703 150.1 98.6003 174.07 99.8603 181.22L76.7903 185.18C76.7003 185.2 76.6103 185.22 76.5203 185.25C74.5203 185.89 71.1303 187.93 71.1003 191.53L71.0603 196.37C70.9303 196.97 70.8503 198.1 71.5703 199.12C72.0403 199.78 72.9903 200.58 74.8403 200.59C76.6403 200.6 93.4403 201.5 103.46 202.04L103.72 205.11C103.68 205.6 103.74 206.35 104.28 207.04C104.58 207.42 105.27 208.06 106.51 208.07C107.44 208.07 108.23 207.71 108.75 207.07C109.32 206.37 109.38 205.58 109.34 205.08L109.62 202.01C119.64 201.55 136.44 200.79 138.25 200.79C140.06 200.79 141.05 200 141.53 199.34C142.26 198.32 142.19 197.2 142.07 196.59V191.75C142.07 188.14 138.7 186.08 136.7 185.43C136.61 185.4 136.52 185.38 136.43 185.36L113.39 181.22C114.71 174.08 119.13 150.15 120.07 143.97C121.16 136.79 121.66 128.9 121.68 128.57C121.68 128.54 121.68 128.52 121.68 128.49L122.36 99.3599C135.02 99.0499 206.35 97.3299 209.74 97.3299C211.8 97.3299 213.12 96.6799 213.65 95.3999C214.24 93.9799 213.46 92.4699 212.53 91.5299L201.88 80.1599C201.08 79.3099 200 78.7599 198.84 78.6299L149.59 72.8199C149.55 71.7099 149.51 70.6799 149.48 69.7199C149.28 64.1999 149.16 60.7699 148.45 57.6499C149.9 57.7299 151.54 57.7999 153.22 57.7999C155.99 57.7999 158.3 57.6299 160.1 57.2799C161.17 57.0799 161.93 56.1799 161.94 55.0899C161.96 53.9999 161.23 53.0799 160.16 52.8399C158.14 52.3899 155.52 52.1599 152.36 52.1599C150.16 52.1599 148.08 52.2699 146.57 52.3799C146.16 51.5199 145.68 50.5999 145.1 49.5599C144.58 48.6399 143.61 48.0599 142.55 48.0599C141.66 48.0599 140.83 48.4599 140.28 49.1599C139.53 50.1099 138.85 51.1999 138.24 52.4099C136.69 52.2899 134.38 52.1499 131.93 52.1499C128.77 52.1499 126.15 52.3799 124.13 52.8299C123.17 53.0399 122.48 53.8199 122.37 54.7799V29.2999C122.37 25.3699 121.3 20.3999 119.36 15.3199C119.33 15.2399 119.31 15.1599 119.31 15.0799V13.0999C119.31 11.8299 118.42 10.7599 117.23 10.4799C115.32 6.52994 111.57 0.439941 107.35 0.439941L107.33 2.43994V0.439941ZM83.6303 57.6499C86.1703 57.6499 88.3103 57.4899 90.0103 57.1899C91.0103 57.0099 91.7403 56.2199 91.8603 55.2399L91.7303 72.0899L79.3003 71.9899C79.4103 68.9099 79.3603 63.0299 77.9103 57.4299C79.5803 57.5499 81.6003 57.6499 83.6503 57.6499H83.6303ZM122.43 72.1599V55.3099C122.54 56.2899 123.27 57.0899 124.26 57.2699C126.06 57.6099 128.38 57.7899 131.14 57.7899C133.01 57.7899 134.84 57.7099 136.37 57.6199C134.87 63.1999 134.78 69.0799 134.86 72.1699H122.43V72.1599Z" fill="black"/>
</g>
<defs>
<clipPath id="clip0_465_12">
<rect width="213.8" height="207.62" fill="white" transform="translate(0.0898438 0.439941)"/>
</clipPath>
</defs>
</svg>
