<svg width="100" height="132" viewBox="0 0 100 132" fill="none" xmlns="http://www.w3.org/2000/svg">
<g clip-path="url(#clip0_727_27)">
<path d="M49.7 130.53C48.6 130.53 48.15 129.37 47.98 128.14C44.11 127.7 28.06 125.87 27.13 125.74C25.78 125.55 25.16 124.42 25.01 123.78C24.99 123.7 24.98 123.63 24.98 123.55C24.98 123.55 24.98 121.42 25.01 119.27C25.05 116.99 26.68 115.93 27.53 115.69C33.58 114.12 42.73 111.73 43.24 111.57C43.22 111.56 43.34 111.16 43.17 110.31C41.8 104.67 41.1 90.59 41.07 89.99V89.82C40.98 89.79 40.87 89.76 40.79 89.75L6.98 82.31C6.7 86.38 5.78 88.44 4.24 88.44C2.07 88.44 1.29 84.14 1.29 80.12V59.21C1.13 58.93 1 58.56 1 57.93C1 57.15 1.31 56.58 1.68 56.23C2.61 52.34 3.84 52.34 4.25 52.34C5.26 52.34 5.84 53.4 6.24 54.32C6.85 55.74 7.16 57.3 7.16 58.95V65.08C7.26 65.17 7.5 65.35 8.01 65.6C8.24 65.71 8.51 65.77 8.78 65.77C8.84 65.77 8.9 65.77 8.96 65.77L13.87 65.31C13.87 54.96 13.95 54.96 15.14 54.96C16.26 54.96 16.39 54.96 16.4 63.67C16.53 63.61 16.68 63.58 16.85 63.58C17.63 63.58 17.95 64.24 18.1 64.91L22.32 64.51C22.37 63.19 22.55 62.24 23.55 62.24C24.48 62.24 24.7 63.11 24.77 64.28L29.41 63.84C29.5 63.07 29.76 62.32 30.61 62.32C31.37 62.32 31.66 62.94 31.77 63.61C39.21 62.9 41.26 62.69 41.74 62.64C42.07 62.34 42.72 61.11 43.19 59.91V46.91C43.19 46.91 43.04 44.57 43.19 38.1C43.33 32.26 43.95 29.43 44.11 28.81C44.16 27.19 44.63 11.65 44.86 9.43002C44.95 8.57002 45.81 1.02002 49.7 1.02002C53.59 1.02002 54.46 8.57002 54.54 9.43002C54.76 11.66 55.24 27.19 55.29 28.81C55.45 29.43 56.07 32.26 56.21 38.1C56.36 44.57 56.21 46.88 56.21 46.98V59.91C56.68 61.11 57.33 62.33 57.66 62.64C58.14 62.69 60.18 62.9 67.63 63.61C67.74 62.93 68.03 62.32 68.79 62.32C69.64 62.32 69.9 63.06 69.99 63.84L74.63 64.28C74.69 63.11 74.92 62.24 75.85 62.24C76.84 62.24 77.03 63.19 77.08 64.51L81.3 64.91C81.44 64.24 81.76 63.58 82.55 63.58C82.72 63.58 82.87 63.61 83 63.67C83.02 54.97 83.15 54.96 84.26 54.96C85.44 54.96 85.52 54.96 85.53 65.31L90.44 65.77C90.5 65.77 90.56 65.77 90.62 65.77C90.89 65.77 91.16 65.71 91.39 65.6C91.91 65.35 92.15 65.17 92.25 65.08V58.95C92.25 57.3 92.56 55.74 93.17 54.32C93.57 53.4 94.15 52.34 95.16 52.34C95.57 52.34 96.81 52.34 97.73 56.23C98.1 56.58 98.41 57.15 98.41 57.93C98.41 58.57 98.28 58.94 98.12 59.21V80.12C98.12 84.14 97.35 88.44 95.17 88.44C93.63 88.44 92.71 86.38 92.43 82.31L58.66 89.75C58.55 89.77 58.43 89.8 58.34 89.83V89.95C58.31 90.6 57.61 104.68 56.23 110.36C56.07 111.17 56.19 111.56 56.23 111.62C56.68 111.74 65.83 114.12 71.85 115.69C72.73 115.94 74.35 117 74.39 119.28C74.43 121.43 74.42 123.56 74.42 123.56C74.42 123.64 74.42 123.72 74.39 123.79C74.23 124.43 73.61 125.56 72.27 125.75C71.34 125.88 55.29 127.71 51.42 128.15C51.25 129.38 50.8 130.54 49.7 130.54V130.53Z" fill="white"/>
<path d="M49.6998 2C52.2198 2 53.3198 7.22 53.5498 9.51C53.7798 11.8 54.2998 28.94 54.2998 28.94C54.2998 28.94 55.0598 31.61 55.2198 38.11C55.3698 44.61 55.2198 46.9 55.2198 46.9V60.08C55.2198 60.08 56.4898 63.45 57.4098 63.59C57.7598 63.64 62.6298 64.12 68.5598 64.68C68.5898 63.76 68.6898 63.29 68.7998 63.29C68.9098 63.29 69.0198 63.77 69.0398 64.72C71.1598 64.92 73.3898 65.13 75.5998 65.34C75.6198 63.92 75.7298 63.21 75.8398 63.21C75.9498 63.21 76.0698 63.94 76.0798 65.39C78.1898 65.59 80.2698 65.79 82.1698 65.97C82.2198 65.02 82.3798 64.55 82.5298 64.55C82.6898 64.55 82.8498 65.05 82.8998 66.04C83.2698 66.07 83.6298 66.11 83.9898 66.14C83.9898 59.33 84.1298 55.93 84.2598 55.93C84.3898 55.93 84.5198 59.35 84.5298 66.19C87.1998 66.44 89.2998 66.64 90.3498 66.74C90.4398 66.74 90.5298 66.75 90.6198 66.75C91.0398 66.75 91.4498 66.66 91.8198 66.48C92.4498 66.18 93.2398 65.7 93.2398 65.24V58.92C93.2398 57.47 93.5098 56.02 94.0798 54.69C94.3998 53.94 94.7798 53.32 95.1498 53.32C96.0698 53.32 96.8298 56.8 96.8298 56.8C96.8298 56.8 97.3998 57.06 97.3998 57.92C97.3998 58.78 97.1098 58.75 97.1098 58.98V80.11C97.1098 84.96 96.0198 87.43 95.1598 87.43C93.5798 87.43 93.3498 81.07 93.3498 81.07L58.4298 88.76C58.4298 88.76 57.3198 88.95 57.3198 89.45V89.95C57.3198 89.95 56.6098 104.47 55.2398 110.12C55.0098 111.27 55.1298 112.3 55.8498 112.53C56.5798 112.76 71.5898 116.66 71.5898 116.66C71.5898 116.66 73.3498 117.16 73.3898 119.3C73.4298 121.44 73.4198 123.56 73.4198 123.56C73.4198 123.56 73.1598 124.62 72.1298 124.76C71.0998 124.9 50.4998 127.25 50.4998 127.25C50.4998 127.25 50.3898 129.54 49.6998 129.54C49.0098 129.54 48.8998 127.25 48.8998 127.25C48.8998 127.25 28.2998 124.9 27.2698 124.76C26.2398 124.62 25.9798 123.56 25.9798 123.56C25.9798 123.56 25.9798 121.44 26.0098 119.3C26.0498 117.16 27.8098 116.66 27.8098 116.66C27.8098 116.66 42.8198 112.76 43.5498 112.53C44.2798 112.3 44.3898 111.27 44.1598 110.12C42.7798 104.47 42.0798 89.95 42.0798 89.95V89.45C42.0798 88.95 40.9698 88.76 40.9698 88.76L6.04977 81.07C6.04977 81.07 5.81977 87.43 4.23977 87.43C3.38977 87.43 2.28977 84.97 2.28977 80.11V58.98C2.28977 58.75 1.99977 58.78 1.99977 57.92C1.99977 57.06 2.56977 56.8 2.56977 56.8C2.56977 56.8 3.32977 53.32 4.24977 53.32C4.61977 53.32 4.99977 53.94 5.31977 54.69C5.89977 56.02 6.15977 57.47 6.15977 58.92V65.24C6.15977 65.7 6.94977 66.17 7.57977 66.48C7.95977 66.66 8.36977 66.75 8.77977 66.75C8.86977 66.75 8.95977 66.75 9.04977 66.74C10.0898 66.64 12.1998 66.44 14.8698 66.19C14.8698 59.35 14.9998 55.93 15.1398 55.93C15.2698 55.93 15.3998 59.33 15.4098 66.14C15.7598 66.11 16.1298 66.07 16.4998 66.04C16.5498 65.05 16.7098 64.55 16.8698 64.55C17.0298 64.55 17.1798 65.02 17.2298 65.97C19.1298 65.79 21.1998 65.59 23.3198 65.39C23.3398 63.94 23.4498 63.21 23.5598 63.21C23.6698 63.21 23.7798 63.92 23.7998 65.34C26.0098 65.13 28.2398 64.92 30.3598 64.72C30.3798 63.77 30.4898 63.29 30.5998 63.29C30.7098 63.29 30.8198 63.75 30.8398 64.68C36.7698 64.11 41.6498 63.64 41.9898 63.59C42.9098 63.45 44.1798 60.08 44.1798 60.08V46.9C44.1798 46.9 44.0298 44.61 44.1798 38.11C44.3298 31.62 45.0998 28.94 45.0998 28.94C45.0998 28.94 45.6198 11.8 45.8498 9.51C46.0798 7.22 47.1798 2 49.6998 2ZM49.6998 0C45.0298 0 44.0198 7.75 43.8598 9.31C43.6398 11.53 43.1798 26.58 43.1098 28.66C42.9098 29.52 42.3198 32.45 42.1898 38.06C42.0498 44.02 42.1598 46.5 42.1898 46.95V59.69C41.8798 60.46 41.4798 61.25 41.2098 61.66C40.3398 61.75 38.0798 61.97 32.4798 62.51C32.1798 61.84 31.6298 61.29 30.6098 61.29C29.4098 61.29 28.8598 62.05 28.5998 62.88L25.6398 63.16C25.4198 62.09 24.8898 61.21 23.5598 61.21C22.0798 61.21 21.5798 62.31 21.4098 63.56L18.7898 63.81C18.4798 63.15 18.0198 62.74 17.3998 62.6C17.3898 60.96 17.3598 59.55 17.3298 58.42C17.2998 57.56 17.2698 56.89 17.2398 56.42C17.0898 54.36 16.0198 53.93 15.1498 53.93C14.2798 53.93 13.2098 54.36 13.0598 56.43C13.0298 56.9 12.9998 57.58 12.9698 58.44C12.9298 59.95 12.8998 61.98 12.8898 64.37L8.87977 64.75C8.87977 64.75 8.81977 64.75 8.79977 64.75C8.67977 64.75 8.55977 64.72 8.46977 64.68C8.34977 64.62 8.25977 64.57 8.17977 64.53V58.92C8.17977 57.13 7.83977 55.44 7.16977 53.9C6.86977 53.19 6.05977 51.32 4.25977 51.32C3.22977 51.32 1.76977 51.79 0.779766 55.73C0.339766 56.24 0.00976562 56.98 0.00976562 57.92C0.00976562 58.6 0.139766 59.08 0.299766 59.44V80.11C0.299766 82.91 0.679765 89.43 4.24977 89.43C5.01977 89.43 7.20977 89.43 7.87977 83.52L40.1098 90.62C40.2598 93.42 40.9498 105.33 42.2098 110.55C42.2298 110.65 42.2398 110.74 42.2498 110.81C39.9098 111.44 32.4398 113.38 27.3098 114.72C26.1698 115.04 24.0698 116.39 24.0198 119.26C23.9798 121.4 23.9898 123.54 23.9898 123.56C23.9898 123.72 24.0098 123.87 24.0498 124.02C24.3398 125.21 25.3598 126.5 27.0098 126.73C27.8998 126.85 42.3298 128.5 47.1598 129.05C47.6898 131.17 48.9298 131.53 49.7198 131.53C50.5098 131.53 51.7498 131.17 52.2798 129.05C57.1098 128.5 71.5398 126.85 72.4298 126.73C74.0698 126.5 75.0998 125.2 75.3898 124.02C75.4298 123.87 75.4498 123.71 75.4498 123.56C75.4498 123.54 75.4498 121.39 75.4198 119.26C75.3698 116.39 73.2698 115.05 72.1698 114.73C66.9998 113.39 59.5398 111.44 57.1898 110.81C57.1898 110.73 57.2098 110.64 57.2298 110.55C58.4898 105.34 59.1798 93.42 59.3298 90.62L91.5598 83.52C92.2298 89.43 94.4198 89.43 95.1898 89.43C98.7498 89.43 99.1398 82.91 99.1398 80.11V59.43C99.2998 59.07 99.4298 58.59 99.4298 57.91C99.4298 56.97 99.0998 56.24 98.6598 55.72C97.6598 51.79 96.2098 51.31 95.1798 51.31C93.3898 51.31 92.5798 53.18 92.2698 53.89C91.5998 55.44 91.2598 57.13 91.2598 58.91V64.52C91.1798 64.56 91.0798 64.61 90.9698 64.67C90.8698 64.72 90.7598 64.74 90.6398 64.74C90.6098 64.74 90.5798 64.74 90.5598 64.74L86.5498 64.36C86.5498 61.97 86.5098 59.94 86.4698 58.43C86.4398 57.57 86.4098 56.89 86.3798 56.42C86.2298 54.37 85.1698 53.93 84.2998 53.92C84.2998 53.92 84.2998 53.92 84.2898 53.92C83.7598 53.92 83.2498 54.13 82.8698 54.51C82.2698 55.1 82.0798 55.3 82.0298 62.6C81.4098 62.74 80.9498 63.14 80.6398 63.81L78.0198 63.56C77.8498 62.31 77.3598 61.21 75.8698 61.21C74.5398 61.21 74.0098 62.09 73.7898 63.16L70.8298 62.88C70.5698 62.05 70.0198 61.29 68.8198 61.29C67.8098 61.29 67.2598 61.84 66.9598 62.51C61.3698 61.98 59.0998 61.75 58.2198 61.66C57.9498 61.25 57.5598 60.46 57.2398 59.69V46.95C57.2698 46.5 57.3798 44.02 57.2398 38.06C57.1098 32.45 56.5198 29.53 56.3198 28.66C56.2598 26.58 55.7898 11.53 55.5698 9.31C55.4098 7.76 54.3998 0 49.7298 0L49.6998 0Z" fill="black"/>
</g>
<defs>
<clipPath id="clip0_727_27">
<rect width="99.4" height="131.53" fill="white"/>
</clipPath>
</defs>
</svg>
