<svg width="100" height="127" viewBox="0 0 100 127" fill="none" xmlns="http://www.w3.org/2000/svg">
<g clip-path="url(#clip0_556_12)">
<path d="M49.16 125.67C48.56 125.67 48.08 125.18 48.07 124.56V123.76C47.72 123.52 47.49 123.23 47.34 122.93L29.91 121.14V121.8C29.92 122.01 29.91 122.42 29.61 122.76C29.38 123.02 29.06 123.17 28.71 123.17C28.36 123.17 28.02 123.02 27.8 122.75C27.72 122.65 27.66 122.55 27.62 122.44C27.46 122.52 27.27 122.58 27.04 122.58C26.72 122.58 26.4 122.45 26.17 122.21C25.62 121.66 25.72 120.9 26.1 120.43C26.12 120.4 26.15 120.38 26.17 120.35L26.57 119.96C26.53 119.82 26.5 119.67 26.5 119.49C26.5 115.8 26.92 112.99 27.21 112.25C27.54 111.41 28.36 111.1 28.52 111.04L43.13 106.71C41.68 97.6501 40.93 86.9201 40.81 84.7501C40.76 84.7301 40.7 84.7201 40.65 84.7101C40.29 84.6301 9.14002 77.6001 6.98002 77.1201C6.97002 77.1301 6.96002 77.1401 6.94002 77.1601C6.78002 77.5901 6.28002 78.9401 6.10002 79.5601C6.00002 79.9201 5.69002 81.0001 4.74002 81.0001C4.71002 81.0001 4.68002 81.0001 4.65002 81.0001C3.96002 80.9501 3.66002 80.2801 3.54002 80.0201C3.46002 79.8401 3.38002 79.6601 3.32002 79.4701C2.37002 76.4801 2.03002 75.2101 1.82002 70.6201L1.80002 70.3201C1.79002 70.0601 1.77002 69.8101 1.77002 69.5501V60.4901C1.98002 51.6301 3.64002 51.6301 4.35002 51.6301C5.39002 51.6301 6.56002 52.2601 7.29002 59.8001C7.30002 59.9501 7.38002 60.0801 7.50002 60.1601L8.36002 60.7501L13.94 60.0801V53.7101C13.94 53.6001 13.95 53.3601 14.08 53.1201V51.3401C14.11 49.9001 14.9 49.7401 15.24 49.7401C15.58 49.7401 16.37 49.8901 16.4 51.3201V53.1201C16.53 53.3701 16.54 53.6101 16.54 53.7301V59.7701L23.23 58.9501C23.44 57.8601 23.79 57.0001 24.68 57.0001C25.5 57.0001 25.85 57.7101 26.05 58.6201C27.47 58.4901 29.04 58.4201 30.83 58.4201C32.23 58.4201 33.52 58.4601 34.56 58.4901C35.25 58.5101 35.84 58.5301 36.27 58.5301C36.5 58.5301 36.68 58.5301 36.79 58.5101C39.48 58.1301 41.76 57.7401 42.36 57.6301C42.54 57.2101 43.13 55.8301 43.52 54.8201C43.68 54.4001 43.75 53.9401 43.72 53.5001C43.38 48.9201 43.54 43.4001 43.67 38.9701C43.72 37.1001 43.77 35.4801 43.77 34.2401C43.77 24.7701 45.28 16.5901 46.54 11.4001C49 1.33008 50.23 1.33008 50.64 1.33008C51.16 1.33008 52.23 1.33008 54.34 11.3901C55.42 16.5401 56.71 24.6701 56.71 34.1601C56.71 35.0301 56.71 36.0801 56.73 37.2701C56.77 41.9001 56.83 48.2401 56.43 53.4101C56.39 53.8601 56.46 54.3201 56.63 54.7501C57.02 55.7601 57.61 57.1301 57.79 57.5601C58.12 57.6101 58.93 57.7101 59.96 57.8501C61.29 58.0201 62.98 58.2301 64.48 58.4501C65.39 58.5801 68.71 58.9901 74.11 59.6601C74.31 58.7601 74.67 58.0501 75.48 58.0501C76.37 58.0501 76.72 58.9101 76.93 60.0001L83.65 60.8201L83.62 54.7601C83.62 54.6501 83.63 54.4101 83.76 54.1601V52.3801C83.79 50.9401 84.58 50.7801 84.92 50.7801C85.26 50.7801 86.04 50.9301 86.08 52.3601V54.1601C86.21 54.4101 86.22 54.6501 86.22 54.7701V61.1301L91.79 61.8101L92.66 61.2101C92.78 61.1301 92.86 61.0001 92.87 60.8501C93.6 53.3101 94.77 52.6801 95.81 52.6801C96.52 52.6801 98.18 52.6801 98.39 61.5201V70.6001C98.39 70.8501 98.38 71.1101 98.36 71.3601L98.34 71.6601C98.13 76.2501 97.79 77.5201 96.84 80.5101C96.78 80.7001 96.71 80.8801 96.62 81.0601C96.5 81.3201 96.19 81.9901 95.51 82.0401C95.48 82.0401 95.45 82.0401 95.42 82.0401C94.47 82.0401 94.16 80.9601 94.06 80.6001C93.88 79.9801 93.38 78.6301 93.22 78.2001C93.21 78.1901 93.2 78.1801 93.18 78.1601C90.99 78.6001 59.44 84.7001 58.07 84.9701C58.02 84.9701 57.96 85.0001 57.91 85.0101C57.79 87.1801 57.03 97.9301 55.59 106.97L70.17 111.29C70.36 111.35 71.19 111.67 71.51 112.51C71.8 113.24 72.22 116.05 72.22 119.75C72.22 119.92 72.2 120.08 72.15 120.22L72.55 120.61C72.55 120.61 72.6 120.66 72.62 120.69C73 121.16 73.1 121.92 72.55 122.47C72.31 122.71 72 122.84 71.68 122.84C71.45 122.84 71.25 122.78 71.1 122.69C71.06 122.79 71 122.9 70.91 123C70.69 123.27 70.36 123.42 70 123.42C69.64 123.42 69.32 123.28 69.1 123.01C68.8 122.67 68.78 122.26 68.8 122.05V121.38L50.97 123.07C50.82 123.35 50.59 123.63 50.25 123.85V124.53C50.24 125.17 49.76 125.65 49.16 125.65V125.67Z" fill="white"/>
<path d="M50.6398 2.33029C51.1398 2.33029 55.7198 16.4403 55.7198 34.1703C55.7198 38.3603 55.9498 46.8703 55.4398 53.3403C55.3898 53.9503 55.4798 54.5503 55.6998 55.1203C56.1698 56.3403 56.9298 58.0903 56.9298 58.0903C56.9298 58.0903 57.0198 58.4403 57.5198 58.5303C58.0198 58.6203 61.5098 59.0403 64.3398 59.4303C65.4498 59.5903 69.9198 60.1403 74.9298 60.7603C74.9798 60.4003 75.1898 59.0503 75.4798 59.0503C75.7698 59.0503 76.0098 60.5303 76.0598 60.9003C78.9298 61.2503 81.9098 61.6203 84.4898 61.9303C84.5598 61.8203 84.6098 61.6703 84.6098 61.4503V54.7603C84.6098 54.7603 84.6098 54.5503 84.7498 54.5503V52.3803C84.7498 52.3803 84.7598 51.7803 84.9098 51.7803C85.0598 51.7803 85.0698 52.3803 85.0698 52.3803V54.5503C85.2098 54.5503 85.2098 54.7603 85.2098 54.7603V61.4503C85.2098 61.7603 85.3198 61.9403 85.4298 62.0403C89.0698 62.4803 91.7098 62.8003 91.7098 62.8003C91.7098 62.8003 91.7498 62.8003 91.8098 62.8003C91.9298 62.8003 92.1198 62.7903 92.2398 62.7003C92.3498 62.6303 92.8198 62.3003 93.2198 62.0303C93.5798 61.7803 93.8198 61.3803 93.8598 60.9403C94.0498 59.0103 94.6698 53.6803 95.7998 53.6803C97.1898 53.6803 97.3798 61.5403 97.3798 61.5403V70.6003C97.3798 70.9403 97.3498 71.2803 97.3398 71.6203C97.1398 76.2003 96.7898 77.3703 95.8898 80.2103C95.8398 80.3603 95.7798 80.5003 95.7198 80.6503C95.5498 81.0203 95.4598 81.0503 95.4398 81.0503C95.4398 81.0503 95.4398 81.0503 95.4198 81.0503C95.3698 81.0503 95.2098 80.9903 95.0298 80.3403C94.8098 79.5503 94.1198 77.7203 94.1198 77.7203C94.1198 77.7203 93.7598 77.1503 93.2498 77.1503C93.1998 77.1503 93.1498 77.1503 93.0998 77.1703C92.4998 77.3003 57.8998 84.0003 57.8998 84.0003C57.8998 84.0003 56.9598 84.1703 56.9398 84.6503C56.9298 85.1203 56.1798 97.1503 54.5698 107.11C54.4998 107.51 54.7198 107.77 54.7198 107.77L69.8998 112.26C69.8998 112.26 70.4198 112.43 70.5998 112.88C70.7798 113.33 71.2398 115.8 71.2398 119.75C71.2398 119.9 71.2198 120.05 70.9998 120.09C70.7798 120.13 70.7098 120.17 70.7098 120.17L71.8598 121.32C71.8598 121.32 72.0598 121.57 71.8598 121.77C71.7998 121.83 71.7498 121.85 71.6898 121.85C71.5498 121.85 71.4498 121.72 71.4498 121.72L70.1998 120.37V122.09C70.1998 122.09 70.2698 122.43 70.0098 122.43C69.7498 122.43 69.7998 122.1 69.7998 122.1V120.29L50.2098 122.15C50.2098 122.15 50.2498 122.82 49.4298 123.17C49.4298 123.39 49.2498 123.4 49.2498 123.4V124.54C49.2498 124.54 49.2498 124.66 49.1598 124.66C49.0698 124.66 49.0698 124.53 49.0698 124.53V123.28C49.0698 123.28 48.8898 123.28 48.8898 123.05C48.0698 122.7 48.1398 121.99 48.1398 121.99L28.9098 120.02V121.83C28.9098 121.83 28.9598 122.16 28.7098 122.16C28.4598 122.16 28.5198 121.82 28.5198 121.82V120.1L27.2698 121.45C27.2698 121.45 27.1598 121.58 27.0298 121.58C26.9798 121.58 26.9198 121.56 26.8598 121.5C26.6598 121.3 26.8598 121.05 26.8598 121.05L28.0098 119.9C28.0098 119.9 27.9298 119.86 27.7198 119.82C27.5098 119.78 27.4798 119.62 27.4798 119.48C27.4798 115.53 27.9498 113.05 28.1198 112.61C28.2898 112.17 28.8198 111.99 28.8198 111.99L43.9998 107.5C43.9998 107.5 44.2198 107.24 44.1498 106.84C42.5398 96.8803 41.7898 84.8503 41.7798 84.3803C41.7698 83.9103 40.8198 83.7303 40.8198 83.7303C40.8198 83.7303 7.66979 76.2503 7.06979 76.1203C7.01979 76.1103 6.96979 76.1003 6.91979 76.1003C6.39979 76.1003 6.04979 76.6703 6.04979 76.6703C6.04979 76.6703 5.35979 78.5003 5.13979 79.2903C4.95979 79.9403 4.79979 80.0003 4.74979 80.0003C4.73979 80.0003 4.72979 80.0003 4.72979 80.0003C4.70979 80.0003 4.61979 79.9803 4.44979 79.6003C4.37979 79.4603 4.32979 79.3103 4.27979 79.1603C3.37979 76.3203 3.02979 75.1503 2.82979 70.5703C2.80979 70.2303 2.78979 69.8903 2.78979 69.5503V60.4903C2.78979 60.4903 2.97979 52.6303 4.36979 52.6303C5.50979 52.6303 6.12979 57.9603 6.30979 59.8903C6.34979 60.3303 6.58979 60.7303 6.94979 60.9803C7.34979 61.2503 7.81979 61.5803 7.92979 61.6503C8.05979 61.7403 8.24979 61.7503 8.35979 61.7503C8.41979 61.7503 8.45978 61.7503 8.45978 61.7503C8.45978 61.7503 11.0898 61.4303 14.7398 60.9903C14.8498 60.8903 14.9598 60.7103 14.9598 60.4003V53.7103C14.9598 53.7103 14.9598 53.5003 15.0998 53.5003V51.3303C15.0998 51.3303 15.1098 50.7303 15.2598 50.7303C15.4098 50.7303 15.4198 51.3303 15.4198 51.3303V53.5003C15.5598 53.5003 15.5598 53.7103 15.5598 53.7103V60.4003C15.5598 60.6203 15.6098 60.7703 15.6798 60.8803C18.2598 60.5703 21.2398 60.2003 24.1098 59.8503C24.1598 59.4803 24.3998 58.0003 24.6898 58.0003C24.9798 58.0003 25.1898 59.3603 25.2398 59.7103C27.1098 59.4803 29.0698 59.4103 30.8398 59.4103C33.1798 59.4103 35.1998 59.5203 36.2898 59.5203C36.5798 59.5203 36.7998 59.5203 36.9498 59.4903C39.7798 59.0903 42.1498 58.6803 42.6598 58.5903C43.1598 58.5003 43.2498 58.1503 43.2498 58.1503C43.2498 58.1503 44.0098 56.4003 44.4798 55.1803C44.6998 54.6203 44.7898 54.0203 44.7498 53.4203C44.2698 46.9503 44.8098 38.4203 44.8098 34.2403C44.8098 16.5103 50.1698 2.33029 50.6698 2.33029M50.6398 0.330293C49.4998 0.330293 48.2198 0.330293 45.5798 11.1603C44.2998 16.4103 42.7798 24.6703 42.7798 34.2403C42.7798 35.4703 42.7298 37.0803 42.6798 38.9403C42.5498 43.3903 42.3898 48.9303 42.7298 53.5703C42.7498 53.8703 42.7098 54.1703 42.5898 54.4603C42.3098 55.1903 41.9098 56.1303 41.6498 56.7403C40.6798 56.9103 38.7898 57.2203 36.6398 57.5203C36.5598 57.5203 36.4198 57.5203 36.2598 57.5203C35.8298 57.5203 35.2598 57.5003 34.5798 57.4803C33.5398 57.4503 32.2398 57.4103 30.8098 57.4103C29.3798 57.4103 27.9898 57.4603 26.7498 57.5503C26.4098 56.7203 25.7998 56.0003 24.6598 56.0003C23.3198 56.0003 22.7098 57.0003 22.3998 58.0403C20.7498 58.2403 19.0898 58.4503 17.5198 58.6403V53.7103C17.5198 53.4403 17.4798 53.1703 17.3798 52.9103V51.3303C17.3298 48.8103 15.4398 48.7303 15.2198 48.7303C14.9998 48.7303 13.1198 48.8003 13.0698 51.2803V52.9003C12.9698 53.1603 12.9298 53.4403 12.9298 53.7203V59.1803L8.60979 59.7103C8.49979 59.6303 8.36978 59.5503 8.24978 59.4603C7.59978 52.9403 6.56979 50.6203 4.33979 50.6203C1.67979 50.6203 1.27979 54.1903 1.03979 56.3303C0.829785 58.3803 0.779785 60.3703 0.779785 60.4503V69.5603C0.779785 69.8303 0.789785 70.1103 0.809785 70.3803L0.829785 70.6703C1.03979 75.3903 1.38979 76.6903 2.36979 79.7703C2.43979 79.9803 2.51979 80.2003 2.62979 80.4303C3.17979 81.6203 3.95979 81.9503 4.57979 81.9903C4.63979 81.9903 4.68979 81.9903 4.74979 81.9903C5.38979 81.9903 6.53979 81.7103 7.06979 79.8203C7.16979 79.4703 7.38979 78.8303 7.58979 78.2703C12.5998 79.4003 35.9898 84.6703 39.8498 85.5403C40.0598 88.7303 40.7598 97.9003 41.9998 105.99L28.2598 110.06C28.2598 110.06 28.2198 110.07 28.1998 110.08C27.5198 110.31 26.6498 110.9 26.2698 111.87C25.9698 112.64 25.4898 115.39 25.4898 119.47C25.4898 119.51 25.4898 119.55 25.4898 119.58L25.4498 119.62C25.3998 119.67 25.3498 119.72 25.3098 119.78C24.5498 120.72 24.6098 122.06 25.4498 122.9C25.8798 123.33 26.4398 123.56 27.0298 123.56C27.0898 123.56 27.1498 123.56 27.2098 123.56C27.6098 123.94 28.1398 124.15 28.7098 124.15C29.3498 124.15 29.9498 123.88 30.3698 123.4C30.7098 123.01 30.8498 122.59 30.8998 122.23L46.7598 123.86C46.8498 123.98 46.9598 124.1 47.0698 124.21V124.52C47.0898 125.73 48.0098 126.65 49.1598 126.65C50.3098 126.65 51.2298 125.73 51.2498 124.57V124.33C51.3498 124.23 51.4498 124.13 51.5298 124.02L67.8198 122.48C67.8698 122.84 68.0098 123.27 68.3498 123.67C68.7598 124.15 69.3698 124.42 70.0098 124.42C70.5798 124.42 71.1098 124.21 71.5098 123.83C71.5698 123.83 71.6298 123.83 71.6898 123.83C72.2798 123.83 72.8398 123.59 73.2698 123.17C74.1098 122.33 74.1698 120.99 73.4098 120.05C73.3598 119.99 73.3198 119.94 73.2698 119.89L73.2298 119.85C73.2298 119.85 73.2298 119.77 73.2298 119.74C73.2298 115.66 72.7498 112.91 72.4498 112.14C72.0698 111.16 71.2098 110.57 70.5198 110.35C70.4998 110.35 70.4798 110.34 70.4598 110.33L56.7198 106.26C57.9598 98.1703 58.6598 89.0403 58.8698 85.8303C63.8598 84.8603 87.5098 80.2903 92.5698 79.3003C92.7698 79.8703 92.9998 80.5203 93.0998 80.8703C93.6298 82.7603 94.7798 83.0403 95.4198 83.0403C95.4798 83.0403 95.5298 83.0403 95.5898 83.0403C96.1998 83.0003 96.9898 82.6803 97.5398 81.4803C97.6498 81.2503 97.7298 81.0303 97.7998 80.8203C98.7798 77.7403 99.1298 76.4303 99.3398 71.7103L99.3598 71.4203C99.3798 71.1503 99.3898 70.8703 99.3898 70.6003V61.5403C99.3898 61.4103 99.3398 59.4203 99.1098 57.3903C98.8698 55.2603 98.4698 51.6803 95.8098 51.6803C93.5798 51.6803 92.5498 54.0003 91.8998 60.5203C91.7798 60.6103 91.6498 60.6903 91.5398 60.7703L87.2198 60.2403V54.7503C87.2198 54.4803 87.1798 54.2103 87.0798 53.9503V52.3703C87.0298 49.8503 85.1398 49.7703 84.9198 49.7703C84.6998 49.7703 82.8198 49.8403 82.7698 52.3203V53.9403C82.6698 54.2003 82.6298 54.4803 82.6298 54.7703V59.6703C81.0598 59.4803 79.3998 59.2703 77.7498 59.0703C77.4398 58.0303 76.8298 57.0303 75.4898 57.0303C74.3698 57.0303 73.7598 57.7303 73.4198 58.5403C68.5098 57.9303 65.4798 57.5503 64.6298 57.4303C63.1298 57.2203 61.4398 57.0003 60.0998 56.8303C59.5198 56.7603 58.9198 56.6803 58.4898 56.6203C58.2298 56.0103 57.8398 55.0803 57.5598 54.3603C57.4498 54.0703 57.3998 53.7603 57.4298 53.4603C57.8398 48.2503 57.7798 41.8803 57.7298 37.2403C57.7198 36.0603 57.7098 35.0103 57.7098 34.1403C57.7098 24.5603 56.4098 16.3603 55.3198 11.1603C54.7798 8.59029 54.1498 6.11029 53.5498 4.19029C52.8498 1.93029 52.3398 0.300293 50.6398 0.300293V0.330293Z" fill="black"/>
</g>
<defs>
<clipPath id="clip0_556_12">
<rect width="98.6" height="126.34" fill="white" transform="translate(0.779785 0.330078)"/>
</clipPath>
</defs>
</svg>
