<svg width="320" height="221" viewBox="0 0 320 221" fill="none" xmlns="http://www.w3.org/2000/svg">
<g clip-path="url(#clip0_576_2)">
<path d="M156.05 218.88C155.38 218.88 154.76 218.61 154.29 218.12C153.77 217.57 153.5 216.81 153.53 215.97C153.53 215.91 153.56 213.81 153.63 212.21C152.44 210.18 151.93 206.84 151.72 204.72C151.29 204.59 150.86 204.35 150.54 203.9C143.27 203.23 117.71 200.52 114.78 199.95C113.16 199.64 111.97 199.09 111.09 198.49C110.61 198.87 110.1 198.98 109.69 198.98C108.75 198.98 107.62 198.37 107.27 196.65C107.25 196.56 107.24 196.48 107.23 196.39C107.07 194.11 106.28 182.6 107.01 179.67C107.02 179.61 107.04 179.56 107.06 179.5C107.66 177.78 108.59 176.9 109.83 176.9C110.49 176.9 111.09 177.17 111.57 177.66C117.25 177.45 142.61 176.5 150.08 176.22C148.79 151.8 148.77 119.34 148.8 110.1H119.25C117.58 110.1 115.89 110.01 114.23 109.84C114.23 109.84 13.48 99.56 13.44 99.55C13.24 99.52 8.55999 98.69 4.87999 93.47C2.53999 90.15 1.71999 85.98 2.63999 82.03C3.52999 78.2 6.01999 74.93 9.44999 73.06C10.99 72.22 12.18 71.94 12.32 71.91C12.38 71.9 12.44 71.89 12.5 71.88L74.65 64.03L74.68 63.4C74.1 61.87 72.65 57.09 74.97 51.85L75 51.47C75.07 50.52 75.18 49.18 75.38 47.72C74.68 47.78 73.87 47.82 72.94 47.82C70.66 47.82 68.1 47.59 65.33 47.14C64.55 47.03 62.62 46.76 62.52 44.94C62.42 43.16 64.19 42.7 64.86 42.53L65.06 42.48C67.88 41.78 70.29 41.46 72.7 41.46C74.03 41.46 75.4 41.56 76.85 41.76C78.29 38.41 80.37 37.65 81.95 37.65C83.53 37.65 85.61 38.41 87.05 41.76C88.5 41.56 89.87 41.46 91.2 41.46C93.61 41.46 96.01 41.78 98.77 42.46L99.03 42.53C99.7 42.7 101.47 43.17 101.37 44.94C101.27 46.76 99.34 47.03 98.52 47.14C95.8 47.58 93.24 47.81 90.95 47.81C90.02 47.81 89.21 47.77 88.51 47.71C88.71 49.17 88.81 50.52 88.89 51.47L88.92 51.85C90.78 56.05 90.22 59.96 89.62 62.13C103.53 60.37 112.26 59.26 113.15 59.15C114.48 58.97 115.8 58.88 117.05 58.88C117.18 58.88 117.31 58.88 117.43 58.88L117.49 57.58C116.91 56.05 115.46 51.27 117.78 46.03L117.81 45.65C117.88 44.7 117.99 43.36 118.19 41.9C117.49 41.96 116.68 42 115.75 42C113.47 42 110.91 41.77 108.14 41.33C107.36 41.22 105.43 40.95 105.33 39.13C105.23 37.36 107 36.89 107.67 36.72L107.87 36.67C110.69 35.97 113.1 35.65 115.51 35.65C116.84 35.65 118.21 35.75 119.66 35.95C121.1 32.6 123.18 31.84 124.76 31.84C126.34 31.84 128.42 32.6 129.86 35.95C131.31 35.75 132.68 35.65 134.01 35.65C136.42 35.65 138.82 35.97 141.58 36.65L141.85 36.72C142.52 36.89 144.29 37.36 144.19 39.13C144.08 40.95 142.16 41.22 141.34 41.33C138.62 41.77 136.06 42 133.78 42C132.85 42 132.04 41.96 131.34 41.9C131.54 43.36 131.64 44.7 131.72 45.65L131.75 46.03C134.07 51.27 132.63 56.05 132.04 57.58L132.1 58.92L148.89 58.89V26.22C148.89 19.56 151.07 12.75 153.12 8.59C153.82 7.17 154.75 6.01 155.88 5.13V4.72C155.88 2.95 157.12 2 158.29 2C158.91 2 159.54 2.27 160 2.78C160.46 2.27 161.1 2 161.71 2C162.88 2 164.12 2.95 164.12 4.72V5.54C165.04 6.36 165.8 7.38 166.39 8.59C168.43 12.74 170.62 19.56 170.62 26.22V58.92L187.41 58.95L187.47 57.61C186.89 56.08 185.44 51.3 187.76 46.06L187.79 45.68C187.86 44.73 187.97 43.39 188.17 41.92C187.47 41.98 186.66 42.02 185.73 42.02C183.45 42.02 180.89 41.79 178.12 41.35C177.34 41.24 175.41 40.97 175.31 39.15C175.21 37.38 176.98 36.91 177.65 36.74L177.85 36.69C180.68 35.99 183.08 35.67 185.49 35.67C186.82 35.67 188.19 35.77 189.64 35.97C191.08 32.62 193.16 31.86 194.74 31.86C196.32 31.86 198.4 32.62 199.84 35.97C201.29 35.77 202.66 35.67 203.99 35.67C206.4 35.67 208.8 35.99 211.56 36.67L211.83 36.74C212.5 36.91 214.27 37.38 214.16 39.15C214.06 40.97 212.13 41.24 211.31 41.35C208.59 41.79 206.03 42.02 203.74 42.02C202.81 42.02 202 41.98 201.3 41.92C201.5 43.38 201.6 44.72 201.68 45.67L201.71 46.05C204.03 51.29 202.59 56.07 202 57.6L202.06 58.9C202.18 58.9 202.31 58.9 202.44 58.9C203.7 58.9 205.01 58.99 206.34 59.17C207.28 59.29 216.34 60.44 229.87 62.15C229.27 59.98 228.71 56.07 230.57 51.87L230.6 51.49C230.67 50.54 230.78 49.2 230.98 47.74C230.28 47.8 229.47 47.83 228.54 47.83C226.26 47.83 223.7 47.6 220.93 47.16C220.15 47.05 218.22 46.78 218.12 44.96C218.02 43.19 219.79 42.72 220.46 42.55L220.66 42.5C223.48 41.8 225.89 41.48 228.3 41.48C229.63 41.48 231 41.58 232.45 41.78C233.89 38.43 235.97 37.66 237.55 37.66C239.13 37.66 241.21 38.42 242.65 41.78C244.1 41.58 245.47 41.48 246.8 41.48C249.21 41.48 251.61 41.8 254.37 42.48L254.64 42.55C255.31 42.72 257.08 43.19 256.98 44.96C256.87 46.78 254.95 47.05 254.13 47.16C251.41 47.6 248.85 47.83 246.56 47.83C245.63 47.83 244.82 47.79 244.12 47.73C244.32 49.19 244.42 50.54 244.5 51.49L244.53 51.87C246.85 57.11 245.41 61.89 244.82 63.42L244.85 64.05L307 71.9C307.06 71.9 307.12 71.92 307.18 71.93C307.31 71.96 308.5 72.24 310.05 73.08C313.48 74.95 315.96 78.22 316.86 82.05C317.78 85.99 316.96 90.16 314.62 93.49C310.94 98.71 306.26 99.54 306.06 99.57C306.02 99.57 205.27 109.86 205.27 109.86C203.61 110.03 201.92 110.12 200.25 110.12H170.7C170.73 119.36 170.71 151.83 169.42 176.24C176.89 176.52 202.25 177.47 207.93 177.68C208.41 177.19 209.01 176.92 209.67 176.92C210.92 176.92 211.85 177.79 212.44 179.52C212.46 179.58 212.48 179.63 212.49 179.69C213.22 182.61 212.44 194.13 212.27 196.4C212.27 196.49 212.25 196.58 212.23 196.66C211.87 198.38 210.74 198.99 209.81 198.99C209.4 198.99 208.9 198.88 208.41 198.5C207.53 199.1 206.33 199.65 204.72 199.96C201.79 200.53 176.23 203.24 168.96 203.91C168.64 204.36 168.2 204.6 167.78 204.73C167.57 206.85 167.07 210.19 165.87 212.22C165.94 213.82 165.97 215.93 165.97 216.03C166 216.82 165.73 217.58 165.21 218.13C164.74 218.62 164.11 218.89 163.45 218.89C162.06 218.89 160.96 217.73 160.89 216.19V214.52C160.58 214.55 160.26 214.58 159.92 214.61C159.87 214.61 159.76 214.61 159.75 214.61C159.36 214.61 159 214.58 158.66 214.56V216.1C158.59 217.72 157.5 218.88 156.1 218.88H156.05Z" fill="white"/>
<path d="M161.68 4C161.88 4 162.09 4.24 162.09 4.72V6.5C162.93 7.08 163.85 8 164.57 9.47C166.37 13.13 168.59 19.67 168.59 26.22V60.28C168.59 60.63 168.87 60.91 169.22 60.91L189.29 60.95L189.45 57.26C189.45 57.26 187.05 52.16 189.69 46.58C189.81 45.28 189.96 42.28 190.58 39.52C190.01 39.68 188.45 40.03 185.69 40.03C183.83 40.03 181.42 39.87 178.4 39.38C176.21 39.07 177.75 38.79 178.36 38.61C180.92 37.97 183.17 37.66 185.44 37.66C187.2 37.66 188.97 37.84 190.91 38.21C191.62 35.8 192.79 33.85 194.69 33.85C196.59 33.85 197.76 35.8 198.47 38.21C200.41 37.85 202.18 37.66 203.94 37.66C206.21 37.66 208.47 37.97 211.02 38.61C211.62 38.78 213.17 39.07 210.98 39.38C207.96 39.87 205.56 40.03 203.69 40.03C200.93 40.03 199.37 39.68 198.8 39.52C199.42 42.28 199.57 45.28 199.69 46.58C202.33 52.16 199.93 57.26 199.93 57.26L200.09 60.97H200.75C200.75 60.97 201.35 60.9 202.39 60.9C203.3 60.9 204.55 60.95 206.03 61.15C207.06 61.29 217.94 62.66 232.19 64.47L232.25 63.07C232.25 63.07 229.85 57.97 232.49 52.39C232.61 51.09 232.76 48.09 233.38 45.33C232.81 45.49 231.25 45.84 228.49 45.84C226.63 45.84 224.22 45.68 221.2 45.19C219.01 44.88 220.55 44.6 221.16 44.42C223.72 43.78 225.97 43.47 228.24 43.47C230 43.47 231.77 43.65 233.71 44.02C234.42 41.61 235.59 39.66 237.49 39.66C239.39 39.66 240.56 41.61 241.27 44.02C243.21 43.66 244.98 43.47 246.74 43.47C249.01 43.47 251.27 43.78 253.82 44.42C254.42 44.59 255.97 44.88 253.77 45.19C250.75 45.68 248.35 45.84 246.48 45.84C243.72 45.84 242.16 45.49 241.59 45.33C242.21 48.09 242.36 51.09 242.48 52.39C245.12 57.97 242.72 63.07 242.72 63.07L242.84 65.82C271.6 69.45 306.67 73.88 306.67 73.88C306.67 73.88 307.67 74.1 309.01 74.83C315.31 78.25 317.03 86.47 312.9 92.33C309.66 96.93 305.65 97.59 305.65 97.59L204.98 107.86C203.38 108.02 201.77 108.11 200.16 108.11H169.26C168.89 108.11 168.6 108.41 168.6 108.77C168.62 114.2 168.72 151.86 167.22 178.16C168.78 178.22 208.91 179.72 208.91 179.72C208.91 179.72 209.18 178.92 209.59 178.92C209.84 178.92 210.14 179.22 210.47 180.17C211.16 182.93 210.2 196.26 210.2 196.26C210.2 196.26 210.05 196.99 209.73 196.99C209.58 196.99 209.4 196.83 209.18 196.35C208.85 195.66 208.76 195 208.76 195C208.76 195 208.13 197.25 204.26 198C200.39 198.75 167.58 202.07 167 202.07C167.44 202.73 167.47 202.88 166.44 202.88C166.36 202.88 166.28 202.88 166.19 202.88H165.83C165.83 202.88 165.52 209.54 163.76 211.66C163.85 213.24 163.9 216.07 163.9 216.07C163.92 216.62 163.65 216.9 163.38 216.9C163.11 216.9 162.85 216.64 162.82 216.12V212.18C162.82 212.18 161.54 212.5 159.71 212.63C157.8 212.6 156.6 212.18 156.6 212.18V216.12C156.58 216.65 156.31 216.9 156.04 216.9C155.77 216.9 155.49 216.62 155.52 216.07C155.52 216.07 155.56 213.23 155.66 211.66C153.9 209.54 153.59 202.88 153.59 202.88H153.23C153.14 202.88 153.05 202.88 152.98 202.88C151.95 202.88 151.99 202.73 152.42 202.07C151.84 202.07 119.03 198.75 115.16 198C111.29 197.25 110.66 195 110.66 195C110.66 195 110.57 195.66 110.24 196.35C110.02 196.83 109.83 196.99 109.69 196.99C109.38 196.99 109.22 196.26 109.22 196.26C109.22 196.26 108.26 182.93 108.95 180.17C109.28 179.22 109.58 178.92 109.83 178.92C110.24 178.92 110.51 179.72 110.51 179.72C110.51 179.72 150.64 178.22 152.2 178.16C150.7 151.87 150.79 114.2 150.82 108.77C150.82 108.4 150.53 108.11 150.16 108.11H119.26C117.65 108.11 116.04 108.03 114.44 107.86L13.7701 97.59C13.7701 97.59 9.76005 96.93 6.52005 92.33C2.39005 86.47 4.11005 78.26 10.4101 74.83C11.7501 74.1 12.7501 73.88 12.7501 73.88C12.7501 73.88 47.82 69.45 76.58 65.82L76.7001 63.07C76.7001 63.07 74.3 57.97 76.94 52.39C77.0601 51.09 77.21 48.09 77.83 45.33C77.26 45.49 75.7001 45.84 72.94 45.84C71.08 45.84 68.67 45.68 65.65 45.19C63.46 44.88 65 44.6 65.61 44.42C68.17 43.78 70.4201 43.47 72.69 43.47C74.4501 43.47 76.22 43.65 78.16 44.02C78.87 41.61 80.04 39.66 81.94 39.66C83.84 39.66 85.01 41.61 85.72 44.02C87.66 43.66 89.43 43.47 91.19 43.47C93.46 43.47 95.72 43.78 98.2701 44.42C98.87 44.59 100.42 44.88 98.23 45.19C95.2101 45.68 92.8101 45.84 90.94 45.84C88.18 45.84 86.62 45.49 86.05 45.33C86.6701 48.09 86.82 51.09 86.94 52.39C89.58 57.97 87.1801 63.07 87.1801 63.07L87.2401 64.47C101.49 62.67 112.37 61.29 113.4 61.15C114.88 60.95 116.13 60.9 117.04 60.9C118.08 60.9 118.68 60.97 118.68 60.97H119.34L119.5 57.26C119.5 57.26 117.1 52.16 119.74 46.58C119.86 45.28 120.01 42.28 120.63 39.52C120.06 39.68 118.5 40.03 115.74 40.03C113.88 40.03 111.47 39.87 108.45 39.38C106.26 39.07 107.8 38.79 108.4 38.61C110.96 37.97 113.21 37.66 115.48 37.66C117.24 37.66 119.01 37.85 120.95 38.21C121.66 35.8 122.83 33.85 124.73 33.85C126.63 33.85 127.8 35.8 128.51 38.21C130.45 37.85 132.22 37.66 133.98 37.66C136.25 37.66 138.51 37.97 141.06 38.61C141.66 38.78 143.21 39.07 141.01 39.38C137.99 39.87 135.58 40.03 133.72 40.03C130.96 40.03 129.4 39.68 128.83 39.52C129.45 42.28 129.6 45.28 129.72 46.58C132.36 52.16 129.96 57.26 129.96 57.26L130.12 60.95L150.2 60.91C150.55 60.91 150.83 60.63 150.83 60.28V26.22C150.83 19.68 153.05 13.14 154.85 9.47C155.71 7.72 156.85 6.74 157.81 6.19V4.72C157.81 4.24 158.01 4 158.22 4C158.43 4 158.63 4.24 158.63 4.72V5.8C159.26 5.55 159.7 5.51 159.7 5.51C159.7 5.51 160.36 5.58 161.25 6.02V4.72C161.25 4.24 161.45 4 161.66 4M161.68 0C161.07 0 160.49 0.13 159.96 0.36C159.43 0.13 158.85 0 158.25 0C155.95 0 154.11 1.8 153.87 4.19C152.83 5.16 151.96 6.35 151.29 7.71C149.15 12.07 146.86 19.22 146.86 26.22V56.92L134.32 56.94C134.99 54.52 135.62 50.21 133.68 45.57C133.68 45.55 133.68 45.54 133.68 45.52C133.65 45.09 133.61 44.58 133.56 44.02C133.62 44.02 133.69 44.02 133.75 44.02C136.13 44.02 138.78 43.79 141.64 43.32C145.22 42.8 146.08 40.83 146.17 39.26C146.24 37.99 145.84 35.71 142.34 34.8L142.19 34.76C142.19 34.76 142.1 34.73 142.05 34.72C139.13 33.99 136.58 33.66 134 33.66C133.02 33.66 132.03 33.71 131.01 33.81C129.05 30.44 126.38 29.85 124.75 29.85C123.12 29.85 120.45 30.44 118.49 33.81C117.47 33.71 116.47 33.66 115.5 33.66C112.92 33.66 110.37 34 107.45 34.72C107.4 34.73 107.36 34.74 107.31 34.76L107.16 34.8C103.66 35.71 103.26 37.99 103.33 39.26C103.42 40.83 104.28 42.8 107.86 43.32C110.72 43.78 113.37 44.02 115.75 44.02C115.81 44.02 115.88 44.02 115.94 44.02C115.89 44.58 115.85 45.09 115.82 45.52C115.82 45.54 115.82 45.55 115.82 45.57C113.87 50.22 114.52 54.54 115.19 56.96C114.43 57.01 113.66 57.08 112.89 57.18C112.08 57.29 105.09 58.17 92.08 59.82C92.33 57.47 92.1901 54.5 90.8901 51.37C90.8901 51.36 90.8901 51.34 90.8901 51.33C90.8601 50.9 90.8201 50.39 90.7701 49.82C90.83 49.82 90.9001 49.82 90.9601 49.82C93.34 49.82 95.9901 49.59 98.8501 49.13C102.43 48.61 103.29 46.64 103.38 45.07C103.45 43.8 103.05 41.52 99.55 40.61L99.4 40.57C99.4 40.57 99.3101 40.54 99.26 40.53C96.34 39.8 93.7901 39.47 91.2101 39.47C90.23 39.47 89.24 39.52 88.22 39.62C86.26 36.25 83.59 35.66 81.9601 35.66C80.3301 35.66 77.66 36.25 75.7001 39.62C74.6801 39.52 73.6801 39.47 72.7101 39.47C70.1301 39.47 67.58 39.81 64.66 40.53C64.61 40.54 64.5701 40.55 64.5201 40.57L64.37 40.61C60.87 41.52 60.4701 43.8 60.5401 45.07C60.6301 46.64 61.4901 48.61 65.0701 49.13C67.9301 49.59 70.5801 49.82 72.9601 49.82C73.0201 49.82 73.09 49.82 73.15 49.82C73.1 50.38 73.0601 50.89 73.0301 51.32C73.0301 51.34 73.0301 51.35 73.0301 51.37C71.2001 55.75 71.66 59.84 72.2801 62.32C44.3301 65.85 12.2701 69.9 12.2701 69.9C12.1501 69.92 12.0301 69.94 11.9101 69.96C11.6501 70.02 10.2701 70.35 8.52005 71.3C4.59005 73.44 1.74005 77.18 0.720051 81.57C-0.329949 86.07 0.60005 90.82 3.27005 94.61C7.36005 100.41 12.5601 101.42 13.1401 101.51C13.2201 101.52 13.3001 101.53 13.3901 101.54L114.06 111.81C115.79 111.99 117.55 112.08 119.28 112.08H146.83C146.82 122.34 146.9 151.58 148.01 174.28C139.17 174.61 118.62 175.38 112.28 175.62C111.57 175.15 110.74 174.89 109.86 174.89C108.63 174.89 106.38 175.4 105.2 178.83C105.16 178.94 105.13 179.05 105.1 179.17C104.34 182.22 104.96 192.32 105.26 196.51C105.27 196.69 105.3 196.86 105.33 197.04C105.82 199.39 107.58 200.96 109.71 200.96C110.02 200.96 110.5 200.92 111.04 200.74C111.99 201.24 113.12 201.64 114.42 201.89C117.71 202.53 141.33 204.99 149.61 205.78C149.69 205.85 149.78 205.92 149.87 205.98C150.14 208.1 150.65 210.68 151.63 212.65C151.58 214.08 151.55 215.66 151.55 215.93C151.51 217.3 151.98 218.56 152.87 219.48C153.71 220.35 154.88 220.86 156.08 220.86C157.6 220.86 158.93 220.11 159.75 218.93C160.57 220.11 161.9 220.86 163.42 220.86C164.62 220.86 165.79 220.36 166.63 219.48C167.52 218.55 167.99 217.29 167.95 215.93C167.95 215.66 167.92 214.08 167.87 212.65C168.86 210.68 169.37 208.11 169.63 205.98C169.72 205.92 169.8 205.85 169.89 205.78C178.17 204.99 201.79 202.52 205.08 201.89C206.38 201.64 207.51 201.23 208.46 200.74C209 200.92 209.48 200.96 209.79 200.96C211.92 200.96 213.69 199.38 214.17 197.04C214.21 196.87 214.23 196.69 214.24 196.51C214.54 192.31 215.16 182.22 214.4 179.17C214.37 179.06 214.34 178.95 214.3 178.84C213.12 175.41 210.87 174.89 209.64 174.89C208.75 174.89 207.92 175.15 207.21 175.62C200.87 175.38 180.32 174.61 171.48 174.28C172.59 151.58 172.67 122.33 172.66 112.08H200.21C201.95 112.08 203.71 111.99 205.43 111.81L306.1 101.54C306.18 101.54 306.26 101.52 306.35 101.51C306.93 101.41 312.13 100.41 316.22 94.61C318.89 90.82 319.82 86.07 318.77 81.57C317.75 77.18 314.9 73.44 310.97 71.3C309.22 70.35 307.84 70.02 307.58 69.96C307.46 69.93 307.34 69.91 307.22 69.9C307.22 69.9 275.16 65.85 247.21 62.32C247.83 59.84 248.29 55.75 246.46 51.37C246.46 51.35 246.46 51.34 246.46 51.32C246.43 50.89 246.39 50.38 246.34 49.82C246.4 49.82 246.47 49.82 246.53 49.82C248.91 49.82 251.57 49.59 254.42 49.12C257.99 48.6 258.86 46.63 258.95 45.06C259.02 43.79 258.62 41.51 255.12 40.6L254.97 40.56C254.97 40.56 254.88 40.53 254.83 40.52C251.91 39.79 249.36 39.46 246.78 39.46C245.8 39.46 244.81 39.51 243.79 39.61C241.83 36.24 239.16 35.65 237.53 35.65C235.9 35.65 233.23 36.24 231.27 39.61C230.25 39.51 229.25 39.46 228.28 39.46C225.7 39.46 223.15 39.8 220.23 40.52C220.18 40.53 220.14 40.54 220.09 40.56L219.94 40.6C216.44 41.51 216.04 43.79 216.11 45.06C216.2 46.63 217.06 48.6 220.64 49.12C223.5 49.58 226.15 49.82 228.53 49.82C228.59 49.82 228.66 49.82 228.72 49.82C228.67 50.38 228.63 50.89 228.6 51.32C228.6 51.34 228.6 51.35 228.6 51.37C227.29 54.49 227.15 57.47 227.41 59.82C214.56 58.19 207.39 57.29 206.6 57.18C205.83 57.08 205.06 57 204.3 56.96C204.97 54.54 205.61 50.22 203.67 45.57C203.67 45.55 203.67 45.54 203.67 45.52C203.64 45.09 203.6 44.58 203.55 44.02C203.61 44.02 203.68 44.02 203.74 44.02C206.12 44.02 208.77 43.79 211.63 43.32C215.2 42.8 216.07 40.83 216.16 39.26C216.23 37.99 215.83 35.71 212.33 34.8L212.18 34.76C212.18 34.76 212.09 34.73 212.04 34.72C209.12 33.99 206.57 33.66 203.99 33.66C203.01 33.66 202.02 33.71 201 33.81C199.04 30.44 196.37 29.85 194.74 29.85C193.11 29.85 190.44 30.44 188.48 33.81C187.46 33.71 186.46 33.66 185.49 33.66C182.91 33.66 180.36 34 177.44 34.72C177.39 34.73 177.35 34.74 177.3 34.76L177.15 34.8C173.65 35.71 173.25 37.99 173.32 39.26C173.41 40.83 174.27 42.8 177.85 43.32C180.71 43.78 183.36 44.02 185.74 44.02C185.8 44.02 185.87 44.02 185.93 44.02C185.88 44.59 185.84 45.1 185.81 45.53C185.81 45.54 185.81 45.56 185.81 45.57C183.87 50.21 184.5 54.52 185.17 56.94L172.63 56.92V26.22C172.63 19.22 170.34 12.07 168.2 7.71C167.64 6.57 166.95 5.56 166.13 4.7C166.12 2.07 164.19 0.01 161.72 0.01L161.68 0Z" fill="black"/>
</g>
<defs>
<clipPath id="clip0_576_2">
<rect width="318.9" height="220.88" fill="white" transform="translate(0.27002)"/>
</clipPath>
</defs>
</svg>
