<svg width="82" height="72" viewBox="0 0 82 72" fill="none" xmlns="http://www.w3.org/2000/svg">
<g clip-path="url(#clip0_729_42)">
<path d="M40.38 70.5C39.37 70.5 39.04 70.22 38.71 64.22C35.54 64.1 28.63 63.84 28.28 63.83C27.43 63.83 26.93 63.11 26.87 62.4V59.78C26.87 58.3 28.1 57.68 28.94 57.62C31.81 57.34 36.27 56.92 38.18 56.75C34.88 42.91 34.53 35.24 34.5 33.46L23.36 32.81C19.8 32.6 16.21 32.16 12.7 31.49C5.1 30.05 2.35 29.53 2.17 29.48C1.43 29.31 1.08 28.64 1.01 28.12C1.01 28.07 1 28.02 1 27.97V26.49C1 22.44 5.9 21.23 6.11 21.18C6.15 21.18 6.18 21.16 6.22 21.16L14.22 20.17C16.3 19.91 18.43 19.75 20.54 19.7C24.66 19.6 31.68 19.42 34.29 19.37C34.34 12.56 34.88 9.23 35.11 7.79C35.18 7.33 35.31 6.96 35.47 6.66H35.45C33.08 6.66 31.62 6.4 31.09 5.87C30.9 5.68 30.8 5.43 30.8 5.16C30.8 3.91 32.15 3.78 35.47 3.78C36.54 3.78 37.63 3.81 38.39 3.83C39.31 1.31 40.22 1 40.84 1C41.46 1 42.25 1.35 43.1 3.82C43.84 3.8 44.84 3.78 45.84 3.78C49.16 3.78 50.51 3.9 50.51 5.16C50.51 5.42 50.4 5.68 50.22 5.87C49.71 6.38 48.29 6.65 46.01 6.66C46.17 6.96 46.29 7.33 46.37 7.79C46.61 9.24 47.15 12.57 47.19 19.38C49.8 19.44 56.82 19.61 60.94 19.71C63.05 19.76 65.17 19.92 67.26 20.18L75.26 21.17C75.26 21.17 75.33 21.18 75.37 21.19C75.58 21.24 80.48 22.45 80.48 26.5V27.98C80.48 27.98 80.48 28.08 80.47 28.13C80.39 28.65 80.04 29.31 79.31 29.49C79.13 29.53 76.38 30.06 68.78 31.49C65.27 32.15 61.68 32.6 58.12 32.81L46.97 33.46C46.83 35.2 45.87 43.02 42.59 56.75C44.5 56.92 48.96 57.34 51.85 57.62C52.66 57.68 53.89 58.3 53.89 59.78V62.32C53.83 63.11 53.33 63.83 52.48 63.83C52.15 63.83 45.7 64.08 42.05 64.22C41.72 70.23 41.39 70.5 40.38 70.5Z" fill="white"/>
<path d="M40.84 2C41.37 2 41.99 3.56 42.38 4.84C43.04 4.82 44.45 4.77 45.84 4.77C47.69 4.77 49.51 4.85 49.51 5.15C49.26 5.4 47.94 5.64 45.86 5.64C44.91 5.64 43.79 5.59 42.55 5.46C42.67 5.92 42.74 6.29 42.74 6.43H44.3C44.3 6.43 45.13 6.45 45.37 7.92C45.6 9.37 46.17 12.82 46.18 20.02C46.18 20.19 46.32 20.34 46.49 20.34C48.27 20.37 56.36 20.57 60.9 20.69C62.98 20.74 65.05 20.9 67.12 21.15L75.12 22.14C75.12 22.14 79.46 23.17 79.46 26.48V27.96C79.46 27.96 79.39 28.41 79.06 28.49C78.85 28.54 73.07 29.64 68.57 30.49C65.09 31.15 61.57 31.58 58.04 31.79L46.62 32.46C46.62 32.46 45.96 32.6 45.96 33.12C45.96 33.64 45.21 41.34 41.56 56.63C41.52 56.78 41.49 56.93 41.47 57.09C41.43 57.38 41.43 57.67 41.65 57.67C41.95 57.67 51.72 58.61 51.72 58.61C51.72 58.61 52.86 58.69 52.86 59.77V62.31C52.86 62.31 52.82 62.82 52.45 62.82C52.11 62.82 42.97 63.17 41.32 63.23C41.18 63.23 41.06 63.35 41.05 63.49C40.99 64.66 40.72 69.49 40.35 69.49C39.98 69.49 39.71 64.66 39.65 63.49C39.65 63.35 39.53 63.23 39.39 63.23C37.75 63.17 28.6 62.82 28.26 62.82C27.89 62.82 27.85 62.31 27.85 62.31V59.77C27.85 58.68 28.99 58.61 28.99 58.61C28.99 58.61 38.77 57.67 39.06 57.67C39.28 57.67 39.28 57.38 39.24 57.09C39.22 56.94 39.19 56.78 39.15 56.63C35.49 41.34 35.46 33.63 35.46 33.12C35.46 32.61 34.8 32.46 34.8 32.46L23.38 31.79C19.85 31.58 16.33 31.15 12.85 30.49C8.36 29.64 2.57 28.54 2.36 28.49C2.02 28.41 1.96 27.96 1.96 27.96V26.48C1.96 23.17 6.3 22.14 6.3 22.14L14.3 21.15C16.36 20.89 18.44 20.74 20.52 20.69C25.06 20.58 33.15 20.37 34.93 20.34C35.1 20.34 35.24 20.19 35.24 20.02C35.26 12.83 35.82 9.37 36.05 7.92C36.29 6.45 37.12 6.43 37.12 6.43H38.68C38.68 6.28 38.75 5.91 38.88 5.44C37.57 5.58 36.4 5.63 35.4 5.63C33.33 5.63 32 5.39 31.75 5.14C31.75 4.84 33.57 4.76 35.42 4.76C36.94 4.76 38.49 4.81 39.05 4.83C39.45 3.54 40.12 1.98 40.79 1.98M40.84 0C39.28 0 38.33 1.36 37.71 2.81C37.04 2.79 36.25 2.78 35.46 2.78C34.34 2.78 33.43 2.81 32.76 2.86C30.78 3.02 29.78 3.8 29.78 5.16C29.78 5.69 29.99 6.2 30.37 6.57C30.65 6.85 31.27 7.47 34.11 7.62C33.88 9.03 33.37 12.16 33.28 18.39C30.19 18.46 24.23 18.61 20.49 18.7C18.35 18.75 16.2 18.91 14.07 19.18L6.07 20.17C6 20.17 5.92 20.19 5.85 20.21C3.67 20.73 -0.0299988 22.64 -0.0299988 26.5V27.98C-0.0299988 28.08 -0.0299988 28.17 -0.00999878 28.27C0.110001 29.1 0.690001 30.17 1.92 30.46C2.01 30.48 2.21 30.53 12.49 32.47C16.04 33.14 19.67 33.59 23.28 33.8L33.51 34.4C33.64 37.18 34.24 44.29 36.92 55.85C35.47 55.98 33.01 56.21 28.82 56.62C27.38 56.74 25.85 57.88 25.85 59.78V62.32C25.85 62.37 25.85 62.42 25.85 62.47C25.95 63.81 26.99 64.82 28.25 64.82C28.53 64.82 32.12 64.96 37.74 65.17C37.78 65.77 37.83 66.46 37.89 67.11C38.09 69.36 38.28 71.49 40.35 71.49C42.42 71.49 42.61 69.36 42.81 67.11C42.87 66.46 42.92 65.77 42.96 65.17C47.42 65 52.11 64.82 52.46 64.82C53.71 64.82 54.75 63.81 54.85 62.47C54.85 62.42 54.85 62.37 54.85 62.32V59.78C54.85 57.88 53.33 56.74 51.88 56.62C47.69 56.22 45.23 55.99 43.78 55.85C46.49 44.31 47.53 37.19 47.84 34.4L58.14 33.8C61.75 33.59 65.38 33.14 68.93 32.47C79.21 30.52 79.41 30.48 79.5 30.46C80.73 30.17 81.3 29.1 81.42 28.27C81.43 28.17 81.44 28.08 81.44 27.98V26.5C81.44 22.64 77.74 20.73 75.56 20.21C75.49 20.19 75.42 20.18 75.34 20.17L67.34 19.18C65.22 18.92 63.06 18.76 60.93 18.7C57.19 18.61 51.23 18.46 48.14 18.39C48.05 12.16 47.54 9.03 47.32 7.63C47.32 7.63 47.32 7.62 47.32 7.61C50.02 7.45 50.62 6.85 50.9 6.57C51.28 6.19 51.49 5.69 51.49 5.16C51.49 2.78 48.86 2.78 45.82 2.78C45.11 2.78 44.4 2.79 43.78 2.8C43.16 1.22 42.3 0 40.83 0L40.84 0Z" fill="black"/>
</g>
<defs>
<clipPath id="clip0_729_42">
<rect width="81.47" height="71.5" fill="white"/>
</clipPath>
</defs>
</svg>
