<svg width="125" height="152" viewBox="0 0 125 152" fill="none" xmlns="http://www.w3.org/2000/svg">
<g clip-path="url(#clip0_294_35)">
<path d="M83.8092 150.89C83.1992 150.89 82.4892 150.75 81.6492 150.46C78.9392 149.53 66.6092 146.51 64.2692 145.94C64.2192 146.43 64.0592 147.07 63.6092 147.54C63.2392 147.94 62.7492 148.15 62.1892 148.15C61.6292 148.15 61.1392 147.94 60.7692 147.54C60.3292 147.07 60.1692 146.43 60.1092 145.94C57.7692 146.51 45.4392 149.53 42.7292 150.46C41.8892 150.75 41.1792 150.89 40.5692 150.89C38.9392 150.89 38.3192 149.82 38.2992 149.11V143.74C38.2992 141.31 41.1692 139.32 41.4992 139.1C42.0992 138.76 54.0192 132.03 57.8592 130.06C56.6192 123.69 56.2692 117.33 56.1792 114.94H54.5192C53.3892 114.94 52.7592 114.45 52.4392 114.04C51.7492 113.17 51.8792 112.01 51.9492 111.61V110.11C51.3092 110.37 50.5392 110.59 49.7392 110.59C48.2792 110.59 46.3392 109.9 45.4192 106.59C44.0192 101.57 43.8992 96.0998 43.9192 93.8298L10.2492 94.8198L10.1892 95.2698C10.1192 95.8498 9.99923 96.4298 9.82923 96.9998L8.44923 101.64C8.18923 102.51 7.37923 103.11 6.47923 103.11H3.45923C2.23923 103.11 1.63923 102.57 1.33923 102.12C0.589229 100.95 1.22923 99.3798 1.36923 99.0798C1.40923 98.9898 1.46923 98.8998 1.52923 98.8298C1.59923 98.7498 3.10923 97.0398 4.18923 95.9198C2.05923 87.5698 2.44923 77.5698 2.45923 77.1398C2.54923 68.1998 3.39923 57.5098 6.90923 57.5098C10.4192 57.5098 11.6192 68.7898 12.0192 76.1798H15.2992C16.1392 76.1798 16.9692 76.0598 17.7792 75.8098L52.0592 65.3298C52.1492 65.2998 52.2092 65.2198 52.2092 65.1298V32.6798C52.2092 18.1798 58.7092 1.83984 62.1792 1.83984C65.6492 1.83984 72.1492 18.1798 72.1492 32.6798V65.1298C72.1492 65.2198 72.2092 65.2998 72.2992 65.3298L106.579 75.8098C107.379 76.0598 108.219 76.1798 109.059 76.1798H112.339C112.739 68.7898 113.929 57.5098 117.449 57.5098C120.969 57.5098 121.809 68.1998 121.899 77.1698C121.919 77.5698 122.299 87.5698 120.169 95.9198C121.249 97.0498 122.749 98.7498 122.829 98.8298C122.899 98.8998 122.949 98.9898 122.989 99.0798C123.129 99.3798 123.769 100.96 123.019 102.12C122.729 102.57 122.119 103.11 120.899 103.11H117.879C116.979 103.11 116.159 102.5 115.909 101.64L114.529 96.9998C114.359 96.4298 114.239 95.8498 114.169 95.2698L114.109 94.8198L80.4392 93.8298C80.4592 96.0998 80.3292 101.57 78.9392 106.59C78.0192 109.9 76.0792 110.59 74.6192 110.59C73.8192 110.59 73.0492 110.37 72.4092 110.11V111.61C72.4792 112.01 72.6092 113.17 71.9192 114.04C71.5892 114.45 70.9692 114.94 69.8392 114.94H68.1792C68.0892 117.32 67.7492 123.69 66.4992 130.06C70.3392 132.03 82.2492 138.76 82.7992 139.06C83.1892 139.32 86.0592 141.3 86.0592 143.74V149.08C86.0392 149.83 85.4192 150.89 83.7892 150.89H83.8092Z" fill="white"/>
<path d="M62.1996 2.83984C64.4796 2.83984 71.1696 17.9098 71.1696 32.6798V65.1298C71.1696 65.6598 71.5196 66.1298 72.0296 66.2898L106.31 76.7698C107.21 77.0398 108.14 77.1798 109.08 77.1798H113.31C113.9 64.7498 115.74 58.5098 117.47 58.5098C119.19 58.5098 120.79 64.7098 120.92 77.1798C120.92 77.1798 121.36 87.8098 119.08 96.2098C120.13 97.2598 122.1 99.4898 122.1 99.4898C122.1 99.4898 123.28 102.12 120.92 102.12H117.9C117.43 102.12 117.02 101.81 116.88 101.36L115.5 96.7198C115.35 96.2098 115.24 95.6798 115.17 95.1498L115.01 93.8498L79.4296 92.7998C79.4296 92.7998 79.7496 99.9998 77.9896 106.32C77.2796 108.87 75.9296 109.59 74.6396 109.59C72.9896 109.59 71.4296 108.42 71.4296 108.42V111.7C71.4296 111.7 71.9596 113.93 69.8496 113.93H67.2196C67.2196 113.93 67.0896 122.33 65.3796 130.6C68.1396 131.91 82.3096 139.92 82.3096 139.92C82.3096 139.92 85.0696 141.76 85.0696 143.73V149.07C85.0696 149.07 85.0496 149.88 83.7996 149.88C83.3596 149.88 82.7696 149.78 81.9696 149.5C78.9096 148.45 64.1196 144.86 64.1196 144.86L63.2896 145.3C63.2896 145.3 63.4196 147.14 62.1996 147.14C60.9796 147.14 61.1096 145.3 61.1096 145.3L60.2796 144.86C60.2796 144.86 45.4896 148.45 42.4296 149.5C41.6296 149.77 41.0396 149.88 40.5996 149.88C39.3496 149.88 39.3296 149.07 39.3296 149.07V143.73C39.3296 141.76 42.0896 139.92 42.0896 139.92C42.0896 139.92 56.2696 131.91 59.0196 130.6C57.3096 122.33 57.1796 113.93 57.1796 113.93H54.5496C52.4496 113.93 52.9696 111.7 52.9696 111.7V108.42C52.9696 108.42 51.4096 109.59 49.7596 109.59C48.4696 109.59 47.1196 108.87 46.4096 106.32C44.6496 99.9998 44.9696 92.7998 44.9696 92.7998L9.38963 93.8498L9.22963 95.1498C9.15963 95.6798 9.04963 96.1998 8.89963 96.7198L7.51963 101.36C7.38963 101.81 6.96963 102.12 6.49963 102.12H3.47963C1.11963 102.12 2.29963 99.4898 2.29963 99.4898C2.29963 99.4898 4.26963 97.2598 5.31963 96.2098C3.03963 87.8098 3.47963 77.1798 3.47963 77.1798C3.60963 64.7098 5.20963 58.5098 6.92963 58.5098C8.65963 58.5098 10.4996 64.7598 11.0896 77.1798H15.3196C16.2596 77.1798 17.1896 77.0398 18.0896 76.7698L52.3696 66.2898C52.8796 66.1298 53.2296 65.6698 53.2296 65.1298V32.6798C53.2296 17.9098 59.9196 2.83984 62.1996 2.83984ZM62.1996 0.839844C59.8896 0.839844 57.4496 4.44984 54.9696 11.5598C53.5696 15.5698 51.2296 23.6398 51.2296 32.6798V64.5398L17.5096 74.8498C16.7996 75.0698 16.0696 75.1798 15.3196 75.1798H12.9896C12.6796 70.0898 12.1296 65.7998 11.3796 62.7098C10.6796 59.8198 9.54963 56.4998 6.92963 56.4998C4.25963 56.4998 3.23963 59.8498 2.64963 62.7598C1.94963 66.2198 1.53963 71.1798 1.47963 77.1198C1.44963 77.8598 1.12963 87.3898 3.09963 95.6198C2.05963 96.7298 0.859632 98.0898 0.789632 98.1598C0.659632 98.3098 0.549632 98.4798 0.469632 98.6598C0.299632 99.0498 -0.520368 101.05 0.519632 102.65C0.869632 103.19 1.71963 104.1 3.47963 104.1H6.49963C7.83963 104.1 9.04963 103.2 9.42963 101.91L10.8096 97.2698C10.9596 96.7798 11.0696 96.2798 11.1496 95.7798L42.9396 94.8398C42.9696 97.5398 43.2296 102.36 44.4796 106.84C45.6296 110.96 48.2796 111.58 49.7596 111.58C50.1796 111.58 50.5796 111.53 50.9696 111.45V111.51C50.8696 112.13 50.7896 113.52 51.6796 114.64C52.3296 115.47 53.3496 115.92 54.5496 115.92H55.2396C55.3696 118.68 55.7396 123.98 56.7596 129.5C52.3296 131.83 41.6096 137.89 41.0896 138.18C41.0496 138.2 41.0096 138.23 40.9596 138.26C40.3496 138.67 37.3096 140.84 37.3096 143.73V149.07C37.3096 149.07 37.3096 149.11 37.3096 149.13C37.3396 150.24 38.2396 151.88 40.5796 151.88C41.2996 151.88 42.1096 151.72 43.0596 151.4C45.4696 150.57 55.6696 148.05 59.3796 147.14C59.5196 147.51 59.7296 147.89 60.0396 148.22C60.5896 148.82 61.3596 149.14 62.1896 149.14C63.0196 149.14 63.7896 148.81 64.3396 148.22C64.6496 147.89 64.8596 147.52 64.9996 147.14C68.7096 148.05 78.9096 150.57 81.3196 151.4C82.2696 151.73 83.0796 151.88 83.7996 151.88C86.1396 151.88 87.0396 150.23 87.0696 149.13C87.0696 149.11 87.0696 149.09 87.0696 149.07V143.73C87.0696 140.84 84.0296 138.66 83.4196 138.26C83.3796 138.23 83.3396 138.21 83.2896 138.18C82.7796 137.89 72.0496 131.83 67.6196 129.5C68.6396 123.98 69.0096 118.69 69.1396 115.92H69.8296C71.0296 115.92 72.0396 115.47 72.6996 114.64C73.5896 113.52 73.5096 112.13 73.4096 111.51V111.45C73.7996 111.53 74.1996 111.58 74.6196 111.58C76.0996 111.58 78.7596 110.96 79.8996 106.84C81.1496 102.36 81.3996 97.5398 81.4396 94.8398L113.23 95.7798C113.31 96.2798 113.42 96.7798 113.57 97.2698L114.95 101.91C115.33 103.2 116.54 104.1 117.88 104.1H120.9C122.66 104.1 123.51 103.19 123.86 102.65C124.9 101.05 124.08 99.0398 123.91 98.6598C123.83 98.4798 123.72 98.3098 123.59 98.1598C123.53 98.0898 122.32 96.7198 121.28 95.6198C123.26 87.3898 122.93 77.8598 122.9 77.1198C122.84 71.1798 122.43 66.2198 121.73 62.7598C121.14 59.8398 120.12 56.4998 117.45 56.4998C114.83 56.4998 113.7 59.8198 113 62.7098C112.26 65.7998 111.71 70.0798 111.39 75.1798H109.06C108.32 75.1798 107.58 75.0698 106.87 74.8498L73.1496 64.5398V32.6798C73.1496 23.6398 70.7996 15.5698 69.4096 11.5598C66.9296 4.43984 64.4996 0.839844 62.1796 0.839844L62.1996 0.839844Z" fill="#231F20"/>
</g>
<defs>
<clipPath id="clip0_294_35">
<rect width="124.39" height="151.05" fill="white" transform="translate(0 0.839844)"/>
</clipPath>
</defs>
</svg>
