<svg width="116" height="78" viewBox="0 0 116 78" fill="none" xmlns="http://www.w3.org/2000/svg">
<g clip-path="url(#clip0_555_2)">
<path d="M58.2701 76.53C57.3101 76.53 56.7701 75.65 56.5901 74.9L56.4201 73.96C55.9201 74.13 55.3601 74.32 54.9601 74.48C54.6801 74.57 54.4501 74.6 54.1901 74.6C53.4301 74.6 52.5701 74.31 52.4701 74.28C51.2101 73.83 40.3101 69.9 39.6001 69.57C38.5701 69.1 38.3201 68.12 38.3401 67.61V62.29C38.3401 61.13 39.2201 60.48 40.0401 60.46H55.3801C54.5901 55.46 52.6001 42.96 52.4401 41.79C52.3501 41.17 51.3101 40.77 51.0601 40.7C51.0601 40.7 3.66012 32.42 3.08012 32.32C2.14012 32.16 1.67012 31.22 1.62012 30.36V21.13C1.62012 20.03 2.40012 19.45 3.17012 19.45L41.8001 19.52C42.7801 19.52 43.7401 19.43 44.6801 19.25L51.5701 17.91C51.9501 13.77 52.5601 7.04 52.6801 6.17C52.7401 5.72 52.9101 5.35 53.1401 5.06C51.3701 5.02 49.3701 4.94 47.7801 4.8C47.1101 4.74 46.5901 4.21 46.5601 3.54C46.5301 2.86 46.9901 2.28 47.6601 2.16C49.1101 1.9 50.6001 1.77 52.1101 1.77C53.9501 1.77 55.4701 1.97 56.4801 2.15C56.9701 1.41 57.6001 1 58.2801 1C58.9601 1 59.5901 1.41 60.0801 2.15C61.0901 1.97 62.6101 1.77 64.4501 1.77C65.9501 1.77 67.4501 1.9 68.9001 2.16C69.5701 2.28 70.0301 2.86 70.0001 3.54C69.9701 4.22 69.4501 4.75 68.7801 4.8C67.2001 4.93 65.2001 5.01 63.4301 5.06C63.6601 5.35 63.8301 5.72 63.8901 6.17C64.0101 7.04 64.6201 13.76 65.0001 17.91L71.8901 19.25C72.8301 19.43 73.7901 19.52 74.7501 19.52L113.4 19.45C114.18 19.45 114.96 20.03 114.96 21.13V30.3C114.91 31.21 114.44 32.15 113.5 32.32C112.92 32.42 65.4401 40.73 65.4401 40.73C65.2601 40.78 64.2301 41.19 64.1401 41.8C63.9701 42.97 61.9901 55.47 61.2001 60.47H76.5101C77.3601 60.49 78.2401 61.14 78.2401 62.3V67.65C78.2501 68.13 78.0001 69.11 76.9801 69.58C76.2601 69.91 65.3601 73.83 64.1201 74.28C64.0101 74.32 63.1501 74.6 62.3901 74.6C62.1301 74.6 61.9001 74.57 61.7001 74.5C61.2501 74.32 60.6701 74.12 60.1601 73.96L60.0101 74.84C59.8201 75.65 59.2801 76.52 58.3201 76.52L58.2701 76.53Z" fill="white"/>
<path d="M58.2701 2C58.7501 2 59.2201 2.54 59.5401 3.27C60.4001 3.08 62.1601 2.76 64.4301 2.76C65.7101 2.76 67.1601 2.86 68.7001 3.14C69.0801 3.21 69.0601 3.77 68.6701 3.8C65.8501 4.04 61.6801 4.1 59.8101 4.11C59.8801 4.42 59.9201 4.74 59.9201 5.05H61.5101C61.5101 5.05 62.7201 5.2 62.8701 6.3C63.0001 7.26 63.8101 16.15 64.0001 18.28C64.0201 18.55 64.2301 18.77 64.4901 18.82L71.6601 20.21C72.6601 20.4 73.6901 20.5 74.7101 20.5H74.7401L113.36 20.43C113.42 20.43 113.91 20.45 113.91 21.11V30.28C113.91 30.28 113.86 31.21 113.28 31.31C112.7 31.41 65.2201 39.72 65.2201 39.72C65.2201 39.72 63.3001 40.22 63.1001 41.64C62.9101 42.94 60.4201 58.62 60.0301 61.12C60.0001 61.3 60.1401 61.45 60.3201 61.45H76.4601C76.4601 61.45 77.1901 61.47 77.1901 62.28V67.63C77.1901 67.63 77.2101 68.33 76.5101 68.65C75.8101 68.97 63.7301 73.32 63.7301 73.32C63.7301 73.32 62.9501 73.58 62.3401 73.58C62.2001 73.58 62.0601 73.57 61.9401 73.53C61.2601 73.26 60.1901 72.91 59.6601 72.74C59.6301 72.74 59.6001 72.73 59.5701 72.73C59.4201 72.73 59.2901 72.83 59.2701 72.99L58.9801 74.66C58.9801 74.66 58.7801 75.52 58.2701 75.52C57.7601 75.52 57.5601 74.66 57.5601 74.66L57.2701 72.99C57.2401 72.84 57.1101 72.73 56.9701 72.73C56.9401 72.73 56.9101 72.73 56.8801 72.74C56.3401 72.91 55.2801 73.26 54.6001 73.53C54.4901 73.57 54.3501 73.58 54.2001 73.58C53.5801 73.58 52.8101 73.32 52.8101 73.32C52.8101 73.32 40.7301 68.97 40.0301 68.65C39.3301 68.33 39.3501 67.63 39.3501 67.63V62.28C39.3501 61.47 40.0801 61.45 40.0801 61.45H56.2201C56.4001 61.45 56.5301 61.29 56.5101 61.12C56.1101 58.63 53.6201 42.94 53.4401 41.64C53.2401 40.23 51.3201 39.72 51.3201 39.72C51.3201 39.72 3.84012 31.42 3.26012 31.31C2.68012 31.21 2.63012 30.28 2.63012 30.28V21.11C2.63012 20.45 3.11012 20.43 3.18012 20.43L41.8001 20.5H41.8301C42.8501 20.5 43.8701 20.4 44.8801 20.21L52.0501 18.82C52.3201 18.77 52.5201 18.55 52.5401 18.28C52.7301 16.15 53.5401 7.26 53.6701 6.3C53.8201 5.2 55.0301 5.05 55.0301 5.05H56.6201C56.6201 4.73 56.6601 4.42 56.7301 4.11C54.8601 4.1 50.6901 4.04 47.8701 3.8C47.4801 3.77 47.4601 3.21 47.8401 3.14C49.3801 2.86 50.8301 2.76 52.1101 2.76C54.3801 2.76 56.1401 3.07 57.0001 3.27C57.3201 2.53 57.7901 2 58.2701 2ZM58.2701 0C57.4401 0 56.6701 0.37 56.0501 1.06C55.0301 0.9 53.6801 0.76 52.1101 0.76C50.5401 0.76 48.9901 0.9 47.4901 1.17C46.3201 1.38 45.5201 2.39 45.5701 3.58C45.6301 4.76 46.5201 5.7 47.7001 5.8C48.8901 5.9 50.3001 5.97 51.6901 6.02C51.6901 6.02 51.6901 6.03 51.6901 6.04C51.5701 6.93 50.9401 13.77 50.6401 17.07L44.4901 18.26C43.6101 18.43 42.7201 18.52 41.8201 18.52L3.19012 18.45H3.17012C1.94012 18.45 0.620117 19.39 0.620117 21.13V30.3C0.620117 30.3 0.620117 30.37 0.620117 30.41C0.690117 31.67 1.42012 33.05 2.90012 33.31C3.46012 33.41 48.3001 41.25 50.8501 41.7C51.0701 41.77 51.3501 41.93 51.4601 42.03C51.6801 43.54 53.4101 54.46 54.2101 59.47H40.0701C40.0701 59.47 40.0401 59.47 40.0201 59.47C38.7201 59.5 37.3401 60.51 37.3401 62.3V67.63C37.3301 68.63 37.8901 69.89 39.1901 70.49C39.9101 70.82 49.2701 74.2 52.1301 75.22C52.3501 75.29 53.3001 75.6 54.2001 75.6C54.5601 75.6 54.8901 75.55 55.1901 75.46C55.2401 75.44 55.2901 75.43 55.3401 75.41C55.4301 75.37 55.5401 75.33 55.6601 75.29C56.0401 76.66 57.0501 77.54 58.2701 77.54C59.4901 77.54 60.5101 76.66 60.8801 75.29C61.0001 75.33 61.1101 75.38 61.2001 75.41C61.2501 75.43 61.3001 75.45 61.3501 75.46C61.6501 75.55 61.9801 75.6 62.3401 75.6C63.2401 75.6 64.2001 75.29 64.3801 75.23C67.2701 74.19 76.6301 70.82 77.3501 70.49C78.6501 69.89 79.2101 68.63 79.2001 67.63V62.3C79.2001 60.51 77.8201 59.5 76.5201 59.47C76.5001 59.47 76.4901 59.47 76.4701 59.47H62.3301C63.1301 54.46 64.8601 43.54 65.0801 42.03C65.1901 41.92 65.4601 41.77 65.6901 41.69C68.3101 41.23 113.07 33.4 113.63 33.31C115.11 33.05 115.85 31.67 115.91 30.41C115.91 30.37 115.91 30.34 115.91 30.3V21.13C115.91 19.39 114.6 18.45 113.36 18.45H113.34L74.7301 18.52C73.8101 18.52 72.9201 18.43 72.0401 18.26L65.8901 17.07C65.5901 13.76 64.9701 6.92 64.8401 6.04C64.8401 6.04 64.8401 6.03 64.8401 6.02C66.2301 5.97 67.6401 5.9 68.8301 5.8C70.0101 5.7 70.9101 4.77 70.9601 3.58C71.0201 2.4 70.2101 1.38 69.0401 1.17C67.5301 0.9 65.9801 0.76 64.4201 0.76C62.8601 0.76 61.4901 0.9 60.4801 1.06C59.8601 0.37 59.0901 0 58.2601 0L58.2701 0Z" fill="black"/>
</g>
<defs>
<clipPath id="clip0_555_2">
<rect width="115.3" height="77.53" fill="white" transform="translate(0.620117)"/>
</clipPath>
</defs>
</svg>
