<svg width="104" height="90" viewBox="0 0 104 90" fill="none" xmlns="http://www.w3.org/2000/svg">
<g clip-path="url(#clip0_580_12)">
<path d="M51.7202 88.6498C51.3302 88.6498 50.4002 88.4498 50.2802 86.6498L50.1702 84.1698C49.7702 84.6098 49.2102 84.8698 48.6102 84.8698C48.5802 84.8698 48.4502 84.8698 48.4202 84.8698C46.3502 84.6798 41.3602 84.2098 39.6102 83.9298C37.3302 83.5698 36.5402 81.4198 36.4402 80.3398C36.4402 80.2298 36.4402 79.7798 36.3802 78.0098C36.3102 75.9298 37.9402 74.9398 38.8102 74.7098C38.8502 74.6998 38.8902 74.6898 38.9302 74.6898C39.0102 74.6798 46.4602 73.6598 49.2002 73.3098C47.6502 60.0798 47.1202 45.1798 47.0302 42.2998C47.0302 42.1898 46.9702 42.0798 46.8802 42.0098L46.0702 41.3598C45.9602 41.2698 45.8202 41.2098 45.6802 41.1798L9.90022 34.8498C9.66022 35.0298 9.36022 35.1298 9.04022 35.1298C8.98022 35.1298 8.84022 35.1198 8.78022 35.1098L6.97022 34.7998C6.56022 34.7298 6.22022 34.4898 6.00022 34.1698L3.45022 33.7198C2.66022 33.5798 2.02022 32.9598 1.87022 32.1798C1.70022 31.2998 1.48022 29.7898 1.24022 27.6898C0.860219 24.7098 1.12022 22.7498 2.05022 21.6898C2.65022 20.9998 3.35022 20.9298 3.62022 20.9298C3.63022 20.9298 3.65022 20.9298 3.67022 20.9298L28.9402 19.3698C29.0402 17.9498 29.4102 17.5798 29.5502 17.4498C29.7702 17.2298 30.0602 17.1098 30.3602 17.1098C30.6602 17.1098 30.9502 17.2298 31.1702 17.4598C31.4002 17.6898 31.6502 18.1098 31.7302 19.2098L41.0502 18.6798C41.0802 17.9998 41.2302 17.1498 41.7402 16.5598C42.1302 16.1098 42.6702 15.8698 43.2902 15.8698C43.9102 15.8698 44.4602 16.1098 44.8702 16.5498C45.3602 17.0898 45.5602 17.8298 45.6402 18.4498L46.3302 18.4298C46.3102 16.3198 46.2902 11.6498 46.3302 10.6798C46.3302 8.8498 46.7802 7.7898 47.3502 7.2698C47.4402 6.7198 47.5702 6.20981 47.6902 5.7698C45.8602 5.7698 42.5502 5.5798 41.0802 5.2398C40.5302 5.1098 40.1602 4.6298 40.1802 4.0698C40.2002 3.5098 40.6002 3.0398 41.1502 2.9498C43.0302 2.6298 48.1102 2.4498 48.5302 2.4498C48.7702 2.4498 48.9902 2.4898 49.1802 2.5398C49.2802 2.3098 49.4102 2.0798 49.5502 1.8498C49.9202 1.1898 50.7402 1.0698 50.9002 1.0498H51.6902H52.4002C52.6502 1.0698 53.4802 1.1898 53.8802 1.9098C54.0102 2.1098 54.1202 2.3198 54.2202 2.5398C54.4102 2.4898 54.6302 2.4498 54.8702 2.4498C55.2902 2.4498 60.3702 2.6298 62.2602 2.9498C62.8202 3.0398 63.2202 3.5098 63.2302 4.0698C63.2502 4.6298 62.8802 5.1098 62.3302 5.2398C60.8502 5.5898 57.5502 5.7698 55.7202 5.7698C55.8402 6.20981 55.9702 6.7198 56.0602 7.2698C56.6302 7.77981 57.0802 8.8598 57.0802 10.7198C57.1302 11.5998 57.1002 16.0398 57.0802 18.4198L57.7702 18.4398C57.8402 17.8198 58.0402 17.0798 58.5402 16.5398C58.9502 16.0898 59.5002 15.8598 60.1202 15.8598C60.7402 15.8598 61.2802 16.0998 61.6702 16.5498C62.1802 17.1398 62.3302 17.9898 62.3602 18.6698L71.6802 19.1998C71.7602 18.0998 72.0102 17.6898 72.2402 17.4498C72.4602 17.2298 72.7502 17.0998 73.0502 17.0998C73.3502 17.0998 73.6402 17.2198 73.8602 17.4398C74.0002 17.5798 74.3602 17.9498 74.4702 19.3598L99.7402 20.9198C99.7402 20.9198 99.7702 20.9198 99.7902 20.9198C100.06 20.9198 100.76 20.9898 101.36 21.6798C102.29 22.7298 102.55 24.6998 102.17 27.6898C101.93 29.7798 101.71 31.2898 101.54 32.1598C101.38 32.9598 100.76 33.5598 99.9602 33.6998L97.4002 34.1498C97.1802 34.4798 96.8402 34.7098 96.4402 34.7798L94.6302 35.0898C94.5702 35.0898 94.4302 35.1098 94.3802 35.1098C94.0602 35.1098 93.7602 35.0098 93.5202 34.8298L57.7402 41.1598C57.6002 41.1898 57.4602 41.2498 57.3502 41.3398L56.5402 41.9898C56.4502 42.0598 56.4002 42.1698 56.3902 42.2798C56.3002 45.1598 55.7802 60.0498 54.2202 73.2898C56.9702 73.6398 64.4102 74.6598 64.4902 74.6698C64.5302 74.6698 64.5702 74.6798 64.6102 74.6898C65.4802 74.9198 67.1102 75.8998 67.0402 77.9898C66.9802 79.7598 66.9802 80.1998 66.9802 80.2298C66.8802 81.3998 66.0902 83.5498 63.8102 83.9098C62.0602 84.1898 57.0702 84.6598 55.0002 84.8498C54.9702 84.8498 54.8402 84.8498 54.8102 84.8498C54.2202 84.8498 53.6502 84.5998 53.2502 84.1498L53.1402 86.5998C53.0202 88.4298 52.0902 88.6298 51.7002 88.6298L51.7202 88.6498Z" fill="white"/>
<path d="M51.7201 2H52.4101C52.4101 2 52.8501 2.05 53.0201 2.35C53.2901 2.77 53.4801 3.22 53.5701 3.76L53.9601 3.74C53.9601 3.74 54.3301 3.4 54.8801 3.4C55.3601 3.4 60.3401 3.59 62.1001 3.89C62.2801 3.92 62.2901 4.18 62.1101 4.22C60.8201 4.52 57.6401 4.72 55.7201 4.72C54.9001 4.72 54.3101 4.68 54.1801 4.6L53.8101 4.48L53.6401 4.46C53.6401 4.53 53.6401 4.61 53.6401 4.68H54.1201C54.2501 4.68 54.3601 4.76 54.4001 4.87C54.5701 5.32 54.9801 6.49 55.1501 7.83C55.4001 7.83 56.0901 8.41 56.0901 10.67C56.1401 11.69 56.1101 17.31 56.0901 18.91C56.0901 19.15 56.2801 19.34 56.5201 19.35L58.7601 19.4C58.7601 19.4 58.5501 16.79 60.1401 16.79C61.7301 16.79 61.3401 19.55 61.3401 19.55L72.6801 20.19C72.6501 18.74 72.8501 18.04 73.0601 18.04C73.2801 18.04 73.5201 18.8 73.5001 20.25L99.7401 21.87C99.7401 21.87 99.7601 21.87 99.7901 21.87C100.12 21.87 101.87 22.12 101.18 27.51C100.89 30.02 100.69 31.28 100.56 31.92C100.48 32.31 100.17 32.61 99.7901 32.67L96.6801 33.22V33.29C96.6701 33.52 96.5001 33.71 96.2801 33.75L94.4701 34.06C94.4701 34.06 94.4101 34.06 94.3901 34.06C94.1701 34.06 93.9801 33.91 93.9301 33.7L57.5801 40.14C57.2701 40.19 56.9801 40.33 56.7401 40.52L55.9301 41.17C55.6101 41.42 55.4201 41.8 55.4101 42.21C55.3101 45.45 54.7701 60.41 53.1901 73.65C53.1601 73.91 53.3401 74.15 53.6101 74.18C55.7801 74.45 64.3901 75.63 64.3901 75.63C64.3901 75.63 66.1401 76.09 66.0801 77.93C66.0201 79.77 66.0201 80.2 66.0201 80.2C66.0201 80.2 65.8101 82.56 63.6901 82.9C61.9301 83.18 56.6601 83.67 54.9501 83.83C54.9201 83.83 54.8801 83.83 54.8501 83.83C54.5401 83.83 54.2501 83.7 54.0401 83.47L52.5801 81.83C52.5801 81.83 52.5301 81.79 52.5001 81.79C52.4501 81.79 52.3901 81.83 52.3901 81.89L52.1901 86.54C52.1901 86.54 52.1201 87.61 51.7501 87.61C51.3801 87.61 51.3101 86.54 51.3101 86.54L51.1101 81.89C51.1101 81.83 51.0501 81.79 51.0001 81.79C50.9701 81.79 50.9401 81.8 50.9201 81.83L49.4601 83.47C49.2501 83.7 48.9601 83.83 48.6501 83.83C48.6201 83.83 48.5801 83.83 48.5501 83.83C46.8401 83.67 41.5701 83.18 39.8101 82.9C37.7001 82.56 37.4801 80.2 37.4801 80.2C37.4801 80.2 37.4801 79.77 37.4201 77.93C37.3601 76.09 39.1101 75.63 39.1101 75.63C39.1101 75.63 47.7201 74.45 49.8901 74.18C50.1501 74.15 50.3401 73.91 50.3001 73.65C48.7101 60.41 48.1801 45.45 48.0801 42.21C48.0701 41.8 47.8801 41.42 47.5601 41.17L46.7501 40.52C46.5101 40.32 46.2201 40.19 45.9101 40.14L9.56013 33.7C9.51013 33.91 9.31013 34.06 9.10013 34.06C9.07013 34.06 9.05013 34.06 9.02013 34.06L7.21013 33.75C6.99013 33.71 6.82013 33.52 6.81013 33.29V33.22L3.69013 32.67C3.30013 32.6 2.99013 32.3 2.92013 31.92C2.79013 31.28 2.59013 30.02 2.30013 27.51C1.61013 22.12 3.35013 21.87 3.69013 21.87C3.72013 21.87 3.74013 21.87 3.74013 21.87L29.9801 20.25C29.9701 18.8 30.2001 18.04 30.4201 18.04C30.6301 18.04 30.8401 18.74 30.8001 20.19L42.1401 19.55C42.1401 19.55 41.7401 16.79 43.3401 16.79C44.9401 16.79 44.7201 19.4 44.7201 19.4L46.9601 19.35C47.2001 19.35 47.3901 19.15 47.3901 18.91C47.3801 17.3 47.3401 11.69 47.3901 10.67C47.3901 8.42 48.0801 7.83 48.3301 7.83C48.5001 6.49 48.9101 5.32 49.0801 4.87C49.1201 4.75 49.2401 4.68 49.3601 4.68H49.8401C49.8401 4.6 49.8401 4.53 49.8401 4.46L49.6701 4.48L49.3001 4.6C49.1701 4.68 48.5801 4.72 47.7601 4.72C45.8301 4.72 42.6601 4.52 41.3701 4.22C41.1901 4.18 41.2001 3.92 41.3801 3.89C43.1401 3.59 48.1101 3.4 48.6001 3.4C49.1501 3.4 49.5201 3.74 49.5201 3.74L49.9101 3.76C50.0001 3.22 50.1901 2.77 50.4601 2.35C50.6301 2.05 51.0701 2 51.0701 2H51.7601M51.7201 0H51.0101C50.9501 0 50.8801 0 50.8201 0.02C50.1301 0.09 49.2201 0.47 48.7101 1.31C48.6901 1.34 48.6701 1.38 48.6501 1.41C48.6201 1.41 48.5901 1.41 48.5601 1.41C48.0701 1.41 42.9701 1.59 41.0101 1.93C40.0001 2.1 39.2401 2.98 39.2101 4C39.1801 5.03 39.8801 5.94 40.8801 6.18C42.1301 6.47 44.5701 6.65 46.4601 6.71C46.4601 6.72 46.4601 6.73 46.4601 6.74C45.8701 7.41 45.3801 8.59 45.3701 10.63C45.3401 11.33 45.3401 13.42 45.3501 15.53C44.7901 15.06 44.0801 14.81 43.3301 14.81C42.4201 14.81 41.6001 15.18 41.0201 15.85C40.5601 16.39 40.3101 17.04 40.1901 17.68L32.6301 18.11C32.4601 17.37 32.2001 16.99 31.9301 16.72C31.5201 16.3 30.9801 16.07 30.4101 16.07C29.8401 16.07 29.3001 16.3 28.8901 16.71C28.6001 17 28.2801 17.45 28.1101 18.39L3.71013 19.9C3.71013 19.9 3.69013 19.9 3.68013 19.9C2.82013 19.9 1.97013 20.3 1.36013 21C0.19013 22.29 -0.14987 24.51 0.28013 27.8C0.53013 29.91 0.74013 31.44 0.92013 32.34C1.16013 33.54 2.10013 34.46 3.31013 34.68L5.50013 35.07C5.85013 35.42 6.31013 35.67 6.83013 35.76L8.64013 36.07C8.78013 36.09 8.92013 36.11 9.07013 36.11C9.44013 36.11 9.79013 36.03 10.1101 35.88L45.5001 42.15L46.0701 42.6C46.1801 45.99 46.7001 59.81 48.1201 72.43C44.9501 72.85 39.1101 73.65 38.8201 73.69C38.7401 73.7 38.6601 73.72 38.5801 73.74C37.0001 74.16 35.3301 75.68 35.4001 78.04C35.4601 79.78 35.4601 80.23 35.4601 80.25C35.4601 80.31 35.4601 80.37 35.4601 80.43C35.5801 81.78 36.5801 84.46 39.4701 84.92C41.2501 85.2 46.2701 85.68 48.3501 85.87C48.4401 85.87 48.5401 85.88 48.6301 85.88C48.8401 85.88 49.0501 85.86 49.2601 85.82L49.3001 86.68C49.3001 86.68 49.3001 86.71 49.3001 86.73C49.4901 89.52 51.3601 89.67 51.7401 89.67C52.1201 89.67 53.9901 89.53 54.1801 86.73C54.1801 86.71 54.1801 86.7 54.1801 86.68L54.2201 85.82C54.4201 85.86 54.6301 85.88 54.8501 85.88C54.9401 85.88 55.0401 85.88 55.1301 85.87C57.2001 85.68 62.2201 85.21 64.0001 84.92C66.8901 84.46 67.8801 81.78 68.0101 80.43C68.0101 80.37 68.0101 80.31 68.0101 80.25C68.0101 80.24 68.0101 79.79 68.0701 78.05C68.1501 75.69 66.4801 74.17 64.8901 73.75C64.8101 73.73 64.7301 73.71 64.6501 73.7C64.3601 73.66 58.5201 72.86 55.3501 72.44C56.7801 59.81 57.2901 46 57.4001 42.61L57.9701 42.16L93.3601 35.89C93.6801 36.04 94.0301 36.12 94.4001 36.12C94.5401 36.12 94.6901 36.11 94.8301 36.08L96.6401 35.77C97.1601 35.68 97.6201 35.43 97.9701 35.08L100.16 34.69C101.35 34.48 102.31 33.54 102.55 32.35C102.73 31.45 102.94 29.91 103.19 27.78C103.61 24.51 103.27 22.29 102.14 21.01C101.52 20.31 100.68 19.91 99.8201 19.91C99.8101 19.91 99.8001 19.91 99.7901 19.91L75.3901 18.4C75.2101 17.46 74.9001 17.01 74.6101 16.72C74.2001 16.31 73.6601 16.08 73.0901 16.08C72.5201 16.08 71.9801 16.31 71.5701 16.73C71.3001 17 71.0301 17.39 70.8701 18.12L63.3101 17.69C63.1901 17.06 62.9401 16.4 62.4801 15.86C61.9001 15.19 61.0801 14.82 60.1701 14.82C59.4101 14.82 58.7101 15.07 58.1501 15.54C58.1501 13.49 58.1501 11.34 58.1301 10.64C58.1301 8.59 57.6301 7.42 57.0401 6.75C57.0401 6.74 57.0401 6.73 57.0401 6.72C58.9301 6.66 61.3701 6.48 62.6201 6.19C63.6201 5.96 64.3201 5.04 64.2901 4.01C64.2601 2.98 63.5001 2.11 62.4901 1.94C60.5201 1.6 55.4201 1.42 54.9401 1.42C54.9101 1.42 54.8801 1.42 54.8501 1.42C54.8301 1.39 54.8101 1.35 54.7901 1.32C54.2801 0.48 53.3701 0.1 52.6801 0.03C52.6201 0.03 52.5501 0.02 52.4901 0.02H51.8001H51.7901L51.7201 0Z" fill="black"/>
</g>
<defs>
<clipPath id="clip0_580_12">
<rect width="103.25" height="89.65" fill="white" transform="translate(0.100098)"/>
</clipPath>
</defs>
</svg>
