<svg width="97" height="149" viewBox="0 0 97 149" fill="none" xmlns="http://www.w3.org/2000/svg">
<g clip-path="url(#clip0_577_7)">
<path d="M44.2801 147.755C43.2401 147.755 42.7901 147.115 42.7201 146.605C42.6901 146.425 42.4901 145.215 42.1501 142.855C41.7901 140.315 41.4101 134.695 41.3901 134.465V133.635C40.6401 131.865 39.5901 131.065 39.2801 130.855C38.9101 130.605 38.6901 130.195 38.6901 129.755V126.915L5.34008 124.685C5.29008 124.685 3.92008 124.655 3.35008 124.655C2.73008 124.655 2.36008 124.395 2.16008 124.175C1.78008 123.755 1.79008 123.275 1.80008 123.135V120.165C1.80008 117.665 2.77008 115.925 3.22008 115.245V113.755C3.21008 113.425 3.24008 112.535 3.76008 111.995C4.02008 111.725 4.36008 111.575 4.73008 111.575C4.95008 111.575 5.16008 111.625 5.36008 111.725L36.0201 62.6754C36.0901 62.5653 36.1301 62.4354 36.1301 62.3054V59.0854C36.1301 57.8354 36.9301 56.7954 37.5001 56.2154V55.0053C37.5001 55.0053 37.5001 54.6054 37.6101 53.7154C37.8501 52.2154 38.7601 51.9454 39.1201 51.9053L40.3201 51.7354C40.3201 51.7354 40.4101 51.7354 40.4601 51.7354H41.8001C42.0101 50.7754 42.3401 49.2453 42.4401 48.8754C42.5601 48.3853 42.8001 48.1254 43.0301 47.9854L42.9201 32.2954C42.7101 32.0454 42.6401 31.7854 42.6101 31.6154C42.5701 31.3054 42.6501 31.0154 42.7801 30.7754V30.4954C42.7801 30.1954 42.8801 29.9153 43.0601 29.7054C43.2001 20.2754 46.5801 7.62535 46.9801 6.16535L47.0601 2.41535C47.0601 2.41535 47.0601 2.34535 47.0601 2.30535C47.1401 1.68535 47.6301 1.23535 48.2201 1.23535C48.8101 1.23535 49.2901 1.68535 49.3801 2.30535L49.5701 6.14535C49.8401 7.06535 51.5801 13.0454 52.7601 19.6554C52.9701 19.5154 53.2101 19.4454 53.4301 19.4454C54.0101 19.4454 54.6801 19.8854 54.8001 21.1054V22.8454C54.8001 23.5854 54.6301 24.0154 54.4801 24.2354L53.6201 25.7854C53.7601 27.1854 53.8401 28.5054 53.8601 29.7054C54.0301 29.9153 54.1401 30.1854 54.1401 30.4954V30.7754C54.2701 31.0154 54.3501 31.2954 54.3101 31.6154C54.2901 31.7854 54.2201 32.0454 54.0101 32.2954L53.8901 47.9854C54.1301 48.1254 54.3601 48.3954 54.4801 48.8754C54.5701 49.2354 54.9101 50.7754 55.1101 51.7354H56.4501C56.4501 51.7354 56.5401 51.7354 56.5901 51.7354L57.7901 51.9053C58.1901 51.9654 59.0701 52.2453 59.2901 53.6754C59.4001 54.6054 59.4101 54.9854 59.4101 54.9854V56.2253C59.9801 56.8054 60.7801 57.8453 60.7801 59.0953V62.3153C60.7801 62.4454 60.8201 62.5753 60.8901 62.6853L91.5501 111.735C91.7401 111.635 91.9601 111.585 92.1801 111.585C92.5501 111.585 92.8901 111.735 93.1501 112.005C93.6701 112.545 93.7001 113.435 93.6901 113.795V115.255C94.1501 115.935 95.1201 117.675 95.1201 120.175V123.225C95.1201 123.275 95.1401 123.765 94.7601 124.175C94.5601 124.395 94.1901 124.655 93.5701 124.655C92.9801 124.655 91.5401 124.685 91.5401 124.685L58.2301 126.915V129.755C58.2301 130.195 58.0101 130.605 57.6401 130.855C57.3301 131.065 56.2801 131.865 55.5301 133.635V134.395C55.5101 134.695 55.1301 140.315 54.7701 142.855C54.4401 145.205 54.2301 146.425 54.2001 146.605C54.1301 147.105 53.6901 147.755 52.6401 147.755H44.3001H44.2801Z" fill="white"/>
<path d="M48.22 2.24512C48.36 2.24512 48.39 2.44512 48.39 2.44512L48.58 6.31512C48.58 6.31512 51.35 15.4451 52.44 24.1351C52.63 23.8051 52.82 23.4751 52.91 23.3351C53.11 23.0051 53.11 22.5051 53.11 22.5051V21.1551C53.11 21.1551 53.14 20.4451 53.44 20.4451C53.74 20.4451 53.82 21.2051 53.82 21.2051V22.8451C53.82 23.5051 53.64 23.7151 53.64 23.7151L52.61 25.5851C52.78 27.2051 52.88 28.7951 52.88 30.2951C52.88 30.2951 52.9 30.2951 52.92 30.2951C53 30.2951 53.15 30.3151 53.15 30.5151V31.1251C53.15 31.1251 53.63 31.5351 53.01 31.8351L52.85 54.2151H53.15V48.9651C53.15 48.9651 53.23 48.8551 53.32 48.8551C53.39 48.8551 53.47 48.9251 53.52 49.1551C53.63 49.6151 54.14 51.9351 54.28 52.5951C54.3 52.6951 54.39 52.7651 54.5 52.7651H56.46L57.66 52.9351C57.66 52.9351 58.16 52.9551 58.31 53.8751C58.4 54.7051 58.41 55.0551 58.41 55.0551V56.4551C58.41 56.6051 58.47 56.7451 58.58 56.8551C58.95 57.2051 59.78 58.1151 59.78 59.1451V62.3651C59.78 62.6851 59.87 62.9951 60.04 63.2651L91.64 113.815C91.64 113.815 91.64 112.635 92.18 112.635C92.72 112.635 92.69 113.805 92.69 113.805V115.615C92.69 115.615 94.12 117.335 94.12 120.215V123.265C94.12 123.265 94.16 123.695 93.56 123.695C92.96 123.695 91.51 123.725 91.51 123.725L57.46 126.005C57.33 126.005 57.23 126.125 57.23 126.255V129.795C57.23 129.905 57.18 130.005 57.09 130.065C56.66 130.355 55.39 131.345 54.54 133.475V134.435C54.54 134.435 54.15 140.225 53.79 142.755C53.43 145.285 53.22 146.495 53.22 146.495C53.22 146.495 53.22 146.795 52.65 146.795H44.31C43.74 146.795 43.74 146.495 43.74 146.495C43.74 146.495 43.53 145.285 43.17 142.755C42.81 140.225 42.42 134.435 42.42 134.435V133.475C41.57 131.345 40.3 130.345 39.87 130.065C39.78 130.005 39.72 129.905 39.72 129.795V126.255C39.72 126.125 39.62 126.015 39.49 126.005L5.44003 123.725C5.44003 123.725 3.98003 123.695 3.39003 123.695C2.80003 123.695 2.83003 123.265 2.83003 123.265V120.215C2.83003 117.335 4.26003 115.615 4.26003 115.615V113.805C4.26003 113.805 4.22003 112.635 4.77003 112.635C5.32003 112.635 5.31003 113.815 5.31003 113.815L36.91 63.2651C37.08 62.9951 37.17 62.6851 37.17 62.3651V59.1451C37.17 58.1251 38.01 57.2051 38.37 56.8551C38.48 56.7551 38.54 56.6051 38.54 56.4551V55.0551C38.54 55.0551 38.54 54.7051 38.64 53.8751C38.79 52.9551 39.25 52.9351 39.29 52.9351L40.49 52.7651H42.45C42.55 52.7651 42.64 52.6951 42.67 52.5951C42.81 51.9351 43.32 49.6151 43.43 49.1551C43.49 48.9251 43.56 48.8551 43.63 48.8551C43.72 48.8551 43.8 48.9651 43.8 48.9651V54.2151H44.1L43.94 31.8351C43.33 31.5451 43.8 31.1251 43.8 31.1251V30.5151C43.8 30.3251 43.96 30.2951 44.03 30.2951C44.05 30.2951 44.07 30.2951 44.07 30.2951C44.07 20.4751 48 6.32512 48 6.32512L48.09 2.45512C48.09 2.45512 48.12 2.25512 48.26 2.25512M48.22 0.245117C47.13 0.245117 46.22 1.05512 46.07 2.18512C46.07 2.25512 46.05 2.33512 46.05 2.40512L45.97 6.03512C45.45 7.96512 42.24 20.1151 42.05 29.4151C41.87 29.7351 41.77 30.1051 41.77 30.5051V30.5651C41.63 30.9151 41.55 31.3151 41.61 31.7551C41.65 32.0651 41.75 32.3551 41.91 32.6151L42.02 47.5451C41.78 47.8151 41.57 48.1851 41.46 48.6451C41.39 48.9251 41.2 49.7851 40.99 50.7351H40.46C40.37 50.7351 40.28 50.7351 40.18 50.7551L39.06 50.9151C38.01 51.0051 36.9 51.8251 36.64 53.5251C36.64 53.5551 36.64 53.5851 36.63 53.6151C36.53 54.4851 36.52 54.8951 36.51 54.9651C36.51 54.9851 36.51 55.0051 36.51 55.0151V55.8351C35.87 56.5651 35.14 57.7051 35.14 59.0951V62.2251L4.90003 110.595C4.85003 110.595 4.79003 110.595 4.74003 110.595C4.10003 110.595 3.50003 110.855 3.05003 111.315C2.31003 112.085 2.21003 113.185 2.23003 113.795V114.965C1.66003 115.865 0.800032 117.675 0.800032 120.175V123.185C0.780032 123.785 1.01003 124.405 1.43003 124.855C1.91003 125.375 2.59003 125.655 3.36003 125.655C3.88003 125.655 5.07003 125.675 5.33003 125.685L37.7 127.845V129.745C37.7 130.525 38.09 131.245 38.73 131.685C38.9 131.795 39.74 132.415 40.39 133.845V134.395C40.39 134.395 40.39 134.485 40.39 134.525C40.41 134.765 40.79 140.415 41.15 142.995C41.47 145.265 41.67 146.475 41.72 146.745C41.86 147.765 42.75 148.755 44.27 148.755H52.61C54.13 148.755 55.02 147.765 55.16 146.745C55.2 146.485 55.41 145.265 55.73 142.995C56.1 140.425 56.48 134.765 56.49 134.525C56.49 134.485 56.49 134.435 56.49 134.395V133.845C57.14 132.425 57.98 131.805 58.15 131.685C58.8 131.255 59.18 130.525 59.18 129.755V127.855L91.55 125.695C91.8 125.695 93 125.665 93.52 125.665C94.29 125.665 94.97 125.375 95.45 124.865C95.86 124.415 96.09 123.795 96.08 123.195V120.185C96.08 117.685 95.22 115.885 94.65 114.965V113.795C94.66 113.185 94.57 112.085 93.83 111.315C93.38 110.855 92.78 110.595 92.14 110.595C92.08 110.595 92.03 110.595 91.98 110.595L61.75 62.2351V59.1051C61.75 57.7151 61.02 56.5751 60.38 55.8451V55.0251C60.38 55.0251 60.38 54.9851 60.38 54.9751C60.38 54.9051 60.36 54.4951 60.26 53.6251C60.26 53.5951 60.26 53.5651 60.25 53.5351C59.98 51.8351 58.87 51.0151 57.83 50.9251L56.71 50.7651C56.62 50.7551 56.53 50.7451 56.43 50.7451H55.9C55.7 49.8451 55.5 48.9351 55.43 48.6551C55.31 48.1851 55.11 47.8251 54.87 47.5551L54.98 32.6251C55.14 32.3651 55.24 32.0751 55.28 31.7651C55.34 31.3251 55.27 30.9251 55.12 30.5751V30.5151C55.12 30.1151 55.02 29.7351 54.84 29.4151C54.81 28.3551 54.75 27.2151 54.63 26.0151L55.32 24.7651C55.56 24.3851 55.78 23.7751 55.78 22.8651V21.2251C55.78 21.1551 55.78 21.0951 55.77 21.0251C55.59 19.2251 54.48 18.5251 53.53 18.4751C52.4 12.4251 50.88 7.18512 50.53 5.99512L50.35 2.36512C50.35 2.30512 50.35 2.25512 50.33 2.19512C50.18 1.07512 49.28 0.255117 48.18 0.255117L48.22 0.245117Z" fill="black"/>
</g>
<defs>
<clipPath id="clip0_577_7">
<rect width="95.3" height="148.51" fill="white" transform="translate(0.799805 0.245117)"/>
</clipPath>
</defs>
</svg>
