<svg width="118" height="96" viewBox="0 0 118 96" fill="none" xmlns="http://www.w3.org/2000/svg">
<g clip-path="url(#clip0_722_7)">
<path d="M59 94.2705C58.43 94.2705 57.82 93.8405 57.77 92.8705V92.2805C57.66 92.0505 57.59 91.7705 57.54 91.4905H43.47C41.84 91.4905 41.23 89.3105 41.12 88.8705C41.1 88.7905 41.09 88.7105 41.09 88.6305V83.5005C41.09 81.8305 42.26 81.1405 42.88 81.0105C42.95 81.0005 43.02 80.9905 43.09 80.9905H56.29L52.67 48.8905H27.5C26.81 48.8905 26.11 48.8105 25.44 48.6405C13.2 45.6505 5.60001 43.8105 5.10001 43.7105C4.66001 43.6205 4.21001 43.5705 3.88001 43.5305C3.66001 43.7705 3.38001 44.0705 3.15001 44.2805C2.84001 44.5705 2.51001 44.7205 2.16001 44.7205C1.63001 44.7205 1.16001 44.3505 1.02001 43.8305C1.01001 43.7905 1.00001 43.7405 1.00001 43.7005C0.980014 43.4905 0.960014 42.6705 1.38001 39.5705C2.16001 32.2705 4.51001 31.6505 5.21001 31.6405H38.73C38.79 31.5005 38.85 31.3605 38.91 31.2305H34.73C33.3 31.2305 32.65 30.4905 32.65 29.7505C32.65 29.0105 33.29 28.2705 34.73 28.2705H40.88C41.12 27.2405 41.64 25.7205 42.68 25.4405C42.78 25.4105 42.88 25.3905 42.99 25.3905H43.02C43.13 25.3905 43.24 25.4105 43.34 25.4405C44.37 25.7305 44.89 27.2405 45.12 28.2705H51.27C51.46 28.2705 51.64 28.2805 51.8 28.3105V22.9405C51.8 18.5905 54.11 0.980469 58.98 0.980469C63.85 0.980469 66.16 18.5905 66.16 22.9405V28.3105C66.32 28.2905 66.5 28.2705 66.69 28.2705H72.84C73.08 27.2405 73.6 25.7205 74.64 25.4405C74.74 25.4105 74.84 25.3905 74.95 25.3905H74.98C75.09 25.3905 75.2 25.4105 75.3 25.4405C76.33 25.7305 76.85 27.2405 77.08 28.2705H83.23C84.66 28.2705 85.31 29.0105 85.31 29.7505C85.31 30.4905 84.67 31.2305 83.23 31.2305H79.05C79.11 31.3605 79.17 31.5005 79.23 31.6405H112.74C113.46 31.6505 115.8 32.2605 116.59 39.5905C117 42.6705 116.99 43.4905 116.96 43.7005C116.96 43.7405 116.95 43.7905 116.94 43.8305C116.8 44.3605 116.34 44.7205 115.8 44.7205C115.45 44.7205 115.12 44.5705 114.81 44.2805C114.58 44.0705 114.3 43.7705 114.08 43.5305C113.76 43.5605 113.31 43.6205 112.87 43.7105C112.37 43.8105 104.77 45.6505 92.53 48.6405C91.86 48.8005 91.16 48.8905 90.47 48.8905H65.3L61.68 80.9905H74.88C74.95 80.9905 75.02 80.9905 75.09 81.0105C75.71 81.1405 76.88 81.8305 76.88 83.5005V88.6305C76.88 88.7105 76.88 88.7905 76.85 88.8705C76.74 89.3105 76.13 91.4905 74.5 91.4905H60.43C60.38 91.7705 60.31 92.0405 60.2 92.2805V92.8205C60.18 93.6905 59.67 94.2705 58.97 94.2705H59ZM70.71 31.6505C70.77 31.5105 70.83 31.3705 70.89 31.2405H66.71C66.52 31.2405 66.34 31.2305 66.18 31.2005V31.6505H70.71ZM51.82 31.6505V31.2005C51.66 31.2205 51.48 31.2405 51.29 31.2405H47.11C47.17 31.3705 47.23 31.5105 47.29 31.6505H51.82Z" fill="white"/>
<path d="M59 2.00023C62.38 2.00023 65.18 17.1402 65.18 22.9602V32.6502H71.4C71.68 31.8502 72.15 30.7902 72.8 30.2402H66.72C65.28 30.2402 65.28 29.2902 66.72 29.2902H73.7C73.86 28.1302 74.39 26.4702 74.97 26.4202C74.97 26.4202 74.98 26.4202 74.99 26.4202C74.99 26.4202 75 26.4202 75.01 26.4202C75.59 26.4802 76.12 28.1402 76.28 29.3002H83.26C84.7 29.3002 84.7 30.2502 83.26 30.2502H77.18C77.83 30.8002 78.3 31.8602 78.58 32.6602H112.77C112.77 32.6602 114.87 32.7002 115.62 39.7202C116.06 43.0402 116 43.6002 116 43.6002C116 43.6002 115.96 43.7402 115.83 43.7402C115.76 43.7402 115.66 43.7002 115.52 43.5702C115.13 43.2102 114.52 42.5102 114.52 42.5102C114.52 42.5102 113.61 42.5702 112.71 42.7502C111.92 42.9002 96.27 46.7202 92.32 47.6902C91.72 47.8402 91.11 47.9102 90.5 47.9102H64.84C64.61 47.9102 64.41 48.0902 64.38 48.3202L60.61 81.7102C60.59 81.8702 60.72 82.0102 60.88 82.0102H74.9C74.9 82.0102 75.9 82.2202 75.9 83.5202V88.6502C75.9 88.6502 75.45 90.5002 74.52 90.5002H59.55C59.55 90.5002 59.45 91.9502 59.22 91.9502V92.8302C59.22 92.8302 59.21 93.2802 58.99 93.2802C58.79 93.2802 58.76 92.8302 58.76 92.8302V91.9502C58.53 91.9502 58.43 90.5002 58.43 90.5002H43.46C42.53 90.5002 42.08 88.6502 42.08 88.6502V83.5202C42.08 82.2202 43.08 82.0102 43.08 82.0102H57.1C57.26 82.0102 57.38 81.8702 57.37 81.7102L53.6 48.3202C53.57 48.0902 53.38 47.9102 53.14 47.9102H27.48C26.87 47.9102 26.25 47.8402 25.66 47.6902C21.71 46.7302 6.06001 42.9002 5.27001 42.7502C4.37001 42.5702 3.45001 42.5102 3.45001 42.5102C3.45001 42.5102 2.84001 43.2102 2.45001 43.5702C2.31001 43.7002 2.22001 43.7402 2.14001 43.7402C2.01001 43.7402 1.97001 43.6002 1.97001 43.6002C1.97001 43.6002 1.90001 43.0402 2.35001 39.7202C3.10001 32.7002 5.20001 32.6602 5.20001 32.6602H39.39C39.67 31.8602 40.14 30.8002 40.79 30.2502H34.71C33.27 30.2502 33.27 29.3002 34.71 29.3002H41.69C41.85 28.1402 42.38 26.4802 42.96 26.4302C42.96 26.4302 42.97 26.4302 42.98 26.4302C42.98 26.4302 42.99 26.4302 43 26.4302C43.58 26.4902 44.11 28.1502 44.27 29.3102H51.25C52.69 29.3102 52.69 30.2602 51.25 30.2602H45.17C45.82 30.8102 46.29 31.8702 46.57 32.6702H52.79V22.9802C52.79 17.1602 55.59 2.02023 58.97 2.02023M59 0.000234375C56.33 0.000234375 54.39 3.03023 52.7 9.81024C51.59 14.2602 50.82 19.6702 50.82 22.9502V27.2802H45.9C45.52 26.0802 44.83 24.7902 43.57 24.4802C43.4 24.4302 43.21 24.4002 43.02 24.4002H42.99C42.8 24.4002 42.61 24.4302 42.43 24.4802C41.18 24.8002 40.49 26.0802 40.12 27.2802H34.74C32.63 27.2802 31.66 28.5602 31.66 29.7602C31.66 30.0702 31.72 30.3702 31.84 30.6502H5.23001C3.75001 30.6802 1.21001 31.8602 0.390008 39.4702C0.0800082 41.8202 -0.0499918 43.2902 0.0100082 43.8302C0.0200082 43.9202 0.0400082 44.0102 0.0600082 44.0902C0.310008 45.0602 1.18001 45.7302 2.17001 45.7302C2.59001 45.7302 3.22001 45.6102 3.84001 45.0202C3.97001 44.8902 4.12001 44.7402 4.27001 44.5902C4.47001 44.6202 4.69001 44.6502 4.91001 44.6902C5.56001 44.8202 15.57 47.2502 25.2 49.6102C25.95 49.7902 26.72 49.8902 27.5 49.8902H51.78L55.18 79.9902H43.1C42.96 79.9902 42.82 80.0002 42.68 80.0302C41.43 80.2902 40.09 81.4902 40.09 83.5002V88.6302C40.09 88.7902 40.11 88.9502 40.15 89.1002C40.55 90.7302 41.63 92.4802 43.47 92.4802H56.77V92.8102C56.77 92.8102 56.77 92.8802 56.77 92.9102C56.85 94.4502 57.95 95.2602 58.99 95.2602C60.03 95.2602 61.17 94.4402 61.22 92.8702C61.22 92.8502 61.22 92.8302 61.22 92.8102V92.4802H74.52C76.36 92.4802 77.44 90.7302 77.84 89.1002C77.88 88.9502 77.9 88.7902 77.9 88.6302V83.5002C77.9 81.4902 76.56 80.2902 75.31 80.0302C75.17 80.0002 75.03 79.9902 74.89 79.9902H62.81L66.21 49.8902H90.49C91.26 49.8902 92.04 49.8002 92.79 49.6102C102.43 47.2602 112.44 44.8202 113.09 44.6902C113.31 44.6502 113.52 44.6102 113.73 44.5902C113.88 44.7402 114.02 44.8902 114.16 45.0202C114.79 45.6102 115.42 45.7302 115.83 45.7302C116.82 45.7302 117.68 45.0602 117.94 44.0902C117.96 44.0002 117.98 43.9102 117.99 43.8202C118.05 43.2802 117.93 41.8102 117.61 39.4602C116.79 31.8502 114.25 30.6602 112.81 30.6402H86.16C86.28 30.3502 86.34 30.0502 86.34 29.7502C86.34 28.5602 85.38 27.2702 83.26 27.2702H77.88C77.5 26.0702 76.81 24.7802 75.55 24.4702C75.38 24.4202 75.19 24.3902 75 24.3902H74.97C74.78 24.3902 74.59 24.4202 74.41 24.4702C73.16 24.7902 72.47 26.0702 72.1 27.2702H67.18V22.9402C67.18 19.6502 66.41 14.2502 65.3 9.80023C63.61 3.01023 61.67 -0.00976562 59 -0.00976562V0.000234375Z" fill="black"/>
</g>
<defs>
<clipPath id="clip0_722_7">
<rect width="118" height="95.27" fill="white"/>
</clipPath>
</defs>
</svg>
