<svg width="144" height="126" viewBox="0 0 144 126" fill="none" xmlns="http://www.w3.org/2000/svg">
<g clip-path="url(#clip0_501_46)">
<path d="M72.0099 124.88C71.1099 124.88 70.5899 124.04 70.2999 123.23H44.2499C42.7399 123.23 41.9899 121.83 41.9299 120.54V115.51C41.9299 113.64 43.3399 112.91 44.0799 112.79C44.2399 112.75 63.1699 108.37 67.6799 107.32C64.6399 89.9 62.6499 73.46 62.6299 73.29C62.6299 73.25 62.6299 73.21 62.6299 73.17V68.66H54.0399C53.6999 69.86 52.7499 70.32 52.0699 70.32H47.5299C46.3399 70.32 45.6499 69.51 45.3099 68.75H44.8899C43.5499 68.75 42.1999 68.66 40.8799 68.48L8.38988 64.1C7.38988 63.97 6.37988 63.9 5.36988 63.9H2.41988C1.71988 63.9 1.36988 63.59 1.20988 63.33C1.04988 63.08 0.999879 62.77 1.06988 62.48C1.15988 61.91 1.85988 57.23 1.85988 54.06C1.85988 50.04 4.97988 48.65 6.62988 48.48L43.4499 47.46V40.88C43.4499 40.15 43.6999 39.57 44.0799 39.13C42.6699 39.08 41.2999 38.94 40.0099 38.71C39.3499 38.6 38.8699 38.03 38.8799 37.36C38.8899 36.69 39.3599 36.12 40.0199 36.01C41.6299 35.74 43.3499 35.61 45.1399 35.61C45.9299 35.61 46.6299 35.64 47.2099 35.67C47.2999 35.24 47.4299 34.83 47.5999 34.44C47.9799 33.53 48.6199 32.33 49.7199 32.33C50.8199 32.33 51.3899 33.45 51.5899 33.82C51.8999 34.39 52.1299 35 52.2699 35.66C52.7899 35.63 53.4199 35.61 54.1199 35.61C55.9099 35.61 57.6299 35.75 59.2399 36.01C59.8999 36.12 60.3799 36.69 60.3799 37.36C60.3799 38.03 59.8999 38.6 59.2499 38.71C57.9099 38.94 56.4899 39.08 55.0299 39.13C55.4899 39.68 55.6899 40.3 55.7299 40.74V47.43H62.7299V27.77C62.7299 15.36 68.3599 1 72.0399 1C75.7199 1 81.3499 15.36 81.3499 27.77V47.43H88.3399V40.83C88.3799 40.35 88.5899 39.7 89.0599 39.13C87.5899 39.08 86.1699 38.94 84.8199 38.71C84.1599 38.6 83.6799 38.03 83.6899 37.36C83.6999 36.69 84.1699 36.12 84.8299 36.01C86.4399 35.74 88.1599 35.61 89.9499 35.61C90.6499 35.61 91.2799 35.63 91.7999 35.66C91.9399 35 92.1699 34.38 92.4799 33.82C92.6799 33.45 93.2999 32.33 94.3499 32.33C95.3999 32.33 96.0899 33.54 96.4699 34.44C96.6399 34.83 96.7699 35.25 96.8599 35.67C97.4399 35.64 98.1399 35.61 98.9299 35.61C100.72 35.61 102.44 35.75 104.05 36.01C104.71 36.12 105.19 36.69 105.19 37.36C105.19 38.03 104.71 38.6 104.05 38.71C102.76 38.93 101.39 39.07 99.9799 39.13C100.36 39.57 100.61 40.14 100.61 40.88V47.46L137.35 48.47C139.08 48.65 142.2 50.03 142.2 54.06C142.2 57.22 142.9 61.91 142.99 62.48C143.06 62.77 143.01 63.08 142.85 63.33C142.68 63.59 142.34 63.9 141.64 63.9H138.69C137.69 63.9 136.67 63.97 135.67 64.1L103.18 68.48C101.85 68.66 100.5 68.75 99.1699 68.75H98.7499C98.4099 69.52 97.7199 70.32 96.5299 70.32H91.9899C91.3099 70.32 90.3599 69.86 90.0199 68.66H81.4299V73.17C81.4299 73.17 81.4299 73.25 81.4299 73.29C81.4099 73.46 79.4099 89.9 76.3799 107.32C80.8899 108.37 99.8199 112.75 100.04 112.8C100.73 112.91 102.14 113.64 102.14 115.51V120.5C102.08 121.84 101.33 123.24 99.8199 123.24H73.7699C73.4799 124.04 72.9599 124.89 72.0599 124.89L72.0099 124.88Z" fill="white"/>
<path d="M72.0099 2C74.4999 2 80.3199 14.82 80.3199 27.77V48C80.3199 48.24 80.5099 48.43 80.7499 48.43H89.3099V40.83C89.3099 40.83 89.4899 38.78 92.3799 38.78H92.5899V38.06C91.9799 38.11 91.1299 38.15 90.1199 38.15C88.6499 38.15 86.8499 38.05 84.9599 37.73C84.5499 37.66 84.5499 37.07 84.9599 37C86.7599 36.7 88.4899 36.61 89.9199 36.61C91.0399 36.61 91.9699 36.67 92.6199 36.72C92.6899 35.87 92.9199 35.04 93.3299 34.3C93.6199 33.77 93.9699 33.33 94.3299 33.33C94.7899 33.33 95.2199 34.09 95.5299 34.83C95.7899 35.44 95.9399 36.08 95.9899 36.74C96.6399 36.68 97.6599 36.61 98.9099 36.61C100.34 36.61 102.07 36.7 103.87 37C104.28 37.07 104.28 37.66 103.87 37.73C101.98 38.06 100.18 38.15 98.7099 38.15C97.5699 38.15 96.6299 38.09 96.0199 38.04V38.78H96.4399C96.4399 38.78 99.5999 38.78 99.5999 40.87V48.42L137.31 49.46C137.31 49.46 141.18 49.86 141.18 54.05C141.18 57.52 141.99 62.68 141.99 62.68C141.99 62.68 142.09 62.89 141.61 62.89H138.66C137.61 62.89 136.55 62.96 135.51 63.1L103.02 67.48C101.73 67.65 100.44 67.74 99.1399 67.74H97.9899C97.9899 67.74 97.7499 69.31 96.5099 69.31H91.9699C91.9699 69.31 90.8699 69.31 90.8699 67.65H80.8399C80.5999 67.65 80.4099 67.84 80.4099 68.08V73.16C80.4099 73.16 78.3599 90.12 75.1999 108.07C76.3099 108.34 99.7799 113.77 99.7799 113.77C99.7799 113.77 101.1 113.99 101.1 115.51V120.5C101.1 120.5 101.03 122.24 99.7799 122.24H72.9799C72.9799 122.24 72.6099 123.89 72.0199 123.89C71.4299 123.89 71.0599 122.24 71.0599 122.24H44.2599C43.0099 122.24 42.9399 120.5 42.9399 120.5V115.51C42.9399 114 44.2599 113.77 44.2599 113.77C44.2599 113.77 67.7299 108.34 68.8399 108.07C65.6799 90.13 63.6299 73.16 63.6299 73.16V68.08C63.6299 67.84 63.4399 67.65 63.1999 67.65H53.1699C53.1699 69.31 52.0699 69.31 52.0699 69.31H47.5299C46.2799 69.31 46.0499 67.74 46.0499 67.74H44.8999C43.5999 67.74 42.3099 67.65 41.0199 67.48L8.52986 63.1C7.48986 62.96 6.42986 62.89 5.37986 62.89H2.42986C1.94986 62.89 2.04986 62.68 2.04986 62.68C2.04986 62.68 2.85986 57.53 2.85986 54.05C2.85986 49.86 6.72986 49.46 6.72986 49.46L44.4399 48.42V40.87C44.4399 38.78 47.5999 38.78 47.5999 38.78H48.0199V38.04C47.3999 38.09 46.4699 38.15 45.3299 38.15C43.8599 38.15 42.0599 38.05 40.1699 37.73C39.7599 37.66 39.7599 37.07 40.1699 37C41.9699 36.7 43.6999 36.61 45.1299 36.61C46.3799 36.61 47.3999 36.68 48.0499 36.74C48.1099 36.08 48.2599 35.44 48.5099 34.83C48.8199 34.09 49.2599 33.33 49.7099 33.33C50.0699 33.33 50.4199 33.77 50.7099 34.3C51.1199 35.04 51.3399 35.87 51.4199 36.72C52.0699 36.67 53.0099 36.61 54.1199 36.61C55.5499 36.61 57.2799 36.7 59.0799 37C59.4899 37.07 59.4899 37.66 59.0799 37.73C57.1899 38.06 55.3899 38.15 53.9199 38.15C52.9099 38.15 52.0599 38.1 51.4499 38.06V38.78H51.6599C54.5499 38.78 54.7299 40.83 54.7299 40.83V48.43H63.2899C63.5299 48.43 63.7199 48.24 63.7199 48V27.77C63.7199 14.83 69.5399 2 72.0299 2M72.0099 0C69.0799 0 66.5999 5.08 65.0399 9.34C62.9199 15.14 61.6999 21.86 61.6999 27.76V46.42H56.7099V40.82C56.7099 40.76 56.7099 40.7 56.7099 40.65C56.6899 40.47 56.6599 40.26 56.5999 40.04C57.5699 39.96 58.4999 39.85 59.4099 39.69C60.5499 39.49 61.3799 38.51 61.3699 37.35C61.3699 36.19 60.5299 35.21 59.3899 35.02C57.7299 34.74 55.9499 34.6 54.0999 34.6C53.7099 34.6 53.3499 34.6 52.9999 34.62C52.8499 34.17 52.6699 33.74 52.4399 33.33C51.7099 32 50.7799 31.32 49.6899 31.32C47.7999 31.32 46.9299 33.37 46.6499 34.04C46.5699 34.23 46.4999 34.43 46.4299 34.62C46.0299 34.61 45.5799 34.6 45.1099 34.6C43.2699 34.6 41.4899 34.74 39.8199 35.02C38.6799 35.21 37.8399 36.19 37.8399 37.35C37.8399 38.51 38.6599 39.49 39.7999 39.69C40.6699 39.84 41.5799 39.96 42.4999 40.03C42.4399 40.29 42.4099 40.57 42.4099 40.87V46.48L6.63986 47.47C6.58986 47.47 6.53986 47.47 6.48986 47.47C4.52986 47.67 0.819857 49.31 0.819857 54.05C0.819857 57.1 0.139857 61.66 0.0398573 62.29C-0.0701427 62.82 0.0298573 63.38 0.319857 63.85C0.569857 64.24 1.15986 64.89 2.37986 64.89H5.32986C6.28986 64.89 7.25986 64.96 8.20986 65.08L40.6999 69.46C42.0099 69.64 43.3399 69.73 44.6699 69.74C45.2499 70.64 46.1999 71.31 47.4899 71.31H52.0299C52.8999 71.31 54.0599 70.84 54.6799 69.65H61.5899V73.16C61.5899 73.24 61.5899 73.32 61.5999 73.4C61.6199 73.56 63.5499 89.45 66.4999 106.55C60.9299 107.84 44.7899 111.58 43.8099 111.81C42.3899 112.08 40.8999 113.34 40.8999 115.51V120.5C40.8999 120.5 40.8999 120.56 40.8999 120.59C40.9799 122.4 42.1399 124.24 44.2199 124.24H69.6199C70.3399 125.64 71.3599 125.89 71.9899 125.89C72.6199 125.89 73.6399 125.64 74.3599 124.24H99.7599C101.84 124.24 103 122.4 103.08 120.59C103.08 120.56 103.08 120.53 103.08 120.5V115.51C103.08 113.35 101.58 112.09 100.17 111.81C99.1899 111.58 83.0499 107.85 77.4799 106.55C80.4299 89.45 82.3599 73.56 82.3799 73.4C82.3799 73.32 82.3899 73.24 82.3899 73.16V69.65H89.2999C89.9299 70.84 91.0899 71.31 91.9499 71.31H96.4899C97.7799 71.31 98.7199 70.63 99.3099 69.74C100.63 69.74 101.97 69.64 103.28 69.46L135.77 65.08C136.72 64.95 137.69 64.89 138.65 64.89H141.6C142.82 64.89 143.41 64.24 143.66 63.85C143.95 63.39 144.05 62.82 143.94 62.29C143.84 61.66 143.16 57.1 143.16 54.05C143.16 49.31 139.45 47.68 137.49 47.47C137.44 47.47 137.39 47.47 137.34 47.47L101.57 46.48V40.87C101.57 40.57 101.54 40.3 101.48 40.03C102.41 39.95 103.31 39.84 104.18 39.69C105.32 39.49 106.15 38.51 106.14 37.35C106.14 36.19 105.3 35.21 104.16 35.02C102.5 34.74 100.72 34.6 98.8699 34.6C98.3999 34.6 97.9599 34.6 97.5499 34.62C97.4799 34.42 97.4099 34.23 97.3299 34.04C97.0499 33.37 96.1799 31.32 94.2899 31.32C93.1999 31.32 92.2699 32 91.5399 33.33C91.3199 33.74 91.1299 34.17 90.9799 34.62C90.6399 34.61 90.2699 34.6 89.8799 34.6C88.0399 34.6 86.2599 34.74 84.5899 35.02C83.4499 35.21 82.6099 36.19 82.6099 37.35C82.6099 38.51 83.4299 39.49 84.5699 39.69C85.4799 39.85 86.4199 39.96 87.3799 40.04C87.3199 40.26 87.2799 40.47 87.2699 40.65C87.2699 40.71 87.2699 40.77 87.2699 40.82V46.42H82.2799V27.76C82.2799 21.85 81.0599 15.14 78.9399 9.34C77.3799 5.08 74.8999 0 71.9699 0L72.0099 0Z" fill="black"/>
</g>
<defs>
<clipPath id="clip0_501_46">
<rect width="144" height="125.88" fill="white" transform="translate(0.0098877)"/>
</clipPath>
</defs>
</svg>
