<svg width="96" height="75" viewBox="0 0 96 75" fill="none" xmlns="http://www.w3.org/2000/svg">
<g clip-path="url(#clip0_175_5)">
<path d="M47.7 73.49C47.4 73.49 47.11 73.35 46.92 73.11C46.81 72.97 46.68 72.73 46.59 72.33H34.43C33.38 72.33 31.62 71.48 31.62 68.28V66.37C31.62 66.37 31.62 66.3 31.62 66.27C31.79 64.63 32.61 62.71 34.37 62.71H44.54L41.19 37.45H5.68001C5.45001 37.43 1.90001 37.08 1.90001 31.11V29.17C1.85001 29.12 1.81001 29.06 1.77001 29C1.30001 28.23 1.06001 27.13 1.03001 27C1.03001 26.96 1.02001 26.92 1.01001 26.88C0.910005 25.81 1.25001 25.44 1.36001 25.32C1.50001 25.17 1.71001 25.05 1.93001 24.99C2.17001 23.13 3.23001 20.11 5.72001 20.11H34.45L40.91 17.59L42.29 6.36997C42.29 6.28997 42.32 6.21997 42.34 6.13997C42.36 6.07997 42.63 5.37997 43.26 4.70997H41.98C41.78 4.70997 41.58 4.67997 41.39 4.61997C40.43 4.32997 40.29 3.73997 40.29 3.41997C40.29 3.01997 40.48 2.48997 41.39 2.20997C41.58 2.14997 41.79 2.11997 41.99 2.11997H45.96C46.3 1.59997 46.87 0.969971 47.7 0.969971C48.53 0.969971 49.1 1.59997 49.44 2.11997H53.41C53.61 2.11997 53.82 2.14997 54.01 2.20997C54.92 2.48997 55.11 3.01997 55.11 3.41997C55.11 3.74997 54.97 4.32997 54.01 4.61997C53.82 4.67997 53.62 4.70997 53.42 4.70997H52.14C52.77 5.36997 53.04 6.07997 53.06 6.13997C53.09 6.20997 53.11 6.28997 53.11 6.36997L54.49 17.59L61.03 20.12L89.67 20.1C92.16 20.1 93.22 23.12 93.46 24.98C93.67 25.04 93.89 25.16 94.03 25.31C94.14 25.43 94.48 25.8 94.38 26.87C94.38 26.91 94.38 26.95 94.36 26.99C94.33 27.11 94.09 28.22 93.62 28.99C93.58 29.05 93.54 29.11 93.49 29.16V31.1C93.49 37.07 89.94 37.43 89.79 37.44H54.19L50.84 62.71H61.01C62.77 62.71 63.59 64.63 63.76 66.27C63.76 66.3 63.76 66.34 63.76 66.37V68.28C63.76 71.48 62 72.33 60.96 72.33H48.79C48.71 72.73 48.58 72.97 48.46 73.11C48.27 73.35 47.98 73.48 47.68 73.48L47.7 73.49Z" fill="white"/>
<path d="M47.7 2C48.15 2 48.56 2.55 48.86 3.15H53.41C53.51 3.15 53.62 3.16 53.72 3.2C54.44 3.42 54 3.61 53.72 3.7C53.62 3.73 53.52 3.74 53.41 3.74H49.12C49.27 4.1 49.37 4.42 49.41 4.56H49.43C51.39 4.56 52.11 6.52 52.11 6.52L53.54 18.13C53.56 18.26 53.64 18.36 53.76 18.41L60.67 21.08C60.76 21.11 60.85 21.13 60.95 21.13H89.68C92 21.13 92.49 25.22 92.49 25.22V26.99C92.49 26.99 92.61 26.86 92.72 26.53C92.96 26.12 93.12 25.97 93.23 25.97C93.48 25.97 93.4 26.81 93.4 26.81C93.4 26.81 93.18 27.85 92.79 28.49C92.62 28.66 92.51 28.66 92.51 28.66V31.12C92.51 36.24 89.73 36.46 89.73 36.46H53.53C53.42 36.46 53.33 36.54 53.31 36.65L49.75 63.55C49.74 63.64 49.81 63.72 49.9 63.72H61.04C62.52 63.72 62.8 66.38 62.8 66.38V68.29C62.8 71.27 61.16 71.34 61 71.34H60.99H48.01C48.01 71.34 47.93 71.38 47.93 71.42C47.92 72.25 47.73 72.49 47.73 72.49C47.73 72.49 47.54 72.25 47.53 71.42C47.53 71.37 47.49 71.34 47.45 71.34H34.47C34.47 71.34 34.47 71.34 34.46 71.34C34.29 71.34 32.66 71.26 32.66 68.29V66.38C32.66 66.38 32.94 63.72 34.42 63.72H45.56C45.65 63.72 45.72 63.64 45.71 63.55L42.15 36.65C42.14 36.54 42.04 36.46 41.93 36.46H5.68001C5.68001 36.46 2.90001 36.23 2.90001 31.12V28.66C2.90001 28.66 2.79001 28.66 2.62001 28.49C2.23001 27.85 2.01001 26.81 2.01001 26.81C2.01001 26.81 1.94001 25.97 2.18001 25.97C2.28001 25.97 2.44001 26.12 2.69001 26.53C2.80001 26.86 2.92001 26.99 2.92001 26.99V25.22C2.92001 25.22 3.40001 21.13 5.73001 21.13H34.46C34.55 21.13 34.65 21.11 34.74 21.08L41.65 18.41C41.77 18.36 41.85 18.26 41.87 18.13L43.3 6.52C43.3 6.52 44.03 4.56 45.98 4.56H46C46.04 4.42 46.14 4.11 46.29 3.74H42C41.9 3.74 41.79 3.73 41.69 3.7C41.42 3.62 40.97 3.43 41.69 3.2C41.79 3.17 41.89 3.15 42 3.15H46.55C46.85 2.55 47.26 2 47.71 2M47.7 0C46.84 0 46.09 0.39 45.46 1.15H41.99C41.69 1.15 41.39 1.19 41.1 1.28C39.42 1.79 39.29 3.07 39.29 3.44C39.29 3.82 39.42 5.09 41.1 5.6C41.22 5.64 41.33 5.66 41.45 5.68C41.43 5.72 41.42 5.76 41.4 5.8C41.35 5.95 41.31 6.1 41.29 6.25L39.98 16.87L34.21 19.1H5.73001C2.95001 19.1 1.50001 21.76 1.04001 24.29C0.890005 24.39 0.760005 24.5 0.640005 24.63C0.140005 25.18 -0.0599947 25.94 0.0300053 26.96C0.0300053 27.04 0.0500053 27.12 0.0600053 27.19C0.110005 27.42 0.370005 28.58 0.900005 29.47V31.08C0.900005 37.96 5.33001 38.4 5.52001 38.42C5.57001 38.42 5.63 38.42 5.68001 38.42H40.32L43.4 61.68H34.37C32.1 61.68 30.85 63.92 30.63 66.13C30.63 66.2 30.62 66.27 30.62 66.34V68.25C30.62 72.24 33.01 73.3 34.42 73.3C34.42 73.3 34.44 73.3 34.45 73.3H45.88C45.95 73.45 46.04 73.58 46.14 73.7C46.52 74.17 47.09 74.45 47.7 74.45C48.31 74.45 48.88 74.17 49.26 73.7C49.36 73.58 49.44 73.45 49.52 73.3H60.95C60.95 73.3 60.97 73.3 60.98 73.3C62.39 73.3 64.78 72.24 64.78 68.25V66.34C64.78 66.27 64.78 66.2 64.77 66.13C64.54 63.91 63.29 61.68 61.03 61.68H52L55.08 38.42H89.72C89.77 38.42 89.83 38.42 89.88 38.42C90.07 38.4 94.5 37.97 94.5 31.08V29.47C95.03 28.58 95.3 27.41 95.34 27.19C95.36 27.11 95.37 27.04 95.37 26.96C95.46 25.94 95.26 25.18 94.76 24.63C94.64 24.5 94.5 24.38 94.36 24.29C93.89 21.76 92.45 19.1 89.67 19.1H61.18L55.41 16.87L54.1 6.25C54.08 6.1 54.04 5.94 53.99 5.8C53.97 5.76 53.96 5.72 53.94 5.68C54.06 5.66 54.18 5.63 54.29 5.6C55.97 5.09 56.1 3.82 56.1 3.44C56.1 3.06 55.97 1.79 54.29 1.28C54 1.19 53.7 1.15 53.4 1.15H49.93C49.3 0.38 48.55 0 47.69 0L47.7 0Z" fill="black"/>
</g>
<defs>
<clipPath id="clip0_175_5">
<rect width="95.41" height="74.49" fill="white"/>
</clipPath>
</defs>
</svg>
