<svg width="114" height="77" viewBox="0 0 114 77" fill="none" xmlns="http://www.w3.org/2000/svg">
<g clip-path="url(#clip0_180_11)">
<path d="M56.85 75.68C56.39 75.68 55.99 75.37 55.88 74.92C55.84 74.77 55.71 74.24 55.62 73.68C52.37 73.53 41.65 72.96 39.67 72.86C39.59 72.87 39.5 72.89 39.4 72.89C38.3 72.89 37.65 71.87 37.46 69.87C37.23 67.39 37.42 66.51 37.51 66.25C37.61 65.95 37.97 65.22 39.19 64.87C39.94 64.65 49.03 62.67 53.47 61.7C53.01 58.63 51.51 48.49 50.53 41.24C43.71 40.2 5.66001 33.97 3.86001 33.68C3.19001 33.64 2.10001 33.22 1.79001 31.83C1.53001 30.71 1.06001 25.77 1.01001 25.21C1.01001 25.15 1.01001 25.1 1.01001 25.04C1.13001 23.47 2.03001 21.78 3.74001 21.78C4.99001 21.78 29.54 21.57 38.79 21.49L42.03 21.46C42.3 21.46 42.56 21.41 42.82 21.31L49.94 18.48C50.03 16.67 50.34 11.83 51.17 5.95002C51.2 5.80002 51.23 5.66002 51.28 5.52002H48.62C48.53 5.52002 48.45 5.51002 48.37 5.49002C47.33 5.22002 47.09 4.65002 47.08 4.23002C47.06 3.62002 47.5 3.10002 48.3 2.82002C48.41 2.78002 48.52 2.76002 48.63 2.76002H54.93C55.29 2.12002 55.73 1.63002 56.01 1.37002C56.24 1.14002 56.55 1.02002 56.88 1.02002C57.21 1.02002 57.52 1.14002 57.75 1.37002C58.02 1.63002 58.47 2.12002 58.83 2.76002H65.13C65.24 2.76002 65.36 2.78002 65.46 2.82002C66.26 3.10002 66.7 3.61002 66.68 4.23002C66.66 4.66002 66.42 5.22002 65.39 5.49002C65.31 5.51002 65.22 5.52002 65.14 5.52002H62.48C62.52 5.64002 62.55 5.77002 62.57 5.90002C63.41 11.83 63.72 16.67 63.81 18.48L70.93 21.31C71.18 21.41 71.45 21.46 71.72 21.46L74.98 21.49C84.22 21.57 108.76 21.78 110.01 21.78C111.72 21.78 112.62 23.47 112.74 25.04C112.74 25.1 112.74 25.15 112.74 25.21C112.69 25.77 112.22 30.71 111.96 31.83C111.64 33.22 110.55 33.65 109.89 33.68L109.55 33.73C100.15 35.27 69.33 40.31 63.21 41.24C62.23 48.48 60.73 58.63 60.27 61.7C64.71 62.66 73.8 64.65 74.55 64.87C75.76 65.22 76.13 65.96 76.23 66.25C76.32 66.51 76.51 67.39 76.28 69.87C76.1 71.87 75.45 72.89 74.34 72.89C74.24 72.89 74.15 72.88 74.07 72.86C72.09 72.97 61.37 73.54 58.12 73.68C58.03 74.24 57.9 74.77 57.86 74.92C57.75 75.37 57.35 75.68 56.89 75.68H56.85Z" fill="white"/>
<path d="M56.85 2C56.91 2 56.98 2.02 57.03 2.07C57.31 2.34 57.87 2.95 58.17 3.74H65.1C65.1 3.74 66.33 4.17 65.1 4.5H58.35C58.35 4.59 58.37 4.68 58.37 4.78H60.51C60.56 4.78 61.32 4.8 61.56 6.07C62.47 12.46 62.75 17.66 62.8 18.88C62.8 19.05 62.91 19.19 63.07 19.25L70.53 22.22C70.9 22.37 71.28 22.44 71.68 22.45C76.46 22.49 108.53 22.76 109.98 22.76C111.54 22.76 111.71 25.1 111.71 25.1C111.71 25.1 111.2 30.5 110.95 31.59C110.71 32.66 109.8 32.67 109.75 32.67C109.75 32.67 69.15 39.32 62.8 40.27C62.49 40.32 62.25 40.56 62.21 40.87C61.16 48.61 59.49 59.87 59.16 62.08C59.13 62.3 59.27 62.5 59.48 62.55C61.75 63.04 73.42 65.58 74.23 65.82C75.13 66.08 75.24 66.57 75.24 66.57C75.24 66.57 75.47 67.23 75.24 69.77C75.07 71.63 74.56 71.88 74.3 71.88C74.21 71.88 74.14 71.85 74.14 71.85C74.14 71.85 57.97 72.72 57.18 72.72C57.18 73.36 56.85 74.68 56.85 74.68C56.85 74.68 56.52 73.35 56.52 72.72C55.73 72.72 39.56 71.85 39.56 71.85C39.56 71.85 39.5 71.88 39.4 71.88C39.14 71.88 38.63 71.63 38.46 69.77C38.23 67.23 38.46 66.57 38.46 66.57C38.46 66.57 38.58 66.08 39.47 65.82C40.28 65.59 51.94 63.05 54.22 62.55C54.44 62.5 54.58 62.3 54.54 62.08C54.21 59.87 52.54 48.61 51.49 40.87C51.45 40.56 51.21 40.32 50.9 40.27C44.56 39.32 3.95 32.67 3.95 32.67C3.95 32.67 3 32.66 2.75 31.59C2.5 30.5 1.99 25.1 1.99 25.1C1.99 25.1 2.16 22.76 3.72 22.76C5.16 22.76 37.24 22.49 42.02 22.45C42.41 22.45 42.8 22.37 43.17 22.22L50.63 19.25C50.78 19.19 50.89 19.04 50.9 18.88C50.96 17.66 51.24 12.46 52.14 6.07C52.38 4.8 53.14 4.78 53.19 4.78H55.33C55.33 4.69 55.33 4.59 55.35 4.5H48.6C47.37 4.18 48.6 3.74 48.6 3.74H55.53C55.83 2.95 56.38 2.34 56.67 2.07C56.72 2.02 56.78 2 56.85 2ZM56.85 0C56.26 0 55.71 0.22 55.29 0.63C55.05 0.86 54.69 1.24 54.35 1.74H48.61C48.38 1.74 48.16 1.78 47.95 1.85C46.73 2.28 46.02 3.17 46.07 4.24C46.09 4.74 46.33 5.96 48.11 6.43C48.28 6.47 48.45 6.5 48.62 6.5H50.09C49.4 11.51 49.1 15.69 48.98 17.76L42.45 20.36C42.31 20.41 42.17 20.44 42.03 20.44C35.88 20.49 5.15 20.75 3.75 20.75C1.39 20.76 0.15 22.93 0 24.95C0 25.06 0 25.17 0 25.29C0.09 26.21 0.53 30.88 0.8 32.04C1.19 33.75 2.55 34.58 3.74 34.67C6.02 35.04 41.24 40.81 49.64 42.11C50.54 48.66 51.79 57.21 52.34 60.92C47.08 62.06 39.63 63.7 38.91 63.91C37.27 64.39 36.73 65.44 36.56 65.95C36.32 66.66 36.29 68.05 36.46 69.97C36.77 73.39 38.43 73.9 39.39 73.9C39.5 73.9 39.61 73.9 39.71 73.88C42.3 74.02 51.01 74.48 54.78 74.66C54.83 74.89 54.87 75.07 54.9 75.18C55.12 76.07 55.92 76.69 56.84 76.69C58.31 76.69 58.71 75.53 58.9 74.65C62.67 74.47 71.38 74.01 73.97 73.87C74.07 73.88 74.18 73.89 74.29 73.89C75.25 73.89 76.91 73.38 77.22 69.96C77.4 68.03 77.36 66.64 77.12 65.94C76.95 65.43 76.41 64.38 74.77 63.91C74.05 63.7 66.6 62.07 61.34 60.92C61.89 57.22 63.15 48.66 64.04 42.11C72.43 40.81 107.65 35.04 109.94 34.67C111.12 34.58 112.49 33.75 112.88 32.04C113.14 30.88 113.59 26.21 113.68 25.29C113.69 25.18 113.69 25.07 113.68 24.95C113.53 22.93 112.3 20.76 109.95 20.76C108.55 20.76 77.82 20.5 71.67 20.45C71.52 20.45 71.38 20.42 71.25 20.37L64.72 17.77C64.6 15.69 64.3 11.51 63.61 6.51H65.08C65.25 6.51 65.42 6.49 65.59 6.44C67.37 5.97 67.61 4.75 67.63 4.25C67.67 3.18 66.97 2.29 65.75 1.86C65.54 1.79 65.31 1.75 65.09 1.75H59.35C59.01 1.25 58.65 0.87 58.41 0.64C57.99 0.23 57.43 0.01 56.85 0.01V0Z" fill="black"/>
</g>
<defs>
<clipPath id="clip0_180_11">
<rect width="113.7" height="76.68" fill="white"/>
</clipPath>
</defs>
</svg>
