<svg width="108" height="83" viewBox="0 0 108 83" fill="none" xmlns="http://www.w3.org/2000/svg">
<g clip-path="url(#clip0_550_27)">
<path d="M53.95 81.39C53.6 81.39 53.28 81.25 53.05 81C52.72 80.64 52.68 80.19 52.68 79.97L52.63 79.16C52.29 79.49 51.83 79.67 51.34 79.67C51.27 79.67 51.21 79.67 51.16 79.67C50.26 79.65 38.28 79.4 37.14 79.4C35.59 79.4 34.96 78.08 34.9 77.16C34.84 76.81 34.56 74.95 34.43 72.75C34.33 71.68 34.57 70.82 35.13 70.21C35.81 69.47 36.7 69.41 36.96 69.41L51.92 69.46L47.54 37.99C47.25 38.16 46.97 38.18 46.81 38.18C46.8 38.18 45.74 38.18 45.74 38.18C45.04 38.18 44.61 37.68 44.53 37.19C44.53 37.14 44.52 37.09 44.52 37.03V36.6C44.52 36.52 44.52 36.44 44.54 36.37L4.30999 36.12C3.65999 36.12 2.32999 35.68 1.94999 34.05C0.849992 27.58 1.19999 23.26 2.95999 21.17C3.93999 20.01 5.04999 19.89 5.48999 19.89C5.50999 19.89 46.89 20.16 46.89 20.16C47.19 17.26 48.13 8.3 48.24 7.32C48.29 6.9 48.41 6.55 48.59 6.27C45.88 6.23 44.22 5.49 44.15 5.45C43.21 5.13 43.23 4.39 43.26 4.18C43.39 3.23 44.48 3.17 44.94 3.14C46.54 2.98 48.07 2.89 49.44 2.89C50.56 2.89 51.42 2.95 52.05 3.01C52.72 1.68 53.44 1 54.19 1C54.94 1 55.67 1.67 56.33 3C56.92 2.94 57.72 2.89 58.76 2.89C60.18 2.89 61.77 2.98 63.48 3.17C63.9 3.2 64.98 3.26 65.11 4.22C65.14 4.44 65.15 5.17 64.13 5.52C64.13 5.52 62.48 6.25 59.78 6.28C59.95 6.57 60.08 6.92 60.12 7.33C60.22 8.31 61.11 17.27 61.39 20.18L102.68 20.15C102.68 20.15 102.76 20.15 102.78 20.15C103.21 20.15 104.33 20.28 105.3 21.44C107.06 23.54 107.39 27.86 106.26 34.27C105.86 35.96 104.53 36.39 103.87 36.39L63.64 36.42C63.65 36.49 63.66 36.57 63.66 36.65V37.08C63.66 37.13 63.66 37.19 63.65 37.24C63.57 37.73 63.13 38.22 62.44 38.22C62.44 38.22 61.39 38.22 61.38 38.22C61.22 38.22 60.93 38.19 60.64 38.02L56.08 69.46L71.01 69.5C71.29 69.5 72.18 69.56 72.85 70.3C73.41 70.91 73.64 71.78 73.53 72.88C73.39 75.05 73.09 76.91 73.04 77.26C72.97 78.18 72.33 79.49 70.79 79.49C69.65 79.49 57.67 79.67 56.77 79.68C56.73 79.68 56.67 79.68 56.6 79.68C56.1 79.68 55.64 79.49 55.3 79.16L55.24 79.96C55.24 80.2 55.2 80.66 54.86 81.02C54.63 81.27 54.31 81.41 53.96 81.41L53.95 81.39Z" fill="white"/>
<path d="M54.18 2C54.53 2 55.14 2.71 55.71 4.09C56.2 4.01 57.18 3.89 58.74 3.89C59.93 3.89 61.46 3.96 63.36 4.16C64.73 4.25 63.79 4.57 63.79 4.57C63.79 4.57 62.22 5.27 59.6 5.27C58.56 5.27 57.35 5.16 56.01 4.85C56.1 5.09 56.19 5.34 56.28 5.61C56.31 5.71 56.35 5.78 56.44 5.8C56.53 5.82 57.9 6.08 57.9 6.08C57.9 6.08 58.99 6.25 59.11 7.42C59.23 8.59 60.47 21.16 60.47 21.16L102.68 21.13C102.68 21.13 102.71 21.13 102.77 21.13C103.42 21.13 107.45 21.62 105.27 34.08C104.96 35.37 103.87 35.37 103.87 35.37L60.48 35.4L61.42 36.39C61.42 36.39 61.47 36.44 61.56 36.44H62.51C62.51 36.44 62.65 36.44 62.65 36.62V37.05C62.65 37.05 62.63 37.18 62.42 37.18H61.38C61.38 37.18 61.38 37.18 61.36 37.18C61.3 37.18 61.16 37.17 61.02 37.04C60.85 36.88 59.9 35.97 59.9 35.97L54.91 70.42L70.99 70.46C70.99 70.46 70.99 70.46 71.01 70.46C71.22 70.46 72.74 70.53 72.53 72.75C72.38 75.12 72.04 77.11 72.04 77.11C72.04 77.11 71.99 78.45 70.78 78.45C69.57 78.45 56.69 78.64 56.69 78.64C56.69 78.64 56.65 78.64 56.59 78.64C56.41 78.64 56.04 78.59 55.82 78.18C55.52 77.63 54.52 75.76 54.52 75.76L54.24 79.91C54.24 79.91 54.27 80.37 53.96 80.37C53.65 80.37 53.69 79.93 53.69 79.93L53.43 75.78C53.43 75.78 52.41 77.65 52.11 78.2C51.89 78.6 51.52 78.65 51.34 78.65C51.27 78.65 51.23 78.65 51.23 78.65C51.23 78.65 38.35 78.38 37.14 78.38C35.93 78.38 35.89 77.03 35.89 77.03C35.89 77.03 35.56 75.04 35.42 72.67C35.22 70.47 36.72 70.39 36.94 70.39C36.96 70.39 36.97 70.39 36.97 70.39L53.05 70.44L48.25 35.97C48.25 35.97 47.29 36.88 47.12 37.03C46.99 37.15 46.84 37.16 46.79 37.16C46.77 37.16 46.76 37.16 46.76 37.16C46.76 37.16 45.92 37.16 45.72 37.16C45.52 37.16 45.5 37.02 45.5 37.02C45.5 37.02 45.5 36.77 45.5 36.59C45.5 36.41 45.64 36.41 45.64 36.41C45.64 36.41 46.49 36.41 46.59 36.41C46.69 36.41 46.73 36.36 46.73 36.36L47.68 35.37L4.29 35.1C4.29 35.1 3.19 35.1 2.9 33.8C0.799995 21.37 4.79 20.86 5.47 20.86C5.52999 20.86 5.56 20.86 5.56 20.86L47.77 21.14C47.77 21.14 49.08 8.57 49.21 7.4C49.34 6.23 50.43 6.07 50.43 6.07C50.43 6.07 51.8 5.82 51.89 5.8C51.98 5.78 52.02 5.7 52.05 5.61C52.14 5.34 52.23 5.09 52.32 4.85C51.01 5.14 49.83 5.25 48.81 5.25C46.14 5.25 44.54 4.52 44.54 4.52C44.54 4.52 43.6 4.19 44.97 4.12C46.78 3.94 48.25 3.88 49.41 3.88C51.08 3.88 52.11 4.01 52.62 4.09C53.2 2.72 53.81 1.99 54.16 1.99M54.18 0C53.15 0 52.26 0.64 51.48 1.96C50.92 1.92 50.24 1.89 49.43 1.89C48.04 1.89 46.49 1.97 44.83 2.14C42.91 2.26 42.38 3.24 42.27 4.04C42.16 4.82 42.51 5.9 43.82 6.4C44.17 6.55 45.38 7.01 47.24 7.19C47.24 7.19 47.24 7.2 47.24 7.21C47.14 8.1 46.36 15.63 45.99 19.15L5.66 18.89C5.66 18.89 5.54999 18.89 5.47999 18.89C4.90999 18.89 3.44 19.05 2.19 20.53C0.199995 22.89 -0.210005 27.35 0.939995 34.16C0.939995 34.2 0.949995 34.24 0.959995 34.28C1.41 36.22 3 37.12 4.29 37.13L43.53 37.38C43.7 38.42 44.62 39.18 45.72 39.19H46.69L50.76 68.47L37 68.43C37 68.43 36.96 68.43 36.95 68.43C36.59 68.43 35.34 68.51 34.38 69.55C33.86 70.11 33.28 71.14 33.43 72.85C33.56 75 33.83 76.83 33.9 77.29C34.02 78.83 35.16 80.41 37.13 80.42C38.25 80.42 50 80.67 51.1 80.69C51.17 80.69 51.25 80.69 51.33 80.69C51.47 80.69 51.61 80.68 51.75 80.66C51.83 80.99 51.99 81.36 52.3 81.7C52.72 82.16 53.3 82.41 53.93 82.42C54.57 82.42 55.15 82.17 55.57 81.72C55.89 81.38 56.05 81 56.14 80.67C56.28 80.69 56.43 80.7 56.58 80.7C56.66 80.7 56.73 80.7 56.79 80.7C57.9 80.68 69.64 80.51 70.77 80.51C72.73 80.51 73.89 78.93 74.02 77.4C74.09 76.94 74.38 75.12 74.52 72.97C74.67 71.26 74.09 70.22 73.58 69.65C72.63 68.6 71.37 68.52 71.01 68.52C71 68.52 70.99 68.52 70.97 68.52L57.22 68.48L61.46 39.23H62.43C63.53 39.23 64.45 38.48 64.63 37.43L103.87 37.41C105.16 37.41 106.75 36.53 107.22 34.58C107.22 34.54 107.24 34.5 107.24 34.46C108.43 27.64 108.05 23.18 106.06 20.81C104.81 19.32 103.34 19.16 102.77 19.16C102.71 19.16 102.66 19.16 102.61 19.16L62.28 19.19C61.93 15.67 61.19 8.13 61.1 7.24C61.1 7.24 61.1 7.23 61.1 7.22C62.96 7.05 64.17 6.59 64.53 6.45C65.85 5.96 66.2 4.89 66.1 4.1C65.99 3.3 65.46 2.32 63.55 2.19C61.81 2.01 60.2 1.91 58.76 1.91C58.04 1.91 57.42 1.93 56.9 1.97C56.1 0.64 55.21 0 54.18 0Z" fill="black"/>
</g>
<defs>
<clipPath id="clip0_550_27">
<rect width="107.61" height="82.39" fill="white" transform="translate(0.299988)"/>
</clipPath>
</defs>
</svg>
