<svg width="117" height="84" viewBox="0 0 117 84" fill="none" xmlns="http://www.w3.org/2000/svg">
<g clip-path="url(#clip0_679_7)">
<path d="M58.49 82.58C58.07 82.58 57.81 82.35 57.69 82.24C57.66 82.22 57.63 82.19 57.58 82.15C57.54 82.12 57.51 82.09 57.47 82.06C57.28 81.87 57.16 81.63 57.09 81.38C51.8 81.17 40.6 80.73 40.15 80.73C39.34 80.73 38.77 80.18 38.58 79.64C38.56 79.58 38.54 79.52 38.53 79.46C38.51 79.34 38.05 76.38 37.92 75.18C37.76 73.6 38.94 72.79 39.6 72.58C39.79 72.53 51.41 69.72 54.84 68.87C52.9 59.97 51.68 49.58 51.35 46.57L3.85999 38.67C3.78999 38.66 3.72999 38.64 3.65999 38.62C3.51999 38.57 3.03999 38.34 2.63999 37.68C1.48999 35.83 1.34999 32.58 1.33999 31.39C1.17999 30.91 0.98999 30.38 0.98999 29.66C0.98999 29.15 1.15999 28.75 1.41999 28.48V28.36C1.41999 26.68 2.81999 26.03 3.76999 26C4.94999 25.99 31.15 25.65 34.2 25.62V16.56C34.2 16.56 34.2 16.46 34.21 16.41C34.24 16.21 34.54 14.43 35.82 13.73L36.07 13.59C36.36 13.44 36.73 13.24 36.92 13.1C36.93 12.65 36.97 12.21 37.03 11.77C36.63 11.8 36.23 11.81 35.83 11.81C34.41 11.81 33.05 11.64 31.79 11.31C31.2 11.15 30.81 10.65 30.83 10.07C30.85 9.49 31.28 9.01 31.88 8.9C32.95 8.7 34.14 8.59 35.4 8.59C36.37 8.59 37.25 8.65 37.95 8.72C38.52 7.59 39.2 7.01 39.96 7.01C40.72 7.01 41.4 7.58 41.97 8.71C42.65 8.64 43.5 8.59 44.43 8.59C45.69 8.59 46.88 8.69 47.95 8.9C48.55 9.01 48.98 9.49 49 10.07C49.02 10.64 48.63 11.15 48.04 11.31C46.78 11.64 45.42 11.81 44 11.81C43.64 11.81 43.27 11.8 42.9 11.78C42.96 12.22 43 12.66 43.01 13.11C43.2 13.25 43.57 13.45 43.86 13.6L44.11 13.73C45.39 14.43 45.69 16.21 45.72 16.41C45.72 16.46 45.73 16.51 45.73 16.56V24.05C46.71 23.69 49.25 22.75 50.47 22.32C51.48 9.12 54.83 3.53 55.31 2.78C55.52 2.34 56.26 1 57.53 1C58.8 1 59.51 2.29 59.73 2.76C60.35 3.59 63.99 8.99 65 22.04C66.28 22.48 69 23.45 70 23.81V16.31C70 16.31 70 16.21 70 16.16C70.03 15.96 70.33 14.18 71.61 13.48L71.86 13.35C72.15 13.19 72.52 12.99 72.71 12.86C72.72 12.41 72.76 11.97 72.82 11.53C72.45 11.55 72.08 11.56 71.72 11.56C70.3 11.56 68.95 11.39 67.69 11.06C67.1 10.9 66.71 10.4 66.73 9.82C66.75 9.24 67.18 8.76 67.78 8.65C68.85 8.45 70.04 8.34 71.3 8.34C72.23 8.34 73.08 8.4 73.76 8.46C74.33 7.33 75.01 6.76 75.77 6.76C76.53 6.76 77.21 7.33 77.78 8.47C78.48 8.4 79.37 8.34 80.34 8.34C81.6 8.34 82.79 8.44 83.86 8.65C84.46 8.76 84.89 9.24 84.91 9.82C84.93 10.39 84.54 10.9 83.95 11.06C82.69 11.39 81.33 11.56 79.91 11.56C79.51 11.56 79.11 11.55 78.71 11.52C78.77 11.96 78.81 12.41 78.82 12.85C79.01 12.99 79.39 13.19 79.67 13.34L79.92 13.47C81.2 14.17 81.5 15.95 81.53 16.15C81.53 16.2 81.54 16.25 81.54 16.3V25.35C84.77 25.31 111.98 24.93 112.27 24.93C113.26 24.96 114.66 25.61 114.66 27.29V27.42C114.92 27.69 115.09 28.08 115.09 28.59C115.09 29.31 114.9 29.85 114.74 30.32C114.73 31.52 114.59 34.77 113.44 36.62C113.04 37.27 112.56 37.5 112.43 37.55C112.37 37.57 112.31 37.59 112.25 37.6L65.11 46.13C64.77 49.32 63.7 60.06 61.77 69.02C65.26 69.83 77.12 72.52 77.24 72.54C77.98 72.77 79.16 73.58 79 75.16C78.88 76.34 78.65 78.87 78.65 78.87C78.65 78.95 78.62 79.04 78.6 79.12C78.41 79.67 77.84 80.22 77.03 80.22C76.55 80.23 66.81 80.88 59.86 81.35C59.79 81.6 59.67 81.85 59.46 82.06C59.43 82.09 59.39 82.12 59.35 82.15C59.3 82.19 59.27 82.22 59.24 82.24C59.12 82.35 58.86 82.58 58.44 82.58H58.49Z" fill="white"/>
<path d="M57.56 2C58.34 2 58.9 3.28 58.9 3.28C58.9 3.28 62.99 8.33 64.04 22.23C64.06 22.56 64.28 22.84 64.6 22.95C66.1 23.46 70.08 24.88 70.08 24.88C70.08 24.88 70.39 25.05 70.65 25.05C70.84 25.05 71.01 24.96 71.03 24.67V16.31C71.03 16.31 71.25 14.84 72.12 14.37C72.99 13.9 73.74 13.54 73.74 13.12C73.74 12.26 73.85 11.4 74.07 10.57C74.08 10.52 74.1 10.47 74.11 10.41C73.47 10.5 72.66 10.57 71.75 10.57C70.61 10.57 69.3 10.45 67.97 10.1C67.67 10.02 67.69 9.7 68 9.64C69.13 9.43 70.28 9.35 71.33 9.35C72.54 9.35 73.63 9.45 74.4 9.55C74.77 8.62 75.3 7.78 75.8 7.78C76.3 7.78 76.83 8.63 77.2 9.56C77.98 9.46 79.1 9.35 80.37 9.35C81.42 9.35 82.57 9.42 83.7 9.64C84.01 9.7 84.02 10.02 83.73 10.1C82.39 10.45 81.09 10.57 79.95 10.57C78.99 10.57 78.14 10.49 77.49 10.39C77.51 10.45 77.52 10.5 77.54 10.56C77.76 11.39 77.87 12.25 77.87 13.11C77.87 13.53 78.61 13.88 79.49 14.36C80.37 14.84 80.58 16.3 80.58 16.3V25.95C80.65 26.11 80.84 26.35 81.3 26.35C81.99 26.35 112.32 25.93 112.32 25.93C112.32 25.93 113.7 25.97 113.7 27.29V27.99C113.75 27.99 114.13 28.01 114.13 28.59C114.13 29.21 113.94 29.67 113.78 30.15C113.78 30.48 113.79 34.22 112.63 36.09C112.37 36.51 112.11 36.61 112.11 36.61L64.97 45.14C64.49 45.23 64.13 45.62 64.09 46.1C63.81 49.16 62.72 60.27 60.73 69.29C60.67 69.55 60.83 69.8 61.09 69.86C63.77 70.5 77.07 73.5 77.07 73.5C77.07 73.5 78.18 73.85 78.06 75.04C77.94 76.23 77.71 78.77 77.71 78.77C77.71 78.77 77.56 79.2 77.08 79.2C76.6 79.2 58.97 80.39 58.97 80.39C58.97 80.39 59.07 81.06 58.8 81.33C58.61 81.47 58.55 81.56 58.49 81.56C58.43 81.56 58.37 81.47 58.18 81.33C57.96 81.11 58.01 80.39 58.01 80.39C58.01 80.39 40.63 79.7 40.16 79.7C39.69 79.7 39.53 79.27 39.53 79.27C39.53 79.27 39.05 76.23 38.93 75.04C38.81 73.85 39.92 73.5 39.92 73.5C39.92 73.5 52.95 70.34 55.59 69.68C55.84 69.62 56 69.36 55.94 69.11C53.95 60.12 52.69 49.41 52.36 46.42C52.31 45.94 51.94 45.55 51.46 45.48L4.02998 37.67C4.02998 37.67 3.75998 37.57 3.50998 37.15C2.34998 35.28 2.35998 31.54 2.35998 31.21C2.19998 30.73 2.00998 30.26 2.00998 29.65C2.00998 29.07 2.38998 29.05 2.43998 29.05V28.35C2.43998 27.03 3.81998 26.99 3.81998 26.99C3.81998 26.99 33.8 26.6 34.5 26.6C34.96 26.6 35.15 26.36 35.23 26.2V16.55C35.23 16.55 35.45 15.08 36.32 14.61C37.2 14.13 37.94 13.78 37.94 13.36C37.94 12.5 38.05 11.64 38.27 10.81C38.28 10.75 38.3 10.7 38.32 10.64C37.67 10.73 36.82 10.82 35.86 10.82C34.72 10.82 33.41 10.7 32.08 10.35C31.78 10.27 31.8 9.95 32.11 9.89C33.24 9.68 34.39 9.6 35.44 9.6C36.71 9.6 37.83 9.71 38.61 9.81C38.98 8.87 39.51 8.03 40.01 8.03C40.51 8.03 41.03 8.87 41.41 9.8C42.18 9.7 43.27 9.6 44.48 9.6C45.53 9.6 46.68 9.67 47.82 9.89C48.13 9.95 48.14 10.27 47.85 10.35C46.51 10.7 45.21 10.82 44.07 10.82C43.16 10.82 42.35 10.75 41.71 10.66C41.73 10.71 41.74 10.76 41.75 10.82C41.97 11.65 42.08 12.51 42.08 13.37C42.08 13.79 42.82 14.14 43.7 14.62C44.58 15.1 44.8 16.56 44.8 16.56V24.92C44.82 25.21 44.99 25.3 45.18 25.3C45.45 25.3 45.75 25.13 45.75 25.13C45.75 25.13 49.52 23.73 50.97 23.22C51.28 23.11 51.5 22.83 51.52 22.5C52.56 8.59 56.25 3.26 56.25 3.26C56.25 3.26 56.81 1.99 57.59 1.99M57.56 0C56.09 0 55.01 1.16 54.46 2.3C53.81 3.34 50.6 9.01 49.55 21.59C48.73 21.89 47.65 22.28 46.76 22.61V16.55C46.76 16.45 46.76 16.35 46.74 16.26C46.68 15.85 46.29 13.76 44.62 12.85L44.53 12.8C45.85 12.76 47.13 12.59 48.32 12.27C49.36 12 50.06 11.08 50.02 10.03C49.98 8.98 49.22 8.11 48.15 7.91C47.02 7.7 45.77 7.59 44.44 7.59C43.75 7.59 43.1 7.62 42.53 7.66C41.83 6.57 40.97 6.01 39.97 6.01C38.97 6.01 38.11 6.56 37.41 7.66C36.81 7.61 36.13 7.58 35.4 7.58C34.08 7.58 32.83 7.69 31.69 7.9C30.63 8.1 29.86 8.97 29.82 10.02C29.78 11.06 30.48 11.98 31.52 12.26C32.74 12.58 34.05 12.76 35.41 12.79L35.33 12.83C33.66 13.74 33.27 15.83 33.21 16.24C33.2 16.34 33.19 16.43 33.19 16.53V24.6C27.5 24.67 4.84998 24.96 3.75998 24.97C2.17998 25.02 0.53998 26.12 0.41998 28.09C0.14998 28.49 -0.0200195 29.01 -0.0200195 29.63C-0.0200195 30.43 0.16998 31.06 0.32998 31.54C0.349981 33.11 0.55998 36.24 1.77998 38.2C2.31998 39.09 3.00998 39.43 3.28998 39.54C3.41998 39.59 3.54998 39.62 3.67998 39.65L50.42 47.35C50.83 50.92 51.95 59.98 53.65 68.11C49.43 69.15 39.54 71.54 39.42 71.57C39.37 71.58 39.33 71.59 39.28 71.61C38 72.02 36.71 73.34 36.91 75.26C37.04 76.49 37.51 79.46 37.53 79.59C37.55 79.71 37.58 79.83 37.62 79.95C37.93 80.83 38.83 81.71 40.14 81.71C40.62 81.71 49.64 82.07 56.42 82.34C56.51 82.49 56.62 82.63 56.75 82.76C56.82 82.83 56.89 82.89 56.96 82.95L57 82.99C57.17 83.14 57.67 83.58 58.46 83.58C59.25 83.58 59.76 83.13 59.92 82.99L59.96 82.95C60.04 82.89 60.11 82.83 60.17 82.76C60.31 82.62 60.43 82.46 60.53 82.3C67.35 81.84 76.48 81.23 77.07 81.22C78.33 81.22 79.23 80.34 79.55 79.46C79.61 79.3 79.64 79.13 79.66 78.96C79.66 78.96 79.88 76.44 80.01 75.26C80.21 73.33 78.92 72.02 77.64 71.61C77.58 71.59 77.53 71.58 77.47 71.56C77.35 71.53 67.25 69.25 62.96 68.26C64.65 60.05 65.64 50.66 65.98 46.98L112.43 38.57C112.55 38.55 112.67 38.51 112.79 38.47C113.06 38.37 113.75 38.03 114.3 37.12C115.51 35.17 115.72 32.04 115.74 30.48C115.9 30 116.09 29.37 116.09 28.58C116.09 27.96 115.92 27.45 115.65 27.04C115.53 25.07 113.89 23.97 112.34 23.92C112.32 23.92 112.3 23.92 112.28 23.92C112.28 23.92 112.26 23.92 112.25 23.92C103.23 24.05 87.17 24.27 82.54 24.33V16.29C82.54 16.19 82.54 16.09 82.52 16C82.46 15.59 82.07 13.5 80.4 12.59L80.32 12.55C81.68 12.52 82.98 12.34 84.21 12.02C85.25 11.75 85.95 10.83 85.91 9.78C85.87 8.73 85.11 7.86 84.04 7.66C82.91 7.45 81.66 7.34 80.33 7.34C79.6 7.34 78.92 7.37 78.32 7.42C77.62 6.32 76.76 5.77 75.76 5.77C74.76 5.77 73.9 6.32 73.2 7.42C72.63 7.38 71.98 7.35 71.29 7.35C69.97 7.35 68.72 7.46 67.58 7.67C66.52 7.87 65.75 8.74 65.71 9.79C65.67 10.83 66.37 11.75 67.41 12.03C68.6 12.35 69.88 12.52 71.2 12.56L71.11 12.61C69.44 13.52 69.05 15.61 68.99 16.02C68.98 16.12 68.97 16.21 68.97 16.31V22.39C68 22.05 66.81 21.62 65.91 21.31C64.85 8.93 61.38 3.41 60.56 2.26C60 1.13 58.93 0.01 57.49 0.01L57.56 0Z" fill="black"/>
</g>
<defs>
<clipPath id="clip0_679_7">
<rect width="116.14" height="83.58" fill="white"/>
</clipPath>
</defs>
</svg>
