<svg width="163" height="115" viewBox="0 0 163 115" fill="none" xmlns="http://www.w3.org/2000/svg">
<g clip-path="url(#clip0_338_17)">
<path d="M80.74 113.03C80.21 113.03 79.77 112.68 79.61 112.21H73.89C73.36 112.21 72.92 111.86 72.76 111.39H56.59C55.6 111.39 54.8 110.59 54.8 109.6V103.62C54.8 102.77 55.47 102.08 56.31 102.04V98.73C56.31 97.91 56.98 97.24 57.8 97.24H78.14L74.4 67.99C74.12 65.8 73.98 63.57 73.98 61.36V58.27H27.84C27.65 58.67 27.24 58.95 26.76 58.95H20.01C19.56 58.95 19.16 58.7 18.96 58.32H2.61996C2.00996 58.32 1.67996 58.05 1.50996 57.82C1.33996 57.59 1.25996 57.31 1.28996 57.03V45.32C0.949962 44.58 0.899962 43.96 1.14996 43.45C1.18996 43.36 1.23996 43.28 1.28996 43.21V41.54C1.28996 41.46 1.28996 41.39 1.31996 41.32C2.30996 36.97 5.34996 36.75 5.94996 36.75C5.96996 36.75 6.06996 36.75 6.08996 36.75H64.49C64.41 36.44 64.37 36.09 64.37 35.71V33.06C64.37 31.08 65.51 30.05 66.63 30.05C67.63 30.05 68.64 30.87 68.85 32.45C68.94 32.56 69.02 32.7 69.06 32.85H72.26C72.53 32.85 72.75 32.9 72.93 32.98H74.1C74.14 29.75 74.47 26.5 75.08 23.32L76.78 14.38L77.01 12.47L75.94 12.93C75.7 13.03 75.49 13.08 75.28 13.08C74.94 13.08 74.63 12.95 74.4 12.71C74.09 12.37 74.08 11.98 74.09 11.83V8.98C74.09 8.11 74.74 7.64 75.36 7.64C75.41 7.64 75.49 7.64 75.54 7.65L77.54 7.87C77.58 7.65 77.65 7.44 77.74 7.26C68.15 7.19 68.15 6.92 68.15 5.84C68.15 4.76 68.15 4.47 78.78 4.42C79.53 2.43 80.58 1.34 80.63 1.3C80.82 1.11 81.07 1 81.34 1C81.61 1 81.86 1.11 82.05 1.3C82.1 1.35 83.15 2.43 83.9 4.42C94.53 4.47 94.53 4.73 94.53 5.85C94.53 6.93 94.53 7.2 84.94 7.27C85.03 7.45 85.1 7.66 85.14 7.88L87.19 7.66C87.19 7.66 87.29 7.66 87.33 7.66C87.95 7.66 88.6 8.13 88.6 9V11.92C88.6 12 88.6 12.39 88.29 12.73C88.07 12.97 87.76 13.1 87.41 13.1C87.2 13.1 86.98 13.05 86.75 12.95L85.68 12.49L85.92 14.46L87.61 23.34C88.22 26.51 88.55 29.76 88.59 33H89.76C89.94 32.92 90.16 32.87 90.43 32.87H93.63C93.67 32.72 93.75 32.58 93.84 32.47C94.05 30.89 95.06 30.07 96.06 30.07C97.18 30.07 98.32 31.1 98.32 33.08V35.73C98.32 36.11 98.28 36.46 98.2 36.77H156.69C157.37 36.77 160.39 37.01 161.38 41.34C161.4 41.41 161.41 41.49 161.41 41.56V43.23C161.46 43.3 161.51 43.38 161.55 43.47C161.79 43.98 161.75 44.59 161.41 45.34V57.05C161.44 57.33 161.36 57.61 161.19 57.84C161.02 58.07 160.69 58.34 160.08 58.34H143.74C143.54 58.71 143.14 58.97 142.69 58.97H135.94C135.46 58.97 135.05 58.69 134.86 58.29H88.71V61.38C88.71 63.59 88.57 65.82 88.29 68.01L84.55 97.26H104.89C105.71 97.26 106.38 97.93 106.38 98.75V102.06C107.22 102.1 107.89 102.79 107.89 103.64V109.62C107.89 110.61 107.09 111.41 106.1 111.41H89.93C89.78 111.89 89.33 112.23 88.8 112.23H83.08C82.93 112.71 82.48 113.05 81.95 113.05H80.73L80.74 113.03ZM68.76 36.43C68.74 36.54 68.72 36.65 68.69 36.76H69.31L68.76 36.43ZM94.01 36.76C93.98 36.65 93.96 36.55 93.94 36.43L93.39 36.76H94.01ZM74.05 36.6V35.75H72.85C72.85 35.75 72.75 35.79 72.7 35.8L74.05 36.6ZM88.65 36.59L90 35.79C89.95 35.78 89.9 35.76 89.85 35.75H88.64V36.6L88.65 36.59Z" fill="white"/>
<path d="M81.35 2C81.35 2 82.52 3.19 83.2 5.42C96.92 5.48 96.99 6.22 83.42 6.28C83.48 6.56 83.53 6.84 83.57 7.14C83.68 7.21 84.14 7.6 84.19 8.14C84.24 8.68 84.19 8.98 84.19 8.98L87.32 8.64C87.32 8.64 87.33 8.64 87.35 8.64C87.42 8.64 87.62 8.67 87.62 8.98V11.9C87.62 11.9 87.63 12.08 87.43 12.08C87.37 12.08 87.28 12.06 87.16 12.01C86.68 11.8 84.49 10.87 84.49 10.87L84.95 14.57L86.65 23.51C87.29 26.89 87.62 30.32 87.62 33.76V33.98H90.11C90.11 33.98 90.12 33.85 90.46 33.85H94.61V33.15C94.61 33.15 94.6 33.06 94.77 33.06H94.83C94.83 31.72 95.46 31.05 96.09 31.05C96.72 31.05 97.35 31.72 97.35 33.06V35.71C97.35 37 96.74 37.65 96.13 37.65C95.52 37.65 94.91 37 94.91 35.71C94.91 35.71 94.86 35.72 94.8 35.72C94.72 35.72 94.62 35.69 94.62 35.55V34.86L89.79 37.75H156.71C156.71 37.75 156.73 37.75 156.78 37.75C157.22 37.75 159.6 37.92 160.43 41.54V43.66C160.43 43.66 161.09 43.8 160.43 45.08V57.09C160.43 57.09 160.5 57.31 160.1 57.31H142.91V57.74C142.91 57.85 142.82 57.94 142.71 57.94H135.96C135.85 57.94 135.76 57.85 135.76 57.74V57.25H88.19C87.93 57.25 87.72 57.46 87.72 57.72V61.34C87.72 63.51 87.58 65.69 87.31 67.84L83.43 98.22H104.91C105.18 98.22 105.4 98.44 105.4 98.71V103.01H106.32C106.64 103.01 106.9 103.27 106.9 103.59V109.57C106.9 110.01 106.55 110.36 106.11 110.36H88.99V111C88.99 111.1 88.91 111.18 88.81 111.18H82.14V111.82C82.14 111.92 82.06 112 81.96 112H80.74C80.64 112 80.56 111.92 80.56 111.82V111.18H73.89C73.79 111.18 73.71 111.1 73.71 111V110.36H56.6C56.16 110.36 55.81 110.01 55.81 109.57V103.59C55.81 103.27 56.07 103.01 56.39 103.01H57.31V98.71C57.31 98.44 57.53 98.22 57.8 98.22H79.28L75.4 67.84C75.12 65.68 74.99 63.51 74.99 61.34V57.72C74.99 57.46 74.78 57.25 74.52 57.25H26.95V57.74C26.95 57.85 26.86 57.94 26.75 57.94H20C19.89 57.94 19.8 57.85 19.8 57.74V57.31H2.61998C2.22998 57.31 2.28998 57.09 2.28998 57.09V45.08C1.62998 43.8 2.28998 43.66 2.28998 43.66V41.54C3.11998 37.92 5.50998 37.75 5.93998 37.75C5.97998 37.75 6.00998 37.75 6.00998 37.75H72.93L68.1 34.86V35.55C68.1 35.69 68 35.72 67.92 35.72C67.86 35.72 67.81 35.71 67.81 35.71C67.81 37 67.2 37.65 66.59 37.65C65.98 37.65 65.37 37 65.37 35.71V33.06C65.37 31.72 66 31.05 66.63 31.05C67.26 31.05 67.89 31.72 67.89 33.06H67.95C68.12 33.06 68.11 33.15 68.11 33.15V33.85H72.26C72.59 33.85 72.61 33.98 72.61 33.98H75.1V33.76C75.1 30.32 75.42 26.89 76.07 23.51L77.77 14.57L78.23 10.87C78.23 10.87 76.04 11.81 75.56 12.01C75.44 12.06 75.36 12.08 75.29 12.08C75.09 12.08 75.1 11.9 75.1 11.9V8.98C75.1 8.67 75.29 8.64 75.37 8.64C75.39 8.64 75.4 8.64 75.4 8.64L78.53 8.98C78.53 8.98 78.48 8.68 78.53 8.14C78.58 7.59 79.03 7.2 79.15 7.14C79.19 6.84 79.24 6.55 79.3 6.28C65.72 6.21 65.8 5.49 79.52 5.42C80.19 3.19 81.37 2 81.37 2M87.65 37.76H88.65L93.56 34.84H90.45C90.4 34.84 90.14 34.84 90.14 34.75C90.02 34.75 87.66 34.75 87.66 34.75V37.77M72.26 34.84H69.15L74.06 37.76H75.06V34.74C75.06 34.74 72.69 34.74 72.58 34.74C72.58 34.83 72.33 34.83 72.27 34.83M81.35 0C80.82 0 80.3 0.21 79.93 0.6C79.8 0.73 78.88 1.69 78.11 3.43C75.48 3.45 73.26 3.5 71.65 3.58C70.76 3.62 70.07 3.67 69.58 3.72C67.57 3.94 67.15 5 67.15 5.85C67.15 6.7 67.57 7.76 69.56 7.98C70.04 8.03 70.72 8.08 71.59 8.12C72.08 8.14 72.62 8.16 73.22 8.18C73.13 8.43 73.09 8.7 73.09 8.99V11.88C73.08 12.44 73.29 12.99 73.67 13.4C74.08 13.84 74.65 14.09 75.28 14.09C75.46 14.09 75.64 14.07 75.82 14.03L75.79 14.27L74.1 23.15C73.55 26.06 73.22 29.03 73.12 31.99H73.1C72.85 31.91 72.57 31.86 72.26 31.86H69.76C69.34 30.02 67.98 29.06 66.63 29.06C65.01 29.06 63.37 30.44 63.37 33.07V35.72C63.37 35.72 63.37 35.75 63.37 35.76H6.05998C6.05998 35.76 5.98998 35.76 5.93998 35.76C3.91998 35.76 1.23998 37.16 0.33998 41.11C0.30998 41.26 0.28998 41.41 0.28998 41.56V42.94C0.28998 42.94 0.25998 43 0.23998 43.03C-0.11002 43.76 -0.0900203 44.6 0.28998 45.53V57C0.25998 57.5 0.39998 58.01 0.70998 58.42C0.95998 58.76 1.53998 59.33 2.61998 59.33H18.47C18.87 59.72 19.41 59.96 20.01 59.96H26.76C27.39 59.96 27.95 59.7 28.35 59.27H72.99V61.36C72.99 63.61 73.13 65.88 73.42 68.12L77.01 96.24H57.81C56.44 96.24 55.32 97.36 55.32 98.73V101.27C54.43 101.68 53.81 102.58 53.81 103.62V109.6C53.81 111.14 55.06 112.39 56.6 112.39H72.19C72.59 112.89 73.21 113.21 73.9 113.21H79.05C79.45 113.71 80.07 114.03 80.76 114.03H81.98C82.67 114.03 83.29 113.71 83.69 113.21H88.84C89.53 113.21 90.15 112.89 90.55 112.39H106.14C107.68 112.39 108.93 111.14 108.93 109.6V103.62C108.93 102.58 108.31 101.68 107.42 101.27V98.73C107.42 97.36 106.3 96.24 104.93 96.24H85.73L89.32 68.12C89.61 65.89 89.75 63.61 89.75 61.36V59.27H134.39C134.79 59.69 135.36 59.96 135.98 59.96H142.73C143.33 59.96 143.87 59.72 144.27 59.33H160.12C161.2 59.33 161.78 58.76 162.03 58.42C162.34 58.01 162.48 57.5 162.45 57V45.53C162.83 44.6 162.84 43.76 162.5 43.03C162.49 43 162.47 42.97 162.45 42.94V41.56C162.45 41.41 162.43 41.26 162.4 41.11C161.5 37.16 158.82 35.76 156.8 35.76C156.75 35.76 156.72 35.76 156.68 35.76H99.37C99.37 35.76 99.37 35.73 99.37 35.72V33.07C99.37 30.44 97.73 29.06 96.11 29.06C94.76 29.06 93.4 30.02 92.98 31.86H90.48C90.17 31.86 89.89 31.91 89.64 31.99H89.62C89.53 29.02 89.2 26.06 88.64 23.15L86.95 14.27L86.92 14.03C87.1 14.07 87.28 14.09 87.46 14.09C88.08 14.09 88.65 13.85 89.07 13.4C89.45 12.99 89.66 12.44 89.65 11.88V8.99C89.65 8.71 89.6 8.44 89.52 8.19C90.12 8.17 90.66 8.15 91.15 8.13C93.63 8.01 95.59 7.92 95.59 5.85C95.59 5 95.17 3.94 93.16 3.71C92.67 3.66 91.98 3.61 91.09 3.57C89.48 3.5 87.26 3.45 84.63 3.43C83.86 1.69 82.94 0.73 82.82 0.6C82.44 0.22 81.93 0 81.4 0L81.35 0Z" fill="black"/>
</g>
<defs>
<clipPath id="clip0_338_17">
<rect width="162.7" height="114.03" fill="white"/>
</clipPath>
</defs>
</svg>
