<svg width="57" height="58" viewBox="0 0 57 58" fill="none" xmlns="http://www.w3.org/2000/svg">
<g clip-path="url(#clip0_702_28)">
<path d="M28.53 56.2702C28 56.2702 27.47 55.8602 27.47 55.0802L27.45 53.8902C27.19 54.2002 26.81 54.3802 26.4 54.3802C26.31 54.3802 26.11 54.3502 26.02 54.3302L19.72 52.9702C19.66 52.9602 19.61 52.9402 19.56 52.9202C18.03 52.3002 17.13 51.0102 17.16 49.4702C17.18 48.0702 17.96 46.7802 19.01 46.4002C19.35 46.2602 24.75 43.6802 25.12 43.4802C25.33 43.3602 25.59 43.2902 25.82 43.2502L24.34 34.0602L23.82 29.6802C23.82 29.6802 3.24998 29.7702 3.04998 29.7702C2.69998 29.7702 2.37998 29.6402 2.14998 29.4002C1.83998 29.0702 1.81998 28.6802 1.82998 28.5302V28.0802C1.35998 27.9302 1.00998 27.4802 1.00998 26.9602V21.7402C1.00998 18.1602 4.29998 16.2002 5.98998 16.2002C6.04998 16.2002 6.74998 16.1202 10.07 15.7202C10.15 15.0602 10.39 14.4702 11.16 14.4702C11.83 14.4702 12.1 14.9102 12.21 15.4602C14.41 15.1902 16.85 14.9002 18.94 14.6402C19.06 12.8502 19.58 12.3202 19.77 12.1302C20.09 11.8102 20.49 11.6402 20.92 11.6402C21.69 11.6402 22.6 12.1102 22.86 14.1602L23.08 14.1302V7.23022C23.08 6.95021 23.14 6.69021 23.25 6.46021C22.35 6.39021 21.42 6.28021 20.57 6.18021C19.89 6.10021 19.26 6.02022 18.74 5.98022C18.18 5.94022 17.74 5.50021 17.69 4.93021C17.65 4.37021 18.01 3.86021 18.56 3.73021C20.32 3.31021 22.82 3.13021 24.42 3.10021C25.17 3.13021 25.8 3.18021 26.31 3.25021C26.68 2.30021 27.41 0.970215 28.52 0.970215C29.63 0.970215 30.36 2.30021 30.73 3.25021C31.24 3.18021 31.85 3.13021 32.57 3.10021C34.23 3.13021 36.72 3.31021 38.48 3.73021C39.03 3.86021 39.4 4.37021 39.35 4.93021C39.31 5.49021 38.86 5.93021 38.3 5.98022C37.78 6.02022 37.15 6.10021 36.47 6.18021C35.61 6.28021 34.69 6.39021 33.79 6.46021C33.9 6.69021 33.96 6.95021 33.96 7.23022V14.1302L34.18 14.1602C34.44 12.1102 35.35 11.6402 36.12 11.6402C36.56 11.6402 36.96 11.8102 37.27 12.1302C37.46 12.3202 37.98 12.8502 38.1 14.6402C45.78 15.5802 50.73 16.1702 51.09 16.1902C52.73 16.1902 56.02 18.1502 56.02 21.7302V26.9502C56.02 27.4702 55.68 27.9202 55.21 28.0702V28.5702C55.21 28.6702 55.21 29.0602 54.89 29.3902C54.66 29.6302 54.34 29.7602 53.99 29.7602C53.79 29.7602 33.22 29.6702 33.22 29.6702L32.7 34.0102L31.21 43.2402C31.45 43.2802 31.7 43.3502 31.92 43.4702C32.29 43.6702 37.69 46.2402 38.06 46.4002C39.07 46.7702 39.85 48.0602 39.87 49.4502C39.9 50.9902 39 52.2802 37.47 52.9002C37.42 52.9202 37.36 52.9402 37.31 52.9502L30.94 54.3302C30.87 54.3402 30.7 54.3602 30.63 54.3602C30.25 54.3602 29.91 54.2102 29.65 53.9502L29.61 55.0902C29.61 55.8402 29.08 56.2502 28.55 56.2502L28.53 56.2702Z" fill="white"/>
<path d="M28.5 2C29.03 2 29.74 3.25 30.04 4.44C30.39 4.33 31.12 4.19 32.59 4.13C34.4 4.16 36.7 4.36 38.23 4.73C38.39 4.77 38.37 5 38.21 5.01C36.67 5.13 34.16 5.55 32.26 5.55C31.84 5.55 31.45 5.53 31.11 5.48C30.75 5.48 30.46 5.47 30.24 5.45C30.24 5.54 30.25 5.62 30.26 5.7C30.26 5.76 30.31 5.81 30.37 5.82C30.91 5.9 32.95 6.2 32.95 7.25V14.91C32.95 14.98 33 15.04 33.07 15.05C33.35 15.08 34.08 15.17 35.1 15.3C35.11 14.31 35.26 12.66 36.11 12.66C37.03 12.66 37.13 14.61 37.12 15.54C42.39 16.18 50.8 17.2 51.03 17.2C52.24 17.2 55.01 18.81 55.01 21.74V26.96C55.01 27.06 54.93 27.14 54.83 27.14H54.19V28.58C54.19 28.58 54.2 28.77 53.97 28.77C53.75 28.77 34.91 28.68 32.55 28.67C32.41 28.67 32.3 28.77 32.28 28.91L31.69 33.89L30.05 44.06C30.05 44.12 30.09 44.17 30.15 44.17H30.6C30.6 44.17 31.15 44.19 31.42 44.34C31.69 44.49 37.4 47.22 37.67 47.32C38.9 47.77 39.8 50.87 37.08 51.97L30.71 53.35C30.71 53.35 30.67 53.36 30.61 53.36C30.51 53.36 30.35 53.32 30.25 53.11C30.13 52.84 29.4 51.04 29.16 50.45C29.16 50.43 29.13 50.42 29.11 50.42C29.09 50.42 29.06 50.44 29.06 50.47C29.01 50.92 28.88 51.99 28.72 52.49C28.68 52.6 28.66 52.72 28.66 52.84L28.6 55.06C28.6 55.19 28.57 55.25 28.54 55.25C28.51 55.25 28.48 55.19 28.48 55.06L28.44 52.75C28.44 52.63 28.42 52.51 28.38 52.4C28.22 51.9 28 50.91 27.95 50.47C27.95 50.44 27.92 50.42 27.9 50.42C27.88 50.42 27.86 50.43 27.85 50.45C27.61 51.04 26.87 52.84 26.76 53.11C26.67 53.32 26.51 53.36 26.4 53.36C26.34 53.36 26.3 53.35 26.3 53.35L19.93 51.97C17.22 50.87 18.11 47.77 19.34 47.32C19.61 47.22 25.32 44.49 25.59 44.34C25.86 44.19 26.41 44.17 26.41 44.17H26.86C26.92 44.17 26.97 44.12 26.96 44.06L25.32 33.89L24.73 28.91C24.71 28.77 24.6 28.67 24.46 28.67C22.1 28.68 3.25999 28.77 3.03999 28.77C2.80999 28.77 2.81999 28.58 2.81999 28.58V27.14H2.17999C2.07999 27.14 1.99999 27.06 1.99999 26.96V21.74C1.99999 18.81 4.76999 17.2 5.97999 17.2C6.09999 17.2 8.23999 16.95 11.02 16.61C11.02 15.85 11.08 15.47 11.14 15.47C11.2 15.47 11.26 15.84 11.26 16.58C14.01 16.25 17.32 15.85 19.88 15.53C19.88 14.59 19.97 12.65 20.89 12.65C21.74 12.65 21.89 14.29 21.9 15.29C22.92 15.17 23.65 15.08 23.93 15.04C24 15.04 24.05 14.97 24.05 14.9V7.24C24.05 6.19 26.09 5.89 26.63 5.81C26.69 5.81 26.74 5.75 26.74 5.69C26.74 5.61 26.74 5.53 26.76 5.44C26.54 5.46 26.25 5.47 25.89 5.47C25.55 5.52 25.16 5.54 24.74 5.54C22.84 5.54 20.33 5.13 18.79 5C18.63 4.99 18.61 4.76 18.77 4.72C20.3 4.35 22.6 4.15 24.41 4.12C25.88 4.18 26.6 4.32 26.96 4.43C27.27 3.25 27.97 1.99 28.5 1.99M28.5 0C27.12 0 26.22 1.14 25.68 2.2C25.32 2.17 24.92 2.14 24.49 2.13C24.46 2.13 24.44 2.13 24.41 2.13C24.4 2.13 24.39 2.13 24.38 2.13C22.65 2.16 20.15 2.35 18.31 2.79C17.28 3.04 16.59 3.98 16.68 5.04C16.76 6.1 17.59 6.92 18.65 7.01C19.14 7.05 19.77 7.12 20.44 7.2C20.97 7.26 21.52 7.33 22.07 7.38V10.91C21.66 10.71 21.25 10.66 20.91 10.66C20.21 10.66 19.55 10.94 19.05 11.44C18.68 11.81 18.23 12.43 18.02 13.75C16.37 13.95 14.55 14.17 12.83 14.38C12.53 13.86 12.02 13.47 11.16 13.47C10.06 13.47 9.52999 14.09 9.27999 14.81C6.73999 15.11 6.06999 15.19 5.90999 15.2C3.52999 15.27 0.019989 17.86 0.019989 21.74V26.96C0.019989 27.65 0.339989 28.26 0.839989 28.66C0.859989 29.19 1.06999 29.7 1.43999 30.09C1.85999 30.53 2.43999 30.77 3.06999 30.77C3.23999 30.77 13.61 30.72 22.62 30.68H22.95L23.36 34.13C23.36 34.16 23.36 34.18 23.37 34.21L24.72 42.56C24.72 42.56 24.67 42.59 24.65 42.6C24.25 42.81 19.16 45.24 18.62 45.47C17.21 46.02 16.21 47.64 16.18 49.44C16.15 51.41 17.28 53.06 19.21 53.84C19.32 53.88 19.42 53.92 19.53 53.94L25.87 55.32C26.01 55.35 26.2 55.38 26.42 55.38C26.45 55.38 26.48 55.38 26.51 55.38C26.63 56.6 27.62 57.28 28.56 57.28C29.5 57.28 30.47 56.62 30.61 55.39C30.62 55.39 30.63 55.39 30.64 55.39C30.86 55.39 31.05 55.36 31.19 55.33L37.53 53.95C37.64 53.93 37.75 53.89 37.85 53.85C39.78 53.07 40.91 51.43 40.88 49.45C40.85 47.65 39.85 46.03 38.44 45.48C37.9 45.24 32.82 42.82 32.39 42.59C32.37 42.59 32.36 42.57 32.34 42.57L33.69 34.22C33.69 34.22 33.69 34.17 33.7 34.14L34.11 30.69H34.45C43.46 30.73 53.83 30.78 54 30.78C54.63 30.78 55.21 30.54 55.63 30.09C56 29.7 56.21 29.19 56.23 28.66C56.73 28.26 57.05 27.65 57.05 26.96V21.74C57.05 17.86 53.54 15.27 51.16 15.2C50.57 15.14 46.11 14.61 39.04 13.75C38.83 12.42 38.38 11.8 38.01 11.44C37.51 10.93 36.85 10.66 36.15 10.66C35.81 10.66 35.4 10.72 34.99 10.91V7.38C35.55 7.32 36.1 7.26 36.62 7.2C37.29 7.12 37.92 7.05 38.41 7.01C39.47 6.93 40.29 6.1 40.38 5.04C40.46 3.98 39.78 3.04 38.75 2.79C36.91 2.35 34.41 2.16 32.68 2.13C32.67 2.13 32.66 2.13 32.65 2.13C32.62 2.13 32.6 2.13 32.57 2.13C32.14 2.15 31.74 2.17 31.38 2.2C30.84 1.13 29.93 0 28.56 0L28.5 0Z" fill="black"/>
</g>
<defs>
<clipPath id="clip0_702_28">
<rect width="57" height="57.27" fill="white"/>
</clipPath>
</defs>
</svg>
