<svg width="42" height="149" viewBox="0 0 42 149" fill="none" xmlns="http://www.w3.org/2000/svg">
<g clip-path="url(#clip0_495_27)">
<path d="M19.8491 147.28C19.5091 147.28 19.1791 147.13 18.9491 146.87C18.5591 146.42 18.4891 145.74 18.6791 144.43C19.1191 141.42 20.4191 138.2 20.7691 137.38V136.89H19.9491C19.6491 136.89 19.3791 136.76 19.1991 136.55C19.0991 136.72 18.9491 136.85 18.7791 136.93C18.7291 143.67 18.0891 143.67 17.2191 143.67C16.3491 143.67 15.6591 143.67 15.6591 136.03V133.13C15.6591 124.85 16.5391 124.85 17.3991 124.85C17.7591 124.85 18.1191 124.85 18.4191 125.46C17.9991 114.68 17.1091 91.12 16.9591 86.01L16.8091 86.59L5.91907 123.25C5.89907 123.31 5.87907 123.37 5.84907 123.42C5.75907 123.59 4.93907 125.12 3.45907 125.12C3.17907 125.12 2.89907 125.06 2.62907 124.95C1.26907 124.39 0.989069 122.92 1.30907 121.79L13.8591 77.42C13.6591 76.32 13.4691 75.1 13.2891 73.8H10.6791V75.06C10.6791 75.16 10.7091 76.02 10.1291 76.64C9.78907 77 9.32907 77.19 8.79907 77.19C8.26907 77.19 7.80907 77 7.46907 76.65C6.88907 76.05 6.88907 75.23 6.88907 75.07V42.95C6.88907 42.95 6.88907 42.87 6.88907 42.83C7.00907 41.84 7.68907 40.78 8.89907 40.78C9.37907 40.78 9.79907 40.96 10.1291 41.29C10.7391 41.92 10.7491 42.89 10.7391 43.08V52.86H11.5291C11.4291 44.41 12.7691 38.87 15.6291 35.94C17.2091 34.32 19.2391 33.5 21.6691 33.5C23.4591 33.5 24.9791 34.21 26.2091 35.61L35.7291 3.58997C35.7491 3.52997 35.7691 3.46997 35.7991 3.41997C35.8891 3.24997 36.7091 1.71997 38.1891 1.71997C38.4691 1.71997 38.7491 1.77997 39.0191 1.88997C40.3791 2.44997 40.6591 3.91997 40.3391 5.04997L29.3991 43.76C29.8191 46.29 30.0391 49.34 30.0691 52.85H31.2191V43.04C31.2191 42.88 31.2191 41.91 31.8291 41.28C32.1491 40.95 32.5791 40.77 33.0591 40.77C34.2691 40.77 34.9491 41.83 35.0691 42.82C35.0691 42.86 35.0691 42.9 35.0691 42.94V75.09C35.0691 75.22 35.0691 76.05 34.4891 76.64C34.1491 77 33.6791 77.18 33.1591 77.18C32.6391 77.18 32.1691 76.99 31.8291 76.63C31.2491 76.01 31.2691 75.16 31.2791 74.99V73.79H28.6291C27.4491 82.27 26.1991 85.01 24.9791 85.8C24.8491 91.35 23.8191 124.83 23.6191 131.14L34.5091 131.64C34.5091 131.64 34.5791 131.64 34.5991 131.64C35.5091 131.64 36.4191 132.28 36.4191 133.7V136.6C36.4191 136.88 36.2991 137.15 36.0891 137.34C35.9191 137.5 34.2891 138.87 30.2291 138.87C29.1191 138.87 25.6791 139.17 24.2791 139.3L21.7191 145.73C21.6991 145.79 21.6691 145.85 21.6291 145.9C20.7491 147.29 20.0591 147.29 19.8391 147.29L19.8491 147.28ZM31.1691 69.34V57.35H29.9991C29.8791 61.18 29.5991 64.72 29.4091 67.13C29.4091 67.13 29.2591 68.62 29.1791 69.34H31.1791H31.1691ZM12.7491 69.34C12.6691 68.62 12.5191 67.16 12.5191 67.16C12.4491 66.27 12.3591 65.31 12.2691 64.26C12.0791 62.17 11.8691 59.82 11.7191 57.34H10.7991V69.33H12.7491V69.34Z" fill="white"/>
<path d="M38.189 2.71997C38.329 2.71997 38.479 2.74997 38.629 2.80997C39.789 3.28997 39.369 4.76997 39.369 4.76997L28.359 43.7C28.889 46.79 29.069 50.34 29.059 53.84H32.199V43.03C32.199 43.03 32.169 41.76 33.039 41.76C33.909 41.76 34.059 42.93 34.059 42.93V75.08C34.059 75.08 34.099 76.18 33.149 76.18C32.199 76.18 32.269 75.05 32.269 75.05V72.79H27.749C27.049 78.11 25.789 85.08 23.989 85.08C23.989 86.99 22.589 132.07 22.589 132.07H22.119L34.519 132.64C34.519 132.64 34.549 132.64 34.609 132.64C34.839 132.64 35.429 132.73 35.429 133.71V136.61C35.429 136.61 34.029 137.88 30.249 137.88C28.779 137.88 23.589 138.37 23.589 138.37L20.799 145.36C20.799 145.36 20.209 146.29 19.849 146.29C19.609 146.29 19.479 145.89 19.669 144.58C20.159 141.26 21.769 137.59 21.769 137.59V135.89H19.949V134.69H18.339V136.03H17.779C17.779 140.46 17.4991 142.67 17.219 142.67C16.939 142.67 16.659 140.46 16.659 136.03V133.13C16.659 128.28 17.029 125.85 17.399 125.85C17.7691 125.85 18.139 128.28 18.139 133.13V133.55L19.469 133.34L19.619 130.52C19.349 123.41 17.939 86.8 17.939 85.08C17.429 85.08 16.959 84.52 16.539 83.59L15.849 86.33L4.96905 122.95C4.96905 122.95 4.37905 124.1 3.46905 124.1C3.32905 124.1 3.17905 124.07 3.02905 124.01C1.86905 123.53 2.28905 122.05 2.28905 122.05L14.899 77.45C14.619 75.89 14.379 74.27 14.179 72.78H9.69905V75.04C9.69905 75.04 9.76905 76.17 8.81905 76.17C7.86905 76.17 7.90905 75.07 7.90905 75.07V42.92C7.90905 42.92 8.04905 41.75 8.92905 41.75C9.80905 41.75 9.76905 43.02 9.76905 43.02V53.83H12.579C12.339 44.31 13.679 34.47 21.699 34.47C23.909 34.47 25.489 35.77 26.599 37.89L36.689 3.86997C36.689 3.86997 37.279 2.71997 38.189 2.71997ZM28.059 70.34H32.179V56.35H29.029C28.929 60.43 28.629 64.27 28.409 67.05C28.359 67.52 28.239 68.74 28.059 70.34ZM9.78905 70.34H13.859C13.679 68.75 13.559 67.52 13.509 67.05C13.289 64.27 12.869 60.42 12.659 56.35H9.78905V70.34ZM38.189 0.719971C36.619 0.719971 35.439 1.92997 34.909 2.95997C34.849 3.06997 34.809 3.17997 34.769 3.29997L25.719 33.78C24.319 32.76 22.859 32.48 21.679 32.48C18.969 32.48 16.699 33.4 14.919 35.22C13.399 36.78 12.279 38.94 11.559 41.78C11.429 41.37 11.209 40.94 10.849 40.57C10.339 40.05 9.64905 39.76 8.90905 39.76C7.08905 39.76 6.07905 41.28 5.90905 42.69C5.90905 42.77 5.89905 42.85 5.89905 42.93V75.06C5.89905 75.43 5.95905 76.5 6.75905 77.33C7.28905 77.88 8.01905 78.18 8.80905 78.18C9.59905 78.18 10.339 77.87 10.869 77.31C11.649 76.48 11.699 75.42 11.689 75.01V74.79H12.429C12.559 75.7 12.699 76.55 12.839 77.36L0.349048 121.5C-0.100952 123.09 0.409048 125.09 2.24905 125.85C2.63905 126.01 3.04905 126.09 3.45905 126.09C5.02905 126.09 6.20905 124.88 6.73905 123.85C6.79905 123.74 6.83905 123.63 6.87905 123.51L16.169 92.24C16.469 100.64 16.999 114.51 17.359 123.84C15.319 123.87 15.049 126.19 14.909 127.43C14.749 128.83 14.669 130.79 14.669 133.11V136.01C14.669 138.12 14.729 139.91 14.849 141.18C14.969 142.39 15.179 144.65 17.229 144.65C17.379 144.65 17.519 144.64 17.659 144.61C17.509 145.81 17.569 146.77 18.209 147.5C18.629 147.98 19.229 148.26 19.869 148.26C20.849 148.26 21.709 147.65 22.509 146.4C22.579 146.29 22.629 146.18 22.679 146.07L25.019 140.21C26.779 140.05 29.389 139.84 30.269 139.84C34.609 139.84 36.469 138.35 36.799 138.05C37.219 137.67 37.459 137.13 37.459 136.57V133.67C37.459 131.66 36.039 130.61 34.639 130.6C34.599 130.6 34.559 130.6 34.529 130.6L24.689 130.15C24.939 122.17 25.839 92.85 26.009 86.29C27.379 85.01 28.4991 81.85 29.539 74.75H30.319V74.97C30.309 75.38 30.359 76.45 31.139 77.27C31.6691 77.83 32.399 78.14 33.199 78.14C33.999 78.14 34.719 77.84 35.249 77.29C36.049 76.46 36.109 75.4 36.109 75.02V42.89C36.109 42.81 36.109 42.73 36.099 42.65C35.9291 41.24 34.919 39.72 33.099 39.72C32.489 39.72 31.919 39.91 31.449 40.27L41.299 5.31997C41.749 3.72997 41.239 1.72997 39.399 0.969971C39.009 0.799971 38.599 0.719971 38.189 0.719971Z" fill="black"/>
</g>
<defs>
<clipPath id="clip0_495_27">
<rect width="41.25" height="147.56" fill="white" transform="translate(0.199219 0.719971)"/>
</clipPath>
</defs>
</svg>
