<svg width="114" height="157" viewBox="0 0 114 157" fill="none" xmlns="http://www.w3.org/2000/svg">
<g clip-path="url(#clip0_417_17)">
<path d="M56.0899 155.67C55.5399 155.67 55.0999 155.23 55.0899 154.68L55.0099 147.03C54.4399 146.01 54.1999 144.99 54.0999 144.39C53.7899 144.76 53.3799 144.91 53.0199 144.91C52.9899 144.91 52.9399 144.91 52.8999 144.91L46.2799 144.98C45.8199 144.98 45.4199 144.67 45.3099 144.23C45.0299 143.14 44.4399 140.75 44.2699 139.65L42.7399 139.67C42.0199 139.67 41.5199 139.46 41.2199 139.04C41.0099 138.74 40.9599 138.41 40.9899 138.13L40.9299 132.13L6.5099 129.37V130.08C6.5199 130.63 6.3799 131.05 6.0799 131.35C5.7199 131.72 5.2699 131.76 5.0199 131.77C4.4999 132.71 3.8099 132.92 3.2999 132.92C2.9199 132.92 2.5299 132.8 2.1499 132.56C1.8599 132.38 1.6799 132.06 1.6799 131.72L1.3999 103.95C1.3999 103.57 1.6099 103.22 1.9499 103.05C2.0899 102.98 2.2499 102.94 2.3999 102.94C2.6099 102.94 2.8199 103.01 2.9999 103.14L4.5299 104.29C4.6499 104.38 4.7399 104.49 4.8099 104.61C5.3599 104.8 5.8599 105.37 5.8699 106.4L5.9099 109.94C11.8999 103.98 32.0199 83.9401 36.3499 79.6001C36.7499 79.2001 37.0199 78.6901 37.1399 78.1301C37.7399 75.1201 38.4299 72.1001 38.8399 70.3201C35.3499 71.2401 31.1599 72.3401 30.8299 72.4401C30.6599 72.4901 30.4999 72.5201 30.3399 72.5201C29.9399 72.5201 29.5799 72.3401 29.3599 72.0401C29.1199 71.7101 29.1099 71.3501 29.1499 71.1201L29.1099 66.7701C29.0999 65.3301 30.3499 64.3801 30.6899 64.1501L41.7799 54.8001C41.7799 54.2401 42.0399 53.7001 42.5199 53.3601L43.0799 52.9601V52.5601C43.0799 52.4801 43.0799 52.4001 43.0999 52.3201C43.2099 51.8501 45.8499 40.7301 48.0099 35.7501C49.1399 33.1401 49.6899 30.6401 49.9499 28.8201L45.9199 26.4301C45.3299 26.2001 44.4299 25.5101 44.4299 24.2001V21.4501C44.4299 19.3801 44.9499 18.3301 45.9799 18.3301C47.0099 18.3301 47.5299 19.3801 47.5299 21.4501V23.5101C47.5299 23.5101 47.5299 23.6001 47.5199 23.6501C47.5399 23.6501 47.6499 23.8101 47.9499 23.9701C48.3199 24.1801 49.0299 24.5301 49.9699 24.9801C50.1499 24.7201 50.3399 24.4401 50.4899 24.2401C52.2099 7.54008 55.4099 2.04008 55.5499 1.82008C55.7299 1.52008 56.0499 1.34008 56.3999 1.33008H56.4099C56.7499 1.33008 57.0699 1.51008 57.2599 1.80008C57.3999 2.02008 60.6599 7.37008 62.5499 24.0501C62.7799 24.3801 63.4499 25.3301 63.4499 25.3301C63.6899 25.6701 63.7399 26.1101 63.5899 26.5001C63.4699 26.8001 63.2399 27.0401 62.9399 27.1701C63.0899 28.6701 63.5799 32.0301 65.1399 35.5301C67.3499 40.4901 70.0999 51.5801 70.2199 52.0501C70.2399 52.1301 70.2499 52.2101 70.2499 52.2901V52.6901L70.8099 53.0801C71.2899 53.4101 71.5599 53.9501 71.5699 54.5101L82.7499 63.7401C83.0899 63.9601 84.3499 64.9001 84.3499 66.3401V70.6901C84.3899 70.9201 84.3899 71.2801 84.1399 71.6201C83.9199 71.9301 83.5599 72.1101 83.1499 72.1101C82.9999 72.1101 82.8399 72.0901 82.6799 72.0401C82.3299 71.9401 77.6799 70.7601 74.6499 70.0001C75.0799 71.7801 75.7999 74.7901 76.4299 77.8001C76.5499 78.3601 76.8199 78.8601 77.2299 79.2601C81.5999 83.5601 101.93 103.39 107.98 109.29V105.75C107.98 104.72 108.46 104.14 109.02 103.95C109.09 103.83 109.18 103.71 109.3 103.62L110.82 102.45C111 102.31 111.21 102.24 111.43 102.24C111.58 102.24 111.73 102.27 111.87 102.34C112.21 102.51 112.43 102.86 112.43 103.24V131.01C112.43 131.35 112.26 131.67 111.97 131.85C111.58 132.1 111.19 132.22 110.81 132.22C110.3 132.22 109.62 132.01 109.09 131.09C108.14 131.07 107.57 130.45 107.57 129.42V128.71L73.1799 131.82V137.82C73.2199 138.09 73.1699 138.43 72.9599 138.73C72.6599 139.15 72.1499 139.37 71.4499 139.37H69.9199C69.7599 140.47 69.1899 142.86 68.9199 143.96C68.8099 144.41 68.4099 144.72 67.9499 144.72H61.3299C61.3299 144.72 61.2299 144.72 61.1999 144.72C60.8399 144.72 60.4299 144.58 60.1199 144.21C60.0199 144.83 59.7899 145.84 59.2399 146.86V154.65C59.2399 155.2 58.7899 155.65 58.2399 155.65H56.1399L56.0899 155.67Z" fill="white"/>
<path d="M56.3699 2.33008C56.3699 2.33008 59.6599 7.56008 61.5399 24.4201C61.7399 24.7001 62.2899 25.4701 62.5899 25.9001C62.6899 26.0401 62.6099 26.2301 62.4399 26.2701L61.8299 26.3901C61.8299 26.3901 61.9799 31.0001 64.1799 35.9401C66.3799 40.8801 69.1999 52.3001 69.1999 52.3001V53.2201L70.1899 53.9101C70.4399 54.0801 70.5599 54.3901 70.4999 54.6901L70.4499 54.9301L82.1099 64.5601C82.1099 64.5601 83.2999 65.2901 83.2999 66.3501V70.8001C83.2999 70.8001 83.3999 71.1101 83.1099 71.1101C83.0599 71.1101 82.9899 71.1101 82.9099 71.0801C82.3799 70.9301 73.2399 68.6301 73.2399 68.6301C73.2399 68.6301 74.4199 73.3001 75.4099 78.0101C75.5699 78.7601 75.9399 79.4401 76.4899 79.9801C81.6799 85.0801 108.94 111.67 108.94 111.67V105.76C108.94 105.18 109.17 104.89 109.4 104.89C109.63 104.89 109.86 105.18 109.86 105.76V104.43L111.38 103.26V131.03C111.16 131.17 110.95 131.25 110.75 131.25C110.37 131.25 110.04 130.98 109.77 130.35C109.77 130.35 109.72 130.12 109.32 130.12C109.24 130.12 109.17 130.12 109.09 130.12C108.78 130.12 108.52 130.06 108.52 129.45V127.64L72.1299 130.93V137.93C72.1299 137.93 72.2899 138.39 71.3999 138.39H69.7899C69.7899 138.39 69.7499 138.39 69.6999 138.39C69.4799 138.39 68.9299 138.44 68.9299 138.95C68.9299 139.59 67.9199 143.75 67.9199 143.75H61.2499C61.2499 143.75 61.2199 143.75 61.1699 143.75C61.0399 143.75 60.7899 143.68 60.6799 143.19C60.5299 142.51 60.0599 139.87 60.0599 139.87L59.9799 140.74C59.9799 140.74 59.8299 141.17 59.1699 141.17V143.67C59.1699 143.67 59.0899 145.19 58.2199 146.64V154.7H56.1199C56.1199 154.7 56.0499 147.6 56.0399 146.79C55.1599 145.35 55.0599 143.83 55.0599 143.83L55.0299 141.33C55.0299 141.33 55.0199 141.33 55.0099 141.33C54.3599 141.33 54.2099 140.9 54.2099 140.9L54.1199 140.03C54.1199 140.03 53.6699 142.68 53.5299 143.36C53.4199 143.86 53.1599 143.93 53.0399 143.93C52.9999 143.93 52.9699 143.93 52.9699 143.93L46.2999 144C46.2999 144 45.2499 139.85 45.2399 139.21C45.2399 138.71 44.7099 138.66 44.4699 138.66C44.3999 138.66 44.3599 138.66 44.3599 138.66C44.3599 138.66 43.6399 138.66 42.7499 138.68C42.7499 138.68 42.7299 138.68 42.7199 138.68C41.8499 138.68 42.0099 138.23 42.0099 138.23L41.9399 131.23L5.50988 128.31C5.50988 128.31 5.51988 129.36 5.52988 130.12C5.52988 130.75 5.25988 130.8 4.93988 130.8C4.88988 130.8 4.82988 130.8 4.76988 130.8C4.75988 130.8 4.74988 130.8 4.73988 130.8C4.33988 130.8 4.28988 131.04 4.28988 131.04C4.01988 131.68 3.68988 131.95 3.30988 131.95C3.11988 131.95 2.90988 131.88 2.68988 131.74L2.40988 103.97L3.93988 105.12V106.45C3.93988 105.87 4.17988 105.58 4.40988 105.58C4.63988 105.58 4.86988 105.87 4.87988 106.44L4.93988 112.35C4.93988 112.35 31.9299 85.4801 37.0699 80.3301C37.6099 79.7901 37.9799 79.1001 38.1299 78.3501C39.0699 73.6301 40.1999 68.9501 40.1999 68.9501C40.1999 68.9501 31.0799 71.3401 30.5499 71.5001C30.4699 71.5201 30.3999 71.5401 30.3499 71.5401C30.0599 71.5401 30.1599 71.2301 30.1599 71.2301C30.1599 71.2301 30.1299 67.8401 30.1099 66.7801C30.0899 65.7201 31.2899 64.9801 31.2899 64.9801L42.8599 55.2301L42.7999 54.9901C42.7299 54.6901 42.8499 54.3801 43.0999 54.2101L44.0899 53.5101V52.5901C44.0899 52.5901 46.7899 41.1401 48.9299 36.1801C50.2699 33.0801 50.8099 30.1201 51.0299 28.3301L46.3499 25.5501C46.3499 25.5501 45.4299 25.2801 45.4299 24.2301V21.4801C45.4299 20.0701 45.7099 19.3601 45.9799 19.3601C46.2499 19.3601 46.5299 20.0701 46.5299 21.4801V23.5401C46.5299 23.5401 46.4199 24.3001 47.4699 24.8801C48.1099 25.2301 49.4499 25.8701 50.3799 26.3201C50.3599 26.2601 50.3799 26.1901 50.4099 26.1301C50.7099 25.7001 51.2499 24.9201 51.4499 24.6401C53.1599 7.77008 56.3999 2.37008 56.3999 2.37008M51.1399 26.6501C51.1399 26.6001 51.1399 26.5701 51.1399 26.5701L50.8399 26.5101C50.9599 26.5601 51.0599 26.6101 51.1399 26.6501ZM56.3699 0.330078C56.3699 0.330078 56.3599 0.330078 56.3499 0.330078C55.6499 0.330078 55.0099 0.710078 54.6599 1.30008C54.5199 1.53008 51.2699 7.11008 49.5199 23.6601C49.0899 23.4501 48.7499 23.2701 48.5099 23.1501V21.4501C48.5099 17.8701 46.9099 17.3301 45.9599 17.3301C45.0099 17.3301 43.4099 17.8601 43.4099 21.4501V24.2001C43.4099 25.7901 44.4199 26.8901 45.4599 27.3301L48.8399 29.3301C48.5499 31.0001 48.0299 33.1401 47.0699 35.3501C44.8799 40.4101 42.2199 51.6201 42.1099 52.0901C42.0799 52.2101 42.0699 52.3201 42.0599 52.4401L41.9199 52.5401C41.3199 52.9701 40.9299 53.6001 40.7999 54.2901L30.0599 63.3501C29.5499 63.7101 28.0799 64.9101 28.0999 66.7701L28.1399 71.0401C28.0799 71.6001 28.2199 72.1701 28.5399 72.6201C28.9499 73.1901 29.5999 73.5101 30.3299 73.5101C30.5799 73.5101 30.8399 73.4701 31.0999 73.3901C31.3999 73.3001 34.4399 72.5001 37.4799 71.7001C37.0899 73.4401 36.5899 75.6901 36.1399 77.9301C36.0699 78.3001 35.8899 78.6301 35.6299 78.8901C31.6499 82.8801 14.2799 100.18 6.86988 107.56V106.39C6.83988 105.09 6.23988 104.22 5.45988 103.81C5.35988 103.69 5.24988 103.59 5.11988 103.49L3.58988 102.34C3.23988 102.07 2.80988 101.94 2.38988 101.94C2.07988 101.94 1.76988 102.01 1.48988 102.16C0.799883 102.49 0.379883 103.19 0.379883 103.95L0.659883 131.72C0.659883 132.4 1.01988 133.03 1.59988 133.4C2.13988 133.74 2.70988 133.91 3.27988 133.91C3.84988 133.91 4.82988 133.73 5.58988 132.69C6.04988 132.59 6.44988 132.37 6.76988 132.05C7.17988 131.63 7.41988 131.1 7.47988 130.45L39.9199 133.05L39.9699 138.06C39.9199 138.6 40.0599 139.16 40.3899 139.61C40.7299 140.09 41.4099 140.66 42.6899 140.66H43.4199C43.5799 141.42 43.8499 142.61 44.3199 144.47C44.5499 145.36 45.3399 145.98 46.2599 145.98C46.2599 145.98 46.2699 145.98 46.2799 145.98L52.8299 145.91C52.8899 145.91 52.9399 145.91 53.0099 145.91C53.1499 145.91 53.2899 145.9 53.4299 145.87C53.5699 146.31 53.7599 146.8 54.0199 147.29L54.0999 154.69C54.1099 155.79 54.9999 156.67 56.0999 156.67H58.1999C59.2999 156.67 60.1999 155.77 60.1999 154.67V147.12C60.4499 146.62 60.6299 146.14 60.7699 145.7C60.8999 145.72 61.0399 145.73 61.1599 145.73C61.2299 145.73 61.2999 145.73 61.3599 145.73H67.9099C68.8299 145.73 69.6399 145.1 69.8499 144.2C70.2999 142.34 70.5699 141.15 70.7199 140.37H71.4099C72.7099 140.37 73.3899 139.79 73.7299 139.31C74.0599 138.85 74.1999 138.29 74.1399 137.74V132.73L106.55 129.8C106.68 130.97 107.4 131.8 108.46 132.03C109.23 133.05 110.19 133.23 110.76 133.23C111.33 133.23 111.91 133.05 112.46 132.7C113.04 132.33 113.38 131.7 113.38 131.01V103.24C113.38 102.48 112.95 101.78 112.26 101.45C111.98 101.31 111.68 101.24 111.38 101.24C110.95 101.24 110.52 101.38 110.16 101.65L108.64 102.82C108.52 102.91 108.41 103.02 108.31 103.14C107.53 103.55 106.93 104.43 106.93 105.74V106.91C99.4499 99.6101 81.9099 82.4901 77.8799 78.5401C77.6199 78.2801 77.4299 77.9501 77.3599 77.5801C76.8899 75.3401 76.3699 73.1001 75.9599 71.3601C78.9999 72.1301 82.0499 72.9001 82.3599 72.9901C82.6199 73.0601 82.8699 73.1001 83.1099 73.1001C83.8399 73.1001 84.4899 72.7701 84.9099 72.2001C85.2399 71.7401 85.3799 71.1701 85.2999 70.6101V66.3401C85.2999 64.4801 83.8099 63.2901 83.2999 62.9401L72.4599 53.9901C72.3299 53.3001 71.9299 52.6701 71.3199 52.2501L71.1799 52.1601C71.1799 52.0401 71.1499 51.9201 71.1299 51.8101C71.0099 51.3401 68.2399 40.1601 65.9999 35.1201C64.6699 32.1401 64.1499 29.2501 63.9499 27.6401C64.1699 27.4301 64.3499 27.1601 64.4699 26.8701C64.7499 26.1601 64.6599 25.3701 64.2199 24.7501C64.0199 24.4601 63.7099 24.0301 63.4599 23.6801C61.5399 6.97008 58.1999 1.50008 58.0499 1.27008C57.6799 0.690078 57.0399 0.330078 56.3599 0.330078L56.3699 0.330078Z" fill="#231F20"/>
</g>
<defs>
<clipPath id="clip0_417_17">
<rect width="113" height="156.34" fill="white" transform="translate(0.379883 0.330078)"/>
</clipPath>
</defs>
</svg>
