<svg width="102" height="78" viewBox="0 0 102 78" fill="none" xmlns="http://www.w3.org/2000/svg">
<g clip-path="url(#clip0_449_8)">
<path d="M50.7799 76.55C49.6799 76.55 49.4299 75.72 49.3299 72.12C49.0399 72.29 48.7099 72.39 48.3599 72.39L33.0299 72.36C32.4199 72.36 31.9599 72.17 31.6699 71.79C31.4699 71.54 31.3799 71.22 31.4099 70.91C31.4099 70.32 31.3699 66.19 31.3699 64.4C31.3699 62.42 32.7499 61.71 33.9199 61.71C34.0199 61.71 34.0999 61.71 34.1599 61.71L48.1399 61.74C46.6599 54.21 44.4999 40.75 43.9799 37.51L3.45993 37.44C3.10993 37.44 2.02993 37.44 1.57993 36.6C1.35993 36.18 1.39993 35.74 1.53993 35.41C1.73993 34.22 3.14993 25.91 3.45993 23.93C3.78993 21.86 5.34993 21.12 6.70993 21.12C6.85993 21.12 6.94993 21.13 6.95993 21.13H7.08993C9.25993 21.13 38.0699 21.18 43.8499 21.19C43.9699 16.77 44.7399 8.87 44.9099 7.36C45.0399 6.22 45.7999 5.54 46.6399 5.17C45.2099 5.13 43.8899 4.92 42.6999 4.53C42.1999 4.37 41.8699 3.9 41.8999 3.37C41.9199 2.85 42.2899 2.4 42.7999 2.28C43.7799 2.05 44.8399 1.93 45.9499 1.93C47.2399 1.93 48.3999 2.09 49.2199 2.25C49.7099 1.41 50.2499 1 50.8599 1C51.4699 1 52.0099 1.41 52.4999 2.25C53.3099 2.1 54.4599 1.94 55.7399 1.94C56.8599 1.94 57.9299 2.06 58.9199 2.29C59.4299 2.41 59.7999 2.86 59.8199 3.38C59.8399 3.91 59.5199 4.38 59.0099 4.54C57.8299 4.93 56.4999 5.14 55.0699 5.17C55.9099 5.54 56.6699 6.22 56.7999 7.36C56.9699 8.88 57.7299 16.77 57.8399 21.19H94.7899C94.7899 21.19 94.8799 21.19 94.9599 21.19C96.2599 21.19 97.8899 21.93 98.2099 24C98.5199 25.99 99.9099 34.29 100.11 35.49C100.25 35.82 100.29 36.26 100.07 36.68C99.6199 37.52 98.5399 37.52 98.1899 37.52H57.6699C57.1499 40.75 54.9599 54.2 53.4699 61.74H67.4499C67.5099 61.74 67.5799 61.74 67.6799 61.74C68.8599 61.74 70.2299 62.45 70.2299 64.43C70.2299 66.22 70.1899 70.35 70.1799 70.94C70.2099 71.25 70.1099 71.57 69.9199 71.82C69.6299 72.19 69.1699 72.38 68.5599 72.38H53.2299C52.8799 72.38 52.5399 72.28 52.2599 72.11C52.1499 75.71 51.8999 76.54 50.7999 76.54L50.7799 76.55Z" fill="white"/>
<path d="M50.8399 2C51.1699 2 51.5899 2.61 51.9399 3.39C52.6499 3.22 54.0599 2.94 55.7299 2.94C56.6599 2.94 57.6699 3.03 58.6699 3.27C58.8399 3.31 58.8499 3.55 58.6799 3.6C57.2899 4.05 55.8599 4.19 54.6399 4.19C53.6099 4.19 52.7399 4.09 52.1799 4.01C52.3899 4.63 52.5399 5.28 52.5399 5.79H53.3699C53.3699 5.79 55.6099 5.9 55.7899 7.49C55.9699 9.08 56.8399 18.17 56.8399 22.21H94.8099C94.8099 22.21 94.8599 22.21 94.9499 22.21C95.4199 22.21 96.9299 22.35 97.2099 24.18C97.5499 26.35 99.1299 35.82 99.1299 35.82C99.1299 35.82 99.6099 36.54 98.1699 36.54H57.4399C57.0699 36.54 56.7499 36.81 56.6899 37.18C56.1599 40.46 53.7199 55.5 52.2199 62.76H67.4699C67.4699 62.76 67.5399 62.76 67.6499 62.76C68.0899 62.76 69.1999 62.91 69.1999 64.45C69.1999 66.37 69.1499 71.02 69.1499 71.02C69.1499 71.02 69.2499 71.4 68.5199 71.4H53.1899C52.8299 71.4 52.4999 71.18 52.3599 70.85L51.4499 68.68C51.4499 68.68 51.4099 68.64 51.3799 68.64C51.3499 68.64 51.3199 68.66 51.3099 68.69C51.3599 69 51.3399 69.31 51.2999 69.62C51.2799 69.76 51.2699 69.9 51.2599 70.04C51.2299 71.4 51.1799 75.56 50.7499 75.56C50.3299 75.56 50.2799 71.4 50.2499 70.04C50.2499 69.9 50.2399 69.76 50.2199 69.61C50.1799 69.3 50.1599 69 50.2099 68.69C50.2099 68.69 50.1699 68.63 50.1399 68.63C50.1099 68.63 50.0899 68.64 50.0699 68.67L49.1499 70.84C49.0099 71.17 48.6899 71.39 48.3299 71.39L32.9999 71.36C32.2799 71.36 32.3799 70.97 32.3799 70.97C32.3799 70.97 32.3399 66.33 32.3399 64.4C32.3399 62.86 33.4499 62.71 33.8899 62.71C33.9999 62.71 34.0699 62.72 34.0699 62.72L49.3199 62.75C47.8399 55.49 45.4199 40.44 44.8999 37.16C44.8399 36.79 44.5199 36.52 44.1499 36.52L3.41993 36.45C1.97993 36.45 2.45993 35.73 2.45993 35.73C2.45993 35.73 4.05993 26.26 4.40993 24.09C4.69993 22.27 6.19993 22.13 6.66993 22.13C6.75993 22.13 6.81993 22.13 6.81993 22.13C6.81993 22.13 43.8499 22.2 44.7899 22.2C44.7899 18.16 45.6799 9.07 45.8599 7.48C46.0399 5.89 48.2799 5.79 48.2799 5.79H49.1099C49.1099 5.28 49.2599 4.63 49.4699 4.01C48.9199 4.09 48.0499 4.18 47.0399 4.18C45.8199 4.18 44.3699 4.04 42.9699 3.58C42.8099 3.53 42.8199 3.29 42.9799 3.25C43.9799 3.01 44.9799 2.93 45.8999 2.93C47.5799 2.93 48.9999 3.21 49.7099 3.39C50.0499 2.61 50.4799 2 50.8099 2M50.8399 0C49.8899 0 49.1999 0.55 48.7299 1.16C47.9499 1.04 46.9799 0.94 45.9299 0.94C44.7399 0.94 43.6099 1.07 42.5499 1.31C41.6099 1.53 40.9199 2.36 40.8799 3.33C40.8399 4.3 41.4499 5.18 42.3699 5.49C42.9799 5.69 43.6299 5.85 44.2999 5.96C44.0899 6.34 43.9499 6.77 43.8899 7.25C43.7299 8.67 43.0499 15.63 42.8499 20.2L6.89993 20.13C6.83993 20.13 6.76993 20.13 6.67993 20.13C4.98993 20.13 2.86993 21.09 2.43993 23.78C2.13993 25.71 0.78993 33.65 0.53993 35.15C0.33993 35.7 0.29993 36.4 0.66993 37.08C0.99993 37.7 1.74993 38.45 3.42993 38.45L43.0999 38.52C43.7499 42.57 45.5399 53.63 46.8999 60.75L34.1799 60.73C34.1099 60.73 34.0099 60.72 33.8999 60.72C32.1899 60.72 30.3499 61.87 30.3499 64.41C30.3499 66.16 30.3799 70.18 30.3899 70.89C30.3599 71.43 30.5199 71.98 30.8599 72.41C31.1999 72.84 31.8399 73.36 33.0099 73.36L48.3399 73.39C48.3399 73.39 48.3599 73.39 48.3699 73.39C48.3699 73.47 48.3699 73.55 48.3799 73.63C48.4799 75.19 48.6199 77.55 50.7599 77.56C52.8999 77.56 53.0499 75.2 53.1499 73.64C53.1499 73.56 53.1599 73.48 53.1599 73.4C53.1699 73.4 53.1799 73.4 53.1899 73.4H68.5199C69.6899 73.4 70.3299 72.88 70.6699 72.45C71.0099 72.01 71.1799 71.47 71.1499 70.93C71.1499 70.22 71.1999 66.2 71.1999 64.45C71.1999 61.91 69.3599 60.76 67.6499 60.76C67.5399 60.76 67.4499 60.76 67.3699 60.76H54.6499C56.0199 53.65 57.8299 42.59 58.4899 38.54H98.1599C99.8399 38.54 100.59 37.8 100.92 37.17C101.28 36.49 101.25 35.79 101.05 35.24C100.8 33.74 99.4699 25.8 99.1699 23.86C98.7499 21.16 96.6199 20.2 94.9299 20.2C94.8499 20.2 94.7699 20.2 94.7199 20.2H58.7699C58.5899 15.63 57.9199 8.67 57.7599 7.25C57.7099 6.77 57.5599 6.34 57.3599 5.96C58.0399 5.85 58.6799 5.69 59.2899 5.49C60.2099 5.19 60.8199 4.31 60.7799 3.34C60.7399 2.37 60.0599 1.54 59.1099 1.32C58.0499 1.07 56.8999 0.94 55.6999 0.94C54.6599 0.94 53.7099 1.04 52.9299 1.16C52.4499 0.55 51.7699 0 50.8199 0L50.8399 0Z" fill="black"/>
</g>
<defs>
<clipPath id="clip0_449_8">
<rect width="100.8" height="77.55" fill="white" transform="translate(0.409912)"/>
</clipPath>
</defs>
</svg>
