<svg width="255" height="88" viewBox="0 0 255 88" fill="none" xmlns="http://www.w3.org/2000/svg">
<g clip-path="url(#clip0_393_12)">
<path d="M127.71 86.37C126.93 86.37 126.48 86.06 126.24 85.8C125.89 85.42 125.79 84.94 125.81 84.61V82.35C120.87 82.26 112.87 82.1 112.53 82.1C111.66 82.1 111.13 81.41 110.98 80.73C110.91 80.49 110.84 79.96 110.84 78.57C110.84 76.82 112.03 76.04 113.22 76.04C113.23 76.04 113.26 76.04 113.29 76.04L125.03 74.88C124.87 71.05 123.94 49.22 123.86 44.49C123.8 41.04 122.82 37.97 122.25 36.44C122.13 36.11 121.82 35.9 121.47 35.89L77.89 34.93L6.19002 32.5C6.07002 32.5 5.73002 32.5 5.39002 32.59C4.99002 33.39 4.03002 35.06 2.96002 35.06C2.61002 35.06 2.29002 34.91 2.06002 34.64C1.68002 34.19 1.62002 33.51 1.84002 32.21C2.53002 28.39 5.38002 27.34 6.86002 27.3C32.54 23.83 65.54 23.56 75.06 23.56C77.14 23.56 78.31 23.57 78.31 23.57H120.66C120.73 14.69 121.8 0.97998 127.72 0.97998C133.64 0.97998 134.71 14.69 134.78 23.57H177.14C177.14 23.57 178.31 23.56 180.38 23.56C189.89 23.56 222.9 23.83 248.57 27.3C250.05 27.33 252.9 28.39 253.59 32.2C253.81 33.51 253.75 34.2 253.37 34.64C253.15 34.91 252.82 35.06 252.47 35.06C251.4 35.06 250.44 33.39 250.04 32.59C249.7 32.51 249.36 32.5 249.24 32.5L177.56 34.93L133.96 35.89C133.61 35.89 133.3 36.11 133.18 36.44C132.6 37.97 131.63 41.04 131.57 44.49C131.49 49.22 130.56 71.04 130.4 74.88L142.14 76.04C142.14 76.04 142.2 76.04 142.21 76.04C143.39 76.04 144.59 76.82 144.59 78.57C144.59 79.96 144.52 80.48 144.45 80.73C144.3 81.41 143.77 82.1 142.9 82.1C142.56 82.1 134.56 82.25 129.62 82.35V84.69C129.64 84.94 129.54 85.42 129.19 85.8C128.95 86.06 128.5 86.37 127.72 86.37H127.71Z" fill="white"/>
<path d="M127.71 2C132.42 2 133.77 14.19 133.77 24.59H177.13C177.13 24.59 178.29 24.58 180.37 24.58C190.6 24.58 223.02 24.87 248.48 28.32C248.48 28.32 251.85 28.32 252.59 32.4C252.8 33.64 252.7 34.08 252.46 34.08C252.01 34.08 251.07 32.54 250.75 31.8C251.05 31.93 251.34 32.12 251.53 32.4C251.01 31.67 250.75 31.4 250.67 31.4C250.61 31.4 250.64 31.56 250.75 31.8C250.17 31.55 249.51 31.52 249.22 31.52C249.13 31.52 249.07 31.52 249.07 31.52L177.5 33.94L133.92 34.9C133.16 34.92 132.49 35.39 132.22 36.09C131.6 37.73 130.6 40.9 130.54 44.48C130.46 49.3 129.49 72.06 129.35 75.38C129.35 75.61 129.51 75.8 129.74 75.82L142.09 77.04C142.09 77.04 142.13 77.04 142.19 77.04C142.52 77.04 143.57 77.15 143.57 78.57C143.57 80.26 143.46 80.47 143.46 80.47C143.46 80.47 143.35 81.1 142.88 81.1C142.41 81.1 128.6 81.36 128.6 81.36V84.68C128.6 84.68 128.65 85.37 127.7 85.37C126.75 85.37 126.8 84.68 126.8 84.68V81.36C126.8 81.36 112.99 81.1 112.52 81.1C112.05 81.1 111.94 80.47 111.94 80.47C111.94 80.47 111.83 80.26 111.83 78.57C111.83 77.15 112.88 77.04 113.21 77.04C113.27 77.04 113.31 77.04 113.31 77.04L125.66 75.82C125.89 75.8 126.06 75.6 126.05 75.38C125.91 72.06 124.94 49.3 124.86 44.48C124.8 40.9 123.8 37.73 123.18 36.09C122.91 35.38 122.24 34.91 121.48 34.9L77.9 33.94L6.34002 31.51C6.34002 31.51 6.29002 31.51 6.19002 31.51C5.90002 31.51 5.24002 31.54 4.66002 31.79C4.76002 31.55 4.80002 31.39 4.74002 31.39C4.66002 31.39 4.40002 31.66 3.88002 32.39C4.08002 32.11 4.36002 31.92 4.66002 31.79C4.34002 32.54 3.40002 34.07 2.95002 34.07C2.71002 34.07 2.61002 33.63 2.82002 32.39C3.56002 28.31 6.93002 28.31 6.93002 28.31C32.39 24.86 64.81 24.57 75.04 24.57C77.12 24.57 78.28 24.58 78.28 24.58H121.64C121.64 14.18 122.99 1.99 127.7 1.99M127.71 0C122.58 0 119.88 7.6 119.66 22.59H78.29C78.29 22.59 77.11 22.58 75.05 22.58C65.53 22.58 32.51 22.85 6.78002 26.32C4.99002 26.39 1.65002 27.64 0.860022 32.04C0.620022 33.42 0.610022 34.49 1.30002 35.31C1.72002 35.8 2.32002 36.08 2.96002 36.08C4.37002 36.08 5.43002 34.66 6.05002 33.52C6.10002 33.52 6.14002 33.52 6.19002 33.52C6.21002 33.52 6.25002 33.52 6.27002 33.52L77.84 35.94L121.35 36.9C121.91 38.4 122.81 41.3 122.86 44.52C122.93 48.88 123.72 67.51 123.99 73.99L113.25 75.05C113.25 75.05 113.23 75.05 113.21 75.05C111.58 75.05 109.83 76.16 109.83 78.58C109.83 79.96 109.9 80.6 110 80.97C110.28 82.24 111.3 83.1 112.52 83.1C112.86 83.1 119.47 83.22 124.8 83.33V84.69C124.8 85.06 124.88 85.82 125.5 86.48C125.88 86.89 126.56 87.37 127.7 87.37C128.84 87.37 129.52 86.89 129.9 86.48C130.51 85.82 130.6 85.06 130.6 84.69V83.33C135.93 83.23 142.54 83.11 142.88 83.1C144.1 83.1 145.12 82.23 145.4 80.96C145.5 80.58 145.57 79.95 145.57 78.57C145.57 76.14 143.82 75.04 142.19 75.04C142.18 75.04 142.16 75.04 142.15 75.04L131.41 73.98C131.69 67.5 132.47 48.88 132.54 44.51C132.59 41.29 133.49 38.39 134.05 36.89L177.54 35.94L249.13 33.52C249.13 33.52 249.16 33.52 249.18 33.52C249.24 33.52 249.29 33.52 249.35 33.52C249.97 34.66 251.03 36.08 252.44 36.08C253.08 36.08 253.69 35.8 254.1 35.31C254.79 34.5 254.77 33.42 254.54 32.06C253.74 27.65 250.41 26.39 248.62 26.32C222.89 22.85 189.87 22.58 180.35 22.58C178.26 22.58 177.09 22.59 177.09 22.59H135.74C135.52 7.6 132.82 0 127.69 0H127.71Z" fill="black"/>
</g>
<defs>
<clipPath id="clip0_393_12">
<rect width="254" height="87.37" fill="white" transform="translate(0.710022)"/>
</clipPath>
</defs>
</svg>
