<svg width="139" height="184" viewBox="0 0 139 184" fill="none" xmlns="http://www.w3.org/2000/svg">
<g clip-path="url(#clip0_706_53)">
<path d="M63.6398 182.53C62.4298 182.53 62.3598 182.53 62.0798 170.55C61.2898 170.42 60.7198 169.76 60.7198 168.93V166.49C60.7198 165.65 61.2898 165 62.0798 164.87C62.0998 164.1 62.1198 163.37 62.1398 162.68C57.5098 162.25 52.3098 161.77 51.8098 161.7C50.6398 161.55 50.0798 160.51 49.9298 159.91C49.9098 159.83 49.8998 159.75 49.8998 159.67V159.46C49.2098 159.09 48.7598 158.34 48.7598 157.43C48.7598 156.52 49.2098 155.77 49.8998 155.4C49.8998 154.25 50.8598 153.57 51.8098 153.5L65.4998 151.61C64.4898 138.67 62.0698 108.17 61.8098 106.12C58.3798 96.29 56.9498 89.76 56.3098 80.8L7.40977 81.38C7.14977 81.38 6.89977 81.38 6.63977 81.37C5.20977 81.32 3.80977 81 2.46977 80.44C1.57977 80.06 1.00977 79.2 1.00977 78.24V75.81C1.00977 74.95 1.70977 74.24 2.57977 74.24C2.63977 74.24 2.78977 74.25 2.83977 74.26L4.19977 74.49C5.22977 74.67 6.28977 74.76 7.32977 74.76H55.9998C55.8398 70.07 55.8198 64.69 55.8198 59.55C55.8198 39.78 60.9498 28.16 66.2098 25.08L65.9998 7.63C65.9998 7.3 65.9998 6.96 66.0098 6.63C66.0598 5.2 66.3798 3.8 66.9398 2.46C67.3198 1.57 68.1798 1 69.1398 1H71.5698C72.0298 1 72.4698 1.2 72.7698 1.56C73.0698 1.91 73.1898 2.38 73.1198 2.83L72.8898 4.19C72.7098 5.22 72.6298 6.28 72.6298 7.32V25.74C77.0798 29.29 82.0698 40.09 82.0698 59.56C82.0698 64.72 82.0498 70.12 81.8898 74.83L130.71 74.25C130.97 74.25 131.22 74.25 131.48 74.26C132.91 74.31 134.31 74.63 135.65 75.19C136.54 75.57 137.11 76.43 137.11 77.39V79.82C137.11 80.68 136.41 81.39 135.54 81.39C135.48 81.39 135.33 81.38 135.28 81.37L133.92 81.14C132.89 80.96 131.83 80.87 130.79 80.87H81.5798C80.9398 89.8 79.5098 96.32 76.0798 106.13C75.8098 108.18 73.3998 138.68 72.3898 151.62L86.1398 153.51C87.0298 153.58 87.9898 154.26 87.9898 155.41C88.6798 155.78 89.1298 156.53 89.1298 157.44C89.1298 158.35 88.6798 159.1 87.9898 159.47V159.68C87.9898 159.76 87.9798 159.84 87.9598 159.92C87.8098 160.51 87.2498 161.56 86.0798 161.71C85.2898 161.81 72.9698 162.94 71.7498 163.06V163.54C71.8198 163.7 71.9298 163.91 72.0398 163.99L72.2298 164.13C72.9898 164.68 73.8498 165.3 73.8498 166.17V171.62C73.8498 171.72 73.8398 171.81 73.8098 171.91C73.6798 172.34 73.1898 173.09 72.1698 173.21C71.6798 173.27 70.9798 173.44 70.5998 173.59V175.18C70.4798 176.91 69.5998 177.09 69.2298 177.09C68.8598 177.09 67.9798 176.91 67.8498 175.26V173.66C67.3498 173.5 66.4098 173.3 65.7398 173.22C65.5398 173.2 65.3598 173.15 65.1998 173.08C64.9298 182.43 64.7798 182.56 63.7098 182.56H63.6598L63.6398 182.53ZM65.2298 164.42C65.3698 164.31 65.8398 163.97 65.8398 163.97C65.9498 163.89 66.0698 163.68 66.1298 163.52V163.04L65.1798 162.95C65.1898 163.42 65.2098 163.91 65.2198 164.41L65.2298 164.42Z" fill="white"/>
<path d="M71.5702 1.99999C71.9202 1.99999 72.1902 2.31999 72.1302 2.65999L71.9002 4.01999C71.7102 5.10999 71.6202 6.21999 71.6202 7.31999V26.24C76.1402 29.41 81.0602 40.35 81.0602 59.56C81.0602 66.03 81.0202 71.28 80.8402 75.84L130.48 75.25C130.56 75.25 130.64 75.25 130.72 75.25C130.96 75.25 131.2 75.25 131.44 75.26C132.75 75.31 134.05 75.6 135.26 76.11C135.78 76.33 136.11 76.83 136.11 77.39V79.82C136.11 80.14 135.85 80.39 135.54 80.39C135.51 80.39 135.48 80.39 135.44 80.39L134.08 80.16C132.99 79.97 131.88 79.88 130.78 79.88H80.6402C80.0302 89.35 78.5502 96.03 75.1002 105.9C74.8402 107.4 71.3102 152.49 71.3102 152.49L85.9902 154.51C85.9902 154.51 86.9802 154.59 86.9802 155.42V156.17C88.5002 156.17 88.5002 158.71 86.9802 158.71V159.67C86.9802 159.67 86.7502 160.6 85.9402 160.71C85.1302 160.82 71.5702 162.06 71.5702 162.06C71.5702 162.06 70.7402 162.14 70.7402 162.6V163.69C70.7402 163.69 70.9502 164.42 71.4402 164.78C71.9302 165.14 72.8402 165.74 72.8402 166.15V171.6C72.8402 171.6 72.6802 172.12 72.0402 172.2C71.4002 172.28 69.5902 172.67 69.5902 173.13V175.15C69.5902 175.15 69.5302 176.06 69.2202 176.06C68.9102 176.06 68.8402 175.15 68.8402 175.15V173.13C68.8402 172.66 66.5002 172.27 65.8502 172.2C65.2002 172.13 65.0502 171.6 65.0502 171.6V168.67L64.3102 168.93C64.0902 176.94 63.8802 181.53 63.6602 181.53C63.4602 181.53 63.2602 177.64 63.0602 168.93C63.0602 169.36 62.7302 169.58 62.4002 169.58C62.0702 169.58 61.7402 169.36 61.7402 168.93V166.49C61.7402 166.06 62.0702 165.84 62.4002 165.84C62.7302 165.84 63.0602 166.06 63.0602 166.49C63.1002 164.72 63.1402 163.15 63.1802 161.77C59.1202 161.4 52.5002 160.78 51.9502 160.71C51.1502 160.61 50.9102 159.67 50.9102 159.67V158.71C49.3902 158.71 49.3902 156.17 50.9102 156.17V155.42C50.9102 154.59 51.9002 154.51 51.9002 154.51L66.5802 152.49C66.5802 152.49 63.0502 107.4 62.7902 105.9C59.3302 96 57.8602 89.31 57.2402 79.81L7.63023 80.4C7.55023 80.4 7.47023 80.4 7.40023 80.4C7.16023 80.4 6.92023 80.4 6.68023 80.39C5.37023 80.34 4.07023 80.05 2.86023 79.54C2.34023 79.32 2.01023 78.82 2.01023 78.26V75.83C2.01023 75.51 2.27023 75.26 2.58023 75.26C2.61023 75.26 2.64023 75.26 2.68023 75.26L4.04023 75.49C5.13023 75.68 6.24023 75.77 7.34023 75.77H57.0502C56.8802 71.23 56.8302 66 56.8302 59.56C56.8302 38.99 62.4802 27.9 67.2302 25.69L67.0102 7.62999C67.0102 7.30999 67.0102 6.98999 67.0202 6.67999C67.0702 5.36999 67.3602 4.06999 67.8702 2.85999C68.0902 2.33999 68.5902 2.00999 69.1502 2.00999H71.5802M65.0302 166.74V166.15C65.0302 165.73 65.9402 165.14 66.4302 164.78C66.9202 164.42 67.1302 163.69 67.1302 163.69V162.6C67.1302 162.13 66.3002 162.06 66.3002 162.06C66.3002 162.06 65.4402 161.98 64.1502 161.86C64.2002 163.24 64.2402 164.79 64.2902 166.49L65.0302 166.75M71.5702 -9.76585e-06H69.1402C67.7702 -9.76585e-06 66.5502 0.80999 66.0202 2.06999C65.4102 3.51999 65.0702 5.03999 65.0102 6.58999C65.0002 6.93999 64.9902 7.28999 65.0002 7.63999L65.2002 24.54C59.8602 28.22 54.8202 40.03 54.8202 59.55C54.8202 64.33 54.8402 69.31 54.9702 73.76H7.32023C6.33023 73.76 5.33023 73.68 4.35023 73.51L2.99023 73.28C2.85023 73.26 2.70023 73.24 2.56023 73.24C1.15023 73.24 -0.00976562 74.39 -0.00976562 75.81V78.24C-0.00976562 79.61 0.800234 80.83 2.06023 81.36C3.51023 81.97 5.03023 82.31 6.58023 82.37C6.84023 82.37 7.11023 82.38 7.37023 82.38H7.63023L55.3602 81.81C56.0402 90.29 57.5302 96.96 60.8102 106.35C61.0902 108.73 63.0402 133.31 64.4102 150.75L51.6402 152.51C50.4202 152.63 49.2102 153.45 48.9402 154.82C48.2002 155.41 47.7402 156.34 47.7402 157.43C47.7402 158.52 48.1902 159.43 48.9102 160.02C48.9102 160.06 48.9302 160.11 48.9402 160.15C49.2202 161.27 50.1702 162.49 51.6602 162.69C52.0702 162.74 55.2402 163.04 61.1002 163.59C61.1002 163.78 61.1002 163.97 61.0902 164.16C60.2602 164.6 59.7102 165.47 59.7102 166.49V168.93C59.7102 169.95 60.2602 170.82 61.0902 171.26C61.1702 174.42 61.2502 176.88 61.3402 178.59C61.3902 179.66 61.4402 180.44 61.5002 180.98C61.6702 182.67 62.3902 183.53 63.6402 183.53C65.5402 183.53 65.7302 181.54 65.7902 180.88C65.8502 180.29 65.9002 179.46 65.9602 178.33C66.0102 177.25 66.0702 175.89 66.1302 174.26C66.3602 174.3 66.6102 174.35 66.8302 174.4V175.16C66.8302 175.16 66.8302 175.26 66.8302 175.31C67.0302 177.94 68.8402 178.07 69.2002 178.07C70.2102 178.07 71.4302 177.34 71.5702 175.3C71.5702 175.25 71.5702 175.21 71.5702 175.16V174.32C71.8102 174.26 72.0702 174.21 72.2602 174.19C73.7002 174.02 74.5002 173 74.7402 172.18C74.8002 171.99 74.8202 171.8 74.8202 171.61V166.16C74.8202 165.16 74.2102 164.44 73.5502 163.89C77.3602 163.54 85.5202 162.79 86.1802 162.7C87.6702 162.51 88.6202 161.29 88.9002 160.16C88.9102 160.12 88.9202 160.07 88.9302 160.03C89.6502 159.44 90.1002 158.52 90.1002 157.44C90.1002 156.36 89.6402 155.42 88.9002 154.83C88.6302 153.45 87.4202 152.64 86.2002 152.52L73.4302 150.76C74.7902 133.35 76.7502 108.82 77.0302 106.36C80.3002 96.98 81.8002 90.33 82.4802 81.87H130.76C131.75 81.87 132.75 81.95 133.73 82.12L135.09 82.35C135.23 82.37 135.38 82.39 135.52 82.39C136.93 82.39 138.09 81.24 138.09 79.82V77.39C138.09 76.02 137.28 74.8 136.02 74.27C134.57 73.66 133.05 73.32 131.5 73.26C131.24 73.26 130.97 73.25 130.71 73.25H130.45L82.9102 73.82C83.0402 69.36 83.0602 64.36 83.0602 59.57C83.0602 40.28 78.3302 29.39 73.6202 25.29V7.31999C73.6202 6.32999 73.7002 5.32999 73.8702 4.34999L74.1002 2.98999C74.2302 2.23999 74.0202 1.47999 73.5302 0.89999C73.0402 0.31999 72.3302 -0.0100098 71.5702 -0.0100098V-9.76585e-06Z" fill="black"/>
</g>
<defs>
<clipPath id="clip0_706_53">
<rect width="138.1" height="183.53" fill="white"/>
</clipPath>
</defs>
</svg>
