<svg width="132" height="189" viewBox="0 0 132 189" fill="none" xmlns="http://www.w3.org/2000/svg">
<g clip-path="url(#clip0_591_42)">
<path d="M66.8796 187.77C66.4896 187.77 66.1296 187.61 65.8596 187.32C65.3196 186.74 65.3196 185.78 65.3496 185.4V177.74C65.3496 177.74 65.2996 177.68 65.2696 177.66L65.1496 177.64C52.1096 175.28 36.3896 172.44 35.5596 172.28C34.1396 172 33.5796 170.75 33.4696 170.07C33.4696 170.02 33.4596 169.97 33.4596 169.92V166.03C33.4596 163.73 35.4096 162.8 36.4396 162.63C36.4796 162.63 36.5196 162.62 36.5596 162.62L62.7896 161.4L61.3196 126.69C61.3196 126.6 61.2396 126.52 61.1396 126.5C57.9496 125.94 55.9696 124.47 55.5696 122.37C54.7796 117.21 54.6296 107.32 54.6096 106.05C53.4796 105.85 49.0496 105.06 48.2396 104.88C46.6796 104.53 46.4196 102.56 46.3896 102.34C46.3896 102.3 46.3896 102.26 46.3896 102.23V90.39C34.7496 103.99 21.1796 119.84 18.6596 122.75C18.6196 122.79 18.5796 122.84 18.5296 122.87C16.0796 124.85 13.3196 125.89 10.5396 125.89C8.05957 125.89 6.07957 125.05 5.41957 124.52C5.00957 124.19 4.80957 123.73 4.85957 123.25C4.95957 122.3 6.01957 121.68 6.46957 121.45C6.49957 121.43 6.52957 121.42 6.56957 121.41L10.0196 120.11C10.9296 119.77 11.7396 119.2 12.3696 118.47L46.3796 79.05V48.8C32.2296 37.39 8.42957 18.22 4.71957 15.2C4.66957 15.16 4.62957 15.12 4.58957 15.08C-0.62043 8.97998 1.84957 2.95998 2.55957 2.01998C2.84957 1.62998 3.25957 1.41998 3.70957 1.41998C4.70957 1.41998 5.40957 2.50998 5.65957 2.97998C5.67957 3.00998 5.68957 3.03998 5.69957 3.07998L7.09957 6.48998C7.46957 7.38998 8.05957 8.17998 8.80957 8.78998L53.4096 45.01L54.5996 45.95C54.6996 45.86 54.7496 45.76 54.7696 45.7V26.97C54.7696 16.35 60.0296 4.96998 67.8696 4.96998C71.7096 4.96998 74.9296 7.70998 77.0796 12.75C77.2696 12.57 77.5196 12.44 77.8496 12.44C78.6596 12.44 78.9796 13.2 79.1596 13.61C79.2096 13.73 79.2396 13.87 79.2396 14.01V14.82C79.2396 15.5 78.9596 16.15 78.4696 16.62L78.3996 16.68C79.2296 19.84 79.6696 23.39 79.6696 26.97V44.03C92.8796 29.87 113.75 7.51998 117.04 4.02998C117.08 3.98998 117.13 3.94998 117.17 3.90998C119.58 2.12998 122.15 1.22998 124.79 1.22998C127.82 1.22998 129.86 2.41998 130.33 2.82998C130.72 3.16998 130.91 3.64998 130.84 4.12998C130.7 5.06998 129.61 5.64998 129.15 5.85998C129.12 5.86998 129.09 5.88998 129.05 5.89998L125.55 7.04998C124.63 7.34998 123.79 7.87998 123.13 8.58998L86.7496 47.24C87.2896 47.48 88.0596 48.16 88.0596 49.41V78.41C103.8 92.24 123.06 109.19 126.32 112.08C126.36 112.12 126.41 112.16 126.44 112.21C131.39 118.52 128.66 124.43 127.91 125.34C127.62 125.7 127.22 125.89 126.79 125.89C125.76 125.89 125.09 124.74 124.85 124.25C124.83 124.22 124.82 124.19 124.81 124.15L123.56 120.68C123.23 119.77 122.68 118.95 121.95 118.31L88.0496 88.26V102.23C88.0496 102.23 88.0496 102.31 88.0496 102.34C88.0196 102.56 87.7596 104.53 86.1996 104.88C85.3796 105.06 80.5996 105.86 79.3996 106.05C79.3596 107.39 78.9296 117.26 78.1496 122.33C77.7396 124.48 75.7896 125.95 72.6496 126.5C72.5496 126.52 72.4796 126.6 72.4696 126.7L70.9696 155.05C71.0896 155.01 71.2196 154.99 71.3496 154.99C71.7696 154.99 72.3496 155.19 72.7296 156.15C72.9496 156.68 73.0496 157.29 73.0396 157.95L72.9096 167.14C73.3096 167.58 73.8896 168.31 73.8896 168.86C73.8896 169.27 73.7296 169.58 72.8596 170.49L72.6696 179.84C72.6596 180.5 72.5296 181.1 72.2996 181.63C71.9696 182.37 71.5096 182.74 70.9196 182.74C70.3296 182.74 69.8796 182.38 69.5396 181.66C69.4096 181.39 69.3196 181.11 69.2496 180.81C69.1196 181.11 68.9596 181.37 68.7596 181.57C68.7096 181.62 68.6496 181.67 68.5896 181.72C68.5496 186.88 68.0196 187.78 66.8796 187.78V187.77Z" fill="white"/>
<path d="M124.79 2.22998C127.41 2.22998 129.27 3.22998 129.67 3.57998C130.38 4.19998 128.74 4.93998 128.74 4.93998L125.24 6.08998C124.16 6.43998 123.18 7.05998 122.4 7.88998L84.7497 47.89C85.6297 48.02 86.2797 48.12 86.2797 48.12C86.2797 48.12 87.0497 48.39 87.0497 49.39V78.84C100.29 90.48 122.18 109.73 125.64 112.81C130.21 118.63 127.73 123.95 127.13 124.68C127.02 124.81 126.9 124.87 126.79 124.87C126.27 124.87 125.75 123.79 125.75 123.79L124.5 120.32C124.11 119.25 123.47 118.29 122.61 117.54L87.0497 86.02V102.22C87.0497 102.22 86.8797 103.7 85.9797 103.9C85.0697 104.1 78.9697 105.11 78.9697 105.11C78.9697 105.11 78.3997 105.41 78.3997 105.91C78.3997 106.41 77.9597 116.91 77.1597 122.18C76.7197 124.46 73.9697 125.25 72.4797 125.51C71.9197 125.61 71.5097 126.08 71.4797 126.64L69.3397 166.95L70.3997 166.97L70.5297 157.91C70.5297 157.41 70.6397 156.92 70.8697 156.48C71.0397 156.15 71.2097 155.99 71.3597 155.99C71.5197 155.99 71.6697 156.17 71.8197 156.52C71.9997 156.97 72.0697 157.45 72.0597 157.93L71.9197 167.52C72.2797 167.82 72.9097 168.67 72.9097 168.85C72.9097 169.01 72.2497 169.69 71.8797 170.06L71.6897 179.81C71.6897 180.29 71.5997 180.77 71.3997 181.21C71.2497 181.56 71.0897 181.73 70.9297 181.73C70.7697 181.73 70.6097 181.56 70.4497 181.22C70.2397 180.77 70.1497 180.28 70.1597 179.78L70.3397 170.72L69.1497 170.7L68.8097 177.05C68.8097 177.05 68.8797 181.07 67.5997 181.07C67.5997 182.08 67.5997 186.77 66.8797 186.77C66.2497 186.77 66.3397 185.47 66.3397 185.47V177.4C66.1297 177.09 65.9097 176.87 65.7097 176.72C61.4297 175.95 36.7797 171.49 35.7597 171.29C34.6397 171.07 34.4597 169.9 34.4597 169.9V166.01C34.4597 163.95 36.6097 163.6 36.6097 163.6L63.8397 162.33L62.3297 126.63C62.2997 126.06 61.8797 125.59 61.3297 125.5C59.8397 125.24 56.9997 124.45 56.5697 122.17C55.7597 116.9 55.6297 106.41 55.6297 105.9C55.6297 105.39 55.0597 105.1 55.0597 105.1C55.0597 105.1 49.3797 104.09 48.4797 103.89C47.5697 103.69 47.4097 102.21 47.4097 102.21V87.66C35.9897 101.01 20.6297 118.94 17.9297 122.07C15.2497 124.23 12.6497 124.87 10.5697 124.87C8.17971 124.87 6.46971 124.04 6.06971 123.72C5.32971 123.13 6.93971 122.32 6.93971 122.32L10.3897 121.02C11.4597 120.62 12.4097 119.96 13.1497 119.1L47.3997 79.4V48.65C47.3997 48.53 47.4097 48.43 47.4297 48.33C34.0197 37.55 9.12971 17.5 5.35971 14.42C0.539712 8.79998 2.78971 3.37998 3.35971 2.61998C3.46971 2.46998 3.58971 2.41998 3.70971 2.41998C4.21971 2.41998 4.77971 3.44998 4.77971 3.44998L6.17971 6.85998C6.60971 7.90998 7.29971 8.83998 8.18971 9.55998L52.7897 45.78L54.4797 47.11C55.6497 46.79 55.7797 45.8 55.7797 45.8V26.95C55.7797 16.62 60.8297 5.94998 67.8797 5.94998C72.1497 5.94998 75.2197 9.87998 76.9697 15.27L77.2297 15.06C77.3797 14.94 77.4697 14.75 77.4697 14.56V14C77.6397 13.64 77.7497 13.44 77.8697 13.44C77.9797 13.44 78.0897 13.61 78.2597 14V14.81C78.2597 15.22 78.0897 15.6 77.7997 15.88L77.2997 16.36C78.2197 19.61 78.6997 23.31 78.6997 26.96V45.81C78.6997 45.81 78.7397 46.05 78.8997 46.34C89.9497 34.5 114.24 8.47998 117.79 4.71998C120.37 2.81998 122.82 2.22998 124.82 2.22998M124.79 0.22998C121.93 0.22998 119.16 1.19998 116.57 3.10998C116.47 3.17998 116.38 3.25998 116.3 3.34998C113.9 5.88998 101.92 18.71 80.6597 41.48V26.96C80.6597 23.49 80.2597 20.05 79.4897 16.95C79.9597 16.34 80.2197 15.59 80.2197 14.81V14C80.2197 13.73 80.1597 13.46 80.0597 13.21C79.8697 12.77 79.2997 11.44 77.8297 11.44C77.7397 11.44 77.6497 11.44 77.5697 11.45C75.2597 6.58998 71.8797 3.95998 67.8497 3.95998C59.1397 3.95998 53.7497 15.9 53.7497 26.96V44.02L9.43971 8.00998C8.81971 7.49998 8.32971 6.84998 8.01971 6.09998L6.61971 2.68998C6.58971 2.62998 6.55971 2.55998 6.52971 2.49998C6.11971 1.72998 5.18971 0.41998 3.70971 0.41998C2.94971 0.41998 2.23971 0.779981 1.75971 1.41998C0.819712 2.66998 -1.79029 9.15998 3.83971 15.72C3.91971 15.81 3.99971 15.89 4.09971 15.97C7.91971 19.08 33.6397 39.8 45.3897 49.26V78.66L11.6197 117.8C11.0997 118.41 10.4197 118.88 9.66971 119.16L6.21971 120.46C6.14971 120.48 6.08971 120.51 6.02971 120.54C5.28971 120.91 4.01971 121.74 3.86971 123.13C3.77971 123.96 4.11971 124.75 4.79971 125.29C5.59971 125.93 7.78971 126.88 10.5497 126.88C13.5597 126.88 16.5297 125.76 19.1597 123.64C19.2497 123.57 19.3397 123.48 19.4197 123.39C21.3697 121.13 30.0997 110.94 45.3897 93.08V102.22C45.3897 102.3 45.3897 102.37 45.3997 102.45C45.5497 103.78 46.3297 105.48 48.0297 105.85C48.7297 106.01 51.9097 106.58 53.6297 106.88C53.6797 109.69 53.8797 117.92 54.5797 122.47C54.5797 122.49 54.5797 122.52 54.5897 122.54C55.0497 124.93 57.0797 126.62 60.3497 127.34L61.7497 160.42L36.5097 161.59C36.4297 161.59 36.3497 161.6 36.2697 161.62C34.4297 161.93 32.4497 163.43 32.4497 166.01V169.9C32.4497 170 32.4497 170.1 32.4697 170.2C32.6197 171.15 33.3897 172.85 35.3497 173.24C36.1697 173.4 51.4397 176.17 64.3297 178.49V185.39C64.2997 186.04 64.3597 187.18 65.1197 187.98C65.5797 188.47 66.1997 188.74 66.8697 188.74C68.9897 188.74 69.4597 186.71 69.5597 183.24C70.0597 183.61 70.5697 183.69 70.9097 183.69C71.4797 183.69 72.5397 183.47 73.1997 181.98C73.4897 181.33 73.6397 180.6 73.6597 179.81L73.8397 170.85C74.5497 170.09 74.8797 169.55 74.8797 168.81C74.8797 168.07 74.3697 167.27 73.9097 166.71L74.0297 157.92C74.0397 157.13 73.9097 156.39 73.6497 155.73C73.2197 154.66 72.5697 154.22 72.0197 154.05L73.4397 127.32C76.6597 126.61 78.6697 124.92 79.1297 122.52C79.1297 122.5 79.1297 122.47 79.1397 122.45C79.8397 117.86 80.2497 109.71 80.3697 106.87C82.1997 106.57 85.6997 105.98 86.4197 105.82C88.1197 105.44 88.8997 103.75 89.0497 102.42C89.0497 102.35 89.0597 102.27 89.0597 102.19V90.44L121.29 119.02C121.89 119.55 122.35 120.23 122.62 120.99L123.87 124.46C123.89 124.53 123.92 124.59 123.95 124.65C124.35 125.47 125.25 126.86 126.79 126.86C127.52 126.86 128.19 126.53 128.68 125.94C129.68 124.73 132.56 118.36 127.22 111.56C127.15 111.47 127.06 111.38 126.98 111.3C123.75 108.43 104.73 91.7 89.0597 77.92V49.37C89.0597 48.42 88.7197 47.65 88.2297 47.09L123.86 9.25998C124.41 8.67998 125.1 8.23998 125.86 7.98998L129.36 6.83998C129.43 6.81998 129.49 6.78998 129.56 6.75998C130.32 6.41998 131.62 5.64998 131.83 4.26998C131.95 3.44998 131.65 2.63998 130.99 2.06998C130.15 1.33998 127.79 0.22998 124.79 0.22998Z" fill="black"/>
</g>
<defs>
<clipPath id="clip0_591_42">
<rect width="131.53" height="188.54" fill="white" transform="translate(0.330078 0.22998)"/>
</clipPath>
</defs>
</svg>
