<svg width="98" height="70" viewBox="0 0 98 70" fill="none" xmlns="http://www.w3.org/2000/svg">
<g clip-path="url(#clip0_548_17)">
<path d="M48.8701 68.3502C48.1101 68.3502 47.5501 67.7202 47.4401 66.7502C47.4401 66.7002 47.4101 65.8002 47.3901 64.9702C46.9401 65.6002 45.9301 66.5002 44.5001 66.5402C39.9701 66.4602 36.7201 65.2602 36.5901 65.2102C36.1601 65.0202 32.9401 63.4902 32.7001 60.7702C32.5501 59.0402 33.6501 57.3702 35.9601 55.8002C39.4101 53.0602 44.1501 52.3402 45.9601 52.1602C45.9901 52.0902 46.0201 52.0202 46.0501 51.9602C45.1901 48.3802 44.7201 40.8602 44.5001 36.2602C44.3901 36.2802 44.2701 36.2902 44.1501 36.2902C44.1201 36.2902 44.0701 36.2902 44.0201 36.2902H23.9901L8.54009 35.7602C7.82009 35.7602 2.35009 35.4802 1.34009 26.9702C1.34009 26.9002 1.34009 26.8402 1.34009 26.7702C2.01009 18.4202 7.77009 18.0302 7.83009 18.0302H44.4001C44.4801 15.1602 44.7101 6.98022 44.8301 5.89021C44.8301 5.86021 44.8301 5.83021 44.8401 5.80021C44.3701 5.82021 43.9301 5.83021 43.5101 5.83021C41.7701 5.83021 41.0001 5.63022 40.9201 5.60021C39.9701 5.39021 39.4401 4.95022 39.4201 4.28022C39.4001 3.86021 39.5901 3.29021 40.5901 2.99021C40.8201 2.92021 41.0501 2.88021 41.2801 2.85021C42.2401 2.74021 43.2201 2.68021 44.1701 2.68021C45.3001 2.68021 46.2401 2.76021 46.9201 2.85021C47.2801 2.13021 47.8301 1.28021 48.5201 1.04021C48.6301 1.00021 48.7501 0.970215 48.8801 0.970215H48.9101C49.0401 0.970215 49.1601 0.990215 49.2801 1.04021C49.9601 1.28021 50.5101 2.13021 50.8701 2.85021C51.5501 2.76021 52.4901 2.68021 53.6201 2.68021C54.5801 2.68021 55.5501 2.74021 56.5101 2.85021C56.7501 2.88021 56.9801 2.92021 57.2001 2.99021C58.2001 3.29021 58.3901 3.85021 58.3701 4.28022C58.3501 4.94022 57.8201 5.39022 56.8001 5.61022C56.7801 5.61022 56.0101 5.82022 54.2701 5.82022C53.8501 5.82022 53.4101 5.81021 52.9401 5.79021C52.9401 5.82021 52.9401 5.85021 52.9501 5.88021C53.0701 6.97021 53.3001 15.1502 53.3801 18.0202H89.9001C90.0101 18.0202 95.7701 18.4102 96.4401 26.7602C96.4401 26.8302 96.4401 26.8902 96.4401 26.9602C95.4201 35.5102 89.9001 35.7502 89.2801 35.7502C89.2601 35.7502 89.1501 35.7502 89.1301 35.7502L73.8201 36.2802H53.7501C53.7001 36.2802 53.6501 36.2802 53.6201 36.2802C53.5001 36.2802 53.3801 36.2702 53.2701 36.2502C53.0501 40.8502 52.5801 48.3602 51.7201 51.9502C51.7501 52.0102 51.7801 52.0802 51.8101 52.1502C53.6201 52.3302 58.3701 53.0602 61.8701 55.8302C64.1201 57.3502 65.2201 59.0302 65.0701 60.7602C64.8301 63.4802 61.6101 65.0102 61.2401 65.1802C61.0501 65.2602 57.8001 66.4502 53.3101 66.5302C51.8801 66.4902 50.8801 65.6302 50.3801 64.9502C50.3601 65.7702 50.3401 66.6402 50.3401 66.6402C50.2201 67.7002 49.6601 68.3302 48.9001 68.3302L48.8701 68.3502Z" fill="white"/>
<path d="M48.8901 2C49.2701 2.06 49.8901 3.1 50.2401 3.98C50.8401 3.87 52.0201 3.71 53.5901 3.71C54.4101 3.71 55.3501 3.75 56.3601 3.87C56.5401 3.89 56.7101 3.93 56.8901 3.98C58.0801 4.33 56.5701 4.66 56.5701 4.66C56.5701 4.66 55.9101 4.85 54.2601 4.85C53.3301 4.85 52.0801 4.79 50.4501 4.6C50.4801 4.74 50.5001 4.87 50.5001 4.97H51.1201C51.1201 4.97 51.1701 4.95 51.2401 4.95C51.4401 4.95 51.8401 5.07 51.9401 6.01C52.0801 7.28 52.3901 19.04 52.3901 19.04H89.8901C89.8901 19.04 94.8301 19.28 95.4301 26.86C94.5201 34.48 89.9501 34.77 89.2601 34.77C89.2001 34.77 89.1701 34.77 89.1701 34.77L73.7601 35.3H53.7001C53.7001 35.3 53.6601 35.3 53.6001 35.3C53.4001 35.3 52.9801 35.23 52.9801 34.66V32.41H52.4001C52.4001 32.41 51.9501 47.38 50.6201 52.16C50.8601 52.29 51.0201 53.1 51.0201 53.1C51.0201 53.1 57.1201 53.36 61.2301 56.62C67.8401 61.1 60.8201 64.27 60.8201 64.27C60.8201 64.27 57.6601 65.46 53.2901 65.53C51.8001 65.49 51.0501 64.15 51.0501 64.15L49.9601 62.57V63.19C49.9601 63.19 50.0401 63.57 49.4101 63.57C49.4101 63.89 49.3301 66.62 49.3301 66.62C49.3301 66.62 49.2501 67.34 48.8901 67.34C48.5301 67.34 48.4501 66.62 48.4501 66.62C48.4501 66.62 48.3701 63.89 48.3701 63.57C47.7501 63.57 47.8201 63.19 47.8201 63.19V62.57L46.7301 64.15C46.7301 64.15 45.9801 65.49 44.4901 65.53C40.1201 65.45 36.9601 64.27 36.9601 64.27C36.9601 64.27 29.9301 61.11 36.5501 56.62C40.6601 53.36 46.7601 53.1 46.7601 53.1C46.7601 53.1 46.9101 52.29 47.1601 52.16C45.8201 47.38 45.3801 32.41 45.3801 32.41H44.8001V34.66C44.8001 35.24 44.3701 35.3 44.1801 35.3C44.1201 35.3 44.0801 35.3 44.0801 35.3H24.0201L8.61013 34.77C8.61013 34.77 8.58013 34.77 8.52013 34.77C7.83013 34.77 3.26013 34.48 2.35013 26.86C2.95013 19.29 7.89013 19.04 7.89013 19.04H45.3901C45.3901 19.04 45.7001 7.29 45.8401 6.01C45.9401 5.07 46.3401 4.95 46.5401 4.95C46.6101 4.95 46.6601 4.97 46.6601 4.97H47.2801C47.2801 4.87 47.3001 4.74 47.3301 4.6C45.7001 4.79 44.4501 4.85 43.5201 4.85C41.8701 4.85 41.2101 4.66 41.2101 4.66C41.2101 4.66 39.7001 4.33 40.8901 3.98C41.0601 3.93 41.2401 3.89 41.4201 3.87C42.4401 3.75 43.3701 3.71 44.1901 3.71C45.7601 3.71 46.9401 3.87 47.5401 3.98C47.8901 3.1 48.5101 2.06 48.8901 2.01C48.8901 2.01 48.9001 2.01 48.9101 2.01C48.9101 2.01 48.9201 2.01 48.9301 2.01M48.8901 0C48.8901 0 48.8801 0 48.8701 0C48.8701 0 48.8601 0 48.8501 0C48.6201 0 48.4101 0.04 48.2001 0.11C47.5101 0.33 46.8801 0.9 46.3301 1.81C45.7101 1.75 44.9701 1.71 44.1401 1.71C43.1501 1.71 42.1301 1.77 41.1301 1.89C40.8301 1.93 40.5401 1.98 40.2701 2.07C38.4601 2.61 38.3701 3.95 38.3901 4.35C38.4101 5.01 38.7501 6.17 40.7001 6.61C41.0101 6.69 41.8601 6.85 43.4801 6.85C43.5701 6.85 43.6501 6.85 43.7401 6.85C43.6301 9.14 43.4801 14.19 43.4001 17.04H7.86013C7.86013 17.04 7.79013 17.04 7.76013 17.04C5.45013 17.15 0.910128 19.32 0.330128 26.7C0.320128 26.83 0.330128 26.96 0.330128 27.09C1.45013 36.5 7.77013 36.77 8.48013 36.77C8.51013 36.77 8.54013 36.77 8.57013 36.77L23.9101 37.3C23.9101 37.3 23.9601 37.3 23.9801 37.3H43.5401C43.7601 41.57 44.1701 47.67 44.8701 51.3C42.5701 51.63 38.4901 52.55 35.3301 55.02C32.7401 56.8 31.5101 58.76 31.7001 60.86C31.9801 64.15 35.6901 65.91 36.1101 66.1C36.1501 66.12 36.1901 66.13 36.2301 66.15C36.3701 66.2 39.7701 67.46 44.4301 67.54C44.4401 67.54 44.4501 67.54 44.4601 67.54C44.4801 67.54 44.4901 67.54 44.5101 67.54C45.2701 67.52 45.9201 67.32 46.4501 67.04C46.6801 68.43 47.6201 69.35 48.8501 69.35C50.0801 69.35 51.0301 68.43 51.2501 67.04C51.7801 67.32 52.4301 67.52 53.1901 67.54C53.2101 67.54 53.2201 67.54 53.2401 67.54C53.2501 67.54 53.2601 67.54 53.2701 67.54C57.9301 67.46 61.3301 66.2 61.4701 66.15C61.5101 66.13 61.5501 66.12 61.5901 66.1C62.0101 65.91 65.7201 64.15 66.0001 60.86C66.1801 58.76 64.9601 56.79 62.3701 55.02C59.2101 52.54 55.1301 51.63 52.8301 51.3C53.5301 47.68 53.9401 41.58 54.1601 37.3H73.7201C73.7201 37.3 73.7701 37.3 73.7901 37.3L89.1301 36.77C89.1301 36.77 89.1801 36.77 89.2201 36.77C89.9401 36.77 96.2601 36.5 97.3701 27.09C97.3901 26.96 97.3901 26.83 97.3701 26.7C96.7801 19.32 92.2501 17.16 89.9401 17.04C89.9101 17.04 89.8701 17.04 89.8401 17.04H54.2901C54.2101 14.19 54.0601 9.14 53.9501 6.85C54.0401 6.85 54.1201 6.85 54.2101 6.85C55.8301 6.85 56.6801 6.68 56.9901 6.61C58.9401 6.17 59.2701 5.01 59.3001 4.35C59.3101 3.95 59.2201 2.61 57.4201 2.07C57.1501 1.99 56.8601 1.93 56.5601 1.89C55.5601 1.77 54.5501 1.71 53.5501 1.71C52.7201 1.71 51.9801 1.75 51.3601 1.81C50.8101 0.89 50.1801 0.32 49.4801 0.1C49.2801 0.03 49.0701 0 48.8501 0H48.8901Z" fill="black"/>
</g>
<defs>
<clipPath id="clip0_548_17">
<rect width="97.1" height="69.35" fill="white" transform="translate(0.320068)"/>
</clipPath>
</defs>
</svg>
