<svg width="252" height="277" viewBox="0 0 252 277" fill="none" xmlns="http://www.w3.org/2000/svg">
<g clip-path="url(#clip0_496_35)">
<path d="M125.77 275.96C124 275.95 123.07 274.12 122.8 273.04L120.08 260.15C114.39 259.2 77.3998 253.03 75.4698 252.65C73.1998 252.2 72.7398 250.8 72.8098 250.03L72.8398 245.78C72.8698 241.34 76.5398 239.44 78.4698 239.06C78.8398 239.01 107.99 234.88 114.44 233.95C112.79 228.98 113.09 219.93 113.1 219.51L113.53 147.62L89.4698 145.84C89.0398 147.38 87.7698 149.28 84.9398 149.28C81.8998 149.26 80.7298 146.9 80.4298 145.12C71.6998 144.46 5.13983 139.44 3.64983 139.31C2.95983 139.25 2.37983 138.96 1.97983 138.46C1.32983 137.66 1.35983 136.59 1.37983 136.3L1.42983 127.05C1.43983 124.74 3.57983 123.58 4.83983 123.26C4.88983 123.25 4.94983 123.24 4.99983 123.23L78.3598 116.91C78.1698 113.59 77.7098 102.74 79.4798 94.52C78.3798 94.57 77.2598 94.6 76.1298 94.6C72.4898 94.6 68.9798 94.32 65.7098 93.77C64.9598 93.65 64.4298 93 64.4398 92.25C64.4398 91.49 64.9998 90.86 65.7398 90.75C68.3198 90.37 71.0498 90.18 73.8598 90.18C76.6698 90.18 78.9498 90.36 80.6198 90.55C81.3398 88.62 82.2298 87.13 83.2698 86.11C83.7298 85.66 84.3398 85.41 84.9898 85.41C85.6398 85.41 86.2098 85.65 86.6698 86.07C87.7598 87.09 88.6798 88.61 89.4198 90.57C90.8398 90.44 92.7998 90.31 95.0598 90.31C98.1298 90.31 101.11 90.54 103.91 90.99C104.66 91.11 105.2 91.75 105.2 92.5C105.2 93.26 104.66 93.89 103.91 94.01C100.88 94.48 97.6498 94.72 94.3098 94.72C93.0598 94.72 91.8198 94.69 90.5898 94.62C92.2198 102.3 91.8198 112.14 91.6198 115.5L113.3 113.72L113.78 32.58C113.91 10.89 123.11 1.26001 126.58 1.26001C130.05 1.26001 139.22 10.91 139.22 32.66V113.8L160.89 115.71C160.71 112.34 160.37 102.51 162.04 94.84C160.95 94.89 159.84 94.92 158.73 94.92C155.24 94.92 151.87 94.66 148.72 94.15C147.97 94.03 147.43 93.39 147.44 92.63C147.44 91.87 147.99 91.24 148.73 91.12C151.42 90.71 154.27 90.5 157.21 90.5C159.62 90.5 161.71 90.64 163.22 90.79C163.97 88.83 164.91 87.33 166 86.31C166.45 85.89 167.04 85.66 167.67 85.66C168.33 85.66 168.94 85.91 169.4 86.37C170.43 87.4 171.31 88.9 172.02 90.83C173.61 90.66 175.83 90.5 178.42 90.5C181.36 90.5 184.21 90.71 186.9 91.12C187.65 91.24 188.19 91.87 188.19 92.63C188.19 93.39 187.65 94.03 186.91 94.15C183.76 94.66 180.39 94.92 176.9 94.92C175.63 94.92 174.37 94.89 173.13 94.82C174.85 103.05 174.33 113.9 174.12 117.22L247.44 123.98C247.49 123.98 247.55 123.99 247.6 124.01C248.86 124.34 250.99 125.51 250.99 127.82V137.07C251.01 137.36 251.04 138.43 250.38 139.23C249.97 139.72 249.4 140.01 248.71 140.07C247.23 140.19 180.63 144.82 171.9 145.43C171.59 147.22 170.41 149.57 167.4 149.57C164.39 149.57 163.28 147.66 162.85 146.11L138.78 147.75V219.67C138.79 220.06 139.04 229.12 137.36 234.07C143.81 235.04 172.92 239.34 173.25 239.39C175.24 239.79 178.9 241.71 178.9 246.15V250.4C178.97 251.17 178.5 252.57 176.23 253C174.3 253.37 137.27 259.32 131.57 260.23L128.78 273.07C128.5 274.18 127.56 276.01 125.79 276.01L125.77 275.96Z" fill="white"/>
<path d="M126.57 2.25C129.57 2.25 138.2 11.77 138.2 32.65V114.71L161.94 116.8C161.94 116.8 160.9 102.99 163.31 93.75C162.09 93.83 160.52 93.9 158.72 93.9C155.88 93.9 152.45 93.72 148.87 93.15C148.28 93.05 148.28 92.19 148.87 92.1C151.84 91.64 154.7 91.49 157.2 91.49C159.96 91.49 162.3 91.68 163.88 91.86C164.58 89.83 165.48 88.14 166.67 87.04C166.95 86.78 167.3 86.65 167.66 86.65C168.03 86.65 168.4 86.79 168.68 87.07C169.8 88.19 170.66 89.88 171.32 91.91C172.9 91.72 175.39 91.5 178.4 91.5C180.9 91.5 183.76 91.65 186.73 92.11C187.32 92.2 187.33 93.06 186.73 93.16C183.15 93.74 179.72 93.91 176.88 93.91C174.85 93.91 173.11 93.82 171.84 93.72C174.24 103.35 173.04 118.1 173.04 118.1L247.33 124.95C247.33 124.95 249.97 125.63 249.97 127.79V137.08C249.97 137.08 250.17 138.91 248.6 139.04C247.03 139.17 170.96 144.45 170.96 144.45C170.96 144.45 170.89 148.53 167.37 148.53C163.85 148.53 163.65 145.01 163.65 145.01L137.75 146.77V219.63C137.75 219.63 138.08 230.52 135.92 234.83C137.03 235.03 173.07 240.34 173.07 240.34C173.07 240.34 177.86 241.32 177.86 246.11V250.41C177.86 250.41 178.06 251.58 176 251.98C173.95 252.37 130.7 259.32 130.7 259.32L127.76 272.82C127.76 272.82 127.21 274.97 125.74 274.97C124.27 274.97 123.74 272.81 123.74 272.81L120.88 259.29C120.88 259.29 77.6796 252.09 75.6196 251.68C73.5696 251.28 73.7696 250.1 73.7696 250.1C73.7696 250.01 73.7696 249.38 73.7996 245.8C73.8296 241.01 78.6296 240.06 78.6296 240.06C78.6296 240.06 114.7 234.96 115.81 234.77C113.68 230.45 114.07 219.56 114.07 219.56L114.5 146.7L88.6196 144.79C88.6196 144.79 88.3996 148.29 84.9096 148.29C84.8996 148.29 84.8896 148.29 84.8796 148.29C81.3596 148.27 81.3196 144.19 81.3196 144.19C81.3196 144.19 5.27956 138.46 3.71956 138.32C2.15956 138.18 2.35956 136.36 2.35956 136.36C2.35956 136.36 2.39956 129.22 2.41956 127.07C2.42956 124.92 5.07956 124.25 5.07956 124.25L79.4096 117.84C79.4096 117.84 78.2896 103.08 80.7496 93.46C79.5596 93.54 77.9696 93.62 76.1196 93.62C73.1996 93.62 69.6096 93.44 65.8596 92.81C65.2696 92.71 65.2796 91.85 65.8696 91.76C68.6996 91.34 71.4296 91.2 73.8396 91.2C77.0096 91.2 79.6396 91.45 81.2796 91.66C81.9496 89.64 82.8196 87.95 83.9496 86.84C84.2296 86.56 84.5996 86.42 84.9696 86.42C85.3296 86.42 85.6796 86.55 85.9596 86.81C87.1396 87.92 88.0396 89.62 88.7196 91.65C90.2396 91.49 92.4396 91.32 95.0396 91.32C97.6296 91.32 100.61 91.48 103.73 91.98C104.32 92.07 104.32 92.94 103.73 93.03C100.32 93.56 97.0396 93.73 94.2796 93.73C92.2996 93.73 90.5896 93.65 89.2796 93.55C91.6296 102.8 90.5096 116.61 90.5096 116.61L114.26 114.66C114.26 114.66 114.62 53.48 114.75 32.61C114.87 11.76 123.54 2.28 126.55 2.28M126.57 0.25C121.82 0.25 112.9 11.35 112.77 32.56L112.29 112.78L92.6596 114.39C92.8496 110.49 93.0196 102.47 91.7996 95.65C92.6296 95.68 93.4596 95.69 94.2996 95.69C97.6996 95.69 100.98 95.45 104.06 94.97C105.3 94.78 106.2 93.73 106.2 92.48C106.2 91.23 105.31 90.17 104.07 89.98C101.22 89.52 98.1896 89.29 95.0696 89.29C93.1496 89.29 91.4396 89.38 90.0796 89.49C89.3296 87.71 88.4296 86.34 87.3596 85.32C86.7196 84.72 85.8796 84.38 84.9996 84.38C84.0896 84.38 83.2296 84.73 82.5796 85.37C81.5596 86.38 80.6996 87.72 79.9796 89.45C78.3596 89.29 76.2596 89.15 73.8696 89.15C71.0096 89.15 68.2296 89.35 65.5996 89.74C64.3596 89.92 63.4596 90.97 63.4396 92.22C63.4296 93.47 64.3196 94.53 65.5496 94.74C68.8796 95.3 72.4396 95.58 76.1396 95.58C76.8496 95.58 77.5596 95.57 78.2596 95.55C76.8896 103 77.1196 112.04 77.3196 115.98L4.92956 122.22C4.81956 122.22 4.71956 122.25 4.60956 122.27C3.06956 122.66 0.459559 124.1 0.439559 127.02L0.389559 136.24C0.359559 136.72 0.359559 138.02 1.21956 139.07C1.79956 139.78 2.60956 140.2 3.56956 140.28C5.01956 140.41 68.4496 145.19 79.6296 146.04C80.2196 148.12 81.8296 150.24 84.8996 150.26C87.7596 150.26 89.3996 148.61 90.1496 146.88L112.52 148.53L112.1 219.49C112.06 220.59 111.86 228.05 113.16 233.11C106.36 234.09 86.7396 236.87 78.3796 238.05C78.3396 238.05 78.3096 238.06 78.2696 238.07C76.0596 238.51 71.8596 240.68 71.8296 245.76L71.7996 249.98C71.7196 251.11 72.3496 253.04 75.2596 253.62C77.1396 253.99 111.78 259.77 119.23 261.01L121.8 273.19C121.8 273.19 121.81 273.24 121.82 273.26C122.27 275.08 123.66 276.93 125.75 276.94C127.85 276.94 129.25 275.1 129.72 273.28C129.72 273.26 129.73 273.23 129.74 273.21L132.39 261.04C139.85 259.84 174.52 254.27 176.4 253.91C179.32 253.35 179.95 251.43 179.88 250.3V246.08C179.88 241 175.7 238.8 173.49 238.35C173.45 238.35 173.42 238.34 173.38 238.33C165.03 237.1 145.42 234.2 138.63 233.18C139.96 228.12 139.8 220.66 139.77 219.57V148.61L162.15 147.09C162.89 148.84 164.53 150.5 167.39 150.5C170.47 150.5 172.08 148.39 172.69 146.31C183.88 145.53 247.33 141.12 248.78 141C249.74 140.92 250.56 140.51 251.14 139.8C252 138.76 252.01 137.45 251.98 136.97V127.75C251.98 124.83 249.38 123.38 247.84 122.98C247.74 122.95 247.63 122.93 247.52 122.92L175.17 116.25C175.39 112.31 175.67 103.28 174.35 95.82C175.19 95.85 176.04 95.87 176.9 95.87C180.45 95.87 183.87 95.61 187.07 95.09C188.3 94.89 189.2 93.84 189.19 92.58C189.19 91.33 188.28 90.28 187.05 90.09C184.31 89.67 181.41 89.45 178.42 89.45C176.18 89.45 174.21 89.57 172.68 89.71C171.97 87.97 171.12 86.62 170.11 85.61C169.46 84.96 168.59 84.6 167.67 84.6C166.79 84.6 165.96 84.93 165.32 85.52C164.24 86.53 163.33 87.89 162.57 89.67C161.13 89.55 159.29 89.44 157.21 89.44C154.22 89.44 151.31 89.65 148.58 90.08C147.34 90.27 146.44 91.32 146.44 92.57C146.44 93.82 147.33 94.88 148.56 95.08C151.76 95.6 155.19 95.86 158.73 95.86C159.42 95.86 160.12 95.85 160.81 95.83C159.54 102.63 159.67 110.66 159.84 114.56L140.22 112.84V32.65C140.21 11.38 131.33 0.25 126.58 0.25V2.25L126.57 0.25Z" fill="black"/>
</g>
<defs>
<clipPath id="clip0_496_35">
<rect width="251.6" height="276.71" fill="white" transform="translate(0.379883 0.25)"/>
</clipPath>
</defs>
</svg>
