<svg width="122" height="96" viewBox="0 0 122 96" fill="none" xmlns="http://www.w3.org/2000/svg">
<g clip-path="url(#clip0_294_30)">
<path d="M40.35 94.66C39.45 94.66 38.71 93.93 38.7 93.03L38.66 88.48C38.64 85.8 40.21 84.81 40.69 84.58L56.43 74.43C56.35 74.11 56.26 73.71 56.19 73.24C56.05 72.31 56.36 71.78 56.68 71.47C55.27 66.28 54.21 60.54 53.57 57.04C53.42 56.22 53.29 55.54 53.2 55.05C52.93 53.65 51.92 53.45 51.34 53.45C51.32 53.45 51.23 53.45 51.21 53.45L2.95 52.46C1.89 52.44 1.04 51.59 1.03 50.52L1 47.47C0.920001 38.91 5.23 37.74 5.41 37.69C5.46 37.68 5.51 37.67 5.56 37.67L51.43 33.31L51.39 28.47C51.35 24.24 52.36 17.47 53.85 12.01C55.83 4.74001 58.16 1.04001 60.79 1.01001C66.92 1.01001 70.45 21.79 70.45 28.39V33.23L116.36 37.17C116.36 37.17 116.46 37.18 116.51 37.19C116.69 37.23 121.01 38.36 121.01 46.93V49.98C121.01 51.04 120.18 51.9 119.11 51.94C119.11 51.94 70.86 53.37 70.85 53.37C70.83 53.37 70.75 53.37 70.74 53.37C70.27 53.37 69.16 53.53 68.89 54.99C68.8 55.48 68.68 56.16 68.54 56.99C67.93 60.49 66.93 66.25 65.56 71.45C65.89 71.76 66.2 72.28 66.07 73.21C66 73.68 65.92 74.08 65.84 74.4L81.67 84.4C82.15 84.63 83.73 85.6 83.73 88.28V92.83C83.73 93.74 82.99 94.48 82.08 94.48C81.91 94.48 81.74 94.45 81.58 94.4L63.04 88.5C62.94 89.74 62.57 92.05 61.21 92.05C59.85 92.05 59.47 89.74 59.36 88.51L40.87 94.58C40.7 94.63 40.53 94.66 40.35 94.66Z" fill="white"/>
<path d="M60.79 2C65.46 2 69.44 20.42 69.44 28.38V33.68C69.44 33.94 69.64 34.16 69.9 34.18L116.27 38.16C116.27 38.16 120 39.05 120 46.92V49.97C120 50.49 119.59 50.91 119.07 50.93L70.82 52.36C70.82 52.36 70.79 52.36 70.74 52.36C70.31 52.36 68.34 52.49 67.9 54.8C67.41 57.4 66.2 65.27 64.41 71.84C64.49 72.08 65.22 71.96 65.07 73.06C64.92 74.16 64.64 74.83 64.64 74.83L81.18 85.28C81.18 85.28 82.72 85.85 82.72 88.28V92.83C82.72 93.2 82.42 93.48 82.07 93.48C82.01 93.48 81.94 93.48 81.87 93.45L62.83 87.39C62.83 87.39 62.62 87.27 62.42 87.27C62.24 87.27 62.06 87.37 62.06 87.76C62.06 88.57 61.68 91.06 61.2 91.06C60.71 91.06 60.31 88.58 60.31 87.77C60.31 87.39 60.13 87.29 59.95 87.29C59.75 87.29 59.53 87.42 59.53 87.42L40.55 93.66C40.48 93.68 40.41 93.69 40.35 93.69C40.01 93.69 39.71 93.41 39.7 93.05L39.66 88.5C39.64 86.07 41.17 85.48 41.17 85.48L57.61 74.88C57.61 74.88 57.33 74.21 57.17 73.12C57.01 72.03 57.74 72.14 57.82 71.9C55.97 65.34 54.69 57.48 54.17 54.89C53.72 52.62 51.8 52.48 51.33 52.48C51.26 52.48 51.23 52.48 51.23 52.48L2.97 51.49C2.45 51.48 2.04 51.06 2.03 50.54L2 47.49C1.93 39.62 5.65 38.69 5.65 38.69L51.98 34.29C52.24 34.27 52.44 34.05 52.43 33.79L52.38 28.49C52.31 20.54 56.12 2.08 60.79 2.04M60.79 0C60.79 0 60.78 0 60.77 0C57.6 0.03 55.02 3.87 52.88 11.74C51.37 17.29 50.35 24.17 50.38 28.48L50.42 32.41L5.46 36.68C5.36 36.68 5.26 36.71 5.17 36.73C4.63 36.86 -0.0799997 38.3 2.87429e-07 47.49L0.0300003 50.54C0.0400003 52.15 1.32 53.44 2.93 53.47L51.19 54.46C51.24 54.46 51.26 54.46 51.29 54.46C51.32 54.46 51.34 54.46 51.39 54.46C52.06 54.46 52.17 54.98 52.22 55.26C52.32 55.75 52.44 56.42 52.59 57.24C53.21 60.64 54.23 66.17 55.59 71.27C55.11 72.02 55.13 72.86 55.21 73.4C55.24 73.61 55.27 73.8 55.31 73.98L40.23 83.7C39.17 84.22 37.65 85.7 37.68 88.49L37.72 93.04C37.73 94.49 38.92 95.66 40.37 95.66C40.65 95.66 40.93 95.62 41.2 95.53L58.54 89.83C58.83 91.33 59.54 93.04 61.23 93.04C62.92 93.04 63.63 91.32 63.91 89.81L81.3 95.35C81.56 95.43 81.83 95.48 82.1 95.48C83.56 95.48 84.75 94.29 84.75 92.83V88.28C84.75 85.49 83.22 84.02 82.15 83.51L66.98 73.92C67.01 73.74 67.05 73.54 67.08 73.34C67.16 72.79 67.16 71.95 66.68 71.21C67.99 66.1 68.95 60.57 69.55 57.16C69.69 56.34 69.81 55.66 69.9 55.18C69.95 54.92 70.05 54.37 70.77 54.37C70.81 54.37 70.82 54.37 70.83 54.37C70.84 54.37 70.85 54.37 70.91 54.37L119.16 52.94C120.77 52.89 122.03 51.59 122.03 49.99V46.94C122.03 37.76 117.3 36.36 116.76 36.23C116.66 36.21 116.56 36.19 116.47 36.18L71.47 32.32V28.39C71.47 24.08 70.38 17.21 68.82 11.68C66.61 3.83 63.99 0.02 60.82 0.02L60.79 0Z" fill="black"/>
</g>
<defs>
<clipPath id="clip0_294_30">
<rect width="122" height="95.66" fill="white"/>
</clipPath>
</defs>
</svg>
