<svg width="416" height="1275" viewBox="0 0 416 1275" fill="none" xmlns="http://www.w3.org/2000/svg">
<g clip-path="url(#clip0_80_48)">
<path d="M207.55 6C130.61 6 84.5298 153.15 84.5298 153.15C84.5298 153.15 34.5598 268.96 34.5598 537.08C34.5598 805.2 92.3698 1067.14 92.3698 1067.14C92.3698 1067.14 45.8698 1080.13 26.6298 1085.48C7.38976 1090.83 6.00977 1113.24 6.00977 1113.24V1175.41C6.00977 1193.06 21.1798 1193.42 21.1798 1193.42C21.1798 1193.42 93.5998 1193.22 116.1 1193.22C138.6 1193.22 131.67 1173.39 131.67 1173.39C131.67 1173.39 126.38 1162.55 122.05 1154.35C118.91 1148.4 120.62 1147.98 120.62 1147.98L128.92 1163.37C128.92 1163.37 153.44 1215.33 179.19 1252.81C191.96 1271.4 207.55 1268.87 207.55 1268.87C207.55 1268.87 223.14 1271.4 235.91 1252.81C261.66 1215.33 286.18 1163.37 286.18 1163.37L294.48 1147.98C294.48 1147.98 296.19 1148.4 293.05 1154.35C288.72 1162.55 283.43 1173.39 283.43 1173.39C283.43 1173.39 276.49 1193.22 299 1193.22C321.51 1193.22 393.92 1193.42 393.92 1193.42C393.92 1193.42 409.09 1193.06 409.09 1175.41V1113.24C409.09 1113.24 407.7 1090.83 388.47 1085.48C369.23 1080.13 322.73 1067.14 322.73 1067.14C322.73 1067.14 380.54 805.19 380.54 537.08C380.54 268.97 330.57 153.15 330.57 153.15C330.57 153.15 284.5 6 207.55 6Z" fill="white"/>
<path d="M207.55 6C284.49 6 330.57 153.15 330.57 153.15C330.57 153.15 380.54 268.96 380.54 537.08C380.54 805.2 322.73 1067.14 322.73 1067.14C322.73 1067.14 369.23 1080.13 388.47 1085.48C407.71 1090.83 409.09 1113.24 409.09 1113.24V1175.41C409.09 1193.06 393.92 1193.42 393.92 1193.42C393.92 1193.42 321.5 1193.22 299 1193.22C276.5 1193.22 283.43 1173.39 283.43 1173.39C283.43 1173.39 288.72 1162.55 293.05 1154.35C296.19 1148.4 294.48 1147.98 294.48 1147.98L286.18 1163.37C286.18 1163.37 261.66 1215.33 235.91 1252.81C225.87 1267.43 214.08 1268.99 209.51 1268.99C208.27 1268.99 207.56 1268.87 207.56 1268.87C207.56 1268.87 206.85 1268.99 205.61 1268.99C201.03 1268.99 189.25 1267.43 179.21 1252.81C153.46 1215.33 128.94 1163.37 128.94 1163.37L120.64 1147.98C120.64 1147.98 118.93 1148.4 122.07 1154.35C126.4 1162.55 131.69 1173.39 131.69 1173.39C131.69 1173.39 138.63 1193.22 116.12 1193.22C93.61 1193.22 21.2 1193.42 21.2 1193.42C21.2 1193.42 6.03 1193.06 6.03 1175.41V1113.24C6.03 1113.24 7.42 1090.83 26.65 1085.48C45.89 1080.13 92.39 1067.14 92.39 1067.14C92.39 1067.14 34.58 805.19 34.58 537.08C34.58 268.97 84.55 153.15 84.55 153.15C84.55 153.15 130.62 6 207.57 6M207.55 0C188.46 0 169.71 8.26 151.83 24.56C137.98 37.18 124.57 54.69 111.99 76.59C91.52 112.23 80.11 147.28 78.9 151.07C77.47 154.46 65.62 183.62 53.66 243.4C42.21 300.66 28.56 398.09 28.56 537.08C28.56 676.07 44.31 813 57.53 903.52C69.48 985.37 81.57 1045.01 85.33 1062.88C72.5 1066.46 40.24 1075.47 25.03 1079.71C1.93 1086.13 0.08 1111.78 0.01 1112.87C0.01 1112.99 0 1113.12 0 1113.24V1175.41C0 1187.32 5.7 1193.27 10.48 1196.17C15.49 1199.21 20.48 1199.41 21.03 1199.42C21.08 1199.42 21.12 1199.42 21.17 1199.42H21.19C21.91 1199.42 93.86 1199.22 116.1 1199.22C125.06 1199.22 131.54 1196.5 135.34 1191.14C135.49 1190.92 135.64 1190.71 135.78 1190.49C145.46 1209.12 159.7 1235.04 174.25 1256.22C185.89 1273.17 200.05 1275 205.6 1275C206.4 1275 207.06 1274.96 207.55 1274.92C208.04 1274.96 208.7 1275 209.5 1275C215.05 1275 229.2 1273.17 240.85 1256.22C255.39 1235.05 269.64 1209.12 279.32 1190.49C279.46 1190.71 279.61 1190.93 279.76 1191.14C283.57 1196.5 290.04 1199.22 299 1199.22C321.24 1199.22 393.18 1199.42 393.91 1199.42H393.93C393.93 1199.42 394.02 1199.42 394.07 1199.42C394.62 1199.41 399.61 1199.2 404.62 1196.17C409.4 1193.28 415.1 1187.32 415.1 1175.41V1113.24C415.1 1113.12 415.1 1112.99 415.09 1112.87C415.02 1111.78 413.17 1086.12 390.09 1079.7C374.88 1075.47 342.62 1066.46 329.79 1062.87C333.55 1044.99 345.64 985.36 357.59 903.51C370.8 812.98 386.56 675.93 386.56 537.07C386.56 398.21 372.91 300.65 361.46 243.39C349.51 183.62 337.65 154.45 336.22 151.06C335.01 147.27 323.61 112.21 303.13 76.58C290.55 54.68 277.14 37.18 263.29 24.55C245.39 8.26 226.64 0 207.55 0Z" fill="black"/>
</g>
<defs>
<clipPath id="clip0_80_48">
<rect width="415.1" height="1275" fill="white"/>
</clipPath>
</defs>
</svg>
