<svg width="83" height="77" viewBox="0 0 83 77" fill="none" xmlns="http://www.w3.org/2000/svg">
<g clip-path="url(#clip0_693_3)">
<path d="M27.52 75.1298C26.61 75.1298 25.87 74.3898 25.87 73.4798V65.5998C25.87 61.2798 30.33 59.4498 30.52 59.3798C30.56 59.3698 30.59 59.3498 30.63 59.3398C33.96 58.4398 37.83 57.3898 39.38 56.9898C39.06 54.2198 37.18 38.1898 37.01 36.9198C36.9 36.0898 36.56 34.9698 36.35 34.3198H13.73C8.98 34.3198 3.39 33.4798 2.5 33.2598C1.41 32.9898 0.959997 32.0698 0.999997 31.3298V30.5298C0.999997 26.8198 3.52 23.7498 8.3 21.6698C10.63 20.6498 13.17 20.0398 15.84 19.8398L32.14 18.6298C32.59 18.5998 33.04 18.5498 33.49 18.4798C35.4 18.1998 36.18 18.0098 36.34 17.9398C36.34 17.9398 36.39 17.9098 36.54 17.5598C36.77 17.0098 36.9 16.3898 36.93 15.7398C36.97 14.6798 37.19 9.34977 37.24 8.46977C37.28 7.85977 37.47 7.30977 37.67 6.88977H37.64C36.2 6.88977 34.73 6.77977 34.45 6.75977C33.31 6.66977 32.69 6.25977 32.62 5.52977C32.58 5.13977 32.71 4.42977 33.97 4.07977C34.03 4.05977 34.08 4.04977 34.14 4.04977C36.45 3.81977 38.27 3.76977 39.39 3.76977C39.66 2.68977 40.29 1.00977 41.49 1.00977C42.69 1.00977 43.31 2.68977 43.59 3.76977C44.71 3.76977 46.53 3.81977 48.84 4.04977C48.9 4.04977 48.95 4.06977 49.01 4.07977C50.27 4.42977 50.39 5.13977 50.36 5.52977C50.29 6.24977 49.67 6.66977 48.53 6.75977C48.25 6.77977 46.78 6.88977 45.34 6.88977H45.31C45.51 7.30977 45.71 7.85977 45.75 8.46977C45.79 9.17977 45.95 12.8198 46.06 15.7398C46.09 16.3898 46.22 16.9998 46.45 17.5598C46.6 17.9098 46.65 17.9398 46.68 17.9598C46.81 18.0098 47.59 18.1998 49.51 18.4898C49.96 18.5598 50.41 18.6098 50.86 18.6398L67.16 19.8498C69.83 20.0498 72.37 20.6598 74.7 21.6798C79.48 23.7598 82 26.8198 82 30.5398V31.3998C82.04 32.0898 81.59 33.0098 80.5 33.2798C79.61 33.4998 74.02 34.3398 69.27 34.3398H46.64C46.43 34.9798 46.09 36.0998 45.98 36.9398C45.81 38.2098 43.93 54.2498 43.61 57.0098C45.16 57.4098 49.03 58.4598 52.36 59.3598C52.4 59.3698 52.43 59.3798 52.47 59.3998C52.66 59.4798 57.12 61.3098 57.12 65.6198V73.4998C57.12 74.4098 56.38 75.1498 55.47 75.1498H27.51L27.52 75.1298Z" fill="white"/>
<path d="M41.4999 2C41.9999 2 42.6399 3.59 42.7899 4.77C42.9299 4.77 43.1999 4.76 43.5799 4.76C44.5899 4.76 46.4099 4.8 48.7499 5.04C49.6999 5.3 49.5299 5.67 48.4599 5.75C47.9299 5.79 46.6099 5.88 45.3399 5.88C44.5799 5.88 43.8299 5.85 43.2999 5.75C43.7999 6.31 44.0199 6.66 44.0199 6.66C44.0199 6.66 44.6799 7.51 44.7399 8.52C44.7899 9.32 44.9799 13.89 45.0499 15.77C45.0799 16.51 45.2299 17.25 45.5199 17.94C45.7099 18.39 45.8699 18.65 46.1999 18.83C46.5799 19.03 48.3199 19.31 49.3499 19.47C49.8199 19.54 50.2999 19.59 50.7699 19.63L67.0699 20.84C69.5499 21.02 71.9999 21.59 74.2899 22.59C77.4899 23.99 80.9899 26.44 80.9899 30.53V31.39C80.9899 31.39 81.0299 32.1 80.2499 32.29C79.4699 32.48 73.9899 33.32 69.2599 33.32H46.5399C46.1599 33.32 45.8299 33.56 45.7099 33.92C45.4699 34.64 45.1099 35.85 44.9799 36.78C44.7899 38.19 42.5599 57.27 42.5599 57.27C42.5599 57.27 42.4999 57.76 42.7699 57.81C43.0399 57.85 52.0899 60.3 52.0899 60.3C52.0899 60.3 56.1099 61.91 56.1099 65.6V73.48C56.1099 73.84 55.8199 74.13 55.4599 74.13H27.4999C27.1399 74.13 26.8499 73.84 26.8499 73.48V65.6C26.8499 61.91 30.8699 60.3 30.8699 60.3C30.8699 60.3 39.9199 57.85 40.1899 57.81C40.4599 57.77 40.3999 57.27 40.3999 57.27C40.3999 57.27 38.1699 38.19 37.9799 36.78C37.8599 35.85 37.4899 34.64 37.2499 33.92C37.1299 33.56 36.7999 33.32 36.4199 33.32H13.7299C8.99989 33.32 3.51989 32.48 2.73989 32.29C1.95989 32.1 1.99989 31.39 1.99989 31.39V30.53C1.99989 26.44 5.49989 23.98 8.69989 22.59C10.9799 21.6 13.4299 21.03 15.9199 20.84L32.2199 19.63C32.6999 19.59 33.1699 19.54 33.6399 19.47C34.6699 19.32 36.4199 19.04 36.7899 18.83C37.1199 18.65 37.2799 18.39 37.4699 17.94C37.7599 17.25 37.9099 16.52 37.9399 15.77C38.0199 13.89 38.1999 9.32 38.2499 8.52C38.3099 7.51 38.9699 6.66 38.9699 6.66C38.9699 6.66 39.1799 6.31 39.6899 5.75C39.1599 5.84 38.4199 5.88 37.6499 5.88C36.3899 5.88 35.0599 5.79 34.5299 5.75C33.4599 5.67 33.2899 5.3 34.2399 5.04C36.5699 4.81 38.3899 4.76 39.4099 4.76C39.7999 4.76 40.0699 4.76 40.1999 4.77C40.3499 3.59 40.9899 2 41.4899 2M41.4999 0C39.9199 0 39.0699 1.49 38.6399 2.77C37.4999 2.79 35.9399 2.86 34.0499 3.05C33.9399 3.06 33.8199 3.08 33.7099 3.11C31.6199 3.69 31.5899 5.18 31.6399 5.62C31.6999 6.2 32.0799 7.57 34.3899 7.75C34.5899 7.77 35.3699 7.82 36.3299 7.86C36.2999 8.04 36.2699 8.22 36.2599 8.41C36.2099 9.23 36.0199 13.78 35.9399 15.71C35.9199 16.21 35.8199 16.68 35.6599 17.1C35.2699 17.19 34.5399 17.32 33.3499 17.5C32.9299 17.56 32.4999 17.61 32.0699 17.64L15.7699 18.85C12.9899 19.06 10.3399 19.7 7.89989 20.76C1.36989 23.6 -0.000111249 27.64 -0.000111249 30.53V31.35C-0.0301112 32.52 0.719889 33.86 2.25989 34.23C3.29989 34.48 8.90989 35.32 13.7199 35.32H35.6199C35.8299 36.02 35.9699 36.62 36.0299 37.05C36.1899 38.22 37.7899 51.96 38.2899 56.24C37.0099 56.58 34.6699 57.2 30.3699 58.37C30.2999 58.39 30.2199 58.41 30.1499 58.44C28.1899 59.22 24.8699 61.61 24.8699 65.59V73.47C24.8699 74.93 26.0599 76.12 27.5199 76.12H55.4799C56.9399 76.12 58.1299 74.93 58.1299 73.47V65.59C58.1299 61.61 54.8099 59.22 52.8499 58.44C52.7799 58.41 52.6999 58.39 52.6299 58.37C48.3299 57.21 45.9899 56.58 44.7099 56.24C45.2099 51.93 46.8199 38.21 46.9699 37.05C47.0299 36.63 47.1699 36.02 47.3799 35.32H69.2799C74.0999 35.32 79.6999 34.49 80.7399 34.23C82.2799 33.86 83.0299 32.51 82.9999 31.35V30.53C82.9999 27.64 81.6299 23.6 75.0999 20.76C72.6599 19.7 70.0199 19.06 67.2299 18.85L50.9299 17.64C50.4999 17.61 50.0699 17.56 49.6499 17.5C48.4599 17.32 47.7299 17.19 47.3399 17.1C47.1699 16.68 47.0799 16.21 47.0599 15.71C46.9799 13.79 46.7899 9.23 46.7399 8.41C46.7299 8.22 46.7099 8.04 46.6699 7.86C47.6199 7.83 48.4099 7.77 48.6099 7.75C50.9199 7.57 51.2999 6.2 51.3599 5.62C51.3999 5.18 51.3799 3.69 49.2899 3.11C49.1799 3.08 49.0699 3.06 48.9499 3.05C47.0599 2.86 45.4999 2.79 44.3599 2.77C43.9299 1.49 43.0799 0 41.4999 0Z" fill="black"/>
</g>
<defs>
<clipPath id="clip0_693_3">
<rect width="83" height="76.13" fill="white"/>
</clipPath>
</defs>
</svg>
