<svg width="118" height="97" viewBox="0 0 118 97" fill="none" xmlns="http://www.w3.org/2000/svg">
<g clip-path="url(#clip0_420_52)">
<path d="M58.6301 95.05C58.2101 95.05 57.8301 94.86 57.5901 94.54C57.3001 94.16 57.3001 93.71 57.3501 93.44L57.1101 90.75L56.4601 91.61C56.2701 91.86 55.9701 92.01 55.6601 92.01C53.8401 92.01 44.6801 91.84 42.6001 89.16C40.7401 86.75 41.8201 84.08 42.6501 83C42.6701 82.97 42.7001 82.94 42.7201 82.91C47.2101 78.29 53.0901 77.48 55.6701 77.37C55.3501 72.91 54.1301 55.76 53.9501 52.11C53.2501 47.55 51.0801 45.84 50.4501 45.43C47.5801 45.38 24.7901 44.7 9.42007 36.29C3.94007 33.29 1.46007 30.5 1.84007 27.77C2.39007 23.75 9.04007 22.1 9.80007 21.92C25.6701 18.31 46.0001 18.02 51.8601 18.02C52.0901 18.02 52.2901 18.02 52.4701 18.02L52.6401 16.91C52.4501 16.61 52.3501 16.2 52.4401 15.66C52.5501 14.99 52.6501 14.37 52.7101 13.96C52.3801 13.48 52.5001 12.95 52.5401 12.79C52.5601 12.74 52.8201 11.95 52.8301 11.01C52.8401 9.74 53.7101 9.1 54.4101 8.85C54.4601 8.33 54.5401 7.86 54.6401 7.47H53.9901C52.3801 7.63 50.9101 7.71 49.6201 7.71C47.0601 7.71 45.9001 7.39 45.5501 7.26C44.6001 7.02 44.1001 6.57 44.0501 5.91C44.0201 5.52 44.1501 4.79 45.3901 4.29C45.4301 4.27 45.4701 4.26 45.5101 4.25C46.4301 4.01 47.6101 3.89 49.0001 3.89C51.3401 3.89 53.6101 4.23 54.0601 4.3H55.6701C56.2201 3.07 57.3901 1 59.0701 1C60.7501 1 61.9201 3.11 62.4601 4.37H64.0601C64.5001 4.3 66.6301 4.01 68.8901 4.01C70.3901 4.01 71.6501 4.14 72.6101 4.41C72.6501 4.42 72.6901 4.44 72.7301 4.45C73.9601 4.96 74.0901 5.69 74.0601 6.08C74.0001 6.74 73.4901 7.19 72.5401 7.41C72.2001 7.53 71.1101 7.82 68.7401 7.82C67.3801 7.82 65.8201 7.72 64.1001 7.53H63.4501C63.5401 7.93 63.6201 8.39 63.6701 8.91C64.3701 9.17 65.2301 9.82 65.2301 11.09C65.2301 12.04 65.4801 12.82 65.4901 12.83C65.5501 13.03 65.6601 13.57 65.3201 14.04C65.3801 14.45 65.4701 15.07 65.5701 15.74C65.6501 16.28 65.5501 16.69 65.3601 16.98L65.5201 18.09C70.1401 18.12 91.6001 18.45 108.15 22.39C108.91 22.57 115.54 24.29 116.06 28.31C116.41 31.05 113.9 33.81 108.39 36.76C92.9401 45.03 70.1301 45.49 67.2701 45.51C66.6501 45.91 64.4601 47.59 63.7101 52.16C63.5001 55.81 62.1201 72.95 61.7501 77.41C64.1901 77.55 70.1901 78.39 74.6501 83.08C74.6801 83.11 74.7001 83.14 74.7201 83.17C75.5401 84.25 76.5901 86.94 74.7101 89.33C72.7101 91.86 64.2601 92.06 61.7201 92.06C61.4001 92.06 61.0201 91.91 60.8301 91.65L60.1901 90.78L59.9201 93.46C59.9601 93.73 59.9501 94.16 59.6701 94.53C59.4301 94.85 59.0501 95.04 58.6201 95.04L58.6301 95.05Z" fill="white"/>
<path d="M59.0702 2C60.5702 2 61.7702 5.37 61.7702 5.37H64.1302C64.1302 5.37 66.4502 5.01 68.8802 5.01C70.1002 5.01 71.3402 5.1 72.3402 5.37C72.8802 5.6 73.6802 6.13 72.2502 6.45C72.2502 6.45 71.3302 6.82 68.7402 6.82C67.5702 6.82 66.0702 6.74 64.1502 6.53H62.0802C62.0802 6.53 62.6902 7.85 62.6902 9.78H63.0302C63.0302 9.78 64.2102 9.96 64.2102 11.1C64.2102 12.24 64.5202 13.15 64.5202 13.15C64.5202 13.15 64.6402 13.58 64.2502 13.58C64.2502 13.82 64.4702 15.27 64.5702 15.91C64.6702 16.55 64.2802 16.63 64.2802 16.63L64.6402 19.12C64.6402 19.12 64.7102 19.12 64.8402 19.12C67.2402 19.12 90.3902 19.23 107.9 23.39C107.9 23.39 124.03 27.28 107.9 35.91C91.7702 44.54 66.9902 44.55 66.9902 44.55C66.9902 44.55 63.6502 46.14 62.7002 52.09C62.4702 56.18 60.6602 78.42 60.6602 78.42C60.6602 78.42 60.7302 78.42 60.8702 78.42C62.1602 78.42 69.0302 78.67 73.9102 83.8C73.9102 83.8 75.8202 86.32 73.9102 88.74C72.1002 91.03 62.7002 91.09 61.7002 91.09C61.6402 91.09 61.6102 91.09 61.6102 91.09L59.4302 88.13L58.8902 93.54C58.8902 93.54 59.0502 94.07 58.6002 94.07C58.1602 94.07 58.3202 93.51 58.3202 93.51L57.8302 88.09L55.6202 91.03C55.6202 91.03 45.2402 91 43.3502 88.56C41.4702 86.12 43.4002 83.62 43.4002 83.62C48.2202 78.66 54.8702 78.36 56.3902 78.36C56.6002 78.36 56.7102 78.36 56.7102 78.36C56.7102 78.36 55.1102 56.1 54.9202 52.01C54.0202 46.05 50.7002 44.43 50.7002 44.43C50.7002 44.43 25.9102 44.18 9.87016 35.4C-6.16984 26.62 9.99016 22.88 9.99016 22.88C25.8302 19.27 46.2402 19.01 51.8202 19.01C52.7702 19.01 53.2902 19.01 53.2902 19.01L53.6802 16.53C53.6802 16.53 53.2902 16.46 53.4002 15.81C53.5102 15.16 53.7402 13.72 53.7502 13.48C53.3602 13.48 53.4802 13.05 53.4802 13.05C53.4802 13.05 53.8002 12.13 53.8102 11C53.8202 9.87 55.0002 9.69 55.0002 9.69C55.0002 9.69 55.1602 9.69 55.3402 9.69C55.3602 7.76 55.9802 6.45 55.9802 6.45L53.9102 6.43C52.1402 6.62 50.7102 6.68 49.5902 6.68C46.7902 6.68 45.8202 6.27 45.8202 6.27C44.3902 5.93 45.1902 5.41 45.7402 5.19C46.6802 4.94 47.8302 4.86 48.9802 4.86C51.5002 4.86 53.9602 5.27 53.9602 5.27L56.3202 5.29C56.3202 5.29 57.5502 1.97 59.0502 1.97M59.0702 0C57.1202 0 55.8002 1.81 55.0402 3.31H54.1502C53.5402 3.21 51.3102 2.89 49.0102 2.89C47.5302 2.89 46.2702 3.02 45.2602 3.29C45.1802 3.31 45.1002 3.34 45.0202 3.37C43.1202 4.14 43.0102 5.46 43.0602 5.99C43.1102 6.63 43.4602 7.75 45.2802 8.22C45.7902 8.39 47.0802 8.71 49.6302 8.71C50.6402 8.71 51.7602 8.66 52.9602 8.56C52.3102 9.13 51.8502 9.96 51.8402 11C51.8402 11.77 51.6202 12.42 51.6202 12.43C51.6202 12.45 51.6002 12.49 51.5902 12.51C51.4302 13.06 51.4702 13.64 51.6802 14.13C51.6202 14.49 51.5502 14.96 51.4602 15.49C51.3602 16.07 51.4202 16.58 51.5902 17.01C45.3802 17.01 25.3102 17.35 9.58016 20.93C8.23016 21.24 1.48016 23.03 0.850159 27.62C0.410159 30.82 3.06016 33.93 8.95016 37.15C24.0702 45.42 46.1902 46.32 50.1402 46.41C50.7902 46.91 52.3802 48.5 52.9702 52.2C53.1402 55.78 54.2102 70.86 54.6102 76.44C51.5702 76.73 46.2202 77.88 42.0102 82.21C41.9602 82.26 41.9102 82.32 41.8602 82.38C40.8702 83.67 39.5802 86.87 41.8102 89.76C44.0502 92.66 52.2402 92.99 55.6502 93C55.8702 93 56.0902 92.96 56.2902 92.9L56.3402 93.42C56.3002 93.88 56.3402 94.53 56.7902 95.13C57.2202 95.7 57.8802 96.03 58.6202 96.04C59.3802 96.04 60.0602 95.71 60.4902 95.13C60.8402 94.66 61.0002 94.06 60.9402 93.45L60.9902 92.95C61.1902 93.02 61.4102 93.06 61.6302 93.06H61.7302C65.9602 93.06 73.3702 92.66 75.5102 89.95C77.7802 87.08 76.5202 83.87 75.5302 82.57C75.4802 82.51 75.4402 82.45 75.3802 82.4C71.2202 78.03 65.8102 76.83 62.8402 76.51C63.2902 70.94 64.5102 55.87 64.7102 52.29C65.3202 48.62 66.9202 47.05 67.6002 46.53C71.5702 46.47 93.6802 45.78 108.87 37.66C114.79 34.5 117.46 31.4 117.06 28.2C116.47 23.6 109.74 21.76 108.4 21.43C92.6402 17.68 72.4702 17.18 66.4202 17.11C66.5902 16.68 66.6602 16.17 66.5602 15.59C66.4702 15.05 66.4002 14.58 66.3502 14.23C66.5702 13.73 66.6102 13.16 66.4502 12.61C66.4502 12.58 66.4302 12.55 66.4202 12.52C66.4202 12.52 66.2202 11.87 66.2202 11.1C66.2202 10.06 65.7702 9.22 65.1202 8.65C66.4302 8.77 67.6502 8.83 68.7302 8.83C71.0902 8.83 72.3102 8.54 72.8002 8.38C74.6202 7.93 74.9802 6.8 75.0402 6.17C75.0902 5.64 74.9902 4.32 73.1002 3.53C73.0202 3.5 72.9402 3.47 72.8602 3.45C71.8002 3.16 70.4602 3.02 68.8702 3.02C66.6602 3.02 64.5602 3.3 63.9702 3.38H63.0802C62.3602 1.85 61.0502 0 59.0802 0H59.0702Z" fill="#231F20"/>
</g>
<defs>
<clipPath id="clip0_420_52">
<rect width="116.3" height="96.05" fill="white" transform="translate(0.800049)"/>
</clipPath>
</defs>
</svg>
