<svg width="152" height="231" viewBox="0 0 152 231" fill="none" xmlns="http://www.w3.org/2000/svg">
<g clip-path="url(#clip0_558_17)">
<path d="M76.0199 229.605C75.3099 229.605 75.0299 229.055 74.8899 228.765C74.8399 228.655 74.7599 228.505 74.6499 228.295C72.1499 223.655 71.9699 216.335 71.9599 216.025V214.655C70.1999 212.265 69.8299 208.645 69.8199 208.485C69.8199 208.375 69.8099 207.745 69.7899 206.865C69.3399 208.025 68.3199 208.405 67.7399 208.445H60.6999C60.6399 208.445 60.5699 208.445 60.5099 208.425C60.3199 208.385 59.3499 208.135 58.7499 206.735C58.2399 205.245 57.8999 203.255 57.6699 201.365C57.1299 203.745 56.5899 206.095 56.4499 206.565C56.0999 207.745 55.2899 208.215 54.6999 208.255C52.8399 208.545 35.7999 211.145 35.2399 211.205C35.1999 211.205 35.0799 211.215 35.0399 211.215C34.2099 211.215 33.4099 210.645 33.1799 210.465C33.0999 210.405 33.0299 210.335 32.9799 210.255C32.7599 209.935 27.5399 202.525 27.0099 201.725C26.2899 200.635 26.6299 199.615 26.9499 199.195C26.9799 199.155 27.0099 199.115 27.0499 199.075L53.5899 172.855L53.4899 166.985C46.6899 168.835 7.89992 179.265 7.13992 179.455L6.24992 179.665V180.105C6.28992 180.385 6.22992 180.665 6.06992 180.905C5.85992 181.215 5.50992 181.395 5.11992 181.395C4.77992 181.395 4.45992 181.275 4.23992 181.045C4.04992 180.855 3.91992 180.515 3.91992 180.245V179.975H3.09992C2.51992 179.975 2.04992 179.535 1.98992 178.945C1.98992 178.915 1.98992 178.875 1.98992 178.845V173.185C1.71992 172.875 1.41992 172.415 1.41992 171.845C1.41992 171.335 1.65992 170.935 1.99992 170.675V149.375C2.22992 145.955 2.87992 145.275 3.77992 145.275C4.67992 145.275 5.30992 145.925 5.68992 149.115C5.68992 149.155 5.68992 149.195 5.68992 149.235V157.435L35.4399 130.455L55.3199 112.095L55.2999 110.865C55.2999 110.205 55.6299 109.235 55.7399 108.955C55.9099 108.505 59.8299 98.225 60.4499 96.695C60.9399 95.505 61.6599 92.215 61.8999 91.045C61.9499 90.745 67.3699 57.455 67.9799 52.945C68.3599 50.175 68.6699 47.485 68.8699 45.705C68.9899 44.645 69.0499 43.565 69.0499 42.505V37.965C69.0499 25.635 74.5199 12.135 75.2899 10.295V2.70502C75.2899 1.88502 75.9699 1.39502 76.6299 1.39502C77.2899 1.39502 77.9699 1.88502 77.9699 2.70502V10.285C78.6899 12.095 83.9299 25.605 83.9299 37.945V42.485C83.9299 43.545 83.9899 44.625 84.1099 45.685C84.3099 47.455 84.6199 50.145 84.9999 52.925C85.6199 57.435 90.7599 90.735 90.8099 91.075C91.0399 92.195 91.7699 95.485 92.2499 96.675C92.8699 98.205 96.7899 108.485 96.9599 108.915C97.0699 109.215 97.3999 110.175 97.3999 110.835V112.125L117.26 130.435L146.16 157.375V149.205C146.16 149.205 146.16 149.125 146.16 149.085C146.54 145.895 147.2 145.245 148.07 145.245C148.94 145.245 149.61 145.935 149.84 149.275V170.645C150.18 170.905 150.42 171.305 150.42 171.815C150.42 172.385 150.12 172.855 149.85 173.155V178.815C149.85 178.815 149.85 178.885 149.85 178.915C149.79 179.495 149.31 179.945 148.74 179.945H147.92V180.235C147.92 180.495 147.78 180.825 147.6 181.015C147.38 181.245 147.07 181.365 146.72 181.365C146.33 181.365 145.98 181.185 145.77 180.875C145.61 180.645 145.55 180.355 145.59 180.075V179.635L144.7 179.425C144.25 179.315 129.77 175.405 100.46 167.465L98.6299 166.965L98.5299 173.105L125.07 199.045C125.07 199.045 125.14 199.125 125.17 199.165C125.49 199.595 125.83 200.605 125.11 201.695C124.59 202.475 119.78 210.105 119.73 210.185C119.67 210.285 119.59 210.365 119.5 210.445C119.27 210.625 118.47 211.195 117.64 211.195C117.6 211.195 117.48 211.195 117.44 211.185C116.88 211.125 99.0799 208.525 97.0499 208.225C96.5399 208.195 95.7299 207.725 95.3799 206.545C95.2399 206.075 94.6999 203.735 94.1599 201.365C93.9399 203.225 93.5999 205.195 93.0999 206.655C92.4699 208.125 91.4999 208.385 91.3099 208.415C91.2499 208.425 91.1799 208.435 91.1199 208.435H84.4199C83.7799 208.395 82.7499 208.015 82.2999 206.855C82.2899 207.705 82.2799 208.305 82.2699 208.395C82.2499 208.635 81.8799 212.255 80.1199 214.645V215.995C80.1199 216.325 79.9299 223.645 77.4299 228.285C77.3099 228.495 77.2399 228.655 77.1799 228.755C77.0299 229.045 76.7599 229.595 76.0499 229.595L76.0199 229.605Z" fill="white"/>
<path d="M76.5799 2.39502C76.5799 2.39502 76.9199 2.39502 76.9199 2.70502V10.485C76.9199 10.485 82.8799 25.025 82.8799 37.955V42.505C82.8799 43.615 82.9399 44.715 83.0699 45.815C83.2599 47.505 83.5799 50.255 83.9699 53.075C84.5999 57.645 89.7799 91.245 89.7799 91.245C89.7799 91.245 90.6599 95.535 91.2799 97.075C91.9099 98.615 95.9799 109.295 95.9799 109.295C95.9799 109.295 96.3599 110.325 96.3599 110.865V112.155C96.3599 112.415 96.4699 112.655 96.6599 112.835L116.54 131.205L146.86 159.465C146.86 159.465 146.9 159.465 146.94 159.465C147.02 159.465 147.12 159.435 147.12 159.295V149.235C147.12 149.235 147.47 146.275 148.04 146.275C148.61 146.275 148.82 149.375 148.82 149.375V171.315C148.82 171.315 149.4 171.365 149.4 171.845C149.4 172.325 148.83 172.765 148.83 172.765V178.845C148.83 178.845 148.82 178.975 148.71 178.975H146.89V180.265C146.89 180.265 146.89 180.395 146.69 180.395C146.49 180.395 146.56 180.215 146.56 180.215V178.875C146.56 178.875 145.69 178.675 144.91 178.485C144.19 178.315 104.98 167.695 98.5199 165.945C98.4599 165.925 98.3899 165.915 98.3299 165.915C97.9499 165.915 97.6199 166.225 97.6099 166.625L97.4999 173.555L124.35 199.795C124.35 199.795 124.79 200.385 124.26 201.185C123.73 201.985 118.87 209.695 118.87 209.695C118.87 209.695 118.18 210.235 117.62 210.235C117.59 210.235 117.56 210.235 117.53 210.235C116.97 210.175 97.1799 207.285 97.1799 207.285C97.1799 207.285 96.5999 207.245 96.3199 206.305C96.0399 205.365 93.8899 195.725 93.8899 195.725C93.8899 195.725 93.7699 195.475 93.6799 195.475C93.6299 195.475 93.5899 195.535 93.5799 195.725C93.5799 196.295 93.2999 203.005 92.1499 206.365C91.7299 207.355 91.1199 207.465 91.1199 207.465H84.4199C84.4199 207.465 83.4499 207.405 83.1699 206.305C82.8899 205.205 82.0399 200.285 82.0399 198.785C81.9899 198.785 81.9299 198.785 81.8599 198.785C81.6499 198.785 81.4099 198.875 81.4099 199.645C81.4099 200.655 81.2799 208.415 81.2799 208.415C81.2799 208.415 80.9199 212.175 79.1299 214.335V216.025C79.1299 216.025 78.9699 223.355 76.5599 227.835C76.1799 228.525 76.1999 228.625 76.0599 228.625C75.9199 228.625 75.9399 228.525 75.5599 227.835C73.1499 223.355 72.9899 216.025 72.9899 216.025V214.335C71.1999 212.175 70.8399 208.415 70.8399 208.415C70.8399 208.415 70.7099 200.655 70.7099 199.645C70.7099 198.875 70.4699 198.785 70.2599 198.785C70.1999 198.785 70.1299 198.785 70.0799 198.785C70.0799 200.285 69.2299 205.205 68.9499 206.305C68.6699 207.405 67.6999 207.465 67.6999 207.465H60.7199C60.7199 207.465 60.1099 207.345 59.6899 206.365C58.5399 203.005 58.2599 196.295 58.2599 195.725C58.2399 195.535 58.1999 195.475 58.1599 195.475C58.0699 195.475 57.9499 195.725 57.9499 195.725C57.9499 195.725 55.7999 205.365 55.5199 206.305C55.2399 207.245 54.6599 207.285 54.6599 207.285C54.6599 207.285 35.7199 210.175 35.1499 210.235C35.1199 210.235 35.0899 210.235 35.0599 210.235C34.5099 210.235 33.8099 209.695 33.8099 209.695C33.8099 209.695 28.3799 201.985 27.8499 201.185C27.3199 200.385 27.7599 199.795 27.7599 199.795L54.6099 173.275L54.4999 166.625C54.4999 166.215 54.1599 165.915 53.7799 165.915C53.7199 165.915 53.6499 165.915 53.5899 165.945C47.1299 167.695 7.63988 178.315 6.91988 178.485C6.13988 178.675 5.26988 178.875 5.26988 178.875V180.215C5.26988 180.215 5.33988 180.395 5.13988 180.395C4.93988 180.395 4.93988 180.265 4.93988 180.265V178.975H3.11988C3.00988 178.975 2.99988 178.845 2.99988 178.845V172.765C2.99988 172.765 2.42988 172.325 2.42988 171.845C2.42988 171.365 3.00988 171.315 3.00988 171.315V149.375C3.00988 149.375 3.21988 146.275 3.78988 146.275C4.35988 146.275 4.70988 149.235 4.70988 149.235V159.295C4.70988 159.445 4.80988 159.465 4.88988 159.465C4.93988 159.465 4.96988 159.465 4.96988 159.465L36.1299 131.205L56.0099 112.835C56.1999 112.655 56.3099 112.415 56.3099 112.155V110.865C56.3099 110.335 56.6899 109.295 56.6899 109.295C56.6899 109.295 60.7599 98.605 61.3899 97.075C62.0199 95.535 62.8899 91.245 62.8899 91.245C62.8899 91.245 68.3599 57.655 68.9799 53.075C69.3699 50.255 69.6899 47.505 69.8799 45.815C69.9999 44.715 70.0599 43.615 70.0599 42.505V37.955C70.0599 25.025 76.2999 10.485 76.2999 10.485V2.70502C76.2999 2.39502 76.6399 2.39502 76.6399 2.39502M76.5799 0.39502C75.2699 0.39502 74.2399 1.40502 74.2399 2.70502V10.085C73.2199 12.555 67.9999 25.795 67.9999 37.955V42.505C67.9999 43.525 67.9399 44.565 67.8299 45.595C67.6299 47.365 67.3199 50.055 66.9399 52.805C66.3299 57.235 61.0799 89.555 60.8599 90.885C60.5299 92.485 59.8699 95.335 59.4699 96.315C58.8399 97.855 54.9199 108.145 54.7499 108.575C54.5899 109.015 54.2399 110.055 54.2399 110.855V111.675L34.6999 129.725L6.63988 155.175V149.235C6.63988 149.155 6.63988 149.075 6.62988 148.995C6.42988 147.345 6.06988 144.275 3.72988 144.275C1.38988 144.275 1.07988 147.505 0.959883 149.245C0.959883 149.295 0.959883 149.335 0.959883 149.385V170.255C0.609883 170.665 0.379883 171.205 0.379883 171.855C0.379883 172.545 0.649883 173.115 0.949883 173.545V178.855C0.949883 178.925 0.949883 178.985 0.959883 179.055C1.06988 180.135 1.93988 180.955 3.00988 180.985C3.10988 181.265 3.27988 181.535 3.48988 181.755C3.89988 182.175 4.46988 182.405 5.07988 182.405C5.79988 182.405 6.46988 182.055 6.85988 181.475C7.06988 181.175 7.17988 180.825 7.20988 180.465C7.24988 180.465 7.28988 180.445 7.31988 180.435C8.06988 180.255 43.0099 170.855 52.4599 168.305L52.5299 172.455L26.2899 198.375C26.2199 198.445 26.1499 198.525 26.0899 198.605C25.4599 199.455 25.2299 200.925 26.1199 202.285C26.6599 203.095 31.8899 210.525 32.1099 210.845C32.2199 211.005 32.3599 211.155 32.5199 211.275C32.8899 211.565 33.8699 212.235 34.9899 212.235C35.0899 212.235 35.1999 212.235 35.2999 212.215C35.8699 212.155 51.5999 209.755 54.8499 209.255C55.7399 209.145 56.8799 208.465 57.3599 206.865C57.3899 206.755 57.4399 206.555 57.5099 206.285C57.5799 206.535 57.6499 206.775 57.7299 207.005C57.7499 207.055 57.7599 207.095 57.7799 207.145C58.5599 208.965 59.8899 209.355 60.2699 209.425C60.3899 209.445 60.5199 209.465 60.6499 209.465H67.6299C67.6299 209.465 67.7199 209.465 67.7599 209.465C68.1199 209.445 68.4899 209.355 68.8499 209.185C69.0199 210.365 69.5399 212.965 70.9099 214.985V216.015C70.9099 216.375 71.1099 223.925 73.7199 228.775C73.8299 228.975 73.8999 229.125 73.9499 229.225C74.4099 230.145 75.0899 230.615 75.9799 230.615C77.3099 230.615 77.8399 229.565 78.0099 229.225C78.0599 229.125 78.1299 228.985 78.2399 228.785C80.8599 223.925 81.0499 216.375 81.0499 216.055V214.985C82.4199 212.955 82.9399 210.355 83.1099 209.185C83.4699 209.345 83.8499 209.435 84.2099 209.465C84.2499 209.465 84.2999 209.465 84.3399 209.465H91.0399C91.1699 209.465 91.2899 209.455 91.4199 209.425C91.8099 209.355 93.1299 208.965 93.9099 207.145C93.9299 207.095 93.9499 207.055 93.9599 207.005C94.0399 206.775 94.1099 206.535 94.1799 206.285C94.2499 206.555 94.2999 206.755 94.3299 206.865C94.8099 208.465 95.9599 209.145 96.8499 209.255C100.24 209.745 116.67 212.145 117.24 212.215C117.34 212.225 117.44 212.235 117.55 212.235C118.67 212.235 119.65 211.565 120.02 211.275C120.2 211.135 120.36 210.955 120.49 210.765C122.17 208.105 125.45 202.915 125.86 202.295C126.76 200.935 126.52 199.465 125.89 198.615C125.83 198.525 125.76 198.445 125.68 198.375L99.4499 172.735L99.5199 168.305C108.41 170.715 143.66 180.255 144.38 180.435C144.42 180.435 144.46 180.455 144.49 180.465C144.52 180.825 144.64 181.165 144.84 181.475C145.23 182.055 145.9 182.405 146.62 182.405C147.23 182.405 147.8 182.175 148.21 181.755C148.42 181.535 148.59 181.275 148.69 180.985C149.76 180.955 150.64 180.135 150.74 179.055C150.74 178.985 150.75 178.925 150.75 178.855V173.545C151.05 173.115 151.32 172.545 151.32 171.855C151.32 171.205 151.09 170.665 150.74 170.255V149.385C150.74 149.385 150.74 149.295 150.74 149.245C150.62 147.505 150.4 144.275 147.97 144.275C145.54 144.275 145.26 147.345 145.07 148.995C145.07 149.075 145.06 149.155 145.06 149.235V155.105L117.85 129.735L98.3099 111.675V110.855C98.3099 110.055 97.9599 109.015 97.8099 108.605C97.6299 108.135 93.7099 97.855 93.0799 96.315C92.6799 95.335 92.0199 92.485 91.6899 90.885C91.4599 89.425 86.4999 57.225 85.8899 52.805C85.5099 50.035 85.1999 47.355 84.9999 45.595C84.8899 44.575 84.8299 43.535 84.8299 42.505V37.955C84.8299 25.785 79.8299 12.535 78.8699 10.105V2.70502C78.8699 1.41502 77.8399 0.39502 76.5299 0.39502H76.5799Z" fill="black"/>
</g>
<defs>
<clipPath id="clip0_558_17">
<rect width="151" height="230.21" fill="white" transform="translate(0.379883 0.39502)"/>
</clipPath>
</defs>
</svg>
