<svg width="287" height="310" viewBox="0 0 287 310" fill="none" xmlns="http://www.w3.org/2000/svg">
<g clip-path="url(#clip0_301_52)">
<path d="M143.82 307.03C142.61 307.03 139.46 307.03 135.98 290.3C128.42 292.31 102.38 299.26 98.3302 300.82C97.0802 301.3 96.0102 301.54 95.0602 301.54C93.4702 301.54 92.5402 300.87 92.0402 300.3C91.1102 299.26 91.0802 297.99 91.1102 297.5V293.57C91.1102 289.19 96.3202 285.16 96.9102 284.71C96.9602 284.68 122.14 266.89 129.92 261.38C124.51 241.28 123.9 225.97 123.88 225.33V161.7H102.23C101.89 166.1 100.94 167.86 99.0402 167.86C97.1402 167.86 96.2002 166.1 95.8502 161.7H91.1302L81.7902 164.45C81.4302 174.17 79.8702 175.01 78.1602 175.01C76.2902 175.01 75.0802 173.55 74.6302 166.56L52.4402 173.1C52.1902 179.58 50.9402 180.97 49.1502 180.97C47.3602 180.97 46.3402 179.26 45.9802 175.01L7.44018 186.37C7.12018 186.5 6.47018 186.72 5.74018 186.72C4.76018 186.72 3.92018 186.32 3.38018 185.59C2.45018 184.33 2.86018 182.7 3.07018 182.02C5.23018 169.55 11.3102 166.1 11.5702 165.96C18.8002 162.15 77.9702 131.01 89.0802 125.47C87.0202 118.67 85.3202 108.53 87.5002 96.3098C88.1602 92.6298 90.9202 91.3198 93.0902 91.3198C93.1102 91.3198 106.6 91.3198 106.6 91.3198C106.69 91.3098 106.78 91.2998 106.86 91.2998C108.81 91.2998 109.86 93.4798 110.56 95.3798C110.57 95.4198 110.59 95.4498 110.6 95.4898C112.36 101.3 112.08 107.39 111.53 111.46L124.48 102.87C124.67 102.75 124.78 102.53 124.78 102.31V49.6098C124.78 32.7698 128.41 21.6298 131.45 15.2598C135.11 7.58983 139.84 2.82983 143.79 2.82983C147.74 2.82983 152.48 7.58983 156.13 15.2598C159.17 21.6398 162.8 32.7698 162.8 49.6098V102.31C162.8 102.54 162.91 102.75 163.1 102.87L176.05 111.46C175.5 107.38 175.22 101.3 176.98 95.4898C176.99 95.4498 177 95.4198 177.02 95.3798C177.72 93.4798 178.77 91.2998 180.72 91.2998C180.8 91.2998 180.89 91.2998 180.98 91.3198C180.98 91.3198 194.47 91.3198 194.49 91.3198C196.66 91.3198 199.43 92.6298 200.08 96.3098C202.26 108.54 200.56 118.68 198.5 125.47C209.6 131.01 268.77 162.15 275.98 165.95C276.26 166.1 282.35 169.55 284.51 182.02C284.71 182.7 285.13 184.33 284.2 185.59C283.66 186.32 282.82 186.72 281.84 186.72C281.12 186.72 280.46 186.5 280.14 186.37L241.6 175.01C241.25 179.26 240.3 180.97 238.43 180.97C236.56 180.97 235.4 179.59 235.14 173.1L212.95 166.56C212.5 173.55 211.29 175.01 209.42 175.01C207.71 175.01 206.15 174.17 205.79 164.45L196.45 161.7H191.73C191.39 166.1 190.44 167.86 188.54 167.86C186.64 167.86 185.7 166.1 185.36 161.7H163.71V225.25C163.69 225.97 163.08 241.27 157.67 261.37C165.45 266.87 190.64 284.66 190.64 284.66C191.28 285.14 196.49 289.17 196.49 293.55V297.48C196.52 297.97 196.49 299.23 195.56 300.28C195.06 300.84 194.12 301.52 192.53 301.52C191.58 301.52 190.52 301.29 189.26 300.8C185.21 299.24 159.17 292.29 151.61 290.28C148.13 307.01 144.98 307.01 143.77 307.01L143.82 307.03Z" fill="white"/>
<path d="M143.82 4.83984C149.24 4.83984 160.83 20.0198 160.83 49.6198V102.32C160.83 103.22 161.28 104.05 162.03 104.55L178.93 115.77C178.93 115.77 176.09 105.43 178.93 96.0898C179.85 93.5798 180.52 93.3198 180.75 93.3198C180.81 93.3198 180.84 93.3398 180.84 93.3398H194.43C194.43 93.3398 194.46 93.3398 194.52 93.3398C195.02 93.3398 197.58 93.4998 198.15 96.6798C198.78 100.18 200.86 112.44 196.11 126.54C199.2 127.79 275.09 167.74 275.09 167.74C275.09 167.74 280.59 170.74 282.6 182.5C283.17 184.34 282.53 184.74 281.87 184.74C281.36 184.74 280.84 184.5 280.84 184.5L239.76 172.4C239.64 176.8 239.05 179 238.46 179C237.84 179 237.21 176.54 237.14 171.63L211.11 163.96C210.91 170.02 210.18 173.05 209.46 173.05C208.7 173.05 207.94 169.69 207.78 162.98L196.78 159.74H189.88C189.73 163.84 189.16 165.9 188.59 165.9C188.02 165.9 187.45 163.85 187.3 159.74H161.76V225.29C161.76 225.29 161.19 241.03 155.65 261.39C155.51 261.89 155.69 262.43 156.12 262.73C163.33 267.84 189.53 286.34 189.53 286.34C189.53 286.34 194.53 290.09 194.53 293.6V297.6C194.53 297.6 194.76 299.56 192.58 299.56C191.95 299.56 191.12 299.4 190.03 298.98C185.15 297.1 150.12 287.85 150.12 287.85C150.12 287.85 146.78 305.06 143.82 305.06C140.86 305.06 137.52 287.85 137.52 287.85C137.52 287.85 102.49 297.11 97.6101 298.98C96.5201 299.4 95.6901 299.56 95.0601 299.56C92.8801 299.56 93.1101 297.6 93.1101 297.6V293.6C93.1101 290.1 98.1101 286.34 98.1101 286.34C98.1101 286.34 124.31 267.84 131.52 262.73C131.95 262.43 132.12 261.9 131.99 261.39C126.45 241.03 125.88 225.29 125.88 225.29V159.74H100.34C100.19 163.84 99.6201 165.9 99.0501 165.9C98.4801 165.9 97.9101 163.85 97.7601 159.74H90.8601L79.8601 162.98C79.7001 169.69 78.9401 173.05 78.1801 173.05C77.4201 173.05 76.7301 170.02 76.5301 163.96L50.5001 171.63C50.4301 176.54 49.8001 179 49.1801 179C48.5901 179 48.0001 176.8 47.8801 172.4L6.8001 184.5C6.8001 184.5 6.2801 184.74 5.7701 184.74C5.1101 184.74 4.4801 184.34 5.0401 182.5C7.0401 170.74 12.5501 167.74 12.5501 167.74C12.5501 167.74 88.4501 127.79 91.5301 126.54C86.7801 112.45 88.8601 100.18 89.4901 96.6798C90.0601 93.4998 92.6101 93.3398 93.1201 93.3398C93.1801 93.3398 93.2101 93.3398 93.2101 93.3398H106.8C106.8 93.3398 106.83 93.3198 106.89 93.3198C107.13 93.3198 107.79 93.5798 108.71 96.0898C111.55 105.43 108.71 115.77 108.71 115.77L125.61 104.55C126.36 104.05 126.81 103.22 126.81 102.32V49.6198C126.81 20.0198 138.4 4.83984 143.82 4.83984ZM143.82 0.839844C135.23 0.839844 122.81 18.2098 122.81 49.6198V101.61L113.92 107.51C114.1 103.74 113.86 99.2598 112.54 94.9198C112.52 94.8498 112.49 94.7698 112.47 94.6998C111.93 93.2298 110.49 89.3098 106.89 89.3098C106.76 89.3098 106.63 89.3098 106.5 89.3298H93.2801C93.2801 89.3298 93.1801 89.3298 93.1201 89.3298C89.9501 89.3298 86.3801 91.3798 85.5601 95.9598C83.4801 107.63 84.8301 117.47 86.7301 124.44C72.9701 131.42 21.9401 158.27 10.7001 164.18C10.6801 164.18 10.6701 164.2 10.6501 164.21C9.9201 164.61 3.4501 168.48 1.1601 181.58C0.580102 183.66 0.800102 185.4 1.8201 186.78C2.7301 188.02 4.1801 188.72 5.7901 188.72C6.7701 188.72 7.6301 188.46 8.1401 188.26L44.3201 177.6C44.8501 180.45 46.1001 182.97 49.2001 182.97C53.2701 182.97 54.1901 178.56 54.4301 174.62L72.9001 169.18C73.0001 170.05 73.1201 170.83 73.2501 171.52C73.9701 175.17 75.6301 177.02 78.2001 177.02C82.1501 177.02 82.9401 172.65 83.2001 171.22C83.4601 169.81 83.6401 168.05 83.7601 165.98L91.4601 163.71H94.0801C94.5201 166.78 95.6901 169.87 99.0801 169.87C102.47 169.87 103.64 166.78 104.08 163.71H121.91V225.26C121.91 225.26 121.91 225.36 121.91 225.4C121.93 226.04 122.52 240.9 127.66 260.55C118.83 266.8 95.8301 283.04 95.8301 283.04C95.8001 283.06 95.7701 283.08 95.7401 283.11C94.6401 283.94 89.1401 288.33 89.1401 293.57V297.44C89.1001 298.29 89.2101 300.09 90.5801 301.62C91.6801 302.85 93.2801 303.53 95.1001 303.53C96.3001 303.53 97.6001 303.25 99.0901 302.68C102.47 301.38 123.08 295.81 134.54 292.75C134.87 294.17 135.28 295.83 135.75 297.49C137.74 304.61 139.79 309.02 143.86 309.02C147.93 309.02 149.98 304.61 151.97 297.49C152.44 295.83 152.85 294.17 153.18 292.75C164.64 295.8 185.25 301.38 188.63 302.68C190.12 303.25 191.42 303.53 192.62 303.53C194.44 303.53 196.04 302.85 197.14 301.62C198.51 300.08 198.62 298.29 198.58 297.44V293.57C198.58 288.33 193.08 283.94 191.98 283.11C191.95 283.09 191.92 283.06 191.89 283.04C191.89 283.04 168.89 266.8 160.06 260.55C165.2 240.9 165.79 226.04 165.81 225.4C165.81 225.35 165.81 225.3 165.81 225.26V163.71H183.64C184.08 166.78 185.25 169.87 188.64 169.87C192.03 169.87 193.2 166.78 193.64 163.71H196.26L203.96 165.98C204.08 168.06 204.27 169.81 204.52 171.22C204.78 172.66 205.57 177.02 209.52 177.02C212.09 177.02 213.75 175.17 214.47 171.52C214.61 170.83 214.72 170.05 214.82 169.18L233.29 174.62C233.53 178.56 234.45 182.97 238.52 182.97C241.62 182.97 242.88 180.45 243.4 177.6L279.58 188.26C280.09 188.46 280.95 188.72 281.93 188.72C283.54 188.72 284.99 188.01 285.9 186.78C286.91 185.41 287.13 183.66 286.56 181.58C284.26 168.48 277.8 164.61 277.07 164.21C277.05 164.21 277.04 164.19 277.02 164.18C265.78 158.26 214.75 131.42 200.99 124.44C202.89 117.47 204.24 107.63 202.16 95.9598C201.34 91.3798 197.77 89.3298 194.6 89.3298C194.54 89.3298 194.49 89.3298 194.44 89.3298H181.22C181.09 89.3198 180.96 89.3098 180.83 89.3098C177.24 89.3098 175.8 93.2198 175.25 94.6998C175.22 94.7698 175.2 94.8498 175.18 94.9198C173.86 99.2598 173.62 103.74 173.8 107.51L164.91 101.61V49.6198C164.91 18.2098 152.48 0.839844 143.9 0.839844L143.82 0.839844Z" fill="black"/>
</g>
<defs>
<clipPath id="clip0_301_52">
<rect width="286" height="308.19" fill="white" transform="translate(0.820312 0.839844)"/>
</clipPath>
</defs>
</svg>
