<svg width="143" height="178" viewBox="0 0 143 178" fill="none" xmlns="http://www.w3.org/2000/svg">
<g clip-path="url(#clip0_695_8)">
<path d="M72.6202 176.7C71.6702 176.7 71.2202 176.2 70.3002 170.85C69.9302 168.69 69.5802 166.16 69.5002 165.17C69.3702 165.17 69.2402 165.2 69.2002 165.21C68.5502 165.44 51.4902 171.4 50.7402 171.63C50.5602 171.69 50.3802 171.72 50.2002 171.72C49.8002 171.72 49.4302 171.56 49.1702 171.28C48.7302 170.81 48.7502 170.17 48.7602 169.99V164.69C48.7602 160.64 50.6402 159.02 50.8602 158.85C55.3202 154.94 62.5402 148.67 64.9202 146.79C62.6902 139.36 62.2402 125.89 62.2202 125.31V95.2C62.2202 93.64 61.7902 93.16 61.6402 93.12C59.3302 92.82 5.45023 85.66 3.89023 85.41C2.10023 85.12 1.38023 83.65 1.24023 82.83C1.22023 82.66 0.990234 80.37 0.990234 76.84C0.990234 73.31 3.42023 72.12 4.70023 71.95L44.1802 68.85C43.8302 65.01 43.5202 58.89 44.3002 53.75C43.9602 53.76 43.5802 53.77 43.1602 53.77C40.8502 53.77 38.3902 53.51 35.8502 53.01C35.1602 52.87 34.6802 52.29 34.6702 51.59C34.6702 50.89 35.1402 50.29 35.8202 50.13C37.6902 49.71 39.5202 49.5 41.2502 49.5C42.9802 49.5 44.3002 49.71 45.1702 49.91C45.6402 48.48 46.2202 47.31 46.9302 46.41C47.3002 45.94 47.8502 45.67 48.4402 45.67C49.0302 45.67 49.5802 45.94 49.9502 46.41C50.6402 47.3 51.2202 48.45 51.6902 49.85C52.5502 49.67 53.7702 49.5 55.3202 49.5C57.0502 49.5 58.8802 49.71 60.7602 50.13C61.1002 50.2 61.3802 50.39 61.5802 50.64V26.35C61.5802 14.59 65.4802 6.29001 67.8002 2.39001C68.3102 1.53001 69.2202 1.01001 70.2302 1.01001C71.2402 1.01001 72.1002 1.50001 72.6202 2.32001C75.0502 6.16001 79.1802 14.35 79.5002 26.1L80.1702 50.38C80.3602 50.13 80.6402 49.94 80.9802 49.85C83.0602 49.33 85.0702 49.06 86.9802 49.06C88.2602 49.06 89.2902 49.18 90.0402 49.32C90.4602 47.91 91.0102 46.74 91.6802 45.83C92.0502 45.33 92.6102 45.05 93.2202 45.05C93.7902 45.05 94.3302 45.31 94.7002 45.75C95.4302 46.63 96.0502 47.79 96.5502 49.2C97.5202 48.94 99.0402 48.67 101.06 48.67C102.61 48.67 104.24 48.83 105.9 49.16C106.59 49.29 107.08 49.88 107.09 50.58C107.1 51.28 106.63 51.88 105.95 52.03C102.41 52.84 99.6002 53.01 97.8602 53.01C97.7402 53.01 97.6302 53.01 97.5202 53.01C98.4402 58.13 98.2902 64.25 98.0502 68.1L137.55 70.1C138.9 70.25 141.36 71.43 141.45 74.89C141.55 78.41 141.38 80.71 141.37 80.81C141.24 81.71 140.56 83.19 138.79 83.53C137.24 83.83 83.5802 92.47 81.2902 92.84C81.2502 92.84 81.2202 92.84 81.1802 92.85C81.1302 92.89 80.7102 93.38 80.7502 94.93L81.5802 125C81.5802 125.62 81.5002 139.09 79.4802 146.58C81.9102 148.38 89.3002 154.46 93.9002 158.27C94.0802 158.41 96.0202 159.98 96.1302 164.03L96.2802 169.41C96.2902 169.51 96.3302 170.16 95.8902 170.64C95.6302 170.93 95.2502 171.1 94.8402 171.1C94.6802 171.1 94.5102 171.08 94.3402 171.03C93.5902 170.82 76.6202 165.41 75.6502 165.11C75.6402 165.11 75.5302 165.09 75.4102 165.09C75.3602 166.08 75.0802 168.62 74.7702 170.79C74.0002 176.16 73.5602 176.68 72.6102 176.71H72.5802L72.6202 176.7ZM52.5902 53.75C53.3302 58.65 53.0702 64.44 52.7602 68.17L60.0502 67.6C61.2602 67.5 61.5302 66.72 61.5902 66.46V52.49C61.3802 52.75 61.0802 52.94 60.7302 53C58.1902 53.51 55.7302 53.76 53.4202 53.76C53.1402 53.76 52.8602 53.76 52.5902 53.75ZM80.6202 66.2C80.6802 66.44 80.9602 67.23 82.1902 67.29L89.4902 67.66C89.0802 63.94 88.6602 58.16 89.2602 53.24C88.7102 53.27 88.1502 53.29 87.5602 53.29C85.5002 53.29 83.3302 53.1 81.1002 52.72C80.7502 52.66 80.4502 52.48 80.2302 52.23L80.6202 66.2Z" fill="white"/>
<path d="M70.24 1.99998C70.83 1.99998 71.42 2.27998 71.78 2.84998C74.1 6.51998 78.19 14.55 78.51 26.12C78.96 42.35 79.62 66.31 79.62 66.31C79.62 66.31 79.91 68.18 82.13 68.29C82.65 68.32 85.91 68.48 90.61 68.72C90.13 64.81 89.5 57.68 90.42 52.14C89.75 52.21 88.78 52.29 87.55 52.29C85.9 52.29 83.77 52.16 81.26 51.73C80.76 51.65 80.73 50.94 81.22 50.81C83.5 50.24 85.43 50.05 86.97 50.05C88.83 50.05 90.12 50.32 90.75 50.49C91.14 48.88 91.7 47.47 92.48 46.41C92.66 46.16 92.94 46.03 93.22 46.03C93.48 46.03 93.74 46.14 93.93 46.37C94.78 47.4 95.43 48.81 95.91 50.43C96.42 50.24 98.19 49.65 101.07 49.65C102.39 49.65 103.95 49.77 105.72 50.12C106.22 50.22 106.23 50.93 105.74 51.04C102.35 51.81 99.64 51.99 97.87 51.99C97.21 51.99 96.68 51.97 96.3 51.94C97.59 57.66 97.28 65.23 97 69.03C113.42 69.86 137.51 71.08 137.51 71.08C137.51 71.08 140.37 71.39 140.47 74.9C140.57 78.41 140.4 80.72 140.4 80.72C140.4 80.72 140.18 82.24 138.63 82.54C137.08 82.84 81.16 91.84 81.16 91.84C81.16 91.84 79.7 91.91 79.78 94.95C79.86 97.99 80.61 125.02 80.61 125.02C80.61 125.02 80.55 139.72 78.35 146.98C79.15 147.34 93.29 159.04 93.29 159.04C93.29 159.04 95.05 160.37 95.16 164.05C95.26 167.74 95.31 169.43 95.31 169.43C95.31 169.43 95.38 170.09 94.87 170.09C94.81 170.09 94.73 170.08 94.65 170.06C93.9 169.85 75.97 164.14 75.97 164.14C75.97 164.14 75.7 164.08 75.4 164.08C74.96 164.08 74.44 164.21 74.46 164.81C74.49 165.85 73.34 175.67 72.63 175.69C71.91 175.69 70.5 165.9 70.5 164.86C70.5 164.28 70.02 164.15 69.6 164.15C69.27 164.15 68.97 164.23 68.97 164.23C68.97 164.23 51.21 170.43 50.46 170.67C50.37 170.7 50.29 170.71 50.22 170.71C49.73 170.71 49.78 170.06 49.78 170.06V164.68C49.78 160.99 51.51 159.62 51.51 159.62C51.51 159.62 65.32 147.54 66.11 147.15C63.71 139.95 63.24 125.26 63.24 125.26V95.18C63.24 92.14 61.78 92.11 61.78 92.11C61.78 92.11 5.64 84.66 4.08 84.4C2.52 84.14 2.26 82.63 2.26 82.63C2.26 82.63 2.03 80.33 2.03 76.82C2.03 73.31 4.88 72.92 4.88 72.92C4.88 72.92 28.92 71.03 45.32 69.75C44.94 65.96 44.42 58.4 45.55 52.65C45.03 52.7 44.23 52.76 43.21 52.76C41.47 52.76 39.04 52.6 36.09 52.02C35.59 51.92 35.59 51.21 36.09 51.1C38.12 50.65 39.86 50.5 41.3 50.5C43.84 50.5 45.42 50.98 45.9 51.14C46.34 49.5 46.94 48.08 47.77 47.02C47.96 46.78 48.22 46.66 48.49 46.66C48.76 46.66 49.03 46.78 49.21 47.02C50.02 48.06 50.62 49.45 51.05 51.05C51.73 50.84 53.21 50.5 55.36 50.5C56.8 50.5 58.55 50.65 60.58 51.11C61.07 51.22 61.06 51.93 60.57 52.03C57.62 52.62 55.2 52.77 53.45 52.77C52.61 52.77 51.93 52.73 51.42 52.69C52.49 58.2 52.07 65.34 51.69 69.26C56.38 68.89 59.64 68.64 60.16 68.59C62.38 68.41 62.62 66.54 62.62 66.54V26.34C62.62 14.77 66.48 6.61998 68.7 2.88998C69.05 2.29998 69.66 1.99998 70.27 1.99998M70.24 -1.95317e-05C68.88 -1.95317e-05 67.65 0.69998 66.95 1.86998C64.57 5.85998 60.59 14.35 60.59 26.34V49.06C58.78 48.68 57.01 48.49 55.33 48.49C54.16 48.49 53.16 48.58 52.35 48.71C51.9 47.56 51.37 46.58 50.75 45.79C50.19 45.07 49.35 44.66 48.45 44.66C47.55 44.66 46.71 45.07 46.15 45.79C45.52 46.59 44.98 47.59 44.53 48.76C43.67 48.61 42.57 48.5 41.26 48.5C39.46 48.5 37.56 48.72 35.61 49.15C34.46 49.41 33.66 50.41 33.68 51.59C33.69 52.77 34.51 53.75 35.66 53.98C38.26 54.5 40.79 54.76 43.16 54.76C42.62 59.29 42.82 64.33 43.11 67.92L4.69 70.94C4.69 70.94 4.61 70.94 4.58 70.95C3 71.17 0 72.68 0 76.83C0 80.4 0.23 82.75 0.24 82.85C0.24 82.9 0.25 82.94 0.26 82.99C0.45 84.07 1.39 86.01 3.73 86.39C5.25 86.64 55.63 93.33 61.09 94.05C61.15 94.24 61.22 94.59 61.22 95.19V125.27C61.22 125.27 61.22 125.31 61.22 125.33C61.24 125.91 61.67 138.75 63.78 146.42C62.13 147.76 58.48 150.84 50.18 158.11C49.74 158.49 47.76 160.43 47.76 164.68V170.02C47.75 170.4 47.8 171.26 48.44 171.95C48.89 172.44 49.52 172.71 50.2 172.71C50.47 172.71 50.76 172.67 51.04 172.58C51.72 172.37 64.67 167.85 68.63 166.46C68.79 167.76 69.06 169.55 69.31 171C70.11 175.64 70.55 177.68 72.62 177.68C72.64 177.68 72.66 177.68 72.68 177.68C74.75 177.62 75.13 175.56 75.8 170.91C76.01 169.45 76.23 167.66 76.35 166.35C80.35 167.62 93.42 171.78 94.11 171.98C94.37 172.05 94.63 172.09 94.88 172.09C95.58 172.09 96.22 171.81 96.67 171.3C97.31 170.59 97.34 169.71 97.31 169.33L97.16 163.99C97.04 159.73 95.01 157.85 94.56 157.49C86.06 150.46 82.33 147.47 80.64 146.18C82.53 138.46 82.61 125.6 82.61 125.03C82.61 125.01 82.61 124.99 82.61 124.97L81.78 94.9C81.76 94.3 81.82 93.94 81.88 93.75C87.32 92.87 137.49 84.79 139 84.5C141.33 84.05 142.22 82.1 142.38 81.01C142.38 80.96 142.39 80.92 142.4 80.87C142.4 80.77 142.58 78.42 142.48 74.85C142.36 70.69 139.33 69.27 137.74 69.1C137.7 69.1 137.66 69.1 137.62 69.1L99.13 67.15C99.32 63.56 99.38 58.51 98.71 53.99C100.51 53.94 103.08 53.71 106.19 53C107.34 52.74 108.13 51.73 108.11 50.55C108.09 49.37 107.27 48.39 106.11 48.16C104.38 47.83 102.69 47.66 101.08 47.66C99.48 47.66 98.18 47.82 97.19 48.02C96.71 46.87 96.14 45.89 95.49 45.1C94.93 44.42 94.11 44.03 93.24 44.03C92.32 44.03 91.44 44.47 90.89 45.22C90.29 46.03 89.78 47.02 89.37 48.18C88.69 48.1 87.9 48.04 86.99 48.04C85.13 48.04 83.16 48.28 81.14 48.76L80.51 26.05C80.18 14.06 75.96 5.68998 73.47 1.75998C72.77 0.64998 71.56 -0.0200195 70.24 -0.0200195V-1.95317e-05ZM81.61 66.04L81.27 53.76C83.43 54.11 85.54 54.29 87.55 54.29C87.75 54.29 87.94 54.29 88.14 54.29C87.76 58.53 88.03 63.18 88.37 66.61L82.24 66.3C81.8 66.28 81.66 66.12 81.62 66.05L81.61 66.04ZM53.74 54.76C55.92 54.74 58.22 54.5 60.59 54.05V66.3C60.51 66.48 60.32 66.57 59.97 66.6L53.85 67.08C54.09 63.65 54.23 58.98 53.73 54.76H53.74Z" fill="black"/>
</g>
<defs>
<clipPath id="clip0_695_8">
<rect width="142.5" height="177.7" fill="white"/>
</clipPath>
</defs>
</svg>
