<svg width="296" height="665" viewBox="0 0 296 665" fill="none" xmlns="http://www.w3.org/2000/svg">
<g clip-path="url(#clip0_514_76)">
<path d="M148 663C147.3 663 146.64 662.63 146.28 662.02C141.91 654.7 138.81 637.99 132.05 558.88H120.22C119.71 558.88 119.24 558.69 118.87 558.36C118.51 558.69 118.03 558.88 117.53 558.88H102.14C101.41 558.88 100.73 558.48 100.38 557.84C99.41 556.06 98.92 554.78 98.69 553.24L10.82 551.03V551.28C10.82 552.38 9.92002 553.28 8.82002 553.28H4.01002C2.91002 553.28 2.01002 552.38 2.01002 551.28V522.94C1.35002 504.81 18.8 480.74 39.01 452.88C55.76 429.79 74.74 403.62 87.48 375.5C102.4 342.58 110.72 303.77 118.77 266.23C121.97 251.31 124.99 237.2 128.35 223.85V165.78C129.77 95.81 134.72 60.67 146.03 3.61C146.22 2.67 147.04 2 147.99 2C148.94 2 149.77 2.67 149.95 3.61C161.25 60.68 166.2 95.82 167.62 165.74V223.85C170.98 237.21 174 251.31 177.2 266.23C185.24 303.76 193.56 342.57 208.49 375.49C221.24 403.61 240.22 429.78 256.96 452.87C277.17 480.74 294.63 504.81 293.96 523.01V551.27C293.96 552.37 293.07 553.27 291.96 553.27H287.15C286.05 553.27 285.15 552.37 285.15 551.27V551.02L197.28 553.23C197.05 554.77 196.56 556.06 195.59 557.83C195.24 558.47 194.57 558.87 193.83 558.87H178.44C177.94 558.87 177.46 558.68 177.1 558.35C176.74 558.68 176.26 558.87 175.76 558.87H163.93C157.17 637.98 154.07 654.69 149.7 662.01C149.34 662.62 148.69 662.99 147.98 662.99L148 663Z" fill="white"/>
<path d="M148 4C159.85 63.83 164.27 98.72 165.64 165.78V224.1C177.46 271 185.68 329.97 206.69 376.32C234.93 438.62 293.16 490.85 291.99 522.94V551.28H287.18V548.97L195.47 551.28C195.4 553.43 195.08 554.65 193.87 556.88H178.48C177.41 554.9 177.61 553.68 177.2 551.28C176.68 553.61 176.8 554.85 175.79 556.88H162.13C155.18 638.57 152.03 654.27 148.02 661C144.01 654.28 140.86 638.57 133.91 556.88H120.25C119.24 554.85 119.37 553.6 118.84 551.28C118.43 553.68 118.63 554.9 117.56 556.88H102.17C100.95 554.64 100.64 553.42 100.57 551.28L8.86002 548.97V551.28H4.05002V522.94C2.88002 490.85 61.11 438.62 89.35 376.32C110.36 329.97 118.57 271 130.4 224.1V165.78C131.76 98.72 136.19 63.83 148.04 4M148.04 0C146.13 0 144.49 1.35 144.12 3.22C132.79 60.4 127.83 95.62 126.41 165.69C126.41 165.72 126.41 165.74 126.41 165.77V223.59C123.07 236.91 120.06 250.95 116.87 265.8C108.85 303.23 100.55 341.93 85.72 374.66C73.06 402.59 54.14 428.68 37.45 451.69C16.16 480.99 -0.629976 504.14 0.0200241 523.02V551.28C0.0200241 553.49 1.81002 555.28 4.02002 555.28H8.83002C10.4 555.28 11.75 554.38 12.41 553.07L97.08 555.2C97.4 556.33 97.9 557.45 98.63 558.8C99.33 560.09 100.68 560.89 102.14 560.89H117.53C118 560.89 118.45 560.81 118.87 560.66C119.29 560.81 119.75 560.89 120.22 560.89H130.21C136.89 638.83 140.06 655.53 144.56 663.06C145.28 664.27 146.59 665.01 148 665.01C149.41 665.01 150.71 664.27 151.44 663.06C155.93 655.53 159.1 638.83 165.79 560.89H175.78C176.25 560.89 176.7 560.81 177.13 560.66C177.56 560.81 178.01 560.89 178.47 560.89H193.86C195.33 560.89 196.67 560.09 197.37 558.8C198.1 557.45 198.6 556.33 198.92 555.2L283.59 553.07C284.25 554.38 285.6 555.28 287.17 555.28H291.98C294.19 555.28 295.98 553.49 295.98 551.28V523.02C296.62 504.14 279.84 481 258.6 451.71C241.91 428.7 222.99 402.61 210.33 374.68C195.5 341.95 187.2 303.25 179.18 265.82C176 250.97 172.99 236.93 169.64 223.61V165.79C169.64 165.79 169.64 165.74 169.64 165.71C168.22 95.63 163.25 60.42 151.93 3.24C151.56 1.37 149.92 0.02 148.01 0.02L148.04 0Z" fill="black"/>
</g>
<defs>
<clipPath id="clip0_514_76">
<rect width="296" height="665" fill="white"/>
</clipPath>
</defs>
</svg>
