<svg width="383" height="488" viewBox="0 0 383 488" fill="none" xmlns="http://www.w3.org/2000/svg">
<g clip-path="url(#clip0_514_59)">
<path d="M255.42 486C255.06 486 254.7 485.9 254.38 485.71L196.48 450.48C195.95 457.03 194.99 458.87 192.74 460.65C192.38 460.94 191.94 461.08 191.5 461.08C191.06 461.08 190.62 460.94 190.26 460.65C188.01 458.88 187.05 457.04 186.52 450.48L128.62 485.71C128.3 485.9 127.94 486 127.58 486C127.35 486 127.11 485.96 126.89 485.88C126.32 485.67 125.87 485.21 125.68 484.63C125.59 484.37 123.57 478.17 123.55 473.75C123.52 469.14 125.58 462.04 125.66 461.74C125.76 461.39 125.96 461.08 126.22 460.83L181.3 409.94C180.9 407.24 180.24 402.65 179.42 396.76L170.73 389.34C170.44 389.09 170.23 388.77 170.12 388.41L167.65 380.44H158.96C158.09 380.44 157.31 379.87 157.05 379.04C150.1 356.91 147.38 342.11 149.7 312.89C149.77 312.03 150.38 311.31 151.22 311.1C154.5 310.3 157.09 309.95 159.63 309.95C162.17 309.95 164.7 310.31 167.87 311.11C168.65 311.31 169.24 311.96 169.36 312.76L170.06 317.5L171.14 317.94C170.53 305.03 170.37 286.76 170.33 280.75H142.66C142.22 289.08 141.6 295.95 140.82 301.21C139.41 310.75 137.65 314.46 134.55 314.46C131.65 314.46 128.45 312.13 127.03 285.16L9.04996 342.99C8.78996 343.12 8.50996 343.19 8.21996 343.19C8.19996 343.19 8.10996 343.19 8.08996 343.19C3.21996 343.19 2.43996 336.46 2.09996 330.16C1.48996 322.98 3.36996 320.64 6.30996 317.9L6.78996 317.45C6.78996 317.45 6.86996 317.38 6.90996 317.35L170.31 185.71V76.71C170.31 76.71 170.31 76.63 170.31 76.58C170.37 75.59 171.88 52.18 175.3 37.26C177.05 29.64 180.98 16.43 183.83 9.65999C186.89 2.39999 190.73 1.98999 191.46 1.98999C192.24 1.98999 196.08 2.40999 199.13 9.65999C201.98 16.43 205.92 29.64 207.66 37.26C211.08 52.18 212.58 75.59 212.65 76.58C212.65 76.62 212.65 76.66 212.65 76.71V185.71L376.05 317.35C376.05 317.35 376.13 317.42 376.17 317.45L376.65 317.9C379.59 320.64 381.47 322.98 380.86 330.22C380.52 336.47 379.74 343.19 374.87 343.19C374.87 343.19 374.76 343.19 374.74 343.19C374.45 343.19 374.17 343.11 373.91 342.99L255.93 285.16C254.51 312.13 251.32 314.46 248.41 314.46C245.3 314.46 243.54 310.74 242.14 301.21C241.36 295.95 240.75 289.07 240.3 280.75H212.63C212.59 286.75 212.43 305.03 211.82 317.94L212.9 317.5L213.6 312.76C213.72 311.96 214.31 311.31 215.09 311.11C218.27 310.31 220.81 309.95 223.33 309.95C225.85 309.95 228.46 310.31 231.74 311.1C232.58 311.3 233.19 312.02 233.26 312.89C235.58 342.1 232.86 356.91 225.91 379.04C225.65 379.87 224.88 380.44 224 380.44H215.31L212.84 388.41C212.73 388.77 212.52 389.09 212.23 389.34L203.54 396.76C202.77 402.33 202.12 406.85 201.66 409.94L256.74 460.83C257.01 461.08 257.2 461.39 257.3 461.74C257.39 462.04 259.44 469.13 259.41 473.74C259.38 478.15 257.36 484.36 257.28 484.62C257.09 485.2 256.64 485.66 256.07 485.87C255.85 485.95 255.61 485.99 255.38 485.99L255.42 486Z" fill="white"/>
<path d="M191.5 3.99999C191.5 3.99999 194.61 4.02999 197.31 10.45C200.18 17.25 204.08 30.52 205.74 37.72C209.16 52.65 210.68 76.72 210.68 76.72V186.68L374.83 318.92C377.46 321.4 379.52 322.79 378.9 330.06C378.45 338.31 377.22 341.2 374.91 341.2C374.89 341.2 374.86 341.2 374.84 341.2L254.13 282.03C253.52 295.75 252.04 312.46 248.46 312.46C244.6 312.46 242.94 292.91 242.25 278.74H210.69C210.69 278.74 210.61 303.24 209.82 318.91C209.79 319.59 209.75 320.27 209.71 320.96L214.76 318.91L215.63 313.04C218.5 312.32 220.91 311.94 223.38 311.94C225.8 311.94 228.28 312.3 231.31 313.04C233.56 341.43 231.07 356.08 224.05 378.43H213.88L210.98 387.81L201.71 395.73C200.72 402.89 199.94 408.24 199.58 410.68L255.43 462.29C255.43 462.29 257.49 469.35 257.46 473.73C257.44 477.88 255.43 483.99 255.43 483.99L194.71 447.04C194.22 456.43 193.3 457.66 191.51 459.06C189.73 457.65 188.8 456.43 188.31 447.04L127.59 483.99C127.59 483.99 125.58 477.88 125.56 473.73C125.54 469.35 127.59 462.29 127.59 462.29L183.44 410.68C183.08 408.24 182.29 402.89 181.31 395.73L172.04 387.81L169.14 378.43H158.97C151.95 356.08 149.46 341.43 151.71 313.04C154.74 312.3 157.22 311.94 159.64 311.94C162.11 311.94 164.52 312.31 167.39 313.04L168.26 318.9L173.31 320.95C173.27 320.26 173.23 319.57 173.2 318.9C172.41 303.23 172.33 278.73 172.33 278.73H140.77C140.08 292.9 138.43 312.45 134.56 312.45C130.99 312.45 129.51 295.74 128.89 282.02L8.17995 341.19C8.17995 341.19 8.12995 341.19 8.10995 341.19C5.78995 341.19 4.56995 338.3 4.11995 330.05C3.49995 322.78 5.55995 321.39 8.18995 318.91L172.34 186.67V76.71C172.34 76.71 173.86 52.64 177.28 37.71C178.93 30.51 182.84 17.24 185.7 10.44C188.4 4.01999 191.51 3.98999 191.51 3.98999M191.51 -0.0100098C191.51 -0.0100098 191.48 -0.0100098 191.47 -0.0100098C190.13 -9.76585e-06 185.47 0.689991 182.02 8.88999C179.13 15.75 175.15 29.12 173.38 36.82C169.93 51.9 168.41 75.46 168.35 76.46C168.35 76.54 168.35 76.63 168.35 76.71V184.75L5.66995 315.8C5.58995 315.87 5.50995 315.94 5.42995 316.01L4.95995 316.45C1.69995 319.49 -0.550054 322.26 0.119946 330.34C0.369946 334.92 0.849946 337.94 1.65995 340.12C3.29995 344.54 6.40995 345.2 8.10995 345.2H8.28995C8.85995 345.18 9.42995 345.04 9.94995 344.79L125.23 288.29C125.6 294.16 126.08 299.09 126.67 303C127.66 309.52 129.16 316.47 134.57 316.47C139.98 316.47 141.75 308.75 142.82 301.51C143.55 296.59 144.13 290.3 144.57 282.75H168.36C168.4 288.43 168.52 299.28 168.83 309.32C168.68 309.26 168.53 309.22 168.37 309.18C165.03 308.34 162.34 307.96 159.64 307.96C156.94 307.96 154.2 308.33 150.76 309.17C149.08 309.58 147.86 311.02 147.72 312.74C145.38 342.29 148.12 357.26 155.15 379.64C155.67 381.31 157.22 382.44 158.97 382.44H166.19L168.22 389.01C168.44 389.73 168.87 390.38 169.44 390.87L177.55 397.8C178.22 402.65 178.79 406.57 179.17 409.2L124.87 459.37C124.34 459.86 123.95 460.49 123.74 461.19C123.51 461.97 121.52 468.95 121.55 473.77C121.58 478.41 123.56 484.57 123.78 485.26C124.16 486.42 125.05 487.34 126.2 487.76C126.65 487.93 127.12 488.01 127.58 488.01C128.3 488.01 129.03 487.81 129.66 487.43L184.87 453.84C185.51 458.32 186.65 460.36 189.02 462.23C189.75 462.8 190.62 463.09 191.5 463.09C192.38 463.09 193.25 462.8 193.98 462.23C196.35 460.36 197.49 458.32 198.13 453.84L253.34 487.43C253.97 487.82 254.69 488.01 255.42 488.01C255.89 488.01 256.36 487.93 256.8 487.76C257.95 487.34 258.83 486.42 259.22 485.26C259.45 484.57 261.43 478.41 261.45 473.77C261.48 468.95 259.48 461.97 259.26 461.19C259.06 460.49 258.67 459.86 258.13 459.37L203.83 409.2C204.22 406.55 204.79 402.62 205.45 397.8L213.56 390.87C214.14 390.38 214.56 389.73 214.78 389.01L216.81 382.44H224.03C225.78 382.44 227.32 381.31 227.85 379.64C234.88 357.25 237.63 342.28 235.28 312.74C235.14 311.02 233.92 309.58 232.24 309.17C228.8 308.33 226.06 307.96 223.36 307.96C220.66 307.96 217.97 308.34 214.63 309.18C214.47 309.22 214.32 309.27 214.17 309.32C214.47 299.28 214.59 288.43 214.64 282.75H238.43C238.87 290.29 239.45 296.59 240.18 301.51C241.25 308.75 242.85 316.47 248.43 316.47C254.01 316.47 255.34 309.52 256.33 303C256.92 299.09 257.41 294.17 257.77 288.29L373.05 344.79C373.57 345.04 374.13 345.18 374.71 345.2H374.89C376.59 345.2 379.69 344.54 381.34 340.12C382.15 337.94 382.63 334.92 382.88 330.34C383.55 322.26 381.3 319.49 378.04 316.45L377.57 316.01C377.49 315.94 377.41 315.87 377.33 315.8L214.67 184.76V76.72C214.67 76.64 214.67 76.55 214.67 76.47C214.61 75.47 213.09 51.91 209.64 36.83C207.88 29.13 203.89 15.76 201 8.89999C197.54 0.69999 192.89 0.00999023 191.54 -9.76585e-06C191.53 -9.76585e-06 191.51 -9.76585e-06 191.5 -9.76585e-06L191.51 -0.0100098Z" fill="black"/>
</g>
<defs>
<clipPath id="clip0_514_59">
<rect width="383" height="488" fill="white"/>
</clipPath>
</defs>
</svg>
