<svg width="107" height="100" viewBox="0 0 107 100" fill="none" xmlns="http://www.w3.org/2000/svg">
<g clip-path="url(#clip0_335_7)">
<path d="M53.6401 98.65C53.0301 98.58 38.7901 96.97 36.7001 96.62C35.5601 96.43 34.7801 95.99 34.3801 95.33C34.1201 94.9 34.0801 94.45 34.1401 94.1V88.98C34.1401 87.29 35.6701 86.43 36.5701 86.2C36.6001 86.2 36.6401 86.18 36.6701 86.18L48.2601 84.35C48.4701 82.88 49.0901 78.68 49.5101 76.26C49.6501 75.47 49.6501 74.66 49.5201 73.86C48.0101 64.36 47.5301 55.17 47.4101 52.22H45.9901C42.9901 52.22 39.9501 52.05 36.9601 51.73C22.8301 50.18 5.69012 48.29 4.33012 48.08C3.38012 47.93 2.67012 47.55 2.23012 46.93C1.78012 46.29 1.78012 45.64 1.81012 45.36V38.24C1.81012 35.06 3.80012 34.05 4.85012 33.97L35.3601 32.01C37.1401 31.9 38.9401 31.84 40.7301 31.84H47.4301V29.27C47.4301 27.3 47.5201 25.32 47.7001 23.37C47.9501 20.67 48.2201 18.19 48.5201 15.95C48.4201 15.97 48.3201 15.98 48.2201 15.98C47.7301 15.98 47.2801 15.73 47.0101 15.32L45.8301 13.49C45.5501 13.06 45.5201 12.51 45.7601 12.06C46.0701 11.45 46.8601 9.91 47.5401 8.97C48.1101 8.18 48.8001 8.06 49.1701 8.06C49.4201 8.06 49.6401 8.11 49.8401 8.18C49.9201 7.83 50.0001 7.49 50.0801 7.16C41.6801 7.08 41.6801 6.61 41.6801 5.64C41.6801 4.63 41.6801 4.16 51.0001 4.11C51.8001 2 52.6801 1 53.7301 1C54.7801 1 55.6601 1.99 56.4601 4.11C65.7801 4.15 65.7801 4.63 65.7801 5.64C65.7801 6.62 65.7801 7.09 57.3801 7.16C57.4601 7.49 57.5401 7.83 57.6201 8.18C57.8201 8.11 58.0501 8.06 58.2901 8.06C58.6501 8.06 59.3501 8.18 59.9201 8.97C60.5901 9.9 61.3901 11.45 61.7101 12.07C61.9401 12.53 61.9101 13.07 61.6301 13.5L60.4601 15.32C60.1901 15.73 59.7401 15.98 59.2501 15.98C59.1501 15.98 59.0501 15.97 58.9501 15.95C59.2501 18.19 59.5201 20.67 59.7701 23.37C59.9501 25.31 60.0401 27.3 60.0401 29.27V31.84H66.7401C68.5201 31.84 70.3301 31.9 72.1101 32.01L102.6 33.97C103.67 34.06 105.66 35.06 105.66 38.25V45.37C105.69 45.65 105.69 46.31 105.24 46.94C104.8 47.55 104.1 47.94 103.14 48.09C101.78 48.3 84.6401 50.19 70.5101 51.74C67.5201 52.07 64.4801 52.23 61.4801 52.23H60.0601C59.9401 55.17 59.4601 64.36 57.9501 73.87C57.8201 74.68 57.8301 75.49 57.9601 76.27C58.3801 78.69 58.9901 82.89 59.2101 84.36L70.8001 86.19C70.8001 86.19 70.8701 86.2 70.9001 86.21C71.8001 86.45 73.3301 87.3 73.3301 88.99V94.11C73.3901 94.45 73.3501 94.9 73.0901 95.34C72.6901 96 71.9201 96.43 70.7701 96.63C68.6801 96.99 54.4401 98.59 53.8301 98.66C53.7901 98.66 53.7501 98.66 53.7201 98.66C53.6901 98.66 53.6401 98.66 53.6101 98.66L53.6401 98.65Z" fill="white"/>
<path d="M53.7501 2C54.2601 2 54.9901 2.76 55.7801 5.1C67.7001 5.13 67.8101 6.11 56.1101 6.16C56.3801 7.09 56.6501 8.2 56.9301 9.54H57.2001C57.3101 9.54 57.4101 9.5 57.4901 9.43C57.6501 9.29 57.9701 9.05 58.3401 9.05C58.6001 9.05 58.8901 9.17 59.1501 9.54C59.7901 10.43 60.5701 11.93 60.8501 12.5C60.9201 12.64 60.9101 12.81 60.8301 12.94L59.6501 14.76C59.5601 14.9 59.4201 14.96 59.2801 14.96C59.1101 14.96 58.9401 14.87 58.8701 14.69L57.7301 11.89L57.4301 10.74H57.1601C57.7401 13.86 58.3001 18 58.8001 23.46C58.9801 25.39 59.0701 27.33 59.0701 29.26V32.83H66.7701C68.5401 32.83 70.3101 32.89 72.0701 33L102.56 34.96C102.56 34.96 104.69 35.14 104.69 38.24V45.42C104.69 45.42 104.94 46.79 103.02 47.09C101.53 47.32 79.9501 49.69 70.4301 50.74C67.4701 51.07 64.4901 51.23 61.5001 51.23H59.1201C59.1201 51.23 58.8201 62.16 56.9901 73.71C56.8501 74.62 56.8501 75.54 57.0101 76.44C57.4301 78.88 58.0601 83.13 58.2801 84.66C58.3301 85 58.5901 85.26 58.9301 85.32L70.6801 87.18C70.6801 87.18 72.3601 87.62 72.3601 89V94.23C72.3601 94.23 72.7101 95.29 70.6301 95.65C68.5501 96 53.7501 97.67 53.7501 97.67C53.7501 97.67 38.9501 96 36.8701 95.65C34.7901 95.3 35.1401 94.23 35.1401 94.23V89C35.1401 87.63 36.8201 87.18 36.8201 87.18L48.5701 85.32C48.9101 85.27 49.1701 85 49.2201 84.66C49.4401 83.13 50.0601 78.88 50.4901 76.44C50.6501 75.54 50.6501 74.62 50.5101 73.71C48.6801 62.16 48.3801 51.23 48.3801 51.23H46.0001C43.0201 51.23 40.0401 51.07 37.0701 50.74C27.5501 49.7 5.98014 47.32 4.48014 47.09C2.56014 46.79 2.81014 45.42 2.81014 45.42V38.24C2.81014 35.14 4.94014 34.96 4.94014 34.96L35.4301 33C37.2001 32.89 38.9601 32.83 40.7301 32.83H48.4301V29.26C48.4301 27.32 48.5201 25.38 48.7001 23.46C49.2001 18 49.7701 13.87 50.3401 10.76H50.0701L49.7701 11.9L48.6301 14.7C48.5601 14.88 48.3901 14.97 48.2201 14.97C48.0801 14.97 47.9401 14.9 47.8501 14.77L46.6701 12.95C46.5901 12.82 46.5801 12.65 46.6501 12.51C46.9401 11.94 47.7201 10.43 48.3501 9.55C48.6201 9.18 48.9001 9.06 49.1601 9.06C49.5301 9.06 49.8501 9.3 50.0101 9.44C50.0901 9.51 50.1901 9.55 50.3001 9.55H50.5701C50.8401 8.21 51.1201 7.1 51.3901 6.17C39.6801 6.12 39.8001 5.14 51.7201 5.11C52.5101 2.76 53.2401 2.01 53.7501 2.01M53.7501 0C52.0001 0 50.9401 1.71 50.3301 3.11C48.1001 3.13 46.2101 3.19 44.8201 3.28C42.7901 3.41 40.7001 3.55 40.6901 5.63C40.6901 7.71 42.8401 7.85 44.7301 7.98C45.3701 8.02 46.1201 8.06 46.9601 8.09C46.8801 8.18 46.8001 8.28 46.7301 8.38C46.0401 9.34 45.2601 10.82 44.8601 11.61C44.4701 12.38 44.5201 13.31 44.9901 14.03L46.1701 15.85C46.4701 16.31 46.9001 16.65 47.3901 16.82C47.1401 18.8 46.9101 20.96 46.7001 23.27C46.5201 25.24 46.4301 27.26 46.4301 29.26V30.83H40.7301C38.9301 30.83 37.1001 30.89 35.3001 31L4.81014 32.96C3.40014 33.08 0.810137 34.33 0.810137 38.23V45.3C0.770137 45.76 0.810137 46.64 1.42014 47.5C1.83014 48.08 2.65014 48.82 4.18014 49.06C5.67014 49.29 25.2901 51.45 36.8501 52.72C39.8701 53.05 42.9501 53.22 45.9901 53.22H46.4501C46.6301 56.91 47.1501 65.33 48.5301 74.01C48.6401 74.71 48.6401 75.41 48.5201 76.09C48.1601 78.16 47.6601 81.5 47.3701 83.48L36.5101 85.2C36.4401 85.21 36.3801 85.22 36.3101 85.24C35.1301 85.55 33.1401 86.69 33.1401 88.99V94.05C33.0801 94.49 33.1101 95.16 33.5201 95.85C34.0701 96.77 35.0801 97.36 36.5301 97.61C38.6401 97.97 52.9201 99.58 53.5201 99.65C53.5901 99.65 53.6701 99.66 53.7401 99.66C53.8101 99.66 53.8901 99.66 53.9601 99.65C54.5701 99.58 68.8401 97.97 70.9501 97.61C72.3901 97.36 73.4101 96.77 73.9601 95.85C74.3801 95.16 74.4001 94.49 74.3401 94.05V88.99C74.3401 86.69 72.3401 85.55 71.1701 85.24C71.1101 85.22 71.0401 85.21 70.9701 85.2L60.1101 83.48C59.8201 81.5 59.3201 78.17 58.9601 76.09C58.8401 75.41 58.8401 74.71 58.9501 74.01C60.3301 65.33 60.8501 56.91 61.0301 53.22H61.4901C64.5301 53.22 67.6101 53.05 70.6301 52.72C82.1901 51.45 101.82 49.29 103.3 49.06C104.83 48.82 105.65 48.08 106.06 47.5C106.67 46.64 106.7 45.76 106.67 45.3V38.23C106.67 34.32 104.08 33.07 102.71 32.96L72.1801 31C70.3801 30.88 68.5501 30.83 66.7501 30.83H61.0501V29.26C61.0501 27.26 60.9601 25.25 60.7801 23.27C60.5701 20.96 60.3401 18.81 60.0901 16.82C60.5901 16.64 61.0201 16.3 61.3101 15.85L62.4901 14.03C62.9601 13.31 63.0101 12.38 62.6201 11.61C62.2201 10.82 61.4401 9.34 60.7501 8.38C60.6801 8.28 60.6001 8.18 60.5201 8.09C61.3601 8.06 62.1101 8.03 62.7501 7.98C64.6401 7.85 66.7901 7.71 66.7901 5.63C66.7901 3.55 64.6901 3.41 62.6601 3.28C61.2701 3.19 59.3801 3.13 57.1501 3.11C56.5401 1.71 55.4901 0 53.7301 0L53.7501 0Z" fill="black"/>
</g>
<defs>
<clipPath id="clip0_335_7">
<rect width="105.9" height="99.66" fill="white" transform="translate(0.800049)"/>
</clipPath>
</defs>
</svg>
