<svg width="109" height="164" viewBox="0 0 109 164" fill="none" xmlns="http://www.w3.org/2000/svg">
<g clip-path="url(#clip0_655_8)">
<path d="M48.1402 162.91C47.1602 162.91 46.6302 162.13 46.6202 161.4V150.49C46.1202 150.29 45.6602 149.83 45.6602 149.17V149.06C45.5502 148.86 45.4902 148.61 45.4902 148.31V147.72C45.4902 147.42 45.5602 147.17 45.6602 146.97V146.86C45.6602 146.19 46.1202 145.73 46.6202 145.54V134.64C46.6302 133.89 47.1702 133.12 48.1402 133.12C48.2202 133.12 48.2902 133.12 48.3702 133.14C48.3602 133.05 48.3502 132.95 48.3502 132.86V130.67C48.3502 129.19 49.0702 128.56 49.6802 128.36L49.3102 122.1H38.6902C37.8202 122.1 37.1102 121.39 37.1102 120.52V115.33C37.1102 114.46 37.8202 113.75 38.6902 113.75H48.8102L46.7902 79.66C46.1102 78.76 43.8702 75.58 41.6702 70.26L41.1702 70.76L41.1202 73.36C41.1202 74.07 40.5602 74.84 39.5102 74.84C38.7602 74.84 38.2402 74.43 38.0102 73.93L16.5302 95.41C16.6102 95.91 16.4302 96.32 16.1702 96.58L14.4902 98.26C14.4002 98.35 13.9402 98.77 13.2502 98.77C13.2202 98.77 13.1902 98.77 13.1602 98.77L6.39017 105.54C6.12017 105.81 5.77017 105.96 5.39017 105.96C5.01017 105.96 4.66017 105.81 4.39017 105.55L1.52017 102.68C1.52017 102.68 1.47017 102.62 1.44017 102.59C0.890173 101.89 0.740173 100.77 1.53017 99.98L37.8602 63.65V39.33C37.8602 39.33 37.8602 39.23 37.8702 39.19C37.9802 38.41 38.6202 37.62 39.6202 37.62C39.9402 37.62 40.2502 37.71 40.5002 37.87C40.5102 37.54 40.5202 37.3 40.5202 37.18C40.5202 36.25 40.7602 35.69 41.0402 35.36C41.1602 32.4 42.3702 30.01 44.5502 28.38V26.04C44.5502 25.87 44.5602 25.18 45.0102 24.71C45.2602 24.45 45.6002 24.31 45.9602 24.31C46.7402 24.31 47.3602 24.97 47.4802 25.9C47.4802 25.94 47.4802 25.98 47.4802 26.02V26.89C48.9702 26.42 50.8002 26.15 52.6302 26.15C54.4602 26.15 56.2802 26.42 57.7802 26.89V26.02C57.7802 26.02 57.7802 25.94 57.7802 25.9C57.8902 24.96 58.5102 24.31 59.2902 24.31C59.6502 24.31 59.9902 24.45 60.2402 24.71C60.6902 25.18 60.7102 25.87 60.7002 26.07V28.38C62.8802 30.01 64.0802 32.4 64.2102 35.36C64.5002 35.69 64.7302 36.25 64.7302 37.18C64.7302 37.25 64.7302 37.42 64.7502 37.87C64.9602 37.74 65.1902 37.66 65.4502 37.63L101.54 1.55C101.9 1.19 102.35 1 102.85 1C103.54 1 104.06 1.38 104.16 1.46C104.19 1.48 104.22 1.51 104.25 1.54L107.11 4.4C107.38 4.66 107.53 5.02 107.53 5.4C107.53 5.78 107.38 6.14 107.11 6.4L100.34 13.17C100.37 13.69 100.14 14.18 99.8302 14.49L98.1502 16.17C97.9102 16.41 97.5802 16.55 97.2202 16.55C97.1402 16.55 97.0602 16.55 96.9802 16.53L67.4502 46.06V73.27C67.3902 74.07 66.8102 74.79 65.8002 74.79C64.7902 74.79 64.1902 74.02 64.1902 73.29L64.1202 70.01H63.7202C61.4902 75.46 59.2002 78.7 58.5102 79.62L56.4902 113.71H66.6102C67.4802 113.71 68.1902 114.42 68.1902 115.29V120.48C68.1902 121.35 67.4802 122.06 66.6102 122.06H55.9902L55.6202 128.32C56.2402 128.53 56.9502 129.16 56.9502 130.64V132.83C56.9502 133.82 56.3602 134.83 55.2302 134.93L54.3802 149.22C53.9402 152.32 53.5902 153.1 52.6402 153.1C51.6902 153.1 51.3502 152.35 50.9402 149.5H49.7602C49.7202 149.61 49.6702 149.71 49.6002 149.81V161.36C49.6002 161.46 49.6002 162.02 49.1902 162.46C48.9202 162.75 48.5402 162.91 48.1202 162.91H48.1402ZM50.7602 146.5L50.0802 134.93C49.9202 134.92 49.7702 134.88 49.6302 134.83V146.19C49.7002 146.29 49.7502 146.39 49.7902 146.5H50.7702H50.7602Z" fill="white"/>
<path d="M102.85 2C103.23 2 103.54 2.24 103.54 2.24L106.4 5.1C106.56 5.26 106.56 5.53 106.4 5.69L99.2202 12.87C99.5402 13.36 99.1202 13.78 99.1202 13.78L97.4402 15.46C97.3802 15.52 97.3002 15.55 97.2202 15.55C97.0502 15.55 96.8602 15.45 96.7302 15.36L66.4402 45.65V73.28C66.4402 73.28 66.4002 73.8 65.7902 73.8C65.1802 73.8 65.1802 73.3 65.1802 73.3L65.1002 69.29C65.1002 69.29 65.0802 69.02 64.7202 69.02H63.0402C60.3902 75.73 57.5302 79.26 57.5302 79.26L55.4302 114.72H66.6102C66.9302 114.72 67.1902 114.98 67.1902 115.3V120.49C67.1902 120.81 66.9302 121.07 66.6102 121.07H55.0502L54.5702 129.24H55.1502C55.1502 129.24 55.9602 129.24 55.9602 130.64V132.83C55.9602 132.83 55.9602 133.94 55.0402 133.94H54.2902L53.3902 149.16C53.3902 149.16 52.9702 152.1 52.6502 152.1C52.3302 152.1 51.9102 149.16 51.9102 149.16V148.92C51.7502 148.72 51.5302 148.5 51.2902 148.5H48.9102C48.9102 148.5 48.9602 149.35 48.6102 149.35V161.36C48.6102 161.36 48.6402 161.91 48.1202 161.91C47.6002 161.91 47.6002 161.39 47.6002 161.39V149.59H47.0602C47.0602 149.59 46.6402 149.5 46.6402 149.17V148.64C46.6402 148.64 46.6302 148.64 46.6102 148.64C46.5602 148.64 46.4602 148.6 46.4602 148.31V147.72C46.4602 147.42 46.5602 147.39 46.6102 147.39C46.6302 147.39 46.6402 147.39 46.6402 147.39V146.86C46.6402 146.53 47.0602 146.44 47.0602 146.44H47.6002V134.64C47.6002 134.64 47.6002 134.12 48.1202 134.12C48.6402 134.12 48.6102 134.67 48.6102 134.67V146.68C48.9502 146.68 48.9102 147.53 48.9102 147.53H51.2902C51.4802 147.53 51.6502 147.39 51.7902 147.24L51.0102 133.97H50.2602C49.3402 133.97 49.3402 132.86 49.3402 132.86V130.67C49.3402 129.27 50.1502 129.27 50.1502 129.27H50.7302L50.2502 121.1H38.6902C38.3702 121.1 38.1102 120.84 38.1102 120.52V115.33C38.1102 115.01 38.3702 114.75 38.6902 114.75H49.8702L47.7702 79.29C47.7702 79.29 44.9102 75.76 42.2602 69.05H41.4602L40.1802 70.33L40.1202 73.33C40.1202 73.33 40.1202 73.83 39.5102 73.83C38.9002 73.83 38.8602 73.31 38.8602 73.31V71.65L15.3502 95.16C15.4802 95.36 15.6502 95.68 15.4602 95.87C15.1702 96.16 13.7802 97.55 13.7802 97.55C13.7802 97.55 13.5602 97.77 13.2502 97.77C13.1302 97.77 13.0002 97.74 12.8702 97.65L5.6902 104.83C5.6102 104.91 5.5002 104.95 5.3902 104.95C5.2802 104.95 5.1802 104.91 5.0902 104.83L2.2302 101.97C2.2302 101.97 1.6702 101.26 2.2402 100.69C2.6502 100.28 25.4102 77.52 38.8602 64.07V39.34C38.8602 39.34 38.9602 38.63 39.6202 38.63C40.2802 38.63 40.2402 39.34 40.2402 39.34V48.84C40.2402 49.15 40.3802 49.25 40.5102 49.27C40.7402 48.35 40.9202 47.82 40.9202 47.82C40.9202 47.82 41.5302 38.23 41.5302 37.18C41.5302 36.13 41.8702 35.88 42.0402 35.88C42.0402 32.7 43.3602 30.36 45.5602 28.9V26.04C45.5602 26.04 45.5402 25.31 45.9802 25.31C46.4202 25.31 46.5002 26.02 46.5002 26.02V28.36C48.1102 27.56 50.4502 27.15 52.6502 27.15C54.8502 27.15 57.1902 27.56 58.8002 28.36V26.02C58.8002 26.02 58.8802 25.31 59.3202 25.31C59.7602 25.31 59.7402 26.04 59.7402 26.04V28.9C61.9402 30.35 63.2602 32.69 63.2602 35.88C63.4302 35.88 63.7702 36.14 63.7702 37.18C63.7702 37.54 63.8402 38.94 63.9402 40.6C64.3002 40.24 64.6802 39.86 65.0602 39.48V39.33C65.0602 39.33 65.0302 38.62 65.6802 38.62C65.7602 38.62 65.8302 38.63 65.8902 38.65L102.25 2.26C102.45 2.06 102.66 2 102.85 2ZM64.7902 49.23C64.9202 49.21 65.0602 49.11 65.0602 48.8V47.04L64.3802 47.72V47.79C64.3802 47.79 64.5602 48.31 64.7902 49.24M63.5802 67.61H64.7202C64.7202 67.61 65.1802 67.51 65.1802 66.8V62.1C64.9802 63.14 64.7202 64.21 64.3802 65.29C64.1202 66.1 63.8502 66.88 63.5802 67.62M40.1302 62.78C40.1302 62.78 40.2102 62.7 40.2502 62.66C40.2102 62.47 40.1602 62.28 40.1302 62.09V62.78ZM102.85 0C102.1 0 101.38 0.3 100.84 0.85L65.6602 36.03C65.5602 35.61 65.4202 35.26 65.2302 34.98C65.0302 32.08 63.8102 29.61 61.7402 27.88V26.04C61.7402 25.63 61.6802 24.7 60.9902 23.99C60.5502 23.54 59.9602 23.29 59.3202 23.29C58.0702 23.29 57.0802 24.22 56.8402 25.57C55.5502 25.28 54.1102 25.12 52.6502 25.12C51.1902 25.12 49.7602 25.28 48.4602 25.57C48.2202 24.22 47.2302 23.29 45.9802 23.29C45.3402 23.29 44.7502 23.54 44.3102 23.99C43.6302 24.69 43.5602 25.63 43.5602 26.04V27.88C41.4902 29.61 40.2702 32.08 40.0702 34.98C39.8102 35.38 39.6202 35.91 39.5502 36.6C38.0302 36.64 37.0602 37.83 36.8802 39.02C36.8702 39.12 36.8602 39.21 36.8602 39.31V63.22L19.3402 80.74L0.850198 99.24C-0.349802 100.44 -0.149802 102.13 0.680198 103.18C0.730198 103.24 0.780198 103.3 0.830198 103.35L3.6902 106.21C4.1502 106.67 4.7502 106.92 5.4002 106.92C6.0502 106.92 6.6502 106.67 7.1102 106.21L13.6102 99.71C14.4702 99.6 15.0302 99.1 15.2002 98.93L16.8902 97.24C17.2402 96.89 17.5202 96.38 17.5602 95.76L37.9902 75.33C38.4002 75.62 38.9202 75.79 39.5302 75.79C41.0202 75.79 41.9602 74.73 42.1102 73.62C43.7002 76.9 45.1402 79.04 45.8202 79.98L47.7602 112.72H38.7002C37.2802 112.72 36.1202 113.88 36.1202 115.3V120.49C36.1202 121.91 37.2802 123.07 38.7002 123.07H48.3702L48.6502 127.75C47.9402 128.26 47.3502 129.17 47.3502 130.64V132.22C46.2702 132.56 45.6302 133.59 45.6102 134.6V144.95C45.0402 145.38 44.6802 146.03 44.6502 146.75C44.5402 147.03 44.4802 147.35 44.4802 147.72V148.31C44.4802 148.67 44.5402 149 44.6502 149.28C44.6802 150 45.0402 150.65 45.6102 151.08V161.4C45.6302 162.66 46.5802 163.92 48.1302 163.92C48.8302 163.92 49.4702 163.65 49.9302 163.16C50.5502 162.5 50.6202 161.71 50.6102 161.36V152.62C50.9902 153.52 51.5902 154.12 52.6402 154.12C54.7002 154.12 55.0202 151.86 55.3602 149.46C55.3602 149.41 55.3702 149.35 55.3802 149.3L56.1802 135.74C57.3402 135.25 57.9502 134.02 57.9502 132.86V130.67C57.9502 129.2 57.3602 128.28 56.6502 127.78L56.9302 123.1H66.6002C68.0202 123.1 69.1802 121.94 69.1802 120.52V115.33C69.1802 113.91 68.0202 112.75 66.6002 112.75H57.5402L59.4802 80.01C60.1602 79.07 61.6002 76.94 63.1902 73.66C63.3302 74.76 64.2802 75.83 65.7802 75.83C67.3702 75.83 68.3302 74.61 68.4202 73.47C68.4202 73.42 68.4202 73.36 68.4202 73.31V46.51L97.3502 17.58C97.9102 17.54 98.4302 17.31 98.8302 16.91L100.51 15.23C100.9 14.83 101.21 14.26 101.3 13.63L107.8 7.13C108.26 6.67 108.51 6.07 108.51 5.42C108.51 4.77 108.26 4.17 107.8 3.71L104.94 0.85C104.89 0.8 104.83 0.74 104.77 0.7C104.57 0.54 103.84 0.02 102.84 0.02L102.85 0Z" fill="black"/>
</g>
<defs>
<clipPath id="clip0_655_8">
<rect width="108.52" height="163.91" fill="white"/>
</clipPath>
</defs>
</svg>
