<svg width="127" height="127" viewBox="0 0 127 127" fill="none" xmlns="http://www.w3.org/2000/svg">
<g clip-path="url(#clip0_637_2)">
<path d="M84.6193 125.55C84.4393 125.55 83.5293 125.48 83.5293 124.18V121.87H65.0393V122.64C65.0393 122.72 65.0393 122.8 65.0093 122.87C64.8793 123.43 64.4293 123.8 63.9093 123.8C63.3893 123.8 62.9393 123.43 62.8093 122.87C62.7893 122.79 62.7793 122.71 62.7793 122.64V121.87H44.2893V124.18C44.2893 125.48 43.3793 125.55 43.1993 125.55C42.9193 125.55 42.5993 125.41 42.4093 125.2C42.0993 124.87 42.0693 124.41 42.0893 124.09V122.97C41.9993 122.81 41.9393 122.62 41.8993 122.42C41.8693 122.27 41.1693 118.32 40.9593 116.66C40.7393 114.98 40.5493 111.25 40.5393 111.09V99.0498L38.1193 68.7798L24.1293 68.7298C23.8993 68.7298 23.6893 68.6498 23.5193 68.5198H4.82933C4.65933 68.6498 4.44933 68.7298 4.21933 68.7298C4.13933 68.7298 2.25933 68.6998 2.15933 65.8498C1.94933 61.3598 1.96933 58.1098 1.98933 55.2398C1.98933 54.4498 1.99933 53.6898 1.99933 52.9398C1.99933 50.4998 2.68933 48.2498 3.94933 46.6098C4.47933 45.9198 5.32933 45.8598 5.56933 45.8598H38.2193C38.4093 45.7198 38.5393 45.5098 38.5693 45.2698C38.6693 44.4598 38.9493 42.8998 39.2893 42.1398C39.3593 41.9598 39.4693 41.8098 39.6093 41.6898C39.6093 41.6398 39.6193 41.5898 39.6293 41.5298C37.3193 41.5298 34.1693 40.9498 34.0393 40.9298C33.9893 40.9298 33.9393 40.9098 33.8893 40.8898C33.3293 40.6898 32.9693 40.2598 32.9693 39.7398C32.9693 39.4898 33.0593 38.8898 33.9093 38.5798C34.1593 38.4898 34.5493 38.3998 36.1793 38.3998C37.5093 38.3998 39.2093 38.4598 40.4193 38.5198C40.6693 37.9798 40.9593 37.5398 41.2893 37.2098C41.2993 36.6698 41.7393 36.2298 42.2893 36.2298H42.7793C43.3193 36.2298 43.7693 36.6698 43.7793 37.2098C44.1093 37.5298 44.3893 37.9598 44.6393 38.4898C45.7193 38.4498 47.0193 38.4098 48.0793 38.4098C49.7093 38.4098 50.0993 38.4998 50.3393 38.5898C51.1993 38.8998 51.2893 39.5098 51.2893 39.7598C51.2893 40.2698 50.9293 40.7098 50.3693 40.9098C50.3193 40.9298 50.2693 40.9398 50.2193 40.9498C50.0993 40.9698 47.6093 41.4298 45.4393 41.5298C45.4393 41.5998 45.4593 41.6598 45.4593 41.7198C45.5993 41.8398 45.7093 41.9998 45.7893 42.1898C46.1193 42.9098 46.3993 44.4798 46.4993 45.2898C46.5293 45.5298 46.6593 45.7498 46.8493 45.8798H53.6993C54.2693 45.8798 54.8493 45.8198 55.4093 45.6998C56.7293 45.4198 57.4293 45.2898 57.8193 45.2198V42.9898C57.8193 42.1698 57.7693 41.3698 57.6693 40.6098C57.2093 37.1098 57.2393 34.2498 57.2393 34.1298C57.2393 34.1298 57.1693 30.9898 57.2393 26.9298C57.2993 23.5698 58.1493 20.4398 58.5093 19.2498C58.5693 19.0498 58.6093 18.8398 58.6093 18.6198C58.6293 17.9498 58.6993 16.5998 59.0393 15.0198C60.0493 9.39977 61.5993 7.30977 62.5093 6.53977V4.17977C62.5793 2.42977 62.7293 1.00977 63.9093 1.00977C65.0893 1.00977 65.2393 2.42977 65.3093 4.13977V6.53977C66.2193 7.30977 67.7693 9.40977 68.7893 15.0498C69.1193 16.5998 69.1993 17.9598 69.2093 18.6198C69.2093 18.8398 69.2493 19.0498 69.3093 19.2498C69.6693 20.4398 70.5193 23.5698 70.5793 26.9298C70.6493 30.9998 70.5793 34.1398 70.5793 34.1698C70.5793 34.2498 70.6193 37.1098 70.1493 40.6098C70.0493 41.3698 69.9993 42.1698 69.9993 42.9898V45.2198C70.3893 45.2898 71.0893 45.4198 72.4093 45.6998C72.9693 45.8198 73.5493 45.8798 74.1193 45.8798H80.9693C81.1593 45.7398 81.2893 45.5298 81.3193 45.2898C81.4193 44.4798 81.6993 42.9098 82.0393 42.1598C82.1093 41.9898 82.2193 41.8298 82.3593 41.7098C82.3593 41.6598 82.3693 41.5998 82.3793 41.5298C80.2093 41.4298 77.7193 40.9698 77.5993 40.9498C77.5493 40.9498 77.4993 40.9298 77.4493 40.9098C76.8893 40.7098 76.5293 40.2798 76.5293 39.7598C76.5293 39.5098 76.6193 38.9098 77.4693 38.5998C77.7193 38.5098 78.1093 38.4198 79.7393 38.4198C80.7993 38.4198 82.0993 38.4598 83.1793 38.4998C83.4193 37.9698 83.7093 37.5498 84.0393 37.2198C84.0493 36.6798 84.4893 36.2398 85.0393 36.2398H85.5293C86.0693 36.2398 86.5193 36.6798 86.5293 37.2198C86.8593 37.5498 87.1593 37.9898 87.4093 38.5298C88.6193 38.4798 90.3193 38.4098 91.6493 38.4098C93.2793 38.4098 93.6693 38.4998 93.9193 38.5898C94.7793 38.8998 94.8693 39.5098 94.8693 39.7598C94.8693 40.2698 94.5093 40.7098 93.9493 40.9098C93.8993 40.9298 93.8493 40.9398 93.7993 40.9498C93.6693 40.9698 90.5193 41.5498 88.2093 41.5498C88.2093 41.6098 88.2193 41.6698 88.2293 41.7198C88.3693 41.8398 88.4793 41.9998 88.5593 42.1898C88.8893 42.9198 89.1693 44.4798 89.2693 45.2898C89.2993 45.5298 89.4293 45.7498 89.6193 45.8798H122.269C122.519 45.8798 123.369 45.9298 123.889 46.5998C125.159 48.2598 125.859 50.5098 125.859 52.9498C125.859 53.6998 125.859 54.4598 125.869 55.2498C125.889 58.1198 125.909 61.3598 125.699 65.8698C125.589 68.6998 123.719 68.7398 123.639 68.7398C123.409 68.7398 123.199 68.6598 123.029 68.5298H104.309C104.139 68.6598 103.929 68.7398 103.699 68.7398L89.7093 68.7898L87.2893 99.1398V111.05C87.2893 111.26 87.0893 114.99 86.8793 116.67C86.6593 118.33 85.9593 122.28 85.9293 122.44C85.8993 122.64 85.8293 122.82 85.7493 122.98V124.18C85.7693 124.42 85.7393 124.87 85.4293 125.21C85.2393 125.42 84.9193 125.56 84.6393 125.56L84.6193 125.55ZM83.3993 105.8V98.6898C83.4093 97.0698 82.2293 84.0798 81.5993 77.0998C81.3893 74.8298 81.2393 73.0898 81.1793 72.3798C81.0393 70.7398 80.9893 69.5198 80.9693 68.7498H70.2493C68.8193 79.1798 64.7993 79.8798 63.9893 79.9198C63.9693 79.9198 63.8693 79.9198 63.8593 79.9198C63.0493 79.8798 59.0293 79.1698 57.5993 68.7498H46.8793C46.8593 69.5298 46.8093 70.7398 46.6693 72.3798C46.6093 73.0898 46.4493 74.8298 46.2493 77.0998C45.6193 84.0798 44.4393 97.0598 44.4393 98.6898V105.8H83.3993Z" fill="white"/>
<path d="M63.9196 2C64.2296 2 64.3196 4.17 64.3196 4.17V7.06C64.3196 7.06 66.4896 7.85 67.8096 15.22C68.1296 16.72 68.1996 17.99 68.2196 18.64C68.2196 18.94 68.2796 19.25 68.3596 19.54C68.6996 20.65 69.5296 23.69 69.5896 26.95C69.6596 31.04 69.5896 34.15 69.5896 34.15C69.5896 34.15 69.6296 37.01 69.1696 40.48C69.0596 41.31 69.0096 42.15 69.0096 42.99V45.5C69.0096 45.5 68.9396 46.1 69.4896 46.15C69.8496 46.18 71.2496 46.47 72.2096 46.67C72.8396 46.8 73.4796 46.87 74.1196 46.87H81.2196C81.8096 46.61 82.2296 46.06 82.3096 45.4C82.4196 44.47 82.7096 43.11 82.9496 42.56C83.0096 42.42 83.0896 42.4 83.1796 42.4C83.1896 42.4 83.2096 42.4 83.2196 42.4C83.2696 42.4 83.3096 42.36 83.3096 42.31V42.06C83.3096 42.06 83.3596 41.38 83.5496 40.54C83.4296 40.54 83.3096 40.54 83.1796 40.54C80.9296 40.54 77.7596 39.96 77.7596 39.96C77.7596 39.96 77.1796 39.76 77.7896 39.53C78.0396 39.44 78.7896 39.41 79.7196 39.41C81.0096 39.41 82.6596 39.47 83.8196 39.52C84.0696 38.79 84.4296 38.09 84.9496 37.72C84.9896 37.69 85.0096 37.65 85.0096 37.61V37.23H85.4996V37.61C85.4996 37.61 85.5196 37.7 85.5596 37.72C86.0896 38.09 86.4596 38.81 86.7096 39.55C87.7896 39.5 89.9896 39.4 91.6196 39.4C92.5496 39.4 93.2996 39.43 93.5496 39.52C94.1596 39.74 93.5796 39.95 93.5796 39.95C93.5796 39.95 90.4096 40.53 88.1696 40.53C87.7196 40.53 87.3096 40.51 86.9696 40.45C87.1696 41.32 87.2296 42.05 87.2296 42.05V42.3C87.2296 42.35 87.2696 42.39 87.3196 42.39C87.3296 42.39 87.3496 42.39 87.3596 42.39C87.4596 42.39 87.5396 42.41 87.5896 42.55C87.8396 43.1 88.1196 44.47 88.2296 45.39C88.3096 46.05 88.7296 46.61 89.3196 46.86H122.22C122.29 46.86 122.79 46.87 123.03 47.19C123.29 47.53 124.79 49.42 124.79 52.94C124.79 56.46 124.9 60.11 124.63 65.81C124.56 67.71 123.6 67.72 123.57 67.72V67.51H103.63V67.72L88.7196 67.77L86.2296 99.04V111.03C86.2296 111.03 86.0396 114.86 85.8196 116.52C85.5996 118.18 84.8796 122.25 84.8796 122.25C84.8796 122.25 84.8296 122.58 84.6796 122.58V124.16C84.6796 124.16 84.7096 124.53 84.5696 124.53C84.4796 124.53 84.4796 124.31 84.4796 124.16V120.85H63.9896V122.62C63.9896 122.62 63.9496 122.78 63.8596 122.78C63.7696 122.78 63.7296 122.62 63.7296 122.62V120.85H43.2396V124.16C43.2396 124.3 43.2396 124.53 43.1496 124.53C43.0096 124.53 43.0396 124.16 43.0396 124.16V122.58C42.8996 122.58 42.8396 122.25 42.8396 122.25C42.8396 122.25 42.1196 118.18 41.8996 116.52C41.6796 114.86 41.4896 111.03 41.4896 111.03V99.04L38.9996 67.77L24.0896 67.72V67.51H4.21957V67.72C4.21957 67.72 3.22957 67.7 3.15957 65.81C2.88957 60.1 2.99957 56.46 2.99957 52.94C2.99957 49.42 4.49957 47.54 4.75957 47.19C4.99957 46.87 5.50957 46.86 5.56957 46.86H38.4696C39.0596 46.6 39.4796 46.05 39.5596 45.39C39.6696 44.46 39.9596 43.1 40.1996 42.55C40.2596 42.41 40.3396 42.39 40.4296 42.39C40.4396 42.39 40.4596 42.39 40.4696 42.39C40.5196 42.39 40.5596 42.35 40.5596 42.3V42.05C40.5596 42.05 40.6196 41.33 40.8196 40.45C40.4796 40.51 40.0596 40.53 39.6196 40.53C37.3696 40.53 34.2096 39.95 34.2096 39.95C34.2096 39.95 33.6296 39.75 34.2396 39.52C34.4896 39.43 35.2396 39.4 36.1696 39.4C37.7996 39.4 39.9996 39.49 41.0796 39.55C41.3296 38.81 41.6996 38.09 42.2296 37.72C42.2696 37.69 42.2896 37.65 42.2896 37.61V37.23H42.7796V37.61C42.7796 37.61 42.7996 37.7 42.8396 37.72C43.3596 38.09 43.7196 38.78 43.9696 39.52C45.1396 39.47 46.7796 39.41 48.0696 39.41C48.9996 39.41 49.7496 39.44 49.9996 39.53C50.6096 39.75 50.0296 39.96 50.0296 39.96C50.0296 39.96 46.8596 40.54 44.6096 40.54C44.4796 40.54 44.3596 40.54 44.2396 40.54C44.4296 41.38 44.4796 42.06 44.4796 42.06V42.31C44.4796 42.36 44.5196 42.4 44.5696 42.4C44.5796 42.4 44.5996 42.4 44.6096 42.4C44.7096 42.4 44.7896 42.42 44.8396 42.56C45.0896 43.11 45.3696 44.48 45.4796 45.4C45.5596 46.06 45.9796 46.62 46.5696 46.87H53.6696C54.3096 46.87 54.9496 46.8 55.5796 46.67C56.5396 46.47 57.9496 46.18 58.2996 46.15C58.8496 46.1 58.7796 45.5 58.7796 45.5V42.99C58.7796 42.15 58.7296 41.31 58.6196 40.48C58.1596 37.01 58.1996 34.15 58.1996 34.15C58.1996 34.15 58.1296 31.04 58.1996 26.95C58.2596 23.7 59.0896 20.65 59.4296 19.54C59.5196 19.25 59.5696 18.95 59.5696 18.64C59.5896 17.99 59.6596 16.71 59.9796 15.22C61.2996 7.85 63.4696 7.06 63.4696 7.06V4.17C63.4696 4.17 63.5596 2 63.8696 2M63.9396 78.92H63.9196H63.8996C62.7496 78.87 59.5696 77.1 58.4796 67.75H45.8896C45.8896 67.75 45.9296 69.3 45.6696 72.3C45.4196 75.3 43.4296 96.5 43.4296 98.69V105.98C43.4296 105.98 43.4796 106.79 44.1396 106.79H83.6896C84.3496 106.79 84.3996 105.98 84.3996 105.98V98.69C84.3996 96.5 82.4096 75.3 82.1596 72.3C81.9096 69.3 81.9396 67.75 81.9396 67.75H69.3496C68.2596 77.1 65.0896 78.87 63.9296 78.92M63.9196 0C61.6896 0 61.5796 2.66 61.5196 4.09C61.5196 4.12 61.5196 4.14 61.5196 4.17V6.09C60.4096 7.23 58.9996 9.66 58.0696 14.83C57.7296 16.48 57.6396 17.89 57.6296 18.58C57.6296 18.71 57.6096 18.83 57.5696 18.94C57.1896 20.17 56.3096 23.4 56.2496 26.89C56.1796 30.79 56.2496 33.77 56.2496 34.13C56.2496 34.51 56.2396 37.32 56.6796 40.71C56.7696 41.43 56.8196 42.19 56.8196 42.96V44.36C56.4196 44.44 55.8996 44.55 55.1996 44.69C54.7096 44.79 54.1996 44.85 53.6996 44.85H47.4496C47.3496 44.15 47.1596 43.16 46.9296 42.39C48.6996 42.21 50.2996 41.92 50.3996 41.9C50.4996 41.88 50.5996 41.86 50.6996 41.82C51.6596 41.49 52.2796 40.67 52.2896 39.74C52.2896 39.38 52.1896 38.17 50.6996 37.63C50.2696 37.48 49.7096 37.39 48.0796 37.39C47.1996 37.39 46.1696 37.42 45.2396 37.45C45.0796 37.19 44.9096 36.95 44.7296 36.74C44.5196 35.87 43.7296 35.22 42.7896 35.22H42.2996C41.3596 35.22 40.5696 35.87 40.3596 36.74C40.1696 36.96 39.9896 37.21 39.8296 37.48C38.6996 37.43 37.3196 37.39 36.1796 37.39C34.5596 37.39 33.9996 37.48 33.5796 37.62C32.0696 38.17 31.9696 39.38 31.9696 39.74C31.9696 40.67 32.5996 41.49 33.5596 41.82C33.6596 41.85 33.7596 41.88 33.8596 41.9C33.9696 41.92 36.0596 42.3 38.1196 42.45C37.8896 43.21 37.7196 44.16 37.6196 44.84H5.56957C5.19957 44.84 3.94957 44.92 3.15957 45.96C1.75957 47.82 0.989569 50.29 0.989569 52.95C0.989569 53.7 0.989569 54.46 0.979569 55.24C0.959569 58.12 0.939569 61.38 1.14957 65.91C1.25957 68.93 3.19957 69.73 4.20957 69.73C4.52957 69.73 4.83957 69.65 5.09957 69.52H23.2596C23.5296 69.65 23.8296 69.73 24.1496 69.73L37.2196 69.77L39.5596 99.13V111.04C39.5596 111.04 39.5596 111.11 39.5596 111.14C39.5596 111.3 39.7596 115.07 39.9796 116.79C40.1996 118.48 40.8996 122.44 40.9296 122.61C40.9596 122.82 41.0196 123.02 41.0996 123.21V124.12C41.0696 124.63 41.1696 125.32 41.6896 125.89C42.0796 126.31 42.6396 126.56 43.2096 126.56C43.9296 126.56 45.2996 126.07 45.2996 124.19V122.88H61.7996C61.7996 122.96 61.8196 123.04 61.8396 123.12C62.0796 124.12 62.9296 124.82 63.9096 124.82C64.8896 124.82 65.7396 124.12 65.9796 123.12C65.9996 123.04 66.0096 122.96 66.0196 122.88H82.5196V124.19C82.5196 126.06 83.8896 126.56 84.6096 126.56C85.1896 126.56 85.7396 126.32 86.1296 125.89C86.6496 125.33 86.7396 124.64 86.7196 124.12V123.21C86.7996 123.02 86.8596 122.81 86.8896 122.59C86.9196 122.45 87.6196 118.48 87.8396 116.8C88.0596 115.08 88.2596 111.31 88.2596 111.15C88.2596 111.12 88.2596 111.08 88.2596 111.05V99.14L90.5996 69.78L103.67 69.74C103.99 69.74 104.29 69.66 104.56 69.53H122.71C122.98 69.66 123.28 69.74 123.6 69.74C124.61 69.74 126.55 68.94 126.66 65.9C126.87 61.39 126.85 58.12 126.83 55.25C126.83 54.47 126.82 53.71 126.82 52.96C126.82 50.3 126.05 47.83 124.66 46.02C123.85 44.96 122.61 44.88 122.24 44.88C122.22 44.88 122.2 44.88 122.18 44.88H90.1896C90.0896 44.2 89.9096 43.25 89.6896 42.49C91.7496 42.34 93.8396 41.96 93.9496 41.94C94.0496 41.92 94.1496 41.9 94.2496 41.86C95.2096 41.53 95.8296 40.71 95.8396 39.78C95.8396 39.42 95.7396 38.21 94.2496 37.67C93.8196 37.52 93.2596 37.43 91.6296 37.43C90.4996 37.43 89.1196 37.47 87.9896 37.52C87.8296 37.24 87.6496 37 87.4596 36.78C87.2496 35.91 86.4596 35.26 85.5196 35.26H85.0296C84.0896 35.26 83.2996 35.91 83.0896 36.78C82.9096 36.99 82.7396 37.23 82.5796 37.49C81.6396 37.46 80.6096 37.43 79.7396 37.43C78.1196 37.43 77.5596 37.52 77.1396 37.66C75.6296 38.21 75.5296 39.42 75.5296 39.78C75.5296 40.71 76.1596 41.53 77.1196 41.86C77.2196 41.89 77.3196 41.92 77.4196 41.94C77.5196 41.96 79.1096 42.25 80.8896 42.43C80.6496 43.2 80.4696 44.19 80.3696 44.89H74.1196C73.6196 44.89 73.1096 44.84 72.6196 44.73C71.9296 44.58 71.3996 44.48 70.9996 44.4V43C70.9996 42.23 71.0496 41.47 71.1396 40.75C71.5896 37.36 71.5796 34.55 71.5796 34.17C71.5796 33.8 71.6496 30.83 71.5796 26.93C71.5196 23.44 70.6396 20.2 70.2596 18.98C70.2296 18.87 70.2096 18.74 70.1996 18.62C70.1796 17.92 70.0996 16.51 69.7596 14.87C68.8296 9.7 67.4196 7.27 66.3096 6.13V4.21C66.3096 4.21 66.3096 4.16 66.3096 4.13C66.2496 2.7 66.1496 0.04 63.9096 0.04L63.9196 0ZM71.0996 69.76H79.9896C80.0196 70.48 80.0796 71.39 80.1696 72.48C80.2296 73.2 80.3896 74.94 80.5996 77.23C81.1896 83.69 82.4096 97.13 82.4096 98.71V104.82H45.4296V98.71C45.4296 97.13 46.6496 83.69 47.2396 77.23C47.4496 74.95 47.6096 73.2 47.6696 72.48C47.7596 71.39 47.8196 70.48 47.8496 69.76H56.7396C58.3196 79.65 62.4696 80.79 63.6596 80.91C63.7396 80.91 63.8196 80.92 63.8996 80.92C63.8996 80.92 63.9196 80.92 63.9296 80.92H63.9496C64.0296 80.92 64.1096 80.92 64.1896 80.91C65.3796 80.79 69.5296 79.66 71.1096 69.75L71.0996 69.76Z" fill="black"/>
</g>
<defs>
<clipPath id="clip0_637_2">
<rect width="125.9" height="126.55" fill="white" transform="translate(0.969727)"/>
</clipPath>
</defs>
</svg>
