<svg width="295" height="259" viewBox="0 0 295 259" fill="none" xmlns="http://www.w3.org/2000/svg">
<g clip-path="url(#clip0_495_22)">
<path d="M147.63 256.7C146.99 256.7 146.03 256.47 145.09 255.37C144.61 254.8 144.22 254.11 143.94 253.33L142.84 250.25H136.56C136.47 250.25 136.38 250.25 136.29 250.23L97.7901 244.94C97.6501 244.92 97.5101 244.89 97.3801 244.84C97.0701 244.73 89.6801 241.97 89.6801 235.56C89.6801 229.15 97.1401 226.4 97.4601 226.28C97.5501 226.25 97.6401 226.22 97.7301 226.2C110.61 223.53 129.09 219.69 135 218.43C128.92 188.31 128.85 145.87 128.85 144.04C128.85 141.17 127.2 140.98 127.13 140.97C127.09 140.97 127.06 140.97 127.02 140.96C122.53 140.3 17.0801 124.74 10.7301 123.51C2.87012 121.99 2.87012 114.18 2.87012 109.51V109.22C2.87012 104.52 7.21012 102.75 10.1901 102.69C11.9801 102.51 40.6301 99.57 69.2001 96.69C69.3201 96.44 69.3801 96.18 69.3901 95.91L69.8701 81.7C69.9901 78.18 70.5801 74.77 71.6401 71.53C69.1101 71.41 67.1001 71.29 65.6501 71.16C62.9101 70.93 60.9301 70.77 60.9301 68.68C60.9301 66.59 62.9001 66.43 65.8801 66.19C67.7701 66.04 70.5401 65.88 74.1301 65.73C75.2301 63.73 76.6201 61.97 78.5201 61.97C80.3101 61.97 81.5101 63.64 82.5001 65.68C86.4901 65.84 89.5801 66 91.6801 66.16C92.1501 66.2 92.5901 66.23 93.0101 66.27C92.7201 65.94 92.5601 65.5 92.5601 64.91C92.5601 62.82 94.5301 62.66 97.5101 62.42C99.4001 62.27 102.17 62.11 105.76 61.96C106.86 59.97 108.25 58.2 110.14 58.2C111.93 58.2 113.13 59.87 114.12 61.91C118.11 62.07 121.2 62.23 123.3 62.39C126.6 62.64 128.59 62.8 128.59 64.91C128.59 67.02 126.57 67.17 123.5 67.42C121.78 67.56 119.37 67.69 116.31 67.83C117.21 71.04 117.71 74.43 117.81 77.94L118.21 91.82C127.04 90.98 127.6 90.98 127.88 90.98C128.83 90.96 129.22 90.59 129.37 90.32V57.74C129.37 30.25 138.58 2.22998 147.62 2.22998C155.59 2.22998 165.87 29.15 165.87 57.74V90.34C166.01 90.56 166.39 90.95 167.4 90.98H167.42C167.67 90.98 168.43 91 177.03 91.82L177.43 77.94C177.53 74.44 178.04 71.05 178.93 67.83C175.87 67.69 173.45 67.56 171.74 67.42C168.68 67.18 166.65 67.02 166.65 64.91C166.65 62.79 168.64 62.64 171.94 62.39C174.04 62.23 177.12 62.07 181.12 61.91C182.1 59.87 183.31 58.2 185.1 58.2C187 58.2 188.38 59.97 189.48 61.96C193.07 62.11 195.84 62.27 197.73 62.42C200.71 62.66 202.67 62.82 202.68 64.91C202.68 65.5 202.52 65.94 202.23 66.27C202.65 66.23 203.09 66.2 203.56 66.16C205.66 66 208.74 65.84 212.74 65.68C213.72 63.64 214.93 61.97 216.72 61.97C218.3 61.97 219.64 63.11 221.1 65.73C224.69 65.88 227.46 66.04 229.35 66.19C232.33 66.43 234.29 66.59 234.3 68.68C234.3 70.76 232.32 70.93 229.58 71.16C228.13 71.28 226.12 71.4 223.59 71.53C224.64 74.77 225.24 78.17 225.36 81.7L225.84 95.91C225.84 96.18 225.91 96.45 226.03 96.69C254.6 99.57 283.26 102.51 285.04 102.69C288.02 102.75 292.36 104.52 292.36 109.22V109.51C292.36 114.18 292.36 121.99 284.5 123.51C278.15 124.74 172.7 140.3 168.21 140.96C168.17 140.96 168.14 140.96 168.1 140.97C167.74 141.03 166.38 141.43 166.38 144.04C166.38 145.87 166.31 188.32 160.23 218.44C166.13 219.69 184.61 223.54 197.5 226.21C197.59 226.23 197.68 226.25 197.77 226.29C198.09 226.4 205.55 229.16 205.55 235.57C205.55 241.98 198.17 244.73 197.85 244.85C197.72 244.9 197.58 244.93 197.44 244.95L158.94 250.24C158.85 250.25 158.76 250.26 158.67 250.26H152.39L151.29 253.34C151.01 254.12 150.62 254.81 150.14 255.38C149.2 256.48 148.24 256.71 147.6 256.71L147.63 256.7ZM84.7001 71.62C85.6001 74.83 86.1001 78.22 86.2001 81.72L86.5801 94.95C91.3901 94.47 96.0201 94.01 100.34 93.58L100.47 93.44C100.8 93.09 100.99 92.63 101.01 92.15L101.49 77.94C101.61 74.42 102.2 71.01 103.26 67.77C100.73 67.65 98.7201 67.53 97.2701 67.4C97.0101 67.38 96.7601 67.36 96.5201 67.34C96.8201 67.67 96.9701 68.11 96.9701 68.7C96.9701 70.8 94.9501 70.96 91.8901 71.21C90.1701 71.35 87.7601 71.48 84.7001 71.62ZM208.67 94.95L209.05 81.72C209.15 78.22 209.66 74.83 210.55 71.61C207.49 71.47 205.07 71.34 203.36 71.2C200.3 70.96 198.27 70.8 198.28 68.69C198.28 68.1 198.44 67.66 198.73 67.33C198.49 67.35 198.24 67.37 197.98 67.39C196.53 67.51 194.52 67.63 191.99 67.76C193.04 71 193.64 74.4 193.76 77.93L194.24 92.14C194.26 92.62 194.45 93.08 194.78 93.43L194.91 93.57C199.23 94 203.86 94.46 208.67 94.94V94.95Z" fill="white"/>
<path d="M147.63 4.25C153.16 4.25 163.88 28.18 163.88 57.76V90.71C163.88 90.71 164.41 92.92 167.36 92.99C167.36 92.99 167.36 92.99 167.37 92.99C167.92 92.99 171.78 93.34 177.77 93.91C178.38 93.39 179.01 92.81 179.03 92.21L179.44 78C179.56 73.86 180.28 69.76 181.63 65.95C164.06 65.26 164.34 64.56 182.44 63.87C183.32 61.82 184.27 60.21 185.11 60.21C186.09 60.21 187.22 61.85 188.26 63.92C204.53 64.58 204.83 65.23 189.16 65.89C190.76 69.72 191.62 73.84 191.76 78L192.24 92.21C192.27 93.18 192.66 94.1 193.32 94.8L193.97 95.49C198.95 95.98 204.38 96.53 210.02 97.09C210.37 96.73 210.63 96.36 210.64 95.98L211.05 81.77C211.17 77.63 211.89 73.53 213.24 69.72C195.67 69.03 195.95 68.33 214.05 67.64C214.93 65.59 215.88 63.98 216.72 63.98C217.7 63.98 218.83 65.62 219.87 67.69C236.14 68.35 236.44 69 220.77 69.66C222.37 73.49 223.23 77.61 223.37 81.77L223.85 95.98C223.88 96.95 224.27 97.87 224.93 98.57L224.95 98.59C254.74 101.6 284.94 104.69 284.94 104.69C284.94 104.69 290.38 104.73 290.38 109.22C290.38 113.71 290.53 120.31 284.14 121.55C277.76 122.78 167.94 138.99 167.94 138.99C167.94 138.99 164.41 139.32 164.41 144.05C164.41 148.78 164.14 190.9 157.9 219.98C158.99 220.27 197.12 228.17 197.12 228.17C197.12 228.17 203.57 230.49 203.57 235.57C203.57 240.65 197.19 242.97 197.19 242.97L158.69 248.26H151L149.42 252.66C149.24 253.17 148.98 253.67 148.63 254.08C148.35 254.41 147.99 254.71 147.62 254.71C147.25 254.71 146.89 254.42 146.61 254.08C146.26 253.66 146 253.17 145.82 252.66L144.24 248.26H136.55L98.0499 242.97C98.0499 242.97 91.6699 240.65 91.6699 235.57C91.6699 230.49 98.1199 228.17 98.1199 228.17C98.1199 228.17 136.26 220.27 137.34 219.98C131.11 190.91 130.83 148.78 130.83 144.05C130.83 139.32 127.3 138.99 127.3 138.99C127.3 138.99 17.4799 122.79 11.0999 121.55C4.71988 120.32 4.85988 113.72 4.85988 109.22C4.85988 104.72 10.2999 104.69 10.2999 104.69C10.2999 104.69 40.4899 101.6 70.2899 98.59L70.3099 98.57C70.9699 97.86 71.3499 96.94 71.3899 95.98L71.8699 81.77C72.0099 77.61 72.8699 73.49 74.4699 69.66C58.7999 69 59.0999 68.35 75.3699 67.69C76.4099 65.62 77.5399 63.98 78.5199 63.98C79.3499 63.98 80.3099 65.59 81.1899 67.64C99.2899 68.33 99.5699 69.03 81.9999 69.72C83.3499 73.54 84.0699 77.63 84.1899 81.77L84.5999 95.98C84.6099 96.36 84.8699 96.74 85.2199 97.09C90.8599 96.52 96.2899 95.98 101.27 95.49L101.92 94.8C102.58 94.1 102.96 93.17 103 92.21L103.48 78C103.62 73.84 104.48 69.72 106.08 65.89C90.4099 65.23 90.7099 64.58 106.98 63.92C108.02 61.85 109.15 60.21 110.13 60.21C110.96 60.21 111.92 61.82 112.8 63.87C130.9 64.56 131.18 65.26 113.61 65.95C114.96 69.77 115.68 73.86 115.8 78L116.21 92.21C116.23 92.81 116.85 93.38 117.47 93.91C123.46 93.34 127.32 92.99 127.87 92.99C127.87 92.99 127.87 92.99 127.88 92.99C130.83 92.92 131.36 90.71 131.36 90.71V57.76C131.36 28.18 141.29 4.25 147.61 4.25M147.63 0.25C140.96 0.25 136.18 10.24 133.34 18.63C129.49 30.01 127.37 43.9 127.37 57.76V60.95C127.05 60.86 126.71 60.78 126.33 60.72C125.65 60.62 124.71 60.52 123.45 60.42C121.54 60.27 118.82 60.13 115.37 59.98C114.32 58.14 112.69 56.22 110.14 56.22C107.59 56.22 105.73 58.21 104.58 60.03C101.49 60.17 99.0699 60.31 97.3499 60.45C96.1999 60.54 95.3299 60.64 94.6999 60.74C91.7399 61.22 90.8899 62.96 90.6499 64.11C88.8599 63.99 86.5499 63.87 83.7599 63.75C82.7099 61.91 81.0799 59.99 78.5299 59.99C75.9799 59.99 74.1199 61.98 72.9699 63.8C69.8799 63.94 67.4599 64.08 65.7399 64.22C64.5899 64.31 63.7199 64.41 63.0899 64.51C59.2499 65.13 58.9499 67.88 58.9499 68.71C58.9499 69.53 59.2399 72.27 63.0099 72.9C63.5999 73 64.4199 73.09 65.4999 73.18C66.4499 73.26 67.6299 73.34 69.0399 73.42C68.3699 76.08 67.9899 78.83 67.8899 81.65L67.4399 94.88C39.9299 97.66 12.4899 100.47 10.0799 100.71C5.46988 100.82 0.879883 103.76 0.879883 109.23V109.52C0.879883 114.11 0.879883 123.65 10.3599 125.48C16.7299 126.71 121.34 142.15 126.67 142.94C126.72 143.01 126.85 143.35 126.85 144.05C126.85 145.85 126.92 186.73 132.65 216.9C125.38 218.43 108.99 221.84 97.3199 224.26C97.1399 224.3 96.9499 224.35 96.7799 224.41C93.3999 225.63 87.6799 229.34 87.6799 235.57C87.6799 241.8 93.3499 245.51 96.6899 246.72C96.9599 246.82 97.2299 246.89 97.5099 246.92L136.01 252.21C136.19 252.23 136.37 252.25 136.55 252.25H141.42L142.05 254C142.41 255.01 142.92 255.91 143.56 256.66C144.99 258.34 146.56 258.7 147.62 258.7C148.68 258.7 150.25 258.35 151.68 256.66C152.32 255.91 152.83 255.01 153.19 254L153.82 252.25H158.69C158.87 252.25 159.05 252.24 159.23 252.21L197.73 246.92C198.01 246.88 198.29 246.81 198.55 246.72C201.9 245.5 207.56 241.78 207.56 235.57C207.56 229.36 201.84 225.63 198.46 224.41C198.28 224.35 198.1 224.3 197.92 224.26C186.25 221.84 169.89 218.44 162.59 216.9C168.33 186.74 168.39 145.85 168.39 144.05C168.39 143.37 168.52 143.03 168.58 142.94C173.96 142.15 278.52 126.71 284.89 125.48C294.38 123.65 294.37 114.1 294.37 109.52V109.23C294.37 103.75 289.78 100.82 285.17 100.7C282.76 100.45 255.33 97.65 227.82 94.87L227.36 81.64C227.26 78.82 226.88 76.06 226.21 73.41C227.61 73.33 228.8 73.25 229.75 73.17C230.83 73.08 231.64 72.99 232.24 72.89C236.01 72.26 236.3 69.52 236.3 68.7C236.3 67.87 236 65.12 232.16 64.5C231.53 64.4 230.67 64.3 229.51 64.21C227.79 64.07 225.37 63.93 222.28 63.79C221.13 61.98 219.33 59.98 216.72 59.98C214.11 59.98 212.54 61.89 211.49 63.74C208.7 63.86 206.39 63.98 204.6 64.1C204.36 62.95 203.5 61.21 200.55 60.73C199.92 60.63 199.06 60.53 197.9 60.44C196.18 60.3 193.76 60.16 190.67 60.02C189.52 58.21 187.72 56.21 185.11 56.21C182.5 56.21 180.93 58.12 179.88 59.97C176.42 60.12 173.71 60.26 171.8 60.41C170.54 60.51 169.6 60.6 168.92 60.71C168.54 60.77 168.19 60.85 167.88 60.94V57.75C167.88 39.35 163.95 25.32 161.61 18.59C158.69 10.22 153.9 0.25 147.63 0.25ZM167.88 89.01V68.93C168.18 69.02 168.5 69.09 168.85 69.15C169.5 69.25 170.4 69.35 171.59 69.44C172.84 69.54 174.46 69.64 176.42 69.74C175.85 72.37 175.52 75.11 175.44 77.9L175.1 89.65C170.27 89.19 168.57 89.06 167.88 89.02V89.01ZM118.84 69.73C120.8 69.63 122.41 69.53 123.67 69.43C124.87 69.34 125.76 69.24 126.41 69.14C126.76 69.08 127.09 69.01 127.38 68.92V89C126.69 89.04 124.99 89.18 120.16 89.63L119.82 77.88C119.74 75.08 119.41 72.35 118.84 69.72V69.73ZM87.2299 73.5C89.1899 73.4 90.7999 73.3 92.0599 73.2C93.2599 73.11 94.1499 73.01 94.7999 72.91C97.7899 72.44 98.6599 70.69 98.8999 69.53C99.4399 69.57 100.03 69.6 100.66 69.64C99.9899 72.3 99.6099 75.05 99.5099 77.87L99.0399 91.7C95.6999 92.03 92.1699 92.38 88.5299 92.75L88.2099 81.66C88.1299 78.86 87.7999 76.13 87.2299 73.5ZM194.61 69.64C195.24 69.6 195.83 69.57 196.37 69.53C196.61 70.69 197.48 72.43 200.47 72.91C201.12 73.01 202.02 73.11 203.21 73.2C204.46 73.3 206.08 73.4 208.04 73.5C207.47 76.14 207.14 78.87 207.06 81.66L206.74 92.75C203.1 92.39 199.58 92.03 196.23 91.7L195.76 77.87C195.66 75.05 195.28 72.29 194.61 69.64Z" fill="black"/>
</g>
<defs>
<clipPath id="clip0_495_22">
<rect width="293.5" height="258.45" fill="white" transform="translate(0.879883 0.25)"/>
</clipPath>
</defs>
</svg>
