<svg width="89" height="67" viewBox="0 0 89 67" fill="none" xmlns="http://www.w3.org/2000/svg">
<g clip-path="url(#clip0_731_53)">
<path d="M44.2 65.9198C43.33 65.9198 42.72 65.1698 42.68 64.0498V61.9498C42.68 61.9498 42.64 61.9498 42.62 61.9498C38.4 61.6598 31.24 61.1698 30.74 61.0398C29.9 60.8298 29.5 60.1598 29.47 59.5898C29.47 59.4698 29.47 59.2998 29.81 57.0198C30.04 55.4598 30.81 54.4998 31.42 53.9698C31.9 53.5498 32.51 53.2798 33.17 53.1998L42.26 52.1298C42.26 51.7398 42.21 51.3398 42.12 50.9598C41.46 48.0798 39.27 38.5498 38.96 36.9398C38.83 36.2798 37.99 35.1198 36.7 33.8598C36.15 33.3098 35.41 32.9798 34.63 32.9298C25.17 32.2998 3.11 30.8298 2.52 30.7298C1 30.4798 1 29.0098 1 28.4498C1 19.6898 4.86 19.1998 5.3 19.1698C5.57 19.1498 32.52 17.2398 37.86 16.8298C37.95 10.2998 38.98 7.16977 40.02 5.66977C35.93 5.66977 35.27 5.33977 34.88 4.94977C34.49 4.55977 34.49 3.92977 34.88 3.53977C35.34 3.07977 36.23 2.65977 39.64 2.65977C40.68 2.65977 41.7 2.69977 42.41 2.73977C42.91 1.54977 43.48 1.00977 44.2 1.00977C44.92 1.00977 45.49 1.54977 45.99 2.73977C46.7 2.69977 47.71 2.65977 48.76 2.65977C52.17 2.65977 53.06 3.07977 53.52 3.53977C53.71 3.72977 53.81 3.97977 53.81 4.24977C53.81 4.51977 53.7 4.76977 53.52 4.95977C53.13 5.34977 52.47 5.67977 48.37 5.67977C49.42 7.17977 50.45 10.3098 50.54 16.8398C55.88 17.2498 82.84 19.1598 83.11 19.1798C83.54 19.2098 87.4 19.6898 87.4 28.4598C87.4 29.0198 87.4 30.4898 85.88 30.7398C85.29 30.8298 63.23 32.3098 53.77 32.9398C52.99 32.9898 52.26 33.3198 51.7 33.8698C50.41 35.1398 49.57 36.2898 49.44 36.9498C49.12 38.5698 46.94 48.0898 46.28 50.9698C46.19 51.3498 46.14 51.7498 46.14 52.1398L55.23 53.2098C55.89 53.2898 56.5 53.5498 56.98 53.9798C57.59 54.5098 58.36 55.4698 58.59 57.0298C58.93 59.3198 58.93 59.4798 58.93 59.5498C58.9 60.1698 58.5 60.8398 57.66 61.0498C57.16 61.1798 50 61.6698 45.78 61.9598C45.76 61.9598 45.74 61.9598 45.72 61.9598V64.0198C45.68 65.1698 45.07 65.9198 44.2 65.9198Z" fill="white"/>
<path d="M44.2 2C44.59 2 45.02 2.87 45.32 3.77C45.85 3.73 47.28 3.65 48.77 3.65C50.53 3.65 52.35 3.77 52.82 4.24C52.47 4.59 50.25 4.67 48.26 4.67C47.18 4.67 46.17 4.65 45.56 4.63C45.62 4.9 45.65 5.15 45.65 5.33H46.39C46.39 5.33 49.45 5.53 49.55 17.2C49.55 17.51 49.79 17.77 50.1 17.8C54.46 18.14 83.05 20.17 83.05 20.17C83.05 20.17 86.41 20.37 86.41 28.45C86.41 29.11 86.37 29.64 85.73 29.74C85.18 29.83 60.14 31.5 53.71 31.93C52.69 32 51.73 32.43 51.01 33.15C50 34.15 48.69 35.62 48.47 36.75C48.15 38.36 45.95 48 45.32 50.74C45.21 51.23 45.15 51.72 45.15 52.22V53.03L55.12 54.2C55.57 54.25 55.99 54.43 56.33 54.73C56.82 55.16 57.42 55.93 57.61 57.18C57.94 59.39 57.94 59.56 57.94 59.56C57.94 59.56 57.92 59.97 57.43 60.09C56.94 60.21 45.72 60.97 45.72 60.97C45.72 60.97 45.28 60.9 45.2 60.37C45.12 59.84 45.1 59.59 45.1 59.59C45.1 59.59 45.06 59.58 45 59.58C44.89 59.58 44.73 59.63 44.73 59.96V64.04C44.73 64.04 44.7 64.94 44.21 64.94C43.72 64.94 43.69 64.04 43.69 64.04V59.96C43.69 59.63 43.53 59.58 43.42 59.58C43.37 59.58 43.32 59.59 43.32 59.59C43.32 59.59 43.3 59.84 43.22 60.37C43.14 60.9 42.7 60.97 42.7 60.97C42.7 60.97 31.49 60.21 30.99 60.09C30.5 59.97 30.48 59.56 30.48 59.56C30.48 59.56 30.48 59.4 30.81 57.18C31 55.93 31.6 55.16 32.09 54.73C32.43 54.43 32.85 54.26 33.3 54.2L43.27 53.03V52.22C43.27 51.72 43.21 51.23 43.1 50.74C42.47 48 40.26 38.36 39.95 36.75C39.73 35.62 38.42 34.14 37.41 33.15C36.68 32.43 35.73 32 34.71 31.93C28.28 31.5 3.25 29.83 2.69 29.74C2.05 29.64 2.01 29.1 2.01 28.45C2.01 20.37 5.37 20.17 5.37 20.17C5.37 20.17 33.96 18.14 38.32 17.8C38.63 17.78 38.87 17.51 38.87 17.2C38.96 5.53 42.03 5.33 42.03 5.33H42.77C42.77 5.15 42.8 4.9 42.86 4.63C42.24 4.65 41.23 4.67 40.16 4.67C38.17 4.67 35.95 4.59 35.6 4.24C36.07 3.77 37.89 3.65 39.65 3.65C41.14 3.65 42.57 3.74 43.1 3.77C43.4 2.88 43.82 2 44.22 2M44.2 0C43.01 0 42.26 0.84 41.79 1.7C41.16 1.67 40.41 1.65 39.64 1.65C36.07 1.65 34.9 2.1 34.18 2.82C33.8 3.2 33.59 3.7 33.59 4.23C33.59 4.76 33.8 5.27 34.18 5.64C34.77 6.23 35.6 6.55 38.38 6.63C37.61 8.51 37.02 11.42 36.89 15.88C29.95 16.4 5.49 18.14 5.23 18.15C4.71 18.18 0.0100002 18.75 0.0100002 28.43C0.0100002 30.94 1.49 31.55 2.37 31.7C2.54 31.73 3.05 31.81 34.57 33.91C35.11 33.95 35.62 34.17 36 34.55C37.5 36.04 37.94 36.91 37.98 37.12C38.3 38.76 40.49 48.29 41.15 51.18C41.15 51.2 41.16 51.23 41.17 51.25L33.06 52.2C32.19 52.3 31.4 52.65 30.76 53.21C30.03 53.85 29.1 55.01 28.82 56.87C28.47 59.23 28.47 59.4 28.47 59.54C28.47 59.57 28.47 59.61 28.47 59.64C28.52 60.58 29.16 61.68 30.5 62.01C30.69 62.06 31.14 62.17 41.68 62.89V64.02C41.68 64.02 41.68 64.07 41.68 64.09C41.74 65.73 42.8 66.92 44.2 66.92C45.6 66.92 46.67 65.73 46.72 64.09C46.72 64.07 46.72 64.04 46.72 64.02V62.89C57.27 62.17 57.71 62.06 57.91 62.01C59.24 61.68 59.89 60.58 59.93 59.64C59.93 59.61 59.93 59.57 59.93 59.54C59.93 59.39 59.93 59.23 59.58 56.87C59.3 55.01 58.37 53.86 57.64 53.21C57 52.65 56.21 52.3 55.34 52.2L47.23 51.25C47.23 51.25 47.24 51.2 47.25 51.18C47.91 48.3 50.1 38.76 50.42 37.12C50.46 36.91 50.9 36.04 52.4 34.55C52.78 34.17 53.29 33.94 53.83 33.91C85.35 31.81 85.86 31.73 86.03 31.7C86.91 31.56 88.39 30.94 88.39 28.43C88.39 18.75 83.69 18.18 83.15 18.15C82.9 18.13 58.44 16.4 51.51 15.88C51.38 11.42 50.79 8.51 50.02 6.63C52.8 6.55 53.62 6.23 54.22 5.64C54.6 5.26 54.81 4.76 54.81 4.23C54.81 3.7 54.6 3.19 54.22 2.82C53.5 2.1 52.33 1.65 48.76 1.65C47.99 1.65 47.24 1.67 46.61 1.7C46.14 0.85 45.39 0 44.2 0Z" fill="black"/>
</g>
<defs>
<clipPath id="clip0_731_53">
<rect width="88.4" height="66.92" fill="white"/>
</clipPath>
</defs>
</svg>
