<svg width="18" height="18" viewBox="0 0 18 18" fill="none" xmlns="http://www.w3.org/2000/svg">
<path d="M16.5998 13.4H1.40006C1.17907 13.4 1.00007 13.579 1.00007 13.8V14.6C1.00007 14.821 1.17907 15 1.40006 15H16.5998C16.8208 15 16.9998 14.821 16.9998 14.6V13.8C16.9998 13.579 16.8208 13.4 16.5998 13.4ZM3.01378 10.7318C3.17078 10.9028 3.39128 10.9998 3.62202 10.9995L6.88546 10.995C7.143 10.9947 7.39685 10.9337 7.62645 10.817L14.9003 7.12585C15.5688 6.78661 16.168 6.30237 16.5758 5.66813C17.0335 4.95614 17.0833 4.4409 16.9025 4.07691C16.7223 3.71267 16.284 3.44517 15.4463 3.39067C14.7001 3.34217 13.9578 3.53867 13.2893 3.87766L10.8266 5.12739L5.35924 3.07593C5.2935 3.03164 5.21713 3.00572 5.13802 3.00084C5.05891 2.99597 4.97993 3.01231 4.90925 3.04818L3.26553 3.88241C2.99878 4.01766 2.93428 4.37365 3.13628 4.59565L7.04171 7.0481L4.46151 8.35758L2.65279 7.44585C2.59047 7.41443 2.52165 7.3981 2.45186 7.39819C2.38207 7.39828 2.31328 7.41477 2.25105 7.44635L1.24782 7.95559C0.986821 8.08808 0.918073 8.43358 1.10857 8.65757L3.01378 10.7318Z" fill="#E6E6EB"/>
</svg>
