<svg width="18" height="18" viewBox="0 0 18 18" fill="none" xmlns="http://www.w3.org/2000/svg">
<path d="M16.6 13.8H1.4C1.179 13.8 1 13.979 1 14.2V15C1 15.221 1.179 15.4 1.4 15.4H16.6C16.821 15.4 17 15.221 17 15V14.2C17 13.979 16.821 13.8 16.6 13.8ZM2.12025 7.74149L4.33875 9.7415C4.52078 9.90586 4.7389 10.0252 4.9755 10.0897L12.1655 12.0485C12.8275 12.2287 13.5295 12.2665 14.1905 12.0825C14.9323 11.8757 15.2765 11.5522 15.3717 11.1897C15.4675 10.8272 15.3285 10.372 14.7875 9.81574C14.3055 9.32025 13.6788 8.99599 13.0168 8.81574L10.579 8.15174L8.07 3.3555C8.03225 3.21025 7.92125 3.09675 7.7785 3.05775L6.15125 2.6145C5.88725 2.5425 5.62875 2.7475 5.6335 3.0255L6.8315 7.13074L4.2765 6.43474L3.58675 4.73775C3.5385 4.61549 3.4365 4.52349 3.31125 4.48949L2.318 4.21874C2.0595 4.14824 1.80475 4.34374 1.8 4.61574L1.80575 7.16024C1.8105 7.38299 1.9565 7.59374 2.12025 7.74149Z" fill="#E6E6EB"/>
</svg>
