<svg width="8" height="8" viewBox="0 0 8 8" fill="none" xmlns="http://www.w3.org/2000/svg">
<path d="M4.00003 4.85L1.2667 7.58333C1.14447 7.70556 1.00558 7.76389 0.850029 7.75833C0.694473 7.75278 0.555584 7.68889 0.433362 7.56667C0.31114 7.44445 0.250029 7.30278 0.250029 7.14167C0.250029 6.98056 0.31114 6.83889 0.433362 6.71667L3.15003 4L0.416695 1.26667C0.294473 1.14444 0.23614 1.00278 0.241695 0.841667C0.247251 0.680556 0.31114 0.538889 0.433362 0.416667C0.555584 0.294445 0.697251 0.233334 0.858362 0.233334C1.01947 0.233334 1.16114 0.294445 1.28336 0.416667L4.00003 3.15L6.73336 0.416667C6.85558 0.294445 6.99725 0.233334 7.15836 0.233334C7.31947 0.233334 7.46114 0.294445 7.58336 0.416667C7.70558 0.538889 7.7667 0.680556 7.7667 0.841667C7.7667 1.00278 7.70558 1.14444 7.58336 1.26667L4.85003 4L7.58336 6.73333C7.70558 6.85556 7.7667 6.99444 7.7667 7.15C7.7667 7.30556 7.70558 7.44445 7.58336 7.56667C7.46114 7.68889 7.31947 7.75 7.15836 7.75C6.99725 7.75 6.85558 7.68889 6.73336 7.56667L4.00003 4.85Z" fill="#E7E7E7"/>
</svg>
