<svg width="10" height="10" viewBox="0 0 10 10" fill="none" xmlns="http://www.w3.org/2000/svg">
<path d="M4.69837 5.77083L1.2817 9.1875C1.12893 9.34028 0.955314 9.41319 0.76087 9.40625C0.566425 9.39931 0.392814 9.31944 0.240036 9.16667C0.0872585 9.01389 0.0108696 8.83681 0.0108696 8.63542C0.0108696 8.43403 0.0872585 8.25694 0.240036 8.10417L3.63587 4.70833L0.219203 1.29167C0.0664251 1.13889 -0.00649155 0.961806 0.000452899 0.760417C0.00739734 0.559028 0.0872585 0.381944 0.240036 0.229167C0.392814 0.0763889 0.569897 0 0.771286 0C0.972675 0 1.14976 0.0763889 1.30254 0.229167L4.69837 3.64583L8.11504 0.229167C8.26781 0.0763889 8.4449 0 8.64629 0C8.84768 0 9.02476 0.0763889 9.17754 0.229167C9.33031 0.381944 9.4067 0.559028 9.4067 0.760417C9.4067 0.961806 9.33031 1.13889 9.17754 1.29167L5.76087 4.70833L9.17754 8.125C9.33031 8.27778 9.4067 8.45139 9.4067 8.64583C9.4067 8.84028 9.33031 9.01389 9.17754 9.16667C9.02476 9.31944 8.84768 9.39583 8.64629 9.39583C8.4449 9.39583 8.26781 9.31944 8.11504 9.16667L4.69837 5.77083Z" fill="#E7E7E7"/>
</svg>
