<svg width="31" height="14" viewBox="0 0 31 14" fill="none" xmlns="http://www.w3.org/2000/svg">
<path d="M5.21829 0.0799999C5.27162 0.0799999 5.30895 0.0986667 5.33029 0.136C5.35695 0.173333 5.35962 0.216 5.33829 0.264L3.41829 5.848C3.38629 5.96 3.30362 6.016 3.17029 6.016H2.17029C2.03162 6.016 1.94629 5.96 1.91429 5.848L0.0102857 0.272C-0.00571427 0.218667 -0.00304764 0.173333 0.0182857 0.136C0.0449524 0.0986667 0.0849524 0.0799999 0.138286 0.0799999H1.29029C1.37562 0.0799999 1.43162 0.125333 1.45829 0.216L2.77029 4.264C2.80229 4.34933 2.83429 4.34667 2.86629 4.256L4.13829 0.216C4.15962 0.125333 4.21829 0.0799999 4.31429 0.0799999H5.21829Z" fill="#F6F6F6"/>
<path d="M5.14572 6.016C5.09772 6.016 5.06306 5.99467 5.04172 5.952C5.02039 5.90933 5.02039 5.85333 5.04172 5.784L7.03372 0.24C7.05506 0.181333 7.07906 0.141333 7.10572 0.12C7.13239 0.0933332 7.17772 0.0799999 7.24172 0.0799999H8.44172C8.55906 0.0799999 8.63906 0.138667 8.68172 0.256L10.6577 5.8C10.6737 5.84267 10.6737 5.89067 10.6577 5.944C10.6417 5.992 10.6097 6.016 10.5617 6.016H9.38572C9.30572 6.016 9.25506 5.97867 9.23372 5.904L8.81772 4.736C8.81239 4.70933 8.80172 4.688 8.78572 4.672C8.77506 4.656 8.75106 4.648 8.71372 4.648H6.76172C6.70839 4.648 6.67372 4.67467 6.65772 4.728L6.23372 5.912C6.22306 5.944 6.20439 5.97067 6.17772 5.992C6.15639 6.008 6.11906 6.016 6.06572 6.016H5.14572ZM8.38572 3.584C8.46039 3.584 8.48439 3.53867 8.45772 3.448L7.78572 1.576C7.76972 1.544 7.75106 1.528 7.72972 1.528C7.71372 1.528 7.69772 1.54667 7.68172 1.584L7.00172 3.448C6.96439 3.53867 6.98839 3.584 7.07372 3.584H8.38572Z" fill="#F6F6F6"/>
<path d="M10.2835 0.224C10.2835 0.181333 10.2969 0.146667 10.3235 0.12C10.3502 0.0933332 10.3902 0.0799999 10.4435 0.0799999H15.0355C15.0942 0.0799999 15.1342 0.0933332 15.1555 0.12C15.1822 0.146667 15.1955 0.181333 15.1955 0.224V0.968C15.1955 1.048 15.1475 1.088 15.0515 1.088H13.5555C13.4969 1.088 13.4675 1.11467 13.4675 1.168V5.864C13.4675 5.96533 13.4222 6.016 13.3315 6.016H12.1875C12.1075 6.016 12.0675 5.97067 12.0675 5.88V1.192C12.0675 1.12267 12.0382 1.088 11.9795 1.088H10.4355C10.3342 1.088 10.2835 1.048 10.2835 0.968V0.224Z" fill="#F6F6F6"/>
<path d="M19.2375 1.48C19.1202 1.352 18.9735 1.23733 18.7975 1.136C18.6269 1.03467 18.3815 0.984 18.0615 0.984C17.7255 0.984 17.4749 1.04533 17.3095 1.168C17.1442 1.28533 17.0615 1.43733 17.0615 1.624C17.0615 1.688 17.0775 1.75733 17.1095 1.832C17.1415 1.90667 17.2055 1.97867 17.3015 2.048C17.3975 2.11733 17.5335 2.17867 17.7095 2.232L18.9735 2.592C19.4642 2.72533 19.8215 2.94133 20.0455 3.24C20.2695 3.53333 20.3815 3.87467 20.3815 4.264C20.3815 4.63733 20.2855 4.96267 20.0935 5.24C19.9015 5.512 19.6269 5.72267 19.2695 5.872C18.9122 6.02133 18.4882 6.096 17.9975 6.096C17.6349 6.096 17.2935 6.056 16.9735 5.976C16.6589 5.89067 16.3789 5.77067 16.1335 5.616C15.8935 5.456 15.7042 5.272 15.5655 5.064C15.5389 5.01067 15.5282 4.968 15.5335 4.936C15.5389 4.89867 15.5655 4.86133 15.6135 4.824L16.2295 4.4C16.2935 4.36267 16.3442 4.34667 16.3815 4.352C16.4242 4.35733 16.4615 4.37867 16.4935 4.416C16.6215 4.576 16.7469 4.70933 16.8695 4.816C16.9975 4.92267 17.1442 5 17.3095 5.048C17.4749 5.096 17.6722 5.12 17.9015 5.12C18.2482 5.12 18.5255 5.06667 18.7335 4.96C18.9415 4.848 19.0455 4.67733 19.0455 4.448C19.0455 4.35733 19.0242 4.27467 18.9815 4.2C18.9389 4.12 18.8695 4.05067 18.7735 3.992C18.6829 3.928 18.5522 3.86933 18.3815 3.816L17.1735 3.472C16.8589 3.38133 16.5949 3.25333 16.3815 3.088C16.1682 2.92267 16.0055 2.728 15.8935 2.504C15.7869 2.28 15.7335 2.04533 15.7335 1.8C15.7335 1.45867 15.8269 1.152 16.0135 0.88C16.2055 0.608 16.4722 0.394667 16.8135 0.24C17.1602 0.0799999 17.5629 0 18.0215 0C18.3255 0 18.6082 0.0346667 18.8695 0.104C19.1362 0.173333 19.3762 0.269334 19.5895 0.392C19.8029 0.514667 19.9762 0.664 20.1095 0.84C20.1309 0.866667 20.1469 0.898667 20.1575 0.936C20.1682 0.968 20.1522 1.00267 20.1095 1.04L19.4375 1.536C19.4055 1.55733 19.3762 1.56533 19.3495 1.56C19.3229 1.54933 19.2855 1.52267 19.2375 1.48Z" fill="#F6F6F6"/>
<path d="M22.5156 0.0799999C22.6009 0.0799999 22.6436 0.128 22.6436 0.224V5.824C22.6436 5.89333 22.6249 5.944 22.5876 5.976C22.5556 6.00267 22.5023 6.016 22.4276 6.016H21.4196C21.3503 6.016 21.3023 6.00267 21.2756 5.976C21.2543 5.94933 21.2436 5.90667 21.2436 5.848V0.232C21.2436 0.130667 21.2863 0.0799999 21.3716 0.0799999H22.5156Z" fill="#F6F6F6"/>
<path d="M23.935 6.016C23.823 6.016 23.767 5.95467 23.767 5.832V0.232C23.767 0.130667 23.8124 0.0799999 23.903 0.0799999H25.559C25.6177 0.0799999 25.6604 0.088 25.687 0.104C25.7137 0.12 25.735 0.152 25.751 0.2L26.959 3.552C26.975 3.6 26.9937 3.624 27.015 3.624C27.0364 3.61867 27.055 3.59467 27.071 3.552L28.223 0.264C28.255 0.141333 28.3137 0.0799999 28.399 0.0799999H30.119C30.199 0.0799999 30.239 0.128 30.239 0.224V5.824C30.239 5.952 30.1724 6.016 30.039 6.016H29.007C28.943 6.016 28.8977 6.00267 28.871 5.976C28.8497 5.94933 28.839 5.90933 28.839 5.856V1.872C28.839 1.83467 28.8284 1.81867 28.807 1.824C28.791 1.824 28.7777 1.84267 28.767 1.88L27.367 5.888C27.335 5.97333 27.279 6.016 27.199 6.016H26.535C26.4444 6.016 26.3857 5.97333 26.359 5.888L24.975 1.936C24.959 1.888 24.9404 1.86667 24.919 1.872C24.903 1.87733 24.895 1.90133 24.895 1.944V5.872C24.895 5.92533 24.8844 5.96267 24.863 5.984C24.847 6.00533 24.8097 6.016 24.751 6.016H23.935Z" fill="#F6F6F6"/>
<path d="M6.11429 12.8C6.13562 12.8587 6.13295 12.9093 6.10629 12.952C6.08495 12.9947 6.04762 13.016 5.99429 13.016H4.81829C4.72762 13.016 4.66895 12.968 4.64229 12.872L3.77829 10.632C3.74629 10.5573 3.67162 10.52 3.55429 10.52H2.79429C2.75695 10.52 2.73029 10.5307 2.71429 10.552C2.70362 10.5733 2.69829 10.592 2.69829 10.608V12.824C2.69829 12.952 2.62629 13.016 2.48229 13.016H1.46629C1.40229 13.016 1.35695 13.0027 1.33029 12.976C1.30895 12.9493 1.29829 12.9093 1.29829 12.856V7.232C1.29829 7.13067 1.34095 7.08 1.42629 7.08H3.92229C4.63695 7.08 5.19162 7.22133 5.58629 7.504C5.98629 7.78667 6.18629 8.18933 6.18629 8.712C6.18629 8.984 6.13562 9.22667 6.03429 9.44C5.93295 9.65333 5.79962 9.832 5.63429 9.976C5.46895 10.1147 5.28762 10.2187 5.09029 10.288C5.04229 10.304 5.03162 10.344 5.05829 10.408L6.11429 12.8ZM3.79429 9.576C4.09829 9.576 4.33029 9.512 4.49029 9.384C4.65562 9.25067 4.73829 9.05867 4.73829 8.808C4.73829 8.54667 4.65562 8.34933 4.49029 8.216C4.32495 8.08267 4.10629 8.016 3.83429 8.016H2.85029C2.74895 8.016 2.69829 8.06133 2.69829 8.152V9.44C2.69829 9.53067 2.73562 9.576 2.81029 9.576H3.79429Z" fill="#F6F6F6"/>
<path d="M9.23172 12.608C9.06639 12.7573 8.87972 12.8773 8.67172 12.968C8.46906 13.0533 8.23439 13.096 7.96772 13.096C7.56239 13.096 7.24239 12.9867 7.00772 12.768C6.77839 12.5493 6.66372 12.2693 6.66372 11.928C6.66372 11.6293 6.75706 11.368 6.94372 11.144C7.13039 10.92 7.39706 10.7467 7.74372 10.624C8.09039 10.496 8.50372 10.4267 8.98372 10.416L9.26372 10.392C9.29572 10.392 9.32506 10.384 9.35172 10.368C9.37839 10.352 9.39172 10.3227 9.39172 10.28V10.112C9.39172 9.90933 9.33306 9.752 9.21572 9.64C9.09839 9.52267 8.93039 9.464 8.71172 9.464C8.55172 9.464 8.39706 9.50133 8.24772 9.576C8.10372 9.64533 7.98106 9.768 7.87972 9.944C7.86372 9.98133 7.84506 10.0053 7.82372 10.016C7.80239 10.0267 7.76239 10.0267 7.70372 10.016L6.90372 9.832C6.87172 9.82133 6.84772 9.80533 6.83172 9.784C6.82106 9.75733 6.83172 9.704 6.86372 9.624C6.99706 9.30933 7.22639 9.07733 7.55172 8.928C7.88239 8.77333 8.28772 8.696 8.76772 8.696C9.21039 8.696 9.56239 8.752 9.82372 8.864C10.0851 8.976 10.2744 9.13333 10.3917 9.336C10.5091 9.53333 10.5677 9.76533 10.5677 10.032V12.84C10.5677 12.904 10.5571 12.9493 10.5357 12.976C10.5144 13.0027 10.4744 13.016 10.4157 13.016H9.59172C9.53306 13.016 9.49039 12.9947 9.46372 12.952C9.44239 12.9093 9.42906 12.856 9.42372 12.792L9.40772 12.616C9.39706 12.52 9.33839 12.5173 9.23172 12.608ZM9.39172 11.128C9.39172 11.0373 9.35172 10.992 9.27172 10.992L9.04772 11.008C8.90906 11.0133 8.77039 11.0347 8.63172 11.072C8.49306 11.104 8.36772 11.152 8.25572 11.216C8.14372 11.2747 8.05039 11.352 7.97572 11.448C7.90639 11.5387 7.87172 11.6453 7.87172 11.768C7.87172 11.928 7.92772 12.056 8.03972 12.152C8.15172 12.2427 8.30639 12.288 8.50372 12.288C8.63706 12.288 8.75439 12.2667 8.85572 12.224C8.96239 12.1813 9.05306 12.1307 9.12772 12.072C9.20772 12.0027 9.27172 11.9333 9.31972 11.864C9.36772 11.7947 9.39172 11.7227 9.39172 11.648V11.128Z" fill="#F6F6F6"/>
<path d="M14.4035 13.016C14.3609 13.016 14.3209 13.0053 14.2835 12.984C14.2515 12.9573 14.2355 12.9147 14.2355 12.856V12.632C14.2355 12.5947 14.2249 12.5733 14.2035 12.568C14.1822 12.5627 14.1555 12.5733 14.1235 12.6C14.0382 12.68 13.9422 12.76 13.8355 12.84C13.7289 12.9147 13.6035 12.976 13.4595 13.024C13.3155 13.072 13.1475 13.096 12.9555 13.096C12.6302 13.096 12.3422 13.016 12.0915 12.856C11.8409 12.696 11.6435 12.456 11.4995 12.136C11.3555 11.8107 11.2835 11.408 11.2835 10.928C11.2835 10.48 11.3609 10.0907 11.5155 9.76C11.6755 9.424 11.8889 9.16267 12.1555 8.976C12.4222 8.78933 12.7155 8.696 13.0355 8.696C13.2489 8.696 13.4382 8.73067 13.6035 8.8C13.7689 8.86933 13.9289 8.976 14.0835 9.12C14.1262 9.152 14.1582 9.16533 14.1795 9.16C14.2062 9.14933 14.2195 9.11467 14.2195 9.056V7.224C14.2195 7.128 14.2622 7.08 14.3475 7.08H15.3235C15.4089 7.08 15.4515 7.13067 15.4515 7.232V12.848C15.4515 12.9067 15.4382 12.9493 15.4115 12.976C15.3849 13.0027 15.3369 13.016 15.2675 13.016H14.4035ZM14.2195 9.88C14.1022 9.752 13.9822 9.656 13.8595 9.592C13.7422 9.52267 13.6062 9.488 13.4515 9.488C13.2755 9.488 13.1155 9.53867 12.9715 9.64C12.8329 9.736 12.7235 9.888 12.6435 10.096C12.5689 10.304 12.5315 10.576 12.5315 10.912C12.5315 11.2533 12.5689 11.528 12.6435 11.736C12.7235 11.944 12.8302 12.096 12.9635 12.192C13.1022 12.2827 13.2595 12.328 13.4355 12.328C13.5849 12.328 13.7182 12.2933 13.8355 12.224C13.9529 12.1547 14.0462 12.0667 14.1155 11.96C14.1849 11.8533 14.2195 11.7413 14.2195 11.624V9.88Z" fill="#F6F6F6"/>
<path d="M18.6145 12.608C18.4492 12.7573 18.2625 12.8773 18.0545 12.968C17.8519 13.0533 17.6172 13.096 17.3505 13.096C16.9452 13.096 16.6252 12.9867 16.3905 12.768C16.1612 12.5493 16.0465 12.2693 16.0465 11.928C16.0465 11.6293 16.1399 11.368 16.3265 11.144C16.5132 10.92 16.7799 10.7467 17.1265 10.624C17.4732 10.496 17.8865 10.4267 18.3665 10.416L18.6465 10.392C18.6785 10.392 18.7079 10.384 18.7345 10.368C18.7612 10.352 18.7745 10.3227 18.7745 10.28V10.112C18.7745 9.90933 18.7159 9.752 18.5985 9.64C18.4812 9.52267 18.3132 9.464 18.0945 9.464C17.9345 9.464 17.7799 9.50133 17.6305 9.576C17.4865 9.64533 17.3639 9.768 17.2625 9.944C17.2465 9.98133 17.2279 10.0053 17.2065 10.016C17.1852 10.0267 17.1452 10.0267 17.0865 10.016L16.2865 9.832C16.2545 9.82133 16.2305 9.80533 16.2145 9.784C16.2039 9.75733 16.2145 9.704 16.2465 9.624C16.3799 9.30933 16.6092 9.07733 16.9345 8.928C17.2652 8.77333 17.6705 8.696 18.1505 8.696C18.5932 8.696 18.9452 8.752 19.2065 8.864C19.4679 8.976 19.6572 9.13333 19.7745 9.336C19.8919 9.53333 19.9505 9.76533 19.9505 10.032V12.84C19.9505 12.904 19.9399 12.9493 19.9185 12.976C19.8972 13.0027 19.8572 13.016 19.7985 13.016H18.9745C18.9159 13.016 18.8732 12.9947 18.8465 12.952C18.8252 12.9093 18.8119 12.856 18.8065 12.792L18.7905 12.616C18.7799 12.52 18.7212 12.5173 18.6145 12.608ZM18.7745 11.128C18.7745 11.0373 18.7345 10.992 18.6545 10.992L18.4305 11.008C18.2919 11.0133 18.1532 11.0347 18.0145 11.072C17.8759 11.104 17.7505 11.152 17.6385 11.216C17.5265 11.2747 17.4332 11.352 17.3585 11.448C17.2892 11.5387 17.2545 11.6453 17.2545 11.768C17.2545 11.928 17.3105 12.056 17.4225 12.152C17.5345 12.2427 17.6892 12.288 17.8865 12.288C18.0199 12.288 18.1372 12.2667 18.2385 12.224C18.3452 12.1813 18.4359 12.1307 18.5105 12.072C18.5905 12.0027 18.6545 11.9333 18.7025 11.864C18.7505 11.7947 18.7745 11.7227 18.7745 11.648V11.128Z" fill="#F6F6F6"/>
<path d="M21.0103 13.016C20.9517 13.016 20.909 13.0027 20.8823 12.976C20.8557 12.9493 20.8423 12.9093 20.8423 12.856V8.928C20.8423 8.82667 20.885 8.776 20.9703 8.776H21.9063C21.9917 8.776 22.0343 8.82133 22.0343 8.912V9.384C22.0343 9.416 22.045 9.43733 22.0663 9.448C22.093 9.45333 22.1197 9.44 22.1463 9.408C22.253 9.264 22.373 9.13867 22.5063 9.032C22.645 8.92533 22.7863 8.84267 22.9303 8.784C23.0743 8.72533 23.2103 8.696 23.3383 8.696C23.5303 8.696 23.6263 8.74133 23.6263 8.832V9.76C23.6263 9.84533 23.5863 9.88 23.5063 9.864C23.4103 9.83733 23.3117 9.82133 23.2103 9.816C23.109 9.80533 23.021 9.8 22.9463 9.8C22.8503 9.8 22.749 9.81867 22.6423 9.856C22.541 9.89333 22.4477 9.94667 22.3623 10.016C22.277 10.0853 22.2077 10.16 22.1543 10.24C22.101 10.32 22.0743 10.4053 22.0743 10.496V12.832C22.0743 12.9547 22.005 13.016 21.8663 13.016H21.0103Z" fill="#F6F6F6"/>
</svg>
