<svg width="43" height="40" viewBox="0 0 43 40" fill="none" xmlns="http://www.w3.org/2000/svg">
<rect width="40" height="40" rx="20" fill="#3B6CEC"/>
<g clip-path="url(#clip0_587_1522)">
<path class="wifi" d="M14.095 29.7088C13.7575 29.5119 13.4313 29.2981 13.1219 29.0675C12.835 29.3206 12.5481 29.5738 12.2669 29.8325C12.5706 30.0688 12.8856 30.2881 13.2175 30.4906C14.3931 31.2275 15.7038 31.7788 17.1044 32.0881C17.5094 32.1781 17.92 32.2456 18.3363 32.2963C18.5894 31.9363 18.8481 31.5875 19.1125 31.2331C18.6738 31.205 18.2463 31.1544 17.8244 31.0813C16.4856 30.845 15.2256 30.3725 14.095 29.7088Z" fill="#18181B"/>
<path class="wifi" d="M26.0988 22.3568C25.9581 22.2781 25.8288 22.1825 25.705 22.0756L25.4913 21.8787L25.1819 21.5975C25.1256 21.7831 25.0638 21.9687 24.985 22.1431C24.1412 24.185 22.1331 25.6193 19.7875 25.6193C19.6469 25.6193 19.5063 25.6137 19.3656 25.6025C18.8425 25.5631 18.3419 25.4562 17.8694 25.2818C17.515 25.535 17.1663 25.7937 16.8175 26.0525C17.2169 26.2493 17.6388 26.4068 18.0775 26.5193C18.6231 26.66 19.1969 26.7387 19.7931 26.7387C20.44 26.7387 21.0644 26.6487 21.655 26.48C23.7138 25.8893 25.3675 24.3481 26.1156 22.3568C26.1081 22.3606 26.1025 22.3606 26.0988 22.3568Z" fill="#18181B"/>
<path class="wifi" d="M9.92687 33.6969C9.62312 33.4775 9.32219 33.2446 9.02969 33.0027C8.77094 33.2727 8.53187 33.5337 8.27312 33.815C8.56 34.0569 8.84687 34.3044 9.15062 34.5294C10.6356 35.6206 12.295 36.4869 14.0781 37.0831C14.4381 37.2012 14.8206 37.2912 15.1919 37.3869C15.3719 37.0437 15.5446 36.7293 15.7358 36.3918C15.3589 36.3018 14.9838 36.1944 14.6181 36.0762C12.925 35.525 11.3444 34.715 9.92687 33.6969Z" fill="#18181B"/>
<path d="M30.5819 23.1838C29.4288 27.1044 26.1944 30.1306 22.1613 30.9969C21.8069 31.4244 21.4581 31.8575 21.1206 32.3019C26.5825 31.7169 30.9813 27.5769 31.96 22.2444C31.4931 22.5481 31.0319 22.8631 30.5819 23.1838Z" fill="#EDEDF2"/>
<path d="M2.935 19.1113L1.82125 18.8638C1.79875 19.2406 1.7875 19.6175 1.7875 20C1.7875 24.7475 3.62688 29.0619 6.625 32.2794C6.87813 32.0038 7.13688 31.7281 7.39563 31.4525C4.61125 28.4488 2.9125 24.4213 2.9125 20C2.9125 19.7019 2.91813 19.4038 2.935 19.1113Z" fill="#EDEDF2"/>
<path d="M14.9219 24.6744C15.22 24.4438 15.5238 24.2188 15.8275 23.9937C15.1863 23.3581 14.6969 22.565 14.4213 21.6819L13.1894 21.4062C13.4481 22.6606 14.0613 23.7856 14.9219 24.6744Z" fill="#EDEDF2"/>
<path d="M3.205 16.8669L7.59813 17.8512L8.695 18.0987L13.0938 19.0831L14.1963 19.3306L16.5363 19.8537L17.9706 20.1744L18.7075 20.3375C18.8481 20.7931 19.2756 21.125 19.7819 21.125C19.9 21.125 20.0181 21.1081 20.125 21.0744C20.1644 21.0631 20.1981 21.0462 20.2375 21.035L20.2825 21.0125C20.395 20.9562 20.5019 20.8831 20.5863 20.7931C20.7156 20.6637 20.8113 20.5006 20.8619 20.3206L20.8731 20.27C20.8956 20.1856 20.9069 20.0956 20.9069 20C20.9069 19.4262 20.4794 18.9537 19.9281 18.8862C19.8831 18.8806 19.8325 18.875 19.7819 18.875C19.4894 18.875 19.2194 18.9875 19.0225 19.1731L18.6625 19.0606L17.1494 18.5881L15.6363 18.1156L14.6069 17.795L13.5269 17.4575L9.22375 16.1075L8.14937 15.77L3.85188 14.4256L2.7775 14.0881L1.70312 13.7506C1.41063 14.6 1.17437 15.4775 1 16.3719L2.09688 16.6194L3.205 16.8669Z" fill="#EDEDF2"/>
<path d="M37.7313 18.5994L36.6456 19.28C36.6513 19.3756 36.6513 19.4712 36.6569 19.5669C36.6625 19.7131 36.6625 19.8537 36.6625 20C36.6625 29.3206 29.1081 36.875 19.7875 36.875C19.2194 36.875 18.6512 36.8469 18.1 36.7906C17.8919 37.1394 17.6894 37.4994 17.4925 37.8537C18.2463 37.9494 19.0112 38 19.7875 38C29.7269 38 37.7875 29.9394 37.7875 20C37.7875 19.6794 37.7819 19.3587 37.765 19.0437C37.7537 18.8975 37.7425 18.7456 37.7313 18.5994Z" fill="#EDEDF2"/>
<path d="M14.8881 3.845C15.2481 3.73812 15.6138 3.63688 15.985 3.5525C17.2056 3.27125 18.4825 3.11937 19.7875 3.11937C26.3238 3.11937 31.9994 6.8375 34.8006 12.2769L35.0313 12.3387C35.0931 12.3556 35.155 12.3444 35.2113 12.3106L35.875 11.8944C32.905 6.0275 26.8188 2 19.7875 2C18.325 2 16.9075 2.17437 15.5463 2.50062C15.175 2.59062 14.815 2.69187 14.455 2.80437C14.095 2.91688 13.7406 3.04062 13.3919 3.17L13.825 4.21062C14.1681 4.07562 14.5281 3.9575 14.8881 3.845Z" fill="#EDEDF2"/>
<path d="M27.3025 10.775C27.4544 10.6794 27.6231 10.6119 27.7919 10.5669C25.6375 8.73313 22.8419 7.625 19.7875 7.625C19.0956 7.625 18.4094 7.68125 17.7513 7.79375C17.3744 7.85562 16.9975 7.93438 16.6319 8.03563C16.2663 8.13125 15.9063 8.24375 15.5519 8.37313L15.985 9.41375C16.3394 9.28438 16.6994 9.1775 17.065 9.0875C17.4363 8.9975 17.8075 8.92437 18.19 8.86812C18.7131 8.795 19.2419 8.75562 19.7819 8.75562C22.3975 8.75562 24.805 9.65 26.7175 11.1463L27.3025 10.775Z" fill="#EDEDF2"/>
<path d="M19.7875 13.25C19.4613 13.25 19.1463 13.2725 18.8313 13.3175C18.4488 13.3737 18.0775 13.4581 17.7175 13.5706L18.1506 14.6112C18.5106 14.4987 18.8875 14.4256 19.2756 14.3919C19.4444 14.375 19.6131 14.3694 19.7819 14.3694C20.0294 14.3694 20.2656 14.3862 20.5019 14.4144C22.0263 14.6112 23.365 15.4156 24.2538 16.5856L24.5631 16.3888C24.7825 16.2481 25.0356 16.1637 25.2944 16.1412H25.3169C24.1413 14.4537 22.2063 13.3231 20.0125 13.25H19.7875Z" fill="#EDEDF2"/>
<path d="M32.0838 20.8156C32.0725 20.8212 32.0613 20.8269 32.0556 20.8325L32.0838 20.8156Z" fill="#EDEDF2"/>
<path d="M42.5856 11.7088C42.5744 11.6863 42.5631 11.6638 42.5463 11.6413C42.2875 11.2194 41.725 10.9438 40.7069 10.9719C39.7956 10.9944 38.9181 11.315 38.1475 11.7988L37.3094 12.3219L36.3475 12.9294L35.38 13.5369C35.3294 13.5706 35.2675 13.5763 35.2113 13.5594L29.1419 11.9L28.4669 11.7144C28.4556 11.7144 28.45 11.7088 28.4388 11.7031C28.36 11.6638 28.2644 11.6413 28.1744 11.6413C28.0788 11.6469 27.9831 11.675 27.9044 11.7256L27.6063 11.9113L26.0031 12.9181C25.6994 13.1094 25.66 13.5313 25.9075 13.7788C25.9188 13.79 25.93 13.8013 25.9469 13.8069L30.2219 15.9725L30.3119 16.0175L30.6944 16.2088C30.8013 16.2594 30.8069 16.4056 30.7056 16.4675L30.5144 16.5856L28.1912 18.0481L27.955 18.2L27.9044 18.1831L26.4588 17.615L26.0425 17.4519L25.66 17.3C25.5813 17.2663 25.4969 17.255 25.4125 17.2663C25.3281 17.2719 25.2438 17.3 25.1763 17.345L24.8556 17.5475L24.0175 18.0763C23.7306 18.2563 23.6744 18.6556 23.8938 18.9088C23.905 18.92 23.9163 18.9313 23.9275 18.9425L24.7769 19.7131C24.4225 19.8988 24.0738 20.0844 23.725 20.2756C23.5169 20.3881 23.3088 20.5063 23.1006 20.6244C22.645 20.8775 22.195 21.1419 21.745 21.4063C21.3625 21.6313 20.9856 21.8619 20.6088 22.0981C20.2319 22.3344 19.8606 22.5706 19.495 22.8125C18.5612 23.4256 17.6388 24.0613 16.7387 24.7194C16.4181 24.9556 16.1031 25.1919 15.7881 25.4281C14.5731 26.3563 13.3919 27.3238 12.2444 28.3363C11.9631 28.5838 11.6819 28.8369 11.4062 29.09C10.2981 30.1025 9.22937 31.16 8.19437 32.2456C7.93562 32.5156 7.6825 32.7913 7.42937 33.0669C7.69937 33.3256 7.98062 33.5731 8.27312 33.815C8.52625 33.5394 8.785 33.2638 9.04375 32.9881C10.0844 31.8913 11.1644 30.8338 12.2838 29.8156C12.565 29.5569 12.8519 29.3038 13.1388 29.0506C14.3313 28.0044 15.5631 27.0031 16.8344 26.0469C17.1831 25.7881 17.5319 25.5294 17.8863 25.2763C18.8763 24.5675 19.8888 23.8813 20.9181 23.2288C20.9631 23.2006 21.0025 23.1725 21.0475 23.1444L21.07 23.1331C21.16 23.0769 21.2444 23.0263 21.3344 22.97C22.4088 22.3006 23.5056 21.665 24.6194 21.0631C24.8612 20.9338 25.1031 20.8044 25.3506 20.675L25.39 20.6525C25.4856 20.6019 25.5813 20.5513 25.6769 20.5063L26.4419 21.1981L26.4756 21.2263C26.5094 21.2544 26.5431 21.2825 26.5769 21.305C26.7569 21.4288 26.9706 21.4963 27.19 21.485C27.2069 21.485 27.2238 21.485 27.2406 21.4794L29.1588 21.2994L29.3556 21.2825C28.765 21.6988 28.1856 22.1319 27.6175 22.5763C24.4225 25.0681 21.565 27.9763 19.1238 31.2106C18.8594 31.5594 18.6006 31.9138 18.3475 32.2738C17.4138 33.59 16.5475 34.9569 15.7488 36.3688C15.5575 36.7063 15.3719 37.0438 15.1919 37.3869C15.5688 37.4881 15.9456 37.5725 16.3281 37.6456C16.5138 37.2969 16.7106 36.9481 16.9075 36.605C17.7513 35.1313 18.6794 33.7138 19.675 32.3525C19.9619 31.9644 20.2488 31.5819 20.5469 31.205C23.185 27.8469 26.29 24.8656 29.7606 22.3738C30.1488 22.0925 30.5425 21.8225 30.9419 21.5581C31.3413 21.2881 31.7463 21.0181 32.1513 20.765L36.5613 17.9975L37.6075 17.3394L38.6425 16.6869L40.4706 15.5394C40.51 15.5169 40.5438 15.4944 40.5831 15.4663C40.8025 15.32 41.0106 15.1625 41.2075 14.9938C41.6519 14.6056 42.0344 14.15 42.3156 13.6269C42.3213 13.6156 42.3325 13.5988 42.3381 13.5875C42.58 13.1263 42.6981 12.7381 42.7263 12.4119C42.7375 12.1419 42.6869 11.9056 42.5856 11.7088Z" fill="#EDEDF2"/>
<path d="M11.4456 27.5431C9.71875 25.6306 8.63313 23.1219 8.54875 20.3656L7.4125 20.1125C7.44063 23.2625 8.64438 26.1312 10.6075 28.2969C10.8831 28.0437 11.1644 27.7962 11.4456 27.5431Z" fill="#EDEDF2"/>
</g>
<defs>
<clipPath id="clip0_587_1522">
<rect width="41.7375" height="36" fill="white" transform="translate(1 2)"/>
</clipPath>
</defs>
</svg>
