<svg width="24" height="24" viewBox="0 0 24 24" fill="none" xmlns="http://www.w3.org/2000/svg">
<circle cx="12" cy="12" r="9" fill="#3B6CEC"/>
<path d="M20.9668 11.2637C20.9865 11.5066 21 11.752 21 12C21 16.9706 16.9706 21 12 21C10.9268 21 9.89773 20.8114 8.94336 20.4668C9.15202 20.183 9.36562 19.9031 9.58496 19.6279C10.3471 19.869 11.1582 20 12 20C16.4183 20 20 16.4183 20 12C20 11.9065 19.9954 11.8134 19.9922 11.7207L20.9668 11.2637Z" fill="#E7E7E7"/>
<path d="M4.08984 10.791C4.03009 11.1853 4 11.5891 4 12C4 14.4859 5.1343 16.7065 6.91309 18.1738C6.70986 18.4382 6.50994 18.7053 6.31543 18.9766C4.29243 17.3262 3 14.8144 3 12C3 11.4724 3.04766 10.9558 3.13477 10.4531L4.08984 10.791Z" fill="#E7E7E7"/>
<path d="M17.9609 12.6738C17.626 15.6703 15.0858 18 12 18C11.6803 18 11.3667 17.9739 11.0605 17.9258C11.3589 17.6093 11.6654 17.3008 11.9785 16.999C11.9857 16.9991 11.9928 17 12 17C14.3212 17 16.2717 15.4179 16.835 13.2734C17.0473 13.146 17.2625 13.0221 17.4785 12.9004L17.9609 12.6738Z" fill="#E7E7E7"/>
<path d="M7.00391 11.8223C7.00184 11.8813 7 11.9405 7 12C7 13.571 7.72521 14.972 8.8584 15.8887C8.6295 16.132 8.40338 16.378 8.18262 16.6289C6.84969 15.5284 6 13.8635 6 12C6 11.8233 6.00847 11.6484 6.02344 11.4756L7.00391 11.8223Z" fill="#E7E7E7"/>
<path d="M10.2539 12.9727C10.4424 13.3095 10.7246 13.5867 11.0664 13.7676C10.8039 13.9952 10.5454 14.2274 10.291 14.4639C9.65398 14.0212 9.19601 13.3388 9.0498 12.5469L10.2539 12.9727Z" fill="#E7E7E7"/>
<path d="M12 9C12.4685 9 12.9106 9.11023 13.3057 9.30176L13.1494 9.37598C12.8397 9.52149 12.6205 9.77513 12.5098 10.0674C12.3469 10.0245 12.1763 10 12 10C11.8102 10 11.6271 10.0278 11.4531 10.0771L10.3008 9.52734C10.7838 9.19475 11.3692 9 12 9Z" fill="#E7E7E7"/>
<path d="M12 6C13.1045 6 14.1385 6.2997 15.0273 6.82031L14.3604 7.13379L14.3584 7.13477C14.2115 7.20407 14.0854 7.2981 13.9814 7.4082C13.3739 7.14567 12.704 7 12 7C10.5552 7 9.25363 7.6129 8.34082 8.59277L7.40234 8.14453C8.50298 6.8334 10.1542 6 12 6Z" fill="#E7E7E7"/>
<path d="M12 3C15.2893 3 18.1653 4.76525 19.7354 7.39941L18.9473 7.76953L18.7314 7.68066C17.3084 5.46754 14.8266 4 12 4C9.35484 4 7.01012 5.28421 5.55371 7.2627L4.6377 6.8252C6.26647 4.51216 8.95605 3 12 3Z" fill="#E7E7E7"/>
<path d="M13 12C13 12.5523 12.5523 13 12 13C11.4477 13 11 12.5523 11 12C11 11.4477 11.4477 11 12 11C12.5523 11 13 11.4477 13 12Z" fill="#E7E7E7"/>
<path d="M2.83648 9.28674L11.8087 12.4619L12.1913 11.5381L3.60185 7.43898L2.83648 9.28674Z" fill="#E7E7E7"/>
<path d="M21.2012 10.0488C21.5806 9.87059 21.9244 9.61 22.165 9.2627C22.335 9.01723 22.4132 8.81207 22.4248 8.64258C22.4316 8.54259 22.4154 8.45456 22.3809 8.37793C22.288 8.17146 22.0494 8.01435 21.584 7.96973C21.1691 7.93001 20.7508 8.02789 20.3711 8.20605L18.9727 8.8623L15.9688 7.62305C15.933 7.59718 15.8907 7.58122 15.8467 7.57715C15.8028 7.57314 15.7588 7.58181 15.7188 7.60059L14.7842 8.03906C14.633 8.11035 14.5895 8.30816 14.6973 8.43555L16.8223 9.87207L15.3564 10.5605L14.3672 10.0205C14.3332 10.002 14.2956 9.9914 14.2568 9.99023C14.2179 9.9891 14.1789 9.99707 14.1436 10.0137L13.5742 10.2813C13.4259 10.3509 13.38 10.5434 13.4814 10.6719L14.499 11.8633C14.5829 11.9615 14.7044 12.0724 14.833 12.0762H14.9766C11.9124 14.0592 9.24606 16.6043 7.12355 19.5657C7.40462 19.7472 7.69646 19.9135 7.99789 20.0634C10.3774 16.7696 13.4558 14.0139 17.0156 12.0137L20.7002 10.2842L20.8251 10.2255L21.2012 10.0488Z" fill="#E7E7E7"/>
</svg>
