<svg width="18" height="18" viewBox="0 0 18 18" fill="none" xmlns="http://www.w3.org/2000/svg">
<path d="M11.2222 13.8C10.6 13.8 10.0741 13.6067 9.64444 13.22C9.21482 12.8333 9 12.36 9 11.8C9 11.24 9.21482 10.7667 9.64444 10.38C10.0741 9.99333 10.6 9.8 11.2222 9.8C11.8444 9.8 12.3704 9.99333 12.8 10.38C13.2296 10.7667 13.4444 11.24 13.4444 11.8C13.4444 12.36 13.2296 12.8333 12.8 13.22C12.3704 13.6067 11.8444 13.8 11.2222 13.8ZM2.77778 17C2.28889 17 1.87022 16.8435 1.52178 16.5304C1.17393 16.2168 1 15.84 1 15.4V4.2C1 3.76 1.17393 3.38347 1.52178 3.0704C1.87022 2.7568 2.28889 2.6 2.77778 2.6H3.66667V1.8C3.66667 1.57333 3.7517 1.3832 3.92178 1.2296C4.09244 1.07653 4.3037 1 4.55556 1C4.80741 1 5.01867 1.07653 5.18933 1.2296C5.35941 1.3832 5.44444 1.57333 5.44444 1.8V2.6H12.5556V1.8C12.5556 1.57333 12.6409 1.3832 12.8116 1.2296C12.9816 1.07653 13.1926 1 13.4444 1C13.6963 1 13.9073 1.07653 14.0773 1.2296C14.248 1.3832 14.3333 1.57333 14.3333 1.8V2.6H15.2222C15.7111 2.6 16.1298 2.7568 16.4782 3.0704C16.8261 3.38347 17 3.76 17 4.2V15.4C17 15.84 16.8261 16.2168 16.4782 16.5304C16.1298 16.8435 15.7111 17 15.2222 17H2.77778ZM2.77778 15.4H15.2222V7.4H2.77778V15.4ZM2.77778 5.8H15.2222V4.2H2.77778V5.8Z" fill="#3B6CEC"/>
</svg>
