<svg width="10" height="8" viewBox="0 0 10 8" fill="none" xmlns="http://www.w3.org/2000/svg">
<path d="M3.40933 7.61919C3.32297 7.61919 3.242 7.60559 3.16644 7.57839C3.09087 7.55161 3.0207 7.50584 2.95592 7.44107L0.170678 4.65582C0.0519276 4.53707 -0.00485686 4.38313 0.000324994 4.19399C0.00593866 4.00529 0.0681206 3.85156 0.186871 3.73281C0.305622 3.61406 0.45676 3.55468 0.640283 3.55468C0.823807 3.55468 0.974944 3.61406 1.0937 3.73281L3.40933 6.04845L8.89886 0.558924C9.01761 0.440174 9.17155 0.380798 9.36069 0.380798C9.5494 0.380798 9.70312 0.440174 9.82187 0.558924C9.94063 0.677675 10 0.831403 10 1.02011C10 1.20925 9.94063 1.36319 9.82187 1.48194L3.86275 7.44107C3.79797 7.50584 3.7278 7.55161 3.65223 7.57839C3.57666 7.60559 3.4957 7.61919 3.40933 7.61919Z" fill="#DEDEE7"/>
</svg>
