<svg width="18" height="18" viewBox="0 0 18 18" fill="none" xmlns="http://www.w3.org/2000/svg">
<path d="M2.77778 17C2.28889 17 1.87037 16.8259 1.52222 16.4778C1.17407 16.1296 1 15.7111 1 15.2222V2.77778C1 2.28889 1.17407 1.87037 1.52222 1.52222C1.87037 1.17407 2.28889 1 2.77778 1H15.2222C15.7111 1 16.1296 1.17407 16.4778 1.52222C16.8259 1.87037 17 2.28889 17 2.77778V15.2222C17 15.7111 16.8259 16.1296 16.4778 16.4778C16.1296 16.8259 15.7111 17 15.2222 17H2.77778ZM2.77778 5.73333H15.2222V2.77778H2.77778V5.73333ZM2.77778 10.4889H15.2222V7.51111H2.77778V10.4889ZM2.77778 15.2222H15.2222V12.2667H2.77778V15.2222ZM4.55556 5.13333C4.3037 5.13333 4.09259 5.04815 3.92222 4.87778C3.75185 4.70741 3.66667 4.4963 3.66667 4.24444C3.66667 3.99259 3.75185 3.78148 3.92222 3.61111C4.09259 3.44074 4.3037 3.35556 4.55556 3.35556C4.80741 3.35556 5.01852 3.44074 5.18889 3.61111C5.35926 3.78148 5.44444 3.99259 5.44444 4.24444C5.44444 4.4963 5.35926 4.70741 5.18889 4.87778C5.01852 5.04815 4.80741 5.13333 4.55556 5.13333ZM4.55556 9.88889C4.3037 9.88889 4.09259 9.8037 3.92222 9.63333C3.75185 9.46296 3.66667 9.25185 3.66667 9C3.66667 8.74815 3.75185 8.53704 3.92222 8.36667C4.09259 8.1963 4.3037 8.11111 4.55556 8.11111C4.80741 8.11111 5.01852 8.1963 5.18889 8.36667C5.35926 8.53704 5.44444 8.74815 5.44444 9C5.44444 9.25185 5.35926 9.46296 5.18889 9.63333C5.01852 9.8037 4.80741 9.88889 4.55556 9.88889ZM4.55556 14.6444C4.3037 14.6444 4.09259 14.5593 3.92222 14.3889C3.75185 14.2185 3.66667 14.0074 3.66667 13.7556C3.66667 13.5037 3.75185 13.2926 3.92222 13.1222C4.09259 12.9519 4.3037 12.8667 4.55556 12.8667C4.80741 12.8667 5.01852 12.9519 5.18889 13.1222C5.35926 13.2926 5.44444 13.5037 5.44444 13.7556C5.44444 14.0074 5.35926 14.2185 5.18889 14.3889C5.01852 14.5593 4.80741 14.6444 4.55556 14.6444Z" fill="#3B6CEC"/>
</svg>
