<svg width="22" height="18" viewBox="0 0 22 18" fill="none" xmlns="http://www.w3.org/2000/svg">
<path d="M2.19534 6.25001L3.256 5.18935L2.19534 6.25001C2.66114 6.71581 3.26008 6.94446 3.88889 6.94446H5.32345C5.15955 7.04242 5.00509 7.16211 4.86296 7.30374L4.86296 7.30373L4.85927 7.30743C4.3952 7.77312 4.16667 8.37126 4.16667 9.00002C4.16667 9.62883 4.39532 10.2278 4.86112 10.6936C5.32643 11.1589 5.92516 11.3889 6.55556 11.3889H8.88013C8.71535 11.4875 8.56018 11.6081 8.41756 11.7509C7.95176 12.2161 7.72222 12.8148 7.72222 13.4445C7.72222 14.0741 7.95175 14.6729 8.41756 15.138C8.88273 15.6038 9.48149 15.8334 10.1111 15.8334H11.8889C12.5193 15.8334 13.118 15.6033 13.5833 15.138C14.0491 14.6722 14.2778 14.0733 14.2778 13.4445C14.2778 12.8157 14.0491 12.2167 13.5833 11.7509C13.4406 11.6081 13.2852 11.4875 13.1203 11.3889H15.4444C16.074 11.3889 16.6727 11.1594 17.1378 10.6937C17.6037 10.2286 17.8333 9.62971 17.8333 9.00002C17.8333 8.36962 17.6033 7.7709 17.138 7.30558L16.1139 8.32967L17.138 7.30558C16.9955 7.1631 16.8406 7.04281 16.6761 6.94446H18.1111C18.7399 6.94446 19.3389 6.71581 19.8047 6.25002L18.7534 5.19874L19.8047 6.25001C20.27 5.7847 20.5 5.18597 20.5 4.55558C20.5 3.92518 20.27 3.32646 19.8047 2.86114L18.744 3.9218L19.8047 2.86114C19.3389 2.39534 18.7399 2.16669 18.1111 2.16669H3.88889C3.26008 2.16669 2.66114 2.39534 2.19534 2.86114C1.73002 3.32645 1.5 3.92518 1.5 4.55558C1.5 5.18597 1.73002 5.7847 2.19534 6.25001Z" fill="#3B6CEC" stroke="#202024" stroke-width="3"/>
</svg>
