<svg width="18" height="18" viewBox="0 0 18 18" fill="none" xmlns="http://www.w3.org/2000/svg">
<path d="M15.2222 9.88889V14.3333C15.2222 14.8222 14.8222 15.2222 14.3333 15.2222H3.66667C3.17778 15.2222 2.77778 14.8222 2.77778 14.3333V9.88889C2.77778 9.4 2.37778 9 1.88889 9C1.4 9 1 9.4 1 9.88889V15.2222C1 16.2 1.8 17 2.77778 17H15.2222C16.2 17 17 16.2 17 15.2222V9.88889C17 9.4 16.6 9 16.1111 9C15.6222 9 15.2222 9.4 15.2222 9.88889ZM9.88889 9.59556L11.56 7.92444C11.9067 7.57778 12.4667 7.57778 12.8133 7.92444C13.16 8.27111 13.16 8.83111 12.8133 9.17778L9.62222 12.3689C9.27556 12.7156 8.71556 12.7156 8.36889 12.3689L5.17778 9.17778C4.83111 8.83111 4.83111 8.27111 5.17778 7.92444C5.52444 7.57778 6.08444 7.57778 6.43111 7.92444L8.11111 9.59556V1.88889C8.11111 1.4 8.51111 1 9 1C9.48889 1 9.88889 1.4 9.88889 1.88889V9.59556Z" fill="#EDEDF2"/>
</svg>
