<svg width="16" height="16" viewBox="0 0 16 16" fill="none" xmlns="http://www.w3.org/2000/svg">
<path fill-rule="evenodd" clip-rule="evenodd" d="M7.67476 0.0769618C7.8795 -0.0254098 8.1205 -0.0254098 8.32524 0.0769618L15.5978 3.71325C15.8442 3.83644 15.9998 4.08827 15.9998 4.36373C15.9998 4.6392 15.8442 4.89102 15.5978 5.01421L8.32524 8.6505C8.1205 8.75287 7.8795 8.75287 7.67476 8.6505L0.402178 5.01421C0.155794 4.89102 0.000159305 4.6392 0.000159305 4.36373C0.000159305 4.08827 0.155794 3.83644 0.402178 3.71325L7.67476 0.0769618ZM2.35362 4.36373L8 7.18692L13.6464 4.36373L8 1.54054L2.35362 4.36373Z" fill="#5987FF"/>
<path d="M0.076938 11.3111C0.256563 10.9518 0.693407 10.8062 1.05266 10.9858L8 14.4595L14.9473 10.9858C15.3066 10.8062 15.7434 10.9518 15.9231 11.3111C16.1027 11.6703 15.9571 12.1072 15.5978 12.2868L8.32524 15.9231C8.1205 16.0255 7.8795 16.0255 7.67476 15.9231L0.402178 12.2868C0.0429278 12.1072 -0.102687 11.6703 0.076938 11.3111Z" fill="#5987FF"/>
<path d="M1.05266 7.34954C0.693407 7.16992 0.256563 7.31553 0.076938 7.67478C-0.102687 8.03403 0.0429278 8.47088 0.402178 8.6505L7.67476 12.2868C7.8795 12.3892 8.1205 12.3892 8.32524 12.2868L15.5978 8.6505C15.9571 8.47088 16.1027 8.03403 15.9231 7.67478C15.7434 7.31553 15.3066 7.16992 14.9473 7.34954L8 10.8232L1.05266 7.34954Z" fill="#5987FF"/>
</svg>
