<svg width="14" height="14" viewBox="0 0 14 14" fill="none" xmlns="http://www.w3.org/2000/svg">
<path d="M7.00005 9.78061C6.77968 9.78061 6.59509 9.70594 6.44628 9.55661C6.29694 9.40779 6.22228 9.2232 6.22228 9.00283V3.44172L4.76394 4.90005C4.60839 5.05561 4.42691 5.13339 4.2195 5.13339C4.01209 5.13339 3.82413 5.04913 3.65561 4.88061C3.50005 4.72505 3.42565 4.5402 3.43239 4.32605C3.43861 4.11242 3.51302 3.93431 3.65561 3.79172L6.45561 0.991721C6.53339 0.913943 6.61765 0.858721 6.70839 0.826054C6.79913 0.793906 6.89635 0.777832 7.00005 0.777832C7.10376 0.777832 7.20098 0.793906 7.29172 0.826054C7.38246 0.858721 7.46672 0.913943 7.5445 0.991721L10.3445 3.79172C10.5001 3.94728 10.5745 4.13187 10.5677 4.3455C10.5615 4.55965 10.4871 4.73802 10.3445 4.88061C10.1889 5.03617 10.0044 5.11705 9.79072 5.12328C9.57657 5.13002 9.39172 5.05561 9.23617 4.90005L7.77783 3.44172V9.00283C7.77783 9.2232 7.70342 9.40779 7.55461 9.55661C7.40528 9.70594 7.22042 9.78061 7.00005 9.78061ZM2.33339 12.8917C1.90561 12.8917 1.53954 12.7395 1.23517 12.4352C0.930276 12.1303 0.777832 11.7639 0.777832 11.3362V9.78061C0.777832 9.56024 0.85224 9.37539 1.00105 9.22605C1.15039 9.07724 1.33524 9.00283 1.55561 9.00283C1.77598 9.00283 1.96083 9.07724 2.11017 9.22605C2.25898 9.37539 2.33339 9.56024 2.33339 9.78061V11.3362H11.6667V9.78061C11.6667 9.56024 11.7414 9.37539 11.8907 9.22605C12.0395 9.07724 12.2241 9.00283 12.4445 9.00283C12.6649 9.00283 12.8495 9.07724 12.9983 9.22605C13.1476 9.37539 13.2223 9.56024 13.2223 9.78061V11.3362C13.2223 11.7639 13.0701 12.1303 12.7657 12.4352C12.4608 12.7395 12.0945 12.8917 11.6667 12.8917H2.33339Z" fill="#F8F8FA"/>
</svg>
