<svg width="18" height="18" viewBox="0 0 18 18" fill="none" xmlns="http://www.w3.org/2000/svg">
<path d="M9 12.575C8.71667 12.575 8.47933 12.479 8.288 12.287C8.096 12.0957 8 11.8583 8 11.575V4.42501L6.125 6.30002C5.925 6.50002 5.69167 6.60001 5.425 6.60001C5.15833 6.60001 4.91667 6.49168 4.7 6.27501C4.5 6.07502 4.40433 5.83735 4.413 5.56202C4.421 5.28735 4.51667 5.05835 4.7 4.87502L8.3 1.27501C8.4 1.17501 8.50833 1.10402 8.625 1.06202C8.74167 1.02068 8.86667 1.00002 9 1.00002C9.13333 1.00002 9.25833 1.02068 9.375 1.06202C9.49167 1.10402 9.6 1.17501 9.7 1.27501L13.3 4.87502C13.5 5.07502 13.5957 5.31235 13.587 5.58702C13.579 5.86235 13.4833 6.09168 13.3 6.27501C13.1 6.47501 12.8627 6.57902 12.588 6.58702C12.3127 6.59568 12.075 6.50002 11.875 6.30002L10 4.42501V11.575C10 11.8583 9.90433 12.0957 9.713 12.287C9.521 12.479 9.28333 12.575 9 12.575ZM3 16.575C2.45 16.575 1.97933 16.3793 1.588 15.988C1.196 15.596 1 15.125 1 14.575V12.575C1 12.2917 1.09567 12.054 1.287 11.862C1.479 11.6707 1.71667 11.575 2 11.575C2.28333 11.575 2.521 11.6707 2.713 11.862C2.90433 12.054 3 12.2917 3 12.575V14.575H15V12.575C15 12.2917 15.096 12.054 15.288 11.862C15.4793 11.6707 15.7167 11.575 16 11.575C16.2833 11.575 16.5207 11.6707 16.712 11.862C16.904 12.054 17 12.2917 17 12.575V14.575C17 15.125 16.8043 15.596 16.413 15.988C16.021 16.3793 15.55 16.575 15 16.575H3Z" fill="#EDEDF2"/>
</svg>
