<svg width="18" height="18" viewBox="0 0 18 18" fill="none" xmlns="http://www.w3.org/2000/svg">
<path d="M11.0889 16.8981L6.33333 15.2105L2.2 16.8306C1.9037 16.9506 1.62963 16.9167 1.37778 16.7289C1.12593 16.5417 1 16.2906 1 15.9756V3.37521C1 3.18021 1.0557 3.0077 1.16711 2.8577C1.27793 2.70769 1.42963 2.59519 1.62222 2.52019L5.75556 1.10265C5.94815 1.04265 6.14074 1.00875 6.33333 1.00095C6.52593 0.993746 6.71852 1.02765 6.91111 1.10265L11.6667 2.7902L15.8 1.17015C16.0963 1.05015 16.3704 1.08375 16.6222 1.27095C16.8741 1.45876 17 1.71017 17 2.02517V14.6255C17 14.8205 16.9443 14.993 16.8329 15.143C16.7221 15.2931 16.5704 15.4056 16.3778 15.4806L12.2444 16.8981C12.0519 16.9581 11.8593 16.9917 11.6667 16.9989C11.4741 17.0067 11.2815 16.9731 11.0889 16.8981ZM10.7778 14.8955V4.36524L7.22222 3.10521V13.6355L10.7778 14.8955ZM12.5556 14.8955L15.2222 13.9955V3.33021L12.5556 4.36524V14.8955ZM2.77778 14.6705L5.44444 13.6355V3.10521L2.77778 4.00523V14.6705Z" fill="#3B6CEC"/>
</svg>
