<svg width="16" height="12" viewBox="0 0 16 12" fill="none" xmlns="http://www.w3.org/2000/svg">
<path fill-rule="evenodd" clip-rule="evenodd" d="M6.82019 5.10232L8.80757 2.45473C9.07704 2.09094 9.61599 2.09094 9.88547 2.45473L14.6013 8.74024C14.9314 9.18487 14.6148 9.81814 14.0623 9.81814H1.93595C1.38353 9.81814 1.0669 9.18487 1.397 8.7335L4.09175 5.14274C4.36123 4.78569 4.90018 4.78569 5.16965 5.14274C5.55763 5.66823 6.11386 6.40851 6.6609 7.13655C6.86427 7.40722 7.06638 7.6762 7.25809 7.93181C7.4804 8.23497 7.90483 8.28887 8.20125 8.06655C8.49767 7.84423 8.5583 7.41981 8.33599 7.12339L6.82019 5.10232ZM10.8976 1.69911C10.1232 0.658775 8.57003 0.658729 7.79556 1.69897L5.96274 4.14065C5.14404 3.36276 3.79204 3.44317 3.08359 4.38187L0.382099 7.9816L0.377496 7.98789C-0.546184 9.25088 0.321503 11.0812 1.93595 11.0812H14.0623C15.6619 11.0812 16.5588 9.25805 15.6154 7.98732L10.9004 1.70292C10.8995 1.70165 10.8985 1.70038 10.8976 1.69911Z" fill="#5987FF"/>
</svg>
