<svg width="18" height="18" viewBox="0 0 18 18" fill="none" xmlns="http://www.w3.org/2000/svg">
<path d="M14.6 16.2C14.08 16.2 13.6133 16.0501 13.2 15.7504C12.7867 15.4501 12.5 15.0667 12.34 14.6H8.2C7.32 14.6 6.56667 14.2867 5.94 13.66C5.31333 13.0333 5 12.28 5 11.4C5 10.52 5.31333 9.76665 5.94 9.13999C6.56667 8.51332 7.32 8.19999 8.2 8.19999H9.8C10.24 8.19999 10.6168 8.04319 10.9304 7.72959C11.2435 7.41652 11.4 7.03999 11.4 6.59999C11.4 6.15999 11.2435 5.78319 10.9304 5.46959C10.6168 5.15652 10.24 4.99999 9.8 4.99999H5.66C5.48667 5.46665 5.1968 5.85012 4.7904 6.15039C4.38347 6.45012 3.92 6.59999 3.4 6.59999C2.73333 6.59999 2.16667 6.36665 1.7 5.89999C1.23333 5.43332 1 4.86665 1 4.19999C1 3.53332 1.23333 2.96665 1.7 2.49999C2.16667 2.03332 2.73333 1.79999 3.4 1.79999C3.92 1.79999 4.38347 1.94985 4.7904 2.24959C5.1968 2.54985 5.48667 2.93332 5.66 3.39999H9.8C10.68 3.39999 11.4333 3.71332 12.06 4.33999C12.6867 4.96665 13 5.71999 13 6.59999C13 7.47999 12.6867 8.23332 12.06 8.85999C11.4333 9.48665 10.68 9.79999 9.8 9.79999H8.2C7.76 9.79999 7.38347 9.95652 7.0704 10.2696C6.7568 10.5832 6.6 10.96 6.6 11.4C6.6 11.84 6.7568 12.2168 7.0704 12.5304C7.38347 12.8435 7.76 13 8.2 13H12.34C12.5133 12.5333 12.8035 12.1499 13.2104 11.8496C13.6168 11.5499 14.08 11.4 14.6 11.4C15.2667 11.4 15.8333 11.6333 16.3 12.1C16.7667 12.5667 17 13.1333 17 13.8C17 14.4667 16.7667 15.0333 16.3 15.5C15.8333 15.9667 15.2667 16.2 14.6 16.2ZM3.4 4.99999C3.62667 4.99999 3.8168 4.92345 3.9704 4.77039C4.12347 4.61679 4.2 4.42665 4.2 4.19999C4.2 3.97332 4.12347 3.78319 3.9704 3.62959C3.8168 3.47652 3.62667 3.39999 3.4 3.39999C3.17333 3.39999 2.9832 3.47652 2.8296 3.62959C2.67653 3.78319 2.6 3.97332 2.6 4.19999C2.6 4.42665 2.67653 4.61679 2.8296 4.77039C2.9832 4.92345 3.17333 4.99999 3.4 4.99999Z" fill="#3B6CEC"/>
</svg>
