<svg width="8" height="14" viewBox="0 0 8 14" fill="none" xmlns="http://www.w3.org/2000/svg">
<path d="M3.12494 8.6665V12.9511L3.72706 13.854C3.85694 14.0487 4.14324 14.0487 4.27312 13.854L4.87497 12.9511V8.6665C4.59086 8.719 4.2991 8.75017 3.99995 8.75017C3.70081 8.75017 3.40904 8.719 3.12494 8.6665ZM3.99995 0C1.82526 0 0.0623779 1.76289 0.0623779 3.93758C0.0623779 6.11227 1.82526 7.87515 3.99995 7.87515C6.17465 7.87515 7.93753 6.11227 7.93753 3.93758C7.93753 1.76289 6.17465 0 3.99995 0ZM3.99995 2.07817C2.97454 2.07817 2.14054 2.91217 2.14054 3.93758C2.14054 4.1186 1.99343 4.26571 1.81241 4.26571C1.63139 4.26571 1.48428 4.1186 1.48428 3.93758C1.48428 2.5504 2.61305 1.4219 3.99995 1.4219C4.18097 1.4219 4.32809 1.56902 4.32809 1.75003C4.32809 1.93105 4.18097 2.07817 3.99995 2.07817Z" fill="#3B6CEC"/>
</svg>
