<svg width="12" height="12" viewBox="0 0 12 12" fill="none" xmlns="http://www.w3.org/2000/svg">
<path d="M0.975 7C0.691667 7 0.458333 6.904 0.275 6.712C0.0916668 6.52067 0 6.28333 0 6C0 5.71667 0.0956668 5.47933 0.287 5.288C0.479 5.096 0.716667 5 1 5H11.025C11.3083 5 11.5417 5.096 11.725 5.288C11.9083 5.47933 12 5.71667 12 6C12 6.28333 11.904 6.52067 11.712 6.712C11.5207 6.904 11.2833 7 11 7H0.975Z" fill="#5987FF"/>
<path d="M7 11.025C7 11.3083 6.904 11.5417 6.712 11.725C6.52067 11.9083 6.28333 12 6 12C5.71667 12 5.47933 11.9043 5.288 11.713C5.096 11.521 5 11.2833 5 11V0.975C5 0.691667 5.096 0.458333 5.288 0.275C5.47933 0.0916662 5.71667 0 6 0C6.28333 0 6.52067 0.0959997 6.712 0.288C6.904 0.479334 7 0.716666 7 1V11.025Z" fill="#5987FF"/>
</svg>
