<svg width="16" height="16" viewBox="0 0 16 16" fill="none" xmlns="http://www.w3.org/2000/svg">
<path d="M7.79405 0.00235011C5.43884 0.0645632 3.35025 1.13996 1.92824 2.81083L0.755078 1.64655C0.479563 1.37104 -0.000366211 1.56656 -0.000366211 1.96651V5.77928C-0.000366211 6.02813 0.195161 6.22366 0.444013 6.22366H4.25679C4.65673 6.22366 4.85225 5.74373 4.56785 5.46821L3.19028 4.08175C4.33677 2.6864 6.06097 1.77987 7.99846 1.77987C11.8379 1.77987 14.8774 5.28158 14.0953 9.25432C13.6154 11.7162 11.5979 13.6803 9.13607 14.1158C5.75879 14.7202 2.75478 12.5694 1.98156 9.52984C1.87491 9.15656 1.51941 8.88993 1.12836 8.88993C0.550664 8.88993 0.115172 9.43208 0.257374 9.98311C1.13724 13.4404 4.26567 16 7.99846 16C12.4956 16 16.1217 12.2939 15.9973 7.7701C15.8729 3.43296 12.1312 -0.104301 7.79405 0.00235011ZM9.77598 8.00118C9.77598 7.02354 8.97609 6.22366 7.99846 6.22366C7.02082 6.22366 6.22094 7.02354 6.22094 8.00118C6.22094 8.97881 7.02082 9.77869 7.99846 9.77869C8.97609 9.77869 9.77598 8.97881 9.77598 8.00118Z" fill="#5987FF"/>
</svg>
