<svg width="14" height="14" viewBox="0 0 14 14" fill="none" xmlns="http://www.w3.org/2000/svg">
<path d="M2.16055 13.2223C1.7803 13.2223 1.45467 13.087 1.18366 12.8164C0.913108 12.5454 0.777832 12.2198 0.777832 11.8396V2.16055C0.777832 1.7803 0.913108 1.45467 1.18366 1.18366C1.45467 0.913108 1.7803 0.777832 2.16055 0.777832H9.88647C10.0708 0.777832 10.2467 0.8124 10.414 0.881536C10.5808 0.950672 10.7276 1.04861 10.8544 1.17536L12.8247 3.14573C12.9515 3.27248 13.0494 3.41928 13.1186 3.58613C13.1877 3.75344 13.2223 3.92927 13.2223 4.11363V11.8396C13.2223 12.2198 13.087 12.5454 12.8164 12.8164C12.5454 13.087 12.2198 13.2223 11.8396 13.2223H2.16055ZM11.8396 4.13092L9.86919 2.16055H2.16055V11.8396H11.8396V4.13092ZM7.00005 11.1482C7.57619 11.1482 8.0659 10.9466 8.46919 10.5433C8.87248 10.14 9.07413 9.65026 9.07413 9.07413C9.07413 8.498 8.87248 8.00828 8.46919 7.60499C8.0659 7.2017 7.57619 7.00005 7.00005 7.00005C6.42392 7.00005 5.93421 7.2017 5.53092 7.60499C5.12763 8.00828 4.92598 8.498 4.92598 9.07413C4.92598 9.65026 5.12763 10.14 5.53092 10.5433C5.93421 10.9466 6.42392 11.1482 7.00005 11.1482ZM3.54326 5.61734H8.38277C8.57866 5.61734 8.74297 5.55097 8.87571 5.41823C9.00799 5.28595 9.07413 5.12186 9.07413 4.92598V3.54326C9.07413 3.34738 9.00799 3.18307 8.87571 3.05033C8.74297 2.91805 8.57866 2.85191 8.38277 2.85191H3.54326C3.34738 2.85191 3.18307 2.91805 3.05033 3.05033C2.91805 3.18307 2.85191 3.34738 2.85191 3.54326V4.92598C2.85191 5.12186 2.91805 5.28595 3.05033 5.41823C3.18307 5.55097 3.34738 5.61734 3.54326 5.61734ZM2.16055 4.13092V11.8396V2.16055V4.13092Z" fill="#F8F8FA"/>
</svg>
