<svg width="14" height="14" viewBox="0 0 14 14" fill="none" xmlns="http://www.w3.org/2000/svg">
<path d="M11.2169 9.89558C10.6827 9.89558 10.2048 10.1064 9.83934 10.4367L4.8283 7.52008C4.86344 7.35843 4.89155 7.19679 4.89155 7.02811C4.89155 6.85944 4.86344 6.69779 4.8283 6.53614L9.78312 3.64759C10.1626 3.999 10.6616 4.21687 11.2169 4.21687C12.3835 4.21687 13.3253 3.2751 13.3253 2.10843C13.3253 0.941767 12.3835 0 11.2169 0C10.0502 0 9.10842 0.941767 9.10842 2.10843C9.10842 2.27711 9.13653 2.43875 9.17167 2.6004L4.21685 5.48896C3.83733 5.13755 3.33834 4.91968 2.78312 4.91968C1.61645 4.91968 0.674683 5.86145 0.674683 7.02811C0.674683 8.19478 1.61645 9.13655 2.78312 9.13655C3.33834 9.13655 3.83733 8.91867 4.21685 8.56727L9.22087 11.491C9.18573 11.6386 9.16464 11.7932 9.16464 11.9478C9.16464 13.0793 10.0853 14 11.2169 14C12.3484 14 13.2691 13.0793 13.2691 11.9478C13.2691 10.8163 12.3484 9.89558 11.2169 9.89558Z" fill="#3B6CEC"/>
</svg>
