<svg width="18" height="18" viewBox="0 0 18 18" fill="none" xmlns="http://www.w3.org/2000/svg">
<path d="M1.88889 14.3334H5.44444C5.93333 14.3334 6.33333 13.9334 6.33333 13.4445C6.33333 12.9556 5.93333 12.5556 5.44444 12.5556H1.88889C1.4 12.5556 1 12.9556 1 13.4445C1 13.9334 1.4 14.3334 1.88889 14.3334ZM1 4.55564C1 5.04453 1.4 5.44453 1.88889 5.44453H16.1111C16.6 5.44453 17 5.04453 17 4.55564C17 4.06675 16.6 3.66675 16.1111 3.66675H1.88889C1.4 3.66675 1 4.06675 1 4.55564ZM1.88889 9.88897H10.7778C11.2667 9.88897 11.6667 9.48897 11.6667 9.00008C11.6667 8.51119 11.2667 8.11119 10.7778 8.11119H1.88889C1.4 8.11119 1 8.51119 1 9.00008C1 9.48897 1.4 9.88897 1.88889 9.88897Z" fill="#5987FF"/>
</svg>
