<svg width="16" height="16" viewBox="0 0 16 16" fill="none" xmlns="http://www.w3.org/2000/svg">
<path d="M8 5.09091C6.39273 5.09091 5.09091 6.39273 5.09091 8C5.09091 9.60727 6.39273 10.9091 8 10.9091C9.60727 10.9091 10.9091 9.60727 10.9091 8C10.9091 6.39273 9.60727 5.09091 8 5.09091ZM14.5018 7.27273C14.1673 4.24 11.76 1.83273 8.72727 1.49818V0.727273C8.72727 0.327273 8.4 0 8 0C7.6 0 7.27273 0.327273 7.27273 0.727273V1.49818C4.24 1.83273 1.83273 4.24 1.49818 7.27273H0.727273C0.327273 7.27273 0 7.6 0 8C0 8.4 0.327273 8.72727 0.727273 8.72727H1.49818C1.83273 11.76 4.24 14.1673 7.27273 14.5018V15.2727C7.27273 15.6727 7.6 16 8 16C8.4 16 8.72727 15.6727 8.72727 15.2727V14.5018C11.76 14.1673 14.1673 11.76 14.5018 8.72727H15.2727C15.6727 8.72727 16 8.4 16 8C16 7.6 15.6727 7.27273 15.2727 7.27273H14.5018ZM8 13.0909C5.18545 13.0909 2.90909 10.8145 2.90909 8C2.90909 5.18545 5.18545 2.90909 8 2.90909C10.8145 2.90909 13.0909 5.18545 13.0909 8C13.0909 10.8145 10.8145 13.0909 8 13.0909Z" fill="#3B6CEC"/>
</svg>
