<svg width="530" height="375" viewBox="0 0 530 375" fill="none" xmlns="http://www.w3.org/2000/svg">
<path d="M428 363H528" stroke="#CB421C" stroke-width="4" stroke-linecap="round"/>
<path d="M2 363H102" stroke="#CB421C" stroke-width="4" stroke-linecap="round"/>
<path d="M210 363H350" stroke="#CB421C" stroke-width="4" stroke-linecap="round"/>
<path d="M344.866 265.933L373.292 286.359L406.731 230.645L406.665 292.875L496.98 225.402L429.121 317.252L485.574 312.64L432.304 338.009L443.741 349.913M368.061 252.258L362.251 237.468M455.721 338.97L471.381 342.133" stroke="#CB421C" stroke-width="4" stroke-linecap="round"/>
<path d="M101.081 136.669L101.694 134.765C100.861 134.497 99.9495 134.801 99.4453 135.517L101.081 136.669ZM112.371 140.542L111.663 142.413L112.371 140.542ZM161.454 163.129L160.554 164.916L161.454 163.129ZM189.56 178.59L190.711 176.955C190.664 176.922 190.616 176.891 190.566 176.861L189.56 178.59ZM360.27 298.81L359.118 300.446C359.154 300.471 359.19 300.494 359.227 300.517L360.27 298.81ZM379.692 312.488L378.38 313.998L379.692 312.488ZM387.762 320.21L389.215 318.836L387.762 320.21ZM403.508 342.003L401.757 342.97C401.779 343.011 401.803 343.051 401.829 343.09L403.508 342.003ZM406.913 351.282L404.913 351.227L404.913 351.227L406.913 351.282ZM396.626 330.785L398.251 329.619L396.626 330.785ZM150.089 155.381L152.039 154.935L150.089 155.381ZM152.917 103.596L154.912 103.723C154.918 103.632 154.918 103.54 154.911 103.449L152.917 103.596ZM150.899 98.8614L152.333 97.468C152.247 97.3788 152.152 97.2978 152.05 97.2262L150.899 98.8614ZM142.55 92.9823L143.702 91.3471C143.206 90.9978 142.578 90.8925 141.995 91.061C141.412 91.2295 140.937 91.6535 140.704 92.2136L142.55 92.9823ZM149.799 152.373L147.803 152.246C147.8 152.302 147.798 152.359 147.8 152.415L149.799 152.373ZM316.016 270.563C316.793 271.348 318.06 271.355 318.845 270.578C319.63 269.801 319.636 268.534 318.859 267.749L316.016 270.563ZM313.697 263.973L311.835 264.703L311.835 264.703L313.697 263.973ZM312.821 259.788L310.841 259.506C310.818 259.666 310.815 259.829 310.831 259.99L312.821 259.788ZM334.802 105.529L336.782 105.811C336.8 105.686 336.806 105.559 336.8 105.433L334.802 105.529ZM334.166 101.003L336.086 100.442L336.086 100.442L334.166 101.003ZM329.612 93.7181L331.089 92.3692L329.612 93.7181ZM323.548 88.9381L324.619 87.2487C324.102 86.9212 323.464 86.8483 322.886 87.0508C322.309 87.2533 321.856 87.709 321.657 88.2876L323.548 88.9381ZM306.862 137.45L308.752 138.104L308.754 138.101L306.862 137.45ZM305.773 140.601L303.882 139.948L303.882 139.948L305.773 140.601ZM287.333 193.924L288.968 195.076C289.076 194.923 289.162 194.755 289.223 194.578L287.333 193.924ZM259.782 229.572C259.146 230.476 259.363 231.723 260.266 232.359C261.169 232.995 262.417 232.779 263.053 231.876L259.782 229.572ZM323.936 89.2111L325.711 88.2886C325.563 88.0046 325.349 87.7602 325.088 87.5759L323.936 89.2111ZM320.646 86.8943L321.798 85.2591C321.478 85.0337 321.099 84.9071 320.707 84.8952L320.646 86.8943ZM320.358 87.3032L318.497 88.0342C318.625 88.3612 318.837 88.6486 319.112 88.8675L320.358 87.3032ZM324.772 90.8194L323.526 92.3837C324.265 92.9721 325.314 92.9637 326.043 92.3634C326.772 91.7632 326.982 90.7348 326.547 89.8969L324.772 90.8194ZM318.782 216.581L319.25 214.637C318.699 214.504 318.117 214.612 317.65 214.932C317.183 215.253 316.874 215.757 316.799 216.319L318.782 216.581ZM334.199 221.832L335.226 220.115L334.199 221.832ZM345.103 229.51L343.76 230.993L345.103 229.51ZM349.273 233.722L350.828 232.464L349.273 233.722ZM350.838 235.843L352.473 236.995C352.956 236.308 352.96 235.392 352.48 234.702L350.838 235.843ZM340.639 250.324L340.277 252.291C341.045 252.433 341.825 252.114 342.275 251.476L340.639 250.324ZM337.995 249.736L338.54 247.812L337.995 249.736ZM332.505 247.399L333.406 245.614L332.505 247.399ZM331.16 246.691L332.125 244.939L331.16 246.691ZM326.657 243.76L327.862 242.163L326.657 243.76ZM321.601 239.72L320.356 241.286L321.601 239.72ZM316.233 235.843L314.25 235.581C314.145 236.38 314.529 237.165 315.226 237.571L316.233 235.843ZM324.768 242.97C324.132 243.873 324.348 245.121 325.251 245.757C326.154 246.393 327.402 246.176 328.038 245.273L324.768 242.97ZM98.2476 140.691L96.6124 139.54C96.1083 140.256 96.1284 141.216 96.662 141.91L98.2476 140.691ZM105.698 150.016L107.221 148.72L105.698 150.016ZM143.503 188.619L144.882 187.17L143.503 188.619ZM167.53 209.872L166.242 211.401C166.286 211.439 166.331 211.474 166.379 211.507L167.53 209.872ZM338.24 330.092L339.495 328.535C339.462 328.508 339.427 328.482 339.392 328.457L338.24 330.092ZM357.662 343.77L358.641 342.026L357.662 343.77ZM367.652 348.766L366.848 350.597L367.652 348.766ZM393.476 356.248L393.934 354.301C393.888 354.29 393.842 354.281 393.796 354.274L393.476 356.248ZM403.36 356.327L402.634 354.463L402.634 354.463L403.36 356.327ZM380.595 353.548L380.045 355.471L380.595 353.548ZM135.119 182.589C136.214 182.735 137.22 181.966 137.366 180.871C137.512 179.776 136.743 178.77 135.648 178.624L135.119 182.589ZM132.379 180.53L132.616 182.516L132.379 180.53ZM84.5743 200.64L85.1085 202.567C85.1966 202.543 85.283 202.513 85.367 202.476L84.5743 200.64ZM79.4368 200.335L78.2853 201.97C78.387 202.042 78.4952 202.104 78.6084 202.156L79.4368 200.335ZM71.0887 194.456L69.7429 192.977C69.294 193.385 69.0548 193.975 69.0926 194.581C69.1304 195.186 69.4411 195.742 69.9372 196.091L71.0887 194.456ZM129.449 181.27L128.815 179.373C128.761 179.391 128.708 179.411 128.656 179.433L129.449 181.27ZM295.042 301.569C296.043 302.036 297.233 301.603 297.7 300.602C298.167 299.601 297.735 298.411 296.734 297.944L295.042 301.569ZM289.747 297.981L289.807 295.982L289.807 295.982L289.747 297.981ZM285.512 298.566L285.031 296.625C284.874 296.664 284.722 296.721 284.579 296.797L285.512 298.566ZM147.68 371.239L148.262 373.152C148.383 373.115 148.501 373.067 148.612 373.008L147.68 371.239ZM143.204 372.165L143.323 374.161L143.323 374.161L143.204 372.165ZM134.811 370.332L134.038 372.176L134.811 370.332ZM128.267 366.233L127.017 364.672C126.54 365.054 126.263 365.634 126.267 366.246C126.271 366.857 126.555 367.434 127.037 367.81L128.267 366.233ZM168.32 334.177L169.57 335.738L169.572 335.736L168.32 334.177ZM170.92 332.089L169.668 330.53L170.92 332.089ZM214.912 296.761L216.164 298.321C216.31 298.203 216.439 298.066 216.547 297.913L214.912 296.761ZM128.655 366.506L127.503 368.141C127.765 368.326 128.067 368.444 128.384 368.488L128.655 366.506ZM125.365 364.189L123.503 364.92C123.646 365.285 123.893 365.599 124.213 365.824L125.365 364.189ZM125.653 363.78L126.706 362.08C126.407 361.895 126.065 361.792 125.714 361.781L125.653 363.78ZM130.451 366.751L130.18 368.733C131.116 368.861 132.013 368.317 132.333 367.428C132.652 366.539 132.306 365.548 131.504 365.051L130.451 366.751ZM245.667 318.614C244.786 317.949 243.532 318.123 242.866 319.004C242.2 319.886 242.375 321.14 243.256 321.806L245.667 318.614ZM247.666 322.631L249.109 321.246C249.035 321.17 248.956 321.099 248.871 321.036L247.666 322.631ZM256.978 331.483L255.708 333.028L256.978 331.483ZM267.882 339.162L268.825 337.399L267.882 339.162ZM273.252 341.67L272.592 343.558L273.252 341.67ZM275.777 342.428L275.256 344.359C276.067 344.578 276.928 344.266 277.412 343.58L275.777 342.428ZM285.975 327.947L287.61 329.098C288.06 328.46 288.097 327.618 287.705 326.943L285.975 327.947ZM284.53 325.655L282.902 326.817L284.53 325.655ZM280.48 321.273L279.103 322.724L280.48 321.273ZM279.36 320.246L278.036 321.745L279.36 320.246ZM275.083 316.994L273.985 318.666L275.083 316.994ZM264.554 308.472C263.616 307.89 262.383 308.179 261.801 309.118C261.218 310.056 261.507 311.289 262.446 311.871L264.554 308.472ZM406.46 354.227L408.301 355.009C408.33 354.94 408.355 354.87 408.376 354.798L406.46 354.227ZM405.98 354.909L407.163 356.521C407.213 356.484 407.262 356.445 407.308 356.404L405.98 354.909ZM112.233 157.026L113.579 158.506C113.982 158.139 114.218 157.624 114.232 157.079C114.247 156.535 114.038 156.008 113.655 155.62L112.233 157.026ZM240.108 260.984L241.743 262.135C242.379 261.232 242.162 259.984 241.259 259.348L240.108 260.984ZM294.146 299.04L294.845 297.165L294.845 297.165L294.146 299.04ZM316.176 267.758L314.647 269.047L314.647 269.047L316.176 267.758ZM151.171 158.177L149.381 159.071C149.583 159.475 149.916 159.799 150.325 159.989L151.171 158.177ZM121.172 144.332L120.328 146.145C120.822 146.375 121.388 146.394 121.896 146.197C122.404 146 122.809 145.604 123.019 145.101L121.172 144.332ZM101.081 136.669C100.467 138.572 100.467 138.572 100.467 138.572C100.467 138.572 100.467 138.572 100.467 138.572C100.468 138.573 100.468 138.573 100.468 138.573C100.469 138.573 100.47 138.573 100.472 138.574C100.475 138.575 100.48 138.577 100.487 138.579C100.5 138.583 100.52 138.589 100.546 138.598C100.598 138.615 100.675 138.64 100.776 138.672C100.976 138.737 101.267 138.832 101.63 138.951C102.356 139.188 103.367 139.522 104.51 139.904C106.802 140.672 109.594 141.63 111.663 142.413L113.078 138.671C110.933 137.86 108.08 136.882 105.781 136.111C104.627 135.725 103.607 135.389 102.874 135.149C102.508 135.029 102.213 134.933 102.01 134.867C101.909 134.835 101.83 134.809 101.776 134.792C101.75 134.783 101.729 134.776 101.715 134.772C101.708 134.77 101.703 134.768 101.7 134.767C101.698 134.766 101.696 134.766 101.695 134.766C101.695 134.765 101.695 134.765 101.694 134.765C101.694 134.765 101.694 134.765 101.694 134.765C101.694 134.765 101.694 134.765 101.081 136.669ZM160.554 164.916C166.227 167.773 173.222 171.62 178.814 174.762C181.606 176.331 184.042 177.721 185.78 178.719C186.649 179.217 187.343 179.618 187.82 179.893C188.058 180.031 188.242 180.138 188.366 180.21C188.428 180.246 188.475 180.273 188.507 180.291C188.523 180.301 188.535 180.307 188.542 180.312C188.546 180.314 188.549 180.316 188.551 180.317C188.552 180.318 188.553 180.318 188.553 180.318C188.554 180.318 188.554 180.319 188.554 180.319C188.554 180.319 188.554 180.319 189.56 178.59C190.566 176.861 190.566 176.861 190.566 176.861C190.565 176.861 190.565 176.861 190.565 176.861C190.564 176.861 190.564 176.86 190.563 176.86C190.56 176.858 190.557 176.857 190.553 176.854C190.545 176.849 190.533 176.842 190.517 176.833C190.484 176.814 190.436 176.786 190.374 176.75C190.248 176.677 190.062 176.569 189.822 176.431C189.342 176.153 188.644 175.75 187.771 175.249C186.025 174.247 183.578 172.851 180.773 171.275C175.17 168.126 168.111 164.243 162.353 161.343L160.554 164.916ZM360.27 298.81C359.227 300.517 359.227 300.517 359.227 300.517C359.227 300.517 359.227 300.517 359.227 300.517C359.227 300.517 359.228 300.517 359.228 300.518C359.23 300.519 359.232 300.52 359.234 300.522C359.24 300.525 359.248 300.53 359.26 300.537C359.283 300.551 359.317 300.572 359.362 300.6C359.453 300.656 359.587 300.739 359.762 300.847C360.111 301.064 360.618 301.381 361.25 301.781C362.513 302.582 364.271 303.712 366.244 305.03C370.212 307.68 374.98 311.042 378.38 313.998L381.004 310.979C377.403 307.849 372.459 304.371 368.466 301.704C366.46 300.364 364.674 299.216 363.39 298.402C362.748 297.995 362.23 297.672 361.873 297.45C361.694 297.339 361.555 297.253 361.46 297.194C361.413 297.165 361.376 297.143 361.352 297.128C361.339 297.12 361.33 297.114 361.323 297.11C361.32 297.108 361.318 297.107 361.316 297.106C361.315 297.105 361.314 297.105 361.314 297.105C361.314 297.104 361.313 297.104 361.313 297.104C361.313 297.104 361.313 297.104 360.27 298.81ZM378.38 313.998C381.626 316.819 383.415 318.523 386.308 321.584L389.215 318.836C386.227 315.674 384.342 313.88 381.004 310.979L378.38 313.998ZM403.508 342.003C401.829 343.09 401.829 343.09 401.829 343.09C401.829 343.09 401.828 343.09 401.828 343.09C401.828 343.089 401.828 343.089 401.828 343.089C401.828 343.089 401.828 343.089 401.829 343.09C401.829 343.091 401.831 343.093 401.833 343.097C401.838 343.104 401.846 343.117 401.856 343.134C401.878 343.168 401.911 343.221 401.955 343.291C402.042 343.433 402.168 343.643 402.322 343.909C402.629 344.442 403.037 345.191 403.44 346.047C404.287 347.848 404.953 349.801 404.913 351.227L408.912 351.337C408.979 348.905 407.941 346.219 407.06 344.344C406.598 343.364 406.135 342.515 405.788 341.912C405.613 341.61 405.467 341.366 405.362 341.196C405.309 341.111 405.267 341.044 405.238 340.996C405.223 340.973 405.211 340.954 405.202 340.941C405.198 340.934 405.194 340.929 405.192 340.924C405.19 340.922 405.189 340.921 405.188 340.919C405.188 340.918 405.188 340.918 405.187 340.917C405.187 340.917 405.187 340.917 405.187 340.917C405.186 340.916 405.186 340.916 403.508 342.003ZM386.308 321.584C389.974 325.462 391.931 327.67 395.001 331.951L398.251 329.619C395.04 325.142 392.953 322.79 389.215 318.836L386.308 321.584ZM395.001 331.951C396.444 333.963 398.127 336.703 399.467 338.976C400.133 340.106 400.707 341.106 401.114 341.824C401.317 342.183 401.478 342.47 401.589 342.668C401.644 342.767 401.686 342.843 401.715 342.894C401.729 342.919 401.74 342.939 401.747 342.951C401.75 342.958 401.753 342.963 401.754 342.966C401.755 342.967 401.756 342.968 401.756 342.969C401.756 342.969 401.757 342.969 401.757 342.97C401.757 342.97 401.757 342.97 401.757 342.97C401.757 342.97 401.757 342.97 403.508 342.003C405.259 341.037 405.259 341.037 405.259 341.037C405.258 341.036 405.258 341.036 405.258 341.036C405.258 341.036 405.258 341.035 405.258 341.035C405.257 341.034 405.256 341.032 405.255 341.031C405.253 341.027 405.25 341.021 405.246 341.014C405.238 341 405.227 340.979 405.212 340.952C405.182 340.898 405.138 340.819 405.081 340.717C404.967 340.513 404.801 340.218 404.594 339.851C404.178 339.119 403.593 338.098 402.913 336.944C401.561 334.652 399.803 331.784 398.251 329.619L395.001 331.951ZM154.911 103.449C154.82 102.203 154.638 101.122 154.2 100.109C153.755 99.0799 153.112 98.27 152.333 97.468L149.464 100.255C150.07 100.879 150.352 101.288 150.528 101.695C150.71 102.118 150.845 102.691 150.922 103.742L154.911 103.449ZM152.05 97.2262L143.702 91.3471L141.399 94.6175L149.747 100.497L152.05 97.2262ZM152.039 154.935C151.952 154.555 151.887 153.938 151.846 153.334C151.827 153.049 151.815 152.794 151.808 152.611C151.804 152.52 151.802 152.448 151.8 152.399C151.8 152.375 151.799 152.356 151.799 152.345C151.799 152.339 151.799 152.335 151.799 152.333C151.799 152.331 151.799 152.331 151.799 152.33C151.799 152.33 151.799 152.33 151.799 152.33C151.799 152.33 151.799 152.33 151.799 152.33C151.799 152.33 151.799 152.331 151.799 152.331C151.799 152.331 151.799 152.331 149.799 152.373C147.8 152.415 147.8 152.416 147.8 152.416C147.8 152.416 147.8 152.416 147.8 152.416C147.8 152.416 147.8 152.416 147.8 152.417C147.8 152.417 147.8 152.418 147.8 152.419C147.8 152.42 147.8 152.422 147.8 152.425C147.8 152.43 147.8 152.436 147.8 152.445C147.801 152.462 147.801 152.486 147.802 152.516C147.804 152.577 147.807 152.662 147.811 152.768C147.819 152.978 147.833 153.271 147.855 153.602C147.897 154.228 147.977 155.116 148.14 155.827L152.039 154.935ZM151.795 152.501L154.912 103.723L150.921 103.468L147.803 152.246L151.795 152.501ZM315.559 263.243C315.334 262.669 315.142 261.795 315.003 260.967C314.937 260.573 314.888 260.222 314.856 259.971C314.84 259.845 314.828 259.746 314.821 259.679C314.817 259.646 314.814 259.621 314.813 259.605C314.812 259.598 314.811 259.592 314.811 259.589C314.811 259.587 314.811 259.586 314.811 259.586C314.811 259.586 314.811 259.586 314.811 259.586C314.811 259.586 314.811 259.586 314.811 259.586C314.811 259.586 314.811 259.586 314.811 259.586C314.811 259.586 314.811 259.587 312.821 259.788C310.831 259.99 310.831 259.99 310.831 259.99C310.831 259.99 310.831 259.99 310.831 259.99C310.831 259.991 310.831 259.991 310.831 259.991C310.831 259.992 310.832 259.993 310.832 259.994C310.832 259.996 310.832 259.999 310.832 260.003C310.833 260.01 310.834 260.019 310.835 260.031C310.838 260.054 310.842 260.087 310.846 260.129C310.856 260.212 310.87 260.33 310.888 260.476C310.925 260.767 310.981 261.171 311.058 261.628C311.205 262.504 311.45 263.722 311.835 264.703L315.559 263.243ZM314.801 260.07L336.782 105.811L332.822 105.247L310.841 259.506L314.801 260.07ZM334.802 105.529C336.8 105.433 336.8 105.433 336.8 105.432C336.8 105.432 336.8 105.432 336.8 105.432C336.8 105.432 336.8 105.431 336.8 105.431C336.8 105.43 336.8 105.429 336.8 105.428C336.8 105.426 336.8 105.423 336.799 105.42C336.799 105.413 336.799 105.403 336.798 105.391C336.797 105.367 336.795 105.332 336.792 105.288C336.787 105.201 336.779 105.076 336.768 104.922C336.747 104.614 336.712 104.186 336.661 103.699C336.562 102.761 336.389 101.48 336.086 100.442L332.247 101.564C332.444 102.239 332.589 103.222 332.683 104.118C332.728 104.549 332.759 104.93 332.778 105.204C332.788 105.34 332.795 105.448 332.799 105.521C332.801 105.558 332.803 105.585 332.803 105.603C332.804 105.612 332.804 105.618 332.804 105.622C332.805 105.624 332.805 105.625 332.805 105.625C332.805 105.626 332.805 105.626 332.805 105.626C332.805 105.626 332.805 105.626 332.805 105.626C332.805 105.625 332.805 105.625 332.805 105.625C332.805 105.625 332.805 105.625 334.802 105.529ZM336.086 100.442C335.011 96.7638 333.397 94.896 331.089 92.3692L328.136 95.0671C330.353 97.4946 331.44 98.8016 332.247 101.564L336.086 100.442ZM331.089 92.3692C329.928 91.0988 328.274 89.806 326.993 88.8753C326.337 88.3985 325.748 87.9949 325.322 87.7099C325.109 87.5672 324.936 87.4537 324.815 87.3751C324.755 87.3357 324.707 87.3051 324.674 87.2838C324.657 87.2731 324.644 87.2648 324.635 87.259C324.63 87.256 324.627 87.2537 324.624 87.252C324.623 87.2511 324.622 87.2504 324.621 87.2499C324.62 87.2496 324.62 87.2494 324.62 87.2492C324.619 87.2491 324.619 87.249 324.619 87.2489C324.619 87.2488 324.619 87.2487 323.548 88.9381C322.478 90.6274 322.478 90.6273 322.478 90.6273C322.478 90.6273 322.477 90.6272 322.477 90.6272C322.477 90.6271 322.477 90.6271 322.477 90.6272C322.478 90.6273 322.478 90.6275 322.479 90.6279C322.48 90.6286 322.482 90.63 322.485 90.632C322.491 90.6359 322.501 90.6422 322.514 90.6508C322.541 90.668 322.582 90.6944 322.636 90.7292C322.743 90.7989 322.901 90.9023 323.097 91.0338C323.491 91.2973 324.036 91.6713 324.642 92.1113C325.884 93.014 327.262 94.1113 328.136 95.0671L331.089 92.3692ZM321.657 88.2876L304.971 136.8L308.754 138.101L325.44 89.5886L321.657 88.2876ZM304.972 136.797L303.882 139.948L307.663 141.255L308.752 138.104L304.972 136.797ZM303.882 139.948L285.443 193.271L289.223 194.578L307.663 141.255L303.882 139.948ZM325.088 87.5759L321.798 85.2591L319.495 88.5295L322.785 90.8463L325.088 87.5759ZM319.112 88.8675L323.526 92.3837L326.018 89.255L321.604 85.7388L319.112 88.8675ZM326.547 89.8969L325.711 88.2886L322.162 90.1336L322.998 91.7418L326.547 89.8969ZM320.646 86.8943C320.707 84.8952 320.707 84.8952 320.706 84.8952C320.706 84.8952 320.706 84.8952 320.706 84.8952C320.705 84.8951 320.705 84.8951 320.704 84.8951C320.703 84.8951 320.702 84.895 320.701 84.895C320.698 84.8949 320.696 84.8949 320.693 84.8948C320.689 84.8947 320.683 84.8946 320.678 84.8945C320.666 84.8943 320.654 84.8942 320.64 84.8941C320.612 84.8941 320.578 84.8945 320.539 84.8958C320.465 84.8983 320.354 84.9049 320.225 84.9241C320.106 84.9417 319.903 84.9794 319.673 85.071C319.47 85.1522 319.036 85.3574 318.703 85.8313L321.973 88.1344C321.673 88.5604 321.295 88.7305 321.156 88.7861C320.99 88.8521 320.86 88.8736 320.81 88.8811C320.749 88.8901 320.702 88.8925 320.676 88.8934C320.661 88.894 320.646 88.8942 320.632 88.8941C320.624 88.8941 320.617 88.8941 320.609 88.8939C320.605 88.8939 320.602 88.8938 320.598 88.8937C320.596 88.8936 320.593 88.8936 320.591 88.8935C320.59 88.8935 320.589 88.8935 320.588 88.8934C320.588 88.8934 320.587 88.8934 320.587 88.8934C320.586 88.8934 320.586 88.8934 320.586 88.8934C320.586 88.8933 320.585 88.8933 320.646 86.8943ZM318.703 85.8313C318.369 86.3052 318.322 86.7824 318.314 87.0014C318.305 87.2482 318.338 87.4522 318.361 87.5701C318.387 87.6987 318.418 87.8053 318.441 87.8756C318.452 87.9128 318.464 87.945 318.473 87.971C318.478 87.9842 318.482 87.9961 318.486 88.0066C318.488 88.0118 318.49 88.0168 318.492 88.0214C318.493 88.0237 318.493 88.0259 318.494 88.028C318.495 88.0291 318.495 88.0301 318.495 88.0312C318.496 88.0317 318.496 88.0322 318.496 88.0327C318.496 88.0329 318.496 88.0333 318.496 88.0334C318.496 88.0338 318.497 88.0342 320.358 87.3032C322.22 86.5721 322.22 86.5725 322.22 86.5729C322.22 86.573 322.22 86.5734 322.22 86.5736C322.221 86.5741 322.221 86.5746 322.221 86.5751C322.221 86.576 322.222 86.577 322.222 86.578C322.223 86.5799 322.224 86.5818 322.224 86.5836C322.226 86.5874 322.227 86.5911 322.229 86.5946C322.231 86.6018 322.234 86.6088 322.236 86.6156C322.241 86.6291 322.246 86.643 322.251 86.6576C322.259 86.6829 322.272 86.7273 322.284 86.7879C322.294 86.8377 322.318 86.9676 322.311 87.1454C322.306 87.2954 322.273 87.7085 321.973 88.1344L318.703 85.8313ZM318.782 216.581C318.314 218.526 318.314 218.526 318.314 218.526C318.314 218.526 318.314 218.526 318.314 218.526C318.314 218.526 318.314 218.526 318.315 218.526C318.316 218.526 318.317 218.527 318.32 218.527C318.324 218.528 318.332 218.53 318.342 218.533C318.361 218.537 318.391 218.545 318.431 218.554C318.511 218.574 318.629 218.603 318.782 218.641C319.088 218.718 319.531 218.831 320.078 218.974C321.171 219.261 322.672 219.67 324.303 220.157C327.646 221.156 331.265 222.407 333.173 223.548L335.226 220.115C332.827 218.681 328.738 217.307 325.448 216.324C323.763 215.821 322.217 215.4 321.093 215.105C320.53 214.957 320.072 214.841 319.753 214.761C319.594 214.721 319.47 214.691 319.384 214.67C319.342 214.659 319.309 214.651 319.286 214.646C319.275 214.643 319.266 214.641 319.26 214.639C319.257 214.639 319.255 214.638 319.253 214.638C319.252 214.637 319.252 214.637 319.251 214.637C319.251 214.637 319.251 214.637 319.25 214.637C319.25 214.637 319.25 214.637 318.782 216.581ZM333.173 223.548C337.637 226.218 340.06 227.641 343.76 230.993L346.445 228.028C342.426 224.387 339.701 222.791 335.226 220.115L333.173 223.548ZM343.76 230.993C345.492 232.562 346.376 233.319 347.718 234.979L350.828 232.464C349.26 230.525 348.144 229.567 346.445 228.028L343.76 230.993ZM347.718 234.979C348.005 235.334 348.37 235.827 348.676 236.252C348.826 236.46 348.957 236.644 349.05 236.776C349.096 236.842 349.133 236.895 349.158 236.931C349.17 236.949 349.18 236.962 349.186 236.971C349.189 236.976 349.192 236.979 349.193 236.981C349.194 236.982 349.194 236.983 349.195 236.983C349.195 236.984 349.195 236.984 349.195 236.984C349.195 236.984 349.195 236.984 349.195 236.984C349.195 236.984 349.195 236.984 349.195 236.984C349.195 236.984 349.195 236.984 350.838 235.843C352.48 234.702 352.48 234.702 352.48 234.702C352.48 234.702 352.48 234.702 352.48 234.702C352.48 234.702 352.48 234.702 352.48 234.702C352.48 234.701 352.48 234.701 352.479 234.701C352.479 234.7 352.478 234.699 352.477 234.697C352.475 234.694 352.472 234.69 352.468 234.685C352.461 234.674 352.45 234.659 352.436 234.639C352.409 234.599 352.369 234.542 352.319 234.472C352.22 234.331 352.081 234.135 351.921 233.913C351.606 233.477 351.188 232.909 350.828 232.464L347.718 234.979ZM340.639 250.324C341.002 248.357 341.002 248.357 341.002 248.357C341.002 248.357 341.002 248.357 341.002 248.357C341.002 248.357 341.002 248.357 341.002 248.357C341.002 248.357 341.002 248.357 341.001 248.357C341.001 248.357 341 248.357 340.999 248.357C340.996 248.356 340.992 248.356 340.987 248.355C340.976 248.353 340.96 248.35 340.938 248.346C340.894 248.337 340.83 248.325 340.749 248.309C340.588 248.278 340.362 248.234 340.106 248.18C339.581 248.071 338.977 247.936 338.54 247.812L337.45 251.661C338.031 251.825 338.75 251.984 339.292 252.097C339.57 252.154 339.814 252.203 339.989 252.237C340.077 252.254 340.148 252.267 340.197 252.276C340.222 252.281 340.241 252.285 340.255 252.287C340.261 252.288 340.267 252.289 340.271 252.29C340.272 252.29 340.274 252.291 340.275 252.291C340.276 252.291 340.276 252.291 340.276 252.291C340.277 252.291 340.277 252.291 340.277 252.291C340.277 252.291 340.277 252.291 340.277 252.291C340.277 252.291 340.277 252.291 340.639 250.324ZM338.54 247.812C336.517 247.239 335.523 246.683 333.406 245.614L331.603 249.185C333.646 250.216 334.989 250.964 337.45 251.661L338.54 247.812ZM333.406 245.614C332.955 245.386 332.529 245.161 332.125 244.939L330.195 248.442C330.643 248.689 331.111 248.936 331.603 249.185L333.406 245.614ZM332.125 244.939C330.475 244.03 329.159 243.141 327.862 242.163L325.453 245.357C326.875 246.428 328.35 247.426 330.195 248.442L332.125 244.939ZM327.862 242.163C326.311 240.994 324.882 239.774 322.846 238.155L320.356 241.286C322.246 242.789 323.863 244.157 325.453 245.357L327.862 242.163ZM322.846 238.155C321.049 236.726 319.669 235.728 318.728 235.082C318.257 234.759 317.896 234.524 317.647 234.366C317.523 234.287 317.427 234.227 317.359 234.186C317.325 234.165 317.298 234.149 317.278 234.137C317.268 234.132 317.26 234.127 317.254 234.123C317.251 234.121 317.248 234.12 317.246 234.118C317.245 234.118 317.244 234.117 317.243 234.117C317.242 234.116 317.242 234.116 317.241 234.116C317.241 234.116 317.241 234.116 317.241 234.115C317.241 234.115 317.24 234.115 316.233 235.843C315.226 237.571 315.226 237.571 315.225 237.571C315.225 237.571 315.225 237.57 315.225 237.57C315.225 237.57 315.224 237.57 315.224 237.57C315.224 237.57 315.223 237.569 315.223 237.569C315.223 237.569 315.223 237.569 315.223 237.569C315.224 237.57 315.227 237.571 315.231 237.574C315.24 237.579 315.256 237.589 315.28 237.603C315.326 237.632 315.402 237.678 315.505 237.744C315.712 237.875 316.033 238.084 316.464 238.38C317.325 238.971 318.63 239.913 320.356 241.286L322.846 238.155ZM318.216 236.105L320.765 216.844L316.799 216.319L314.25 235.581L318.216 236.105ZM328.038 245.273L328.293 244.911L325.022 242.608L324.768 242.97L328.038 245.273ZM349.202 234.691L339.004 249.173L342.275 251.476L352.473 236.995L349.202 234.691ZM98.2476 140.691C96.662 141.91 96.662 141.91 96.6621 141.91C96.6621 141.911 96.6622 141.911 96.6622 141.911C96.6624 141.911 96.6626 141.911 96.6629 141.912C96.6635 141.912 96.6644 141.914 96.6656 141.915C96.6678 141.918 96.6712 141.922 96.6756 141.928C96.6845 141.94 96.6976 141.957 96.7148 141.979C96.7491 142.024 96.7996 142.089 96.8649 142.174C96.9954 142.343 97.1848 142.588 97.4211 142.892C97.8936 143.501 98.5542 144.349 99.3065 145.304C100.806 147.21 102.689 149.566 104.175 151.313L107.221 148.72C105.788 147.036 103.945 144.73 102.449 142.83C101.704 141.883 101.049 141.043 100.581 140.44C100.347 140.138 100.16 139.896 100.031 139.729C99.9668 139.646 99.9171 139.581 99.8836 139.538C99.8669 139.516 99.8542 139.5 99.8458 139.489C99.8415 139.483 99.8383 139.479 99.8363 139.476C99.8352 139.475 99.8344 139.474 99.8339 139.473C99.8337 139.473 99.8335 139.473 99.8334 139.473C99.8333 139.473 99.8333 139.473 99.8333 139.473C99.8332 139.473 99.8332 139.473 98.2476 140.691ZM142.125 190.067C146.795 194.511 152.829 199.849 157.682 204.064C160.111 206.174 162.25 208.007 163.782 209.314C164.548 209.967 165.162 210.488 165.585 210.847C165.797 211.026 165.961 211.164 166.072 211.258C166.127 211.305 166.169 211.341 166.198 211.365C166.212 211.377 166.223 211.386 166.23 211.392C166.234 211.395 166.237 211.397 166.239 211.399C166.24 211.4 166.24 211.4 166.241 211.401C166.241 211.401 166.241 211.401 166.241 211.401C166.241 211.401 166.242 211.401 167.53 209.872C168.819 208.342 168.819 208.342 168.819 208.342C168.819 208.342 168.818 208.342 168.818 208.342C168.818 208.342 168.817 208.341 168.816 208.34C168.815 208.339 168.812 208.337 168.808 208.334C168.801 208.328 168.791 208.319 168.777 208.307C168.749 208.284 168.708 208.249 168.653 208.202C168.543 208.11 168.381 207.972 168.171 207.794C167.751 207.439 167.14 206.92 166.378 206.27C164.853 204.97 162.723 203.144 160.305 201.044C155.462 196.838 149.484 191.549 144.882 187.17L142.125 190.067ZM338.24 330.092C336.985 331.649 336.985 331.649 336.985 331.65C336.985 331.65 336.986 331.65 336.986 331.65C336.986 331.65 336.987 331.651 336.988 331.651C336.989 331.653 336.992 331.655 336.995 331.657C337 331.662 337.009 331.669 337.02 331.678C337.043 331.696 337.076 331.723 337.12 331.757C337.206 331.827 337.334 331.929 337.499 332.06C337.829 332.322 338.308 332.7 338.907 333.168C340.106 334.103 341.788 335.397 343.726 336.834C347.583 339.695 352.523 343.178 356.683 345.514L358.641 342.026C354.713 339.82 349.941 336.464 346.109 333.622C344.203 332.207 342.547 330.934 341.368 330.014C340.778 329.554 340.308 329.183 339.987 328.928C339.826 328.8 339.702 328.701 339.619 328.635C339.578 328.601 339.546 328.576 339.525 328.559C339.515 328.551 339.507 328.545 339.502 328.541C339.5 328.539 339.498 328.537 339.497 328.536C339.496 328.536 339.496 328.535 339.496 328.535C339.495 328.535 339.495 328.535 339.495 328.535C339.495 328.535 339.495 328.535 338.24 330.092ZM356.683 345.514C360.54 347.679 362.864 348.849 366.848 350.597L368.455 346.935C364.599 345.242 362.392 344.132 358.641 342.026L356.683 345.514ZM393.476 356.248C393.018 358.195 393.018 358.195 393.019 358.195C393.019 358.195 393.019 358.195 393.019 358.195C393.02 358.195 393.021 358.196 393.022 358.196C393.023 358.196 393.025 358.197 393.028 358.197C393.032 358.198 393.039 358.2 393.047 358.202C393.062 358.205 393.084 358.21 393.111 358.216C393.165 358.228 393.243 358.245 393.341 358.266C393.536 358.307 393.815 358.363 394.158 358.425C394.844 358.549 395.798 358.699 396.877 358.803C398.939 359.002 401.818 359.074 404.085 358.191L402.634 354.463C401.305 354.981 399.242 355.013 397.261 354.822C396.318 354.731 395.476 354.599 394.87 354.489C394.569 354.435 394.328 354.386 394.166 354.352C394.084 354.335 394.023 354.321 393.984 354.313C393.964 354.308 393.95 354.305 393.942 354.303C393.937 354.302 393.935 354.301 393.933 354.301C393.933 354.301 393.932 354.301 393.933 354.301C393.933 354.301 393.933 354.301 393.933 354.301C393.933 354.301 393.933 354.301 393.933 354.301C393.934 354.301 393.934 354.301 393.476 356.248ZM366.848 350.597C371.83 352.784 374.747 353.956 380.045 355.471L381.145 351.626C376.08 350.177 373.342 349.079 368.455 346.935L366.848 350.597ZM380.045 355.471C382.606 356.204 385.899 356.892 388.512 357.392C389.827 357.644 390.986 357.851 391.816 357.995C392.231 358.068 392.565 358.124 392.795 358.163C392.91 358.182 393 358.197 393.061 358.207C393.091 358.212 393.115 358.216 393.131 358.218C393.139 358.219 393.145 358.22 393.149 358.221C393.151 358.222 393.153 358.222 393.154 358.222C393.155 358.222 393.155 358.222 393.155 358.222C393.155 358.222 393.156 358.222 393.156 358.222C393.156 358.222 393.156 358.222 393.476 356.248C393.796 354.274 393.796 354.274 393.796 354.274C393.796 354.274 393.796 354.274 393.796 354.274C393.796 354.274 393.795 354.274 393.795 354.274C393.794 354.274 393.793 354.273 393.791 354.273C393.788 354.272 393.782 354.272 393.775 354.27C393.761 354.268 393.739 354.265 393.71 354.26C393.653 354.25 393.567 354.236 393.455 354.217C393.232 354.18 392.907 354.125 392.5 354.054C391.687 353.913 390.552 353.71 389.265 353.464C386.673 352.968 383.525 352.306 381.145 351.626L380.045 355.471ZM84.0402 198.713C83.0245 198.994 82.4396 199.061 81.9799 199.031C81.5372 199.003 81.0579 198.876 80.2653 198.515L78.6084 202.156C79.6259 202.619 80.6051 202.951 81.7235 203.023C82.825 203.094 83.9038 202.901 85.1085 202.567L84.0402 198.713ZM80.5884 198.7L72.2403 192.821L69.9372 196.091L78.2853 201.97L80.5884 198.7ZM132.142 178.544C131.418 178.63 130.555 178.854 129.951 179.025C129.632 179.116 129.352 179.202 129.151 179.265C129.05 179.296 128.968 179.323 128.911 179.341C128.882 179.351 128.859 179.358 128.843 179.364C128.835 179.366 128.829 179.368 128.824 179.37C128.822 179.371 128.82 179.371 128.818 179.372C128.817 179.372 128.817 179.372 128.816 179.372C128.816 179.372 128.816 179.373 128.816 179.373C128.816 179.373 128.815 179.373 128.815 179.373C128.815 179.373 128.815 179.373 129.449 181.27C130.083 183.167 130.083 183.167 130.083 183.167C130.083 183.167 130.083 183.167 130.083 183.167C130.082 183.167 130.082 183.167 130.082 183.167C130.082 183.167 130.082 183.167 130.082 183.167C130.083 183.167 130.083 183.166 130.085 183.166C130.087 183.165 130.091 183.164 130.096 183.162C130.107 183.159 130.125 183.153 130.148 183.145C130.194 183.13 130.263 183.108 130.35 183.081C130.525 183.026 130.768 182.951 131.043 182.873C131.626 182.708 132.228 182.562 132.616 182.516L132.142 178.544ZM128.656 179.433L83.7817 198.804L85.367 202.476L130.242 183.106L128.656 179.433ZM289.807 295.982C288.754 295.95 287.525 296.129 286.65 296.286C286.194 296.368 285.795 296.451 285.509 296.515C285.365 296.546 285.249 296.573 285.168 296.592C285.127 296.602 285.094 296.609 285.071 296.615C285.06 296.618 285.051 296.62 285.044 296.622C285.041 296.622 285.038 296.623 285.036 296.624C285.035 296.624 285.034 296.624 285.033 296.624C285.033 296.624 285.032 296.624 285.032 296.625C285.032 296.625 285.032 296.625 285.032 296.625C285.032 296.625 285.031 296.625 285.512 298.566C285.993 300.508 285.993 300.508 285.992 300.508C285.992 300.508 285.992 300.508 285.992 300.508C285.992 300.508 285.992 300.508 285.992 300.508C285.992 300.508 285.992 300.508 285.992 300.508C285.992 300.508 285.993 300.507 285.995 300.507C285.998 300.506 286.003 300.505 286.011 300.503C286.027 300.499 286.051 300.493 286.084 300.486C286.149 300.47 286.246 300.448 286.37 300.421C286.617 300.366 286.964 300.294 287.357 300.223C288.183 300.075 289.072 299.961 289.687 299.98L289.807 295.982ZM284.579 296.797L146.747 369.47L148.612 373.008L286.445 300.335L284.579 296.797ZM147.68 371.239C147.097 369.325 147.097 369.325 147.097 369.325C147.097 369.325 147.097 369.325 147.097 369.325C147.098 369.325 147.098 369.325 147.098 369.325C147.098 369.325 147.098 369.325 147.097 369.325C147.097 369.326 147.096 369.326 147.094 369.326C147.09 369.328 147.084 369.329 147.076 369.332C147.059 369.337 147.032 369.345 146.997 369.355C146.927 369.376 146.823 369.406 146.691 369.443C146.428 369.517 146.058 369.616 145.637 369.719C144.761 369.932 143.788 370.127 143.086 370.168L143.323 374.161C144.403 374.097 145.667 373.829 146.583 373.605C147.059 373.49 147.474 373.378 147.77 373.294C147.919 373.253 148.039 373.218 148.124 373.193C148.166 373.181 148.199 373.171 148.222 373.164C148.234 373.161 148.243 373.158 148.25 373.156C148.253 373.155 148.256 373.154 148.258 373.153C148.259 373.153 148.26 373.153 148.261 373.152C148.261 373.152 148.261 373.152 148.262 373.152C148.262 373.152 148.262 373.152 148.262 373.152C148.262 373.152 148.262 373.152 147.68 371.239ZM143.086 370.168C140.213 370.339 138.616 369.757 135.583 368.487L134.038 372.176C137.195 373.498 139.498 374.389 143.323 374.161L143.086 370.168ZM135.583 368.487C134.389 367.987 132.892 367.059 131.623 366.193C131.005 365.772 130.469 365.384 130.088 365.102C129.898 364.961 129.748 364.848 129.646 364.77C129.595 364.732 129.556 364.702 129.531 364.682C129.519 364.673 129.509 364.666 129.504 364.661C129.501 364.659 129.499 364.657 129.498 364.656C129.497 364.656 129.497 364.656 129.497 364.656C129.496 364.656 129.496 364.656 129.497 364.656C129.497 364.656 129.497 364.656 129.497 364.656C129.497 364.656 129.497 364.656 128.267 366.233C127.037 367.81 127.037 367.81 127.037 367.81C127.038 367.81 127.038 367.811 127.038 367.811C127.038 367.811 127.038 367.811 127.039 367.812C127.04 367.812 127.041 367.813 127.042 367.814C127.044 367.816 127.048 367.819 127.052 367.822C127.061 367.829 127.073 367.838 127.089 367.85C127.12 367.874 127.165 367.909 127.222 367.952C127.337 368.04 127.502 368.165 127.708 368.317C128.12 368.622 128.699 369.04 129.369 369.498C130.676 370.39 132.451 371.512 134.038 372.176L135.583 368.487ZM129.517 367.794L169.57 335.738L167.07 332.615L127.017 364.672L129.517 367.794ZM169.572 335.736L172.172 333.649L169.668 330.53L167.068 332.617L169.572 335.736ZM172.172 333.649L216.164 298.321L213.659 295.202L169.668 330.53L172.172 333.649ZM129.806 364.871L126.516 362.554L124.213 365.824L127.503 368.141L129.806 364.871ZM124.6 365.481L129.398 368.452L131.504 365.051L126.706 362.08L124.6 365.481ZM130.721 364.77L128.925 364.524L128.384 368.488L130.18 368.733L130.721 364.77ZM125.365 364.189C127.226 363.458 127.227 363.458 127.227 363.459C127.227 363.459 127.227 363.459 127.227 363.459C127.227 363.46 127.227 363.46 127.228 363.461C127.228 363.462 127.228 363.463 127.229 363.464C127.229 363.466 127.23 363.468 127.231 363.47C127.232 363.473 127.234 363.477 127.235 363.481C127.238 363.488 127.24 363.495 127.243 363.501C127.248 363.515 127.252 363.529 127.257 363.543C127.265 363.569 127.279 363.613 127.291 363.674C127.301 363.724 127.324 363.854 127.318 364.031C127.312 364.181 127.28 364.594 126.98 365.02L123.709 362.717C123.375 363.191 123.328 363.668 123.32 363.887C123.311 364.134 123.344 364.338 123.368 364.456C123.394 364.585 123.425 364.691 123.447 364.762C123.459 364.799 123.47 364.831 123.48 364.857C123.484 364.87 123.489 364.882 123.493 364.893C123.495 364.898 123.497 364.903 123.498 364.908C123.499 364.91 123.5 364.912 123.501 364.914C123.501 364.915 123.502 364.916 123.502 364.917C123.502 364.918 123.503 364.918 123.503 364.919C123.503 364.919 123.503 364.919 123.503 364.92C123.503 364.92 123.503 364.92 125.365 364.189ZM126.98 365.02C126.68 365.446 126.302 365.617 126.162 365.672C125.997 365.738 125.867 365.76 125.817 365.767C125.756 365.776 125.709 365.779 125.683 365.779C125.667 365.78 125.653 365.78 125.638 365.78C125.631 365.78 125.624 365.78 125.616 365.78C125.612 365.78 125.608 365.78 125.604 365.78C125.602 365.78 125.6 365.78 125.598 365.78C125.597 365.78 125.596 365.779 125.595 365.779C125.594 365.779 125.594 365.779 125.593 365.779C125.593 365.779 125.593 365.779 125.593 365.779C125.592 365.779 125.592 365.779 125.653 363.78C125.714 361.781 125.713 361.781 125.713 361.781C125.713 361.781 125.712 361.781 125.712 361.781C125.712 361.781 125.711 361.781 125.711 361.781C125.709 361.781 125.708 361.781 125.707 361.781C125.705 361.781 125.702 361.781 125.7 361.781C125.695 361.781 125.69 361.781 125.684 361.781C125.673 361.78 125.66 361.78 125.646 361.78C125.619 361.78 125.585 361.78 125.546 361.782C125.472 361.784 125.361 361.791 125.231 361.81C125.112 361.828 124.909 361.865 124.68 361.957C124.476 362.038 124.043 362.243 123.709 362.717L126.98 365.02ZM243.256 321.806L246.46 324.227L248.871 321.036L245.667 318.614L243.256 321.806ZM247.666 322.631C246.223 324.016 246.223 324.016 246.223 324.016C246.223 324.016 246.223 324.016 246.223 324.017C246.223 324.017 246.224 324.017 246.224 324.018C246.225 324.018 246.226 324.02 246.227 324.021C246.23 324.024 246.235 324.028 246.24 324.034C246.251 324.046 246.267 324.062 246.288 324.084C246.33 324.128 246.392 324.191 246.471 324.273C246.63 324.437 246.86 324.674 247.149 324.967C247.725 325.554 248.534 326.371 249.466 327.288C251.317 329.11 253.698 331.375 255.708 333.028L258.249 329.939C256.383 328.405 254.107 326.244 252.272 324.437C251.36 323.539 250.567 322.74 250.003 322.165C249.721 321.878 249.496 321.647 249.343 321.489C249.266 321.409 249.207 321.348 249.167 321.307C249.147 321.287 249.133 321.271 249.123 321.261C249.118 321.256 249.114 321.252 249.112 321.25C249.111 321.248 249.11 321.248 249.109 321.247C249.109 321.247 249.109 321.247 249.109 321.246C249.109 321.246 249.109 321.246 249.109 321.246C249.109 321.246 249.109 321.246 247.666 322.631ZM255.708 333.028C259.736 336.34 262.156 338.368 266.939 340.926L268.825 337.399C264.423 335.044 262.267 333.242 258.249 329.939L255.708 333.028ZM266.939 340.926C268.96 342.007 270.238 342.734 272.592 343.558L273.912 339.782C271.897 339.077 270.886 338.501 268.825 337.399L266.939 340.926ZM272.592 343.558C273.133 343.747 273.808 343.949 274.324 344.098C274.587 344.174 274.819 344.239 274.985 344.285C275.068 344.308 275.135 344.326 275.181 344.339C275.205 344.345 275.223 344.35 275.235 344.353C275.242 344.355 275.247 344.357 275.25 344.357C275.252 344.358 275.253 344.358 275.254 344.359C275.255 344.359 275.255 344.359 275.255 344.359C275.256 344.359 275.256 344.359 275.256 344.359C275.256 344.359 275.256 344.359 275.256 344.359C275.256 344.359 275.256 344.359 275.777 342.428C276.297 340.497 276.297 340.497 276.297 340.497L276.297 340.497C276.297 340.497 276.297 340.497 276.297 340.497C276.297 340.497 276.297 340.497 276.297 340.497C276.296 340.497 276.295 340.496 276.294 340.496C276.292 340.495 276.288 340.494 276.282 340.493C276.272 340.49 276.256 340.486 276.235 340.48C276.193 340.468 276.131 340.451 276.053 340.43C275.897 340.387 275.68 340.326 275.433 340.255C274.93 340.11 274.343 339.933 273.912 339.782L272.592 343.558ZM285.975 327.947C287.705 326.943 287.705 326.943 287.705 326.943C287.705 326.943 287.705 326.943 287.705 326.942C287.705 326.942 287.704 326.942 287.704 326.942C287.704 326.942 287.704 326.941 287.704 326.941C287.703 326.94 287.702 326.939 287.701 326.937C287.699 326.934 287.697 326.929 287.693 326.923C287.686 326.911 287.676 326.894 287.664 326.873C287.638 326.829 287.602 326.767 287.556 326.69C287.465 326.537 287.338 326.323 287.19 326.081C286.901 325.608 286.509 324.985 286.158 324.493L282.902 326.817C283.166 327.186 283.497 327.709 283.777 328.167C283.913 328.39 284.031 328.587 284.115 328.729C284.157 328.8 284.19 328.856 284.212 328.894C284.224 328.913 284.232 328.928 284.238 328.938C284.24 328.942 284.242 328.946 284.244 328.948C284.244 328.949 284.245 328.95 284.245 328.95C284.245 328.95 284.245 328.951 284.245 328.951C284.245 328.951 284.245 328.951 284.245 328.951C284.245 328.951 284.245 328.951 284.245 328.951C284.245 328.95 284.245 328.95 285.975 327.947ZM286.158 324.493C284.673 322.412 283.517 321.399 281.857 319.823L279.103 322.724C280.823 324.357 281.681 325.104 282.902 326.817L286.158 324.493ZM281.857 319.823C281.457 319.443 281.067 319.086 280.684 318.747L278.036 321.745C278.381 322.05 278.736 322.375 279.103 322.724L281.857 319.823ZM280.684 318.747C279.105 317.353 277.669 316.3 276.181 315.323L273.985 318.666C275.344 319.558 276.623 320.498 278.036 321.745L280.684 318.747ZM276.181 315.323C275.299 314.743 272.867 313.329 270.477 311.944C268.032 310.526 265.587 309.113 264.554 308.472L262.446 311.871C263.545 312.553 266.069 314.011 268.471 315.404C270.929 316.83 273.223 318.166 273.985 318.666L276.181 315.323ZM277.412 343.58L287.61 329.098L284.34 326.795L274.141 341.276L277.412 343.58ZM404.913 351.227C404.887 352.194 404.788 352.834 404.543 353.656L408.376 354.798C408.731 353.607 408.877 352.616 408.912 351.337L404.913 351.227ZM404.085 358.191C405.277 357.727 406.161 357.256 407.163 356.521L404.796 353.296C404.105 353.804 403.535 354.113 402.634 354.463L404.085 358.191ZM404.619 353.446C404.609 353.469 404.601 353.485 404.596 353.496C404.591 353.507 404.589 353.511 404.59 353.51C404.59 353.509 404.593 353.503 404.599 353.493C404.605 353.483 404.613 353.471 404.623 353.457C404.632 353.443 404.642 353.431 404.652 353.419C404.661 353.407 404.669 353.399 404.674 353.393C404.683 353.384 404.679 353.389 404.651 353.414L407.308 356.404C407.5 356.233 407.707 356.026 407.899 355.752C408.086 355.485 408.208 355.226 408.301 355.009L404.619 353.446ZM104.175 151.313C106.088 153.56 108.531 156.126 110.811 158.432L113.655 155.62C111.4 153.339 109.038 150.855 107.221 148.72L104.175 151.313ZM135.383 180.606C135.648 178.624 135.648 178.624 135.648 178.624C135.648 178.624 135.648 178.624 135.648 178.624C135.647 178.624 135.647 178.624 135.647 178.624C135.647 178.624 135.647 178.624 135.647 178.624C135.647 178.624 135.647 178.624 135.647 178.624C135.647 178.624 135.646 178.624 135.646 178.624C135.645 178.624 135.645 178.624 135.644 178.623C135.643 178.623 135.642 178.623 135.64 178.623C135.638 178.623 135.635 178.622 135.632 178.622C135.626 178.621 135.62 178.62 135.612 178.619L135.139 182.591C135.137 182.591 135.134 182.591 135.13 182.59C135.129 182.59 135.127 182.59 135.125 182.59C135.124 182.59 135.123 182.589 135.122 182.589C135.121 182.589 135.121 182.589 135.12 182.589C135.12 182.589 135.12 182.589 135.12 182.589C135.119 182.589 135.119 182.589 135.119 182.589C135.119 182.589 135.119 182.589 135.119 182.589C135.119 182.589 135.119 182.589 135.119 182.589C135.119 182.589 135.119 182.589 135.119 182.589C135.119 182.589 135.119 182.589 135.383 180.606ZM133.954 182.012C136.781 184.869 139.62 187.684 142.125 190.067L144.882 187.17C142.418 184.825 139.61 182.041 136.797 179.199L133.954 182.012ZM166.379 211.507L238.956 262.619L241.259 259.348L168.682 208.237L166.379 211.507ZM295.888 299.756C296.734 297.944 296.733 297.944 296.733 297.944C296.733 297.944 296.733 297.944 296.733 297.944C296.733 297.944 296.733 297.944 296.733 297.944C296.732 297.943 296.732 297.943 296.731 297.943C296.731 297.943 296.73 297.942 296.728 297.942C296.726 297.94 296.723 297.939 296.719 297.937C296.711 297.934 296.701 297.929 296.688 297.923C296.661 297.911 296.625 297.894 296.578 297.873C296.485 297.831 296.352 297.773 296.186 297.702C295.856 297.56 295.39 297.369 294.845 297.165L293.448 300.914C293.923 301.091 294.328 301.258 294.613 301.379C294.755 301.44 294.867 301.489 294.94 301.523C294.977 301.539 295.005 301.552 295.022 301.56C295.031 301.563 295.037 301.566 295.04 301.568C295.042 301.569 295.043 301.569 295.043 301.569C295.043 301.569 295.043 301.569 295.043 301.569C295.043 301.569 295.043 301.569 295.043 301.569C295.043 301.569 295.043 301.569 295.042 301.569C295.042 301.569 295.042 301.569 295.042 301.569C295.042 301.569 295.042 301.569 295.888 299.756ZM292.995 300.675L337.089 331.727L339.392 328.457L295.298 297.404L292.995 300.675ZM361.422 297.175L317.327 266.123L315.024 269.393L359.118 300.446L361.422 297.175ZM314.647 269.047C315.022 269.492 315.359 269.866 315.604 270.129C315.726 270.261 315.826 270.367 315.897 270.44C315.933 270.477 315.961 270.506 315.981 270.527C315.991 270.537 315.999 270.545 316.005 270.552C316.008 270.555 316.01 270.557 316.012 270.559C316.013 270.56 316.014 270.561 316.015 270.561C316.015 270.562 316.015 270.562 316.016 270.562C316.016 270.562 316.016 270.563 316.016 270.563C316.016 270.563 316.016 270.563 316.016 270.563C316.016 270.563 316.016 270.563 317.438 269.156C318.859 267.749 318.859 267.749 318.859 267.749C318.859 267.749 318.859 267.749 318.859 267.749C318.859 267.75 318.86 267.75 318.86 267.75C318.86 267.75 318.86 267.75 318.86 267.75C318.86 267.75 318.86 267.75 318.86 267.75C318.86 267.75 318.859 267.749 318.858 267.748C318.855 267.745 318.85 267.74 318.844 267.733C318.83 267.72 318.809 267.698 318.781 267.669C318.725 267.611 318.642 267.522 318.536 267.409C318.325 267.182 318.032 266.856 317.705 266.469L314.647 269.047ZM263.053 231.876L263.772 230.853L260.502 228.55L259.782 229.572L263.053 231.876ZM263.289 228.067L190.711 176.955L188.408 180.225L260.986 231.337L263.289 228.067ZM162.353 161.343C159.266 159.788 155.658 158.063 152.016 156.364L150.325 159.989C153.949 161.68 157.517 163.386 160.554 164.916L162.353 161.343ZM122.017 142.52C119.078 141.15 115.838 139.715 113.078 138.671L111.663 142.413C114.285 143.404 117.42 144.791 120.328 146.145L122.017 142.52ZM140.704 92.2136L119.326 143.564L123.019 145.101L144.397 93.751L140.704 92.2136ZM135.614 178.62C135.521 178.608 133.583 178.372 132.142 178.544L132.616 182.516C133.018 182.468 133.593 182.474 134.15 182.506C134.682 182.537 135.096 182.586 135.137 182.591L135.614 178.62ZM285.698 192.773L260.502 228.55L263.772 230.853L288.968 195.076L285.698 192.773ZM317.705 266.469C316.842 265.445 315.935 264.204 315.559 263.243L311.835 264.703C312.47 266.323 313.758 267.992 314.647 269.047L317.705 266.469ZM152.96 157.283C152.941 157.246 152.756 156.873 152.547 156.382C152.329 155.869 152.129 155.33 152.039 154.935L148.14 155.827C148.464 157.242 149.339 158.986 149.381 159.071L152.96 157.283ZM294.845 297.165C293.552 296.684 291.546 296.034 289.807 295.982L289.687 299.98C290.719 300.011 292.193 300.446 293.448 300.914L294.845 297.165ZM216.547 297.913L241.743 262.135L238.472 259.832L213.276 295.61L216.547 297.913ZM72.4346 195.936L113.579 158.506L110.887 155.547L69.7429 192.977L72.4346 195.936ZM99.8828 141.843L102.716 137.82L99.4453 135.517L96.6124 139.54L99.8828 141.843Z" fill="#CB421C"/>
</svg>
