<svg width="448" height="536" viewBox="0 0 448 536" fill="none" xmlns="http://www.w3.org/2000/svg">
<g clip-path="url(#clip0_593_2496)">
<path d="M305.986 533.863C305.755 533.863 305.534 533.82 305.313 533.735C277.428 523.201 260.965 516.737 234.105 504.472C230.308 523.372 227.315 526.951 224.643 527.923C224.432 527.998 224.211 528.041 223.99 528.041C223.769 528.041 223.548 527.998 223.337 527.923C220.665 526.951 217.682 523.372 213.885 504.472C187.035 516.737 170.571 523.19 142.687 533.735C142.466 533.82 142.245 533.863 142.014 533.863C141.632 533.863 141.261 533.746 140.929 533.521C140.407 533.169 140.065 532.571 140.015 531.908C139.221 522.41 139.031 516.406 140.015 505.915C140.055 505.455 140.236 505.028 140.537 504.686C149.397 494.398 166.383 481.727 187.879 465.691C193.624 461.396 199.561 456.973 205.849 452.219C204.875 445.178 203.84 437.785 202.795 430.851C197.472 395.681 193.202 323.854 193.162 323.138C193.162 323.096 193.162 323.053 193.162 323.01V287.743L192.941 286.547C192.489 284.068 192.158 282.295 191.736 279.218C186.934 279.261 181.299 279.293 174.921 279.303C174.71 281.771 174.489 283.908 174.258 285.671C173.715 289.816 171.696 290.254 170.853 290.254C170.009 290.254 168 289.805 167.447 285.671C167.216 283.908 166.995 281.782 166.785 279.303C152.531 279.303 139.653 279.218 137.303 279.207L128.835 282.669C128.554 286.707 128.232 290.062 127.891 292.647C127.348 296.793 125.329 297.231 124.486 297.231C123.642 297.231 121.633 296.782 121.08 292.647C120.839 290.852 120.618 288.662 120.407 286.12L95.9985 296.109C95.7273 299.869 95.426 303.01 95.1045 305.446C94.5621 309.592 92.5431 310.03 91.6993 310.03C90.8556 310.03 88.8466 309.581 88.2941 305.446C88.0731 303.79 87.8622 301.803 87.6713 299.517L64.3271 309.068C64.0559 312.754 63.7546 315.842 63.4432 318.245C62.9008 322.391 60.8817 322.829 60.038 322.829C59.1942 322.829 57.1852 322.38 56.6328 318.245C56.4218 316.632 56.2109 314.688 56.02 312.465L40.9729 318.619L4.8516 334.88C4.60048 334.997 4.32927 335.051 4.06811 335.051C3.67636 335.051 3.29465 334.933 2.96317 334.698C2.40066 334.303 2.05914 333.63 2.05914 332.914V320.703C1.72766 310.863 2.97322 305.254 10.9689 300.254L136.981 220.03C135.947 214.624 135.455 210.778 134.772 205.201C133.044 204.357 131.587 202.466 131.587 200.704L131.005 172.253C131.005 171.185 131.005 170.234 130.985 169.315C130.924 162.103 130.884 157.349 135.414 154.133C135.716 153.92 136.057 153.802 136.409 153.781C140.728 153.514 144.123 153.396 147.408 153.396C150.693 153.396 153.987 153.503 158.929 153.781C159.291 153.802 159.643 153.92 159.944 154.133C164.474 157.339 164.434 162.103 164.374 169.315C164.374 170.223 164.354 171.185 164.354 172.2L163.771 200.746C163.771 201.825 163.199 202.969 162.345 203.887L184.343 189.881C189.074 185.169 190.631 182.317 193.162 177.114V115.373C193.192 113.503 193.936 70.1918 201.731 43.2048C204.754 32.7348 206.803 26.9443 210.861 17.361C214.498 8.79271 220.906 2.14746 224 2.14746C227.094 2.14746 233.502 8.79271 237.139 17.361C241.197 26.9443 243.246 32.7348 246.269 43.2048C254.064 70.1918 254.807 113.503 254.838 115.33V177.103C257.369 182.296 258.936 185.159 263.657 189.87L285.665 203.887C284.801 202.969 284.229 201.804 284.229 200.693L283.646 172.242C283.646 171.185 283.646 170.223 283.626 169.315C283.566 162.103 283.526 157.339 288.056 154.133C288.357 153.92 288.709 153.802 289.07 153.781C294.012 153.514 297.347 153.396 300.592 153.396C303.836 153.396 307.272 153.514 311.591 153.781C311.953 153.802 312.294 153.92 312.585 154.133C317.116 157.339 317.075 162.103 317.015 169.315C317.015 170.223 316.995 171.185 316.995 172.2L316.412 200.746C316.412 202.477 314.956 204.357 313.228 205.201C312.545 210.778 312.053 214.635 311.018 220.03L437.041 300.265C445.027 305.265 446.272 310.863 445.931 320.788V332.925C445.931 333.641 445.599 334.314 445.037 334.709C444.705 334.944 444.313 335.061 443.932 335.061C443.671 335.061 443.399 335.008 443.148 334.891L406.967 318.609L391.98 312.476C391.789 314.72 391.578 316.653 391.367 318.256C390.825 322.391 388.806 322.839 387.962 322.839C387.118 322.839 385.099 322.391 384.557 318.256C384.235 315.842 383.944 312.754 383.673 309.079L360.329 299.528C360.128 301.803 359.927 303.79 359.706 305.457C359.163 309.602 357.144 310.04 356.301 310.04C355.457 310.04 353.448 309.592 352.895 305.457C352.574 303.032 352.273 299.901 352.001 296.119L327.592 286.13C327.381 288.673 327.15 290.852 326.919 292.658C326.377 296.803 324.358 297.241 323.514 297.241C322.67 297.241 320.661 296.793 320.109 292.658C319.767 290.083 319.456 286.739 319.165 282.679L310.697 279.218C308.346 279.229 295.469 279.303 281.215 279.314C281.004 281.793 280.783 283.929 280.552 285.681C280.01 289.827 277.991 290.265 277.147 290.265C276.303 290.265 274.294 289.816 273.742 285.681C273.511 283.929 273.29 281.793 273.079 279.314C266.058 279.303 259.93 279.271 254.838 279.218V323.021C254.838 323.021 254.838 323.106 254.838 323.149C254.797 323.865 250.528 395.691 245.205 430.862C244.16 437.764 243.125 445.167 242.151 452.219C248.439 456.973 254.376 461.407 260.131 465.691C281.627 481.727 298.603 494.387 307.463 504.686C307.754 505.028 307.935 505.455 307.985 505.915C308.969 516.417 308.778 522.421 307.985 531.908C307.935 532.571 307.593 533.158 307.071 533.521C306.739 533.746 306.368 533.863 305.986 533.863Z" fill="white"/>
<path d="M224 4.27347C225.657 4.27347 231.614 9.51915 235.31 18.237C239.449 27.9805 241.418 33.6322 244.361 43.8244C252.166 70.8328 252.839 115.362 252.839 115.362V177.616C255.591 183.278 257.258 186.419 262.452 191.58L289.934 209.08C289.713 207.37 289.492 205.565 289.241 203.513C287.976 203.513 286.248 201.847 286.248 200.693L285.665 172.189C285.665 163.471 285.073 158.813 289.181 155.907C293.631 155.661 297.086 155.533 300.602 155.533C303.897 155.533 307.242 155.65 311.491 155.907C315.599 158.813 315.016 163.471 315.016 172.189L314.434 200.693C314.434 201.857 312.696 203.513 311.44 203.513C310.607 210.362 310.104 214.485 308.799 221.077L436.047 302.092C442.817 306.333 444.304 310.606 443.962 320.703V332.914L407.78 316.632L390.242 309.453C390.031 312.337 389.75 315.403 389.418 317.957C389.177 319.794 388.595 320.703 388.002 320.703C387.41 320.703 386.827 319.784 386.586 317.957C386.174 314.837 385.853 310.948 385.622 307.562L358.591 296.504C358.37 299.431 358.099 302.562 357.757 305.158C357.516 306.995 356.933 307.904 356.341 307.904C355.748 307.904 355.166 306.985 354.924 305.158C354.503 301.995 354.181 298.032 353.94 294.602L325.835 283.107C325.614 286.205 325.312 289.592 324.951 292.359C324.71 294.196 324.127 295.104 323.534 295.104C322.942 295.104 322.359 294.186 322.118 292.359C321.676 288.993 321.335 284.731 321.093 281.173L311.089 277.081C311.089 277.081 296.001 277.177 279.397 277.177C279.186 279.976 278.915 282.914 278.594 285.382C278.353 287.22 277.77 288.128 277.177 288.128C276.585 288.128 276.002 287.209 275.761 285.382C275.44 282.925 275.168 279.976 274.947 277.177C267.866 277.177 260.724 277.145 254.546 277.081H252.849V323.032C252.849 323.032 248.61 395.061 243.236 430.541C242.141 437.742 241.076 445.445 239.991 453.223C270.799 476.556 294.866 493.233 305.986 506.15C306.991 516.823 306.749 522.667 305.986 531.737C276.715 520.68 260.543 514.291 232.649 501.492C230.047 515.124 227.234 524.75 224.01 525.915C220.786 524.739 217.973 515.124 215.371 501.492C187.477 514.291 171.295 520.68 142.034 531.737C141.271 522.656 141.03 516.823 142.034 506.15C153.154 493.233 177.221 476.556 208.029 453.223C206.954 445.434 205.879 437.742 204.784 430.541C199.41 395.061 195.171 323.032 195.171 323.032V287.551C194.488 283.79 194.117 281.974 193.474 277.081C187.296 277.145 180.154 277.177 173.073 277.177C172.862 279.976 172.59 282.925 172.259 285.382C172.018 287.209 171.435 288.128 170.843 288.128C170.25 288.128 169.667 287.209 169.426 285.382C169.105 282.925 168.834 279.976 168.623 277.177C152.019 277.177 136.921 277.081 136.921 277.081L126.917 281.173C126.676 284.731 126.334 288.993 125.892 292.359C125.651 294.186 125.068 295.104 124.476 295.104C123.883 295.104 123.3 294.186 123.059 292.359C122.698 289.592 122.396 286.205 122.175 283.107L94.07 294.602C93.8389 298.021 93.5074 301.985 93.0856 305.158C92.8445 306.985 92.2619 307.904 91.6692 307.904C91.0766 307.904 90.494 306.985 90.2529 305.158C89.9114 302.562 89.6301 299.431 89.4091 296.504L62.3785 307.562C62.1474 310.948 61.816 314.837 61.4142 317.957C61.1731 319.784 60.5905 320.703 59.9978 320.703C59.4052 320.703 58.8226 319.784 58.5815 317.957C58.25 315.414 57.9688 312.337 57.7579 309.453L40.2196 316.632L4.03803 332.914V320.703C3.6965 310.606 5.18314 306.333 11.9534 302.092L139.201 221.077C137.896 214.485 137.393 210.351 136.55 203.513C135.294 203.513 133.556 201.847 133.556 200.693L132.974 172.189C132.974 163.471 132.381 158.813 136.489 155.907C140.728 155.65 144.073 155.533 147.378 155.533C150.884 155.533 154.349 155.672 158.799 155.907C162.907 158.813 162.325 163.471 162.325 172.189L161.742 200.693C161.742 201.857 160.004 203.513 158.749 203.513C158.498 205.565 158.277 207.381 158.056 209.08L185.538 191.58C190.731 186.43 192.399 183.278 195.151 177.616V115.362C195.151 115.362 195.834 70.8328 203.629 43.8244C206.572 33.6322 208.541 27.9805 212.679 18.237C216.376 9.52984 222.333 4.27347 223.99 4.27347M223.99 0C219.661 0 212.81 7.54268 209.013 16.4742C204.905 26.1536 202.836 31.9976 199.792 42.5638C191.917 69.8392 191.163 113.439 191.133 115.288C191.133 115.309 191.133 115.33 191.133 115.362V176.58C188.863 181.206 187.336 183.909 183.107 188.15L165.79 199.176L166.343 172.285C166.343 172.285 166.343 172.221 166.343 172.189C166.343 171.185 166.343 170.223 166.363 169.326C166.423 161.986 166.473 156.195 161.039 152.349C160.436 151.922 159.743 151.676 159.02 151.644C154.048 151.377 150.673 151.259 147.398 151.259C144.123 151.259 140.648 151.377 136.288 151.644C135.575 151.687 134.882 151.933 134.29 152.349C128.855 156.195 128.895 161.997 128.966 169.326C128.966 170.223 128.986 171.185 128.986 172.189C128.986 172.221 128.986 172.253 128.986 172.285L129.568 200.768C129.599 202.968 131.005 205.18 132.893 206.515C133.456 211.088 133.918 214.582 134.721 218.973L9.91426 298.416C1.14511 303.908 -0.301343 310.265 0.0502267 320.767V332.903C0.0502267 334.335 0.723231 335.67 1.84825 336.461C2.51121 336.931 3.29471 337.177 4.06816 337.177C4.60054 337.177 5.13292 337.07 5.63516 336.835L41.7564 320.574L54.2823 315.446C54.4029 316.568 54.5134 317.594 54.6439 318.523C55.4475 324.645 59.2746 324.955 60.038 324.955C60.8014 324.955 64.6285 324.645 65.4321 318.523C65.7134 316.376 65.9846 313.705 66.2257 310.564L85.9336 302.498C86.0542 303.683 86.1747 304.763 86.3053 305.724C87.1089 311.846 90.936 312.156 91.6994 312.156C92.4628 312.156 96.2899 311.846 97.0935 305.724C97.3848 303.545 97.656 300.82 97.9071 297.604L118.67 289.111C118.81 290.532 118.951 291.803 119.102 292.936C119.905 299.057 123.732 299.367 124.496 299.367C125.259 299.367 129.086 299.057 129.89 292.936C130.201 290.607 130.483 287.669 130.754 284.175L137.685 281.344C140.678 281.365 152.089 281.429 164.977 281.44C165.137 283.139 165.308 284.656 165.479 285.959C166.282 292.081 170.109 292.391 170.873 292.391C171.636 292.391 175.463 292.081 176.267 285.959C176.438 284.645 176.608 283.128 176.769 281.429C181.681 281.429 186.121 281.397 190.038 281.365C190.36 283.481 190.641 285.03 190.993 286.942L191.173 287.946V323.01C191.173 323.096 191.173 323.192 191.173 323.277C191.214 324.004 195.493 395.926 200.827 431.204C201.811 437.732 202.785 444.622 203.699 451.246C197.793 455.712 192.178 459.889 186.744 463.949C165.147 480.06 148.091 492.784 139.071 503.254C138.488 503.938 138.117 504.804 138.036 505.722C137.042 516.385 137.223 522.485 138.036 532.111C138.147 533.425 138.82 534.611 139.864 535.327C140.517 535.776 141.271 536 142.034 536C142.486 536 142.938 535.914 143.38 535.754C170.531 525.498 186.864 519.098 212.469 507.464C216.034 524.248 219.078 528.628 222.714 529.953C223.136 530.103 223.578 530.177 224.01 530.177C224.442 530.177 224.884 530.103 225.306 529.953C228.952 528.628 231.996 524.237 235.562 507.464C261.166 519.098 277.499 525.498 304.65 535.754C305.092 535.914 305.544 536 305.996 536C306.759 536 307.513 535.776 308.166 535.327C309.21 534.611 309.883 533.425 309.994 532.111C310.797 522.485 310.988 516.385 309.994 505.722C309.904 504.804 309.542 503.938 308.959 503.254C299.949 492.795 282.893 480.071 261.297 463.96C255.852 459.9 250.247 455.712 244.331 451.246C245.265 444.548 246.239 437.614 247.204 431.204C252.547 395.926 256.816 324.004 256.857 323.288C256.857 323.203 256.857 323.106 256.857 323.021V281.365C261.015 281.397 265.847 281.429 271.261 281.44C271.422 283.149 271.592 284.656 271.763 285.97C272.567 292.092 276.394 292.401 277.157 292.401C277.921 292.401 281.738 292.092 282.551 285.97C282.722 284.667 282.893 283.149 283.054 281.44C295.941 281.429 307.352 281.365 310.345 281.344L317.276 284.175C317.538 287.669 317.829 290.607 318.14 292.936C318.944 299.057 322.771 299.367 323.534 299.367C324.298 299.367 328.115 299.057 328.928 292.936C329.079 291.803 329.22 290.521 329.36 289.111L350.123 297.604C350.374 300.831 350.645 303.555 350.937 305.724C351.74 311.846 355.567 312.156 356.331 312.156C357.094 312.156 360.911 311.846 361.725 305.724C361.855 304.752 361.976 303.673 362.097 302.498L381.805 310.553C382.056 313.694 382.317 316.365 382.598 318.512C383.402 324.634 387.229 324.944 387.992 324.944C388.756 324.944 392.583 324.634 393.386 318.512C393.507 317.594 393.627 316.557 393.748 315.435L406.274 320.564L442.395 336.824C442.897 337.049 443.43 337.166 443.962 337.166C444.735 337.166 445.509 336.92 446.182 336.45C447.307 335.66 447.98 334.324 447.98 332.893V320.756C448.332 310.243 446.885 303.897 438.086 298.384L313.299 218.941C314.102 214.55 314.564 211.067 315.127 206.483C317.025 205.148 318.422 202.926 318.452 200.736L319.034 172.253C319.034 172.253 319.034 172.189 319.034 172.157C319.034 171.152 319.034 170.191 319.054 169.294C319.115 161.954 319.165 156.163 313.731 152.317C313.138 151.9 312.445 151.655 311.732 151.612C307.372 151.345 303.947 151.227 300.622 151.227C297.297 151.227 293.972 151.334 289 151.612C288.277 151.655 287.584 151.9 286.981 152.317C281.547 156.163 281.587 161.965 281.657 169.294C281.657 170.191 281.678 171.152 281.678 172.157C281.678 172.189 281.678 172.221 281.678 172.253L282.23 199.144L264.923 188.118C260.694 183.877 259.167 181.174 256.897 176.548V115.33C256.897 115.33 256.897 115.288 256.897 115.255C256.867 113.407 256.113 69.8071 248.238 42.5317C245.185 31.9656 243.115 26.1109 239.017 16.4422C235.18 7.54268 228.329 0 224 0L223.99 0Z" fill="black"/>
</g>
<defs>
<clipPath id="clip0_593_2496">
<rect width="448" height="536" fill="white"/>
</clipPath>
</defs>
</svg>
