<svg width="348" height="314" viewBox="0 0 348 314" fill="none" xmlns="http://www.w3.org/2000/svg">
<g clip-path="url(#clip0_487_17)">
<path d="M171.15 312.108C170.27 312.108 169.5 311.569 169.24 310.775C169.15 310.5 167 303.964 165.88 299.84C165.36 297.93 164.82 295.555 164.26 292.765L111.99 303.775C111.85 303.803 111.7 303.822 111.56 303.822C111.11 303.822 110.67 303.68 110.31 303.406C109.84 303.047 109.56 302.508 109.56 301.931V292.273C109.56 292.16 109.57 292.037 109.59 291.923C110.06 289.587 110.88 288.31 113 286.674C113.07 286.617 113.15 286.57 113.22 286.522L154.82 262.412C155.37 262.024 156.32 261.306 156.74 260.852C157.07 260.502 157.48 259.915 157.8 259.414C157.07 255.545 156.48 252.178 156.05 249.378C154.19 237.489 152.51 219.29 152.49 219.11V169.017H129.09C129.05 169.396 129.02 169.764 128.98 170.095C128.86 171.098 128.55 172.564 128.54 172.621C128.05 174.683 127.11 175.714 125.75 175.714C124.39 175.714 123.44 174.683 122.96 172.659C122.94 172.555 122.63 171.089 122.51 170.095C122.47 169.764 122.43 169.396 122.4 169.017H120.45C120.33 169.67 120.22 170.218 120.21 170.256C119.72 172.318 118.78 173.349 117.42 173.349C116.06 173.349 115.11 172.318 114.63 170.294C114.62 170.237 114.5 169.67 114.38 169.017H111.03L94.64 173.482C94.57 174.333 94.49 175.241 94.4 176.007C94.28 177.01 93.97 178.476 93.96 178.533C93.47 180.604 92.53 181.626 91.17 181.626C89.81 181.626 88.86 180.595 88.38 178.57C88.36 178.466 88.05 177 87.93 176.007C87.9 175.79 87.88 175.572 87.86 175.336L58.45 183.357C58.37 184.406 58.27 185.664 58.15 186.658C58.03 187.66 57.72 189.117 57.71 189.183C57.22 191.255 56.28 192.276 54.92 192.276C53.56 192.276 52.61 191.245 52.13 189.221C52.11 189.117 51.8 187.651 51.68 186.658C51.63 186.223 51.58 185.74 51.53 185.248L6.69999 197.545L6.55999 199.767C6.53999 200.098 6.42999 200.42 6.22999 200.694C5.76999 201.356 5.06999 201.735 4.30999 201.735C3.54999 201.735 2.84999 201.356 2.38999 200.694C2.16999 200.382 2.05999 200.023 2.05999 199.654V196.296C2.05999 196.192 1.82999 191.595 2.51999 188.597C3.28999 185.286 3.92999 183.082 6.23999 180.339C7.46999 178.883 9.65999 177.256 9.90999 177.067C10.01 176.991 10.12 176.925 10.23 176.877L108.17 129.584C107.34 129.47 106.65 128.875 106.49 128.071C106.43 127.768 104.96 120.617 104.58 115.831L104.55 115.481C104.17 110.695 103.94 107.801 104.59 102.844L104.66 102.315C104.9 100.451 105.07 99.108 105.69 97.0366C105.99 96.0434 106.54 94.5962 106.57 94.5395C106.86 93.7923 107.61 93.3004 108.45 93.3004H126.16C126.94 93.3004 127.65 93.7261 127.98 94.3976C128.01 94.4544 128.72 95.911 129.09 96.9325C129.85 98.9756 130.05 100.309 130.33 102.163C130.33 102.163 130.46 103.024 130.48 103.137C130.73 103.317 130.93 103.544 131.08 103.818C131.23 104.102 131.97 105.606 131.91 107.091C131.87 108.132 131.35 109.711 131.19 110.175C131.1 110.421 130.97 110.648 130.79 110.837C130.75 111.641 130.69 112.464 130.62 113.315C130.56 114.091 130.5 114.914 130.45 115.803C130.39 116.701 130.3 117.761 130.18 118.962L148.78 109.976C149.38 109.465 150.6 108.359 151.16 107.555C151.62 106.902 152.09 105.776 152.5 104.367V69.805C152.41 68.6605 151.57 55.6643 152.5 47.0853C152.96 42.8289 153.34 40.4453 154.2 36.4537C155.26 31.4974 155.96 28.6219 157.81 23.5899C159.45 19.1159 162.71 12.7313 163.08 12.0125C163.46 11.1328 165.9 5.73189 169.43 3.51856C170.51 2.83753 171.42 2.41189 172.57 2.05246C172.64 2.03354 172.71 2.01463 172.78 1.99571C173 1.94842 173.29 1.90112 173.63 1.90112C173.91 1.90112 174.18 1.9295 174.5 2.00517C174.56 2.00517 174.62 2.03354 174.68 2.05246C175.82 2.41189 176.73 2.83753 177.82 3.51856C181.35 5.73189 183.79 11.1328 184.17 12.0125C184.54 12.7313 187.79 19.1254 189.44 23.5899C191.29 28.6125 191.99 31.4974 193.05 36.4537C193.91 40.4453 194.29 42.8289 194.75 47.0853C195.68 55.6643 194.84 68.67 194.75 69.805V104.367C195.16 105.767 195.64 106.893 196.1 107.555C196.66 108.359 197.88 109.465 198.48 109.976L217.08 118.962C216.96 117.761 216.87 116.711 216.81 115.803C216.76 114.904 216.7 114.081 216.64 113.306C216.58 112.454 216.52 111.631 216.47 110.827C216.3 110.638 216.16 110.421 216.07 110.165C215.96 109.834 215.39 108.16 215.35 107.082C215.29 105.587 216.03 104.093 216.18 103.809C216.32 103.535 216.53 103.308 216.78 103.128C216.8 103.014 216.93 102.154 216.93 102.154C217.21 100.3 217.42 98.9662 218.17 96.9231C218.55 95.9015 219.25 94.4544 219.28 94.3976C219.61 93.7261 220.32 93.2909 221.1 93.2909H238.81C239.65 93.2909 240.4 93.7828 240.69 94.53C240.71 94.5868 241.27 96.034 241.57 97.0271C242.19 99.0986 242.36 100.442 242.6 102.296L242.67 102.835C243.31 107.791 243.09 110.676 242.71 115.462L242.68 115.822C242.3 120.608 240.84 127.758 240.77 128.061C240.6 128.865 239.92 129.461 239.09 129.574L337.03 176.868C337.14 176.925 337.25 176.981 337.35 177.057C337.6 177.237 339.79 178.873 341.02 180.33C343.34 183.082 343.97 185.286 344.74 188.587C345.44 191.586 345.21 196.183 345.2 196.381V199.644C345.2 200.013 345.09 200.373 344.87 200.685C344.41 201.347 343.71 201.725 342.95 201.725C342.19 201.725 341.49 201.347 341.03 200.685C340.84 200.411 340.72 200.089 340.7 199.758L340.56 197.535L295.73 185.239C295.69 185.731 295.64 186.213 295.59 186.648C295.47 187.651 295.16 189.117 295.15 189.174C294.66 191.245 293.72 192.267 292.36 192.267C291 192.267 290.06 191.236 289.57 189.211C289.55 189.107 289.24 187.641 289.12 186.648C289 185.674 288.9 184.454 288.82 183.347L259.41 175.326C259.39 175.563 259.36 175.79 259.34 175.998C259.22 177 258.91 178.466 258.9 178.523C258.41 180.585 257.48 181.616 256.11 181.616C254.74 181.616 253.8 180.585 253.32 178.561C253.3 178.457 252.99 176.991 252.87 175.998C252.78 175.232 252.7 174.314 252.63 173.472L236.24 169.008H232.89C232.77 169.66 232.66 170.209 232.65 170.247C232.16 172.318 231.22 173.34 229.86 173.34C228.5 173.34 227.56 172.309 227.07 170.285C227.07 170.228 226.94 169.66 226.82 169.008H224.87C224.83 169.386 224.79 169.755 224.75 170.086C224.63 171.089 224.32 172.545 224.31 172.611C223.82 174.683 222.88 175.704 221.52 175.704C220.16 175.704 219.22 174.673 218.73 172.649C218.71 172.545 218.4 171.079 218.28 170.086C218.24 169.755 218.2 169.386 218.17 169.008H194.77V218.94C194.77 218.997 194.77 219.054 194.77 219.101C194.75 219.281 193.08 237.479 191.21 249.369C190.77 252.14 190.18 255.517 189.46 259.404C189.75 259.868 190.16 260.464 190.51 260.842C190.94 261.287 191.89 262.015 192.44 262.403L234.04 286.513C234.12 286.56 234.19 286.608 234.26 286.664C236.37 288.301 237.2 289.578 237.67 291.914C237.69 292.027 237.71 292.15 237.71 292.264V301.921C237.71 302.498 237.43 303.037 236.96 303.397C236.6 303.671 236.16 303.813 235.71 303.813C235.57 303.813 235.42 303.794 235.28 303.766L183.01 292.756C182.45 295.546 181.91 297.92 181.39 299.831C180.27 303.955 178.12 310.481 178.03 310.765C177.77 311.56 177 312.099 176.12 312.099H171.14L171.15 312.108Z" fill="white"/>
<path d="M173.61 3.79293C173.74 3.79293 173.86 3.81185 174.02 3.84023C175.01 4.15236 175.75 4.50233 176.69 5.09823C179.91 7.12239 182.32 12.7881 182.32 12.7881C182.32 12.7881 185.84 19.6268 187.53 24.2237C189.3 29.0382 190 31.8379 191.07 36.8416C191.92 40.8142 192.29 43.1789 192.74 47.284C193.68 56.0143 192.74 69.7578 192.74 69.7578V104.632C193.1 105.871 193.65 107.517 194.42 108.614C195.34 109.929 197.34 111.575 197.34 111.575L219.47 122.263C219.21 120.173 218.93 117.694 218.81 115.718C218.66 113.353 218.48 111.471 218.42 109.607H217.98C217.98 109.607 217.39 107.905 217.36 107.044C217.32 105.956 217.98 104.679 217.98 104.679L218.62 104.528C218.67 104.074 218.74 103.601 218.81 103.1C219.15 100.924 219.29 99.6662 220.06 97.5853C220.41 96.6394 221.1 95.2206 221.1 95.2206H238.81C238.81 95.2206 239.36 96.6488 239.64 97.5853C240.27 99.6945 240.4 100.934 240.68 103.1C241.32 107.99 241.07 110.799 240.68 115.718C240.31 120.447 238.8 127.74 238.8 127.74H236.09V130.293L336.11 178.589C336.11 178.589 338.33 180.226 339.44 181.541C341.53 184.019 342.05 185.929 342.77 189.032C343.42 191.813 343.19 196.324 343.19 196.324V199.682C343.19 199.682 343.06 199.871 342.94 199.871C342.82 199.871 342.69 199.682 342.69 199.682L342.47 196.126L293.92 182.808C293.84 183.886 293.73 185.362 293.6 186.469C293.49 187.395 293.18 188.833 293.18 188.833C293.18 188.833 292.81 190.413 292.35 190.413C291.89 190.413 291.52 188.833 291.52 188.833C291.52 188.833 291.21 187.395 291.1 186.469C290.93 185.012 290.78 182.94 290.72 181.928L257.61 172.905C257.54 173.86 257.45 174.948 257.34 175.818C257.23 176.745 256.92 178.183 256.92 178.183C256.92 178.183 256.55 179.762 256.09 179.762C255.63 179.762 255.26 178.183 255.26 178.183C255.26 178.183 254.96 176.745 254.84 175.818C254.7 174.674 254.59 173.141 254.51 172.053L236.5 167.144H231.13C231.13 167.277 231.1 167.409 231.09 167.542C230.98 168.469 230.67 169.906 230.67 169.906C230.67 169.906 230.3 171.486 229.84 171.486C229.38 171.486 229.01 169.906 229.01 169.906C229.01 169.906 228.7 168.469 228.59 167.542C228.57 167.419 228.56 167.286 228.55 167.144H223.02C222.95 168.062 222.86 169.083 222.76 169.906C222.65 170.833 222.34 172.271 222.34 172.271C222.34 172.271 221.97 173.851 221.51 173.851C221.05 173.851 220.68 172.271 220.68 172.271C220.68 172.271 220.37 170.833 220.26 169.906C220.16 169.083 220.07 168.062 220 167.144H192.75V218.969C192.75 218.969 191.08 237.148 189.21 249.123C188.71 252.329 188.04 256.037 187.34 259.773C187.4 259.877 188.22 261.306 189 262.129C189.75 262.914 191.29 263.992 191.29 263.992L232.97 288.149C234.75 289.53 235.31 290.438 235.68 292.292V301.95L181.39 290.514C180.82 293.522 180.14 296.747 179.42 299.386C178.3 303.51 176.09 310.226 176.09 310.226H171.17C171.17 310.226 168.96 303.51 167.84 299.386C167.12 296.747 166.44 293.522 165.87 290.514L111.58 301.95V292.292C111.95 290.448 112.51 289.54 114.29 288.149L155.96 263.992C155.96 263.992 157.5 262.914 158.25 262.129C159.03 261.306 159.85 259.877 159.91 259.773C159.2 256.037 158.54 252.329 158.04 249.123C156.16 237.148 154.5 218.969 154.5 218.969V167.144H127.25C127.18 168.062 127.09 169.083 126.99 169.906C126.88 170.833 126.57 172.271 126.57 172.271C126.57 172.271 126.2 173.851 125.74 173.851C125.28 173.851 124.91 172.271 124.91 172.271C124.91 172.271 124.61 170.833 124.49 169.906C124.39 169.083 124.3 168.062 124.23 167.144H118.7C118.69 167.277 118.67 167.409 118.66 167.542C118.55 168.469 118.24 169.906 118.24 169.906C118.24 169.906 117.87 171.486 117.41 171.486C116.95 171.486 116.58 169.906 116.58 169.906C116.58 169.906 116.27 168.469 116.16 167.542C116.14 167.419 116.13 167.286 116.12 167.144H110.75L92.74 172.053C92.67 173.141 92.55 174.664 92.41 175.818C92.3 176.745 91.99 178.183 91.99 178.183C91.99 178.183 91.62 179.762 91.16 179.762C90.7 179.762 90.33 178.183 90.33 178.183C90.33 178.183 90.02 176.745 89.91 175.818C89.81 174.948 89.71 173.851 89.64 172.905L56.53 181.928C56.47 182.931 56.32 185.002 56.15 186.469C56.04 187.395 55.73 188.833 55.73 188.833C55.73 188.833 55.36 190.413 54.9 190.413C54.44 190.413 54.07 188.833 54.07 188.833C54.07 188.833 53.76 187.395 53.65 186.469C53.52 185.352 53.4 183.886 53.33 182.808L4.78002 196.126L4.56002 199.682C4.56002 199.682 4.43002 199.871 4.31002 199.871C4.19002 199.871 4.06002 199.682 4.06002 199.682V196.324C4.06002 196.324 3.83002 191.813 4.48002 189.032C5.20002 185.929 5.72002 184.028 7.81002 181.541C8.92002 180.216 11.14 178.589 11.14 178.589L111.16 130.293V127.74H108.45C108.45 127.74 106.95 120.447 106.57 115.718C106.18 110.809 105.93 107.99 106.57 103.1C106.85 100.924 106.98 99.6851 107.61 97.5853C107.89 96.6488 108.44 95.2206 108.44 95.2206H126.15C126.15 95.2206 126.84 96.6394 127.19 97.5853C127.96 99.6662 128.1 100.924 128.44 103.1C128.52 103.592 128.58 104.064 128.63 104.528L129.27 104.679C129.27 104.679 129.94 105.956 129.89 107.044C129.86 107.905 129.27 109.607 129.27 109.607H128.83C128.77 111.471 128.58 113.353 128.44 115.718C128.32 117.694 128.04 120.173 127.77 122.263L149.9 111.575C149.9 111.575 151.9 109.938 152.82 108.614C153.58 107.517 154.14 105.881 154.49 104.632V69.7578C154.49 69.7578 153.54 56.0143 154.48 47.284C154.92 43.1789 155.3 40.8048 156.15 36.8416C157.22 31.8474 157.92 29.0382 159.69 24.2237C161.38 19.6362 164.9 12.7881 164.9 12.7881C164.9 12.7881 167.31 7.12239 170.53 5.09823C171.47 4.51179 172.2 4.16182 173.2 3.84023C173.37 3.80239 173.5 3.79293 173.63 3.79293M173.63 0C173.09 0 172.65 0.0756695 172.36 0.132422C172.21 0.160798 172.07 0.198632 171.93 0.245926C170.61 0.662108 169.56 1.15396 168.32 1.93903C164.41 4.39829 161.85 9.85595 161.25 11.2369C160.76 12.2017 157.56 18.4917 155.92 22.9657C154.11 27.8747 153.35 30.8448 152.24 36.0754C151.38 40.0859 150.98 42.6114 150.51 46.8867C149.58 55.4752 150.39 68.3579 150.49 69.8619V104.112C150.03 105.682 149.62 106.344 149.49 106.514C149.14 107.016 148.28 107.838 147.63 108.406L132.46 115.736C132.51 114.923 132.57 114.166 132.62 113.447C132.67 112.776 132.72 112.114 132.76 111.471C132.89 111.253 133.01 111.017 133.09 110.761C133.32 110.099 133.86 108.415 133.91 107.157C133.99 105.256 133.14 103.478 132.87 102.967C132.73 102.702 132.56 102.456 132.37 102.229L132.32 101.88C132.03 99.9972 131.81 98.5122 130.98 96.2989C130.58 95.2206 129.88 93.764 129.8 93.6032C129.15 92.26 127.73 91.3993 126.17 91.3993H108.46C106.78 91.3993 105.28 92.3924 104.7 93.8869C104.64 94.0477 104.09 95.476 103.78 96.5164C103.12 98.7203 102.94 100.13 102.68 102.078L102.61 102.608C101.94 107.753 102.19 110.875 102.56 115.614L102.59 115.963C102.98 120.863 104.46 128.118 104.53 128.43C104.58 128.667 104.65 128.894 104.74 129.111L9.30002 175.203C9.07002 175.317 8.86002 175.44 8.66002 175.591C8.39002 175.79 6.02002 177.549 4.66002 179.176C2.08002 182.24 1.36002 184.747 0.550016 188.209C-0.159984 191.245 1.60076e-05 195.568 0.040016 196.4V199.673C0.040016 200.411 0.270016 201.139 0.700016 201.754C1.53002 202.936 2.87002 203.646 4.29002 203.646C5.71002 203.646 7.05002 202.936 7.88002 201.754C8.27002 201.196 8.49002 200.562 8.53002 199.89L8.59002 199.001L49.78 187.698C49.92 188.568 50.11 189.439 50.13 189.562C50.13 189.59 50.13 189.618 50.15 189.637C51.08 193.581 53.52 194.168 54.89 194.168C56.26 194.168 58.69 193.581 59.63 189.637C59.63 189.609 59.63 189.58 59.65 189.562C59.68 189.401 59.99 187.935 60.12 186.875C60.19 186.251 60.26 185.532 60.32 184.813L86.17 177.767C86.28 178.353 86.38 178.826 86.4 178.911C86.4 178.939 86.41 178.968 86.42 178.987C87.35 182.931 89.79 183.517 91.16 183.517C92.53 183.517 94.96 182.931 95.9 178.987C95.9 178.958 95.91 178.93 95.92 178.911C95.95 178.75 96.26 177.284 96.39 176.225C96.44 175.828 96.48 175.392 96.52 174.948L111.31 170.918H112.73C113.7 174.683 116.07 175.251 117.42 175.251C118.4 175.251 119.94 174.948 121.07 173.302C122.04 177.048 124.41 177.615 125.75 177.615C127.09 177.615 129.55 177.029 130.49 173.085C130.49 173.056 130.49 173.037 130.51 173.009C130.54 172.876 130.75 171.864 130.9 170.918H150.51V218.959C150.51 219.073 150.51 219.177 150.51 219.29C150.58 220.037 152.21 237.725 154.08 249.671C154.49 252.301 155.04 255.441 155.71 259.036C155.55 259.263 155.39 259.461 155.27 259.594C155.01 259.868 154.28 260.435 153.71 260.852L112.19 284.915C112.03 285.009 111.89 285.104 111.74 285.217C109.26 287.137 108.19 288.802 107.64 291.583C107.59 291.81 107.57 292.046 107.57 292.283V301.94C107.57 303.085 108.12 304.172 109.07 304.891C109.79 305.43 110.67 305.724 111.57 305.724C111.86 305.724 112.15 305.695 112.44 305.629L162.7 295.045C163.13 297.059 163.55 298.828 163.96 300.323C165.1 304.494 167.26 311.068 167.35 311.342C167.87 312.922 169.42 314 171.17 314H176.09C177.84 314 179.39 312.922 179.91 311.342C180 311.068 182.16 304.494 183.3 300.323C183.71 298.828 184.13 297.069 184.56 295.045L234.82 305.629C235.11 305.686 235.4 305.724 235.69 305.724C236.59 305.724 237.48 305.44 238.19 304.891C239.14 304.172 239.69 303.085 239.69 301.94V292.283C239.69 292.046 239.67 291.81 239.62 291.583C239.07 288.802 237.99 287.137 235.52 285.217C235.38 285.104 235.23 285.009 235.07 284.915L193.55 260.852C192.98 260.445 192.25 259.868 191.99 259.594C191.87 259.461 191.71 259.263 191.55 259.036C192.22 255.441 192.77 252.292 193.18 249.671C195.05 237.716 196.68 220.037 196.75 219.29C196.75 219.186 196.75 219.073 196.75 218.959V170.918H216.36C216.51 171.864 216.72 172.876 216.75 173.009C216.75 173.037 216.75 173.056 216.77 173.085C217.7 177.029 220.14 177.615 221.51 177.615C222.88 177.615 225.22 177.048 226.19 173.302C227.32 174.938 228.86 175.251 229.84 175.251C231.19 175.251 233.56 174.683 234.53 170.918H235.94L250.73 174.948C250.77 175.392 250.82 175.828 250.86 176.225C250.99 177.284 251.3 178.75 251.33 178.911C251.33 178.939 251.33 178.968 251.35 178.996C252.28 182.94 254.72 183.527 256.09 183.527C257.46 183.527 259.89 182.94 260.83 178.996C260.83 178.968 260.84 178.949 260.85 178.921C260.87 178.835 260.97 178.353 261.08 177.767L286.93 184.813C286.99 185.523 287.06 186.242 287.13 186.875C287.26 187.935 287.57 189.401 287.6 189.562C287.6 189.59 287.61 189.618 287.62 189.637C288.55 193.581 290.99 194.168 292.36 194.168C293.73 194.168 296.16 193.581 297.1 189.637C297.1 189.609 297.11 189.58 297.12 189.562C297.15 189.439 297.33 188.568 297.47 187.698L338.66 199.001L338.72 199.89C338.76 200.553 338.99 201.196 339.38 201.754C340.21 202.936 341.55 203.636 342.97 203.636C344.39 203.636 345.74 202.927 346.56 201.735C346.99 201.12 347.22 200.401 347.22 199.663V196.391C347.26 195.549 347.42 191.236 346.71 188.199C345.9 184.728 345.18 182.231 342.6 179.166C341.23 177.54 338.86 175.78 338.6 175.582C338.4 175.43 338.19 175.307 337.96 175.194L242.54 129.121C242.63 128.903 242.7 128.676 242.75 128.439C242.81 128.137 244.3 120.873 244.69 115.973L244.72 115.623C245.09 110.884 245.34 107.763 244.67 102.617L244.6 102.088C244.35 100.139 244.17 98.7392 243.5 96.5259C243.19 95.4854 242.64 94.0572 242.58 93.8964C242 92.4019 240.5 91.4087 238.82 91.4087H221.11C219.55 91.4087 218.13 92.2695 217.48 93.6126C217.4 93.7734 216.7 95.2206 216.3 96.2989C215.48 98.5122 215.25 99.9972 214.96 101.88L214.91 102.229C214.71 102.456 214.54 102.702 214.41 102.967C214.15 103.469 213.3 105.256 213.37 107.157C213.42 108.415 213.96 110.09 214.19 110.752C214.28 110.998 214.39 111.234 214.52 111.461C214.56 112.104 214.61 112.766 214.66 113.438C214.71 114.157 214.77 114.914 214.82 115.727L199.64 108.397C198.99 107.829 198.13 106.997 197.78 106.505C197.66 106.325 197.25 105.663 196.78 104.102V69.8524C196.87 68.3485 197.68 55.4752 196.75 46.8773C196.29 42.6019 195.88 40.0765 195.02 36.066C193.9 30.8353 193.14 27.8558 191.34 22.9562C189.69 18.4823 186.5 12.1922 186.01 11.2275C185.41 9.84649 182.85 4.38883 178.94 1.92957C177.7 1.15396 176.66 0.662108 175.33 0.245926C175.21 0.208091 175.09 0.179715 174.97 0.151339C174.5 0.0472934 174.08 0 173.65 0H173.61L173.63 0Z" fill="black"/>
</g>
<defs>
<clipPath id="clip0_487_17">
<rect width="347.29" height="314" fill="white"/>
</clipPath>
</defs>
</svg>
