<svg width="348" height="338" viewBox="0 0 348 338" fill="none" xmlns="http://www.w3.org/2000/svg">
<path d="M171.41 336.063C170.53 336.063 169.76 335.511 169.5 334.697C169.41 334.416 167.26 327.724 166.14 323.501C165.62 321.545 165.08 319.114 164.52 316.256L112.25 327.53C112.11 327.559 111.96 327.579 111.82 327.579C111.37 327.579 110.93 327.433 110.57 327.152C110.1 326.784 109.82 326.232 109.82 325.641V315.753C109.82 315.637 109.83 315.511 109.85 315.394C110.32 313.002 111.14 311.695 113.26 310.019C113.33 309.961 113.41 309.912 113.48 309.864L155.08 285.176C155.63 284.779 156.58 284.043 157 283.578C157.33 283.22 157.74 282.619 158.06 282.106C157.33 278.144 156.74 274.696 156.31 271.83C154.45 259.655 152.77 241.02 152.75 240.836V240.672L152.78 176.952H129.38C129.34 177.339 129.31 177.717 129.27 178.056C129.15 179.082 128.84 180.584 128.83 180.642C128.34 182.753 127.4 183.809 126.04 183.809C124.68 183.809 123.73 182.753 123.25 180.681C123.23 180.574 122.92 179.073 122.8 178.056C122.76 177.717 122.72 177.339 122.69 176.952H120.74C120.62 177.62 120.51 178.182 120.5 178.22C120.01 180.332 119.07 181.388 117.71 181.388C116.35 181.388 115.4 180.332 114.92 178.259C114.91 178.201 114.79 177.62 114.67 176.952H111.32L94.93 181.523C94.86 182.395 94.78 183.325 94.69 184.109C94.57 185.136 94.26 186.637 94.25 186.695C93.76 188.816 92.82 189.862 91.46 189.862C90.1 189.862 89.15 188.807 88.67 186.734C88.65 186.627 88.34 185.126 88.22 184.109C88.19 183.886 88.17 183.664 88.15 183.422L58.74 191.635C58.66 192.71 58.56 193.998 58.44 195.015C58.32 196.042 58.01 197.533 58 197.601C57.51 199.722 56.57 200.768 55.21 200.768C53.85 200.768 52.9 199.712 52.42 197.64C52.4 197.533 52.09 196.032 51.97 195.015C51.92 194.569 51.87 194.075 51.82 193.572L6.99003 206.163L6.85003 208.439C6.83003 208.778 6.72003 209.107 6.52003 209.388C6.06003 210.066 5.36003 210.453 4.60003 210.453C3.84003 210.453 3.14003 210.066 2.68003 209.388C2.46003 209.068 2.35003 208.7 2.35003 208.323V204.884C2.35003 204.778 2.12003 200.071 2.81003 197C3.58003 193.611 4.22003 191.354 6.53003 188.545C7.76003 187.054 9.95003 185.388 10.2 185.194C10.3 185.116 10.41 185.049 10.52 185L108.46 136.573C107.63 136.457 106.94 135.847 106.78 135.024C106.72 134.714 105.25 127.392 104.87 122.491L104.84 122.133C104.46 117.232 104.23 114.268 104.88 109.193L104.95 108.65C105.19 106.742 105.36 105.367 105.98 103.246C106.28 102.229 106.83 100.747 106.86 100.689C107.15 99.924 107.9 99.4203 108.74 99.4203H126.45C127.23 99.4203 127.94 99.8562 128.27 100.544C128.3 100.602 129.01 102.093 129.38 103.14C130.14 105.232 130.34 106.597 130.62 108.496C130.62 108.496 130.75 109.377 130.77 109.493C131.02 109.677 131.22 109.91 131.37 110.19C131.52 110.481 132.26 112.021 132.2 113.542C132.16 114.607 131.64 116.224 131.48 116.699C131.39 116.951 131.26 117.183 131.08 117.377C131.04 118.2 130.98 119.043 130.91 119.915C130.85 120.709 130.79 121.551 130.74 122.462C130.68 123.382 130.59 124.467 130.47 125.697L149.07 116.496C149.67 115.973 150.89 114.839 151.45 114.016C151.91 113.348 152.38 112.195 152.79 110.752V71.478C152.7 70.3061 151.86 56.9984 152.79 48.2138C153.25 43.8554 153.63 41.4147 154.49 37.3274C155.55 32.2523 156.25 29.3079 158.1 24.1553C159.74 19.5741 163 13.0365 163.37 12.3004C163.75 11.3997 166.19 5.86935 169.72 3.60298C170.8 2.90563 171.71 2.46979 172.86 2.10174C172.93 2.08237 173 2.063 173.07 2.04363C173.29 1.9952 173.58 1.94678 173.92 1.94678C174.2 1.94678 174.47 1.97583 174.79 2.05332C174.85 2.05332 174.91 2.08237 174.97 2.10174C176.11 2.46979 177.02 2.90563 178.11 3.60298C181.64 5.86935 184.08 11.3997 184.46 12.3004C184.83 13.0365 188.08 19.5838 189.73 24.1553C191.58 29.2983 192.28 32.2523 193.34 37.3274C194.2 41.4147 194.58 43.8554 195.04 48.2138C195.97 56.9984 195.13 70.3158 195.04 71.478V110.752C195.45 112.186 195.93 113.338 196.39 114.016C196.95 114.839 198.17 115.973 198.77 116.496L217.37 125.697C217.25 124.467 217.16 123.392 217.1 122.462C217.05 121.542 216.99 120.699 216.93 119.905C216.87 119.033 216.81 118.191 216.76 117.367C216.59 117.174 216.45 116.951 216.36 116.689C216.25 116.35 215.68 114.636 215.64 113.532C215.58 112.002 216.32 110.471 216.47 110.181C216.61 109.9 216.82 109.667 217.07 109.483C217.09 109.367 217.22 108.486 217.22 108.486C217.5 106.588 217.71 105.222 218.46 103.13C218.84 102.084 219.54 100.602 219.57 100.544C219.9 99.8562 220.61 99.4106 221.39 99.4106H239.1C239.94 99.4106 240.69 99.9143 240.98 100.679C241 100.738 241.56 102.219 241.86 103.236C242.48 105.357 242.65 106.733 242.89 108.631L242.96 109.183C243.6 114.258 243.38 117.212 243 122.113L242.97 122.481C242.59 127.382 241.13 134.704 241.06 135.014C240.89 135.837 240.21 136.447 239.38 136.564L337.32 184.991C337.43 185.049 337.54 185.107 337.64 185.184C337.89 185.368 340.08 187.044 341.31 188.535C343.63 191.354 344.26 193.611 345.03 196.991C345.73 200.061 345.5 204.768 345.49 204.971V208.313C345.49 208.691 345.38 209.059 345.16 209.378C344.7 210.056 344 210.444 343.24 210.444C342.48 210.444 341.78 210.056 341.32 209.378C341.13 209.097 341.01 208.768 340.99 208.429L340.85 206.153L296.02 193.562C295.98 194.066 295.93 194.56 295.88 195.005C295.76 196.032 295.45 197.533 295.44 197.591C294.95 199.712 294.01 200.758 292.65 200.758C291.29 200.758 290.35 199.703 289.86 197.63C289.84 197.523 289.53 196.022 289.41 195.005C289.29 194.008 289.19 192.758 289.11 191.625L259.7 183.412C259.68 183.654 259.65 183.886 259.63 184.1C259.51 185.126 259.2 186.627 259.19 186.686C258.7 188.797 257.77 189.853 256.4 189.853C255.03 189.853 254.09 188.797 253.61 186.724C253.59 186.618 253.28 185.116 253.16 184.1C253.07 183.315 252.99 182.376 252.92 181.514L236.53 176.942H233.18C233.06 177.61 232.95 178.172 232.94 178.211C232.45 180.332 231.51 181.378 230.15 181.378C228.79 181.378 227.85 180.322 227.36 178.25C227.36 178.191 227.23 177.61 227.11 176.942H225.16C225.12 177.329 225.08 177.707 225.04 178.046C224.92 179.073 224.61 180.564 224.6 180.632C224.11 182.753 223.17 183.799 221.81 183.799C220.45 183.799 219.51 182.744 219.02 180.671C219 180.564 218.69 179.063 218.57 178.046C218.53 177.707 218.49 177.329 218.46 176.942H195.06L195.03 240.662V240.827C195.01 241.011 193.34 259.645 191.47 271.82C191.03 274.658 190.44 278.115 189.72 282.096C190.01 282.571 190.42 283.181 190.77 283.568C191.2 284.023 192.15 284.769 192.7 285.166L234.3 309.854C234.38 309.903 234.45 309.951 234.52 310.009C236.63 311.685 237.46 312.992 237.93 315.385C237.95 315.501 237.97 315.627 237.97 315.743V325.632C237.97 326.223 237.69 326.775 237.22 327.143C236.86 327.424 236.42 327.569 235.97 327.569C235.83 327.569 235.68 327.549 235.54 327.52L183.27 316.247C182.71 319.104 182.17 321.535 181.65 323.491C180.53 327.714 178.38 334.397 178.29 334.688C178.03 335.501 177.26 336.053 176.38 336.053H171.4L171.41 336.063Z" fill="white"/>
<path d="M173.9 3.88383C174.03 3.88383 174.15 3.9032 174.31 3.93226C175.3 4.25188 176.04 4.61024 176.98 5.22041C180.2 7.29308 182.61 13.0946 182.61 13.0946C182.61 13.0946 186.13 20.0971 187.82 24.8042C189.59 29.7341 190.29 32.601 191.36 37.7245C192.21 41.7924 192.58 44.2137 193.03 48.4172C193.97 57.3568 193.03 71.4296 193.03 71.4296V111.023C193.39 112.292 193.94 113.977 194.71 115.101C195.63 116.447 197.63 118.132 197.63 118.132L219.76 129.077C219.5 126.936 219.22 124.399 219.1 122.375C218.95 119.953 218.77 118.026 218.71 116.118H218.27C218.27 116.118 217.68 114.375 217.65 113.493C217.61 112.379 218.27 111.072 218.27 111.072L218.91 110.917C218.96 110.452 219.03 109.968 219.1 109.454C219.44 107.227 219.58 105.939 220.35 103.808C220.7 102.839 221.39 101.386 221.39 101.386H239.1C239.1 101.386 239.65 102.849 239.93 103.808C240.56 105.968 240.69 107.236 240.97 109.454C241.61 114.462 241.36 117.338 240.97 122.375C240.6 127.217 239.09 134.685 239.09 134.685H236.38V137.3L336.4 186.753C336.4 186.753 338.62 188.429 339.73 189.775C341.82 192.313 342.34 194.269 343.06 197.446C343.71 200.293 343.48 204.913 343.48 204.913V208.352C343.48 208.352 343.35 208.545 343.23 208.545C343.11 208.545 342.98 208.352 342.98 208.352L342.76 204.71L294.21 191.073C294.13 192.177 294.02 193.688 293.89 194.821C293.78 195.77 293.47 197.243 293.47 197.243C293.47 197.243 293.1 198.86 292.64 198.86C292.18 198.86 291.81 197.243 291.81 197.243C291.81 197.243 291.5 195.77 291.39 194.821C291.22 193.33 291.07 191.209 291.01 190.172L257.9 180.932C257.83 181.911 257.74 183.024 257.63 183.915C257.52 184.865 257.21 186.337 257.21 186.337C257.21 186.337 256.84 187.954 256.38 187.954C255.92 187.954 255.55 186.337 255.55 186.337C255.55 186.337 255.25 184.865 255.13 183.915C254.99 182.744 254.88 181.175 254.8 180.061L236.79 175.034H231.42C231.42 175.17 231.39 175.305 231.38 175.441C231.27 176.39 230.96 177.862 230.96 177.862C230.96 177.862 230.59 179.48 230.13 179.48C229.67 179.48 229.3 177.862 229.3 177.862C229.3 177.862 228.99 176.39 228.88 175.441C228.86 175.315 228.85 175.179 228.84 175.034H223.31C223.24 175.973 223.15 177.019 223.05 177.862C222.94 178.811 222.63 180.283 222.63 180.283C222.63 180.283 222.26 181.901 221.8 181.901C221.34 181.901 220.97 180.283 220.97 180.283C220.97 180.283 220.66 178.811 220.55 177.862C220.45 177.019 220.36 175.973 220.29 175.034H193.04L193.01 240.691C193.01 240.691 191.34 259.306 189.47 271.568C188.97 274.851 188.3 278.648 187.6 282.474C187.66 282.58 188.48 284.043 189.26 284.885C190.01 285.689 191.55 286.793 191.55 286.793L233.23 311.53C235.01 312.944 235.57 313.874 235.94 315.772V325.661L181.65 313.951C181.08 317.031 180.4 320.334 179.68 323.036C178.56 327.259 176.35 334.136 176.35 334.136H171.43C171.43 334.136 169.22 327.259 168.1 323.036C167.38 320.334 166.7 317.031 166.13 313.951L111.84 325.661V315.772C112.21 313.883 112.77 312.954 114.55 311.53L156.22 286.793C156.22 286.793 157.76 285.689 158.51 284.885C159.29 284.043 160.11 282.58 160.17 282.474C159.46 278.648 158.8 274.851 158.3 271.568C156.42 259.306 154.76 240.691 154.76 240.691L154.79 175.034H127.54C127.47 175.973 127.38 177.019 127.28 177.862C127.17 178.811 126.86 180.283 126.86 180.283C126.86 180.283 126.49 181.901 126.03 181.901C125.57 181.901 125.2 180.283 125.2 180.283C125.2 180.283 124.9 178.811 124.78 177.862C124.68 177.019 124.59 175.973 124.52 175.034H118.99C118.98 175.17 118.96 175.305 118.95 175.441C118.84 176.39 118.53 177.862 118.53 177.862C118.53 177.862 118.16 179.48 117.7 179.48C117.24 179.48 116.87 177.862 116.87 177.862C116.87 177.862 116.56 176.39 116.45 175.441C116.43 175.315 116.42 175.179 116.41 175.034H111.04L93.0301 180.061C92.9601 181.175 92.8401 182.734 92.7001 183.915C92.5901 184.865 92.2801 186.337 92.2801 186.337C92.2801 186.337 91.9101 187.954 91.4501 187.954C90.9901 187.954 90.6201 186.337 90.6201 186.337C90.6201 186.337 90.3101 184.865 90.2001 183.915C90.1001 183.024 90.0001 181.901 89.9301 180.932L56.8201 190.172C56.7601 191.199 56.6101 193.32 56.4401 194.821C56.3301 195.77 56.0201 197.243 56.0201 197.243C56.0201 197.243 55.6501 198.86 55.1901 198.86C54.7301 198.86 54.3601 197.243 54.3601 197.243C54.3601 197.243 54.0501 195.77 53.9401 194.821C53.8101 193.678 53.6901 192.177 53.6201 191.073L5.07006 204.71L4.85006 208.352C4.85006 208.352 4.72006 208.545 4.60006 208.545C4.48006 208.545 4.35006 208.352 4.35006 208.352V204.913C4.35006 204.913 4.12006 200.293 4.77006 197.446C5.49006 194.269 6.01006 192.322 8.10006 189.775C9.21006 188.419 11.4301 186.753 11.4301 186.753L111.45 137.3V134.685H108.74C108.74 134.685 107.24 127.217 106.86 122.375C106.47 117.348 106.22 114.462 106.86 109.454C107.14 107.227 107.27 105.958 107.9 103.808C108.18 102.849 108.73 101.386 108.73 101.386H126.44C126.44 101.386 127.13 102.839 127.48 103.808C128.25 105.939 128.39 107.227 128.73 109.454C128.81 109.958 128.87 110.442 128.92 110.917L129.56 111.072C129.56 111.072 130.23 112.379 130.18 113.493C130.15 114.375 129.56 116.118 129.56 116.118H129.12C129.06 118.026 128.87 119.953 128.73 122.375C128.61 124.399 128.33 126.936 128.06 129.077L150.19 118.132C150.19 118.132 152.19 116.457 153.11 115.101C153.87 113.977 154.43 112.302 154.78 111.023V71.4296C154.78 71.4296 153.83 57.3568 154.77 48.4172C155.21 44.2137 155.59 41.7827 156.44 37.7245C157.51 32.6106 158.21 29.7341 159.98 24.8042C161.67 20.1068 165.19 13.0946 165.19 13.0946C165.19 13.0946 167.6 7.29308 170.82 5.22041C171.76 4.61992 172.49 4.26156 173.49 3.93226C173.66 3.89352 173.79 3.88383 173.92 3.88383M173.92 0C173.38 0 172.94 0.077483 172.65 0.135595C172.5 0.164651 172.36 0.203393 172.22 0.25182C170.9 0.677976 169.85 1.18161 168.61 1.9855C164.7 4.5037 162.14 10.0922 161.54 11.5062C161.05 12.4941 157.85 18.9349 156.21 23.5161C154.4 28.5428 153.64 31.584 152.53 36.94C151.67 41.0466 151.27 43.6326 150.8 48.0104C149.87 56.8047 150.68 69.9962 150.78 71.5361V110.491C150.32 112.098 149.91 112.776 149.78 112.951C149.43 113.464 148.57 114.307 147.92 114.888L132.75 122.394C132.8 121.561 132.86 120.786 132.91 120.05C132.96 119.362 133.01 118.685 133.05 118.026C133.18 117.803 133.3 117.561 133.38 117.299C133.61 116.622 134.15 114.898 134.2 113.609C134.28 111.663 133.43 109.842 133.16 109.319C133.02 109.048 132.85 108.796 132.66 108.563L132.61 108.205C132.32 106.278 132.1 104.757 131.27 102.491C130.87 101.386 130.17 99.8949 130.09 99.7302C129.44 98.3549 128.02 97.4735 126.46 97.4735H108.75C107.07 97.4735 105.57 98.4905 104.99 100.021C104.93 100.185 104.38 101.648 104.07 102.713C103.41 104.97 103.23 106.413 102.97 108.408L102.9 108.951C102.23 114.22 102.48 117.416 102.85 122.268L102.88 122.626C103.27 127.643 104.75 135.072 104.82 135.392C104.87 135.634 104.94 135.866 105.03 136.089L9.59006 183.286C9.36006 183.402 9.15005 183.528 8.95006 183.683C8.68005 183.886 6.31006 185.688 4.95006 187.354C2.37006 190.492 1.65006 193.058 0.840055 196.603C0.130055 199.712 0.290055 204.139 0.330055 204.991V208.342C0.330055 209.097 0.560055 209.843 0.990055 210.473C1.82006 211.683 3.16006 212.41 4.58006 212.41C6.00006 212.41 7.34006 211.683 8.17006 210.473C8.56006 209.901 8.78006 209.252 8.82006 208.565L8.88006 207.654L50.0701 196.08C50.2101 196.971 50.4001 197.862 50.4201 197.988C50.4201 198.017 50.4201 198.046 50.4401 198.066C51.3701 202.105 53.8101 202.705 55.1801 202.705C56.5501 202.705 58.9801 202.105 59.9201 198.066C59.9201 198.037 59.9201 198.008 59.9401 197.988C59.9701 197.824 60.2801 196.322 60.4101 195.238C60.4801 194.598 60.5501 193.862 60.6101 193.126L86.4601 185.911C86.5701 186.511 86.6701 186.995 86.6901 187.083C86.6901 187.112 86.7001 187.141 86.7101 187.16C87.6401 191.199 90.0801 191.799 91.4501 191.799C92.8201 191.799 95.2501 191.199 96.1901 187.16C96.1901 187.131 96.2001 187.102 96.2101 187.083C96.2401 186.918 96.5501 185.417 96.6801 184.332C96.7301 183.925 96.7701 183.48 96.8101 183.024L111.6 178.898H113.02C113.99 182.753 116.36 183.334 117.71 183.334C118.69 183.334 120.23 183.024 121.36 181.339C122.33 185.175 124.7 185.756 126.04 185.756C127.38 185.756 129.84 185.155 130.78 181.116C130.78 181.087 130.78 181.068 130.8 181.039C130.83 180.903 131.04 179.867 131.19 178.898H150.8L150.77 240.681C150.77 240.798 150.77 240.904 150.77 241.02C150.84 241.786 152.47 259.897 154.34 272.13C154.75 274.822 155.3 278.038 155.97 281.718C155.81 281.951 155.65 282.154 155.53 282.29C155.27 282.571 154.54 283.152 153.97 283.578L112.45 308.217C112.29 308.314 112.15 308.411 112 308.527C109.52 310.494 108.45 312.198 107.9 315.046C107.85 315.278 107.83 315.52 107.83 315.762V325.651C107.83 326.823 108.38 327.937 109.33 328.673C110.05 329.225 110.93 329.525 111.83 329.525C112.12 329.525 112.41 329.496 112.7 329.428L162.96 318.591C163.39 320.654 163.81 322.465 164.22 323.995C165.36 328.266 167.52 334.998 167.61 335.278C168.13 336.896 169.68 338 171.43 338H176.35C178.1 338 179.65 336.896 180.17 335.278C180.26 334.998 182.42 328.266 183.56 323.995C183.97 322.465 184.39 320.663 184.82 318.591L235.08 329.428C235.37 329.487 235.66 329.525 235.95 329.525C236.85 329.525 237.74 329.235 238.45 328.673C239.4 327.937 239.95 326.823 239.95 325.651V315.762C239.95 315.52 239.93 315.278 239.88 315.046C239.33 312.198 238.25 310.494 235.78 308.527C235.64 308.411 235.49 308.314 235.33 308.217L193.81 283.578C193.24 283.161 192.51 282.571 192.25 282.29C192.13 282.154 191.97 281.951 191.81 281.718C192.48 278.038 193.03 274.813 193.44 272.13C195.31 259.887 196.94 241.786 197.01 241.02C197.01 240.914 197.01 240.798 197.01 240.681L197.04 178.898H216.65C216.8 179.867 217.01 180.903 217.04 181.039C217.04 181.068 217.04 181.087 217.06 181.116C217.99 185.155 220.43 185.756 221.8 185.756C223.17 185.756 225.51 185.175 226.48 181.339C227.61 183.015 229.15 183.334 230.13 183.334C231.48 183.334 233.85 182.753 234.82 178.898H236.23L251.02 183.024C251.06 183.48 251.11 183.925 251.15 184.332C251.28 185.417 251.59 186.918 251.62 187.083C251.62 187.112 251.62 187.141 251.64 187.17C252.57 191.209 255.01 191.809 256.38 191.809C257.75 191.809 260.18 191.209 261.12 187.17C261.12 187.141 261.13 187.121 261.14 187.092C261.16 187.005 261.26 186.511 261.37 185.911L287.22 193.126C287.28 193.853 287.35 194.589 287.42 195.238C287.55 196.322 287.86 197.824 287.89 197.988C287.89 198.017 287.9 198.046 287.91 198.066C288.84 202.105 291.28 202.705 292.65 202.705C294.02 202.705 296.45 202.105 297.39 198.066C297.39 198.037 297.4 198.008 297.41 197.988C297.44 197.862 297.62 196.971 297.76 196.08L338.95 207.654L339.01 208.565C339.05 209.243 339.28 209.901 339.67 210.473C340.5 211.683 341.84 212.4 343.26 212.4C344.68 212.4 346.03 211.674 346.85 210.453C347.28 209.824 347.51 209.088 347.51 208.332V204.981C347.55 204.119 347.71 199.703 347 196.594C346.19 193.039 345.47 190.482 342.89 187.344C341.52 185.678 339.15 183.877 338.89 183.673C338.69 183.518 338.48 183.392 338.25 183.276L242.83 136.099C242.92 135.876 242.99 135.644 243.04 135.401C243.1 135.092 244.59 127.653 244.98 122.636L245.01 122.278C245.38 117.425 245.63 114.229 244.96 108.96L244.89 108.418C244.64 106.423 244.46 104.989 243.79 102.723C243.48 101.658 242.93 100.195 242.87 100.03C242.29 98.5002 240.79 97.4832 239.11 97.4832H221.4C219.84 97.4832 218.42 98.3646 217.77 99.7399C217.69 99.9046 216.99 101.386 216.59 102.491C215.77 104.757 215.54 106.278 215.25 108.205L215.2 108.563C215 108.796 214.83 109.048 214.7 109.319C214.44 109.832 213.59 111.663 213.66 113.609C213.71 114.898 214.25 116.612 214.48 117.29C214.57 117.542 214.68 117.784 214.81 118.016C214.85 118.675 214.9 119.353 214.95 120.04C215 120.777 215.06 121.551 215.11 122.384L199.93 114.878C199.28 114.297 198.42 113.445 198.07 112.941C197.95 112.757 197.54 112.079 197.07 110.481V71.5264C197.16 69.9865 197.97 56.8047 197.04 48.0007C196.58 43.6229 196.17 41.0369 195.31 36.9303C194.19 31.5743 193.43 28.5234 191.63 23.5064C189.98 18.9252 186.79 12.4844 186.3 11.4965C185.7 10.0825 183.14 4.49401 179.23 1.97582C177.99 1.18161 176.95 0.677976 175.62 0.25182C175.5 0.213078 175.38 0.184022 175.26 0.154966C174.79 0.0484268 174.37 0 173.94 0H173.9L173.92 0Z" fill="black"/>
</svg>
