<svg width="611" height="596" viewBox="0 0 611 596" fill="none" xmlns="http://www.w3.org/2000/svg">
<g clip-path="url(#clip0_593_2441)">
<path d="M305.5 594C305.05 594 304.6 593.85 304.23 593.54C303.02 592.54 299.42 589.56 294.14 568.47L207.58 592.07C207.41 592.12 207.23 592.14 207.05 592.14C206.62 592.14 206.19 592 205.84 591.73C205.34 591.35 205.05 590.76 205.05 590.14V582.09C204.86 572.25 207.32 567.65 215.55 562.45L284.18 518.59C279.91 490.25 276.61 456.17 274.1 414.47C274.1 414.43 274.1 414.39 274.1 414.35V305.83L235.48 310.72C234.84 314.94 233.58 319.18 230.29 319.18C227.28 319.18 226 315.67 225.32 312.01L212.94 313.58L200.31 317.54C199.5 325.62 197.81 329.09 194.73 329.09C191.65 329.09 190.26 325.25 189.58 320.9L167.12 327.94C166.48 332.17 165.24 336.51 161.92 336.51C159.17 336.51 157.92 333.47 157.31 331.02L134.59 338.14C133.99 343.65 132.77 348.89 129.1 348.89C126.07 348.89 124.77 345.28 124.08 341.44L108.59 346.3L8.71999 387.84V392.08C8.71999 393.18 7.81999 394.08 6.71999 394.08H3.98999C2.88999 394.08 1.98999 393.18 1.98999 392.08V369.8C1.98999 369.7 1.98999 369.6 2.00999 369.51C3.26999 361.03 7.61999 357.53 14.7 354.4L200.93 246.87V243.06H200.88C200.61 243.06 200.35 243.01 200.11 242.9C196.56 241.41 195.78 237.95 195.47 231.25V205.16C195.42 202.64 195.91 199.49 200.12 197.74C200.36 197.64 200.62 197.59 200.89 197.59H221.4C221.66 197.59 221.92 197.64 222.17 197.74C226.38 199.48 226.87 202.64 226.82 205.2V231.16C226.81 231.43 226.8 231.7 226.78 231.95L274.1 204.63V83.2302C274.1 83.2302 274.1 83.1402 274.1 83.0902C274.14 82.4302 275.22 66.7702 276.17 60.0502C279.57 35.9402 290.79 1.99023 305.12 1.99023C305.24 1.99023 305.37 1.99023 305.49 1.99023C305.61 1.99023 305.74 1.99023 305.86 1.99023C320.19 1.99023 331.42 35.9402 334.81 60.0502C335.76 66.7702 336.83 82.4302 336.88 83.0902C336.88 83.1402 336.88 83.1802 336.88 83.2302V204.63L384.19 231.95C384.18 231.72 384.17 231.49 384.15 231.25V205.16C384.1 202.64 384.59 199.49 388.8 197.74C389.04 197.64 389.3 197.59 389.56 197.59H410.07C410.33 197.59 410.59 197.64 410.84 197.74C415.05 199.49 415.54 202.64 415.49 205.2V231.16C415.18 237.96 414.4 241.41 410.85 242.91C410.6 243.01 410.34 243.07 410.07 243.07H410.02V246.88L596.25 354.41C603.33 357.54 607.68 361.03 608.95 369.52C608.96 369.62 608.97 369.72 608.97 369.81V392.09C608.97 393.19 608.07 394.09 606.97 394.09H604.23C603.13 394.09 602.23 393.19 602.23 392.09V387.85L502.36 346.31L486.87 341.45C486.18 345.29 484.88 348.9 481.85 348.9C478.18 348.9 476.96 343.67 476.36 338.15L453.64 331.03C453.02 333.48 451.77 336.52 449.03 336.52C445.7 336.52 444.46 332.18 443.83 327.95L421.37 320.91C420.69 325.26 419.4 329.1 416.22 329.1C413.04 329.1 411.45 325.63 410.64 317.55L398.01 313.59L385.64 312.02C384.96 315.68 383.68 319.19 380.67 319.19C377.39 319.19 376.13 314.95 375.48 310.73L336.86 305.84V414.36C336.86 414.36 336.86 414.44 336.86 414.48C334.35 456.18 331.05 490.25 326.78 518.6L395.42 562.46C403.65 567.66 406.1 572.26 405.91 582.13V590.14C405.91 590.76 405.62 591.35 405.12 591.73C404.77 592 404.34 592.14 403.91 592.14C403.73 592.14 403.56 592.12 403.38 592.07L316.82 568.47C311.54 589.56 307.94 592.54 306.73 593.54C306.36 593.85 305.91 594 305.46 594H305.5Z" fill="white"/>
<path d="M305.87 4C317.27 4 328.95 32.68 332.84 60.33C333.79 67.06 334.89 83.23 334.89 83.23V205.78L386.54 235.6C386.37 234.4 386.25 232.93 386.17 231.16V205.16C386.12 202.49 386.78 200.75 389.59 199.59H410.1C412.91 200.75 413.57 202.49 413.52 205.16V231.16C413.2 237.96 412.39 240.1 410.1 241.06H408.05V248.02L595.38 356.18C602.18 359.17 605.86 362.13 607 369.8V392.08H604.27V386.51L503.09 344.42L485.29 338.84C484.71 343.36 483.69 346.9 481.9 346.9C479.82 346.9 478.78 342.16 478.27 336.64L452.18 328.46C451.57 331.98 450.6 334.52 449.09 334.52C447.29 334.52 446.27 330.96 445.69 326.42L419.75 318.29C419.19 323.16 418.16 327.1 416.27 327.1C414.09 327.1 413.05 321.9 412.57 316.04L398.5 311.63L384.03 309.8C383.44 314 382.43 317.2 380.72 317.2C378.9 317.2 377.88 313.56 377.3 308.95L334.91 303.59V414.38C332.58 453.1 329.33 488.93 324.65 519.6L394.38 564.16C402.26 569.14 404.12 573.18 403.95 582.11V590.16L315.41 566.02C311.98 580.19 308.56 589.49 305.5 592.01C302.44 589.48 299.02 580.18 295.59 566.02L207.05 590.16V582.11C206.88 573.18 208.74 569.14 216.62 564.16L286.36 519.6C281.68 488.93 278.44 453.1 276.1 414.38V303.59L233.71 308.95C233.14 313.56 232.11 317.2 230.29 317.2C228.58 317.2 227.58 314 226.98 309.8L212.51 311.63L198.44 316.04C197.95 321.9 196.91 327.1 194.74 327.1C192.85 327.1 191.81 323.17 191.26 318.29L165.32 326.42C164.74 330.96 163.72 334.52 161.92 334.52C160.4 334.52 159.44 331.98 158.83 328.46L132.74 336.64C132.23 342.16 131.18 346.9 129.11 346.9C127.32 346.9 126.3 343.36 125.72 338.84L107.92 344.42L6.73 386.51V392.08H4V369.8C5.14 362.13 8.83 359.17 15.62 356.18L202.95 248.02V241.06H200.9C198.62 240.1 197.8 237.96 197.48 231.16V205.16C197.43 202.49 198.09 200.75 200.9 199.59H221.41C224.22 200.75 224.88 202.49 224.83 205.16V231.16C224.75 232.94 224.63 234.4 224.46 235.6L276.11 205.78V83.23C276.11 83.23 277.21 67.06 278.16 60.33C282.06 32.67 293.73 3.99 305.13 4C305.25 4 305.38 4 305.5 4.01C305.63 4.01 305.75 4 305.87 4ZM305.87 0C305.74 0 305.62 0 305.5 0C305.38 0 305.25 0 305.13 0C297.97 0 291.26 6.78 285.19 20.14C280.21 31.09 276.2 45.54 274.2 59.78C273.24 66.57 272.16 82.3 272.12 82.97C272.12 83.06 272.12 83.15 272.12 83.24V203.48L228.84 228.47V205.21C228.87 203.48 228.93 198.38 222.95 195.9C222.46 195.7 221.95 195.6 221.42 195.6H200.91C200.38 195.6 199.87 195.7 199.38 195.9C193.41 198.37 193.46 203.48 193.49 205.21V231.17C193.49 231.23 193.49 231.29 193.49 231.36C193.78 237.51 194.37 242.41 198.95 244.59V245.73L13.81 352.61C6.34 355.93 1.43 359.9 0.04 369.21C0.01 369.41 0 369.6 0 369.8V392.08C0 394.29 1.79 396.08 4 396.08H6.73C8.94 396.08 10.73 394.29 10.73 392.08V389.18L109.28 348.19L122.58 344.02C123.46 347.4 125.24 350.9 129.11 350.9C134.36 350.9 135.85 344.44 136.45 339.67L156.02 333.53C156.99 336.04 158.72 338.52 161.93 338.52C166.64 338.52 168.24 333.34 168.92 329.49L188.04 323.49C188.9 327.18 190.68 331.09 194.74 331.09C200.15 331.09 201.61 324.13 202.18 319.05L213.37 315.54L223.74 314.23C224.58 317.55 226.32 321.19 230.29 321.19C234.82 321.19 236.49 316.37 237.21 312.53L272.09 308.12V414.37C272.09 414.45 272.09 414.53 272.09 414.61C274.57 455.74 277.81 489.47 282 517.62L214.45 560.79C205.62 566.37 202.84 571.56 203.03 582.15V590.16C203.03 591.41 203.61 592.58 204.6 593.34C205.31 593.88 206.16 594.16 207.03 594.16C207.38 594.16 207.74 594.11 208.08 594.02L292.68 570.96C297.29 588.73 300.71 593.27 302.93 595.1C303.67 595.71 304.57 596.02 305.48 596.02C306.39 596.02 307.29 595.71 308.03 595.1C310.25 593.26 313.68 588.73 318.28 570.96L402.88 594.02C403.23 594.11 403.58 594.16 403.93 594.16C404.8 594.16 405.65 593.88 406.36 593.34C407.35 592.58 407.93 591.41 407.93 590.16V582.15C408.13 571.57 405.34 566.37 396.5 560.78L328.97 517.63C333.15 489.49 336.4 455.75 338.88 414.62C338.88 414.54 338.88 414.46 338.88 414.38V308.13L373.76 312.54C374.49 316.38 376.15 321.2 380.68 321.2C384.65 321.2 386.39 317.56 387.23 314.24L397.6 315.55L408.79 319.06C409.36 324.14 410.82 331.1 416.23 331.1C420.3 331.1 422.07 327.18 422.93 323.5L442.05 329.5C442.73 333.35 444.34 338.53 449.04 338.53C452.25 338.53 453.98 336.05 454.95 333.54L474.52 339.68C475.12 344.45 476.61 350.91 481.86 350.91C485.73 350.91 487.5 347.41 488.39 344.03L501.69 348.2L600.24 389.19V392.09C600.24 394.3 602.03 396.09 604.24 396.09H606.97C609.18 396.09 610.97 394.3 610.97 392.09V369.81C610.97 369.61 610.96 369.42 610.93 369.22C609.54 359.91 604.64 355.94 597.16 352.62L412.02 245.72V244.58C416.6 242.4 417.2 237.5 417.48 231.35C417.48 231.29 417.48 231.23 417.48 231.16V205.2C417.51 203.47 417.57 198.37 411.59 195.89C411.1 195.69 410.58 195.59 410.06 195.59H389.55C389.03 195.59 388.51 195.69 388.02 195.89C382.05 198.36 382.1 203.47 382.13 205.2V228.46L338.85 203.47V83.23C338.85 83.14 338.85 83.05 338.85 82.96C338.8 82.29 337.73 66.57 336.77 59.77C334.76 45.53 330.76 31.09 325.78 20.13C319.74 6.78 313.03 0 305.87 0Z" fill="black"/>
</g>
<defs>
<clipPath id="clip0_593_2441">
<rect width="611" height="596" fill="white"/>
</clipPath>
</defs>
</svg>
