<svg width="583" height="638" viewBox="0 0 583 638" fill="none" xmlns="http://www.w3.org/2000/svg">
<g clip-path="url(#clip0_436_16)">
<path d="M387.35 636C387.16 636 386.97 635.97 386.79 635.92L298.89 610.12L296.93 634.16C296.85 635.2 295.98 636 294.94 636H288.17C287.13 636 286.26 635.2 286.18 634.16L284.23 610.12L196.33 635.92C196.14 635.97 195.96 636 195.77 636C195.33 636 194.89 635.85 194.53 635.57C194.02 635.17 193.74 634.55 193.77 633.9L194.69 615.73C194.74 615.23 195.13 611.59 196.58 609.47C197.86 607.6 200.61 605.97 200.92 605.79L276.95 560.89C276.65 558.98 272.3 531.34 269.88 513.52C266.29 487.05 264.57 472.21 261.87 444.44C258.9 413.89 256.97 381.45 256.14 347.98H223.59C223.27 350.94 222.87 353.54 222.17 357.14C221.62 359.97 220.74 362.87 218.34 362.87C215.94 362.87 215.07 359.96 214.55 357.12C213.91 353.63 213.53 351.05 213.19 347.98H210.08L188.54 355.14C188.22 358.17 187.81 360.85 187.09 364.53C186.54 367.36 185.66 370.26 183.26 370.26C180.86 370.26 179.99 367.35 179.47 364.51C179.05 362.22 178.75 360.33 178.49 358.48L156.58 365.77C156.25 369.02 155.84 371.75 155.09 375.62C154.54 378.45 153.66 381.35 151.26 381.35C148.86 381.35 147.99 378.44 147.47 375.6C147.02 373.16 146.7 371.15 146.43 369.15L124.56 376.43C124.24 379.6 123.82 382.28 123.08 386.1C122.53 388.93 121.65 391.83 119.25 391.83C116.85 391.83 115.98 388.92 115.46 386.08C115.03 383.7 114.71 381.74 114.45 379.8L108.7 381.71C108.35 385.65 107.92 388.54 107.08 392.88C106.53 395.71 105.65 398.61 103.25 398.61C100.85 398.61 99.98 395.7 99.46 392.86C98.98 390.22 98.64 388.09 98.36 385.93L4.95002 426.68C4.69002 426.79 4.42002 426.85 4.15002 426.85C3.77002 426.85 3.38002 426.74 3.05002 426.52C2.49002 426.15 2.15002 425.52 2.15002 424.85V406.06C2.15002 405.94 2.16002 405.81 2.18002 405.69C2.26002 405.27 2.99002 401.5 4.04002 399.34C5.11002 397.13 7.38002 394.77 7.64002 394.5C7.75002 394.38 7.88002 394.28 8.02002 394.2L91.3 342.69C90.51 339.08 89.62 334.48 89.26 330.79C88.01 318.21 89.2 297.17 89.26 296.29C89.31 295.36 90.01 294.59 90.93 294.43C91.23 294.38 98.38 293.19 102.95 293.17H103.07C107.89 293.17 114.72 294.38 115.01 294.43C115.91 294.59 116.58 295.34 116.65 296.24C116.71 297.03 117.99 313.99 116.92 326.84L189.25 282.1C188.53 278.74 187.72 274.48 187.38 271.02C186.13 258.44 187.32 237.41 187.38 236.52C187.43 235.59 188.12 234.82 189.05 234.66C189.35 234.61 196.5 233.42 201.07 233.4H201.19C206.01 233.4 212.84 234.61 213.12 234.66C214.02 234.82 214.69 235.57 214.76 236.47C214.82 237.22 216.04 253.37 215.11 266.1L256.12 240.74C257.41 153.64 261.83 81.36 261.88 80.64C261.88 80.58 261.89 80.52 261.9 80.45C261.93 80.28 264.56 63.59 267.17 53.17L267.72 50.99C270.72 38.96 272.71 31.01 278.38 18.93C280.93 13.51 287.53 4.5 287.81 4.12C287.86 4.05 287.92 3.99 287.98 3.92C288.83 3.03 290.01 2 291.56 2C293.11 2 294.23 2.96 295.15 3.89C297.03 5.79 302.19 13.44 304.77 18.93C310.44 31.01 312.43 38.95 315.43 50.98L315.98 53.18C318.59 63.6 321.22 80.3 321.25 80.46C321.25 80.52 321.27 80.58 321.27 80.65C321.31 81.37 325.74 153.65 327.03 240.75L368.04 266.11C367.11 253.38 368.33 237.24 368.39 236.48C368.46 235.57 369.14 234.83 370.03 234.67C370.32 234.62 377.14 233.41 381.97 233.41H382.09C386.66 233.43 393.81 234.62 394.11 234.67C395.03 234.82 395.72 235.6 395.78 236.53C395.83 237.42 397.02 258.45 395.78 271.03C395.44 274.49 394.63 278.75 393.91 282.11L466.24 326.85C465.17 314 466.45 297.04 466.51 296.25C466.58 295.34 467.26 294.6 468.15 294.44C468.44 294.39 475.26 293.18 480.09 293.18H480.21C484.78 293.2 491.93 294.39 492.23 294.44C493.15 294.59 493.84 295.37 493.9 296.3C493.95 297.19 495.14 318.22 493.9 330.8C493.53 334.48 492.64 339.08 491.86 342.7L575.14 394.21C575.28 394.3 575.41 394.4 575.52 394.51C575.78 394.77 578.05 397.13 579.12 399.35C580.17 401.51 580.9 405.28 580.98 405.7C581 405.82 581.02 405.95 581.02 406.07V424.86C581.02 425.53 580.68 426.16 580.12 426.53C579.79 426.75 579.41 426.86 579.02 426.86C578.75 426.86 578.48 426.81 578.22 426.69L484.83 385.94C484.55 388.11 484.21 390.24 483.73 392.87C483.21 395.71 482.36 398.62 479.94 398.62C477.52 398.62 476.66 395.73 476.11 392.89C475.27 388.55 474.84 385.65 474.49 381.72L468.74 379.81C468.48 381.74 468.16 383.7 467.73 386.09C467.21 388.93 466.36 391.84 463.94 391.84C461.52 391.84 460.66 388.95 460.11 386.11C459.37 382.3 458.96 379.62 458.63 376.44L436.76 369.16C436.49 371.16 436.17 373.16 435.72 375.61C435.2 378.45 434.35 381.36 431.93 381.36C429.51 381.36 428.65 378.47 428.1 375.63C427.35 371.76 426.93 369.03 426.61 365.78L404.7 358.49C404.45 360.34 404.14 362.23 403.72 364.52C403.2 367.36 402.35 370.27 399.93 370.27C397.51 370.27 396.65 367.38 396.1 364.54C395.39 360.87 394.97 358.19 394.65 355.15L373.11 347.99H370C369.66 351.06 369.27 353.64 368.63 357.13C368.11 359.97 367.26 362.88 364.84 362.88C362.42 362.88 361.56 359.99 361.01 357.15C360.31 353.54 359.9 350.94 359.59 347.99H327.04C326.21 381.45 324.28 413.89 321.31 444.45C318.61 472.22 316.89 487.07 313.3 513.53C310.89 531.31 306.55 558.87 306.23 560.89L382.27 605.79C382.57 605.96 385.32 607.59 386.6 609.46C388.05 611.58 388.44 615.23 388.48 615.63L389.41 633.9C389.44 634.55 389.16 635.17 388.65 635.57C388.29 635.85 387.86 636 387.41 636H387.35Z" fill="white"/>
<path d="M291.54 4C292.2 4 292.86 4.44 293.71 5.3C295.39 6.99 300.45 14.47 302.94 19.78C308.86 32.38 310.64 40.16 314.02 53.66C316.64 64.12 319.25 80.77 319.25 80.77C319.25 80.77 323.74 153.32 325.02 241.87L370.39 269.93C368.79 256.94 370.36 236.63 370.36 236.63C370.36 236.63 377.24 235.4 381.94 235.4C381.98 235.4 382.02 235.4 382.05 235.4C386.51 235.42 393.74 236.63 393.74 236.63C393.74 236.63 394.98 258.25 393.74 270.82C393.36 274.61 392.41 279.42 391.61 283.05L468.63 330.69C466.81 317.77 468.46 296.38 468.46 296.38C468.46 296.38 475.34 295.15 480.04 295.15C480.08 295.15 480.11 295.15 480.15 295.15C484.61 295.17 491.85 296.38 491.85 296.38C491.85 296.38 493.09 318 491.85 330.57C491.45 334.65 490.37 339.92 489.54 343.62L574.03 395.88C574.03 395.88 576.3 398.21 577.26 400.19C578.22 402.18 578.95 406.04 578.95 406.04V424.83L483.09 383C482.76 386.11 482.37 388.75 481.69 392.48C481.19 395.21 480.53 396.59 479.87 396.59C479.21 396.59 478.53 395.23 478 392.48C477.06 387.62 476.66 384.64 476.3 380.21L466.99 377.11C466.68 379.85 466.31 382.33 465.69 385.7C465.19 388.43 464.53 389.81 463.87 389.81C463.21 389.81 462.53 388.45 462 385.7C461.17 381.41 460.76 378.58 460.43 374.93L435.01 366.47C434.69 369.28 434.32 371.79 433.69 375.23C433.19 377.96 432.53 379.34 431.87 379.34C431.21 379.34 430.53 377.98 430 375.23C429.15 370.87 428.75 368.02 428.41 364.28L402.95 355.81C402.64 358.45 402.28 360.88 401.68 364.14C401.18 366.87 400.52 368.25 399.86 368.25C399.2 368.25 398.52 366.89 397.99 364.14C397.18 359.96 396.77 357.16 396.44 353.64L373.37 345.96H368.13C367.76 349.67 367.37 352.5 366.6 356.74C366.1 359.47 365.44 360.85 364.78 360.85C364.12 360.85 363.44 359.49 362.91 356.74C362.08 352.45 361.67 349.62 361.34 345.96H325.03C324.21 380.86 322.22 413.8 319.26 444.22C316.63 471.22 314.9 486.34 311.26 513.22C308.74 531.78 304.18 560.66 304.18 560.66L303.99 561.89L381.2 607.48C381.2 607.48 383.84 609.01 384.9 610.56C386.1 612.32 386.44 615.8 386.44 615.8L387.36 633.97L297.1 607.48L294.95 633.97H288.18L286.03 607.48L195.77 633.97L196.69 615.8C196.69 615.8 197.03 612.32 198.23 610.56C199.29 609.01 201.93 607.48 201.93 607.48L279.14 561.89L278.95 560.66C278.95 560.66 274.39 531.78 271.87 513.22C268.22 486.34 266.49 471.22 263.87 444.22C260.91 413.8 258.92 380.86 258.1 345.96H221.79C221.46 349.62 221.05 352.45 220.22 356.74C219.69 359.49 219.01 360.85 218.35 360.85C217.69 360.85 217.02 359.47 216.53 356.74C215.76 352.5 215.37 349.67 215 345.96H209.76L186.69 353.64C186.36 357.16 185.95 359.96 185.14 364.14C184.61 366.89 183.93 368.25 183.27 368.25C182.61 368.25 181.94 366.87 181.45 364.14C180.86 360.88 180.49 358.45 180.18 355.81L154.72 364.28C154.38 368.02 153.98 370.87 153.13 375.23C152.6 377.98 151.92 379.34 151.26 379.34C150.6 379.34 149.93 377.96 149.44 375.23C148.81 371.79 148.44 369.28 148.12 366.47L122.69 374.93C122.36 378.58 121.95 381.42 121.12 385.7C120.59 388.45 119.91 389.81 119.25 389.81C118.59 389.81 117.92 388.43 117.43 385.7C116.82 382.33 116.44 379.85 116.13 377.11L106.82 380.21C106.46 384.64 106.06 387.62 105.12 392.48C104.59 395.23 103.91 396.59 103.25 396.59C102.59 396.59 101.92 395.21 101.43 392.48C100.75 388.75 100.37 386.11 100.03 383L4.15002 424.84V406.05C4.15002 406.05 4.88002 402.18 5.84002 400.2C6.80002 398.21 9.07002 395.89 9.07002 395.89L93.56 343.63C92.73 339.93 91.65 334.67 91.25 330.58C90.01 318.01 91.25 296.39 91.25 296.39C91.25 296.39 98.48 295.18 102.95 295.16C102.99 295.16 103.02 295.16 103.06 295.16C107.76 295.16 114.64 296.39 114.64 296.39C114.64 296.39 116.29 317.77 114.47 330.7L191.49 283.06C190.69 279.43 189.73 274.62 189.36 270.83C188.12 258.26 189.36 236.64 189.36 236.64C189.36 236.64 196.59 235.43 201.05 235.41C201.09 235.41 201.12 235.41 201.16 235.41C205.86 235.41 212.74 236.64 212.74 236.64C212.74 236.64 214.31 256.94 212.71 269.94L258.08 241.88C259.36 153.33 263.85 80.78 263.85 80.78C263.85 80.78 266.46 64.13 269.08 53.67C272.46 40.16 274.24 32.39 280.16 19.79C282.65 14.48 289.39 5.31 289.39 5.31C290.23 4.44 290.88 4.01 291.53 4.01M291.54 0C289.2 0 287.55 1.45 286.51 2.53C286.39 2.65 286.28 2.79 286.18 2.92C285.9 3.31 279.18 12.47 276.55 18.07C270.79 30.33 268.79 38.35 265.76 50.49L265.21 52.68C262.58 63.19 260.01 79.45 259.91 80.14C259.89 80.26 259.88 80.39 259.87 80.51C259.83 81.23 255.44 152.96 254.13 239.61L217.32 262.38C217.81 250.31 216.81 237 216.75 236.32C216.61 234.5 215.26 233.01 213.47 232.69C213.17 232.64 206.18 231.4 201.18 231.4H201.05C196.32 231.42 189.02 232.64 188.71 232.69C186.87 233 185.49 234.54 185.38 236.4C185.33 237.3 184.13 258.48 185.39 271.22C185.69 274.3 186.36 277.99 187 281.14L119.15 323.1C119.74 310.8 118.68 296.81 118.63 296.08C118.49 294.26 117.14 292.77 115.35 292.45C115.05 292.4 108.06 291.16 103.06 291.16H102.93C98.2 291.18 90.9 292.4 90.59 292.45C88.75 292.76 87.37 294.3 87.26 296.16C87.21 297.06 86.01 318.24 87.27 330.98C87.6 334.3 88.34 338.31 89.05 341.72L6.97002 392.49C6.69002 392.66 6.44002 392.87 6.21002 393.1C5.93002 393.39 3.45002 395.96 2.24002 398.46C1.10002 400.8 0.360024 404.58 0.220024 405.31C0.170024 405.55 0.150024 405.8 0.150024 406.05V424.84C0.150024 426.19 0.830024 427.45 1.96002 428.19C2.62002 428.62 3.38002 428.84 4.15002 428.84C4.69002 428.84 5.24002 428.73 5.75002 428.51L96.72 388.81C96.93 390.17 97.17 391.6 97.46 393.21C97.83 395.23 98.81 400.6 103.22 400.6C107.63 400.6 108.63 395.26 109.02 393.25C109.78 389.33 110.21 386.57 110.54 383.19L112.78 382.44C112.97 383.68 113.2 384.98 113.46 386.43C113.83 388.45 114.81 393.82 119.22 393.82C123.63 393.82 124.63 388.48 125.02 386.47C125.67 383.11 126.07 380.62 126.38 377.91L144.76 371.8C144.96 373.09 145.19 374.44 145.47 375.96C145.84 377.98 146.81 383.35 151.23 383.35C155.65 383.35 156.64 378.01 157.03 376C157.69 372.59 158.1 370.04 158.41 367.26L176.84 361.13C177.02 362.28 177.23 363.5 177.48 364.86C177.85 366.88 178.83 372.25 183.24 372.25C187.65 372.25 188.65 366.91 189.04 364.91C189.66 361.69 190.06 359.22 190.37 356.63L210.38 349.97H211.39C211.69 352.37 212.05 354.62 212.57 357.47C212.94 359.49 213.92 364.86 218.33 364.86C222.74 364.86 223.74 359.52 224.13 357.52C224.7 354.59 225.08 352.31 225.37 349.98H254.19C255.05 382.8 256.96 414.62 259.88 444.63C262.58 472.42 264.31 487.29 267.9 513.78C270.07 529.79 273.8 553.73 274.76 559.85L199.89 604.06C199.34 604.38 196.42 606.14 194.93 608.32C193.23 610.8 192.78 614.68 192.71 615.43C192.71 615.49 192.7 615.55 192.7 615.61L191.78 633.78C191.71 635.07 192.28 636.32 193.3 637.12C194.01 637.68 194.89 637.98 195.78 637.98C196.16 637.98 196.54 637.93 196.91 637.82L282.45 612.71L284.21 634.3C284.38 636.38 286.11 637.98 288.2 637.98H294.97C297.05 637.98 298.79 636.38 298.96 634.3L300.72 612.71L386.26 637.82C386.63 637.93 387.01 637.98 387.39 637.98C388.28 637.98 389.15 637.68 389.87 637.12C390.89 636.32 391.45 635.07 391.39 633.78L390.47 615.61C390.47 615.55 390.47 615.49 390.46 615.43C390.39 614.68 389.94 610.8 388.24 608.32C386.74 606.13 383.82 604.37 383.25 604.04L308.4 559.84C309.35 553.77 313.09 529.8 315.26 513.78C318.85 487.29 320.58 472.42 323.28 444.63C326.2 414.62 328.11 382.8 328.97 349.98H357.79C358.08 352.31 358.46 354.59 359.03 357.52C359.42 359.53 360.45 364.86 364.83 364.86C369.21 364.86 370.22 359.49 370.59 357.47C371.11 354.62 371.47 352.37 371.77 349.97H372.78L392.79 356.63C393.1 359.23 393.5 361.7 394.12 364.91C394.51 366.92 395.54 372.25 399.92 372.25C404.3 372.25 405.31 366.88 405.68 364.86C405.93 363.5 406.14 362.28 406.32 361.13L424.75 367.26C425.06 370.04 425.47 372.59 426.13 376C426.52 378.01 427.55 383.34 431.93 383.34C436.31 383.34 437.32 377.97 437.69 375.95C437.97 374.43 438.2 373.08 438.4 371.8L456.78 377.92C457.09 380.63 457.49 383.13 458.14 386.48C458.53 388.49 459.56 393.83 463.94 393.83C468.32 393.83 469.33 388.46 469.7 386.44C469.96 384.98 470.19 383.68 470.38 382.45L472.62 383.2C472.96 386.58 473.38 389.34 474.14 393.26C474.53 395.27 475.56 400.61 479.94 400.61C484.32 400.61 485.33 395.24 485.7 393.22C485.99 391.61 486.24 390.18 486.45 388.82L577.42 428.52C577.93 428.74 578.48 428.85 579.02 428.85C579.79 428.85 580.55 428.63 581.21 428.2C582.34 427.46 583.02 426.2 583.02 424.85V406.06C583.02 405.81 583 405.56 582.95 405.32C582.81 404.59 582.06 400.81 580.93 398.47C579.72 395.97 577.24 393.39 576.96 393.11C576.73 392.88 576.48 392.67 576.2 392.5L494.12 341.73C494.84 338.32 495.58 334.31 495.9 330.99C497.16 318.25 495.96 297.07 495.91 296.17C495.8 294.31 494.42 292.76 492.58 292.45C492.27 292.4 484.97 291.18 480.24 291.16H480.11C475.11 291.16 468.12 292.4 467.82 292.45C466.03 292.77 464.68 294.26 464.54 296.08C464.48 296.8 463.43 310.79 464.02 323.1L396.17 281.14C396.82 277.99 397.48 274.31 397.78 271.22C399.04 258.48 397.84 237.3 397.79 236.4C397.68 234.54 396.3 232.99 394.46 232.68C394.15 232.63 386.85 231.41 382.12 231.39H381.99C376.99 231.39 370 232.63 369.7 232.68C367.91 233 366.56 234.49 366.42 236.31C366.37 237 365.36 250.3 365.85 262.37L329.04 239.6C327.73 152.95 323.34 81.22 323.3 80.5C323.3 80.37 323.28 80.25 323.26 80.13C323.15 79.44 320.59 63.18 317.96 52.67L317.41 50.48C314.38 38.33 312.37 30.31 306.62 18.05C304.1 12.68 298.84 4.71 296.61 2.46C295.41 1.33 293.8 0 291.54 0Z" fill="black"/>
</g>
<defs>
<clipPath id="clip0_436_16">
<rect width="582.81" height="638" fill="white" transform="translate(0.150024)"/>
</clipPath>
</defs>
</svg>
