<svg width="603" height="594" viewBox="0 0 603 594" fill="none" xmlns="http://www.w3.org/2000/svg">
<g clip-path="url(#clip0_487_20)">
<path d="M400.541 592.08C400.345 592.08 400.148 592.051 399.962 592.003L309.026 566.99L306.999 590.297C306.916 591.305 306.016 592.08 304.94 592.08H297.936C296.86 592.08 295.96 591.305 295.877 590.297L293.86 566.99L202.924 592.003C202.728 592.051 202.541 592.08 202.345 592.08C201.89 592.08 201.435 591.935 201.062 591.664C200.534 591.276 200.245 590.675 200.276 590.044L201.228 572.429C201.279 571.944 201.683 568.415 203.183 566.36C204.507 564.547 207.352 562.967 207.673 562.792L286.329 519.263C286.018 517.411 281.518 490.615 279.014 473.339C275.3 447.676 273.552 442.878 270.759 415.955C267.686 386.337 265.69 354.888 264.831 322.439H231.157C230.826 325.309 230.412 327.829 229.688 331.32C229.119 334.063 228.208 336.875 225.725 336.875C223.243 336.875 222.342 334.053 221.805 331.3C221.142 327.917 220.749 325.415 220.398 322.439H217.18L194.896 329.381C194.565 332.318 194.141 334.916 193.396 338.484C192.827 341.228 191.917 344.039 189.434 344.039C186.951 344.039 186.051 341.218 185.513 338.465C185.079 336.245 184.768 334.412 184.499 332.619L161.832 339.686C161.491 342.837 161.067 345.484 160.291 349.236C159.722 351.979 158.812 354.791 156.329 354.791C153.846 354.791 152.946 351.969 152.408 349.216C151.942 346.851 151.611 344.902 151.332 342.963L128.707 350.021C128.376 353.094 127.941 355.692 127.176 359.396C126.607 362.139 125.696 364.951 123.213 364.951C120.73 364.951 119.83 362.13 119.292 359.376C118.848 357.069 118.516 355.169 118.247 353.288L112.299 355.14C111.937 358.959 111.492 361.761 110.623 365.969C110.054 368.712 109.144 371.524 106.661 371.524C104.178 371.524 103.278 368.703 102.74 365.949C102.243 363.39 101.891 361.325 101.602 359.231L4.96579 398.737C4.69681 398.844 4.41749 398.902 4.13816 398.902C3.74504 398.902 3.34157 398.795 3.00017 398.582C2.42083 398.223 2.06909 397.613 2.06909 396.963V378.747C2.06909 378.63 2.06909 378.504 2.10013 378.388C2.18289 377.981 2.9381 374.326 4.02436 372.232C5.13132 370.089 7.47971 367.801 7.74869 367.539C7.86249 367.423 7.99698 367.326 8.14182 367.248L94.298 317.311C93.4807 313.811 92.56 309.351 92.1875 305.774C90.8944 293.578 92.1255 273.18 92.1875 272.327C92.2393 271.425 92.9634 270.679 93.9152 270.524C94.2256 270.475 101.622 269.321 106.35 269.302H106.474C111.461 269.302 118.527 270.475 118.827 270.524C119.758 270.679 120.451 271.406 120.523 272.278C120.586 273.044 121.91 289.487 120.803 301.944L195.631 258.57C194.886 255.312 194.048 251.182 193.696 247.828C192.403 235.632 193.634 215.244 193.696 214.381C193.748 213.479 194.462 212.733 195.424 212.578C195.734 212.529 203.131 211.376 207.859 211.356H207.983C212.97 211.356 220.035 212.529 220.325 212.578C221.256 212.733 221.949 213.46 222.022 214.332C222.084 215.06 223.346 230.717 222.384 243.058L264.81 218.472C266.145 134.031 270.686 78.8768 270.738 78.1788C270.738 78.1207 270.748 78.0625 270.759 77.9946C270.79 77.8298 273.511 61.6492 276.211 51.5472L276.78 49.4338C279.883 37.7709 281.942 30.0636 287.808 18.3522C290.446 13.0977 297.274 4.36266 297.564 3.99426C297.615 3.9264 297.677 3.86823 297.739 3.80037C298.619 2.93753 299.84 1.93896 301.443 1.93896C303.047 1.93896 304.205 2.86967 305.157 3.77128C307.102 5.61329 312.44 13.0298 315.109 18.3522C320.975 30.0636 323.034 37.7612 326.137 49.4241L326.706 51.5569C329.407 61.6589 332.127 77.8492 332.159 78.0043C332.159 78.0625 332.179 78.1207 332.179 78.1885C332.221 78.8865 336.835 134.04 338.169 218.482L380.595 243.068C379.633 230.726 380.895 215.079 380.958 214.342C381.03 213.46 381.733 212.743 382.654 212.587C382.954 212.539 390.01 211.366 395.007 211.366H395.131C399.859 211.385 407.255 212.539 407.566 212.587C408.518 212.733 409.231 213.489 409.294 214.391C409.345 215.253 410.576 235.642 409.294 247.838C408.942 251.192 408.104 255.322 407.359 258.58L482.187 301.954C481.08 289.496 482.404 273.054 482.466 272.288C482.539 271.406 483.242 270.688 484.163 270.533C484.463 270.485 491.518 269.312 496.515 269.312H496.639C501.367 269.331 508.764 270.485 509.074 270.533C510.026 270.679 510.74 271.435 510.802 272.336C510.854 273.199 512.085 293.587 510.802 305.783C510.419 309.351 509.499 313.811 508.692 317.32L594.848 367.258C594.993 367.345 595.127 367.442 595.241 367.549C595.51 367.801 597.858 370.089 598.965 372.241C600.052 374.335 600.807 377.99 600.89 378.397C600.91 378.514 600.931 378.64 600.931 378.756V396.973C600.931 397.622 600.579 398.233 600 398.592C599.658 398.805 599.265 398.912 598.862 398.912C598.583 398.912 598.303 398.863 598.034 398.747L501.419 359.241C501.129 361.344 500.777 363.409 500.281 365.959C499.743 368.712 498.864 371.534 496.36 371.534C493.856 371.534 492.967 368.732 492.398 365.978C491.529 361.771 491.084 358.959 490.722 355.149L484.773 353.298C484.504 355.169 484.173 357.069 483.728 359.386C483.19 362.139 482.311 364.961 479.807 364.961C477.304 364.961 476.414 362.159 475.845 359.405C475.08 355.712 474.655 353.113 474.314 350.031L451.689 342.973C451.409 344.912 451.078 346.851 450.613 349.226C450.075 351.979 449.196 354.8 446.692 354.8C444.188 354.8 443.299 351.999 442.73 349.245C441.954 345.493 441.519 342.847 441.188 339.696L418.522 332.628C418.263 334.422 417.942 336.254 417.508 338.474C416.97 341.228 416.09 344.049 413.587 344.049C411.083 344.049 410.194 341.247 409.625 338.494C408.89 334.936 408.456 332.338 408.124 329.39L385.841 322.449H382.623C382.271 325.425 381.868 327.926 381.206 331.31C380.668 334.063 379.789 336.884 377.285 336.884C374.781 336.884 373.892 334.083 373.323 331.329C372.598 327.829 372.174 325.309 371.854 322.449H338.18C337.321 354.888 335.324 386.338 332.252 415.965C329.458 442.887 327.648 447.696 323.934 473.348C321.441 490.586 316.951 517.304 316.62 519.263L395.286 562.792C395.596 562.957 398.441 564.537 399.765 566.35C401.266 568.406 401.669 571.944 401.71 572.332L402.672 590.044C402.704 590.675 402.414 591.276 401.886 591.664C401.514 591.935 401.069 592.08 400.603 592.08H400.541Z" fill="white"/>
<path d="M301.422 3.87792C302.105 3.87792 302.788 4.30449 303.667 5.13824C305.405 6.77666 310.64 14.0284 313.216 19.1763C319.341 31.3917 321.182 38.9343 324.679 52.0223C327.389 62.163 330.089 78.3048 330.089 78.3048C330.089 78.3048 334.766 133.72 336.09 219.568L383.027 246.771C381.371 234.178 382.996 214.488 382.996 214.488C382.996 214.488 390.113 213.295 394.976 213.295H395.089C399.703 213.315 407.183 214.488 407.183 214.488C407.183 214.488 408.466 235.448 407.183 247.634C406.79 251.308 405.807 255.972 404.979 259.491L484.659 305.677C482.777 293.151 484.484 272.414 484.484 272.414C484.484 272.414 491.601 271.222 496.464 271.222H496.577C501.191 271.241 508.681 272.414 508.681 272.414C508.681 272.414 509.964 293.374 508.681 305.56C508.268 309.516 507.15 314.625 506.292 318.212L593.7 368.877C593.7 368.877 596.048 371.136 597.041 373.056C598.034 374.985 598.789 378.727 598.789 378.727V396.944L499.619 356.39C499.277 359.405 498.874 361.965 498.17 365.581C497.653 368.228 496.97 369.566 496.288 369.566C495.605 369.566 494.901 368.247 494.353 365.581C493.381 360.869 492.967 357.98 492.594 353.685L482.963 350.68C482.642 353.336 482.259 355.741 481.618 359.008C481.101 361.655 480.418 362.992 479.735 362.992C479.052 362.992 478.349 361.674 477.8 359.008C476.942 354.849 476.518 352.105 476.176 348.567L449.878 340.365C449.547 343.089 449.165 345.522 448.513 348.857C447.995 351.504 447.313 352.842 446.63 352.842C445.947 352.842 445.244 351.523 444.695 348.857C443.816 344.63 443.402 341.867 443.05 338.242L416.711 330.03C416.39 332.59 416.018 334.945 415.397 338.106C414.88 340.753 414.197 342.09 413.514 342.09C412.832 342.09 412.128 340.772 411.58 338.106C410.742 334.053 410.318 331.339 409.976 327.926L386.11 320.481H380.689C380.306 324.078 379.902 326.821 379.106 330.932C378.588 333.578 377.906 334.916 377.223 334.916C376.54 334.916 375.837 333.598 375.288 330.932C374.43 326.773 374.005 324.029 373.664 320.481H336.1C335.252 354.316 333.193 386.25 330.131 415.742C327.41 441.918 325.589 446.988 321.823 473.048C319.216 491.041 314.499 519.04 314.499 519.04L314.302 520.232L394.179 564.431C394.179 564.431 396.91 565.914 398.007 567.417C399.248 569.123 399.6 572.497 399.6 572.497L400.552 590.112L307.174 564.431L304.95 590.112H297.946L295.722 564.431L202.345 590.112L203.297 572.497C203.297 572.497 203.648 569.123 204.89 567.417C205.986 565.914 208.718 564.431 208.718 564.431L288.594 520.232L288.398 519.04C288.398 519.04 283.68 491.041 281.073 473.048C277.297 446.988 275.538 441.918 272.828 415.742C269.766 386.25 267.707 354.316 266.859 320.481H229.295C228.953 324.029 228.529 326.773 227.67 330.932C227.122 333.598 226.419 334.916 225.736 334.916C225.053 334.916 224.36 333.578 223.853 330.932C223.056 326.821 222.653 324.078 222.27 320.481H216.849L192.982 327.926C192.641 331.339 192.217 334.053 191.379 338.106C190.831 340.772 190.127 342.09 189.444 342.09C188.761 342.09 188.068 340.753 187.561 338.106C186.951 334.945 186.568 332.59 186.248 330.03L159.908 338.242C159.556 341.867 159.143 344.63 158.263 348.857C157.715 351.523 157.012 352.842 156.329 352.842C155.646 352.842 154.953 351.504 154.446 348.857C153.794 345.522 153.411 343.089 153.08 340.365L126.772 348.567C126.431 352.105 126.006 354.859 125.148 359.008C124.6 361.674 123.896 362.992 123.213 362.992C122.53 362.992 121.837 361.655 121.33 359.008C120.699 355.741 120.306 353.336 119.985 350.68L110.354 353.685C109.982 357.98 109.568 360.869 108.595 365.581C108.047 368.247 107.343 369.566 106.661 369.566C105.978 369.566 105.285 368.228 104.778 365.581C104.074 361.965 103.681 359.405 103.329 356.39L4.13814 396.953V378.737C4.13814 378.737 4.89336 374.985 5.88651 373.065C6.87966 371.136 9.22806 368.887 9.22806 368.887L96.636 318.222C95.7773 314.635 94.66 309.535 94.2462 305.57C92.9634 293.384 94.2462 272.424 94.2462 272.424C94.2462 272.424 101.726 271.251 106.35 271.231H106.464C111.326 271.231 118.444 272.424 118.444 272.424C118.444 272.424 120.151 293.151 118.268 305.687L197.948 259.501C197.12 255.981 196.127 251.318 195.745 247.644C194.462 235.457 195.745 214.497 195.745 214.497C195.745 214.497 203.224 213.324 207.838 213.305H207.952C212.814 213.305 219.932 214.497 219.932 214.497C219.932 214.497 221.556 234.178 219.901 246.781L266.838 219.577C268.162 133.73 272.776 78.3145 272.776 78.3145C272.776 78.3145 275.476 62.1727 278.187 52.032C281.683 38.9343 283.525 31.4014 289.649 19.186C292.225 14.0381 299.198 5.14793 299.198 5.14793C300.067 4.30449 300.74 3.88761 301.412 3.88761M301.422 0C299.002 0 297.295 1.40574 296.219 2.45278C296.095 2.56912 295.981 2.70485 295.877 2.83088C295.588 3.20898 288.636 12.0894 285.915 17.5185C279.956 29.4043 277.887 37.1795 274.752 48.949L274.183 51.0722C271.462 61.2614 268.803 77.0251 268.7 77.6941C268.679 77.8104 268.669 77.9364 268.659 78.0528C268.617 78.7508 264.107 133.371 262.751 217.377L224.67 239.452C225.177 227.75 224.143 214.846 224.081 214.187C223.936 212.423 222.539 210.978 220.687 210.668C220.377 210.619 213.145 209.417 207.973 209.417H207.838C202.945 209.437 195.393 210.619 195.072 210.668C193.169 210.968 191.741 212.461 191.627 214.265C191.575 215.137 190.334 235.671 191.627 248.022C191.937 251.008 192.631 254.585 193.293 257.639L123.099 298.318C123.71 286.394 122.613 272.831 122.561 272.123C122.417 270.359 121.02 268.914 119.168 268.604C118.858 268.555 111.626 267.353 106.454 267.353H106.319C101.426 267.373 93.8738 268.555 93.5531 268.604C91.6495 268.904 90.2219 270.397 90.1081 272.201C90.0564 273.073 88.8149 293.607 90.1184 305.958C90.4598 309.177 91.2254 313.064 91.9599 316.37L7.05554 365.591C6.76587 365.755 6.50723 365.959 6.26929 366.182C5.97962 366.463 3.41397 368.955 2.16218 371.378C0.982809 373.647 0.217253 377.312 0.0724175 378.019C0.0206907 378.252 0 378.494 0 378.737V396.953C0 398.262 0.703484 399.484 1.87251 400.201C2.5553 400.618 3.34155 400.831 4.13814 400.831C4.69679 400.831 5.26579 400.725 5.7934 400.511L99.9051 362.023C100.122 363.341 100.371 364.728 100.671 366.289C101.053 368.247 102.067 373.453 106.63 373.453C111.192 373.453 112.226 368.276 112.63 366.327C113.416 362.527 113.861 359.851 114.202 356.574L116.52 355.847C116.716 357.05 116.954 358.31 117.223 359.716C117.606 361.674 118.62 366.88 123.182 366.88C127.745 366.88 128.779 361.703 129.183 359.754C129.855 356.497 130.269 354.083 130.589 351.456L149.604 345.532C149.811 346.783 150.049 348.092 150.339 349.565C150.722 351.524 151.725 356.73 156.298 356.73C160.87 356.73 161.895 351.553 162.298 349.604C162.981 346.298 163.405 343.826 163.726 341.131L182.792 335.188C182.978 336.303 183.196 337.485 183.454 338.804C183.837 340.762 184.851 345.968 189.413 345.968C193.975 345.968 195.01 340.791 195.413 338.852C196.055 335.731 196.469 333.336 196.789 330.825L217.49 324.368H218.535C218.846 326.695 219.218 328.876 219.756 331.639C220.139 333.598 221.153 338.804 225.715 338.804C230.277 338.804 231.312 333.627 231.715 331.688C232.305 328.847 232.698 326.637 232.998 324.378H262.814C263.703 356.196 265.679 387.045 268.7 416.139C271.493 443.081 273.252 447.909 276.966 473.591C279.211 489.112 283.07 512.321 284.063 518.255L206.607 561.115C206.038 561.425 203.017 563.132 201.476 565.245C199.717 567.65 199.252 571.411 199.179 572.138C199.179 572.196 199.179 572.255 199.179 572.313L198.227 589.928C198.155 591.179 198.745 592.391 199.8 593.166C200.534 593.709 201.445 594 202.366 594C202.759 594 203.152 593.951 203.535 593.845L292.029 569.501L293.85 590.432C294.025 592.449 295.815 594 297.977 594H304.981C307.133 594 308.933 592.449 309.109 590.432L310.93 569.501L399.424 593.845C399.807 593.951 400.2 594 400.593 594C401.514 594 402.414 593.709 403.159 593.166C404.214 592.391 404.793 591.179 404.731 589.928L403.779 572.313C403.779 572.255 403.779 572.196 403.769 572.138C403.697 571.411 403.231 567.65 401.472 565.245C399.921 563.122 396.9 561.416 396.31 561.096L318.875 518.245C319.858 512.36 323.727 489.122 325.972 473.591C329.686 447.909 331.507 443.081 334.3 416.139C337.321 387.045 339.297 356.196 340.186 324.378H370.002C370.302 326.637 370.695 328.847 371.285 331.688C371.688 333.637 372.754 338.804 377.285 338.804C381.816 338.804 382.861 333.598 383.244 331.639C383.782 328.876 384.154 326.695 384.465 324.368H385.51L406.211 330.825C406.531 333.346 406.945 335.74 407.587 338.852C407.99 340.801 409.056 345.968 413.587 345.968C418.118 345.968 419.163 340.762 419.546 338.804C419.804 337.485 420.022 336.303 420.208 335.188L439.274 341.131C439.595 343.826 440.019 346.298 440.702 349.604C441.105 351.553 442.171 356.72 446.702 356.72C451.234 356.72 452.278 351.514 452.661 349.555C452.951 348.082 453.189 346.773 453.396 345.532L472.411 351.465C472.731 354.093 473.145 356.516 473.818 359.764C474.221 361.713 475.287 366.89 479.818 366.89C484.349 366.89 485.394 361.684 485.777 359.725C486.046 358.31 486.284 357.05 486.48 355.857L488.798 356.584C489.149 359.861 489.584 362.537 490.37 366.337C490.774 368.286 491.839 373.463 496.37 373.463C500.902 373.463 501.947 368.257 502.329 366.298C502.629 364.737 502.888 363.351 503.105 362.033L597.217 400.521C597.745 400.734 598.314 400.841 598.872 400.841C599.669 400.841 600.455 400.628 601.138 400.211C602.307 399.493 603.01 398.272 603.01 396.963V378.746C603.01 378.504 602.99 378.262 602.938 378.029C602.793 377.321 602.017 373.657 600.848 371.388C599.596 368.964 597.031 366.463 596.741 366.192C596.503 365.969 596.245 365.765 595.955 365.6L511.04 316.38C511.785 313.074 512.551 309.186 512.882 305.968C514.185 293.617 512.944 273.083 512.892 272.21C512.778 270.407 511.35 268.904 509.447 268.604C509.126 268.555 501.574 267.373 496.681 267.353H496.546C491.374 267.353 484.142 268.555 483.832 268.604C481.98 268.914 480.583 270.359 480.439 272.123C480.376 272.821 479.29 286.384 479.901 298.318L409.707 257.639C410.38 254.585 411.063 251.018 411.373 248.022C412.676 235.671 411.435 215.137 411.383 214.265C411.269 212.461 409.842 210.959 407.938 210.658C407.618 210.61 400.065 209.427 395.172 209.408H395.038C389.865 209.408 382.633 210.61 382.323 210.658C380.471 210.968 379.075 212.413 378.93 214.177C378.878 214.846 377.833 227.74 378.34 239.442L340.259 217.367C338.904 133.362 334.321 78.7411 334.29 78.0431C334.29 77.9171 334.269 77.8007 334.248 77.6844C334.134 77.0154 331.486 61.2517 328.765 51.0625L328.196 48.9393C325.062 37.1601 322.982 29.3849 317.034 17.4991C314.427 12.293 308.985 4.56625 306.678 2.38492C305.436 1.28941 303.771 0 301.433 0L301.422 0Z" fill="black"/>
</g>
<defs>
<clipPath id="clip0_487_20">
<rect width="603" height="594" fill="white"/>
</clipPath>
</defs>
</svg>
