<svg width="799" height="730" viewBox="0 0 799 730" fill="none" xmlns="http://www.w3.org/2000/svg">
<g clip-path="url(#clip0_468_1440)">
<path d="M547.907 728.75C547.784 728.75 547.667 728.731 547.55 728.694L408.631 681.125C405.388 698.769 400.248 724.688 400.195 724.95C400.078 725.525 399.605 725.938 399.05 725.938C398.495 725.938 398.022 725.525 397.905 724.95C397.852 724.681 392.712 698.763 389.469 681.125L250.55 728.694C250.433 728.731 250.31 728.75 250.193 728.75C249.96 728.75 249.726 728.675 249.527 728.525C249.229 728.3 249.042 727.944 249.031 727.556C248.201 707.55 247.646 694.338 265.154 676.656C265.189 676.619 265.23 676.588 265.271 676.556L356.556 605.456C361.119 600.613 370.296 588.6 372.458 580.775C371.681 576.875 370.986 574.113 370.314 571.438C369.484 568.144 368.702 565.031 367.843 560.144C364.682 542.188 362.305 517.219 362.281 516.969C362.281 516.925 362.275 516.888 362.275 516.844V427.5C356.457 410.838 355.312 399.281 355.271 376.088L309.85 386.856L309.739 389.563C309.728 389.988 309.588 393.956 308.367 395.838C307.625 396.975 306.807 397.219 306.252 397.219C305.697 397.219 304.885 396.981 304.125 395.863C302.846 393.969 302.747 389.981 302.735 389.531L302.694 388.556L287.026 392.269L269.553 399.75L269.46 402.05C269.448 402.475 269.308 406.444 268.087 408.325C267.345 409.463 266.527 409.7 265.972 409.7C265.417 409.7 264.605 409.463 263.846 408.344C262.853 406.869 262.566 404.131 262.49 402.775L230.302 416.556L229.764 429.513C229.753 429.938 229.612 433.906 228.391 435.788C227.649 436.925 226.832 437.163 226.277 437.163C225.722 437.163 224.91 436.925 224.15 435.806C222.871 433.913 222.771 429.925 222.76 429.481L222.368 419.956L190.226 433.719L189.782 444.494C189.771 444.919 189.631 448.888 188.41 450.769C187.668 451.906 186.85 452.15 186.295 452.15C185.74 452.15 184.928 451.913 184.168 450.794C182.889 448.9 182.79 444.913 182.778 444.469L182.474 437.044L146.044 452.638L145.711 460.725C145.7 461.15 145.559 465.119 144.339 467C143.597 468.138 142.779 468.381 142.224 468.381C141.669 468.381 140.857 468.144 140.097 467.025C138.818 465.131 138.719 461.144 138.707 460.7L138.508 455.869L6.44106 512.388L6.17818 519.694C6.15481 520.363 5.64073 520.894 5.0098 520.894H2.67305C2.04797 520.894 1.53389 520.369 1.50468 519.7L1.21259 512.519C1.21259 512.519 1.21259 512.469 1.21259 512.444C1.21259 512.444 1.50468 493.981 1.50468 493.963C2.70811 476.281 4.49572 468.45 18.5746 456.256C18.5922 456.238 18.6097 456.225 18.6331 456.213C19.1763 455.8 73.2487 414.55 136.732 365.944L136.271 362.544H133.508C132.982 362.544 132.526 362.169 132.38 361.631C132.176 360.838 127.304 342.113 127.304 329.519C127.304 316.925 132.176 298.2 132.38 297.406C132.52 296.869 132.982 296.494 133.508 296.494H164.978C165.533 296.494 166.006 296.906 166.123 297.488C166.281 298.281 169.926 317.031 169.926 329.519C169.926 332.7 169.686 336.575 169.207 341.063C195.572 320.85 219.617 302.381 240.764 286.106C240.583 285.95 240.449 285.731 240.385 285.481C240.18 284.688 235.308 265.963 235.308 253.369C235.308 240.775 240.18 222.05 240.385 221.256C240.525 220.719 240.986 220.344 241.512 220.344H272.982C273.537 220.344 274.011 220.756 274.127 221.338C274.285 222.131 277.93 240.881 277.93 253.369C277.93 254.644 277.89 256.038 277.814 257.538C333.481 214.506 346.905 203.563 348.308 202.006C355.809 193.669 359.43 187.056 363.158 174.894V98.3188C363.158 98.3188 363.158 98.2626 363.158 98.2376C363.175 98.0001 364.694 74.3126 367.854 59.6501C368.853 55.0063 370.77 47.8001 370.787 47.7313C370.997 46.7813 376.313 23.1438 385.322 11.6876C385.684 11.2251 386.034 10.7626 386.379 10.3126C388.295 7.80635 390.1 5.4376 393.5 3.3001C395.358 2.1376 396.818 1.58135 398.886 1.26885C398.939 1.2626 398.997 1.25635 399.05 1.25635C399.103 1.25635 399.161 1.25635 399.214 1.26885C401.288 1.5876 402.748 2.1376 404.6 3.3001C408.006 5.4376 409.811 7.80635 411.727 10.3126C412.072 10.7626 412.422 11.2251 412.784 11.6876C421.787 23.1438 427.109 46.7813 427.331 47.7813C427.336 47.8001 429.253 55.0063 430.251 59.6501C433.412 74.3064 434.931 98.0001 434.948 98.2376C434.948 98.2626 434.948 98.2938 434.948 98.3188V174.894C438.675 187.056 442.303 193.663 449.798 202.006C451.2 203.563 464.625 214.506 520.292 257.538C520.216 256.038 520.175 254.644 520.175 253.369C520.175 240.888 523.821 222.131 523.979 221.338C524.089 220.756 524.569 220.344 525.124 220.344H556.594C557.119 220.344 557.575 220.719 557.721 221.256C557.931 222.05 562.798 240.775 562.798 253.369C562.798 265.963 557.926 284.688 557.721 285.481C557.657 285.731 557.523 285.95 557.341 286.106C577.934 301.956 601.395 319.981 628.893 341.063C628.419 336.581 628.174 332.706 628.174 329.519C628.174 317.038 631.819 298.281 631.971 297.488C632.082 296.906 632.561 296.494 633.116 296.494H664.587C665.112 296.494 665.568 296.869 665.714 297.406C665.919 298.2 670.791 316.925 670.791 329.519C670.791 342.113 665.919 360.838 665.714 361.631C665.574 362.169 665.112 362.544 664.587 362.544H661.823L661.362 365.944C724.846 414.55 778.918 455.8 779.461 456.213C779.479 456.225 779.502 456.244 779.52 456.256C793.599 468.45 795.386 476.281 796.59 493.963C796.59 493.988 796.882 512.444 796.882 512.444C796.882 512.469 796.882 512.494 796.882 512.519L796.59 519.7C796.56 520.369 796.046 520.894 795.421 520.894H793.084C792.459 520.894 791.939 520.363 791.916 519.694L791.653 512.388L659.603 455.85L659.405 460.713C659.399 461.125 659.3 465.113 658.014 467.006C657.261 468.125 656.443 468.363 655.894 468.363C655.345 468.363 654.515 468.125 653.779 466.981C652.558 465.1 652.418 461.138 652.406 460.688L652.073 452.619L615.649 437.025L615.34 444.481C615.334 444.9 615.229 448.881 613.949 450.775C613.19 451.9 612.372 452.138 611.823 452.138C611.274 452.138 610.45 451.9 609.708 450.763C608.487 448.881 608.341 444.913 608.329 444.469L607.891 433.706L575.743 419.944L575.346 429.5C575.34 429.919 575.235 433.9 573.956 435.794C573.196 436.919 572.378 437.15 571.829 437.15C571.28 437.15 570.451 436.913 569.715 435.769C568.494 433.888 568.353 429.919 568.336 429.475L567.798 416.538L535.616 402.756C535.54 404.088 535.253 406.844 534.26 408.325C533.501 409.45 532.683 409.681 532.134 409.681C531.585 409.681 530.755 409.444 530.019 408.306C528.798 406.425 528.658 402.456 528.64 402.013L528.547 399.731L511.074 392.25L495.406 388.538L495.365 389.55C495.359 389.963 495.254 393.95 493.975 395.844C493.215 396.969 492.397 397.2 491.848 397.2C491.299 397.2 490.47 396.963 489.733 395.825C488.512 393.944 488.372 389.975 488.361 389.531L488.25 386.844L442.829 376.075C442.788 399.269 441.643 410.825 435.825 427.488V516.831C435.825 516.875 435.825 516.913 435.825 516.956C435.801 517.206 433.424 542.175 430.263 560.131C429.404 565.019 428.622 568.131 427.792 571.425C427.12 574.1 426.425 576.869 425.648 580.769C427.81 588.594 436.987 600.613 441.55 605.45L532.835 676.55C532.876 676.581 532.911 676.613 532.952 676.65C550.46 694.331 549.911 707.55 549.081 727.55C549.064 727.938 548.882 728.3 548.579 728.519C548.38 728.669 548.146 728.744 547.913 728.744L547.907 728.75Z" fill="white"/>
<path d="M399.05 2.50005C401.001 2.80005 402.321 3.31255 404.01 4.37505C407.83 6.77505 409.542 9.50005 411.89 12.4875C420.817 23.8438 426.191 48.0688 426.191 48.0688C426.191 48.0688 428.102 55.2625 429.112 59.9313C432.29 74.6625 433.78 98.3188 433.78 98.3188V175.094C437.46 187.15 440.983 194 448.957 202.869C451.311 205.488 480.971 228.688 521.624 260.106C521.449 257.75 521.344 255.463 521.344 253.369C521.344 240.869 525.118 221.594 525.118 221.594H556.588C556.588 221.594 561.624 240.8 561.624 253.369C561.624 265.938 556.588 285.138 556.588 285.138H554.082C578.361 303.831 604.637 324.006 630.365 343.731C629.781 338.894 629.337 333.806 629.337 329.519C629.337 317.025 633.111 297.744 633.111 297.744H664.581C664.581 297.744 669.616 316.95 669.616 329.519C669.616 342.088 664.581 361.294 664.581 361.294H660.807L660.1 366.519C724.571 415.888 778.778 457.231 778.778 457.231C792.816 469.388 794.247 476.894 795.415 494.056L795.707 512.469L795.415 519.644H793.079L792.786 511.531L658.505 454.038L658.231 460.656C658.231 460.656 658.166 464.644 657.062 466.275C656.688 466.831 656.285 467.119 655.888 467.119C655.491 467.119 655.099 466.844 654.731 466.275C653.674 464.644 653.563 460.656 653.563 460.656L653.195 451.763L614.539 435.213L614.159 444.431C614.159 444.431 614.089 448.419 612.991 450.05C612.617 450.606 612.214 450.894 611.811 450.894C611.408 450.894 611.022 450.619 610.654 450.05C609.597 448.419 609.486 444.431 609.486 444.431L609.013 432.85L574.639 418.131L574.172 429.45C574.172 429.45 574.108 433.438 573.004 435.069C572.63 435.625 572.227 435.913 571.823 435.913C571.42 435.913 571.035 435.638 570.667 435.069C569.609 433.438 569.498 429.45 569.498 429.45L568.932 415.688L534.517 400.95L534.476 401.981C534.476 401.981 534.412 405.969 533.308 407.6C532.934 408.156 532.531 408.444 532.128 408.444C531.725 408.444 531.339 408.169 530.971 407.6C529.914 405.969 529.803 401.981 529.803 401.981L529.674 398.875L511.413 391.056L494.296 387L494.191 389.5C494.191 389.5 494.127 393.488 493.022 395.119C492.649 395.675 492.245 395.963 491.842 395.963C491.439 395.963 491.054 395.688 490.686 395.119C489.628 393.488 489.517 389.5 489.517 389.5L489.365 385.831L441.649 374.519C441.649 399.581 440.399 410.863 434.645 427.263V516.838C434.645 516.838 432.284 541.794 429.101 559.906C427.523 568.856 426.186 571.906 424.433 580.819C426.559 589.088 436.356 601.744 440.779 606.413L532.134 677.569C548.982 694.581 548.76 706.694 547.895 727.506L407.725 679.512C404.465 697.344 399.038 724.7 399.038 724.7C399.038 724.7 393.611 697.344 390.351 679.512L250.182 727.506C249.317 706.694 249.095 694.581 265.943 677.569L357.298 606.413C361.715 601.744 371.517 589.088 373.644 580.819C371.891 571.906 370.548 568.862 368.976 559.906C365.786 541.794 363.432 516.838 363.432 516.838V427.263C357.678 410.863 356.422 399.581 356.428 374.519L308.711 385.831L308.559 389.5C308.559 389.5 308.448 393.488 307.391 395.119C307.023 395.681 306.632 395.963 306.234 395.963C305.837 395.963 305.428 395.675 305.054 395.119C303.956 393.488 303.886 389.5 303.886 389.5L303.781 387L286.664 391.056L268.402 398.875L268.274 401.981C268.274 401.981 268.163 405.969 267.105 407.6C266.737 408.163 266.346 408.444 265.949 408.444C265.552 408.444 265.143 408.156 264.769 407.6C263.67 405.969 263.6 401.981 263.6 401.981L263.559 400.95L229.145 415.688L228.578 429.45C228.578 429.45 228.467 433.438 227.41 435.069C227.042 435.631 226.65 435.913 226.253 435.913C225.856 435.913 225.447 435.625 225.073 435.069C223.975 433.438 223.905 429.45 223.905 429.45L223.437 418.131L189.064 432.85L188.585 444.431C188.585 444.431 188.474 448.419 187.416 450.05C187.048 450.613 186.657 450.894 186.26 450.894C185.863 450.894 185.454 450.606 185.08 450.05C183.981 448.419 183.911 444.431 183.911 444.431L183.532 435.213L144.876 451.763L144.508 460.656C144.508 460.656 144.397 464.644 143.34 466.275C142.971 466.837 142.58 467.119 142.183 467.119C141.786 467.119 141.377 466.831 141.003 466.275C139.905 464.644 139.834 460.656 139.834 460.656L139.56 454.038L5.30774 511.531L5.01564 519.644H2.67889L2.3868 512.469L2.67889 494.056C3.84727 476.894 5.27853 469.388 19.3165 457.231C19.3165 457.231 73.5233 415.888 137.994 366.519L137.287 361.294H133.514C133.514 361.294 128.478 342.088 128.478 329.519C128.478 316.95 133.514 297.744 133.514 297.744H164.984C164.984 297.744 168.758 317.019 168.758 329.519C168.758 333.806 168.314 338.9 167.729 343.731C193.463 324.006 219.734 303.831 244.018 285.138H241.512C241.512 285.138 236.477 265.931 236.477 253.369C236.477 240.806 241.512 221.594 241.512 221.594H272.982C272.982 221.594 276.756 240.869 276.756 253.369C276.756 255.463 276.651 257.756 276.476 260.106C317.129 228.688 346.794 205.488 349.143 202.869C357.117 194 360.64 187.15 364.32 175.094V98.3188C364.32 98.3188 365.816 74.6625 368.988 59.9313C369.993 55.2625 371.909 48.0688 371.909 48.0688C371.909 48.0688 377.283 23.85 386.21 12.4875C388.558 9.50005 390.27 6.77505 394.09 4.37505C395.784 3.31255 397.105 2.80005 399.05 2.50005ZM399.05 4.88264e-05C398.939 4.88264e-05 398.828 0.00629883 398.723 0.0250488C396.515 0.362549 394.885 0.975049 392.91 2.2188C389.323 4.4688 387.366 7.03755 385.474 9.5188C385.135 9.96255 384.784 10.4188 384.428 10.8813C375.373 22.4 370.016 45.8188 369.654 47.4375C369.467 48.15 367.691 54.85 366.721 59.3688C363.537 74.125 362.059 97.175 361.995 98.15C361.995 98.2063 361.995 98.2625 361.995 98.3188V174.694C358.309 186.669 354.88 192.894 347.472 201.138C346.117 202.644 333.049 213.288 279.087 255.013C279.099 254.444 279.105 253.894 279.105 253.369C279.105 240.756 275.436 221.881 275.278 221.081C275.05 219.925 274.098 219.094 272.994 219.094H241.524C240.478 219.094 239.555 219.838 239.275 220.919C239.064 221.719 234.151 240.6 234.151 253.369C234.151 266.138 238.854 284.2 239.251 285.738C218.951 301.363 195.911 319.063 170.656 338.425C170.954 335.05 171.106 332.069 171.106 329.519C171.106 316.906 167.437 298.031 167.28 297.231C167.052 296.075 166.099 295.244 164.995 295.244H133.525C132.479 295.244 131.556 295.988 131.276 297.069C131.066 297.869 126.153 316.75 126.153 329.519C126.153 342.288 131.066 361.169 131.276 361.969C131.556 363.05 132.479 363.794 133.525 363.794H135.278L135.488 365.369C72.2556 413.788 18.5045 454.788 17.9671 455.194C17.9262 455.225 17.8911 455.256 17.8502 455.288C3.41497 467.794 1.58646 475.8 0.353826 493.875C0.353826 493.919 0.353826 493.969 0.353826 494.013L0.0500488 512.425C0.0500488 512.475 0.0500488 512.525 0.0500488 512.575L0.342143 519.75C0.394719 521.088 1.42289 522.144 2.67889 522.144H5.01564C6.27164 522.144 7.29981 521.081 7.35239 519.738L7.58607 513.244L137.404 457.663L137.533 460.731C137.556 461.894 137.737 465.656 139.139 467.738C140.243 469.369 141.54 469.613 142.212 469.613C142.884 469.613 144.204 469.363 145.285 467.694C146.623 465.631 146.833 461.894 146.868 460.75L147.166 453.475L181.364 438.831L181.598 444.5C181.621 445.663 181.802 449.419 183.21 451.5C184.314 453.131 185.611 453.375 186.283 453.375C186.955 453.375 188.275 453.125 189.356 451.463C190.7 449.394 190.904 445.644 190.939 444.513L191.348 434.556L221.264 421.75L221.586 429.525C221.609 430.694 221.79 434.444 223.192 436.525C224.296 438.156 225.593 438.4 226.265 438.4C226.937 438.4 228.257 438.15 229.338 436.488C230.681 434.419 230.892 430.669 230.921 429.538L231.423 417.406L261.462 404.544C261.661 406.056 262.064 407.844 262.888 409.063C263.992 410.694 265.289 410.938 265.96 410.938C266.632 410.938 267.953 410.688 269.033 409.025C270.371 406.963 270.581 403.219 270.616 402.081L270.675 400.6L287.359 393.456L301.567 390.088C301.631 391.6 301.917 394.744 303.161 396.581C304.266 398.213 305.563 398.456 306.234 398.456C306.906 398.456 308.226 398.206 309.307 396.544C310.651 394.475 310.861 390.725 310.89 389.594L310.96 387.863L354.091 377.638C354.184 399.875 355.405 411.369 361.09 427.719V516.838C361.09 516.919 361.09 517.006 361.101 517.088C361.125 517.338 363.508 542.363 366.674 560.369C367.545 565.3 368.333 568.438 369.169 571.756C369.817 574.344 370.489 577.013 371.237 580.713C369.017 588.206 360.102 599.894 355.779 604.494L264.564 675.537C264.482 675.6 264.407 675.669 264.336 675.744C246.437 693.819 246.998 707.263 247.845 727.613C247.88 728.388 248.248 729.106 248.844 729.55C249.241 729.844 249.708 730 250.182 730C250.421 730 250.661 729.963 250.894 729.881L388.57 682.744C391.824 700.338 396.707 724.956 396.754 725.212C396.982 726.369 397.934 727.194 399.038 727.194C400.142 727.194 401.095 726.369 401.323 725.212C401.375 724.95 406.259 700.338 409.507 682.744L547.182 729.881C547.416 729.963 547.656 730 547.895 730C548.368 730 548.836 729.85 549.233 729.55C549.829 729.106 550.197 728.388 550.232 727.613C551.079 707.263 551.64 693.819 533.74 675.744C533.67 675.669 533.594 675.6 533.512 675.537L442.297 604.494C437.98 599.888 429.06 588.206 426.84 580.713C427.582 577.013 428.254 574.338 428.908 571.756C429.743 568.438 430.532 565.3 431.402 560.369C434.574 542.363 436.952 517.338 436.975 517.088C436.981 517.006 436.987 516.919 436.987 516.838V427.719C442.671 411.369 443.892 399.875 443.986 377.638L487.116 387.863L487.186 389.594C487.221 390.725 487.426 394.481 488.77 396.544C489.85 398.212 491.159 398.456 491.842 398.456C492.526 398.456 493.811 398.213 494.915 396.581C496.154 394.744 496.446 391.6 496.51 390.088L510.717 393.456L527.402 400.6L527.46 402.081C527.495 403.225 527.706 406.963 529.043 409.025C530.124 410.694 531.433 410.938 532.116 410.938C532.8 410.938 534.085 410.694 535.189 409.063C536.013 407.844 536.416 406.05 536.614 404.544L566.653 417.406L567.156 429.538C567.191 430.669 567.395 434.425 568.739 436.488C569.82 438.156 571.128 438.4 571.812 438.4C572.495 438.4 573.78 438.156 574.885 436.525C576.287 434.444 576.474 430.694 576.491 429.525L576.812 421.75L606.729 434.556L607.138 444.513C607.173 445.644 607.383 449.394 608.721 451.463C609.807 453.131 611.116 453.375 611.799 453.375C612.483 453.375 613.768 453.131 614.872 451.5C616.274 449.419 616.461 445.656 616.485 444.5L616.718 438.831L650.917 453.475L651.215 460.738C651.25 461.869 651.46 465.625 652.798 467.688C653.873 469.356 655.187 469.6 655.87 469.6C656.554 469.6 657.845 469.356 658.943 467.719C660.351 465.644 660.526 461.875 660.55 460.719L660.678 457.65L790.496 513.231L790.73 519.725C790.777 521.069 791.811 522.131 793.067 522.131H795.404C796.654 522.131 797.682 521.075 797.74 519.738L798.032 512.562C798.032 512.513 798.032 512.463 798.032 512.412L797.74 494C797.74 493.956 797.74 493.906 797.735 493.863C796.502 475.788 794.679 467.781 780.238 455.275C780.203 455.244 780.162 455.212 780.127 455.181C779.59 454.769 725.844 413.775 662.612 365.356L662.822 363.781H664.575C665.621 363.781 666.544 363.038 666.824 361.956C667.034 361.156 671.947 342.269 671.947 329.506C671.947 316.744 667.034 297.856 666.824 297.056C666.544 295.975 665.621 295.231 664.575 295.231H633.105C632.001 295.231 631.043 296.062 630.815 297.219C630.657 298.019 626.994 316.894 626.994 329.506C626.994 332.056 627.146 335.038 627.444 338.413C601.161 318.256 578.635 300.956 558.849 285.725C559.252 284.188 563.949 265.838 563.949 253.356C563.949 240.875 559.036 221.706 558.825 220.906C558.545 219.825 557.622 219.081 556.576 219.081H525.106C524.002 219.081 523.044 219.913 522.822 221.069C522.664 221.869 518.995 240.744 518.995 253.356C518.995 253.888 519.001 254.431 519.013 255C465.052 213.275 451.983 202.625 450.628 201.125C443.215 192.881 439.791 186.663 436.105 174.681V98.3063C436.105 98.25 436.105 98.1938 436.105 98.1375C436.041 97.1625 434.563 74.1125 431.379 59.3563C430.403 54.8375 428.633 48.1375 428.446 47.425C428.084 45.8125 422.727 22.3875 413.672 10.8688C413.31 10.4063 412.965 9.9563 412.627 9.5063C410.734 7.02505 408.771 4.4563 405.19 2.2063C403.215 0.968799 401.585 0.350049 399.377 0.0125488C399.266 -0.00620117 399.155 -0.0124512 399.05 -0.0124512V4.88264e-05Z" fill="black"/>
</g>
<defs>
<clipPath id="clip0_468_1440">
<rect width="798" height="730" fill="white" transform="translate(0.0500488)"/>
</clipPath>
</defs>
</svg>
