<svg width="448" height="474" viewBox="0 0 448 474" fill="none" xmlns="http://www.w3.org/2000/svg">
<g clip-path="url(#clip0_595_2523)">
<path d="M292.75 472C292.54 472 292.32 471.97 292.12 471.9L228.26 450.52C226.77 455.95 225.79 457.43 224 457.43C222.21 457.43 221.23 455.95 219.74 450.52L155.88 471.9C155.67 471.97 155.46 472 155.25 472C154.89 472 154.54 471.9 154.22 471.72C153.72 471.42 153.37 470.92 153.28 470.34C153.09 469.21 152.9 468.12 152.71 467.08C150.94 457.01 149.76 450.35 154.91 444.64C154.96 444.58 155.02 444.53 155.08 444.47L207.68 398.36C207.21 396.01 206.86 393.79 206.46 391.28C206.2 389.66 205.93 387.95 205.6 386.05C204.04 377 202.95 362.83 202.9 362.23C202.9 362.18 202.9 362.13 202.9 362.08V270.07C197.19 260.66 193.21 258.95 184.6 258.91L135 275.7L10.99 336.7C10.99 336.7 10.91 336.74 10.87 336.75C9.68 337.24 8.63 337.49 7.74 337.49C5.86 337.49 4.94 336.38 4.72 335.33C2.8 326.62 2 321.41 2 311.66C2 307.5 5.01 305 8.94 302.16L56.06 265.86C55.94 265.66 55.85 265.44 55.8 265.21C52.32 247.81 52.32 237.73 55.8 220.28C55.99 219.34 56.81 218.67 57.76 218.67H69.4C70.35 218.67 71.17 219.34 71.36 220.28C73.96 233.34 74.57 242.11 73.41 252.49L115.06 220.4V217.83C114.45 217.58 113.99 217.04 113.85 216.37C110.37 198.97 110.37 188.89 113.85 171.44C114.04 170.5 114.86 169.83 115.81 169.83H127.45C128.4 169.83 129.22 170.5 129.41 171.44C132.35 186.17 132.79 195.53 130.86 208.22L202.89 152.72V63.8702C202.89 56.5502 207.19 40.1302 208.7 34.9502C209.09 33.6102 209.48 32.2402 209.87 30.8402C211.79 24.0802 213.96 16.4102 217.19 9.09023C219.5 3.85023 222.29 1.99023 223.98 1.99023C225.67 1.99023 228.46 3.85023 230.77 9.09023C233.99 16.4102 236.17 24.0702 238.09 30.8402C238.49 32.2402 238.88 33.6102 239.26 34.9502C240.77 40.1302 245.07 56.5502 245.07 63.8702V152.7L317.1 208.2C315.17 195.51 315.61 186.15 318.55 171.42C318.74 170.48 319.56 169.81 320.51 169.81H332.15C333.1 169.81 333.93 170.48 334.11 171.42C337.59 188.87 337.59 198.95 334.11 216.35C333.98 217.03 333.51 217.56 332.9 217.81V220.38L374.55 252.47C373.39 242.1 374 233.33 376.6 220.26C376.79 219.32 377.61 218.65 378.56 218.65H390.2C391.15 218.65 391.98 219.32 392.16 220.26C395.64 237.71 395.64 247.79 392.16 265.19C392.11 265.43 392.03 265.65 391.9 265.84L439.07 302.18C442.95 304.98 445.96 307.48 445.96 311.64C445.96 321.39 445.16 326.61 443.24 335.31C443.01 336.35 442.1 337.47 440.22 337.47C439.33 337.47 438.28 337.22 437.09 336.73C437.05 336.71 437.01 336.7 436.97 336.68L312.95 275.68L263.35 258.89C254.74 258.93 250.76 260.64 245.05 270.05V362.06C245.05 362.11 245.05 362.16 245.05 362.21C245 362.81 243.92 376.98 242.35 386.03C242.02 387.94 241.75 389.65 241.49 391.27C241.11 393.68 240.75 395.97 240.28 398.35L292.88 444.46C292.94 444.51 293 444.57 293.05 444.63C298.2 450.34 297.02 457 295.25 467.07C295.07 468.11 294.87 469.2 294.68 470.34C294.58 470.92 294.24 471.42 293.74 471.72C293.43 471.91 293.07 472 292.71 472H292.75Z" fill="white"/>
<path d="M224 4C224.76 4 226.97 5.38 228.96 9.91C232.78 18.58 235.07 27.64 237.36 35.51C239.09 41.45 243.09 57.18 243.09 63.87V153.68L319.95 212.89C317.12 197.62 317.29 188.11 320.54 171.8H332.18C335.64 189.18 335.6 198.83 332.18 215.94H330.93V221.35L377.2 257C375.25 244.35 375.69 235.2 378.59 220.64H390.23C393.69 238.02 393.65 247.67 390.23 264.78H388.98V266.08L437.88 303.76C441.7 306.52 443.99 308.49 443.99 311.64C443.99 321.09 443.23 326.21 441.32 334.88C441.23 335.27 440.85 335.47 440.25 335.47C439.65 335.47 438.84 335.28 437.88 334.88L313.75 273.82L263.71 256.88C253.78 256.88 249.2 259.24 243.09 269.48V362.05C243.09 362.05 241.98 376.62 240.42 385.68C239.51 390.94 239.04 394.76 238.13 399.07L291.6 445.95C296.57 451.46 294.79 458.01 292.75 469.98L226.87 447.92C225.76 452.27 224.73 455.4 224 455.4C223.27 455.4 222.24 452.27 221.13 447.92L155.25 469.98C153.21 458.01 151.43 451.47 156.4 445.95L209.87 399.07C208.96 394.75 208.48 390.93 207.58 385.68C206.02 376.62 204.91 362.05 204.91 362.05V269.48C198.8 259.24 194.22 256.88 184.29 256.88L134.25 273.82L10.12 334.88C9.17001 335.27 8.35001 335.47 7.75001 335.47C7.15001 335.47 6.76001 335.27 6.68001 334.88C4.77001 326.21 4.01001 321.09 4.01001 311.64C4.01001 308.49 6.30001 306.52 10.12 303.76L59.02 266.08V264.78H57.77C54.35 247.67 54.31 238.01 57.77 220.64H69.41C72.31 235.2 72.74 244.35 70.8 257L117.07 221.35V215.94H115.82C112.4 198.83 112.36 189.17 115.82 171.8H127.46C130.71 188.12 130.87 197.63 128.05 212.89L204.91 153.68V63.88C204.91 57.18 208.91 41.46 210.64 35.52C212.93 27.64 215.23 18.58 219.04 9.92C221.04 5.39 223.24 4.01 224 4.01M224 0.01C220.89 0.01 217.66 3.11 215.38 8.31C212.1 15.75 209.9 23.49 207.97 30.32C207.57 31.71 207.19 33.08 206.8 34.41C205.27 39.66 200.91 56.34 200.91 63.89V151.73L133.5 203.67C134.67 193.03 134 184.11 131.39 171.04C131.02 169.17 129.37 167.82 127.47 167.82H115.83C113.92 167.82 112.28 169.17 111.91 171.04C108.37 188.8 108.37 199.05 111.91 216.75C112.08 217.58 112.5 218.31 113.08 218.87V219.41L75.83 248.11C76.39 239.38 75.6 231.22 73.34 219.88C72.97 218.01 71.32 216.66 69.42 216.66H57.78C55.87 216.66 54.23 218.01 53.86 219.88C50.35 237.48 50.32 247.7 53.76 265.11L7.73001 300.57C4.28001 303.06 0.0100098 306.17 0.0100098 311.66C0.0100098 321.54 0.86001 327.08 2.78001 335.76C3.19001 337.61 4.89001 339.49 7.76001 339.49C8.91001 339.49 10.22 339.19 11.65 338.6C11.73 338.57 11.81 338.53 11.89 338.49L135.79 277.55L184.94 260.91C192.46 260.99 195.9 262.51 200.91 270.63V362.08C200.91 362.18 200.91 362.28 200.92 362.38C200.97 362.98 202.06 377.25 203.64 386.39C203.97 388.28 204.23 389.97 204.49 391.6C204.81 393.64 205.13 395.61 205.5 397.62L153.76 442.97C153.64 443.07 153.53 443.18 153.42 443.3C147.62 449.74 148.93 457.16 150.74 467.43C150.92 468.47 151.11 469.55 151.31 470.68C151.51 471.83 152.2 472.84 153.2 473.44C153.83 473.82 154.54 474.01 155.25 474.01C155.68 474.01 156.11 473.94 156.52 473.8L218.39 453.08C219.63 457.09 221.03 459.43 224 459.43C226.97 459.43 228.37 457.09 229.61 453.08L291.48 473.8C291.89 473.94 292.32 474.01 292.75 474.01C293.47 474.01 294.18 473.82 294.8 473.44C295.8 472.84 296.49 471.83 296.69 470.68C296.88 469.55 297.07 468.46 297.26 467.43C299.07 457.16 300.37 449.74 294.58 443.31C294.47 443.19 294.36 443.08 294.24 442.98L242.5 397.63C242.88 395.62 243.19 393.66 243.51 391.61C243.77 389.98 244.04 388.29 244.36 386.4C245.94 377.25 247.03 362.99 247.08 362.39C247.08 362.29 247.09 362.19 247.09 362.09V270.64C252.11 262.52 255.55 261 263.06 260.92L312.21 277.56L436.11 338.5C436.19 338.54 436.27 338.58 436.35 338.61C437.78 339.2 439.09 339.5 440.24 339.5C443.11 339.5 444.81 337.63 445.22 335.77C447.13 327.09 447.99 321.55 447.99 311.67C447.99 306.19 443.73 303.08 440.27 300.59L394.24 265.13C397.68 247.73 397.65 237.5 394.14 219.9C393.77 218.03 392.12 216.68 390.22 216.68H378.58C376.67 216.68 375.03 218.03 374.66 219.9C372.4 231.23 371.62 239.4 372.17 248.13L334.92 219.43V218.89C335.5 218.34 335.92 217.61 336.09 216.77C339.63 199.07 339.63 188.82 336.09 171.06C335.72 169.19 334.07 167.84 332.17 167.84H320.53C318.62 167.84 316.98 169.19 316.61 171.06C314 184.13 313.33 193.05 314.5 203.69L247.09 151.75V63.88C247.09 56.33 242.73 39.65 241.2 34.4C240.81 33.07 240.42 31.7 240.03 30.31C238.09 23.48 235.9 15.75 232.62 8.3C230.34 3.1 227.11 0 224 0V0.01Z" fill="black"/>
</g>
<defs>
<clipPath id="clip0_595_2523">
<rect width="448" height="474" fill="white"/>
</clipPath>
</defs>
</svg>
