<svg width="288" height="298" viewBox="0 0 288 298" fill="none" xmlns="http://www.w3.org/2000/svg">
<g clip-path="url(#clip0_595_2635)">
<path d="M84.02 295.99C83.6 295.99 83.19 295.86 82.84 295.6C82.38 295.26 82.08 294.75 82.03 294.18C81.57 289.41 81.57 286.72 82.03 282.21C82.09 281.59 82.44 281.04 82.97 280.71L128.59 252.59C126.1 244.3 122.79 230.47 122.79 226V165.81H104.48L103.86 173.37C103.78 174.41 102.91 175.21 101.87 175.21C101.32 175.21 100.82 175.01 100.28 174.75C99.58 175.56 98.67 176.2 97.83 176.2C96.99 176.2 96.08 175.56 95.38 174.75C94.84 175.02 94.34 175.21 93.79 175.21C92.75 175.21 91.88 174.41 91.8 173.37L91.23 166.42L86.34 167.87C86.23 168.41 86.11 168.97 85.96 169.57C85.71 170.59 85.5 171.48 85.33 172.22C84.62 175.26 84.3 176.65 82.49 176.65C80.68 176.65 80.36 175.26 79.65 172.22C79.49 171.55 79.31 170.75 79.09 169.84L60.74 174.71C60.69 174.92 60.64 175.13 60.59 175.36C60.34 176.39 60.13 177.28 59.96 178.02C59.25 181.06 58.93 182.45 57.12 182.45C55.31 182.45 54.99 181.06 54.28 178.02C54.18 177.57 54.06 177.07 53.93 176.52L4.58 189.61C4.41 189.65 4.24 189.68 4.07 189.68C3.63 189.68 3.2 189.54 2.85 189.26C2.36 188.88 2.07 188.3 2.07 187.68C2.07 186.76 2.06 185.89 2.05 185.05C1.97 178.39 1.91 173.14 7.73 170.01L84.63 129.78C83.29 121.31 82.6 113.45 85.15 100.52C85.34 99.58 86.16 98.91 87.11 98.91H106.34C107.36 98.91 108.22 99.68 108.33 100.7C109.01 107.08 109.32 112.12 109.31 116.88L122.8 109.82V53.9C122.8 45.66 128.74 21.13 133.08 13.83L133.89 12.46C136.96 7.26 139.42 3.1 142.72 2.19C142.97 2.07 143.25 2 143.55 2C143.63 2 143.71 2 143.79 2.01C143.87 2.01 143.95 2 144.03 2C144.33 2 144.62 2.07 144.88 2.19C148.18 3.09 150.63 7.25 153.7 12.44L154.52 13.83C158.86 21.13 164.8 45.66 164.8 53.9V109.82L178.28 116.87C178.28 112.11 178.58 107.07 179.26 100.69C179.37 99.67 180.23 98.9 181.25 98.9H200.48C201.44 98.9 202.26 99.58 202.44 100.51C204.99 113.42 204.3 121.28 202.96 129.77L279.85 169.99C285.69 173.13 285.63 178.39 285.55 185.04C285.55 185.88 285.53 186.75 285.53 187.67C285.53 188.29 285.24 188.88 284.75 189.25C284.4 189.52 283.97 189.67 283.53 189.67C283.36 189.67 283.19 189.65 283.02 189.6L233.67 176.51C233.54 177.07 233.42 177.57 233.32 178.02C232.61 181.06 232.29 182.44 230.48 182.44C228.67 182.44 228.35 181.05 227.64 178.01C227.47 177.27 227.26 176.38 227.01 175.35C226.96 175.13 226.9 174.91 226.86 174.7L208.51 169.83C208.29 170.74 208.1 171.54 207.94 172.22C207.23 175.26 206.91 176.65 205.1 176.65C203.29 176.65 202.97 175.26 202.26 172.23C202.09 171.49 201.88 170.6 201.63 169.57C201.47 168.94 201.35 168.37 201.25 167.87L196.35 166.42L195.78 173.37C195.73 174.01 195.37 174.58 194.82 174.92C194.5 175.11 194.14 175.21 193.78 175.21C193.52 175.21 193.25 175.16 193 175.05L192.21 174.72C191.51 175.54 190.59 176.2 189.74 176.2C188.89 176.2 187.97 175.55 187.27 174.72L186.47 175.06C186.22 175.16 185.96 175.22 185.69 175.22C185.33 175.22 184.97 175.12 184.65 174.93C184.1 174.6 183.75 174.02 183.69 173.38L183.07 165.82H164.76V226.01C164.76 230.48 161.45 244.31 158.96 252.6L204.58 280.72C205.11 281.05 205.46 281.6 205.52 282.22C205.98 286.73 205.98 289.42 205.52 294.19C205.47 294.76 205.17 295.28 204.71 295.61C204.36 295.86 203.95 296 203.53 296C203.39 296 203.25 295.99 203.11 295.96L148.58 284.23C147.54 286.55 146.59 287.99 145.56 288.76C145.19 289.21 144.64 289.49 144.01 289.49C143.93 289.49 143.85 289.49 143.77 289.48C143.69 289.48 143.61 289.49 143.53 289.49C142.91 289.49 142.35 289.2 141.98 288.76C140.96 287.98 140 286.55 138.96 284.23L84.43 295.96C84.29 295.99 84.15 296 84.01 296L84.02 295.99Z" fill="white"/>
<path d="M144.03 4V4.05C146.92 4.54 149.57 9.45 152.78 14.85C156.88 21.75 162.78 45.95 162.78 53.9V111.03L180.32 120.21C180.12 114.38 180.41 108.59 181.23 100.91H200.46C203.02 113.88 202.29 121.41 200.74 130.89L278.91 171.78C284.29 174.67 283.52 179.73 283.52 187.69L232.18 174.07C232.12 174.34 232.06 174.6 231.99 174.9C231.08 178.61 230.77 180.46 230.46 180.46C230.15 180.46 229.84 178.61 228.93 174.9C228.77 174.24 228.64 173.66 228.54 173.11L206.99 167.39C206.89 167.92 206.77 168.48 206.61 169.11C205.7 172.82 205.39 174.67 205.08 174.67C204.77 174.67 204.46 172.82 203.55 169.11C203.28 168.03 203.11 167.12 202.98 166.32L194.54 163.82L193.77 173.22L191.4 172.22C191.39 172.77 190.1 174.2 189.73 174.2C189.36 174.2 188.08 172.76 188.06 172.22L185.68 173.22L184.91 163.82H162.76V226.01C162.76 230.22 159.29 244.91 156.59 253.49L203.53 282.42C204 287.01 203.96 289.54 203.53 293.99L147.38 281.91C146.23 284.79 145.08 286.87 144.01 287.36V287.48C143.93 287.48 143.85 287.44 143.77 287.43C143.69 287.45 143.61 287.48 143.53 287.48V287.36C142.46 286.87 141.31 284.78 140.16 281.91L84.01 293.99C83.58 289.54 83.54 287.01 84.01 282.42L130.95 253.49C128.25 244.91 124.78 230.22 124.78 226.01V163.82H102.63C102.37 166.95 102.12 170.09 101.86 173.22C101.4 173.22 99.94 172.22 99.48 172.22C99.48 172.77 98.18 174.21 97.81 174.21C97.44 174.21 96.15 172.77 96.14 172.22C95.68 172.22 94.22 173.22 93.77 173.22L93 163.82L84.56 166.32C84.44 167.11 84.26 168.02 83.99 169.11C83.08 172.82 82.77 174.67 82.46 174.67C82.15 174.67 81.84 172.82 80.93 169.11C80.77 168.48 80.66 167.92 80.55 167.39L59 173.11C58.89 173.66 58.77 174.24 58.61 174.9C57.7 178.61 57.39 180.46 57.08 180.46C56.77 180.46 56.46 178.61 55.55 174.9C55.48 174.61 55.42 174.34 55.36 174.07L4.02002 187.69C4.02002 179.73 3.25002 174.67 8.63002 171.78L86.79 130.89C85.23 121.4 84.51 113.87 87.07 100.91H106.3C107.12 108.59 107.41 114.38 107.21 120.21L124.76 111.03V53.9C124.76 45.94 130.66 21.75 134.76 14.85C137.97 9.45 140.62 4.55 143.51 4.05V4C143.59 4 143.67 4.02 143.75 4.02C143.83 4.02 143.91 4 143.99 4H144.01M144.01 0H143.99C143.9 0 143.82 0 143.75 0C143.68 0 143.6 0 143.51 0C142.95 0 142.43 0.11 141.94 0.32C137.98 1.52 135.37 5.94 132.12 11.45L131.32 12.81C126.76 20.48 120.76 45.25 120.76 53.9V108.61L111.23 113.6C111.12 109.71 110.81 105.5 110.28 100.49C110.06 98.46 108.35 96.91 106.3 96.91H87.07C85.16 96.91 83.52 98.26 83.15 100.13C80.67 112.66 81.17 120.53 82.39 128.67L6.79002 168.24C-0.139977 171.96 -0.0599778 178.33 0.0200222 185.08C0.0200222 185.91 0.0400222 186.78 0.0400222 187.69C0.0400222 188.93 0.620022 190.1 1.60002 190.86C2.31002 191.4 3.17002 191.69 4.04002 191.69C4.38002 191.69 4.73002 191.65 5.07002 191.56L52.43 179C52.61 179.78 52.76 180.38 52.9 180.87C53.85 184.12 56.15 184.47 57.1 184.47C58.05 184.47 60.36 184.12 61.3 180.87C61.47 180.29 61.64 179.54 61.89 178.5C62.03 177.89 62.2 177.18 62.39 176.37L77.6 172.33C77.63 172.46 77.66 172.59 77.69 172.71C77.93 173.75 78.11 174.5 78.28 175.08C79.23 178.33 81.53 178.68 82.48 178.68C83.43 178.68 85.74 178.33 86.68 175.08C86.85 174.5 87.02 173.75 87.27 172.71C87.44 171.98 87.64 171.1 87.89 170.08C87.94 169.88 87.99 169.68 88.03 169.48L89.43 169.07L89.8 173.56C89.97 175.64 91.7 177.23 93.79 177.23C94.19 177.23 94.56 177.18 94.91 177.09C95.8 177.78 96.81 178.22 97.83 178.22C98.85 178.22 99.87 177.78 100.75 177.09C101.1 177.18 101.47 177.23 101.87 177.23C103.95 177.23 105.69 175.63 105.86 173.56L106.25 168.86L106.33 167.83H120.79V226.02C120.79 230.54 123.8 243.28 126.24 251.71L81.92 279.03C80.86 279.68 80.17 280.79 80.04 282.03C79.56 286.69 79.56 289.47 80.04 294.39C80.15 295.53 80.74 296.56 81.66 297.23C82.35 297.74 83.18 298 84.02 298C84.3 298 84.58 297.97 84.86 297.91L137.85 286.51C138.75 288.24 139.64 289.44 140.62 290.23C141.35 291.01 142.39 291.49 143.53 291.49C143.61 291.49 143.69 291.49 143.77 291.49C143.85 291.49 143.93 291.49 144.01 291.49C145.16 291.49 146.19 291.01 146.92 290.24C147.91 289.45 148.8 288.25 149.7 286.52L202.69 297.92C202.97 297.98 203.25 298.01 203.53 298.01C204.37 298.01 205.2 297.74 205.89 297.24C206.81 296.57 207.4 295.53 207.51 294.4C207.99 289.48 207.99 286.7 207.51 282.04C207.38 280.8 206.69 279.69 205.63 279.04L161.31 251.72C163.76 243.29 166.76 230.56 166.76 226.03V167.84H181.22L181.69 173.57C181.79 174.85 182.51 176 183.6 176.66C184.23 177.04 184.95 177.24 185.68 177.24C186.05 177.24 186.42 177.19 186.78 177.09C187.65 177.78 188.66 178.23 189.72 178.23C190.78 178.23 191.79 177.78 192.66 177.09C193.02 177.19 193.39 177.24 193.76 177.24C194.48 177.24 195.2 177.04 195.83 176.66C196.93 175.99 197.64 174.84 197.74 173.57L198.11 169.08L199.51 169.49C199.56 169.69 199.6 169.89 199.66 170.1C199.91 171.1 200.11 171.98 200.28 172.71C200.52 173.75 200.7 174.5 200.87 175.08C201.82 178.33 204.12 178.68 205.07 178.68C206.02 178.68 208.33 178.33 209.27 175.08C209.44 174.5 209.61 173.75 209.86 172.71C209.89 172.59 209.92 172.46 209.95 172.33L225.16 176.37C225.36 177.18 225.52 177.89 225.66 178.5C225.9 179.54 226.08 180.29 226.25 180.87C227.2 184.12 229.5 184.47 230.45 184.47C231.4 184.47 233.71 184.12 234.65 180.87C234.79 180.39 234.94 179.79 235.12 179L282.48 191.56C282.82 191.65 283.16 191.69 283.51 191.69C284.38 191.69 285.24 191.4 285.95 190.86C286.93 190.1 287.51 188.93 287.51 187.69C287.51 186.78 287.52 185.91 287.53 185.08C287.61 178.33 287.68 171.96 280.79 168.25L205.12 128.67C206.34 120.51 206.84 112.64 204.37 100.13C204 98.26 202.36 96.9 200.45 96.9H181.22C179.18 96.9 177.46 98.44 177.24 100.48C176.7 105.49 176.4 109.69 176.29 113.59L166.77 108.61V53.9C166.77 45.25 160.77 20.48 156.21 12.81C155.93 12.34 155.66 11.88 155.39 11.43C152.13 5.9 149.51 1.46 145.51 0.3C145.05 0.11 144.54 0 144.02 0L144.01 0Z" fill="black"/>
</g>
<defs>
<clipPath id="clip0_595_2635">
<rect width="287.55" height="297.99" fill="white"/>
</clipPath>
</defs>
</svg>
