<svg width="292" height="315" viewBox="0 0 292 315" fill="none" xmlns="http://www.w3.org/2000/svg">
<g clip-path="url(#clip0_595_2654)">
<path d="M86.05 313C85.63 313 85.22 312.87 84.87 312.62C84.41 312.28 84.11 311.76 84.06 311.19C83.6 306.29 83.6 303.52 84.06 298.83C84.12 298.22 84.46 297.67 84.97 297.34L130.64 268.2C128.15 259.63 124.81 243.25 124.81 238.62V176.22H102.51L101.89 184.11C101.81 185.15 100.94 185.95 99.9 185.95H96.82C95.78 185.95 94.91 185.15 94.83 184.11L94.25 176.79L88.37 178.41C88.26 178.97 88.14 179.55 87.99 180.16C87.73 181.24 87.52 182.17 87.35 182.94C86.65 186.04 86.34 187.45 84.52 187.45C82.7 187.45 82.38 186.04 81.69 182.94C81.53 182.22 81.34 181.38 81.11 180.4L62.79 185.43C62.74 185.66 62.69 185.9 62.63 186.15C62.37 187.23 62.16 188.16 61.99 188.93C61.29 192.03 60.98 193.44 59.16 193.44C57.34 193.44 57.02 192.03 56.33 188.93C56.22 188.45 56.1 187.91 55.96 187.31L4.63 200.86C4.46 200.91 4.28 200.93 4.1 200.93C3.67 200.93 3.24 200.79 2.89 200.52C2.39 200.14 2.1 199.55 2.1 198.93C2.1 197.98 2.1 197.08 2.08 196.21C2 189.35 1.94 183.94 7.74 180.71L86.68 139.03C85.33 130.23 84.63 122.09 87.19 108.7C87.37 107.76 88.19 107.07 89.15 107.07H108.38C109.41 107.07 110.26 107.85 110.37 108.87C111.05 115.52 111.36 120.75 111.35 125.67L124.83 118.37L124.6 55.6995C124.6 47.1695 130.53 21.7995 134.86 14.2595L135.66 12.8595C138.73 7.46953 141.19 3.14953 144.51 2.20953C144.77 2.08953 145.05 2.01953 145.35 2.01953C145.43 2.01953 145.51 2.01953 145.59 2.01953C145.67 2.01953 145.75 2.01953 145.83 2.01953C146.15 2.01953 146.45 2.09953 146.72 2.22953C150.01 3.19953 152.46 7.49953 155.52 12.8695L156.31 14.2595C160.64 21.8095 166.57 47.1695 166.57 55.6895L166.8 118.36L180.29 125.67C180.29 120.75 180.59 115.52 181.27 108.87C181.37 107.85 182.23 107.07 183.26 107.07H202.49C203.45 107.07 204.28 107.75 204.45 108.7C207 122.09 206.3 130.23 204.95 139.03L283.87 180.7C289.69 183.94 289.63 189.35 289.55 196.21C289.55 197.08 289.53 197.98 289.53 198.93C289.53 199.55 289.24 200.14 288.74 200.52C288.39 200.79 287.96 200.93 287.53 200.93C287.35 200.93 287.17 200.91 287 200.86L235.67 187.31C235.53 187.91 235.41 188.45 235.3 188.93C234.6 192.03 234.29 193.44 232.47 193.44C230.65 193.44 230.33 192.03 229.64 188.93C229.47 188.16 229.26 187.23 229 186.15C228.94 185.9 228.89 185.66 228.84 185.43L210.52 180.4C210.29 181.38 210.1 182.23 209.94 182.95C209.24 186.04 208.93 187.45 207.11 187.45C205.29 187.45 204.97 186.04 204.28 182.95C204.11 182.17 203.9 181.24 203.64 180.16C203.5 179.55 203.37 178.97 203.26 178.41L197.38 176.79L196.8 184.11C196.72 185.15 195.85 185.95 194.81 185.95H191.73C190.69 185.95 189.82 185.15 189.74 184.11L189.12 176.22H166.82V238.62C166.82 243.25 163.49 259.63 160.99 268.2L206.66 297.34C207.18 297.67 207.51 298.22 207.57 298.83C208.03 303.52 208.03 306.3 207.57 311.19C207.52 311.76 207.22 312.28 206.76 312.62C206.42 312.87 206 313 205.58 313C205.43 313 205.29 312.98 205.15 312.95L150.65 300.81C149.61 303.21 148.66 304.7 147.63 305.5C147.26 305.96 146.7 306.26 146.06 306.26C145.98 306.26 145.9 306.26 145.82 306.25C145.75 306.25 145.67 306.26 145.58 306.26C144.94 306.26 144.38 305.96 144.01 305.5C142.99 304.7 142.03 303.21 140.99 300.81L86.49 312.95C86.35 312.98 86.2 313 86.05 313Z" fill="white"/>
<path d="M145.8 4V4.05C148.69 4.56 151.34 9.64 154.55 15.23C158.65 22.38 164.55 47.43 164.55 55.67L164.79 119.53L182.33 129.03C182.13 122.99 182.42 117 183.24 109.04H202.47C205.03 122.47 204.3 130.26 202.75 140.09L282.92 182.43C288.3 185.42 287.53 190.67 287.53 198.9L234.19 184.8C234.13 185.08 234.07 185.35 234 185.66C233.09 189.5 232.78 191.42 232.47 191.42C232.16 191.42 231.85 189.5 230.94 185.66C230.78 184.98 230.65 184.37 230.55 183.8L209 177.88C208.9 178.43 208.78 179.01 208.62 179.66C207.71 183.5 207.4 185.42 207.09 185.42C206.78 185.42 206.47 183.5 205.56 179.66C205.29 178.54 205.12 177.6 204.99 176.78L195.55 174.19L194.78 183.93H191.7L190.93 174.19H164.78V238.59C164.78 242.95 161.31 260.16 158.61 269.05L205.55 299C206.02 303.75 205.98 306.37 205.55 310.98L149.4 298.47C148.25 301.45 147.1 303.61 146.03 304.12V304.24C145.95 304.24 145.87 304.2 145.79 304.18C145.71 304.2 145.63 304.24 145.55 304.24V304.12C144.48 303.61 143.33 301.45 142.18 298.47L86.03 310.98C85.6 306.37 85.56 303.75 86.03 299L132.97 269.05C130.27 260.16 126.8 242.95 126.8 238.59V174.19H100.65L99.88 183.93H96.8L96.03 174.19L86.59 176.78C86.47 177.6 86.29 178.54 86.02 179.66C85.11 183.5 84.8 185.42 84.49 185.42C84.18 185.42 83.87 183.5 82.96 179.66C82.8 179.01 82.69 178.42 82.58 177.88L61.03 183.8C60.92 184.37 60.8 184.97 60.64 185.66C59.73 189.5 59.42 191.42 59.11 191.42C58.8 191.42 58.49 189.5 57.58 185.66C57.51 185.36 57.45 185.08 57.39 184.8L4.04999 198.9C4.04999 190.66 3.27999 185.42 8.65999 182.43L88.82 140.09C87.26 130.27 86.54 122.47 89.1 109.04H108.33C109.15 117 109.44 122.99 109.24 129.03L126.79 119.53L126.55 55.67C126.55 47.43 132.45 22.38 136.55 15.23C139.76 9.64 142.41 4.56 145.3 4.05V4C145.38 4 145.46 4.02 145.54 4.03C145.62 4.03 145.7 4 145.78 4M145.78 0H145.3C144.73 0 144.19 0.12 143.7 0.33C139.72 1.57 137.11 6.16 133.87 11.85L133.08 13.24C128.54 21.16 122.55 46.73 122.55 55.67L122.78 117.16L113.27 122.31C113.17 118.27 112.86 113.89 112.32 108.64C112.11 106.6 110.39 105.05 108.34 105.05H89.11C87.19 105.05 85.54 106.41 85.18 108.3C82.7 121.29 83.22 129.44 84.45 137.92L6.78999 178.93C-0.100012 182.75 -0.0200118 189.29 0.0599882 196.22C0.0599882 197.08 0.0799882 197.98 0.0799882 198.92C0.0799882 200.17 0.659988 201.34 1.64999 202.1C2.34999 202.64 3.20999 202.92 4.07999 202.92C4.42999 202.92 4.78999 202.87 5.13999 202.78L54.45 189.79C54.64 190.63 54.79 191.27 54.93 191.78C55.86 195.08 58.18 195.43 59.14 195.43C60.1 195.43 62.42 195.07 63.35 191.78C63.52 191.19 63.69 190.42 63.93 189.36C64.08 188.7 64.25 187.92 64.46 187.03L79.62 182.87C79.66 183.04 79.7 183.21 79.73 183.37C79.97 184.43 80.14 185.19 80.31 185.79C81.24 189.09 83.56 189.44 84.52 189.44C85.48 189.44 87.8 189.08 88.73 185.79C88.9 185.2 89.07 184.43 89.31 183.37C89.48 182.6 89.69 181.68 89.94 180.61C89.99 180.4 90.04 180.2 90.08 180L92.45 179.35L92.84 184.26C93 186.34 94.74 187.94 96.83 187.94H99.91C102 187.94 103.73 186.34 103.9 184.25L104.38 178.2H122.83V238.6C122.83 243.29 125.87 258.59 128.32 267.3L83.91 295.64C82.88 296.3 82.2 297.4 82.08 298.62C81.6 303.47 81.6 306.33 82.08 311.37C82.19 312.51 82.78 313.55 83.71 314.23C84.4 314.73 85.22 315 86.06 315C86.35 315 86.64 314.97 86.93 314.9L139.86 303.11C140.75 304.9 141.64 306.13 142.62 306.95C143.35 307.75 144.41 308.26 145.58 308.26H146.06C147.23 308.26 148.29 307.76 149.02 306.95C150 306.13 150.89 304.9 151.78 303.11L204.71 314.9C205 314.96 205.29 315 205.58 315C206.42 315 207.24 314.74 207.93 314.23C208.86 313.55 209.45 312.51 209.56 311.37C210.03 306.33 210.03 303.47 209.56 298.62C209.44 297.4 208.77 296.3 207.73 295.64L163.32 267.3C165.77 258.59 168.81 243.3 168.81 238.6V178.2H187.26L187.74 184.25C187.9 186.33 189.64 187.94 191.73 187.94H194.81C196.9 187.94 198.63 186.34 198.8 184.26L199.19 179.35L201.56 180C201.6 180.2 201.65 180.41 201.7 180.61C201.95 181.68 202.16 182.6 202.33 183.37C202.57 184.43 202.74 185.19 202.91 185.78C203.84 189.08 206.16 189.43 207.12 189.43C208.08 189.43 210.4 189.07 211.33 185.78C211.5 185.19 211.67 184.42 211.91 183.37C211.95 183.21 211.98 183.04 212.02 182.87L227.18 187.03C227.39 187.92 227.56 188.7 227.71 189.36C227.95 190.42 228.12 191.18 228.29 191.78C229.22 195.08 231.54 195.43 232.5 195.43C233.46 195.43 235.78 195.07 236.71 191.78C236.85 191.27 237 190.63 237.19 189.79L286.5 202.79C286.85 202.89 287.21 202.93 287.56 202.93C288.43 202.93 289.28 202.65 289.99 202.11C290.98 201.35 291.56 200.18 291.56 198.93C291.56 197.99 291.57 197.09 291.58 196.23C291.66 189.31 291.73 182.76 284.89 178.96L207.16 137.94C208.39 129.46 208.91 121.31 206.43 108.32C206.07 106.43 204.42 105.07 202.5 105.07H183.27C181.22 105.07 179.5 106.62 179.29 108.66C178.75 113.91 178.44 118.29 178.34 122.33L168.81 117.17L168.58 55.68C168.58 46.76 162.6 21.19 158.05 13.27L157.26 11.88C154.01 6.18 151.4 1.6 147.43 0.36C146.94 0.15 146.4 0.03 145.83 0.03L145.78 0Z" fill="black"/>
</g>
<defs>
<clipPath id="clip0_595_2654">
<rect width="291.55" height="315" fill="white" transform="translate(0.039978)"/>
</clipPath>
</defs>
</svg>
