<svg width="351" height="341" viewBox="0 0 351 341" fill="none" xmlns="http://www.w3.org/2000/svg">
<g clip-path="url(#clip0_595_2623)">
<path d="M246.22 338.39C246.09 338.39 245.95 338.38 245.82 338.35L179.51 324.89C178.14 328.04 177.02 329.2 175.5 329.2C173.98 329.2 172.86 328.04 171.49 324.89L105.18 338.35C105.05 338.38 104.91 338.39 104.78 338.39C104.36 338.39 103.96 338.26 103.61 338.01C103.16 337.69 102.86 337.19 102.79 336.63C102.14 331.45 102.14 328.63 102.79 324.04C102.88 323.42 103.25 322.88 103.8 322.58L162.22 289.99C161.02 284.51 159.71 280.36 158.44 276.34C156.09 268.92 154.06 262.51 154.06 251.01V187.32H135.64C135.53 187.94 135.39 188.58 135.25 189.24C135.01 190.31 134.82 191.23 134.66 192C134.02 195.1 133.72 196.51 131.89 196.51C130.06 196.51 129.77 195.1 129.12 192C128.96 191.23 128.77 190.31 128.53 189.24C128.38 188.58 128.26 187.94 128.14 187.32H127.37L119.85 188.85C119.71 189.71 119.53 190.61 119.33 191.54C119.09 192.61 118.9 193.53 118.74 194.3C118.1 197.4 117.8 198.81 115.97 198.81C114.14 198.81 113.85 197.4 113.2 194.3C113.04 193.53 112.85 192.61 112.61 191.54C112.52 191.14 112.44 190.75 112.36 190.37L88.08 195.3C87.92 196.28 87.72 197.34 87.48 198.44C87.24 199.51 87.05 200.43 86.89 201.2C86.25 204.3 85.95 205.71 84.12 205.71C82.29 205.71 82 204.3 81.35 201.2C81.1899 200.43 81 199.51 80.76 198.44C80.64 197.9 80.53 197.37 80.43 196.85L70.95 198.77L7.12995 213.34V216.91C7.12995 217.25 7.03995 217.58 6.87995 217.88C6.64995 218.29 5.96995 219.52 4.53995 219.52C3.10995 219.52 2.41995 218.28 2.19995 217.87C2.03995 217.58 1.94995 217.25 1.94995 216.91V201.98C1.94995 198.29 3.31995 195.76 6.01995 194.44L116.26 143.31C116.74 143.08 117.41 142.71 118.2 142.27C115.95 141.21 115.03 137.19 114.97 136.05C114.42 126.16 114.3 120.27 114.97 109.44C115.02 107.55 116.72 104.07 119.36 104.07H134.89C137.53 104.07 139.23 107.55 139.28 109.44C139.71 116.49 139.83 121.57 139.65 127.64C144.83 123.65 149.64 119.59 154 115.54V56.0204C154 45.0204 158.89 30.7904 162.99 20.8004C168.41 7.59039 171.67 2.90039 175.45 2.90039C179.23 2.90039 182.48 7.58039 187.91 20.8004C192.01 30.7904 196.9 45.0104 196.9 56.0204V115.54C201.26 119.59 206.07 123.65 211.25 127.64C211.07 121.57 211.19 116.49 211.62 109.44C211.66 107.55 213.37 104.07 216.01 104.07H231.54C234.18 104.07 235.88 107.55 235.93 109.44C236.6 120.27 236.47 126.16 235.93 136.05C235.87 137.2 234.95 141.21 232.7 142.27C233.49 142.72 234.17 143.08 234.67 143.33L344.84 194.43C347.58 195.76 348.95 198.3 348.95 201.99V216.92C348.95 217.25 348.87 217.59 348.7 217.88C348.48 218.29 347.8 219.53 346.36 219.53C344.93 219.53 344.25 218.3 344.02 217.89C343.85 217.59 343.77 217.26 343.77 216.92V213.35L279.91 198.77L270.48 196.86C270.38 197.37 270.27 197.9 270.15 198.45C269.91 199.52 269.72 200.44 269.57 201.21C268.93 204.31 268.63 205.72 266.8 205.72C264.97 205.72 264.68 204.31 264.03 201.21C263.87 200.44 263.68 199.52 263.45 198.45C263.21 197.34 263.01 196.29 262.85 195.31L238.57 190.38C238.49 190.77 238.41 191.16 238.32 191.55C238.08 192.62 237.89 193.54 237.74 194.31C237.1 197.41 236.8 198.82 234.97 198.82C233.14 198.82 232.85 197.41 232.2 194.31C232.04 193.54 231.85 192.62 231.62 191.55C231.41 190.6 231.24 189.71 231.09 188.86L223.57 187.33H222.8C222.68 187.95 222.55 188.59 222.41 189.25C222.17 190.32 221.98 191.24 221.83 192.01C221.19 195.11 220.89 196.52 219.06 196.52C217.23 196.52 216.94 195.11 216.29 192.01C216.13 191.24 215.94 190.32 215.71 189.25C215.57 188.59 215.44 187.95 215.32 187.33H196.9V251.02C196.9 262.51 194.87 268.92 192.52 276.35C191.25 280.37 189.93 284.52 188.73 290L247.15 322.59C247.69 322.89 248.07 323.44 248.15 324.05C248.81 328.64 248.81 331.46 248.15 336.64C248.08 337.19 247.78 337.69 247.33 338.02C246.99 338.27 246.58 338.4 246.16 338.4L246.22 338.39Z" fill="white"/>
<path d="M175.5 4.90039C178.44 4.90039 181.89 11.2904 186.11 21.5604C190.83 33.0504 194.95 46.2604 194.95 56.0204V116.41C201.07 122.16 207.55 127.39 213.46 131.79C213.1 123.9 213.13 118.34 213.67 109.52C213.67 108.37 214.87 106.07 216.06 106.07H231.59C232.79 106.07 233.98 108.37 233.98 109.52C234.62 119.81 234.55 125.65 233.98 135.94C233.98 137.09 232.79 140.53 231.59 140.53H230.6V143.33C231.99 144.15 233.09 144.75 233.85 145.12L344.06 196.24C346.42 197.39 347.01 199.69 347.01 201.98V216.91C346.79 217.32 346.61 217.52 346.42 217.52C346.23 217.52 346.05 217.32 345.83 216.91V211.74L280.41 196.81L268.91 194.47C268.76 195.48 268.55 196.65 268.25 198C267.42 201.8 267.13 203.7 266.85 203.7C266.57 203.7 266.28 201.8 265.45 198C265.06 196.24 264.82 194.8 264.68 193.61L237.01 187.99C236.87 188.9 236.68 189.93 236.42 191.1C235.59 194.9 235.3 196.8 235.02 196.8C234.74 196.8 234.45 194.9 233.62 191.1C233.28 189.55 233.06 188.25 232.91 187.15L223.82 185.31H221.15C221 186.31 220.79 187.46 220.5 188.8C219.67 192.6 219.38 194.5 219.1 194.5C218.82 194.5 218.54 192.6 217.7 188.8C217.41 187.46 217.2 186.31 217.05 185.31H194.94V251C194.94 268.7 190.04 273.86 186.51 291L246.21 324.31C246.86 328.84 246.82 331.5 246.21 336.37L178.28 322.58C177.15 325.49 176.18 327.18 175.49 327.18C174.8 327.18 173.83 325.5 172.7 322.58L104.77 336.37C104.16 331.5 104.12 328.84 104.77 324.31L164.47 291C160.94 273.86 156.04 268.7 156.04 251V185.31H133.93C133.78 186.31 133.57 187.46 133.28 188.8C132.45 192.6 132.16 194.5 131.88 194.5C131.6 194.5 131.32 192.6 130.48 188.8C130.19 187.46 129.98 186.31 129.83 185.31H127.16L118.07 187.16C117.92 188.26 117.7 189.55 117.36 191.1C116.53 194.9 116.24 196.8 115.96 196.8C115.68 196.8 115.4 194.9 114.56 191.1C114.3 189.92 114.11 188.9 113.97 187.99L86.3 193.61C86.16 194.79 85.92 196.24 85.53 198C84.7 201.8 84.41 203.7 84.13 203.7C83.85 203.7 83.57 201.8 82.73 198C82.43 196.65 82.22 195.48 82.07 194.47L70.57 196.81L5.15 211.74V216.91C4.92 217.32 4.74 217.52 4.56 217.52C4.38 217.52 4.2 217.32 3.97 216.91V201.98C3.97 199.68 4.56 197.39 6.92 196.24L117.13 145.12C117.89 144.75 118.99 144.15 120.38 143.33V140.53H119.38C118.19 140.53 116.99 137.08 116.99 135.94C116.42 125.65 116.35 119.81 116.99 109.52C116.99 108.37 118.18 106.07 119.38 106.07H134.91C136.11 106.07 137.3 108.37 137.3 109.52C137.84 118.34 137.87 123.9 137.51 131.79C143.43 127.39 149.9 122.16 156.02 116.41V56.0204C156.02 46.2604 160.15 33.0504 164.86 21.5604C169.08 11.2904 172.53 4.90039 175.47 4.90039M175.47 0.900391C170.05 0.900391 166.26 7.63039 161.16 20.0404C156.99 30.2004 152.02 44.6904 152.02 56.0204V114.66C148.82 117.6 145.39 120.54 141.75 123.46C141.78 119.02 141.63 114.76 141.3 109.35C141.21 106.32 138.74 102.06 134.91 102.06H119.38C115.55 102.06 113.08 106.32 112.99 109.35C112.32 120.19 112.45 126.39 112.99 136.15C113.05 137.32 113.6 139.79 114.87 141.75L5.26 192.61C5.26 192.61 5.21 192.63 5.19 192.64C2.82 193.8 0 196.36 0 201.98V216.91C0 217.59 0.17 218.25 0.49 218.83C1.77 221.18 3.61 221.53 4.59 221.53C5.78 221.53 7.45 221.07 8.68 218.86C9.01 218.27 9.18 217.6 9.18 216.92V214.94L71.44 200.73L78.92 199.21C79.12 200.13 79.29 200.93 79.43 201.61C79.65 202.65 79.8 203.41 79.95 203.99C80.82 207.35 83.18 207.71 84.15 207.71C85.12 207.71 87.48 207.35 88.35 203.99C88.5 203.41 88.66 202.65 88.87 201.61C89.03 200.85 89.22 199.94 89.45 198.87C89.59 198.23 89.72 197.6 89.83 196.99L110.82 192.73C110.98 193.48 111.12 194.14 111.24 194.71C111.46 195.75 111.61 196.51 111.77 197.09C112.64 200.45 115 200.81 115.97 200.81C116.94 200.81 119.3 200.45 120.17 197.09C120.32 196.51 120.48 195.75 120.7 194.71C120.86 193.95 121.05 193.04 121.28 191.98C121.39 191.49 121.49 191.01 121.58 190.55L126.55 189.54C126.55 189.54 126.57 189.63 126.58 189.68C126.81 190.74 127 191.66 127.16 192.42C127.38 193.46 127.53 194.22 127.69 194.8C128.56 198.16 130.92 198.52 131.89 198.52C132.86 198.52 135.22 198.16 136.09 194.8C136.24 194.22 136.4 193.46 136.62 192.42C136.78 191.66 136.97 190.75 137.2 189.68C137.23 189.56 137.25 189.45 137.28 189.33H152.06V251.02C152.06 262.82 154.13 269.37 156.54 276.95C157.68 280.56 158.86 284.28 159.95 288.97L102.84 320.84C101.75 321.45 101.01 322.53 100.83 323.77C100.15 328.57 100.14 331.51 100.83 336.89C100.97 337.99 101.56 338.99 102.47 339.64C103.16 340.13 103.97 340.39 104.8 340.39C105.07 340.39 105.33 340.36 105.6 340.31L170.37 327.17C171.56 329.46 173.1 331.2 175.53 331.2C177.96 331.2 179.5 329.46 180.69 327.17L245.46 340.31C245.72 340.36 245.99 340.39 246.26 340.39C247.09 340.39 247.91 340.13 248.59 339.64C249.49 338.99 250.09 337.99 250.23 336.89C250.91 331.5 250.9 328.56 250.23 323.77C250.05 322.53 249.31 321.45 248.22 320.84L191.11 288.97C192.2 284.27 193.38 280.56 194.52 276.95C196.92 269.37 199 262.82 199 251.02V189.33H213.78C213.8 189.45 213.83 189.56 213.86 189.68C214.09 190.74 214.28 191.65 214.44 192.42C214.66 193.46 214.81 194.22 214.96 194.8C215.83 198.16 218.19 198.52 219.16 198.52C220.13 198.52 222.49 198.16 223.36 194.8C223.51 194.22 223.67 193.46 223.89 192.42C224.05 191.66 224.24 190.75 224.47 189.68C224.48 189.63 224.49 189.59 224.5 189.54L229.47 190.55C229.56 191.01 229.66 191.49 229.77 191.98C230 193.04 230.19 193.95 230.35 194.72C230.57 195.76 230.72 196.52 230.88 197.1C231.75 200.46 234.11 200.82 235.08 200.82C236.05 200.82 238.41 200.46 239.28 197.1C239.43 196.52 239.59 195.76 239.81 194.72C239.93 194.15 240.07 193.48 240.23 192.74L261.22 197C261.33 197.61 261.46 198.23 261.6 198.88C261.83 199.94 262.02 200.85 262.18 201.61C262.4 202.65 262.55 203.41 262.71 203.99C263.58 207.35 265.94 207.71 266.91 207.71C267.88 207.71 270.24 207.35 271.11 203.99C271.26 203.41 271.42 202.65 271.64 201.61C271.78 200.93 271.95 200.13 272.15 199.21L279.63 200.73L341.89 214.94V216.92C341.89 217.6 342.06 218.27 342.4 218.87C343.63 221.07 345.3 221.54 346.49 221.54C347.47 221.54 349.31 221.19 350.59 218.84C350.91 218.25 351.08 217.59 351.08 216.92V201.99C351.08 196.36 348.25 193.81 345.89 192.65C345.87 192.64 345.84 192.63 345.82 192.62L236.18 141.76C237.45 139.8 238 137.33 238.06 136.16C238.6 126.4 238.73 120.2 238.06 109.36C237.97 106.33 235.5 102.07 231.67 102.07H216.14C212.31 102.07 209.84 106.33 209.75 109.36C209.42 114.77 209.27 119.04 209.3 123.47C205.66 120.55 202.22 117.61 199.03 114.67V56.0304C199.03 44.7004 194.06 30.2104 189.89 20.0504C184.79 7.64039 181.01 0.910391 175.58 0.910391L175.47 0.900391Z" fill="black"/>
</g>
<defs>
<clipPath id="clip0_595_2623">
<rect width="351" height="339.49" fill="white" transform="translate(0 0.900391)"/>
</clipPath>
</defs>
</svg>
