<svg width="351" height="345" viewBox="0 0 351 345" fill="none" xmlns="http://www.w3.org/2000/svg">
<g clip-path="url(#clip0_595_2629)">
<path d="M246.22 342.9C246.09 342.9 245.95 342.89 245.82 342.86L179.51 329.4C178.14 332.55 177.02 333.71 175.5 333.71C173.98 333.71 172.86 332.55 171.49 329.4L105.18 342.86C105.05 342.89 104.91 342.9 104.78 342.9C104.36 342.9 103.96 342.77 103.61 342.52C103.16 342.2 102.86 341.7 102.79 341.14C102.14 335.96 102.14 333.14 102.79 328.55C102.88 327.93 103.26 327.38 103.81 327.08L163.21 294.48C162.27 290.09 161.18 285.66 160.12 281.35C157.13 269.23 154.04 256.71 154.04 243.82V186.09H135.62C135.51 186.71 135.37 187.35 135.23 188.01C134.99 189.08 134.8 190 134.64 190.77C134 193.87 133.7 195.28 131.87 195.28C130.04 195.28 129.75 193.87 129.1 190.77C128.94 190 128.75 189.08 128.51 188.01C128.36 187.35 128.24 186.71 128.12 186.09H127.35L119.83 187.62C119.69 188.48 119.51 189.38 119.31 190.31C119.07 191.38 118.88 192.3 118.72 193.07C118.08 196.17 117.78 197.58 115.95 197.58C114.12 197.58 113.83 196.17 113.18 193.07C113.02 192.3 112.83 191.38 112.59 190.31C112.5 189.91 112.42 189.52 112.34 189.14L88.0601 194.07C87.9 195.05 87.7001 196.11 87.4601 197.21C87.2201 198.28 87.0301 199.2 86.8701 199.97C86.2301 203.07 85.9301 204.48 84.1001 204.48C82.2701 204.48 81.9801 203.07 81.3301 199.97C81.1701 199.2 80.98 198.28 80.7401 197.21C80.62 196.67 80.5101 196.14 80.4101 195.62L70.9301 197.54L7.11005 212.11V215.68C7.11005 216.02 7.02005 216.35 6.86005 216.65C6.63005 217.06 5.95005 218.29 4.52005 218.29C3.09005 218.29 2.40005 217.05 2.18005 216.64C2.02005 216.35 1.93005 216.02 1.93005 215.68V200.75C1.93005 197.06 3.30005 194.53 6.00005 193.21L116.24 142.08C116.72 141.85 117.39 141.48 118.18 141.04C115.93 139.98 115.01 135.97 114.95 134.82C114.4 124.93 114.28 119.04 114.95 108.21C115 106.32 116.7 102.84 119.34 102.84H134.87C137.51 102.84 139.21 106.32 139.26 108.21C139.69 115.26 139.81 120.34 139.63 126.41C144.81 122.41 149.62 118.36 153.98 114.31V56.0204C153.98 45.0204 158.87 30.7904 162.97 20.8004C168.39 7.59039 171.65 2.90039 175.43 2.90039C179.21 2.90039 182.46 7.58039 187.89 20.8004C191.99 30.7904 196.88 45.0104 196.88 56.0204V114.31C201.24 118.36 206.05 122.42 211.23 126.41C211.05 120.34 211.17 115.26 211.6 108.21C211.64 106.32 213.35 102.84 215.99 102.84H231.52C234.16 102.84 235.86 106.32 235.91 108.21C236.58 119.04 236.45 124.93 235.91 134.82C235.85 135.97 234.93 139.98 232.68 141.04C233.47 141.49 234.15 141.85 234.65 142.1L344.82 193.2C347.56 194.53 348.93 197.07 348.93 200.76V215.69C348.93 216.02 348.85 216.36 348.68 216.65C348.46 217.06 347.78 218.3 346.34 218.3C344.91 218.3 344.23 217.07 344 216.66C343.83 216.36 343.75 216.03 343.75 215.69V212.12L279.89 197.54L270.46 195.63C270.36 196.14 270.25 196.67 270.13 197.22C269.89 198.29 269.7 199.21 269.55 199.98C268.91 203.08 268.61 204.49 266.78 204.49C264.95 204.49 264.66 203.08 264.01 199.98C263.85 199.21 263.66 198.29 263.43 197.22C263.19 196.11 262.99 195.06 262.83 194.08L238.55 189.15C238.47 189.54 238.39 189.93 238.3 190.32C238.06 191.39 237.87 192.31 237.72 193.08C237.08 196.18 236.78 197.59 234.95 197.59C233.12 197.59 232.83 196.18 232.18 193.08C232.02 192.31 231.83 191.39 231.6 190.32C231.39 189.37 231.22 188.48 231.07 187.63L223.55 186.1H222.78C222.66 186.72 222.53 187.36 222.39 188.02C222.15 189.09 221.96 190.01 221.81 190.78C221.17 193.88 220.87 195.29 219.04 195.29C217.21 195.29 216.92 193.88 216.27 190.78C216.11 190.01 215.92 189.09 215.69 188.02C215.55 187.36 215.42 186.72 215.3 186.1H196.88V243.83C196.88 256.71 193.79 269.24 190.8 281.36C189.74 285.66 188.65 290.1 187.71 294.48L247.11 327.08C247.66 327.38 248.04 327.93 248.13 328.55C248.79 333.14 248.79 335.96 248.13 341.14C248.06 341.69 247.76 342.19 247.31 342.52C246.97 342.77 246.56 342.9 246.14 342.9H246.22Z" fill="white"/>
<path d="M175.5 4.90039C178.44 4.90039 181.89 11.2904 186.11 21.5604C190.83 33.0504 194.95 46.2604 194.95 56.0204V115.18C201.07 120.93 207.55 126.16 213.46 130.56C213.1 122.67 213.13 117.11 213.67 108.29C213.67 107.14 214.87 104.84 216.06 104.84H231.59C232.79 104.84 233.98 107.14 233.98 108.29C234.62 118.58 234.55 124.42 233.98 134.71C233.98 135.86 232.79 139.3 231.59 139.3H230.6V142.1C231.99 142.92 233.09 143.52 233.85 143.89L344.06 195.01C346.42 196.16 347.01 198.46 347.01 200.75V215.68C346.79 216.09 346.61 216.29 346.42 216.29C346.23 216.29 346.05 216.09 345.83 215.68V210.51L280.41 195.58L268.91 193.24C268.76 194.25 268.55 195.42 268.25 196.77C267.42 200.57 267.13 202.47 266.85 202.47C266.57 202.47 266.28 200.57 265.45 196.77C265.06 195.01 264.82 193.57 264.68 192.38L237.01 186.76C236.87 187.67 236.68 188.7 236.42 189.87C235.59 193.67 235.3 195.57 235.02 195.57C234.74 195.57 234.45 193.67 233.62 189.87C233.28 188.32 233.06 187.02 232.91 185.92L223.82 184.08H221.15C221 185.08 220.79 186.23 220.5 187.57C219.67 191.37 219.38 193.27 219.1 193.27C218.82 193.27 218.54 191.37 217.7 187.57C217.41 186.23 217.2 185.08 217.05 184.08H194.94V243.81C194.94 261.51 189.04 278.37 185.51 295.5L246.21 328.81C246.86 333.34 246.82 336 246.21 340.87L178.28 327.08C177.15 329.99 176.18 331.68 175.49 331.68C174.8 331.68 173.83 330 172.7 327.08L104.77 340.87C104.16 336 104.12 333.34 104.77 328.81L165.47 295.5C161.94 278.36 156.04 261.5 156.04 243.81V184.08H133.93C133.78 185.08 133.57 186.23 133.28 187.57C132.45 191.37 132.16 193.27 131.88 193.27C131.6 193.27 131.32 191.37 130.48 187.57C130.19 186.23 129.98 185.08 129.83 184.08H127.16L118.07 185.93C117.92 187.03 117.7 188.32 117.36 189.88C116.53 193.68 116.24 195.58 115.96 195.58C115.68 195.58 115.4 193.68 114.56 189.88C114.3 188.7 114.11 187.68 113.97 186.77L86.3 192.39C86.16 193.57 85.92 195.02 85.53 196.78C84.7 200.58 84.41 202.48 84.13 202.48C83.85 202.48 83.57 200.58 82.73 196.78C82.43 195.43 82.22 194.26 82.07 193.25L70.57 195.58L5.15 210.51V215.68C4.92 216.09 4.74 216.29 4.56 216.29C4.38 216.29 4.2 216.09 3.97 215.68V200.75C3.97 198.45 4.56 196.16 6.92 195.01L117.13 143.89C117.89 143.52 118.99 142.92 120.38 142.1V139.3H119.38C118.19 139.3 116.99 135.85 116.99 134.71C116.42 124.42 116.35 118.58 116.99 108.29C116.99 107.14 118.18 104.84 119.38 104.84H134.91C136.11 104.84 137.3 107.14 137.3 108.29C137.84 117.11 137.87 122.67 137.51 130.56C143.43 126.16 149.9 120.93 156.02 115.18V56.0204C156.02 46.2604 160.15 33.0504 164.86 21.5604C169.08 11.2904 172.53 4.90039 175.47 4.90039M175.47 0.900391C170.05 0.900391 166.26 7.63039 161.16 20.0404C156.99 30.2004 152.02 44.6904 152.02 56.0204V113.44C148.82 116.38 145.39 119.32 141.75 122.24C141.78 117.8 141.63 113.54 141.3 108.13C141.21 105.1 138.74 100.84 134.91 100.84H119.38C115.55 100.84 113.08 105.1 112.99 108.13C112.32 118.97 112.45 125.17 112.99 134.93C113.05 136.1 113.6 138.57 114.87 140.53L5.26 191.38C5.26 191.38 5.21 191.4 5.19 191.41C2.82 192.57 0 195.13 0 200.76V215.69C0 216.36 0.17 217.02 0.49 217.61C1.77 219.96 3.61 220.31 4.59 220.31C5.78 220.31 7.45 219.85 8.68 217.64C9.01 217.05 9.18 216.38 9.18 215.7V213.72L71.44 199.51L78.92 197.99C79.12 198.91 79.29 199.71 79.43 200.39C79.65 201.43 79.8 202.19 79.95 202.77C80.82 206.13 83.18 206.49 84.15 206.49C85.12 206.49 87.48 206.13 88.35 202.77C88.5 202.19 88.66 201.43 88.87 200.39C89.03 199.63 89.22 198.72 89.45 197.65C89.59 197.01 89.72 196.38 89.83 195.77L110.82 191.51C110.98 192.26 111.12 192.92 111.24 193.49C111.46 194.53 111.61 195.29 111.77 195.87C112.64 199.23 115 199.59 115.97 199.59C116.94 199.59 119.3 199.23 120.17 195.87C120.32 195.29 120.48 194.53 120.7 193.49C120.86 192.73 121.05 191.82 121.28 190.76C121.39 190.27 121.49 189.79 121.58 189.33L126.55 188.32C126.55 188.32 126.57 188.41 126.58 188.46C126.81 189.52 127 190.44 127.16 191.2C127.38 192.24 127.53 193 127.69 193.58C128.56 196.94 130.92 197.3 131.89 197.3C132.86 197.3 135.22 196.94 136.09 193.58C136.24 193 136.4 192.24 136.62 191.2C136.78 190.44 136.97 189.53 137.2 188.46C137.23 188.34 137.25 188.23 137.28 188.11H152.06V243.84C152.06 256.97 155.18 269.62 158.19 281.85C159.13 285.66 160.09 289.58 160.95 293.46L102.86 325.34C101.76 325.95 101 327.04 100.82 328.28C100.14 333.08 100.13 336.02 100.82 341.4C100.96 342.5 101.55 343.5 102.46 344.15C103.15 344.64 103.96 344.9 104.79 344.9C105.06 344.9 105.32 344.87 105.59 344.82L170.36 331.68C171.55 333.97 173.09 335.71 175.52 335.71C177.95 335.71 179.49 333.97 180.68 331.68L245.45 344.82C245.71 344.87 245.98 344.9 246.25 344.9C247.08 344.9 247.9 344.64 248.58 344.15C249.48 343.5 250.08 342.5 250.22 341.4C250.9 336.01 250.89 333.07 250.22 328.28C250.04 327.03 249.29 325.94 248.18 325.34L190.09 293.46C190.95 289.58 191.91 285.66 192.85 281.85C195.87 269.62 198.98 256.97 198.98 243.84V188.11H213.76C213.78 188.23 213.81 188.34 213.84 188.46C214.07 189.52 214.26 190.43 214.42 191.2C214.64 192.24 214.79 193 214.94 193.58C215.81 196.94 218.17 197.3 219.14 197.3C220.11 197.3 222.47 196.94 223.34 193.58C223.49 193 223.65 192.24 223.87 191.2C224.03 190.44 224.22 189.53 224.45 188.46C224.46 188.41 224.47 188.37 224.48 188.32L229.45 189.33C229.54 189.79 229.64 190.27 229.75 190.76C229.98 191.82 230.17 192.73 230.33 193.5C230.55 194.54 230.7 195.3 230.86 195.88C231.73 199.24 234.09 199.6 235.06 199.6C236.03 199.6 238.39 199.24 239.26 195.88C239.41 195.3 239.57 194.54 239.79 193.5C239.91 192.93 240.05 192.26 240.21 191.52L261.2 195.78C261.31 196.39 261.44 197.01 261.58 197.66C261.81 198.72 262 199.63 262.16 200.4C262.38 201.44 262.53 202.2 262.69 202.78C263.56 206.14 265.92 206.5 266.89 206.5C267.86 206.5 270.22 206.14 271.09 202.78C271.24 202.2 271.4 201.44 271.62 200.4C271.76 199.72 271.93 198.92 272.13 198L279.61 199.52L341.87 213.73V215.71C341.87 216.39 342.04 217.06 342.38 217.66C343.61 219.86 345.28 220.33 346.47 220.33C347.45 220.33 349.29 219.98 350.57 217.63C350.89 217.04 351.06 216.38 351.06 215.71V200.78C351.06 195.15 348.23 192.6 345.87 191.44C345.85 191.43 345.82 191.42 345.8 191.41L236.16 140.55C237.43 138.59 237.98 136.12 238.04 134.95C238.58 125.19 238.71 118.99 238.04 108.15C237.95 105.12 235.48 100.86 231.65 100.86H216.12C212.29 100.86 209.82 105.12 209.73 108.15C209.4 113.56 209.25 117.83 209.28 122.26C205.64 119.34 202.2 116.4 199.01 113.46V56.0404C199.01 44.7104 194.04 30.2204 189.87 20.0604C184.77 7.65039 180.99 0.920391 175.56 0.920391L175.47 0.900391Z" fill="black"/>
</g>
<defs>
<clipPath id="clip0_595_2629">
<rect width="351" height="344" fill="white" transform="translate(0 0.900391)"/>
</clipPath>
</defs>
</svg>
