<svg width="351" height="431" viewBox="0 0 351 431" fill="none" xmlns="http://www.w3.org/2000/svg">
<g clip-path="url(#clip0_595_2620)">
<path d="M104.78 428.09C104.36 428.09 103.96 427.96 103.61 427.71C103.16 427.39 102.86 426.89 102.79 426.33C102.14 421.15 102.14 418.33 102.79 413.74C102.88 413.12 103.26 412.57 103.81 412.27L163.21 379.67C162.27 375.28 161.18 370.85 160.12 366.54C157.13 354.42 154.04 341.9 154.04 329.01V229.32H135.62C135.51 229.94 135.37 230.58 135.23 231.24C134.99 232.31 134.8 233.23 134.64 234C134 237.1 133.7 238.51 131.87 238.51C130.04 238.51 129.75 237.1 129.1 234C128.94 233.23 128.75 232.31 128.51 231.24C128.36 230.58 128.24 229.94 128.12 229.32H127.35L119.83 230.85C119.69 231.71 119.51 232.61 119.31 233.54C119.07 234.61 118.88 235.53 118.72 236.3C118.08 239.4 117.78 240.81 115.95 240.81C114.12 240.81 113.83 239.4 113.18 236.3C113.02 235.53 112.83 234.61 112.59 233.54C112.5 233.14 112.42 232.75 112.34 232.37L88.06 237.3C87.9 238.28 87.7 239.34 87.46 240.44C87.22 241.51 87.03 242.43 86.87 243.2C86.23 246.3 85.93 247.71 84.1 247.71C82.27 247.71 81.98 246.3 81.33 243.2C81.17 242.43 80.98 241.51 80.74 240.44C80.62 239.9 80.51 239.37 80.41 238.85L70.93 240.77L7.10999 255.34V258.91C7.10999 259.25 7.01999 259.58 6.85999 259.88C6.62999 260.29 5.94999 261.52 4.51999 261.52C3.08999 261.52 2.39999 260.28 2.17999 259.87C2.01999 259.58 1.92999 259.25 1.92999 258.91V243.98C1.92999 240.29 3.29999 237.76 5.99999 236.44L116.24 185.31C116.72 185.08 117.39 184.71 118.18 184.27C115.93 183.21 115.01 179.19 114.95 178.05C114.4 168.16 114.28 162.27 114.95 151.44C114.99 149.55 116.69 146.07 119.34 146.07H134.87C137.51 146.07 139.21 149.55 139.26 151.44C139.69 158.49 139.81 163.57 139.63 169.64C144.81 165.65 149.62 161.59 153.98 157.54V56.0204C153.98 45.0204 158.87 30.7904 162.97 20.8004C168.39 7.59039 171.65 2.90039 175.43 2.90039C179.21 2.90039 182.46 7.58039 187.89 20.8004C191.99 30.7904 196.88 45.0104 196.88 56.0204V157.54C201.24 161.59 206.05 165.65 211.23 169.64C211.05 163.57 211.17 158.49 211.6 151.43C211.65 149.54 213.35 146.06 215.99 146.06H231.52C234.16 146.06 235.86 149.54 235.91 151.43C236.58 162.26 236.45 168.15 235.91 178.04C235.85 179.19 234.93 183.2 232.68 184.26C233.47 184.71 234.15 185.07 234.65 185.32L344.82 236.42C347.56 237.75 348.93 240.29 348.93 243.98V258.91C348.93 259.24 348.85 259.58 348.68 259.87C348.46 260.28 347.78 261.52 346.34 261.52C344.91 261.52 344.23 260.29 344 259.88C343.83 259.58 343.75 259.25 343.75 258.91V255.34L279.89 240.76L270.46 238.85C270.36 239.36 270.25 239.89 270.13 240.44C269.89 241.51 269.7 242.43 269.55 243.2C268.91 246.3 268.61 247.71 266.78 247.71C264.95 247.71 264.66 246.3 264.01 243.2C263.85 242.43 263.66 241.51 263.43 240.44C263.19 239.33 262.99 238.28 262.83 237.3L238.55 232.37C238.47 232.76 238.39 233.15 238.3 233.54C238.06 234.61 237.87 235.53 237.72 236.3C237.08 239.4 236.78 240.81 234.95 240.81C233.12 240.81 232.83 239.4 232.18 236.3C232.02 235.53 231.83 234.61 231.6 233.54C231.39 232.59 231.22 231.7 231.07 230.85L223.55 229.32H222.78C222.66 229.94 222.53 230.58 222.39 231.24C222.15 232.31 221.96 233.23 221.81 234C221.17 237.1 220.87 238.51 219.04 238.51C217.21 238.51 216.92 237.1 216.27 234C216.11 233.23 215.92 232.31 215.69 231.24C215.55 230.58 215.42 229.94 215.3 229.32H196.88V329.01C196.88 341.89 193.79 354.42 190.8 366.54C189.74 370.84 188.65 375.28 187.71 379.66L247.11 412.26C247.66 412.56 248.04 413.11 248.13 413.73C248.79 418.32 248.79 421.14 248.13 426.32C248.06 426.87 247.76 427.37 247.31 427.7C246.97 427.95 246.56 428.08 246.14 428.08C246.01 428.08 245.87 428.07 245.74 428.04L179.43 414.58C178.06 417.73 176.94 418.89 175.42 418.89C173.9 418.89 172.78 417.73 171.41 414.58L105.1 428.04C104.97 428.07 104.83 428.08 104.7 428.08L104.78 428.09Z" fill="white"/>
<path d="M175.5 4.90039C178.44 4.90039 181.89 11.2904 186.11 21.5604C190.82 33.0504 194.95 46.2604 194.95 56.0204V158.41C201.07 164.16 207.55 169.39 213.46 173.79C213.1 165.9 213.13 160.34 213.67 151.52C213.67 150.37 214.87 148.07 216.06 148.07H231.59C232.79 148.07 233.98 150.37 233.98 151.52C234.62 161.81 234.55 167.65 233.98 177.94C233.98 179.09 232.79 182.54 231.59 182.54H230.6V185.34C231.99 186.16 233.09 186.76 233.85 187.13L344.06 238.25C346.42 239.4 347.01 241.7 347.01 243.99V258.92C346.79 259.33 346.61 259.53 346.42 259.53C346.23 259.53 346.05 259.33 345.83 258.92V253.75L280.41 238.82L268.91 236.48C268.76 237.49 268.55 238.66 268.25 240.01C267.42 243.81 267.13 245.71 266.85 245.71C266.57 245.71 266.28 243.81 265.45 240.01C265.06 238.25 264.82 236.81 264.68 235.62L237.01 230C236.87 230.91 236.68 231.94 236.42 233.11C235.59 236.91 235.3 238.81 235.02 238.81C234.74 238.81 234.46 236.91 233.62 233.11C233.28 231.56 233.06 230.26 232.91 229.16L223.82 227.32H221.15C221 228.32 220.79 229.47 220.5 230.81C219.67 234.61 219.38 236.51 219.1 236.51C218.82 236.51 218.54 234.61 217.7 230.81C217.41 229.47 217.2 228.32 217.05 227.32H194.94V329.01C194.94 346.71 189.04 363.57 185.51 380.7L246.21 414.01C246.86 418.54 246.82 421.2 246.21 426.07L178.28 412.28C177.15 415.19 176.18 416.88 175.49 416.88C174.8 416.88 173.83 415.2 172.7 412.28L104.77 426.07C104.16 421.2 104.12 418.54 104.77 414.01L165.47 380.7C161.94 363.56 156.04 346.7 156.04 329.01V227.32H133.93C133.78 228.32 133.57 229.47 133.28 230.81C132.45 234.61 132.16 236.51 131.88 236.51C131.6 236.51 131.31 234.61 130.48 230.81C130.19 229.47 129.98 228.32 129.83 227.32H127.16L118.07 229.16C117.92 230.26 117.7 231.55 117.36 233.11C116.53 236.91 116.24 238.81 115.96 238.81C115.68 238.81 115.4 236.91 114.56 233.11C114.3 231.93 114.11 230.91 113.97 230L86.3 235.62C86.16 236.8 85.92 238.25 85.53 240.01C84.7 243.81 84.41 245.71 84.13 245.71C83.85 245.71 83.57 243.81 82.73 240.01C82.43 238.66 82.22 237.49 82.07 236.48L70.57 238.82L5.15 253.75V258.92C4.92 259.33 4.74 259.53 4.56 259.53C4.38 259.53 4.2 259.33 3.97 258.92V243.99C3.97 241.69 4.56 239.4 6.92 238.25L117.13 187.13C117.89 186.76 118.99 186.16 120.38 185.34V182.54H119.39C118.2 182.54 117 179.09 117 177.94C116.43 167.65 116.36 161.81 117 151.52C117 150.37 118.2 148.07 119.39 148.07H134.92C136.11 148.07 137.31 150.37 137.31 151.52C137.85 160.34 137.88 165.9 137.52 173.79C143.44 169.39 149.91 164.16 156.03 158.41V56.0204C156.03 46.2604 160.16 33.0504 164.87 21.5604C169.09 11.2904 172.54 4.90039 175.48 4.90039M175.48 0.900391C170.06 0.900391 166.27 7.63039 161.17 20.0404C157 30.2004 152.03 44.6904 152.03 56.0204V156.66C148.83 159.6 145.4 162.54 141.76 165.46C141.79 161.03 141.64 156.76 141.31 151.35C141.23 148.32 138.76 144.06 134.92 144.06H119.39C115.56 144.06 113.09 148.32 113 151.35C112.33 162.19 112.46 168.39 113 178.15C113.06 179.32 113.61 181.79 114.88 183.75L5.26 234.61C5.26 234.61 5.21 234.63 5.19 234.64C2.82 235.79 0 238.35 0 243.98V258.91C0 259.58 0.17 260.24 0.49 260.83C1.77 263.18 3.61 263.53 4.59 263.53C5.78 263.53 7.45 263.07 8.68 260.86C9.01 260.27 9.18 259.6 9.18 258.92V256.94L71.44 242.73L78.92 241.21C79.12 242.13 79.29 242.93 79.43 243.61C79.65 244.65 79.8 245.41 79.95 245.99C80.79 249.23 82.94 249.71 84.15 249.71C85.36 249.71 87.51 249.23 88.35 245.99C88.5 245.41 88.66 244.65 88.88 243.61C89.04 242.85 89.23 241.94 89.46 240.87C89.6 240.23 89.73 239.6 89.84 238.99L110.83 234.73C110.99 235.48 111.13 236.14 111.25 236.71C111.47 237.75 111.62 238.51 111.78 239.09C112.62 242.33 114.77 242.81 115.98 242.81C117.19 242.81 119.34 242.33 120.18 239.09C120.33 238.51 120.49 237.75 120.71 236.71C120.87 235.95 121.06 235.04 121.29 233.98C121.4 233.49 121.5 233.01 121.59 232.55L126.56 231.54C126.56 231.54 126.58 231.63 126.59 231.68C126.82 232.74 127.01 233.65 127.17 234.42C127.39 235.46 127.54 236.22 127.7 236.8C128.54 240.04 130.69 240.52 131.9 240.52C133.11 240.52 135.26 240.04 136.1 236.8C136.25 236.22 136.41 235.46 136.62 234.42C136.78 233.66 136.97 232.75 137.2 231.68C137.23 231.56 137.25 231.45 137.28 231.33H152.06V329.02C152.06 342.15 155.18 354.8 158.19 367.03C159.13 370.84 160.09 374.76 160.95 378.64L102.86 410.52C101.76 411.13 101 412.22 100.82 413.46C100.14 418.26 100.13 421.2 100.82 426.58C100.96 427.68 101.55 428.68 102.46 429.33C103.15 429.82 103.96 430.08 104.79 430.08C105.06 430.08 105.32 430.05 105.59 430L170.36 416.86C171.55 419.15 173.09 420.89 175.52 420.89C177.95 420.89 179.49 419.15 180.68 416.86L245.45 430C245.71 430.05 245.98 430.08 246.25 430.08C247.08 430.08 247.9 429.82 248.58 429.33C249.48 428.68 250.08 427.68 250.22 426.58C250.9 421.19 250.89 418.25 250.22 413.46C250.04 412.21 249.29 411.12 248.18 410.52L190.09 378.64C190.95 374.76 191.91 370.84 192.85 367.03C195.87 354.8 198.98 342.15 198.98 329.02V231.33H213.76C213.78 231.45 213.81 231.56 213.84 231.68C214.07 232.74 214.26 233.65 214.42 234.42C214.64 235.46 214.79 236.22 214.94 236.8C215.78 240.04 217.93 240.52 219.14 240.52C220.35 240.52 222.5 240.04 223.34 236.8C223.49 236.22 223.65 235.46 223.86 234.42C224.02 233.66 224.21 232.75 224.44 231.68C224.45 231.63 224.46 231.59 224.47 231.54L229.44 232.55C229.53 233.01 229.63 233.49 229.74 233.98C229.97 235.04 230.16 235.95 230.32 236.72C230.54 237.76 230.69 238.52 230.85 239.1C231.69 242.34 233.84 242.82 235.05 242.82C236.26 242.82 238.41 242.34 239.25 239.1C239.4 238.52 239.56 237.76 239.78 236.72C239.9 236.15 240.04 235.48 240.2 234.74L261.19 239C261.3 239.61 261.43 240.23 261.57 240.88C261.8 241.94 261.99 242.85 262.15 243.62C262.37 244.66 262.52 245.42 262.68 246C263.52 249.24 265.67 249.72 266.88 249.72C268.09 249.72 270.24 249.24 271.08 246C271.23 245.42 271.39 244.66 271.6 243.62C271.74 242.94 271.91 242.14 272.11 241.22L279.59 242.74L341.85 256.95V258.93C341.85 259.61 342.02 260.28 342.36 260.88C343.59 263.08 345.26 263.55 346.45 263.55C347.43 263.55 349.27 263.2 350.55 260.85C350.87 260.26 351.04 259.6 351.04 258.93V244C351.04 238.37 348.22 235.82 345.85 234.66C345.83 234.65 345.8 234.64 345.78 234.63L236.14 183.77C237.41 181.81 237.96 179.34 238.02 178.17C238.56 168.41 238.69 162.21 238.02 151.37C237.94 148.34 235.47 144.08 231.63 144.08H216.1C212.27 144.08 209.8 148.34 209.71 151.37C209.38 156.78 209.23 161.04 209.26 165.48C205.62 162.56 202.18 159.62 198.99 156.68V56.0204C198.99 44.6904 194.02 30.2004 189.85 20.0404C184.75 7.63039 180.97 0.900391 175.54 0.900391L175.48 0.900391Z" fill="black"/>
</g>
<defs>
<clipPath id="clip0_595_2620">
<rect width="351" height="429.18" fill="white" transform="translate(0 0.900391)"/>
</clipPath>
</defs>
</svg>
