<svg width="611" height="645" viewBox="0 0 611 645" fill="none" xmlns="http://www.w3.org/2000/svg">
<g clip-path="url(#clip0_436_22)">
<path d="M412.48 643C412.23 643 411.97 642.95 411.74 642.86C373.09 627.69 353.18 620.03 315.21 606.72C311.11 621.73 307.81 632.81 307.78 632.93C307.53 633.78 306.75 634.36 305.86 634.36C304.97 634.36 304.19 633.77 303.95 632.92C303.92 632.8 300.6 621.37 296.48 606.27C258.34 619.64 237.72 627.73 200.82 642.21L199.99 642.54C199.75 642.63 199.5 642.68 199.25 642.68C198.62 642.68 198.01 642.37 197.63 641.87C196.38 640.22 195.04 622.16 195.67 619.88C196.47 617.02 200.92 612.31 201.8 611.39C201.86 611.33 201.91 611.28 201.97 611.23C202.44 610.85 249.19 572.68 278.66 547.82C279.42 547.18 280.63 545.05 281.5 543.16C275.79 510.58 271.69 462.98 271.64 462.5C271.64 462.44 271.64 462.39 271.64 462.33V354.07H226.13L224.86 358.31C224.61 359.16 223.83 359.73 222.94 359.73C222.05 359.73 221.28 359.15 221.02 358.3L219.8 354.24L198.67 356.35L169.43 366.29L168.02 371C167.77 371.85 166.99 372.43 166.1 372.43C165.21 372.43 164.44 371.85 164.18 371.01L163.38 368.35L115.67 384.56L114.52 388.39C114.27 389.24 113.49 389.82 112.6 389.82C111.71 389.82 110.94 389.24 110.68 388.4L110.1 386.46L79.7201 396.79L5.72009 427.98C5.47009 428.09 5.21009 428.14 4.94009 428.14C4.55009 428.14 4.17009 428.03 3.83009 427.81C3.27009 427.44 2.94009 426.81 2.94009 426.14V407.87C2.94009 407.67 2.97009 407.46 3.03009 407.27C3.99009 404.24 5.08009 402.69 7.69009 400.65C7.72009 400.63 7.75009 400.6 7.79009 400.58L197.8 269.69C196.76 266.38 196.05 263.75 195.25 259.75H193.25C192.31 259.75 191.5 259.1 191.3 258.18C186.88 238.01 187.68 226.54 191.29 206.91C191.46 205.96 192.29 205.27 193.26 205.27C199.57 205.27 204.47 205.28 209.25 205.28C214.29 205.28 219.2 205.28 225.47 205.27C226.44 205.27 227.28 205.97 227.44 206.93C230.15 222.8 230.39 232.87 228.18 248.76L271.62 218.84V91.36C271.62 91.29 271.62 91.22 271.63 91.15C271.78 89.77 275.37 57.25 283.74 37.77C284.76 35.39 285.84 32.69 286.98 29.84C290.04 22.18 293.51 13.51 297.04 8.23003C300.24 3.44003 305.12 2.14003 305.33 2.09003C305.49 2.05003 305.66 2.03003 305.83 2.03003C306 2.03003 306.16 2.05003 306.33 2.09003C306.54 2.14003 311.42 3.44003 314.62 8.23003C318.15 13.52 321.62 22.19 324.68 29.84C325.85 32.76 326.92 35.43 327.93 37.79C336.3 57.28 339.89 89.82 340.04 91.2C340.04 91.27 340.05 91.34 340.05 91.41V218.95L383.49 248.89C381.28 232.99 381.53 222.92 384.23 207.04C384.39 206.08 385.23 205.38 386.2 205.38C392.48 205.38 397.38 205.39 402.42 205.39C407.19 205.39 412.1 205.39 418.41 205.38C419.37 205.38 420.2 206.07 420.38 207.02C423.99 226.66 424.79 238.13 420.37 258.32C420.17 259.24 419.36 259.89 418.42 259.89H416.42C415.62 263.9 414.91 266.53 413.87 269.84L603.88 400.79C603.88 400.79 603.94 400.84 603.98 400.86C606.6 402.9 607.69 404.45 608.64 407.48C608.7 407.68 608.73 407.88 608.73 408.08V426.36C608.73 427.03 608.39 427.66 607.84 428.03C607.51 428.25 607.12 428.36 606.73 428.36C606.47 428.36 606.2 428.31 605.95 428.2L531.95 396.99L500.9 386.43L500.31 388.4C500.06 389.25 499.28 389.83 498.39 389.83C497.51 389.83 496.73 389.25 496.47 388.4L495.31 384.53L447.62 368.32L446.81 371.02C446.56 371.87 445.78 372.45 444.89 372.45C444 372.45 443.23 371.87 442.97 371.03L441.54 366.27L412.98 356.56L391.15 354.37L389.97 358.32C389.72 359.17 388.94 359.75 388.05 359.75C387.16 359.75 386.39 359.17 386.13 358.33L384.91 354.27H340.01V462.59C340.01 462.65 340.01 462.7 340.01 462.76C339.97 463.24 335.87 510.87 330.15 543.46C331.04 545.38 332.23 547.48 332.99 548.12C362.46 573 409.22 611.18 409.68 611.57C409.74 611.62 409.8 611.67 409.85 611.73C410.73 612.65 415.19 617.37 415.98 620.23C416.62 622.51 415.27 640.58 414.02 642.23C413.64 642.73 413.03 643.04 412.4 643.04L412.48 643Z" fill="white"/>
<path d="M305.86 3.99998C305.86 3.99998 310.18 5.10998 312.98 9.31998C316.39 14.44 319.78 22.91 322.85 30.57C323.99 33.42 325.09 36.16 326.12 38.57C334.47 58.01 338.08 91.4 338.08 91.4V220L386.17 253.15C383.35 235.01 383.25 224.9 386.24 207.38C392.51 207.38 397.41 207.39 402.45 207.39C407.23 207.39 412.13 207.39 418.45 207.38C422.07 227.11 422.77 238.16 418.45 257.89H414.8C413.81 263.14 413.06 265.95 411.55 270.64L602.78 402.43C605.02 404.18 605.92 405.39 606.77 408.08V426.36L532.71 395.12L499.63 383.87L498.44 387.82L496.98 382.97L446.35 365.76L444.95 370.44L443.23 364.69L413.48 354.57L390.23 352.24H389.76L388.11 357.72L386.46 352.24H338.08V462.56C338.08 462.56 333.96 510.79 328.14 543.69C328.36 544.2 330.19 548.28 331.77 549.62C361.6 574.79 408.49 613.09 408.49 613.09C408.49 613.09 413.44 618.22 414.14 620.73C414.83 623.22 412.93 641 412.49 641C412.49 641 412.49 641 412.48 641C374.23 625.98 353.61 618.04 313.86 604.13C313.72 604.64 313.58 605.15 313.44 605.66C309.23 621.09 305.87 632.36 305.87 632.36C305.87 632.36 302.27 619.95 297.85 603.67C258.38 617.47 237.82 625.54 200.1 640.34L199.27 640.67C199.27 640.67 199.27 640.67 199.26 640.67C198.82 640.67 196.92 622.9 197.61 620.41C198.31 617.9 203.26 612.77 203.26 612.77C203.26 612.77 250.15 574.5 279.98 549.34C281.56 548 283.39 543.93 283.61 543.42C277.79 510.54 273.67 462.33 273.67 462.33V352.07H224.67L222.97 357.73L221.28 352.09L198.28 354.39L167.85 364.73L166.14 370.43L164.75 365.78L114.1 382.99L112.65 387.81L111.47 383.88L79.0601 394.9L5.00008 426.12V407.85C5.85008 405.17 6.75008 403.95 8.99008 402.2L200.22 270.47C198.7 265.78 197.95 262.98 196.97 257.73H193.32C189 238.02 189.7 226.96 193.32 207.25C199.63 207.25 204.53 207.26 209.3 207.26C214.35 207.26 219.25 207.26 225.54 207.25C228.53 224.76 228.43 234.87 225.6 253L273.69 219.87V91.35C273.69 91.35 277.3 57.97 285.65 38.54C286.68 36.14 287.78 33.4 288.92 30.55C291.98 22.9 295.37 14.43 298.79 9.31998C301.6 5.10998 305.91 4.00998 305.91 4.00998M305.91 0.00998047C305.58 0.00998047 305.24 0.0499805 304.92 0.13998C304.33 0.28998 299.02 1.77998 295.46 7.10998C291.81 12.57 288.3 21.34 285.21 29.08C284.07 31.93 282.99 34.62 281.98 36.98C273.49 56.73 269.87 89.55 269.72 90.94C269.7 91.08 269.7 91.23 269.7 91.37V217.8L230.81 244.59C232.41 230.93 231.97 221.19 229.48 206.61C229.15 204.69 227.49 203.28 225.54 203.28C219.26 203.28 214.36 203.29 209.31 203.29C204.54 203.29 199.64 203.29 193.34 203.28C191.41 203.28 189.76 204.66 189.41 206.56C185.75 226.47 184.94 238.11 189.44 258.62C189.84 260.46 191.47 261.76 193.35 261.76H193.72C194.29 264.45 194.85 266.57 195.55 268.89L6.68008 398.91C6.61008 398.96 6.55008 399 6.49008 399.05C3.57008 401.33 2.23008 403.24 1.15008 406.64C1.03008 407.03 0.960083 407.44 0.960083 407.84V426.11C0.960083 427.45 1.63008 428.7 2.75008 429.44C3.42008 429.88 4.19008 430.11 4.96008 430.11C5.49008 430.11 6.01008 430.01 6.51008 429.8L80.4401 398.64L108.79 389C109.31 390.67 110.86 391.81 112.61 391.81C114.36 391.81 115.93 390.65 116.44 388.96L117.29 386.12L162.07 370.9L162.27 371.57C162.78 373.26 164.33 374.42 166.1 374.42C167.87 374.42 169.42 373.26 169.93 371.57L171.05 367.84L199.1 358.31L218.36 356.38L219.1 358.86C219.61 360.55 221.16 361.71 222.93 361.71C224.7 361.71 226.25 360.55 226.76 358.86L227.6 356.05H269.62V462.31C269.62 462.42 269.62 462.54 269.63 462.65C269.67 463.13 273.73 510.21 279.4 542.86C278.59 544.52 277.72 545.92 277.33 546.28C247.88 571.12 201.14 609.28 200.67 609.66C200.55 609.76 200.43 609.87 200.32 609.98C198.62 611.74 194.58 616.17 193.7 619.32C193.5 620.03 193.04 621.7 193.94 631.56C194.86 641.58 195.36 642.23 195.99 643.06C196.75 644.06 197.95 644.66 199.2 644.66C199.7 644.66 200.2 644.56 200.67 644.38L201.5 644.05C237.72 629.84 258.23 621.79 295.06 608.85C298.92 622.92 301.94 633.34 301.97 633.46C302.46 635.16 304.02 636.34 305.8 636.35C305.8 636.35 305.8 636.35 305.81 636.35C307.58 636.35 309.14 635.19 309.64 633.49C309.67 633.38 312.68 623.28 316.52 609.31C353.15 622.17 373.02 629.82 410.96 644.71C411.43 644.89 411.93 644.99 412.43 644.99C413.68 644.99 414.89 644.39 415.64 643.39C416.27 642.56 416.76 641.91 417.69 631.89C418.6 622.03 418.13 620.36 417.93 619.64C417.05 616.49 413.01 612.05 411.31 610.29C411.2 610.18 411.08 610.07 410.96 609.97C410.49 609.59 363.75 571.41 334.29 546.54C333.91 546.19 333.05 544.79 332.24 543.13C337.91 510.47 341.97 463.36 342.01 462.88C342.01 462.77 342.02 462.65 342.02 462.54V356.22H383.43L384.22 358.85C384.73 360.54 386.28 361.7 388.05 361.7C389.82 361.7 391.37 360.54 391.88 358.85L392.59 356.48L412.55 358.48L439.92 367.78L441.05 371.55C441.56 373.24 443.11 374.4 444.88 374.4C446.65 374.4 448.2 373.24 448.71 371.55L448.92 370.84L493.67 386.06L494.53 388.94C495.04 390.63 496.59 391.79 498.36 391.79C500.13 391.79 501.67 390.64 502.19 388.96L531.2 398.82L605.13 430C605.63 430.21 606.16 430.31 606.68 430.31C607.46 430.31 608.23 430.08 608.89 429.64C610.01 428.9 610.68 427.65 610.68 426.31V408.03C610.68 407.62 610.62 407.22 610.49 406.83C609.42 403.43 608.07 401.51 605.15 399.23C605.09 399.18 605.02 399.13 604.96 399.09L416.16 268.97C416.86 266.65 417.42 264.53 417.99 261.84H418.36C420.24 261.84 421.87 260.53 422.27 258.7C426.76 238.18 425.96 226.54 422.3 206.61C421.95 204.71 420.3 203.33 418.37 203.33C412.06 203.33 407.15 203.34 402.37 203.34C397.33 203.34 392.43 203.34 386.16 203.33C384.21 203.33 382.54 204.74 382.22 206.66C379.74 221.24 379.3 230.99 380.89 244.66L342 217.86V91.37C342 91.23 342 91.08 341.98 90.94C341.83 89.55 338.21 56.72 329.72 36.96C328.71 34.6 327.63 31.92 326.49 29.07C323.39 21.31 319.88 12.54 316.23 7.07998C312.67 1.74998 307.37 0.25998 306.77 0.10998C306.44 0.0299805 306.11 -0.0200195 305.78 -0.0200195L305.91 0.00998047Z" fill="black"/>
</g>
<defs>
<clipPath id="clip0_436_22">
<rect width="609.8" height="645" fill="white" transform="translate(0.960083)"/>
</clipPath>
</defs>
</svg>
