<svg width="601" height="570" viewBox="0 0 601 570" fill="none" xmlns="http://www.w3.org/2000/svg">
<g clip-path="url(#clip0_508_35)">
<path d="M398.593 568.014C398.383 568.014 398.172 567.974 397.961 567.905L311.458 536.733C310.797 539.504 310.166 542.245 309.544 545.055C308.185 551.192 305.314 560.526 305.199 560.924C304.94 561.748 304.204 562.304 303.371 562.304H297.629C296.796 562.304 296.059 561.748 295.811 560.924C295.686 560.526 292.815 551.192 291.466 545.055C290.844 542.255 290.212 539.514 289.552 536.733L203.048 567.905C202.847 567.974 202.627 568.014 202.416 568.014C201.967 568.014 201.526 567.845 201.172 567.537C200.655 567.08 200.416 566.365 200.531 565.67L202.445 554.727C202.464 554.598 202.503 554.469 202.55 554.34C203.718 551.341 205.651 547.22 208.264 544.608L276.412 481.531C272.632 460.747 269.914 428.98 269.895 428.662C269.895 428.602 269.895 428.543 269.895 428.493V314.354H219.327C218.714 322.437 217.25 325.774 214.389 325.774C211.527 325.774 210.053 322.437 209.45 314.354H189.899L161.045 327.174C160.509 336.3 159.026 340.054 156.011 340.054C152.997 340.054 151.896 336.201 151.341 331.484L117.98 346.31C117.434 355.366 115.951 359.09 112.946 359.09C109.941 359.09 108.84 355.287 108.285 350.61L24.461 387.848L15.1015 395.763L5.1008 404.769C4.7467 405.087 4.29691 405.256 3.84712 405.256C3.57916 405.256 3.31119 405.197 3.0528 405.077C2.37333 404.75 1.93311 404.045 1.93311 403.27V391.85C1.93311 391.493 2.02881 391.135 2.20107 390.827L2.62215 390.102C9.2542 378.603 13.6373 371.016 21.9441 359.706C22.0685 359.527 22.2312 359.378 22.4035 359.259L191.526 242.588C191.459 242.329 191.401 242.071 191.334 241.813C191.114 241.763 190.904 241.674 190.722 241.555L190.502 241.783C190.138 242.161 189.65 242.379 189.143 242.379C188.635 242.379 188.138 242.171 187.784 241.783L187.611 241.604C187.506 241.664 187.401 241.714 187.286 241.753L185.803 242.27C185.602 242.339 185.401 242.379 185.19 242.379C184.884 242.379 184.568 242.3 184.291 242.151C183.822 241.892 183.487 241.446 183.343 240.919C177.735 219.658 175.831 206.004 179.343 181.258C179.362 181.139 179.381 181.03 179.42 180.92C180.587 177.286 181.582 175.578 183.879 173.334C184.233 172.986 184.702 172.787 185.19 172.787H215.853C216.341 172.787 216.81 172.986 217.164 173.334C219.451 175.578 220.456 177.286 221.623 180.92C221.662 181.03 221.681 181.139 221.7 181.258C223.968 197.256 224.093 208.685 221.997 221.565L269.904 188.517V92.4909C269.914 91.5773 270.22 70.6541 273.302 56.3644C277.321 37.7053 281.609 21.1416 293.361 7.40796C296.93 3.23722 299.62 2.19454 299.916 2.08531C300.117 2.0158 300.328 1.97607 300.538 1.97607C300.749 1.97607 300.959 2.0158 301.16 2.08531C301.457 2.19454 304.137 3.22729 307.716 7.40796C319.458 21.1416 323.746 37.6954 327.775 56.3644C330.856 70.6541 331.162 91.5773 331.172 92.4611V188.507L379.08 221.555C376.984 208.676 377.108 197.236 379.376 181.248C379.396 181.129 379.415 181.02 379.453 180.91C380.621 177.276 381.625 175.568 383.913 173.324C384.267 172.976 384.736 172.777 385.224 172.777H415.886C416.374 172.777 416.843 172.976 417.197 173.324C419.485 175.568 420.489 177.266 421.657 180.91C421.695 181.02 421.714 181.139 421.734 181.248C425.246 205.984 423.341 219.649 417.733 240.909C417.59 241.436 417.255 241.883 416.786 242.141C416.508 242.3 416.192 242.369 415.886 242.369C415.676 242.369 415.475 242.339 415.274 242.26L413.79 241.743C413.676 241.704 413.57 241.654 413.465 241.595L413.293 241.773C412.929 242.151 412.441 242.369 411.934 242.369C411.427 242.369 410.929 242.161 410.575 241.773L410.355 241.545C410.163 241.664 409.953 241.753 409.742 241.803C409.675 242.061 409.618 242.319 409.551 242.578L578.673 359.249C578.845 359.368 579.008 359.527 579.132 359.696C587.43 370.996 591.813 378.583 598.435 390.063L598.866 390.807C599.048 391.115 599.134 391.473 599.134 391.83V403.25C599.134 404.025 598.694 404.73 598.014 405.057C597.756 405.177 597.488 405.236 597.22 405.236C596.77 405.236 596.32 405.067 595.966 404.75L585.918 395.703L576.606 387.828L492.782 350.59C492.227 355.257 491.107 359.07 488.121 359.07C485.135 359.07 483.633 355.346 483.087 346.29L449.726 331.464C449.171 336.181 448.051 340.034 445.056 340.034C442.06 340.034 440.558 336.28 440.022 327.154L411.168 314.334H391.617C391.004 322.417 389.54 325.754 386.678 325.754C383.817 325.754 382.343 322.417 381.74 314.334H331.172V428.473C331.172 428.533 331.172 428.592 331.172 428.642C331.143 428.97 328.425 460.727 324.655 481.511L392.746 544.539C395.416 547.2 397.349 551.321 398.507 554.32C398.555 554.449 398.593 554.578 398.612 554.707L400.526 565.651C400.651 566.346 400.402 567.051 399.885 567.517C399.531 567.825 399.091 567.994 398.641 567.994L398.593 568.014Z" fill="white"/>
<path d="M300.5 3.97229C300.5 3.97229 302.902 4.8263 306.242 8.72891C317.659 22.0653 321.803 37.9935 325.861 56.7916C328.933 71.0416 329.21 92.4812 329.21 92.4812V189.57L381.75 225.815C378.946 211.615 378.649 199.699 381.224 181.536C382.353 178.031 383.243 176.67 385.176 174.764H415.838C417.772 176.66 418.671 178.031 419.791 181.536C423.198 205.498 421.58 218.586 415.838 240.383L414.355 239.867L413.369 238.824L411.886 240.383L410.403 238.824L409.292 239.867H408.182C407.886 241.148 407.599 242.33 407.292 243.442L577.563 360.908C585.803 372.119 590.09 379.557 596.76 391.116L597.182 391.84V403.26L587.133 394.214L577.563 386.121L491.097 347.71C490.686 352.993 489.805 357.094 488.083 357.094C486.064 357.094 485.212 351.494 484.896 344.959L448.042 328.584C447.63 333.907 446.75 338.058 445.018 338.058C442.989 338.058 442.137 332.398 441.821 325.824L411.522 312.358H389.789C389.444 318.585 388.573 323.778 386.64 323.778C384.707 323.778 383.836 318.585 383.492 312.358H329.22V428.483C329.22 428.483 326.435 461.382 322.521 482.266L391.425 546.038C393.808 548.422 395.607 552.294 396.689 555.085L398.603 566.028L310.118 534.142C309.324 537.429 308.51 540.885 307.687 544.608C306.328 550.735 303.381 560.318 303.381 560.318H297.639C297.639 560.318 294.691 550.735 293.332 544.608C292.509 540.885 291.696 537.419 290.901 534.142L202.416 566.028L204.33 555.085C205.412 552.294 207.211 548.422 209.594 546.038L278.498 482.266C274.584 461.382 271.799 428.483 271.799 428.483V312.358H217.528C217.183 318.585 216.312 323.778 214.379 323.778C212.446 323.778 211.575 318.585 211.23 312.358H189.497L159.198 325.824C158.882 332.407 158.03 338.058 156.002 338.058C154.269 338.058 153.389 333.907 152.977 328.584L116.123 344.959C115.807 351.494 114.946 357.094 112.936 357.094C111.214 357.094 110.333 352.993 109.922 347.71L23.4562 386.121L13.8862 394.214L3.8376 403.26V391.84L4.25868 391.116C10.929 379.557 15.2164 372.119 23.4562 360.908L193.727 243.442C193.43 242.33 193.133 241.148 192.837 239.867H191.727L190.617 238.824L189.133 240.383L187.65 238.824L186.664 239.867L185.181 240.383C179.429 218.586 177.821 205.498 181.228 181.536C182.358 178.031 183.248 176.67 185.181 174.764H215.843C217.776 176.66 218.676 178.031 219.796 181.536C222.38 199.699 222.073 211.615 219.269 225.815L271.809 189.57V92.4812C271.809 92.4812 272.086 71.0317 275.158 56.7916C279.216 37.9935 283.36 22.0653 294.777 8.72891C298.117 4.8263 300.519 3.97229 300.519 3.97229M300.519 0.000164689C300.098 0.000164689 299.677 0.0696769 299.275 0.218632C298.71 0.417238 295.725 1.63867 291.916 6.09738C279.867 20.1786 275.503 37.0005 271.426 55.9376C268.306 70.4259 268 91.5577 267.981 92.4415C267.981 92.4613 267.981 92.4812 267.981 92.4911V187.445L224.523 217.424C225.959 206.064 225.624 195.32 223.585 180.96C223.557 180.732 223.499 180.503 223.432 180.285C222.159 176.333 221.001 174.367 218.475 171.884C217.767 171.189 216.819 170.802 215.843 170.802H185.181C184.205 170.802 183.257 171.189 182.549 171.884C180.022 174.367 178.865 176.333 177.592 180.285C177.525 180.503 177.467 180.732 177.439 180.96C173.878 206.054 175.812 219.897 181.487 241.436C181.764 242.488 182.453 243.382 183.382 243.899C183.937 244.206 184.559 244.365 185.181 244.365C185.296 244.365 185.401 244.365 185.516 244.355L21.3317 357.601C20.9776 357.849 20.6618 358.147 20.4034 358.504C12.0296 369.894 7.62734 377.531 0.966576 389.08L0.545494 389.805C0.191401 390.42 0 391.125 0 391.85V403.27C0 404.829 0.870876 406.239 2.23939 406.885C2.74661 407.123 3.2921 407.242 3.82803 407.242C4.73718 407.242 5.6272 406.915 6.33538 406.269L16.3361 397.262L25.4468 389.566L106.754 353.44C107.501 357.253 109.108 361.066 112.927 361.066C118.066 361.066 119.32 354.522 119.798 347.641L149.791 334.314C150.518 338.217 152.107 342.03 155.992 342.03C161.15 342.03 162.394 335.436 162.863 328.505L190.272 316.33H207.68C207.881 318.326 208.149 319.995 208.484 321.375C209.757 326.648 212.388 327.76 214.369 327.76C216.35 327.76 218.982 326.658 220.255 321.375C220.59 319.995 220.858 318.326 221.059 316.33H267.962V428.483C267.962 428.602 267.962 428.712 267.981 428.831C268.096 430.132 270.641 459.972 274.326 480.796L207.039 543.069C207.039 543.069 206.962 543.139 206.933 543.178C204.637 545.472 202.57 548.978 200.78 553.595C200.684 553.844 200.608 554.102 200.56 554.37L198.646 565.313C198.407 566.703 198.885 568.123 199.919 569.037C200.627 569.663 201.507 569.99 202.407 569.99C202.828 569.99 203.249 569.921 203.661 569.772L288.183 539.315C288.662 541.371 289.131 543.417 289.59 545.492C290.968 551.709 293.858 561.122 293.983 561.52C294.49 563.168 295.964 564.28 297.629 564.28H303.371C305.036 564.28 306.51 563.168 307.017 561.52C307.142 561.122 310.032 551.709 311.41 545.492C311.869 543.417 312.338 541.371 312.817 539.315L397.339 569.772C397.751 569.921 398.172 569.99 398.593 569.99C399.493 569.99 400.383 569.663 401.081 569.037C402.115 568.123 402.603 566.703 402.354 565.313L400.44 554.37C400.392 554.102 400.325 553.844 400.22 553.595C398.43 548.978 396.354 545.472 394.066 543.178C394.028 543.139 393.99 543.109 393.961 543.069L326.674 480.796C330.359 459.982 332.914 430.142 333.019 428.831C333.029 428.712 333.038 428.602 333.038 428.483V316.33H379.941C380.142 318.326 380.41 319.995 380.745 321.375C382.018 326.648 384.65 327.76 386.631 327.76C388.612 327.76 391.243 326.658 392.516 321.375C392.851 319.995 393.119 318.326 393.32 316.33H410.728L438.137 328.505C438.606 335.436 439.859 342.03 445.008 342.03C448.893 342.03 450.482 338.217 451.209 334.314L481.202 347.641C481.68 354.522 482.934 361.066 488.073 361.066C491.892 361.066 493.5 357.253 494.246 353.44L575.553 389.566L584.664 397.262L594.665 406.269C595.373 406.905 596.272 407.242 597.172 407.242C597.708 407.242 598.253 407.123 598.761 406.885C600.12 406.239 601 404.829 601 403.27V391.85C601 391.135 600.809 390.43 600.455 389.805L600.033 389.08C593.373 377.531 588.97 369.894 580.597 358.504C580.338 358.157 580.022 357.849 579.668 357.601L415.503 244.345C415.609 244.345 415.724 244.355 415.829 244.355C416.451 244.355 417.063 244.197 417.628 243.889C418.556 243.372 419.245 242.488 419.523 241.426C425.208 219.887 427.141 206.044 423.571 180.95C423.542 180.722 423.485 180.494 423.418 180.275C422.145 176.323 420.987 174.357 418.461 171.874C417.752 171.179 416.805 170.792 415.829 170.792H385.166C384.19 170.792 383.243 171.179 382.535 171.874C380.008 174.357 378.85 176.323 377.577 180.275C377.51 180.494 377.453 180.722 377.424 180.95C375.386 195.31 375.051 206.054 376.486 217.414L333.029 187.435V92.4812C333.029 92.4812 333.029 92.4415 333.029 92.4315C333.019 91.5378 332.713 70.4061 329.583 55.9277C325.497 36.9906 321.143 20.1786 309.094 6.08745C305.275 1.62874 302.29 0.407308 301.735 0.208701C301.333 0.0696769 300.911 -0.00976562 300.49 -0.00976562L300.519 0.000164689Z" fill="black"/>
</g>
<defs>
<clipPath id="clip0_508_35">
<rect width="601" height="570" fill="white"/>
</clipPath>
</defs>
</svg>
