<svg width="261" height="618" viewBox="0 0 261 618" fill="none" xmlns="http://www.w3.org/2000/svg">
<g clip-path="url(#clip0_436_19)">
<path d="M130.46 616C130.3 616 130.13 615.98 129.97 615.94L129 615.7C128.18 615.49 127.58 614.8 127.5 613.96C127.42 613.13 119.4 531.62 116.46 478.48C112.47 478.11 101.98 477.13 90.15 476.06C89.65 477.07 88.92 477.71 87.74 478.23C87.49 478.34 87.21 478.4 86.94 478.4H76.78C76.53 478.4 76.28 478.35 76.05 478.26C75.73 478.14 75.44 478 75.18 477.85C74.93 478 74.68 478.12 74.44 478.23C74.19 478.34 73.91 478.4 73.63 478.4H63.47C63.22 478.4 62.97 478.35 62.74 478.26C61.19 477.65 60.36 476.83 59.69 475.23C59.59 474.98 59.54 474.72 59.54 474.46V473.39C41.33 471.9 14.52 469.93 14.24 469.91C14.1 469.9 13.96 469.87 13.82 469.83C8.90998 468.39 6.39998 466.99 2.63998 463.58C2.21998 463.2 1.97998 462.66 1.97998 462.1V451.68C1.99998 450.93 2.47998 434.23 12.59 413.96C18.59 401.93 26.44 390.97 34.76 379.36C43.98 366.49 53.52 353.18 61.92 336.66C71.68 317.48 76.11 305.36 82.82 287.01C83.75 284.46 84.73 281.8 85.76 278.98C99.24 242.38 113.05 177.72 113.93 173.6V133.35C113.93 133.35 113.93 133.26 113.93 133.22L117.31 83.22C117.23 82.12 116.78 75.52 117.34 71.77C117.71 69.33 118.74 66.83 119.12 65.96C119.41 63.27 119.72 60.61 119.99 58.26L120.31 55.55C121.31 47.07 121.98 41.46 123.38 32.27C125.08 21.15 128.44 3.77999 128.47 3.60999C128.65 2.66999 129.48 1.98999 130.43 1.98999C131.38 1.98999 132.21 2.66999 132.39 3.60999C132.42 3.77999 135.78 21.16 137.48 32.27C138.88 41.46 139.55 47.07 140.55 55.55L140.87 58.26C141.15 60.6 141.45 63.27 141.74 65.96C142.12 66.83 143.15 69.32 143.52 71.77C144.08 75.52 143.63 82.11 143.55 83.22L146.93 133.22C146.93 133.22 146.93 133.31 146.93 133.35V173.6C147.8 177.72 161.62 242.39 175.1 278.98C176.14 281.8 177.11 284.46 178.05 287.02C184.76 305.37 189.19 317.49 198.95 336.67C207.35 353.19 216.89 366.49 226.11 379.36C234.43 390.97 242.29 401.93 248.28 413.96C258.39 434.23 258.87 450.93 258.89 451.63V462.09C258.89 462.61 258.69 463.11 258.33 463.48C254.27 467.68 251.58 469.17 246.79 469.88C246.74 469.88 246.69 469.89 246.64 469.9C246.36 469.92 219.56 471.89 201.34 473.38V474.45C201.34 474.71 201.29 474.98 201.18 475.22C200.51 476.82 199.68 477.64 198.13 478.25C197.9 478.34 197.65 478.39 197.4 478.39H187.25C186.97 478.39 186.7 478.33 186.44 478.22C186.2 478.11 185.95 477.99 185.7 477.84C185.44 477.99 185.15 478.12 184.83 478.25C184.6 478.34 184.35 478.39 184.1 478.39H173.95C173.67 478.39 173.4 478.33 173.15 478.22C171.97 477.7 171.23 477.05 170.74 476.05C158.91 477.12 148.42 478.09 144.43 478.47C141.5 531.61 133.48 613.13 133.39 613.95C133.31 614.79 132.71 615.49 131.89 615.69L130.92 615.93C130.76 615.97 130.6 615.99 130.43 615.99L130.46 616Z" fill="white"/>
<path d="M130.46 4C130.46 4 133.82 21.38 135.54 32.59C137.08 42.68 137.72 48.37 138.92 58.51C139.21 60.94 139.52 63.71 139.83 66.5C139.83 66.5 141.18 69.37 141.58 72.07C142.15 75.91 141.58 83.21 141.58 83.21L144.97 133.36V173.82C144.97 173.82 159.19 241.49 173.26 279.69C181.73 302.67 186.02 315.61 197.2 337.59C213.36 369.36 234.07 389.89 246.53 414.87C256.55 434.97 256.93 451.69 256.93 451.69V462.11C253.18 465.99 250.91 467.28 246.53 467.92C246.53 467.92 217.79 470.03 199.38 471.55V474.46C198.91 475.58 198.47 476 197.45 476.4H187.3C186.5 476.05 186.1 475.7 185.81 475.04C185.42 475.74 184.98 476.08 184.15 476.4H174C172.99 475.95 172.62 475.53 172.31 474.46V473.91C156.47 475.33 142.57 476.64 142.57 476.64C139.69 530.29 131.45 613.76 131.45 613.76L130.48 614L129.51 613.76C129.51 613.76 121.27 530.3 118.39 476.64C118.39 476.64 104.48 475.33 88.65 473.91V474.46C88.34 475.53 87.97 475.95 86.96 476.4H76.8C75.97 476.08 75.53 475.74 75.14 475.04C74.85 475.7 74.46 476.05 73.65 476.4H63.49C62.46 476 62.03 475.59 61.56 474.46V471.55C43.16 470.03 14.41 467.92 14.41 467.92C9.84 466.58 7.55 465.32 4.01 462.11V451.69C4.01 451.69 4.39 434.97 14.41 414.87C26.86 389.89 47.57 369.36 63.74 337.59C74.92 315.61 79.21 302.67 87.68 279.69C101.75 241.49 115.97 173.82 115.97 173.82V133.36L119.36 83.21C119.36 83.21 118.79 75.9 119.36 72.07C119.76 69.36 121.11 66.5 121.11 66.5C121.42 63.71 121.73 60.93 122.02 58.51C123.22 48.37 123.86 42.68 125.41 32.59C127.12 21.38 130.49 4 130.49 4M130.46 0C128.54 0 126.9 1.36 126.53 3.24C126.5 3.41 123.13 20.82 121.42 31.98C120.01 41.21 119.34 46.84 118.34 55.35L118.02 58.03C117.77 60.11 117.49 62.6 117.18 65.44C116.69 66.59 115.75 69.01 115.38 71.47C114.81 75.31 115.21 81.63 115.33 83.22L111.96 133.08C111.96 133.17 111.96 133.26 111.96 133.35V173.39C110.76 179.05 97.16 242.33 83.92 278.29C82.88 281.11 81.91 283.77 80.97 286.32C74.29 304.6 69.87 316.68 60.17 335.75C51.84 352.13 42.34 365.38 33.17 378.19C24.8 389.86 16.9 400.89 10.83 413.06C0.51 433.75 0.02 450.88 0 451.6C0 451.63 0 451.66 0 451.69V462.11C0 463.24 0.48 464.31 1.31 465.07C5.28 468.68 8.08 470.24 13.27 471.76C13.54 471.84 13.82 471.89 14.1 471.91C14.37 471.93 39.5 473.78 57.62 475.25C57.67 475.51 57.75 475.76 57.85 476.01C58.73 478.12 59.94 479.32 62.02 480.13C62.48 480.31 62.98 480.41 63.48 480.41H73.64C74.18 480.41 74.71 480.3 75.21 480.09C75.25 480.11 75.29 480.12 75.33 480.14C75.79 480.32 76.29 480.42 76.79 480.42H86.95C87.51 480.42 88.05 480.3 88.56 480.08C89.68 479.59 90.54 478.98 91.19 478.18C101.07 479.07 109.93 479.89 114.58 480.33C117.59 533.54 125.44 613.36 125.53 614.18C125.7 615.86 126.9 617.26 128.54 617.67L129.51 617.91C129.83 617.99 130.15 618.03 130.48 618.03C130.81 618.03 131.13 617.99 131.45 617.91L132.42 617.67C134.06 617.26 135.26 615.86 135.43 614.18C135.51 613.36 143.36 533.54 146.38 480.33C151.03 479.9 159.89 479.08 169.77 478.18C170.42 478.98 171.28 479.59 172.4 480.08C172.91 480.3 173.46 480.42 174.01 480.42H184.16C184.66 480.42 185.15 480.33 185.62 480.14C185.66 480.13 185.7 480.11 185.74 480.09C186.24 480.3 186.77 480.41 187.31 480.41H197.46C197.96 480.41 198.45 480.32 198.92 480.13C200.99 479.32 202.2 478.12 203.09 476.01C203.19 475.76 203.27 475.51 203.32 475.25C221.44 473.78 246.57 471.93 246.84 471.91C246.94 471.91 247.04 471.89 247.13 471.88C252.37 471.1 255.45 469.4 259.82 464.89C260.54 464.14 260.94 463.15 260.94 462.11V451.69C260.94 451.69 260.94 451.63 260.94 451.6C260.92 450.88 260.43 433.75 250.12 413.08C244.05 400.91 236.15 389.88 227.78 378.21C218.6 365.4 209.11 352.16 200.78 335.77C191.08 316.7 186.66 304.62 179.98 286.35C179.05 283.8 178.07 281.13 177.03 278.3C163.78 242.34 150.19 179.06 148.99 173.4V133.36C148.99 133.27 148.99 133.18 148.99 133.09L145.62 83.23C145.74 81.64 146.14 75.32 145.57 71.48C145.2 69.02 144.26 66.59 143.77 65.45C143.46 62.61 143.17 60.12 142.93 58.04L142.61 55.36C141.6 46.85 140.94 41.22 139.52 31.99C137.82 20.83 134.45 3.42 134.42 3.25C134.02 1.36 132.37 0 130.46 0Z" fill="black"/>
</g>
<defs>
<clipPath id="clip0_436_19">
<rect width="260.91" height="618" fill="white"/>
</clipPath>
</defs>
</svg>
