<svg width="298" height="379" viewBox="0 0 298 379" fill="none" xmlns="http://www.w3.org/2000/svg">
<g clip-path="url(#clip0_514_47)">
<path d="M207.92 377C207.63 377 207.34 376.94 207.07 376.81L154.33 352.21C154.08 353.74 153.81 355.18 153.45 356.91C152.42 361.86 149.93 362.49 149.19 362.56C149.12 362.56 149.06 362.56 148.99 362.56C148.92 362.56 148.86 362.56 148.79 362.56C148.05 362.49 145.56 361.86 144.53 356.91C144.17 355.19 143.91 353.75 143.65 352.21L90.91 376.81C90.64 376.93 90.35 377 90.06 377C89.68 377 89.31 376.89 88.99 376.69C88.41 376.32 88.06 375.69 88.06 375V364.71C88.06 364.66 88.06 364.61 88.06 364.55C88.36 360.75 89.3 358.79 91.94 356.5L139.86 314.64C139.66 312.64 139.46 310.74 139.24 308.84C138.73 304.45 138.29 300.58 137.84 296.27L134.78 294.97L134.47 295.77V298.83C134.47 299.65 133.97 300.39 133.2 300.69C132.96 300.78 132.71 300.83 132.47 300.83C131.93 300.83 131.39 300.61 131.01 300.19L128.4 297.4H124.89C123.98 297.4 123.19 296.79 122.96 295.91C118.15 277.7 117.04 265.64 118.01 242.14C118.05 241.07 118.94 240.22 120.01 240.22H131.63C132.02 240.22 132.39 240.33 132.71 240.53C132.53 238.52 132.35 236.51 132.17 234.51C132.17 234.45 132.17 234.39 132.17 234.33V219.01H109.71C106.75 243.02 103.69 243.02 101.84 243.02C99.64 243.02 97.29 241.56 94.89 224.91L4.93002 268.74C4.65002 268.88 4.35002 268.94 4.05002 268.94C3.68002 268.94 3.31002 268.84 2.99002 268.64C2.41002 268.27 2.05002 267.63 2.05002 266.94V255.5C1.79002 250.36 2.35002 247.25 6.20002 243.55C6.24002 243.51 6.28002 243.48 6.32002 243.44L132.19 140.27V72.09C132.18 71.33 131.91 52.54 133.56 40.77C133.73 39.58 133.88 38.43 134.04 37.3C135.6 25.85 136.84 16.81 142.58 7.26001C144.98 3.26001 148.06 2.20001 148.41 2.10001C148.6 2.04001 148.81 2.01001 149.01 2.01001C149.21 2.01001 149.41 2.04001 149.61 2.10001C149.95 2.21001 153.03 3.27001 155.44 7.26001C161.19 16.81 162.42 25.85 163.98 37.3C164.13 38.43 164.29 39.59 164.46 40.78C166.11 52.55 165.84 71.34 165.83 72.13V140.28L291.69 243.45C291.69 243.45 291.77 243.52 291.81 243.56C295.66 247.27 296.22 250.37 295.96 255.51V266.95C295.96 267.64 295.6 268.28 295.02 268.65C294.7 268.85 294.33 268.95 293.96 268.95C293.66 268.95 293.36 268.88 293.08 268.75L203.1 224.95C200.7 241.6 198.35 243.06 196.15 243.06C194.3 243.06 191.24 243.06 188.28 219.05H165.82V234.37C165.82 234.43 165.82 234.49 165.82 234.55C165.64 236.55 165.46 238.56 165.28 240.57C165.59 240.37 165.97 240.26 166.36 240.26H177.98C179.05 240.26 179.93 241.11 179.98 242.18C180.96 265.68 179.85 277.74 175.03 295.95C174.8 296.83 174 297.44 173.1 297.44H169.59L166.98 300.23C166.59 300.64 166.06 300.87 165.52 300.87C165.27 300.87 165.02 300.83 164.79 300.73C164.03 300.43 163.52 299.69 163.52 298.87V295.81L163.21 295.01L160.14 296.31C159.66 300.94 159.18 305.08 158.74 308.88C158.51 310.87 158.31 312.81 158.12 314.68L206.05 356.54C208.68 358.82 209.63 360.78 209.93 364.58C209.93 364.63 209.93 364.68 209.93 364.74V375.03C209.93 375.71 209.58 376.35 209 376.72C208.67 376.93 208.3 377.03 207.93 377.03L207.92 377Z" fill="white"/>
<path d="M149 4C149 4 151.63 4.83 153.71 8.29C159.79 18.39 160.6 27.7 162.46 41.05C164.1 52.8 163.81 72.1 163.81 72.1V141.22L290.41 244.99C293.62 248.08 294.2 250.47 293.95 255.45V266.94L201.49 221.93C200.45 229.84 198.55 241.04 196.14 241.04C193.16 241.04 190.85 223.84 190.05 217.03H163.82V234.35C163.49 237.98 163.16 241.65 162.84 245.33H165.5C165.7 244.18 165.84 243.53 166.34 242.24H177.96C178.91 265.03 177.92 277.09 173.08 295.41H168.7L165.5 298.84V295.41L164.32 292.32L158.26 294.89C157.77 299.67 157.29 303.91 156.75 308.61C156.48 310.98 156.24 313.26 156.03 315.47L204.73 358.01C207 359.98 207.67 361.45 207.93 364.7V374.99L152.78 349.26C152.39 351.84 152.07 353.79 151.51 356.49C150.7 360.39 149.01 360.56 149.01 360.56C149.01 360.56 147.32 360.39 146.51 356.49C145.95 353.8 145.63 351.84 145.24 349.26L90.09 374.99V364.7C90.35 361.45 91.02 359.98 93.29 358.01L141.99 315.47C141.78 313.26 141.54 310.98 141.27 308.61C140.73 303.91 140.25 299.67 139.76 294.89L133.7 292.32L132.52 295.41V298.84L129.32 295.41H124.94C120.1 277.09 119.11 265.03 120.06 242.24H131.68C132.18 243.52 132.33 244.18 132.52 245.33H135.18C134.86 241.65 134.53 237.99 134.2 234.35V217.03H107.97C107.17 223.85 104.86 241.04 101.88 241.04C99.47 241.04 97.57 229.84 96.53 221.93L4.04998 266.94V255.45C3.78998 250.47 4.37998 248.08 7.58998 244.99L134.19 141.22V72.1C134.19 72.1 133.89 52.8 135.54 41.05C137.41 27.7 138.22 18.39 144.29 8.29C146.37 4.83 149 4 149 4ZM149 0C148.6 0 148.19 0.06 147.8 0.18C147.12 0.39 143.59 1.69 140.86 6.22C134.9 16.12 133.64 25.35 132.05 37.02C131.9 38.15 131.74 39.3 131.57 40.49C129.92 52.28 130.17 70.93 130.19 72.12V139.32L5.04998 241.89C4.96998 241.96 4.88998 242.03 4.80998 242.1C0.469981 246.29 -0.220019 250.07 0.0499815 255.55V266.94C0.0499815 268.32 0.759982 269.6 1.92998 270.33C2.57998 270.73 3.30998 270.94 4.04998 270.94C4.64998 270.94 5.24998 270.81 5.79998 270.54L93.34 227.93C93.8 230.81 94.29 233.31 94.78 235.39C95.64 239 97.09 245.05 101.86 245.05C106.63 245.05 108.28 239.07 109.64 232.4C110.41 228.6 111.04 224.35 111.48 221.04H130.18V234.36C130.18 234.48 130.18 234.6 130.2 234.72C130.31 235.89 130.41 237.07 130.52 238.25H120.04C117.9 238.25 116.13 239.94 116.04 242.08C115.05 265.81 116.18 278 121.05 296.44C121.51 298.2 123.1 299.42 124.92 299.42H127.56L129.57 301.58C130.34 302.41 131.41 302.85 132.5 302.85C132.99 302.85 133.49 302.76 133.97 302.57C135.07 302.14 135.9 301.25 136.28 300.17C136.6 303.11 136.92 305.96 137.29 309.08C137.47 310.65 137.64 312.21 137.8 313.82L90.65 355C87.63 357.62 86.43 360.08 86.09 364.39C86.09 364.49 86.08 364.6 86.08 364.7V374.99C86.08 376.36 86.78 377.63 87.93 378.36C88.58 378.78 89.33 378.99 90.08 378.99C90.66 378.99 91.23 378.87 91.77 378.61L142.15 355.11C142.28 355.81 142.42 356.52 142.58 357.3C143.89 363.59 147.52 364.42 148.6 364.53C148.73 364.54 148.86 364.55 149 364.55C149.14 364.55 149.26 364.55 149.4 364.53C150.48 364.42 154.11 363.58 155.42 357.3C155.58 356.52 155.72 355.8 155.85 355.11L206.23 378.61C206.77 378.86 207.35 378.99 207.92 378.99C208.67 378.99 209.42 378.78 210.07 378.36C211.22 377.63 211.92 376.35 211.92 374.99V364.7C211.92 364.6 211.92 364.49 211.91 364.39C211.57 360.08 210.38 357.62 207.34 354.99L160.2 313.82C160.36 312.21 160.53 310.64 160.71 309.08C161.03 306.3 161.37 303.35 161.72 300.17C162.1 301.25 162.93 302.13 164.03 302.57C164.51 302.76 165 302.85 165.5 302.85C166.59 302.85 167.65 302.41 168.43 301.58L170.44 299.42H173.08C174.9 299.42 176.48 298.2 176.95 296.44C181.82 278 182.95 265.81 181.96 242.08C181.87 239.94 180.11 238.25 177.96 238.25H167.48C167.59 237.07 167.69 235.89 167.8 234.72C167.81 234.6 167.82 234.48 167.82 234.36V221.04H186.52C186.96 224.36 187.59 228.6 188.36 232.4C189.72 239.07 191.34 245.05 196.14 245.05C200.94 245.05 202.35 239 203.22 235.39C203.72 233.31 204.2 230.81 204.66 227.93L292.2 270.54C292.75 270.81 293.35 270.94 293.95 270.94C294.69 270.94 295.42 270.74 296.07 270.33C297.24 269.6 297.95 268.32 297.95 266.94V255.55C298.22 250.07 297.53 246.29 293.19 242.11C293.11 242.04 293.03 241.96 292.95 241.9L167.82 139.33V72.13C167.84 70.94 168.08 52.29 166.44 40.5C166.27 39.31 166.12 38.16 165.96 37.03C164.37 25.35 163.11 16.13 157.15 6.23C154.42 1.7 150.89 0.4 150.21 0.19C149.82 0.07 149.41 0.01 149.01 0.01L149 0Z" fill="black"/>
</g>
<defs>
<clipPath id="clip0_514_47">
<rect width="298" height="379" fill="white"/>
</clipPath>
</defs>
</svg>
