<svg width="906" height="959" viewBox="0 0 906 959" fill="none" xmlns="http://www.w3.org/2000/svg">
<path d="M453 945.5V0C453 0 446.504 1.66702 442.275 8C435.218 18.5681 428.228 38.6676 422.5 52C409.934 81.2472 404.5 131.5 404.5 131.5V690C404.5 690 411.196 768.339 420.5 817.75C430.026 868.34 453 945.5 453 945.5Z" fill="#5987FF"/>
<path d="M289 382C290.506 390.022 291.649 394.247 294 401.5L332 375.5C336.344 347.806 336.529 332.565 332 306C313.595 306.026 303.039 306.028 283.5 306C278.044 335.68 276.999 352.32 283.5 382H289Z" fill="#5987FF"/>
<path d="M292.5 958.5C291.87 958.968 288.946 931.783 290 928C291.054 924.217 298.5 916.5 298.5 916.5C298.5 916.5 369.097 858.881 414 821C416.546 818.852 419.5 812 419.5 812L441.5 903C381.644 923.932 350.088 935.904 292.5 958.5Z" fill="#5987FF"/>
<path d="M6 599.5L404.5 325V524H326L291 527.5L111.5 588.5L0 635.5V608C1.2757 603.96 2.63361 602.129 6 599.5Z" fill="#5987FF"/>
<path d="M453 945.987V0C453 0 459.496 1.66788 463.725 8.00413C470.782 18.5776 477.772 38.6876 483.5 52.0268C496.066 81.2891 501.5 131.568 501.5 131.568V690.356C501.5 690.356 494.804 768.735 485.5 818.172C475.974 868.787 453 945.987 453 945.987Z" fill="#5987FF"/>
<path d="M617 382.197C615.494 390.223 614.351 394.451 612 401.707L574 375.694C569.656 347.985 569.471 332.737 574 306.158C592.405 306.183 602.961 306.186 622.5 306.158C627.956 335.853 629.001 352.502 622.5 382.197H617Z" fill="#5987FF"/>
<path d="M613.5 958.994C614.13 959.462 617.054 932.263 616 928.478C614.946 924.693 607.5 916.972 607.5 916.972C607.5 916.972 536.903 859.324 492 821.423C489.454 819.274 486.5 812.419 486.5 812.419L464.5 903.465C524.356 924.408 555.912 936.386 613.5 958.994Z" fill="#5987FF"/>
<path d="M900 599.809L501.5 325.168V524.27H580L615 527.772L794.5 588.803L906 635.828V608.313C904.724 604.271 903.366 602.439 900 599.809Z" fill="#5987FF"/>
</svg>
