<svg width="17" height="16" viewBox="0 0 17 16" fill="none" xmlns="http://www.w3.org/2000/svg">
<path d="M5.84869 5.6831L6.36879 5.60728L6.60128 5.1359L8.64108 1.00005C8.64143 1.00007 8.64176 1.0001 8.64208 1.00013C8.64212 1.00021 8.64216 1.0003 8.6422 1.00038C8.64226 1.0005 8.64232 1.00063 8.64238 1.00075L10.6818 5.1359L10.9143 5.60728L11.4344 5.6831L15.9987 6.34855C15.9988 6.3487 15.9988 6.34885 15.9989 6.34899L12.6962 9.5673L12.3195 9.93441L12.4085 10.4528L13.1893 14.9968C13.1892 14.9968 13.1892 14.9968 13.1892 14.9968L9.10683 12.851L8.64156 12.6065L8.17629 12.851L4.09381 14.9969L4.87458 10.4528L4.96366 9.93441L4.58692 9.5673L1.28424 6.34899C1.28429 6.34884 1.28433 6.3487 1.28438 6.34855C1.28438 6.34855 1.28439 6.34854 1.28439 6.34854L5.84869 5.6831Z" stroke="#3B6CEC" stroke-width="2"/>
</svg>
