<svg width="16" height="16" viewBox="0 0 16 16" fill="none" xmlns="http://www.w3.org/2000/svg">
<path d="M8.17224 5.34952C7.86189 5.29629 7.54272 5.35461 7.27125 5.51415C6.99978 5.67369 6.79354 5.92417 6.68905 6.2212C6.56687 6.56853 6.18626 6.75104 5.83893 6.62886C5.4916 6.50668 5.30909 6.12607 5.43127 5.77874C5.64025 5.18467 6.05274 4.68373 6.59567 4.36464C7.13861 4.04555 7.77695 3.92891 8.39765 4.03538C9.01834 4.14184 9.58133 4.46454 9.98689 4.94633C10.3924 5.42801 10.6143 6.03763 10.6135 6.66725C10.6132 7.68749 9.85678 8.36123 9.31663 8.72134C9.0262 8.91495 8.74053 9.05732 8.53008 9.15085C8.42392 9.19803 8.33451 9.23384 8.27009 9.25838C8.23783 9.27067 8.21167 9.2802 8.19263 9.28697L8.16947 9.29508L8.1621 9.2976L8.1595 9.29847L8.15848 9.29882C8.15848 9.29882 8.15764 9.2991 7.94683 8.66664L8.15764 9.2991C7.80835 9.41553 7.4308 9.22675 7.31437 8.87746C7.19802 8.5284 7.38646 8.15112 7.73531 8.03442L7.74595 8.03068C7.7562 8.02704 7.77301 8.02094 7.79543 8.0124C7.84039 7.99527 7.90724 7.96858 7.98857 7.93243C8.15312 7.8593 8.36745 7.75166 8.57702 7.61194C9.03676 7.30545 9.28016 6.9794 9.28016 6.66664L9.28016 6.66565C9.28063 6.35077 9.16964 6.04588 8.96686 5.80499C8.76408 5.5641 8.48258 5.40275 8.17224 5.34952Z" fill="#2052D4"/>
<path d="M8.00008 10.6666C7.63189 10.6666 7.33341 10.9651 7.33341 11.3333C7.33341 11.7015 7.63189 12 8.00008 12H8.00675C8.37494 12 8.67341 11.7015 8.67341 11.3333C8.67341 10.9651 8.37494 10.6666 8.00675 10.6666H8.00008Z" fill="#2052D4"/>
<path fill-rule="evenodd" clip-rule="evenodd" d="M0.666748 7.99996C0.666748 3.94987 3.94999 0.666626 8.00008 0.666626C12.0502 0.666626 15.3334 3.94987 15.3334 7.99996C15.3334 12.05 12.0502 15.3333 8.00008 15.3333C3.94999 15.3333 0.666748 12.05 0.666748 7.99996ZM8.00008 1.99996C4.68637 1.99996 2.00008 4.68625 2.00008 7.99996C2.00008 11.3137 4.68637 14 8.00008 14C11.3138 14 14.0001 11.3137 14.0001 7.99996C14.0001 4.68625 11.3138 1.99996 8.00008 1.99996Z" fill="#2052D4"/>
</svg>
