<svg width="15" height="15" viewBox="0 0 15 15" fill="none" xmlns="http://www.w3.org/2000/svg">
<path d="M7.5 4.09091C5.61818 4.09091 4.09091 5.61818 4.09091 7.5C4.09091 9.38182 5.61818 10.9091 7.5 10.9091C9.38182 10.9091 10.9091 9.38182 10.9091 7.5C10.9091 5.61818 9.38182 4.09091 7.5 4.09091ZM6.81818 0V2.72727H8.18182V0H6.81818ZM6.81818 12.2727V15H8.18182V12.2727H6.81818ZM15 6.81818H12.2727V8.18182H15V6.81818ZM2.72727 6.81818H0V8.18182H2.72727V6.81818ZM10.3909 11.3591L12.075 13.0432L13.0364 12.0818L11.3523 10.3977L10.3909 11.3591ZM1.95682 2.91818L3.64091 4.60227L4.60227 3.64091L2.91818 1.95682L1.95682 2.91818ZM3.64091 10.3909L1.95682 12.075L2.91818 13.0364L4.60227 11.3523L3.64091 10.3909ZM12.0818 1.95682L10.3977 3.64091L11.3591 4.60227L13.0432 2.91818L12.0818 1.95682Z" fill="#F2F2F7"/>
</svg>
