<svg width="137" height="137" viewBox="0 0 137 137" fill="none" xmlns="http://www.w3.org/2000/svg">
<path fill-rule="evenodd" clip-rule="evenodd" d="M68.14 63.16C69.5 63.16 87.5 45.49 87.5 43.81C87.5 40.74 71.53 0 68.14 0C64.6 21 63.88 42.09 68.14 63.16Z" fill="#DF362C"/>
<path fill-rule="evenodd" clip-rule="evenodd" d="M68.14 0C65.27 0 53.35 28.7 49.59 39.74C49.0668 41.0532 48.6814 42.4172 48.44 43.81C48.44 45.49 66.78 63.17 68.14 63.16V0Z" fill="#A6302B"/>
<path fill-rule="evenodd" clip-rule="evenodd" d="M72.89 68.16C72.89 69.52 90.57 87.52 92.25 87.52C95.32 87.52 136.06 71.52 136.06 68.16C115.02 64.62 93.96 63.9 72.89 68.16Z" fill="#9BA2AA"/>
<path fill-rule="evenodd" clip-rule="evenodd" d="M136.06 68.16C136.06 65.32 107.36 53.37 96.32 49.61C95.0128 49.0894 93.6557 48.7041 92.27 48.46C90.59 48.46 72.91 66.8 72.91 68.16H136.06Z" fill="#D7DADF"/>
<path fill-rule="evenodd" clip-rule="evenodd" d="M67.89 72.9C66.53 72.9 48.53 90.58 48.53 92.25C48.53 95.32 64.53 136.06 67.89 136.06C71.43 115 72.15 94 67.89 72.9Z" fill="#9BA2AA"/>
<path fill-rule="evenodd" clip-rule="evenodd" d="M67.89 136.06C70.73 136.06 82.68 107.36 86.44 96.33C86.9625 95.0131 87.3478 93.6459 87.59 92.25C87.59 90.57 69.25 72.9 67.89 72.9V136.06Z" fill="#D7DADF"/>
<path fill-rule="evenodd" clip-rule="evenodd" d="M63.16 67.91C63.16 66.55 45.48 48.55 43.8 48.55C40.74 48.55 0 64.55 0 67.91C21.04 71.45 42.09 72.17 63.16 67.91Z" fill="#D7DADF"/>
<path fill-rule="evenodd" clip-rule="evenodd" d="M0 67.91C0 70.75 28.7 82.7 39.73 86.46C41.0441 86.9806 42.4078 87.3659 43.8 87.61C45.48 87.61 63.16 69.27 63.16 67.91H0Z" fill="#9BA2AA"/>
</svg>
